<svg width="965" height="494" viewBox="0 0 965 494" fill="none" xmlns="http://www.w3.org/2000/svg">
<g clip-path="url(#clip0)">
<mask id="mask0" mask-type="alpha" maskUnits="userSpaceOnUse" x="296" y="248" width="317" height="131">
<rect x="296" y="248" width="317" height="131" fill="#C4C4C4"/>
</mask>
<g mask="url(#mask0)">
<mask id="mask1" mask-type="alpha" maskUnits="userSpaceOnUse" x="327" y="262" width="270" height="586">
<rect x="327.852" y="263.398" width="267.331" height="583.381" rx="37.4491" fill="#C4C4C4" stroke="#464646" stroke-width="1.70223"/>
</mask>
<g mask="url(#mask1)">
<rect x="327.852" y="263.398" width="267.331" height="583.381" rx="37.4491" stroke="white" stroke-width="1.70223"/>
<path d="M343.325 317.49L414.353 317.284" stroke="#198AFF" stroke-width="10.2134"/>
<path d="M424.991 317.263L496.019 317.066" stroke="#78DE7F" stroke-width="10.2134"/>
<path d="M508.028 317.034L579.056 316.837" stroke="#FF6400" stroke-width="10.2134"/>
</g>
</g>
<path fill-rule="evenodd" clip-rule="evenodd" d="M567.281 420.785C567.281 417.864 565.906 415.267 563.77 413.611L564.422 412.76C566.81 414.611 568.35 417.516 568.35 420.785C568.35 424.028 566.833 426.917 564.473 428.768L563.816 427.921C565.926 426.265 567.281 423.683 567.281 420.785ZM563.646 420.785C563.646 419.467 563.177 418.262 562.397 417.326L563.217 416.636C564.151 417.758 564.714 419.205 564.714 420.785C564.714 422.347 564.163 423.78 563.246 424.897L562.422 424.213C563.187 423.281 563.646 422.088 563.646 420.785ZM560.62 420.785C560.62 422.082 559.575 423.133 558.286 423.133C556.996 423.133 555.951 422.082 555.951 420.785C555.951 419.488 556.996 418.437 558.286 418.437C559.575 418.437 560.62 419.488 560.62 420.785ZM552.926 420.785C552.926 419.494 553.376 418.31 554.129 417.382L553.301 416.702C552.398 417.815 551.857 419.238 551.857 420.785C551.857 422.347 552.408 423.781 553.326 424.898L554.15 424.214C553.385 423.282 552.926 422.088 552.926 420.785ZM549.29 420.786C549.29 417.888 550.643 415.309 552.75 413.652L552.092 412.805C549.737 414.657 548.221 417.543 548.221 420.786C548.221 424.013 549.724 426.887 552.061 428.74L552.723 427.896C550.631 426.238 549.29 423.67 549.29 420.786Z" fill="white"/>
<path d="M552.467 441.384H555.514V440.862H553.107V436.122H552.467V441.384ZM556.376 441.384H556.987V437.535H556.376V441.384ZM556.671 436.733C556.892 436.733 557.076 436.549 557.076 436.328C557.076 436.107 556.892 435.923 556.671 435.923C556.45 435.923 556.266 436.107 556.266 436.328C556.266 436.549 556.45 436.733 556.671 436.733ZM559.202 441.384H559.982L561.365 437.535H560.733L559.606 440.766L558.466 437.535H557.803L559.202 441.384ZM563.636 441.451C564.505 441.451 565.145 441.046 565.277 440.273H564.667C564.586 440.722 564.24 440.943 563.644 440.943C562.856 440.943 562.437 440.457 562.407 439.581H565.307V439.382C565.307 438.006 564.468 437.469 563.577 437.469C562.518 437.469 561.774 438.278 561.774 439.441V439.5C561.774 440.685 562.547 441.451 563.636 441.451ZM562.429 439.088C562.532 438.404 562.952 437.977 563.577 437.977C564.21 437.977 564.622 438.293 564.681 439.088H562.429Z" fill="white"/>
<path d="M351.468 441.383H352.108V439.042H354.876V441.383H355.516V436.12H354.876V438.505H352.108V436.12H351.468V441.383ZM356.815 441.383H357.426V437.534H356.815V441.383ZM357.109 436.731C357.33 436.731 357.514 436.547 357.514 436.327C357.514 436.106 357.33 435.922 357.109 435.922C356.888 435.922 356.704 436.106 356.704 436.327C356.704 436.547 356.888 436.731 357.109 436.731ZM360.214 442.789C361.289 442.789 362.047 442.244 362.054 441.125V437.534H361.443V438.152C361.223 437.776 360.825 437.467 360.185 437.467C359.125 437.467 358.389 438.336 358.389 439.381V439.432C358.389 440.492 359.132 441.258 360.141 441.258C360.7 441.258 361.223 440.904 361.443 440.529V441.088C361.443 441.913 360.965 442.273 360.207 442.273C359.552 442.273 359.184 442.045 359.095 441.604H358.47C358.573 442.251 359.073 442.789 360.214 442.789ZM360.207 440.75C359.559 440.75 359.022 440.249 359.022 439.41V439.351C359.022 438.542 359.478 437.975 360.244 437.975C360.994 437.975 361.465 438.476 361.465 439.337V439.388C361.465 440.249 360.921 440.75 360.207 440.75ZM363.29 441.383H363.901V439.05C363.901 438.358 364.409 437.997 364.976 437.997C365.594 437.997 365.881 438.299 365.881 438.976V441.383H366.492V439.02C366.492 437.902 365.932 437.467 365.138 437.467C364.505 437.467 364.078 437.784 363.901 438.144V435.694H363.29V441.383ZM367.704 441.383H368.322V435.694H367.704V441.383ZM369.587 441.383H370.198V437.534H369.587V441.383ZM369.881 436.731C370.102 436.731 370.286 436.547 370.286 436.327C370.286 436.106 370.102 435.922 369.881 435.922C369.66 435.922 369.476 436.106 369.476 436.327C369.476 436.547 369.66 436.731 369.881 436.731ZM372.986 442.789C374.061 442.789 374.819 442.244 374.826 441.125V437.534H374.215V438.152C373.995 437.776 373.597 437.467 372.957 437.467C371.897 437.467 371.161 438.336 371.161 439.381V439.432C371.161 440.492 371.904 441.258 372.913 441.258C373.472 441.258 373.995 440.904 374.215 440.529V441.088C374.215 441.913 373.737 442.273 372.979 442.273C372.324 442.273 371.956 442.045 371.868 441.604H371.242C371.345 442.251 371.845 442.789 372.986 442.789ZM372.979 440.75C372.331 440.75 371.794 440.249 371.794 439.41V439.351C371.794 438.542 372.25 437.975 373.016 437.975C373.766 437.975 374.237 438.476 374.237 439.337V439.388C374.237 440.249 373.693 440.75 372.979 440.75ZM376.062 441.383H376.673V439.05C376.673 438.358 377.181 437.997 377.748 437.997C378.366 437.997 378.653 438.299 378.653 438.976V441.383H379.264V439.02C379.264 437.902 378.705 437.467 377.91 437.467C377.277 437.467 376.85 437.784 376.673 438.144V435.694H376.062V441.383ZM381.631 441.434C381.881 441.434 382.029 441.398 382.154 441.353V440.838C382.021 440.89 381.874 440.919 381.683 440.919C381.374 440.919 381.204 440.735 381.204 440.36V438.049H382.102V437.534H381.204V436.658H380.593V437.534H380.041V438.049H380.593V440.419C380.593 441.022 380.932 441.434 381.631 441.434ZM384.27 441.449C385.204 441.449 385.683 440.978 385.683 440.279C385.683 439.462 385.123 439.285 384.328 439.138C383.622 439.013 383.43 438.873 383.43 438.527C383.43 438.196 383.718 437.975 384.159 437.975C384.645 437.975 384.88 438.159 384.969 438.579H385.557C385.454 437.747 384.858 437.467 384.166 437.467C383.563 437.467 382.864 437.835 382.864 438.549C382.864 439.219 383.202 439.499 384.203 439.683C384.799 439.793 385.101 439.926 385.101 440.33C385.101 440.743 384.844 440.941 384.262 440.941C383.644 440.941 383.401 440.654 383.357 440.198H382.761C382.798 440.985 383.35 441.449 384.27 441.449Z" fill="white"/>
<path d="M367.351 412.944C367.426 412.719 367.637 412.567 367.875 412.567C368.112 412.567 368.323 412.719 368.398 412.944L370.17 418.249H375.913C376.154 418.249 376.366 418.405 376.439 418.634C376.512 418.863 376.428 419.113 376.232 419.252L371.598 422.527L373.366 427.82C373.442 428.047 373.363 428.296 373.172 428.438C372.98 428.581 372.719 428.584 372.524 428.446L367.875 425.159L363.225 428.446C363.03 428.584 362.769 428.581 362.577 428.438C362.386 428.296 362.307 428.047 362.383 427.82L364.151 422.527L359.517 419.252C359.321 419.113 359.237 418.863 359.31 418.634C359.383 418.405 359.595 418.249 359.836 418.249H365.579L367.351 412.944Z" stroke="white" stroke-width="1.10398" stroke-linejoin="round"/>
<path d="M443.04 440.921C441.944 440.921 441.097 440.053 441.097 438.779V438.72C441.097 437.469 441.804 436.571 443.026 436.571C444.24 436.571 444.932 437.528 444.932 438.706V438.765C444.932 440.038 444.211 440.921 443.04 440.921ZM443.04 441.451C444.571 441.451 445.594 440.259 445.594 438.772V438.713C445.594 437.234 444.571 436.056 443.026 436.056C441.48 436.056 440.435 437.234 440.435 438.728V438.787C440.435 440.259 441.488 441.451 443.04 441.451ZM446.614 441.385H447.225V439.052C447.225 438.36 447.733 437.999 448.299 437.999C448.918 437.999 449.205 438.301 449.205 438.978V441.385H449.816V439.022C449.816 437.904 449.256 437.469 448.461 437.469C447.828 437.469 447.402 437.786 447.225 438.146V437.536H446.614V441.385ZM451.697 440.862V436.638H452.411C453.861 436.638 454.45 437.491 454.45 438.706V438.765C454.45 440.053 453.773 440.862 452.418 440.862H451.697ZM451.057 441.385H452.433C454.273 441.385 455.112 440.229 455.112 438.772V438.706C455.112 437.241 454.258 436.122 452.448 436.122H451.057V441.385ZM457.712 441.451C458.581 441.451 459.221 441.046 459.354 440.273H458.743C458.662 440.722 458.316 440.943 457.72 440.943C456.932 440.943 456.513 440.457 456.483 439.582H459.383V439.383C459.383 438.007 458.544 437.469 457.653 437.469C456.594 437.469 455.85 438.279 455.85 439.442V439.501C455.85 440.686 456.623 441.451 457.712 441.451ZM456.505 439.088C456.608 438.404 457.028 437.977 457.653 437.977C458.286 437.977 458.699 438.294 458.757 439.088H456.505ZM460.32 441.385H460.931V439.03C460.931 438.338 461.446 437.999 461.947 437.999C462.477 437.999 462.764 438.279 462.764 438.956V441.385H463.375V439.03C463.375 438.338 463.89 437.999 464.39 437.999C464.92 437.999 465.207 438.279 465.207 438.956V441.385H465.818V439C465.818 437.881 465.215 437.469 464.523 437.469C464.045 437.469 463.47 437.69 463.205 438.191C463.007 437.675 462.573 437.469 462.079 437.469C461.527 437.469 461.108 437.764 460.931 438.124V437.536H460.32V441.385ZM467.983 441.451C468.55 441.451 468.896 441.26 469.183 440.899V441.385H469.794V438.846C469.794 437.771 469.124 437.469 468.388 437.469C467.645 437.469 466.945 437.793 466.865 438.669H467.475C467.534 438.198 467.829 437.977 468.359 437.977C468.947 437.977 469.183 438.235 469.183 438.846V439.125H468.631C467.645 439.125 466.703 439.427 466.703 440.318C466.703 441.105 467.269 441.451 467.983 441.451ZM468.042 440.965C467.505 440.965 467.313 440.715 467.313 440.318C467.313 439.751 467.88 439.56 468.653 439.56H469.183V440.038C469.183 440.634 468.69 440.965 468.042 440.965ZM470.994 441.385H471.605V439.052C471.605 438.36 472.112 437.999 472.679 437.999C473.297 437.999 473.584 438.301 473.584 438.978V441.385H474.195V439.022C474.195 437.904 473.636 437.469 472.841 437.469C472.208 437.469 471.781 437.786 471.605 438.146V437.536H470.994V441.385ZM476.842 441.451C477.402 441.451 477.939 441.098 478.16 440.722V441.385H478.771V435.696H478.16V438.154C477.939 437.778 477.541 437.469 476.901 437.469C475.841 437.469 475.105 438.301 475.105 439.479V439.537C475.105 440.737 475.834 441.451 476.842 441.451ZM476.909 440.943C476.261 440.943 475.738 440.479 475.738 439.508V439.449C475.738 438.514 476.195 437.977 476.96 437.977C477.711 437.977 478.182 438.441 478.182 439.427V439.486C478.182 440.472 477.622 440.943 476.909 440.943Z" fill="white"/>
<path fill-rule="evenodd" clip-rule="evenodd" d="M459.479 412.806V410.998L462.955 413.453L459.479 415.844V413.87C456.122 414.265 453.517 417.135 453.517 420.617C453.517 424.368 456.541 427.409 460.271 427.409C464.001 427.409 467.025 424.368 467.025 420.617C467.025 418.662 466.205 416.901 464.89 415.661L465.61 414.889C467.128 416.321 468.077 418.358 468.077 420.617C468.077 424.953 464.582 428.468 460.271 428.468C455.96 428.468 452.465 424.953 452.465 420.617C452.465 416.55 455.54 413.205 459.479 412.806Z" fill="white"/>
<rect x="328.368" y="403.368" width="266.264" height="44.264" stroke="white" stroke-width="0.73599"/>
<path d="M808.688 159.716C808.688 157.148 807.116 155.288 804.596 155.288C802.076 155.288 800.504 157.148 800.504 159.716C800.504 162.296 802.076 164.144 804.596 164.144C807.116 164.144 808.688 162.296 808.688 159.716ZM807.068 159.716C807.068 161.624 806.228 162.884 804.596 162.884C802.952 162.884 802.124 161.624 802.124 159.716C802.124 157.82 802.952 156.548 804.596 156.548C806.228 156.548 807.068 157.82 807.068 159.716ZM814.408 155.432H812.548V164H814.072V157.364H814.096L818.5 164H819.976V155.432H818.464V161.504H818.44L814.408 155.432ZM832.542 155.432H829.242V164H832.542C835.122 164 836.826 162.296 836.826 159.716C836.826 157.148 835.122 155.432 832.542 155.432ZM832.542 156.692C834.246 156.692 835.194 157.808 835.194 159.716C835.194 161.624 834.246 162.74 832.542 162.74H830.802V156.692H832.542ZM846.893 164V162.74H842.249V160.34H846.317V159.08H842.249V156.692H846.845V155.432H840.689V164H846.893ZM856.064 164L858.5 157.268H858.524V164H860.048V155.432H857.864L855.56 161.876H855.536L853.232 155.432H850.976V164H852.44V157.268H852.464L854.912 164H856.064ZM870.607 164H872.239L868.795 155.432H867.007L863.563 164H865.123L865.939 161.9H869.803L870.607 164ZM867.871 156.968H867.907L869.323 160.664H866.431L867.871 156.968ZM877.616 155.432H875.756V164H877.28V157.364H877.304L881.708 164H883.184V155.432H881.672V161.504H881.648L877.616 155.432ZM890.831 155.432H887.531V164H890.831C893.411 164 895.115 162.296 895.115 159.716C895.115 157.148 893.411 155.432 890.831 155.432ZM890.831 156.692C892.535 156.692 893.483 157.808 893.483 159.716C893.483 161.624 892.535 162.74 890.831 162.74H889.091V156.692H890.831Z" fill="white"/>
<path d="M107.688 159.716C107.688 157.148 106.116 155.288 103.596 155.288C101.076 155.288 99.504 157.148 99.504 159.716C99.504 162.296 101.076 164.144 103.596 164.144C106.116 164.144 107.688 162.296 107.688 159.716ZM106.068 159.716C106.068 161.624 105.228 162.884 103.596 162.884C101.952 162.884 101.124 161.624 101.124 159.716C101.124 157.82 101.952 156.548 103.596 156.548C105.228 156.548 106.068 157.82 106.068 159.716ZM113.408 155.432H111.548V164H113.072V157.364H113.096L117.5 164H118.976V155.432H117.464V161.504H117.44L113.408 155.432ZM131.542 155.432H128.242V164H131.542C134.122 164 135.826 162.296 135.826 159.716C135.826 157.148 134.122 155.432 131.542 155.432ZM131.542 156.692C133.246 156.692 134.194 157.808 134.194 159.716C134.194 161.624 133.246 162.74 131.542 162.74H129.802V156.692H131.542ZM145.893 164V162.74H141.249V160.34H145.317V159.08H141.249V156.692H145.845V155.432H139.689V164H145.893ZM155.064 164L157.5 157.268H157.524V164H159.048V155.432H156.864L154.56 161.876H154.536L152.232 155.432H149.976V164H151.44V157.268H151.464L153.912 164H155.064ZM169.607 164H171.239L167.795 155.432H166.007L162.563 164H164.123L164.939 161.9H168.803L169.607 164ZM166.871 156.968H166.907L168.323 160.664H165.431L166.871 156.968ZM176.616 155.432H174.756V164H176.28V157.364H176.304L180.708 164H182.184V155.432H180.672V161.504H180.648L176.616 155.432ZM189.831 155.432H186.531V164H189.831C192.411 164 194.115 162.296 194.115 159.716C194.115 157.148 192.411 155.432 189.831 155.432ZM189.831 156.692C191.535 156.692 192.483 157.808 192.483 159.716C192.483 161.624 191.535 162.74 189.831 162.74H188.091V156.692H189.831Z" fill="white"/>
<path d="M23.972 417H25.568V413.28H29.96V417H31.544V408.432H29.96V412.032H25.568V408.432H23.972V417ZM35.8876 417H37.4836V408.432H35.8876V417ZM41.3587 412.704C41.3587 415.356 42.9787 417.144 45.3787 417.144C46.4347 417.144 47.5267 416.592 47.8387 415.776L47.9467 417H49.1827V412.632H45.9427V413.784H47.5987V414.084C47.5987 415.14 46.7347 415.884 45.4747 415.884C43.8787 415.884 42.9787 414.66 42.9787 412.704C42.9787 410.76 43.9027 409.548 45.4987 409.548C46.6507 409.548 47.2987 410.148 47.5027 411.108H49.0747C48.7387 409.416 47.5627 408.288 45.4987 408.288C43.0507 408.288 41.3587 410.064 41.3587 412.704ZM53.379 417H54.975V413.28H59.367V417H60.951V408.432H59.367V412.032H54.975V408.432H53.379V417ZM65.2947 417H71.3067V415.74H66.8907V408.432H65.2947V417ZM75.2884 417H76.8844V408.432H75.2884V417ZM80.7595 412.704C80.7595 415.356 82.3795 417.144 84.7795 417.144C85.8355 417.144 86.9275 416.592 87.2395 415.776L87.3475 417H88.5835V412.632H85.3435V413.784H86.9995V414.084C86.9995 415.14 86.1355 415.884 84.8755 415.884C83.2795 415.884 82.3795 414.66 82.3795 412.704C82.3795 410.76 83.3035 409.548 84.8995 409.548C86.0515 409.548 86.6995 410.148 86.9035 411.108H88.4755C88.1395 409.416 86.9635 408.288 84.8995 408.288C82.4515 408.288 80.7595 410.064 80.7595 412.704ZM92.7798 417H94.3758V413.28H98.7678V417H100.352V408.432H98.7678V412.032H94.3758V408.432H92.7798V417ZM107.251 417H108.835V409.692H111.919V408.432H104.179V409.692H107.251V417ZM114.922 414.408C115.078 416.292 116.65 417.144 118.69 417.144C120.586 417.144 122.014 416.112 122.014 414.552C122.014 413.172 121.174 412.476 119.77 412.212L118.114 411.888C117.19 411.708 116.746 411.48 116.746 410.772C116.746 410.016 117.394 409.476 118.426 409.476C119.494 409.476 120.238 409.944 120.346 410.784H121.846C121.678 409.176 120.454 408.288 118.414 408.288C116.542 408.288 115.198 409.344 115.198 410.868C115.198 412.368 116.218 412.968 117.478 413.196L119.05 413.484C120.082 413.676 120.454 414.024 120.454 414.648C120.454 415.512 119.662 415.968 118.642 415.968C117.574 415.968 116.566 415.572 116.458 414.408H114.922Z" fill="white"/>
<g clip-path="url(#clip1)">
<mask id="mask2" mask-type="alpha" maskUnits="userSpaceOnUse" x="346" y="0" width="213" height="130">
<path d="M346 0H559V130H346V0Z" fill="#C4C4C4"/>
</mask>
<g mask="url(#mask2)">
<mask id="mask3" mask-type="alpha" maskUnits="userSpaceOnUse" x="368" y="1" width="106" height="230">
<rect x="368.476" y="1.69029" width="104.705" height="228.491" rx="14.6676" fill="#C4C4C4" stroke="#464646" stroke-width="0.666708"/>
</mask>
<g mask="url(#mask3)">
<rect x="368.476" y="1.69029" width="104.705" height="228.491" rx="14.6676" stroke="white" stroke-width="0.666708"/>
</g>
<mask id="mask4" mask-type="alpha" maskUnits="userSpaceOnUse" x="440" y="26" width="107" height="244">
<rect x="440.98" y="26.4071" width="104.793" height="243.208" rx="14.6676" fill="white" stroke="#464646" stroke-width="0.666708"/>
</mask>
<g mask="url(#mask4)">
<rect x="441.333" y="34.3334" width="104.705" height="228.491" rx="14.6676" fill="#222222" stroke="white" stroke-width="0.666708"/>
</g>
<path opacity="0.8" fill-rule="evenodd" clip-rule="evenodd" d="M430.737 73.2113C430.737 69.5707 429.014 66.3345 426.335 64.2703L427.153 63.209C430.147 65.5159 432.077 69.1374 432.077 73.2113C432.077 77.2533 430.175 80.8541 427.218 83.1613L426.393 82.1049C429.039 80.041 430.737 76.8235 430.737 73.2113ZM426.18 73.2114C426.18 71.5686 425.592 70.0665 424.615 68.8999L425.642 68.0397C426.813 69.4384 427.52 71.2425 427.52 73.2114C427.52 75.1578 426.829 76.9443 425.678 78.3368L424.645 77.4836C425.604 76.3224 426.18 74.8351 426.18 73.2114ZM422.387 73.2109C422.387 74.8273 421.076 76.1371 419.461 76.1371C417.844 76.1371 416.534 74.8273 416.534 73.2109C416.534 71.5946 417.844 70.2839 419.461 70.2839C421.076 70.2839 422.387 71.5946 422.387 73.2109ZM412.742 73.2095C412.742 71.6004 413.307 70.1246 414.25 68.9676L413.211 68.121C412.08 69.5084 411.402 71.2809 411.402 73.2095C411.402 75.1558 412.093 76.9434 413.243 78.336L414.276 77.4828C413.317 76.3217 412.742 74.8333 412.742 73.2095ZM408.184 73.2098C408.184 69.5988 409.881 66.3845 412.522 64.3192L411.697 63.2637C408.745 65.5718 406.844 69.1689 406.844 73.2098C406.844 77.2324 408.728 80.8149 411.658 83.1242L412.487 82.072C409.865 80.0055 408.184 76.8044 408.184 73.2098Z" fill="#78DE7F"/>
<path fill-rule="evenodd" clip-rule="evenodd" d="M491.728 96.5676V94L496.694 97.4876L491.728 100.883V98.0804C486.932 98.6411 483.211 102.718 483.211 107.664C483.211 112.993 487.531 117.314 492.86 117.314C498.19 117.314 502.51 112.993 502.51 107.664C502.51 104.888 501.338 102.386 499.46 100.624L500.489 99.5275C502.657 101.561 504.014 104.455 504.014 107.664C504.014 113.824 499.02 118.817 492.86 118.817C486.701 118.817 481.707 113.824 481.707 107.664C481.707 101.887 486.1 97.1353 491.728 96.5676Z" fill="#78DE7F"/>
</g>
</g>
<path d="M454.688 159.716C454.688 157.148 453.116 155.288 450.596 155.288C448.076 155.288 446.504 157.148 446.504 159.716C446.504 162.296 448.076 164.144 450.596 164.144C453.116 164.144 454.688 162.296 454.688 159.716ZM453.068 159.716C453.068 161.624 452.228 162.884 450.596 162.884C448.952 162.884 448.124 161.624 448.124 159.716C448.124 157.82 448.952 156.548 450.596 156.548C452.228 156.548 453.068 157.82 453.068 159.716ZM460.408 155.432H458.548V164H460.072V157.364H460.096L464.5 164H465.976V155.432H464.464V161.504H464.44L460.408 155.432ZM478.542 155.432H475.242V164H478.542C481.122 164 482.826 162.296 482.826 159.716C482.826 157.148 481.122 155.432 478.542 155.432ZM478.542 156.692C480.246 156.692 481.194 157.808 481.194 159.716C481.194 161.624 480.246 162.74 478.542 162.74H476.802V156.692H478.542ZM492.893 164V162.74H488.249V160.34H492.317V159.08H488.249V156.692H492.845V155.432H486.689V164H492.893ZM502.064 164L504.5 157.268H504.524V164H506.048V155.432H503.864L501.56 161.876H501.536L499.232 155.432H496.976V164H498.44V157.268H498.464L500.912 164H502.064ZM516.607 164H518.239L514.795 155.432H513.007L509.563 164H511.123L511.939 161.9H515.803L516.607 164ZM513.871 156.968H513.907L515.323 160.664H512.431L513.871 156.968ZM523.616 155.432H521.756V164H523.28V157.364H523.304L527.708 164H529.184V155.432H527.672V161.504H527.648L523.616 155.432ZM536.831 155.432H533.531V164H536.831C539.411 164 541.115 162.296 541.115 159.716C541.115 157.148 539.411 155.432 536.831 155.432ZM536.831 156.692C538.535 156.692 539.483 157.808 539.483 159.716C539.483 161.624 538.535 162.74 536.831 162.74H535.091V156.692H536.831Z" fill="white"/>
<path d="M374.972 164H380.984V162.74H376.568V155.432H374.972V164ZM384.966 164H386.562V155.432H384.966V164ZM393.449 164H395.225L398.621 155.432H397.001L394.385 162.296H394.361L391.757 155.432H390.065L393.449 164ZM408.345 164V162.74H403.701V160.34H407.769V159.08H403.701V156.692H408.297V155.432H402.141V164H408.345Z" fill="white"/>
<path d="M726.972 164H732.984V162.74H728.568V155.432H726.972V164ZM736.966 164H738.562V155.432H736.966V164ZM745.449 164H747.225L750.621 155.432H749.001L746.385 162.296H746.361L743.757 155.432H742.065L745.449 164ZM760.345 164V162.74H755.701V160.34H759.769V159.08H755.701V156.692H760.297V155.432H754.141V164H760.345Z" fill="white"/>
<path d="M27.972 164H33.984V162.74H29.568V155.432H27.972V164ZM37.9657 164H39.5617V155.432H37.9657V164ZM46.4488 164H48.2248L51.6208 155.432H50.0008L47.3848 162.296H47.3608L44.7568 155.432H43.0648L46.4488 164ZM61.3448 164V162.74H56.7008V160.34H60.7688V159.08H56.7008V156.692H61.2968V155.432H55.1408V164H61.3448Z" fill="white"/>
<path d="M461 231L461 192" stroke="white" stroke-width="0.851117"/>
<path d="M381 219.5L109 219.5L109 191" stroke="white" stroke-width="0.851117"/>
<path d="M368 465.974L368 475L72 475L72 444" stroke="white" stroke-width="0.851117"/>
<path d="M460 465.974L460 475L764 475L764 444" stroke="white" stroke-width="0.851117"/>
<path d="M558 484.97L558 494L891 494L891 444" stroke="white" stroke-width="0.851117"/>
<path d="M544 219L816 219L816 190.999" stroke="white" stroke-width="0.851117"/>
<path d="M474 201.718L461.5 191L449 202" stroke="white" stroke-width="0.851117" stroke-linecap="round" stroke-linejoin="round"/>
<path d="M122 201.718L109.5 191L97 202" stroke="white" stroke-width="0.851117" stroke-linecap="round" stroke-linejoin="round"/>
<path d="M84 453.718L71.5 443L59 454" stroke="white" stroke-width="0.851117" stroke-linecap="round" stroke-linejoin="round"/>
<path d="M751 453.718L763.5 443L776 454" stroke="white" stroke-width="0.851117" stroke-linecap="round" stroke-linejoin="round"/>
<path d="M878 453.718L890.5 443L903 454" stroke="white" stroke-width="0.851117" stroke-linecap="round" stroke-linejoin="round"/>
<path d="M803 201.718L815.5 191L828 202" stroke="white" stroke-width="0.851117" stroke-linecap="round" stroke-linejoin="round"/>
<g clip-path="url(#clip2)">
<mask id="mask5" mask-type="alpha" maskUnits="userSpaceOnUse" x="0" y="0" width="213" height="130">
<path d="M0 0H213V130H0V0Z" fill="#C4C4C4"/>
</mask>
<g mask="url(#mask5)">
<mask id="mask6" mask-type="alpha" maskUnits="userSpaceOnUse" x="22" y="1" width="106" height="230">
<rect x="22.4378" y="1.69029" width="104.705" height="228.491" rx="14.6676" fill="#C4C4C4" stroke="#464646" stroke-width="0.666708"/>
</mask>
<g mask="url(#mask6)">
<rect x="22.4378" y="1.69175" width="104.705" height="228.491" rx="14.6676" stroke="white" stroke-width="0.666708"/>
</g>
<mask id="mask7" mask-type="alpha" maskUnits="userSpaceOnUse" x="94" y="26" width="107" height="244">
<rect x="94.9408" y="26.4071" width="104.793" height="243.208" rx="14.6676" fill="white" stroke="#464646" stroke-width="0.666708"/>
</mask>
<g mask="url(#mask7)">
<rect x="94.9408" y="31.3504" width="104.705" height="228.491" rx="14.6676" fill="#222222" stroke="white" stroke-width="0.666708"/>
</g>
</g>
</g>
<mask id="mask8" mask-type="alpha" maskUnits="userSpaceOnUse" x="0" y="240" width="148" height="139">
<path d="M0.786886 241.392H147.414V378.504H0.786886V241.392Z" fill="#C4C4C4" stroke="white" stroke-width="0.851117"/>
</mask>
<g mask="url(#mask8)">
<mask id="mask9" mask-type="alpha" maskUnits="userSpaceOnUse" x="22" y="262" width="106" height="230">
<rect x="22.9398" y="262.722" width="104.705" height="228.491" rx="14.6676" fill="#C4C4C4" stroke="white" stroke-width="0.666708"/>
</mask>
<g mask="url(#mask9)">
<rect x="22.9398" y="262.722" width="104.705" height="228.491" rx="14.6676" stroke="white" stroke-width="0.666708"/>
</g>
</g>
<g clip-path="url(#clip3)">
<mask id="mask10" mask-type="alpha" maskUnits="userSpaceOnUse" x="714" y="1" width="106" height="230">
<rect x="714.515" y="1.69029" width="104.705" height="228.491" rx="14.6676" fill="#C4C4C4" stroke="#464646" stroke-width="0.666708"/>
</mask>
<g mask="url(#mask10)">
<rect x="714.515" y="1.69029" width="104.705" height="228.491" rx="14.6676" stroke="white" stroke-width="0.666708"/>
</g>
<mask id="mask11" mask-type="alpha" maskUnits="userSpaceOnUse" x="786" y="26" width="107" height="244">
<rect x="787.018" y="26.4071" width="104.793" height="243.208" rx="14.6676" fill="white" stroke="#464646" stroke-width="0.666708"/>
</mask>
<g mask="url(#mask11)">
<rect x="787.018" y="31.3504" width="104.705" height="228.491" rx="14.6676" fill="#222222" stroke="white" stroke-width="0.666708"/>
</g>
</g>
<path opacity="0.8" fill-rule="evenodd" clip-rule="evenodd" d="M85.6977 79.2113C85.6977 75.5707 83.9745 72.3345 81.2958 70.2703L82.1136 69.209C85.1073 71.5159 87.0375 75.1374 87.0375 79.2113C87.0375 83.2533 85.1355 86.8541 82.1782 89.1613L81.354 88.1049C83.9996 86.041 85.6977 82.8235 85.6977 79.2113ZM81.1403 79.2114C81.1403 77.5686 80.5523 76.0665 79.5753 74.8999L80.6025 74.0397C81.774 75.4384 82.4802 77.2425 82.4802 79.2114C82.4802 81.1578 81.7891 82.9443 80.639 84.3368L79.6059 83.4836C80.565 82.3224 81.1403 80.8351 81.1403 79.2114ZM77.3482 79.2109C77.3482 80.8273 76.0375 82.1371 74.4221 82.1371C72.8048 82.1371 71.495 80.8273 71.495 79.2109C71.495 77.5946 72.8048 76.2839 74.4221 76.2839C76.0375 76.2839 77.3482 77.5946 77.3482 79.2109ZM67.7026 79.2095C67.7026 77.6004 68.2675 76.1246 69.2108 74.9676L68.1724 74.121C67.0412 75.5084 66.3628 77.2809 66.3628 79.2095C66.3628 81.1558 67.0538 82.9434 68.204 84.336L69.237 83.4828C68.278 82.3217 67.7026 80.8333 67.7026 79.2095ZM63.1445 79.2098C63.1445 75.5988 64.8415 72.3845 67.483 70.3192L66.6577 69.2637C63.7056 71.5718 61.8047 75.1689 61.8047 79.2098C61.8047 83.2324 63.6885 86.8149 66.6186 89.1242L67.448 88.072C64.8262 86.0055 63.1445 82.8044 63.1445 79.2098Z" fill="#198AFF"/>
<path opacity="0.8" fill-rule="evenodd" clip-rule="evenodd" d="M782.916 79.2113C782.916 75.5707 781.371 72.3345 778.969 70.2703L779.703 69.209C782.387 71.5159 784.118 75.1374 784.118 79.2113C784.118 83.2533 782.412 86.8541 779.76 89.1613L779.021 88.1049C781.394 86.041 782.916 82.8235 782.916 79.2113ZM778.83 79.2113C778.83 77.5685 778.302 76.0664 777.426 74.8998L778.347 74.0396C779.398 75.4383 780.031 77.2424 780.031 79.2113C780.031 81.1577 779.411 82.9442 778.38 84.3367L777.454 83.4835C778.314 82.3223 778.83 80.835 778.83 79.2113ZM775.428 79.2107C775.428 80.8271 774.253 82.1369 772.805 82.1369C771.354 82.1369 770.18 80.8271 770.18 79.2107C770.18 77.5944 771.354 76.2837 772.805 76.2837C774.253 76.2837 775.428 77.5944 775.428 79.2107ZM766.779 79.2096C766.779 77.6005 767.286 76.1247 768.132 74.9677L767.201 74.1211C766.186 75.5085 765.578 77.281 765.578 79.2096C765.578 81.1559 766.198 82.9436 767.229 84.3362L768.155 83.4829C767.295 82.3218 766.779 80.8334 766.779 79.2096ZM762.693 79.2098C762.693 75.5988 764.214 72.3845 766.583 70.3192L765.843 69.2637C763.196 71.5719 761.491 75.1689 761.491 79.2098C761.491 83.2324 763.18 86.8149 765.808 89.1243L766.552 88.072C764.201 86.0056 762.693 82.8044 762.693 79.2098Z" fill="#FF6400"/>
<path d="M871.694 417H877.706V415.74H873.29V408.432H871.694V417ZM881.687 417H883.283V408.432H881.687V417ZM890.17 417H891.946L895.342 408.432H893.722L891.106 415.296H891.082L888.478 408.432H886.786L890.17 417ZM905.066 417V415.74H900.422V413.34H904.49V412.08H900.422V409.692H905.018V408.432H898.862V417H905.066Z" fill="white"/>
<mask id="mask12" mask-type="alpha" maskUnits="userSpaceOnUse" x="817" y="241" width="148" height="139">
<path d="M817.594 242.392H964.221V379.504H817.594V242.392Z" fill="#C4C4C4" stroke="white" stroke-width="0.851117"/>
</mask>
<g mask="url(#mask12)">
<mask id="mask13" mask-type="alpha" maskUnits="userSpaceOnUse" x="839" y="263" width="106" height="230">
<rect x="839.746" y="263.723" width="104.705" height="228.491" rx="14.6676" fill="#C4C4C4" stroke="white" stroke-width="0.666708"/>
</mask>
<g mask="url(#mask13)">
<rect x="839.746" y="263.723" width="104.705" height="228.491" rx="14.6676" stroke="white" stroke-width="0.666708"/>
</g>
</g>
<path opacity="0.8" fill-rule="evenodd" clip-rule="evenodd" d="M903.677 338.479C903.677 334.839 901.954 331.603 899.276 329.538L900.093 328.477C903.087 330.784 905.017 334.406 905.017 338.479C905.017 342.521 903.115 346.122 900.158 348.429L899.334 347.373C901.979 345.309 903.677 342.092 903.677 338.479ZM899.12 338.479C899.12 336.837 898.532 335.335 897.555 334.168L898.582 333.308C899.753 334.706 900.459 336.511 900.459 338.479C900.459 340.426 899.768 342.212 898.618 343.605L897.585 342.752C898.544 341.59 899.12 340.103 899.12 338.479ZM895.328 338.479C895.328 340.095 894.017 341.405 892.401 341.405C890.784 341.405 889.474 340.095 889.474 338.479C889.474 336.863 890.784 335.552 892.401 335.552C894.017 335.552 895.328 336.863 895.328 338.479ZM885.682 338.478C885.682 336.868 886.247 335.393 887.19 334.236L886.152 333.389C885.021 334.776 884.342 336.549 884.342 338.478C884.342 340.424 885.033 342.212 886.183 343.604L887.216 342.751C886.257 341.59 885.682 340.101 885.682 338.478ZM881.124 338.48C881.124 334.869 882.821 331.655 885.462 329.59L884.637 328.534C881.685 330.842 879.784 334.439 879.784 338.48C879.784 342.503 881.668 346.085 884.598 348.395L885.427 347.342C882.806 345.276 881.124 342.075 881.124 338.48Z" fill="#9F9F9F"/>
<path fill-rule="evenodd" clip-rule="evenodd" d="M145.689 96.5286V93.9609L150.655 97.4485L145.689 100.844V98.0413C140.893 98.602 137.172 102.679 137.172 107.625C137.172 112.954 141.492 117.275 146.821 117.275C152.151 117.275 156.471 112.954 156.471 107.625C156.471 104.848 155.299 102.347 153.421 100.585L154.45 99.4884C156.618 101.522 157.975 104.416 157.975 107.625C157.975 113.785 152.981 118.778 146.821 118.778C140.661 118.778 135.668 113.785 135.668 107.625C135.668 101.848 140.061 97.0962 145.689 96.5286Z" fill="#198AFF"/>
<path fill-rule="evenodd" clip-rule="evenodd" d="M845.767 97.0569V93.9609L850.733 97.4485L845.767 100.844V98.5696C840.971 99.1304 837.25 103.207 837.25 108.153C837.25 113.483 841.57 117.803 846.899 117.803C852.229 117.803 856.549 113.483 856.549 108.153C856.549 105.377 855.377 102.875 853.499 101.114L854.528 100.017C856.696 102.051 858.053 104.944 858.053 108.153C858.053 114.313 853.059 119.307 846.899 119.307C840.74 119.307 835.746 114.313 835.746 108.153C835.746 102.376 840.139 97.6245 845.767 97.0569Z" fill="#FF6400"/>
<path opacity="0.8" d="M75.8306 325.771C75.9284 325.485 76.1974 325.293 76.5 325.293C76.8026 325.293 77.0716 325.485 77.1694 325.771L79.4846 332.55H87C87.3095 332.55 87.5831 332.751 87.6753 333.047C87.7675 333.342 87.6568 333.663 87.4022 333.839L81.353 338.02L83.6588 344.771C83.7575 345.06 83.6596 345.38 83.4161 345.564C83.1725 345.748 82.8383 345.756 82.5871 345.582L76.5 341.375L70.4129 345.582C70.1617 345.756 69.8275 345.748 69.5839 345.564C69.3404 345.38 69.2425 345.06 69.3412 344.771L71.647 338.02L65.5978 333.839C65.3432 333.663 65.2325 333.342 65.3247 333.047C65.4169 332.751 65.6905 332.55 66 332.55H73.5154L75.8306 325.771Z" stroke="#78DE7F" stroke-width="1.41478" stroke-linejoin="round"/>
<path opacity="0.8" d="M49.8306 325.771C49.9284 325.485 50.1974 325.293 50.5 325.293C50.8026 325.293 51.0716 325.485 51.1694 325.771L53.4846 332.55H61C61.3095 332.55 61.5831 332.751 61.6753 333.047C61.7675 333.342 61.6568 333.663 61.4022 333.839L55.353 338.02L57.6588 344.771C57.7575 345.06 57.6596 345.38 57.4161 345.564C57.1725 345.748 56.8383 345.756 56.5871 345.582L50.5 341.375L44.4129 345.582C44.1617 345.756 43.8275 345.748 43.5839 345.564C43.3404 345.38 43.2425 345.06 43.3412 344.771L45.647 338.02L39.5978 333.839C39.3432 333.663 39.2325 333.342 39.3247 333.047C39.4169 332.751 39.6905 332.55 40 332.55H47.5154L49.8306 325.771Z" stroke="#198AFF" stroke-width="1.41478" stroke-linejoin="round"/>
<path opacity="0.8" d="M102.327 325.781C102.422 325.49 102.694 325.293 103 325.293C103.306 325.293 103.578 325.49 103.673 325.781L105.874 332.55H113C113.307 332.55 113.578 332.747 113.673 333.039C113.767 333.331 113.664 333.65 113.415 333.83L107.651 338.013L109.853 344.781C109.948 345.073 109.844 345.392 109.596 345.572C109.349 345.752 109.013 345.752 108.765 345.573L103 341.389L97.2352 345.573C96.9872 345.752 96.6515 345.752 96.4036 345.572C96.1558 345.392 96.0522 345.073 96.147 344.781L98.3485 338.013L92.5845 333.83C92.3364 333.65 92.2325 333.331 92.3272 333.039C92.4218 332.747 92.6935 332.55 93 332.55H100.126L102.327 325.781Z" stroke="#FF6400" stroke-width="1.41478" stroke-linejoin="round"/>
<path d="M726.166 412.716C726.166 410.148 724.594 408.288 722.074 408.288C719.554 408.288 717.982 410.148 717.982 412.716C717.982 415.296 719.554 417.144 722.074 417.144C724.594 417.144 726.166 415.296 726.166 412.716ZM724.546 412.716C724.546 414.624 723.706 415.884 722.074 415.884C720.43 415.884 719.602 414.624 719.602 412.716C719.602 410.82 720.43 409.548 722.074 409.548C723.706 409.548 724.546 410.82 724.546 412.716ZM731.885 408.432H730.025V417H731.549V410.364H731.573L735.977 417H737.453V408.432H735.941V414.504H735.917L731.885 408.432ZM745.1 408.432H741.8V417H745.1C747.68 417 749.384 415.296 749.384 412.716C749.384 410.148 747.68 408.432 745.1 408.432ZM745.1 409.692C746.804 409.692 747.752 410.808 747.752 412.716C747.752 414.624 746.804 415.74 745.1 415.74H743.36V409.692H745.1ZM759.451 417V415.74H754.807V413.34H758.875V412.08H754.807V409.692H759.403V408.432H753.247V417H759.451ZM768.622 417L771.058 410.268H771.082V417H772.606V408.432H770.422L768.118 414.876H768.094L765.79 408.432H763.534V417H764.998V410.268H765.022L767.47 417H768.622ZM783.165 417H784.797L781.353 408.432H779.565L776.121 417H777.681L778.497 414.9H782.361L783.165 417ZM780.429 409.968H780.465L781.881 413.664H778.989L780.429 409.968ZM790.174 408.432H788.314V417H789.838V410.364H789.862L794.266 417H795.742V408.432H794.23V414.504H794.206L790.174 408.432ZM803.389 408.432H800.089V417H803.389C805.969 417 807.673 415.296 807.673 412.716C807.673 410.148 805.969 408.432 803.389 408.432ZM803.389 409.692C805.093 409.692 806.041 410.808 806.041 412.716C806.041 414.624 805.093 415.74 803.389 415.74H801.649V409.692H803.389Z" fill="white"/>
<mask id="mask14" mask-type="alpha" maskUnits="userSpaceOnUse" x="688" y="241" width="149" height="139">
<path d="M689.066 242.392H835.693V379.504H689.066V242.392Z" fill="#C4C4C4" stroke="white" stroke-width="0.851117"/>
</mask>
<g mask="url(#mask14)">
<mask id="mask15" mask-type="alpha" maskUnits="userSpaceOnUse" x="710" y="263" width="107" height="230">
<rect x="711.219" y="263.723" width="104.705" height="228.491" rx="14.6676" fill="#C4C4C4" stroke="white" stroke-width="0.666708"/>
</mask>
<g mask="url(#mask15)">
<rect x="711.219" y="263.723" width="104.705" height="228.491" rx="14.6676" stroke="white" stroke-width="0.666708"/>
</g>
</g>
<path fill-rule="evenodd" clip-rule="evenodd" d="M761.277 324.453V321.885L766.244 325.373L761.277 328.769V325.966C756.482 326.526 752.761 330.603 752.761 335.549C752.761 340.879 757.081 345.199 762.41 345.199C767.739 345.199 772.06 340.879 772.06 335.549C772.06 332.773 770.888 330.271 769.01 328.51L770.039 327.413C772.207 329.447 773.563 332.34 773.563 335.549C773.563 341.709 768.57 346.703 762.41 346.703C756.25 346.703 751.257 341.709 751.257 335.549C751.257 329.772 755.65 325.021 761.277 324.453Z" fill="#B3B3B3"/>
</g>
<defs>
<clipPath id="clip0">
<rect x="0.361328" width="964.285" height="494" fill="white"/>
</clipPath>
<clipPath id="clip1">
<rect x="368" width="178" height="130" fill="white"/>
</clipPath>
<clipPath id="clip2">
<rect x="22" width="178" height="130" fill="white"/>
</clipPath>
<clipPath id="clip3">
<rect x="714" width="191" height="130" fill="white"/>
</clipPath>
</defs>
</svg>
