<svg width="1163" height="545" fill="none" xmlns="http://www.w3.org/2000/svg"><path d="M1085.06 420.606l2.44-6.732h.02v6.732h1.52v-8.568h-2.18l-2.3 6.444h-.03l-2.3-6.444h-2.26v8.568h1.47v-6.732h.02l2.45 6.732h1.15zm14.54 0h1.64l-3.45-8.568H1096l-3.44 8.568h1.56l.82-2.1h3.86l.8 2.1zm-2.73-7.032h.03l1.42 3.696h-2.89l1.44-3.696zm7.09 2.736c0 2.652 1.62 4.44 4.02 4.44 1.05 0 2.14-.552 2.46-1.368l.1 1.224h1.24v-4.368h-3.24v1.152h1.66v.3c0 1.056-.87 1.8-2.13 1.8-1.59 0-2.49-1.224-2.49-3.18 0-1.944.92-3.156 2.52-3.156 1.15 0 1.8.6 2 1.56h1.57c-.33-1.692-1.51-2.82-3.57-2.82-2.45 0-4.14 1.776-4.14 4.416zm18.22 4.296h1.63l-3.44-8.568h-1.79l-3.44 8.568h1.56l.81-2.1h3.87l.8 2.1zm-2.74-7.032h.04l1.42 3.696h-2.9l1.44-3.696zm14.41-.336v-1.2h-6.77v1.26h4.82l-4.98 6.192v1.116h7v-1.26h-5.03l4.96-6.108zm4.01 7.368h1.6v-8.568h-1.6v8.568zm7.8-8.568h-1.86v8.568h1.53v-6.636h.02l4.4 6.636h1.48v-8.568h-1.51v6.072h-.03l-4.03-6.072zm16.12 8.568v-1.26h-4.64v-2.4h4.06v-1.26h-4.06v-2.388h4.59v-1.26h-6.15v8.568h6.2z" fill="#222"/><path d="M69.688 448.509H1072.55L69.688 379.02v69.489z" fill="url(#paint0_linear)"/><path d="M1053 379H91l962 70v-70z" fill="url(#paint1_linear)"/><path d="M71.66 501.073h982.94" stroke="#000"/><path d="M86.269 485.279l-15.003 15.793 15.398 15.793m952.926 0l15.01-15.793-15.4-15.793" stroke="#222" stroke-linecap="round" stroke-linejoin="round"/><path stroke="#000" stroke-dasharray="1 6" d="M68 1h986v169H68z"/><path d="M479.124 536.704c0-1.944.864-3.156 2.412-3.156 1.224 0 1.788.696 1.956 1.572h1.548c-.3-1.68-1.452-2.832-3.504-2.832-2.4 0-4.032 1.776-4.032 4.416 0 2.664 1.632 4.44 4.032 4.44 2.052 0 3.204-1.164 3.504-2.832h-1.548c-.168.876-.732 1.572-1.956 1.572-1.548 0-2.412-1.224-2.412-3.18zm17.437.012c0-2.568-1.572-4.428-4.092-4.428-2.52 0-4.092 1.86-4.092 4.428 0 2.58 1.572 4.428 4.092 4.428 2.52 0 4.092-1.848 4.092-4.428zm-1.62 0c0 1.908-.84 3.168-2.472 3.168-1.644 0-2.472-1.26-2.472-3.168 0-1.896.828-3.168 2.472-3.168 1.632 0 2.472 1.272 2.472 3.168zm7.339-4.284h-1.86V541h1.524v-6.636h.024l4.404 6.636h1.476v-8.568h-1.512v6.072h-.024l-4.032-6.072zM514.751 541h1.584v-7.308h3.084v-1.26h-7.74v1.26h3.072V541zm14.697 0v-1.26h-4.644v-2.4h4.068v-1.26h-4.068v-2.388h4.596v-1.26h-6.156V541h6.204zm5.943-8.568h-1.86V541h1.524v-6.636h.024l4.404 6.636h1.476v-8.568h-1.512v6.072h-.024l-4.032-6.072zM547.862 541h1.584v-7.308h3.084v-1.26h-7.74v1.26h3.072V541zm12.848-2.592c.156 1.884 1.728 2.736 3.768 2.736 1.896 0 3.324-1.032 3.324-2.592 0-1.38-.84-2.076-2.244-2.34l-1.656-.324c-.924-.18-1.368-.408-1.368-1.116 0-.756.648-1.296 1.68-1.296 1.068 0 1.812.468 1.92 1.308h1.5c-.168-1.608-1.392-2.496-3.432-2.496-1.872 0-3.216 1.056-3.216 2.58 0 1.5 1.02 2.1 2.28 2.328l1.572.288c1.032.192 1.404.54 1.404 1.164 0 .864-.792 1.32-1.812 1.32-1.068 0-2.076-.396-2.184-1.56h-1.536zm14.519-.564c2.016 0 3.192-.912 3.192-2.7 0-1.788-1.176-2.712-3.204-2.712h-3.54V541h1.56v-3.156h1.992zm-1.992-1.248v-2.904h1.848c1.176 0 1.764.468 1.764 1.452 0 .972-.588 1.452-1.764 1.452h-1.848zM588.379 541v-1.26h-4.644v-2.4h4.068v-1.26h-4.068v-2.388h4.596v-1.26h-6.156V541h6.204zm5.235-4.296c0-1.944.864-3.156 2.412-3.156 1.224 0 1.788.696 1.956 1.572h1.548c-.3-1.68-1.452-2.832-3.504-2.832-2.4 0-4.032 1.776-4.032 4.416 0 2.664 1.632 4.44 4.032 4.44 2.052 0 3.204-1.164 3.504-2.832h-1.548c-.168.876-.732 1.572-1.956 1.572-1.548 0-2.412-1.224-2.412-3.18zM605.773 541h1.584v-7.308h3.084v-1.26h-7.74v1.26h3.072V541zm10.053 0v-3.204h1.92l1.956 3.204h1.74l-2.148-3.444c.972-.312 1.824-1.104 1.824-2.436 0-1.752-1.176-2.688-3.18-2.688h-3.672V541h1.56zm0-4.452v-2.856h1.932c1.188 0 1.788.492 1.788 1.428 0 .936-.6 1.428-1.788 1.428h-1.932zm16.56.996v-5.112h-1.584v5.1c0 1.5-.696 2.34-2.076 2.34-1.38 0-2.064-.84-2.064-2.34v-5.1h-1.596v5.088c0 2.364 1.356 3.624 3.66 3.624 2.316 0 3.66-1.26 3.66-3.6zm9.322 3.456l2.436-6.732h.024V541h1.524v-8.568h-2.184l-2.304 6.444h-.024l-2.304-6.444h-2.256V541h1.464v-6.732h.024l2.448 6.732h1.152z" fill="#222"/><g filter="url(#filter0_d)"><path fill="#fff" d="M184 124h214v205H184z"/></g><path fill="url(#paint2_linear)" d="M184 124h214v91H184z"/><path d="M276.859 163.148h-4.95V176h4.95c3.87 0 6.426-2.556 6.426-6.426 0-3.852-2.556-6.426-6.426-6.426zm0 1.89c2.556 0 3.978 1.674 3.978 4.536 0 2.862-1.422 4.536-3.978 4.536h-2.61v-9.072h2.61zM287.879 176h9.018v-1.89h-6.624v-10.962h-2.394V176zm13.791 0h2.394v-5.148h5.814v-1.89h-5.814v-3.924h6.48v-1.89h-8.874V176zm-47.898 16.84c.13 1.57 1.44 2.28 3.14 2.28 1.58 0 2.77-.86 2.77-2.16 0-1.15-.7-1.73-1.87-1.95l-1.38-.27c-.77-.15-1.14-.34-1.14-.93 0-.63.54-1.08 1.4-1.08.89 0 1.51.39 1.6 1.09h1.25c-.14-1.34-1.16-2.08-2.86-2.08-1.56 0-2.68.88-2.68 2.15 0 1.25.85 1.75 1.9 1.94l1.31.24c.86.16 1.17.45 1.17.97 0 .72-.66 1.1-1.51 1.1-.89 0-1.73-.33-1.82-1.3h-1.28zm15.15-.72v-4.26h-1.32v4.25c0 1.25-.58 1.95-1.73 1.95s-1.72-.7-1.72-1.95v-4.25h-1.33v4.24c0 1.97 1.13 3.02 3.05 3.02 1.93 0 3.05-1.05 3.05-3zm6.659 2.88c1.65 0 2.61-.69 2.61-2.03 0-.83-.59-1.46-1.37-1.67.58-.17 1.08-.86 1.08-1.49 0-1.28-.91-1.95-2.58-1.95h-2.87V195h3.13zm-1.83-4.12v-2.04h1.57c.87 0 1.3.37 1.3 1.02 0 .62-.42 1.02-1.31 1.02h-1.56zm0 .95h1.72c.92 0 1.41.42 1.41 1.09 0 .69-.48 1.1-1.4 1.1h-1.73v-2.19zm14.892 3.17c1.65 0 2.61-.69 2.61-2.03 0-.83-.59-1.46-1.37-1.67.58-.17 1.08-.86 1.08-1.49 0-1.28-.91-1.95-2.58-1.95h-2.87V195h3.13zm-1.83-4.12v-2.04h1.57c.87 0 1.3.37 1.3 1.02 0 .62-.42 1.02-1.31 1.02h-1.56zm0 .95h1.72c.92 0 1.41.42 1.41 1.09 0 .69-.48 1.1-1.4 1.1h-1.73v-2.19zm8.963 3.17v-2.67h1.6l1.63 2.67h1.45l-1.79-2.87c.81-.26 1.52-.92 1.52-2.03 0-1.46-.98-2.24-2.65-2.24h-3.06V195h1.3zm0-3.71v-2.38h1.61c.99 0 1.49.41 1.49 1.19s-.5 1.19-1.49 1.19h-1.61zm12.96 3.71h1.36l-2.87-7.14h-1.49l-2.87 7.14h1.3l.68-1.75h3.22l.67 1.75zm-2.28-5.86h.03l1.18 3.08h-2.41l1.2-3.08zm8.121-1.28h-1.55V195h1.27v-5.53h.02l3.67 5.53h1.23v-7.14h-1.26v5.06h-.02l-3.36-5.06zm11.012 0h-2.75V195h2.75c2.15 0 3.57-1.42 3.57-3.57 0-2.14-1.42-3.57-3.57-3.57zm0 1.05c1.42 0 2.21.93 2.21 2.52 0 1.59-.79 2.52-2.21 2.52h-1.45v-5.04h1.45z" fill="#fff"/><path d="M222.786 239.432h-1.86V248h1.524v-6.636h.024l4.404 6.636h1.476v-8.568h-1.512v6.072h-.024l-4.032-6.072zM238.905 248v-1.26h-4.644v-2.4h4.068v-1.26h-4.068v-2.388h4.596v-1.26h-6.156V248h6.204zm10.803 0h1.752l2.364-8.568h-1.56l-1.704 6.648h-.024l-1.668-6.648h-1.608l-1.668 6.648h-.024l-1.716-6.648h-1.632l2.364 8.568h1.74l1.68-6.612h.024l1.68 6.612zm7.069-2.592c.156 1.884 1.728 2.736 3.768 2.736 1.896 0 3.324-1.032 3.324-2.592 0-1.38-.84-2.076-2.244-2.34l-1.656-.324c-.924-.18-1.368-.408-1.368-1.116 0-.756.648-1.296 1.68-1.296 1.068 0 1.812.468 1.92 1.308h1.5c-.168-1.608-1.392-2.496-3.432-2.496-1.872 0-3.216 1.056-3.216 2.58 0 1.5 1.02 2.1 2.28 2.328l1.572.288c1.032.192 1.404.54 1.404 1.164 0 .864-.792 1.32-1.812 1.32-1.068 0-2.076-.396-2.184-1.56h-1.536zm18.563-6.108c.64 0 1.144.164 1.512.492.376.32.564.772.564 1.356 0 .504-.164.932-.492 1.284-.32.352-.728.672-1.224.96l2.316 2.232c.208-.248.376-.532.504-.852.136-.328.248-.68.336-1.056h1.068a9.06 9.06 0 01-.48 1.428c-.192.44-.44.824-.744 1.152l1.752 1.704h-1.428l-1.044-1.008a4.867 4.867 0 01-1.26.816c-.464.208-1.028.312-1.692.312-.824 0-1.48-.204-1.968-.612-.488-.408-.732-.988-.732-1.74 0-.616.164-1.108.492-1.476.336-.376.788-.724 1.356-1.044a9.188 9.188 0 01-.72-.924 2.046 2.046 0 01-.324-1.152c0-.592.196-1.052.588-1.38.4-.328.94-.492 1.62-.492zm-.036.864c-.336 0-.612.088-.828.264-.208.176-.312.42-.312.732 0 .288.076.556.228.804.152.24.372.508.66.804.472-.272.808-.528 1.008-.768.208-.248.312-.532.312-.852a.937.937 0 00-.288-.708c-.192-.184-.452-.276-.78-.276zm-.492 3.744c-.432.256-.772.516-1.02.78-.24.264-.36.612-.36 1.044 0 .44.148.792.444 1.056.296.264.692.396 1.188.396.512 0 .952-.084 1.32-.252.368-.168.676-.368.924-.6l-2.496-2.424zm15.113-.204c0-1.944.864-3.156 2.412-3.156 1.224 0 1.788.696 1.956 1.572h1.548c-.3-1.68-1.452-2.832-3.504-2.832-2.4 0-4.032 1.776-4.032 4.416 0 2.664 1.632 4.44 4.032 4.44 2.052 0 3.204-1.164 3.504-2.832h-1.548c-.168.876-.732 1.572-1.956 1.572-1.548 0-2.412-1.224-2.412-3.18zm16.932.84v-5.112h-1.584v5.1c0 1.5-.696 2.34-2.076 2.34-1.38 0-2.064-.84-2.064-2.34v-5.1h-1.596v5.088c0 2.364 1.356 3.624 3.66 3.624 2.316 0 3.66-1.26 3.66-3.6zm5.795 3.456v-3.204h1.92l1.956 3.204h1.74l-2.148-3.444c.972-.312 1.824-1.104 1.824-2.436 0-1.752-1.176-2.688-3.18-2.688h-3.672V248h1.56zm0-4.452v-2.856h1.932c1.188 0 1.788.492 1.788 1.428 0 .936-.6 1.428-1.788 1.428h-1.932zM323.56 248v-3.204h1.92l1.956 3.204h1.74l-2.148-3.444c.972-.312 1.824-1.104 1.824-2.436 0-1.752-1.176-2.688-3.18-2.688H322V248h1.56zm0-4.452v-2.856h1.932c1.188 0 1.788.492 1.788 1.428 0 .936-.6 1.428-1.788 1.428h-1.932zM339.112 248v-1.26h-4.644v-2.4h4.068v-1.26h-4.068v-2.388h4.596v-1.26h-6.156V248h6.204zm5.943-8.568h-1.86V248h1.524v-6.636h.024l4.404 6.636h1.476v-8.568h-1.512v6.072h-.024l-4.032-6.072zM357.526 248h1.584v-7.308h3.084v-1.26h-7.74v1.26h3.072V248zm-91.259 18h1.632l-3.444-8.568h-1.788L259.223 266h1.56l.816-2.1h3.864l.804 2.1zm-2.736-7.032h.036l1.416 3.696h-2.892l1.44-3.696zm7.885 7.032h1.596v-3.432h3.876v-1.26h-3.876v-2.616h4.32v-1.26h-5.916V266zm9.959 0h1.596v-3.432h3.876v-1.26h-3.876v-2.616h4.32v-1.26h-5.916V266zm15.506 0h1.632l-3.444-8.568h-1.788L289.837 266h1.56l.816-2.1h3.864l.804 2.1zm-2.736-7.032h.036l1.416 3.696h-2.892l1.44-3.696zM302.03 266h1.596v-8.568h-1.596V266zm7.499 0v-3.204h1.92l1.956 3.204h1.74l-2.148-3.444c.972-.312 1.824-1.104 1.824-2.436 0-1.752-1.176-2.688-3.18-2.688h-3.672V266h1.56zm0-4.452v-2.856h1.932c1.188 0 1.788.492 1.788 1.428 0 .936-.6 1.428-1.788 1.428h-1.932zm8.784 1.86c.156 1.884 1.728 2.736 3.768 2.736 1.896 0 3.324-1.032 3.324-2.592 0-1.38-.84-2.076-2.244-2.34l-1.656-.324c-.924-.18-1.368-.408-1.368-1.116 0-.756.648-1.296 1.68-1.296 1.068 0 1.812.468 1.92 1.308h1.5c-.168-1.608-1.392-2.496-3.432-2.496-1.872 0-3.216 1.056-3.216 2.58 0 1.5 1.02 2.1 2.28 2.328l1.572.288c1.032.192 1.404.54 1.404 1.164 0 .864-.792 1.32-1.812 1.32-1.068 0-2.076-.396-2.184-1.56h-1.536zm-85.171 17.304c0-.976.14-1.916.42-2.82a7.167 7.167 0 011.344-2.46h.996a8.396 8.396 0 00-1.272 2.484 9.356 9.356 0 00-.42 2.784c0 .928.14 1.84.42 2.736a8.63 8.63 0 001.26 2.46h-.984a6.85 6.85 0 01-1.344-2.388 9.319 9.319 0 01-.42-2.796zm6.489 3.288h1.596v-8.568h-1.596V284zm7.799-8.568h-1.86V284h1.524v-6.636h.024l4.404 6.636h1.476v-8.568h-1.512v6.072h-.024l-4.032-6.072zm9.351 5.976c.156 1.884 1.728 2.736 3.768 2.736 1.896 0 3.324-1.032 3.324-2.592 0-1.38-.84-2.076-2.244-2.34l-1.656-.324c-.924-.18-1.368-.408-1.368-1.116 0-.756.648-1.296 1.68-1.296 1.068 0 1.812.468 1.92 1.308h1.5c-.168-1.608-1.392-2.496-3.432-2.496-1.872 0-3.216 1.056-3.216 2.58 0 1.5 1.02 2.1 2.28 2.328l1.572.288c1.032.192 1.404.54 1.404 1.164 0 .864-.792 1.32-1.812 1.32-1.068 0-2.076-.396-2.184-1.56h-1.536zM270.048 284h1.584v-7.308h3.084v-1.26h-7.74v1.26h3.072V284zm8.492 0h1.596v-8.568h-1.596V284zm8.495 0h1.584v-7.308h3.084v-1.26h-7.74v1.26h3.072V284zm15.704-3.456v-5.112h-1.584v5.1c0 1.5-.696 2.34-2.076 2.34-1.38 0-2.064-.84-2.064-2.34v-5.1h-1.596v5.088c0 2.364 1.356 3.624 3.66 3.624 2.316 0 3.66-1.26 3.66-3.6zM309.53 284h1.584v-7.308h3.084v-1.26h-7.74v1.26h3.072V284zm8.493 0h1.596v-8.568h-1.596V284zm13.655-4.284c0-2.568-1.572-4.428-4.092-4.428-2.52 0-4.092 1.86-4.092 4.428 0 2.58 1.572 4.428 4.092 4.428 2.52 0 4.092-1.848 4.092-4.428zm-1.62 0c0 1.908-.84 3.168-2.472 3.168-1.644 0-2.472-1.26-2.472-3.168 0-1.896.828-3.168 2.472-3.168 1.632 0 2.472 1.272 2.472 3.168zm7.34-4.284h-1.86V284h1.524v-6.636h.024L341.49 284h1.476v-8.568h-1.512v6.072h-.024l-4.032-6.072zm12.063 5.28c0 .968-.144 1.9-.432 2.796a6.697 6.697 0 01-1.332 2.388h-.984a8.398 8.398 0 001.248-2.46 8.89 8.89 0 00.432-2.736c0-.952-.144-1.88-.432-2.784a8.18 8.18 0 00-1.26-2.484h.996a7.007 7.007 0 011.332 2.46c.288.904.432 1.844.432 2.82z" fill="#222"/><g filter="url(#filter1_d)"><path fill="#fff" d="M453 124h214v205H453z"/></g><path fill="#78DE7F" d="M453 124h214v91H453z"/><path d="M511.408 163.148h-4.95V176h4.95c3.87 0 6.426-2.556 6.426-6.426 0-3.852-2.556-6.426-6.426-6.426zm0 1.89c2.556 0 3.978 1.674 3.978 4.536 0 2.862-1.422 4.536-3.978 4.536h-2.61v-9.072h2.61zM522.428 176h9.018v-1.89h-6.624v-10.962h-2.394V176zm13.791 0h2.394v-5.148h5.814v-1.89h-5.814v-3.924h6.48v-1.89h-8.874V176zm22.707-12.852h-2.79V176h2.286v-9.954h.036l6.606 9.954h2.214v-12.852h-2.268v9.108h-.036l-6.048-9.108zm25.247 6.426c0-3.852-2.358-6.642-6.138-6.642s-6.138 2.79-6.138 6.642c0 3.87 2.358 6.642 6.138 6.642s6.138-2.772 6.138-6.642zm-2.43 0c0 2.862-1.26 4.752-3.708 4.752-2.466 0-3.708-1.89-3.708-4.752 0-2.844 1.242-4.752 3.708-4.752 2.448 0 3.708 1.908 3.708 4.752zM592.086 176h2.664l5.094-12.852h-2.43l-3.924 10.296h-.036l-3.906-10.296h-2.538L592.086 176zm20.054 0h2.448l-5.166-12.852h-2.682L601.574 176h2.34l1.224-3.15h5.796l1.206 3.15zm-4.104-10.548h.054l2.124 5.544h-4.338l2.16-5.544z" fill="#fff"/><path d="M489.927 248h1.584v-7.308h3.084v-1.26h-7.74v1.26h3.072V248zm14.697 0v-1.26h-4.644v-2.4h4.068v-1.26h-4.068v-2.388h4.596v-1.26h-6.156V248h6.204zm5.234-4.296c0-1.944.864-3.156 2.412-3.156 1.224 0 1.788.696 1.956 1.572h1.548c-.3-1.68-1.452-2.832-3.504-2.832-2.4 0-4.032 1.776-4.032 4.416 0 2.664 1.632 4.44 4.032 4.44 2.052 0 3.204-1.164 3.504-2.832h-1.548c-.168.876-.732 1.572-1.956 1.572-1.548 0-2.412-1.224-2.412-3.18zm9.721 4.296h1.596v-3.72h4.392V248h1.584v-8.568h-1.584v3.6h-4.392v-3.6h-1.596V248zm13.776-8.568h-1.86V248h1.524v-6.636h.024l4.404 6.636h1.476v-8.568h-1.512v6.072h-.024l-4.032-6.072zm17.631 4.284c0-2.568-1.572-4.428-4.092-4.428-2.52 0-4.092 1.86-4.092 4.428 0 2.58 1.572 4.428 4.092 4.428 2.52 0 4.092-1.848 4.092-4.428zm-1.62 0c0 1.908-.84 3.168-2.472 3.168-1.644 0-2.472-1.26-2.472-3.168 0-1.896.828-3.168 2.472-3.168 1.632 0 2.472 1.272 2.472 3.168zm5.479 4.284h6.012v-1.26h-4.416v-7.308h-1.596V248zm17.312-4.284c0-2.568-1.572-4.428-4.092-4.428-2.52 0-4.092 1.86-4.092 4.428 0 2.58 1.572 4.428 4.092 4.428 2.52 0 4.092-1.848 4.092-4.428zm-1.62 0c0 1.908-.84 3.168-2.472 3.168-1.644 0-2.472-1.26-2.472-3.168 0-1.896.828-3.168 2.472-3.168 1.632 0 2.472 1.272 2.472 3.168zm5.07-.012c0 2.652 1.62 4.44 4.02 4.44 1.056 0 2.148-.552 2.46-1.368l.108 1.224h1.236v-4.368h-3.24v1.152h1.656v.3c0 1.056-.864 1.8-2.124 1.8-1.596 0-2.496-1.224-2.496-3.18 0-1.944.924-3.156 2.52-3.156 1.152 0 1.8.6 2.004 1.56h1.572c-.336-1.692-1.512-2.82-3.576-2.82-2.448 0-4.14 1.776-4.14 4.416zM591.262 248v-3.516l3.324-5.052h-1.74l-2.316 3.66h-.024l-2.376-3.66h-1.776l3.312 5.052V248h1.596zm17.94 0h1.632l-3.444-8.568h-1.788L602.158 248h1.56l.816-2.1h3.864l.804 2.1zm-2.736-7.032h.036l1.416 3.696h-2.892l1.44-3.696zm9.745-1.536h-1.86V248h1.524v-6.636h.024l4.404 6.636h1.476v-8.568h-1.512v6.072h-.024l-4.032-6.072zm13.215 0h-3.3V248h3.3c2.58 0 4.284-1.704 4.284-4.284 0-2.568-1.704-4.284-4.284-4.284zm0 1.26c1.704 0 2.652 1.116 2.652 3.024s-.948 3.024-2.652 3.024h-1.74v-6.048h1.74zM519.421 266h6.012v-1.26h-4.416v-7.308h-1.596V266zm9.994 0h1.596v-8.568h-1.596V266zm5.939 0h1.596v-3.432h3.876v-1.26h-3.876v-2.616h4.32v-1.26h-5.916V266zm16.162 0v-1.26h-4.644v-2.4h4.068v-1.26h-4.068v-2.388h4.596v-1.26h-6.156V266h6.204zm3.496-2.592c.156 1.884 1.728 2.736 3.768 2.736 1.896 0 3.324-1.032 3.324-2.592 0-1.38-.84-2.076-2.244-2.34l-1.656-.324c-.924-.18-1.368-.408-1.368-1.116 0-.756.648-1.296 1.68-1.296 1.068 0 1.812.468 1.92 1.308h1.5c-.168-1.608-1.392-2.496-3.432-2.496-1.872 0-3.216 1.056-3.216 2.58 0 1.5 1.02 2.1 2.28 2.328l1.572.288c1.032.192 1.404.54 1.404 1.164 0 .864-.792 1.32-1.812 1.32-1.068 0-2.076-.396-2.184-1.56h-1.536zM568.278 266h1.584v-7.308h3.084v-1.26h-7.74v1.26h3.072V266zm12.548 0v-3.516l3.324-5.052h-1.74l-2.316 3.66h-.024l-2.376-3.66h-1.776l3.312 5.052V266h1.596zm6.817 0h6.012v-1.26h-4.416v-7.308h-1.596V266zm16.197 0v-1.26h-4.644v-2.4h4.068v-1.26h-4.068v-2.388h4.596v-1.26h-6.156V266h6.204zm-129.655 14.712c0-.976.14-1.916.42-2.82a7.167 7.167 0 011.344-2.46h.996a8.396 8.396 0 00-1.272 2.484 9.356 9.356 0 00-.42 2.784c0 .928.14 1.84.42 2.736a8.63 8.63 0 001.26 2.46h-.984a6.85 6.85 0 01-1.344-2.388 9.319 9.319 0 01-.42-2.796zM484.731 284v-3.516l3.324-5.052h-1.74l-2.316 3.66h-.024l-2.376-3.66h-1.776l3.312 5.052V284h1.596zm14.064-4.284c0-2.568-1.572-4.428-4.092-4.428-2.52 0-4.092 1.86-4.092 4.428 0 2.58 1.572 4.428 4.092 4.428 2.52 0 4.092-1.848 4.092-4.428zm-1.62 0c0 1.908-.84 3.168-2.472 3.168-1.644 0-2.472-1.26-2.472-3.168 0-1.896.828-3.168 2.472-3.168 1.632 0 2.472 1.272 2.472 3.168zm12.692.828v-5.112h-1.584v5.1c0 1.5-.696 2.34-2.076 2.34-1.38 0-2.064-.84-2.064-2.34v-5.1h-1.596v5.088c0 2.364 1.356 3.624 3.66 3.624 2.316 0 3.66-1.26 3.66-3.6zm6.095-5.112h-1.86V284h1.524v-6.636h.024l4.404 6.636h1.476v-8.568h-1.512v6.072h-.024l-4.032-6.072zm9.447 4.272c0 2.652 1.62 4.44 4.02 4.44 1.056 0 2.148-.552 2.46-1.368l.108 1.224h1.236v-4.368h-3.24v1.152h1.656v.3c0 1.056-.864 1.8-2.124 1.8-1.596 0-2.496-1.224-2.496-3.18 0-1.944.924-3.156 2.52-3.156 1.152 0 1.8.6 2.004 1.56h1.572c-.336-1.692-1.512-2.82-3.576-2.82-2.448 0-4.14 1.776-4.14 4.416zM543.633 284v-1.26h-4.644v-2.4h4.068v-1.26h-4.068v-2.388h4.596v-1.26h-6.156V284h6.204zm5.643 0v-3.204h1.92l1.956 3.204h1.74l-2.148-3.444c.972-.312 1.824-1.104 1.824-2.436 0-1.752-1.176-2.688-3.18-2.688h-3.672V284h1.56zm0-4.452v-2.856h1.932c1.188 0 1.788.492 1.788 1.428 0 .936-.6 1.428-1.788 1.428h-1.932zM569.747 284h1.632l-3.444-8.568h-1.788L562.703 284h1.56l.816-2.1h3.864l.804 2.1zm-2.736-7.032h.036l1.416 3.696h-2.892l1.44-3.696zm14.816 3.576v-5.112h-1.584v5.1c0 1.5-.696 2.34-2.076 2.34-1.38 0-2.064-.84-2.064-2.34v-5.1h-1.596v5.088c0 2.364 1.356 3.624 3.66 3.624 2.316 0 3.66-1.26 3.66-3.6zm7.535-5.112h-3.3V284h3.3c2.58 0 4.284-1.704 4.284-4.284 0-2.568-1.704-4.284-4.284-4.284zm0 1.26c1.704 0 2.652 1.116 2.652 3.024s-.948 3.024-2.652 3.024h-1.74v-6.048h1.74zm8.147 7.308h1.596v-8.568h-1.596V284zm12.143 0v-1.26h-4.644v-2.4h4.068v-1.26h-4.068v-2.388h4.596v-1.26h-6.156V284h6.204zm5.943-8.568h-1.86V284h1.524v-6.636h.024l4.404 6.636h1.476v-8.568h-1.512v6.072h-.024l-4.032-6.072zm11.067 4.272c0-1.944.864-3.156 2.412-3.156 1.224 0 1.788.696 1.956 1.572h1.548c-.3-1.68-1.452-2.832-3.504-2.832-2.4 0-4.032 1.776-4.032 4.416 0 2.664 1.632 4.44 4.032 4.44 2.052 0 3.204-1.164 3.504-2.832h-1.548c-.168.876-.732 1.572-1.956 1.572-1.548 0-2.412-1.224-2.412-3.18zM642.586 284v-1.26h-4.644v-2.4h4.068v-1.26h-4.068v-2.388h4.596v-1.26h-6.156V284h6.204zm6.231-3.288c0 .968-.144 1.9-.432 2.796a6.697 6.697 0 01-1.332 2.388h-.984a8.398 8.398 0 001.248-2.46 8.89 8.89 0 00.432-2.736c0-.952-.144-1.88-.432-2.784a8.18 8.18 0 00-1.26-2.484h.996a7.007 7.007 0 011.332 2.46c.288.904.432 1.844.432 2.82z" fill="#222"/><g filter="url(#filter2_d)"><path fill="#fff" d="M728 124h214v205H728z"/></g><path fill="#FF6400" d="M728 124h214v91H728z"/><path d="M773.408 163.148h-4.95V176h4.95c3.87 0 6.426-2.556 6.426-6.426 0-3.852-2.556-6.426-6.426-6.426zm0 1.89c2.556 0 3.978 1.674 3.978 4.536 0 2.862-1.422 4.536-3.978 4.536h-2.61v-9.072h2.61zM784.428 176h9.018v-1.89h-6.624v-10.962h-2.394V176zm13.791 0h2.394v-5.148h5.814v-1.89h-5.814v-3.924h6.48v-1.89h-8.874V176zm28.611 0h2.88l-5.814-7.272 5.31-5.58h-2.736l-5.94 6.462v-6.462h-2.394V176h2.394v-3.726l1.782-1.872L826.83 176zm17.426-5.184v-7.668h-2.376v7.65c0 2.25-1.044 3.51-3.114 3.51s-3.096-1.26-3.096-3.51v-7.65h-2.394v7.632c0 3.546 2.034 5.436 5.49 5.436 3.474 0 5.49-1.89 5.49-5.4zm5.153 5.184h9.018v-1.89h-6.624v-10.962h-2.394V176zm15.568 0h2.376v-10.962h4.626v-1.89h-11.61v1.89h4.608V176zm22.356-5.184v-7.668h-2.376v7.65c0 2.25-1.044 3.51-3.114 3.51s-3.096-1.26-3.096-3.51v-7.65h-2.394v7.632c0 3.546 2.034 5.436 5.49 5.436 3.474 0 5.49-1.89 5.49-5.4zm7.493 5.184v-4.806h2.88L900.64 176h2.61l-3.222-5.166c1.458-.468 2.736-1.656 2.736-3.654 0-2.628-1.764-4.032-4.77-4.032h-5.508V176h2.34zm0-6.678v-4.284h2.898c1.782 0 2.682.738 2.682 2.142s-.9 2.142-2.682 2.142h-2.898z" fill="#fff"/><path d="M780.561 243.704c0-1.944.864-3.156 2.412-3.156 1.224 0 1.788.696 1.956 1.572h1.548c-.3-1.68-1.452-2.832-3.504-2.832-2.4 0-4.032 1.776-4.032 4.416 0 2.664 1.632 4.44 4.032 4.44 2.052 0 3.204-1.164 3.504-2.832h-1.548c-.168.876-.732 1.572-1.956 1.572-1.548 0-2.412-1.224-2.412-3.18zm16.932.84v-5.112h-1.584v5.1c0 1.5-.696 2.34-2.076 2.34-1.38 0-2.064-.84-2.064-2.34v-5.1h-1.596v5.088c0 2.364 1.356 3.624 3.66 3.624 2.316 0 3.66-1.26 3.66-3.6zm4.235 3.456h6.012v-1.26h-4.416v-7.308h-1.596V248zm11.179 0h1.584v-7.308h3.084v-1.26h-7.74v1.26h3.072V248zm15.704-3.456v-5.112h-1.584v5.1c0 1.5-.696 2.34-2.076 2.34-1.38 0-2.064-.84-2.064-2.34v-5.1h-1.596v5.088c0 2.364 1.356 3.624 3.66 3.624 2.316 0 3.66-1.26 3.66-3.6zm5.795 3.456v-3.204h1.92l1.956 3.204h1.74l-2.148-3.444c.972-.312 1.824-1.104 1.824-2.436 0-1.752-1.176-2.688-3.18-2.688h-3.672V248h1.56zm0-4.452v-2.856h1.932c1.188 0 1.788.492 1.788 1.428 0 .936-.6 1.428-1.788 1.428h-1.932zM849.958 248v-1.26h-4.644v-2.4h4.068v-1.26h-4.068v-2.388h4.596v-1.26h-6.156V248h6.204zm15.206 0h1.632l-3.444-8.568h-1.788L858.12 248h1.56l.816-2.1h3.864l.804 2.1zm-2.736-7.032h.036l1.416 3.696h-2.892l1.44-3.696zm9.745-1.536h-1.86V248h1.524v-6.636h.024l4.404 6.636h1.476v-8.568h-1.512v6.072h-.024l-4.032-6.072zm13.215 0h-3.3V248h3.3c2.58 0 4.284-1.704 4.284-4.284 0-2.568-1.704-4.284-4.284-4.284zm0 1.26c1.704 0 2.652 1.116 2.652 3.024s-.948 3.024-2.652 3.024h-1.74v-6.048h1.74zm-83.821 22.716c.156 1.884 1.728 2.736 3.768 2.736 1.896 0 3.324-1.032 3.324-2.592 0-1.38-.84-2.076-2.244-2.34l-1.656-.324c-.924-.18-1.368-.408-1.368-1.116 0-.756.648-1.296 1.68-1.296 1.068 0 1.812.468 1.92 1.308h1.5c-.168-1.608-1.392-2.496-3.432-2.496-1.872 0-3.216 1.056-3.216 2.58 0 1.5 1.02 2.1 2.28 2.328l1.572.288c1.032.192 1.404.54 1.404 1.164 0 .864-.792 1.32-1.812 1.32-1.068 0-2.076-.396-2.184-1.56h-1.536zm18.708-1.692c0-2.568-1.572-4.428-4.092-4.428-2.52 0-4.092 1.86-4.092 4.428 0 2.58 1.572 4.428 4.092 4.428 2.52 0 4.092-1.848 4.092-4.428zm-1.62 0c0 1.908-.84 3.168-2.472 3.168-1.644 0-2.472-1.26-2.472-3.168 0-1.896.828-3.168 2.472-3.168 1.632 0 2.472 1.272 2.472 3.168zm6.69-.012c0-1.944.864-3.156 2.412-3.156 1.224 0 1.788.696 1.956 1.572h1.548c-.3-1.68-1.452-2.832-3.504-2.832-2.4 0-4.032 1.776-4.032 4.416 0 2.664 1.632 4.44 4.032 4.44 2.052 0 3.204-1.164 3.504-2.832h-1.548c-.168.876-.732 1.572-1.956 1.572-1.548 0-2.412-1.224-2.412-3.18zm9.721 4.296h1.596v-8.568h-1.596V266zm12.143 0v-1.26h-4.644v-2.4h4.068v-1.26h-4.068v-2.388h4.596v-1.26h-6.156V266h6.204zm6.639 0h1.584v-7.308h3.084v-1.26h-7.74v1.26h3.072V266zm12.548 0v-3.516l3.324-5.052h-1.74l-2.316 3.66h-.024l-2.376-3.66h-1.776l3.312 5.052V266h1.596zm-83.577 14.712c0-.976.14-1.916.42-2.82a7.167 7.167 0 011.344-2.46h.996a8.396 8.396 0 00-1.272 2.484 9.356 9.356 0 00-.42 2.784c0 .928.14 1.84.42 2.736a8.63 8.63 0 001.26 2.46h-.984a6.85 6.85 0 01-1.344-2.388 9.319 9.319 0 01-.42-2.796zM794.397 284l2.436-6.732h.024V284h1.524v-8.568h-2.184l-2.304 6.444h-.024l-2.304-6.444h-2.256V284h1.464v-6.732h.024l2.448 6.732h1.152zm8.339 0h1.596v-8.568h-1.596V284zm9.239-8.568h-3.3V284h3.3c2.58 0 4.284-1.704 4.284-4.284 0-2.568-1.704-4.284-4.284-4.284zm0 1.26c1.704 0 2.652 1.116 2.652 3.024s-.948 3.024-2.652 3.024h-1.74v-6.048h1.74zm11.447-1.26h-3.3V284h3.3c2.58 0 4.284-1.704 4.284-4.284 0-2.568-1.704-4.284-4.284-4.284zm0 1.26c1.704 0 2.652 1.116 2.652 3.024s-.948 3.024-2.652 3.024h-1.74v-6.048h1.74zm8.147 7.308h6.012v-1.26h-4.416v-7.308h-1.596V284zm16.198 0v-1.26h-4.644v-2.4h4.068v-1.26h-4.068v-2.388h4.596v-1.26h-6.156V284h6.204zm15.206 0h1.632l-3.444-8.568h-1.788L855.929 284h1.56l.816-2.1h3.864l.804 2.1zm-2.736-7.032h.036l1.416 3.696h-2.892l1.44-3.696zm7.089 2.736c0 2.652 1.62 4.44 4.02 4.44 1.056 0 2.148-.552 2.46-1.368l.108 1.224h1.236v-4.368h-3.24v1.152h1.656v.3c0 1.056-.864 1.8-2.124 1.8-1.596 0-2.496-1.224-2.496-3.18 0-1.944.924-3.156 2.52-3.156 1.152 0 1.8.6 2.004 1.56h1.572c-.336-1.692-1.512-2.82-3.576-2.82-2.448 0-4.14 1.776-4.14 4.416zM885.55 284v-1.26h-4.644v-2.4h4.068v-1.26h-4.068v-2.388h4.596v-1.26h-6.156V284h6.204zm-86.236 18h1.632l-3.444-8.568h-1.788L792.27 302h1.56l.816-2.1h3.864l.804 2.1zm-2.736-7.032h.036l1.416 3.696h-2.892l1.44-3.696zm14.816 3.576v-5.112h-1.584v5.1c0 1.5-.696 2.34-2.076 2.34-1.38 0-2.064-.84-2.064-2.34v-5.1h-1.596v5.088c0 2.364 1.356 3.624 3.66 3.624 2.316 0 3.66-1.26 3.66-3.6zm7.535-5.112h-3.3V302h3.3c2.58 0 4.284-1.704 4.284-4.284 0-2.568-1.704-4.284-4.284-4.284zm0 1.26c1.704 0 2.652 1.116 2.652 3.024s-.948 3.024-2.652 3.024h-1.74v-6.048h1.74zm8.147 7.308h1.596v-8.568h-1.596V302zm12.143 0v-1.26h-4.644v-2.4h4.068v-1.26h-4.068v-2.388h4.596v-1.26h-6.156V302h6.204zm5.943-8.568h-1.86V302h1.524v-6.636h.024l4.404 6.636h1.476v-8.568h-1.512v6.072h-.024l-4.032-6.072zm11.067 4.272c0-1.944.864-3.156 2.412-3.156 1.224 0 1.788.696 1.956 1.572h1.548c-.3-1.68-1.452-2.832-3.504-2.832-2.4 0-4.032 1.776-4.032 4.416 0 2.664 1.632 4.44 4.032 4.44 2.052 0 3.204-1.164 3.504-2.832h-1.548c-.168.876-.732 1.572-1.956 1.572-1.548 0-2.412-1.224-2.412-3.18zM872.153 302v-1.26h-4.644v-2.4h4.068v-1.26h-4.068v-2.388h4.596v-1.26h-6.156V302h6.204zm6.231-3.288c0 .968-.144 1.9-.432 2.796a6.697 6.697 0 01-1.332 2.388h-.984a8.398 8.398 0 001.248-2.46 8.89 8.89 0 00.432-2.736c0-.952-.144-1.88-.432-2.784a8.18 8.18 0 00-1.26-2.484h.996a7.007 7.007 0 011.332 2.46c.288.904.432 1.844.432 2.82zM2.832 409.432H.972V418h1.524v-6.636h.024L6.924 418H8.4v-8.568H6.888v6.072h-.024l-4.032-6.072zM18.951 418v-1.26h-4.644v-2.4h4.068v-1.26h-4.068v-2.388h4.596v-1.26h-6.156V418h6.204zm10.803 0h1.752l2.364-8.568h-1.56l-1.704 6.648h-.024l-1.668-6.648h-1.608l-1.668 6.648h-.024l-1.716-6.648h-1.632L24.63 418h1.74l1.68-6.612h.024l1.68 6.612zm7.069-2.592c.156 1.884 1.728 2.736 3.768 2.736 1.896 0 3.324-1.032 3.324-2.592 0-1.38-.84-2.076-2.244-2.34l-1.656-.324c-.924-.18-1.368-.408-1.368-1.116 0-.756.648-1.296 1.68-1.296 1.068 0 1.812.468 1.92 1.308h1.5c-.168-1.608-1.392-2.496-3.432-2.496-1.872 0-3.216 1.056-3.216 2.58 0 1.5 1.02 2.1 2.28 2.328l1.572.288c1.032.192 1.404.54 1.404 1.164 0 .864-.792 1.32-1.812 1.32-1.068 0-2.076-.396-2.184-1.56h-1.536z" fill="#222"/><path d="M522.34 192.84c.13 1.57 1.44 2.28 3.14 2.28 1.58 0 2.77-.86 2.77-2.16 0-1.15-.7-1.73-1.87-1.95l-1.38-.27c-.77-.15-1.14-.34-1.14-.93 0-.63.54-1.08 1.4-1.08.89 0 1.51.39 1.6 1.09h1.25c-.14-1.34-1.16-2.08-2.86-2.08-1.56 0-2.68.88-2.68 2.15 0 1.25.85 1.75 1.9 1.94l1.31.24c.86.16 1.17.45 1.17.97 0 .72-.66 1.1-1.51 1.1-.89 0-1.73-.33-1.82-1.3h-1.28zm15.15-.72v-4.26h-1.32v4.25c0 1.25-.58 1.95-1.73 1.95s-1.72-.7-1.72-1.95v-4.25h-1.33v4.24c0 1.97 1.13 3.02 3.05 3.02 1.93 0 3.05-1.05 3.05-3zm6.659 2.88c1.65 0 2.61-.69 2.61-2.03 0-.83-.59-1.46-1.37-1.67.58-.17 1.08-.86 1.08-1.49 0-1.28-.91-1.95-2.58-1.95h-2.87V195h3.13zm-1.83-4.12v-2.04h1.57c.87 0 1.3.37 1.3 1.02 0 .62-.42 1.02-1.31 1.02h-1.56zm0 .95h1.72c.92 0 1.41.42 1.41 1.09 0 .69-.48 1.1-1.4 1.1h-1.73v-2.19zm14.892 3.17c1.65 0 2.61-.69 2.61-2.03 0-.83-.59-1.46-1.37-1.67.58-.17 1.08-.86 1.08-1.49 0-1.28-.91-1.95-2.58-1.95h-2.87V195h3.13zm-1.83-4.12v-2.04h1.57c.87 0 1.3.37 1.3 1.02 0 .62-.42 1.02-1.31 1.02h-1.56zm0 .95h1.72c.92 0 1.41.42 1.41 1.09 0 .69-.48 1.1-1.4 1.1h-1.73v-2.19zm8.963 3.17v-2.67h1.6l1.63 2.67h1.45l-1.79-2.87c.81-.26 1.52-.92 1.52-2.03 0-1.46-.98-2.24-2.65-2.24h-3.06V195h1.3zm0-3.71v-2.38h1.61c.99 0 1.49.41 1.49 1.19s-.5 1.19-1.49 1.19h-1.61zm12.96 3.71h1.36l-2.87-7.14h-1.49l-2.87 7.14h1.3l.68-1.75h3.22l.67 1.75zm-2.28-5.86h.03l1.18 3.08h-2.41l1.2-3.08zm8.121-1.28h-1.55V195h1.27v-5.53h.02l3.67 5.53h1.23v-7.14h-1.26v5.06h-.02l-3.36-5.06zm11.013 0h-2.75V195h2.75c2.15 0 3.57-1.42 3.57-3.57 0-2.14-1.42-3.57-3.57-3.57zm0 1.05c1.42 0 2.21.93 2.21 2.52 0 1.59-.79 2.52-2.21 2.52h-1.45v-5.04h1.45z" fill="#fff"/><path d="M453.408 56.148h-4.95V69h4.95c3.87 0 6.426-2.556 6.426-6.426 0-3.852-2.556-6.426-6.426-6.426zm0 1.89c2.556 0 3.978 1.674 3.978 4.536 0 2.862-1.422 4.536-3.978 4.536h-2.61v-9.072h2.61zM473.734 69v-1.89h-6.966v-3.6h6.102v-1.89h-6.102v-3.582h6.894v-1.89h-9.234V69h9.306zm15.742-5.184v-7.668H487.1v7.65c0 2.25-1.044 3.51-3.114 3.51s-3.096-1.26-3.096-3.51v-7.65h-2.394v7.632c0 3.546 2.034 5.436 5.49 5.436 3.474 0 5.49-1.89 5.49-5.4zM498.463 69h2.376V58.038h4.626v-1.89h-11.61v1.89h4.608V69zm10.306-3.888c.234 2.826 2.592 4.104 5.652 4.104 2.844 0 4.986-1.548 4.986-3.888 0-2.07-1.26-3.114-3.366-3.51l-2.484-.486c-1.386-.27-2.052-.612-2.052-1.674 0-1.134.972-1.944 2.52-1.944 1.602 0 2.718.702 2.88 1.962h2.25c-.252-2.412-2.088-3.744-5.148-3.744-2.808 0-4.824 1.584-4.824 3.87 0 2.25 1.53 3.15 3.42 3.492l2.358.432c1.548.288 2.106.81 2.106 1.746 0 1.296-1.188 1.98-2.718 1.98-1.602 0-3.114-.594-3.276-2.34h-2.304zm17.015-2.556c0-2.916 1.296-4.734 3.618-4.734 1.836 0 2.682 1.044 2.934 2.358h2.322c-.45-2.52-2.178-4.248-5.256-4.248-3.6 0-6.048 2.664-6.048 6.624 0 3.996 2.448 6.66 6.048 6.66 3.078 0 4.806-1.746 5.256-4.248h-2.322c-.252 1.314-1.098 2.358-2.934 2.358-2.322 0-3.618-1.836-3.618-4.77zM539.165 69h2.394v-5.58h6.588V69h2.376V56.148h-2.376v5.4h-6.588v-5.4h-2.394V69zm16.673 0h9.018v-1.89h-6.624V56.148h-2.394V69zm23.097 0h2.448l-5.166-12.852h-2.682L568.369 69h2.34l1.224-3.15h5.796l1.206 3.15zm-4.104-10.548h.054l2.124 5.544h-4.338l2.16-5.544zm13.417-2.304h-2.79V69h2.286v-9.954h.036L594.386 69h2.214V56.148h-2.268v9.108h-.036l-6.048-9.108zm18.623 0h-4.95V69h4.95c3.87 0 6.426-2.556 6.426-6.426 0-3.852-2.556-6.426-6.426-6.426zm0 1.89c2.556 0 3.978 1.674 3.978 4.536 0 2.862-1.422 4.536-3.978 4.536h-2.61v-9.072h2.61zM617.891 69h2.394v-5.148h5.814v-1.89h-5.814v-3.924h6.48v-1.89h-8.874V69zm24.556-5.184v-7.668h-2.376v7.65c0 2.25-1.044 3.51-3.114 3.51s-3.096-1.26-3.096-3.51v-7.65h-2.394v7.632c0 3.546 2.034 5.436 5.49 5.436 3.474 0 5.49-1.89 5.49-5.4zm7.942-7.668h-2.79V69h2.286v-9.954h.036L656.527 69h2.214V56.148h-2.268v9.108h-.036l-6.048-9.108zM672.756 69h2.88l-5.814-7.272 5.31-5.58h-2.736l-5.94 6.462v-6.462h-2.394V69h2.394v-3.726l1.782-1.872L672.756 69zM514.05 90l2.03-5.61h.02V90h1.27v-7.14h-1.82l-1.92 5.37h-.02l-1.92-5.37h-1.88V90h1.22v-5.61h.02l2.04 5.61h.96zm12.119 0h1.36l-2.87-7.14h-1.49l-2.87 7.14h1.3l.68-1.75h3.22l.67 1.75zm-2.28-5.86h.03l1.18 3.08h-2.41l1.2-3.08zm6.082 3.7c.13 1.57 1.44 2.28 3.14 2.28 1.58 0 2.77-.86 2.77-2.16 0-1.15-.7-1.73-1.87-1.95l-1.38-.27c-.77-.15-1.14-.34-1.14-.93 0-.63.54-1.08 1.4-1.08.89 0 1.51.39 1.6 1.09h1.25c-.14-1.34-1.16-2.08-2.86-2.08-1.56 0-2.68.88-2.68 2.15 0 1.25.85 1.75 1.9 1.94l1.31.24c.86.16 1.17.45 1.17.97 0 .72-.66 1.1-1.51 1.1-.89 0-1.73-.33-1.82-1.3h-1.28zM541.026 90h1.32v-6.09h2.57v-1.05h-6.45v1.05h2.56V90zm12.247 0v-1.05h-3.87v-2h3.39V85.9h-3.39v-1.99h3.83v-1.05h-5.13V90h5.17zm4.702 0v-2.67h1.6l1.63 2.67h1.45l-1.79-2.87c.81-.26 1.52-.92 1.52-2.03 0-1.46-.98-2.24-2.65-2.24h-3.06V90h1.3zm0-3.71v-2.38h1.61c.99 0 1.49.41 1.49 1.19s-.5 1.19-1.49 1.19h-1.61zm15.02 3.71c1.65 0 2.61-.69 2.61-2.03 0-.83-.59-1.46-1.37-1.67.58-.17 1.08-.86 1.08-1.49 0-1.28-.91-1.95-2.58-1.95h-2.87V90h3.13zm-1.83-4.12v-2.04h1.57c.87 0 1.3.37 1.3 1.02 0 .62-.42 1.02-1.31 1.02h-1.56zm0 .95h1.72c.92 0 1.41.42 1.41 1.09 0 .69-.48 1.1-1.4 1.1h-1.73v-2.19zm8.963 3.17v-2.67h1.6l1.63 2.67h1.45l-1.79-2.87c.81-.26 1.52-.92 1.52-2.03 0-1.46-.98-2.24-2.65-2.24h-3.06V90h1.3zm0-3.71v-2.38h1.61c.99 0 1.49.41 1.49 1.19s-.5 1.19-1.49 1.19h-1.61zM593.087 90h1.36l-2.87-7.14h-1.49l-2.87 7.14h1.3l.68-1.75h3.22l.67 1.75zm-2.28-5.86h.03l1.18 3.08h-2.41l1.2-3.08zm8.121-1.28h-1.55V90h1.27v-5.53h.02l3.67 5.53h1.23v-7.14h-1.26v5.06h-.02l-3.36-5.06zm11.013 0h-2.75V90h2.75c2.15 0 3.57-1.42 3.57-3.57 0-2.14-1.42-3.57-3.57-3.57zm0 1.05c1.42 0 2.21.93 2.21 2.52 0 1.59-.79 2.52-2.21 2.52h-1.45v-5.04h1.45z" fill="#222"/><path d="M797.34 192.84c.13 1.57 1.44 2.28 3.14 2.28 1.58 0 2.77-.86 2.77-2.16 0-1.15-.7-1.73-1.87-1.95l-1.38-.27c-.77-.15-1.14-.34-1.14-.93 0-.63.54-1.08 1.4-1.08.89 0 1.51.39 1.6 1.09h1.25c-.14-1.34-1.16-2.08-2.86-2.08-1.56 0-2.68.88-2.68 2.15 0 1.25.85 1.75 1.9 1.94l1.31.24c.86.16 1.17.45 1.17.97 0 .72-.66 1.1-1.51 1.1-.89 0-1.73-.33-1.82-1.3h-1.28zm15.15-.72v-4.26h-1.32v4.25c0 1.25-.58 1.95-1.73 1.95s-1.72-.7-1.72-1.95v-4.25h-1.33v4.24c0 1.97 1.13 3.02 3.05 3.02 1.93 0 3.05-1.05 3.05-3zm6.659 2.88c1.65 0 2.61-.69 2.61-2.03 0-.83-.59-1.46-1.37-1.67.58-.17 1.08-.86 1.08-1.49 0-1.28-.91-1.95-2.58-1.95h-2.87V195h3.13zm-1.83-4.12v-2.04h1.57c.87 0 1.3.37 1.3 1.02 0 .62-.42 1.02-1.31 1.02h-1.56zm0 .95h1.72c.92 0 1.41.42 1.41 1.09 0 .69-.48 1.1-1.4 1.1h-1.73v-2.19zm14.892 3.17c1.65 0 2.61-.69 2.61-2.03 0-.83-.59-1.46-1.37-1.67.58-.17 1.08-.86 1.08-1.49 0-1.28-.91-1.95-2.58-1.95h-2.87V195h3.13zm-1.83-4.12v-2.04h1.57c.87 0 1.3.37 1.3 1.02 0 .62-.42 1.02-1.31 1.02h-1.56zm0 .95h1.72c.92 0 1.41.42 1.41 1.09 0 .69-.48 1.1-1.4 1.1h-1.73v-2.19zm8.963 3.17v-2.67h1.6l1.63 2.67h1.45l-1.79-2.87c.81-.26 1.52-.92 1.52-2.03 0-1.46-.98-2.24-2.65-2.24h-3.06V195h1.3zm0-3.71v-2.38h1.61c.99 0 1.49.41 1.49 1.19s-.5 1.19-1.49 1.19h-1.61zm12.96 3.71h1.36l-2.87-7.14h-1.49l-2.87 7.14h1.3l.68-1.75h3.22l.67 1.75zm-2.28-5.86h.03l1.18 3.08h-2.41l1.2-3.08zm8.121-1.28h-1.55V195h1.27v-5.53h.02l3.67 5.53h1.23v-7.14h-1.26v5.06h-.02l-3.36-5.06zm11.013 0h-2.75V195h2.75c2.15 0 3.57-1.42 3.57-3.57 0-2.14-1.42-3.57-3.57-3.57zm0 1.05c1.42 0 2.21.93 2.21 2.52 0 1.59-.79 2.52-2.21 2.52h-1.45v-5.04h1.45z" fill="#fff"/><defs><linearGradient id="paint0_linear" x1="69.688" y1="433.979" x2="1066.9" y2="450.464" gradientUnits="userSpaceOnUse"><stop stop-color="#198AFF"/><stop offset="1" stop-color="#198AFF" stop-opacity="0"/></linearGradient><linearGradient id="paint1_linear" x1="1053" y1="379" x2="91" y2="379" gradientUnits="userSpaceOnUse"><stop stop-color="#FF6400"/><stop offset="1" stop-color="red" stop-opacity="0"/></linearGradient><linearGradient id="paint2_linear" x1="290.925" y1="125.565" x2="290.965" y2="215" gradientUnits="userSpaceOnUse"><stop stop-color="#198AFF"/><stop offset="1" stop-color="#198AFF"/></linearGradient><filter id="filter0_d" x="180" y="124" width="222" height="213" filterUnits="userSpaceOnUse" color-interpolation-filters="sRGB"><feFlood flood-opacity="0" result="BackgroundImageFix"/><feColorMatrix in="SourceAlpha" values="0 0 0 0 0 0 0 0 0 0 0 0 0 0 0 0 0 0 127 0"/><feOffset dy="4"/><feGaussianBlur stdDeviation="2"/><feColorMatrix values="0 0 0 0 0 0 0 0 0 0 0 0 0 0 0 0 0 0 0.13 0"/><feBlend in2="BackgroundImageFix" result="effect1_dropShadow"/><feBlend in="SourceGraphic" in2="effect1_dropShadow" result="shape"/></filter><filter id="filter1_d" x="449" y="124" width="222" height="213" filterUnits="userSpaceOnUse" color-interpolation-filters="sRGB"><feFlood flood-opacity="0" result="BackgroundImageFix"/><feColorMatrix in="SourceAlpha" values="0 0 0 0 0 0 0 0 0 0 0 0 0 0 0 0 0 0 127 0"/><feOffset dy="4"/><feGaussianBlur stdDeviation="2"/><feColorMatrix values="0 0 0 0 0 0 0 0 0 0 0 0 0 0 0 0 0 0 0.13 0"/><feBlend in2="BackgroundImageFix" result="effect1_dropShadow"/><feBlend in="SourceGraphic" in2="effect1_dropShadow" result="shape"/></filter><filter id="filter2_d" x="724" y="124" width="222" height="213" filterUnits="userSpaceOnUse" color-interpolation-filters="sRGB"><feFlood flood-opacity="0" result="BackgroundImageFix"/><feColorMatrix in="SourceAlpha" values="0 0 0 0 0 0 0 0 0 0 0 0 0 0 0 0 0 0 127 0"/><feOffset dy="4"/><feGaussianBlur stdDeviation="2"/><feColorMatrix values="0 0 0 0 0 0 0 0 0 0 0 0 0 0 0 0 0 0 0.13 0"/><feBlend in2="BackgroundImageFix" result="effect1_dropShadow"/><feBlend in="SourceGraphic" in2="effect1_dropShadow" result="shape"/></filter></defs></svg>