<svg xmlns="http://www.w3.org/2000/svg" xmlns:xlink="http://www.w3.org/1999/xlink" viewBox="0 0 927 502" enable-background="new 0 0 927 502"><style>.st3{fill:#fff}.st4{fill:none;stroke:#fff}.st28{fill-rule:evenodd;clip-rule:evenodd;fill:#fff}</style><g id="Layer_1"><path class="st3" d="M790.7 159.7c0-2.6-1.6-4.4-4.1-4.4-2.5 0-4.1 1.9-4.1 4.4 0 2.6 1.6 4.4 4.1 4.4 2.5 0 4.1-1.8 4.1-4.4zm-1.6 0c0 1.9-.8 3.2-2.5 3.2-1.6 0-2.5-1.3-2.5-3.2 0-1.9.8-3.2 2.5-3.2 1.6 0 2.5 1.3 2.5 3.2zm7.3-4.3h-1.9v8.6h1.5v-6.6l4.4 6.6h1.5v-8.6h-1.5v6.1l-4-6.1zm18.1 0h-3.3v8.6h3.3c2.6 0 4.3-1.7 4.3-4.3 0-2.6-1.7-4.3-4.3-4.3zm0 1.3c1.7 0 2.7 1.1 2.7 3s-.9 3-2.7 3h-1.7v-6h1.7zm14.4 7.3v-1.3h-4.6v-2.4h4.1V159h-4.1v-2.4h4.6v-1.3h-6.2v8.6h6.2zm9.2 0l2.4-6.7v6.7h1.5v-8.6h-2.2l-2.3 6.4-2.3-6.4H833v8.6h1.5v-6.7l2.4 6.7h1.2zm14.5 0h1.6l-3.4-8.6H849l-3.4 8.6h1.6l.8-2.1h3.9l.7 2.1zm-2.7-7l1.5 3.7h-2.9l1.4-3.7zm9.7-1.6h-1.9v8.6h1.5v-6.6l4.4 6.6h1.5v-8.6h-1.5v6.1l-4-6.1zm13.2 0h-3.3v8.6h3.3c2.6 0 4.3-1.7 4.3-4.3 0-2.6-1.7-4.3-4.3-4.3zm0 1.3c1.7 0 2.7 1.1 2.7 3s-.9 3-2.7 3h-1.7v-6h1.7zm-786.1 3c0-2.6-1.6-4.4-4.1-4.4-2.5 0-4.1 1.9-4.1 4.4 0 2.6 1.6 4.4 4.1 4.4 2.5 0 4.1-1.8 4.1-4.4zm-1.6 0c0 1.9-.8 3.2-2.5 3.2-1.6 0-2.5-1.3-2.5-3.2 0-1.9.8-3.2 2.5-3.2 1.6 0 2.5 1.3 2.5 3.2zm7.3-4.3h-1.9v8.6H92v-6.6l4.4 6.6H98v-8.6h-1.5v6.1l-4.1-6.1zm18.1 0h-3.3v8.6h3.3c2.6 0 4.3-1.7 4.3-4.3 0-2.6-1.7-4.3-4.3-4.3zm0 1.3c1.7 0 2.7 1.1 2.7 3s-.9 3-2.7 3h-1.7v-6h1.7zm14.4 7.3v-1.3h-4.6v-2.4h4.1V159h-4.1v-2.4h4.6v-1.3h-6.2v8.6c0 .1 6.2.1 6.2.1zm9.2 0l2.4-6.7v6.7h1.5v-8.6h-2.2l-2.3 6.4-2.3-6.4H129v8.6h1.5v-6.7l2.4 6.7h1.2zm14.5 0h1.6l-3.4-8.6H145l-3.4 8.6h1.6l.8-2.1h3.9l.7 2.1zm-2.7-7l1.5 3.7h-2.9l1.4-3.7zm9.7-1.6h-1.9v8.6h1.5v-6.6l4.4 6.6h1.5v-8.6h-1.5v6.1l-4-6.1zm13.2 0h-3.3v8.6h3.3c2.6 0 4.3-1.7 4.3-4.3 0-2.6-1.7-4.3-4.3-4.3zm0 1.3c1.7 0 2.7 1.1 2.7 3s-.9 3-2.7 3h-1.7v-6h1.7zM3 417h1.6v-3.7H9v3.7h1.6v-8.6H9v3.6H4.6v-3.6H3v8.6zm11.9 0h1.6v-8.6h-1.6v8.6zm5.5-4.3c0 2.7 1.6 4.4 4 4.4 1.1 0 2.1-.6 2.5-1.4l.1 1.2h1.2v-4.4H25v1.2h1.7v.3c0 1.1-.9 1.8-2.1 1.8-1.6 0-2.5-1.2-2.5-3.2 0-1.9.9-3.2 2.5-3.2 1.2 0 1.8.6 2 1.6h1.6c-.3-1.7-1.5-2.8-3.6-2.8-2.5.1-4.2 1.9-4.2 4.5zm12 4.3H34v-3.7h4.4v3.7H40v-8.6h-1.6v3.6H34v-3.6h-1.6v8.6zm11.9 0h6v-1.3h-4.4v-7.3h-1.6v8.6zm10 0h1.6v-8.6h-1.6v8.6zm5.5-4.3c0 2.7 1.6 4.4 4 4.4 1.1 0 2.1-.6 2.5-1.4l.1 1.2h1.2v-4.4h-3.2v1.2H66v.3c0 1.1-.9 1.8-2.1 1.8-1.6 0-2.5-1.2-2.5-3.2 0-1.9.9-3.2 2.5-3.2 1.2 0 1.8.6 2 1.6h1.6c-.3-1.7-1.5-2.8-3.6-2.8-2.4.1-4.1 1.9-4.1 4.5zm12 4.3h1.6v-3.7h4.4v3.7h1.6v-8.6h-1.6v3.6h-4.4v-3.6h-1.6v8.6zm14.5 0h1.6v-7.3H91v-1.3h-7.7v1.3h3.1v7.3zm7.6-2.6c.2 1.9 1.7 2.7 3.8 2.7 1.9 0 3.3-1 3.3-2.6 0-1.4-.8-2.1-2.2-2.3l-1.7-.3c-.9-.2-1.4-.4-1.4-1.1 0-.8.6-1.3 1.7-1.3s1.8.5 1.9 1.3h1.5c-.2-1.6-1.4-2.5-3.4-2.5-1.9 0-3.2 1.1-3.2 2.6s1 2.1 2.3 2.3l1.6.3c1 .2 1.4.5 1.4 1.2 0 .9-.8 1.3-1.8 1.3-1.1 0-2.1-.4-2.2-1.6h-1.6zm342.8-254.7c0-2.6-1.6-4.4-4.1-4.4-2.5 0-4.1 1.9-4.1 4.4 0 2.6 1.6 4.4 4.1 4.4 2.5 0 4.1-1.8 4.1-4.4zm-1.6 0c0 1.9-.8 3.2-2.5 3.2-1.6 0-2.5-1.3-2.5-3.2 0-1.9.8-3.2 2.5-3.2 1.6 0 2.5 1.3 2.5 3.2zm7.3-4.3h-1.9v8.6h1.5v-6.6l4.4 6.6h1.5v-8.6h-1.5v6.1l-4-6.1zm18.1 0h-3.3v8.6h3.3c2.6 0 4.3-1.7 4.3-4.3 0-2.6-1.7-4.3-4.3-4.3zm0 1.3c1.7 0 2.7 1.1 2.7 3s-.9 3-2.7 3h-1.7v-6h1.7zm14.4 7.3v-1.3h-4.6v-2.4h4.1V159h-4.1v-2.4h4.6v-1.3h-6.2v8.6h6.2zm9.2 0l2.4-6.7v6.7h1.5v-8.6h-2.2l-2.3 6.4-2.3-6.4H479v8.6h1.5v-6.7l2.4 6.7h1.2zm14.5 0h1.6l-3.4-8.6H495l-3.4 8.6h1.6l.8-2.1h3.9l.7 2.1zm-2.7-7l1.5 3.7h-2.9l1.4-3.7zm9.7-1.6h-1.9v8.6h1.5v-6.6l4.4 6.6h1.5v-8.6h-1.5v6.1l-4-6.1zm13.2 0h-3.3v8.6h3.3c2.6 0 4.3-1.7 4.3-4.3 0-2.6-1.7-4.3-4.3-4.3zm0 1.3c1.7 0 2.7 1.1 2.7 3s-.9 3-2.7 3h-1.7v-6h1.7zM357 164h6v-1.3h-4.4v-7.3H357v8.6zm10 0h1.6v-8.6H367v8.6zm8.4 0h1.8l3.4-8.6H379l-2.6 6.9-2.6-6.9h-1.7l3.3 8.6zm14.9 0v-1.3h-4.6v-2.4h4.1V159h-4.1v-2.4h4.6v-1.3h-6.2v8.6h6.2zm318.7 0h6v-1.3h-4.4v-7.3H709v8.6zm10 0h1.6v-8.6H719v8.6zm8.4 0h1.8l3.4-8.6H731l-2.6 6.9-2.6-6.9h-1.7l3.3 8.6zm14.9 0v-1.3h-4.6v-2.4h4.1V159h-4.1v-2.4h4.6v-1.3h-6.2v8.6h6.2zM7 164h6v-1.3H8.6v-7.3H7v8.6zm10 0h1.6v-8.6H17v8.6zm8.4 0h1.8l3.4-8.6H29l-2.6 6.9-2.6-6.9h-1.7l3.3 8.6zm14.9 0v-1.3h-4.6v-2.4h4.1V159h-4.1v-2.4h4.6v-1.3h-6.2v8.6h6.2v.1z"/><path class="st4" d="M443 231v-39m-80 27.5H91V191m259 275v9H54v-31m388 22v9h304v-31"/><path class="st4" d="M540 485v9h333v-50M526 219h272v-28"/><path d="M455.5 202.2L443 191.5l-12.5 11m-327-.9L91 190.9l-12.5 11M66.5 454L54 443.2l-12.5 11m692 .3l12.5-10.7 12.5 11m102-.3l12.5-10.7 12.5 11m-100-253l12.5-10.7 12.5 11" fill="none" stroke="#fff" stroke-linecap="round" stroke-linejoin="round"/><path class="st3" d="M853.7 417h6v-1.3h-4.4v-7.3h-1.6v8.6zm10 0h1.6v-8.6h-1.6v8.6zm8.5 0h1.8l3.4-8.6h-1.6l-2.6 6.9-2.6-6.9h-1.7l3.3 8.6zm14.9 0v-1.3h-4.6v-2.4h4.1V412h-4.1v-2.4h4.6v-1.3h-6.2v8.6h6.2zm-178.9-4.3c0-2.6-1.6-4.4-4.1-4.4-2.5 0-4.1 1.9-4.1 4.4 0 2.6 1.6 4.4 4.1 4.4 2.5 0 4.1-1.8 4.1-4.4zm-1.7 0c0 1.9-.8 3.2-2.5 3.2-1.6 0-2.5-1.3-2.5-3.2 0-1.9.8-3.2 2.5-3.2s2.5 1.3 2.5 3.2zm7.4-4.3H712v8.6h1.5v-6.6l4.4 6.6h1.5v-8.6h-1.5v6.1l-4-6.1zm13.2 0h-3.3v8.6h3.3c2.6 0 4.3-1.7 4.3-4.3 0-2.6-1.7-4.3-4.3-4.3zm0 1.3c1.7 0 2.7 1.1 2.7 3s-.9 3-2.7 3h-1.7v-6h1.7zm14.4 7.3v-1.3h-4.6v-2.4h4.1V412h-4.1v-2.4h4.6v-1.3h-6.2v8.6h6.2zm9.1 0l2.4-6.7v6.7h1.5v-8.6h-2.2l-2.3 6.4-2.3-6.4h-2.3v8.6h1.5v-6.7l2.4 6.7h1.3zm14.6 0h1.6l-3.4-8.6h-1.8l-3.4 8.6h1.6l.8-2.1h3.9l.7 2.1zm-2.8-7l1.5 3.7H761l1.4-3.7zm9.8-1.6h-1.9v8.6h1.5v-6.6l4.4 6.6h1.5v-8.6h-1.5v6.1l-4-6.1zm13.2 0h-3.3v8.6h3.3c2.6 0 4.3-1.7 4.3-4.3 0-2.6-1.7-4.3-4.3-4.3zm0 1.3c1.7 0 2.7 1.1 2.7 3s-.9 3-2.7 3h-1.7v-6h1.7z"/><defs><path id="SVGID_1_" d="M349.7 0h178.9v130.6H349.7z"/></defs><clipPath id="SVGID_2_"><use xlink:href="#SVGID_1_" overflow="visible"/></clipPath><path d="M364.4 2.2H440c8 0 14.4 6.5 14.4 14.4v199.6c0 8-6.5 14.4-14.4 14.4h-75.5c-8 0-14.4-6.5-14.4-14.4V16.7c-.1-8 6.4-14.5 14.3-14.5z" clip-path="url(#SVGID_2_)" fill="none" stroke="#fff"/><path d="M437.5 35H513c8 0 14.4 6.5 14.4 14.4V249c0 8-6.5 14.4-14.4 14.4h-75.5c-8 0-14.4-6.5-14.4-14.4V49.4c-.1-8 6.4-14.4 14.4-14.4z" clip-path="url(#SVGID_2_)" stroke="#fff"/><path d="M412.2 73.5c0-3.6-1.7-6.9-4.4-9l.8-1.1c3 2.3 4.9 5.9 4.9 10s-1.9 7.7-4.9 10l-.8-1.1c2.7-2 4.4-5.2 4.4-8.8zm-4.6 0c0-1.6-.6-3.2-1.6-4.3l1-.9c1.2 1.4 1.9 3.2 1.9 5.2s-.7 3.7-1.8 5.1l-1-.9c.9-1.1 1.5-2.6 1.5-4.2zm-3.8 0c0 1.6-1.3 2.9-2.9 2.9-1.6 0-2.9-1.3-2.9-2.9 0-1.6 1.3-2.9 2.9-2.9 1.6-.1 2.9 1.2 2.9 2.9zm-9.7 0c0-1.6.6-3.1 1.5-4.3l-1-.8c-1.1 1.4-1.8 3.2-1.8 5.1 0 2 .7 3.7 1.8 5.1l1-.9c-.9-1.1-1.5-2.6-1.5-4.2zm-4.6 0c0-3.6 1.7-6.8 4.3-8.9l-.8-1.1c-3 2.3-4.9 5.9-4.9 10 0 4 1.9 7.6 4.8 9.9l.8-1.1c-2.5-2-4.2-5.2-4.2-8.8z" opacity=".8" clip-path="url(#SVGID_2_)" fill-rule="evenodd" clip-rule="evenodd" fill="#78de7f" enable-background="new"/><path d="M473.3 97.1v-2.6l5 3.5-5 3.4v-2.8c-4.8.6-8.5 4.6-8.5 9.6 0 5.3 4.3 9.7 9.7 9.7 5.3 0 9.7-4.3 9.7-9.7 0-2.8-1.2-5.3-3.1-7.1l1-1.1c2.2 2 3.5 4.9 3.5 8.2 0 6.2-5 11.2-11.2 11.2-6.2 0-11.2-5-11.2-11.2 0-5.8 4.4-10.6 10.1-11.1z" clip-path="url(#SVGID_2_)" fill-rule="evenodd" clip-rule="evenodd" fill="#78de7f"/><defs><path id="SVGID_3_" d="M2.3.3h178.4v130.3H2.3z"/></defs><clipPath id="SVGID_4_"><use xlink:href="#SVGID_3_" overflow="visible"/></clipPath><path d="M17.4 2.2h75.5c8 0 14.4 6.5 14.4 14.4v199.6c0 8-6.5 14.4-14.4 14.4H17.4c-8 0-14.4-6.5-14.4-14.4V16.7c0-8 6.4-14.5 14.4-14.5z" clip-path="url(#SVGID_4_)" fill="none" stroke="#fff"/><path d="M90.1 32h75.5c8 0 14.4 6.5 14.4 14.4V246c0 8-6.5 14.4-14.4 14.4H90.1c-8 0-14.4-6.5-14.4-14.4V46.4c-.1-8 6.4-14.4 14.4-14.4z" clip-path="url(#SVGID_4_)" stroke="#fff"/><path d="M67.1 75.7c0-3.6-1.7-6.9-4.4-9l.8-1.1c3 2.3 4.9 5.9 4.9 10s-1.9 7.7-4.9 10l-.8-1.1c2.7-2 4.4-5.2 4.4-8.8zm-4.6 0c0-1.6-.6-3.2-1.6-4.3l1-.9c1.2 1.4 1.9 3.2 1.9 5.2s-.7 3.7-1.8 5.1l-1-.8c1-1.2 1.5-2.7 1.5-4.3zm-3.8 0c0 1.6-1.3 2.9-2.9 2.9-1.6 0-2.9-1.3-2.9-2.9 0-1.6 1.3-2.9 2.9-2.9 1.6-.1 2.9 1.2 2.9 2.9zm-9.6 0c0-1.6.6-3.1 1.5-4.3l-1-.8c-1.1 1.4-1.8 3.2-1.8 5.1 0 2 .7 3.7 1.8 5.1l1-.9c-1-1.1-1.5-2.6-1.5-4.2zm-4.6 0c0-3.6 1.7-6.8 4.3-8.9l-.8-1.1c-3 2.3-4.9 5.9-4.9 10 0 4 1.9 7.6 4.8 9.9l.8-1.1c-2.5-2-4.2-5.2-4.2-8.8z" opacity=".8" clip-path="url(#SVGID_4_)" fill-rule="evenodd" clip-rule="evenodd" fill="#198aff" enable-background="new"/><path d="M127.2 93v-2.6l5 3.5-5 3.4v-2.8c-4.8.6-8.5 4.6-8.5 9.6 0 5.3 4.3 9.7 9.7 9.7 5.3 0 9.7-4.3 9.7-9.7 0-2.8-1.2-5.3-3.1-7.1l1-1.1c2.2 2 3.5 4.9 3.5 8.2 0 6.2-5 11.2-11.2 11.2-6.2 0-11.2-5-11.2-11.2.1-5.7 4.5-10.5 10.1-11.1z" clip-path="url(#SVGID_4_)" fill-rule="evenodd" clip-rule="evenodd" fill="#198aff"/><defs><path id="SVGID_5_" d="M695.1.3h191.5v130.3H695.1z"/></defs><clipPath id="SVGID_6_"><use xlink:href="#SVGID_5_" overflow="visible"/></clipPath><g clip-path="url(#SVGID_6_)"><path class="st4" d="M710.3 2.2h75.5c8 0 14.4 6.5 14.4 14.4v199.6c0 8-6.5 14.4-14.4 14.4h-75.5c-8 0-14.4-6.5-14.4-14.4V16.7c0-8 6.4-14.5 14.4-14.5z"/><path d="M783 32h75.5c8 0 14.4 6.5 14.4 14.4V246c0 8-6.5 14.4-14.4 14.4H783c-8 0-14.4-6.5-14.4-14.4V46.4c-.1-8 6.4-14.4 14.4-14.4z" stroke="#fff"/><path d="M822.1 97.6v-3.1l5 3.5-5 3.4v-2.3c-4.8.6-8.5 4.6-8.5 9.6 0 5.3 4.3 9.7 9.7 9.7 5.3 0 9.7-4.3 9.7-9.7 0-2.8-1.2-5.3-3.1-7.1l1-1.1c2.2 2 3.5 4.9 3.5 8.2 0 6.2-5 11.2-11.2 11.2-6.2 0-11.2-5-11.2-11.2.1-5.8 4.5-10.6 10.1-11.1z" fill-rule="evenodd" clip-rule="evenodd" fill="#ff6400"/><path d="M760.2 73.5c0-3.6-1.7-6.9-4.4-9l.8-1.1c3 2.3 5 5.9 5 10s-1.9 7.7-4.9 10l-.8-1.1c2.6-2 4.3-5.2 4.3-8.8zm-4.5 0c0-1.6-.6-3.2-1.6-4.3l1-.9c1.2 1.4 1.9 3.2 1.9 5.2s-.7 3.7-1.9 5.1l-1-.9c1-1.1 1.6-2.6 1.6-4.2zm-3.9 0c0 1.6-1.3 2.9-3 2.9-1.6 0-3-1.3-3-2.9 0-1.6 1.3-2.9 3-2.9 1.7-.1 3 1.2 3 2.9zm-9.7 0c0-1.6.6-3.1 1.5-4.3l-1-.8c-1.1 1.4-1.8 3.2-1.8 5.1 0 2 .7 3.7 1.9 5.1l1-.9c-1-1.1-1.6-2.6-1.6-4.2zm-4.6 0c0-3.6 1.7-6.8 4.4-8.9l-.8-1.1c-3 2.3-4.9 5.9-4.9 10 0 4 1.9 7.6 4.9 9.9l.8-1.1c-2.7-2-4.4-5.2-4.4-8.8z" opacity=".8" fill-rule="evenodd" clip-rule="evenodd" fill="#ff6400" enable-background="new"/></g><defs><path id="SVGID_7_" d="M797.4 242.9h147.4v137.8H797.4V242.9z"/></defs><clipPath id="SVGID_8_"><use xlink:href="#SVGID_7_" overflow="visible"/></clipPath><defs><filter id="Adobe_OpacityMaskFilter" filterUnits="userSpaceOnUse" x="819.5" y="264.1" width="105.7" height="230.1"><feColorMatrix values="1 0 0 0 0 0 1 0 0 0 0 0 1 0 0 0 0 0 1 0"/></filter></defs><mask maskUnits="userSpaceOnUse" x="819.5" y="264.1" width="105.7" height="230.1" id="mask11_1_"><path d="M834.4 264.6h75.8c8 0 14.5 6.5 14.5 14.5v200.2c0 8-6.5 14.5-14.5 14.5h-75.8c-8 0-14.5-6.5-14.5-14.5V279c.1-8 6.5-14.4 14.5-14.4z" clip-path="url(#SVGID_8_)" fill="#c4c4c4" filter="url(#Adobe_OpacityMaskFilter)" stroke="#fff"/></mask><g clip-path="url(#SVGID_8_)" mask="url(#mask11_1_)"><path class="st4" d="M834.4 264.6h75.8c8 0 14.5 6.5 14.5 14.5v200.2c0 8-6.5 14.5-14.5 14.5h-75.8c-8 0-14.5-6.5-14.5-14.5V279c.1-8 6.5-14.4 14.5-14.4z"/></g><path d="M883.9 334.4c0-3.7-1.7-6.9-4.4-9l.8-1.1c3 2.3 4.9 6 4.9 10.1s-1.9 7.7-4.9 10l-.8-1.1c2.7-2 4.4-5.2 4.4-8.9zm-4.5 0c0-1.7-.6-3.2-1.6-4.3l1-.9c1.2 1.4 1.9 3.2 1.9 5.2s-.7 3.8-1.9 5.2l-1-.9c1-1.1 1.6-2.6 1.6-4.3zm-3.9 0c0 1.6-1.3 2.9-2.9 2.9-1.6 0-2.9-1.3-2.9-2.9 0-1.6 1.3-2.9 2.9-2.9 1.6 0 2.9 1.3 2.9 2.9zm-9.6 0c0-1.6.6-3.1 1.5-4.3l-1-.9c-1.1 1.4-1.8 3.2-1.8 5.1 0 2 .7 3.8 1.9 5.2l1-.9c-1.1-1-1.6-2.5-1.6-4.2zm-4.6 0c0-3.6 1.7-6.9 4.4-8.9l-.8-1.1c-3 2.3-4.9 5.9-4.9 10 0 4 1.9 7.6 4.8 10l.8-1.1c-2.6-2-4.3-5.3-4.3-8.9z" clip-path="url(#SVGID_8_)" fill-rule="evenodd" clip-rule="evenodd" fill="#9f9f9f" enable-background="new"/><defs><path id="SVGID_9_" d="M670.6 242H818v137.8H670.6V242z"/></defs><clipPath id="SVGID_10_"><use xlink:href="#SVGID_9_" overflow="visible"/></clipPath><defs><filter id="Adobe_OpacityMaskFilter_1_" filterUnits="userSpaceOnUse" x="692.6" y="263.2" width="105.7" height="230.1"><feColorMatrix values="1 0 0 0 0 0 1 0 0 0 0 0 1 0 0 0 0 0 1 0"/></filter></defs><mask maskUnits="userSpaceOnUse" x="692.6" y="263.2" width="105.7" height="230.1" id="mask15_1_"><path d="M707.6 263.4h75.8c8.1 0 14.7 6.6 14.7 14.7v200.2c0 8.1-6.6 14.7-14.7 14.7h-75.8c-8.1 0-14.7-6.6-14.7-14.7V278.2c-.1-8.2 6.5-14.8 14.7-14.8z" clip-path="url(#SVGID_10_)" fill="#c4c4c4" filter="url(#Adobe_OpacityMaskFilter_1_)" stroke="#fff" stroke-width=".553"/></mask><g clip-path="url(#SVGID_10_)" mask="url(#mask15_1_)"><path class="st4" d="M707.6 263.7h75.8c8 0 14.5 6.5 14.5 14.5v200.2c0 8-6.5 14.5-14.5 14.5h-75.8c-8 0-14.5-6.5-14.5-14.5V278.2c0-8 6.5-14.5 14.5-14.5z"/></g><path d="M743.2 324.5v-2.6l5 3.5-5 3.4V326c-4.8.6-8.6 4.7-8.6 9.6 0 5.4 4.3 9.7 9.7 9.7 5.4 0 9.7-4.3 9.7-9.7 0-2.8-1.2-5.3-3.1-7.1l1-1.1c2.2 2 3.5 5 3.5 8.2 0 6.2-5 11.2-11.2 11.2-6.2 0-11.2-5-11.2-11.2.1-5.8 4.5-10.6 10.2-11.1z" clip-path="url(#SVGID_10_)" fill-rule="evenodd" clip-rule="evenodd" fill="#b3b3b3"/><defs><path id="SVGID_11_" d="M-8.4 258h130.7v122.5H-8.4z"/></defs><clipPath id="SVGID_12_"><use xlink:href="#SVGID_11_" overflow="visible"/></clipPath><path d="M16.1 263.4h75.8c8.1 0 14.7 6.6 14.7 14.7v200.2c0 8.1-6.6 14.7-14.7 14.7H16.1c-8.1 0-14.7-6.6-14.7-14.7V278.2c-.1-8.2 6.5-14.8 14.7-14.8z" clip-path="url(#SVGID_12_)" fill="none" stroke="#fff"/><path d="M54.5 326.8c.1-.3.4-.5.7-.5s.6.2.7.5l2.3 6.8h7.6c.3 0 .6.2.7.5.1.3 0 .6-.3.8l-6.1 4.2 2.3 6.8c.1.3 0 .6-.2.8-.2.2-.6.2-.8 0l-6.1-4.2-6.1 4.2c-.3.2-.6.2-.8 0-.2-.2-.3-.5-.2-.8l2.3-6.8-6.1-4.2c-.3-.2-.4-.5-.3-.8.1-.3.4-.5.7-.5h7.6l2.1-6.8z" opacity=".8" clip-path="url(#SVGID_12_)" fill="none" stroke="#78de7f" stroke-width="1.173" stroke-linejoin="round" enable-background="new"/><path d="M28.3 326.8c.1-.3.4-.5.7-.5.3 0 .6.2.7.5l2.3 6.8h7.6c.3 0 .6.2.7.5.1.3 0 .6-.3.8l-6.1 4.2 2.3 6.8c.1.3 0 .6-.2.8-.2.2-.6.2-.8 0l-6.1-4.2-6.1 4.2c-.3.2-.6.2-.8 0-.2-.2-.3-.5-.2-.8l2.3-6.8-6.1-4.2c-.3-.2-.4-.5-.3-.8.1-.3.4-.5.7-.5H26l2.3-6.8z" opacity=".8" clip-path="url(#SVGID_12_)" fill="none" stroke="#198aff" stroke-width="1.173" stroke-linejoin="round" enable-background="new"/><path d="M81.1 326.8c.1-.3.4-.5.7-.5s.6.2.7.5l2.2 6.8h7.2c.3 0 .6.2.7.5.1.3 0 .6-.3.8l-5.8 4.2 2.2 6.8c.1.3 0 .6-.3.8-.2.2-.6.2-.8 0l-5.8-4.2-5.8 4.2c-.2.2-.6.2-.8 0-.2-.2-.4-.5-.3-.8l2.2-6.8-5.8-4.2c-.2-.2-.4-.5-.3-.8.1-.3.4-.5.7-.5h7.2l2.2-6.8z" opacity=".8" clip-path="url(#SVGID_12_)" fill="none" stroke="#ff6400" stroke-width="1.173" stroke-linejoin="round" enable-background="new"/><path class="st28" d="M550.3 420.9c0-2.9-1.4-5.6-3.5-7.2l.7-.9c2.4 1.9 4 4.8 4 8.1s-1.5 6.2-3.9 8l-.7-.9c2-1.6 3.4-4.2 3.4-7.1zm-3.7 0c0-1.3-.5-2.5-1.3-3.5l.8-.7c.9 1.1 1.5 2.6 1.5 4.2s-.6 3-1.5 4.1l-.8-.7c.9-.9 1.3-2.1 1.3-3.4zm-3 0c0 1.3-1.1 2.4-2.4 2.4-1.3 0-2.4-1.1-2.4-2.4s1.1-2.4 2.4-2.4c1.3 0 2.4 1.1 2.4 2.4zm-7.8 0c0-1.3.5-2.5 1.2-3.4l-.8-.7c-.9 1.1-1.5 2.6-1.5 4.1 0 1.6.6 3 1.5 4.1l.8-.7c-.7-.9-1.2-2.1-1.2-3.4zm-3.6 0c0-2.9 1.4-5.5 3.5-7.2l-.7-.9c-2.4 1.9-3.9 4.8-3.9 8 0 3.3 1.5 6.1 3.9 8l.7-.8c-2.2-1.6-3.5-4.2-3.5-7.1z"/><path class="st3" d="M535.4 442.5h3.1v-.5H536v-4.8h-.6v5.3zm3.9 0h.6v-3.9h-.6v3.9zm.3-4.7c.2 0 .4-.2.4-.4s-.2-.4-.4-.4-.4.2-.4.4.2.4.4.4zm2.5 4.7h.8l1.4-3.9h-.6l-1.1 3.3-1.1-3.3h-.7l1.3 3.9zm4.5 0c.9 0 1.5-.4 1.7-1.2h-.6c-.1.5-.4.7-1 .7-.8 0-1.2-.5-1.2-1.4h2.9v-.2c0-1.4-.8-1.9-1.7-1.9-1.1 0-1.8.8-1.8 2v.1c-.2 1.2.6 1.9 1.7 1.9zm-1.2-2.3c.1-.7.5-1.1 1.2-1.1.6 0 1.1.3 1.1 1.1h-2.3zm-212.5 2.3h.6v-2.4h2.8v2.4h.6v-5.3h-.6v2.4h-2.8v-2.4h-.6v5.3zm5.4 0h.6v-3.9h-.6v3.9zm.3-4.7c.2 0 .4-.2.4-.4s-.2-.4-.4-.4-.4.2-.4.4.2.4.4.4zm3.2 6.1c1.1 0 1.8-.5 1.9-1.7v-3.6h-.7v.6c-.2-.4-.6-.7-1.3-.7-1.1 0-1.8.9-1.8 1.9v.1c0 1.1.7 1.8 1.8 1.8.6 0 1.1-.4 1.3-.7v.6c0 .8-.5 1.2-1.2 1.2s-1-.2-1.1-.7h-.7c.1.7.6 1.2 1.8 1.2zm-.1-2.1c-.7 0-1.2-.5-1.2-1.3v-.1c0-.8.5-1.4 1.2-1.4.8 0 1.2.5 1.2 1.4v.1c.1.8-.4 1.3-1.2 1.3zm3.1.7h.6v-2.3c0-.7.5-1.1 1.1-1.1.6 0 .9.3.9 1v2.4h.6v-2.4c0-1.1-.6-1.6-1.4-1.6-.6 0-1.1.3-1.2.7v-2.5h-.6v5.8zm4.5 0h.6v-5.7h-.6v5.7zm1.9 0h.6v-3.9h-.6v3.9zm.3-4.7c.2 0 .4-.2.4-.4s-.2-.4-.4-.4-.4.2-.4.4.2.4.4.4zm3.1 6.1c1.1 0 1.8-.5 1.9-1.7v-3.6h-.6v.6c-.2-.4-.6-.7-1.3-.7-1.1 0-1.8.9-1.8 1.9v.1c0 1.1.7 1.8 1.8 1.8.6 0 1.1-.4 1.3-.7v.6c0 .8-.5 1.2-1.2 1.2s-1-.2-1.1-.7h-.6c0 .7.5 1.2 1.6 1.2zm0-2.1c-.7 0-1.2-.5-1.2-1.3v-.1c0-.8.5-1.4 1.2-1.4.8 0 1.2.5 1.2 1.4v.1c.1.8-.5 1.3-1.2 1.3zm3.1.7h.6v-2.3c0-.7.5-1.1 1.1-1.1.6 0 .9.3.9 1v2.4h.6v-2.4c0-1.1-.6-1.6-1.4-1.6-.6 0-1.1.3-1.2.7v-2.5h-.6v5.8zm5.6 0c.3 0 .4 0 .5-.1v-.5c-.1.1-.3.1-.5.1-.3 0-.5-.2-.5-.6v-2.3h.9v-.5h-.9v-.9h-.6v.9h-.6v.5h.6v2.4c.1.6.4 1 1.1 1zm2.7 0c.9 0 1.4-.5 1.4-1.2 0-.8-.6-1-1.4-1.1-.7-.1-.9-.3-.9-.6s.3-.6.7-.6c.5 0 .7.2.8.6h.6c-.1-.8-.7-1.1-1.4-1.1-.6 0-1.3.4-1.3 1.1 0 .7.3 1 1.3 1.1.6.1.9.2.9.7 0 .4-.3.6-.8.6-.6 0-.9-.3-.9-.7h-.6c.1.8.6 1.2 1.6 1.2z"/><path d="M348.9 413c.1-.2.3-.4.5-.4s.5.2.5.4l1.8 5.3h5.8c.2 0 .5.2.5.4.1.2 0 .5-.2.6l-4.7 3.3 1.8 5.3c.1.2 0 .5-.2.6-.2.1-.5.1-.7 0l-4.7-3.3-4.7 3.3c-.2.1-.5.1-.7 0-.2-.1-.3-.4-.2-.6l1.8-5.3-4.7-3.3c-.2-.1-.3-.4-.2-.6.1-.2.3-.4.5-.4h5.8l2-5.3z" fill="none" stroke="#fff" stroke-width=".806" stroke-linejoin="round"/><path class="st3" d="M425.2 442c-1.1 0-2-.9-2-2.2v-.1c0-1.3.7-2.2 1.9-2.2s1.9 1 1.9 2.1v.1c.1 1.4-.7 2.3-1.8 2.3zm0 .5c1.5 0 2.6-1.2 2.6-2.7v-.1c0-1.5-1-2.7-2.6-2.7s-2.6 1.2-2.6 2.7v.1c-.1 1.5 1 2.7 2.6 2.7zm3.6 0h.6v-2.3c0-.7.5-1.1 1.1-1.1.6 0 .9.3.9 1v2.4h.6v-2.4c0-1.1-.6-1.6-1.4-1.6-.6 0-1.1.3-1.2.7v-.6h-.6v3.9zm5.1-.5v-4.3h.7c1.5 0 2.1.9 2.1 2.1v.1c0 1.3-.7 2.1-2 2.1h-.8zm-.7.5h1.4c1.9 0 2.7-1.2 2.7-2.6v-.1c0-1.5-.9-2.6-2.7-2.6h-1.4v5.3zm6.7 0c.9 0 1.5-.4 1.7-1.2h-.6c-.1.5-.4.7-1 .7-.8 0-1.2-.5-1.2-1.4h2.9v-.2c0-1.4-.8-1.9-1.7-1.9-1.1 0-1.8.8-1.8 2v.1c-.1 1.2.6 1.9 1.7 1.9zm-1.2-2.3c.1-.7.5-1.1 1.2-1.1.6 0 1.1.3 1.1 1.1h-2.3zm3.9 2.3h.6v-2.4c0-.7.5-1 1-1s.8.3.8 1v2.4h.6v-2.4c0-.7.5-1 1-1s.8.3.8 1v2.4h.6v-2.4c0-1.1-.6-1.5-1.3-1.5-.5 0-1.1.2-1.3.7-.2-.5-.6-.7-1.1-.7-.6 0-1 .3-1.2.7v-.6h-.6v3.8zm7.7 0c.6 0 .9-.2 1.2-.6v.5h.6v-2.6c0-1.1-.7-1.4-1.4-1.4s-1.5.3-1.5 1.2h.6c.1-.5.4-.7.9-.7.6 0 .8.3.8.9v.3h-.6c-1 0-1.9.3-1.9 1.2 0 .9.6 1.2 1.3 1.2zm0-.4c-.5 0-.7-.3-.7-.7 0-.6.6-.8 1.4-.8h.5v.5c0 .6-.5 1-1.2 1zm3 .4h.6v-2.3c0-.7.5-1.1 1.1-1.1.6 0 .9.3.9 1v2.4h.6v-2.4c0-1.1-.6-1.6-1.4-1.6-.6 0-1.1.3-1.2.7v-.6h-.6v3.9zm5.9 0c.6 0 1.1-.4 1.3-.7v.7h.6v-5.7h-.6v2.5c-.2-.4-.6-.7-1.3-.7-1.1 0-1.8.8-1.8 2v.1c.1 1.1.8 1.8 1.8 1.8zm.1-.5c-.7 0-1.2-.5-1.2-1.4v-.1c0-.9.5-1.5 1.2-1.5.8 0 1.2.5 1.2 1.5v.1c.1 1-.5 1.4-1.2 1.4z"/><path class="st28" d="M441.7 412.8V411l3.5 2.5-3.5 2.4v-2c-3.4.4-6 3.3-6 6.8 0 3.8 3 6.8 6.8 6.8s6.8-3.1 6.8-6.8c0-2-.8-3.7-2.1-5l.7-.8c1.5 1.4 2.5 3.5 2.5 5.8 0 4.4-3.5 7.9-7.9 7.9-4.3 0-7.9-3.5-7.9-7.9.1-4.1 3.1-7.4 7.1-7.9z"/><path class="st4" d="M310 403.7h267.5v43.9H310z"/><defs><path id="SVGID_13_" d="M289.9 251.2h300.3v130.1H289.9z"/></defs><clipPath id="SVGID_14_"><use xlink:href="#SVGID_13_" overflow="visible"/></clipPath><defs><filter id="Adobe_OpacityMaskFilter_2_" filterUnits="userSpaceOnUse" x="324.9" y="314.3" width="236.6" height="8.2"><feColorMatrix values="1 0 0 0 0 0 1 0 0 0 0 0 1 0 0 0 0 0 1 0"/></filter></defs><mask maskUnits="userSpaceOnUse" x="324.9" y="314.3" width="236.6" height="8.2" id="mask0_1_"><path clip-path="url(#SVGID_14_)" fill="#c4c4c4" filter="url(#Adobe_OpacityMaskFilter_2_)" d="M277.4 249h318.1v131.5H277.4z"/></mask><g clip-path="url(#SVGID_14_)" mask="url(#mask0_1_)"><defs><filter id="Adobe_OpacityMaskFilter_3_" filterUnits="userSpaceOnUse" x="324.9" y="314.3" width="236.6" height="8.2"><feColorMatrix values="1 0 0 0 0 0 1 0 0 0 0 0 1 0 0 0 0 0 1 0"/></filter></defs><mask maskUnits="userSpaceOnUse" x="324.9" y="314.3" width="236.6" height="8.2" id="mask1_1_"><path d="M347 264.4h193.1c20.8 0 37.6 16.8 37.6 37.6v510.3c0 20.8-16.8 37.6-37.6 37.6H347c-20.8 0-37.6-16.8-37.6-37.6V302c0-20.8 16.8-37.6 37.6-37.6z" fill="#c4c4c4" filter="url(#Adobe_OpacityMaskFilter_3_)" stroke="#464646" stroke-width="1.254"/></mask><g mask="url(#mask1_1_)" fill="none" stroke-width="7.526"><path d="M324.9 318.7l71.3-.2" stroke="#198aff"/><path d="M406.9 318.5l71.3-.2" stroke="#78de7f"/><path d="M490.2 318.2l71.3-.2" stroke="#ff6400"/></g></g><path d="M347 264.2h193.1c20.9 0 37.8 16.9 37.8 37.8v510.3c0 20.9-16.9 37.8-37.8 37.8H347c-20.9 0-37.8-16.9-37.8-37.8V302c0-20.9 16.9-37.8 37.8-37.8z" clip-path="url(#SVGID_14_)" fill="none" stroke="#fff"/></g></svg>