<svg width="722" height="410" viewBox="0 0 722 410" fill="none" xmlns="http://www.w3.org/2000/svg">
<mask id="mask0" mask-type="alpha" maskUnits="userSpaceOnUse" x="231" y="211" width="235" height="98">
<rect x="231.604" y="211.866" width="233.584" height="96.5285" fill="#C4C4C4"/>
</mask>
<g mask="url(#mask0)">
<mask id="mask1" mask-type="alpha" maskUnits="userSpaceOnUse" x="254" y="222" width="199" height="432">
<rect x="255.074" y="223.213" width="196.986" height="429.869" rx="27.5947" fill="#C4C4C4" stroke="#464646" stroke-width="1.25431"/>
</mask>
<g mask="url(#mask1)">
<rect x="254.947" y="223.085" width="197.24" height="430.124" rx="27.7219" stroke="white"/>
<path d="M266.477 263.07L318.814 262.918" stroke="#198AFF" stroke-width="7.52583"/>
<path d="M326.652 262.903L378.99 262.758" stroke="#78DE7F" stroke-width="7.52583"/>
<path d="M387.838 262.734L440.176 262.589" stroke="#FF6400" stroke-width="7.52583"/>
</g>
</g>
<path fill-rule="evenodd" clip-rule="evenodd" d="M431.759 349.486C431.759 347.353 430.755 345.457 429.195 344.247L429.671 343.625C431.415 344.977 432.54 347.099 432.54 349.486C432.54 351.854 431.432 353.964 429.709 355.316L429.229 354.697C430.77 353.488 431.759 351.602 431.759 349.486ZM429.103 349.486C429.103 348.523 428.76 347.643 428.191 346.959L428.789 346.455C429.472 347.275 429.883 348.332 429.883 349.486C429.883 350.626 429.481 351.673 428.811 352.489L428.209 351.989C428.768 351.308 429.103 350.437 429.103 349.486ZM426.894 349.487C426.894 350.434 426.13 351.201 425.189 351.201C424.247 351.201 423.484 350.434 423.484 349.487C423.484 348.54 424.247 347.772 425.189 347.772C426.13 347.772 426.894 348.54 426.894 349.487ZM421.275 349.486C421.275 348.543 421.604 347.678 422.154 347.001L421.549 346.504C420.89 347.317 420.494 348.356 420.494 349.486C420.494 350.626 420.897 351.674 421.567 352.49L422.169 351.99C421.61 351.309 421.275 350.437 421.275 349.486ZM418.618 349.487C418.618 347.371 419.607 345.488 421.146 344.278L420.665 343.659C418.945 345.012 417.838 347.119 417.838 349.487C417.838 351.844 418.935 353.943 420.642 355.296L421.126 354.68C419.598 353.469 418.618 351.593 418.618 349.487Z" fill="white"/>
<path d="M420.941 365.147H423.166V364.766H421.408V361.305H420.941V365.147ZM423.796 365.147H424.242V362.336H423.796V365.147ZM424.011 361.751C424.172 361.751 424.306 361.616 424.306 361.455C424.306 361.294 424.172 361.159 424.011 361.159C423.849 361.159 423.715 361.294 423.715 361.455C423.715 361.616 423.849 361.751 424.011 361.751ZM425.859 365.147H426.429L427.439 362.336H426.977L426.154 364.696L425.321 362.336H424.838L425.859 365.147ZM429.097 365.196C429.732 365.196 430.199 364.9 430.296 364.336H429.85C429.791 364.664 429.538 364.825 429.103 364.825C428.528 364.825 428.221 364.47 428.2 363.831H430.317V363.686C430.317 362.68 429.705 362.288 429.054 362.288C428.28 362.288 427.738 362.879 427.738 363.729V363.772C427.738 364.637 428.302 365.196 429.097 365.196ZM428.216 363.471C428.291 362.971 428.597 362.659 429.054 362.659C429.517 362.659 429.818 362.89 429.861 363.471H428.216Z" fill="white"/>
<path d="M274.154 365.146H274.621V363.437H276.642V365.146H277.11V361.304H276.642V363.045H274.621V361.304H274.154V365.146ZM278.058 365.146H278.504V362.335H278.058V365.146ZM278.273 361.75C278.434 361.75 278.569 361.615 278.569 361.454C278.569 361.293 278.434 361.158 278.273 361.158C278.112 361.158 277.978 361.293 277.978 361.454C277.978 361.615 278.112 361.75 278.273 361.75ZM280.541 366.173C281.325 366.173 281.879 365.775 281.884 364.958V362.335H281.438V362.787C281.277 362.513 280.987 362.287 280.519 362.287C279.745 362.287 279.208 362.921 279.208 363.685V363.722C279.208 364.496 279.751 365.055 280.487 365.055C280.895 365.055 281.277 364.797 281.438 364.523V364.931C281.438 365.533 281.089 365.797 280.535 365.797C280.057 365.797 279.788 365.63 279.724 365.308H279.267C279.342 365.781 279.708 366.173 280.541 366.173ZM280.535 364.684C280.062 364.684 279.67 364.319 279.67 363.706V363.663C279.67 363.072 280.003 362.658 280.562 362.658C281.11 362.658 281.454 363.023 281.454 363.652V363.69C281.454 364.319 281.057 364.684 280.535 364.684ZM282.787 365.146H283.233V363.443C283.233 362.937 283.604 362.674 284.018 362.674C284.469 362.674 284.679 362.894 284.679 363.389V365.146H285.125V363.421C285.125 362.604 284.717 362.287 284.136 362.287C283.674 362.287 283.362 362.518 283.233 362.782V360.992H282.787V365.146ZM286.01 365.146H286.462V360.992H286.01V365.146ZM287.385 365.146H287.831V362.335H287.385V365.146ZM287.6 361.75C287.762 361.75 287.896 361.615 287.896 361.454C287.896 361.293 287.762 361.158 287.6 361.158C287.439 361.158 287.305 361.293 287.305 361.454C287.305 361.615 287.439 361.75 287.6 361.75ZM289.868 366.173C290.653 366.173 291.206 365.775 291.212 364.958V362.335H290.765V362.787C290.604 362.513 290.314 362.287 289.846 362.287C289.072 362.287 288.535 362.921 288.535 363.685V363.722C288.535 364.496 289.078 365.055 289.814 365.055C290.223 365.055 290.604 364.797 290.765 364.523V364.931C290.765 365.533 290.416 365.797 289.862 365.797C289.384 365.797 289.115 365.63 289.051 365.308H288.594C288.669 365.781 289.035 366.173 289.868 366.173ZM289.862 364.684C289.39 364.684 288.997 364.319 288.997 363.706V363.663C288.997 363.072 289.33 362.658 289.889 362.658C290.438 362.658 290.782 363.023 290.782 363.652V363.69C290.782 364.319 290.384 364.684 289.862 364.684ZM292.114 365.146H292.56V363.443C292.56 362.937 292.931 362.674 293.345 362.674C293.797 362.674 294.006 362.894 294.006 363.389V365.146H294.452V363.421C294.452 362.604 294.044 362.287 293.463 362.287C293.001 362.287 292.689 362.518 292.56 362.782V360.992H292.114V365.146ZM296.181 365.184C296.364 365.184 296.471 365.157 296.563 365.125V364.749C296.466 364.786 296.358 364.808 296.219 364.808C295.993 364.808 295.869 364.674 295.869 364.399V362.712H296.525V362.335H295.869V361.696H295.423V362.335H295.02V362.712H295.423V364.442C295.423 364.883 295.671 365.184 296.181 365.184ZM298.108 365.195C298.79 365.195 299.14 364.851 299.14 364.34C299.14 363.744 298.731 363.615 298.151 363.507C297.635 363.416 297.495 363.314 297.495 363.061C297.495 362.819 297.705 362.658 298.027 362.658C298.382 362.658 298.554 362.792 298.618 363.099H299.048C298.973 362.491 298.538 362.287 298.033 362.287C297.592 362.287 297.081 362.556 297.081 363.077C297.081 363.566 297.328 363.771 298.059 363.905C298.495 363.986 298.715 364.082 298.715 364.378C298.715 364.679 298.527 364.824 298.102 364.824C297.651 364.824 297.474 364.614 297.441 364.281H297.006C297.033 364.856 297.436 365.195 298.108 365.195Z" fill="white"/>
<path d="M285.753 343.76C285.808 343.596 285.962 343.485 286.135 343.485C286.309 343.485 286.463 343.596 286.518 343.76L287.812 347.635H292.006C292.181 347.635 292.337 347.748 292.39 347.916C292.443 348.083 292.382 348.266 292.239 348.367L288.855 350.759L290.146 354.624C290.201 354.79 290.144 354.972 290.004 355.076C289.864 355.179 289.673 355.182 289.531 355.081L286.135 352.681L282.74 355.081C282.598 355.182 282.407 355.179 282.267 355.076C282.127 354.972 282.07 354.79 282.125 354.624L283.416 350.759L280.032 348.367C279.889 348.266 279.828 348.083 279.881 347.916C279.934 347.748 280.089 347.635 280.265 347.635H284.459L285.753 343.76Z" stroke="white" stroke-width="0.806215" stroke-linejoin="round"/>
<path d="M341.028 364.809C340.228 364.809 339.609 364.175 339.609 363.245V363.202C339.609 362.289 340.125 361.633 341.018 361.633C341.904 361.633 342.41 362.332 342.41 363.192V363.235C342.41 364.164 341.883 364.809 341.028 364.809ZM341.028 365.196C342.146 365.196 342.893 364.326 342.893 363.24V363.197C342.893 362.117 342.146 361.257 341.018 361.257C339.889 361.257 339.126 362.117 339.126 363.208V363.251C339.126 364.326 339.894 365.196 341.028 365.196ZM343.638 365.148H344.084V363.444C344.084 362.939 344.455 362.676 344.869 362.676C345.32 362.676 345.53 362.896 345.53 363.39V365.148H345.976V363.423C345.976 362.606 345.568 362.289 344.987 362.289C344.525 362.289 344.213 362.52 344.084 362.783V362.337H343.638V365.148ZM347.35 364.766V361.681H347.872C348.93 361.681 349.36 362.305 349.36 363.192V363.235C349.36 364.175 348.866 364.766 347.877 364.766H347.35ZM346.883 365.148H347.888C349.231 365.148 349.844 364.304 349.844 363.24V363.192C349.844 362.122 349.221 361.305 347.898 361.305H346.883V365.148ZM351.743 365.196C352.377 365.196 352.845 364.901 352.941 364.336H352.495C352.436 364.664 352.184 364.825 351.748 364.825C351.173 364.825 350.867 364.471 350.845 363.831H352.963V363.686C352.963 362.681 352.35 362.289 351.7 362.289C350.926 362.289 350.383 362.88 350.383 363.729V363.772C350.383 364.637 350.947 365.196 351.743 365.196ZM350.861 363.471C350.937 362.971 351.243 362.659 351.7 362.659C352.162 362.659 352.463 362.891 352.506 363.471H350.861ZM353.648 365.148H354.094V363.428C354.094 362.923 354.47 362.676 354.835 362.676C355.222 362.676 355.432 362.88 355.432 363.374V365.148H355.878V363.428C355.878 362.923 356.254 362.676 356.62 362.676C357.007 362.676 357.216 362.88 357.216 363.374V365.148H357.662V363.407C357.662 362.59 357.222 362.289 356.716 362.289C356.367 362.289 355.948 362.45 355.754 362.815C355.609 362.439 355.292 362.289 354.932 362.289C354.529 362.289 354.223 362.504 354.094 362.767V362.337H353.648V365.148ZM359.243 365.196C359.657 365.196 359.91 365.057 360.12 364.793V365.148H360.566V363.294C360.566 362.509 360.077 362.289 359.539 362.289C358.996 362.289 358.486 362.525 358.427 363.165H358.873C358.916 362.821 359.131 362.659 359.518 362.659C359.948 362.659 360.12 362.848 360.12 363.294V363.498H359.716C358.996 363.498 358.308 363.718 358.308 364.369C358.308 364.944 358.722 365.196 359.243 365.196ZM359.286 364.842C358.894 364.842 358.754 364.659 358.754 364.369C358.754 363.955 359.168 363.815 359.733 363.815H360.12V364.164C360.12 364.6 359.759 364.842 359.286 364.842ZM361.442 365.148H361.888V363.444C361.888 362.939 362.259 362.676 362.673 362.676C363.124 362.676 363.334 362.896 363.334 363.39V365.148H363.78V363.423C363.78 362.606 363.372 362.289 362.791 362.289C362.329 362.289 362.017 362.52 361.888 362.783V362.337H361.442V365.148ZM365.713 365.196C366.122 365.196 366.514 364.938 366.675 364.664V365.148H367.121V360.993H366.675V362.788C366.514 362.514 366.224 362.289 365.756 362.289C364.982 362.289 364.445 362.896 364.445 363.756V363.799C364.445 364.675 364.977 365.196 365.713 365.196ZM365.761 364.825C365.288 364.825 364.907 364.487 364.907 363.777V363.734C364.907 363.052 365.24 362.659 365.799 362.659C366.347 362.659 366.691 362.998 366.691 363.718V363.761C366.691 364.481 366.283 364.825 365.761 364.825Z" fill="white"/>
<path fill-rule="evenodd" clip-rule="evenodd" d="M353.033 343.658V342.339L355.571 344.131L353.033 345.877V344.436C350.581 344.724 348.679 346.82 348.679 349.363C348.679 352.102 350.887 354.323 353.611 354.323C356.335 354.323 358.543 352.102 358.543 349.363C358.543 347.935 357.944 346.649 356.984 345.744L357.51 345.18C358.618 346.226 359.311 347.713 359.311 349.363C359.311 352.529 356.759 355.096 353.611 355.096C350.462 355.096 347.91 352.529 347.91 349.363C347.91 346.392 350.156 343.95 353.033 343.658Z" fill="white"/>
<rect x="257.516" y="336.998" width="193.984" height="31.8625" stroke="white"/>
<path d="M73.2774 133.549C73.2774 131.13 71.7967 129.378 69.423 129.378C67.0492 129.378 65.5685 131.13 65.5685 133.549C65.5685 135.979 67.0492 137.72 69.423 137.72C71.7967 137.72 73.2774 135.979 73.2774 133.549ZM71.7515 133.549C71.7515 135.346 70.9602 136.533 69.423 136.533C67.8744 136.533 67.0945 135.346 67.0945 133.549C67.0945 131.763 67.8744 130.565 69.423 130.565C70.9602 130.565 71.7515 131.763 71.7515 133.549ZM78.6652 129.513H76.9132V137.584H78.3487V131.333H78.3713L82.5197 137.584H83.91V129.513H82.4857V135.233H82.4631L78.6652 129.513ZM95.747 129.513H92.6386V137.584H95.747C98.1773 137.584 99.7824 135.979 99.7824 133.549C99.7824 131.13 98.1773 129.513 95.747 129.513ZM95.747 130.7C97.3521 130.7 98.2451 131.751 98.2451 133.549C98.2451 135.346 97.3521 136.397 95.747 136.397H94.108V130.7H95.747ZM109.265 137.584V136.397H104.89V134.136H108.722V132.95H104.89V130.7H109.22V129.513H103.421V137.584H109.265ZM117.903 137.584L120.198 131.243H120.22V137.584H121.656V129.513H119.599L117.429 135.583H117.406L115.236 129.513H113.111V137.584H114.49V131.243H114.512L116.818 137.584H117.903ZM131.602 137.584H133.14L129.896 129.513H128.211L124.967 137.584H126.437L127.205 135.606H130.845L131.602 137.584ZM129.025 130.96H129.059L130.393 134.442H127.669L129.025 130.96ZM138.205 129.513H136.453V137.584H137.888V131.333H137.911L142.059 137.584H143.449V129.513H142.025V135.233H142.003L138.205 129.513ZM150.653 129.513H147.544V137.584H150.653C153.083 137.584 154.688 135.979 154.688 133.549C154.688 131.13 153.083 129.513 150.653 129.513ZM150.653 130.7C152.258 130.7 153.151 131.751 153.151 133.549C153.151 135.346 152.258 136.397 150.653 136.397H149.014V130.7H150.653Z" fill="white"/>
<path d="M30.4937 347.329H31.9971V343.825H36.1341V347.329H37.6262V339.258H36.1341V342.649H31.9971V339.258H30.4937V347.329ZM41.7176 347.329H43.221V339.258H41.7176V347.329ZM46.8711 343.282C46.8711 345.78 48.3971 347.464 50.6578 347.464C51.6525 347.464 52.6811 346.944 52.975 346.176L53.0767 347.329H54.241V343.214H51.189V344.299H52.7489V344.582C52.7489 345.577 51.9351 346.277 50.7482 346.277C49.2448 346.277 48.3971 345.124 48.3971 343.282C48.3971 341.451 49.2674 340.309 50.7708 340.309C51.8559 340.309 52.4663 340.874 52.6585 341.779H54.1392C53.8227 340.185 52.715 339.122 50.7708 339.122C48.4649 339.122 46.8711 340.795 46.8711 343.282ZM58.1937 347.329H59.6971V343.825H63.8341V347.329H65.3262V339.258H63.8341V342.649H59.6971V339.258H58.1937V347.329ZM69.4177 347.329H75.0807V346.142H70.921V339.258H69.4177V347.329ZM78.8313 347.329H80.3346V339.258H78.8313V347.329ZM83.9848 343.282C83.9848 345.78 85.5107 347.464 87.7714 347.464C88.7661 347.464 89.7947 346.944 90.0886 346.176L90.1903 347.329H91.3546V343.214H88.3027V344.299H89.8625V344.582C89.8625 345.577 89.0487 346.277 87.8618 346.277C86.3585 346.277 85.5107 345.124 85.5107 343.282C85.5107 341.451 86.3811 340.309 87.8844 340.309C88.9696 340.309 89.58 340.874 89.7721 341.779H91.2529C90.9364 340.185 89.8286 339.122 87.8844 339.122C85.5785 339.122 83.9848 340.795 83.9848 343.282ZM95.3073 347.329H96.8107V343.825H100.948V347.329H102.44V339.258H100.948V342.649H96.8107V339.258H95.3073V347.329ZM108.939 347.329H110.431V340.445H113.336V339.258H106.045V340.445H108.939V347.329ZM116.164 344.887C116.311 346.662 117.792 347.464 119.714 347.464C121.499 347.464 122.845 346.492 122.845 345.023C122.845 343.723 122.053 343.067 120.731 342.819L119.171 342.513C118.301 342.344 117.882 342.129 117.882 341.462C117.882 340.75 118.493 340.241 119.465 340.241C120.471 340.241 121.172 340.682 121.273 341.473H122.686C122.528 339.959 121.375 339.122 119.454 339.122C117.69 339.122 116.424 340.117 116.424 341.553C116.424 342.965 117.385 343.531 118.572 343.745L120.053 344.017C121.025 344.198 121.375 344.525 121.375 345.113C121.375 345.927 120.629 346.357 119.668 346.357C118.662 346.357 117.713 345.984 117.611 344.887H116.164Z" fill="white"/>
<g clip-path="url(#clip0)">
<mask id="mask2" mask-type="alpha" maskUnits="userSpaceOnUse" x="258" y="0" width="178" height="109">
<path d="M258.445 0.229736H435.029V108.004H258.445V0.229736Z" fill="#C4C4C4"/>
</mask>
<g mask="url(#mask2)">
<mask id="mask3" mask-type="alpha" maskUnits="userSpaceOnUse" x="276" y="1" width="89" height="191">
<rect x="277.077" y="1.6311" width="86.8034" height="189.426" rx="12.1598" fill="#C4C4C4" stroke="#464646" stroke-width="0.55272"/>
</mask>
<g mask="url(#mask3)">
<rect x="277.301" y="1.85474" width="86.3561" height="188.978" rx="11.9362" stroke="white"/>
</g>
<mask id="mask4" mask-type="alpha" maskUnits="userSpaceOnUse" x="336" y="21" width="95" height="204">
<rect x="337.187" y="22.1218" width="92.7552" height="201.627" rx="12.1598" fill="white" stroke="#464646" stroke-width="0.55272"/>
</mask>
<g mask="url(#mask4)">
<rect x="337.703" y="28.9167" width="86.3561" height="188.978" rx="11.9362" fill="black" stroke="white"/>
</g>
<path opacity="0.8" fill-rule="evenodd" clip-rule="evenodd" d="M328.695 60.7507C328.695 57.7326 327.266 55.0497 325.045 53.3383L325.723 52.4585C328.205 54.371 329.805 57.3734 329.805 60.7507C329.805 64.1016 328.228 67.0868 325.777 68.9996L325.093 68.1238C327.287 66.4127 328.695 63.7453 328.695 60.7507ZM324.918 60.7509C324.918 59.389 324.43 58.1437 323.62 57.1766L324.472 56.4634C325.443 57.623 326.029 59.1186 326.029 60.7509C326.029 62.3646 325.456 63.8456 324.502 65L323.646 64.2927C324.441 63.33 324.918 62.097 324.918 60.7509ZM321.773 60.7505C321.773 62.0904 320.687 63.1763 319.348 63.1763C318.007 63.1763 316.921 62.0904 316.921 60.7505C316.921 59.4105 318.007 58.3238 319.348 58.3238C320.687 58.3238 321.773 59.4105 321.773 60.7505ZM313.776 60.7493C313.776 59.4153 314.245 58.1919 315.027 57.2327L314.166 56.5308C313.228 57.681 312.666 59.1505 312.666 60.7493C312.666 62.3628 313.238 63.8449 314.192 64.9994L315.048 64.292C314.253 63.3294 313.776 62.0955 313.776 60.7493ZM309.997 60.7504C309.997 57.7568 311.404 55.092 313.594 53.3798L312.91 52.5047C310.463 54.4183 308.887 57.4004 308.887 60.7504C308.887 64.0852 310.448 67.0552 312.878 68.9697L313.565 68.0974C311.392 66.3842 309.997 63.7304 309.997 60.7504Z" fill="#78DE7F"/>
<path fill-rule="evenodd" clip-rule="evenodd" d="M379.257 80.287V78.1584L383.374 81.0498L379.257 83.865V81.5411C375.281 82.0059 372.196 85.3858 372.196 89.4863C372.196 93.9045 375.777 97.4861 380.196 97.4861C384.614 97.4861 388.195 93.9045 388.195 89.4863C388.195 87.1844 387.224 85.1104 385.667 83.6501L386.52 82.7408C388.318 84.4269 389.442 86.8258 389.442 89.4863C389.442 94.593 385.302 98.7327 380.196 98.7327C375.089 98.7327 370.949 94.593 370.949 89.4863C370.949 84.6966 374.591 80.7576 379.257 80.287Z" fill="#78DE7F"/>
</g>
</g>
<path d="M349.531 133.549C349.531 131.13 348.051 129.378 345.677 129.378C343.303 129.378 341.822 131.13 341.822 133.549C341.822 135.979 343.303 137.72 345.677 137.72C348.051 137.72 349.531 135.979 349.531 133.549ZM348.005 133.549C348.005 135.346 347.214 136.533 345.677 136.533C344.128 136.533 343.348 135.346 343.348 133.549C343.348 131.763 344.128 130.565 345.677 130.565C347.214 130.565 348.005 131.763 348.005 133.549ZM354.919 129.513H353.167V137.584H354.603V131.333H354.625L358.774 137.584H360.164V129.513H358.74V135.233H358.717L354.919 129.513ZM372.001 129.513H368.893V137.584H372.001C374.431 137.584 376.036 135.979 376.036 133.549C376.036 131.13 374.431 129.513 372.001 129.513ZM372.001 130.7C373.606 130.7 374.499 131.751 374.499 133.549C374.499 135.346 373.606 136.397 372.001 136.397H370.362V130.7H372.001ZM385.519 137.584V136.397H381.144V134.136H384.976V132.95H381.144V130.7H385.474V129.513H379.675V137.584H385.519ZM394.157 137.584L396.452 131.243H396.474V137.584H397.91V129.513H395.853L393.682 135.583H393.66L391.49 129.513H389.365V137.584H390.744V131.243H390.766L393.072 137.584H394.157ZM407.856 137.584H409.394L406.149 129.513H404.465L401.221 137.584H402.691L403.459 135.606H407.099L407.856 137.584ZM405.279 130.96H405.313L406.647 134.442H403.923L405.279 130.96ZM414.459 129.513H412.707V137.584H414.142V131.333H414.165L418.313 137.584H419.703V129.513H418.279V135.233H418.256L414.459 129.513ZM426.906 129.513H423.798V137.584H426.906C429.337 137.584 430.942 135.979 430.942 133.549C430.942 131.13 429.337 129.513 426.906 129.513ZM426.906 130.7C428.512 130.7 429.404 131.751 429.404 133.549C429.404 135.346 428.512 136.397 426.906 136.397H425.267V130.7H426.906Z" fill="white"/>
<path d="M282.574 137.584H288.237V136.397H284.077V129.513H282.574V137.584ZM291.987 137.584H293.491V129.513H291.987V137.584ZM299.978 137.584H301.651L304.85 129.513H303.324L300.86 135.979H300.837L298.384 129.513H296.79L299.978 137.584ZM314.009 137.584V136.397H309.635V134.136H313.467V132.95H309.635V130.7H313.964V129.513H308.165V137.584H314.009Z" fill="white"/>
<path d="M9.14605 137.584H14.8091V136.397H10.6494V129.513H9.14605V137.584ZM18.5597 137.584H20.063V129.513H18.5597V137.584ZM26.5503 137.584H28.2232L31.4221 129.513H29.8961L27.432 135.979H27.4094L24.9565 129.513H23.3627L26.5503 137.584ZM40.5816 137.584V136.397H36.2071V134.136H40.039V132.95H36.2071V130.7H40.5364V129.513H34.7377V137.584H40.5816Z" fill="white"/>
<path d="M350.785 190.735L350.785 158.403" stroke="white"/>
<path d="M282.686 385.536L282.686 393.019L62.3828 393.019L62.3828 367.319" stroke="white"/>
<path d="M350.956 385.536L350.956 393.019L561.373 393.019L561.373 367.319" stroke="white"/>
<path d="M423.2 401.284L423.2 408.77L659.76 408.77L659.76 367.319" stroke="white"/>
<path d="M361.148 166.46L350.786 157.574L340.423 166.694" stroke="white" stroke-linecap="round" stroke-linejoin="round"/>
<path d="M288.268 181.202L72.8535 181.202L72.8535 157.574" stroke="white"/>
<path d="M83.2187 166.73L72.8559 157.844L62.493 166.964" stroke="white" stroke-linecap="round" stroke-linejoin="round"/>
<path d="M72.7461 376.373L62.3832 367.487L52.0204 376.607" stroke="white" stroke-linecap="round" stroke-linejoin="round"/>
<path d="M551.01 375.734L561.373 366.848L571.735 375.967" stroke="white" stroke-linecap="round" stroke-linejoin="round"/>
<path d="M649.398 375.375L659.761 366.49L670.124 375.609" stroke="white" stroke-linecap="round" stroke-linejoin="round"/>
<g clip-path="url(#clip1)">
<mask id="mask5" mask-type="alpha" maskUnits="userSpaceOnUse" x="-18" y="0" width="177" height="109">
<path d="M-17.8086 0.229736H158.775V108.004H-17.8086V0.229736Z" fill="#C4C4C4"/>
</mask>
<g mask="url(#mask5)">
<mask id="mask6" mask-type="alpha" maskUnits="userSpaceOnUse" x="0" y="1" width="88" height="191">
<rect x="1.01562" y="1.85474" width="86.3561" height="188.978" rx="11.9362" fill="#C4C4C4" stroke="#464646"/>
</mask>
<g mask="url(#mask6)">
<rect x="1.01562" y="1.8562" width="86.3561" height="188.978" rx="11.9362" stroke="white"/>
</g>
<mask id="mask7" mask-type="alpha" maskUnits="userSpaceOnUse" x="60" y="21" width="89" height="204">
<rect x="60.8994" y="22.1218" width="86.8762" height="201.627" rx="12.1598" fill="white" stroke="#464646" stroke-width="0.55272"/>
</mask>
<g mask="url(#mask7)">
<rect x="61.123" y="26.4436" width="86.3561" height="188.978" rx="11.9362" fill="black" stroke="white"/>
</g>
<path opacity="0.8" fill-rule="evenodd" clip-rule="evenodd" d="M54.0656 62.582C54.0656 59.5639 52.6371 56.881 50.4163 55.1696L51.0943 54.2898C53.5761 56.2023 55.1764 59.2047 55.1764 62.582C55.1764 65.9329 53.5995 68.9181 51.1478 70.8309L50.4646 69.9551C52.6578 68.244 54.0656 65.5766 54.0656 62.582ZM50.288 62.5822C50.288 61.2203 49.8005 59.975 48.9905 59.0079L49.8421 58.2947C50.8133 59.4543 51.3988 60.9499 51.3988 62.5822C51.3988 64.1959 50.8258 65.6769 49.8723 66.8313L49.0159 66.124C49.811 65.1613 50.288 63.9283 50.288 62.5822ZM47.1445 62.5818C47.1445 63.9217 46.0578 65.0076 44.7186 65.0076C43.3779 65.0076 42.292 63.9217 42.292 62.5818C42.292 61.2418 43.3779 60.1551 44.7186 60.1551C46.0578 60.1551 47.1445 61.2418 47.1445 62.5818ZM39.1483 62.5806C39.1483 61.2466 39.6166 60.0232 40.3987 59.064L39.5378 58.3621C38.6 59.5123 38.0376 60.9818 38.0376 62.5806C38.0376 64.1941 38.6105 65.6762 39.564 66.8307L40.4204 66.1233C39.6254 65.1607 39.1483 63.9268 39.1483 62.5806ZM35.3686 62.5807C35.3686 59.5871 36.7754 56.9223 38.9653 55.2101L38.2811 54.3351C35.8337 56.2486 34.2578 59.2307 34.2578 62.5807C34.2578 65.9156 35.8196 68.8856 38.2487 70.8001L38.9363 69.9277C36.7627 68.2146 35.3686 65.5607 35.3686 62.5807Z" fill="#198AFF"/>
<path fill-rule="evenodd" clip-rule="evenodd" d="M103.8 76.9386V74.8101L107.917 77.7014L103.8 80.5167V78.1927C99.8239 78.6575 96.7389 82.0375 96.7389 86.1379C96.7389 90.5561 100.32 94.1377 104.739 94.1377C109.157 94.1377 112.738 90.5561 112.738 86.1379C112.738 83.836 111.767 81.762 110.21 80.3017L111.063 79.3924C112.861 81.0785 113.985 83.4774 113.985 86.1379C113.985 91.2446 109.845 95.3843 104.739 95.3843C99.6319 95.3843 95.4922 91.2446 95.4922 86.1379C95.4922 81.3483 99.134 77.4092 103.8 76.9386Z" fill="#198AFF"/>
</g>
</g>
<mask id="mask8" mask-type="alpha" maskUnits="userSpaceOnUse" x="10" y="199" width="124" height="116">
<path d="M11.1653 200.351H132.724V314.02H11.1653V200.351Z" fill="#C4C4C4" stroke="white" stroke-width="0.705601"/>
</mask>
<g mask="url(#mask8)">
<mask id="mask9" mask-type="alpha" maskUnits="userSpaceOnUse" x="29" y="217" width="88" height="191">
<rect x="29.7539" y="218.257" width="86.3561" height="188.978" rx="11.9362" fill="#C4C4C4" stroke="white"/>
</mask>
<g mask="url(#mask9)">
<rect x="29.5303" y="218.034" width="86.8034" height="189.426" rx="12.1598" stroke="white" stroke-width="0.55272"/>
</g>
</g>
<path d="M644.552 346.386H650.215V345.2H646.056V338.316H644.552V346.386ZM653.966 346.386H655.469V338.316H653.966V346.386ZM661.957 346.386H663.629L666.828 338.316H665.302L662.838 344.781H662.816L660.363 338.316H658.769L661.957 346.386ZM675.988 346.386V345.2H671.613V342.939H675.445V341.752H671.613V339.503H675.943V338.316H670.144V346.386H675.988Z" fill="white"/>
<mask id="mask10" mask-type="alpha" maskUnits="userSpaceOnUse" x="599" y="199" width="123" height="116">
<path d="M599.591 200.239H721.149V313.908H599.591V200.239Z" fill="#C4C4C4" stroke="white" stroke-width="0.705601"/>
</mask>
<g mask="url(#mask10)">
<mask id="mask11" mask-type="alpha" maskUnits="userSpaceOnUse" x="617" y="217" width="89" height="191">
<rect x="618.18" y="218.145" width="86.3561" height="188.978" rx="11.9362" fill="#C4C4C4" stroke="white"/>
</mask>
<g mask="url(#mask11)">
<rect x="618.18" y="218.145" width="86.3561" height="188.978" rx="11.9362" stroke="white"/>
</g>
</g>
<path opacity="0.8" fill-rule="evenodd" clip-rule="evenodd" d="M670.956 279.897C670.956 276.879 669.528 274.196 667.307 272.485L667.985 271.605C670.467 273.517 672.067 276.52 672.067 279.897C672.067 283.248 670.49 286.233 668.038 288.146L667.355 287.27C669.548 285.559 670.956 282.892 670.956 279.897ZM667.179 279.897C667.179 278.535 666.691 277.29 665.881 276.323L666.733 275.61C667.704 276.769 668.289 278.265 668.289 279.897C668.289 281.511 667.716 282.992 666.763 284.146L665.907 283.439C666.702 282.476 667.179 281.243 667.179 279.897ZM664.034 279.897C664.034 281.237 662.948 282.323 661.608 282.323C660.268 282.323 659.182 281.237 659.182 279.897C659.182 278.557 660.268 277.47 661.608 277.47C662.948 277.47 664.034 278.557 664.034 279.897ZM656.038 279.896C656.038 278.562 656.506 277.338 657.288 276.379L656.427 275.677C655.49 276.827 654.927 278.297 654.927 279.896C654.927 281.509 655.5 282.991 656.454 284.146L657.31 283.439C656.515 282.476 656.038 281.242 656.038 279.896ZM652.259 279.898C652.259 276.904 653.666 274.24 655.856 272.527L655.172 271.652C652.724 273.566 651.148 276.548 651.148 279.898C651.148 283.233 652.71 286.203 655.139 288.117L655.827 287.245C653.653 285.532 652.259 282.878 652.259 279.898Z" fill="#9F9F9F"/>
<path d="M635.555 133.549C635.555 131.13 634.074 129.378 631.7 129.378C629.327 129.378 627.846 131.13 627.846 133.549C627.846 135.979 629.327 137.72 631.7 137.72C634.074 137.72 635.555 135.979 635.555 133.549ZM634.029 133.549C634.029 135.346 633.238 136.533 631.7 136.533C630.152 136.533 629.372 135.346 629.372 133.549C629.372 131.763 630.152 130.565 631.7 130.565C633.238 130.565 634.029 131.763 634.029 133.549ZM640.943 129.513H639.19V137.584H640.626V131.333H640.649L644.797 137.584H646.187V129.513H644.763V135.233H644.74L640.943 129.513ZM658.024 129.513H654.916V137.584H658.024C660.455 137.584 662.06 135.979 662.06 133.549C662.06 131.13 660.455 129.513 658.024 129.513ZM658.024 130.7C659.629 130.7 660.522 131.751 660.522 133.549C660.522 135.346 659.629 136.397 658.024 136.397H656.385V130.7H658.024ZM671.542 137.584V136.397H667.168V134.136H671V132.95H667.168V130.7H671.497V129.513H665.698V137.584H671.542ZM680.181 137.584L682.475 131.243H682.498V137.584H683.933V129.513H681.876L679.706 135.583H679.683L677.513 129.513H675.388V137.584H676.767V131.243H676.79L679.095 137.584H680.181ZM693.88 137.584H695.417L692.173 129.513H690.489L687.245 137.584H688.714L689.483 135.606H693.122L693.88 137.584ZM691.303 130.96H691.336L692.67 134.442H689.946L691.303 130.96ZM700.482 129.513H698.73V137.584H700.165V131.333H700.188L704.336 137.584H705.727V129.513H704.303V135.233H704.28L700.482 129.513ZM712.93 129.513H709.821V137.584H712.93C715.36 137.584 716.965 135.979 716.965 133.549C716.965 131.13 715.36 129.513 712.93 129.513ZM712.93 130.7C714.535 130.7 715.428 131.751 715.428 133.549C715.428 135.346 714.535 136.397 712.93 136.397H711.291V130.7H712.93Z" fill="white"/>
<path d="M566.939 137.584H572.602V136.397H568.442V129.513H566.939V137.584ZM576.353 137.584H577.856V129.513H576.353V137.584ZM584.343 137.584H586.016L589.215 129.513H587.689L585.225 135.979H585.202L582.749 129.513H581.156L584.343 137.584ZM598.375 137.584V136.397H594V134.136H597.832V132.95H594V130.7H598.329V129.513H592.531V137.584H598.375Z" fill="white"/>
<g clip-path="url(#clip2)">
<mask id="mask12" mask-type="alpha" maskUnits="userSpaceOnUse" x="556" y="1" width="88" height="191">
<rect x="556.501" y="1.6311" width="86.8034" height="189.426" rx="12.1598" fill="#C4C4C4" stroke="#464646" stroke-width="0.55272"/>
</mask>
<g mask="url(#mask12)">
<rect x="556.725" y="1.85474" width="86.3561" height="188.978" rx="11.9362" stroke="white"/>
</g>
<mask id="mask13" mask-type="alpha" maskUnits="userSpaceOnUse" x="616" y="21" width="88" height="204">
<rect x="616.608" y="22.1218" width="86.8762" height="201.627" rx="12.1598" fill="white" stroke="#464646" stroke-width="0.55272"/>
</mask>
<g mask="url(#mask13)">
<rect x="616.832" y="26.4436" width="86.3561" height="188.978" rx="11.9362" fill="black" stroke="white"/>
</g>
</g>
<path opacity="0.8" fill-rule="evenodd" clip-rule="evenodd" d="M609.973 60.7507C609.973 57.7326 608.536 55.0497 606.303 53.3383L606.985 52.4585C609.481 54.371 611.09 57.3734 611.09 60.7507C611.09 64.1016 609.504 67.0868 607.039 68.9996L606.352 68.1238C608.557 66.4127 609.973 63.7453 609.973 60.7507ZM606.173 60.7507C606.173 59.3887 605.683 58.1435 604.868 57.1764L605.725 56.4632C606.701 57.6228 607.29 59.1184 607.29 60.7507C607.29 62.3643 606.714 63.8454 605.755 64.9998L604.894 64.2925C605.693 63.3298 606.173 62.0968 606.173 60.7507ZM603.012 60.7502C603.012 62.0902 601.919 63.1761 600.572 63.1761C599.224 63.1761 598.132 62.0902 598.132 60.7502C598.132 59.4102 599.224 58.3236 600.572 58.3236C601.919 58.3236 603.012 59.4102 603.012 60.7502ZM594.972 60.7493C594.972 59.4153 595.443 58.1919 596.229 57.2327L595.363 56.5308C594.42 57.681 593.855 59.1505 593.855 60.7493C593.855 62.3628 594.431 63.8449 595.39 64.9994L596.251 64.292C595.451 63.3294 594.972 62.0955 594.972 60.7493ZM591.172 60.7504C591.172 57.7568 592.586 55.092 594.788 53.3798L594.1 52.5047C591.639 54.4183 590.055 57.4004 590.055 60.7504C590.055 64.0852 591.625 67.0552 594.068 68.9697L594.759 68.0974C592.574 66.3842 591.172 63.7304 591.172 60.7504Z" fill="#FF6400"/>
<path fill-rule="evenodd" clip-rule="evenodd" d="M661.167 80.6929V78.1262L665.284 81.0175L661.167 83.8328V81.947C657.191 82.4118 654.106 85.7917 654.106 89.8922C654.106 94.3103 657.688 97.8919 662.106 97.8919C666.524 97.8919 670.106 94.3103 670.106 89.8922C670.106 87.5903 669.134 85.5163 667.577 84.056L668.43 83.1467C670.228 84.8328 671.352 87.2317 671.352 89.8922C671.352 94.9988 667.212 99.1386 662.106 99.1386C656.999 99.1386 652.859 94.9988 652.859 89.8922C652.859 85.1025 656.501 81.1634 661.167 80.6929Z" fill="#FF6400"/>
<path opacity="0.8" d="M73.3769 270.304C73.458 270.066 73.6811 269.907 73.9319 269.907C74.1827 269.907 74.4058 270.066 74.4869 270.304L76.4062 275.923H82.6367C82.8933 275.923 83.1201 276.09 83.1966 276.335C83.273 276.58 83.1813 276.846 82.9702 276.992L77.9552 280.458L79.8667 286.055C79.9486 286.295 79.8674 286.56 79.6655 286.712C79.4636 286.865 79.1866 286.871 78.9783 286.727L73.9319 283.239L68.8855 286.727C68.6773 286.871 68.4002 286.865 68.1983 286.712C67.9964 286.56 67.9153 286.295 67.9971 286.055L69.9086 280.458L64.8937 276.992C64.6826 276.846 64.5908 276.58 64.6673 276.335C64.7437 276.09 64.9705 275.923 65.2271 275.923H71.4576L73.3769 270.304Z" stroke="#78DE7F" stroke-width="1.17289" stroke-linejoin="round"/>
<path opacity="0.8" d="M51.8223 270.304C51.9033 270.066 52.1264 269.907 52.3772 269.907C52.6281 269.907 52.8511 270.066 52.9322 270.304L54.8515 275.923H61.082C61.3386 275.923 61.5655 276.09 61.6419 276.335C61.7183 276.58 61.6266 276.846 61.4155 276.992L56.4005 280.458L58.3121 286.055C58.3939 286.295 58.3127 286.56 58.1109 286.712C57.909 286.865 57.6319 286.871 57.4236 286.727L52.3772 283.239L47.3308 286.727C47.1226 286.871 46.8455 286.865 46.6436 286.712C46.4417 286.56 46.3606 286.295 46.4424 286.055L48.3539 280.458L43.339 276.992C43.1279 276.846 43.0362 276.58 43.1126 276.335C43.189 276.09 43.4158 275.923 43.6724 275.923H49.9029L51.8223 270.304Z" stroke="#198AFF" stroke-width="1.17289" stroke-linejoin="round"/>
<path opacity="0.8" d="M95.3434 270.312C95.422 270.07 95.6471 269.907 95.9011 269.907C96.1551 269.907 96.3802 270.07 96.4588 270.312L98.2841 275.923H104.191C104.446 275.923 104.671 276.087 104.749 276.329C104.828 276.57 104.742 276.835 104.536 276.984L99.7573 280.452L101.582 286.063C101.661 286.305 101.575 286.57 101.37 286.719C101.164 286.868 100.886 286.869 100.68 286.719L95.9011 283.251L91.1219 286.719C90.9163 286.869 90.638 286.868 90.4325 286.719C90.2271 286.57 90.1412 286.305 90.2198 286.063L92.0449 280.452L87.2664 276.984C87.0607 276.835 86.9746 276.57 87.053 276.329C87.1315 276.087 87.3567 275.923 87.6108 275.923H93.5181L95.3434 270.312Z" stroke="#FF6400" stroke-width="1.17289" stroke-linejoin="round"/>
<path d="M529.176 343.293C529.176 340.874 527.695 339.122 525.321 339.122C522.948 339.122 521.467 340.874 521.467 343.293C521.467 345.723 522.948 347.464 525.321 347.464C527.695 347.464 529.176 345.723 529.176 343.293ZM527.65 343.293C527.65 345.09 526.859 346.277 525.321 346.277C523.773 346.277 522.993 345.09 522.993 343.293C522.993 341.507 523.773 340.309 525.321 340.309C526.859 340.309 527.65 341.507 527.65 343.293ZM534.564 339.258H532.812V347.328H534.247V341.078H534.27L538.418 347.328H539.808V339.258H538.384V344.977H538.362L534.564 339.258ZM547.012 339.258H543.903V347.328H547.012C549.442 347.328 551.047 345.723 551.047 343.293C551.047 340.874 549.442 339.258 547.012 339.258ZM547.012 340.445C548.617 340.445 549.51 341.496 549.51 343.293C549.51 345.09 548.617 346.142 547.012 346.142H545.373V340.445H547.012ZM560.529 347.328V346.142H556.155V343.881H559.987V342.694H556.155V340.445H560.484V339.258H554.685V347.328H560.529ZM569.168 347.328L571.462 340.987H571.485V347.328H572.92V339.258H570.863L568.693 345.328H568.67L566.5 339.258H564.375V347.328H565.754V340.987H565.777L568.083 347.328H569.168ZM582.867 347.328H584.404L581.16 339.258H579.476L576.232 347.328H577.701L578.47 345.35H582.11L582.867 347.328ZM580.29 340.705H580.324L581.657 344.186H578.933L580.29 340.705ZM589.469 339.258H587.717V347.328H589.153V341.078H589.175L593.324 347.328H594.714V339.258H593.29V344.977H593.267L589.469 339.258ZM601.917 339.258H598.809V347.328H601.917C604.347 347.328 605.952 345.723 605.952 343.293C605.952 340.874 604.347 339.258 601.917 339.258ZM601.917 340.445C603.522 340.445 604.415 341.496 604.415 343.293C604.415 345.09 603.522 346.142 601.917 346.142H600.278V340.445H601.917Z" fill="white"/>
<mask id="mask14" mask-type="alpha" maskUnits="userSpaceOnUse" x="497" y="200" width="123" height="116">
<path d="M497.439 201.18H618.997V314.85H497.439V201.18Z" fill="#C4C4C4" stroke="white" stroke-width="0.705601"/>
</mask>
<g mask="url(#mask14)">
<mask id="mask15" mask-type="alpha" maskUnits="userSpaceOnUse" x="515" y="218" width="88" height="191">
<rect x="515.804" y="218.863" width="86.8034" height="189.426" rx="12.1598" fill="#C4C4C4" stroke="white" stroke-width="0.55272"/>
</mask>
<g mask="url(#mask15)">
<rect x="516.027" y="219.087" width="86.3561" height="188.978" rx="11.9362" stroke="white"/>
</g>
</g>
<path fill-rule="evenodd" clip-rule="evenodd" d="M557.303 269.211V267.082L561.421 269.974L557.303 272.789V270.465C553.328 270.93 550.243 274.31 550.243 278.41C550.243 282.828 553.824 286.41 558.243 286.41C562.661 286.41 566.242 282.828 566.242 278.41C566.242 276.108 565.271 274.034 563.714 272.574L564.567 271.665C566.364 273.351 567.489 275.75 567.489 278.41C567.489 283.517 563.349 287.657 558.243 287.657C553.136 287.657 548.996 283.517 548.996 278.41C548.996 273.62 552.638 269.681 557.303 269.211Z" fill="#B3B3B3"/>
<path d="M412.313 181.202L625.873 181.202L625.873 157.574" stroke="white"/>
<path d="M615.508 166.73L625.871 157.844L636.234 166.964" stroke="white" stroke-linecap="round" stroke-linejoin="round"/>
<defs>
<clipPath id="clip0">
<rect width="148" height="108" fill="white" transform="translate(277)"/>
</clipPath>
<clipPath id="clip1">
<rect width="147.567" height="107.774" fill="white" transform="translate(0.429688 0.22998)"/>
</clipPath>
<clipPath id="clip2">
<rect width="158.345" height="107.774" fill="white" transform="translate(556.074 0.22998)"/>
</clipPath>
</defs>
</svg>
