<svg width="927" height="502" fill="none" xmlns="http://www.w3.org/2000/svg"><g clip-path="url(#clip0)"><mask id="a" maskUnits="userSpaceOnUse" x="278" y="248" width="317" height="131"><path fill="#C4C4C4" d="M278 248h317v131H278z"/></mask><g mask="url(#a)"><mask id="b" maskUnits="userSpaceOnUse" x="309" y="262" width="270" height="586"><rect x="309.853" y="263.398" width="267.331" height="583.381" rx="37.449" fill="#C4C4C4" stroke="#464646" stroke-width="1.702"/></mask><g mask="url(#b)"><rect x="309.502" y="263.047" width="268.034" height="584.083" rx="37.8" stroke="#fff"/><path d="M325.326 317.49l71.028-.206" stroke="#198AFF" stroke-width="10.213"/><path d="M406.992 317.263l71.028-.197" stroke="#78DE7F" stroke-width="10.213"/><path d="M490.029 317.034l71.028-.197" stroke="#FF6400" stroke-width="10.213"/></g></g><path fill-rule="evenodd" clip-rule="evenodd" d="M549.281 420.785a9.054 9.054 0 00-3.511-7.174l.652-.851a10.129 10.129 0 013.928 8.025c0 3.243-1.517 6.132-3.877 7.983l-.657-.847a9.05 9.05 0 003.465-7.136zm-3.635 0a5.382 5.382 0 00-1.249-3.459l.82-.69a6.463 6.463 0 011.497 4.149 6.46 6.46 0 01-1.468 4.112l-.824-.684a5.382 5.382 0 001.224-3.428zm-3.026 0a2.34 2.34 0 01-2.334 2.348 2.341 2.341 0 01-2.335-2.348 2.341 2.341 0 012.335-2.348 2.34 2.34 0 012.334 2.348zm-7.694 0a5.38 5.38 0 011.203-3.403l-.828-.68a6.462 6.462 0 00-1.444 4.083c0 1.562.551 2.996 1.469 4.113l.824-.684a5.385 5.385 0 01-1.224-3.429zm-3.636.001a9.052 9.052 0 013.46-7.134l-.658-.847a10.13 10.13 0 00-3.871 7.981c0 3.227 1.503 6.101 3.84 7.954l.662-.844a9.048 9.048 0 01-3.433-7.11z" fill="#fff"/><path d="M534.467 441.384h3.047v-.522h-2.407v-4.74h-.64v5.262zm3.909 0h.611v-3.849h-.611v3.849zm.295-4.651a.408.408 0 00.405-.405.408.408 0 00-.405-.405.408.408 0 00-.405.405c0 .221.184.405.405.405zm2.531 4.651h.78l1.383-3.849h-.632l-1.127 3.231-1.14-3.231h-.663l1.399 3.849zm4.434.067c.869 0 1.509-.405 1.641-1.178h-.61c-.081.449-.427.67-1.023.67-.788 0-1.207-.486-1.237-1.362h2.9v-.199c0-1.376-.839-1.913-1.73-1.913-1.059 0-1.803.809-1.803 1.972v.059c0 1.185.773 1.951 1.862 1.951zm-1.207-2.363c.103-.684.523-1.111 1.148-1.111.633 0 1.045.316 1.104 1.111h-2.252zm-210.962 2.295h.64v-2.341h2.768v2.341h.64v-5.263h-.64v2.385h-2.768v-2.385h-.64v5.263zm5.347 0h.611v-3.849h-.611v3.849zm.294-4.652a.408.408 0 00.405-.404.408.408 0 00-.405-.405.408.408 0 00-.405.405c0 .22.184.404.405.404zm3.105 6.058c1.075 0 1.833-.545 1.84-1.664v-3.591h-.611v.618c-.22-.376-.618-.685-1.258-.685-1.06 0-1.796.869-1.796 1.914v.051c0 1.06.743 1.826 1.752 1.826.559 0 1.082-.354 1.302-.729v.559c0 .825-.478 1.185-1.236 1.185-.655 0-1.023-.228-1.111-.669h-.626c.103.647.603 1.185 1.744 1.185zm-.007-2.039c-.648 0-1.185-.501-1.185-1.34v-.059c0-.809.456-1.376 1.222-1.376.75 0 1.221.501 1.221 1.362v.051c0 .861-.544 1.362-1.258 1.362zm3.083.633h.611v-2.333c0-.692.508-1.053 1.075-1.053.618 0 .905.302.905.979v2.407h.611v-2.363c0-1.118-.559-1.553-1.354-1.553-.633 0-1.06.317-1.237.677v-2.45h-.611v5.689zm4.414 0h.618v-5.689h-.618v5.689zm1.883 0h.611v-3.849h-.611v3.849zm.294-4.652a.408.408 0 00.405-.404.408.408 0 00-.405-.405.408.408 0 00-.405.405c0 .22.184.404.405.404zm3.105 6.058c1.075 0 1.833-.545 1.84-1.664v-3.591h-.611v.618c-.22-.376-.618-.685-1.258-.685-1.06 0-1.796.869-1.796 1.914v.051c0 1.06.743 1.826 1.752 1.826.559 0 1.082-.354 1.302-.729v.559c0 .825-.478 1.185-1.236 1.185-.655 0-1.023-.228-1.111-.669h-.626c.103.647.603 1.185 1.744 1.185zm-.007-2.039c-.648 0-1.185-.501-1.185-1.34v-.059c0-.809.456-1.376 1.222-1.376.75 0 1.221.501 1.221 1.362v.051c0 .861-.544 1.362-1.258 1.362zm3.083.633h.611v-2.333c0-.692.508-1.053 1.075-1.053.618 0 .905.302.905.979v2.407h.611v-2.363c0-1.118-.559-1.553-1.354-1.553-.633 0-1.06.317-1.237.677v-2.45h-.611v5.689zm5.569.051c.25 0 .398-.036.523-.081v-.515a1.25 1.25 0 01-.471.081c-.309 0-.479-.184-.479-.559v-2.311h.898v-.515h-.898v-.876h-.611v.876h-.552v.515h.552v2.37c0 .603.339 1.015 1.038 1.015zm2.639.015c.934 0 1.413-.471 1.413-1.17 0-.817-.56-.994-1.355-1.141-.706-.125-.898-.265-.898-.611 0-.331.288-.552.729-.552.486 0 .721.184.81.604h.589c-.104-.832-.7-1.112-1.392-1.112-.603 0-1.302.368-1.302 1.082 0 .67.338.95 1.339 1.134.596.11.898.243.898.647 0 .413-.257.611-.839.611-.618 0-.861-.287-.905-.743h-.596c.037.787.589 1.251 1.509 1.251z" fill="#fff"/><path d="M349.35 412.944a.552.552 0 011.047 0l1.772 5.305h5.743a.552.552 0 01.319 1.003l-4.634 3.275 1.768 5.293a.552.552 0 01-.842.626l-4.649-3.287-4.65 3.287a.55.55 0 01-.842-.626l1.768-5.293-4.634-3.275a.552.552 0 01.319-1.003h5.743l1.772-5.305z" stroke="#fff" stroke-width="1.104" stroke-linejoin="round"/><path d="M425.041 440.921c-1.096 0-1.943-.868-1.943-2.142v-.059c0-1.251.707-2.149 1.929-2.149 1.214 0 1.906.957 1.906 2.135v.059c0 1.273-.721 2.156-1.892 2.156zm0 .53c1.531 0 2.554-1.192 2.554-2.679v-.059c0-1.479-1.023-2.657-2.568-2.657-1.546 0-2.591 1.178-2.591 2.672v.059c0 1.472 1.053 2.664 2.605 2.664zm3.574-.066h.611v-2.333c0-.692.508-1.053 1.074-1.053.619 0 .906.302.906.979v2.407h.611v-2.363c0-1.118-.56-1.553-1.355-1.553-.633 0-1.059.317-1.236.677v-.61h-.611v3.849zm5.083-.523v-4.224h.714c1.45 0 2.039.853 2.039 2.068v.059c0 1.288-.677 2.097-2.032 2.097h-.721zm-.64.523h1.376c1.84 0 2.679-1.156 2.679-2.613v-.066c0-1.465-.854-2.584-2.664-2.584h-1.391v5.263zm6.655.066c.869 0 1.509-.405 1.642-1.178h-.611c-.081.449-.427.67-1.023.67-.788 0-1.207-.486-1.237-1.361h2.9v-.199c0-1.376-.839-1.914-1.73-1.914-1.059 0-1.803.81-1.803 1.973v.059c0 1.185.773 1.95 1.862 1.95zm-1.207-2.363c.103-.684.523-1.111 1.148-1.111.633 0 1.046.317 1.104 1.111h-2.252zm3.815 2.297h.611v-2.355c0-.692.515-1.031 1.016-1.031.53 0 .817.28.817.957v2.429h.611v-2.355c0-.692.515-1.031 1.015-1.031.53 0 .817.28.817.957v2.429h.611V439c0-1.119-.603-1.531-1.295-1.531-.478 0-1.053.221-1.318.722-.198-.516-.632-.722-1.126-.722-.552 0-.971.295-1.148.655v-.588h-.611v3.849zm7.663.066c.567 0 .913-.191 1.2-.552v.486h.611v-2.539c0-1.075-.67-1.377-1.406-1.377-.743 0-1.443.324-1.524 1.2h.611c.059-.471.354-.692.884-.692.588 0 .824.258.824.869v.279h-.552c-.986 0-1.928.302-1.928 1.193 0 .787.566 1.133 1.28 1.133zm.059-.486c-.537 0-.729-.25-.729-.647 0-.567.567-.758 1.34-.758h.53v.478c0 .596-.493.927-1.141.927zm2.952.42h.611v-2.333c0-.692.507-1.053 1.074-1.053.618 0 .905.302.905.979v2.407h.611v-2.363c0-1.118-.559-1.553-1.354-1.553-.633 0-1.06.317-1.236.677v-.61h-.611v3.849zm5.848.066c.56 0 1.097-.353 1.318-.729v.663h.611v-5.689h-.611v2.458c-.221-.376-.619-.685-1.259-.685-1.06 0-1.796.832-1.796 2.01v.058c0 1.2.729 1.914 1.737 1.914zm.067-.508c-.648 0-1.171-.464-1.171-1.435v-.059c0-.935.457-1.472 1.222-1.472.751 0 1.222.464 1.222 1.45v.059c0 .986-.56 1.457-1.273 1.457z" fill="#fff"/><path fill-rule="evenodd" clip-rule="evenodd" d="M441.479 412.806v-1.808l3.476 2.455-3.476 2.391v-1.974c-3.357.395-5.962 3.265-5.962 6.747 0 3.751 3.024 6.792 6.754 6.792 3.73 0 6.754-3.041 6.754-6.792a6.79 6.79 0 00-2.135-4.956l.72-.772a7.852 7.852 0 012.467 5.728c0 4.336-3.495 7.851-7.806 7.851s-7.806-3.515-7.806-7.851c0-4.067 3.075-7.412 7.014-7.811z" fill="#fff"/><path stroke="#fff" d="M309.5 403.5h268v44h-268z"/><path d="M790.688 159.716c0-2.568-1.572-4.428-4.092-4.428-2.52 0-4.092 1.86-4.092 4.428 0 2.58 1.572 4.428 4.092 4.428 2.52 0 4.092-1.848 4.092-4.428zm-1.62 0c0 1.908-.84 3.168-2.472 3.168-1.644 0-2.472-1.26-2.472-3.168 0-1.896.828-3.168 2.472-3.168 1.632 0 2.472 1.272 2.472 3.168zm7.34-4.284h-1.86V164h1.524v-6.636h.024L800.5 164h1.476v-8.568h-1.512v6.072h-.024l-4.032-6.072zm18.134 0h-3.3V164h3.3c2.58 0 4.284-1.704 4.284-4.284 0-2.568-1.704-4.284-4.284-4.284zm0 1.26c1.704 0 2.652 1.116 2.652 3.024s-.948 3.024-2.652 3.024h-1.74v-6.048h1.74zM828.893 164v-1.26h-4.644v-2.4h4.068v-1.26h-4.068v-2.388h4.596v-1.26h-6.156V164h6.204zm9.171 0l2.436-6.732h.024V164h1.524v-8.568h-2.184l-2.304 6.444h-.024l-2.304-6.444h-2.256V164h1.464v-6.732h.024l2.448 6.732h1.152zm14.543 0h1.632l-3.444-8.568h-1.788L845.563 164h1.56l.816-2.1h3.864l.804 2.1zm-2.736-7.032h.036l1.416 3.696h-2.892l1.44-3.696zm9.745-1.536h-1.86V164h1.524v-6.636h.024l4.404 6.636h1.476v-8.568h-1.512v6.072h-.024l-4.032-6.072zm13.215 0h-3.3V164h3.3c2.58 0 4.284-1.704 4.284-4.284 0-2.568-1.704-4.284-4.284-4.284zm0 1.26c1.704 0 2.652 1.116 2.652 3.024s-.948 3.024-2.652 3.024h-1.74v-6.048h1.74zm-786.143 3.024c0-2.568-1.572-4.428-4.092-4.428-2.52 0-4.092 1.86-4.092 4.428 0 2.58 1.572 4.428 4.092 4.428 2.52 0 4.092-1.848 4.092-4.428zm-1.62 0c0 1.908-.84 3.168-2.472 3.168-1.644 0-2.472-1.26-2.472-3.168 0-1.896.828-3.168 2.472-3.168 1.632 0 2.472 1.272 2.472 3.168zm7.34-4.284h-1.86V164h1.524v-6.636h.024L96.5 164h1.476v-8.568h-1.512v6.072h-.024l-4.032-6.072zm18.134 0h-3.3V164h3.3c2.58 0 4.284-1.704 4.284-4.284 0-2.568-1.704-4.284-4.284-4.284zm0 1.26c1.704 0 2.652 1.116 2.652 3.024s-.948 3.024-2.652 3.024h-1.74v-6.048h1.74zM124.893 164v-1.26h-4.644v-2.4h4.068v-1.26h-4.068v-2.388h4.596v-1.26h-6.156V164h6.204zm9.171 0l2.436-6.732h.024V164h1.524v-8.568h-2.184l-2.304 6.444h-.024l-2.304-6.444h-2.256V164h1.464v-6.732h.024l2.448 6.732h1.152zm14.543 0h1.632l-3.444-8.568h-1.788L141.563 164h1.56l.816-2.1h3.864l.804 2.1zm-2.736-7.032h.036l1.416 3.696h-2.892l1.44-3.696zm9.745-1.536h-1.86V164h1.524v-6.636h.024l4.404 6.636h1.476v-8.568h-1.512v6.072h-.024l-4.032-6.072zm13.215 0h-3.3V164h3.3c2.58 0 4.284-1.704 4.284-4.284 0-2.568-1.704-4.284-4.284-4.284zm0 1.26c1.704 0 2.652 1.116 2.652 3.024s-.948 3.024-2.652 3.024h-1.74v-6.048h1.74zM2.972 417h1.596v-3.72H8.96V417h1.584v-8.568H8.96v3.6H4.568v-3.6H2.972V417zm11.916 0h1.596v-8.568h-1.596V417zm5.47-4.296c0 2.652 1.62 4.44 4.02 4.44 1.057 0 2.149-.552 2.46-1.368l.109 1.224h1.236v-4.368h-3.24v1.152h1.656v.3c0 1.056-.864 1.8-2.124 1.8-1.596 0-2.496-1.224-2.496-3.18 0-1.944.924-3.156 2.52-3.156 1.152 0 1.8.6 2.004 1.56h1.572c-.336-1.692-1.512-2.82-3.576-2.82-2.448 0-4.14 1.776-4.14 4.416zM32.38 417h1.596v-3.72h4.392V417h1.584v-8.568h-1.584v3.6h-4.392v-3.6H32.38V417zm11.916 0h6.012v-1.26H45.89v-7.308h-1.596V417zm9.993 0h1.596v-8.568h-1.596V417zm5.472-4.296c0 2.652 1.62 4.44 4.02 4.44 1.055 0 2.147-.552 2.46-1.368l.108 1.224h1.236v-4.368h-3.24v1.152H66v.3c0 1.056-.865 1.8-2.124 1.8-1.596 0-2.496-1.224-2.496-3.18 0-1.944.923-3.156 2.52-3.156 1.152 0 1.8.6 2.003 1.56h1.572c-.335-1.692-1.511-2.82-3.575-2.82-2.448 0-4.14 1.776-4.14 4.416zM71.78 417h1.596v-3.72h4.392V417h1.584v-8.568h-1.584v3.6h-4.392v-3.6H71.78V417zm14.471 0h1.584v-7.308h3.084v-1.26h-7.74v1.26h3.072V417zm7.671-2.592c.156 1.884 1.728 2.736 3.768 2.736 1.896 0 3.324-1.032 3.324-2.592 0-1.38-.84-2.076-2.244-2.34l-1.656-.324c-.924-.18-1.368-.408-1.368-1.116 0-.756.648-1.296 1.68-1.296 1.068 0 1.812.468 1.92 1.308h1.5c-.168-1.608-1.392-2.496-3.432-2.496-1.872 0-3.216 1.056-3.216 2.58 0 1.5 1.02 2.1 2.28 2.328l1.572.288c1.032.192 1.404.54 1.404 1.164 0 .864-.792 1.32-1.812 1.32-1.068 0-2.076-.396-2.184-1.56h-1.536z" fill="#fff"/><g clip-path="url(#clip1)"><mask id="c" maskUnits="userSpaceOnUse" x="328" y="0" width="213" height="130"><path d="M328 0h213v130H328V0z" fill="#C4C4C4"/></mask><g mask="url(#c)"><mask id="d" maskUnits="userSpaceOnUse" x="350" y="1" width="106" height="230"><rect x="350.476" y="1.69" width="104.705" height="228.491" rx="14.668" fill="#C4C4C4" stroke="#464646" stroke-width=".667"/></mask><g mask="url(#d)"><rect x="350.643" y="1.857" width="104.372" height="228.158" rx="14.501" stroke="#fff"/></g><rect x="423.5" y="34.5" width="104.372" height="228.158" rx="14.501" fill="#222" stroke="#fff"/><path opacity=".8" fill-rule="evenodd" clip-rule="evenodd" d="M412.737 73.211c0-3.64-1.723-6.876-4.402-8.94l.818-1.062a12.598 12.598 0 014.924 10.002c0 4.042-1.902 7.643-4.859 9.95l-.825-1.056a11.252 11.252 0 004.344-8.894zm-4.557 0a6.689 6.689 0 00-1.565-4.311l1.027-.86a8.03 8.03 0 011.878 5.171 8.018 8.018 0 01-1.842 5.126l-1.033-.853a6.684 6.684 0 001.535-4.273zm-3.793 0a2.927 2.927 0 11-5.853 0 2.927 2.927 0 015.853 0zm-9.645-.001a6.69 6.69 0 011.508-4.242l-1.039-.847a8.028 8.028 0 00-1.809 5.089c0 1.946.691 3.733 1.841 5.126l1.033-.853a6.685 6.685 0 01-1.534-4.273zm-4.558 0a11.26 11.26 0 014.338-8.89l-.825-1.056a12.599 12.599 0 00-4.853 9.946c0 4.022 1.884 7.605 4.814 9.914l.829-1.052a11.255 11.255 0 01-4.303-8.862z" fill="#78DE7F"/><path fill-rule="evenodd" clip-rule="evenodd" d="M473.728 96.568V94l4.966 3.488-4.966 3.395V98.08c-4.796.561-8.517 4.638-8.517 9.584 0 5.329 4.32 9.65 9.649 9.65 5.33 0 9.65-4.321 9.65-9.65a9.624 9.624 0 00-3.05-7.04l1.029-1.096a11.126 11.126 0 013.525 8.136c0 6.16-4.994 11.153-11.154 11.153-6.159 0-11.153-4.993-11.153-11.153 0-5.777 4.393-10.529 10.021-11.096z" fill="#78DE7F"/></g></g><path d="M436.688 159.716c0-2.568-1.572-4.428-4.092-4.428-2.52 0-4.092 1.86-4.092 4.428 0 2.58 1.572 4.428 4.092 4.428 2.52 0 4.092-1.848 4.092-4.428zm-1.62 0c0 1.908-.84 3.168-2.472 3.168-1.644 0-2.472-1.26-2.472-3.168 0-1.896.828-3.168 2.472-3.168 1.632 0 2.472 1.272 2.472 3.168zm7.34-4.284h-1.86V164h1.524v-6.636h.024L446.5 164h1.476v-8.568h-1.512v6.072h-.024l-4.032-6.072zm18.134 0h-3.3V164h3.3c2.58 0 4.284-1.704 4.284-4.284 0-2.568-1.704-4.284-4.284-4.284zm0 1.26c1.704 0 2.652 1.116 2.652 3.024s-.948 3.024-2.652 3.024h-1.74v-6.048h1.74zM474.893 164v-1.26h-4.644v-2.4h4.068v-1.26h-4.068v-2.388h4.596v-1.26h-6.156V164h6.204zm9.171 0l2.436-6.732h.024V164h1.524v-8.568h-2.184l-2.304 6.444h-.024l-2.304-6.444h-2.256V164h1.464v-6.732h.024l2.448 6.732h1.152zm14.543 0h1.632l-3.444-8.568h-1.788L491.563 164h1.56l.816-2.1h3.864l.804 2.1zm-2.736-7.032h.036l1.416 3.696h-2.892l1.44-3.696zm9.745-1.536h-1.86V164h1.524v-6.636h.024l4.404 6.636h1.476v-8.568h-1.512v6.072h-.024l-4.032-6.072zm13.215 0h-3.3V164h3.3c2.58 0 4.284-1.704 4.284-4.284 0-2.568-1.704-4.284-4.284-4.284zm0 1.26c1.704 0 2.652 1.116 2.652 3.024s-.948 3.024-2.652 3.024h-1.74v-6.048h1.74zM356.972 164h6.012v-1.26h-4.416v-7.308h-1.596V164zm9.994 0h1.596v-8.568h-1.596V164zm8.483 0h1.776l3.396-8.568h-1.62l-2.616 6.864h-.024l-2.604-6.864h-1.692l3.384 8.568zm14.896 0v-1.26h-4.644v-2.4h4.068v-1.26h-4.068v-2.388h4.596v-1.26h-6.156V164h6.204zm318.627 0h6.012v-1.26h-4.416v-7.308h-1.596V164zm9.994 0h1.596v-8.568h-1.596V164zm8.483 0h1.776l3.396-8.568h-1.62l-2.616 6.864h-.024l-2.604-6.864h-1.692l3.384 8.568zm14.896 0v-1.26h-4.644v-2.4h4.068v-1.26h-4.068v-2.388h4.596v-1.26h-6.156V164h6.204zM6.972 164h6.012v-1.26H8.568v-7.308H6.972V164zm9.994 0h1.596v-8.568h-1.596V164zm8.483 0h1.776l3.396-8.568H29l-2.616 6.864h-.024l-2.604-6.864h-1.692L25.449 164zm14.896 0v-1.26H35.7v-2.4h4.068v-1.26H35.7v-2.388h4.596v-1.26H34.14V164h6.204z" fill="#fff"/><path d="M443 231v-39m-80 27.5H91V191m259 274.974V475H54v-31m388 21.974V475h304v-31" stroke="#fff"/><path d="M540 484.97V494h333v-50M526 219h272v-28.001" stroke="#fff"/><path d="M455.5 202.186L443 191.468l-12.5 11m-327-.831L91 190.919l-12.5 11m-12 252.047L54 443.248l-12.5 11m692 .214l12.5-10.718 12.5 11m102-.282l12.5-10.718 12.5 11m-100-252.922l12.5-10.718 12.5 11" stroke="#fff" stroke-linecap="round" stroke-linejoin="round"/><g clip-path="url(#clip2)"><mask id="e" maskUnits="userSpaceOnUse" x="-21" y="0" width="213" height="130"><path d="M-21 0h213v130H-21V0z" fill="#C4C4C4"/></mask><g mask="url(#e)"><mask id="f" maskUnits="userSpaceOnUse" x="1" y="1" width="106" height="230"><rect x="1.605" y="1.857" width="104.372" height="228.158" rx="14.501" fill="#C4C4C4" stroke="#464646"/></mask><g mask="url(#f)"><rect x="1.605" y="1.858" width="104.372" height="228.158" rx="14.501" stroke="#fff"/></g><mask id="g" maskUnits="userSpaceOnUse" x="73" y="26" width="107" height="244"><rect x="73.941" y="26.407" width="104.793" height="243.208" rx="14.668" fill="#fff" stroke="#464646" stroke-width=".667"/></mask><g mask="url(#g)"><rect x="74.107" y="31.517" width="104.372" height="228.158" rx="14.501" fill="#222" stroke="#fff"/></g></g></g><mask id="h" maskUnits="userSpaceOnUse" x="-21" y="240" width="148" height="139"><path d="M-20.213 241.392h146.627v137.112H-20.213V241.392z" fill="#C4C4C4" stroke="#fff" stroke-width=".851"/></mask><g mask="url(#h)"><mask id="i" maskUnits="userSpaceOnUse" x="1" y="262" width="106" height="230"><rect x="1.941" y="262.722" width="104.705" height="228.491" rx="14.668" fill="#C4C4C4" stroke="#fff" stroke-width=".667"/></mask><g mask="url(#i)"><rect x="2.107" y="262.888" width="104.372" height="228.158" rx="14.501" stroke="#fff"/></g></g><g clip-path="url(#clip3)"><mask id="j" maskUnits="userSpaceOnUse" x="696" y="1" width="106" height="230"><rect x="696.515" y="1.69" width="104.705" height="228.491" rx="14.668" fill="#C4C4C4" stroke="#464646" stroke-width=".667"/></mask><g mask="url(#j)"><rect x="696.682" y="1.857" width="104.372" height="228.158" rx="14.501" stroke="#fff"/></g><mask id="k" maskUnits="userSpaceOnUse" x="768" y="26" width="107" height="244"><rect x="769.017" y="26.407" width="104.793" height="243.208" rx="14.668" fill="#fff" stroke="#464646" stroke-width=".667"/></mask><g mask="url(#k)"><rect x="769.184" y="31.517" width="104.372" height="228.158" rx="14.501" fill="#222" stroke="#fff"/></g></g><path opacity=".8" fill-rule="evenodd" clip-rule="evenodd" d="M67.698 79.211a11.26 11.26 0 00-4.402-8.94l.818-1.062a12.599 12.599 0 014.923 10.002c0 4.042-1.902 7.643-4.859 9.95l-.824-1.056a11.253 11.253 0 004.344-8.894zm-4.558 0a6.689 6.689 0 00-1.565-4.311l1.027-.86a8.028 8.028 0 011.878 5.171 8.023 8.023 0 01-1.841 5.126l-1.033-.853a6.683 6.683 0 001.534-4.273zm-3.792 0a2.926 2.926 0 11-5.853 0 2.926 2.926 0 015.853 0zm-9.645-.001c0-1.61.564-3.085 1.508-4.242l-1.039-.847a8.027 8.027 0 00-1.81 5.089c0 1.946.692 3.733 1.842 5.126l1.033-.853a6.686 6.686 0 01-1.534-4.273zm-4.559 0c0-3.611 1.698-6.825 4.339-8.89l-.825-1.056a12.598 12.598 0 00-4.853 9.946c0 4.022 1.883 7.605 4.814 9.914l.829-1.052a11.256 11.256 0 01-4.303-8.862z" fill="#198AFF"/><path opacity=".8" fill-rule="evenodd" clip-rule="evenodd" d="M764.917 79.211c0-3.64-1.545-6.876-3.947-8.94l.734-1.062c2.684 2.307 4.415 5.928 4.415 10.002 0 4.042-1.706 7.643-4.358 9.95l-.739-1.056c2.373-2.064 3.895-5.282 3.895-8.894zm-4.086 0c0-1.642-.528-3.145-1.404-4.311l.921-.86c1.051 1.398 1.684 3.202 1.684 5.171 0 1.947-.62 3.733-1.651 5.126l-.926-.853c.86-1.162 1.376-2.649 1.376-4.273zm-3.402 0c0 1.616-1.175 2.926-2.623 2.926-1.451 0-2.625-1.31-2.625-2.926 0-1.617 1.174-2.927 2.625-2.927 1.448 0 2.623 1.31 2.623 2.927zm-8.649-.001c0-1.61.507-3.085 1.353-4.242l-.931-.847c-1.015 1.388-1.623 3.16-1.623 5.089 0 1.946.62 3.734 1.651 5.126l.926-.853c-.86-1.161-1.376-2.65-1.376-4.273zm-4.086 0c0-3.611 1.521-6.825 3.89-8.89l-.74-1.056c-2.647 2.308-4.352 5.905-4.352 9.946 0 4.022 1.689 7.605 4.317 9.914l.744-1.052c-2.351-2.066-3.859-5.268-3.859-8.862z" fill="#FF6400"/><path d="M853.695 417h6.012v-1.26h-4.416v-7.308h-1.596V417zm9.993 0h1.596v-8.568h-1.596V417zm8.483 0h1.776l3.396-8.568h-1.62l-2.616 6.864h-.024l-2.604-6.864h-1.692l3.384 8.568zm14.896 0v-1.26h-4.644v-2.4h4.068v-1.26h-4.068v-2.388h4.596v-1.26h-6.156V417h6.204z" fill="#fff"/><mask id="l" maskUnits="userSpaceOnUse" x="799" y="241" width="148" height="139"><path d="M799.594 242.392h146.627v137.112H799.594V242.392z" fill="#C4C4C4" stroke="#fff" stroke-width=".851"/></mask><g mask="url(#l)"><mask id="m" maskUnits="userSpaceOnUse" x="821" y="263" width="106" height="230"><rect x="821.747" y="263.723" width="104.705" height="228.491" rx="14.668" fill="#C4C4C4" stroke="#fff" stroke-width=".667"/></mask><g mask="url(#m)"><rect x="821.914" y="263.889" width="104.372" height="228.158" rx="14.501" stroke="#fff"/></g></g><path opacity=".8" fill-rule="evenodd" clip-rule="evenodd" d="M885.678 338.479c0-3.64-1.723-6.876-4.401-8.941l.817-1.061a12.599 12.599 0 014.924 10.002c0 4.042-1.902 7.643-4.859 9.95l-.824-1.056a11.254 11.254 0 004.343-8.894zm-4.557 0a6.69 6.69 0 00-1.565-4.311l1.027-.86a8.029 8.029 0 011.877 5.171 8.024 8.024 0 01-1.841 5.126l-1.033-.853a6.687 6.687 0 001.535-4.273zm-3.793 0a2.926 2.926 0 11-5.852 0 2.926 2.926 0 015.852 0zm-9.645-.001c0-1.61.565-3.085 1.508-4.242l-1.038-.847a8.023 8.023 0 00-1.81 5.089c0 1.946.691 3.734 1.841 5.126l1.033-.853a6.686 6.686 0 01-1.534-4.273zm-4.558.002c0-3.611 1.697-6.825 4.338-8.89l-.825-1.056a12.598 12.598 0 00-4.853 9.946c0 4.023 1.884 7.605 4.814 9.915l.829-1.053a11.256 11.256 0 01-4.303-8.862z" fill="#9F9F9F"/><path fill-rule="evenodd" clip-rule="evenodd" d="M127.689 96.529V93.96l4.966 3.487-4.966 3.396V98.04c-4.796.561-8.517 4.638-8.517 9.584 0 5.329 4.32 9.65 9.649 9.65 5.33 0 9.65-4.321 9.65-9.65a9.622 9.622 0 00-3.05-7.04l1.029-1.097a11.127 11.127 0 013.525 8.137c0 6.16-4.994 11.153-11.154 11.153s-11.153-4.993-11.153-11.153c0-5.777 4.393-10.529 10.021-11.096z" fill="#198AFF"/><path fill-rule="evenodd" clip-rule="evenodd" d="M827.767 97.057V93.96l4.966 3.487-4.966 3.396V98.57c-4.796.56-8.517 4.637-8.517 9.583 0 5.33 4.32 9.65 9.649 9.65a9.65 9.65 0 009.65-9.65 9.62 9.62 0 00-3.05-7.039l1.029-1.097a11.126 11.126 0 013.525 8.136c0 6.16-4.994 11.154-11.154 11.154-6.159 0-11.153-4.994-11.153-11.154 0-5.777 4.393-10.529 10.021-11.096z" fill="#FF6400"/><path opacity=".8" d="M57.83 325.771a.707.707 0 011.34 0l2.315 6.779H69a.707.707 0 01.402 1.289l-6.049 4.181 2.306 6.751a.708.708 0 01-1.072.811l-6.087-4.207-6.087 4.207a.707.707 0 01-1.072-.811l2.306-6.751-6.05-4.181A.707.707 0 0148 332.55h7.515l2.316-6.779z" stroke="#78DE7F" stroke-width="1.415" stroke-linejoin="round"/><path opacity=".8" d="M31.83 325.771a.707.707 0 011.34 0l2.315 6.779H43a.707.707 0 01.402 1.289l-6.049 4.181 2.306 6.751a.708.708 0 01-1.072.811l-6.087-4.207-6.087 4.207a.707.707 0 01-1.072-.811l2.306-6.751-6.05-4.181A.707.707 0 0122 332.55h7.515l2.316-6.779z" stroke="#198AFF" stroke-width="1.415" stroke-linejoin="round"/><path opacity=".8" d="M84.327 325.781a.707.707 0 011.346 0l2.201 6.769H95a.707.707 0 01.415 1.28l-5.764 4.183 2.202 6.768a.707.707 0 01-1.088.792L85 341.389l-5.765 4.184a.71.71 0 01-1.088-.792l2.201-6.768-5.763-4.183a.707.707 0 01.415-1.28h7.126l2.201-6.769z" stroke="#FF6400" stroke-width="1.415" stroke-linejoin="round"/><path d="M708.165 412.716c0-2.568-1.572-4.428-4.092-4.428-2.52 0-4.092 1.86-4.092 4.428 0 2.58 1.572 4.428 4.092 4.428 2.52 0 4.092-1.848 4.092-4.428zm-1.62 0c0 1.908-.84 3.168-2.472 3.168-1.644 0-2.472-1.26-2.472-3.168 0-1.896.828-3.168 2.472-3.168 1.632 0 2.472 1.272 2.472 3.168zm7.339-4.284h-1.86V417h1.524v-6.636h.024l4.404 6.636h1.476v-8.568h-1.512v6.072h-.024l-4.032-6.072zm13.215 0h-3.3V417h3.3c2.58 0 4.284-1.704 4.284-4.284 0-2.568-1.704-4.284-4.284-4.284zm0 1.26c1.704 0 2.652 1.116 2.652 3.024s-.948 3.024-2.652 3.024h-1.74v-6.048h1.74zM741.45 417v-1.26h-4.644v-2.4h4.068v-1.26h-4.068v-2.388h4.596v-1.26h-6.156V417h6.204zm9.171 0l2.436-6.732h.024V417h1.524v-8.568h-2.184l-2.304 6.444h-.024l-2.304-6.444h-2.256V417h1.464v-6.732h.024l2.448 6.732h1.152zm14.543 0h1.632l-3.444-8.568h-1.788L758.12 417h1.56l.816-2.1h3.864l.804 2.1zm-2.736-7.032h.036l1.416 3.696h-2.892l1.44-3.696zm9.745-1.536h-1.86V417h1.524v-6.636h.024l4.404 6.636h1.476v-8.568h-1.512v6.072h-.024l-4.032-6.072zm13.215 0h-3.3V417h3.3c2.58 0 4.284-1.704 4.284-4.284 0-2.568-1.704-4.284-4.284-4.284zm0 1.26c1.704 0 2.652 1.116 2.652 3.024s-.948 3.024-2.652 3.024h-1.74v-6.048h1.74z" fill="#fff"/><mask id="n" maskUnits="userSpaceOnUse" x="670" y="241" width="149" height="139"><path d="M671.066 242.392h146.627v137.112H671.066V242.392z" fill="#C4C4C4" stroke="#fff" stroke-width=".851"/></mask><g mask="url(#n)"><mask id="o" maskUnits="userSpaceOnUse" x="692" y="263" width="107" height="230"><rect x="693.218" y="263.723" width="104.705" height="228.491" rx="14.668" fill="#C4C4C4" stroke="#fff" stroke-width=".667"/></mask><g mask="url(#o)"><rect x="693.385" y="263.889" width="104.372" height="228.158" rx="14.501" stroke="#fff"/></g></g><path fill-rule="evenodd" clip-rule="evenodd" d="M743.276 324.453v-2.568l4.967 3.488-4.967 3.396v-2.803c-4.795.56-8.516 4.637-8.516 9.583 0 5.33 4.32 9.65 9.649 9.65 5.329 0 9.65-4.32 9.65-9.65a9.62 9.62 0 00-3.05-7.039l1.029-1.097a11.125 11.125 0 013.524 8.136c0 6.16-4.993 11.154-11.153 11.154s-11.153-4.994-11.153-11.154c0-5.777 4.393-10.528 10.02-11.096z" fill="#B3B3B3"/></g><defs><clipPath id="clip0"><path fill="#fff" d="M0 0h927v502H0z"/></clipPath><clipPath id="clip1"><path fill="#fff" transform="translate(347)" d="M0 0h185v130H0z"/></clipPath><clipPath id="clip2"><path fill="#fff" transform="translate(1)" d="M0 0h178v130H0z"/></clipPath><clipPath id="clip3"><path fill="#fff" transform="translate(696)" d="M0 0h191v130H0z"/></clipPath></defs></svg>