<svg width="1163" height="545" viewBox="0 0 1163 545" fill="none" xmlns="http://www.w3.org/2000/svg">
<path d="M1085.06 420.606L1087.5 413.874H1087.52V420.606H1089.04V412.038H1086.86L1084.56 418.482H1084.53L1082.23 412.038H1079.97V420.606H1081.44V413.874H1081.46L1083.91 420.606H1085.06ZM1099.6 420.606H1101.24L1097.79 412.038H1096L1092.56 420.606H1094.12L1094.94 418.506H1098.8L1099.6 420.606ZM1096.87 413.574H1096.9L1098.32 417.27H1095.43L1096.87 413.574ZM1103.96 416.31C1103.96 418.962 1105.58 420.75 1107.98 420.75C1109.03 420.75 1110.12 420.198 1110.44 419.382L1110.54 420.606H1111.78V416.238H1108.54V417.39H1110.2V417.69C1110.2 418.746 1109.33 419.49 1108.07 419.49C1106.48 419.49 1105.58 418.266 1105.58 416.31C1105.58 414.366 1106.5 413.154 1108.1 413.154C1109.25 413.154 1109.9 413.754 1110.1 414.714H1111.67C1111.34 413.022 1110.16 411.894 1108.1 411.894C1105.65 411.894 1103.96 413.67 1103.96 416.31ZM1122.18 420.606H1123.81L1120.37 412.038H1118.58L1115.14 420.606H1116.7L1117.51 418.506H1121.38L1122.18 420.606ZM1119.44 413.574H1119.48L1120.9 417.27H1118L1119.44 413.574ZM1133.85 413.238V412.038H1127.08V413.298H1131.9L1126.92 419.49V420.606H1133.92V419.346H1128.89L1133.85 413.238ZM1137.86 420.606H1139.46V412.038H1137.86V420.606ZM1145.66 412.038H1143.8V420.606H1145.33V413.97H1145.35L1149.75 420.606H1151.23V412.038H1149.72V418.11H1149.69L1145.66 412.038ZM1161.78 420.606V419.346H1157.14V416.946H1161.2V415.686H1157.14V413.298H1161.73V412.038H1155.58V420.606H1161.78Z" fill="#222222"/>
<path d="M69.6875 448.509H1072.55L69.6875 379.02V448.509Z" fill="url(#paint0_linear)"/>
<path d="M1053 379L91 379L1053 449L1053 379Z" fill="url(#paint1_linear)"/>
<path d="M71.6602 501.073H1054.6" stroke="black"/>
<path d="M86.269 485.279L71.2656 501.072L86.6639 516.865" stroke="#222222" stroke-linecap="round" stroke-linejoin="round"/>
<path d="M1039.59 516.865L1054.6 501.072L1039.2 485.279" stroke="#222222" stroke-linecap="round" stroke-linejoin="round"/>
<rect x="68" y="1" width="986" height="169" stroke="black" stroke-dasharray="1 6"/>
<path d="M479.124 536.704C479.124 534.76 479.988 533.548 481.536 533.548C482.76 533.548 483.324 534.244 483.492 535.12H485.04C484.74 533.44 483.588 532.288 481.536 532.288C479.136 532.288 477.504 534.064 477.504 536.704C477.504 539.368 479.136 541.144 481.536 541.144C483.588 541.144 484.74 539.98 485.04 538.312H483.492C483.324 539.188 482.76 539.884 481.536 539.884C479.988 539.884 479.124 538.66 479.124 536.704ZM496.561 536.716C496.561 534.148 494.989 532.288 492.469 532.288C489.949 532.288 488.377 534.148 488.377 536.716C488.377 539.296 489.949 541.144 492.469 541.144C494.989 541.144 496.561 539.296 496.561 536.716ZM494.941 536.716C494.941 538.624 494.101 539.884 492.469 539.884C490.825 539.884 489.997 538.624 489.997 536.716C489.997 534.82 490.825 533.548 492.469 533.548C494.101 533.548 494.941 534.82 494.941 536.716ZM502.28 532.432H500.42V541H501.944V534.364H501.968L506.372 541H507.848V532.432H506.336V538.504H506.312L502.28 532.432ZM514.751 541H516.335V533.692H519.419V532.432H511.679V533.692H514.751V541ZM529.448 541V539.74H524.804V537.34H528.872V536.08H524.804V533.692H529.4V532.432H523.244V541H529.448ZM535.391 532.432H533.531V541H535.055V534.364H535.079L539.483 541H540.959V532.432H539.447V538.504H539.423L535.391 532.432ZM547.862 541H549.446V533.692H552.53V532.432H544.79V533.692H547.862V541ZM560.71 538.408C560.866 540.292 562.438 541.144 564.478 541.144C566.374 541.144 567.802 540.112 567.802 538.552C567.802 537.172 566.962 536.476 565.558 536.212L563.902 535.888C562.978 535.708 562.534 535.48 562.534 534.772C562.534 534.016 563.182 533.476 564.214 533.476C565.282 533.476 566.026 533.944 566.134 534.784H567.634C567.466 533.176 566.242 532.288 564.202 532.288C562.33 532.288 560.986 533.344 560.986 534.868C560.986 536.368 562.006 536.968 563.266 537.196L564.838 537.484C565.87 537.676 566.242 538.024 566.242 538.648C566.242 539.512 565.45 539.968 564.43 539.968C563.362 539.968 562.354 539.572 562.246 538.408H560.71ZM575.229 537.844C577.245 537.844 578.421 536.932 578.421 535.144C578.421 533.356 577.245 532.432 575.217 532.432H571.677V541H573.237V537.844H575.229ZM573.237 536.596V533.692H575.085C576.261 533.692 576.849 534.16 576.849 535.144C576.849 536.116 576.261 536.596 575.085 536.596H573.237ZM588.379 541V539.74H583.735V537.34H587.803V536.08H583.735V533.692H588.331V532.432H582.175V541H588.379ZM593.614 536.704C593.614 534.76 594.478 533.548 596.026 533.548C597.25 533.548 597.814 534.244 597.982 535.12H599.53C599.23 533.44 598.078 532.288 596.026 532.288C593.626 532.288 591.994 534.064 591.994 536.704C591.994 539.368 593.626 541.144 596.026 541.144C598.078 541.144 599.23 539.98 599.53 538.312H597.982C597.814 539.188 597.25 539.884 596.026 539.884C594.478 539.884 593.614 538.66 593.614 536.704ZM605.773 541H607.357V533.692H610.441V532.432H602.701V533.692H605.773V541ZM615.826 541V537.796H617.746L619.702 541H621.442L619.294 537.556C620.266 537.244 621.118 536.452 621.118 535.12C621.118 533.368 619.942 532.432 617.938 532.432H614.266V541H615.826ZM615.826 536.548V533.692H617.758C618.946 533.692 619.546 534.184 619.546 535.12C619.546 536.056 618.946 536.548 617.758 536.548H615.826ZM632.386 537.544V532.432H630.802V537.532C630.802 539.032 630.106 539.872 628.726 539.872C627.346 539.872 626.662 539.032 626.662 537.532V532.432H625.066V537.52C625.066 539.884 626.422 541.144 628.726 541.144C631.042 541.144 632.386 539.884 632.386 537.544ZM641.708 541L644.144 534.268H644.168V541H645.692V532.432H643.508L641.204 538.876H641.18L638.876 532.432H636.62V541H638.084V534.268H638.108L640.556 541H641.708Z" fill="#222222"/>
<g filter="url(#filter0_d)">
<rect x="184" y="124" width="214" height="205" fill="white"/>
</g>
<rect x="184" y="124" width="214" height="91" fill="url(#paint2_linear)"/>
<path d="M276.859 163.148H271.909V176H276.859C280.729 176 283.285 173.444 283.285 169.574C283.285 165.722 280.729 163.148 276.859 163.148ZM276.859 165.038C279.415 165.038 280.837 166.712 280.837 169.574C280.837 172.436 279.415 174.11 276.859 174.11H274.249V165.038H276.859ZM287.879 176H296.897V174.11H290.273V163.148H287.879V176ZM301.67 176H304.064V170.852H309.878V168.962H304.064V165.038H310.544V163.148H301.67V176Z" fill="white"/>
<path d="M253.772 192.84C253.902 194.41 255.212 195.12 256.912 195.12C258.492 195.12 259.682 194.26 259.682 192.96C259.682 191.81 258.982 191.23 257.812 191.01L256.432 190.74C255.662 190.59 255.292 190.4 255.292 189.81C255.292 189.18 255.832 188.73 256.692 188.73C257.582 188.73 258.202 189.12 258.292 189.82H259.542C259.402 188.48 258.382 187.74 256.682 187.74C255.122 187.74 254.002 188.62 254.002 189.89C254.002 191.14 254.852 191.64 255.902 191.83L257.212 192.07C258.072 192.23 258.382 192.52 258.382 193.04C258.382 193.76 257.722 194.14 256.872 194.14C255.982 194.14 255.142 193.81 255.052 192.84H253.772ZM268.922 192.12V187.86H267.602V192.11C267.602 193.36 267.022 194.06 265.872 194.06C264.722 194.06 264.152 193.36 264.152 192.11V187.86H262.822V192.1C262.822 194.07 263.952 195.12 265.872 195.12C267.802 195.12 268.922 194.07 268.922 192.12ZM275.581 195C277.231 195 278.191 194.31 278.191 192.97C278.191 192.14 277.601 191.51 276.821 191.3C277.401 191.13 277.901 190.44 277.901 189.81C277.901 188.53 276.991 187.86 275.321 187.86H272.451V195H275.581ZM273.751 190.88V188.84H275.321C276.191 188.84 276.621 189.21 276.621 189.86C276.621 190.48 276.201 190.88 275.311 190.88H273.751ZM273.751 191.83H275.471C276.391 191.83 276.881 192.25 276.881 192.92C276.881 193.61 276.401 194.02 275.481 194.02H273.751V191.83ZM288.643 195C290.293 195 291.253 194.31 291.253 192.97C291.253 192.14 290.663 191.51 289.883 191.3C290.463 191.13 290.963 190.44 290.963 189.81C290.963 188.53 290.053 187.86 288.383 187.86H285.513V195H288.643ZM286.813 190.88V188.84H288.383C289.253 188.84 289.683 189.21 289.683 189.86C289.683 190.48 289.263 190.88 288.373 190.88H286.813ZM286.813 191.83H288.533C289.453 191.83 289.943 192.25 289.943 192.92C289.943 193.61 289.463 194.02 288.543 194.02H286.813V191.83ZM295.776 195V192.33H297.376L299.006 195H300.456L298.666 192.13C299.476 191.87 300.186 191.21 300.186 190.1C300.186 188.64 299.206 187.86 297.536 187.86H294.476V195H295.776ZM295.776 191.29V188.91H297.386C298.376 188.91 298.876 189.32 298.876 190.1C298.876 190.88 298.376 191.29 297.386 191.29H295.776ZM308.736 195H310.096L307.226 187.86H305.736L302.866 195H304.166L304.846 193.25H308.066L308.736 195ZM306.456 189.14H306.486L307.666 192.22H305.256L306.456 189.14ZM314.577 187.86H313.027V195H314.297V189.47H314.317L317.987 195H319.217V187.86H317.957V192.92H317.937L314.577 187.86ZM325.589 187.86H322.839V195H325.589C327.739 195 329.159 193.58 329.159 191.43C329.159 189.29 327.739 187.86 325.589 187.86ZM325.589 188.91C327.009 188.91 327.799 189.84 327.799 191.43C327.799 193.02 327.009 193.95 325.589 193.95H324.139V188.91H325.589Z" fill="white"/>
<path d="M222.786 239.432H220.926V248H222.45V241.364H222.474L226.878 248H228.354V239.432H226.842V245.504H226.818L222.786 239.432ZM238.905 248V246.74H234.261V244.34H238.329V243.08H234.261V240.692H238.857V239.432H232.701V248H238.905ZM249.708 248H251.46L253.824 239.432H252.264L250.56 246.08H250.536L248.868 239.432H247.26L245.592 246.08H245.568L243.852 239.432H242.22L244.584 248H246.324L248.004 241.388H248.028L249.708 248ZM256.777 245.408C256.933 247.292 258.505 248.144 260.545 248.144C262.441 248.144 263.869 247.112 263.869 245.552C263.869 244.172 263.029 243.476 261.625 243.212L259.969 242.888C259.045 242.708 258.601 242.48 258.601 241.772C258.601 241.016 259.249 240.476 260.281 240.476C261.349 240.476 262.093 240.944 262.201 241.784H263.701C263.533 240.176 262.309 239.288 260.269 239.288C258.397 239.288 257.053 240.344 257.053 241.868C257.053 243.368 258.073 243.968 259.333 244.196L260.905 244.484C261.937 244.676 262.309 245.024 262.309 245.648C262.309 246.512 261.517 246.968 260.497 246.968C259.429 246.968 258.421 246.572 258.313 245.408H256.777ZM275.34 239.3C275.98 239.3 276.484 239.464 276.852 239.792C277.228 240.112 277.416 240.564 277.416 241.148C277.416 241.652 277.252 242.08 276.924 242.432C276.604 242.784 276.196 243.104 275.7 243.392L278.016 245.624C278.224 245.376 278.392 245.092 278.52 244.772C278.656 244.444 278.768 244.092 278.856 243.716H279.924C279.796 244.228 279.636 244.704 279.444 245.144C279.252 245.584 279.004 245.968 278.7 246.296L280.452 248H279.024L277.98 246.992C277.604 247.328 277.184 247.6 276.72 247.808C276.256 248.016 275.692 248.12 275.028 248.12C274.204 248.12 273.548 247.916 273.06 247.508C272.572 247.1 272.328 246.52 272.328 245.768C272.328 245.152 272.492 244.66 272.82 244.292C273.156 243.916 273.608 243.568 274.176 243.248C273.92 242.96 273.68 242.652 273.456 242.324C273.24 241.996 273.132 241.612 273.132 241.172C273.132 240.58 273.328 240.12 273.72 239.792C274.12 239.464 274.66 239.3 275.34 239.3ZM275.304 240.164C274.968 240.164 274.692 240.252 274.476 240.428C274.268 240.604 274.164 240.848 274.164 241.16C274.164 241.448 274.24 241.716 274.392 241.964C274.544 242.204 274.764 242.472 275.052 242.768C275.524 242.496 275.86 242.24 276.06 242C276.268 241.752 276.372 241.468 276.372 241.148C276.372 240.86 276.276 240.624 276.084 240.44C275.892 240.256 275.632 240.164 275.304 240.164ZM274.812 243.908C274.38 244.164 274.04 244.424 273.792 244.688C273.552 244.952 273.432 245.3 273.432 245.732C273.432 246.172 273.58 246.524 273.876 246.788C274.172 247.052 274.568 247.184 275.064 247.184C275.576 247.184 276.016 247.1 276.384 246.932C276.752 246.764 277.06 246.564 277.308 246.332L274.812 243.908ZM289.925 243.704C289.925 241.76 290.789 240.548 292.337 240.548C293.561 240.548 294.125 241.244 294.293 242.12H295.841C295.541 240.44 294.389 239.288 292.337 239.288C289.937 239.288 288.305 241.064 288.305 243.704C288.305 246.368 289.937 248.144 292.337 248.144C294.389 248.144 295.541 246.98 295.841 245.312H294.293C294.125 246.188 293.561 246.884 292.337 246.884C290.789 246.884 289.925 245.66 289.925 243.704ZM306.857 244.544V239.432H305.273V244.532C305.273 246.032 304.577 246.872 303.197 246.872C301.817 246.872 301.133 246.032 301.133 244.532V239.432H299.537V244.52C299.537 246.884 300.893 248.144 303.197 248.144C305.513 248.144 306.857 246.884 306.857 244.544ZM312.652 248V244.796H314.572L316.528 248H318.268L316.12 244.556C317.092 244.244 317.944 243.452 317.944 242.12C317.944 240.368 316.768 239.432 314.764 239.432H311.092V248H312.652ZM312.652 243.548V240.692H314.584C315.772 240.692 316.372 241.184 316.372 242.12C316.372 243.056 315.772 243.548 314.584 243.548H312.652ZM323.56 248V244.796H325.48L327.436 248H329.176L327.028 244.556C328 244.244 328.852 243.452 328.852 242.12C328.852 240.368 327.676 239.432 325.672 239.432H322V248H323.56ZM323.56 243.548V240.692H325.492C326.68 240.692 327.28 241.184 327.28 242.12C327.28 243.056 326.68 243.548 325.492 243.548H323.56ZM339.112 248V246.74H334.468V244.34H338.536V243.08H334.468V240.692H339.064V239.432H332.908V248H339.112ZM345.055 239.432H343.195V248H344.719V241.364H344.743L349.147 248H350.623V239.432H349.111V245.504H349.087L345.055 239.432ZM357.526 248H359.11V240.692H362.194V239.432H354.454V240.692H357.526V248ZM266.267 266H267.899L264.455 257.432H262.667L259.223 266H260.783L261.599 263.9H265.463L266.267 266ZM263.531 258.968H263.567L264.983 262.664H262.091L263.531 258.968ZM271.416 266H273.012V262.568H276.888V261.308H273.012V258.692H277.332V257.432H271.416V266ZM281.375 266H282.971V262.568H286.847V261.308H282.971V258.692H287.291V257.432H281.375V266ZM296.881 266H298.513L295.069 257.432H293.281L289.837 266H291.397L292.213 263.9H296.077L296.881 266ZM294.145 258.968H294.181L295.597 262.664H292.705L294.145 258.968ZM302.03 266H303.626V257.432H302.03V266ZM309.529 266V262.796H311.449L313.405 266H315.145L312.997 262.556C313.969 262.244 314.821 261.452 314.821 260.12C314.821 258.368 313.645 257.432 311.641 257.432H307.969V266H309.529ZM309.529 261.548V258.692H311.461C312.649 258.692 313.249 259.184 313.249 260.12C313.249 261.056 312.649 261.548 311.461 261.548H309.529ZM318.313 263.408C318.469 265.292 320.041 266.144 322.081 266.144C323.977 266.144 325.405 265.112 325.405 263.552C325.405 262.172 324.565 261.476 323.161 261.212L321.505 260.888C320.581 260.708 320.137 260.48 320.137 259.772C320.137 259.016 320.785 258.476 321.817 258.476C322.885 258.476 323.629 258.944 323.737 259.784H325.237C325.069 258.176 323.845 257.288 321.805 257.288C319.933 257.288 318.589 258.344 318.589 259.868C318.589 261.368 319.609 261.968 320.869 262.196L322.441 262.484C323.473 262.676 323.845 263.024 323.845 263.648C323.845 264.512 323.053 264.968 322.033 264.968C320.965 264.968 319.957 264.572 319.849 263.408H318.313ZM233.142 280.712C233.142 279.736 233.282 278.796 233.562 277.892C233.85 276.98 234.298 276.16 234.906 275.432H235.902C235.342 276.184 234.918 277.012 234.63 277.916C234.35 278.82 234.21 279.748 234.21 280.7C234.21 281.628 234.35 282.54 234.63 283.436C234.918 284.324 235.338 285.144 235.89 285.896H234.906C234.298 285.192 233.85 284.396 233.562 283.508C233.282 282.612 233.142 281.68 233.142 280.712ZM239.631 284H241.227V275.432H239.631V284ZM247.43 275.432H245.57V284H247.094V277.364H247.118L251.522 284H252.998V275.432H251.486V281.504H251.462L247.43 275.432ZM256.781 281.408C256.937 283.292 258.509 284.144 260.549 284.144C262.445 284.144 263.873 283.112 263.873 281.552C263.873 280.172 263.033 279.476 261.629 279.212L259.973 278.888C259.049 278.708 258.605 278.48 258.605 277.772C258.605 277.016 259.253 276.476 260.285 276.476C261.353 276.476 262.097 276.944 262.205 277.784H263.705C263.537 276.176 262.313 275.288 260.273 275.288C258.401 275.288 257.057 276.344 257.057 277.868C257.057 279.368 258.077 279.968 259.337 280.196L260.909 280.484C261.941 280.676 262.313 281.024 262.313 281.648C262.313 282.512 261.521 282.968 260.501 282.968C259.433 282.968 258.425 282.572 258.317 281.408H256.781ZM270.048 284H271.632V276.692H274.716V275.432H266.976V276.692H270.048V284ZM278.54 284H280.136V275.432H278.54V284ZM287.035 284H288.619V276.692H291.703V275.432H283.963V276.692H287.035V284ZM302.739 280.544V275.432H301.155V280.532C301.155 282.032 300.459 282.872 299.079 282.872C297.699 282.872 297.015 282.032 297.015 280.532V275.432H295.419V280.52C295.419 282.884 296.775 284.144 299.079 284.144C301.395 284.144 302.739 282.884 302.739 280.544ZM309.53 284H311.114V276.692H314.198V275.432H306.458V276.692H309.53V284ZM318.023 284H319.619V275.432H318.023V284ZM331.678 279.716C331.678 277.148 330.106 275.288 327.586 275.288C325.066 275.288 323.494 277.148 323.494 279.716C323.494 282.296 325.066 284.144 327.586 284.144C330.106 284.144 331.678 282.296 331.678 279.716ZM330.058 279.716C330.058 281.624 329.218 282.884 327.586 282.884C325.942 282.884 325.114 281.624 325.114 279.716C325.114 277.82 325.942 276.548 327.586 276.548C329.218 276.548 330.058 277.82 330.058 279.716ZM337.398 275.432H335.538V284H337.062V277.364H337.086L341.49 284H342.966V275.432H341.454V281.504H341.43L337.398 275.432ZM349.461 280.712C349.461 281.68 349.317 282.612 349.029 283.508C348.749 284.396 348.305 285.192 347.697 285.896H346.713C347.265 285.144 347.681 284.324 347.961 283.436C348.249 282.54 348.393 281.628 348.393 280.7C348.393 279.748 348.249 278.82 347.961 277.916C347.681 277.012 347.261 276.184 346.701 275.432H347.697C348.305 276.16 348.749 276.98 349.029 277.892C349.317 278.796 349.461 279.736 349.461 280.712Z" fill="#222222"/>
<g filter="url(#filter1_d)">
<rect x="453" y="124" width="214" height="205" fill="white"/>
</g>
<rect x="453" y="124" width="214" height="91" fill="#78DE7F"/>
<path d="M511.408 163.148H506.458V176H511.408C515.278 176 517.834 173.444 517.834 169.574C517.834 165.722 515.278 163.148 511.408 163.148ZM511.408 165.038C513.964 165.038 515.386 166.712 515.386 169.574C515.386 172.436 513.964 174.11 511.408 174.11H508.798V165.038H511.408ZM522.428 176H531.446V174.11H524.822V163.148H522.428V176ZM536.219 176H538.613V170.852H544.427V168.962H538.613V165.038H545.093V163.148H536.219V176ZM558.926 163.148H556.136V176H558.422V166.046H558.458L565.064 176H567.278V163.148H565.01V172.256H564.974L558.926 163.148ZM584.173 169.574C584.173 165.722 581.815 162.932 578.035 162.932C574.255 162.932 571.897 165.722 571.897 169.574C571.897 173.444 574.255 176.216 578.035 176.216C581.815 176.216 584.173 173.444 584.173 169.574ZM581.743 169.574C581.743 172.436 580.483 174.326 578.035 174.326C575.569 174.326 574.327 172.436 574.327 169.574C574.327 166.73 575.569 164.822 578.035 164.822C580.483 164.822 581.743 166.73 581.743 169.574ZM592.086 176H594.75L599.844 163.148H597.414L593.49 173.444H593.454L589.548 163.148H587.01L592.086 176ZM612.14 176H614.588L609.422 163.148H606.74L601.574 176H603.914L605.138 172.85H610.934L612.14 176ZM608.036 165.452H608.09L610.214 170.996H605.876L608.036 165.452Z" fill="white"/>
<path d="M489.927 248H491.511V240.692H494.595V239.432H486.855V240.692H489.927V248ZM504.624 248V246.74H499.98V244.34H504.048V243.08H499.98V240.692H504.576V239.432H498.42V248H504.624ZM509.858 243.704C509.858 241.76 510.722 240.548 512.27 240.548C513.494 240.548 514.058 241.244 514.226 242.12H515.774C515.474 240.44 514.322 239.288 512.27 239.288C509.87 239.288 508.238 241.064 508.238 243.704C508.238 246.368 509.87 248.144 512.27 248.144C514.322 248.144 515.474 246.98 515.774 245.312H514.226C514.058 246.188 513.494 246.884 512.27 246.884C510.722 246.884 509.858 245.66 509.858 243.704ZM519.579 248H521.175V244.28H525.567V248H527.151V239.432H525.567V243.032H521.175V239.432H519.579V248ZM533.355 239.432H531.495V248H533.019V241.364H533.043L537.447 248H538.923V239.432H537.411V245.504H537.387L533.355 239.432ZM550.986 243.716C550.986 241.148 549.414 239.288 546.894 239.288C544.374 239.288 542.802 241.148 542.802 243.716C542.802 246.296 544.374 248.144 546.894 248.144C549.414 248.144 550.986 246.296 550.986 243.716ZM549.366 243.716C549.366 245.624 548.526 246.884 546.894 246.884C545.25 246.884 544.422 245.624 544.422 243.716C544.422 241.82 545.25 240.548 546.894 240.548C548.526 240.548 549.366 241.82 549.366 243.716ZM554.845 248H560.857V246.74H556.441V239.432H554.845V248ZM572.157 243.716C572.157 241.148 570.585 239.288 568.065 239.288C565.545 239.288 563.973 241.148 563.973 243.716C563.973 246.296 565.545 248.144 568.065 248.144C570.585 248.144 572.157 246.296 572.157 243.716ZM570.537 243.716C570.537 245.624 569.697 246.884 568.065 246.884C566.421 246.884 565.593 245.624 565.593 243.716C565.593 241.82 566.421 240.548 568.065 240.548C569.697 240.548 570.537 241.82 570.537 243.716ZM575.607 243.704C575.607 246.356 577.227 248.144 579.627 248.144C580.683 248.144 581.775 247.592 582.087 246.776L582.195 248H583.431V243.632H580.191V244.784H581.847V245.084C581.847 246.14 580.983 246.884 579.723 246.884C578.127 246.884 577.227 245.66 577.227 243.704C577.227 241.76 578.151 240.548 579.747 240.548C580.899 240.548 581.547 241.148 581.751 242.108H583.323C582.987 240.416 581.811 239.288 579.747 239.288C577.299 239.288 575.607 241.064 575.607 243.704ZM591.262 248V244.484L594.586 239.432H592.846L590.53 243.092H590.506L588.13 239.432H586.354L589.666 244.484V248H591.262ZM609.202 248H610.834L607.39 239.432H605.602L602.158 248H603.718L604.534 245.9H608.398L609.202 248ZM606.466 240.968H606.502L607.918 244.664H605.026L606.466 240.968ZM616.211 239.432H614.351V248H615.875V241.364H615.899L620.303 248H621.779V239.432H620.267V245.504H620.243L616.211 239.432ZM629.426 239.432H626.126V248H629.426C632.006 248 633.71 246.296 633.71 243.716C633.71 241.148 632.006 239.432 629.426 239.432ZM629.426 240.692C631.13 240.692 632.078 241.808 632.078 243.716C632.078 245.624 631.13 246.74 629.426 246.74H627.686V240.692H629.426ZM519.421 266H525.433V264.74H521.017V257.432H519.421V266ZM529.415 266H531.011V257.432H529.415V266ZM535.354 266H536.95V262.568H540.826V261.308H536.95V258.692H541.27V257.432H535.354V266ZM551.516 266V264.74H546.872V262.34H550.94V261.08H546.872V258.692H551.468V257.432H545.312V266H551.516ZM555.012 263.408C555.168 265.292 556.74 266.144 558.78 266.144C560.676 266.144 562.104 265.112 562.104 263.552C562.104 262.172 561.264 261.476 559.86 261.212L558.204 260.888C557.28 260.708 556.836 260.48 556.836 259.772C556.836 259.016 557.484 258.476 558.516 258.476C559.584 258.476 560.328 258.944 560.436 259.784H561.936C561.768 258.176 560.544 257.288 558.504 257.288C556.632 257.288 555.288 258.344 555.288 259.868C555.288 261.368 556.308 261.968 557.568 262.196L559.14 262.484C560.172 262.676 560.544 263.024 560.544 263.648C560.544 264.512 559.752 264.968 558.732 264.968C557.664 264.968 556.656 264.572 556.548 263.408H555.012ZM568.278 266H569.862V258.692H572.946V257.432H565.206V258.692H568.278V266ZM580.826 266V262.484L584.15 257.432H582.41L580.094 261.092H580.07L577.694 257.432H575.918L579.23 262.484V266H580.826ZM587.643 266H593.655V264.74H589.239V257.432H587.643V266ZM603.84 266V264.74H599.196V262.34H603.264V261.08H599.196V258.692H603.792V257.432H597.636V266H603.84ZM474.185 280.712C474.185 279.736 474.325 278.796 474.605 277.892C474.893 276.98 475.341 276.16 475.949 275.432H476.945C476.385 276.184 475.961 277.012 475.673 277.916C475.393 278.82 475.253 279.748 475.253 280.7C475.253 281.628 475.393 282.54 475.673 283.436C475.961 284.324 476.381 285.144 476.933 285.896H475.949C475.341 285.192 474.893 284.396 474.605 283.508C474.325 282.612 474.185 281.68 474.185 280.712ZM484.731 284V280.484L488.055 275.432H486.315L483.999 279.092H483.975L481.599 275.432H479.823L483.135 280.484V284H484.731ZM498.795 279.716C498.795 277.148 497.223 275.288 494.703 275.288C492.183 275.288 490.611 277.148 490.611 279.716C490.611 282.296 492.183 284.144 494.703 284.144C497.223 284.144 498.795 282.296 498.795 279.716ZM497.175 279.716C497.175 281.624 496.335 282.884 494.703 282.884C493.059 282.884 492.231 281.624 492.231 279.716C492.231 277.82 493.059 276.548 494.703 276.548C496.335 276.548 497.175 277.82 497.175 279.716ZM509.867 280.544V275.432H508.283V280.532C508.283 282.032 507.587 282.872 506.207 282.872C504.827 282.872 504.143 282.032 504.143 280.532V275.432H502.547V280.52C502.547 282.884 503.903 284.144 506.207 284.144C508.523 284.144 509.867 282.884 509.867 280.544ZM515.962 275.432H514.102V284H515.626V277.364H515.65L520.054 284H521.53V275.432H520.018V281.504H519.994L515.962 275.432ZM525.409 279.704C525.409 282.356 527.029 284.144 529.429 284.144C530.485 284.144 531.577 283.592 531.889 282.776L531.997 284H533.233V279.632H529.993V280.784H531.649V281.084C531.649 282.14 530.785 282.884 529.525 282.884C527.929 282.884 527.029 281.66 527.029 279.704C527.029 277.76 527.953 276.548 529.549 276.548C530.701 276.548 531.349 277.148 531.553 278.108H533.125C532.789 276.416 531.613 275.288 529.549 275.288C527.101 275.288 525.409 277.064 525.409 279.704ZM543.633 284V282.74H538.989V280.34H543.057V279.08H538.989V276.692H543.585V275.432H537.429V284H543.633ZM549.276 284V280.796H551.196L553.152 284H554.892L552.744 280.556C553.716 280.244 554.568 279.452 554.568 278.12C554.568 276.368 553.392 275.432 551.388 275.432H547.716V284H549.276ZM549.276 279.548V276.692H551.208C552.396 276.692 552.996 277.184 552.996 278.12C552.996 279.056 552.396 279.548 551.208 279.548H549.276ZM569.747 284H571.379L567.935 275.432H566.147L562.703 284H564.263L565.079 281.9H568.943L569.747 284ZM567.011 276.968H567.047L568.463 280.664H565.571L567.011 276.968ZM581.827 280.544V275.432H580.243V280.532C580.243 282.032 579.547 282.872 578.167 282.872C576.787 282.872 576.103 282.032 576.103 280.532V275.432H574.507V280.52C574.507 282.884 575.863 284.144 578.167 284.144C580.483 284.144 581.827 282.884 581.827 280.544ZM589.362 275.432H586.062V284H589.362C591.942 284 593.646 282.296 593.646 279.716C593.646 277.148 591.942 275.432 589.362 275.432ZM589.362 276.692C591.066 276.692 592.014 277.808 592.014 279.716C592.014 281.624 591.066 282.74 589.362 282.74H587.622V276.692H589.362ZM597.509 284H599.105V275.432H597.509V284ZM609.652 284V282.74H605.008V280.34H609.076V279.08H605.008V276.692H609.604V275.432H603.448V284H609.652ZM615.595 275.432H613.735V284H615.259V277.364H615.283L619.687 284H621.163V275.432H619.651V281.504H619.627L615.595 275.432ZM626.662 279.704C626.662 277.76 627.526 276.548 629.074 276.548C630.298 276.548 630.862 277.244 631.03 278.12H632.578C632.278 276.44 631.126 275.288 629.074 275.288C626.674 275.288 625.042 277.064 625.042 279.704C625.042 282.368 626.674 284.144 629.074 284.144C631.126 284.144 632.278 282.98 632.578 281.312H631.03C630.862 282.188 630.298 282.884 629.074 282.884C627.526 282.884 626.662 281.66 626.662 279.704ZM642.586 284V282.74H637.942V280.34H642.01V279.08H637.942V276.692H642.538V275.432H636.382V284H642.586ZM648.817 280.712C648.817 281.68 648.673 282.612 648.385 283.508C648.105 284.396 647.661 285.192 647.053 285.896H646.069C646.621 285.144 647.037 284.324 647.317 283.436C647.605 282.54 647.749 281.628 647.749 280.7C647.749 279.748 647.605 278.82 647.317 277.916C647.037 277.012 646.617 276.184 646.057 275.432H647.053C647.661 276.16 648.105 276.98 648.385 277.892C648.673 278.796 648.817 279.736 648.817 280.712Z" fill="#222222"/>
<g filter="url(#filter2_d)">
<rect x="728" y="124" width="214" height="205" fill="white"/>
</g>
<rect x="728" y="124" width="214" height="91" fill="#FF6400"/>
<path d="M773.408 163.148H768.458V176H773.408C777.278 176 779.834 173.444 779.834 169.574C779.834 165.722 777.278 163.148 773.408 163.148ZM773.408 165.038C775.964 165.038 777.386 166.712 777.386 169.574C777.386 172.436 775.964 174.11 773.408 174.11H770.798V165.038H773.408ZM784.428 176H793.446V174.11H786.822V163.148H784.428V176ZM798.219 176H800.613V170.852H806.427V168.962H800.613V165.038H807.093V163.148H798.219V176ZM826.83 176H829.71L823.896 168.728L829.206 163.148H826.47L820.53 169.61V163.148H818.136V176H820.53V172.274L822.312 170.402L826.83 176ZM844.256 170.816V163.148H841.88V170.798C841.88 173.048 840.836 174.308 838.766 174.308C836.696 174.308 835.67 173.048 835.67 170.798V163.148H833.276V170.78C833.276 174.326 835.31 176.216 838.766 176.216C842.24 176.216 844.256 174.326 844.256 170.816ZM849.409 176H858.427V174.11H851.803V163.148H849.409V176ZM864.977 176H867.353V165.038H871.979V163.148H860.369V165.038H864.977V176ZM887.333 170.816V163.148H884.957V170.798C884.957 173.048 883.913 174.308 881.843 174.308C879.773 174.308 878.747 173.048 878.747 170.798V163.148H876.353V170.78C876.353 174.326 878.387 176.216 881.843 176.216C885.317 176.216 887.333 174.326 887.333 170.816ZM894.826 176V171.194H897.706L900.64 176H903.25L900.028 170.834C901.486 170.366 902.764 169.178 902.764 167.18C902.764 164.552 901 163.148 897.994 163.148H892.486V176H894.826ZM894.826 169.322V165.038H897.724C899.506 165.038 900.406 165.776 900.406 167.18C900.406 168.584 899.506 169.322 897.724 169.322H894.826Z" fill="white"/>
<path d="M780.561 243.704C780.561 241.76 781.425 240.548 782.973 240.548C784.197 240.548 784.761 241.244 784.929 242.12H786.477C786.177 240.44 785.025 239.288 782.973 239.288C780.573 239.288 778.941 241.064 778.941 243.704C778.941 246.368 780.573 248.144 782.973 248.144C785.025 248.144 786.177 246.98 786.477 245.312H784.929C784.761 246.188 784.197 246.884 782.973 246.884C781.425 246.884 780.561 245.66 780.561 243.704ZM797.493 244.544V239.432H795.909V244.532C795.909 246.032 795.213 246.872 793.833 246.872C792.453 246.872 791.769 246.032 791.769 244.532V239.432H790.173V244.52C790.173 246.884 791.529 248.144 793.833 248.144C796.149 248.144 797.493 246.884 797.493 244.544ZM801.728 248H807.74V246.74H803.324V239.432H801.728V248ZM812.907 248H814.491V240.692H817.575V239.432H809.835V240.692H812.907V248ZM828.611 244.544V239.432H827.027V244.532C827.027 246.032 826.331 246.872 824.951 246.872C823.571 246.872 822.887 246.032 822.887 244.532V239.432H821.291V244.52C821.291 246.884 822.647 248.144 824.951 248.144C827.267 248.144 828.611 246.884 828.611 244.544ZM834.406 248V244.796H836.326L838.282 248H840.022L837.874 244.556C838.846 244.244 839.698 243.452 839.698 242.12C839.698 240.368 838.522 239.432 836.518 239.432H832.846V248H834.406ZM834.406 243.548V240.692H836.338C837.526 240.692 838.126 241.184 838.126 242.12C838.126 243.056 837.526 243.548 836.338 243.548H834.406ZM849.958 248V246.74H845.314V244.34H849.382V243.08H845.314V240.692H849.91V239.432H843.754V248H849.958ZM865.164 248H866.796L863.352 239.432H861.564L858.12 248H859.68L860.496 245.9H864.36L865.164 248ZM862.428 240.968H862.464L863.88 244.664H860.988L862.428 240.968ZM872.173 239.432H870.313V248H871.837V241.364H871.861L876.265 248H877.741V239.432H876.229V245.504H876.205L872.173 239.432ZM885.388 239.432H882.088V248H885.388C887.968 248 889.672 246.296 889.672 243.716C889.672 241.148 887.968 239.432 885.388 239.432ZM885.388 240.692C887.092 240.692 888.04 241.808 888.04 243.716C888.04 245.624 887.092 246.74 885.388 246.74H883.648V240.692H885.388ZM801.567 263.408C801.723 265.292 803.295 266.144 805.335 266.144C807.231 266.144 808.659 265.112 808.659 263.552C808.659 262.172 807.819 261.476 806.415 261.212L804.759 260.888C803.835 260.708 803.391 260.48 803.391 259.772C803.391 259.016 804.039 258.476 805.071 258.476C806.139 258.476 806.883 258.944 806.991 259.784H808.491C808.323 258.176 807.099 257.288 805.059 257.288C803.187 257.288 801.843 258.344 801.843 259.868C801.843 261.368 802.863 261.968 804.123 262.196L805.695 262.484C806.727 262.676 807.099 263.024 807.099 263.648C807.099 264.512 806.307 264.968 805.287 264.968C804.219 264.968 803.211 264.572 803.103 263.408H801.567ZM820.275 261.716C820.275 259.148 818.703 257.288 816.183 257.288C813.663 257.288 812.091 259.148 812.091 261.716C812.091 264.296 813.663 266.144 816.183 266.144C818.703 266.144 820.275 264.296 820.275 261.716ZM818.655 261.716C818.655 263.624 817.815 264.884 816.183 264.884C814.539 264.884 813.711 263.624 813.711 261.716C813.711 259.82 814.539 258.548 816.183 258.548C817.815 258.548 818.655 259.82 818.655 261.716ZM825.345 261.704C825.345 259.76 826.209 258.548 827.757 258.548C828.981 258.548 829.545 259.244 829.713 260.12H831.261C830.961 258.44 829.809 257.288 827.757 257.288C825.357 257.288 823.725 259.064 823.725 261.704C823.725 264.368 825.357 266.144 827.757 266.144C829.809 266.144 830.961 264.98 831.261 263.312H829.713C829.545 264.188 828.981 264.884 827.757 264.884C826.209 264.884 825.345 263.66 825.345 261.704ZM835.066 266H836.662V257.432H835.066V266ZM847.209 266V264.74H842.565V262.34H846.633V261.08H842.565V258.692H847.161V257.432H841.005V266H847.209ZM853.848 266H855.432V258.692H858.516V257.432H850.776V258.692H853.848V266ZM866.396 266V262.484L869.72 257.432H867.98L865.664 261.092H865.64L863.264 257.432H861.488L864.8 262.484V266H866.396ZM782.819 280.712C782.819 279.736 782.959 278.796 783.239 277.892C783.527 276.98 783.975 276.16 784.583 275.432H785.579C785.019 276.184 784.595 277.012 784.307 277.916C784.027 278.82 783.887 279.748 783.887 280.7C783.887 281.628 784.027 282.54 784.307 283.436C784.595 284.324 785.015 285.144 785.567 285.896H784.583C783.975 285.192 783.527 284.396 783.239 283.508C782.959 282.612 782.819 281.68 782.819 280.712ZM794.397 284L796.833 277.268H796.857V284H798.381V275.432H796.197L793.893 281.876H793.869L791.565 275.432H789.309V284H790.773V277.268H790.797L793.245 284H794.397ZM802.736 284H804.332V275.432H802.736V284ZM811.975 275.432H808.675V284H811.975C814.555 284 816.259 282.296 816.259 279.716C816.259 277.148 814.555 275.432 811.975 275.432ZM811.975 276.692C813.679 276.692 814.627 277.808 814.627 279.716C814.627 281.624 813.679 282.74 811.975 282.74H810.235V276.692H811.975ZM823.422 275.432H820.122V284H823.422C826.002 284 827.706 282.296 827.706 279.716C827.706 277.148 826.002 275.432 823.422 275.432ZM823.422 276.692C825.126 276.692 826.074 277.808 826.074 279.716C826.074 281.624 825.126 282.74 823.422 282.74H821.682V276.692H823.422ZM831.569 284H837.581V282.74H833.165V275.432H831.569V284ZM847.767 284V282.74H843.123V280.34H847.191V279.08H843.123V276.692H847.719V275.432H841.563V284H847.767ZM862.973 284H864.605L861.161 275.432H859.373L855.929 284H857.489L858.305 281.9H862.169L862.973 284ZM860.237 276.968H860.273L861.689 280.664H858.797L860.237 276.968ZM867.326 279.704C867.326 282.356 868.946 284.144 871.346 284.144C872.402 284.144 873.494 283.592 873.806 282.776L873.914 284H875.15V279.632H871.91V280.784H873.566V281.084C873.566 282.14 872.702 282.884 871.442 282.884C869.846 282.884 868.946 281.66 868.946 279.704C868.946 277.76 869.87 276.548 871.466 276.548C872.618 276.548 873.266 277.148 873.47 278.108H875.042C874.706 276.416 873.53 275.288 871.466 275.288C869.018 275.288 867.326 277.064 867.326 279.704ZM885.55 284V282.74H880.906V280.34H884.974V279.08H880.906V276.692H885.502V275.432H879.346V284H885.55ZM799.314 302H800.946L797.502 293.432H795.714L792.27 302H793.83L794.646 299.9H798.51L799.314 302ZM796.578 294.968H796.614L798.03 298.664H795.138L796.578 294.968ZM811.394 298.544V293.432H809.81V298.532C809.81 300.032 809.114 300.872 807.734 300.872C806.354 300.872 805.67 300.032 805.67 298.532V293.432H804.074V298.52C804.074 300.884 805.43 302.144 807.734 302.144C810.05 302.144 811.394 300.884 811.394 298.544ZM818.929 293.432H815.629V302H818.929C821.509 302 823.213 300.296 823.213 297.716C823.213 295.148 821.509 293.432 818.929 293.432ZM818.929 294.692C820.633 294.692 821.581 295.808 821.581 297.716C821.581 299.624 820.633 300.74 818.929 300.74H817.189V294.692H818.929ZM827.076 302H828.672V293.432H827.076V302ZM839.219 302V300.74H834.575V298.34H838.643V297.08H834.575V294.692H839.171V293.432H833.015V302H839.219ZM845.162 293.432H843.302V302H844.826V295.364H844.85L849.254 302H850.73V293.432H849.218V299.504H849.194L845.162 293.432ZM856.229 297.704C856.229 295.76 857.093 294.548 858.641 294.548C859.865 294.548 860.429 295.244 860.597 296.12H862.145C861.845 294.44 860.693 293.288 858.641 293.288C856.241 293.288 854.609 295.064 854.609 297.704C854.609 300.368 856.241 302.144 858.641 302.144C860.693 302.144 861.845 300.98 862.145 299.312H860.597C860.429 300.188 859.865 300.884 858.641 300.884C857.093 300.884 856.229 299.66 856.229 297.704ZM872.153 302V300.74H867.509V298.34H871.577V297.08H867.509V294.692H872.105V293.432H865.949V302H872.153ZM878.384 298.712C878.384 299.68 878.24 300.612 877.952 301.508C877.672 302.396 877.228 303.192 876.62 303.896H875.636C876.188 303.144 876.604 302.324 876.884 301.436C877.172 300.54 877.316 299.628 877.316 298.7C877.316 297.748 877.172 296.82 876.884 295.916C876.604 295.012 876.184 294.184 875.624 293.432H876.62C877.228 294.16 877.672 294.98 877.952 295.892C878.24 296.796 878.384 297.736 878.384 298.712Z" fill="#222222"/>
<path d="M2.832 409.432H0.972V418H2.496V411.364H2.52L6.924 418H8.4V409.432H6.888V415.504H6.864L2.832 409.432ZM18.951 418V416.74H14.307V414.34H18.375V413.08H14.307V410.692H18.903V409.432H12.747V418H18.951ZM29.7537 418H31.5057L33.8697 409.432H32.3097L30.6057 416.08H30.5817L28.9137 409.432H27.3057L25.6377 416.08H25.6137L23.8977 409.432H22.2657L24.6297 418H26.3697L28.0497 411.388H28.0737L29.7537 418ZM36.8228 415.408C36.9788 417.292 38.5508 418.144 40.5908 418.144C42.4868 418.144 43.9148 417.112 43.9148 415.552C43.9148 414.172 43.0748 413.476 41.6708 413.212L40.0148 412.888C39.0908 412.708 38.6468 412.48 38.6468 411.772C38.6468 411.016 39.2948 410.476 40.3268 410.476C41.3948 410.476 42.1388 410.944 42.2468 411.784H43.7468C43.5788 410.176 42.3548 409.288 40.3148 409.288C38.4428 409.288 37.0988 410.344 37.0988 411.868C37.0988 413.368 38.1188 413.968 39.3788 414.196L40.9508 414.484C41.9828 414.676 42.3548 415.024 42.3548 415.648C42.3548 416.512 41.5628 416.968 40.5428 416.968C39.4748 416.968 38.4668 416.572 38.3588 415.408H36.8228Z" fill="#222222"/>
<path d="M522.34 192.84C522.47 194.41 523.78 195.12 525.48 195.12C527.06 195.12 528.25 194.26 528.25 192.96C528.25 191.81 527.55 191.23 526.38 191.01L525 190.74C524.23 190.59 523.86 190.4 523.86 189.81C523.86 189.18 524.4 188.73 525.26 188.73C526.15 188.73 526.77 189.12 526.86 189.82H528.11C527.97 188.48 526.95 187.74 525.25 187.74C523.69 187.74 522.57 188.62 522.57 189.89C522.57 191.14 523.42 191.64 524.47 191.83L525.78 192.07C526.64 192.23 526.95 192.52 526.95 193.04C526.95 193.76 526.29 194.14 525.44 194.14C524.55 194.14 523.71 193.81 523.62 192.84H522.34ZM537.49 192.12V187.86H536.17V192.11C536.17 193.36 535.59 194.06 534.44 194.06C533.29 194.06 532.72 193.36 532.72 192.11V187.86H531.39V192.1C531.39 194.07 532.52 195.12 534.44 195.12C536.37 195.12 537.49 194.07 537.49 192.12ZM544.149 195C545.799 195 546.759 194.31 546.759 192.97C546.759 192.14 546.169 191.51 545.389 191.3C545.969 191.13 546.469 190.44 546.469 189.81C546.469 188.53 545.559 187.86 543.889 187.86H541.019V195H544.149ZM542.319 190.88V188.84H543.889C544.759 188.84 545.189 189.21 545.189 189.86C545.189 190.48 544.769 190.88 543.879 190.88H542.319ZM542.319 191.83H544.039C544.959 191.83 545.449 192.25 545.449 192.92C545.449 193.61 544.969 194.02 544.049 194.02H542.319V191.83ZM557.211 195C558.861 195 559.821 194.31 559.821 192.97C559.821 192.14 559.231 191.51 558.451 191.3C559.031 191.13 559.531 190.44 559.531 189.81C559.531 188.53 558.621 187.86 556.951 187.86H554.081V195H557.211ZM555.381 190.88V188.84H556.951C557.821 188.84 558.251 189.21 558.251 189.86C558.251 190.48 557.831 190.88 556.941 190.88H555.381ZM555.381 191.83H557.101C558.021 191.83 558.511 192.25 558.511 192.92C558.511 193.61 558.031 194.02 557.111 194.02H555.381V191.83ZM564.344 195V192.33H565.944L567.574 195H569.024L567.234 192.13C568.044 191.87 568.754 191.21 568.754 190.1C568.754 188.64 567.774 187.86 566.104 187.86H563.044V195H564.344ZM564.344 191.29V188.91H565.954C566.944 188.91 567.444 189.32 567.444 190.1C567.444 190.88 566.944 191.29 565.954 191.29H564.344ZM577.304 195H578.664L575.794 187.86H574.304L571.434 195H572.734L573.414 193.25H576.634L577.304 195ZM575.024 189.14H575.054L576.234 192.22H573.824L575.024 189.14ZM583.145 187.86H581.595V195H582.865V189.47H582.885L586.555 195H587.785V187.86H586.525V192.92H586.505L583.145 187.86ZM594.158 187.86H591.408V195H594.158C596.308 195 597.728 193.58 597.728 191.43C597.728 189.29 596.308 187.86 594.158 187.86ZM594.158 188.91C595.578 188.91 596.368 189.84 596.368 191.43C596.368 193.02 595.578 193.95 594.158 193.95H592.708V188.91H594.158Z" fill="white"/>
<path d="M453.408 56.148H448.458V69H453.408C457.278 69 459.834 66.444 459.834 62.574C459.834 58.722 457.278 56.148 453.408 56.148ZM453.408 58.038C455.964 58.038 457.386 59.712 457.386 62.574C457.386 65.436 455.964 67.11 453.408 67.11H450.798V58.038H453.408ZM473.734 69V67.11H466.768V63.51H472.87V61.62H466.768V58.038H473.662V56.148H464.428V69H473.734ZM489.476 63.816V56.148H487.1V63.798C487.1 66.048 486.056 67.308 483.986 67.308C481.916 67.308 480.89 66.048 480.89 63.798V56.148H478.496V63.78C478.496 67.326 480.53 69.216 483.986 69.216C487.46 69.216 489.476 67.326 489.476 63.816ZM498.463 69H500.839V58.038H505.465V56.148H493.855V58.038H498.463V69ZM508.769 65.112C509.003 67.938 511.361 69.216 514.421 69.216C517.265 69.216 519.407 67.668 519.407 65.328C519.407 63.258 518.147 62.214 516.041 61.818L513.557 61.332C512.171 61.062 511.505 60.72 511.505 59.658C511.505 58.524 512.477 57.714 514.025 57.714C515.627 57.714 516.743 58.416 516.905 59.676H519.155C518.903 57.264 517.067 55.932 514.007 55.932C511.199 55.932 509.183 57.516 509.183 59.802C509.183 62.052 510.713 62.952 512.603 63.294L514.961 63.726C516.509 64.014 517.067 64.536 517.067 65.472C517.067 66.768 515.879 67.452 514.349 67.452C512.747 67.452 511.235 66.858 511.073 65.112H508.769ZM525.784 62.556C525.784 59.64 527.08 57.822 529.402 57.822C531.238 57.822 532.084 58.866 532.336 60.18H534.658C534.208 57.66 532.48 55.932 529.402 55.932C525.802 55.932 523.354 58.596 523.354 62.556C523.354 66.552 525.802 69.216 529.402 69.216C532.48 69.216 534.208 67.47 534.658 64.968H532.336C532.084 66.282 531.238 67.326 529.402 67.326C527.08 67.326 525.784 65.49 525.784 62.556ZM539.165 69H541.559V63.42H548.147V69H550.523V56.148H548.147V61.548H541.559V56.148H539.165V69ZM555.838 69H564.856V67.11H558.232V56.148H555.838V69ZM578.935 69H581.383L576.217 56.148H573.535L568.369 69H570.709L571.933 65.85H577.729L578.935 69ZM574.831 58.452H574.885L577.009 63.996H572.671L574.831 58.452ZM588.248 56.148H585.458V69H587.744V59.046H587.78L594.386 69H596.6V56.148H594.332V65.256H594.296L588.248 56.148ZM606.871 56.148H601.921V69H606.871C610.741 69 613.297 66.444 613.297 62.574C613.297 58.722 610.741 56.148 606.871 56.148ZM606.871 58.038C609.427 58.038 610.849 59.712 610.849 62.574C610.849 65.436 609.427 67.11 606.871 67.11H604.261V58.038H606.871ZM617.891 69H620.285V63.852H626.099V61.962H620.285V58.038H626.765V56.148H617.891V69ZM642.447 63.816V56.148H640.071V63.798C640.071 66.048 639.027 67.308 636.957 67.308C634.887 67.308 633.861 66.048 633.861 63.798V56.148H631.467V63.78C631.467 67.326 633.501 69.216 636.957 69.216C640.431 69.216 642.447 67.326 642.447 63.816ZM650.389 56.148H647.599V69H649.885V59.046H649.921L656.527 69H658.741V56.148H656.473V65.256H656.437L650.389 56.148ZM672.756 69H675.636L669.822 61.728L675.132 56.148H672.396L666.456 62.61V56.148H664.062V69H666.456V65.274L668.238 63.402L672.756 69Z" fill="#222222"/>
<path d="M514.05 90L516.08 84.39H516.1V90H517.37V82.86H515.55L513.63 88.23H513.61L511.69 82.86H509.81V90H511.03V84.39H511.05L513.09 90H514.05ZM526.169 90H527.529L524.659 82.86H523.169L520.299 90H521.599L522.279 88.25H525.499L526.169 90ZM523.889 84.14H523.919L525.099 87.22H522.689L523.889 84.14ZM529.971 87.84C530.101 89.41 531.411 90.12 533.111 90.12C534.691 90.12 535.881 89.26 535.881 87.96C535.881 86.81 535.181 86.23 534.011 86.01L532.631 85.74C531.861 85.59 531.491 85.4 531.491 84.81C531.491 84.18 532.031 83.73 532.891 83.73C533.781 83.73 534.401 84.12 534.491 84.82H535.741C535.601 83.48 534.581 82.74 532.881 82.74C531.321 82.74 530.201 83.62 530.201 84.89C530.201 86.14 531.051 86.64 532.101 86.83L533.411 87.07C534.271 87.23 534.581 87.52 534.581 88.04C534.581 88.76 533.921 89.14 533.071 89.14C532.181 89.14 531.341 88.81 531.251 87.84H529.971ZM541.026 90H542.346V83.91H544.916V82.86H538.466V83.91H541.026V90ZM553.273 90V88.95H549.403V86.95H552.793V85.9H549.403V83.91H553.233V82.86H548.103V90H553.273ZM557.975 90V87.33H559.575L561.205 90H562.655L560.865 87.13C561.675 86.87 562.385 86.21 562.385 85.1C562.385 83.64 561.405 82.86 559.735 82.86H556.675V90H557.975ZM557.975 86.29V83.91H559.585C560.575 83.91 561.075 84.32 561.075 85.1C561.075 85.88 560.575 86.29 559.585 86.29H557.975ZM572.995 90C574.645 90 575.605 89.31 575.605 87.97C575.605 87.14 575.015 86.51 574.235 86.3C574.815 86.13 575.315 85.44 575.315 84.81C575.315 83.53 574.405 82.86 572.735 82.86H569.865V90H572.995ZM571.165 85.88V83.84H572.735C573.605 83.84 574.035 84.21 574.035 84.86C574.035 85.48 573.615 85.88 572.725 85.88H571.165ZM571.165 86.83H572.885C573.805 86.83 574.295 87.25 574.295 87.92C574.295 88.61 573.815 89.02 572.895 89.02H571.165V86.83ZM580.128 90V87.33H581.728L583.358 90H584.808L583.018 87.13C583.828 86.87 584.538 86.21 584.538 85.1C584.538 83.64 583.558 82.86 581.888 82.86H578.828V90H580.128ZM580.128 86.29V83.91H581.738C582.728 83.91 583.228 84.32 583.228 85.1C583.228 85.88 582.728 86.29 581.738 86.29H580.128ZM593.087 90H594.447L591.577 82.86H590.087L587.217 90H588.517L589.197 88.25H592.417L593.087 90ZM590.807 84.14H590.837L592.017 87.22H589.607L590.807 84.14ZM598.928 82.86H597.378V90H598.648V84.47H598.668L602.338 90H603.568V82.86H602.308V87.92H602.288L598.928 82.86ZM609.941 82.86H607.191V90H609.941C612.091 90 613.511 88.58 613.511 86.43C613.511 84.29 612.091 82.86 609.941 82.86ZM609.941 83.91C611.361 83.91 612.151 84.84 612.151 86.43C612.151 88.02 611.361 88.95 609.941 88.95H608.491V83.91H609.941Z" fill="#222222"/>
<path d="M797.34 192.84C797.47 194.41 798.78 195.12 800.48 195.12C802.06 195.12 803.25 194.26 803.25 192.96C803.25 191.81 802.55 191.23 801.38 191.01L800 190.74C799.23 190.59 798.86 190.4 798.86 189.81C798.86 189.18 799.4 188.73 800.26 188.73C801.15 188.73 801.77 189.12 801.86 189.82H803.11C802.97 188.48 801.95 187.74 800.25 187.74C798.69 187.74 797.57 188.62 797.57 189.89C797.57 191.14 798.42 191.64 799.47 191.83L800.78 192.07C801.64 192.23 801.95 192.52 801.95 193.04C801.95 193.76 801.29 194.14 800.44 194.14C799.55 194.14 798.71 193.81 798.62 192.84H797.34ZM812.49 192.12V187.86H811.17V192.11C811.17 193.36 810.59 194.06 809.44 194.06C808.29 194.06 807.72 193.36 807.72 192.11V187.86H806.39V192.1C806.39 194.07 807.52 195.12 809.44 195.12C811.37 195.12 812.49 194.07 812.49 192.12ZM819.149 195C820.799 195 821.759 194.31 821.759 192.97C821.759 192.14 821.169 191.51 820.389 191.3C820.969 191.13 821.469 190.44 821.469 189.81C821.469 188.53 820.559 187.86 818.889 187.86H816.019V195H819.149ZM817.319 190.88V188.84H818.889C819.759 188.84 820.189 189.21 820.189 189.86C820.189 190.48 819.769 190.88 818.879 190.88H817.319ZM817.319 191.83H819.039C819.959 191.83 820.449 192.25 820.449 192.92C820.449 193.61 819.969 194.02 819.049 194.02H817.319V191.83ZM832.211 195C833.861 195 834.821 194.31 834.821 192.97C834.821 192.14 834.231 191.51 833.451 191.3C834.031 191.13 834.531 190.44 834.531 189.81C834.531 188.53 833.621 187.86 831.951 187.86H829.081V195H832.211ZM830.381 190.88V188.84H831.951C832.821 188.84 833.251 189.21 833.251 189.86C833.251 190.48 832.831 190.88 831.941 190.88H830.381ZM830.381 191.83H832.101C833.021 191.83 833.511 192.25 833.511 192.92C833.511 193.61 833.031 194.02 832.111 194.02H830.381V191.83ZM839.344 195V192.33H840.944L842.574 195H844.024L842.234 192.13C843.044 191.87 843.754 191.21 843.754 190.1C843.754 188.64 842.774 187.86 841.104 187.86H838.044V195H839.344ZM839.344 191.29V188.91H840.954C841.944 188.91 842.444 189.32 842.444 190.1C842.444 190.88 841.944 191.29 840.954 191.29H839.344ZM852.304 195H853.664L850.794 187.86H849.304L846.434 195H847.734L848.414 193.25H851.634L852.304 195ZM850.024 189.14H850.054L851.234 192.22H848.824L850.024 189.14ZM858.145 187.86H856.595V195H857.865V189.47H857.885L861.555 195H862.785V187.86H861.525V192.92H861.505L858.145 187.86ZM869.158 187.86H866.408V195H869.158C871.308 195 872.728 193.58 872.728 191.43C872.728 189.29 871.308 187.86 869.158 187.86ZM869.158 188.91C870.578 188.91 871.368 189.84 871.368 191.43C871.368 193.02 870.578 193.95 869.158 193.95H867.708V188.91H869.158Z" fill="white"/>
<defs>
<filter id="filter0_d" x="180" y="124" width="222" height="213" filterUnits="userSpaceOnUse" color-interpolation-filters="sRGB">
<feFlood flood-opacity="0" result="BackgroundImageFix"/>
<feColorMatrix in="SourceAlpha" type="matrix" values="0 0 0 0 0 0 0 0 0 0 0 0 0 0 0 0 0 0 127 0"/>
<feOffset dy="4"/>
<feGaussianBlur stdDeviation="2"/>
<feColorMatrix type="matrix" values="0 0 0 0 0 0 0 0 0 0 0 0 0 0 0 0 0 0 0.13 0"/>
<feBlend mode="normal" in2="BackgroundImageFix" result="effect1_dropShadow"/>
<feBlend mode="normal" in="SourceGraphic" in2="effect1_dropShadow" result="shape"/>
</filter>
<filter id="filter1_d" x="449" y="124" width="222" height="213" filterUnits="userSpaceOnUse" color-interpolation-filters="sRGB">
<feFlood flood-opacity="0" result="BackgroundImageFix"/>
<feColorMatrix in="SourceAlpha" type="matrix" values="0 0 0 0 0 0 0 0 0 0 0 0 0 0 0 0 0 0 127 0"/>
<feOffset dy="4"/>
<feGaussianBlur stdDeviation="2"/>
<feColorMatrix type="matrix" values="0 0 0 0 0 0 0 0 0 0 0 0 0 0 0 0 0 0 0.13 0"/>
<feBlend mode="normal" in2="BackgroundImageFix" result="effect1_dropShadow"/>
<feBlend mode="normal" in="SourceGraphic" in2="effect1_dropShadow" result="shape"/>
</filter>
<filter id="filter2_d" x="724" y="124" width="222" height="213" filterUnits="userSpaceOnUse" color-interpolation-filters="sRGB">
<feFlood flood-opacity="0" result="BackgroundImageFix"/>
<feColorMatrix in="SourceAlpha" type="matrix" values="0 0 0 0 0 0 0 0 0 0 0 0 0 0 0 0 0 0 127 0"/>
<feOffset dy="4"/>
<feGaussianBlur stdDeviation="2"/>
<feColorMatrix type="matrix" values="0 0 0 0 0 0 0 0 0 0 0 0 0 0 0 0 0 0 0.13 0"/>
<feBlend mode="normal" in2="BackgroundImageFix" result="effect1_dropShadow"/>
<feBlend mode="normal" in="SourceGraphic" in2="effect1_dropShadow" result="shape"/>
</filter>
<linearGradient id="paint0_linear" x1="69.6875" y1="433.979" x2="1066.9" y2="450.464" gradientUnits="userSpaceOnUse">
<stop stop-color="#198AFF"/>
<stop offset="1" stop-color="#198AFF" stop-opacity="0"/>
</linearGradient>
<linearGradient id="paint1_linear" x1="1053" y1="379" x2="90.9999" y2="379" gradientUnits="userSpaceOnUse">
<stop stop-color="#FF6400"/>
<stop offset="1" stop-color="#FF0000" stop-opacity="0"/>
</linearGradient>
<linearGradient id="paint2_linear" x1="290.925" y1="125.565" x2="290.965" y2="215" gradientUnits="userSpaceOnUse">
<stop stop-color="#198AFF"/>
<stop offset="1" stop-color="#198AFF"/>
</linearGradient>
</defs>
</svg>
