<svg width="927" height="502" viewBox="0 0 927 502" fill="none" xmlns="http://www.w3.org/2000/svg">
<g clip-path="url(#clip0)">
<mask id="mask0" mask-type="alpha" maskUnits="userSpaceOnUse" x="278" y="248" width="317" height="131">
<rect x="278" y="248" width="317" height="131" fill="#C4C4C4"/>
</mask>
<g mask="url(#mask0)">
<mask id="mask1" mask-type="alpha" maskUnits="userSpaceOnUse" x="309" y="262" width="270" height="586">
<rect x="309.853" y="263.398" width="267.331" height="583.381" rx="37.4491" fill="#C4C4C4" stroke="#464646" stroke-width="1.70223"/>
</mask>
<g mask="url(#mask1)">
<rect x="309.502" y="263.047" width="268.034" height="584.083" rx="37.8002" stroke="white"/>
<path d="M325.326 317.49L396.354 317.284" stroke="#198AFF" stroke-width="10.2134"/>
<path d="M406.992 317.263L478.02 317.066" stroke="#78DE7F" stroke-width="10.2134"/>
<path d="M490.029 317.034L561.057 316.837" stroke="#FF6400" stroke-width="10.2134"/>
</g>
</g>
<path fill-rule="evenodd" clip-rule="evenodd" d="M549.281 420.785C549.281 417.864 547.906 415.267 545.77 413.611L546.422 412.76C548.81 414.611 550.35 417.516 550.35 420.785C550.35 424.028 548.833 426.917 546.473 428.768L545.816 427.921C547.926 426.265 549.281 423.683 549.281 420.785ZM545.646 420.785C545.646 419.467 545.177 418.262 544.397 417.326L545.217 416.636C546.151 417.758 546.714 419.205 546.714 420.785C546.714 422.347 546.163 423.78 545.246 424.897L544.422 424.213C545.187 423.281 545.646 422.088 545.646 420.785ZM542.62 420.785C542.62 422.082 541.575 423.133 540.286 423.133C538.996 423.133 537.951 422.082 537.951 420.785C537.951 419.488 538.996 418.437 540.286 418.437C541.575 418.437 542.62 419.488 542.62 420.785ZM534.926 420.785C534.926 419.494 535.376 418.31 536.129 417.382L535.301 416.702C534.398 417.815 533.857 419.238 533.857 420.785C533.857 422.347 534.408 423.781 535.326 424.898L536.15 424.214C535.385 423.282 534.926 422.088 534.926 420.785ZM531.29 420.786C531.29 417.888 532.643 415.309 534.75 413.652L534.092 412.805C531.737 414.657 530.221 417.543 530.221 420.786C530.221 424.013 531.724 426.887 534.061 428.74L534.723 427.896C532.631 426.238 531.29 423.67 531.29 420.786Z" fill="white"/>
<path d="M534.467 441.384H537.514V440.862H535.107V436.122H534.467V441.384ZM538.376 441.384H538.987V437.535H538.376V441.384ZM538.671 436.733C538.892 436.733 539.076 436.549 539.076 436.328C539.076 436.107 538.892 435.923 538.671 435.923C538.45 435.923 538.266 436.107 538.266 436.328C538.266 436.549 538.45 436.733 538.671 436.733ZM541.202 441.384H541.982L543.365 437.535H542.733L541.606 440.766L540.466 437.535H539.803L541.202 441.384ZM545.636 441.451C546.505 441.451 547.145 441.046 547.277 440.273H546.667C546.586 440.722 546.24 440.943 545.644 440.943C544.856 440.943 544.437 440.457 544.407 439.581H547.307V439.382C547.307 438.006 546.468 437.469 545.577 437.469C544.518 437.469 543.774 438.278 543.774 439.441V439.5C543.774 440.685 544.547 441.451 545.636 441.451ZM544.429 439.088C544.532 438.404 544.952 437.977 545.577 437.977C546.21 437.977 546.622 438.293 546.681 439.088H544.429Z" fill="white"/>
<path d="M333.467 441.383H334.107V439.042H336.875V441.383H337.515V436.12H336.875V438.505H334.107V436.12H333.467V441.383ZM338.814 441.383H339.425V437.534H338.814V441.383ZM339.108 436.731C339.329 436.731 339.513 436.547 339.513 436.327C339.513 436.106 339.329 435.922 339.108 435.922C338.887 435.922 338.703 436.106 338.703 436.327C338.703 436.547 338.887 436.731 339.108 436.731ZM342.213 442.789C343.288 442.789 344.046 442.244 344.053 441.125V437.534H343.442V438.152C343.222 437.776 342.824 437.467 342.184 437.467C341.124 437.467 340.388 438.336 340.388 439.381V439.432C340.388 440.492 341.131 441.258 342.14 441.258C342.699 441.258 343.222 440.904 343.442 440.529V441.088C343.442 441.913 342.964 442.273 342.206 442.273C341.551 442.273 341.183 442.045 341.095 441.604H340.469C340.572 442.251 341.072 442.789 342.213 442.789ZM342.206 440.75C341.558 440.75 341.021 440.249 341.021 439.41V439.351C341.021 438.542 341.477 437.975 342.243 437.975C342.993 437.975 343.464 438.476 343.464 439.337V439.388C343.464 440.249 342.92 440.75 342.206 440.75ZM345.289 441.383H345.9V439.05C345.9 438.358 346.408 437.997 346.975 437.997C347.593 437.997 347.88 438.299 347.88 438.976V441.383H348.491V439.02C348.491 437.902 347.932 437.467 347.137 437.467C346.504 437.467 346.077 437.784 345.9 438.144V435.694H345.289V441.383ZM349.703 441.383H350.321V435.694H349.703V441.383ZM351.586 441.383H352.197V437.534H351.586V441.383ZM351.88 436.731C352.101 436.731 352.285 436.547 352.285 436.327C352.285 436.106 352.101 435.922 351.88 435.922C351.659 435.922 351.475 436.106 351.475 436.327C351.475 436.547 351.659 436.731 351.88 436.731ZM354.985 442.789C356.06 442.789 356.818 442.244 356.825 441.125V437.534H356.214V438.152C355.994 437.776 355.596 437.467 354.956 437.467C353.896 437.467 353.16 438.336 353.16 439.381V439.432C353.16 440.492 353.903 441.258 354.912 441.258C355.471 441.258 355.994 440.904 356.214 440.529V441.088C356.214 441.913 355.736 442.273 354.978 442.273C354.323 442.273 353.955 442.045 353.867 441.604H353.241C353.344 442.251 353.844 442.789 354.985 442.789ZM354.978 440.75C354.33 440.75 353.793 440.249 353.793 439.41V439.351C353.793 438.542 354.249 437.975 355.015 437.975C355.765 437.975 356.236 438.476 356.236 439.337V439.388C356.236 440.249 355.692 440.75 354.978 440.75ZM358.061 441.383H358.672V439.05C358.672 438.358 359.18 437.997 359.747 437.997C360.365 437.997 360.652 438.299 360.652 438.976V441.383H361.263V439.02C361.263 437.902 360.704 437.467 359.909 437.467C359.276 437.467 358.849 437.784 358.672 438.144V435.694H358.061V441.383ZM363.63 441.434C363.88 441.434 364.028 441.398 364.153 441.353V440.838C364.02 440.89 363.873 440.919 363.682 440.919C363.373 440.919 363.203 440.735 363.203 440.36V438.049H364.101V437.534H363.203V436.658H362.592V437.534H362.04V438.049H362.592V440.419C362.592 441.022 362.931 441.434 363.63 441.434ZM366.269 441.449C367.203 441.449 367.682 440.978 367.682 440.279C367.682 439.462 367.122 439.285 366.327 439.138C365.621 439.013 365.429 438.873 365.429 438.527C365.429 438.196 365.717 437.975 366.158 437.975C366.644 437.975 366.879 438.159 366.968 438.579H367.557C367.453 437.747 366.857 437.467 366.165 437.467C365.562 437.467 364.863 437.835 364.863 438.549C364.863 439.219 365.201 439.499 366.202 439.683C366.798 439.793 367.1 439.926 367.1 440.33C367.1 440.743 366.843 440.941 366.261 440.941C365.643 440.941 365.4 440.654 365.356 440.198H364.76C364.797 440.985 365.349 441.449 366.269 441.449Z" fill="white"/>
<path d="M349.35 412.944C349.425 412.719 349.636 412.567 349.874 412.567C350.111 412.567 350.322 412.719 350.397 412.944L352.169 418.249H357.912C358.153 418.249 358.365 418.405 358.438 418.634C358.511 418.863 358.427 419.113 358.231 419.252L353.597 422.527L355.365 427.82C355.441 428.047 355.362 428.296 355.171 428.438C354.979 428.581 354.718 428.584 354.523 428.446L349.874 425.159L345.224 428.446C345.029 428.584 344.768 428.581 344.576 428.438C344.385 428.296 344.306 428.047 344.382 427.82L346.15 422.527L341.516 419.252C341.32 419.113 341.236 418.863 341.309 418.634C341.382 418.405 341.595 418.249 341.835 418.249H347.578L349.35 412.944Z" stroke="white" stroke-width="1.10398" stroke-linejoin="round"/>
<path d="M425.041 440.921C423.945 440.921 423.098 440.053 423.098 438.779V438.72C423.098 437.469 423.805 436.571 425.027 436.571C426.241 436.571 426.933 437.528 426.933 438.706V438.765C426.933 440.038 426.212 440.921 425.041 440.921ZM425.041 441.451C426.572 441.451 427.595 440.259 427.595 438.772V438.713C427.595 437.234 426.572 436.056 425.027 436.056C423.481 436.056 422.436 437.234 422.436 438.728V438.787C422.436 440.259 423.489 441.451 425.041 441.451ZM428.615 441.385H429.226V439.052C429.226 438.36 429.734 437.999 430.3 437.999C430.919 437.999 431.206 438.301 431.206 438.978V441.385H431.817V439.022C431.817 437.904 431.257 437.469 430.462 437.469C429.829 437.469 429.403 437.786 429.226 438.146V437.536H428.615V441.385ZM433.698 440.862V436.638H434.412C435.862 436.638 436.451 437.491 436.451 438.706V438.765C436.451 440.053 435.774 440.862 434.419 440.862H433.698ZM433.058 441.385H434.434C436.274 441.385 437.113 440.229 437.113 438.772V438.706C437.113 437.241 436.259 436.122 434.449 436.122H433.058V441.385ZM439.713 441.451C440.582 441.451 441.222 441.046 441.355 440.273H440.744C440.663 440.722 440.317 440.943 439.721 440.943C438.933 440.943 438.514 440.457 438.484 439.582H441.384V439.383C441.384 438.007 440.545 437.469 439.654 437.469C438.595 437.469 437.851 438.279 437.851 439.442V439.501C437.851 440.686 438.624 441.451 439.713 441.451ZM438.506 439.088C438.609 438.404 439.029 437.977 439.654 437.977C440.287 437.977 440.7 438.294 440.758 439.088H438.506ZM442.321 441.385H442.932V439.03C442.932 438.338 443.447 437.999 443.948 437.999C444.478 437.999 444.765 438.279 444.765 438.956V441.385H445.376V439.03C445.376 438.338 445.891 437.999 446.391 437.999C446.921 437.999 447.208 438.279 447.208 438.956V441.385H447.819V439C447.819 437.881 447.216 437.469 446.524 437.469C446.046 437.469 445.471 437.69 445.206 438.191C445.008 437.675 444.574 437.469 444.08 437.469C443.528 437.469 443.109 437.764 442.932 438.124V437.536H442.321V441.385ZM449.984 441.451C450.551 441.451 450.897 441.26 451.184 440.899V441.385H451.795V438.846C451.795 437.771 451.125 437.469 450.389 437.469C449.646 437.469 448.946 437.793 448.865 438.669H449.476C449.535 438.198 449.83 437.977 450.36 437.977C450.948 437.977 451.184 438.235 451.184 438.846V439.125H450.632C449.646 439.125 448.704 439.427 448.704 440.318C448.704 441.105 449.27 441.451 449.984 441.451ZM450.043 440.965C449.506 440.965 449.314 440.715 449.314 440.318C449.314 439.751 449.881 439.56 450.654 439.56H451.184V440.038C451.184 440.634 450.691 440.965 450.043 440.965ZM452.995 441.385H453.606V439.052C453.606 438.36 454.113 437.999 454.68 437.999C455.298 437.999 455.585 438.301 455.585 438.978V441.385H456.196V439.022C456.196 437.904 455.637 437.469 454.842 437.469C454.209 437.469 453.782 437.786 453.606 438.146V437.536H452.995V441.385ZM458.843 441.451C459.403 441.451 459.94 441.098 460.161 440.722V441.385H460.772V435.696H460.161V438.154C459.94 437.778 459.542 437.469 458.902 437.469C457.842 437.469 457.106 438.301 457.106 439.479V439.537C457.106 440.737 457.835 441.451 458.843 441.451ZM458.91 440.943C458.262 440.943 457.739 440.479 457.739 439.508V439.449C457.739 438.514 458.196 437.977 458.961 437.977C459.712 437.977 460.183 438.441 460.183 439.427V439.486C460.183 440.472 459.623 440.943 458.91 440.943Z" fill="white"/>
<path fill-rule="evenodd" clip-rule="evenodd" d="M441.479 412.806V410.998L444.955 413.453L441.479 415.844V413.87C438.122 414.265 435.517 417.135 435.517 420.617C435.517 424.368 438.541 427.409 442.271 427.409C446.001 427.409 449.025 424.368 449.025 420.617C449.025 418.662 448.205 416.901 446.89 415.661L447.61 414.889C449.128 416.321 450.077 418.358 450.077 420.617C450.077 424.953 446.582 428.468 442.271 428.468C437.96 428.468 434.465 424.953 434.465 420.617C434.465 416.55 437.54 413.205 441.479 412.806Z" fill="white"/>
<rect x="309.5" y="403.5" width="268" height="44" stroke="white"/>
<path d="M790.688 159.716C790.688 157.148 789.116 155.288 786.596 155.288C784.076 155.288 782.504 157.148 782.504 159.716C782.504 162.296 784.076 164.144 786.596 164.144C789.116 164.144 790.688 162.296 790.688 159.716ZM789.068 159.716C789.068 161.624 788.228 162.884 786.596 162.884C784.952 162.884 784.124 161.624 784.124 159.716C784.124 157.82 784.952 156.548 786.596 156.548C788.228 156.548 789.068 157.82 789.068 159.716ZM796.408 155.432H794.548V164H796.072V157.364H796.096L800.5 164H801.976V155.432H800.464V161.504H800.44L796.408 155.432ZM814.542 155.432H811.242V164H814.542C817.122 164 818.826 162.296 818.826 159.716C818.826 157.148 817.122 155.432 814.542 155.432ZM814.542 156.692C816.246 156.692 817.194 157.808 817.194 159.716C817.194 161.624 816.246 162.74 814.542 162.74H812.802V156.692H814.542ZM828.893 164V162.74H824.249V160.34H828.317V159.08H824.249V156.692H828.845V155.432H822.689V164H828.893ZM838.064 164L840.5 157.268H840.524V164H842.048V155.432H839.864L837.56 161.876H837.536L835.232 155.432H832.976V164H834.44V157.268H834.464L836.912 164H838.064ZM852.607 164H854.239L850.795 155.432H849.007L845.563 164H847.123L847.939 161.9H851.803L852.607 164ZM849.871 156.968H849.907L851.323 160.664H848.431L849.871 156.968ZM859.616 155.432H857.756V164H859.28V157.364H859.304L863.708 164H865.184V155.432H863.672V161.504H863.648L859.616 155.432ZM872.831 155.432H869.531V164H872.831C875.411 164 877.115 162.296 877.115 159.716C877.115 157.148 875.411 155.432 872.831 155.432ZM872.831 156.692C874.535 156.692 875.483 157.808 875.483 159.716C875.483 161.624 874.535 162.74 872.831 162.74H871.091V156.692H872.831Z" fill="white"/>
<path d="M86.688 159.716C86.688 157.148 85.116 155.288 82.596 155.288C80.076 155.288 78.504 157.148 78.504 159.716C78.504 162.296 80.076 164.144 82.596 164.144C85.116 164.144 86.688 162.296 86.688 159.716ZM85.068 159.716C85.068 161.624 84.228 162.884 82.596 162.884C80.952 162.884 80.124 161.624 80.124 159.716C80.124 157.82 80.952 156.548 82.596 156.548C84.228 156.548 85.068 157.82 85.068 159.716ZM92.4078 155.432H90.5478V164H92.0718V157.364H92.0958L96.4998 164H97.9758V155.432H96.4638V161.504H96.4398L92.4078 155.432ZM110.542 155.432H107.242V164H110.542C113.122 164 114.826 162.296 114.826 159.716C114.826 157.148 113.122 155.432 110.542 155.432ZM110.542 156.692C112.246 156.692 113.194 157.808 113.194 159.716C113.194 161.624 112.246 162.74 110.542 162.74H108.802V156.692H110.542ZM124.893 164V162.74H120.249V160.34H124.317V159.08H120.249V156.692H124.845V155.432H118.689V164H124.893ZM134.064 164L136.5 157.268H136.524V164H138.048V155.432H135.864L133.56 161.876H133.536L131.232 155.432H128.976V164H130.44V157.268H130.464L132.912 164H134.064ZM148.607 164H150.239L146.795 155.432H145.007L141.563 164H143.123L143.939 161.9H147.803L148.607 164ZM145.871 156.968H145.907L147.323 160.664H144.431L145.871 156.968ZM155.616 155.432H153.756V164H155.28V157.364H155.304L159.708 164H161.184V155.432H159.672V161.504H159.648L155.616 155.432ZM168.831 155.432H165.531V164H168.831C171.411 164 173.115 162.296 173.115 159.716C173.115 157.148 171.411 155.432 168.831 155.432ZM168.831 156.692C170.535 156.692 171.483 157.808 171.483 159.716C171.483 161.624 170.535 162.74 168.831 162.74H167.091V156.692H168.831Z" fill="white"/>
<path d="M2.972 417H4.568V413.28H8.96V417H10.544V408.432H8.96V412.032H4.568V408.432H2.972V417ZM14.8876 417H16.4836V408.432H14.8876V417ZM20.3587 412.704C20.3587 415.356 21.9787 417.144 24.3787 417.144C25.4347 417.144 26.5267 416.592 26.8387 415.776L26.9467 417H28.1827V412.632H24.9427V413.784H26.5987V414.084C26.5987 415.14 25.7347 415.884 24.4747 415.884C22.8787 415.884 21.9787 414.66 21.9787 412.704C21.9787 410.76 22.9027 409.548 24.4987 409.548C25.6507 409.548 26.2987 410.148 26.5027 411.108H28.0747C27.7387 409.416 26.5627 408.288 24.4987 408.288C22.0507 408.288 20.3587 410.064 20.3587 412.704ZM32.379 417H33.975V413.28H38.367V417H39.951V408.432H38.367V412.032H33.975V408.432H32.379V417ZM44.2947 417H50.3067V415.74H45.8907V408.432H44.2947V417ZM54.2884 417H55.8844V408.432H54.2884V417ZM59.7595 412.704C59.7595 415.356 61.3795 417.144 63.7795 417.144C64.8355 417.144 65.9275 416.592 66.2395 415.776L66.3475 417H67.5835V412.632H64.3435V413.784H65.9995V414.084C65.9995 415.14 65.1355 415.884 63.8755 415.884C62.2795 415.884 61.3795 414.66 61.3795 412.704C61.3795 410.76 62.3035 409.548 63.8995 409.548C65.0515 409.548 65.6995 410.148 65.9035 411.108H67.4755C67.1395 409.416 65.9635 408.288 63.8995 408.288C61.4515 408.288 59.7595 410.064 59.7595 412.704ZM71.7798 417H73.3758V413.28H77.7678V417H79.3518V408.432H77.7678V412.032H73.3758V408.432H71.7798V417ZM86.2514 417H87.8354V409.692H90.9194V408.432H83.1794V409.692H86.2514V417ZM93.9221 414.408C94.0781 416.292 95.6501 417.144 97.6901 417.144C99.5861 417.144 101.014 416.112 101.014 414.552C101.014 413.172 100.174 412.476 98.7701 412.212L97.1141 411.888C96.1901 411.708 95.7461 411.48 95.7461 410.772C95.7461 410.016 96.3941 409.476 97.4261 409.476C98.4941 409.476 99.2381 409.944 99.3461 410.784H100.846C100.678 409.176 99.4541 408.288 97.4141 408.288C95.5421 408.288 94.1981 409.344 94.1981 410.868C94.1981 412.368 95.2181 412.968 96.4781 413.196L98.0501 413.484C99.0821 413.676 99.4541 414.024 99.4541 414.648C99.4541 415.512 98.6621 415.968 97.6421 415.968C96.5741 415.968 95.5661 415.572 95.4581 414.408H93.9221Z" fill="white"/>
<g clip-path="url(#clip1)">
<mask id="mask2" mask-type="alpha" maskUnits="userSpaceOnUse" x="328" y="0" width="213" height="130">
<path d="M328 0H541V130H328V0Z" fill="#C4C4C4"/>
</mask>
<g mask="url(#mask2)">
<mask id="mask3" mask-type="alpha" maskUnits="userSpaceOnUse" x="350" y="1" width="106" height="230">
<rect x="350.476" y="1.69029" width="104.705" height="228.491" rx="14.6676" fill="#C4C4C4" stroke="#464646" stroke-width="0.666708"/>
</mask>
<g mask="url(#mask3)">
<rect x="350.643" y="1.85693" width="104.372" height="228.158" rx="14.5009" stroke="white"/>
</g>
<rect x="423.5" y="34.5" width="104.372" height="228.158" rx="14.5009" fill="black" stroke="white"/>
<path opacity="0.8" fill-rule="evenodd" clip-rule="evenodd" d="M412.737 73.2113C412.737 69.5707 411.014 66.3345 408.335 64.2703L409.153 63.209C412.147 65.5159 414.077 69.1374 414.077 73.2113C414.077 77.2533 412.175 80.8541 409.218 83.1613L408.393 82.1049C411.039 80.041 412.737 76.8235 412.737 73.2113ZM408.18 73.2114C408.18 71.5686 407.592 70.0665 406.615 68.8999L407.642 68.0397C408.813 69.4384 409.52 71.2425 409.52 73.2114C409.52 75.1578 408.829 76.9443 407.678 78.3368L406.645 77.4836C407.604 76.3224 408.18 74.8351 408.18 73.2114ZM404.387 73.2109C404.387 74.8273 403.076 76.1371 401.461 76.1371C399.844 76.1371 398.534 74.8273 398.534 73.2109C398.534 71.5946 399.844 70.2839 401.461 70.2839C403.076 70.2839 404.387 71.5946 404.387 73.2109ZM394.742 73.2095C394.742 71.6004 395.307 70.1246 396.25 68.9676L395.211 68.121C394.08 69.5084 393.402 71.2809 393.402 73.2095C393.402 75.1558 394.093 76.9434 395.243 78.336L396.276 77.4828C395.317 76.3217 394.742 74.8333 394.742 73.2095ZM390.184 73.2098C390.184 69.5988 391.881 66.3845 394.522 64.3192L393.697 63.2637C390.745 65.5718 388.844 69.1689 388.844 73.2098C388.844 77.2324 390.728 80.8149 393.658 83.1242L394.487 82.072C391.865 80.0055 390.184 76.8044 390.184 73.2098Z" fill="#78DE7F"/>
<path fill-rule="evenodd" clip-rule="evenodd" d="M473.728 96.5676V94L478.694 97.4876L473.728 100.883V98.0804C468.932 98.6411 465.211 102.718 465.211 107.664C465.211 112.993 469.531 117.314 474.86 117.314C480.19 117.314 484.51 112.993 484.51 107.664C484.51 104.888 483.338 102.386 481.46 100.624L482.489 99.5275C484.657 101.561 486.014 104.455 486.014 107.664C486.014 113.824 481.02 118.817 474.86 118.817C468.701 118.817 463.707 113.824 463.707 107.664C463.707 101.887 468.1 97.1353 473.728 96.5676Z" fill="#78DE7F"/>
</g>
</g>
<path d="M436.688 159.716C436.688 157.148 435.116 155.288 432.596 155.288C430.076 155.288 428.504 157.148 428.504 159.716C428.504 162.296 430.076 164.144 432.596 164.144C435.116 164.144 436.688 162.296 436.688 159.716ZM435.068 159.716C435.068 161.624 434.228 162.884 432.596 162.884C430.952 162.884 430.124 161.624 430.124 159.716C430.124 157.82 430.952 156.548 432.596 156.548C434.228 156.548 435.068 157.82 435.068 159.716ZM442.408 155.432H440.548V164H442.072V157.364H442.096L446.5 164H447.976V155.432H446.464V161.504H446.44L442.408 155.432ZM460.542 155.432H457.242V164H460.542C463.122 164 464.826 162.296 464.826 159.716C464.826 157.148 463.122 155.432 460.542 155.432ZM460.542 156.692C462.246 156.692 463.194 157.808 463.194 159.716C463.194 161.624 462.246 162.74 460.542 162.74H458.802V156.692H460.542ZM474.893 164V162.74H470.249V160.34H474.317V159.08H470.249V156.692H474.845V155.432H468.689V164H474.893ZM484.064 164L486.5 157.268H486.524V164H488.048V155.432H485.864L483.56 161.876H483.536L481.232 155.432H478.976V164H480.44V157.268H480.464L482.912 164H484.064ZM498.607 164H500.239L496.795 155.432H495.007L491.563 164H493.123L493.939 161.9H497.803L498.607 164ZM495.871 156.968H495.907L497.323 160.664H494.431L495.871 156.968ZM505.616 155.432H503.756V164H505.28V157.364H505.304L509.708 164H511.184V155.432H509.672V161.504H509.648L505.616 155.432ZM518.831 155.432H515.531V164H518.831C521.411 164 523.115 162.296 523.115 159.716C523.115 157.148 521.411 155.432 518.831 155.432ZM518.831 156.692C520.535 156.692 521.483 157.808 521.483 159.716C521.483 161.624 520.535 162.74 518.831 162.74H517.091V156.692H518.831Z" fill="white"/>
<path d="M356.972 164H362.984V162.74H358.568V155.432H356.972V164ZM366.966 164H368.562V155.432H366.966V164ZM375.449 164H377.225L380.621 155.432H379.001L376.385 162.296H376.361L373.757 155.432H372.065L375.449 164ZM390.345 164V162.74H385.701V160.34H389.769V159.08H385.701V156.692H390.297V155.432H384.141V164H390.345Z" fill="white"/>
<path d="M708.972 164H714.984V162.74H710.568V155.432H708.972V164ZM718.966 164H720.562V155.432H718.966V164ZM727.449 164H729.225L732.621 155.432H731.001L728.385 162.296H728.361L725.757 155.432H724.065L727.449 164ZM742.345 164V162.74H737.701V160.34H741.769V159.08H737.701V156.692H742.297V155.432H736.141V164H742.345Z" fill="white"/>
<path d="M6.972 164H12.984V162.74H8.568V155.432H6.972V164ZM16.9657 164H18.5617V155.432H16.9657V164ZM25.4488 164H27.2248L30.6208 155.432H29.0008L26.3848 162.296H26.3608L23.7568 155.432H22.0648L25.4488 164ZM40.3448 164V162.74H35.7008V160.34H39.7688V159.08H35.7008V156.692H40.2968V155.432H34.1408V164H40.3448Z" fill="white"/>
<path d="M443 231L443 192" stroke="white"/>
<path d="M363 219.5L91 219.5L91 191" stroke="white"/>
<path d="M350 465.974L350 475L54 475L54 444" stroke="white"/>
<path d="M442 465.974L442 475L746 475L746 444" stroke="white"/>
<path d="M540 484.97L540 494L873 494L873 444" stroke="white"/>
<path d="M526 219L798 219L798 190.999" stroke="white"/>
<path d="M455.5 202.186L443 191.468L430.5 202.468" stroke="white" stroke-linecap="round" stroke-linejoin="round"/>
<path d="M103.5 201.637L91 190.919L78.5 201.919" stroke="white" stroke-linecap="round" stroke-linejoin="round"/>
<path d="M66.5 453.966L54 443.248L41.5 454.248" stroke="white" stroke-linecap="round" stroke-linejoin="round"/>
<path d="M733.5 454.462L746 443.744L758.5 454.744" stroke="white" stroke-linecap="round" stroke-linejoin="round"/>
<path d="M860.5 454.462L873 443.744L885.5 454.744" stroke="white" stroke-linecap="round" stroke-linejoin="round"/>
<path d="M785.5 201.822L798 191.104L810.5 202.104" stroke="white" stroke-linecap="round" stroke-linejoin="round"/>
<g clip-path="url(#clip2)">
<mask id="mask4" mask-type="alpha" maskUnits="userSpaceOnUse" x="-21" y="0" width="213" height="130">
<path d="M-21 0H192V130H-21V0Z" fill="#C4C4C4"/>
</mask>
<g mask="url(#mask4)">
<mask id="mask5" mask-type="alpha" maskUnits="userSpaceOnUse" x="1" y="1" width="106" height="230">
<rect x="1.60547" y="1.85693" width="104.372" height="228.158" rx="14.5009" fill="#C4C4C4" stroke="#464646"/>
</mask>
<g mask="url(#mask5)">
<rect x="1.60547" y="1.8584" width="104.372" height="228.158" rx="14.5009" stroke="white"/>
</g>
<mask id="mask6" mask-type="alpha" maskUnits="userSpaceOnUse" x="73" y="26" width="107" height="244">
<rect x="73.9408" y="26.4071" width="104.793" height="243.208" rx="14.6676" fill="white" stroke="#464646" stroke-width="0.666708"/>
</mask>
<g mask="url(#mask6)">
<rect x="74.1074" y="31.5171" width="104.372" height="228.158" rx="14.5009" fill="black" stroke="white"/>
</g>
</g>
</g>
<mask id="mask7" mask-type="alpha" maskUnits="userSpaceOnUse" x="-21" y="240" width="148" height="139">
<path d="M-20.2131 241.392H126.414V378.504H-20.2131V241.392Z" fill="#C4C4C4" stroke="white" stroke-width="0.851117"/>
</mask>
<g mask="url(#mask7)">
<mask id="mask8" mask-type="alpha" maskUnits="userSpaceOnUse" x="1" y="262" width="106" height="230">
<rect x="1.94078" y="262.722" width="104.705" height="228.491" rx="14.6676" fill="#C4C4C4" stroke="white" stroke-width="0.666708"/>
</mask>
<g mask="url(#mask8)">
<rect x="2.10742" y="262.888" width="104.372" height="228.158" rx="14.5009" stroke="white"/>
</g>
</g>
<g clip-path="url(#clip3)">
<mask id="mask9" mask-type="alpha" maskUnits="userSpaceOnUse" x="696" y="1" width="106" height="230">
<rect x="696.515" y="1.69029" width="104.705" height="228.491" rx="14.6676" fill="#C4C4C4" stroke="#464646" stroke-width="0.666708"/>
</mask>
<g mask="url(#mask9)">
<rect x="696.682" y="1.85693" width="104.372" height="228.158" rx="14.5009" stroke="white"/>
</g>
<mask id="mask10" mask-type="alpha" maskUnits="userSpaceOnUse" x="768" y="26" width="107" height="244">
<rect x="769.017" y="26.4071" width="104.793" height="243.208" rx="14.6676" fill="white" stroke="#464646" stroke-width="0.666708"/>
</mask>
<g mask="url(#mask10)">
<rect x="769.184" y="31.5171" width="104.372" height="228.158" rx="14.5009" fill="black" stroke="white"/>
</g>
</g>
<path opacity="0.8" fill-rule="evenodd" clip-rule="evenodd" d="M67.6977 79.2113C67.6977 75.5707 65.9745 72.3345 63.2958 70.2703L64.1136 69.209C67.1073 71.5159 69.0375 75.1374 69.0375 79.2113C69.0375 83.2533 67.1355 86.8541 64.1782 89.1613L63.354 88.1049C65.9996 86.041 67.6977 82.8235 67.6977 79.2113ZM63.1403 79.2114C63.1403 77.5686 62.5523 76.0665 61.5753 74.8999L62.6025 74.0397C63.774 75.4384 64.4802 77.2425 64.4802 79.2114C64.4802 81.1578 63.7891 82.9443 62.639 84.3368L61.6059 83.4836C62.565 82.3224 63.1403 80.8351 63.1403 79.2114ZM59.3482 79.2109C59.3482 80.8273 58.0375 82.1371 56.4221 82.1371C54.8048 82.1371 53.495 80.8273 53.495 79.2109C53.495 77.5946 54.8048 76.2839 56.4221 76.2839C58.0375 76.2839 59.3482 77.5946 59.3482 79.2109ZM49.7026 79.2095C49.7026 77.6004 50.2675 76.1246 51.2108 74.9676L50.1724 74.121C49.0412 75.5084 48.3628 77.2809 48.3628 79.2095C48.3628 81.1558 49.0538 82.9434 50.204 84.336L51.237 83.4828C50.278 82.3217 49.7026 80.8333 49.7026 79.2095ZM45.1445 79.2098C45.1445 75.5988 46.8415 72.3845 49.483 70.3192L48.6577 69.2637C45.7056 71.5718 43.8047 75.1689 43.8047 79.2098C43.8047 83.2324 45.6885 86.8149 48.6186 89.1242L49.448 88.072C46.8262 86.0055 45.1445 82.8044 45.1445 79.2098Z" fill="#198AFF"/>
<path opacity="0.8" fill-rule="evenodd" clip-rule="evenodd" d="M764.917 79.2113C764.917 75.5707 763.372 72.3345 760.97 70.2703L761.704 69.209C764.388 71.5159 766.119 75.1374 766.119 79.2113C766.119 83.2533 764.413 86.8541 761.761 89.1613L761.022 88.1049C763.395 86.041 764.917 82.8235 764.917 79.2113ZM760.831 79.2113C760.831 77.5685 760.303 76.0664 759.427 74.8998L760.348 74.0396C761.399 75.4383 762.032 77.2424 762.032 79.2113C762.032 81.1577 761.412 82.9442 760.381 84.3367L759.455 83.4835C760.315 82.3223 760.831 80.835 760.831 79.2113ZM757.429 79.2107C757.429 80.8271 756.254 82.1369 754.806 82.1369C753.355 82.1369 752.181 80.8271 752.181 79.2107C752.181 77.5944 753.355 76.2837 754.806 76.2837C756.254 76.2837 757.429 77.5944 757.429 79.2107ZM748.78 79.2096C748.78 77.6005 749.287 76.1247 750.133 74.9677L749.202 74.1211C748.187 75.5085 747.579 77.281 747.579 79.2096C747.579 81.1559 748.199 82.9436 749.23 84.3362L750.156 83.4829C749.296 82.3218 748.78 80.8334 748.78 79.2096ZM744.694 79.2098C744.694 75.5988 746.215 72.3845 748.584 70.3192L747.844 69.2637C745.197 71.5719 743.492 75.1689 743.492 79.2098C743.492 83.2324 745.181 86.8149 747.809 89.1243L748.553 88.072C746.202 86.0056 744.694 82.8044 744.694 79.2098Z" fill="#FF6400"/>
<path d="M853.695 417H859.707V415.74H855.291V408.432H853.695V417ZM863.688 417H865.284V408.432H863.688V417ZM872.171 417H873.947L877.343 408.432H875.723L873.107 415.296H873.083L870.479 408.432H868.787L872.171 417ZM887.067 417V415.74H882.423V413.34H886.491V412.08H882.423V409.692H887.019V408.432H880.863V417H887.067Z" fill="white"/>
<mask id="mask11" mask-type="alpha" maskUnits="userSpaceOnUse" x="799" y="241" width="148" height="139">
<path d="M799.594 242.392H946.221V379.504H799.594V242.392Z" fill="#C4C4C4" stroke="white" stroke-width="0.851117"/>
</mask>
<g mask="url(#mask11)">
<rect x="821.912" y="263.889" width="104.372" height="228.158" rx="14.5009" stroke="white"/>
</g>
<path opacity="0.8" fill-rule="evenodd" clip-rule="evenodd" d="M885.678 338.479C885.678 334.839 883.955 331.603 881.277 329.538L882.094 328.477C885.088 330.784 887.018 334.406 887.018 338.479C887.018 342.521 885.116 346.122 882.159 348.429L881.335 347.373C883.98 345.309 885.678 342.092 885.678 338.479ZM881.121 338.479C881.121 336.837 880.533 335.335 879.556 334.168L880.583 333.308C881.754 334.706 882.46 336.511 882.46 338.479C882.46 340.426 881.769 342.212 880.619 343.605L879.586 342.752C880.545 341.59 881.121 340.103 881.121 338.479ZM877.328 338.479C877.328 340.095 876.018 341.405 874.402 341.405C872.785 341.405 871.475 340.095 871.475 338.479C871.475 336.863 872.785 335.552 874.402 335.552C876.018 335.552 877.328 336.863 877.328 338.479ZM867.683 338.478C867.683 336.868 868.248 335.393 869.191 334.236L868.153 333.389C867.021 334.776 866.343 336.549 866.343 338.478C866.343 340.424 867.034 342.212 868.184 343.604L869.217 342.751C868.258 341.59 867.683 340.101 867.683 338.478ZM863.125 338.48C863.125 334.869 864.822 331.655 867.463 329.59L866.638 328.534C863.686 330.842 861.785 334.439 861.785 338.48C861.785 342.503 863.669 346.085 866.599 348.395L867.428 347.342C864.807 345.276 863.125 342.075 863.125 338.48Z" fill="#9F9F9F"/>
<path fill-rule="evenodd" clip-rule="evenodd" d="M127.689 96.5286V93.9609L132.655 97.4485L127.689 100.844V98.0413C122.893 98.602 119.172 102.679 119.172 107.625C119.172 112.954 123.492 117.275 128.821 117.275C134.151 117.275 138.471 112.954 138.471 107.625C138.471 104.848 137.299 102.347 135.421 100.585L136.45 99.4884C138.618 101.522 139.975 104.416 139.975 107.625C139.975 113.785 134.981 118.778 128.821 118.778C122.661 118.778 117.668 113.785 117.668 107.625C117.668 101.848 122.061 97.0962 127.689 96.5286Z" fill="#198AFF"/>
<path fill-rule="evenodd" clip-rule="evenodd" d="M827.767 97.0569V93.9609L832.733 97.4485L827.767 100.844V98.5696C822.971 99.1304 819.25 103.207 819.25 108.153C819.25 113.483 823.57 117.803 828.899 117.803C834.229 117.803 838.549 113.483 838.549 108.153C838.549 105.377 837.377 102.875 835.499 101.114L836.528 100.017C838.696 102.051 840.053 104.944 840.053 108.153C840.053 114.313 835.059 119.307 828.899 119.307C822.74 119.307 817.746 114.313 817.746 108.153C817.746 102.376 822.139 97.6245 827.767 97.0569Z" fill="#FF6400"/>
<path opacity="0.8" d="M57.8306 325.771C57.9284 325.485 58.1974 325.293 58.5 325.293C58.8026 325.293 59.0716 325.485 59.1694 325.771L61.4846 332.55H69C69.3095 332.55 69.5831 332.751 69.6753 333.047C69.7675 333.342 69.6568 333.663 69.4022 333.839L63.353 338.02L65.6588 344.771C65.7575 345.06 65.6596 345.38 65.4161 345.564C65.1725 345.748 64.8383 345.756 64.5871 345.582L58.5 341.375L52.4129 345.582C52.1617 345.756 51.8275 345.748 51.5839 345.564C51.3404 345.38 51.2425 345.06 51.3412 344.771L53.647 338.02L47.5978 333.839C47.3432 333.663 47.2325 333.342 47.3247 333.047C47.4169 332.751 47.6905 332.55 48 332.55H55.5154L57.8306 325.771Z" stroke="#78DE7F" stroke-width="1.41478" stroke-linejoin="round"/>
<path opacity="0.8" d="M31.8306 325.771C31.9284 325.485 32.1974 325.293 32.5 325.293C32.8026 325.293 33.0716 325.485 33.1694 325.771L35.4846 332.55H43C43.3095 332.55 43.5831 332.751 43.6753 333.047C43.7675 333.342 43.6568 333.663 43.4022 333.839L37.353 338.02L39.6588 344.771C39.7575 345.06 39.6596 345.38 39.4161 345.564C39.1725 345.748 38.8383 345.756 38.5871 345.582L32.5 341.375L26.4129 345.582C26.1617 345.756 25.8275 345.748 25.5839 345.564C25.3404 345.38 25.2425 345.06 25.3412 344.771L27.647 338.02L21.5978 333.839C21.3432 333.663 21.2325 333.342 21.3247 333.047C21.4169 332.751 21.6905 332.55 22 332.55H29.5154L31.8306 325.771Z" stroke="#198AFF" stroke-width="1.41478" stroke-linejoin="round"/>
<path opacity="0.8" d="M84.3273 325.781C84.4221 325.49 84.6936 325.293 85 325.293C85.3064 325.293 85.5779 325.49 85.6727 325.781L87.8744 332.55H95C95.3065 332.55 95.5782 332.747 95.6728 333.039C95.7675 333.331 95.6636 333.65 95.4155 333.83L89.6515 338.013L91.853 344.781C91.9478 345.073 91.8442 345.392 91.5964 345.572C91.3485 345.752 91.0128 345.752 90.7648 345.573L85 341.389L79.2352 345.573C78.9872 345.752 78.6515 345.752 78.4036 345.572C78.1558 345.392 78.0522 345.073 78.147 344.781L80.3485 338.013L74.5845 333.83C74.3364 333.65 74.2325 333.331 74.3272 333.039C74.4218 332.747 74.6935 332.55 75 332.55H82.1256L84.3273 325.781Z" stroke="#FF6400" stroke-width="1.41478" stroke-linejoin="round"/>
<path d="M708.165 412.716C708.165 410.148 706.593 408.288 704.073 408.288C701.553 408.288 699.981 410.148 699.981 412.716C699.981 415.296 701.553 417.144 704.073 417.144C706.593 417.144 708.165 415.296 708.165 412.716ZM706.545 412.716C706.545 414.624 705.705 415.884 704.073 415.884C702.429 415.884 701.601 414.624 701.601 412.716C701.601 410.82 702.429 409.548 704.073 409.548C705.705 409.548 706.545 410.82 706.545 412.716ZM713.884 408.432H712.024V417H713.548V410.364H713.572L717.976 417H719.452V408.432H717.94V414.504H717.916L713.884 408.432ZM727.099 408.432H723.799V417H727.099C729.679 417 731.383 415.296 731.383 412.716C731.383 410.148 729.679 408.432 727.099 408.432ZM727.099 409.692C728.803 409.692 729.751 410.808 729.751 412.716C729.751 414.624 728.803 415.74 727.099 415.74H725.359V409.692H727.099ZM741.45 417V415.74H736.806V413.34H740.874V412.08H736.806V409.692H741.402V408.432H735.246V417H741.45ZM750.621 417L753.057 410.268H753.081V417H754.605V408.432H752.421L750.117 414.876H750.093L747.789 408.432H745.533V417H746.997V410.268H747.021L749.469 417H750.621ZM765.164 417H766.796L763.352 408.432H761.564L758.12 417H759.68L760.496 414.9H764.36L765.164 417ZM762.428 409.968H762.464L763.88 413.664H760.988L762.428 409.968ZM772.173 408.432H770.313V417H771.837V410.364H771.861L776.265 417H777.741V408.432H776.229V414.504H776.205L772.173 408.432ZM785.388 408.432H782.088V417H785.388C787.968 417 789.672 415.296 789.672 412.716C789.672 410.148 787.968 408.432 785.388 408.432ZM785.388 409.692C787.092 409.692 788.04 410.808 788.04 412.716C788.04 414.624 787.092 415.74 785.388 415.74H783.648V409.692H785.388Z" fill="white"/>
<mask id="mask12" mask-type="alpha" maskUnits="userSpaceOnUse" x="670" y="241" width="149" height="139">
<path d="M671.066 242.392H817.693V379.504H671.066V242.392Z" fill="#C4C4C4" stroke="white" stroke-width="0.851117"/>
</mask>
<g mask="url(#mask12)">
<mask id="mask13" mask-type="alpha" maskUnits="userSpaceOnUse" x="692" y="263" width="107" height="230">
<rect x="693.218" y="263.723" width="104.705" height="228.491" rx="14.6676" fill="#C4C4C4" stroke="white" stroke-width="0.666708"/>
</mask>
<g mask="url(#mask13)">
<rect x="693.385" y="263.889" width="104.372" height="228.158" rx="14.5009" stroke="white"/>
</g>
</g>
<path fill-rule="evenodd" clip-rule="evenodd" d="M743.276 324.453V321.885L748.243 325.373L743.276 328.769V325.966C738.481 326.526 734.76 330.603 734.76 335.549C734.76 340.879 739.08 345.199 744.409 345.199C749.738 345.199 754.059 340.879 754.059 335.549C754.059 332.773 752.887 330.271 751.009 328.51L752.038 327.413C754.206 329.447 755.562 332.34 755.562 335.549C755.562 341.709 750.569 346.703 744.409 346.703C738.249 346.703 733.256 341.709 733.256 335.549C733.256 329.772 737.649 325.021 743.276 324.453Z" fill="#B3B3B3"/>
</g>
<defs>
<clipPath id="clip0">
<rect width="927" height="502" fill="white"/>
</clipPath>
<clipPath id="clip1">
<rect width="185" height="130" fill="white" transform="translate(347)"/>
</clipPath>
<clipPath id="clip2">
<rect width="178" height="130" fill="white" transform="translate(1)"/>
</clipPath>
<clipPath id="clip3">
<rect width="191" height="130" fill="white" transform="translate(696)"/>
</clipPath>
</defs>
</svg>
