<svg width="361" height="634" viewBox="0 0 361 634" fill="none" xmlns="http://www.w3.org/2000/svg">
<g clip-path="url(#clip0)">
<mask id="mask0" mask-type="alpha" maskUnits="userSpaceOnUse" x="97" y="315" width="165" height="71">
<rect x="97" y="315" width="165" height="71" fill="#C4C4C4"/>
</mask>
<g mask="url(#mask0)">
<mask id="mask1" mask-type="alpha" maskUnits="userSpaceOnUse" x="106" y="323" width="147" height="318">
<rect x="107.416" y="323.823" width="144.885" height="316.264" rx="25.3033" fill="#C4C4C4" stroke="#464646"/>
</mask>
<g mask="url(#mask1)">
<rect x="107.489" y="323.897" width="144.738" height="316.118" rx="25.2299" stroke="white" stroke-width="1.14682"/>
<path d="M115.768 353.116L154.283 353.004" stroke="#198AFF" stroke-width="6.88089"/>
<path d="M160.052 352.993L198.567 352.886" stroke="#78DE7F" stroke-width="6.88089"/>
<path d="M205.078 352.869L243.593 352.762" stroke="#FF6400" stroke-width="6.88089"/>
</g>
</g>
<path fill-rule="evenodd" clip-rule="evenodd" d="M246.958 421.606C246.958 419.704 246.063 418.014 244.672 416.936L245.097 416.382C246.651 417.587 247.654 419.478 247.654 421.606C247.654 423.717 246.666 425.598 245.13 426.803L244.702 426.251C246.076 425.173 246.958 423.492 246.958 421.606ZM244.591 421.606C244.591 420.748 244.285 419.963 243.778 419.354L244.312 418.905C244.92 419.635 245.287 420.578 245.287 421.606C245.287 422.623 244.928 423.556 244.33 424.283L243.794 423.837C244.292 423.231 244.591 422.454 244.591 421.606ZM242.621 421.606C242.621 422.45 241.94 423.134 241.101 423.134C240.261 423.134 239.581 422.45 239.581 421.606C239.581 420.762 240.261 420.077 241.101 420.077C241.94 420.077 242.621 420.762 242.621 421.606ZM237.613 421.606C237.613 420.765 237.906 419.995 238.396 419.39L237.857 418.948C237.269 419.673 236.917 420.599 236.917 421.606C236.917 422.622 237.276 423.556 237.873 424.283L238.41 423.838C237.912 423.231 237.613 422.454 237.613 421.606ZM235.246 421.606C235.246 419.72 236.127 418.041 237.498 416.963L237.07 416.411C235.537 417.617 234.55 419.496 234.55 421.606C234.55 423.707 235.528 425.578 237.05 426.784L237.48 426.235C236.119 425.155 235.246 423.484 235.246 421.606Z" fill="white"/>
<path d="M237.314 435.109H239.297V434.769H237.731V431.684H237.314V435.109ZM239.859 435.109H240.256V432.604H239.859V435.109ZM240.05 432.081C240.194 432.081 240.314 431.962 240.314 431.818C240.314 431.674 240.194 431.554 240.05 431.554C239.907 431.554 239.787 431.674 239.787 431.818C239.787 431.962 239.907 432.081 240.05 432.081ZM241.698 435.109H242.206L243.106 432.604H242.694L241.961 434.707L241.219 432.604H240.788L241.698 435.109ZM244.585 435.152C245.15 435.152 245.567 434.889 245.653 434.386H245.255C245.203 434.678 244.977 434.822 244.589 434.822C244.077 434.822 243.804 434.506 243.785 433.936H245.672V433.806C245.672 432.91 245.126 432.561 244.546 432.561C243.856 432.561 243.373 433.088 243.373 433.845V433.883C243.373 434.654 243.876 435.152 244.585 435.152ZM243.799 433.615C243.866 433.169 244.139 432.891 244.546 432.891C244.958 432.891 245.227 433.097 245.265 433.615H243.799Z" fill="white"/>
<path d="M106.47 435.108H106.887V433.585H108.688V435.108H109.105V431.683H108.688V433.235H106.887V431.683H106.47V435.108ZM109.951 435.108H110.348V432.603H109.951V435.108ZM110.142 432.081C110.286 432.081 110.406 431.961 110.406 431.817C110.406 431.673 110.286 431.554 110.142 431.554C109.999 431.554 109.879 431.673 109.879 431.817C109.879 431.961 109.999 432.081 110.142 432.081ZM112.164 436.023C112.863 436.023 113.357 435.669 113.361 434.941V432.603H112.964V433.005C112.82 432.761 112.561 432.56 112.144 432.56C111.455 432.56 110.975 433.125 110.975 433.805V433.839C110.975 434.529 111.459 435.027 112.116 435.027C112.48 435.027 112.82 434.797 112.964 434.553V434.917C112.964 435.453 112.652 435.688 112.159 435.688C111.732 435.688 111.493 435.54 111.435 435.252H111.028C111.095 435.674 111.421 436.023 112.164 436.023ZM112.159 434.696C111.737 434.696 111.387 434.371 111.387 433.824V433.786C111.387 433.259 111.684 432.89 112.183 432.89C112.671 432.89 112.978 433.216 112.978 433.777V433.81C112.978 434.371 112.624 434.696 112.159 434.696ZM114.166 435.108H114.564V433.59C114.564 433.139 114.894 432.905 115.263 432.905C115.666 432.905 115.852 433.101 115.852 433.542V435.108H116.25V433.571C116.25 432.842 115.886 432.56 115.369 432.56C114.956 432.56 114.679 432.766 114.564 433V431.405H114.166V435.108ZM117.039 435.108H117.441V431.405H117.039V435.108ZM118.265 435.108H118.662V432.603H118.265V435.108ZM118.456 432.081C118.6 432.081 118.72 431.961 118.72 431.817C118.72 431.673 118.6 431.554 118.456 431.554C118.313 431.554 118.193 431.673 118.193 431.817C118.193 431.961 118.313 432.081 118.456 432.081ZM120.478 436.023C121.177 436.023 121.671 435.669 121.675 434.941V432.603H121.278V433.005C121.134 432.761 120.875 432.56 120.458 432.56C119.769 432.56 119.289 433.125 119.289 433.805V433.839C119.289 434.529 119.773 435.027 120.43 435.027C120.794 435.027 121.134 434.797 121.278 434.553V434.917C121.278 435.453 120.966 435.688 120.473 435.688C120.046 435.688 119.807 435.54 119.749 435.252H119.342C119.409 435.674 119.735 436.023 120.478 436.023ZM120.473 434.696C120.051 434.696 119.701 434.371 119.701 433.824V433.786C119.701 433.259 119.998 432.89 120.497 432.89C120.985 432.89 121.292 433.216 121.292 433.777V433.81C121.292 434.371 120.938 434.696 120.473 434.696ZM122.48 435.108H122.878V433.59C122.878 433.139 123.208 432.905 123.577 432.905C123.98 432.905 124.166 433.101 124.166 433.542V435.108H124.564V433.571C124.564 432.842 124.2 432.56 123.683 432.56C123.271 432.56 122.993 432.766 122.878 433V431.405H122.48V435.108ZM126.105 435.142C126.268 435.142 126.364 435.118 126.445 435.089V434.754C126.359 434.787 126.263 434.807 126.139 434.807C125.937 434.807 125.827 434.687 125.827 434.442V432.938H126.412V432.603H125.827V432.033H125.43V432.603H125.07V432.938H125.43V434.481C125.43 434.874 125.65 435.142 126.105 435.142ZM127.823 435.152C128.431 435.152 128.742 434.845 128.742 434.39C128.742 433.858 128.378 433.743 127.861 433.647C127.401 433.566 127.276 433.475 127.276 433.25C127.276 433.034 127.463 432.89 127.751 432.89C128.067 432.89 128.22 433.01 128.278 433.283H128.661C128.594 432.742 128.206 432.56 127.755 432.56C127.363 432.56 126.907 432.799 126.907 433.264C126.907 433.7 127.128 433.882 127.779 434.002C128.167 434.074 128.364 434.16 128.364 434.423C128.364 434.692 128.196 434.821 127.818 434.821C127.415 434.821 127.257 434.634 127.228 434.337H126.84C126.864 434.85 127.224 435.152 127.823 435.152Z" fill="white"/>
<path d="M116.808 416.502C116.857 416.355 116.994 416.256 117.149 416.256C117.304 416.256 117.441 416.355 117.49 416.502L118.643 419.955H122.382C122.538 419.955 122.677 420.057 122.724 420.206C122.772 420.355 122.717 420.518 122.589 420.608L119.573 422.74L120.724 426.186C120.773 426.333 120.722 426.495 120.597 426.588C120.473 426.681 120.303 426.683 120.176 426.593L117.149 424.453L114.122 426.593C113.996 426.683 113.826 426.681 113.701 426.588C113.576 426.495 113.525 426.333 113.574 426.186L114.725 422.74L111.709 420.608C111.581 420.518 111.526 420.355 111.574 420.206C111.621 420.057 111.76 419.955 111.916 419.955H115.655L116.808 416.502Z" stroke="white" stroke-width="0.718644" stroke-linejoin="round"/>
<path d="M166.081 434.808C165.367 434.808 164.816 434.243 164.816 433.414V433.376C164.816 432.561 165.276 431.977 166.071 431.977C166.862 431.977 167.312 432.599 167.312 433.366V433.404C167.312 434.233 166.842 434.808 166.081 434.808ZM166.081 435.153C167.077 435.153 167.743 434.377 167.743 433.409V433.371C167.743 432.408 167.077 431.641 166.071 431.641C165.065 431.641 164.385 432.408 164.385 433.38V433.419C164.385 434.377 165.07 435.153 166.081 435.153ZM168.407 435.11H168.804V433.591C168.804 433.141 169.135 432.906 169.504 432.906C169.906 432.906 170.093 433.102 170.093 433.543V435.11H170.491V433.572C170.491 432.844 170.127 432.561 169.609 432.561C169.197 432.561 168.919 432.767 168.804 433.002V432.604H168.407V435.11ZM171.716 434.77V432.02H172.18C173.124 432.02 173.508 432.575 173.508 433.366V433.404C173.508 434.243 173.067 434.77 172.185 434.77H171.716ZM171.299 435.11H172.195C173.393 435.11 173.939 434.358 173.939 433.409V433.366C173.939 432.413 173.383 431.684 172.204 431.684H171.299V435.11ZM175.631 435.153C176.197 435.153 176.613 434.889 176.7 434.386H176.302C176.249 434.679 176.024 434.822 175.636 434.822C175.123 434.822 174.85 434.506 174.831 433.936H176.719V433.807C176.719 432.911 176.173 432.561 175.593 432.561C174.903 432.561 174.419 433.088 174.419 433.845V433.883C174.419 434.655 174.922 435.153 175.631 435.153ZM174.846 433.615C174.913 433.17 175.186 432.892 175.593 432.892C176.005 432.892 176.273 433.098 176.312 433.615H174.846ZM177.329 435.11H177.727V433.577C177.727 433.126 178.062 432.906 178.388 432.906C178.733 432.906 178.92 433.088 178.92 433.529V435.11H179.317V433.577C179.317 433.126 179.653 432.906 179.978 432.906C180.323 432.906 180.51 433.088 180.51 433.529V435.11H180.908V433.558C180.908 432.829 180.515 432.561 180.065 432.561C179.753 432.561 179.38 432.705 179.207 433.031C179.078 432.695 178.795 432.561 178.474 432.561C178.115 432.561 177.842 432.753 177.727 432.987V432.604H177.329V435.11ZM182.317 435.153C182.686 435.153 182.911 435.028 183.098 434.794V435.11H183.496V433.457C183.496 432.758 183.06 432.561 182.581 432.561C182.097 432.561 181.642 432.772 181.589 433.342H181.987C182.025 433.035 182.217 432.892 182.562 432.892C182.945 432.892 183.098 433.059 183.098 433.457V433.639H182.739C182.097 433.639 181.484 433.835 181.484 434.415C181.484 434.928 181.852 435.153 182.317 435.153ZM182.356 434.837C182.006 434.837 181.881 434.674 181.881 434.415C181.881 434.046 182.25 433.922 182.753 433.922H183.098V434.233C183.098 434.621 182.777 434.837 182.356 434.837ZM184.277 435.11H184.675V433.591C184.675 433.141 185.005 432.906 185.374 432.906C185.776 432.906 185.963 433.102 185.963 433.543V435.11H186.361V433.572C186.361 432.844 185.997 432.561 185.479 432.561C185.067 432.561 184.79 432.767 184.675 433.002V432.604H184.277V435.11ZM188.084 435.153C188.448 435.153 188.798 434.923 188.942 434.679V435.11H189.339V431.406H188.942V433.007C188.798 432.762 188.539 432.561 188.122 432.561C187.432 432.561 186.953 433.102 186.953 433.869V433.907C186.953 434.688 187.428 435.153 188.084 435.153ZM188.127 434.822C187.706 434.822 187.365 434.521 187.365 433.888V433.85C187.365 433.241 187.662 432.892 188.161 432.892C188.649 432.892 188.956 433.193 188.956 433.835V433.874C188.956 434.516 188.592 434.822 188.127 434.822Z" fill="white"/>
<path fill-rule="evenodd" clip-rule="evenodd" d="M176.781 416.412V415.235L179.043 416.833L176.781 418.389V417.105C174.596 417.362 172.901 419.23 172.901 421.496C172.901 423.938 174.869 425.918 177.297 425.918C179.725 425.918 181.694 423.938 181.694 421.496C181.694 420.224 181.16 419.078 180.304 418.27L180.773 417.768C181.761 418.7 182.379 420.026 182.379 421.496C182.379 424.319 180.104 426.607 177.297 426.607C174.491 426.607 172.216 424.319 172.216 421.496C172.216 418.849 174.217 416.672 176.781 416.412Z" fill="white"/>
<rect x="91.6953" y="410.529" width="172.805" height="28.293" stroke="white"/>
<path d="M283.332 259.024C283.332 257.173 282.199 255.832 280.383 255.832C278.567 255.832 277.434 257.173 277.434 259.024C277.434 260.883 278.567 262.215 280.383 262.215C282.199 262.215 283.332 260.883 283.332 259.024ZM282.165 259.024C282.165 260.399 281.559 261.307 280.383 261.307C279.198 261.307 278.601 260.399 278.601 259.024C278.601 257.657 279.198 256.74 280.383 256.74C281.559 256.74 282.165 257.657 282.165 259.024ZM287.455 255.936H286.114V262.111H287.212V257.328H287.23L290.404 262.111H291.468V255.936H290.378V260.312H290.361L287.455 255.936ZM300.525 255.936H298.146V262.111H300.525C302.384 262.111 303.613 260.883 303.613 259.024C303.613 257.173 302.384 255.936 300.525 255.936ZM300.525 256.844C301.753 256.844 302.436 257.648 302.436 259.024C302.436 260.399 301.753 261.203 300.525 261.203H299.271V256.844H300.525ZM310.868 262.111V261.203H307.521V259.473H310.453V258.565H307.521V256.844H310.834V255.936H306.397V262.111H310.868ZM317.478 262.111L319.234 257.259H319.251V262.111H320.349V255.936H318.775L317.115 260.58H317.097L315.437 255.936H313.811V262.111H314.866V257.259H314.883L316.648 262.111H317.478ZM327.96 262.111H329.136L326.654 255.936H325.365L322.883 262.111H324.007L324.595 260.598H327.38L327.96 262.111ZM325.988 257.043H326.014L327.034 259.707H324.95L325.988 257.043ZM333.012 255.936H331.671V262.111H332.769V257.328H332.787L335.961 262.111H337.025V255.936H335.935V260.312H335.918L333.012 255.936ZM342.536 255.936H340.158V262.111H342.536C344.396 262.111 345.624 260.883 345.624 259.024C345.624 257.173 344.396 255.936 342.536 255.936ZM342.536 256.844C343.764 256.844 344.448 257.648 344.448 259.024C344.448 260.399 343.764 261.203 342.536 261.203H341.282V256.844H342.536Z" fill="white"/>
<g clip-path="url(#clip1)">
<g clip-path="url(#clip2)">
<mask id="mask2" mask-type="alpha" maskUnits="userSpaceOnUse" x="94" y="0" width="154" height="94">
<path d="M94.9766 0.472412H247.297V93.4378H94.9766V0.472412Z" fill="#C4C4C4"/>
</mask>
<g mask="url(#mask2)">
<mask id="mask3" mask-type="alpha" maskUnits="userSpaceOnUse" x="110" y="1" width="77" height="165">
<rect x="111.311" y="1.94263" width="74.3531" height="162.875" rx="10.2274" fill="#C4C4C4" stroke="#464646"/>
</mask>
<g mask="url(#mask3)">
<rect x="111.311" y="1.94263" width="74.3531" height="162.875" rx="10.2274" stroke="white"/>
</g>
<rect x="163.413" y="25.2864" width="74.3531" height="162.875" rx="10.2274" fill="black" stroke="white"/>
<path opacity="0.8" fill-rule="evenodd" clip-rule="evenodd" d="M155.573 52.8269C155.573 50.2235 154.341 47.9092 152.426 46.433L153.01 45.6741C155.151 47.3238 156.532 49.9136 156.532 52.8269C156.532 55.7174 155.171 58.2924 153.057 59.9423L152.467 59.1869C154.359 57.7109 155.573 55.41 155.573 52.8269ZM152.315 52.827C152.315 51.6522 151.895 50.578 151.196 49.7438L151.931 49.1286C152.768 50.1289 153.273 51.419 153.273 52.827C153.273 54.2189 152.779 55.4965 151.957 56.4923L151.218 55.8821C151.904 55.0517 152.315 53.9882 152.315 52.827ZM149.603 52.8266C149.603 53.9825 148.666 54.9191 147.51 54.9191C146.354 54.9191 145.417 53.9825 145.417 52.8266C145.417 51.6707 146.354 50.7334 147.51 50.7334C148.666 50.7334 149.603 51.6707 149.603 52.8266ZM142.705 52.8256C142.705 51.6749 143.109 50.6196 143.783 49.7922L143.041 49.1867C142.232 50.1789 141.747 51.4465 141.747 52.8256C141.747 54.2175 142.241 55.4959 143.064 56.4917L143.802 55.8816C143.116 55.0512 142.705 53.9869 142.705 52.8256ZM139.445 52.8257C139.445 50.2435 140.659 47.9448 142.548 46.4679L141.958 45.7131C139.847 47.3637 138.487 49.936 138.487 52.8257C138.487 55.7024 139.834 58.2643 141.93 59.9157L142.523 59.1632C140.648 57.6855 139.445 55.3963 139.445 52.8257Z" fill="#78DE7F"/>
<path fill-rule="evenodd" clip-rule="evenodd" d="M199.19 69.5292V67.6931L202.741 70.1871L199.19 72.6156V70.6109C195.76 71.0117 193.099 73.9273 193.099 77.4645C193.099 81.2756 196.188 84.3651 199.999 84.3651C203.81 84.3651 206.9 81.2756 206.9 77.4645C206.9 75.4789 206.062 73.6899 204.719 72.4302L205.455 71.6458C207.005 73.1003 207.975 75.1695 207.975 77.4645C207.975 81.8695 204.404 85.4404 199.999 85.4404C195.594 85.4404 192.023 81.8695 192.023 77.4645C192.023 73.3328 195.165 69.9349 199.19 69.5292Z" fill="#78DE7F"/>
</g>
</g>
<path d="M174.016 114.676C174.016 112.84 172.892 111.51 171.089 111.51C169.287 111.51 168.163 112.84 168.163 114.676C168.163 116.521 169.287 117.843 171.089 117.843C172.892 117.843 174.016 116.521 174.016 114.676ZM172.857 114.676C172.857 116.041 172.256 116.942 171.089 116.942C169.914 116.942 169.322 116.041 169.322 114.676C169.322 113.321 169.914 112.411 171.089 112.411C172.256 112.411 172.857 113.321 172.857 114.676ZM178.106 111.613H176.776V117.74H177.866V112.994H177.883L181.032 117.74H182.088V111.613H181.007V115.955H180.989L178.106 111.613ZM191.074 111.613H188.714V117.74H191.074C192.919 117.74 194.138 116.521 194.138 114.676C194.138 112.84 192.919 111.613 191.074 111.613ZM191.074 112.514C192.293 112.514 192.971 113.312 192.971 114.676C192.971 116.041 192.293 116.839 191.074 116.839H189.83V112.514H191.074ZM201.337 117.74V116.839H198.016V115.123H200.925V114.222H198.016V112.514H201.303V111.613H196.9V117.74H201.337ZM207.895 117.74L209.637 112.926H209.654V117.74H210.744V111.613H209.182L207.535 116.221H207.517L205.87 111.613H204.257V117.74H205.303V112.926H205.321L207.071 117.74H207.895ZM218.295 117.74H219.462L216.999 111.613H215.721L213.258 117.74H214.374L214.957 116.238H217.72L218.295 117.74ZM216.339 112.711H216.364L217.377 115.354H215.309L216.339 112.711ZM223.308 111.613H221.977V117.74H223.067V112.994H223.084L226.234 117.74H227.289V111.613H226.208V115.955H226.191L223.308 111.613ZM232.758 111.613H230.398V117.74H232.758C234.603 117.74 235.821 116.521 235.821 114.676C235.821 112.84 234.603 111.613 232.758 111.613ZM232.758 112.514C233.976 112.514 234.654 113.312 234.654 114.676C234.654 116.041 233.976 116.839 232.758 116.839H231.514V112.514H232.758Z" fill="white"/>
<path d="M115.796 117.74H120.095V116.839H116.937V111.613H115.796V117.74ZM122.942 117.74H124.084V111.613H122.942V117.74ZM129.009 117.74H130.279L132.707 111.613H131.549L129.678 116.521H129.661L127.799 111.613H126.589L129.009 117.74ZM139.661 117.74V116.839H136.34V115.123H139.249V114.222H136.34V112.514H139.627V111.613H135.225V117.74H139.661Z" fill="white"/>
</g>
<path d="M228.435 262.111H232.768V261.203H229.585V255.936H228.435V262.111ZM235.638 262.111H236.788V255.936H235.638V262.111ZM241.752 262.111H243.032L245.48 255.936H244.312L242.427 260.883H242.409L240.532 255.936H239.313L241.752 262.111ZM252.488 262.111V261.203H249.141V259.473H252.073V258.565H249.141V256.844H252.453V255.936H248.017V262.111H252.488Z" fill="white"/>
<path d="M180 302L180 137" stroke="white"/>
<path d="M189.019 144.725L180.009 137L171 144.928" stroke="white" stroke-width="0.613435" stroke-linecap="round" stroke-linejoin="round"/>
<path d="M180 463L180 499" stroke="white"/>
<path d="M170.981 491.203L179.991 498.928L189 491" stroke="white" stroke-linecap="round" stroke-linejoin="round"/>
<path d="M237.559 301.843L314 301.843L314 281.662" stroke="white"/>
<path d="M305 289.386L314.009 281.662L323.019 289.59" stroke="white" stroke-linecap="round" stroke-linejoin="round"/>
<path d="M118.46 462.819L42.0186 462.819L42.0185 483" stroke="white"/>
<path d="M51.0186 475.275L42.0093 483L33 475.072" stroke="white" stroke-linecap="round" stroke-linejoin="round"/>
<g clip-path="url(#clip3)">
<mask id="mask4" mask-type="alpha" maskUnits="userSpaceOnUse" x="219" y="144" width="77" height="167">
<rect x="219.716" y="145.478" width="74.9456" height="164.163" rx="10.3118" fill="#C4C4C4" stroke="#464646"/>
</mask>
<g mask="url(#mask4)">
<rect x="219.716" y="145.478" width="74.9456" height="164.163" rx="10.3118" stroke="white"/>
</g>
<mask id="mask5" mask-type="alpha" maskUnits="userSpaceOnUse" x="271" y="162" width="77" height="177">
<rect x="271.973" y="163.292" width="75.009" height="174.771" rx="10.3118" fill="white" stroke="#464646"/>
</mask>
<g mask="url(#mask5)">
<rect x="271.973" y="166.855" width="74.9456" height="164.163" rx="10.3118" fill="black" stroke="white"/>
</g>
<path opacity="0.8" fill-rule="evenodd" clip-rule="evenodd" d="M263.242 201.091C263.242 198.467 262 196.135 260.069 194.647L260.659 193.882C262.816 195.545 264.207 198.155 264.207 201.091C264.207 204.004 262.837 206.599 260.705 208.262L260.111 207.501C262.018 206.013 263.242 203.694 263.242 201.091ZM259.957 201.091C259.957 199.907 259.533 198.824 258.829 197.984L259.569 197.364C260.414 198.372 260.923 199.672 260.923 201.091C260.923 202.494 260.425 203.782 259.596 204.785L258.851 204.17C259.542 203.333 259.957 202.261 259.957 201.091ZM257.224 201.091C257.224 202.256 256.279 203.2 255.115 203.2C253.949 203.2 253.005 202.256 253.005 201.091C253.005 199.926 253.949 198.981 255.115 198.981C256.279 198.981 257.224 199.926 257.224 201.091ZM250.272 201.09C250.272 199.93 250.679 198.866 251.359 198.032L250.611 197.422C249.796 198.422 249.307 199.7 249.307 201.09C249.307 202.492 249.805 203.781 250.634 204.785L251.378 204.17C250.687 203.333 250.272 202.26 250.272 201.09ZM246.987 201.09C246.987 198.488 248.21 196.171 250.114 194.683L249.519 193.922C247.392 195.585 246.021 198.178 246.021 201.09C246.021 203.99 247.379 206.572 249.491 208.236L250.089 207.478C248.199 205.988 246.987 203.681 246.987 201.09Z" fill="#FF6400"/>
</g>
<path d="M168.299 630.063H172.632V629.155H169.449V623.888H168.299V630.063ZM175.502 630.063H176.652V623.888H175.502V630.063ZM181.616 630.063H182.896L185.344 623.888H184.176L182.291 628.835H182.274L180.397 623.888H179.177L181.616 630.063ZM192.352 630.063V629.155H189.005V627.426H191.937V626.517H189.005V624.796H192.318V623.888H187.881V630.063H192.352Z" fill="white"/>
<mask id="mask6" mask-type="alpha" maskUnits="userSpaceOnUse" x="129" y="504" width="107" height="100">
<path d="M129.5 504.5H234.794V602.935H129.5V504.5Z" fill="#C4C4C4" stroke="white"/>
</mask>
<g mask="url(#mask6)">
<mask id="mask7" mask-type="alpha" maskUnits="userSpaceOnUse" x="145" y="519" width="76" height="166">
<rect x="145.273" y="519.68" width="75.4651" height="164.683" rx="10.5715" fill="#C4C4C4" stroke="white" stroke-width="0.480524"/>
</mask>
<g mask="url(#mask7)">
<rect x="145.533" y="519.94" width="74.9456" height="164.163" rx="10.3118" stroke="white"/>
</g>
</g>
<path opacity="0.8" fill-rule="evenodd" clip-rule="evenodd" d="M191.351 573.561C191.351 570.937 190.109 568.604 188.178 567.116L188.768 566.352C190.925 568.014 192.317 570.624 192.317 573.561C192.317 576.474 190.946 579.069 188.814 580.732L188.22 579.971C190.127 578.483 191.351 576.164 191.351 573.561ZM188.066 573.561C188.066 572.377 187.642 571.294 186.938 570.453L187.679 569.833C188.523 570.841 189.032 572.142 189.032 573.561C189.032 574.963 188.534 576.251 187.705 577.255L186.96 576.64C187.652 575.803 188.066 574.731 188.066 573.561ZM185.333 573.56C185.333 574.725 184.388 575.669 183.224 575.669C182.059 575.669 181.115 574.725 181.115 573.56C181.115 572.395 182.059 571.451 183.224 571.451C184.388 571.451 185.333 572.395 185.333 573.56ZM178.381 573.559C178.381 572.4 178.788 571.336 179.468 570.502L178.719 569.892C177.904 570.892 177.415 572.169 177.415 573.559C177.415 574.962 177.913 576.251 178.742 577.254L179.487 576.639C178.796 575.803 178.381 574.73 178.381 573.559ZM175.096 573.562C175.096 570.959 176.319 568.643 178.222 567.154L177.628 566.393C175.5 568.057 174.13 570.649 174.13 573.562C174.13 576.461 175.488 579.043 177.599 580.708L178.197 579.949C176.308 578.46 175.096 576.153 175.096 573.562Z" fill="#9F9F9F"/>
<path d="M72.0909 259.023C72.0909 257.173 70.9579 255.832 69.1416 255.832C67.3254 255.832 66.1924 257.173 66.1924 259.023C66.1924 260.883 67.3254 262.215 69.1416 262.215C70.9579 262.215 72.0909 260.883 72.0909 259.023ZM70.9233 259.023C70.9233 260.399 70.3179 261.307 69.1416 261.307C67.9567 261.307 67.36 260.399 67.36 259.023C67.36 257.657 67.9567 256.74 69.1416 256.74C70.3179 256.74 70.9233 257.657 70.9233 259.023ZM76.2134 255.936H74.8728V262.111H75.9712V257.328H75.9885L79.1627 262.111H80.2265V255.936H79.1367V260.312H79.1194L76.2134 255.936ZM89.2837 255.936H86.9052V262.111H89.2837C91.1432 262.111 92.3713 260.883 92.3713 259.023C92.3713 257.173 91.1432 255.936 89.2837 255.936ZM89.2837 256.844C90.5118 256.844 91.1951 257.648 91.1951 259.023C91.1951 260.399 90.5118 261.203 89.2837 261.203H88.0296V256.844H89.2837ZM99.627 262.111V261.203H96.2798V259.473H99.2118V258.565H96.2798V256.844H99.5924V255.936H95.1555V262.111H99.627ZM106.237 262.111L107.992 257.259H108.01V262.111H109.108V255.936H107.534L105.873 260.58H105.856L104.196 255.936H102.57V262.111H103.625V257.259H103.642L105.406 262.111H106.237ZM116.719 262.111H117.895L115.413 255.936H114.124L111.642 262.111H112.766L113.354 260.598H116.139L116.719 262.111ZM114.747 257.043H114.773L115.793 259.707H113.709L114.747 257.043ZM121.77 255.936H120.43V262.111H121.528V257.328H121.546L124.72 262.111H125.784V255.936H124.694V260.312H124.676L121.77 255.936ZM131.295 255.936H128.917V262.111H131.295C133.155 262.111 134.383 260.883 134.383 259.023C134.383 257.173 133.155 255.936 131.295 255.936ZM131.295 256.844C132.523 256.844 133.206 257.648 133.206 259.023C133.206 260.399 132.523 261.203 131.295 261.203H130.041V256.844H131.295Z" fill="white"/>
<path d="M14.6361 262.111H18.9692V261.203H15.7864V255.936H14.6361V262.111ZM21.839 262.111H22.9893V255.936H21.839V262.111ZM27.9531 262.111H29.2331L31.6808 255.936H30.5132L28.6277 260.883H28.6104L26.7336 255.936H25.5141L27.9531 262.111ZM38.6892 262.111V261.203H35.3421V259.473H38.2741V258.565H35.3421V256.844H38.6546V255.936H34.2177V262.111H38.6892Z" fill="white"/>
<g clip-path="url(#clip4)">
<mask id="mask8" mask-type="alpha" maskUnits="userSpaceOnUse" x="-6" y="144" width="154" height="94">
<path d="M-5.52441 144H147.993V237.696H-5.52441V144Z" fill="#C4C4C4"/>
</mask>
<g mask="url(#mask8)">
<mask id="mask9" mask-type="alpha" maskUnits="userSpaceOnUse" x="10" y="144" width="77" height="167">
<rect x="10.6475" y="145.218" width="75.4651" height="164.683" rx="10.5715" fill="#C4C4C4" stroke="#464646" stroke-width="0.480524"/>
</mask>
<g mask="url(#mask9)">
<rect x="10.9072" y="145.479" width="74.9456" height="164.163" rx="10.3118" stroke="white"/>
</g>
<mask id="mask10" mask-type="alpha" maskUnits="userSpaceOnUse" x="62" y="162" width="77" height="177">
<rect x="62.9033" y="163.033" width="75.5284" height="175.29" rx="10.5715" fill="white" stroke="#464646" stroke-width="0.480524"/>
</mask>
<g mask="url(#mask10)">
<rect x="63.1631" y="166.855" width="74.9456" height="164.163" rx="10.3118" fill="black" stroke="white"/>
</g>
</g>
</g>
<path opacity="0.8" fill-rule="evenodd" clip-rule="evenodd" d="M53.2418 201.091C53.2418 198.467 51.9998 196.135 50.0691 194.647L50.6586 193.882C52.8162 195.545 54.2074 198.155 54.2074 201.091C54.2074 204.004 52.8365 206.599 50.7051 208.262L50.1111 207.501C52.0178 206.013 53.2418 203.694 53.2418 201.091ZM49.9569 201.091C49.9569 199.907 49.5331 198.824 48.829 197.984L49.5693 197.364C50.4136 198.372 50.9226 199.672 50.9226 201.091C50.9226 202.494 50.4245 203.782 49.5956 204.785L48.851 204.17C49.5423 203.333 49.9569 202.261 49.9569 201.091ZM47.2239 201.091C47.2239 202.256 46.2792 203.2 45.115 203.2C43.9493 203.2 43.0053 202.256 43.0053 201.091C43.0053 199.926 43.9493 198.981 45.115 198.981C46.2792 198.981 47.2239 199.926 47.2239 201.091ZM40.2723 201.09C40.2723 199.93 40.6794 198.866 41.3593 198.032L40.6108 197.422C39.7955 198.422 39.3066 199.7 39.3066 201.09C39.3066 202.492 39.8046 203.781 40.6336 204.785L41.3782 204.17C40.687 203.333 40.2723 202.26 40.2723 201.09ZM36.9872 201.09C36.9872 198.488 38.2102 196.171 40.1141 194.683L39.5193 193.922C37.3916 195.585 36.0215 198.178 36.0215 201.09C36.0215 203.99 37.3792 206.572 39.4911 208.236L40.0888 207.478C38.1992 205.988 36.9872 203.681 36.9872 201.09Z" fill="#198AFF"/>
<path fill-rule="evenodd" clip-rule="evenodd" d="M100.479 213.572V211.721L104.059 214.235L100.479 216.683V214.662C97.0227 215.066 94.3407 218.005 94.3407 221.57C94.3407 225.411 97.4544 228.525 101.295 228.525C105.137 228.525 108.25 225.411 108.25 221.57C108.25 219.568 107.406 217.765 106.052 216.496L106.794 215.705C108.357 217.171 109.334 219.257 109.334 221.57C109.334 226.009 105.735 229.608 101.295 229.608C96.8559 229.608 93.2568 226.009 93.2568 221.57C93.2568 217.406 96.4229 213.981 100.479 213.572Z" fill="#198AFF"/>
<path fill-rule="evenodd" clip-rule="evenodd" d="M310.054 213.953V211.722L313.634 214.235L310.054 216.683V215.043C306.598 215.447 303.916 218.386 303.916 221.951C303.916 225.792 307.03 228.906 310.871 228.906C314.712 228.906 317.826 225.792 317.826 221.951C317.826 219.95 316.981 218.146 315.627 216.877L316.369 216.086C317.932 217.552 318.909 219.638 318.909 221.951C318.909 226.39 315.31 229.989 310.871 229.989C306.431 229.989 302.832 226.39 302.832 221.951C302.832 217.787 305.998 214.362 310.054 213.953Z" fill="#FF6400"/>
<path d="M17.017 614.784H18.1673V612.103H21.3328V614.784H22.4744V608.609H21.3328V611.204H18.1673V608.609H17.017V614.784ZM25.605 614.784H26.7554V608.609H25.605V614.784ZM29.5483 611.688C29.5483 613.599 30.7159 614.888 32.4457 614.888C33.2068 614.888 33.9938 614.49 34.2187 613.902L34.2965 614.784H35.1873V611.636H32.8521V612.466H34.0457V612.682C34.0457 613.444 33.423 613.98 32.5148 613.98C31.3645 613.98 30.7159 613.098 30.7159 611.688C30.7159 610.287 31.3818 609.413 32.5321 609.413C33.3624 609.413 33.8295 609.846 33.9765 610.538H35.1095C34.8673 609.318 34.0197 608.505 32.5321 608.505C30.7678 608.505 29.5483 609.785 29.5483 611.688ZM38.2118 614.784H39.3621V612.103H42.5276V614.784H43.6693V608.609H42.5276V611.204H39.3621V608.609H38.2118V614.784ZM46.7999 614.784H51.133V613.876H47.9502V608.609H46.7999V614.784ZM54.0028 614.784H55.1531V608.609H54.0028V614.784ZM57.946 611.688C57.946 613.599 59.1136 614.888 60.8434 614.888C61.6045 614.888 62.3916 614.49 62.6164 613.902L62.6943 614.784H63.5851V611.636H61.2499V612.466H62.4435V612.682C62.4435 613.444 61.8207 613.98 60.9126 613.98C59.7623 613.98 59.1136 613.098 59.1136 611.688C59.1136 610.287 59.7796 609.413 60.9299 609.413C61.7602 609.413 62.2272 609.846 62.3743 610.538H63.5073C63.2651 609.318 62.4175 608.505 60.9299 608.505C59.1655 608.505 57.946 609.785 57.946 611.688ZM66.6096 614.784H67.7599V612.103H70.9254V614.784H72.0671V608.609H70.9254V611.204H67.7599V608.609H66.6096V614.784ZM77.0399 614.784H78.1815V609.517H80.4043V608.609H74.8258V609.517H77.0399V614.784ZM82.5684 612.916C82.6809 614.274 83.8139 614.888 85.2842 614.888C86.6507 614.888 87.6799 614.144 87.6799 613.02C87.6799 612.025 87.0745 611.524 86.0626 611.333L84.869 611.1C84.2031 610.97 83.8831 610.806 83.8831 610.295C83.8831 609.751 84.3501 609.361 85.0939 609.361C85.8637 609.361 86.3999 609.699 86.4777 610.304H87.5588C87.4378 609.145 86.5556 608.505 85.0853 608.505C83.736 608.505 82.7674 609.266 82.7674 610.365C82.7674 611.446 83.5025 611.878 84.4106 612.042L85.5437 612.25C86.2875 612.388 86.5556 612.639 86.5556 613.089C86.5556 613.712 85.9847 614.04 85.2496 614.04C84.4798 614.04 83.7533 613.755 83.6755 612.916H82.5684Z" fill="white"/>
<mask id="mask11" mask-type="alpha" maskUnits="userSpaceOnUse" x="0" y="488" width="107" height="100">
<path d="M0.5 488.5H105.794V586.935H0.5V488.5Z" fill="#C4C4C4" stroke="white"/>
</mask>
<g mask="url(#mask11)">
<mask id="mask12" mask-type="alpha" maskUnits="userSpaceOnUse" x="16" y="503" width="76" height="166">
<rect x="16.5332" y="503.939" width="74.9456" height="164.163" rx="10.3118" fill="#C4C4C4" stroke="white"/>
</mask>
<g mask="url(#mask12)">
<rect x="16.5332" y="503.939" width="74.9456" height="164.163" rx="10.3118" stroke="white"/>
</g>
</g>
<path opacity="0.8" d="M54.3941 549.122C54.4646 548.916 54.6585 548.777 54.8766 548.777C55.0946 548.777 55.2886 548.916 55.359 549.122L57.0277 554.008H62.4443C62.6674 554.008 62.8646 554.153 62.931 554.366C62.9975 554.579 62.9177 554.81 62.7342 554.937L58.3743 557.951L60.0362 562.816C60.1073 563.025 60.0368 563.255 59.8613 563.388C59.6857 563.521 59.4448 563.526 59.2638 563.401L54.8766 560.368L50.4893 563.401C50.3083 563.526 50.0674 563.521 49.8919 563.388C49.7163 563.255 49.6458 563.025 49.7169 562.816L51.3788 557.951L47.0189 554.937C46.8354 554.81 46.7556 554.579 46.8221 554.366C46.8885 554.153 47.0857 554.008 47.3088 554.008H52.7254L54.3941 549.122Z" stroke="#78DE7F" stroke-width="1.01969" stroke-linejoin="round"/>
<path opacity="0.8" d="M35.6548 549.122C35.7253 548.916 35.9192 548.777 36.1373 548.777C36.3554 548.777 36.5493 548.916 36.6198 549.122L38.2884 554.008H43.7051C43.9282 554.008 44.1254 554.153 44.1918 554.366C44.2582 554.579 44.1785 554.81 43.995 554.937L39.6351 557.951L41.2969 562.816C41.368 563.025 41.2975 563.255 41.122 563.388C40.9465 563.521 40.7056 563.526 40.5245 563.401L36.1373 560.368L31.75 563.401C31.569 563.526 31.3281 563.521 31.1526 563.388C30.9771 563.255 30.9065 563.025 30.9777 562.816L32.6395 557.951L28.2796 554.937C28.0961 554.81 28.0164 554.579 28.0828 554.366C28.1492 554.153 28.3464 554.008 28.5695 554.008H33.9862L35.6548 549.122Z" stroke="#198AFF" stroke-width="1.01969" stroke-linejoin="round"/>
<path opacity="0.8" d="M73.4913 549.129C73.5596 548.919 73.7554 548.777 73.9762 548.777C74.197 548.777 74.3927 548.919 74.461 549.129L76.0479 554.008H81.1836C81.4045 554.008 81.6003 554.15 81.6685 554.36C81.7367 554.571 81.6619 554.801 81.4831 554.93L77.3287 557.945L78.9154 562.823C78.9838 563.034 78.9091 563.264 78.7305 563.394C78.5518 563.523 78.3099 563.524 78.1311 563.394L73.9762 560.378L69.8212 563.394C69.6425 563.524 69.4005 563.523 69.2219 563.394C69.0433 563.264 68.9686 563.034 69.0369 562.823L70.6237 557.945L66.4693 554.93C66.2905 554.801 66.2156 554.571 66.2838 554.36C66.352 554.15 66.5478 554.008 66.7688 554.008H71.9045L73.4913 549.129Z" stroke="#FF6400" stroke-width="1.01969" stroke-linejoin="round"/>
<path d="M281.045 610.976C281.045 609.125 279.912 607.784 278.096 607.784C276.279 607.784 275.146 609.125 275.146 610.976C275.146 612.835 276.279 614.167 278.096 614.167C279.912 614.167 281.045 612.835 281.045 610.976ZM279.877 610.976C279.877 612.351 279.272 613.259 278.096 613.259C276.911 613.259 276.314 612.351 276.314 610.976C276.314 609.609 276.911 608.693 278.096 608.693C279.272 608.693 279.877 609.609 279.877 610.976ZM285.167 607.888H283.827V614.063H284.925V609.281H284.943L288.117 614.063H289.181V607.888H288.091V612.265H288.074L285.167 607.888ZM294.692 607.888H292.314V614.063H294.692C296.552 614.063 297.78 612.835 297.78 610.976C297.78 609.125 296.552 607.888 294.692 607.888ZM294.692 608.796C295.92 608.796 296.603 609.601 296.603 610.976C296.603 612.351 295.92 613.155 294.692 613.155H293.438V608.796H294.692ZM305.035 614.063V613.155H301.688V611.426H304.62V610.517H301.688V608.796H305.001V607.888H300.564V614.063H305.035ZM311.645 614.063L313.401 609.211H313.418V614.063H314.516V607.888H312.942L311.282 612.533H311.265L309.604 607.888H307.978V614.063H309.033V609.211H309.05L310.815 614.063H311.645ZM322.127 614.063H323.303L320.821 607.888H319.532L317.05 614.063H318.175L318.763 612.55H321.548L322.127 614.063ZM320.155 608.995H320.181L321.202 611.659H319.117L320.155 608.995ZM327.179 607.888H325.838V614.063H326.937V609.281H326.954L330.128 614.063H331.192V607.888H330.102V612.265H330.085L327.179 607.888ZM336.703 607.888H334.325V614.063H336.703C338.563 614.063 339.791 612.835 339.791 610.976C339.791 609.125 338.563 607.888 336.703 607.888ZM336.703 608.796C337.932 608.796 338.615 609.601 338.615 610.976C338.615 612.351 337.932 613.155 336.703 613.155H335.449V608.796H336.703Z" fill="white"/>
<mask id="mask13" mask-type="alpha" maskUnits="userSpaceOnUse" x="254" y="488" width="107" height="100">
<path d="M254.5 488.5H359.794V586.935H254.5V488.5Z" fill="#C4C4C4" stroke="white"/>
</mask>
<g mask="url(#mask13)">
<mask id="mask14" mask-type="alpha" maskUnits="userSpaceOnUse" x="270" y="503" width="76" height="166">
<rect x="270.533" y="503.94" width="74.9456" height="164.163" rx="10.3118" fill="#C4C4C4" stroke="white"/>
</mask>
<g mask="url(#mask14)">
<rect x="270.533" y="503.94" width="74.9456" height="164.163" rx="10.3118" stroke="white"/>
</g>
</g>
<path fill-rule="evenodd" clip-rule="evenodd" d="M307.351 547.451V545.601L310.931 548.114L307.351 550.562V548.541C303.895 548.946 301.213 551.884 301.213 555.449C301.213 559.29 304.327 562.404 308.168 562.404C312.009 562.404 315.122 559.29 315.122 555.449C315.122 553.448 314.278 551.645 312.924 550.375L313.666 549.584C315.229 551.05 316.206 553.136 316.206 555.449C316.206 559.888 312.607 563.487 308.168 563.487C303.728 563.487 300.129 559.888 300.129 555.449C300.129 551.285 303.295 547.86 307.351 547.451Z" fill="#B3B3B3"/>
<path d="M123.46 302.181L47.0186 302.181L47.0186 282" stroke="white"/>
<path d="M56.0186 289.725L47.0093 282L38 289.928" stroke="white" stroke-linecap="round" stroke-linejoin="round"/>
<path d="M232.559 462.819L309 462.819L309 483" stroke="white"/>
<path d="M300 475.275L309.009 483L318.019 475.072" stroke="white" stroke-linecap="round" stroke-linejoin="round"/>
</g>
<defs>
<clipPath id="clip0">
<rect width="360.294" height="632.565" fill="white" transform="translate(0 0.472168)"/>
</clipPath>
<clipPath id="clip1">
<rect width="130.29" height="120.14" fill="white" transform="translate(110.709 0.472168)"/>
</clipPath>
<clipPath id="clip2">
<rect width="130" height="93" fill="white" transform="translate(111)"/>
</clipPath>
<clipPath id="clip3">
<rect width="137.662" height="93.6964" fill="white" transform="translate(219.085 144)"/>
</clipPath>
<clipPath id="clip4">
<rect width="128.292" height="93.6964" fill="white" transform="translate(10.332 144)"/>
</clipPath>
</defs>
</svg>
