<svg width="706" height="464" fill="none" xmlns="http://www.w3.org/2000/svg"><path d="M628.06 412l2.436-6.732h.024V412h1.524v-8.568h-2.184l-2.304 6.444h-.024l-2.304-6.444h-2.256V412h1.464v-6.732h.024l2.448 6.732h1.152zm14.543 0h1.632l-3.444-8.568h-1.788L635.559 412h1.56l.816-2.1h3.864l.804 2.1zm-2.736-7.032h.036l1.416 3.696h-2.892l1.44-3.696zm7.089 2.736c0 2.652 1.62 4.44 4.02 4.44 1.056 0 2.148-.552 2.46-1.368l.108 1.224h1.236v-4.368h-3.24v1.152h1.656v.3c0 1.056-.864 1.8-2.124 1.8-1.596 0-2.496-1.224-2.496-3.18 0-1.944.924-3.156 2.52-3.156 1.152 0 1.8.6 2.004 1.56h1.572c-.336-1.692-1.512-2.82-3.576-2.82-2.448 0-4.14 1.776-4.14 4.416zM665.181 412h1.632l-3.444-8.568h-1.788L658.137 412h1.56l.816-2.1h3.864l.804 2.1zm-2.736-7.032h.036l1.416 3.696h-2.892l1.44-3.696zm14.401-.336v-1.2h-6.768v1.26h4.824l-4.98 6.192V412h6.996v-1.26h-5.028l4.956-6.108zm4.017 7.368h1.596v-8.568h-1.596V412zm7.799-8.568h-1.86V412h1.524v-6.636h.024l4.404 6.636h1.476v-8.568h-1.512v6.072h-.024l-4.032-6.072zM704.781 412v-1.26h-4.644v-2.4h4.068v-1.26h-4.068v-2.388h4.596v-1.26h-6.156V412h6.204z" fill="#464646"/><path d="M1 375h704L1 319v56z" fill="url(#paint0_linear)"/><path d="M705 319H1l704 56v-56z" fill="url(#paint1_linear)"/><path d="M1 432h704" stroke="#000"/><path d="M7.674 425L1 432.026l6.85 7.025m690.476 0l6.674-7.025-6.85-7.026" stroke="#222" stroke-linecap="round" stroke-linejoin="round"/><path stroke="#000" stroke-dasharray="0.44 2.67" d="M1 1h704v75H1z"/><g filter="url(#filter0_d)"><g clip-path="url(#clip0)"><g filter="url(#filter1_d)"><path fill="#fff" d="M57 108h177v216H57z"/></g><path fill="url(#paint2_linear)" d="M57 108h172v74H57z"/><path d="M128.663 136.576h-4.4V148h4.4c3.44 0 5.712-2.272 5.712-5.712 0-3.424-2.272-5.712-5.712-5.712zm0 1.68c2.272 0 3.536 1.488 3.536 4.032s-1.264 4.032-3.536 4.032h-2.32v-8.064h2.32zM138.726 148h8.016v-1.68h-5.888v-9.744h-2.128V148zm12.525 0h2.128v-4.576h5.168v-1.68h-5.168v-3.488h5.76v-1.68h-7.888V148zm-46.612 14.89c.1 1.56 1.4 2.23 2.95 2.23 1.51 0 2.59-.86 2.59-2.08 0-1.13-.7-1.64-1.8-1.86l-1.4-.29c-.87-.17-1.27-.42-1.27-1.13 0-.75.62-1.33 1.66-1.33 1.02 0 1.72.46 1.84 1.26h.83c-.14-1.29-1.15-1.95-2.68-1.95-1.48 0-2.49.88-2.49 2.05 0 1.23.86 1.67 1.82 1.85l1.36.27c.97.18 1.3.57 1.3 1.17 0 .86-.75 1.35-1.77 1.35-1.06 0-2-.39-2.11-1.54h-.83zm14.692-.8v-4.23h-.86v4.28c0 1.52-.77 2.25-2.03 2.25-1.25 0-2.03-.73-2.03-2.25v-4.28h-.86v4.21c0 1.97 1.07 3.05 2.89 3.05 1.84 0 2.89-1.08 2.89-3.03zm6.592 2.91c1.58 0 2.51-.69 2.51-2 0-.84-.55-1.49-1.43-1.71.61-.18 1.11-.86 1.11-1.52 0-1.25-.92-1.91-2.51-1.91h-2.51V165h2.83zm-1.98-3.99v-2.45h1.72c1.06 0 1.58.43 1.58 1.22 0 .78-.53 1.23-1.59 1.23h-1.71zm0 .67h1.92c1.09 0 1.71.5 1.71 1.32 0 .82-.6 1.3-1.69 1.3h-1.94v-2.62zm14.886 3.32c1.58 0 2.51-.69 2.51-2 0-.84-.55-1.49-1.43-1.71.61-.18 1.11-.86 1.11-1.52 0-1.25-.92-1.91-2.51-1.91h-2.51V165h2.83zm-1.98-3.99v-2.45h1.72c1.06 0 1.58.43 1.58 1.22 0 .78-.53 1.23-1.59 1.23h-1.71zm0 .67h1.92c1.09 0 1.71.5 1.71 1.32 0 .82-.6 1.3-1.69 1.3h-1.94v-2.62zm8.739 3.32v-2.89h1.9l1.85 2.89h.97l-1.96-3.02c.84-.19 1.65-.84 1.65-2 0-1.37-.91-2.12-2.51-2.12h-2.75V165h.85zm0-3.61v-2.81h1.85c1.08 0 1.69.5 1.69 1.4 0 .93-.61 1.41-1.69 1.41h-1.85zm13.144 3.61h.9l-2.9-7.14h-.97l-2.89 7.14h.86l.79-1.99h3.42l.79 1.99zm-2.51-6.28h.03l1.41 3.58h-2.86l1.42-3.58zm7.57-.86h-1.06V165h.84v-6.09h.02l4.06 6.09h.8v-7.14h-.83v5.7h-.02l-3.81-5.7zm11.058 0h-2.53V165h2.53c2.07 0 3.48-1.42 3.48-3.57 0-2.14-1.41-3.57-3.48-3.57zm0 .72c1.66 0 2.59 1.13 2.59 2.85 0 1.73-.93 2.85-2.59 2.85h-1.68v-5.7h1.68z" fill="#fff"/><path d="M112.368 199.432h-1.86V208h1.524v-6.636h.024L116.46 208h1.476v-8.568h-1.512v6.072h-.024l-4.032-6.072zM128.487 208v-1.26h-4.644v-2.4h4.068v-1.26h-4.068v-2.388h4.596v-1.26h-6.156V208h6.204zm10.803 0h1.752l2.364-8.568h-1.56l-1.704 6.648h-.024l-1.668-6.648h-1.608l-1.668 6.648h-.024l-1.716-6.648h-1.632l2.364 8.568h1.74l1.68-6.612h.024l1.68 6.612zm7.069-2.592c.156 1.884 1.728 2.736 3.768 2.736 1.896 0 3.324-1.032 3.324-2.592 0-1.38-.84-2.076-2.244-2.34l-1.656-.324c-.924-.18-1.368-.408-1.368-1.116 0-.756.648-1.296 1.68-1.296 1.068 0 1.812.468 1.92 1.308h1.5c-.168-1.608-1.392-2.496-3.432-2.496-1.872 0-3.216 1.056-3.216 2.58 0 1.5 1.02 2.1 2.28 2.328l1.572.288c1.032.192 1.404.54 1.404 1.164 0 .864-.792 1.32-1.812 1.32-1.068 0-2.076-.396-2.184-1.56h-1.536zm18.564-6.108c.64 0 1.144.164 1.512.492.376.32.564.772.564 1.356 0 .504-.164.932-.492 1.284-.32.352-.728.672-1.224.96l2.316 2.232c.208-.248.376-.532.504-.852.136-.328.248-.68.336-1.056h1.068a9.06 9.06 0 01-.48 1.428c-.192.44-.44.824-.744 1.152l1.752 1.704h-1.428l-1.044-1.008a4.867 4.867 0 01-1.26.816c-.464.208-1.028.312-1.692.312-.824 0-1.48-.204-1.968-.612-.488-.408-.732-.988-.732-1.74 0-.616.164-1.108.492-1.476.336-.376.788-.724 1.356-1.044a9.188 9.188 0 01-.72-.924 2.046 2.046 0 01-.324-1.152c0-.592.196-1.052.588-1.38.4-.328.94-.492 1.62-.492zm-.036.864c-.336 0-.612.088-.828.264-.208.176-.312.42-.312.732 0 .288.076.556.228.804.152.24.372.508.66.804.472-.272.808-.528 1.008-.768.208-.248.312-.532.312-.852a.937.937 0 00-.288-.708c-.192-.184-.452-.276-.78-.276zm-.492 3.744c-.432.256-.772.516-1.02.78-.24.264-.36.612-.36 1.044 0 .44.148.792.444 1.056.296.264.692.396 1.188.396.512 0 .952-.084 1.32-.252.368-.168.676-.368.924-.6l-2.496-2.424zm-59.894 17.796c0-1.944.864-3.156 2.412-3.156 1.224 0 1.788.696 1.956 1.572h1.548c-.3-1.68-1.452-2.832-3.504-2.832-2.4 0-4.032 1.776-4.032 4.416 0 2.664 1.632 4.44 4.032 4.44 2.052 0 3.204-1.164 3.504-2.832h-1.548c-.168.876-.732 1.572-1.956 1.572-1.548 0-2.412-1.224-2.412-3.18zm16.933.84v-5.112h-1.584v5.1c0 1.5-.696 2.34-2.076 2.34-1.38 0-2.064-.84-2.064-2.34v-5.1h-1.596v5.088c0 2.364 1.356 3.624 3.66 3.624 2.316 0 3.66-1.26 3.66-3.6zm5.795 3.456v-3.204h1.92l1.956 3.204h1.74l-2.148-3.444c.972-.312 1.824-1.104 1.824-2.436 0-1.752-1.176-2.688-3.18-2.688h-3.672V226h1.56zm0-4.452v-2.856h1.932c1.188 0 1.788.492 1.788 1.428 0 .936-.6 1.428-1.788 1.428h-1.932zM138.137 226v-3.204h1.92l1.956 3.204h1.74l-2.148-3.444c.972-.312 1.824-1.104 1.824-2.436 0-1.752-1.176-2.688-3.18-2.688h-3.672V226h1.56zm0-4.452v-2.856h1.932c1.188 0 1.788.492 1.788 1.428 0 .936-.6 1.428-1.788 1.428h-1.932zM153.688 226v-1.26h-4.644v-2.4h4.068v-1.26h-4.068v-2.388h4.596v-1.26h-6.156V226h6.204zm5.943-8.568h-1.86V226h1.524v-6.636h.024l4.404 6.636h1.476v-8.568h-1.512v6.072h-.024l-4.032-6.072zM172.102 226h1.584v-7.308h3.084v-1.26h-7.74v1.26h3.072V226zm-57.335 18h1.632l-3.444-8.568h-1.788L107.723 244h1.56l.816-2.1h3.864l.804 2.1zm-2.736-7.032h.036l1.416 3.696h-2.892l1.44-3.696zm7.885 7.032h1.596v-3.432h3.876v-1.26h-3.876v-2.616h4.32v-1.26h-5.916V244zm9.959 0h1.596v-3.432h3.876v-1.26h-3.876v-2.616h4.32v-1.26h-5.916V244zm15.506 0h1.632l-3.444-8.568h-1.788L138.337 244h1.56l.816-2.1h3.864l.804 2.1zm-2.736-7.032h.036l1.416 3.696h-2.892l1.44-3.696zM150.53 244h1.596v-8.568h-1.596V244zm7.499 0v-3.204h1.92l1.956 3.204h1.74l-2.148-3.444c.972-.312 1.824-1.104 1.824-2.436 0-1.752-1.176-2.688-3.18-2.688h-3.672V244h1.56zm0-4.452v-2.856h1.932c1.188 0 1.788.492 1.788 1.428 0 .936-.6 1.428-1.788 1.428h-1.932zm8.784 1.86c.156 1.884 1.728 2.736 3.768 2.736 1.896 0 3.324-1.032 3.324-2.592 0-1.38-.84-2.076-2.244-2.34l-1.656-.324c-.924-.18-1.368-.408-1.368-1.116 0-.756.648-1.296 1.68-1.296 1.068 0 1.812.468 1.92 1.308h1.5c-.168-1.608-1.392-2.496-3.432-2.496-1.872 0-3.216 1.056-3.216 2.58 0 1.5 1.02 2.1 2.28 2.328l1.572.288c1.032.192 1.404.54 1.404 1.164 0 .864-.792 1.32-1.812 1.32-1.068 0-2.076-.396-2.184-1.56h-1.536zm-85.171 17.304c0-.976.14-1.916.42-2.82a7.167 7.167 0 011.344-2.46h.996a8.396 8.396 0 00-1.272 2.484 9.356 9.356 0 00-.42 2.784c0 .928.14 1.84.42 2.736a8.63 8.63 0 001.26 2.46h-.984a6.85 6.85 0 01-1.344-2.388 9.319 9.319 0 01-.42-2.796zm6.49 3.288h1.595v-8.568h-1.596V262zm7.798-8.568h-1.86V262h1.524v-6.636h.024l4.404 6.636h1.476v-8.568h-1.512v6.072h-.024l-4.032-6.072zm9.351 5.976c.156 1.884 1.728 2.736 3.768 2.736 1.896 0 3.324-1.032 3.324-2.592 0-1.38-.84-2.076-2.244-2.34l-1.656-.324c-.924-.18-1.368-.408-1.368-1.116 0-.756.648-1.296 1.68-1.296 1.068 0 1.812.468 1.92 1.308h1.5c-.168-1.608-1.392-2.496-3.432-2.496-1.872 0-3.216 1.056-3.216 2.58 0 1.5 1.02 2.1 2.28 2.328l1.572.288c1.032.192 1.404.54 1.404 1.164 0 .864-.792 1.32-1.812 1.32-1.068 0-2.076-.396-2.184-1.56h-1.536zM118.548 262h1.584v-7.308h3.084v-1.26h-7.74v1.26h3.072V262zm8.492 0h1.596v-8.568h-1.596V262zm8.495 0h1.584v-7.308h3.084v-1.26h-7.74v1.26h3.072V262zm15.704-3.456v-5.112h-1.584v5.1c0 1.5-.696 2.34-2.076 2.34-1.38 0-2.064-.84-2.064-2.34v-5.1h-1.596v5.088c0 2.364 1.356 3.624 3.66 3.624 2.316 0 3.66-1.26 3.66-3.6zM158.03 262h1.584v-7.308h3.084v-1.26h-7.74v1.26h3.072V262zm8.493 0h1.596v-8.568h-1.596V262zm13.655-4.284c0-2.568-1.572-4.428-4.092-4.428-2.52 0-4.092 1.86-4.092 4.428 0 2.58 1.572 4.428 4.092 4.428 2.52 0 4.092-1.848 4.092-4.428zm-1.62 0c0 1.908-.84 3.168-2.472 3.168-1.644 0-2.472-1.26-2.472-3.168 0-1.896.828-3.168 2.472-3.168 1.632 0 2.472 1.272 2.472 3.168zm7.34-4.284h-1.86V262h1.524v-6.636h.024L189.99 262h1.476v-8.568h-1.512v6.072h-.024l-4.032-6.072zm12.063 5.28c0 .968-.144 1.9-.432 2.796a6.697 6.697 0 01-1.332 2.388h-.984a8.398 8.398 0 001.248-2.46 8.89 8.89 0 00.432-2.736c0-.952-.144-1.88-.432-2.784a8.18 8.18 0 00-1.26-2.484h.996a7.007 7.007 0 011.332 2.46c.288.904.432 1.844.432 2.82z" fill="#222"/></g></g><g filter="url(#filter2_d)"><g clip-path="url(#clip1)"><g filter="url(#filter3_d)"><path fill="#fff" d="M269 108h177v216H269z"/></g><path fill="#78DE7F" d="M269 108h172v74H269z"/><path d="M308.96 136.576h-4.4V148h4.4c3.44 0 5.712-2.272 5.712-5.712 0-3.424-2.272-5.712-5.712-5.712zm0 1.68c2.272 0 3.536 1.488 3.536 4.032s-1.264 4.032-3.536 4.032h-2.32v-8.064h2.32zM319.023 148h8.016v-1.68h-5.888v-9.744h-2.128V148zm12.525 0h2.128v-4.576h5.168v-1.68h-5.168v-3.488h5.76v-1.68h-7.888V148zm20.717-11.424h-2.48V148h2.032v-8.848h.032l5.872 8.848h1.968v-11.424h-2.016v8.096h-.032l-5.376-8.096zm22.708 5.712c0-3.424-2.096-5.904-5.456-5.904-3.36 0-5.456 2.48-5.456 5.904 0 3.44 2.096 5.904 5.456 5.904 3.36 0 5.456-2.464 5.456-5.904zm-2.16 0c0 2.544-1.12 4.224-3.296 4.224-2.192 0-3.296-1.68-3.296-4.224 0-2.528 1.104-4.224 3.296-4.224 2.176 0 3.296 1.696 3.296 4.224zm9.461 5.712h2.368l4.528-11.424h-2.16l-3.488 9.152h-.032l-3.472-9.152h-2.256L382.274 148zm18.092 0h2.176l-4.592-11.424h-2.384L390.974 148h2.08l1.088-2.8h5.152l1.072 2.8zm-3.648-9.376h.048l1.888 4.928h-3.856l1.92-4.928zm-80.579 24.266c.1 1.56 1.4 2.23 2.95 2.23 1.51 0 2.59-.86 2.59-2.08 0-1.13-.7-1.64-1.8-1.86l-1.4-.29c-.87-.17-1.27-.42-1.27-1.13 0-.75.62-1.33 1.66-1.33 1.02 0 1.72.46 1.84 1.26h.83c-.14-1.29-1.15-1.95-2.68-1.95-1.48 0-2.49.88-2.49 2.05 0 1.23.86 1.67 1.82 1.85l1.36.27c.97.18 1.3.57 1.3 1.17 0 .86-.75 1.35-1.77 1.35-1.06 0-2-.39-2.11-1.54h-.83zm14.692-.8v-4.23h-.86v4.28c0 1.52-.77 2.25-2.03 2.25-1.25 0-2.03-.73-2.03-2.25v-4.28h-.86v4.21c0 1.97 1.07 3.05 2.89 3.05 1.84 0 2.89-1.08 2.89-3.03zm6.592 2.91c1.58 0 2.51-.69 2.51-2 0-.84-.55-1.49-1.43-1.71.61-.18 1.11-.86 1.11-1.52 0-1.25-.92-1.91-2.51-1.91h-2.51V165h2.83zm-1.98-3.99v-2.45h1.72c1.06 0 1.58.43 1.58 1.22 0 .78-.53 1.23-1.59 1.23h-1.71zm0 .67h1.92c1.09 0 1.71.5 1.71 1.32 0 .82-.6 1.3-1.69 1.3h-1.94v-2.62zm14.886 3.32c1.58 0 2.51-.69 2.51-2 0-.84-.55-1.49-1.43-1.71.61-.18 1.11-.86 1.11-1.52 0-1.25-.92-1.91-2.51-1.91h-2.51V165h2.83zm-1.98-3.99v-2.45h1.72c1.06 0 1.58.43 1.58 1.22 0 .78-.53 1.23-1.59 1.23h-1.71zm0 .67h1.92c1.09 0 1.71.5 1.71 1.32 0 .82-.6 1.3-1.69 1.3h-1.94v-2.62zm8.739 3.32v-2.89h1.9l1.85 2.89h.97l-1.96-3.02c.84-.19 1.65-.84 1.65-2 0-1.37-.91-2.12-2.51-2.12h-2.75V165h.85zm0-3.61v-2.81h1.85c1.08 0 1.69.5 1.69 1.4 0 .93-.61 1.41-1.69 1.41h-1.85zm13.144 3.61h.9l-2.9-7.14h-.97l-2.89 7.14h.86l.79-1.99h3.42l.79 1.99zm-2.51-6.28h.03l1.41 3.58h-2.86l1.42-3.58zm7.57-.86h-1.06V165h.84v-6.09h.02l4.06 6.09h.8v-7.14h-.83v5.7h-.02l-3.81-5.7zm11.058 0h-2.53V165h2.53c2.07 0 3.48-1.42 3.48-3.57 0-2.14-1.41-3.57-3.48-3.57zm0 .72c1.66 0 2.59 1.13 2.59 2.85 0 1.73-.93 2.85-2.59 2.85h-1.68v-5.7h1.68z" fill="#fff"/><path d="M301.174 208h1.584v-7.308h3.084v-1.26h-7.74v1.26h3.072V208zm14.697 0v-1.26h-4.644v-2.4h4.068v-1.26h-4.068v-2.388h4.596v-1.26h-6.156V208h6.204zm5.235-4.296c0-1.944.864-3.156 2.412-3.156 1.224 0 1.788.696 1.956 1.572h1.548c-.3-1.68-1.452-2.832-3.504-2.832-2.4 0-4.032 1.776-4.032 4.416 0 2.664 1.632 4.44 4.032 4.44 2.052 0 3.204-1.164 3.504-2.832h-1.548c-.168.876-.732 1.572-1.956 1.572-1.548 0-2.412-1.224-2.412-3.18zm9.72 4.296h1.596v-3.72h4.392V208h1.584v-8.568h-1.584v3.6h-4.392v-3.6h-1.596V208zm13.776-8.568h-1.86V208h1.524v-6.636h.024l4.404 6.636h1.476v-8.568h-1.512v6.072h-.024l-4.032-6.072zm17.631 4.284c0-2.568-1.572-4.428-4.092-4.428-2.52 0-4.092 1.86-4.092 4.428 0 2.58 1.572 4.428 4.092 4.428 2.52 0 4.092-1.848 4.092-4.428zm-1.62 0c0 1.908-.84 3.168-2.472 3.168-1.644 0-2.472-1.26-2.472-3.168 0-1.896.828-3.168 2.472-3.168 1.632 0 2.472 1.272 2.472 3.168zm5.48 4.284h6.012v-1.26h-4.416v-7.308h-1.596V208zm17.311-4.284c0-2.568-1.572-4.428-4.092-4.428-2.52 0-4.092 1.86-4.092 4.428 0 2.58 1.572 4.428 4.092 4.428 2.52 0 4.092-1.848 4.092-4.428zm-1.62 0c0 1.908-.84 3.168-2.472 3.168-1.644 0-2.472-1.26-2.472-3.168 0-1.896.828-3.168 2.472-3.168 1.632 0 2.472 1.272 2.472 3.168zm5.07-.012c0 2.652 1.62 4.44 4.02 4.44 1.056 0 2.148-.552 2.46-1.368l.108 1.224h1.236v-4.368h-3.24v1.152h1.656v.3c0 1.056-.864 1.8-2.124 1.8-1.596 0-2.496-1.224-2.496-3.18 0-1.944.924-3.156 2.52-3.156 1.152 0 1.8.6 2.004 1.56h1.572c-.336-1.692-1.512-2.82-3.576-2.82-2.448 0-4.14 1.776-4.14 4.416zM402.509 208v-3.516l3.324-5.052h-1.74l-2.316 3.66h-.024l-2.376-3.66h-1.776l3.312 5.052V208h1.596zm-105.131 18h1.632l-3.444-8.568h-1.788L290.334 226h1.56l.816-2.1h3.864l.804 2.1zm-2.736-7.032h.036l1.416 3.696h-2.892l1.44-3.696zm9.745-1.536h-1.86V226h1.524v-6.636h.024l4.404 6.636h1.476v-8.568h-1.512v6.072h-.024l-4.032-6.072zm13.215 0h-3.3V226h3.3c2.58 0 4.284-1.704 4.284-4.284 0-2.568-1.704-4.284-4.284-4.284zm0 1.26c1.704 0 2.652 1.116 2.652 3.024s-.948 3.024-2.652 3.024h-1.74v-6.048h1.74zM330.668 226h6.012v-1.26h-4.416v-7.308h-1.596V226zm9.994 0h1.596v-8.568h-1.596V226zm5.939 0h1.596v-3.432h3.876v-1.26h-3.876v-2.616h4.32v-1.26h-5.916V226zm16.163 0v-1.26h-4.644v-2.4h4.068v-1.26h-4.068v-2.388h4.596v-1.26h-6.156V226h6.204zm3.495-2.592c.156 1.884 1.728 2.736 3.768 2.736 1.896 0 3.324-1.032 3.324-2.592 0-1.38-.84-2.076-2.244-2.34l-1.656-.324c-.924-.18-1.368-.408-1.368-1.116 0-.756.648-1.296 1.68-1.296 1.068 0 1.812.468 1.92 1.308h1.5c-.168-1.608-1.392-2.496-3.432-2.496-1.872 0-3.216 1.056-3.216 2.58 0 1.5 1.02 2.1 2.28 2.328l1.572.288c1.032.192 1.404.54 1.404 1.164 0 .864-.792 1.32-1.812 1.32-1.068 0-2.076-.396-2.184-1.56h-1.536zM379.525 226h1.584v-7.308h3.084v-1.26h-7.74v1.26h3.072V226zm12.548 0v-3.516l3.324-5.052h-1.74l-2.316 3.66h-.024l-2.376-3.66h-1.776l3.312 5.052V226h1.596zm6.817 0h6.012v-1.26h-4.416v-7.308h-1.596V226zm16.198 0v-1.26h-4.644v-2.4h4.068v-1.26h-4.068v-2.388h4.596v-1.26h-6.156V226h6.204zm-103.581 14.712c0-.976.14-1.916.42-2.82a7.167 7.167 0 011.344-2.46h.996a8.396 8.396 0 00-1.272 2.484 9.356 9.356 0 00-.42 2.784c0 .928.14 1.84.42 2.736a8.63 8.63 0 001.26 2.46h-.984a6.85 6.85 0 01-1.344-2.388 9.319 9.319 0 01-.42-2.796zM322.053 244v-3.516l3.324-5.052h-1.74l-2.316 3.66h-.024l-2.376-3.66h-1.776l3.312 5.052V244h1.596zm14.064-4.284c0-2.568-1.572-4.428-4.092-4.428-2.52 0-4.092 1.86-4.092 4.428 0 2.58 1.572 4.428 4.092 4.428 2.52 0 4.092-1.848 4.092-4.428zm-1.62 0c0 1.908-.84 3.168-2.472 3.168-1.644 0-2.472-1.26-2.472-3.168 0-1.896.828-3.168 2.472-3.168 1.632 0 2.472 1.272 2.472 3.168zm12.691.828v-5.112h-1.584v5.1c0 1.5-.696 2.34-2.076 2.34-1.38 0-2.064-.84-2.064-2.34v-5.1h-1.596v5.088c0 2.364 1.356 3.624 3.66 3.624 2.316 0 3.66-1.26 3.66-3.6zm6.095-5.112h-1.86V244h1.524v-6.636h.024l4.404 6.636h1.476v-8.568h-1.512v6.072h-.024l-4.032-6.072zm9.447 4.272c0 2.652 1.62 4.44 4.02 4.44 1.056 0 2.148-.552 2.46-1.368l.108 1.224h1.236v-4.368h-3.24v1.152h1.656v.3c0 1.056-.864 1.8-2.124 1.8-1.596 0-2.496-1.224-2.496-3.18 0-1.944.924-3.156 2.52-3.156 1.152 0 1.8.6 2.004 1.56h1.572c-.336-1.692-1.512-2.82-3.576-2.82-2.448 0-4.14 1.776-4.14 4.416zM380.955 244v-1.26h-4.644v-2.4h4.068v-1.26h-4.068v-2.388h4.596v-1.26h-6.156V244h6.204zm5.642 0v-3.204h1.92l1.956 3.204h1.74l-2.148-3.444c.972-.312 1.824-1.104 1.824-2.436 0-1.752-1.176-2.688-3.18-2.688h-3.672V244h1.56zm0-4.452v-2.856h1.932c1.188 0 1.788.492 1.788 1.428 0 .936-.6 1.428-1.788 1.428h-1.932zM316.814 262h1.632l-3.444-8.568h-1.788L309.77 262h1.56l.816-2.1h3.864l.804 2.1zm-2.736-7.032h.036l1.416 3.696h-2.892l1.44-3.696zm14.816 3.576v-5.112h-1.584v5.1c0 1.5-.696 2.34-2.076 2.34-1.38 0-2.064-.84-2.064-2.34v-5.1h-1.596v5.088c0 2.364 1.356 3.624 3.66 3.624 2.316 0 3.66-1.26 3.66-3.6zm7.535-5.112h-3.3V262h3.3c2.58 0 4.284-1.704 4.284-4.284 0-2.568-1.704-4.284-4.284-4.284zm0 1.26c1.704 0 2.652 1.116 2.652 3.024s-.948 3.024-2.652 3.024h-1.74v-6.048h1.74zm8.147 7.308h1.596v-8.568h-1.596V262zm12.143 0v-1.26h-4.644v-2.4h4.068v-1.26h-4.068v-2.388h4.596v-1.26h-6.156V262h6.204zm5.943-8.568h-1.86V262h1.524v-6.636h.024l4.404 6.636h1.476v-8.568h-1.512v6.072h-.024l-4.032-6.072zm11.067 4.272c0-1.944.864-3.156 2.412-3.156 1.224 0 1.788.696 1.956 1.572h1.548c-.3-1.68-1.452-2.832-3.504-2.832-2.4 0-4.032 1.776-4.032 4.416 0 2.664 1.632 4.44 4.032 4.44 2.052 0 3.204-1.164 3.504-2.832h-1.548c-.168.876-.732 1.572-1.956 1.572-1.548 0-2.412-1.224-2.412-3.18zM389.653 262v-1.26h-4.644v-2.4h4.068v-1.26h-4.068v-2.388h4.596v-1.26h-6.156V262h6.204zm6.231-3.288c0 .968-.144 1.9-.432 2.796a6.697 6.697 0 01-1.332 2.388h-.984a8.398 8.398 0 001.248-2.46 8.89 8.89 0 00.432-2.736c0-.952-.144-1.88-.432-2.784a8.18 8.18 0 00-1.26-2.484h.996a7.007 7.007 0 011.332 2.46c.288.904.432 1.844.432 2.82z" fill="#222"/></g></g><g filter="url(#filter4_d)"><g clip-path="url(#clip2)"><g filter="url(#filter5_d)"><path fill="#fff" d="M481 108h177v216H481z"/></g><path fill="#FF6400" d="M481 108h172v74H481z"/><path d="M508.701 136.576h-4.4V148h4.4c3.44 0 5.712-2.272 5.712-5.712 0-3.424-2.272-5.712-5.712-5.712zm0 1.68c2.272 0 3.536 1.488 3.536 4.032s-1.264 4.032-3.536 4.032h-2.32v-8.064h2.32zM518.763 148h8.016v-1.68h-5.888v-9.744h-2.128V148zm12.525 0h2.128v-4.576h5.168v-1.68h-5.168v-3.488h5.76v-1.68h-7.888V148zm25.966 0h2.56l-5.168-6.464 4.72-4.96h-2.432l-5.28 5.744v-5.744h-2.128V148h2.128v-3.312l1.584-1.664 4.016 4.976zm15.756-4.608v-6.816h-2.112v6.8c0 2-.928 3.12-2.768 3.12-1.84 0-2.752-1.12-2.752-3.12v-6.8h-2.128v6.784c0 3.152 1.808 4.832 4.88 4.832 3.088 0 4.88-1.68 4.88-4.8zm4.847 4.608h8.016v-1.68h-5.888v-9.744h-2.128V148zm14.105 0h2.112v-9.744h4.112v-1.68h-10.32v1.68h4.096V148zm20.139-4.608v-6.816h-2.112v6.8c0 2-.928 3.12-2.768 3.12-1.84 0-2.752-1.12-2.752-3.12v-6.8h-2.128v6.784c0 3.152 1.808 4.832 4.88 4.832 3.088 0 4.88-1.68 4.88-4.8zm6.927 4.608v-4.272h2.56l2.608 4.272h2.32l-2.864-4.592c1.296-.416 2.432-1.472 2.432-3.248 0-2.336-1.568-3.584-4.24-3.584h-4.896V148h2.08zm0-5.936v-3.808h2.576c1.584 0 2.384.656 2.384 1.904 0 1.248-.8 1.904-2.384 1.904h-2.576zm-90.889 20.826c.1 1.56 1.4 2.23 2.95 2.23 1.51 0 2.59-.86 2.59-2.08 0-1.13-.7-1.64-1.8-1.86l-1.4-.29c-.87-.17-1.27-.42-1.27-1.13 0-.75.62-1.33 1.66-1.33 1.02 0 1.72.46 1.84 1.26h.83c-.14-1.29-1.15-1.95-2.68-1.95-1.48 0-2.49.88-2.49 2.05 0 1.23.86 1.67 1.82 1.85l1.36.27c.97.18 1.3.57 1.3 1.17 0 .86-.75 1.35-1.77 1.35-1.06 0-2-.39-2.11-1.54h-.83zm14.692-.8v-4.23h-.86v4.28c0 1.52-.77 2.25-2.03 2.25-1.25 0-2.03-.73-2.03-2.25v-4.28h-.86v4.21c0 1.97 1.07 3.05 2.89 3.05 1.84 0 2.89-1.08 2.89-3.03zm6.592 2.91c1.58 0 2.51-.69 2.51-2 0-.84-.55-1.49-1.43-1.71.61-.18 1.11-.86 1.11-1.52 0-1.25-.92-1.91-2.51-1.91h-2.51V165h2.83zm-1.98-3.99v-2.45h1.72c1.06 0 1.58.43 1.58 1.22 0 .78-.53 1.23-1.59 1.23h-1.71zm0 .67h1.92c1.09 0 1.71.5 1.71 1.32 0 .82-.6 1.3-1.69 1.3h-1.94v-2.62zm14.886 3.32c1.58 0 2.51-.69 2.51-2 0-.84-.55-1.49-1.43-1.71.61-.18 1.11-.86 1.11-1.52 0-1.25-.92-1.91-2.51-1.91h-2.51V165h2.83zm-1.98-3.99v-2.45h1.72c1.06 0 1.58.43 1.58 1.22 0 .78-.53 1.23-1.59 1.23h-1.71zm0 .67h1.92c1.09 0 1.71.5 1.71 1.32 0 .82-.6 1.3-1.69 1.3h-1.94v-2.62zm8.739 3.32v-2.89h1.9l1.85 2.89h.97l-1.96-3.02c.84-.19 1.65-.84 1.65-2 0-1.37-.91-2.12-2.51-2.12h-2.75V165h.85zm0-3.61v-2.81h1.85c1.08 0 1.69.5 1.69 1.4 0 .93-.61 1.41-1.69 1.41h-1.85zm13.144 3.61h.9l-2.9-7.14h-.97l-2.89 7.14h.86l.79-1.99h3.42l.79 1.99zm-2.51-6.28h.03l1.41 3.58h-2.86l1.42-3.58zm7.57-.86h-1.06V165h.84v-6.09h.02l4.06 6.09h.8v-7.14h-.83v5.7h-.02l-3.81-5.7zm11.058 0h-2.53V165h2.53c2.07 0 3.48-1.42 3.48-3.57 0-2.14-1.41-3.57-3.48-3.57zm0 .72c1.66 0 2.59 1.13 2.59 2.85 0 1.73-.93 2.85-2.59 2.85h-1.68v-5.7h1.68z" fill="#fff"/><path d="M510.061 203.704c0-1.944.864-3.156 2.412-3.156 1.224 0 1.788.696 1.956 1.572h1.548c-.3-1.68-1.452-2.832-3.504-2.832-2.4 0-4.032 1.776-4.032 4.416 0 2.664 1.632 4.44 4.032 4.44 2.052 0 3.204-1.164 3.504-2.832h-1.548c-.168.876-.732 1.572-1.956 1.572-1.548 0-2.412-1.224-2.412-3.18zm16.932.84v-5.112h-1.584v5.1c0 1.5-.696 2.34-2.076 2.34-1.38 0-2.064-.84-2.064-2.34v-5.1h-1.596v5.088c0 2.364 1.356 3.624 3.66 3.624 2.316 0 3.66-1.26 3.66-3.6zm4.235 3.456h6.012v-1.26h-4.416v-7.308h-1.596V208zm11.179 0h1.584v-7.308h3.084v-1.26h-7.74v1.26h3.072V208zm15.704-3.456v-5.112h-1.584v5.1c0 1.5-.696 2.34-2.076 2.34-1.38 0-2.064-.84-2.064-2.34v-5.1h-1.596v5.088c0 2.364 1.356 3.624 3.66 3.624 2.316 0 3.66-1.26 3.66-3.6zm5.795 3.456v-3.204h1.92l1.956 3.204h1.74l-2.148-3.444c.972-.312 1.824-1.104 1.824-2.436 0-1.752-1.176-2.688-3.18-2.688h-3.672V208h1.56zm0-4.452v-2.856h1.932c1.188 0 1.788.492 1.788 1.428 0 .936-.6 1.428-1.788 1.428h-1.932zM579.458 208v-1.26h-4.644v-2.4h4.068v-1.26h-4.068v-2.388h4.596v-1.26h-6.156V208h6.204zm15.206 0h1.632l-3.444-8.568h-1.788L587.62 208h1.56l.816-2.1h3.864l.804 2.1zm-2.736-7.032h.036l1.416 3.696h-2.892l1.44-3.696zm9.745-1.536h-1.86V208h1.524v-6.636h.024l4.404 6.636h1.476v-8.568h-1.512v6.072h-.024l-4.032-6.072zm13.215 0h-3.3V208h3.3c2.58 0 4.284-1.704 4.284-4.284 0-2.568-1.704-4.284-4.284-4.284zm0 1.26c1.704 0 2.652 1.116 2.652 3.024s-.948 3.024-2.652 3.024h-1.74v-6.048h1.74zm-83.821 22.716c.156 1.884 1.728 2.736 3.768 2.736 1.896 0 3.324-1.032 3.324-2.592 0-1.38-.84-2.076-2.244-2.34l-1.656-.324c-.924-.18-1.368-.408-1.368-1.116 0-.756.648-1.296 1.68-1.296 1.068 0 1.812.468 1.92 1.308h1.5c-.168-1.608-1.392-2.496-3.432-2.496-1.872 0-3.216 1.056-3.216 2.58 0 1.5 1.02 2.1 2.28 2.328l1.572.288c1.032.192 1.404.54 1.404 1.164 0 .864-.792 1.32-1.812 1.32-1.068 0-2.076-.396-2.184-1.56h-1.536zm18.708-1.692c0-2.568-1.572-4.428-4.092-4.428-2.52 0-4.092 1.86-4.092 4.428 0 2.58 1.572 4.428 4.092 4.428 2.52 0 4.092-1.848 4.092-4.428zm-1.62 0c0 1.908-.84 3.168-2.472 3.168-1.644 0-2.472-1.26-2.472-3.168 0-1.896.828-3.168 2.472-3.168 1.632 0 2.472 1.272 2.472 3.168zm6.69-.012c0-1.944.864-3.156 2.412-3.156 1.224 0 1.788.696 1.956 1.572h1.548c-.3-1.68-1.452-2.832-3.504-2.832-2.4 0-4.032 1.776-4.032 4.416 0 2.664 1.632 4.44 4.032 4.44 2.052 0 3.204-1.164 3.504-2.832h-1.548c-.168.876-.732 1.572-1.956 1.572-1.548 0-2.412-1.224-2.412-3.18zm9.721 4.296h1.596v-8.568h-1.596V226zm12.143 0v-1.26h-4.644v-2.4h4.068v-1.26h-4.068v-2.388h4.596v-1.26h-6.156V226h6.204zm6.639 0h1.584v-7.308h3.084v-1.26h-7.74v1.26h3.072V226zm12.548 0v-3.516l3.324-5.052h-1.74l-2.316 3.66h-.024l-2.376-3.66h-1.776l3.312 5.052V226h1.596zm-83.577 14.712c0-.976.14-1.916.42-2.82a7.167 7.167 0 011.344-2.46h.996a8.396 8.396 0 00-1.272 2.484 9.356 9.356 0 00-.42 2.784c0 .928.14 1.84.42 2.736a8.63 8.63 0 001.26 2.46h-.984a6.85 6.85 0 01-1.344-2.388 9.319 9.319 0 01-.42-2.796zM523.897 244l2.436-6.732h.024V244h1.524v-8.568h-2.184l-2.304 6.444h-.024l-2.304-6.444h-2.256V244h1.464v-6.732h.024l2.448 6.732h1.152zm8.339 0h1.596v-8.568h-1.596V244zm9.239-8.568h-3.3V244h3.3c2.58 0 4.284-1.704 4.284-4.284 0-2.568-1.704-4.284-4.284-4.284zm0 1.26c1.704 0 2.652 1.116 2.652 3.024s-.948 3.024-2.652 3.024h-1.74v-6.048h1.74zm11.447-1.26h-3.3V244h3.3c2.58 0 4.284-1.704 4.284-4.284 0-2.568-1.704-4.284-4.284-4.284zm0 1.26c1.704 0 2.652 1.116 2.652 3.024s-.948 3.024-2.652 3.024h-1.74v-6.048h1.74zm8.147 7.308h6.012v-1.26h-4.416v-7.308h-1.596V244zm16.198 0v-1.26h-4.644v-2.4h4.068v-1.26h-4.068v-2.388h4.596v-1.26h-6.156V244h6.204zm15.206 0h1.632l-3.444-8.568h-1.788L585.429 244h1.56l.816-2.1h3.864l.804 2.1zm-2.736-7.032h.036l1.416 3.696h-2.892l1.44-3.696zm7.089 2.736c0 2.652 1.62 4.44 4.02 4.44 1.056 0 2.148-.552 2.46-1.368l.108 1.224h1.236v-4.368h-3.24v1.152h1.656v.3c0 1.056-.864 1.8-2.124 1.8-1.596 0-2.496-1.224-2.496-3.18 0-1.944.924-3.156 2.52-3.156 1.152 0 1.8.6 2.004 1.56h1.572c-.336-1.692-1.512-2.82-3.576-2.82-2.448 0-4.14 1.776-4.14 4.416zM615.05 244v-1.26h-4.644v-2.4h4.068v-1.26h-4.068v-2.388h4.596v-1.26h-6.156V244h6.204zm-86.236 18h1.632l-3.444-8.568h-1.788L521.77 262h1.56l.816-2.1h3.864l.804 2.1zm-2.736-7.032h.036l1.416 3.696h-2.892l1.44-3.696zm14.816 3.576v-5.112h-1.584v5.1c0 1.5-.696 2.34-2.076 2.34-1.38 0-2.064-.84-2.064-2.34v-5.1h-1.596v5.088c0 2.364 1.356 3.624 3.66 3.624 2.316 0 3.66-1.26 3.66-3.6zm7.535-5.112h-3.3V262h3.3c2.58 0 4.284-1.704 4.284-4.284 0-2.568-1.704-4.284-4.284-4.284zm0 1.26c1.704 0 2.652 1.116 2.652 3.024s-.948 3.024-2.652 3.024h-1.74v-6.048h1.74zm8.147 7.308h1.596v-8.568h-1.596V262zm12.143 0v-1.26h-4.644v-2.4h4.068v-1.26h-4.068v-2.388h4.596v-1.26h-6.156V262h6.204zm5.943-8.568h-1.86V262h1.524v-6.636h.024l4.404 6.636h1.476v-8.568h-1.512v6.072h-.024l-4.032-6.072zm11.067 4.272c0-1.944.864-3.156 2.412-3.156 1.224 0 1.788.696 1.956 1.572h1.548c-.3-1.68-1.452-2.832-3.504-2.832-2.4 0-4.032 1.776-4.032 4.416 0 2.664 1.632 4.44 4.032 4.44 2.052 0 3.204-1.164 3.504-2.832h-1.548c-.168.876-.732 1.572-1.956 1.572-1.548 0-2.412-1.224-2.412-3.18zM601.653 262v-1.26h-4.644v-2.4h4.068v-1.26h-4.068v-2.388h4.596v-1.26h-6.156V262h6.204zm6.231-3.288c0 .968-.144 1.9-.432 2.796a6.697 6.697 0 01-1.332 2.388h-.984a8.398 8.398 0 001.248-2.46 8.89 8.89 0 00.432-2.736c0-.952-.144-1.88-.432-2.784a8.18 8.18 0 00-1.26-2.484h.996a7.007 7.007 0 011.332 2.46c.288.904.432 1.844.432 2.82z" fill="#222"/></g></g><path d="M3.832 403.432h-1.86V412h1.524v-6.636h.024L7.924 412H9.4v-8.568H7.888v6.072h-.024l-4.032-6.072zM19.951 412v-1.26h-4.644v-2.4h4.068v-1.26h-4.068v-2.388h4.596v-1.26h-6.156V412h6.204zm10.803 0h1.752l2.364-8.568h-1.56l-1.704 6.648h-.024l-1.668-6.648h-1.608l-1.668 6.648h-.024l-1.716-6.648h-1.632L25.63 412h1.74l1.68-6.612h.024l1.68 6.612zm7.069-2.592c.156 1.884 1.728 2.736 3.768 2.736 1.896 0 3.324-1.032 3.324-2.592 0-1.38-.84-2.076-2.244-2.34l-1.656-.324c-.924-.18-1.368-.408-1.368-1.116 0-.756.648-1.296 1.68-1.296 1.068 0 1.812.468 1.92 1.308h1.5c-.168-1.608-1.392-2.496-3.432-2.496-1.872 0-3.216 1.056-3.216 2.58 0 1.5 1.02 2.1 2.28 2.328l1.572.288c1.032.192 1.404.54 1.404 1.164 0 .864-.792 1.32-1.812 1.32-1.068 0-2.076-.396-2.184-1.56h-1.536z" fill="#464646"/><path d="M255.196 27.708h-4.4v11.424h4.4c3.44 0 5.712-2.272 5.712-5.712 0-3.424-2.272-5.712-5.712-5.712zm0 1.68c2.272 0 3.536 1.488 3.536 4.032s-1.264 4.032-3.536 4.032h-2.32v-8.064h2.32zm18.335 9.744v-1.68h-6.193v-3.2h5.424v-1.68h-5.424v-3.184h6.129v-1.68h-8.209v11.424h8.273zm14.259-4.608v-6.816h-2.112v6.8c0 2-.928 3.12-2.768 3.12-1.84 0-2.752-1.12-2.752-3.12v-6.8h-2.128v6.784c0 3.152 1.808 4.832 4.88 4.832 3.088 0 4.88-1.68 4.88-4.8zm8.255 4.608h2.112v-9.744h4.112v-1.68h-10.32v1.68h4.096v9.744zm9.427-3.456c.208 2.512 2.304 3.648 5.024 3.648 2.528 0 4.432-1.376 4.432-3.456 0-1.84-1.12-2.768-2.992-3.12l-2.208-.432c-1.232-.24-1.824-.544-1.824-1.488 0-1.008.864-1.728 2.24-1.728 1.424 0 2.416.624 2.56 1.744h2c-.224-2.144-1.856-3.328-4.576-3.328-2.496 0-4.288 1.408-4.288 3.44 0 2 1.36 2.8 3.04 3.104l2.096.384c1.376.256 1.872.72 1.872 1.552 0 1.152-1.056 1.76-2.416 1.76-1.424 0-2.768-.528-2.912-2.08h-2.048zm15.391-2.272c0-2.592 1.152-4.208 3.216-4.208 1.632 0 2.384.928 2.608 2.096h2.064c-.4-2.24-1.936-3.776-4.672-3.776-3.2 0-5.376 2.368-5.376 5.888 0 3.552 2.176 5.92 5.376 5.92 2.736 0 4.272-1.552 4.672-3.776h-2.064c-.224 1.168-.976 2.096-2.608 2.096-2.064 0-3.216-1.632-3.216-4.24zm12.161 5.728h2.128v-4.96h5.856v4.96h2.112V27.708h-2.112v4.8h-5.856v-4.8h-2.128v11.424zm15.088 0h8.016v-1.68h-5.888v-9.744h-2.128v11.424zm20.797 0h2.176l-4.592-11.424h-2.384l-4.592 11.424h2.08l1.088-2.8h5.152l1.072 2.8zm-3.648-9.376h.048l1.888 4.928h-3.856l1.92-4.928zm12.193-2.048h-2.48v11.424h2.032v-8.848h.032l5.872 8.848h1.968V27.708h-2.016v8.096h-.032l-5.376-8.096zm16.82 0h-4.4v11.424h4.4c3.44 0 5.712-2.272 5.712-5.712 0-3.424-2.272-5.712-5.712-5.712zm0 1.68c2.272 0 3.536 1.488 3.536 4.032s-1.264 4.032-3.536 4.032h-2.32v-8.064h2.32zm10.063 9.744h2.128v-4.576h5.168v-1.68h-5.168v-3.488h5.76v-1.68h-7.888v11.424zm22.094-4.608v-6.816h-2.112v6.8c0 2-.928 3.12-2.768 3.12-1.84 0-2.752-1.12-2.752-3.12v-6.8h-2.128v6.784c0 3.152 1.808 4.832 4.88 4.832 3.088 0 4.88-1.68 4.88-4.8zm7.326-6.816h-2.48v11.424h2.032v-8.848h.032l5.872 8.848h1.968V27.708h-2.016v8.096h-.032l-5.376-8.096zm20.148 11.424h2.56l-5.168-6.464 4.72-4.96h-2.432l-5.28 5.744v-5.744h-2.128v11.424h2.128V35.82l1.584-1.664 4.016 4.976zM316.55 58.699l2.03-5.61h.02v5.61h1.27v-7.14h-1.82l-1.92 5.37h-.02l-1.92-5.37h-1.88v7.14h1.22v-5.61h.02l2.04 5.61h.96zm12.119 0h1.36l-2.87-7.14h-1.49l-2.87 7.14h1.3l.68-1.75h3.22l.67 1.75zm-2.28-5.86h.03l1.18 3.08h-2.41l1.2-3.08zm6.082 3.7c.13 1.57 1.44 2.28 3.14 2.28 1.58 0 2.77-.86 2.77-2.16 0-1.15-.7-1.73-1.87-1.95l-1.38-.27c-.77-.15-1.14-.34-1.14-.93 0-.63.54-1.08 1.4-1.08.89 0 1.51.39 1.6 1.09h1.25c-.14-1.34-1.16-2.08-2.86-2.08-1.56 0-2.68.88-2.68 2.15 0 1.25.85 1.75 1.9 1.94l1.31.24c.86.16 1.17.45 1.17.97 0 .72-.66 1.1-1.51 1.1-.89 0-1.73-.33-1.82-1.3h-1.28zm11.055 2.16h1.32v-6.09h2.57v-1.05h-6.45v1.05h2.56v6.09zm12.247 0v-1.05h-3.87v-2h3.39v-1.05h-3.39v-1.99h3.83v-1.05h-5.13v7.14h5.17zm4.702 0v-2.67h1.6l1.63 2.67h1.45l-1.79-2.87c.81-.26 1.52-.92 1.52-2.03 0-1.46-.98-2.24-2.65-2.24h-3.06v7.14h1.3zm0-3.71v-2.38h1.61c.99 0 1.49.41 1.49 1.19s-.5 1.19-1.49 1.19h-1.61zm15.02 3.71c1.65 0 2.61-.69 2.61-2.03 0-.83-.59-1.46-1.37-1.67.58-.17 1.08-.86 1.08-1.49 0-1.28-.91-1.95-2.58-1.95h-2.87v7.14h3.13zm-1.83-4.12v-2.04h1.57c.87 0 1.3.37 1.3 1.02 0 .62-.42 1.02-1.31 1.02h-1.56zm0 .95h1.72c.92 0 1.41.42 1.41 1.09 0 .69-.48 1.1-1.4 1.1h-1.73v-2.19zm8.963 3.17v-2.67h1.6l1.63 2.67h1.45l-1.79-2.87c.81-.26 1.52-.92 1.52-2.03 0-1.46-.98-2.24-2.65-2.24h-3.06v7.14h1.3zm0-3.71v-2.38h1.61c.99 0 1.49.41 1.49 1.19s-.5 1.19-1.49 1.19h-1.61zm12.959 3.71h1.36l-2.87-7.14h-1.49l-2.87 7.14h1.3l.68-1.75h3.22l.67 1.75zm-2.28-5.86h.03l1.18 3.08h-2.41l1.2-3.08zm8.121-1.28h-1.55v7.14h1.27v-5.53h.02l3.67 5.53h1.23v-7.14h-1.26v5.06h-.02l-3.36-5.06zm11.013 0h-2.75v7.14h2.75c2.15 0 3.57-1.42 3.57-3.57 0-2.14-1.42-3.57-3.57-3.57zm0 1.05c1.42 0 2.21.93 2.21 2.52 0 1.59-.79 2.52-2.21 2.52h-1.45v-5.04h1.45z" fill="#222"/><path d="M272.124 455.704c0-1.944.864-3.156 2.412-3.156 1.224 0 1.788.696 1.956 1.572h1.548c-.3-1.68-1.452-2.832-3.504-2.832-2.4 0-4.032 1.776-4.032 4.416 0 2.664 1.632 4.44 4.032 4.44 2.052 0 3.204-1.164 3.504-2.832h-1.548c-.168.876-.732 1.572-1.956 1.572-1.548 0-2.412-1.224-2.412-3.18zm17.437.012c0-2.568-1.572-4.428-4.092-4.428-2.52 0-4.092 1.86-4.092 4.428 0 2.58 1.572 4.428 4.092 4.428 2.52 0 4.092-1.848 4.092-4.428zm-1.62 0c0 1.908-.84 3.168-2.472 3.168-1.644 0-2.472-1.26-2.472-3.168 0-1.896.828-3.168 2.472-3.168 1.632 0 2.472 1.272 2.472 3.168zm7.339-4.284h-1.86V460h1.524v-6.636h.024l4.404 6.636h1.476v-8.568h-1.512v6.072h-.024l-4.032-6.072zM307.751 460h1.584v-7.308h3.084v-1.26h-7.74v1.26h3.072V460zm14.697 0v-1.26h-4.644v-2.4h4.068v-1.26h-4.068v-2.388h4.596v-1.26h-6.156V460h6.204zm5.943-8.568h-1.86V460h1.524v-6.636h.024l4.404 6.636h1.476v-8.568h-1.512v6.072h-.024l-4.032-6.072zM340.862 460h1.584v-7.308h3.084v-1.26h-7.74v1.26h3.072V460zm12.848-2.592c.156 1.884 1.728 2.736 3.768 2.736 1.896 0 3.324-1.032 3.324-2.592 0-1.38-.84-2.076-2.244-2.34l-1.656-.324c-.924-.18-1.368-.408-1.368-1.116 0-.756.648-1.296 1.68-1.296 1.068 0 1.812.468 1.92 1.308h1.5c-.168-1.608-1.392-2.496-3.432-2.496-1.872 0-3.216 1.056-3.216 2.58 0 1.5 1.02 2.1 2.28 2.328l1.572.288c1.032.192 1.404.54 1.404 1.164 0 .864-.792 1.32-1.812 1.32-1.068 0-2.076-.396-2.184-1.56h-1.536zm14.519-.564c2.016 0 3.192-.912 3.192-2.7 0-1.788-1.176-2.712-3.204-2.712h-3.54V460h1.56v-3.156h1.992zm-1.992-1.248v-2.904h1.848c1.176 0 1.764.468 1.764 1.452 0 .972-.588 1.452-1.764 1.452h-1.848zM381.379 460v-1.26h-4.644v-2.4h4.068v-1.26h-4.068v-2.388h4.596v-1.26h-6.156V460h6.204zm5.235-4.296c0-1.944.864-3.156 2.412-3.156 1.224 0 1.788.696 1.956 1.572h1.548c-.3-1.68-1.452-2.832-3.504-2.832-2.4 0-4.032 1.776-4.032 4.416 0 2.664 1.632 4.44 4.032 4.44 2.052 0 3.204-1.164 3.504-2.832h-1.548c-.168.876-.732 1.572-1.956 1.572-1.548 0-2.412-1.224-2.412-3.18zM398.773 460h1.584v-7.308h3.084v-1.26h-7.74v1.26h3.072V460zm10.053 0v-3.204h1.92l1.956 3.204h1.74l-2.148-3.444c.972-.312 1.824-1.104 1.824-2.436 0-1.752-1.176-2.688-3.18-2.688h-3.672V460h1.56zm0-4.452v-2.856h1.932c1.188 0 1.788.492 1.788 1.428 0 .936-.6 1.428-1.788 1.428h-1.932zm16.56.996v-5.112h-1.584v5.1c0 1.5-.696 2.34-2.076 2.34-1.38 0-2.064-.84-2.064-2.34v-5.1h-1.596v5.088c0 2.364 1.356 3.624 3.66 3.624 2.316 0 3.66-1.26 3.66-3.6zm9.322 3.456l2.436-6.732h.024V460h1.524v-8.568h-2.184l-2.304 6.444h-.024l-2.304-6.444h-2.256V460h1.464v-6.732h.024l2.448 6.732h1.152z" fill="#464646"/><defs><filter id="filter0_d" x="55.221" y="108" width="171.559" height="182.559" filterUnits="userSpaceOnUse" color-interpolation-filters="sRGB"><feFlood flood-opacity="0" result="BackgroundImageFix"/><feColorMatrix in="SourceAlpha" values="0 0 0 0 0 0 0 0 0 0 0 0 0 0 0 0 0 0 127 0"/><feOffset dy="1.779"/><feGaussianBlur stdDeviation=".89"/><feColorMatrix values="0 0 0 0 0 0 0 0 0 0 0 0 0 0 0 0 0 0 0.13 0"/><feBlend in2="BackgroundImageFix" result="effect1_dropShadow"/><feBlend in="SourceGraphic" in2="effect1_dropShadow" result="shape"/></filter><filter id="filter1_d" x="55.221" y="108" width="180.559" height="219.559" filterUnits="userSpaceOnUse" color-interpolation-filters="sRGB"><feFlood flood-opacity="0" result="BackgroundImageFix"/><feColorMatrix in="SourceAlpha" values="0 0 0 0 0 0 0 0 0 0 0 0 0 0 0 0 0 0 127 0"/><feOffset dy="1.779"/><feGaussianBlur stdDeviation=".89"/><feColorMatrix values="0 0 0 0 0 0 0 0 0 0 0 0 0 0 0 0 0 0 0.13 0"/><feBlend in2="BackgroundImageFix" result="effect1_dropShadow"/><feBlend in="SourceGraphic" in2="effect1_dropShadow" result="shape"/></filter><filter id="filter2_d" x="267.221" y="108" width="171.559" height="182.559" filterUnits="userSpaceOnUse" color-interpolation-filters="sRGB"><feFlood flood-opacity="0" result="BackgroundImageFix"/><feColorMatrix in="SourceAlpha" values="0 0 0 0 0 0 0 0 0 0 0 0 0 0 0 0 0 0 127 0"/><feOffset dy="1.779"/><feGaussianBlur stdDeviation=".89"/><feColorMatrix values="0 0 0 0 0 0 0 0 0 0 0 0 0 0 0 0 0 0 0.13 0"/><feBlend in2="BackgroundImageFix" result="effect1_dropShadow"/><feBlend in="SourceGraphic" in2="effect1_dropShadow" result="shape"/></filter><filter id="filter3_d" x="267.221" y="108" width="180.559" height="219.559" filterUnits="userSpaceOnUse" color-interpolation-filters="sRGB"><feFlood flood-opacity="0" result="BackgroundImageFix"/><feColorMatrix in="SourceAlpha" values="0 0 0 0 0 0 0 0 0 0 0 0 0 0 0 0 0 0 127 0"/><feOffset dy="1.779"/><feGaussianBlur stdDeviation=".89"/><feColorMatrix values="0 0 0 0 0 0 0 0 0 0 0 0 0 0 0 0 0 0 0.13 0"/><feBlend in2="BackgroundImageFix" result="effect1_dropShadow"/><feBlend in="SourceGraphic" in2="effect1_dropShadow" result="shape"/></filter><filter id="filter4_d" x="479.221" y="108" width="171.559" height="182.559" filterUnits="userSpaceOnUse" color-interpolation-filters="sRGB"><feFlood flood-opacity="0" result="BackgroundImageFix"/><feColorMatrix in="SourceAlpha" values="0 0 0 0 0 0 0 0 0 0 0 0 0 0 0 0 0 0 127 0"/><feOffset dy="1.779"/><feGaussianBlur stdDeviation=".89"/><feColorMatrix values="0 0 0 0 0 0 0 0 0 0 0 0 0 0 0 0 0 0 0.13 0"/><feBlend in2="BackgroundImageFix" result="effect1_dropShadow"/><feBlend in="SourceGraphic" in2="effect1_dropShadow" result="shape"/></filter><filter id="filter5_d" x="479.221" y="108" width="180.559" height="219.559" filterUnits="userSpaceOnUse" color-interpolation-filters="sRGB"><feFlood flood-opacity="0" result="BackgroundImageFix"/><feColorMatrix in="SourceAlpha" values="0 0 0 0 0 0 0 0 0 0 0 0 0 0 0 0 0 0 127 0"/><feOffset dy="1.779"/><feGaussianBlur stdDeviation=".89"/><feColorMatrix values="0 0 0 0 0 0 0 0 0 0 0 0 0 0 0 0 0 0 0.13 0"/><feBlend in2="BackgroundImageFix" result="effect1_dropShadow"/><feBlend in="SourceGraphic" in2="effect1_dropShadow" result="shape"/></filter><linearGradient id="paint0_linear" x1="1" y1="363.291" x2="701.085" y2="373.372" gradientUnits="userSpaceOnUse"><stop stop-color="#198AFF"/><stop offset="1" stop-color="#198AFF" stop-opacity="0"/></linearGradient><linearGradient id="paint1_linear" x1="705" y1="319" x2="1" y2="319" gradientUnits="userSpaceOnUse"><stop stop-color="#FF6400"/><stop offset="1" stop-color="red" stop-opacity="0"/></linearGradient><linearGradient id="paint2_linear" x1="142.94" y1="109.273" x2="142.972" y2="182" gradientUnits="userSpaceOnUse"><stop stop-color="#198AFF"/><stop offset="1" stop-color="#198AFF"/></linearGradient><clipPath id="clip0"><path fill="#fff" d="M57 108h168v179H57z"/></clipPath><clipPath id="clip1"><path fill="#fff" d="M269 108h168v179H269z"/></clipPath><clipPath id="clip2"><path fill="#fff" d="M481 108h168v179H481z"/></clipPath></defs></svg>