<svg width="722" height="410" viewBox="0 0 722 410" fill="none" xmlns="http://www.w3.org/2000/svg"><mask id="mask0" maskUnits="userSpaceOnUse" x="231" y="211" width="235" height="98"><path fill="#C4C4C4" d="M231.604 211.866h233.584v96.528H231.604z"/></mask><g mask="url(#mask0)"><mask id="mask1" maskUnits="userSpaceOnUse" x="254" y="222" width="199" height="432"><rect x="255.074" y="223.213" width="196.986" height="429.869" rx="27.595" fill="#C4C4C4" stroke="#464646" stroke-width="1.254"/></mask><g mask="url(#mask1)"><rect x="254.947" y="223.085" width="197.24" height="430.124" rx="27.722" stroke="#fff"/><path d="M266.477 263.07l52.337-.152" stroke="#198AFF" stroke-width="7.526"/><path d="M326.652 262.903l52.338-.145" stroke="#78DE7F" stroke-width="7.526"/><path d="M387.838 262.734l52.338-.145" stroke="#FF6400" stroke-width="7.526"/></g></g><path fill-rule="evenodd" clip-rule="evenodd" d="M431.759 349.486a6.613 6.613 0 00-2.564-5.239l.476-.622a7.399 7.399 0 012.869 5.861 7.394 7.394 0 01-2.831 5.83l-.48-.619a6.608 6.608 0 002.53-5.211zm-2.656 0c0-.963-.343-1.843-.912-2.527l.598-.504a4.72 4.72 0 011.094 3.031c0 1.14-.402 2.187-1.072 3.003l-.602-.5a3.93 3.93 0 00.894-2.503zm-2.209.001a1.71 1.71 0 01-1.705 1.714 1.709 1.709 0 01-1.705-1.714 1.71 1.71 0 011.705-1.715 1.71 1.71 0 011.705 1.715zm-5.619-.001c0-.943.329-1.808.879-2.485l-.605-.497a4.722 4.722 0 00-1.055 2.982c0 1.14.403 2.188 1.073 3.004l.602-.5a3.932 3.932 0 01-.894-2.504zm-2.657.001a6.61 6.61 0 012.528-5.209l-.481-.619a7.397 7.397 0 00-2.827 5.828 7.395 7.395 0 002.804 5.809l.484-.616a6.61 6.61 0 01-2.508-5.193z" fill="#fff"/><path d="M420.941 365.147h2.225v-.381h-1.758v-3.461h-.467v3.842zm2.855 0h.446v-2.811h-.446v2.811zm.215-3.396a.298.298 0 00.295-.296.298.298 0 00-.295-.296.299.299 0 00-.296.296c0 .161.134.296.296.296zm1.848 3.396h.57l1.01-2.811h-.462l-.823 2.36-.833-2.36h-.483l1.021 2.811zm3.238.049c.635 0 1.102-.296 1.199-.86h-.446c-.059.328-.312.489-.747.489-.575 0-.882-.355-.903-.994h2.117v-.145c0-1.006-.612-1.398-1.263-1.398-.774 0-1.316.591-1.316 1.441v.043c0 .865.564 1.424 1.359 1.424zm-.881-1.725c.075-.5.381-.812.838-.812.463 0 .764.231.807.812h-1.645zm-154.062 1.675h.467v-1.709h2.021v1.709h.468v-3.842h-.468v1.741h-2.021v-1.741h-.467v3.842zm3.904 0h.446v-2.811h-.446v2.811zm.215-3.396a.3.3 0 00.296-.296.3.3 0 00-.296-.296.298.298 0 00-.295.296c0 .161.134.296.295.296zm2.268 4.423c.784 0 1.338-.398 1.343-1.215v-2.623h-.446v.452c-.161-.274-.451-.5-.919-.5-.774 0-1.311.634-1.311 1.398v.037c0 .774.543 1.333 1.279 1.333.408 0 .79-.258.951-.532v.408c0 .602-.349.866-.903.866-.478 0-.747-.167-.811-.489h-.457c.075.473.441.865 1.274.865zm-.006-1.489c-.473 0-.865-.365-.865-.978v-.043c0-.591.333-1.005.892-1.005.548 0 .892.365.892.994v.038c0 .629-.397.994-.919.994zm2.252.462h.446v-1.703c0-.506.371-.769.785-.769.451 0 .661.22.661.715v1.757h.446v-1.725c0-.817-.408-1.134-.989-1.134-.462 0-.774.231-.903.495v-1.79h-.446v4.154zm3.223 0h.452v-4.154h-.452v4.154zm1.375 0h.446v-2.811h-.446v2.811zm.215-3.396a.299.299 0 00.296-.296.299.299 0 00-.296-.296.298.298 0 00-.295.296c0 .161.134.296.295.296zm2.268 4.423c.785 0 1.338-.398 1.344-1.215v-2.623h-.447v.452c-.161-.274-.451-.5-.919-.5-.774 0-1.311.634-1.311 1.398v.037c0 .774.543 1.333 1.279 1.333.409 0 .79-.258.951-.532v.408c0 .602-.349.866-.903.866-.478 0-.747-.167-.811-.489h-.457c.075.473.441.865 1.274.865zm-.006-1.489c-.472 0-.865-.365-.865-.978v-.043c0-.591.333-1.005.892-1.005.549 0 .893.365.893.994v.038c0 .629-.398.994-.92.994zm2.252.462h.446v-1.703c0-.506.371-.769.785-.769.452 0 .661.22.661.715v1.757h.446v-1.725c0-.817-.408-1.134-.989-1.134-.462 0-.774.231-.903.495v-1.79h-.446v4.154zm4.067.038c.183 0 .29-.027.382-.059v-.376a.935.935 0 01-.344.059c-.226 0-.35-.134-.35-.409v-1.687h.656v-.377h-.656v-.639h-.446v.639h-.403v.377h.403v1.73c0 .441.248.742.758.742zm1.927.011c.682 0 1.032-.344 1.032-.855 0-.596-.409-.725-.989-.833-.516-.091-.656-.193-.656-.446 0-.242.21-.403.532-.403.355 0 .527.134.591.441h.43c-.075-.608-.51-.812-1.015-.812-.441 0-.952.269-.952.79 0 .489.247.694.978.828.436.081.656.177.656.473 0 .301-.188.446-.613.446-.451 0-.628-.21-.661-.543h-.435c.027.575.43.914 1.102.914z" fill="#fff"/><path d="M285.753 343.76a.403.403 0 01.765 0l1.294 3.875h4.194a.402.402 0 01.233.732l-3.384 2.392 1.291 3.865a.404.404 0 01-.615.457l-3.396-2.4-3.395 2.4a.404.404 0 01-.615-.457l1.291-3.865-3.384-2.392a.403.403 0 01.233-.732h4.194l1.294-3.875z" stroke="#fff" stroke-width=".806" stroke-linejoin="round"/><path d="M341.028 364.809c-.8 0-1.419-.634-1.419-1.564v-.043c0-.913.516-1.569 1.409-1.569.886 0 1.392.699 1.392 1.559v.043c0 .929-.527 1.574-1.382 1.574zm0 .387c1.118 0 1.865-.87 1.865-1.956v-.043c0-1.08-.747-1.94-1.875-1.94-1.129 0-1.892.86-1.892 1.951v.043c0 1.075.768 1.945 1.902 1.945zm2.61-.048h.446v-1.704c0-.505.371-.768.785-.768.451 0 .661.22.661.714v1.758h.446v-1.725c0-.817-.408-1.134-.989-1.134-.462 0-.774.231-.903.494v-.446h-.446v2.811zm3.712-.382v-3.085h.522c1.058 0 1.488.624 1.488 1.511v.043c0 .94-.494 1.531-1.483 1.531h-.527zm-.467.382h1.005c1.343 0 1.956-.844 1.956-1.908v-.048c0-1.07-.623-1.887-1.946-1.887h-1.015v3.843zm4.86.048c.634 0 1.102-.295 1.198-.86h-.446c-.059.328-.311.489-.747.489-.575 0-.881-.354-.903-.994h2.118v-.145c0-1.005-.613-1.397-1.263-1.397-.774 0-1.317.591-1.317 1.44v.043c0 .865.564 1.424 1.36 1.424zm-.882-1.725c.076-.5.382-.812.839-.812.462 0 .763.232.806.812h-1.645zm2.787 1.677h.446v-1.72c0-.505.376-.752.741-.752.387 0 .597.204.597.698v1.774h.446v-1.72c0-.505.376-.752.742-.752.387 0 .596.204.596.698v1.774h.446v-1.741c0-.817-.44-1.118-.946-1.118-.349 0-.768.161-.962.526-.145-.376-.462-.526-.822-.526-.403 0-.709.215-.838.478v-.43h-.446v2.811zm5.595.048c.414 0 .667-.139.877-.403v.355h.446v-1.854c0-.785-.489-1.005-1.027-1.005-.543 0-1.053.236-1.112.876h.446c.043-.344.258-.506.645-.506.43 0 .602.189.602.635v.204h-.404c-.72 0-1.408.22-1.408.871 0 .575.414.827.935.827zm.043-.354c-.392 0-.532-.183-.532-.473 0-.414.414-.554.979-.554h.387v.349c0 .436-.361.678-.834.678zm2.156.306h.446v-1.704c0-.505.371-.768.785-.768.451 0 .661.22.661.714v1.758h.446v-1.725c0-.817-.408-1.134-.989-1.134-.462 0-.774.231-.903.494v-.446h-.446v2.811zm4.271.048c.409 0 .801-.258.962-.532v.484h.446v-4.155h-.446v1.795c-.161-.274-.451-.499-.919-.499-.774 0-1.311.607-1.311 1.467v.043c0 .876.532 1.397 1.268 1.397zm.048-.371c-.473 0-.854-.338-.854-1.048v-.043c0-.682.333-1.075.892-1.075.548 0 .892.339.892 1.059v.043c0 .72-.408 1.064-.93 1.064z" fill="#fff"/><path fill-rule="evenodd" clip-rule="evenodd" d="M353.033 343.658v-1.319l2.538 1.792-2.538 1.746v-1.441c-2.452.288-4.354 2.384-4.354 4.927 0 2.739 2.208 4.96 4.932 4.96s4.932-2.221 4.932-4.96a4.957 4.957 0 00-1.559-3.619l.526-.564a5.736 5.736 0 011.801 4.183c0 3.166-2.552 5.733-5.7 5.733-3.149 0-5.701-2.567-5.701-5.733 0-2.971 2.246-5.413 5.123-5.705z" fill="#fff"/><path stroke="#fff" d="M257.516 336.998H451.5v31.863H257.516z"/><path d="M73.277 133.549c0-2.419-1.48-4.171-3.854-4.171s-3.855 1.752-3.855 4.171c0 2.43 1.481 4.171 3.855 4.171 2.374 0 3.854-1.741 3.854-4.171zm-1.526 0c0 1.797-.79 2.984-2.328 2.984-1.549 0-2.329-1.187-2.329-2.984 0-1.786.78-2.984 2.329-2.984 1.537 0 2.328 1.198 2.328 2.984zm6.914-4.036h-1.752v8.071h1.436v-6.251h.022l4.149 6.251h1.39v-8.071h-1.424v5.72h-.023l-3.798-5.72zm17.082 0h-3.108v8.071h3.108c2.43 0 4.035-1.605 4.035-4.035 0-2.419-1.605-4.036-4.035-4.036zm0 1.187c1.605 0 2.498 1.051 2.498 2.849 0 1.797-.893 2.848-2.498 2.848h-1.639V130.7h1.639zm13.518 6.884v-1.187h-4.375v-2.261h3.832v-1.186h-3.832v-2.25h4.33v-1.187h-5.799v8.071h5.844zm8.638 0l2.295-6.341h.022v6.341h1.436v-8.071h-2.057l-2.17 6.07h-.023l-2.17-6.07h-2.125v8.071h1.379v-6.341h.022l2.306 6.341h1.085zm13.699 0h1.538l-3.244-8.071h-1.685l-3.244 8.071h1.47l.768-1.978h3.64l.757 1.978zm-2.577-6.624h.034l1.334 3.482h-2.724l1.356-3.482zm9.18-1.447h-1.752v8.071h1.435v-6.251h.023l4.148 6.251h1.39v-8.071h-1.424v5.72h-.022l-3.798-5.72zm12.448 0h-3.109v8.071h3.109c2.43 0 4.035-1.605 4.035-4.035 0-2.419-1.605-4.036-4.035-4.036zm0 1.187c1.605 0 2.498 1.051 2.498 2.849 0 1.797-.893 2.848-2.498 2.848h-1.639V130.7h1.639zM30.494 347.329h1.503v-3.504h4.137v3.504h1.492v-8.071h-1.492v3.391h-4.137v-3.391h-1.503v8.071zm11.224 0h1.503v-8.071h-1.503v8.071zm5.153-4.047c0 2.498 1.526 4.182 3.787 4.182.995 0 2.023-.52 2.317-1.288l.102 1.153h1.164v-4.115h-3.052v1.085h1.56v.283c0 .995-.814 1.695-2 1.695-1.504 0-2.352-1.153-2.352-2.995 0-1.831.87-2.973 2.374-2.973 1.085 0 1.695.565 1.887 1.47h1.481c-.316-1.594-1.424-2.657-3.368-2.657-2.306 0-3.9 1.673-3.9 4.16zm11.323 4.047h1.503v-3.504h4.137v3.504h1.492v-8.071h-1.492v3.391h-4.137v-3.391h-1.503v8.071zm11.224 0h5.663v-1.187h-4.16v-6.884h-1.503v8.071zm9.413 0h1.504v-8.071H78.83v8.071zm5.154-4.047c0 2.498 1.526 4.182 3.786 4.182.995 0 2.024-.52 2.318-1.288l.101 1.153h1.165v-4.115h-3.052v1.085h1.56v.283c0 .995-.814 1.695-2.001 1.695-1.503 0-2.351-1.153-2.351-2.995 0-1.831.87-2.973 2.373-2.973 1.086 0 1.696.565 1.888 1.47h1.48c-.316-1.594-1.423-2.657-3.368-2.657-2.305 0-3.9 1.673-3.9 4.16zm11.322 4.047h1.504v-3.504h4.137v3.504h1.492v-8.071h-1.492v3.391h-4.137v-3.391h-1.504v8.071zm13.632 0h1.492v-6.884h2.905v-1.187h-7.291v1.187h2.894v6.884zm7.225-2.442c.147 1.775 1.628 2.577 3.55 2.577 1.785 0 3.131-.972 3.131-2.441 0-1.3-.792-1.956-2.114-2.204l-1.56-.306c-.87-.169-1.289-.384-1.289-1.051 0-.712.611-1.221 1.583-1.221 1.006 0 1.707.441 1.808 1.232h1.413c-.158-1.514-1.311-2.351-3.232-2.351-1.764 0-3.03.995-3.03 2.431 0 1.412.961 1.978 2.148 2.192l1.481.272c.972.181 1.322.508 1.322 1.096 0 .814-.746 1.244-1.707 1.244-1.006 0-1.955-.373-2.057-1.47h-1.447z" fill="#fff"/><g clip-path="url(#clip0)"><mask id="mask2" maskUnits="userSpaceOnUse" x="258" y="0" width="178" height="109"><path d="M258.445.23h176.584v107.774H258.445V.23z" fill="#C4C4C4"/></mask><g mask="url(#mask2)"><mask id="mask3" maskUnits="userSpaceOnUse" x="276" y="1" width="89" height="191"><rect x="277.077" y="1.631" width="86.803" height="189.426" rx="12.16" fill="#C4C4C4" stroke="#464646" stroke-width=".553"/></mask><g mask="url(#mask3)"><rect x="277.301" y="1.855" width="86.356" height="188.978" rx="11.936" stroke="#fff"/></g><mask id="mask4" maskUnits="userSpaceOnUse" x="336" y="21" width="95" height="204"><rect x="337.187" y="22.122" width="92.755" height="201.627" rx="12.16" fill="#fff" stroke="#464646" stroke-width=".553"/></mask><g mask="url(#mask4)"><rect x="337.703" y="28.917" width="86.356" height="188.978" rx="11.936" fill="#000" stroke="#fff"/></g><path opacity=".8" fill-rule="evenodd" clip-rule="evenodd" d="M328.695 60.75a9.334 9.334 0 00-3.65-7.412l.678-.88a10.445 10.445 0 014.082 8.293c0 3.35-1.577 6.336-4.028 8.249l-.684-.876a9.328 9.328 0 003.602-7.373zm-3.777 0a5.545 5.545 0 00-1.298-3.573l.852-.714a6.657 6.657 0 011.557 4.288A6.648 6.648 0 01324.502 65l-.856-.707a5.54 5.54 0 001.272-3.542zm-3.145 0a2.425 2.425 0 11-4.851.001 2.425 2.425 0 014.851 0zm-7.997 0c0-1.335.469-2.558 1.251-3.517l-.861-.702a6.654 6.654 0 00-1.5 4.218 6.65 6.65 0 001.526 4.25l.856-.707a5.543 5.543 0 01-1.272-3.543zm-3.779 0a9.334 9.334 0 013.597-7.37l-.684-.875a10.446 10.446 0 00-4.023 8.245 10.44 10.44 0 003.991 8.22l.687-.873a9.334 9.334 0 01-3.568-7.347z" fill="#78DE7F"/><path fill-rule="evenodd" clip-rule="evenodd" d="M379.257 80.287v-2.129l4.117 2.892-4.117 2.815v-2.324a8 8 0 00.939 15.945 8 8 0 007.999-8 7.976 7.976 0 00-2.528-5.836l.853-.91a9.246 9.246 0 11-15.571 6.746c0-4.79 3.642-8.728 8.308-9.199z" fill="#78DE7F"/></g></g><path d="M349.531 133.549c0-2.419-1.48-4.171-3.854-4.171s-3.855 1.752-3.855 4.171c0 2.43 1.481 4.171 3.855 4.171 2.374 0 3.854-1.741 3.854-4.171zm-1.526 0c0 1.797-.791 2.984-2.328 2.984-1.549 0-2.329-1.187-2.329-2.984 0-1.786.78-2.984 2.329-2.984 1.537 0 2.328 1.198 2.328 2.984zm6.914-4.036h-1.752v8.071h1.436v-6.251h.022l4.149 6.251h1.39v-8.071h-1.424v5.72h-.023l-3.798-5.72zm17.082 0h-3.108v8.071h3.108c2.43 0 4.035-1.605 4.035-4.035 0-2.419-1.605-4.036-4.035-4.036zm0 1.187c1.605 0 2.498 1.051 2.498 2.849 0 1.797-.893 2.848-2.498 2.848h-1.639V130.7h1.639zm13.518 6.884v-1.187h-4.375v-2.261h3.832v-1.186h-3.832v-2.25h4.33v-1.187h-5.799v8.071h5.844zm8.638 0l2.295-6.341h.022v6.341h1.436v-8.071h-2.057l-2.171 6.07h-.022l-2.17-6.07h-2.125v8.071h1.379v-6.341h.022l2.306 6.341h1.085zm13.699 0h1.538l-3.245-8.071h-1.684l-3.244 8.071h1.47l.768-1.978h3.64l.757 1.978zm-2.577-6.624h.034l1.334 3.482h-2.724l1.356-3.482zm9.18-1.447h-1.752v8.071h1.435v-6.251h.023l4.148 6.251h1.39v-8.071h-1.424v5.72h-.023l-3.797-5.72zm12.447 0h-3.108v8.071h3.108c2.431 0 4.036-1.605 4.036-4.035 0-2.419-1.605-4.036-4.036-4.036zm0 1.187c1.606 0 2.498 1.051 2.498 2.849 0 1.797-.892 2.848-2.498 2.848h-1.639V130.7h1.639zm-144.332 6.884h5.663v-1.187h-4.16v-6.884h-1.503v8.071zm9.413 0h1.504v-8.071h-1.504v8.071zm7.991 0h1.673l3.199-8.071h-1.526l-2.464 6.466h-.023l-2.453-6.466h-1.594l3.188 8.071zm14.031 0v-1.187h-4.374v-2.261h3.832v-1.186h-3.832v-2.25h4.329v-1.187h-5.799v8.071h5.844zm-304.863 0h5.663v-1.187h-4.16v-6.884H9.146v8.071zm9.414 0h1.503v-8.071H18.56v8.071zm7.99 0h1.673l3.2-8.071h-1.527l-2.464 6.466h-.023l-2.453-6.466h-1.593l3.187 8.071zm14.032 0v-1.187h-4.375v-2.261h3.832v-1.186h-3.832v-2.25h4.33v-1.187h-5.8v8.071h5.845z" fill="#fff"/><path d="M350.785 190.735v-32.332m-68.099 227.133v7.483H62.383v-25.7m288.573 18.217v7.483h210.417v-25.7" stroke="#fff"/><path d="M423.2 401.284v7.486h236.56v-41.451" stroke="#fff"/><path d="M361.148 166.46l-10.362-8.886-10.363 9.12" stroke="#fff" stroke-linecap="round" stroke-linejoin="round"/><path d="M288.268 181.202H72.854v-23.628" stroke="#fff"/><path d="M83.219 166.73l-10.363-8.886-10.363 9.12m10.253 209.409l-10.363-8.886-10.363 9.12m498.99-.873l10.363-8.886 10.362 9.119m77.663-.592l10.363-8.885 10.363 9.119" stroke="#fff" stroke-linecap="round" stroke-linejoin="round"/><g clip-path="url(#clip1)"><mask id="mask5" maskUnits="userSpaceOnUse" x="-18" y="0" width="177" height="109"><path d="M-17.809.23h176.584v107.774H-17.809V.23z" fill="#C4C4C4"/></mask><g mask="url(#mask5)"><mask id="mask6" maskUnits="userSpaceOnUse" x="0" y="1" width="88" height="191"><rect x="1.016" y="1.855" width="86.356" height="188.978" rx="11.936" fill="#C4C4C4" stroke="#464646"/></mask><g mask="url(#mask6)"><rect x="1.016" y="1.856" width="86.356" height="188.978" rx="11.936" stroke="#fff"/></g><mask id="mask7" maskUnits="userSpaceOnUse" x="60" y="21" width="89" height="204"><rect x="60.899" y="22.122" width="86.876" height="201.627" rx="12.16" fill="#fff" stroke="#464646" stroke-width=".553"/></mask><g mask="url(#mask7)"><rect x="61.123" y="26.444" width="86.356" height="188.978" rx="11.936" fill="#000" stroke="#fff"/></g><path opacity=".8" fill-rule="evenodd" clip-rule="evenodd" d="M54.066 62.582a9.334 9.334 0 00-3.65-7.412l.678-.88a10.445 10.445 0 014.082 8.292 10.44 10.44 0 01-4.028 8.249l-.683-.876a9.33 9.33 0 003.6-7.373zm-3.778 0a5.545 5.545 0 00-1.297-3.574l.851-.713a6.656 6.656 0 011.557 4.287 6.65 6.65 0 01-1.527 4.25l-.856-.708a5.54 5.54 0 001.272-3.542zm-3.143 0a2.426 2.426 0 11-4.853 0 2.426 2.426 0 014.852 0zm-7.997-.001a5.55 5.55 0 011.25-3.517l-.86-.702a6.655 6.655 0 00-1.5 4.219c0 1.613.573 3.095 1.526 4.25l.856-.708a5.543 5.543 0 01-1.272-3.542zm-3.78 0a9.334 9.334 0 013.597-7.37l-.684-.876a10.444 10.444 0 00-4.023 8.246c0 3.335 1.562 6.305 3.99 8.22l.688-.873a9.331 9.331 0 01-3.567-7.347z" fill="#198AFF"/><path fill-rule="evenodd" clip-rule="evenodd" d="M103.8 76.939V74.81l4.117 2.891-4.117 2.816v-2.324a8.001 8.001 0 00.939 15.945 8 8 0 007.999-8 7.976 7.976 0 00-2.528-5.836l.853-.91a9.246 9.246 0 11-7.263-2.454z" fill="#198AFF"/></g></g><mask id="mask8" maskUnits="userSpaceOnUse" x="10" y="199" width="124" height="116"><path d="M11.165 200.351h121.559V314.02H11.165V200.351z" fill="#C4C4C4" stroke="#fff" stroke-width=".706"/></mask><g mask="url(#mask8)"><mask id="mask9" maskUnits="userSpaceOnUse" x="29" y="217" width="88" height="191"><rect x="29.754" y="218.257" width="86.356" height="188.978" rx="11.936" fill="#C4C4C4" stroke="#fff"/></mask><g mask="url(#mask9)"><rect x="29.53" y="218.034" width="86.803" height="189.426" rx="12.16" stroke="#fff" stroke-width=".553"/></g></g><path d="M644.552 346.386h5.663V345.2h-4.159v-6.884h-1.504v8.07zm9.414 0h1.503v-8.07h-1.503v8.07zm7.991 0h1.672l3.199-8.07h-1.526l-2.464 6.465h-.022l-2.453-6.465h-1.594l3.188 8.07zm14.031 0V345.2h-4.375v-2.261h3.832v-1.187h-3.832v-2.249h4.33v-1.187h-5.799v8.07h5.844z" fill="#fff"/><mask id="mask10" maskUnits="userSpaceOnUse" x="599" y="199" width="123" height="116"><path d="M599.591 200.239h121.558v113.669H599.591V200.239z" fill="#C4C4C4" stroke="#fff" stroke-width=".706"/></mask><g mask="url(#mask10)"><mask id="mask11" maskUnits="userSpaceOnUse" x="617" y="217" width="89" height="191"><rect x="618.18" y="218.145" width="86.356" height="188.978" rx="11.936" fill="#C4C4C4" stroke="#fff"/></mask><g mask="url(#mask11)"><rect x="618.18" y="218.145" width="86.356" height="188.978" rx="11.936" stroke="#fff"/></g></g><path opacity=".8" fill-rule="evenodd" clip-rule="evenodd" d="M670.956 279.897a9.332 9.332 0 00-3.649-7.412l.678-.88a10.444 10.444 0 014.082 8.292 10.44 10.44 0 01-4.029 8.249l-.683-.876a9.33 9.33 0 003.601-7.373zm-3.777 0a5.544 5.544 0 00-1.298-3.574l.852-.713a6.654 6.654 0 011.556 4.287 6.651 6.651 0 01-1.526 4.249l-.856-.707a5.542 5.542 0 001.272-3.542zm-3.145 0a2.426 2.426 0 11-4.852 0 2.426 2.426 0 014.852 0zm-7.996-.001c0-1.334.468-2.558 1.25-3.517l-.861-.702a6.66 6.66 0 00-1.5 4.219c0 1.613.573 3.095 1.527 4.25l.856-.707a5.545 5.545 0 01-1.272-3.543zm-3.779.002a9.335 9.335 0 013.597-7.371l-.684-.875a10.445 10.445 0 00-4.024 8.246c0 3.335 1.562 6.305 3.991 8.219l.688-.872a9.33 9.33 0 01-3.568-7.347z" fill="#9F9F9F"/><path d="M635.555 133.549c0-2.419-1.481-4.171-3.855-4.171-2.373 0-3.854 1.752-3.854 4.171 0 2.43 1.481 4.171 3.854 4.171 2.374 0 3.855-1.741 3.855-4.171zm-1.526 0c0 1.797-.791 2.984-2.329 2.984-1.548 0-2.328-1.187-2.328-2.984 0-1.786.78-2.984 2.328-2.984 1.538 0 2.329 1.198 2.329 2.984zm6.914-4.036h-1.753v8.071h1.436v-6.251h.023l4.148 6.251h1.39v-8.071h-1.424v5.72h-.023l-3.797-5.72zm17.081 0h-3.108v8.071h3.108c2.431 0 4.036-1.605 4.036-4.035 0-2.419-1.605-4.036-4.036-4.036zm0 1.187c1.605 0 2.498 1.051 2.498 2.849 0 1.797-.893 2.848-2.498 2.848h-1.639V130.7h1.639zm13.518 6.884v-1.187h-4.374v-2.261H671v-1.186h-3.832v-2.25h4.329v-1.187h-5.799v8.071h5.844zm8.639 0l2.294-6.341h.023v6.341h1.435v-8.071h-2.057l-2.17 6.07h-.023l-2.17-6.07h-2.125v8.071h1.379v-6.341h.023l2.305 6.341h1.086zm13.699 0h1.537l-3.244-8.071h-1.684l-3.244 8.071h1.469l.769-1.978h3.639l.758 1.978zm-2.577-6.624h.033l1.334 3.482h-2.724l1.357-3.482zm9.179-1.447h-1.752v8.071h1.435v-6.251h.023l4.148 6.251h1.391v-8.071h-1.424v5.72h-.023l-3.798-5.72zm12.448 0h-3.109v8.071h3.109c2.43 0 4.035-1.605 4.035-4.035 0-2.419-1.605-4.036-4.035-4.036zm0 1.187c1.605 0 2.498 1.051 2.498 2.849 0 1.797-.893 2.848-2.498 2.848h-1.639V130.7h1.639zm-145.991 6.884h5.663v-1.187h-4.16v-6.884h-1.503v8.071zm9.414 0h1.503v-8.071h-1.503v8.071zm7.99 0h1.673l3.199-8.071h-1.526l-2.464 6.466h-.023l-2.453-6.466h-1.593l3.187 8.071zm14.032 0v-1.187H594v-2.261h3.832v-1.186H594v-2.25h4.329v-1.187h-5.798v8.071h5.844z" fill="#fff"/><g clip-path="url(#clip2)"><mask id="mask12" maskUnits="userSpaceOnUse" x="556" y="1" width="88" height="191"><rect x="556.501" y="1.631" width="86.803" height="189.426" rx="12.16" fill="#C4C4C4" stroke="#464646" stroke-width=".553"/></mask><g mask="url(#mask12)"><rect x="556.725" y="1.855" width="86.356" height="188.978" rx="11.936" stroke="#fff"/></g><mask id="mask13" maskUnits="userSpaceOnUse" x="616" y="21" width="88" height="204"><rect x="616.608" y="22.122" width="86.876" height="201.627" rx="12.16" fill="#fff" stroke="#464646" stroke-width=".553"/></mask><g mask="url(#mask13)"><rect x="616.832" y="26.444" width="86.356" height="188.978" rx="11.936" fill="#000" stroke="#fff"/></g></g><path opacity=".8" fill-rule="evenodd" clip-rule="evenodd" d="M609.973 60.75a9.317 9.317 0 00-3.67-7.412l.682-.88A10.424 10.424 0 01607.039 69l-.687-.876a9.313 9.313 0 003.621-7.373zm-3.8 0c0-1.361-.49-2.606-1.305-3.574l.857-.713a6.636 6.636 0 011.565 4.288A6.627 6.627 0 01605.755 65l-.861-.707a5.525 5.525 0 001.279-3.542zm-3.161 0a2.433 2.433 0 01-2.44 2.426 2.433 2.433 0 01-2.44-2.426 2.433 2.433 0 012.44-2.426 2.434 2.434 0 012.44 2.426zm-8.04 0c0-1.335.471-2.558 1.257-3.517l-.866-.702a6.632 6.632 0 00-1.508 4.218A6.63 6.63 0 00595.39 65l.861-.707a5.521 5.521 0 01-1.279-3.543zm-3.8 0a9.315 9.315 0 013.616-7.37l-.688-.875a10.424 10.424 0 00-.032 16.465l.691-.873a9.315 9.315 0 01-3.587-7.347z" fill="#FF6400"/><path fill-rule="evenodd" clip-rule="evenodd" d="M661.167 80.693v-2.567l4.117 2.891-4.117 2.816v-1.886a8 8 0 106.41 2.109l.853-.91a9.247 9.247 0 11-7.263-2.454z" fill="#FF6400"/><path opacity=".8" d="M73.377 270.304a.586.586 0 011.11 0l1.92 5.619h6.23a.587.587 0 01.333 1.069l-5.015 3.466 1.912 5.597a.585.585 0 01-.889.672l-5.046-3.488-5.047 3.488a.586.586 0 01-.888-.672l1.912-5.597-5.015-3.466a.586.586 0 01.333-1.069h6.23l1.92-5.619z" stroke="#78DE7F" stroke-width="1.173" stroke-linejoin="round"/><path opacity=".8" d="M51.822 270.304a.586.586 0 011.11 0l1.92 5.619h6.23a.587.587 0 01.334 1.069l-5.015 3.466 1.911 5.597a.586.586 0 01-.888.672l-5.047-3.488-5.046 3.488a.586.586 0 01-.889-.672l1.912-5.597-5.015-3.466a.586.586 0 01.333-1.069h6.23l1.92-5.619z" stroke="#198AFF" stroke-width="1.173" stroke-linejoin="round"/><path opacity=".8" d="M95.343 270.312a.586.586 0 011.116 0l1.825 5.611h5.907a.586.586 0 01.345 1.061l-4.779 3.468 1.825 5.611a.586.586 0 01-.902.656l-4.779-3.468-4.78 3.468a.586.586 0 01-.901-.656l1.825-5.611-4.779-3.468a.586.586 0 01.345-1.061h5.907l1.825-5.611z" stroke="#FF6400" stroke-width="1.173" stroke-linejoin="round"/><path d="M529.176 343.293c0-2.419-1.481-4.171-3.855-4.171-2.373 0-3.854 1.752-3.854 4.171 0 2.43 1.481 4.171 3.854 4.171 2.374 0 3.855-1.741 3.855-4.171zm-1.526 0c0 1.797-.791 2.984-2.329 2.984-1.548 0-2.328-1.187-2.328-2.984 0-1.786.78-2.984 2.328-2.984 1.538 0 2.329 1.198 2.329 2.984zm6.914-4.035h-1.752v8.07h1.435v-6.25h.023l4.148 6.25h1.39v-8.07h-1.424v5.719h-.022l-3.798-5.719zm12.448 0h-3.109v8.07h3.109c2.43 0 4.035-1.605 4.035-4.035 0-2.419-1.605-4.035-4.035-4.035zm0 1.187c1.605 0 2.498 1.051 2.498 2.848s-.893 2.849-2.498 2.849h-1.639v-5.697h1.639zm13.517 6.883v-1.186h-4.374v-2.261h3.832v-1.187h-3.832v-2.249h4.329v-1.187h-5.799v8.07h5.844zm8.639 0l2.294-6.341h.023v6.341h1.435v-8.07h-2.057l-2.17 6.07h-.023l-2.17-6.07h-2.125v8.07h1.379v-6.341h.023l2.306 6.341h1.085zm13.699 0h1.537l-3.244-8.07h-1.684l-3.244 8.07h1.469l.769-1.978h3.64l.757 1.978zm-2.577-6.623h.034l1.333 3.481h-2.724l1.357-3.481zm9.179-1.447h-1.752v8.07h1.436v-6.25h.022l4.149 6.25h1.39v-8.07h-1.424v5.719h-.023l-3.798-5.719zm12.448 0h-3.108v8.07h3.108c2.43 0 4.035-1.605 4.035-4.035 0-2.419-1.605-4.035-4.035-4.035zm0 1.187c1.605 0 2.498 1.051 2.498 2.848s-.893 2.849-2.498 2.849h-1.639v-5.697h1.639z" fill="#fff"/><mask id="mask14" maskUnits="userSpaceOnUse" x="497" y="200" width="123" height="116"><path d="M497.439 201.18h121.558v113.67H497.439V201.18z" fill="#C4C4C4" stroke="#fff" stroke-width=".706"/></mask><g mask="url(#mask14)"><mask id="mask15" maskUnits="userSpaceOnUse" x="515" y="218" width="88" height="191"><rect x="515.804" y="218.863" width="86.803" height="189.426" rx="12.16" fill="#C4C4C4" stroke="#fff" stroke-width=".553"/></mask><g mask="url(#mask15)"><rect x="516.027" y="219.087" width="86.356" height="188.978" rx="11.936" stroke="#fff"/></g></g><path fill-rule="evenodd" clip-rule="evenodd" d="M557.303 269.211v-2.129l4.118 2.892-4.118 2.815v-2.324a8.001 8.001 0 00.94 15.945 8 8 0 007.999-8 7.974 7.974 0 00-2.528-5.836l.853-.909a9.247 9.247 0 11-7.264-2.454z" fill="#B3B3B3"/><path d="M412.313 181.202h213.56v-23.628" stroke="#fff"/><path d="M615.508 166.73l10.363-8.886 10.363 9.12" stroke="#fff" stroke-linecap="round" stroke-linejoin="round"/><defs><clipPath id="clip0"><path fill="#fff" transform="translate(277)" d="M0 0h148v108H0z"/></clipPath><clipPath id="clip1"><path fill="#fff" transform="translate(.43 .23)" d="M0 0h147.567v107.774H0z"/></clipPath><clipPath id="clip2"><path fill="#fff" transform="translate(556.074 .23)" d="M0 0h158.345v107.774H0z"/></clipPath></defs></svg>