<svg xmlns="http://www.w3.org/2000/svg" xmlns:xlink="http://www.w3.org/1999/xlink" viewBox="0 0 722 410" enable-background="new 0 0 722 410"><style>.st2{fill-rule:evenodd;clip-rule:evenodd}.st2,.st3{fill:#fff}.st10,.st5{fill:none;stroke:#fff}.st10{stroke-linecap:round;stroke-linejoin:round}</style><g id="Layer_1"><path class="st2" d="M431.8 349.5c0-2.1-1-4-2.6-5.2l.5-.6c1.7 1.4 2.9 3.5 2.9 5.9 0 2.4-1.1 4.5-2.8 5.8l-.5-.6c1.5-1.3 2.5-3.2 2.5-5.3zm-2.7 0c0-1-.3-1.8-.9-2.5l.6-.5c.7.8 1.1 1.9 1.1 3s-.4 2.2-1.1 3l-.6-.5c.6-.7.9-1.6.9-2.5zm-2.2 0c0 .9-.8 1.7-1.7 1.7-.9 0-1.7-.8-1.7-1.7s.8-1.7 1.7-1.7c.9 0 1.7.7 1.7 1.7zm-5.6 0c0-.9.3-1.8.9-2.5l-.6-.5c-.7.8-1.1 1.9-1.1 3s.4 2.2 1.1 3l.6-.5c-.6-.7-.9-1.6-.9-2.5zm-2.7 0c0-2.1 1-4 2.5-5.2l-.5-.6c-1.7 1.4-2.8 3.5-2.8 5.8 0 2.4 1.1 4.5 2.8 5.8l.5-.6c-1.5-1.2-2.5-3.1-2.5-5.2z"/><path class="st3" d="M420.9 365.1h2.2v-.4h-1.8v-3.5h-.5v3.9zm2.9 0h.4v-2.8h-.4v2.8zm.2-3.3c.2 0 .3-.1.3-.3 0-.2-.1-.3-.3-.3-.2 0-.3.1-.3.3 0 .1.1.3.3.3zm1.9 3.3h.6l1-2.8h-.5l-.8 2.4-.8-2.4h-.5l1 2.8zm3.2.1c.6 0 1.1-.3 1.2-.9h-.4c-.1.3-.3.5-.7.5-.6 0-.9-.4-.9-1h2.1v-.1c0-1-.6-1.4-1.3-1.4-.8 0-1.3.6-1.3 1.4-.1.9.5 1.5 1.3 1.5zm-.9-1.7c.1-.5.4-.8.8-.8.5 0 .8.2.8.8h-1.6zm-154 1.6h.5v-1.7h2v1.7h.5v-3.8h-.5v1.7h-2v-1.7h-.5v3.8zm3.9 0h.4v-2.8h-.4v2.8zm.2-3.3c.2 0 .3-.1.3-.3 0-.2-.1-.3-.3-.3-.2 0-.3.1-.3.3 0 .1.1.3.3.3zm2.2 4.4c.8 0 1.3-.4 1.3-1.2v-2.6h-.4v.5c-.2-.3-.5-.5-.9-.5-.8 0-1.3.6-1.3 1.4 0 .8.5 1.3 1.3 1.3.4 0 .8-.3 1-.5v.4c0 .6-.3.9-.9.9-.5 0-.7-.2-.8-.5h-.5c0 .4.4.8 1.2.8zm0-1.5c-.5 0-.9-.4-.9-1s.3-1 .9-1c.5 0 .9.4.9 1 .1.6-.3 1-.9 1zm2.3.4h.4v-1.7c0-.5.4-.8.8-.8.5 0 .7.2.7.7v1.8h.4v-1.7c0-.8-.4-1.1-1-1.1-.5 0-.8.2-.9.5V361h-.4v4.1zm3.2 0h.5V361h-.5v4.1zm1.4 0h.4v-2.8h-.4v2.8zm.2-3.3c.2 0 .3-.1.3-.3 0-.2-.1-.3-.3-.3-.2 0-.3.1-.3.3 0 .1.1.3.3.3zm2.3 4.4c.8 0 1.3-.4 1.3-1.2v-2.6h-.4v.5c-.2-.3-.5-.5-.9-.5-.8 0-1.3.6-1.3 1.4 0 .8.5 1.3 1.3 1.3.4 0 .8-.3 1-.5v.4c0 .6-.3.9-.9.9-.5 0-.7-.2-.8-.5h-.5c0 .4.3.8 1.2.8zm0-1.5c-.5 0-.9-.4-.9-1s.3-1 .9-1c.5 0 .9.4.9 1s-.4 1-.9 1zm2.2.4h.4v-1.7c0-.5.4-.8.8-.8.5 0 .7.2.7.7v1.8h.4v-1.7c0-.8-.4-1.1-1-1.1-.5 0-.8.2-.9.5V361h-.4v4.1zm4.1.1c.2 0 .3 0 .4-.1v-.4c-.1 0-.2.1-.3.1-.2 0-.4-.1-.4-.4v-1.7h.7v-.4h-.7v-.6h-.4v.6h-.5v.4h.4v1.7c0 .5.3.8.8.8zm1.9 0c.7 0 1-.3 1-.9 0-.6-.4-.7-1-.8-.5-.1-.7-.2-.7-.4s.2-.4.5-.4c.4 0 .5.1.6.4h.4c-.1-.6-.5-.8-1-.8-.4 0-1 .3-1 .8s.2.7 1 .8c.4.1.7.2.7.5s-.2.4-.6.4c-.5 0-.6-.2-.7-.5h-.3c0 .6.4.9 1.1.9z"/><path d="M285.8 343.8c.1-.2.2-.3.4-.3s.3.1.4.3l1.3 3.9h4.2c.2 0 .3.1.4.3.1.2 0 .4-.2.5l-3.4 2.4 1.3 3.9c.1.2 0 .3-.1.5-.1.1-.3.1-.5 0l-3.4-2.4-3.4 2.4c-.1.1-.3.1-.5 0-.1-.1-.2-.3-.1-.5l1.3-3.9-3.4-2.4c-.1-.1-.2-.3-.2-.5.1-.2.2-.3.4-.3h4.2l1.3-3.9z" fill="none" stroke="#fff" stroke-width=".806" stroke-linejoin="round"/><path class="st3" d="M341 364.8c-.8 0-1.4-.6-1.4-1.6 0-.9.5-1.6 1.4-1.6.9 0 1.4.7 1.4 1.6 0 1-.5 1.6-1.4 1.6zm0 .4c1.1 0 1.9-.9 1.9-2s-.7-1.9-1.9-1.9c-1.1 0-1.9.9-1.9 2 0 1 .8 1.9 1.9 1.9zm2.6-.1h.4v-1.7c0-.5.4-.8.8-.8.5 0 .7.2.7.7v1.8h.4v-1.7c0-.8-.4-1.1-1-1.1-.5 0-.8.2-.9.5v-.4h-.4v2.7zm3.8-.3v-3.1h.5c1.1 0 1.5.6 1.5 1.5s-.5 1.5-1.5 1.5h-.5zm-.5.3h1c1.3 0 2-.8 2-1.9 0-1.1-.6-1.9-1.9-1.9h-1v3.8zm4.8.1c.6 0 1.1-.3 1.2-.9h-.4c-.1.3-.3.5-.7.5-.6 0-.9-.4-.9-1h2.1v-.1c0-1-.6-1.4-1.3-1.4-.8 0-1.3.6-1.3 1.4 0 .9.5 1.5 1.3 1.5zm-.8-1.7c.1-.5.4-.8.8-.8.5 0 .8.2.8.8h-1.6zm2.7 1.6h.4v-1.7c0-.5.4-.8.7-.8.4 0 .6.2.6.7v1.8h.4v-1.7c0-.5.4-.8.7-.8.4 0 .6.2.6.7v1.8h.4v-1.7c0-.8-.4-1.1-.9-1.1-.3 0-.8.2-1 .5-.1-.4-.5-.5-.8-.5-.4 0-.7.2-.8.5v-.4h-.4v2.7zm5.6.1c.4 0 .7-.1.9-.4v.4h.4v-1.9c0-.8-.5-1-1-1s-1.1.2-1.1.9h.4c0-.3.3-.5.6-.5.4 0 .6.2.6.6v.2h-.4c-.7 0-1.4.2-1.4.9.1.5.5.8 1 .8zm.1-.4c-.4 0-.5-.2-.5-.5 0-.4.4-.6 1-.6h.4v.3c-.1.6-.4.8-.9.8zm2.1.3h.4v-1.7c0-.5.4-.8.8-.8.5 0 .7.2.7.7v1.8h.4v-1.7c0-.8-.4-1.1-1-1.1-.5 0-.8.2-.9.5v-.4h-.4v2.7zm4.3.1c.4 0 .8-.3 1-.5v.5h.4V361h-.4v1.8c-.2-.3-.5-.5-.9-.5-.8 0-1.3.6-1.3 1.5-.1.9.5 1.4 1.2 1.4zm.1-.4c-.5 0-.9-.3-.9-1s.3-1.1.9-1.1c.5 0 .9.3.9 1.1 0 .7-.4 1-.9 1z"/><path class="st2" d="M353 343.7v-1.3l2.5 1.8-2.5 1.7v-1.4c-2.5.3-4.4 2.4-4.4 4.9 0 2.7 2.2 5 4.9 5s4.9-2.2 4.9-5c0-1.4-.6-2.7-1.6-3.6l.5-.6c1.1 1 1.8 2.5 1.8 4.2 0 3.2-2.6 5.7-5.7 5.7s-5.7-2.6-5.7-5.7c.2-3 2.5-5.4 5.3-5.7z"/><path class="st5" d="M257.5 337h194v31.9h-194z"/><path class="st3" d="M73.3 133.5c0-2.4-1.5-4.2-3.9-4.2s-3.9 1.8-3.9 4.2c0 2.4 1.5 4.2 3.9 4.2s3.9-1.7 3.9-4.2zm-1.5 0c0 1.8-.8 3-2.3 3-1.5 0-2.3-1.2-2.3-3s.8-3 2.3-3c1.5.1 2.3 1.3 2.3 3zm6.9-4h-1.8v8.1h1.4v-6.3l4.1 6.3h1.4v-8.1h-1.4v5.7l-3.7-5.7zm17 0h-3.1v8.1h3.1c2.4 0 4-1.6 4-4 .1-2.5-1.5-4.1-4-4.1zm0 1.2c1.6 0 2.5 1.1 2.5 2.8 0 1.8-.9 2.8-2.5 2.8h-1.6v-5.7h1.6zm13.6 6.9v-1.2h-4.4v-2.3h3.8v-1.2h-3.8v-2.2h4.3v-1.2h-5.8v8.1h5.9zm8.6 0l2.3-6.3v6.3h1.4v-8.1h-2.1l-2.2 6.1-2.2-6.1H113v8.1h1.4v-6.3l2.3 6.3h1.2zm13.7 0h1.5l-3.2-8.1h-1.7l-3.2 8.1h1.5l.8-2h3.6l.7 2zM129 131l1.4 3.5h-2.7l1.3-3.5zm9.2-1.5h-1.8v8.1h1.4v-6.3l4.1 6.3h1.4v-8.1H142v5.7l-3.8-5.7zm12.5 0h-3.1v8.1h3.1c2.4 0 4-1.6 4-4 0-2.5-1.6-4.1-4-4.1zm0 1.2c1.6 0 2.5 1.1 2.5 2.8 0 1.8-.9 2.8-2.5 2.8H149v-5.7h1.7zM30.5 347.3H32v-3.5h4.1v3.5h1.5v-8.1h-1.5v3.4H32v-3.4h-1.5v8.1zm11.2 0h1.5v-8.1h-1.5v8.1zm5.2-4c0 2.5 1.5 4.2 3.8 4.2 1 0 2-.5 2.3-1.3l.1 1.2h1.2v-4.1h-3.1v1.1h1.6v.3c0 1-.8 1.7-2 1.7-1.5 0-2.4-1.2-2.4-3s.9-3 2.4-3c1.1 0 1.7.6 1.9 1.5h1.5c-.3-1.6-1.4-2.7-3.4-2.7-2.3-.1-3.9 1.6-3.9 4.1zm11.3 4h1.5v-3.5h4.1v3.5h1.5v-8.1h-1.5v3.4h-4.1v-3.4h-1.5v8.1zm11.2 0h5.7v-1.2h-4.2v-6.9h-1.5v8.1zm9.4 0h1.5v-8.1h-1.5v8.1zm5.2-4c0 2.5 1.5 4.2 3.8 4.2 1 0 2-.5 2.3-1.3l.1 1.2h1.2v-4.1h-3.1v1.1h1.6v.3c0 1-.8 1.7-2 1.7-1.5 0-2.4-1.2-2.4-3s.9-3 2.4-3c1.1 0 1.7.6 1.9 1.5h1.5c-.3-1.6-1.4-2.7-3.4-2.7-2.3-.1-3.9 1.6-3.9 4.1zm11.3 4h1.5v-3.5h4.1v3.5h1.5v-8.1h-1.5v3.4h-4.1v-3.4h-1.5v8.1zm13.6 0h1.5v-6.9h2.9v-1.2H106v1.2h2.9v6.9zm7.3-2.4c.1 1.8 1.6 2.6 3.5 2.6 1.8 0 3.1-1 3.1-2.4 0-1.3-.8-2-2.1-2.2l-1.6-.3c-.9-.2-1.3-.4-1.3-1.1 0-.7.6-1.2 1.6-1.2s1.7.4 1.8 1.2h1.4c-.2-1.5-1.3-2.4-3.2-2.4-1.8 0-3 1-3 2.4s1 2 2.1 2.2l1.5.3c1 .2 1.3.5 1.3 1.1 0 .8-.7 1.2-1.7 1.2s-2-.4-2.1-1.5h-1.3z"/><defs><path id="SVGID_1_" d="M277 0h148v108H277z"/></defs><clipPath id="SVGID_2_"><use xlink:href="#SVGID_1_" overflow="visible"/></clipPath><path d="M289.2 1.9h62.5c6.6 0 11.9 5.3 11.9 11.9v165.1c0 6.6-5.3 11.9-11.9 11.9h-62.5c-6.6 0-11.9-5.3-11.9-11.9V13.8c0-6.6 5.3-11.9 11.9-11.9z" clip-path="url(#SVGID_2_)" fill="none" stroke="#fff"/><path d="M349.6 28.9h62.5c6.6 0 11.9 5.3 11.9 11.9V206c0 6.6-5.3 11.9-11.9 11.9h-62.5c-6.6 0-11.9-5.3-11.9-11.9V40.9c0-6.6 5.3-12 11.9-12z" clip-path="url(#SVGID_2_)" stroke="#fff"/><path d="M328.7 60.8c0-3-1.4-5.7-3.6-7.4l.7-.9c2.5 1.9 4.1 4.9 4.1 8.3 0 3.4-1.6 6.3-4 8.2l-.7-.9c2.1-1.7 3.5-4.4 3.5-7.3zm-3.8 0c0-1.4-.5-2.6-1.3-3.6l.9-.7c1 1.2 1.6 2.7 1.6 4.3 0 1.6-.6 3.1-1.5 4.2l-.9-.7c.7-1 1.2-2.2 1.2-3.5zm-3.1 0c0 1.3-1.1 2.4-2.4 2.4-1.3 0-2.4-1.1-2.4-2.4 0-1.3 1.1-2.4 2.4-2.4 1.3-.1 2.4 1 2.4 2.4zm-8-.1c0-1.3.5-2.6 1.3-3.5l-.9-.7c-.9 1.2-1.5 2.6-1.5 4.2s.6 3.1 1.5 4.3l.9-.7c-.8-1-1.3-2.2-1.3-3.6zm-3.8.1c0-3 1.4-5.7 3.6-7.4l-.7-.9c-2.4 1.9-4 4.9-4 8.2 0 3.3 1.6 6.3 4 8.2l.7-.9c-2.2-1.6-3.6-4.3-3.6-7.2z" opacity=".8" clip-path="url(#SVGID_2_)" fill-rule="evenodd" clip-rule="evenodd" fill="#78de7f" enable-background="new"/><path d="M379.3 80.3v-2.1l4.1 2.9-4.1 2.8v-2.3c-4 .5-7.1 3.8-7.1 7.9 0 4.4 3.6 8 8 8s8-3.6 8-8c0-2.3-1-4.4-2.5-5.8l.9-.9c1.8 1.7 2.9 4.1 2.9 6.7 0 5.1-4.1 9.2-9.2 9.2s-9.2-4.1-9.2-9.2c-.2-4.8 3.5-8.7 8.2-9.2z" clip-path="url(#SVGID_2_)" fill-rule="evenodd" clip-rule="evenodd" fill="#78de7f"/><path class="st3" d="M349.5 133.5c0-2.4-1.5-4.2-3.9-4.2s-3.9 1.8-3.9 4.2c0 2.4 1.5 4.2 3.9 4.2s3.9-1.7 3.9-4.2zm-1.5 0c0 1.8-.8 3-2.3 3-1.5 0-2.3-1.2-2.3-3s.8-3 2.3-3c1.5.1 2.3 1.3 2.3 3zm6.9-4h-1.8v8.1h1.4v-6.3l4.1 6.3h1.4v-8.1h-1.4v5.7l-3.7-5.7zm17.1 0h-3.1v8.1h3.1c2.4 0 4-1.6 4-4 0-2.5-1.6-4.1-4-4.1zm0 1.2c1.6 0 2.5 1.1 2.5 2.8 0 1.8-.9 2.8-2.5 2.8h-1.6v-5.7h1.6zm13.5 6.9v-1.2h-4.4v-2.3h3.8v-1.2h-3.8v-2.2h4.3v-1.2h-5.8v8.1h5.9zm8.7 0l2.3-6.3v6.3h1.4v-8.1h-2.1l-2.2 6.1-2.2-6.1h-2.1v8.1h1.4v-6.3l2.3 6.3h1.2zm13.7 0h1.5l-3.2-8.1h-1.7l-3.2 8.1h1.5l.8-2h3.6l.7 2zm-2.6-6.6l1.4 3.5H404l1.3-3.5zm9.2-1.5h-1.8v8.1h1.4v-6.3l4.1 6.3h1.4v-8.1h-1.4v5.7l-3.7-5.7zm12.4 0h-3.1v8.1h3.1c2.4 0 4-1.6 4-4 0-2.5-1.6-4.1-4-4.1zm0 1.2c1.6 0 2.5 1.1 2.5 2.8 0 1.8-.9 2.8-2.5 2.8h-1.6v-5.7h1.6zm-144.3 6.9h5.7v-1.2h-4.2v-6.9h-1.5v8.1zm9.4 0h1.5v-8.1H292v8.1zm8 0h1.7l3.2-8.1h-1.5l-2.5 6.5-2.5-6.5h-1.6l3.2 8.1zm14 0v-1.2h-4.4v-2.3h3.8v-1.2h-3.8v-2.2h4.3v-1.2h-5.8v8.1h5.9zm-304.9 0h5.7v-1.2h-4.2v-6.9H9.1v8.1zm9.5 0h1.5v-8.1h-1.5v8.1zm8 0h1.7l3.2-8.1H30l-2.5 6.5-2.5-6.5h-1.6l3.2 8.1zm14 0v-1.2h-4.4v-2.3H40v-1.2h-3.8v-2.2h4.3v-1.2h-5.8v8.1h5.9z"/><path class="st5" d="M350.8 190.7v-32.3m-68.1 227.1v7.5H62.4v-25.7M351 385.5v7.5h210.4v-25.7"/><path class="st5" d="M423.2 401.3v7.5h236.6v-41.5"/><path class="st10" d="M361.1 166.5l-10.4-8.9-10.4 9.1"/><path class="st5" d="M288.3 181.2H72.9v-23.6"/><path class="st10" d="M83.2 166.7l-10.4-8.9-10.3 9.2m10.2 209.4l-10.4-8.9-10.3 9.1m499-.9l10.4-8.9 10.4 9.1m77.6-.5l10.4-8.9 10.4 9.1"/><defs><path id="SVGID_3_" d="M.4.2H148V108H.4z"/></defs><clipPath id="SVGID_4_"><use xlink:href="#SVGID_3_" overflow="visible"/></clipPath><path d="M13 1.9h62.5c6.6 0 11.9 5.3 11.9 11.9v165.1c0 6.6-5.3 11.9-11.9 11.9H13c-6.6 0-11.9-5.3-11.9-11.9V13.8C1 7.2 6.4 1.9 13 1.9z" clip-path="url(#SVGID_4_)" fill="none" stroke="#fff"/><path d="M73.1 26.4h62.5c6.6 0 11.9 5.3 11.9 11.9v165.1c0 6.6-5.3 11.9-11.9 11.9H73.1c-6.6 0-11.9-5.3-11.9-11.9v-165c-.1-6.6 5.3-12 11.9-12z" clip-path="url(#SVGID_4_)" stroke="#fff"/><path d="M54.1 62.6c0-3-1.4-5.7-3.6-7.4l.7-.9c2.5 1.9 4.1 4.9 4.1 8.3 0 3.4-1.6 6.3-4 8.2l-.8-.8c2.2-1.8 3.6-4.4 3.6-7.4zm-3.8 0c0-1.4-.5-2.6-1.3-3.6l.9-.7c1 1.2 1.6 2.7 1.6 4.3 0 1.6-.6 3.1-1.5 4.2l-1-.7c.8-.9 1.3-2.2 1.3-3.5zm-3.2 0c0 1.3-1.1 2.4-2.4 2.4-1.3 0-2.4-1.1-2.4-2.4 0-1.3 1.1-2.4 2.4-2.4 1.4 0 2.4 1 2.4 2.4zm-8 0c0-1.3.5-2.6 1.3-3.5l-.9-.7c-.9 1.1-1.5 2.6-1.5 4.2s.6 3.1 1.5 4.3l.9-.7c-.8-1-1.3-2.3-1.3-3.6zm-3.7 0c0-3 1.4-5.7 3.6-7.4l-.7-.9c-2.4 1.9-4 4.9-4 8.2 0 3.3 1.6 6.3 4 8.2l.7-.9c-2.2-1.6-3.6-4.2-3.6-7.2z" opacity=".8" clip-path="url(#SVGID_4_)" fill-rule="evenodd" clip-rule="evenodd" fill="#198aff" enable-background="new"/><path d="M103.8 76.9v-2.1l4.1 2.9-4.1 2.8v-2.3c-4 .5-7.1 3.8-7.1 7.9 0 4.4 3.6 8 8 8s8-3.6 8-8c0-2.3-1-4.4-2.5-5.8l.9-.9c1.8 1.7 2.9 4.1 2.9 6.7 0 5.1-4.1 9.2-9.2 9.2s-9.2-4.1-9.2-9.2c-.1-4.8 3.5-8.7 8.2-9.2z" clip-path="url(#SVGID_4_)" fill-rule="evenodd" clip-rule="evenodd" fill="#198aff"/><path class="st3" d="M644.6 346.4h5.7v-1.2h-4.2v-6.9h-1.5v8.1zm9.4 0h1.5v-8.1H654v8.1zm8 0h1.7l3.2-8.1h-1.5l-2.5 6.5-2.5-6.5h-1.6l3.2 8.1zm14 0v-1.2h-4.4v-2.3h3.8v-1.2h-3.8v-2.2h4.3v-1.2h-5.8v8.1h5.9z"/><defs><path id="SVGID_5_" d="M599.6 200.2h121.6v113.7H599.6V200.2z"/></defs><clipPath id="SVGID_6_"><use xlink:href="#SVGID_5_" overflow="visible"/></clipPath><defs><filter id="Adobe_OpacityMaskFilter" filterUnits="userSpaceOnUse" x="617.7" y="217.6" width="87.4" height="190"><feColorMatrix values="1 0 0 0 0 0 1 0 0 0 0 0 1 0 0 0 0 0 1 0"/></filter></defs><mask maskUnits="userSpaceOnUse" x="617.7" y="217.6" width="87.4" height="190" id="mask11_1_"><path d="M630.1 218.1h62.5c6.6 0 11.9 5.3 11.9 11.9v165.1c0 6.6-5.3 11.9-11.9 11.9h-62.5c-6.6 0-11.9-5.3-11.9-11.9v-165c0-6.6 5.3-12 11.9-12z" clip-path="url(#SVGID_6_)" fill="#c4c4c4" filter="url(#Adobe_OpacityMaskFilter)" stroke="#fff"/></mask><g clip-path="url(#SVGID_6_)" mask="url(#mask11_1_)"><path class="st5" d="M630.1 218.1h62.5c6.6 0 11.9 5.3 11.9 11.9v165.1c0 6.6-5.3 11.9-11.9 11.9h-62.5c-6.6 0-11.9-5.3-11.9-11.9v-165c0-6.6 5.3-12 11.9-12z"/></g><path d="M671 277.4c0-3-1.4-5.7-3.6-7.4l.7-.9c2.5 1.9 4.1 4.9 4.1 8.3 0 3.4-1.6 6.3-4 8.2l-.7-.9c2-1.7 3.5-4.3 3.5-7.3zm-3.8 0c0-1.4-.5-2.6-1.3-3.6l.9-.7c1 1.2 1.6 2.7 1.6 4.3 0 1.6-.6 3.1-1.5 4.2l-.9-.7c.7-.9 1.2-2.2 1.2-3.5zm-3.2 0c0 1.3-1.1 2.4-2.4 2.4-1.3 0-2.4-1.1-2.4-2.4s1.1-2.4 2.4-2.4c1.3-.1 2.4 1 2.4 2.4zm-8 0c0-1.3.5-2.6 1.2-3.5l-.9-.7c-.9 1.1-1.5 2.6-1.5 4.2s.6 3.1 1.5 4.2l.9-.7c-.7-.9-1.2-2.2-1.2-3.5zm-3.7 0c0-3 1.4-5.7 3.6-7.4l-.7-.9c-2.4 1.9-4 4.9-4 8.2 0 3.3 1.6 6.3 4 8.2l.7-.9c-2.2-1.6-3.6-4.2-3.6-7.2z" fill-rule="evenodd" clip-rule="evenodd" fill="#9f9f9f" enable-background="new"/><path class="st3" d="M635.6 133.5c0-2.4-1.5-4.2-3.9-4.2s-3.9 1.8-3.9 4.2c0 2.4 1.5 4.2 3.9 4.2s3.9-1.7 3.9-4.2zm-1.6 0c0 1.8-.8 3-2.3 3-1.5 0-2.3-1.2-2.3-3s.8-3 2.3-3c1.5.1 2.3 1.3 2.3 3zm6.9-4h-1.8v8.1h1.4v-6.3l4.1 6.3h1.4v-8.1h-1.4v5.7l-3.7-5.7zm17.1 0h-3.1v8.1h3.1c2.4 0 4-1.6 4-4 .1-2.5-1.5-4.1-4-4.1zm0 1.2c1.6 0 2.5 1.1 2.5 2.8 0 1.8-.9 2.8-2.5 2.8h-1.6v-5.7h1.6zm13.5 6.9v-1.2h-4.4v-2.3h3.8v-1.2h-3.8v-2.2h4.3v-1.2h-5.8v8.1h5.9zm8.7 0l2.3-6.3v6.3h1.4v-8.1h-2.1l-2.2 6.1-2.2-6.1h-2.1v8.1h1.4v-6.3l2.3 6.3h1.2zm13.7 0h1.5l-3.2-8.1h-1.7l-3.2 8.1h1.5l.8-2h3.6l.7 2zm-2.6-6.6l1.4 3.5H690l1.3-3.5zm9.2-1.5h-1.8v8.1h1.4v-6.3l4.1 6.3h1.4v-8.1h-1.4v5.7l-3.7-5.7zm12.4 0h-3.1v8.1h3.1c2.4 0 4-1.6 4-4 .1-2.5-1.5-4.1-4-4.1zm0 1.2c1.6 0 2.5 1.1 2.5 2.8 0 1.8-.9 2.8-2.5 2.8h-1.6v-5.7h1.6zm-146 6.9h5.7v-1.2h-4.2v-6.9h-1.5v8.1zm9.5 0h1.5v-8.1h-1.5v8.1zm7.9 0h1.7l3.2-8.1h-1.5l-2.5 6.5-2.5-6.5h-1.6l3.2 8.1zm14.1 0v-1.2H594v-2.3h3.8v-1.2H594v-2.2h4.3v-1.2h-5.8v8.1h5.9z"/><defs><path id="SVGID_7_" d="M556.1.2h158.3V108H556.1z"/></defs><clipPath id="SVGID_8_"><use xlink:href="#SVGID_7_" overflow="visible"/></clipPath><g clip-path="url(#SVGID_8_)"><path class="st5" d="M568.7 1.9h62.5c6.6 0 11.9 5.3 11.9 11.9v165.1c0 6.6-5.3 11.9-11.9 11.9h-62.5c-6.6 0-11.9-5.3-11.9-11.9V13.8c-.1-6.6 5.3-11.9 11.9-11.9z"/><path d="M628.8 26.4h62.5c6.6 0 11.9 5.3 11.9 11.9v165.1c0 6.6-5.3 11.9-11.9 11.9h-62.5c-6.6 0-11.9-5.3-11.9-11.9v-165c-.1-6.6 5.3-12 11.9-12z" stroke="#fff"/><path d="M661.2 80.7v-2.6l4.1 2.9-4.1 2.8v-1.9c-4 .5-7.1 3.8-7.1 7.9 0 4.4 3.6 8 8 8s8-3.6 8-8c0-2.3-1-4.4-2.5-5.8l.9-.9c1.8 1.7 2.9 4.1 2.9 6.7 0 5.1-4.1 9.2-9.2 9.2s-9.2-4.1-9.2-9.2c-.1-4.7 3.5-8.6 8.2-9.1z" fill-rule="evenodd" clip-rule="evenodd" fill="#ff6400"/><path d="M610 60.8c0-3-1.4-5.7-3.7-7.4l.7-.9c2.5 1.9 4.1 4.9 4.1 8.3 0 3.4-1.6 6.3-4.1 8.2l-.7-.9c2.3-1.7 3.7-4.4 3.7-7.3zm-3.8 0c0-1.4-.5-2.6-1.3-3.6l.9-.7c1 1.2 1.6 2.7 1.6 4.3 0 1.6-.6 3.1-1.5 4.2l-.9-.7c.7-1 1.2-2.2 1.2-3.5zm-3.2 0c0 1.3-1.1 2.4-2.4 2.4-1.3 0-2.4-1.1-2.4-2.4s1.1-2.4 2.4-2.4c1.3-.1 2.4 1 2.4 2.4zm-8-.1c0-1.3.5-2.6 1.3-3.5l-.9-.7c-.9 1.2-1.5 2.6-1.5 4.2s.6 3.1 1.5 4.3l.9-.7c-.8-1-1.3-2.2-1.3-3.6zm-3.8.1c0-3 1.4-5.7 3.6-7.4l-.7-.9c-2.5 1.9-4 4.9-4 8.2 0 3.3 1.6 6.3 4 8.2l.7-.9c-2.2-1.6-3.6-4.3-3.6-7.2z" opacity=".8" fill-rule="evenodd" clip-rule="evenodd" fill="#ff6400" enable-background="new"/></g><path class="st3" d="M529.2 343.3c0-2.4-1.5-4.2-3.9-4.2s-3.9 1.8-3.9 4.2c0 2.4 1.5 4.2 3.9 4.2s3.9-1.8 3.9-4.2zm-1.5 0c0 1.8-.8 3-2.3 3-1.5 0-2.3-1.2-2.3-3s.8-3 2.3-3c1.5 0 2.3 1.2 2.3 3zm6.9-4h-1.8v8.1h1.4v-6.2l4.1 6.2h1.4v-8.1h-1.4v5.7l-3.7-5.7zm12.4 0h-3.1v8.1h3.1c2.4 0 4-1.6 4-4 0-2.5-1.6-4.1-4-4.1zm0 1.1c1.6 0 2.5 1.1 2.5 2.8s-.9 2.8-2.5 2.8h-1.6v-5.7h1.6zm13.5 6.9v-1.2h-4.4v-2.3h3.8v-1.2h-3.8v-2.2h4.3v-1.2h-5.8v8.1h5.9zm8.7 0l2.3-6.3v6.3h1.4v-8.1h-2.1l-2.2 6.1-2.2-6.1h-2.1v8.1h1.4V341l2.3 6.3h1.2zm13.7 0h1.5l-3.2-8.1h-1.7l-3.2 8.1h1.5l.8-2h3.6l.7 2zm-2.6-6.6l1.4 3.5H579l1.3-3.5zm9.2-1.4h-1.8v8.1h1.4v-6.2l4.1 6.2h1.4v-8.1h-1.4v5.7l-3.7-5.7zm12.4 0h-3.1v8.1h3.1c2.4 0 4-1.6 4-4 .1-2.5-1.6-4.1-4-4.1zm0 1.1c1.6 0 2.5 1.1 2.5 2.8s-.9 2.8-2.5 2.8h-1.6v-5.7h1.6z"/><defs><path id="SVGID_9_" d="M497.4 201.2H619v113.7H497.4V201.2z"/></defs><clipPath id="SVGID_10_"><use xlink:href="#SVGID_9_" overflow="visible"/></clipPath><defs><filter id="Adobe_OpacityMaskFilter_1_" filterUnits="userSpaceOnUse" x="515.5" y="218.6" width="87.4" height="190"><feColorMatrix values="1 0 0 0 0 0 1 0 0 0 0 0 1 0 0 0 0 0 1 0"/></filter></defs><mask maskUnits="userSpaceOnUse" x="515.5" y="218.6" width="87.4" height="190" id="mask15_1_"><path d="M528 218.9h62.5c6.7 0 12.2 5.4 12.2 12.2v165.1c0 6.7-5.4 12.2-12.2 12.2H528c-6.7 0-12.2-5.4-12.2-12.2V231c0-6.7 5.4-12.1 12.2-12.1z" clip-path="url(#SVGID_10_)" fill="#c4c4c4" filter="url(#Adobe_OpacityMaskFilter_1_)" stroke="#fff" stroke-width=".553"/></mask><g clip-path="url(#SVGID_10_)" mask="url(#mask15_1_)"><path class="st5" d="M528 219.1h62.5c6.6 0 11.9 5.3 11.9 11.9v165.1c0 6.6-5.3 11.9-11.9 11.9H528c-6.6 0-11.9-5.3-11.9-11.9V231c-.1-6.6 5.3-11.9 11.9-11.9z"/></g><path d="M557.3 269.2v-2.1l4.1 2.9-4.1 2.8v-2.3c-4 .5-7.1 3.8-7.1 7.9 0 4.4 3.6 8 8 8s8-3.6 8-8c0-2.3-1-4.4-2.5-5.8l.9-.9c1.8 1.7 2.9 4.1 2.9 6.7 0 5.1-4.1 9.2-9.2 9.2s-9.2-4.1-9.2-9.2c-.1-4.8 3.5-8.7 8.2-9.2z" fill-rule="evenodd" clip-rule="evenodd" fill="#b3b3b3"/><path class="st5" d="M412.3 181.2h213.6v-23.6"/><path class="st10" d="M615.5 166.7l10.4-8.9 10.4 9.1"/><defs><path id="SVGID_11_" d="M21.5 213.5h107.8v101.1H21.5z"/></defs><clipPath id="SVGID_12_"><use xlink:href="#SVGID_11_" overflow="visible"/></clipPath><path d="M41.7 218h62.5c6.7 0 12.2 5.4 12.2 12.2v165.1c0 6.7-5.4 12.2-12.2 12.2H41.7c-6.7 0-12.2-5.4-12.2-12.2V230.2c0-6.7 5.5-12.2 12.2-12.2z" clip-path="url(#SVGID_12_)" fill="none" stroke="#fff"/><path d="M73.4 270.3c.1-.2.3-.4.6-.4s.5.2.6.4l1.9 5.6h6.2c.3 0 .5.2.6.4.1.2 0 .5-.2.7l-5 3.5 1.9 5.6c.1.2 0 .5-.2.7-.2.2-.5.2-.7 0l-5-3.5-5 3.5c-.2.1-.5.1-.7 0-.2-.2-.3-.4-.2-.7l1.9-5.6-5-3.5c-.2-.1-.3-.4-.2-.7.1-.2.3-.4.6-.4h6.2l1.7-5.6z" opacity=".8" clip-path="url(#SVGID_12_)" fill="none" stroke="#78de7f" stroke-width="1.173" stroke-linejoin="round" enable-background="new"/><path d="M51.8 270.3c.1-.2.3-.4.6-.4s.5.2.6.4l1.9 5.6h6.2c.3 0 .5.2.6.4s0 .5-.2.7l-5 3.5 1.9 5.6c.1.2 0 .5-.2.7-.2.2-.5.2-.7 0l-5-3.5-5 3.5c-.2.1-.5.1-.7 0-.2-.2-.3-.4-.2-.7l1.9-5.6-5-3.5c-.2-.1-.3-.4-.2-.7.1-.2.3-.4.6-.4h6.2l1.7-5.6z" opacity=".8" clip-path="url(#SVGID_12_)" fill="none" stroke="#198aff" stroke-width="1.173" stroke-linejoin="round" enable-background="new"/><path d="M95.3 270.3c.1-.2.3-.4.6-.4s.5.2.6.4l1.8 5.6h5.9c.3 0 .5.2.6.4.1.2 0 .5-.2.7l-4.8 3.5 1.8 5.6c.1.2 0 .5-.2.7-.2.1-.5.1-.7 0l-4.8-3.5-4.8 3.5c-.2.1-.5.1-.7 0-.2-.1-.3-.4-.2-.7l1.8-5.6-4.8-3.5c-.2-.1-.3-.4-.2-.7.1-.2.3-.4.6-.4h5.9l1.8-5.6z" opacity=".8" clip-path="url(#SVGID_12_)" fill="none" stroke="#ff6400" stroke-width="1.173" stroke-linejoin="round" enable-background="new"/><defs><path id="SVGID_13_" d="M240.8 213.5h220.5V309H240.8z"/></defs><clipPath id="SVGID_14_"><use xlink:href="#SVGID_13_" overflow="visible"/></clipPath><defs><filter id="Adobe_OpacityMaskFilter_2_" filterUnits="userSpaceOnUse" x="266.5" y="258.8" width="173.7" height="8"><feColorMatrix values="1 0 0 0 0 0 1 0 0 0 0 0 1 0 0 0 0 0 1 0"/></filter></defs><mask maskUnits="userSpaceOnUse" x="266.5" y="258.8" width="173.7" height="8" id="mask0_1_"><path clip-path="url(#SVGID_14_)" fill="#c4c4c4" filter="url(#Adobe_OpacityMaskFilter_2_)" d="M231.6 211.9h233.6v96.5H231.6z"/></mask><g clip-path="url(#SVGID_14_)" mask="url(#mask0_1_)"><defs><filter id="Adobe_OpacityMaskFilter_3_" filterUnits="userSpaceOnUse" x="266.5" y="258.8" width="173.7" height="8"><feColorMatrix values="1 0 0 0 0 0 1 0 0 0 0 0 1 0 0 0 0 0 1 0"/></filter></defs><mask maskUnits="userSpaceOnUse" x="266.5" y="258.8" width="173.7" height="8" id="mask1_1_"><path d="M282.7 223.2h141.8c15.2 0 27.6 12.4 27.6 27.6v374.7c0 15.2-12.4 27.6-27.6 27.6H282.7c-15.2 0-27.6-12.4-27.6-27.6V250.8c0-15.2 12.3-27.6 27.6-27.6z" fill="#c4c4c4" filter="url(#Adobe_OpacityMaskFilter_3_)" stroke="#464646" stroke-width="1.254"/></mask><g mask="url(#mask1_1_)" fill="none" stroke-width="7.526"><path d="M266.5 263.1l52.3-.2" stroke="#198aff"/><path d="M326.7 262.9l52.3-.1" stroke="#78de7f"/><path d="M387.8 262.7l52.3-.1" stroke="#ff6400"/></g></g><path d="M282.7 223.1h141.8c15.3 0 27.7 12.4 27.7 27.7v374.7c0 15.3-12.4 27.7-27.7 27.7H282.7c-15.3 0-27.7-12.4-27.7-27.7V250.8c-.1-15.3 12.4-27.7 27.7-27.7z" clip-path="url(#SVGID_14_)" fill="none" stroke="#fff"/></g></svg>