<svg width="1096" height="271" viewBox="0 0 1096 271" fill="none" xmlns="http://www.w3.org/2000/svg">
<g style="mix-blend-mode:multiply" clip-path="url(#clip0)">
<path d="M259.398 262.199C271.977 262.199 282.175 251.776 282.175 238.918C282.175 226.06 271.977 215.637 259.398 215.637C246.819 215.637 236.621 226.06 236.621 238.918C236.621 251.776 246.819 262.199 259.398 262.199Z" fill="#AFAFAF"/>
<path fill-rule="evenodd" clip-rule="evenodd" d="M259.4 207.038C242.145 207.038 228.156 221.311 228.156 238.918C228.156 256.525 242.145 270.798 259.4 270.798C276.655 270.798 290.644 256.525 290.644 238.918C290.644 221.311 276.656 207.038 259.4 207.038ZM259.4 264.199C254.378 264.3 249.44 262.903 245.216 260.187C240.991 257.47 237.671 253.557 235.679 248.946C233.687 244.335 233.113 239.236 234.031 234.298C234.949 229.359 237.317 224.806 240.832 221.219C244.348 217.632 248.852 215.173 253.771 214.156C258.69 213.139 263.8 213.61 268.45 215.509C273.1 217.407 277.079 220.648 279.88 224.817C282.681 228.986 284.177 233.895 284.177 238.918C284.243 245.556 281.67 251.948 277.024 256.689C272.377 261.43 266.038 264.132 259.4 264.199Z" fill="#AFAFAF"/>
<path d="M230 159.374C230.023 159.854 229.928 160.331 229.726 160.767C229.524 161.202 229.219 161.582 228.838 161.874C227.916 162.518 226.806 162.834 225.683 162.774C224.549 162.829 223.417 162.639 222.363 162.217V160.856C223.432 161.297 224.577 161.529 225.733 161.538C226.481 161.591 227.225 161.402 227.858 161.001C228.091 160.831 228.277 160.606 228.402 160.346C228.526 160.086 228.585 159.8 228.572 159.512C228.587 159.15 228.499 158.792 228.319 158.478C228.101 158.165 227.811 157.91 227.472 157.735C226.893 157.428 226.289 157.169 225.667 156.963C224.755 156.692 223.923 156.199 223.247 155.528C222.744 154.921 222.485 154.149 222.52 153.361C222.506 152.932 222.594 152.505 222.777 152.116C222.961 151.728 223.234 151.389 223.575 151.127C224.384 150.541 225.367 150.249 226.364 150.297C227.508 150.285 228.641 150.511 229.692 150.961L229.253 152.19C228.331 151.787 227.338 151.572 226.331 151.559C225.71 151.523 225.094 151.692 224.579 152.042C224.374 152.197 224.209 152.399 224.099 152.632C223.989 152.864 223.937 153.12 223.948 153.377C223.934 153.736 224.014 154.092 224.18 154.411C224.377 154.719 224.647 154.973 224.966 155.15C225.504 155.451 226.07 155.7 226.655 155.893C227.63 156.174 228.529 156.674 229.282 157.354C229.773 157.91 230.03 158.633 230 159.374Z" fill="#111111"/>
<path d="M238.5 162.603V156.718C238.547 156.12 238.366 155.527 237.993 155.058C237.782 154.861 237.532 154.71 237.259 154.615C236.986 154.52 236.696 154.484 236.408 154.509C236.022 154.474 235.633 154.527 235.27 154.662C234.907 154.797 234.578 155.012 234.308 155.29C233.802 156.041 233.569 156.944 233.648 157.847V162.603H232.273V149.687H233.651V153.597C233.656 153.988 233.634 154.379 233.585 154.767H233.668C233.949 154.32 234.351 153.962 234.826 153.734C235.36 153.475 235.947 153.345 236.54 153.356C237.445 153.287 238.341 153.572 239.04 154.149C239.344 154.49 239.575 154.889 239.718 155.322C239.861 155.755 239.915 156.213 239.874 156.667V162.603H238.5Z" fill="#111111"/>
<path d="M242.589 151.04C242.578 150.915 242.594 150.788 242.634 150.669C242.674 150.55 242.738 150.44 242.822 150.347C242.98 150.204 243.186 150.124 243.399 150.124C243.612 150.124 243.818 150.204 243.975 150.347C244.061 150.439 244.127 150.547 244.169 150.666C244.21 150.785 244.227 150.911 244.216 151.036C244.226 151.162 244.21 151.289 244.169 151.408C244.127 151.527 244.061 151.637 243.975 151.729C243.9 151.803 243.81 151.861 243.712 151.9C243.613 151.94 243.508 151.959 243.402 151.957C243.295 151.96 243.189 151.942 243.089 151.902C242.989 151.863 242.899 151.804 242.822 151.729C242.739 151.636 242.676 151.527 242.636 151.408C242.596 151.29 242.58 151.165 242.589 151.04ZM244.089 162.603H242.705V153.503H244.084L244.089 162.603Z" fill="#111111"/>
<path d="M253.233 162.603V156.718C253.28 156.121 253.099 155.528 252.727 155.058C252.516 154.861 252.265 154.71 251.992 154.615C251.719 154.521 251.429 154.484 251.141 154.509C250.757 154.476 250.37 154.528 250.008 154.662C249.647 154.795 249.319 155.007 249.049 155.282C248.539 156.028 248.304 156.929 248.385 157.829V162.603H247.008V153.503H248.129L248.352 154.748H248.419C248.707 154.295 249.119 153.933 249.606 153.706C250.137 153.455 250.718 153.329 251.306 153.337C252.203 153.269 253.09 153.554 253.781 154.13C254.084 154.474 254.314 154.876 254.457 155.312C254.6 155.748 254.652 156.208 254.611 156.665V162.601L253.233 162.603Z" fill="#111111"/>
<path d="M256 153.505H257.477L259.469 158.693C259.799 159.528 260.071 160.385 260.283 161.258H260.349C260.421 160.976 260.572 160.493 260.801 159.81C261.03 159.127 261.782 157.025 263.055 153.505H264.533L260.624 163.865C260.362 164.694 259.895 165.443 259.266 166.043C258.729 166.479 258.053 166.708 257.361 166.687C256.942 166.687 256.524 166.64 256.116 166.546V165.446C256.452 165.515 256.794 165.549 257.137 165.546C257.603 165.543 258.056 165.384 258.422 165.096C258.789 164.807 259.05 164.405 259.163 163.953L259.669 162.658L256 153.505Z" fill="#111111"/>
<path d="M274.059 162.769C273.491 162.803 272.923 162.712 272.394 162.502C271.865 162.292 271.389 161.968 271 161.553C270.224 160.581 269.837 159.354 269.917 158.113C269.835 156.841 270.227 155.584 271.017 154.584C271.415 154.159 271.903 153.827 272.444 153.611C272.986 153.396 273.568 153.303 274.15 153.339C274.591 153.339 275.031 153.387 275.463 153.48C275.818 153.548 276.164 153.66 276.492 153.812L276.068 154.983C275.743 154.856 275.409 154.756 275.068 154.683C274.755 154.608 274.435 154.568 274.113 154.563C272.265 154.563 271.341 155.741 271.341 158.098C271.282 159.007 271.519 159.91 272.017 160.672C272.252 160.973 272.557 161.212 272.906 161.369C273.254 161.526 273.636 161.596 274.017 161.572C274.819 161.563 275.612 161.396 276.35 161.082V162.302C275.634 162.637 274.849 162.797 274.059 162.769Z" fill="#111111"/>
<path d="M286.367 158.046C286.443 159.304 286.043 160.544 285.247 161.52C284.853 161.942 284.372 162.273 283.836 162.489C283.3 162.705 282.724 162.8 282.147 162.769C281.386 162.783 280.637 162.585 279.981 162.197C279.342 161.805 278.834 161.233 278.52 160.552C278.161 159.766 277.985 158.91 278.005 158.046C277.929 156.792 278.326 155.555 279.118 154.58C279.511 154.16 279.991 153.832 280.525 153.617C281.058 153.403 281.632 153.308 282.206 153.339C282.774 153.313 283.341 153.414 283.865 153.634C284.39 153.853 284.859 154.186 285.239 154.609C286.031 155.574 286.434 156.8 286.367 158.046ZM279.436 158.046C279.375 158.984 279.621 159.917 280.136 160.703C280.396 160.99 280.713 161.219 281.066 161.376C281.42 161.532 281.802 161.613 282.189 161.613C282.576 161.613 282.958 161.532 283.312 161.376C283.665 161.219 283.982 160.99 284.241 160.703C284.76 159.917 285.006 158.982 284.941 158.043C285.006 157.111 284.76 156.185 284.241 155.408C283.993 155.104 283.676 154.863 283.316 154.707C282.956 154.55 282.563 154.482 282.171 154.508C281.785 154.482 281.397 154.55 281.042 154.704C280.686 154.859 280.373 155.097 280.128 155.397C279.614 156.18 279.37 157.111 279.436 158.046Z" fill="#111111"/>
<path d="M288.668 151.04C288.657 150.915 288.671 150.789 288.711 150.669C288.751 150.55 288.815 150.44 288.9 150.347C289.057 150.204 289.263 150.124 289.476 150.124C289.689 150.124 289.895 150.204 290.053 150.347C290.139 150.439 290.205 150.547 290.247 150.666C290.288 150.785 290.305 150.911 290.295 151.036C290.305 151.162 290.288 151.289 290.246 151.408C290.205 151.527 290.139 151.637 290.053 151.729C289.896 151.875 289.69 151.957 289.476 151.957C289.262 151.957 289.056 151.875 288.9 151.729C288.817 151.636 288.753 151.526 288.714 151.408C288.674 151.29 288.658 151.165 288.668 151.04ZM290.162 162.603H288.784V153.503H290.162V162.603Z" fill="#111111"/>
<path d="M299.311 162.603V156.718C299.358 156.121 299.177 155.528 298.805 155.058C298.594 154.861 298.343 154.71 298.07 154.615C297.797 154.521 297.507 154.485 297.219 154.509C296.835 154.476 296.448 154.528 296.087 154.661C295.725 154.795 295.398 155.007 295.128 155.282C294.617 156.028 294.382 156.929 294.464 157.829V162.603H293.086V153.503H294.206L294.43 154.748H294.497C294.785 154.294 295.197 153.933 295.684 153.706C296.215 153.455 296.797 153.329 297.384 153.337C298.28 153.269 299.168 153.554 299.858 154.13C300.161 154.474 300.392 154.876 300.534 155.312C300.677 155.748 300.729 156.208 300.688 156.665V162.601L299.311 162.603Z" fill="#111111"/>
<path d="M479.959 153.837C479.989 154.375 479.891 154.913 479.672 155.406C479.453 155.899 479.12 156.333 478.701 156.672C477.646 157.398 476.378 157.747 475.101 157.664H473.673V162.437H472.262V150.301H475.409C478.441 150.301 479.958 151.48 479.959 153.837ZM473.674 156.453H474.945C475.89 156.528 476.836 156.316 477.659 155.846C477.948 155.617 478.177 155.32 478.323 154.981C478.469 154.642 478.529 154.272 478.498 153.904C478.522 153.563 478.463 153.222 478.326 152.91C478.188 152.597 477.976 152.323 477.709 152.111C476.972 151.662 476.112 151.456 475.252 151.522H473.674V156.453Z" fill="#111111"/>
<path d="M490.143 157.88C490.219 159.138 489.819 160.378 489.023 161.354C488.629 161.776 488.148 162.107 487.612 162.323C487.076 162.539 486.5 162.634 485.923 162.603C485.162 162.617 484.412 162.419 483.757 162.031C483.118 161.64 482.61 161.068 482.296 160.387C481.938 159.601 481.762 158.744 481.782 157.88C481.708 156.627 482.107 155.391 482.9 154.418C483.293 153.998 483.773 153.669 484.306 153.455C484.84 153.24 485.414 153.146 485.988 153.177C486.556 153.151 487.123 153.252 487.647 153.472C488.172 153.692 488.641 154.025 489.021 154.448C489.81 155.412 490.21 156.636 490.143 157.88ZM483.213 157.88C483.151 158.818 483.397 159.751 483.913 160.537C484.172 160.823 484.489 161.052 484.842 161.209C485.195 161.365 485.577 161.446 485.963 161.446C486.349 161.446 486.731 161.365 487.084 161.209C487.438 161.052 487.754 160.823 488.013 160.537C488.532 159.751 488.778 158.816 488.713 157.877C488.778 156.945 488.532 156.019 488.013 155.242C487.765 154.938 487.447 154.697 487.087 154.541C486.727 154.384 486.334 154.316 485.942 154.342C485.556 154.316 485.169 154.384 484.813 154.538C484.458 154.693 484.145 154.93 483.9 155.23C483.387 156.014 483.146 156.945 483.213 157.88Z" fill="#111111"/>
<path d="M498.428 159.955C498.446 160.335 498.369 160.713 498.203 161.055C498.038 161.397 497.79 161.692 497.482 161.914C496.691 162.418 495.761 162.659 494.826 162.603C493.852 162.653 492.881 162.456 492.004 162.031V160.752C492.452 160.978 492.924 161.153 493.411 161.275C493.883 161.399 494.37 161.463 494.859 161.466C495.433 161.499 496.005 161.38 496.519 161.121C496.685 161.022 496.825 160.884 496.926 160.719C497.026 160.554 497.085 160.367 497.097 160.174C497.109 159.98 497.074 159.787 496.994 159.611C496.914 159.435 496.793 159.281 496.64 159.162C496.084 158.783 495.478 158.483 494.84 158.27C494.213 158.056 493.61 157.78 493.04 157.444C492.714 157.243 492.44 156.969 492.24 156.644C492.058 156.317 491.967 155.948 491.978 155.574C491.967 155.229 492.044 154.887 492.201 154.58C492.359 154.273 492.591 154.011 492.878 153.818C493.618 153.351 494.486 153.126 495.361 153.174C496.349 153.176 497.326 153.381 498.233 153.774L497.743 154.895C496.96 154.547 496.117 154.356 495.261 154.331C494.75 154.299 494.24 154.405 493.784 154.637C493.631 154.719 493.504 154.841 493.415 154.991C493.327 155.14 493.282 155.311 493.284 155.484C493.277 155.706 493.342 155.925 493.47 156.107C493.633 156.311 493.837 156.477 494.07 156.596C494.586 156.854 495.118 157.079 495.664 157.269C496.468 157.506 497.213 157.911 497.851 158.456C498.041 158.656 498.19 158.891 498.289 159.148C498.388 159.405 498.435 159.679 498.428 159.955Z" fill="#111111"/>
<path d="M500.55 150.874C500.54 150.749 500.555 150.623 500.595 150.503C500.635 150.384 500.699 150.275 500.783 150.181C500.941 150.038 501.147 149.959 501.36 149.959C501.573 149.959 501.779 150.038 501.937 150.181C502.023 150.273 502.089 150.381 502.13 150.5C502.171 150.619 502.187 150.745 502.177 150.87C502.187 150.996 502.171 151.122 502.13 151.242C502.088 151.361 502.023 151.47 501.937 151.563C501.861 151.637 501.772 151.695 501.673 151.734C501.575 151.774 501.47 151.793 501.364 151.791C501.257 151.794 501.15 151.775 501.05 151.736C500.951 151.697 500.86 151.638 500.783 151.563C500.7 151.47 500.637 151.36 500.597 151.242C500.557 151.124 500.541 150.999 500.55 150.874ZM502.05 162.437H500.672V153.337H502.05V162.437Z" fill="#111111"/>
<path d="M507.909 161.466C508.145 161.467 508.381 161.449 508.615 161.412C508.796 161.385 508.976 161.348 509.154 161.3V162.354C508.943 162.444 508.721 162.504 508.494 162.533C508.234 162.577 507.972 162.6 507.71 162.603C505.95 162.603 505.07 161.676 505.07 159.823V154.411H503.77V153.746L505.07 153.173L505.651 151.231H506.451V153.339H509.091V154.411H506.451V159.764C506.42 160.219 506.559 160.668 506.842 161.026C506.976 161.174 507.141 161.289 507.326 161.366C507.51 161.442 507.709 161.476 507.909 161.466Z" fill="#111111"/>
<path d="M510.855 150.874C510.844 150.749 510.859 150.622 510.899 150.503C510.939 150.384 511.004 150.274 511.088 150.181C511.246 150.038 511.452 149.959 511.665 149.959C511.878 149.959 512.083 150.038 512.241 150.181C512.327 150.273 512.393 150.381 512.435 150.5C512.476 150.619 512.492 150.745 512.482 150.87C512.492 150.996 512.476 151.123 512.435 151.242C512.393 151.361 512.327 151.471 512.241 151.563C512.166 151.637 512.076 151.695 511.978 151.734C511.88 151.773 511.775 151.793 511.669 151.791C511.562 151.794 511.455 151.776 511.355 151.737C511.255 151.697 511.165 151.638 511.088 151.563C511.005 151.47 510.941 151.361 510.901 151.242C510.861 151.124 510.845 150.999 510.855 150.874ZM512.349 162.437H510.971V153.337H512.349V162.437Z" fill="#111111"/>
<path d="M517.262 162.437L513.809 153.337H515.287L517.246 158.737C517.688 159.998 517.948 160.817 518.026 161.194H518.092C518.252 160.577 518.445 159.969 518.67 159.372C518.992 158.451 519.718 156.441 520.848 153.341H522.326L518.873 162.441L517.262 162.437Z" fill="#111111"/>
<path d="M527.628 162.603C527.041 162.634 526.454 162.54 525.905 162.329C525.357 162.117 524.859 161.791 524.445 161.374C523.623 160.434 523.204 159.209 523.278 157.963C523.209 156.704 523.594 155.462 524.362 154.463C524.715 154.039 525.161 153.701 525.665 153.476C526.17 153.252 526.719 153.146 527.271 153.168C527.777 153.144 528.282 153.232 528.75 153.427C529.218 153.622 529.637 153.917 529.977 154.293C530.67 155.122 531.027 156.181 530.977 157.261V158.132H524.71C524.673 159.015 524.961 159.88 525.519 160.565C525.799 160.85 526.137 161.071 526.51 161.214C526.883 161.357 527.282 161.419 527.681 161.395C528.681 161.391 529.67 161.182 530.587 160.781V162.018C530.142 162.214 529.679 162.365 529.205 162.47C528.685 162.568 528.157 162.612 527.628 162.603ZM527.254 154.328C526.928 154.313 526.604 154.369 526.302 154.492C526 154.616 525.729 154.803 525.507 155.041C525.041 155.597 524.771 156.292 524.739 157.017H529.498C529.546 156.303 529.34 155.595 528.917 155.017C528.711 154.783 528.453 154.599 528.165 154.48C527.877 154.361 527.565 154.309 527.254 154.328Z" fill="#111111"/>
<path d="M541.585 162.603C540.998 162.634 540.41 162.54 539.862 162.329C539.313 162.117 538.815 161.792 538.401 161.374C537.58 160.434 537.161 159.209 537.235 157.963C537.166 156.704 537.55 155.463 538.318 154.463C538.671 154.039 539.117 153.701 539.621 153.476C540.126 153.252 540.675 153.146 541.227 153.168C541.733 153.144 542.238 153.232 542.706 153.427C543.174 153.621 543.593 153.917 543.933 154.293C544.626 155.122 544.983 156.181 544.933 157.261V158.132H538.667C538.63 159.015 538.917 159.88 539.475 160.565C539.756 160.849 540.094 161.07 540.467 161.214C540.84 161.357 541.239 161.419 541.638 161.395C542.638 161.391 543.627 161.182 544.544 160.781V162.018C544.099 162.214 543.636 162.365 543.161 162.47C542.641 162.568 542.113 162.612 541.585 162.603ZM541.211 154.328C540.885 154.313 540.561 154.369 540.259 154.492C539.957 154.615 539.686 154.803 539.464 155.041C538.996 155.597 538.726 156.292 538.696 157.017H543.452C543.5 156.303 543.294 155.594 542.871 155.017C542.665 154.783 542.408 154.6 542.121 154.48C541.833 154.361 541.522 154.309 541.211 154.328Z" fill="#111111"/>
<path d="M549.47 157.781L546.307 153.339H547.877L550.277 156.826L552.669 153.339H554.22L551.057 157.781L554.386 162.437H552.826L550.277 158.751L547.704 162.437H546.141L549.47 157.781Z" fill="#111111"/>
<path d="M560.418 162.603C559.859 162.61 559.306 162.498 558.795 162.275C558.302 162.054 557.876 161.706 557.562 161.267H557.462C557.526 161.768 557.559 162.273 557.562 162.778V166.518H556.184V153.339H557.305L557.496 154.584H557.562C557.874 154.123 558.3 153.752 558.799 153.505C559.307 153.276 559.86 153.163 560.418 153.173C560.948 153.144 561.477 153.241 561.963 153.456C562.448 153.671 562.876 153.999 563.211 154.411C563.856 155.456 564.197 156.661 564.194 157.889C564.191 159.117 563.844 160.32 563.194 161.362C562.861 161.772 562.436 162.098 561.954 162.314C561.471 162.529 560.945 162.628 560.418 162.603ZM560.218 154.344C559.845 154.309 559.469 154.361 559.12 154.495C558.77 154.629 558.456 154.841 558.202 155.116C557.725 155.843 557.5 156.706 557.562 157.573V157.88C557.479 158.839 557.703 159.8 558.202 160.623C558.454 160.913 558.771 161.139 559.127 161.283C559.483 161.427 559.869 161.484 560.252 161.45C560.615 161.462 560.976 161.38 561.299 161.213C561.622 161.046 561.897 160.799 562.098 160.495C562.584 159.707 562.818 158.789 562.766 157.864C562.825 156.945 562.591 156.03 562.098 155.252C561.884 154.957 561.6 154.719 561.272 154.561C560.944 154.402 560.582 154.328 560.218 154.344Z" fill="#111111"/>
<path d="M570.444 162.603C569.857 162.634 569.27 162.54 568.721 162.329C568.172 162.117 567.675 161.791 567.26 161.374C566.439 160.434 566.02 159.209 566.094 157.963C566.026 156.704 566.41 155.463 567.177 154.463C567.531 154.038 567.977 153.701 568.481 153.476C568.986 153.252 569.535 153.146 570.087 153.168C570.593 153.144 571.099 153.233 571.566 153.427C572.034 153.622 572.453 153.917 572.793 154.293C573.487 155.122 573.844 156.181 573.793 157.261V158.132H567.526C567.489 159.015 567.777 159.88 568.335 160.565C568.616 160.85 568.954 161.071 569.326 161.214C569.699 161.357 570.099 161.419 570.497 161.395C571.498 161.391 572.487 161.182 573.403 160.781V162.018C572.958 162.214 572.495 162.365 572.02 162.47C571.501 162.568 570.973 162.612 570.444 162.603ZM570.07 154.328C569.745 154.313 569.42 154.369 569.118 154.492C568.817 154.615 568.545 154.803 568.323 155.041C567.856 155.597 567.586 156.292 567.555 157.017H572.311C572.36 156.303 572.154 155.594 571.73 155.017C571.524 154.783 571.268 154.6 570.98 154.48C570.692 154.361 570.381 154.309 570.07 154.328Z" fill="#111111"/>
<path d="M580.292 153.173C580.657 153.169 581.021 153.203 581.38 153.273L581.188 154.551C580.86 154.474 580.524 154.432 580.188 154.427C579.826 154.427 579.468 154.507 579.141 154.663C578.814 154.819 578.526 155.046 578.299 155.327C577.768 155.947 577.488 156.743 577.515 157.559V162.44H576.141V153.34H577.278L577.436 155.026H577.503C577.798 154.481 578.215 154.012 578.723 153.656C579.184 153.339 579.732 153.17 580.292 153.173Z" fill="#111111"/>
<path d="M582.964 150.874C582.953 150.749 582.968 150.623 583.008 150.503C583.048 150.384 583.112 150.274 583.196 150.181C583.354 150.038 583.56 149.959 583.773 149.959C583.986 149.959 584.191 150.038 584.349 150.181C584.435 150.273 584.501 150.381 584.543 150.5C584.584 150.619 584.601 150.745 584.59 150.87C584.601 150.996 584.584 151.123 584.543 151.242C584.501 151.361 584.436 151.471 584.349 151.563C584.193 151.709 583.987 151.791 583.773 151.791C583.559 151.791 583.353 151.709 583.196 151.563C583.114 151.47 583.05 151.36 583.01 151.242C582.971 151.124 582.955 150.999 582.964 150.874ZM584.458 162.437H583.08V153.337H584.458V162.437Z" fill="#111111"/>
<path d="M591.221 162.603C590.634 162.634 590.047 162.54 589.498 162.329C588.949 162.117 588.452 161.791 588.038 161.374C587.216 160.434 586.797 159.209 586.872 157.963C586.802 156.704 587.187 155.463 587.955 154.463C588.308 154.039 588.754 153.701 589.258 153.476C589.763 153.252 590.312 153.146 590.864 153.168C591.37 153.144 591.875 153.232 592.343 153.427C592.811 153.622 593.23 153.917 593.57 154.293C594.263 155.122 594.62 156.181 594.57 157.261V158.132H588.299C588.262 159.015 588.55 159.88 589.108 160.565C589.388 160.85 589.726 161.071 590.099 161.214C590.472 161.357 590.871 161.419 591.27 161.395C592.27 161.391 593.259 161.182 594.176 160.781V162.018C593.731 162.214 593.268 162.365 592.794 162.47C592.275 162.567 591.748 162.612 591.221 162.603ZM590.847 154.328C590.521 154.313 590.197 154.369 589.895 154.493C589.593 154.616 589.322 154.803 589.1 155.041C588.633 155.597 588.363 156.292 588.333 157.017H593.089C593.137 156.303 592.931 155.594 592.507 155.017C592.301 154.783 592.044 154.6 591.757 154.48C591.469 154.361 591.158 154.309 590.847 154.328Z" fill="#111111"/>
<path d="M603.143 162.437V156.552C603.19 155.955 603.009 155.361 602.636 154.892C602.425 154.695 602.175 154.544 601.902 154.45C601.629 154.355 601.339 154.319 601.051 154.344C600.667 154.31 600.28 154.362 599.919 154.496C599.557 154.629 599.23 154.841 598.96 155.116C598.45 155.863 598.215 156.763 598.296 157.664V162.437H596.918V153.337H598.039L598.262 154.582H598.329C598.617 154.129 599.029 153.768 599.515 153.54C600.046 153.289 600.628 153.163 601.215 153.171C602.111 153.104 602.999 153.388 603.689 153.964C603.993 154.308 604.223 154.71 604.365 155.146C604.508 155.583 604.56 156.043 604.519 156.5V162.435L603.143 162.437Z" fill="#111111"/>
<path d="M610.989 162.603C610.421 162.637 609.852 162.545 609.324 162.335C608.795 162.125 608.319 161.801 607.93 161.387C607.153 160.415 606.767 159.189 606.847 157.947C606.765 156.675 607.157 155.418 607.947 154.418C608.345 153.993 608.832 153.661 609.374 153.445C609.915 153.23 610.498 153.137 611.08 153.173C611.521 153.173 611.961 153.221 612.392 153.315C612.748 153.382 613.094 153.494 613.422 153.647L613.002 154.818C612.677 154.692 612.342 154.591 612.002 154.518C611.689 154.444 611.368 154.404 611.047 154.398C609.199 154.398 608.275 155.577 608.275 157.934C608.216 158.842 608.453 159.745 608.951 160.507C609.186 160.808 609.491 161.048 609.839 161.204C610.188 161.361 610.569 161.431 610.951 161.407C611.753 161.398 612.546 161.232 613.284 160.917V162.137C612.567 162.473 611.78 162.633 610.989 162.603Z" fill="#111111"/>
<path d="M619.288 162.603C618.701 162.634 618.113 162.541 617.565 162.329C617.016 162.117 616.518 161.792 616.104 161.374C615.283 160.434 614.864 159.209 614.938 157.963C614.869 156.704 615.253 155.463 616.021 154.463C616.374 154.039 616.82 153.701 617.325 153.476C617.829 153.252 618.378 153.146 618.93 153.168C619.436 153.144 619.941 153.232 620.409 153.427C620.877 153.622 621.296 153.917 621.636 154.293C622.33 155.122 622.687 156.181 622.636 157.261V158.132H616.37C616.333 159.015 616.62 159.88 617.178 160.565C617.459 160.849 617.797 161.071 618.17 161.214C618.543 161.357 618.942 161.419 619.341 161.395C620.341 161.391 621.33 161.182 622.247 160.781V162.018C621.802 162.214 621.339 162.365 620.864 162.47C620.345 162.568 619.817 162.612 619.288 162.603ZM618.914 154.328C618.589 154.313 618.264 154.369 617.962 154.492C617.66 154.615 617.389 154.803 617.167 155.041C616.7 155.597 616.43 156.292 616.399 157.017H621.155C621.204 156.303 620.998 155.594 620.574 155.017C620.368 154.783 620.111 154.6 619.824 154.481C619.536 154.361 619.225 154.309 618.914 154.328Z" fill="#111111"/>
<path fill-rule="evenodd" clip-rule="evenodd" d="M573.248 231.633C573.248 231.664 573.24 231.694 573.236 231.725C573.243 231.903 573.236 232.082 573.217 232.259C573.193 232.39 573.162 232.52 573.124 232.648C572.212 239.545 568.612 245.802 563.108 250.057C560.411 252.138 557.325 253.658 554.031 254.527C550.737 255.395 547.302 255.594 543.93 255.113C540.558 254.631 537.316 253.479 534.397 251.723C531.477 249.968 528.939 247.645 526.933 244.892C524.281 241.302 522.578 237.099 521.984 232.675C521.879 232.308 521.832 231.926 521.844 231.544C521.844 231.52 521.838 231.496 521.836 231.472H521.848C521.869 230.948 522.003 230.436 522.243 229.969C522.482 229.503 522.82 229.094 523.233 228.772C523.602 228.487 524.025 228.279 524.476 228.16C524.926 228.042 525.397 228.014 525.858 228.08C526.32 228.146 526.764 228.304 527.163 228.544C527.563 228.784 527.91 229.102 528.185 229.479C528.618 230.066 528.864 230.769 528.892 231.498H528.911C529.323 234.786 530.574 237.912 532.544 240.576C534.004 242.58 535.852 244.271 537.977 245.548C540.102 246.826 542.461 247.665 544.916 248.015C547.37 248.366 549.87 248.221 552.268 247.589C554.666 246.956 556.912 245.85 558.875 244.335C562.896 241.228 565.521 236.654 566.175 231.615H566.199C566.199 231.498 566.199 231.382 566.212 231.262C566.318 230.373 566.758 229.557 567.443 228.981C568.128 228.405 569.007 228.11 569.901 228.158C570.795 228.206 571.638 228.592 572.258 229.238C572.877 229.884 573.228 230.742 573.239 231.637L573.248 231.633Z" fill="#AFAFAF"/>
<path d="M835.043 206.803C818.071 206.803 804.312 220.956 804.312 238.415C804.312 255.874 818.071 270.026 835.043 270.026C852.015 270.026 865.773 255.873 865.773 238.415C865.791 230.078 862.563 222.06 856.773 216.062C853.955 213.142 850.58 210.818 846.847 209.228C843.114 207.637 839.1 206.813 835.043 206.803ZM848.788 256.038C844.997 259.189 840.238 260.942 835.309 261.001C830.379 261.06 825.58 259.422 821.715 256.363C817.793 253.229 815.003 248.899 813.772 244.032C812.54 239.166 812.934 234.03 814.893 229.408C814.993 229.169 815.154 228.96 815.361 228.803C815.567 228.647 815.811 228.548 816.068 228.516C816.325 228.487 816.585 228.527 816.821 228.633C817.056 228.738 817.259 228.905 817.409 229.116C817.561 229.33 817.656 229.58 817.684 229.841C817.713 230.103 817.674 230.367 817.572 230.609C815.874 234.616 815.533 239.068 816.601 243.287C817.668 247.506 820.087 251.259 823.487 253.976C826.837 256.628 830.998 258.048 835.271 257.997C839.544 257.946 843.67 256.428 846.956 253.697C847.152 253.521 847.393 253.403 847.652 253.355C847.911 253.307 848.178 253.332 848.424 253.426C848.672 253.524 848.89 253.687 849.055 253.898C849.219 254.109 849.323 254.361 849.357 254.626C849.395 254.891 849.362 255.162 849.262 255.411C849.161 255.659 848.996 255.877 848.784 256.041L848.788 256.038Z" fill="#AFAFAF"/>
<path opacity="0.25" fill-rule="evenodd" clip-rule="evenodd" d="M687.666 252.6C687.438 252.6 687.215 252.535 687.022 252.415C686.829 252.294 686.673 252.121 686.573 251.917C686.473 251.712 686.433 251.483 686.456 251.257C686.479 251.03 686.566 250.815 686.706 250.635L693.588 241.746L686.697 232.602C686.595 232.475 686.52 232.328 686.475 232.171C686.431 232.014 686.419 231.85 686.439 231.689C686.46 231.527 686.512 231.371 686.594 231.23C686.676 231.089 686.785 230.965 686.915 230.867C687.045 230.769 687.194 230.698 687.352 230.658C687.51 230.619 687.674 230.611 687.835 230.636C687.996 230.661 688.151 230.718 688.29 230.804C688.428 230.889 688.548 231.002 688.643 231.135L696.094 241.023C696.255 241.236 696.341 241.497 696.339 241.764C696.338 242.031 696.248 242.291 696.085 242.502L688.633 252.126C688.519 252.274 688.372 252.394 688.204 252.476C688.037 252.558 687.852 252.6 687.666 252.6Z" fill="#111111"/>
<path opacity="0.25" fill-rule="evenodd" clip-rule="evenodd" d="M400.166 252.6C399.938 252.6 399.715 252.535 399.522 252.415C399.329 252.294 399.173 252.121 399.073 251.917C398.973 251.712 398.933 251.483 398.956 251.257C398.98 251.03 399.066 250.815 399.206 250.635L406.088 241.746L399.197 232.602C399.095 232.475 399.02 232.328 398.975 232.171C398.931 232.014 398.919 231.85 398.939 231.689C398.96 231.527 399.012 231.371 399.094 231.23C399.176 231.089 399.285 230.965 399.415 230.867C399.545 230.769 399.694 230.698 399.852 230.658C400.01 230.619 400.174 230.611 400.335 230.636C400.496 230.661 400.651 230.718 400.79 230.804C400.928 230.889 401.048 231.002 401.143 231.135L408.594 241.023C408.755 241.236 408.841 241.497 408.839 241.764C408.838 242.031 408.748 242.291 408.585 242.502L401.133 252.126C401.019 252.274 400.872 252.394 400.704 252.476C400.537 252.558 400.352 252.6 400.166 252.6Z" fill="#111111"/>
<path fill-rule="evenodd" clip-rule="evenodd" d="M503.875 44.3413C503.875 19.9727 523.63 0.218018 547.998 0.218018C559.701 0.218018 570.923 4.86671 579.198 13.1414C587.473 21.4162 592.122 32.6391 592.122 44.3413C592.122 68.7099 572.367 88.4646 547.998 88.4646C523.63 88.4646 503.875 68.7099 503.875 44.3413ZM528.854 69.3928C540.376 78.193 556.413 78.0063 567.728 68.9401H567.723C568.338 68.4814 568.653 67.7235 568.545 66.9641C568.437 66.2047 567.923 65.5649 567.205 65.2959C566.486 65.0268 565.678 65.1715 565.098 65.6731C555.289 73.5308 541.386 73.6915 531.398 66.0625C521.41 58.4336 517.906 44.9792 522.906 33.4478C523.206 32.7608 523.116 31.9661 522.671 31.3631C522.226 30.7601 521.493 30.4404 520.748 30.5243C520.003 30.6083 519.36 31.0832 519.06 31.7702C513.291 45.0716 517.332 60.5926 528.854 69.3928Z" fill="#231F20"/>
<path d="M820.008 165.939L816.133 155.814H816.07C816.143 156.616 816.18 157.569 816.18 158.673V165.939H814.953V154.517H816.953L820.57 163.939H820.633L824.281 154.517H826.266V165.939H824.938V158.58C824.938 157.736 824.974 156.819 825.047 155.83H824.984L821.078 165.939H820.008ZM834.477 165.939L834.219 164.72H834.156C833.729 165.257 833.302 165.621 832.875 165.814C832.453 166.001 831.924 166.095 831.289 166.095C830.44 166.095 829.773 165.876 829.289 165.439C828.81 165.001 828.57 164.379 828.57 163.572C828.57 161.843 829.953 160.936 832.719 160.853L834.172 160.806V160.275C834.172 159.603 834.026 159.108 833.734 158.791C833.448 158.468 832.987 158.306 832.352 158.306C831.638 158.306 830.831 158.525 829.93 158.962L829.531 157.97C829.953 157.741 830.414 157.561 830.914 157.431C831.419 157.301 831.924 157.236 832.43 157.236C833.451 157.236 834.206 157.462 834.695 157.916C835.19 158.369 835.438 159.095 835.438 160.095V165.939H834.477ZM831.547 165.025C832.354 165.025 832.987 164.804 833.445 164.361C833.909 163.918 834.141 163.298 834.141 162.501V161.728L832.844 161.783C831.812 161.819 831.068 161.981 830.609 162.267C830.156 162.548 829.93 162.988 829.93 163.587C829.93 164.056 830.07 164.413 830.352 164.658C830.638 164.903 831.036 165.025 831.547 165.025ZM842.023 157.22C842.404 157.22 842.745 157.251 843.047 157.314L842.867 158.517C842.513 158.439 842.201 158.4 841.93 158.4C841.237 158.4 840.643 158.681 840.148 159.244C839.659 159.806 839.414 160.507 839.414 161.345V165.939H838.117V157.376H839.188L839.336 158.962H839.398C839.716 158.405 840.099 157.975 840.547 157.673C840.995 157.371 841.487 157.22 842.023 157.22ZM845.93 161.556C846.154 161.238 846.495 160.822 846.953 160.306L849.719 157.376H851.258L847.789 161.025L851.5 165.939H849.93L846.906 161.892L845.93 162.736V165.939H844.648V153.783H845.93V160.228C845.93 160.514 845.909 160.957 845.867 161.556H845.93Z" fill="black"/>
<g style="mix-blend-mode:multiply">
<rect y="228.045" width="1096" height="27.3235" fill="#FEF200"/>
</g>
</g>
<defs>
<clipPath id="clip0">
<rect width="1096" height="271" fill="white"/>
</clipPath>
</defs>
</svg>
