<svg width="1096" height="566" viewBox="0 0 1096 566" fill="none" xmlns="http://www.w3.org/2000/svg"><g clip-path="url(#clip0)"><path d="M.972 14h1.596V5.432H.972V14zm9.24-8.568h-3.3V14h3.3c2.58 0 4.283-1.704 4.283-4.284 0-2.568-1.704-4.284-4.284-4.284zm0 1.26c1.703 0 2.651 1.116 2.651 3.024s-.948 3.024-2.652 3.024h-1.74V6.692h1.74zM24.561 14v-1.26h-4.644v-2.4h4.068V9.08h-4.068V6.692h4.596v-1.26h-6.156V14h6.204zm5.943-8.568h-1.86V14h1.524V7.364h.024L34.597 14h1.476V5.432H34.56v6.072h-.024l-4.032-6.072zM42.975 14h1.585V6.692h3.084v-1.26h-7.74v1.26h3.072V14zm8.493 0h1.596V5.432h-1.596V14zm8.495 0h1.584V6.692h3.084v-1.26h-7.74v1.26h3.072V14zm12.549 0v-3.516l3.324-5.052h-1.74l-2.316 3.66h-.024l-2.376-3.66h-1.776l3.312 5.052V14h1.596zm17.94 0v-1.26h-4.644v-2.4h4.068V9.08h-4.068V6.692h4.596v-1.26h-6.156V14h6.204zm4.082 0h6.013v-1.26h-4.416V5.432h-1.597V14zm16.198 0v-1.26h-4.644v-2.4h4.068V9.08h-4.068V6.692h4.596v-1.26h-6.156V14h6.204zm9.171 0l2.436-6.732h.024V14h1.524V5.432h-2.184l-2.304 6.444h-.024l-2.304-6.444h-2.256V14h1.464V7.268h.024L118.751 14h1.152zm14.543 0v-1.26h-4.644v-2.4h4.068V9.08h-4.068V6.692h4.596v-1.26h-6.156V14h6.204zm5.943-8.568h-1.86V14h1.524V7.364h.024L144.481 14h1.476V5.432h-1.512v6.072h-.024l-4.032-6.072zM152.86 14h1.584V6.692h3.084v-1.26h-7.74v1.26h3.072V14zm7.671-2.592c.156 1.884 1.728 2.736 3.768 2.736 1.896 0 3.324-1.032 3.324-2.592 0-1.38-.84-2.076-2.244-2.34l-1.656-.324c-.924-.18-1.368-.408-1.368-1.116 0-.756.648-1.296 1.68-1.296 1.068 0 1.812.468 1.92 1.308h1.5c-.168-1.608-1.392-2.496-3.432-2.496-1.872 0-3.216 1.056-3.216 2.58 0 1.5 1.02 2.1 2.28 2.328l1.572.288c1.032.192 1.404.54 1.404 1.164 0 .864-.792 1.32-1.812 1.32-1.068 0-2.076-.396-2.184-1.56h-1.536zM415.06 69h.86v-6.42h2.67v-.72h-6.19v.72h2.66V69zm9.682 0v-2.96l2.73-4.18h-.95l-2.16 3.41h-.02l-2.23-3.41h-.95l2.72 4.18V69h.86zm8.471-2.87c1.58 0 2.5-.73 2.5-2.14 0-1.4-.92-2.13-2.51-2.13h-2.64V69h.85v-2.87h1.8zm-1.8-.72v-2.83h1.77c1.08 0 1.67.44 1.67 1.41s-.59 1.42-1.67 1.42h-1.77zM443.906 69v-.72h-3.98V65.8h3.53v-.73h-3.53v-2.49h3.97v-.72h-4.82V69h4.83zm3.587 0h.86v-3.09h3.37v-.72h-3.37v-2.61h3.71v-.72h-4.57V69zm12.695 0h.9l-2.9-7.14h-.97l-2.89 7.14h.86l.79-1.99h3.42l.79 1.99zm-2.51-6.28h.03l1.41 3.58h-2.86l1.42-3.58zm6.716 2.7c0-1.78.85-2.95 2.32-2.95 1.2 0 1.72.67 1.88 1.47h.84c-.23-1.3-1.16-2.2-2.72-2.2-1.84 0-3.2 1.44-3.2 3.68 0 2.25 1.36 3.7 3.2 3.7 1.56 0 2.49-.9 2.72-2.2h-.84c-.16.8-.68 1.47-1.88 1.47-1.47 0-2.32-1.19-2.32-2.97zM477.629 69v-.72h-3.98V65.8h3.53v-.73h-3.53v-2.49h3.97v-.72h-4.82V69h4.83zm3.376-4.82c0-.253.06-.43.18-.53a.65.65 0 01.43-.15c.173 0 .32.05.44.15.127.1.19.277.19.53 0 .24-.063.413-.19.52a.64.64 0 01-.44.16.625.625 0 01-.43-.16c-.12-.107-.18-.28-.18-.52zm0 4.28c0-.247.06-.42.18-.52a.65.65 0 01.43-.15c.173 0 .32.05.44.15.127.1.19.273.19.52 0 .24-.063.413-.19.52a.64.64 0 01-.44.16.625.625 0 01-.43-.16c-.12-.107-.18-.28-.18-.52zm8.624-3.04c0 2.25 1.37 3.7 3.26 3.7.95 0 1.91-.54 2.18-1.31l.08 1.19h.68v-3.56h-2.53v.68h1.69v.37c0 1.16-.89 1.9-2.09 1.9-1.51 0-2.39-1.19-2.39-2.97 0-1.78.9-2.95 2.42-2.95 1.09 0 1.74.58 1.93 1.47h.86c-.25-1.32-1.2-2.2-2.79-2.2-1.89 0-3.3 1.44-3.3 3.68zM501.396 69h.86v-6.42h2.67v-.72h-6.19v.72h2.66V69zm16.58 0h.98l2.01-7.14h-.86l-1.63 6.07h-.02l-1.62-6.07h-.91l-1.61 6.07h-.02l-1.64-6.07h-.91l2.01 7.14h.97l1.62-6h.02l1.61 6zm11.072 0h.9l-2.9-7.14h-.97l-2.89 7.14h.86l.79-1.99h3.42l.79 1.99zm-2.51-6.28h.03l1.41 3.58h-2.86l1.42-3.58zm6.509 6.28h4.7v-.72h-3.84v-6.42h-.86V69zm7.644-2.11c.1 1.56 1.4 2.23 2.95 2.23 1.51 0 2.59-.86 2.59-2.08 0-1.13-.7-1.64-1.8-1.86l-1.4-.29c-.87-.17-1.27-.42-1.27-1.13 0-.75.62-1.33 1.66-1.33 1.02 0 1.72.46 1.84 1.26h.83c-.14-1.29-1.15-1.95-2.68-1.95-1.48 0-2.49.88-2.49 2.05 0 1.23.86 1.67 1.82 1.85l1.36.27c.97.18 1.3.57 1.3 1.17 0 .86-.75 1.35-1.77 1.35-1.06 0-2-.39-2.11-1.54h-.83zm9.022 2.11h.86v-3.27h4.18V69h.86v-7.14h-.86v3.15h-4.18v-3.15h-.86V69zm14.594 0v-.72h-3.98V65.8h3.53v-.73h-3.53v-2.49h3.97v-.72h-4.82V69h4.83zm3.586 0h.86v-7.14h-.86V69zm8.594 0l2.32-6.26h.02V69h.83v-7.14h-1.28l-2.2 6.02h-.02l-2.2-6.02h-1.33V69h.82v-6.26h.02l2.32 6.26h.7zM4.79 69l2.32-6.26h.02V69h.83v-7.14H6.68l-2.2 6.02h-.02l-2.2-6.02H.93V69h.82v-6.26h.02L4.09 69h.7zm12.127 0h.9l-2.9-7.14h-.97L11.057 69h.86l.79-1.99h3.42l.79 1.99zm-2.51-6.28h.03l1.41 3.58h-2.86l1.42-3.58zm7.36 6.28v-2.89h1.9l1.85 2.89h.97l-1.96-3.02c.84-.19 1.65-.84 1.65-2 0-1.37-.91-2.12-2.51-2.12h-2.75V69h.85zm0-3.61v-2.81h1.85c1.08 0 1.69.5 1.69 1.4 0 .93-.61 1.41-1.69 1.41h-1.85zM34.62 69h1.04l-3.3-4 3.11-3.14h-1.04l-3.76 3.88v-3.88h-.86V69h.86v-2.29l1.09-1.11 2.86 3.4zm10.548-7.25c.533 0 .953.137 1.26.41.313.267.47.643.47 1.13 0 .42-.137.777-.41 1.07-.267.293-.607.56-1.02.8l1.93 1.86c.173-.207.313-.443.42-.71.113-.273.207-.567.28-.88h.89c-.107.427-.24.823-.4 1.19-.16.367-.367.687-.62.96l1.46 1.42h-1.19l-.87-.84c-.313.28-.663.507-1.05.68-.387.173-.857.26-1.41.26-.687 0-1.233-.17-1.64-.51-.407-.34-.61-.823-.61-1.45 0-.513.137-.923.41-1.23.28-.313.657-.603 1.13-.87a7.67 7.67 0 01-.6-.77 1.705 1.705 0 01-.27-.96c0-.493.163-.877.49-1.15.333-.273.783-.41 1.35-.41zm-.03.72c-.28 0-.51.073-.69.22-.173.147-.26.35-.26.61 0 .24.063.463.19.67.127.2.31.423.55.67.393-.227.673-.44.84-.64.173-.207.26-.443.26-.71a.78.78 0 00-.24-.59c-.16-.153-.377-.23-.65-.23zm-.41 3.12a3.87 3.87 0 00-.85.65c-.2.22-.3.51-.3.87 0 .367.123.66.37.88.247.22.577.33.99.33.427 0 .793-.07 1.1-.21.307-.14.563-.307.77-.5l-2.08-2.02zM57 65.42c0-1.78.85-2.95 2.32-2.95 1.2 0 1.72.67 1.88 1.47h.84c-.23-1.3-1.16-2.2-2.72-2.2-1.84 0-3.2 1.44-3.2 3.68 0 2.25 1.36 3.7 3.2 3.7 1.56 0 2.49-.9 2.72-2.2h-.84c-.16.8-.68 1.47-1.88 1.47-1.47 0-2.32-1.19-2.32-2.97zm14.476.01c0-2.14-1.27-3.69-3.25-3.69s-3.25 1.55-3.25 3.69c0 2.15 1.27 3.69 3.25 3.69s3.25-1.54 3.25-3.69zm-.89 0c0 1.73-.8 2.96-2.36 2.96-1.57 0-2.37-1.23-2.37-2.96 0-1.72.8-2.96 2.37-2.96 1.56 0 2.36 1.24 2.36 2.96zm4.32 3.57h4.7v-.72h-3.84v-6.42h-.86V69zm13.949-3.57c0-2.14-1.27-3.69-3.25-3.69s-3.25 1.55-3.25 3.69c0 2.15 1.27 3.69 3.25 3.69s3.25-1.54 3.25-3.69zm-.89 0c0 1.73-.8 2.96-2.36 2.96-1.57 0-2.37-1.23-2.37-2.96 0-1.72.8-2.96 2.37-2.96 1.56 0 2.36 1.24 2.36 2.96zm9.99.66v-4.23h-.86v4.28c0 1.52-.77 2.25-2.03 2.25-1.25 0-2.03-.73-2.03-2.25v-4.28h-.86v4.21c0 1.97 1.07 3.05 2.89 3.05 1.84 0 2.89-1.08 2.89-3.03zm4.611 2.91v-2.89h1.9l1.85 2.89h.97l-1.96-3.02c.84-.19 1.65-.84 1.65-2 0-1.37-.91-2.12-2.51-2.12h-2.75V69h.85zm0-3.61v-2.81h1.85c1.08 0 1.69.5 1.69 1.4 0 .93-.61 1.41-1.69 1.41h-1.85zm7.585 1.5c.1 1.56 1.4 2.23 2.95 2.23 1.51 0 2.59-.86 2.59-2.08 0-1.13-.7-1.64-1.8-1.86l-1.4-.29c-.87-.17-1.27-.42-1.27-1.13 0-.75.62-1.33 1.66-1.33 1.02 0 1.72.46 1.84 1.26h.83c-.14-1.29-1.15-1.95-2.68-1.95-1.48 0-2.49.88-2.49 2.05 0 1.23.86 1.67 1.82 1.85l1.36.27c.97.18 1.3.57 1.3 1.17 0 .86-.75 1.35-1.77 1.35-1.06 0-2-.39-2.11-1.54h-.83zM.93 335.501h.86v-7.14H.93v7.14zm4.734 0h4.7v-.72h-3.84v-6.42h-.86v7.14zm8.211 0h4.7v-.72h-3.84v-6.42h-.86v7.14zm13.55-2.91v-4.23h-.86v4.28c0 1.52-.77 2.25-2.03 2.25-1.25 0-2.03-.73-2.03-2.25v-4.28h-.86v4.21c0 1.97 1.07 3.05 2.89 3.05 1.84 0 2.89-1.08 2.89-3.03zm3.3.8c.1 1.56 1.4 2.23 2.95 2.23 1.51 0 2.59-.86 2.59-2.08 0-1.13-.7-1.64-1.8-1.86l-1.4-.29c-.87-.17-1.27-.42-1.27-1.13 0-.75.62-1.33 1.66-1.33 1.02 0 1.72.46 1.84 1.26h.83c-.14-1.29-1.15-1.95-2.68-1.95-1.48 0-2.49.88-2.49 2.05 0 1.23.86 1.67 1.82 1.85l1.36.27c.97.18 1.3.57 1.3 1.17 0 .86-.75 1.35-1.77 1.35-1.06 0-2-.39-2.11-1.54h-.83zm10.87 2.11h.86v-6.42h2.67v-.72h-6.19v.72h2.66v6.42zm7.712 0v-2.89h1.9l1.85 2.89h.97l-1.96-3.02c.84-.19 1.65-.84 1.65-2 0-1.37-.91-2.12-2.51-2.12h-2.75v7.14h.85zm0-3.61v-2.81h1.85c1.08 0 1.69.5 1.69 1.4 0 .93-.61 1.41-1.69 1.41h-1.85zm13.145 3.61h.9l-2.9-7.14h-.97l-2.89 7.14h.86l.79-1.99h3.42l.79 1.99zm-2.51-6.28h.03l1.41 3.58h-2.86l1.42-3.58zm8.054 6.28h.86v-6.42h2.67v-.72h-6.19v.72h2.66v6.42zm6.862 0h.86v-7.14h-.86v7.14zm10.804-3.57c0-2.14-1.27-3.69-3.25-3.69s-3.25 1.55-3.25 3.69c0 2.15 1.27 3.69 3.25 3.69s3.25-1.54 3.25-3.69zm-.89 0c0 1.73-.8 2.96-2.36 2.96-1.57 0-2.37-1.23-2.37-2.96 0-1.72.8-2.96 2.37-2.96 1.56 0 2.36 1.24 2.36 2.96zm5.38-3.57h-1.06v7.14h.84v-6.09h.02l4.06 6.09h.8v-7.14h-.83v5.7h-.02l-3.81-5.7zm12.236 5.03c.1 1.56 1.4 2.23 2.95 2.23 1.51 0 2.59-.86 2.59-2.08 0-1.13-.7-1.64-1.8-1.86l-1.4-.29c-.87-.17-1.27-.42-1.27-1.13 0-.75.62-1.33 1.66-1.33 1.02 0 1.72.46 1.84 1.26h.83c-.14-1.29-1.15-1.95-2.68-1.95-1.48 0-2.49.88-2.49 2.05 0 1.23.86 1.67 1.82 1.85l1.36.27c.97.18 1.3.57 1.3 1.17 0 .86-.75 1.35-1.77 1.35-1.06 0-2-.39-2.11-1.54h-.83zm10.869 2.11h.86v-6.42h2.67v-.72h-6.19v.72h2.66v6.42zm9.682 0v-2.96l2.73-4.18h-.95l-2.16 3.41h-.02l-2.23-3.41h-.95l2.72 4.18v2.96h.86zm5.821 0h4.7v-.72h-3.84v-6.42h-.86v7.14zm13.041 0v-.72h-3.98v-2.48h3.53v-.73h-3.53v-2.49h3.97v-.72h-4.82v7.14h4.83zM872.489 69l2.32-6.26h.02V69h.83v-7.14h-1.28l-2.2 6.02h-.02l-2.2-6.02h-1.33V69h.82v-6.26h.02l2.32 6.26h.7zm11.857 0v-.72h-3.98V65.8h3.53v-.73h-3.53v-2.49h3.97v-.72h-4.82V69h4.83zm3.116-2.11c.1 1.56 1.4 2.23 2.95 2.23 1.51 0 2.59-.86 2.59-2.08 0-1.13-.7-1.64-1.8-1.86l-1.4-.29c-.87-.17-1.27-.42-1.27-1.13 0-.75.62-1.33 1.66-1.33 1.02 0 1.72.46 1.84 1.26h.83c-.14-1.29-1.15-1.95-2.68-1.95-1.48 0-2.49.88-2.49 2.05 0 1.23.86 1.67 1.82 1.85l1.36.27c.97.18 1.3.57 1.3 1.17 0 .86-.75 1.35-1.77 1.35-1.06 0-2-.39-2.11-1.54h-.83zm8.563 0c.1 1.56 1.4 2.23 2.95 2.23 1.51 0 2.59-.86 2.59-2.08 0-1.13-.7-1.64-1.8-1.86l-1.4-.29c-.87-.17-1.27-.42-1.27-1.13 0-.75.62-1.33 1.66-1.33 1.02 0 1.72.46 1.84 1.26h.83c-.14-1.29-1.15-1.95-2.68-1.95-1.48 0-2.49.88-2.49 2.05 0 1.23.86 1.67 1.82 1.85l1.36.27c.97.18 1.3.57 1.3 1.17 0 .86-.75 1.35-1.77 1.35-1.06 0-2-.39-2.11-1.54h-.83zM910.137 69h.9l-2.9-7.14h-.97l-2.89 7.14h.86l.79-1.99h3.42l.79 1.99zm-2.51-6.28h.03l1.41 3.58h-2.86l1.42-3.58zm5.836 2.7c0 2.25 1.37 3.7 3.26 3.7.95 0 1.91-.54 2.18-1.31l.08 1.19h.68v-3.56h-2.53v.68h1.69v.37c0 1.16-.89 1.9-2.09 1.9-1.51 0-2.39-1.19-2.39-2.97 0-1.78.9-2.95 2.42-2.95 1.09 0 1.74.58 1.93 1.47h.86c-.25-1.32-1.2-2.2-2.79-2.2-1.89 0-3.3 1.44-3.3 3.68zm9.891 3.58h.86v-7.14h-.86V69zm5.794-7.14h-1.06V69h.84v-6.09h.02l4.06 6.09h.8v-7.14h-.83v5.7h-.02l-3.81-5.7zm8.098 3.56c0 2.25 1.37 3.7 3.26 3.7.95 0 1.91-.54 2.18-1.31l.08 1.19h.68v-3.56h-2.53v.68h1.69v.37c0 1.16-.89 1.9-2.09 1.9-1.51 0-2.39-1.19-2.39-2.97 0-1.78.9-2.95 2.42-2.95 1.09 0 1.74.58 1.93 1.47h.86c-.25-1.32-1.2-2.2-2.79-2.2-1.89 0-3.3 1.44-3.3 3.68zm16.589-3.56h-2.53V69h2.53c2.07 0 3.48-1.42 3.48-3.57 0-2.14-1.41-3.57-3.48-3.57zm0 .72c1.66 0 2.59 1.13 2.59 2.85 0 1.73-.93 2.85-2.59 2.85h-1.68v-5.7h1.68zM965.576 69v-.72h-3.98V65.8h3.53v-.73h-3.53v-2.49h3.97v-.72h-4.82V69h4.83zm5.706 0h.98l2.9-7.14h-.88l-2.48 6.26h-.02l-2.48-6.26h-.9l2.88 7.14zm6.98 0h.86v-7.14h-.86V69zm5.184-3.58c0-1.78.85-2.95 2.32-2.95 1.2 0 1.72.67 1.88 1.47h.84c-.23-1.3-1.16-2.2-2.72-2.2-1.84 0-3.2 1.44-3.2 3.68 0 2.25 1.36 3.7 3.2 3.7 1.56 0 2.49-.9 2.72-2.2h-.84c-.16.8-.68 1.47-1.88 1.47-1.47 0-2.32-1.19-2.32-2.97zM996.682 69v-.72h-3.98V65.8h3.53v-.73h-3.53v-2.49h3.97v-.72h-4.82V69h4.83zm-970.75 37.25a24.77 24.77 0 00-9.48 47.657 24.774 24.774 0 0034.131-25.314 24.769 24.769 0 00-24.651-22.343zm11.08 38.58a17.713 17.713 0 01-28.22-9.356 17.712 17.712 0 01.893-11.512 1.179 1.179 0 012.159.942 15.357 15.357 0 0014.268 21.468 15.358 15.358 0 009.424-3.375 1.185 1.185 0 01.88-.291 1.167 1.167 0 01.817.435 1.175 1.175 0 01-.223 1.689h.002z" fill="#fff"/><g clip-path="url(#clip1)"><path d="M875.485 129.962h208.955c1.77 0 3.47.704 4.72 1.957a6.66 6.66 0 011.96 4.726c0 1.772-.7 3.472-1.96 4.725a6.67 6.67 0 01-4.72 1.957H875.485a6.683 6.683 0 01-6.68-6.677 6.68 6.68 0 016.68-6.688z" fill="#614601"/><path d="M886.994 138.837c-3.452 0-6.175-.922-8.169-2.767a9.82 9.82 0 01-2.991-7.589h2.991a7.317 7.317 0 002.21 5.6 8.348 8.348 0 005.959 2.076 7.907 7.907 0 005.245-1.563 5.412 5.412 0 001.853-4.374 5.397 5.397 0 00-1.317-3.77 8.38 8.38 0 00-4.085-2.21l-5.267-1.607c-4.434-1.22-6.652-3.928-6.652-8.125a7.647 7.647 0 011.228-4.285 8.193 8.193 0 013.437-2.924 11.676 11.676 0 015.068-1.049 10.125 10.125 0 017.232 2.522 8.96 8.96 0 012.678 6.852h-2.992a6.542 6.542 0 00-1.852-4.974 7.181 7.181 0 00-5.156-1.766 7.268 7.268 0 00-4.821 1.495 4.905 4.905 0 00-1.789 3.951 5.192 5.192 0 001.406 3.772 9.748 9.748 0 004.4 2.3l5.094 1.517a8.941 8.941 0 014.754 2.968 8.304 8.304 0 011.63 5.29 7.918 7.918 0 01-2.723 6.317 10.914 10.914 0 01-7.371 2.343zm15.31-20.981h2.857v20.312h-2.857v-20.312zm1.427-4.106a2.52 2.52 0 01-1.9-.759 2.593 2.593 0 01-.737-1.875 2.632 2.632 0 01.737-1.92 2.52 2.52 0 011.9-.759 2.595 2.595 0 011.918.76 2.606 2.606 0 01.761 1.919 2.541 2.541 0 01-.759 1.875 2.594 2.594 0 01-1.92.759zm8.211 4.106h2.862v4.554a7.3 7.3 0 012.232-3.616 6.2 6.2 0 014.285-1.473 7.135 7.135 0 014.375 1.294 6.117 6.117 0 012.277 3.8 7.03 7.03 0 012.573-3.711 7.031 7.031 0 014.301-1.378 6.938 6.938 0 015.424 2.053 8.58 8.58 0 011.853 5.937v12.852h-2.82v-12.276a6.61 6.61 0 00-1.361-4.6 4.835 4.835 0 00-3.728-1.473 4.936 4.936 0 00-4.24 2.1 9.818 9.818 0 00-1.518 5.847v10.4h-2.853v-11.7c0-4.434-1.697-6.651-5.089-6.651a4.807 4.807 0 00-2.407.522 4.806 4.806 0 00-1.834 1.643 10.107 10.107 0 00-1.473 5.78v10.4h-2.859v-20.304zm47.762-.535a9.785 9.785 0 015.156 1.361 9.442 9.442 0 013.526 3.8 11.802 11.802 0 011.273 5.557 11.551 11.551 0 01-1.3 5.513 9.455 9.455 0 01-3.616 3.795 10.128 10.128 0 01-5.223 1.361 8.903 8.903 0 01-4.816-1.344 8.16 8.16 0 01-3.169-3.571v13.972h-2.857v-29.909h2.857v4.42a7.579 7.579 0 013.192-3.638 9.531 9.531 0 014.977-1.317zm-.491 18.793a7.297 7.297 0 006.607-3.928 8.654 8.654 0 00.982-4.152 8.792 8.792 0 00-.982-4.174 7.263 7.263 0 00-6.607-3.95 7.749 7.749 0 00-4.04 1.049 7.414 7.414 0 00-2.768 2.9 8.62 8.62 0 00-1 4.174 8.484 8.484 0 001 4.152 7.409 7.409 0 002.79 2.879 7.79 7.79 0 004.018 1.05zm15.442-29.194h2.857v31.248h-2.857V106.92zm9.64 10.936h2.857v20.312h-2.857v-20.312zm1.428-4.106a2.52 2.52 0 01-1.9-.759 2.574 2.574 0 01-.736-1.875 2.642 2.642 0 01.736-1.92 2.52 2.52 0 011.9-.759 2.594 2.594 0 011.92.76 2.601 2.601 0 01.761 1.919 2.541 2.541 0 01-.759 1.875 2.614 2.614 0 01-1.922.759zm16.867-4.509c-1-.041-1.98.266-2.786.87-.73.581-1.094 1.747-1.093 3.5v4.24h6.209v2.456h-6.209v17.861h-2.857v-17.856h-4.464v-2.456h4.464v-4.106c0-2.738.61-4.605 1.83-5.6a6.509 6.509 0 014.236-1.5 7.207 7.207 0 013 .535v2.5a8.218 8.218 0 00-2.33-.444zm6.57 8.615h2.85v20.312h-2.85v-20.312zm1.42-4.106a2.535 2.535 0 01-1.9-.759 2.494 2.494 0 01-.55-.863 2.506 2.506 0 01-.18-1.012c-.01-.353.05-.705.17-1.035.13-.329.32-.63.56-.885a2.535 2.535 0 011.9-.759 2.589 2.589 0 011.92.761c.25.251.45.55.58.88.13.33.19.683.18 1.038.01.348-.05.694-.18 1.016a2.52 2.52 0 01-.58.859 2.588 2.588 0 01-1.92.759zm25.85 12.99c0 .327-.03.967-.09 1.919h-16.43a7.67 7.67 0 001.92 5.469 6.847 6.847 0 002.39 1.575c.91.35 1.87.505 2.83.456a7.448 7.448 0 003.91-.982 5.314 5.314 0 002.3-2.723h2.9a7.33 7.33 0 01-3.13 4.508 10.178 10.178 0 01-5.98 1.741 10.42 10.42 0 01-5.31-1.317 8.827 8.827 0 01-3.5-3.749 12.394 12.394 0 01-1.23-5.647 12.3 12.3 0 011.23-5.625 8.938 8.938 0 013.46-3.727 10.851 10.851 0 015.06-1.316c1.77-.02 3.52.394 5.1 1.204a8.649 8.649 0 013.37 3.348 9.832 9.832 0 011.2 4.866zm-2.81-.357a6.944 6.944 0 00-1.83-4.888 6.603 6.603 0 00-2.26-1.444 6.524 6.524 0 00-2.65-.409 6.634 6.634 0 00-4.87 1.853 7.404 7.404 0 00-2.1 4.888h13.71zm26.78-19.463v31.248h-2.82v-4.375a7.982 7.982 0 01-3.14 3.549 8.916 8.916 0 01-4.85 1.361c-1.9.048-3.77-.431-5.42-1.384a9.222 9.222 0 01-3.53-3.816c-.83-1.7-1.25-3.575-1.22-5.469-.03-1.897.4-3.772 1.25-5.468a9.407 9.407 0 013.57-3.839c1.63-.961 3.5-1.448 5.4-1.406 1.72-.036 3.41.43 4.86 1.339a7.862 7.862 0 013.08 3.616V106.92h2.82zm-10.5 29.194a7.766 7.766 0 004.18-1.094 7.269 7.269 0 002.7-2.946c.63-1.253.95-2.638.93-4.04a8.897 8.897 0 00-.93-4.084 7.269 7.269 0 00-2.7-2.946 7.766 7.766 0 00-4.18-1.094 7.157 7.157 0 00-3.02.54c-.95.398-1.81.998-2.51 1.76a8.267 8.267 0 00-2.1 5.825c-.03 1.439.3 2.863.94 4.152a7.071 7.071 0 002.67 2.879 7.645 7.645 0 004.02 1.048zm38.02 3.836l-.02.012c-.02.027-.04.052-.06.076-.02.017-.04.032-.06.047a4.839 4.839 0 01-3.1 1.425 4.88 4.88 0 01-3.28-.966 4.895 4.895 0 01-1.83-2.882 4.898 4.898 0 01.51-3.377c.03-.066.06-.128.1-.183l.01-.012a.676.676 0 01.43-.234.68.68 0 01.48.13c.14.103.23.254.25.423.03.168-.01.34-.1.481a3.524 3.524 0 00-.39 2.462c.17.841.64 1.59 1.33 2.109a3.539 3.539 0 004.65-.323c.02-.017.03-.035.04-.05a.684.684 0 01.45-.193.664.664 0 01.68.578.603.603 0 01-.11.468l.02.009zm-3.58-9.986c-1.32 0-2.61.392-3.71 1.126a6.723 6.723 0 00-2.47 3 6.797 6.797 0 00-.38 3.861c.26 1.296.9 2.487 1.83 3.422a6.72 6.72 0 003.43 1.829 6.689 6.689 0 006.86-2.842 6.711 6.711 0 001.12-3.713 6.61 6.61 0 00-.51-2.558 6.582 6.582 0 00-1.44-2.169 6.681 6.681 0 00-4.73-1.958v.002z" fill="#fff"/></g><g clip-path="url(#clip2)"><path d="M422.304 130.221h-1.654l-.988-2.872h-6.985l-.987 2.872h-1.651l5.533-16.083h1.195l5.537 16.083zm-3.124-4.3l-3.01-9.279-3.01 9.282 6.02-.003zm6.362 2.16v2.137h-1.493v-16.08h1.49v8.062a4.263 4.263 0 013.952-2.389 5.17 5.17 0 014.905 3.282c.256.651.377 1.348.356 2.048a5.188 5.188 0 01-5.261 5.33 4.298 4.298 0 01-3.952-2.387l.003-.003zm3.883 1.019a3.787 3.787 0 002.766-1.153 3.791 3.791 0 001.071-2.799 3.868 3.868 0 00-1.086-2.811 3.862 3.862 0 00-6.634 2.811 3.808 3.808 0 003.883 3.952zm16.931-5.33h-1.493c-.161-1.425-1.057-2.62-3.24-2.62-2.366-.005-3.584 1.902-3.584 3.97 0 2.114 1.172 3.975 3.653 3.975a2.919 2.919 0 003.217-2.367h1.493c-.321 2.091-1.838 3.745-4.8 3.745-3.308 0-5.077-2.573-5.077-5.353 0-2.757 1.769-5.33 5.077-5.33 3.261 0 4.594 1.999 4.754 3.975v.005zm11.05 6.456v-2.142a4.296 4.296 0 01-3.952 2.389 5.174 5.174 0 01-2.041-.387 5.173 5.173 0 01-2.86-2.897 5.188 5.188 0 01-.36-2.046 5.173 5.173 0 015.261-5.33 4.264 4.264 0 013.952 2.387v-8.062h1.493v16.083l-1.493.005zm-3.883-1.126a3.8 3.8 0 002.794-1.138 3.799 3.799 0 001.089-2.814 3.868 3.868 0 00-1.086-2.811 3.862 3.862 0 00-6.634 2.811 3.798 3.798 0 003.837 3.952zm13-8.11a3.228 3.228 0 00-3.205 1.996 3.242 3.242 0 00-.242 1.312h6.732a3.17 3.17 0 00-.918-2.373 3.181 3.181 0 00-2.364-.94l-.003.005zm4.687 4.48h-8.154c.069 1.976 1.08 3.7 3.584 3.7a2.897 2.897 0 002.987-1.87h1.517a4.322 4.322 0 01-4.5 3.17c-3.423 0-5.077-2.458-5.077-5.353 0-3.033 1.815-5.307 5.009-5.307a4.565 4.565 0 014.709 4.549c.004.37-.02.74-.072 1.106l-.003.005zm8.41-11.194v1.286a3.168 3.168 0 00-1.241-.206c-.9 0-1.93.183-1.93 2.274v2.413h3.171v1.286h-3.171v8.892h-1.493v-8.892h-2.317v-1.286h2.321v-2.275c0-3.492 2-3.768 3.239-3.768.489-.021.976.073 1.421.276zm5.88 6.892a3.797 3.797 0 00-3.589 2.442 3.798 3.798 0 00-.248 1.51 3.868 3.868 0 001.086 2.811 3.862 3.862 0 006.634-2.811 3.808 3.808 0 00-3.883-3.952zm5.376-1.125V131c0 3.883-2.044 5.353-5.445 5.353-3.538 0-5.009-2.228-5.146-4.687h1.516a3.319 3.319 0 001.069 2.479 3.31 3.31 0 002.561.855c2.459 0 3.952-1.08 3.952-4v-2.939a4.29 4.29 0 01-3.952 2.412 5.201 5.201 0 01-3.774-1.553 5.193 5.193 0 01-1.487-3.8 5.166 5.166 0 015.261-5.307 4.264 4.264 0 013.952 2.387v-2.157h1.493zm3.468 10.178v-16.083h1.495v8.11a4.011 4.011 0 013.86-2.435 3.727 3.727 0 013.056 1.263 4.75 4.75 0 01.9 3.171v5.974h-1.499v-5.537c0-2-.85-3.539-2.964-3.539-2.252 0-3.355 1.976-3.355 3.86v5.216h-1.493zm12.612 0v-10.178h1.493v10.178h-1.493zm-.617-14.153a1.373 1.373 0 01.828-1.289c.167-.071.346-.109.527-.111a1.393 1.393 0 011.4 1.4c-.002.181-.04.36-.111.527a1.385 1.385 0 01-.759.734 1.373 1.373 0 01-.53.094 1.349 1.349 0 01-1.255-.835 1.326 1.326 0 01-.1-.52zm7.4 3.975v13.279c0 2.091-1.011 2.987-2.252 2.987a4.234 4.234 0 01-1.7-.275v-1.31c.359.169.752.255 1.149.253.827 0 1.309-.6 1.309-1.746v-13.188h1.494zm-2.114-3.975a1.37 1.37 0 012.348-.992 1.395 1.395 0 01.408.992 1.368 1.368 0 01-1.4 1.355 1.352 1.352 0 01-.966-.391 1.354 1.354 0 01-.395-.964h.005zm13.853 3.975l-5.032 5.1 5.032 5.078h-1.953l-4.786-4.756v4.756h-1.494v-16.083h1.494v10.683l4.779-4.778h1.96zm1.928 10.178v-16.083h1.493v16.083h-1.493zm20.033 0h-1.516v-6c0-2.137-.988-3.079-2.413-3.079-1.792 0-2.826 1.586-2.826 3.906v5.17h-1.516V124.5c0-2.527-1.011-3.355-2.413-3.355-1.769 0-2.849 1.586-2.849 3.906v5.17h-1.493v-10.178h1.493v2.228a3.293 3.293 0 013.194-2.458 3.005 3.005 0 013.308 2.527 3.56 3.56 0 013.424-2.527c2.366 0 3.607 1.424 3.607 4v6.408zm3.33 0v-10.178h1.493v2.2a4.011 4.011 0 013.86-2.435 3.727 3.727 0 013.056 1.263 4.75 4.75 0 01.9 3.171v5.974h-1.494v-5.532c0-2-.85-3.539-2.963-3.539-2.252 0-3.355 1.976-3.355 3.86v5.216h-1.497zm17.023.252a5.209 5.209 0 01-3.809-1.521 5.209 5.209 0 01-1.521-3.809 5.352 5.352 0 1110.706 0 5.218 5.218 0 01-3.307 4.971c-.66.26-1.366.382-2.074.359h.005zm0-1.378a3.81 3.81 0 003.883-3.952 3.868 3.868 0 00-1.086-2.811 3.862 3.862 0 00-6.634 2.811 3.794 3.794 0 001.067 2.801 3.794 3.794 0 002.765 1.156l.005-.005zm9.464-9.052v2.157a4.263 4.263 0 013.952-2.389 5.16 5.16 0 013.765 1.529 5.166 5.166 0 011.496 3.778 5.177 5.177 0 01-.355 2.052 5.178 5.178 0 01-1.132 1.748 5.201 5.201 0 01-3.774 1.553 4.29 4.29 0 01-3.952-2.412v8.064h-1.493v-16.08h1.493zm3.883 1.125a3.81 3.81 0 00-3.883 3.952 3.868 3.868 0 001.086 2.811 3.862 3.862 0 006.634-2.811 3.798 3.798 0 00-3.837-3.952zm16.26 1.032v-2.157h1.494v16.082h-1.494v-8.064a4.29 4.29 0 01-3.952 2.412 5.201 5.201 0 01-3.774-1.553 5.193 5.193 0 01-1.487-3.8 5.166 5.166 0 015.261-5.307 4.264 4.264 0 013.952 2.387zm-3.883-1.034a3.797 3.797 0 00-3.589 2.442 3.798 3.798 0 00-.248 1.51 3.868 3.868 0 001.086 2.811 3.862 3.862 0 006.634-2.811 3.808 3.808 0 00-3.883-3.95v-.002zm14.979-1.1v1.378a2.896 2.896 0 00-.965-.138c-2.482 0-3.63 2.022-3.63 4.389v4.526h-1.494v-10.178h1.494v2.389a3.827 3.827 0 013.63-2.527c.329-.012.658.042.965.161zm5.466 4.6c1.677.413 3.309.827 3.309 2.826 0 1.953-1.563 2.986-3.929 2.986-2.3 0-4.251-1.148-4.251-3.7h1.471c0 1.815 1.24 2.459 2.849 2.459 1.516 0 2.435-.6 2.435-1.723 0-1.333-1.4-1.494-3.354-2.045-1.677-.414-3.079-.85-3.079-2.757 0-1.884 1.608-2.9 3.768-2.9 2.229 0 3.929 1.286 3.929 3.377h-1.47c0-1.4-.942-2.159-2.481-2.159-1.333 0-2.275.62-2.275 1.7-.001 1.218 1.125 1.402 3.078 1.931v.005zm11.027 4.2v1.356c-.57.09-1.146.136-1.723.138-1.333 0-3.1-.276-3.1-3.539v-5.492h-2.045v-1.286h2.045v-3.768h1.516v3.768h2.941v1.286h-2.943v5.193c0 2.182.8 2.458 1.884 2.458a9.443 9.443 0 001.425-.115v.001zm9.395-8.822h1.494v10.177h-1.494v-2.206a4.03 4.03 0 01-3.86 2.458 3.78 3.78 0 01-3.056-1.286 4.75 4.75 0 01-.9-3.171v-5.973h1.517v5.537c0 2 .827 3.538 2.941 3.538 2.251 0 3.354-1.976 3.354-3.86l.004-5.214zm3.261 0h1.631l3.584 8.064 3.631-8.064h1.631l-4.733 10.178h-1.08l-4.664-10.178zm21.572 10.178l-3.032-8.5-3.01 8.5h-1.08l-3.929-10.179h1.608l2.849 7.9 2.826-7.9h1.491l2.8 7.9 2.872-7.9h1.608l-3.929 10.178-1.074.001zm10.751-5.1l3.584 5.1h-1.746l-2.711-3.952-2.711 3.952h-1.744l3.584-5.1-3.561-5.077h1.746l2.688 3.905 2.688-3.9h1.724l-3.541 5.072zm10.272 11.233c-3.079 0-4.664-1.562-4.733-4.641h1.516c.115 2.206 1.126 3.355 3.24 3.355 2.068 0 3.239-.919 3.239-3.654v-3.4a3.962 3.962 0 01-3.814 2.458 3.749 3.749 0 01-3.124-1.24 4.78 4.78 0 01-.873-3.332v-5.858h1.516v5.422c0 2.205.666 3.653 2.964 3.653 2.251 0 3.331-1.976 3.331-3.86v-5.215h1.494v11.372c-.003 3.493-1.635 4.94-4.756 4.94zm7.121-16.312h8.454l-6.088 8.822h6.113v1.356h-8.707l6.083-8.821h-5.858l.003-1.357zm-276.176 39.346v-6a5.183 5.183 0 013.266-4.967 5.183 5.183 0 012.064-.363 5.197 5.197 0 015.377 5.33v6a5.186 5.186 0 01-1.545 3.814 5.204 5.204 0 01-3.832 1.497 5.172 5.172 0 01-5.33-5.311zm9.121 0v-6a3.728 3.728 0 00-1.047-2.776 3.725 3.725 0 00-2.744-1.129 3.716 3.716 0 00-3.768 3.905v6a3.711 3.711 0 003.768 3.883 3.704 3.704 0 002.737-1.12 3.707 3.707 0 001.054-2.763zm3.307-7.1V151c2.826 0 3.332-.735 3.332-2.665h1.495v16.086h-1.61V152.29l-3.217-.001zm7.512 12.131c0-5.055 1.608-6.548 4.755-7.927 1.907-.8 3.654-1.631 3.654-3.975 0-1.815-1.241-2.986-3.309-2.986a3.344 3.344 0 00-2.58.992 3.357 3.357 0 00-.958 2.592h-1.562a4.864 4.864 0 011.442-3.639 4.84 4.84 0 013.658-1.393c2.964 0 4.871 1.723 4.871 4.549 0 3.01-2.619 4.32-4.388 5.055-2.987 1.4-3.814 2.527-3.814 5.307h8.271v1.425h-10.04zm11.348-4.779h1.562a3.52 3.52 0 001.106 2.644 3.516 3.516 0 002.708.94c2.229 0 3.63-1.4 3.63-3.194 0-1.884-1.217-3.262-3.63-3.262h-1.218v-1.4h1.218c2.229 0 3.332-1.217 3.332-2.963 0-1.793-1.333-2.872-3.332-2.872-2.252 0-3.423 1.286-3.423 3.17h-1.563c0-2.734 1.976-4.618 4.894-4.618 2.872 0 4.986 1.723 4.986 4.32a3.57 3.57 0 01-2.8 3.676 3.852 3.852 0 013.097 3.927c0 2.757-2.229 4.664-5.262 4.664-2.962 0-5.305-1.929-5.305-5.031v-.001zm19.275 4.779v-5.513h-6.108v-10.569h1.562v9.144h4.55v-5.077h1.558v5.077h2.619v1.425h-2.619v5.514l-1.562-.001zm6.477-6.847v-9.235h9.19v1.424h-7.742v6.273a4.266 4.266 0 013.745-1.953 4.964 4.964 0 012.031.343 4.955 4.955 0 013.115 4.918 5.352 5.352 0 01-5.353 5.281 5.352 5.352 0 01-5.354-5.281h1.583a3.78 3.78 0 103.745-3.86 3.43 3.43 0 00-3.309 2.091l-1.651-.001zm17.483 7.1a5.209 5.209 0 01-3.809-1.521 5.209 5.209 0 01-1.521-3.809 5.804 5.804 0 01.9-3.056l4.939-7.949h1.815l-3.951 6.18a2.47 2.47 0 011.631-.505 5.33 5.33 0 010 10.66h-.004zm0-1.447a3.902 3.902 0 003.971-4.583 3.901 3.901 0 00-7.08-1.484 3.901 3.901 0 00-.659 2.184 3.727 3.727 0 001.052 2.749 3.736 3.736 0 002.716 1.134zm6.2-14.888h9.672l-7.419 16.083h-1.677l6.847-14.659h-7.421l-.002-1.424zm15.279 16.335c-3.286 0-5.308-2.044-5.308-4.664a3.858 3.858 0 012.987-3.951 3.514 3.514 0 01-2.665-3.585c0-2.481 1.884-4.388 4.986-4.388 3.078 0 4.962 1.93 4.962 4.388a3.516 3.516 0 01-2.665 3.585 3.87 3.87 0 012.987 3.951c0 2.574-2.022 4.664-5.284 4.664zm0-9.167c2.136 0 3.4-1.286 3.4-2.964 0-1.7-1.31-3.009-3.4-3.009s-3.4 1.286-3.4 3.009c-.001 1.678 1.263 2.964 3.4 2.964zm0 7.72c2.3 0 3.722-1.4 3.722-3.217 0-1.792-1.379-3.216-3.722-3.216-2.367 0-3.745 1.4-3.745 3.216-.002 1.838 1.447 3.217 3.745 3.217zm12.543-15.141a5.206 5.206 0 015.33 5.33 5.804 5.804 0 01-.9 3.056l-4.94 7.95h-1.815l3.952-6.181a2.025 2.025 0 01-1.448.506 5.327 5.327 0 01-3.883-1.446 5.323 5.323 0 01-1.676-3.791 5.328 5.328 0 011.544-3.845 5.328 5.328 0 013.832-1.579h.004zm0 1.448a3.902 3.902 0 00-3.971 4.583 3.899 3.899 0 007.739-.701 3.73 3.73 0 00-1.052-2.749 3.733 3.733 0 00-2.716-1.133z" fill="#fff"/></g><g clip-path="url(#clip3)" fill="#fff"><path d="M422.824 233.474l-1.124-3.309h-7.517l-1.126 3.309H412l5.539-16.086h.827l5.515 16.086h-1.057zm-4.872-14.57l-3.447 10.319h6.871l-3.424-10.319zm8.822 14.57h-.965v-16.086h.965v8.709a4.5 4.5 0 014.3-2.757 5.042 5.042 0 011.993.369 5.034 5.034 0 013.133 4.824 5.039 5.039 0 01-1.455 3.684 5.034 5.034 0 01-3.67 1.486 4.513 4.513 0 01-4.3-2.734l-.001 2.505zm8.456-4.941a4.131 4.131 0 00-1.172-3.037 4.115 4.115 0 00-3.01-1.237 4.138 4.138 0 00-4.274 4.274 4.123 4.123 0 001.217 3.05 4.132 4.132 0 003.057 1.201 4.114 4.114 0 004.182-4.251zm11.42-1.356c-.161-1.517-1.172-2.942-3.63-2.942-2.575 0-3.953 2.046-3.953 4.275 0 2.252 1.332 4.274 4 4.274 2.252 0 3.332-1.172 3.631-2.712h.988c-.3 2.046-1.769 3.631-4.664 3.631-3.218 0-4.918-2.5-4.918-5.193a4.854 4.854 0 014.918-5.17c3.148 0 4.435 1.907 4.618 3.837h-.99zm12.383 3.792a4.473 4.473 0 01-4.274 2.734 5.054 5.054 0 01-3.68-1.484 5.04 5.04 0 01-1.468-3.686 5.063 5.063 0 011.461-3.7 5.054 5.054 0 013.687-1.493 4.465 4.465 0 014.274 2.757v-8.709h.988v16.086h-.988v-2.505zm0-2.436a4.216 4.216 0 10-8.433 0 4.235 4.235 0 001.212 3.024 4.23 4.23 0 003.005 1.258 4.22 4.22 0 003.914-2.648c.208-.52.311-1.075.302-1.634zm4.823.092c.023 2.229 1.241 4.205 3.953 4.205a3.335 3.335 0 003.355-2.137h1.011a4.243 4.243 0 01-4.366 3.01c-3.309 0-4.918-2.435-4.918-5.193 0-2.964 1.747-5.17 4.849-5.17a4.459 4.459 0 013.219 1.255 4.463 4.463 0 011.354 3.179 6.54 6.54 0 01-.046.851h-8.411zm.023-.827h7.469a3.547 3.547 0 00-3.631-3.654 3.646 3.646 0 00-2.705 1.002 3.654 3.654 0 00-1.133 2.652zm16.612-9.422a3.01 3.01 0 00-1.333-.226c-.942 0-2.045.3-2.045 2.6v2.819h3.378v.873h-3.378v9.032h-.965v-9.032h-2.367v-.873h2.367v-2.757c0-3.195 1.701-3.562 2.941-3.562a3.55 3.55 0 011.4.253l.002.873zm10.939 16.017c0 4.021-2 5.492-5.285 5.492-3.562 0-4.895-2.275-5.01-4.825h.967c.115 2.067 1.149 3.906 4.045 3.906 2.688 0 4.3-1.2 4.3-4.573v-3.443a4.465 4.465 0 01-4.273 2.757 5.057 5.057 0 01-3.687-1.493 5.048 5.048 0 01-1.461-3.7 5.04 5.04 0 015.148-5.17 4.459 4.459 0 014.273 2.757v-2.532h.989l-.006 10.824zm-9.422-5.883a4.216 4.216 0 108.433 0 4.232 4.232 0 00-1.212-3.024 4.23 4.23 0 00-3.005-1.258 4.22 4.22 0 00-3.914 2.648 4.213 4.213 0 00-.302 1.634zm13.14-11.122h.965v8.756a4.196 4.196 0 014.045-2.8 3.732 3.732 0 012.987 1.194 4.48 4.48 0 01.988 3.172v5.768h-.965v-5.52c0-2.091-1.011-3.7-3.263-3.7a3.94 3.94 0 00-3.576 2.634 3.938 3.938 0 00-.216 1.548v5.033h-.965v-16.085zm13.005 1.011a1.137 1.137 0 01.826 1.934 1.14 1.14 0 11-.826-1.934zm-.482 5.17h.965v9.905h-.965v-9.905zm6.043 13.306c0 1.93-.942 2.918-2.252 2.918a3.418 3.418 0 01-1.562-.275v-.92c.397.23.851.342 1.309.322.943 0 1.54-.759 1.54-2.091v-13.26h.965v13.306zm-.459-18.476a1.136 1.136 0 01.783 1.93 1.136 1.136 0 01-.783.345 1.103 1.103 0 01-.799-.325 1.117 1.117 0 01-.327-.799 1.123 1.123 0 011.126-1.151zm6.384 10.134l5.36 4.941h-1.356l-5.217-4.78v4.78h-.965v-16.086h.965v10.984l5.217-4.8h1.356l-5.36 4.961zm7.447-11.145h.965v16.086h-.965v-16.086zm18.242 16.086v-5.975c0-2.39-1.2-3.24-2.666-3.24-2.068 0-3.125 2-3.125 4.205v5.01h-.965v-5.584c0-2.919-1.287-3.631-2.689-3.631-2.022 0-3.125 2-3.125 4.205v5.01h-.965v-9.905h.965v2.6a3.433 3.433 0 013.309-2.826 3.037 3.037 0 013.286 2.872 3.613 3.613 0 013.47-2.872c1.93 0 3.47 1.056 3.47 3.906v6.228l-.965-.003zm4.524-9.905h.964v2.575a4.194 4.194 0 014.045-2.8 3.73 3.73 0 011.628.26 3.73 3.73 0 011.359.934 4.49 4.49 0 01.988 3.172v5.768h-.964v-5.52c0-2.091-1.011-3.7-3.264-3.7a3.958 3.958 0 00-1.52.365 3.96 3.96 0 00-2.057 2.269 3.937 3.937 0 00-.215 1.548v5.033h-.964v-9.904zm11.535 4.964a5.204 5.204 0 1110.409 0 5.204 5.204 0 01-10.409 0zm9.421 0a4.213 4.213 0 00-4.216-4.216 4.213 4.213 0 00-4.216 4.216 4.213 4.213 0 004.216 4.216 4.215 4.215 0 004.216-4.216zm4.708-2.436a4.506 4.506 0 014.3-2.757 5.033 5.033 0 013.671 1.486 5.028 5.028 0 011.453 3.684 5.028 5.028 0 01-3.132 4.823 5.035 5.035 0 01-1.992.37 4.505 4.505 0 01-4.3-2.757v8.709h-.965v-16.086h.965v2.528zm0 2.413a4.216 4.216 0 002.595 3.966 4.236 4.236 0 003.267 0 4.24 4.24 0 002.292-2.328c.208-.52.311-1.077.303-1.638a4.231 4.231 0 00-5.862-3.966 4.24 4.24 0 00-2.292 2.328 4.211 4.211 0 00-.303 1.638zm20.657-4.941h.965v16.086h-.965v-8.705a4.506 4.506 0 01-4.3 2.757 5.043 5.043 0 01-5.125-5.193 5.03 5.03 0 011.459-3.68 5.036 5.036 0 013.666-1.49 4.505 4.505 0 014.3 2.757v-2.532zm-8.456 4.941a4.23 4.23 0 007.218 2.99 4.229 4.229 0 10-7.218-2.99zm18.91-4.022a3.122 3.122 0 00-.988-.137c-2.642 0-3.791 2.435-3.791 4.641v4.482h-.965v-9.905h.965v2.735a3.992 3.992 0 013.791-2.9c.337-.013.672.042.988.161v.923zm8.574 6.362c0 1.815-1.379 2.849-3.77 2.849-2.274 0-4.181-1.034-4.181-3.585h.964c0 2 1.449 2.736 3.241 2.736 1.815 0 2.8-.736 2.8-1.955 0-1.516-1.54-1.722-3.378-2.113-1.747-.345-3.309-.689-3.309-2.642 0-1.793 1.471-2.8 3.608-2.8 2.229 0 3.861 1.172 3.861 3.286h-.965c0-1.609-1.173-2.437-2.873-2.437-1.609 0-2.689.713-2.689 1.977 0 1.355 1.241 1.586 3.149 1.977 1.792.367 3.542.689 3.542 2.707zm7.599 2.624c-.548.088-1.101.134-1.655.137-1.379 0-2.872-.321-2.872-3.423v-5.746h-2.183v-.873h2.184v-4.044h.965v4.044h3.194v.873h-3.194v5.608c0 2.344.965 2.642 2.068 2.642.5-.003.999-.042 1.494-.115l-.001.897zm10.57-9.905v9.905h-.988v-2.575a4.174 4.174 0 01-4.045 2.8 3.718 3.718 0 01-2.963-1.194 4.528 4.528 0 01-1.012-3.172v-5.764h.988v5.516c0 2.113 1.011 3.723 3.263 3.723a3.963 3.963 0 003.558-2.659 3.945 3.945 0 00.211-1.547v-5.033h.988zm3.031 0l3.93 8.549 3.975-8.549h1.057l-4.642 9.905h-.781l-4.6-9.905h1.061zm16.888 1.126l-3.126 8.779h-.758l-3.815-9.905h1.034l3.148 8.5 3.033-8.5h.988l3.011 8.5 3.149-8.5h1.056l-3.81 9.905h-.781l-3.129-8.779zm16.817 8.779h-1.149l-3.08-4.2-3.055 4.205h-1.15l3.627-4.969-3.6-4.941h1.148l3.033 4.183 3.057-4.183h1.149l-3.63 4.941 3.65 4.964zm2.249 1.654h.966c.114 2.551 1.08 3.884 3.631 3.884 2.343 0 3.561-1.1 3.561-4.229v-3.884a4.127 4.127 0 01-4 2.8 3.758 3.758 0 01-3.079-1.126c-.689-.735-.942-1.746-.942-3.424v-5.58h.965v5.355c0 2.413.758 3.884 3.332 3.884 2.505 0 3.723-2.276 3.723-4.206v-5.033h.965v11.214c0 3.677-1.517 5.1-4.55 5.1-3.193.002-4.503-1.633-4.572-4.755zm19.787-11.559l-6.618 9.008h6.687v.9h-8.457l6.619-8.986h-6.32v-.922h8.089zM413.24 256.482a5.05 5.05 0 011.471-3.707 5.058 5.058 0 013.7-1.486 5.059 5.059 0 014.859 3.177c.255.641.377 1.327.357 2.016v6.319a5.044 5.044 0 01-5.216 5.171 5.044 5.044 0 01-3.693-1.477 5.05 5.05 0 01-1.478-3.694v-6.319zm9.376 0a4.1 4.1 0 00-4.205-4.251 4.11 4.11 0 00-1.624.306 4.108 4.108 0 00-2.265 2.314c-.2.52-.292 1.075-.271 1.631v6.319a4.098 4.098 0 001.171 3.008 4.093 4.093 0 002.989 1.221 4.097 4.097 0 004.205-4.229v-6.319zm2.917-2.232c2.735 0 3.194-.735 3.194-2.666h.965v16.089h-1.034v-12.547h-3.125v-.876zm11.965 5.61c2.16-.781 3.883-1.609 3.883-4.159 0-1.953-1.356-3.4-3.837-3.4a3.854 3.854 0 00-3.805 2.497 3.86 3.86 0 00-.24 1.593h-1.007a4.852 4.852 0 011.429-3.637 4.833 4.833 0 013.65-1.395c3.056 0 4.825 1.792 4.825 4.412 0 3.033-2.274 4.136-4.412 4.895-3.332 1.241-4.366 2.666-4.366 6.066h8.916v.942h-10.019c0-5.01 1.471-6.549 4.983-7.814zm7.358 3.332c0 2.252 1.677 3.769 4.182 3.769 2.528 0 4.136-1.517 4.136-3.585s-1.47-3.539-4.044-3.539h-1.287v-.942h1.287c2.39 0 3.769-1.355 3.769-3.286 0-2-1.517-3.309-3.861-3.309-2.459 0-3.883 1.4-3.883 3.47h-1.011c0-2.62 1.93-4.412 4.848-4.412s4.918 1.724 4.918 4.251a3.62 3.62 0 01-3.125 3.746 3.916 3.916 0 013.4 4.021c0 2.689-2.115 4.527-5.171 4.527-3.01 0-5.17-1.861-5.17-4.711h1.012zm18.198-1.378h-6.253v-10.227h1.011v9.285h5.24v-5.217h1.01v5.217h2.829v.942h-2.827v5.859h-1.01v-5.859zm6.246-10.227h8.893v.943h-7.95v7.22a4.408 4.408 0 013.929-2.115 4.89 4.89 0 013.685 1.421 4.91 4.91 0 011.44 3.679 5.204 5.204 0 11-10.41 0h1.013a4.195 4.195 0 104.16-4.159 3.716 3.716 0 00-3.631 2.252H469.3v-9.241zm11.852 11.146a5.397 5.397 0 01.828-2.9l5.124-8.25h1.172l-4.251 6.734a3.388 3.388 0 012.3-.781 5.187 5.187 0 014.795 3.189 5.181 5.181 0 11-9.966 2.004l-.002.004zm9.376 0a4.18 4.18 0 00-5.017-4.052 4.186 4.186 0 00-3.03 5.693 4.174 4.174 0 003.842 2.587 4.096 4.096 0 004.205-4.228zm11.215-11.146L494 267.673h-1.08l7.307-15.143h-7.883v-.943h9.399zm.295 11.789a3.926 3.926 0 013.332-4.021 3.614 3.614 0 01-3.056-3.7c0-2.482 1.884-4.3 4.918-4.3 3.01 0 4.917 1.815 4.917 4.3a3.637 3.637 0 01-3.056 3.7 3.905 3.905 0 013.309 4.021c0 2.6-1.976 4.527-5.17 4.527s-5.194-1.907-5.194-4.527zm9.353 0c0-2.022-1.539-3.539-4.159-3.539-2.643 0-4.183 1.494-4.183 3.539 0 2.091 1.609 3.585 4.183 3.585 2.55 0 4.159-1.517 4.159-3.585zm-.253-7.7c0-1.953-1.516-3.378-3.906-3.378-2.367 0-3.884 1.4-3.884 3.378 0 1.907 1.448 3.286 3.884 3.286s3.906-1.377 3.906-3.284v-.002zm13.535.852a5.35 5.35 0 01-.827 2.9l-5.125 8.25h-1.172l4.251-6.738a3.108 3.108 0 01-2.206.781 5.188 5.188 0 01-5.199-6.124 5.18 5.18 0 014.039-4.13 5.18 5.18 0 016.239 5.061zm-9.376 0a4.177 4.177 0 002.602 3.828 4.182 4.182 0 101.626-8.056 4.109 4.109 0 00-4.225 4.228h-.003z"/></g><g clip-path="url(#clip4)"><path d="M876.019 229.11a2.823 2.823 0 01.135-.97c.136-.295.349-.546.618-.728l.541-.418a1.95 1.95 0 00.566-.623c.123-.244.184-.514.177-.787a1.203 1.203 0 00-.3-.859 1.03 1.03 0 00-.794-.32 1.312 1.312 0 00-.994.381 1.56 1.56 0 00-.37 1.131h-1.355a2.692 2.692 0 01.741-2.022 2.8 2.8 0 012.035-.719 2.422 2.422 0 011.787.651 2.311 2.311 0 01.648 1.708c.014.434-.092.864-.307 1.241a4.095 4.095 0 01-.917 1.008l-.424.344a1.513 1.513 0 00-.405.442 1.123 1.123 0 00-.1.504v.172h-1.282v-.136zm.635 2.974a.915.915 0 01-.7-.308 1.04 1.04 0 01-.291-.736 1.025 1.025 0 01.291-.732.94.94 0 01.7-.3.945.945 0 01.706.3 1.014 1.014 0 01.291.732 1.035 1.035 0 01-.291.736.955.955 0 01-.706.308z" fill="#fff"/><path d="M876.425 235.612a8.072 8.072 0 100-16.144 8.072 8.072 0 000 16.144zm25.452 0a8.072 8.072 0 100-16.144 8.072 8.072 0 000 16.144z" stroke="#fff" stroke-width="1.309"/><path d="M901.492 222.461h1.664v6.865h-1.664v-6.865zm.811 10.157a1.265 1.265 0 01-.909-.356 1.146 1.146 0 01-.374-.856 1.117 1.117 0 01.374-.848c.245-.231.572-.357.909-.349.339-.007.668.118.916.349a1.104 1.104 0 01.383.848 1.135 1.135 0 01-.383.856 1.287 1.287 0 01-.916.356z" fill="#fff"/><path d="M926.599 235.612a8.072 8.072 0 100-16.144 8.072 8.072 0 000 16.144z" stroke="#fff" stroke-width="1.309"/><path d="M925.928 228.212h-3.49a.686.686 0 01-.497-.173.676.676 0 01.449-1.176h3.538v-3.51a.688.688 0 01.19-.491.672.672 0 01.97 0 .665.665 0 01.189.491v3.512h3.512a.67.67 0 01.643.411.662.662 0 010 .527.672.672 0 01-.643.411h-3.512v3.538a.66.66 0 01-.055.263.68.68 0 01-.644.408.667.667 0 01-.476-.222.677.677 0 01-.173-.497l-.001-3.492z" fill="#fff"/><path d="M927.27 228.212v3.49a.668.668 0 01-.172.497.676.676 0 01-1.176-.449c0-.086-.004-1.32 0-3.538h-3.51a.682.682 0 01-.644-.411.684.684 0 01.152-.749.66.66 0 01.227-.144.664.664 0 01.265-.045h3.511v-3.513a.683.683 0 01.412-.643.676.676 0 01.893.378.687.687 0 01.044.265v3.519h3.539a.68.68 0 01.483.207.675.675 0 01-.531 1.141 335.07 335.07 0 00-3.493-.005zm25.452-.211l1.91-2.327.628-.766.239-.291a.68.68 0 01.47-.25.681.681 0 01.503.172.742.742 0 01.073 1.018l-.238.291-.628.767-1.907 2.327c-1.631 1.99-2.711 3.311-2.755 3.368a.676.676 0 01-.808.217.661.661 0 01-.24-.178l-3.303-3.759a.742.742 0 01.04-1.018.686.686 0 01.229-.147.683.683 0 01.532.024c.082.04.155.096.215.166l2.775 3.158c.466-.575 1.229-1.51 2.265-2.772z" fill="#fff"/><path d="M951.326 235.612a8.072 8.072 0 100-16.144 8.072 8.072 0 000 16.144zm24.89.336a8.24 8.24 0 100-16.48 8.24 8.24 0 000 16.48z" stroke="#fff" stroke-width="1.309"/><path d="M976.336 224.049a1.817 1.817 0 10.002 3.634 1.817 1.817 0 00-.002-3.634v0zm.059 9.672a5.815 5.815 0 004.426-2.051 6.159 6.159 0 00-4.388-1.731 6.135 6.135 0 00-4.324 1.886 5.812 5.812 0 004.286 1.896v0z" stroke="#fff" stroke-width="1.309"/><path d="M912.179 255.158h-.01v-3.963a.885.885 0 00-.882-.882h-.601v-1.869a.887.887 0 00-.889-.889h-14.47a2.007 2.007 0 00-2.007 1.951h-.011v11.601a2.587 2.587 0 002.587 2.587h15.392a.887.887 0 00.881-.885v-3.345h.006l.004-4.306zm-16.852-6.326h14.086v1.475h-14.086a.738.738 0 010-1.475zm15.556 13.572h-14.985a1.302 1.302 0 01-1.298-1.297v-9.648c.231.094.478.143.727.146h15.558v3.555h-2.504a2.162 2.162 0 00-1.559.61c-.206.201-.37.441-.481.706a2.143 2.143 0 000 1.673 2.145 2.145 0 002.04 1.316h2.502v2.939zm-.037-5.913v1.64h-2.465a.822.822 0 010-1.64h2.465zm-26.075 6.705l-3.491-3.609c-.014-.015-.033-.021-.048-.034a7.548 7.548 0 10-.92.9c.011.013.015.03.027.043l3.491 3.609a.652.652 0 00.939.031.667.667 0 00.2-.47.66.66 0 00-.198-.47zm-9.27-2.333a6.305 6.305 0 110-12.61 6.305 6.305 0 010 12.61zm60.566-12.546h-2.457v-1.171a.649.649 0 00-.192-.463.655.655 0 00-1.117.463v1.171h-5.745v-1.171a.656.656 0 00-1.309 0v1.171h-2.307a1.757 1.757 0 00-1.239.514 1.744 1.744 0 00-.513 1.239v12.566a1.752 1.752 0 001.752 1.754h13.127a1.75 1.75 0 001.62-1.083c.088-.212.133-.441.133-.671V250.07a1.757 1.757 0 00-1.082-1.62 1.75 1.75 0 00-.671-.133zm-13.127 1.309h13.127a.444.444 0 01.444.444v1.947h-14.015v-1.947a.446.446 0 01.444-.444zm13.127 13.458H922.94a.446.446 0 01-.444-.444v-9.314h14.015v9.314a.444.444 0 01-.444.444z" fill="#fff"/><path d="M924.866 254.995h1.979a.577.577 0 01.577.577v1.979a.577.577 0 01-.577.577h-1.979a.577.577 0 01-.577-.577v-1.979a.578.578 0 01.577-.577zm6.784 0h-1.98a.576.576 0 00-.576.577v1.979c0 .318.258.577.576.577h1.98a.578.578 0 00.577-.577v-1.979a.577.577 0 00-.577-.577zm35.071.84c-.146-.253-3.612-6.221-10.071-6.221h-.218c-6.458 0-9.927 5.968-10.071 6.221l-.088.151v.377l.088.15c.145.254 3.612 6.221 10.071 6.221h.218c6.457 0 9.926-5.967 10.071-6.221l.087-.181v-.349l-.087-.148zm-10.071 5.59h-.218c-4.898 0-7.962-4.082-8.739-5.251.777-1.168 3.84-5.252 8.739-5.252h.218c4.899 0 7.963 4.085 8.739 5.253-.773 1.169-3.825 5.25-8.739 5.25z" fill="#fff"/><path d="M956.299 252.446a3.804 3.804 0 00-2.689 6.492 3.803 3.803 0 102.689-6.492zm0 6.299a2.496 2.496 0 110-4.991 2.496 2.496 0 010 4.991zm39.509-3.395a.769.769 0 00.087-.354.645.645 0 00-.087-.324c-.145-.254-3.612-6.222-10.071-6.222h-.218a10.204 10.204 0 00-4.586 1.095l-3.165-3.167a.652.652 0 00-.714-.142.652.652 0 00-.355.856c.033.08.082.152.142.213l2.909 2.909a14.368 14.368 0 00-4.303 4.457.655.655 0 00-.088.323v.031a.655.655 0 00.088.323c.145.254 3.611 6.221 10.071 6.221h.218c1.516 0 3.013-.338 4.382-.989l3.089 3.089a.658.658 0 00.713.142.65.65 0 00.355-.855.658.658 0 00-.142-.212l-2.82-2.82a14.394 14.394 0 004.495-4.574zm-10.071 4.912h-.218c-4.899 0-7.962-4.083-8.739-5.252a13.409 13.409 0 013.932-3.839l1.642 1.64a3.727 3.727 0 00-.774 2.269 3.807 3.807 0 003.803 3.804 3.732 3.732 0 002.269-.773l1.465 1.465a8.818 8.818 0 01-3.38.686zm.986-3.077c-.398.26-.864.397-1.339.397a2.504 2.504 0 01-1.763-.733 2.494 2.494 0 01-.731-1.763c-.001-.475.136-.94.396-1.338l3.437 3.437zm3.632 1.781l-8.428-8.43a8.8 8.8 0 013.593-.778h.218c4.899 0 7.964 4.084 8.738 5.252a13.234 13.234 0 01-4.121 3.956z" fill="#fff"/><path d="M1036.41 253.445l-5.71 4.363-5.92-4.363m-20.08 1.774l5.3-4.866 5.5 4.866" stroke="#fff" stroke-width="1.571" stroke-linecap="round" stroke-linejoin="round"/><path d="M1010.1 260.946v-9.428" stroke="#fff" stroke-width="1.571" stroke-linecap="round"/><path d="M1055.76 256.035l-5.3 4.865-5.5-4.865" stroke="#fff" stroke-width="1.571" stroke-linecap="round" stroke-linejoin="round"/><path d="M1050.36 250.308v9.427" stroke="#fff" stroke-width="1.571" stroke-linecap="round"/></g><g clip-path="url(#clip5)"><path d="M29.578 262.155c16.335 0 29.577-13.242 29.577-29.578 0-16.335-13.242-29.577-29.578-29.577C13.242 203 0 216.242 0 232.577c0 16.336 13.242 29.578 29.578 29.578z" fill="#FEF200"/><path d="M101.409 262.155c16.336 0 29.578-13.242 29.578-29.578 0-16.335-13.242-29.577-29.578-29.577-16.335 0-29.577 13.242-29.577 29.577 0 16.336 13.242 29.578 29.577 29.578z" fill="#222"/><path d="M198.289 251.29c8.834 0 15.996-7.162 15.996-15.996 0-8.835-7.162-15.996-15.996-15.996s-15.996 7.161-15.996 15.996c0 8.834 7.162 15.996 15.996 15.996z" fill="#F8F8F8" stroke="#CCC" stroke-width=".462"/><path d="M159.055 251.29c8.834 0 15.996-7.162 15.996-15.996 0-8.835-7.162-15.996-15.996-15.996-8.835 0-15.996 7.161-15.996 15.996 0 8.834 7.161 15.996 15.996 15.996z" fill="#CCC"/></g><path d="M594.895 539.803H466.059v-82.65h128.836v82.65z" fill="#fff" stroke="#343434" stroke-width="1.167" stroke-linecap="round" stroke-linejoin="round"/><path d="M594.397 465.72H466.551" stroke="#343434" stroke-width=".778" stroke-linecap="round" stroke-linejoin="round"/><path d="M475.836 463.474a1.773 1.773 0 100-3.547 1.773 1.773 0 000 3.547zm5.195 0a1.773 1.773 0 100-3.547 1.773 1.773 0 000 3.547zm-10.395 0a1.773 1.773 0 100-3.547 1.773 1.773 0 000 3.547z" fill="#fff" stroke="#343434" stroke-width=".778" stroke-linecap="round" stroke-linejoin="round"/><path d="M509.179 471.504h-29.921v1.885h29.921v-1.885zm-11.299 5.199h-18.622v1.885h18.622v-1.885z" fill="#343434"/><path d="M593.545 468.363a3.529 3.529 0 100-7.058 3.529 3.529 0 000 7.058z" fill="#fff" stroke="#343434" stroke-width="1.167" stroke-linecap="round" stroke-linejoin="round"/><path d="M545.981 409.743v32.11h-11.826l-10.671 10.684.083-10.684h-25.911v-48.325h8.202" fill="#fff"/><path d="M545.981 409.743v32.11h-11.826l-10.671 10.684.083-10.684h-25.911v-48.325h8.202" stroke="#343434" stroke-width="1.76" stroke-linecap="round" stroke-linejoin="round"/><path d="M549.243 378.528l-28.178-7.198a1.999 1.999 0 00-2.431 1.441l-12.263 48.002a1.999 1.999 0 001.441 2.431l28.178 7.198a1.998 1.998 0 002.431-1.441l12.263-48.002a2 2 0 00-1.441-2.431z" fill="#343434"/><path d="M546.415 377.822l-28.178-7.199a1.998 1.998 0 00-2.431 1.442l-12.263 48.002a1.998 1.998 0 001.441 2.43l28.178 7.199a2 2 0 002.431-1.441l12.263-48.003a1.998 1.998 0 00-1.441-2.43z" fill="#fff" stroke="#343434" stroke-width="1.32" stroke-linecap="round" stroke-linejoin="round"/><path d="M533.966 426.807l11.768-46.064a1.519 1.519 0 00-1.094-1.846l-25.359-6.478a1.516 1.516 0 00-1.845 1.094l-11.769 46.065a1.517 1.517 0 001.095 1.845l25.358 6.478a1.517 1.517 0 001.846-1.094z" fill="#fff" stroke="#343434" stroke-width=".88" stroke-linecap="round" stroke-linejoin="round"/><path d="M521.048 421.484a3.114 3.114 0 100-6.229 3.114 3.114 0 000 6.229z" fill="#fff" stroke="#343434" stroke-width=".88" stroke-linecap="round" stroke-linejoin="round"/><path d="M519.99 396.744a.686.686 0 01.501.318.674.674 0 01.062.59c-.132.51-.5.632-1.024.5l-4.253-1.1a.876.876 0 01-.598-.381.877.877 0 01-.132-.337.884.884 0 01.018-.362c.208-.8 1.154-1.516 2.8-2.045 1.835-.59 2.432-.653 2.669-1.572a1.154 1.154 0 00-.894-1.453 1.416 1.416 0 00-1.774.823c-.222.39-.425.568-.879.45a.743.743 0 01-.666-.644.725.725 0 01.035-.33c.358-1.384 1.992-2.086 3.659-1.655 1.815.47 2.584 1.94 2.314 2.983-.391 1.509-1.235 1.919-2.613 2.289-1.47.394-2.373.656-2.632 1.049l3.407.877zm5.057.898l-2.849-.741a.815.815 0 01-.548-.36.813.813 0 01-.122-.311.805.805 0 01.011-.335c.05-.245.188-.463.388-.613l4.653-3.575a.879.879 0 01.819-.127.767.767 0 01.577.36.764.764 0 01.062.677l-1.071 4.139.567.147a.673.673 0 01.481.817.672.672 0 01-.817.481l-.567-.147-.3 1.168a.814.814 0 01-.378.501.82.82 0 01-1.21-.912l.304-1.169zm1.095-4.23l-.023-.006-2.949 2.371 2.211.572.761-2.937zm6.451-.304a.641.641 0 01.776-.293.632.632 0 01.408.721 1.178 1.178 0 01-.188.351l-4.558 6.431a.64.64 0 01-.774.293.638.638 0 01-.41-.72c.043-.127.107-.246.189-.351l4.557-6.432zm6.778 1.731a.735.735 0 01.316.117.733.733 0 01.32.572.738.738 0 01-.065.33c-.235.907-2.191.752-4.672 5.567-.321.631-.539.817-1.072.679a.754.754 0 01-.574-.385.748.748 0 01-.096-.342.748.748 0 01.07-.349 12.33 12.33 0 014.443-5.01l-3.663-.948a.681.681 0 01-.486-.321.664.664 0 01-.055-.579.67.67 0 01.34-.486.672.672 0 01.593-.035l4.601 1.19z" fill="#343434"/><path d="M458.134 498.609v12.287l-46.712.418v-39.547" fill="#fff"/><path d="M458.134 498.609v12.287l-46.712.418v-39.547" stroke="#343434" stroke-width="1.76" stroke-linecap="round" stroke-linejoin="round"/><path d="M421.422 444.958h36.713v21.421l10.797-.696-10.797 14.655v2.733" fill="#fff"/><path d="M421.422 444.958h36.713v21.421l10.797-.696-10.797 14.655v2.733" stroke="#343434" stroke-width="1.76" stroke-linecap="round" stroke-linejoin="round"/><path d="M431.617 474.266l2.734-3.867 31.852 22.51 5.074 1.027 2.504 4.328-2.733 3.868-4.95-1.11-2.969-4.487-31.512-22.269zm-2.126 2.991l6.912-9.787a2.857 2.857 0 00-4.666-3.295l-6.912 9.787a2.857 2.857 0 004.666 3.295z" fill="#fff" stroke="#343434" stroke-width="1.32" stroke-linecap="round" stroke-linejoin="round"/><path d="M400.336 449.259a6.2 6.2 0 018.64-1.484l19.282 13.626 1.43 5.7-2.734 3.868-5.509.8-19.624-13.868a6.188 6.188 0 01-2.532-4.013 6.195 6.195 0 011.047-4.629v0z" fill="#343434" stroke="#343434" stroke-width="1.32" stroke-linecap="round" stroke-linejoin="round"/><path d="M424.771 463.2l-16.894-11.938m13.758 16.375l-16.893-11.939" stroke="#fff" stroke-width=".88" stroke-linecap="round" stroke-linejoin="round"/><path d="M590.016 496.517v42.101" stroke="#343434" stroke-width=".778" stroke-linecap="round" stroke-linejoin="round"/><path d="M479.777 529.756l10.591-9.649 6.307 5.746 13.808-12.58 4.549 4.144 14.376-15.824 8.43 10.389 4.413-7.692 11.129 12.175 14.206-24.152v37.7l-87.809-.257z" fill="#FFF100"/><path d="M479.777 529.756l10.591-9.649 6.307 5.746 13.808-12.58 4.549 4.144 14.376-15.824 8.43 10.389 4.413-7.692 11.129 12.175 13.432-23.87" stroke="#343434" stroke-width="1.637" stroke-linecap="round" stroke-linejoin="round"/><path d="M479.777 484.302v46.118h87.626" stroke="#343434" stroke-width="1.637" stroke-linecap="round" stroke-linejoin="round"/><path d="M595.39 496.517h-5.374v42.766h5.374v-42.766z" fill="#343434"/><path d="M641.586 479.106v19.346h-53.727v-7.392l-14.027-.237 14.027-11.371v-78.888h53.727v11.618" fill="#fff"/><path d="M641.586 479.106v19.346h-53.727v-7.392l-14.027-.237 14.027-11.371v-78.888h53.727v11.618" stroke="#343434" stroke-width="1.76" stroke-linecap="round" stroke-linejoin="round"/><path d="M646.948 458.329a5.03 5.03 0 100-10.06 5.03 5.03 0 000 10.06z" fill="#343434"/><path d="M646.948 446.901v10.547a21.644 21.644 0 01-6.291 15.411 21.65 21.65 0 01-15.368 6.396 21.653 21.653 0 01-15.368-6.396 21.664 21.664 0 01-6.292-15.411v-10.547a21.664 21.664 0 0121.66-21.807 21.657 21.657 0 0121.659 21.807v0z" fill="#fff" stroke="#343434" stroke-width="1.32" stroke-linecap="round" stroke-linejoin="round"/><path d="M625.147 433.239l10.25 19.731a1.321 1.321 0 01-1.173 1.93h-7.73a1.321 1.321 0 00-1.321 1.347l.115 5.853h9.722s.616 7.174-9.722 7.174-10.339-7.314-10.339-7.314l10.339.14" fill="#fff"/><path d="M625.147 433.239l10.25 19.731a1.321 1.321 0 01-1.173 1.93h-7.73a1.321 1.321 0 00-1.321 1.347l.115 5.853h9.722s.616 7.174-9.722 7.174-10.339-7.314-10.339-7.314l10.339.14" stroke="#343434" stroke-width="1.32" stroke-linecap="round" stroke-linejoin="round"/><path d="M619.502 447.27a1.39 1.39 0 100-2.778 1.39 1.39 0 000 2.778zm16.899 0a1.39 1.39 0 100-2.778 1.39 1.39 0 000 2.778z" fill="#343434"/><path d="M603.625 450.848c0-13.925-7.473-36.149 21.662-34.32 15.683.984 22.754-1.84 22.754-1.84s16.278 20.828-28.542 12.952c-7.948-1.4-16.158 9.283-15.877 23.208" fill="#FFF100"/><path d="M603.625 450.848c0-13.925-7.473-36.149 21.662-34.32 15.683.984 22.754-1.84 22.754-1.84s16.278 20.828-28.542 12.952c-7.948-1.4-16.158 9.283-15.877 23.208" stroke="#343434" stroke-width="1.32" stroke-linecap="round" stroke-linejoin="round"/><path d="M646.949 446.901a21.628 21.628 0 00-8.648-17.321s16.6-6.074 8.648 17.321z" fill="#343434"/><path d="M610.686 488.677a8.428 8.428 0 100-16.856 8.428 8.428 0 000 16.856z" fill="#fff" stroke="#343434" stroke-width="1.32" stroke-linecap="round" stroke-linejoin="round"/><path d="M610.686 474.712l1.662 3.369 3.718.54-2.69 2.622.635 3.703-3.325-1.748-3.326 1.748.635-3.703-2.69-2.622 3.718-.54 1.663-3.369z" fill="#fff" stroke="#343434" stroke-width=".578" stroke-linecap="round" stroke-linejoin="round"/><path d="M443.877 546.057h190.78m-210.981 0h12.941" stroke="#fff" stroke-width="3.314" stroke-linecap="round" stroke-linejoin="round"/><path d="M158.527 455.184l54.816.173V441.54h11.979v23.037h-56.537" fill="#fff"/><path d="M158.527 455.184l54.816.173V441.54h11.979v23.037h-56.537" stroke="#343434" stroke-width="2.021" stroke-linecap="round" stroke-linejoin="round"/><path d="M150.598 455.159l4.262.013" stroke="#343434" stroke-width="1.42" stroke-linecap="round" stroke-linejoin="round"/><path d="M166.973 462.222h54.486" stroke="#343434" stroke-width=".947" stroke-linecap="round" stroke-linejoin="round"/><path d="M105.879 451.42V425.3h12.127v39.929" fill="#fff"/><path d="M105.879 451.42V425.3h12.127v39.929" stroke="#343434" stroke-width="1.894" stroke-linecap="round" stroke-linejoin="round"/><path d="M262.94 541.308a25.893 25.893 0 005.931-14.931 25.89 25.89 0 00-4.015-15.556 25.893 25.893 0 00-28.456-11.108l-1.183.309c0-.109-.01-.407-.016-.516a31.121 31.121 0 00-27.202-29.21 31.118 31.118 0 00-33.57 21.591l-1.3 4.616M114.2 480.535a24.668 24.668 0 00-26.749-17.115 24.669 24.669 0 00-21.45 23.415 16.336 16.336 0 00-20.478 8.987 28.484 28.484 0 00-29.15 16.019c-.052.107-.1.215-.152.323a24.778 24.778 0 00-2.415 8.587c-.066 1.1-.193 2.205-.193 3.332 0 1.802.17 3.599.507 5.369a11.961 11.961 0 00-10.96 9.157" stroke="#fff" stroke-width="2.021" stroke-linecap="round" stroke-linejoin="round"/><path d="M202.897 451.485H68.305v41.358h134.592v-41.358z" fill="#fff" stroke="#343434" stroke-width="1.786" stroke-linecap="round" stroke-linejoin="round"/><path d="M188.23 451.485v41.359" stroke="#343434" stroke-width="1.894" stroke-linecap="round" stroke-linejoin="round"/><path d="M203.135 498.527H68.543v41.358h134.592v-41.358z" fill="#fff" stroke="#343434" stroke-width="1.786" stroke-linecap="round" stroke-linejoin="round"/><path d="M188.496 498.527v41.358" stroke="#343434" stroke-width="1.894" stroke-linecap="round" stroke-linejoin="round"/><path d="M167.021 477.056a4.892 4.892 0 100-9.783 4.892 4.892 0 000 9.783zm0 47.042a4.892 4.892 0 100-9.783 4.892 4.892 0 000 9.783z" fill="#FFF100" stroke="#343434" stroke-width="1.42" stroke-linecap="round" stroke-linejoin="round"/><path d="M152.464 467.272l-2.999 9.785m-3.595-9.785l-2.999 9.785m-3.591-9.785l-2.999 9.785m-3.591-9.785l-2.999 9.785m-3.594-9.785l-2.999 9.785m-3.591-9.785l-2.999 9.785m-3.591-9.785l-2.999 9.785m-3.595-9.785l-2.999 9.785m-3.592-9.785l-2.998 9.785m-3.592-9.785l-2.998 9.785m62.32 37.696l-2.999 9.785m-3.595-9.785l-2.999 9.785m-3.591-9.785l-2.999 9.785m-3.591-9.785l-2.999 9.785m-3.594-9.785l-2.999 9.785m-3.591-9.785l-2.999 9.785m-3.591-9.785l-2.999 9.785m-3.595-9.785l-2.999 9.785m-3.592-9.785l-2.998 9.785m-3.592-9.785l-2.998 9.785" stroke="#343434" stroke-width="1.42" stroke-linecap="round" stroke-linejoin="round"/><path d="M75.224 448.011a6.827 6.827 0 00-11.06-3.651l-22.138 18.756-3.085-3.642 22.136-18.756a11.613 11.613 0 0110.964-2.218 11.607 11.607 0 017.744 8.071" fill="#fff"/><path d="M75.224 448.011a6.827 6.827 0 00-11.06-3.651l-22.138 18.756-3.085-3.642 22.136-18.756a11.613 11.613 0 0110.964-2.218 11.607 11.607 0 017.744 8.071" stroke="#343434" stroke-width="1.42" stroke-linecap="round" stroke-linejoin="round"/><path d="M74.838 456.001c2.187 2.453-1.636 4.851-1.636 4.851L53.94 477.175l-3.086-3.641L70.1 457.227s3.117-2.967 4.738-1.223" fill="#fff"/><path d="M74.838 456.001c2.187 2.453-1.636 4.851-1.636 4.851L53.94 477.175l-3.086-3.641L70.1 457.227s3.117-2.967 4.738-1.223" stroke="#343434" stroke-width="1.42" stroke-linecap="round" stroke-linejoin="round"/><path d="M70.001 468.686l-20.048-23.66-23.66 20.048 20.047 23.66 23.661-20.048z" fill="#FFF100" stroke="#343434" stroke-width="1.894" stroke-linecap="round" stroke-linejoin="round"/><path d="M58.01 468.589c.95-5.442-2.693-10.623-8.135-11.571-5.442-.949-10.623 2.693-11.571 8.135-.949 5.442 2.694 10.623 8.135 11.572 5.442.948 10.623-2.694 11.572-8.136z" fill="#fff" stroke="#343434" stroke-width="1.42" stroke-linecap="round" stroke-linejoin="round"/><path d="M51.301 467.487a2.487 2.487 0 01-2.134.536l-3.45 2.923-1.885-2.226 3.37-2.855a2.497 2.497 0 012.138-2.761 2.496 2.496 0 012.813 2.07 2.497 2.497 0 01-.851 2.313h-.001z" fill="#343434" stroke="#343434" stroke-width=".947" stroke-linecap="round" stroke-linejoin="round"/><path d="M128.582 373.609H83.703v60.885h44.879v-60.885z" fill="#fff" stroke="#343434" stroke-width="1.831" stroke-linecap="round" stroke-linejoin="round"/><path d="M124.832 434.498v-60.885" stroke="#343434" stroke-width=".947" stroke-linecap="round" stroke-linejoin="round"/><path d="M121.324 376.657H86.879v45.098h34.445v-45.098z" fill="#fff" stroke="#343434" stroke-width=".947" stroke-linecap="round" stroke-linejoin="round"/><path d="M115.402 436.905v13.77" stroke="#343434" stroke-width=".947" stroke-linecap="round" stroke-linejoin="round"/><path d="M104.098 425.3H86.402v3.319h17.696V425.3z" fill="#fff" stroke="#343434" stroke-width=".947" stroke-linecap="round" stroke-linejoin="round"/><path d="M100.785 386.185v25.982" stroke="#343434" stroke-width=".473" stroke-linecap="round" stroke-linejoin="round"/><path d="M203.136 451.485h-14.991v41.358h14.991v-41.358zm0 46.972h-14.991v41.358h14.991v-41.358zm-74.549-124.844h-3.735v60.885h3.735v-60.885z" fill="#343434"/><path d="M117.499 389.301c-6.4-.524-9.826-3.321-11.234-5.131a1.987 1.987 0 00-2.487-.517c-.271.144-.505.35-.683.601-1.408 1.81-4.554 4.523-10.952 5.047a1.285 1.285 0 00-1.19 1.319 35.842 35.842 0 0012.324 25.961 2.386 2.386 0 003.088 0 35.846 35.846 0 0012.323-25.964 1.29 1.29 0 00-1.189-1.316v0z" fill="#fff" stroke="#343434" stroke-width=".947" stroke-linecap="round" stroke-linejoin="round"/><path d="M103.971 414.301a32.698 32.698 0 01-10.85-22.861c5.977-.574 9.209-3.058 10.85-4.987 1.641 1.929 4.873 4.413 10.85 4.987a32.705 32.705 0 01-10.85 22.861v0z" fill="#FFF100" stroke="#343434" stroke-width=".449" stroke-linecap="round" stroke-linejoin="round"/><path d="M251.463 407.567h-93.061v33.16h93.061v-33.16z" fill="#fff" stroke="#343434" stroke-width="1.84" stroke-linecap="round" stroke-linejoin="round"/><path d="M245.121 407.567v33.16" stroke="#343434" stroke-width=".947" stroke-linecap="round" stroke-linejoin="round"/><path d="M251.463 407.567h-7.139v33.16h7.139v-33.16z" fill="#343434"/><path d="M231.08 416.295h-65.174v15.388h65.174v-15.388z" fill="#fff" stroke="#343434" stroke-width="1.42" stroke-linecap="round" stroke-linejoin="round"/><path d="M175.637 421.924l.86 1.54-1.623.555 1.623.528-.929 1.609-1.291-1.207.361 1.72h-1.776l.361-1.72-1.276 1.221-.947-1.637 1.623-.555-1.609-.5.86-1.554 1.36 1.18-.389-1.734h1.8l-.375 1.734 1.367-1.18zm40.574 0l.86 1.54-1.623.555 1.623.528-.929 1.609-1.29-1.207.361 1.72h-1.776l.36-1.72-1.276 1.221-.943-1.637 1.623-.555-1.609-.5.86-1.554 1.359 1.18-.388-1.734h1.8l-.374 1.734 1.362-1.18zm-6.761 0l.86 1.54-1.623.555 1.623.528-.929 1.609-1.291-1.207.361 1.72h-1.776l.361-1.72-1.276 1.221-.944-1.637 1.623-.555-1.609-.5.86-1.554 1.36 1.18-.389-1.734h1.8l-.375 1.734 1.364-1.18zm-6.761 0l.86 1.54-1.624.555 1.624.528-.93 1.609-1.29-1.207.361 1.72h-1.776l.36-1.72-1.272 1.221-.943-1.637 1.623-.555-1.609-.5.86-1.554 1.359 1.18-.388-1.734h1.8l-.374 1.734 1.359-1.18zm-6.766 0l.86 1.54-1.623.555 1.623.528-.929 1.609-1.29-1.207.36 1.72h-1.776l.361-1.72-1.276 1.221-.944-1.637 1.624-.555-1.61-.5.861-1.554 1.359 1.18-.388-1.734h1.8l-.374 1.734 1.362-1.18zm-6.76 0l.86 1.54-1.623.555 1.623.528-.929 1.609-1.293-1.207.361 1.72h-1.776l.361-1.72-1.277 1.221-.943-1.637 1.623-.555-1.609-.5.86-1.554 1.36 1.18-.389-1.734h1.8l-.371 1.731 1.362-1.177zm-6.764 0l.86 1.54-1.623.555 1.623.528-.929 1.609-1.29-1.207.361 1.72h-1.776l.36-1.72-1.276 1.221-.943-1.637 1.623-.555-1.61-.5.861-1.554 1.359 1.177-.388-1.734h1.8l-.372 1.734 1.36-1.177z" fill="#343434"/><path d="M48.877 546.057h190.78m-210.981 0h12.94m857.978-4.222h190.776m-210.975 0h12.941" stroke="#fff" stroke-width="3.314" stroke-linecap="round" stroke-linejoin="round"/><path d="M1081.2 512.279H1022a.62.62 0 01-.44-.184.576.576 0 01-.18-.443v-72.211c0-.217.08-.425.23-.578.16-.154.37-.24.58-.24h59.01c.17 0 .33.066.45.183.11.118.18.277.18.443v72.4c0 .083-.02.165-.05.241a.568.568 0 01-.34.341.605.605 0 01-.24.048zm-58.58-1.256h57.95v-71.144h-57.95v71.144z" fill="#343434"/><path d="M1060.19 441.066h-36.63v66.43h36.63v-66.43z" fill="#fff"/><path d="M1060.19 507.809h-36.63a.317.317 0 01-.22-.092.304.304 0 01-.09-.221v-66.43c0-.083.03-.163.09-.221a.317.317 0 01.22-.092h36.63c.08 0 .16.033.22.092.06.058.09.138.09.221v66.43c0 .083-.03.163-.09.221a.317.317 0 01-.22.092zm-36.31-.626h36v-65.804h-36v65.804z" fill="#231F20"/><path d="M1051.76 475.451a10.66 10.66 0 01-11.26 6.652 10.662 10.662 0 01-9.24-9.262c-.3-2.351.2-4.732 1.41-6.769a10.655 10.655 0 015.27-4.48c2.2-.868 4.63-.977 6.9-.311 2.28.666 4.26 2.069 5.65 3.989" fill="#fff"/><path d="M1041.85 482.652c-1.91 0-3.78-.49-5.45-1.422a11.11 11.11 0 01-4.05-3.902c-1-1.626-1.56-3.481-1.63-5.386a11.14 11.14 0 011.21-5.495 11.146 11.146 0 013.75-4.201 11.123 11.123 0 0110.85-.832c1.73.802 3.23 2.035 4.34 3.581.04.05.07.106.08.166.01.06.02.122.01.183a.379.379 0 01-.07.172.427.427 0 01-.12.134.483.483 0 01-.35.083.444.444 0 01-.17-.064.583.583 0 01-.14-.124 10.165 10.165 0 00-5.39-3.815c-2.18-.636-4.5-.532-6.61.297a10.149 10.149 0 00-5.03 4.283 10.184 10.184 0 00-1.36 6.471 10.317 10.317 0 002.9 5.941 10.212 10.212 0 0012.41 1.581 10.238 10.238 0 004.3-5.024c.02-.06.05-.114.09-.16.05-.047.1-.084.16-.11a.449.449 0 01.36-.009.49.49 0 01.27.259c.02.058.03.121.03.184a.39.39 0 01-.04.183 11.084 11.084 0 01-10.35 7.026z" fill="#231F20"/><path d="M1047.89 476.75a10.654 10.654 0 01-2.98 3.358z" fill="#fff"/><path d="M1044.92 480.421a.29.29 0 01-.18-.059.29.29 0 01-.12-.156.318.318 0 01.11-.35 10.434 10.434 0 002.89-3.259.314.314 0 01.19-.148.323.323 0 01.24.028c.07.041.12.109.14.189.03.08.02.166-.02.238a11.06 11.06 0 01-3.07 3.456.28.28 0 01-.18.061z" fill="#231F20"/><path d="M1047.94 466.367a10.65 10.65 0 011.32 5.149c0 .629-.05 1.257-.16 1.876" fill="#fff"/><path d="M1049.1 473.705a.3.3 0 01-.06 0 .268.268 0 01-.11-.044.586.586 0 01-.09-.085.435.435 0 01-.05-.112.252.252 0 010-.122c.41-2.334.02-4.74-1.12-6.818a.271.271 0 01-.04-.246c.01-.041.03-.08.05-.114a.326.326 0 01.35-.105c.04.013.08.035.11.063.03.029.06.063.07.102a11.023 11.023 0 011.2 7.231.391.391 0 01-.11.18.335.335 0 01-.2.07zm-7.81-12.319h-2.56a.317.317 0 01-.22-.092.304.304 0 01-.09-.221v-6.138c0-.083.03-.163.09-.221a.317.317 0 01.22-.092h2.56c.08 0 .16.033.22.092.06.058.09.138.09.221v6.138c0 .083-.03.163-.09.221a.317.317 0 01-.22.092zm-2.24-.626h1.93v-5.511h-1.93v5.511z" fill="#231F20"/><path d="M1042.34 456.338h-4.54l-.81-11.881c-.02-.289.02-.579.11-.852a2.126 2.126 0 011.99-1.406h1.86c.29 0 .57.059.84.173.26.115.5.282.7.493.2.21.35.458.45.729.1.272.14.56.12.848l-.72 11.896z" fill="#fff"/><path d="M1042.33 456.808h-4.54a.473.473 0 01-.32-.126.514.514 0 01-.15-.311l-.8-11.882c-.03-.353.02-.708.14-1.042.12-.333.31-.639.55-.898.24-.259.53-.465.86-.606a2.55 2.55 0 011.03-.214h1.85a2.561 2.561 0 011.88.813c.24.257.43.56.55.892.12.331.17.684.15 1.036l-.72 11.9a.522.522 0 01-.15.313.492.492 0 01-.33.125zm-4.1-.939h3.66l.7-11.456a1.84 1.84 0 00-.09-.66c-.08-.211-.2-.404-.35-.567a1.678 1.678 0 00-1.2-.518h-1.86a1.648 1.648 0 00-1.2.522c-.15.165-.27.359-.35.572-.07.212-.1.438-.09.663l.78 11.444z" fill="#231F20"/><path d="M1026.69 482.155l1.81 1.808 4.34-4.34-1.81-1.808-4.34 4.34z" fill="#fff"/><path d="M1028.5 484.279a.345.345 0 01-.23-.091l-1.8-1.808a.24.24 0 01-.07-.102c-.02-.038-.02-.078-.02-.12 0-.041 0-.081.02-.119a.24.24 0 01.07-.102l4.34-4.34a.317.317 0 01.22-.092c.08 0 .16.033.22.092l1.81 1.808a.38.38 0 01.07.101c.01.038.02.079.02.12a.47.47 0 01-.02.12.385.385 0 01-.07.102l-4.34 4.34a.455.455 0 01-.1.068.34.34 0 01-.12.023zm-1.37-2.121l1.37 1.365 3.9-3.9-1.37-1.365-3.9 3.9z" fill="#231F20"/><path d="M1026.94 480.426l3.21 3.209-7.83 8.975a2.12 2.12 0 01-.68.52 2.128 2.128 0 01-1.69.057 2.117 2.117 0 01-.71-.472l-1.32-1.311c-.2-.204-.36-.448-.47-.716-.1-.268-.15-.555-.14-.843 0-.289.07-.572.19-.833.13-.262.3-.495.52-.686l8.92-7.9z" fill="#fff"/><path d="M1020.73 493.804a2.615 2.615 0 01-1.83-.756l-1.31-1.312a2.591 2.591 0 01.12-3.762l8.92-7.9a.48.48 0 01.33-.118c.12.003.23.052.31.137l3.21 3.21a.43.43 0 01.14.316.433.433 0 01-.11.325l-7.83 8.975a2.613 2.613 0 01-1.86.884l-.09.001zm6.19-12.734l-8.59 7.607c-.17.149-.31.331-.4.534-.1.204-.15.425-.16.65 0 .225.04.449.12.658.08.209.21.399.37.558l1.31 1.312a1.657 1.657 0 001.22.479c.22-.008.44-.062.65-.159.2-.096.38-.233.53-.403l7.54-8.644-2.59-2.592z" fill="#231F20"/><path d="M1051.04 483.957l1.81-1.808-4.34-4.341-1.81 1.809 4.34 4.34z" fill="#fff"/><path d="M1051.05 484.27a.321.321 0 01-.22-.091l-4.34-4.34a.318.318 0 01-.1-.222c0-.083.04-.162.1-.221l1.8-1.808a.328.328 0 01.23-.088c.08 0 .16.031.22.088l4.34 4.34c.06.059.09.138.09.221 0 .083-.03.163-.09.222l-1.81 1.808a.321.321 0 01-.22.091zm-3.9-4.653l3.9 3.9 1.36-1.365-3.9-3.9-1.36 1.365z" fill="#231F20"/><path d="M1049.32 483.703l3.21-3.21 8.97 7.828c.22.19.4.424.52.685a2.052 2.052 0 01.06 1.684c-.1.27-.26.515-.47.72l-1.31 1.311c-.21.204-.45.364-.72.47a2.1 2.1 0 01-1.67-.05c-.27-.123-.5-.297-.69-.513l-7.9-8.925z" fill="#fff"/><path d="M1058.8 493.81h-.08a2.585 2.585 0 01-1.86-.87l-7.9-8.924a.487.487 0 01-.12-.326.53.53 0 01.14-.318l3.21-3.21a.49.49 0 01.32-.137c.12-.004.23.037.32.115l8.98 7.828c.26.233.48.518.63.838a2.584 2.584 0 01-.5 2.937l-1.32 1.311c-.24.24-.52.431-.83.561a2.57 2.57 0 01-.99.195zm-8.84-10.087l7.61 8.594a1.624 1.624 0 001.18.553 1.657 1.657 0 001.21-.481l1.31-1.311a1.606 1.606 0 00.48-1.218 1.625 1.625 0 00-.16-.649 1.535 1.535 0 00-.4-.533l-8.64-7.539-2.59 2.584z" fill="#231F20"/><path d="M1042.63 481.394c-1.71.697-3.57.939-5.39.705a10.649 10.649 0 01-5.04-2.044 10.633 10.633 0 01-3.38-4.26 10.648 10.648 0 011.08-10.459 10.726 10.726 0 014.17-3.482 10.675 10.675 0 0110.49.818" fill="#fff"/><path d="M1038.59 482.652a11.155 11.155 0 01-5.01-1.193 11.225 11.225 0 01-3.94-3.32 11.257 11.257 0 01-2.02-4.737c-.29-1.715-.18-3.475.33-5.14.51-1.664 1.4-3.186 2.6-4.444a11.1 11.1 0 014.32-2.798c1.64-.581 3.4-.771 5.13-.552 1.72.219 3.37.839 4.82 1.811.09.072.16.179.18.298.02.12-.01.242-.07.343-.07.1-.18.17-.29.196a.478.478 0 01-.35-.059 10.189 10.189 0 00-10.02-.783c-1.6.747-2.97 1.893-3.99 3.329a10.11 10.11 0 00-1.84 4.865c-.18 1.752.1 3.522.8 5.136a10.2 10.2 0 0013.2 5.353c.12-.043.25-.04.36.009.11.049.2.14.25.253.04.114.04.24 0 .354a.5.5 0 01-.25.254 11.1 11.1 0 01-4.21.825z" fill="#231F20"/><path d="M1080.57 438.78h-17.87v72.244h17.87V438.78z" fill="#343434"/><path d="M994.057 428.574l9.683 28.545 26.42-8.959 5.73-2.06-13.16-38.951-21.94 7.439-10.228 3.506 3.495 10.48z" fill="#fff" stroke="#343434" stroke-width="1.803" stroke-linecap="round" stroke-linejoin="round"/><path d="M1024.68 412.908l-1.02 2.84a5.89 5.89 0 01-1.44 2.256 6.031 6.031 0 01-2.27 1.41l-19.79 6.8c-.854.292-1.76.39-2.653.287a6.017 6.017 0 01-2.514-.882l-2.286-1.436" fill="#fff"/><path d="M1024.68 412.908l-1.02 2.84a5.89 5.89 0 01-1.44 2.256 6.031 6.031 0 01-2.27 1.41l-19.79 6.8c-.854.292-1.76.39-2.653.287a6.017 6.017 0 01-2.514-.882l-2.286-1.436" stroke="#343434" stroke-width="1.803" stroke-linecap="round" stroke-linejoin="round"/><path d="M1012.23 427.008a1.086 1.086 0 10-1.3-1.74 1.086 1.086 0 001.3 1.74z" fill="#fff" stroke="#212221" stroke-width="1.046" stroke-linecap="round" stroke-linejoin="round"/><path d="M1010.13 420.133a2.315 2.315 0 00.47-3.241 2.315 2.315 0 10-3.71 2.769 2.313 2.313 0 003.24.472z" fill="#fff" stroke="#212221" stroke-width="1.803" stroke-linecap="round" stroke-linejoin="round"/><path d="M1011.03 424.762l-1.36-3.898" stroke="#212221" stroke-width="1.803" stroke-linecap="round" stroke-linejoin="round"/><path d="M1011.08 418.369c.33.299.72.517 1.14.636.43.12.87.137 1.31.052" fill="#fff"/><path d="M1011.08 418.369c.33.299.72.517 1.14.636.43.12.87.137 1.31.052" stroke="#212221" stroke-width="1.803" stroke-linecap="round" stroke-linejoin="round"/><path d="M1015.67 515.291h21.38" stroke="#343434" stroke-width=".75" stroke-linecap="round" stroke-linejoin="round"/><path d="M996.711 518.327h47.339" stroke="#343434" stroke-width="1.002" stroke-linecap="round" stroke-linejoin="round"/><path d="M1019.78 393.936c5.05 0 9.14-4.096 9.14-9.148s-4.09-9.148-9.14-9.148a9.145 9.145 0 00-9.15 9.148 9.145 9.145 0 009.15 9.148z" fill="#FFF100" stroke="#212221" stroke-width=".511" stroke-linecap="round" stroke-linejoin="round"/><path d="M1016.88 393.239c5.05 0 9.15-4.096 9.15-9.148s-4.1-9.148-9.15-9.148c-5.05 0-9.15 4.096-9.15 9.148s4.1 9.148 9.15 9.148z" fill="#FFF100" stroke="#212221" stroke-width=".511" stroke-linecap="round" stroke-linejoin="round"/><path d="M1020.51 384.232c.37-.1.69-.32.92-.623.23-.304.36-.675.35-1.055.11-1.322-.93-1.958-2.33-2.333l.32-1.8-1.09-.194-.31 1.752c-.29-.05-.59-.1-.88-.145l.31-1.768-1.1-.195-.32 1.8c-.24-.037-.47-.077-.7-.116l-1.51-.276-.21 1.171s.8.126.8.142c.15.007.3.073.4.184.1.111.15.258.15.409l-.88 4.939a.624.624 0 01-.07.139.416.416 0 01-.11.104.474.474 0 01-.15.053.38.38 0 01-.15-.007c.01.015-.8-.142-.8-.142l-.45 1.27 1.43.257c.26.046.52.1.78.148l-.33 1.818 1.1.2.32-1.8c.3.057.59.112.88.162l-.33 1.8 1.1.2.33-1.818c1.86.224 3.24-.01 3.71-1.711.1-.244.16-.508.15-.774a1.881 1.881 0 00-1.33-1.791zm-3.63-.777l.38-2.16c.61.111 2.56.262 2.34 1.531-.22 1.221-2.11.736-2.72.629zm-.62 3.467l.42-2.379c.74.131 3.07.333 2.82 1.73-.24 1.344-2.51.779-3.24.649z" fill="#FFF100" stroke="#231F20" stroke-width=".511" stroke-linecap="round" stroke-linejoin="round"/><path d="M990.925 478.315c6.64 0 12.025-5.383 12.025-12.023s-5.385-12.023-12.025-12.023c-6.64 0-12.023 5.383-12.023 12.023s5.383 12.023 12.023 12.023z" fill="#FFF100" stroke="#212221" stroke-width="1.002" stroke-linecap="round" stroke-linejoin="round"/><path d="M988.164 477.792c6.64 0 12.026-5.383 12.026-12.023s-5.386-12.023-12.026-12.023-12.023 5.383-12.023 12.023 5.383 12.023 12.023 12.023z" fill="#FFF100" stroke="#212221" stroke-width="1.002" stroke-linecap="round" stroke-linejoin="round"/><path d="M991.891 465.561a2.26 2.26 0 001.666-2.206c.144-1.737-1.228-2.573-3.061-3.065l.419-2.369-1.436-.254-.413 2.3a90.112 90.112 0 00-1.157-.191l.417-2.324-1.441-.255-.42 2.368c-.316-.049-.625-.1-.923-.152v-.006l-1.988-.359-.274 1.539s1.049.165 1.045.187a.753.753 0 01.716.779l-1.16 6.491a.511.511 0 01-.234.32.534.534 0 01-.393.06c.019.021-1.045-.186-1.045-.186l-.6 1.668 1.88.339c.347.06.687.13 1.027.194l-.429 2.389 1.441.261.419-2.368c.395.074.779.147 1.153.212l-.424 2.362 1.442.256.429-2.389c2.448.3 4.254-.014 4.872-2.249a2.499 2.499 0 00-1.528-3.352v0zm-4.776-1.02l.5-2.84c.8.146 3.363.344 3.064 2.013-.283 1.604-2.762.965-3.562.827h-.002zm-.816 4.556l.557-3.127c.965.171 4.029.437 3.7 2.273-.313 1.767-3.298 1.024-4.257.854z" fill="#FFF100" stroke="#231F20" stroke-width=".501" stroke-linecap="round" stroke-linejoin="round"/><path d="M1007.35 402.56l-10.2 45-50.81-11.511 2.783-12.285 11.164-49.263 34.585 7.836s-6.082 15.381-.517 16.579c5.565 1.198 12.995 3.644 12.995 3.644z" fill="#fff" stroke="#343434" stroke-width="2.003" stroke-linecap="round" stroke-linejoin="round"/><path d="M994.871 382.337l.614.82 11.865 19.403" fill="#fff"/><path d="M994.871 382.337l.614.82 11.865 19.403" stroke="#212221" stroke-width="2.003" stroke-linecap="round" stroke-linejoin="round"/><path d="M1007.35 402.56s-7.428-2.446-12.998-3.644c-5.57-1.198.517-16.579.517-16.579l12.481 20.223zm-32.401 96.538H874l.208-76.021h100.741v76.021z" fill="#fff" stroke="#343434" stroke-width="2.003" stroke-linecap="round" stroke-linejoin="round"/><path d="M920.098 465.223l1.603 5.335m-11.392-24.793l5.173 17.216" stroke="#231F20" stroke-width="1.503" stroke-linecap="round" stroke-linejoin="round"/><path d="M874 494.415v7.53l34.985 47.42 100.205-2.427 1.28-4.536-35.397-47.249" fill="#fff"/><path d="M874 494.415v7.53l34.985 47.42 100.205-2.427 1.28-4.536-35.397-47.249" stroke="#343434" stroke-width="2.003" stroke-linecap="round" stroke-linejoin="round"/><path d="M911.438 543.423l98.752-1.563m-101.293-.418L874 494.415" stroke="#231F20" stroke-width="1.002" stroke-linecap="round" stroke-linejoin="round"/><path d="M934.922 524.345h28.271l8.956 12.193-29.111.096-8.116-12.289zm-49.949-24.976h87.234l15.521 21.489-85.354 1.263-17.401-22.752z" fill="#fff" stroke="#231F20" stroke-width="1.002" stroke-linecap="round" stroke-linejoin="round"/><path d="M971.766 495.153h-77.602m-19 0h6.71" stroke="#231F20" stroke-width="1.002" stroke-linecap="round" stroke-linejoin="round"/><path d="M908.984 549.365l1.969-5.942 99.517-1.021-1.28 4.536-100.206 2.427z" fill="#343434"/><path d="M979.24 432.898l-16.836 42.962-39.766-15.583-4.368-14.592 18.652-47.593 33.017 12.939 15.393 6.09-6.092 15.777z" fill="#FFF100" stroke="#343434" stroke-width="2.003" stroke-linecap="round" stroke-linejoin="round"/><path d="M933.523 406.759l1.259 4.107a9.907 9.907 0 005.814 6.3l29.151 11.562a9.97 9.97 0 008.579-.587l3.288-1.856" stroke="#343434" stroke-width="2.003" stroke-linecap="round" stroke-linejoin="round"/><path d="M953.517 429.308a1.65 1.65 0 10-1.8-2.768 1.65 1.65 0 001.8 2.768z" fill="#fff" stroke="#212221" stroke-width="1.152" stroke-linecap="round" stroke-linejoin="round"/><path d="M959.306 419.52a3.35 3.35 0 10-3.65-5.619 3.35 3.35 0 003.65 5.619z" fill="#fff" stroke="#212221" stroke-width="2.003" stroke-linecap="round" stroke-linejoin="round"/><path d="M953.453 426.064l2.459-6.069m-1.701-3.965a4.292 4.292 0 01-3.789.877" stroke="#212221" stroke-width="2.003" stroke-linecap="round" stroke-linejoin="round"/></g><defs><clipPath id="clip0"><path fill="#fff" d="M0 0h1096v566H0z"/></clipPath><clipPath id="clip1"><path fill="#fff" transform="translate(869.004 106.25)" d="M0 0h285.795v54.5H0z"/></clipPath><clipPath id="clip2"><path fill="#fff" transform="translate(410.039 114)" d="M0 0h285.795v54.5H0z"/></clipPath><clipPath id="clip3"><path fill="#fff" transform="translate(412 217.25)" d="M0 0h285.795v54.5H0z"/></clipPath><clipPath id="clip4"><path fill="#fff" transform="translate(867.699 218.813)" d="M0 0h207.83v57.327H0z"/></clipPath><clipPath id="clip5"><path fill="#fff" transform="translate(0 203)" d="M0 0h253.694v60H0z"/></clipPath></defs></svg>