<svg width="316" height="182" viewBox="0 0 316 182" fill="none" xmlns="http://www.w3.org/2000/svg"><g style="mix-blend-mode:multiply" clip-path="url(#clip0)"><path d="M31.134 172.015c8.445 0 15.29-6.997 15.29-15.629 0-8.631-6.845-15.628-15.29-15.628s-15.29 6.997-15.29 15.628c0 8.632 6.845 15.629 15.29 15.629z" fill="#AFAFAF"/><path fill-rule="evenodd" clip-rule="evenodd" d="M31.134 134.985c-11.583 0-20.974 9.582-20.974 21.401 0 11.82 9.391 21.401 20.974 21.401 11.584 0 20.974-9.581 20.974-21.401 0-11.819-9.39-21.401-20.974-21.401zm0 38.373a16.979 16.979 0 01-15.924-10.24 16.972 16.972 0 0112.145-23.354 16.978 16.978 0 0117.528 7.156 16.977 16.977 0 012.884 9.466 16.804 16.804 0 01-16.633 16.972z" fill="#AFAFAF"/><path d="M11.4 106.988a1.998 1.998 0 01-.78 1.679 3.392 3.392 0 01-2.118.604 5.307 5.307 0 01-2.229-.374v-.914a6.057 6.057 0 002.263.458 2.353 2.353 0 001.426-.361 1.174 1.174 0 00.48-.999 1.29 1.29 0 00-.17-.694 1.58 1.58 0 00-.569-.499 7.844 7.844 0 00-1.212-.518 3.865 3.865 0 01-1.624-.964 2.126 2.126 0 01-.488-1.454 1.813 1.813 0 01.708-1.5 2.945 2.945 0 011.872-.557 5.498 5.498 0 012.234.446l-.294.825a5.059 5.059 0 00-1.962-.424c-.417-.024-.83.09-1.176.324a1.067 1.067 0 00-.424.896c-.009.241.045.481.156.695.132.206.314.377.528.496.361.202.74.369 1.134.498a4.498 4.498 0 011.763.981c.33.373.502.859.482 1.356zm5.706 2.168v-3.951a1.59 1.59 0 00-.34-1.114 1.386 1.386 0 00-1.064-.369 1.745 1.745 0 00-1.41.525 2.65 2.65 0 00-.443 1.716v3.193h-.923v-8.671h.925v2.625c.003.263-.012.525-.045.785h.056c.189-.299.458-.54.778-.693a2.531 2.531 0 011.15-.254 2.356 2.356 0 011.678.533 2.234 2.234 0 01.56 1.69v3.985h-.922zm2.744-7.762a.613.613 0 01.156-.466.576.576 0 01.774 0 .614.614 0 01.162.463.608.608 0 01-.162.465.528.528 0 01-.384.153.522.522 0 01-.515-.368.628.628 0 01-.031-.247zm1.007 7.762h-.93v-6.109h.927l.003 6.109zm6.138 0v-3.951a1.59 1.59 0 00-.34-1.114 1.387 1.387 0 00-1.065-.369 1.757 1.757 0 00-1.404.519 2.619 2.619 0 00-.445 1.71v3.205h-.925v-6.109h.753l.15.836h.045c.193-.305.47-.547.796-.7a2.587 2.587 0 011.142-.247 2.317 2.317 0 011.661.532 2.268 2.268 0 01.557 1.702v3.984l-.925.002zm1.857-6.108h.991l1.337 3.483c.222.561.404 1.136.547 1.722h.044c.048-.189.15-.513.303-.972.154-.459.659-1.87 1.514-4.233h.992l-2.624 6.955a3.47 3.47 0 01-.912 1.462c-.36.293-.814.446-1.279.432a3.674 3.674 0 01-.836-.094v-.739c.226.047.456.07.686.067a1.408 1.408 0 001.36-1.069l.34-.869-2.463-6.145zm12.123 6.219a2.603 2.603 0 01-2.053-.816 3.358 3.358 0 01-.727-2.309 3.462 3.462 0 01.738-2.369 2.646 2.646 0 012.103-.836c.297 0 .592.032.882.095.238.045.47.12.69.222l-.284.787a4.251 4.251 0 00-.671-.202 2.946 2.946 0 00-.642-.08c-1.24 0-1.86.791-1.86 2.373-.04.61.12 1.216.453 1.728a1.588 1.588 0 001.343.604 4.134 4.134 0 001.566-.329v.819a3.344 3.344 0 01-1.538.313zm8.265-3.17a3.37 3.37 0 01-.751 2.332 2.656 2.656 0 01-2.081.838 2.761 2.761 0 01-1.454-.384 2.543 2.543 0 01-.98-1.104 3.833 3.833 0 01-.347-1.682 3.363 3.363 0 01.747-2.327 2.641 2.641 0 012.073-.833 2.577 2.577 0 012.037.852c.531.648.801 1.471.757 2.308zm-4.652 0c-.041.63.124 1.256.47 1.783a1.85 1.85 0 001.378.611 1.862 1.862 0 001.378-.611 2.88 2.88 0 00.47-1.785 2.832 2.832 0 00-.47-1.769 1.655 1.655 0 00-1.39-.604 1.63 1.63 0 00-1.371.596 2.872 2.872 0 00-.465 1.779zm6.196-4.703a.613.613 0 01.155-.466.576.576 0 01.774 0 .615.615 0 01.163.463.615.615 0 01-.163.465.567.567 0 01-.774 0 .629.629 0 01-.155-.462zm1.003 7.762h-.925v-6.109h.925v6.109zm6.142 0v-3.951a1.594 1.594 0 00-.34-1.114 1.386 1.386 0 00-1.065-.369 1.755 1.755 0 00-1.403.519 2.611 2.611 0 00-.446 1.71v3.205h-.925v-6.109h.752l.15.836h.045c.193-.305.47-.548.797-.7a2.586 2.586 0 011.141-.247 2.315 2.315 0 011.661.532 2.269 2.269 0 01.557 1.702v3.984l-.924.002zm55.269-5.884a2.27 2.27 0 01-.844 1.903 3.831 3.831 0 01-2.417.666h-.959v3.204h-.947v-8.147h2.113c2.036 0 3.054.791 3.054 2.374zm-4.219 1.756h.853c.635.05 1.27-.092 1.822-.408.195-.153.348-.353.446-.581.099-.227.139-.475.117-.722a1.405 1.405 0 00-.529-1.204 2.763 2.763 0 00-1.65-.395h-1.059v3.31zm11.054.957a3.37 3.37 0 01-.752 2.332 2.65 2.65 0 01-2.081.839 2.76 2.76 0 01-1.454-.384 2.54 2.54 0 01-.981-1.104 3.857 3.857 0 01-.345-1.683c-.05-.841.218-1.67.75-2.324a2.638 2.638 0 012.073-.833 2.59 2.59 0 012.036.853c.53.648.799 1.469.754 2.304zm-4.652 0c-.042.63.123 1.256.469 1.784a1.87 1.87 0 001.377.61 1.856 1.856 0 001.376-.61 2.888 2.888 0 00.47-1.786 2.838 2.838 0 00-.47-1.769 1.654 1.654 0 00-1.39-.604 1.628 1.628 0 00-1.371.596 2.865 2.865 0 00-.461 1.779zm10.215 1.393a1.527 1.527 0 01-.635 1.315c-.531.338-1.155.5-1.783.463a3.896 3.896 0 01-1.894-.384v-.859c.301.152.617.269.944.351.318.084.644.127.972.129.386.021.77-.058 1.115-.232a.801.801 0 00.319-1.014.795.795 0 00-.238-.301 4.915 4.915 0 00-1.208-.599 6.54 6.54 0 01-1.209-.554 1.66 1.66 0 01-.537-.537 1.402 1.402 0 01-.176-.719 1.38 1.38 0 01.604-1.179 2.841 2.841 0 011.667-.432c.664.002 1.32.139 1.928.403l-.329.752a4.41 4.41 0 00-1.666-.378 1.912 1.912 0 00-.991.205.628.628 0 00-.247.238.63.63 0 00-.089.331.693.693 0 00.125.418c.109.137.247.249.403.328.346.174.704.324 1.07.452.54.159 1.04.431 1.468.797a1.413 1.413 0 01.387 1.006zm1.426-6.096a.619.619 0 01.156-.465.576.576 0 01.775 0 .61.61 0 01.161.462.606.606 0 01-.161.466.546.546 0 01-.385.153.538.538 0 01-.39-.153.624.624 0 01-.156-.463zm1.007 7.762h-.925v-6.108h.925v6.108zm3.933-.651c.159 0 .317-.012.474-.037.122-.018.243-.043.362-.075v.708c-.142.06-.291.1-.443.12a3.44 3.44 0 01-.526.047c-1.182 0-1.773-.622-1.773-1.866v-3.633h-.872v-.447l.872-.384.39-1.304h.537v1.415h1.773v.72h-1.773v3.593c-.02.305.073.607.263.847a.904.904 0 00.716.296zm1.978-7.111a.601.601 0 01.156-.465.576.576 0 01.774 0 .595.595 0 01.162.462.606.606 0 01-.162.466.547.547 0 01-.384.153.538.538 0 01-.39-.153.624.624 0 01-.156-.463zm1.003 7.762h-.925v-6.108h.925v6.108zm3.297 0l-2.318-6.108h.992l1.315 3.625c.297.846.471 1.396.524 1.649h.044c.108-.414.238-.822.388-1.223.217-.618.704-1.968 1.462-4.049h.992l-2.318 6.109-1.081-.003zm6.959.112a2.814 2.814 0 01-2.137-.825 3.194 3.194 0 01-.783-2.29 3.54 3.54 0 01.728-2.35 2.414 2.414 0 011.953-.869 2.303 2.303 0 011.816.755c.466.557.705 1.268.671 1.993v.584h-4.207a2.434 2.434 0 00.543 1.634 1.89 1.89 0 001.452.557 4.93 4.93 0 001.951-.412v.83c-.299.132-.61.233-.928.304a5.297 5.297 0 01-1.059.089zm-.251-5.555a1.505 1.505 0 00-1.173.478c-.313.374-.494.84-.515 1.327h3.195a2.042 2.042 0 00-.39-1.343 1.38 1.38 0 00-1.117-.462zm9.618 5.555a2.798 2.798 0 01-2.137-.825 3.198 3.198 0 01-.783-2.29 3.544 3.544 0 01.727-2.35 2.423 2.423 0 011.953-.869 2.297 2.297 0 011.817.755c.465.557.705 1.268.671 1.993v.584h-4.206a2.423 2.423 0 00.542 1.634 1.88 1.88 0 001.452.557 4.927 4.927 0 001.951-.412v.83c-.299.131-.61.233-.929.304a5.28 5.28 0 01-1.058.089zm-.251-5.555a1.505 1.505 0 00-1.172.478c-.314.373-.496.84-.516 1.327h3.193a2.042 2.042 0 00-.39-1.343 1.377 1.377 0 00-1.115-.462zm5.545 2.318l-2.124-2.982h1.054l1.611 2.341 1.606-2.341h1.041l-2.123 2.982 2.235 3.125h-1.047l-1.712-2.474-1.727 2.474h-1.049l2.235-3.125zm7.349 3.237a2.649 2.649 0 01-1.089-.22 2.053 2.053 0 01-.828-.677h-.067c.043.336.066.675.067 1.014v2.511h-.925v-8.847h.753l.128.836h.044c.21-.31.496-.559.831-.725a2.553 2.553 0 011.086-.223 2.258 2.258 0 011.875.831 4.42 4.42 0 01-.011 4.667 2.267 2.267 0 01-1.864.833zm-.134-5.545a1.64 1.64 0 00-1.353.519 2.665 2.665 0 00-.43 1.649v.206a3.053 3.053 0 00.43 1.842 1.636 1.636 0 001.376.555 1.43 1.43 0 001.239-.641 3.036 3.036 0 00.449-1.767 2.929 2.929 0 00-.449-1.753 1.473 1.473 0 00-1.262-.61zm6.866 5.545a2.814 2.814 0 01-2.137-.825 3.198 3.198 0 01-.783-2.29 3.546 3.546 0 01.727-2.35 2.418 2.418 0 011.954-.869 2.297 2.297 0 011.816.755 2.9 2.9 0 01.672 1.993v.584h-4.207a2.418 2.418 0 00.543 1.634 1.877 1.877 0 001.451.557 4.927 4.927 0 001.951-.412v.83c-.299.132-.61.233-.929.303a5.21 5.21 0 01-1.058.09zm-.251-5.555a1.505 1.505 0 00-1.172.478c-.314.373-.496.84-.516 1.327h3.193a2.037 2.037 0 00-.39-1.343 1.377 1.377 0 00-1.115-.462zm6.862-.776c.245-.002.49.02.731.068l-.129.857a3.234 3.234 0 00-.672-.083c-.243 0-.483.054-.702.159-.22.104-.413.256-.566.445a2.197 2.197 0 00-.526 1.499v3.276h-.922v-6.109h.763l.106 1.132h.045c.198-.366.478-.68.819-.919.31-.213.677-.327 1.053-.325zm1.794-1.543a.619.619 0 01.156-.465.576.576 0 01.774 0 .595.595 0 01.162.462.623.623 0 01-.162.466.567.567 0 01-.774 0 .624.624 0 01-.156-.463zm1.003 7.762h-.925v-6.108h.925v6.108zm4.537.112a2.814 2.814 0 01-2.137-.825 3.193 3.193 0 01-.782-2.29 3.533 3.533 0 01.727-2.35 2.414 2.414 0 011.952-.869 2.297 2.297 0 011.817.755c.466.557.705 1.268.671 1.993v.584h-4.209a2.424 2.424 0 00.543 1.634 1.877 1.877 0 001.451.557 4.927 4.927 0 001.951-.412v.83a4.964 4.964 0 01-.928.304 5.267 5.267 0 01-1.056.089zm-.251-5.555a1.52 1.52 0 00-1.173.478c-.313.374-.494.84-.515 1.327h3.193a2.032 2.032 0 00-.391-1.343 1.366 1.366 0 00-1.114-.462zm8.255 5.443v-3.95a1.594 1.594 0 00-.341-1.115 1.388 1.388 0 00-1.064-.367 1.75 1.75 0 00-1.403.518 2.61 2.61 0 00-.446 1.71v3.204h-.925v-6.108h.752l.15.835h.045c.194-.304.47-.546.796-.699a2.603 2.603 0 011.142-.248 2.323 2.323 0 011.66.532 2.277 2.277 0 01.558 1.703v3.984l-.924.001zm5.269.112a2.605 2.605 0 01-2.054-.816 3.36 3.36 0 01-.727-2.31 3.462 3.462 0 01.739-2.369 2.663 2.663 0 012.103-.836c.296.001.591.033.881.096.239.045.471.12.691.223l-.282.786a4.469 4.469 0 00-.671-.202 3.007 3.007 0 00-.641-.08c-1.241 0-1.861.791-1.861 2.374-.04.609.12 1.215.454 1.727a1.576 1.576 0 001.342.604 4.11 4.11 0 001.566-.329v.819a3.326 3.326 0 01-1.54.313zm5.571 0a2.798 2.798 0 01-2.137-.825 3.198 3.198 0 01-.783-2.29 3.544 3.544 0 01.727-2.35 2.423 2.423 0 011.953-.869 2.297 2.297 0 011.817.755c.465.557.705 1.268.671 1.993v.584h-4.206a2.428 2.428 0 00.542 1.634 1.88 1.88 0 001.452.557 4.927 4.927 0 001.951-.412v.83c-.299.132-.61.233-.929.303a5.21 5.21 0 01-1.058.09zm-.251-5.555a1.505 1.505 0 00-1.172.478c-.314.373-.495.84-.516 1.327h3.193a2.037 2.037 0 00-.39-1.343 1.37 1.37 0 00-1.115-.462z" fill="#111"/><path fill-rule="evenodd" clip-rule="evenodd" d="M175.822 151.496c0 .021-.006.041-.008.062.004.119 0 .239-.013.358a2.609 2.609 0 01-.063.261 17.703 17.703 0 01-6.723 11.687 17.126 17.126 0 01-12.875 3.394 17.09 17.09 0 01-6.399-2.276 17.104 17.104 0 01-5.011-4.585 17.8 17.8 0 01-3.322-8.202 2.46 2.46 0 01-.094-.759c0-.016-.004-.032-.005-.048h.008a2.414 2.414 0 01.929-1.813 2.335 2.335 0 011.763-.464 2.347 2.347 0 011.562.939c.29.394.456.866.474 1.355h.013a12.947 12.947 0 002.439 6.094 12.45 12.45 0 008.305 4.994 12.45 12.45 0 009.371-2.47 12.89 12.89 0 004.9-8.539h.017c0-.079 0-.157.008-.237a2.366 2.366 0 014.059-1.359c.416.434.651 1.01.659 1.611l.006-.003z" fill="#AFAFAF"/><path d="M284.567 134.827c-11.394 0-20.629 9.501-20.629 21.222 0 11.72 9.235 21.22 20.629 21.22 11.393 0 20.629-9.501 20.629-21.22a21.536 21.536 0 00-6.042-15.006 20.338 20.338 0 00-14.587-6.216zm9.227 33.052a14.425 14.425 0 01-18.174.218 15.44 15.44 0 01-4.579-18.095.99.99 0 01.788-.599.972.972 0 01.9.403 1.038 1.038 0 01.109 1.002 13.397 13.397 0 003.971 15.687 12.51 12.51 0 0015.756-.188.957.957 0 01.984-.181.993.993 0 01.627.805 1.02 1.02 0 01-.384.95l.002-.002z" fill="#AFAFAF"/><path opacity=".25" fill-rule="evenodd" clip-rule="evenodd" d="M220.63 165.571a.818.818 0 01-.644-1.319l4.62-5.967-4.626-6.139a.829.829 0 01-.173-.613.821.821 0 01.613-.691.808.808 0 01.866.319l5.002 6.638a.82.82 0 01-.006.993l-5.002 6.461a.821.821 0 01-.65.318zm-127 0a.816.816 0 01-.644-1.319l4.62-5.967-4.626-6.139a.814.814 0 01-.069-.921.814.814 0 01.833-.398.814.814 0 01.542.334l5.002 6.638a.82.82 0 01-.006.993l-5.002 6.461a.824.824 0 01-.65.318z" fill="#111"/><path fill-rule="evenodd" clip-rule="evenodd" d="M129.25 29.766c0-16.358 13.261-29.62 29.62-29.62a29.62 29.62 0 0129.62 29.62c0 16.359-13.261 29.62-29.62 29.62s-29.62-13.261-29.62-29.62zm16.77 16.817a21.177 21.177 0 0026.096-.303h-.003a1.409 1.409 0 10-1.762-2.194 18.36 18.36 0 01-28.324-21.633 1.408 1.408 0 00-2.581-1.126 21.176 21.176 0 006.574 25.256z" fill="#231F20"/><path d="M274.475 110.997l-2.602-6.797h-.042c.049.538.074 1.178.074 1.92v4.877h-.824v-7.668h1.343l2.428 6.325h.042l2.449-6.325h1.333v7.668h-.892v-4.94c0-.567.025-1.182.073-1.847h-.041l-2.623 6.787h-.718zm9.713 0l-.173-.818h-.042c-.287.36-.574.605-.861.734-.283.126-.638.189-1.064.189-.57 0-1.018-.147-1.343-.441-.321-.293-.482-.711-.482-1.253 0-1.161.928-1.769 2.785-1.825l.975-.032v-.356c0-.451-.098-.784-.294-.997-.192-.217-.501-.325-.928-.325-.479 0-1.021.147-1.626.441l-.267-.666c.283-.154.592-.275.928-.362a4.034 4.034 0 011.018-.131c.685 0 1.192.152 1.52.456.333.304.499.792.499 1.463v3.923h-.645zm-1.967-.614c.542 0 .967-.148 1.274-.445.312-.298.467-.714.467-1.249v-.519l-.87.037c-.693.024-1.193.133-1.5.325-.305.189-.457.484-.457.886 0 .315.095.555.284.719.192.164.459.246.802.246zm7.033-5.239c.255 0 .484.021.687.063l-.121.808a2.923 2.923 0 00-.629-.079c-.465 0-.864.189-1.196.566-.328.378-.493.848-.493 1.411v3.084h-.87v-5.748h.718l.1 1.065h.042c.213-.375.47-.663.771-.866.3-.203.631-.304.991-.304zm2.622 2.911c.15-.214.379-.493.687-.839l1.857-1.967h1.033l-2.329 2.449 2.492 3.299h-1.055l-2.029-2.717-.656.567v2.15h-.86v-8.161h.86v4.327c0 .192-.014.49-.042.892h.042z" fill="#000"/><path fill="#FEF200" d="M0 151.281h315.649v13.955H0z"/></g><defs><clipPath id="clip0"><path fill="#fff" d="M0 0h316v182H0z"/></clipPath></defs></svg>