<svg width="1096" height="271" viewBox="0 0 1096 271" fill="none" xmlns="http://www.w3.org/2000/svg"><g style="mix-blend-mode:multiply" clip-path="url(#clip0)"><path d="M259.398 262.199c12.579 0 22.777-10.423 22.777-23.281 0-12.858-10.198-23.281-22.777-23.281s-22.777 10.423-22.777 23.281c0 12.858 10.198 23.281 22.777 23.281z" fill="#AFAFAF"/><path fill-rule="evenodd" clip-rule="evenodd" d="M259.4 207.038c-17.255 0-31.244 14.273-31.244 31.88s13.989 31.88 31.244 31.88 31.244-14.273 31.244-31.88-13.988-31.88-31.244-31.88zm0 57.161a25.286 25.286 0 1124.777-25.281 25.034 25.034 0 01-24.777 25.281z" fill="#AFAFAF"/><path d="M230 159.374a2.973 2.973 0 01-1.162 2.5 5.038 5.038 0 01-3.155.9 7.901 7.901 0 01-3.32-.557v-1.361a9.025 9.025 0 003.37.682 3.507 3.507 0 002.125-.537 1.745 1.745 0 00.714-1.489 1.919 1.919 0 00-.253-1.034 2.34 2.34 0 00-.847-.743 11.724 11.724 0 00-1.805-.772 5.768 5.768 0 01-2.42-1.435 3.174 3.174 0 01-.727-2.167 2.717 2.717 0 01.257-1.245c.184-.388.457-.727.798-.989a4.392 4.392 0 012.789-.83 8.234 8.234 0 013.328.664l-.439 1.229a7.537 7.537 0 00-2.922-.631 2.825 2.825 0 00-1.752.483 1.592 1.592 0 00-.631 1.335c-.014.359.066.715.232 1.034a2.2 2.2 0 00.786.739c.538.301 1.104.55 1.689.743a6.682 6.682 0 012.627 1.461c.491.556.748 1.279.718 2.02zm8.5 3.229v-5.885a2.368 2.368 0 00-.507-1.66 2.075 2.075 0 00-1.585-.549 2.594 2.594 0 00-2.1.781 3.96 3.96 0 00-.66 2.557v4.756h-1.375v-12.916h1.378v3.91c.005.391-.017.782-.066 1.17h.083a2.798 2.798 0 011.158-1.033 3.767 3.767 0 011.714-.378 3.509 3.509 0 012.5.793 3.335 3.335 0 01.834 2.518v5.936H238.5zm4.089-11.563a.916.916 0 01.233-.693.861.861 0 011.153 0 .896.896 0 01.241.689.918.918 0 01-.241.693.791.791 0 01-.573.228.798.798 0 01-.58-.228.923.923 0 01-.233-.689zm1.5 11.563h-1.384v-9.1h1.379l.005 9.1zm9.144 0v-5.885a2.375 2.375 0 00-.506-1.66 2.079 2.079 0 00-1.586-.549 2.618 2.618 0 00-2.092.773 3.896 3.896 0 00-.664 2.547v4.774h-1.377v-9.1h1.121l.223 1.245h.067c.288-.453.7-.815 1.187-1.042a3.853 3.853 0 011.7-.369 3.457 3.457 0 012.475.793 3.383 3.383 0 01.83 2.535v5.936l-1.378.002zm2.767-9.098h1.477l1.992 5.188c.33.835.602 1.692.814 2.565h.066c.072-.282.223-.765.452-1.448.229-.683.981-2.785 2.254-6.305h1.478l-3.909 10.36a5.157 5.157 0 01-1.358 2.178 2.884 2.884 0 01-1.905.644c-.419 0-.837-.047-1.245-.141v-1.1c.336.069.678.103 1.021.1a2.102 2.102 0 002.026-1.593l.506-1.295-3.669-9.153zm18.059 9.264a3.882 3.882 0 01-3.059-1.216 5 5 0 01-1.083-3.44 5.158 5.158 0 011.1-3.529 3.962 3.962 0 013.133-1.245c.441 0 .881.048 1.313.141.355.068.701.18 1.029.332l-.424 1.171a6.462 6.462 0 00-1-.3 4.389 4.389 0 00-.955-.12c-1.848 0-2.772 1.178-2.772 3.535a4.206 4.206 0 00.676 2.574 2.35 2.35 0 002 .9 6.137 6.137 0 002.333-.49v1.22a4.988 4.988 0 01-2.291.467zm12.308-4.723a5.018 5.018 0 01-1.12 3.474 3.95 3.95 0 01-3.1 1.249 4.104 4.104 0 01-2.166-.572 3.792 3.792 0 01-1.461-1.645 5.711 5.711 0 01-.515-2.506 5.016 5.016 0 011.113-3.466 3.941 3.941 0 013.088-1.241 3.834 3.834 0 011.659.295c.525.219.994.552 1.374.975a4.996 4.996 0 011.128 3.437zm-6.931 0a4.336 4.336 0 00.7 2.657c.26.287.577.516.93.673a2.784 2.784 0 002.246 0c.353-.157.67-.386.929-.673a4.29 4.29 0 00.7-2.66 4.214 4.214 0 00-.7-2.635 2.454 2.454 0 00-2.07-.9 2.43 2.43 0 00-2.043.889 4.28 4.28 0 00-.692 2.649zm9.232-7.006a.917.917 0 01.232-.693.857.857 0 011.153 0 .91.91 0 01.242.689.904.904 0 01-.049.372.9.9 0 01-.193.321.844.844 0 01-1.153 0 .918.918 0 01-.232-.689zm1.494 11.563h-1.378v-9.1h1.378v9.1zm9.149 0v-5.885a2.375 2.375 0 00-.506-1.66 2.079 2.079 0 00-1.586-.549 2.616 2.616 0 00-2.091.773 3.884 3.884 0 00-.664 2.547v4.774h-1.378v-9.1h1.12l.224 1.245h.067c.288-.454.7-.815 1.187-1.042a3.856 3.856 0 011.7-.369 3.454 3.454 0 012.474.793 3.368 3.368 0 01.83 2.535v5.936l-1.377.002zm180.648-8.766a3.399 3.399 0 01-1.258 2.835 5.698 5.698 0 01-3.6.992h-1.428v4.773h-1.411v-12.136h3.147c3.032 0 4.549 1.179 4.55 3.536zm-6.285 2.616h1.271a4.72 4.72 0 002.714-.607 2.23 2.23 0 00.839-1.942 2.104 2.104 0 00-.789-1.793 4.118 4.118 0 00-2.457-.589h-1.578v4.931zm16.469 1.427a5.018 5.018 0 01-1.12 3.474 3.95 3.95 0 01-3.1 1.249 4.102 4.102 0 01-2.166-.572 3.784 3.784 0 01-1.461-1.644 5.729 5.729 0 01-.514-2.507 5.013 5.013 0 011.118-3.462 3.933 3.933 0 013.088-1.241 3.834 3.834 0 013.033 1.271 4.994 4.994 0 011.122 3.432zm-6.93 0a4.323 4.323 0 00.7 2.657 2.775 2.775 0 002.05.909 2.774 2.774 0 002.05-.909 4.29 4.29 0 00.7-2.66 4.214 4.214 0 00-.7-2.635 2.457 2.457 0 00-2.071-.9 2.433 2.433 0 00-2.042.888 4.28 4.28 0 00-.687 2.65zm15.215 2.075a2.28 2.28 0 01-.946 1.959 4.449 4.449 0 01-2.656.689 5.791 5.791 0 01-2.822-.572v-1.279c.448.226.92.401 1.407.523.472.124.959.188 1.448.191a3.27 3.27 0 001.66-.345 1.195 1.195 0 00.578-.947 1.182 1.182 0 00-.457-1.012 7.3 7.3 0 00-1.8-.892 9.735 9.735 0 01-1.8-.826 2.447 2.447 0 01-.8-.8 2.074 2.074 0 01-.262-1.07 2.04 2.04 0 01.9-1.756 4.22 4.22 0 012.483-.644 7.261 7.261 0 012.872.6l-.49 1.121a6.583 6.583 0 00-2.482-.564 2.863 2.863 0 00-1.477.306.95.95 0 00-.5.847c-.007.222.058.441.186.623.163.204.367.37.6.489.516.258 1.048.483 1.594.673a5.965 5.965 0 012.187 1.187 2.102 2.102 0 01.577 1.499zm2.122-9.081a.936.936 0 01.233-.693.86.86 0 011.154 0 .893.893 0 01.24.689.922.922 0 01-.24.693.795.795 0 01-.573.228.804.804 0 01-.581-.228.932.932 0 01-.233-.689zm1.5 11.563h-1.378v-9.1h1.378v9.1zm5.859-.971a4.4 4.4 0 00.706-.054c.181-.027.361-.064.539-.112v1.054c-.211.09-.433.15-.66.179-.26.044-.522.067-.784.07-1.76 0-2.64-.927-2.64-2.78v-5.412h-1.3v-.665l1.3-.573.581-1.942h.8v2.108h2.64v1.072h-2.64v5.353c-.031.455.108.904.391 1.262a1.35 1.35 0 001.067.44zm2.946-10.592a.916.916 0 01.233-.693.86.86 0 011.153 0 .91.91 0 01.194.319.913.913 0 01.047.37.918.918 0 01-.241.693.791.791 0 01-.572.228.803.803 0 01-.581-.228.925.925 0 01-.233-.689zm1.494 11.563h-1.378v-9.1h1.378v9.1zm4.913 0l-3.453-9.1h1.478l1.959 5.4c.442 1.261.702 2.08.78 2.457h.066c.16-.617.353-1.225.578-1.822.322-.921 1.048-2.931 2.178-6.031h1.478l-3.453 9.1-1.611-.004zm10.366.166a4.188 4.188 0 01-1.723-.274 4.188 4.188 0 01-1.46-.955 4.753 4.753 0 01-1.167-3.411 5.27 5.27 0 011.084-3.5 3.606 3.606 0 012.909-1.295 3.423 3.423 0 012.706 1.125 4.316 4.316 0 011 2.968v.871h-6.267a3.612 3.612 0 00.809 2.433 2.788 2.788 0 002.162.83c1-.004 1.989-.213 2.906-.614v1.237a7.397 7.397 0 01-1.382.452 7.795 7.795 0 01-1.577.133zm-.374-8.275a2.247 2.247 0 00-1.747.713 3.304 3.304 0 00-.768 1.976h4.759a3.041 3.041 0 00-.581-2 2.042 2.042 0 00-1.663-.689zm14.331 8.275a4.185 4.185 0 01-3.184-1.229 4.757 4.757 0 01-1.166-3.411 5.271 5.271 0 011.083-3.5 3.606 3.606 0 012.909-1.295 3.423 3.423 0 012.706 1.125 4.316 4.316 0 011 2.968v.871h-6.266c-.037.883.25 1.748.808 2.433a2.8 2.8 0 002.163.83c1-.004 1.989-.213 2.906-.614v1.237a7.383 7.383 0 01-1.383.452 7.792 7.792 0 01-1.576.133zm-.374-8.275a2.247 2.247 0 00-1.747.713 3.28 3.28 0 00-.768 1.976h4.756a3.04 3.04 0 00-.581-2 2.054 2.054 0 00-.75-.537 2.054 2.054 0 00-.91-.152zm8.259 3.453l-3.163-4.442h1.57l2.4 3.487 2.392-3.487h1.551l-3.163 4.442 3.329 4.656h-1.56l-2.549-3.686-2.573 3.686h-1.563l3.329-4.656zm10.948 4.822a3.934 3.934 0 01-1.623-.328 3.05 3.05 0 01-1.233-1.008h-.1c.064.501.097 1.006.1 1.511v3.74h-1.378v-13.179h1.121l.191 1.245h.066a3.214 3.214 0 011.237-1.079 3.775 3.775 0 011.619-.332 3.363 3.363 0 012.793 1.238 6.593 6.593 0 01-.017 6.951 3.376 3.376 0 01-2.776 1.241zm-.2-8.259a2.43 2.43 0 00-2.016.772 3.963 3.963 0 00-.64 2.457v.307c-.083.959.141 1.92.64 2.743a2.435 2.435 0 002.05.827 2.129 2.129 0 001.846-.955c.486-.788.72-1.706.668-2.631a4.36 4.36 0 00-.668-2.612 2.202 2.202 0 00-1.88-.908zm10.226 8.259a4.188 4.188 0 01-1.723-.274 4.192 4.192 0 01-1.461-.955 4.757 4.757 0 01-1.166-3.411 5.282 5.282 0 011.083-3.5 3.606 3.606 0 012.91-1.295 3.435 3.435 0 012.706 1.125 4.307 4.307 0 011 2.968v.871h-6.267a3.612 3.612 0 00.809 2.433 2.805 2.805 0 002.162.83 7.32 7.32 0 002.906-.614v1.237a7.383 7.383 0 01-1.383.452 7.78 7.78 0 01-1.576.133zm-.374-8.275a2.25 2.25 0 00-1.747.713 3.292 3.292 0 00-.768 1.976h4.756a3.028 3.028 0 00-.581-2 2.046 2.046 0 00-1.66-.689zm10.222-1.155c.365-.004.729.03 1.088.1l-.192 1.278a4.686 4.686 0 00-1-.124 2.432 2.432 0 00-1.889.9 3.265 3.265 0 00-.784 2.232v4.881h-1.374v-9.1h1.137l.158 1.686h.067a3.993 3.993 0 011.22-1.37 2.745 2.745 0 011.569-.483zm2.672-2.299a.918.918 0 01.232-.693.86.86 0 011.153 0 .896.896 0 01.241.689.903.903 0 01-.241.693.844.844 0 01-1.153 0 .948.948 0 01-.186-.321.954.954 0 01-.046-.368zm1.494 11.563h-1.378v-9.1h1.378v9.1zm6.763.166a4.18 4.18 0 01-3.183-1.229 4.748 4.748 0 01-1.166-3.411 5.266 5.266 0 011.083-3.5 3.606 3.606 0 012.909-1.295 3.423 3.423 0 012.706 1.125 4.316 4.316 0 011 2.968v.871h-6.271a3.612 3.612 0 00.809 2.433 2.788 2.788 0 002.162.83c1-.004 1.989-.213 2.906-.614v1.237a7.397 7.397 0 01-1.382.452 7.835 7.835 0 01-1.573.133zm-.374-8.275a2.245 2.245 0 00-1.747.713 3.284 3.284 0 00-.767 1.976h4.756a3.035 3.035 0 00-.582-2 2.054 2.054 0 00-.75-.537 2.054 2.054 0 00-.91-.152zm12.296 8.109v-5.885a2.37 2.37 0 00-.507-1.66 2.058 2.058 0 00-1.585-.548 2.596 2.596 0 00-1.132.152 2.6 2.6 0 00-.959.62 3.899 3.899 0 00-.664 2.548v4.773h-1.378v-9.1h1.121l.223 1.245h.067c.288-.453.7-.814 1.186-1.042a3.856 3.856 0 011.7-.369 3.459 3.459 0 012.474.793 3.38 3.38 0 01.83 2.536v5.935l-1.376.002zm7.846.166a3.88 3.88 0 01-3.059-1.216 4.994 4.994 0 01-1.083-3.44 5.158 5.158 0 011.1-3.529 3.965 3.965 0 013.133-1.245c.441 0 .881.048 1.312.142.356.067.702.179 1.03.332l-.42 1.171a6.607 6.607 0 00-1-.3 4.523 4.523 0 00-.955-.12c-1.848 0-2.772 1.179-2.772 3.536a4.205 4.205 0 00.676 2.573 2.345 2.345 0 002 .9 6.118 6.118 0 002.333-.49v1.22a4.966 4.966 0 01-2.295.466zm8.299 0a4.169 4.169 0 01-3.184-1.229 4.757 4.757 0 01-1.166-3.411 5.271 5.271 0 011.083-3.5 3.607 3.607 0 012.909-1.295 3.423 3.423 0 012.706 1.125 4.307 4.307 0 011 2.968v.871h-6.266c-.037.883.25 1.748.808 2.433a2.814 2.814 0 002.163.83c1-.004 1.989-.213 2.906-.614v1.237a7.383 7.383 0 01-1.383.452 7.78 7.78 0 01-1.576.133zm-.374-8.275a2.25 2.25 0 00-1.747.713 3.292 3.292 0 00-.768 1.976h4.756a3.028 3.028 0 00-.581-2 2.04 2.04 0 00-1.66-.689z" fill="#111"/><path fill-rule="evenodd" clip-rule="evenodd" d="M573.248 231.633c0 .031-.008.061-.012.092.007.178 0 .357-.019.534a3.728 3.728 0 01-.093.389 26.375 26.375 0 01-10.016 17.409 25.51 25.51 0 01-9.077 4.47 25.49 25.49 0 01-27.098-9.635 26.498 26.498 0 01-4.949-12.217 3.692 3.692 0 01-.14-1.131c0-.024-.006-.048-.008-.072h.012a3.6 3.6 0 011.385-2.7 3.49 3.49 0 014.952.707c.433.587.679 1.29.707 2.019h.019a19.304 19.304 0 003.633 9.078 18.534 18.534 0 005.433 4.972 18.545 18.545 0 0020.898-1.213 19.197 19.197 0 007.3-12.72h.024c0-.117 0-.233.013-.353a3.526 3.526 0 017.027.375l.009-.004z" fill="#AFAFAF"/><path d="M835.043 206.803c-16.972 0-30.731 14.153-30.731 31.612 0 17.459 13.759 31.611 30.731 31.611s30.73-14.153 30.73-31.611a32.086 32.086 0 00-9-22.353 30.29 30.29 0 00-21.73-9.259zm13.745 49.235a21.49 21.49 0 01-27.073.325 23.006 23.006 0 01-6.822-26.955 1.472 1.472 0 011.175-.892 1.442 1.442 0 011.341.6 1.536 1.536 0 01.163 1.493 19.947 19.947 0 005.915 23.367 18.628 18.628 0 0023.469-.279 1.432 1.432 0 012.099.201c.164.211.268.463.302.728.038.265.005.536-.095.785a1.524 1.524 0 01-.478.63l.004-.003z" fill="#AFAFAF"/><path opacity=".25" fill-rule="evenodd" clip-rule="evenodd" d="M687.666 252.6a1.22 1.22 0 01-1.21-1.343c.023-.227.11-.442.25-.622l6.882-8.889-6.891-9.144a1.228 1.228 0 01-.258-.913 1.225 1.225 0 01.913-1.031 1.228 1.228 0 01.938.146c.138.085.258.198.353.331l7.451 9.888a1.215 1.215 0 01-.009 1.479l-7.452 9.624a1.214 1.214 0 01-.967.474zm-287.5 0a1.22 1.22 0 01-1.21-1.343 1.22 1.22 0 01.25-.622l6.882-8.889-6.891-9.144a1.228 1.228 0 01-.258-.913 1.225 1.225 0 01.913-1.031 1.228 1.228 0 01.938.146c.138.085.258.198.353.331l7.451 9.888a1.215 1.215 0 01-.009 1.479l-7.452 9.624a1.214 1.214 0 01-.967.474z" fill="#111"/><path fill-rule="evenodd" clip-rule="evenodd" d="M503.875 44.341c0-24.368 19.755-44.123 44.123-44.123a44.123 44.123 0 0144.124 44.123c0 24.369-19.755 44.124-44.124 44.124-24.368 0-44.123-19.755-44.123-44.124zm24.979 25.052c11.522 8.8 27.559 8.613 38.874-.453h-.005a2.097 2.097 0 10-2.625-3.267c-9.809 7.858-23.712 8.019-33.7.39-9.988-7.63-13.492-21.084-8.492-32.615a2.097 2.097 0 10-3.846-1.678c-5.769 13.302-1.728 28.823 9.794 37.623z" fill="#231F20"/><path d="M820.008 165.939l-3.875-10.125h-.063c.073.802.11 1.755.11 2.859v7.266h-1.227v-11.422h2l3.617 9.422h.063l3.648-9.422h1.985v11.422h-1.328v-7.359c0-.844.036-1.761.109-2.75h-.063l-3.906 10.109h-1.07zm14.469 0l-.258-1.219h-.063c-.427.537-.854.901-1.281 1.094-.422.187-.951.281-1.586.281-.849 0-1.516-.219-2-.656-.479-.438-.719-1.06-.719-1.867 0-1.729 1.383-2.636 4.149-2.719l1.453-.047v-.531c0-.672-.146-1.167-.438-1.484-.286-.323-.747-.485-1.382-.485-.714 0-1.521.219-2.422.656l-.399-.992a6.112 6.112 0 011.383-.539 6.058 6.058 0 011.516-.195c1.021 0 1.776.226 2.265.68.495.453.743 1.179.743 2.179v5.844h-.961zm-2.93-.914c.807 0 1.44-.221 1.898-.664.464-.443.696-1.063.696-1.86v-.773l-1.297.055c-1.032.036-1.776.198-2.235.484-.453.281-.679.721-.679 1.32 0 .469.14.826.422 1.071.286.245.684.367 1.195.367zm10.476-7.805c.381 0 .722.031 1.024.094l-.18 1.203a4.418 4.418 0 00-.937-.117c-.693 0-1.287.281-1.782.844-.489.562-.734 1.263-.734 2.101v4.594h-1.297v-8.563h1.071l.148 1.586h.062c.318-.557.701-.987 1.149-1.289.448-.302.94-.453 1.476-.453zm3.907 4.336c.224-.318.565-.734 1.023-1.25l2.766-2.93h1.539l-3.469 3.649 3.711 4.914h-1.57l-3.024-4.047-.976.844v3.203h-1.282v-12.156h1.282v6.445c0 .286-.021.729-.063 1.328h.063z" fill="#000"/><path fill="#FEF200" d="M0 228.045h1096v27.323H0z"/></g><defs><clipPath id="clip0"><path fill="#fff" d="M0 0h1096v271H0z"/></clipPath></defs></svg>