<svg width="704" height="249" viewBox="0 0 704 249" fill="none" xmlns="http://www.w3.org/2000/svg">
<g style="mix-blend-mode:multiply" clip-path="url(#clip0)">
<path d="M100.984 240.912C112.545 240.912 121.916 231.332 121.916 219.516C121.916 207.699 112.545 198.12 100.984 198.12C89.4227 198.12 80.0508 207.699 80.0508 219.516C80.0508 231.332 89.4227 240.912 100.984 240.912Z" fill="#AFAFAF"/>
<path fill-rule="evenodd" clip-rule="evenodd" d="M100.984 190.217C85.1259 190.217 72.2695 203.334 72.2695 219.516C72.2695 235.697 85.1259 248.814 100.984 248.814C116.842 248.814 129.698 235.697 129.698 219.516C129.698 203.334 116.843 190.217 100.984 190.217ZM100.984 242.75C96.3687 242.843 91.8304 241.559 87.9477 239.062C84.0649 236.566 81.0137 232.969 79.183 228.732C77.3523 224.494 76.8251 219.808 77.6686 215.269C78.5121 210.731 80.6882 206.547 83.9192 203.25C87.1502 199.953 91.2899 197.693 95.8104 196.758C100.331 195.824 105.027 196.256 109.301 198.001C113.574 199.746 117.231 202.725 119.806 206.556C122.38 210.388 123.755 214.9 123.755 219.516C123.815 225.616 121.451 231.491 117.18 235.848C112.91 240.205 107.084 242.688 100.984 242.75Z" fill="#AFAFAF"/>
<path d="M73.9679 146.412C73.9883 146.853 73.9019 147.292 73.7159 147.692C73.53 148.092 73.25 148.441 72.9 148.709C72.0527 149.301 71.0321 149.592 70.0004 149.537C68.9584 149.587 67.9176 149.413 66.9492 149.025V147.774C67.9318 148.18 68.9833 148.392 70.0464 148.401C70.7333 148.449 71.4177 148.276 71.9993 147.907C72.2128 147.751 72.3843 147.544 72.4987 147.305C72.6132 147.066 72.667 146.803 72.6555 146.539C72.669 146.206 72.5884 145.877 72.423 145.588C72.2228 145.301 71.9556 145.067 71.6446 144.906C71.1124 144.623 70.5575 144.386 69.9857 144.196C69.1468 143.947 68.3827 143.494 67.7616 142.877C67.2989 142.32 67.0607 141.61 67.0935 140.886C67.0801 140.491 67.1611 140.099 67.3297 139.742C67.4983 139.385 67.7498 139.073 68.0631 138.833C68.8059 138.294 69.71 138.025 70.6263 138.07C71.6771 138.058 72.7188 138.266 73.6848 138.68L73.2814 139.81C72.4339 139.439 71.5208 139.242 70.5959 139.23C70.025 139.196 69.4589 139.352 68.9858 139.674C68.7968 139.816 68.6452 140.002 68.5441 140.215C68.4431 140.429 68.3956 140.664 68.4059 140.9C68.3929 141.23 68.4664 141.558 68.6191 141.851C68.8 142.133 69.0482 142.367 69.3415 142.53C69.8359 142.806 70.3557 143.035 70.8937 143.213C71.79 143.471 72.6156 143.93 73.308 144.555C73.7591 145.066 73.9955 145.731 73.9679 146.412Z" fill="#111111"/>
<path d="M81.7775 149.38V143.971C81.8206 143.422 81.6541 142.877 81.3116 142.445C81.1177 142.264 80.8878 142.125 80.6369 142.038C80.3859 141.951 80.1195 141.918 79.8549 141.941C79.5 141.909 79.1426 141.957 78.8086 142.081C78.4747 142.205 78.1728 142.403 77.9249 142.659C77.4592 143.349 77.245 144.179 77.3184 145.009V149.38H76.0547V137.509H77.3211V141.103C77.3254 141.462 77.3052 141.821 77.2605 142.178H77.3367C77.595 141.768 77.9639 141.438 78.401 141.229C78.8913 140.99 79.4311 140.871 79.9762 140.881C80.8075 140.818 81.6308 141.079 82.2738 141.61C82.5528 141.923 82.7647 142.29 82.8965 142.688C83.0283 143.086 83.0773 143.507 83.0403 143.924V149.38H81.7775Z" fill="#111111"/>
<path d="M85.5344 138.753C85.5244 138.638 85.5382 138.522 85.5751 138.412C85.6119 138.302 85.671 138.202 85.7485 138.116C85.8935 137.984 86.0824 137.911 86.2784 137.911C86.4743 137.911 86.6632 137.984 86.8082 138.116C86.8873 138.2 86.9479 138.3 86.986 138.409C87.0242 138.518 87.039 138.634 87.0297 138.749C87.039 138.865 87.0241 138.981 86.986 139.091C86.9478 139.2 86.8873 139.301 86.8082 139.386C86.7386 139.454 86.6563 139.508 86.5659 139.544C86.4755 139.579 86.3789 139.597 86.2816 139.595C86.1832 139.598 86.0852 139.581 85.9936 139.545C85.902 139.509 85.8186 139.455 85.7485 139.386C85.6722 139.3 85.6139 139.2 85.5771 139.091C85.5403 138.982 85.5258 138.867 85.5344 138.753ZM86.913 149.38H85.641V141.016H86.9084L86.913 149.38Z" fill="#111111"/>
<path d="M95.3186 149.38V143.971C95.362 143.422 95.1958 142.877 94.8536 142.445C94.6595 142.264 94.4295 142.125 94.1784 142.038C93.9273 141.951 93.6608 141.918 93.396 141.941C93.043 141.91 92.6876 141.958 92.3552 142.081C92.0229 142.204 91.7218 142.399 91.4734 142.651C91.0049 143.337 90.7892 144.165 90.8632 144.992V149.38H89.5977V141.016H90.6279L90.8328 142.16H90.8944C91.1591 141.744 91.5377 141.411 91.9853 141.203C92.4735 140.972 93.0079 140.856 93.5477 140.864C94.3718 140.802 95.1877 141.063 95.8223 141.593C96.1011 141.909 96.3125 142.278 96.4437 142.679C96.5748 143.079 96.6229 143.503 96.5851 143.922V149.378L95.3186 149.38Z" fill="#111111"/>
<path d="M97.8594 141.018H99.2168L101.048 145.786C101.351 146.554 101.601 147.341 101.796 148.143H101.856C101.922 147.884 102.061 147.441 102.272 146.813C102.482 146.185 103.173 144.253 104.343 141.018H105.701L102.109 150.539C101.868 151.301 101.439 151.989 100.861 152.541C100.367 152.942 99.7459 153.152 99.1102 153.133C98.7251 153.133 98.3413 153.089 97.966 153.003V151.992C98.2746 152.056 98.5892 152.087 98.9043 152.084C99.333 152.081 99.7485 151.935 100.086 151.67C100.423 151.405 100.662 151.036 100.766 150.62L101.231 149.43L97.8594 141.018Z" fill="#111111"/>
<path d="M114.457 149.532C113.935 149.563 113.413 149.479 112.927 149.286C112.441 149.093 112.004 148.796 111.646 148.414C110.932 147.521 110.577 146.394 110.65 145.253C110.575 144.084 110.935 142.929 111.661 142.01C112.028 141.619 112.475 141.314 112.973 141.116C113.471 140.918 114.006 140.833 114.541 140.866C114.946 140.866 115.351 140.909 115.747 140.995C116.074 141.058 116.392 141.16 116.693 141.3L116.303 142.376C116.005 142.26 115.698 142.168 115.384 142.101C115.097 142.032 114.802 141.995 114.507 141.99C112.808 141.99 111.959 143.073 111.959 145.239C111.905 146.074 112.123 146.904 112.58 147.605C112.797 147.882 113.077 148.101 113.397 148.246C113.717 148.39 114.068 148.454 114.418 148.432C115.156 148.423 115.884 148.27 116.563 147.982V149.103C115.905 149.411 115.183 149.558 114.457 149.532Z" fill="#111111"/>
<path d="M125.768 145.191C125.837 146.347 125.47 147.487 124.738 148.384C124.376 148.772 123.934 149.076 123.441 149.274C122.949 149.473 122.419 149.561 121.889 149.532C121.19 149.545 120.501 149.363 119.899 149.006C119.312 148.646 118.844 148.12 118.556 147.495C118.226 146.773 118.064 145.985 118.083 145.191C118.012 144.039 118.377 142.902 119.106 142.006C119.467 141.62 119.908 141.318 120.398 141.121C120.888 140.924 121.416 140.837 121.944 140.866C122.466 140.842 122.986 140.935 123.468 141.136C123.95 141.338 124.382 141.644 124.731 142.033C125.459 142.919 125.829 144.046 125.768 145.191ZM119.398 145.191C119.342 146.054 119.567 146.911 120.041 147.633C120.28 147.897 120.571 148.107 120.896 148.251C121.221 148.396 121.572 148.47 121.928 148.47C122.283 148.47 122.634 148.396 122.959 148.251C123.284 148.107 123.575 147.897 123.814 147.633C124.291 146.911 124.517 146.052 124.457 145.189C124.517 144.333 124.29 143.481 123.814 142.767C123.586 142.487 123.294 142.267 122.963 142.123C122.632 141.979 122.272 141.916 121.911 141.94C121.556 141.916 121.2 141.978 120.873 142.12C120.547 142.262 120.259 142.481 120.034 142.757C119.561 143.477 119.337 144.332 119.398 145.191Z" fill="#111111"/>
<path d="M127.882 138.753C127.872 138.638 127.886 138.522 127.922 138.412C127.959 138.302 128.018 138.202 128.095 138.116C128.24 137.984 128.429 137.911 128.625 137.911C128.821 137.911 129.01 137.984 129.155 138.116C129.234 138.2 129.295 138.3 129.333 138.409C129.372 138.518 129.387 138.634 129.377 138.749C129.387 138.865 129.372 138.981 129.333 139.091C129.295 139.201 129.234 139.301 129.155 139.386C129.011 139.521 128.822 139.595 128.625 139.595C128.428 139.595 128.239 139.521 128.095 139.386C128.019 139.3 127.961 139.2 127.924 139.091C127.888 138.982 127.873 138.867 127.882 138.753ZM129.255 149.38H127.989V141.016H129.255V149.38Z" fill="#111111"/>
<path d="M137.666 149.379V143.971C137.709 143.422 137.543 142.877 137.201 142.445C137.007 142.264 136.777 142.125 136.526 142.039C136.275 141.952 136.008 141.918 135.744 141.941C135.391 141.91 135.036 141.958 134.703 142.081C134.371 142.204 134.07 142.398 133.822 142.651C133.353 143.337 133.137 144.165 133.212 144.992V149.379H131.945V141.016H132.975L133.18 142.16H133.242C133.507 141.743 133.885 141.411 134.333 141.203C134.821 140.972 135.355 140.856 135.895 140.864C136.719 140.802 137.535 141.063 138.169 141.593C138.448 141.909 138.66 142.278 138.791 142.679C138.922 143.079 138.97 143.502 138.932 143.922V149.378L137.666 149.379Z" fill="#111111"/>
<path d="M277.035 141.323C277.062 141.818 276.972 142.312 276.771 142.765C276.57 143.218 276.264 143.617 275.879 143.929C274.909 144.595 273.744 144.917 272.57 144.84H271.258V149.227H269.961V138.073H272.853C275.64 138.073 277.034 139.157 277.035 141.323ZM271.259 143.727H272.427C273.295 143.796 274.164 143.602 274.921 143.17C275.187 142.959 275.397 142.686 275.531 142.374C275.666 142.063 275.721 141.723 275.692 141.385C275.715 141.072 275.66 140.758 275.534 140.471C275.408 140.184 275.213 139.932 274.967 139.737C274.29 139.324 273.5 139.135 272.709 139.196H271.259V143.727Z" fill="#111111"/>
<path d="M286.395 145.039C286.465 146.194 286.097 147.334 285.366 148.232C285.004 148.62 284.561 148.924 284.069 149.122C283.577 149.32 283.047 149.408 282.517 149.379C281.817 149.392 281.128 149.21 280.526 148.854C279.939 148.494 279.472 147.968 279.184 147.343C278.854 146.62 278.693 145.833 278.711 145.039C278.643 143.887 279.01 142.751 279.739 141.857C280.1 141.471 280.541 141.169 281.031 140.972C281.521 140.775 282.049 140.688 282.577 140.717C283.099 140.693 283.619 140.786 284.101 140.988C284.583 141.19 285.015 141.496 285.364 141.885C286.089 142.771 286.457 143.896 286.395 145.039ZM280.026 145.039C279.969 145.901 280.195 146.758 280.67 147.481C280.908 147.744 281.199 147.954 281.523 148.098C281.848 148.242 282.199 148.316 282.554 148.316C282.909 148.316 283.26 148.242 283.584 148.098C283.909 147.954 284.199 147.744 284.438 147.481C284.914 146.758 285.14 145.899 285.081 145.036C285.14 144.18 284.914 143.328 284.438 142.614C284.209 142.335 283.918 142.114 283.586 141.97C283.255 141.826 282.895 141.763 282.534 141.787C282.179 141.764 281.823 141.826 281.497 141.967C281.17 142.109 280.883 142.327 280.658 142.603C280.186 143.324 279.964 144.18 280.026 145.039Z" fill="#111111"/>
<path d="M294.007 146.946C294.023 147.295 293.953 147.642 293.801 147.956C293.649 148.271 293.421 148.542 293.137 148.746C292.411 149.209 291.556 149.431 290.696 149.379C289.801 149.426 288.909 149.245 288.103 148.854V147.678C288.515 147.886 288.949 148.047 289.396 148.159C289.83 148.273 290.278 148.332 290.727 148.335C291.254 148.364 291.78 148.255 292.252 148.017C292.405 147.927 292.534 147.8 292.626 147.648C292.719 147.496 292.773 147.324 292.784 147.147C292.795 146.969 292.763 146.792 292.689 146.63C292.616 146.468 292.504 146.326 292.364 146.217C291.853 145.869 291.296 145.593 290.709 145.397C290.134 145.201 289.579 144.947 289.055 144.638C288.756 144.454 288.504 144.202 288.32 143.903C288.153 143.603 288.069 143.263 288.079 142.92C288.069 142.603 288.14 142.288 288.285 142.006C288.429 141.724 288.643 141.483 288.906 141.306C289.587 140.876 290.384 140.67 291.188 140.714C292.096 140.716 292.994 140.904 293.828 141.265L293.377 142.296C292.658 141.976 291.883 141.8 291.096 141.777C290.627 141.748 290.158 141.845 289.739 142.058C289.598 142.134 289.481 142.246 289.4 142.384C289.319 142.521 289.278 142.678 289.279 142.837C289.273 143.041 289.333 143.242 289.45 143.409C289.6 143.597 289.788 143.75 290.002 143.859C290.476 144.096 290.966 144.303 291.467 144.477C292.206 144.695 292.891 145.067 293.477 145.568C293.651 145.752 293.788 145.968 293.879 146.204C293.97 146.441 294.014 146.693 294.007 146.946Z" fill="#111111"/>
<path d="M295.96 138.6C295.95 138.485 295.964 138.369 296.001 138.26C296.038 138.15 296.097 138.049 296.174 137.963C296.32 137.832 296.509 137.759 296.704 137.759C296.9 137.759 297.089 137.832 297.235 137.963C297.314 138.048 297.374 138.147 297.412 138.257C297.45 138.366 297.465 138.481 297.455 138.596C297.464 138.712 297.45 138.828 297.412 138.938C297.374 139.048 297.313 139.148 297.235 139.233C297.165 139.301 297.083 139.355 296.992 139.391C296.902 139.427 296.805 139.445 296.708 139.443C296.61 139.446 296.512 139.428 296.42 139.392C296.328 139.356 296.245 139.302 296.174 139.233C296.098 139.147 296.04 139.047 296.003 138.938C295.966 138.83 295.952 138.715 295.96 138.6ZM297.339 149.227H296.072V140.864H297.339V149.227Z" fill="#111111"/>
<path d="M302.722 148.335C302.939 148.335 303.156 148.318 303.371 148.285C303.538 148.26 303.703 148.226 303.866 148.182V149.151C303.672 149.233 303.468 149.288 303.259 149.315C303.021 149.355 302.78 149.377 302.539 149.379C300.921 149.379 300.113 148.528 300.113 146.825V141.851H298.918V141.24L300.113 140.713L300.647 138.928H301.382V140.866H303.808V141.851H301.382V146.77C301.354 147.188 301.482 147.601 301.741 147.93C301.865 148.066 302.017 148.172 302.186 148.242C302.356 148.312 302.539 148.344 302.722 148.335Z" fill="#111111"/>
<path d="M305.429 138.6C305.419 138.485 305.433 138.369 305.469 138.259C305.506 138.15 305.565 138.049 305.643 137.963C305.788 137.832 305.977 137.759 306.173 137.759C306.369 137.759 306.558 137.832 306.703 137.963C306.782 138.047 306.842 138.147 306.881 138.256C306.919 138.365 306.934 138.481 306.924 138.596C306.934 138.712 306.919 138.829 306.881 138.938C306.842 139.048 306.782 139.148 306.703 139.233C306.633 139.301 306.551 139.355 306.461 139.391C306.371 139.427 306.274 139.444 306.177 139.443C306.079 139.446 305.98 139.429 305.889 139.393C305.797 139.357 305.713 139.303 305.643 139.233C305.567 139.148 305.508 139.047 305.471 138.939C305.435 138.83 305.42 138.715 305.429 138.6ZM306.802 149.227H305.536V140.864H306.802V149.227Z" fill="#111111"/>
<path d="M311.318 149.227L308.145 140.864H309.503L311.303 145.826C311.709 146.986 311.948 147.738 312.02 148.084H312.081C312.229 147.517 312.406 146.959 312.612 146.41C312.909 145.564 313.576 143.716 314.614 140.867H315.972L312.799 149.231L311.318 149.227Z" fill="#111111"/>
<path d="M320.845 149.379C320.306 149.408 319.766 149.322 319.262 149.127C318.758 148.933 318.301 148.634 317.92 148.25C317.165 147.386 316.779 146.26 316.848 145.115C316.784 143.958 317.138 142.817 317.844 141.899C318.168 141.508 318.578 141.198 319.042 140.992C319.505 140.785 320.01 140.688 320.517 140.708C320.982 140.686 321.447 140.768 321.877 140.946C322.307 141.125 322.692 141.397 323.004 141.742C323.642 142.504 323.97 143.478 323.923 144.47V145.27H318.164C318.13 146.082 318.394 146.877 318.907 147.506C319.165 147.768 319.475 147.971 319.818 148.103C320.161 148.234 320.528 148.291 320.894 148.269C321.813 148.265 322.722 148.073 323.565 147.705V148.842C323.156 149.022 322.731 149.161 322.295 149.257C321.817 149.347 321.331 149.388 320.845 149.379ZM320.502 141.774C320.203 141.761 319.904 141.812 319.627 141.926C319.35 142.039 319.1 142.211 318.896 142.43C318.467 142.941 318.219 143.579 318.19 144.246H322.564C322.608 143.589 322.419 142.938 322.03 142.408C321.84 142.193 321.604 142.024 321.339 141.914C321.074 141.804 320.788 141.757 320.502 141.774Z" fill="#111111"/>
<path d="M333.67 149.379C333.13 149.408 332.59 149.322 332.086 149.127C331.582 148.933 331.124 148.634 330.743 148.25C329.989 147.386 329.604 146.26 329.672 145.115C329.608 143.958 329.961 142.817 330.667 141.899C330.992 141.508 331.401 141.198 331.865 140.992C332.329 140.785 332.834 140.688 333.341 140.708C333.806 140.686 334.27 140.768 334.7 140.946C335.13 141.125 335.515 141.397 335.827 141.742C336.465 142.504 336.793 143.478 336.746 144.47V145.27H330.988C330.954 146.082 331.218 146.877 331.73 147.506C331.988 147.768 332.299 147.971 332.642 148.102C332.985 148.234 333.352 148.291 333.718 148.269C334.638 148.265 335.547 148.073 336.389 147.705V148.842C335.98 149.022 335.554 149.161 335.118 149.257C334.641 149.347 334.155 149.388 333.67 149.379ZM333.326 141.774C333.027 141.761 332.728 141.812 332.451 141.925C332.174 142.039 331.924 142.211 331.72 142.43C331.291 142.94 331.042 143.579 331.014 144.246H335.385C335.43 143.589 335.241 142.938 334.851 142.408C334.662 142.193 334.426 142.024 334.162 141.914C333.898 141.805 333.612 141.757 333.326 141.774Z" fill="#111111"/>
<path d="M340.919 144.948L338.012 140.866H339.455L341.66 144.07L343.859 140.866H345.284L342.377 144.948L345.437 149.227H344.003L341.66 145.839L339.296 149.227H337.859L340.919 144.948Z" fill="#111111"/>
<path d="M350.981 149.379C350.468 149.386 349.96 149.283 349.489 149.078C349.036 148.875 348.645 148.555 348.356 148.152H348.264C348.324 148.612 348.354 149.076 348.356 149.54V152.977H347.09V140.865H348.12L348.296 142.01H348.356C348.643 141.586 349.035 141.245 349.493 141.018C349.96 140.808 350.469 140.704 350.981 140.713C351.468 140.686 351.955 140.775 352.401 140.973C352.847 141.171 353.24 141.472 353.548 141.851C354.141 142.811 354.454 143.918 354.451 145.047C354.449 146.176 354.13 147.281 353.532 148.239C353.226 148.616 352.836 148.915 352.393 149.114C351.95 149.312 351.466 149.403 350.981 149.379ZM350.797 141.789C350.455 141.757 350.109 141.805 349.788 141.928C349.467 142.051 349.178 142.246 348.944 142.499C348.506 143.166 348.3 143.96 348.356 144.757V145.039C348.28 145.92 348.486 146.803 348.944 147.56C349.176 147.826 349.467 148.034 349.795 148.166C350.123 148.299 350.477 148.351 350.828 148.32C351.163 148.33 351.494 148.255 351.791 148.102C352.088 147.948 352.341 147.721 352.525 147.442C352.972 146.718 353.187 145.874 353.139 145.024C353.193 144.179 352.978 143.339 352.525 142.624C352.329 142.352 352.068 142.134 351.766 141.988C351.465 141.843 351.132 141.774 350.797 141.789Z" fill="#111111"/>
<path d="M360.193 149.379C359.653 149.408 359.114 149.322 358.609 149.127C358.105 148.933 357.648 148.634 357.267 148.25C356.512 147.386 356.127 146.26 356.195 145.115C356.132 143.958 356.485 142.817 357.191 141.898C357.515 141.508 357.925 141.198 358.389 140.992C358.853 140.785 359.358 140.688 359.865 140.708C360.33 140.686 360.794 140.768 361.224 140.947C361.654 141.125 362.039 141.397 362.352 141.742C362.989 142.504 363.317 143.478 363.271 144.47V145.27H357.511C357.477 146.082 357.741 146.877 358.255 147.506C358.512 147.768 358.823 147.971 359.166 148.103C359.508 148.234 359.875 148.291 360.242 148.269C361.161 148.265 362.07 148.073 362.912 147.705V148.842C362.504 149.022 362.078 149.161 361.641 149.257C361.164 149.347 360.679 149.388 360.193 149.379ZM359.849 141.774C359.55 141.761 359.252 141.812 358.974 141.925C358.697 142.038 358.448 142.211 358.244 142.43C357.814 142.94 357.566 143.579 357.538 144.246H361.909C361.954 143.589 361.765 142.938 361.375 142.408C361.186 142.193 360.95 142.024 360.685 141.914C360.421 141.805 360.135 141.757 359.849 141.774Z" fill="#111111"/>
<path d="M369.245 140.713C369.58 140.709 369.915 140.74 370.244 140.805L370.068 141.979C369.767 141.908 369.459 141.87 369.149 141.865C368.816 141.865 368.488 141.939 368.187 142.082C367.887 142.225 367.622 142.434 367.413 142.693C366.925 143.262 366.668 143.994 366.692 144.744V149.23H365.43V140.866H366.475L366.62 142.416H366.681C366.953 141.915 367.336 141.484 367.803 141.157C368.227 140.865 368.73 140.71 369.245 140.713Z" fill="#111111"/>
<path d="M371.702 138.6C371.692 138.485 371.706 138.369 371.743 138.259C371.779 138.15 371.838 138.049 371.916 137.963C372.061 137.832 372.25 137.759 372.445 137.759C372.641 137.759 372.83 137.832 372.975 137.963C373.054 138.047 373.115 138.147 373.153 138.256C373.191 138.365 373.206 138.481 373.197 138.596C373.206 138.712 373.191 138.829 373.153 138.938C373.115 139.048 373.054 139.148 372.975 139.233C372.832 139.368 372.642 139.443 372.445 139.443C372.249 139.443 372.059 139.368 371.916 139.233C371.839 139.147 371.781 139.047 371.745 138.938C371.708 138.83 371.694 138.715 371.702 138.6ZM373.075 149.227H371.809V140.864H373.075V149.227Z" fill="#111111"/>
<path d="M379.29 149.379C378.75 149.408 378.211 149.322 377.707 149.127C377.202 148.933 376.745 148.634 376.365 148.25C375.609 147.386 375.224 146.26 375.293 145.115C375.229 143.958 375.582 142.817 376.288 141.899C376.613 141.508 377.023 141.198 377.486 140.992C377.95 140.785 378.455 140.688 378.962 140.708C379.427 140.686 379.891 140.768 380.321 140.946C380.751 141.125 381.136 141.397 381.449 141.742C382.086 142.504 382.414 143.478 382.368 144.47V145.27H376.604C376.57 146.082 376.835 146.877 377.348 147.506C377.606 147.768 377.916 147.971 378.259 148.103C378.602 148.234 378.968 148.291 379.335 148.269C380.254 148.265 381.163 148.073 382.006 147.705V148.842C381.597 149.022 381.172 149.161 380.735 149.257C380.259 149.347 379.775 149.388 379.29 149.379ZM378.946 141.774C378.647 141.761 378.349 141.813 378.071 141.926C377.794 142.039 377.545 142.211 377.341 142.43C376.912 142.941 376.664 143.579 376.636 144.246H381.007C381.051 143.589 380.862 142.938 380.472 142.408C380.283 142.193 380.047 142.024 379.782 141.914C379.518 141.805 379.232 141.757 378.946 141.774Z" fill="#111111"/>
<path d="M390.244 149.227V143.818C390.288 143.269 390.121 142.724 389.778 142.293C389.585 142.111 389.355 141.973 389.104 141.886C388.853 141.799 388.586 141.766 388.322 141.789C387.969 141.758 387.614 141.806 387.281 141.929C386.949 142.051 386.648 142.246 386.4 142.499C385.931 143.185 385.715 144.013 385.79 144.84V149.227H384.523V140.864H385.554L385.759 142.008H385.82C386.085 141.592 386.463 141.259 386.91 141.05C387.398 140.82 387.933 140.704 388.473 140.711C389.296 140.649 390.112 140.911 390.746 141.44C391.025 141.756 391.237 142.126 391.368 142.527C391.499 142.927 391.547 143.351 391.509 143.771V149.225L390.244 149.227Z" fill="#111111"/>
<path d="M397.457 149.379C396.935 149.411 396.413 149.327 395.927 149.133C395.441 148.94 395.004 148.643 394.646 148.262C393.932 147.369 393.577 146.241 393.65 145.1C393.575 143.932 393.935 142.776 394.661 141.857C395.027 141.466 395.475 141.161 395.973 140.963C396.471 140.765 397.006 140.68 397.541 140.713C397.946 140.713 398.35 140.757 398.746 140.843C399.074 140.905 399.392 141.008 399.693 141.149L399.307 142.225C399.009 142.109 398.701 142.016 398.388 141.949C398.1 141.881 397.806 141.844 397.51 141.839C395.812 141.839 394.963 142.922 394.963 145.088C394.909 145.923 395.127 146.753 395.584 147.453C395.8 147.73 396.081 147.95 396.401 148.094C396.721 148.238 397.072 148.302 397.422 148.28C398.159 148.272 398.888 148.119 399.566 147.83V148.951C398.907 149.26 398.184 149.407 397.457 149.379Z" fill="#111111"/>
<path d="M405.084 149.379C404.544 149.408 404.004 149.322 403.5 149.127C402.996 148.933 402.538 148.634 402.157 148.25C401.403 147.386 401.018 146.26 401.086 145.115C401.022 143.958 401.375 142.817 402.081 141.899C402.406 141.508 402.816 141.198 403.279 140.992C403.743 140.785 404.248 140.688 404.755 140.708C405.22 140.686 405.684 140.768 406.114 140.946C406.544 141.125 406.929 141.397 407.242 141.742C407.879 142.504 408.207 143.478 408.161 144.47V145.27H402.402C402.368 146.082 402.632 146.877 403.144 147.506C403.402 147.768 403.713 147.971 404.056 148.103C404.399 148.234 404.766 148.291 405.132 148.269C406.052 148.265 406.961 148.073 407.803 147.705V148.842C407.394 149.022 406.968 149.161 406.532 149.257C406.055 149.347 405.569 149.388 405.084 149.379ZM404.74 141.774C404.441 141.761 404.142 141.812 403.865 141.925C403.588 142.039 403.338 142.211 403.134 142.43C402.705 142.94 402.457 143.579 402.429 144.246H406.799C406.844 143.589 406.655 142.938 406.266 142.408C406.076 142.193 405.84 142.024 405.576 141.915C405.312 141.805 405.026 141.757 404.74 141.774Z" fill="#111111"/>
<path fill-rule="evenodd" clip-rule="evenodd" d="M362.769 212.82C362.769 212.849 362.762 212.877 362.758 212.905C362.764 213.069 362.758 213.233 362.74 213.396C362.718 213.516 362.69 213.636 362.655 213.753C361.817 220.092 358.509 225.843 353.45 229.753C350.972 231.666 348.135 233.062 345.108 233.86C342.08 234.658 338.924 234.842 335.825 234.399C332.725 233.957 329.746 232.897 327.063 231.284C324.38 229.671 322.048 227.536 320.204 225.006C317.766 221.706 316.202 217.844 315.656 213.778C315.559 213.44 315.516 213.09 315.527 212.739C315.527 212.717 315.521 212.695 315.52 212.672H315.531C315.55 212.191 315.674 211.72 315.893 211.291C316.113 210.863 316.424 210.487 316.803 210.191C317.143 209.929 317.531 209.738 317.945 209.629C318.36 209.52 318.792 209.495 319.216 209.555C319.64 209.616 320.048 209.761 320.415 209.982C320.783 210.202 321.102 210.495 321.354 210.841C321.752 211.38 321.979 212.027 322.004 212.696H322.022C322.4 215.718 323.55 218.591 325.361 221.039C326.703 222.881 328.4 224.435 330.353 225.609C332.306 226.783 334.475 227.554 336.731 227.876C338.987 228.198 341.284 228.065 343.488 227.484C345.691 226.903 347.756 225.886 349.56 224.494C353.255 221.639 355.667 217.435 356.269 212.804H356.291C356.291 212.696 356.291 212.59 356.303 212.48C356.4 211.662 356.804 210.913 357.434 210.383C358.064 209.853 358.871 209.583 359.693 209.627C360.515 209.671 361.289 210.026 361.859 210.619C362.428 211.213 362.751 212.001 362.761 212.824L362.769 212.82Z" fill="#AFAFAF"/>
<path d="M587.746 190.001C572.148 190.001 559.504 203.008 559.504 219.053C559.504 235.099 572.148 248.105 587.746 248.105C603.344 248.105 615.988 235.098 615.988 219.053C616.005 211.391 613.039 204.023 607.716 198.51C605.127 195.827 602.025 193.691 598.594 192.229C595.164 190.768 591.475 190.01 587.746 190.001ZM600.378 235.249C596.894 238.146 592.521 239.756 587.99 239.81C583.46 239.865 579.049 238.36 575.497 235.548C571.893 232.668 569.329 228.688 568.197 224.216C567.066 219.743 567.428 215.023 569.228 210.776C569.32 210.556 569.468 210.364 569.658 210.22C569.847 210.076 570.072 209.985 570.308 209.956C570.544 209.929 570.783 209.966 570.999 210.063C571.216 210.16 571.403 210.313 571.54 210.507C571.68 210.704 571.767 210.934 571.793 211.174C571.819 211.414 571.784 211.657 571.689 211.879C570.129 215.562 569.816 219.654 570.797 223.531C571.779 227.408 574.001 230.858 577.125 233.354C580.205 235.792 584.029 237.096 587.956 237.05C591.883 237.003 595.674 235.608 598.695 233.098C598.875 232.936 599.096 232.827 599.334 232.783C599.572 232.74 599.818 232.762 600.043 232.849C600.272 232.939 600.472 233.089 600.623 233.283C600.774 233.477 600.871 233.708 600.902 233.952C600.936 234.196 600.906 234.444 600.814 234.673C600.721 234.901 600.57 235.101 600.375 235.252L600.378 235.249Z" fill="#AFAFAF"/>
<path opacity="0.25" fill-rule="evenodd" clip-rule="evenodd" d="M467.925 232.09C467.716 232.089 467.511 232.03 467.333 231.919C467.156 231.808 467.013 231.65 466.921 231.462C466.829 231.274 466.792 231.064 466.813 230.855C466.835 230.647 466.914 230.449 467.043 230.284L473.367 222.115L467.034 213.711C466.941 213.594 466.872 213.459 466.831 213.315C466.79 213.171 466.779 213.02 466.798 212.871C466.817 212.723 466.865 212.579 466.94 212.45C467.015 212.32 467.115 212.207 467.235 212.117C467.355 212.027 467.491 211.961 467.636 211.925C467.782 211.888 467.933 211.881 468.081 211.904C468.229 211.927 468.371 211.98 468.498 212.058C468.626 212.137 468.736 212.241 468.823 212.363L475.671 221.45C475.818 221.646 475.898 221.886 475.896 222.131C475.895 222.377 475.813 222.615 475.662 222.809L468.814 231.654C468.709 231.79 468.574 231.9 468.42 231.976C468.266 232.051 468.097 232.09 467.925 232.09Z" fill="#111111"/>
<path opacity="0.25" fill-rule="evenodd" clip-rule="evenodd" d="M228.515 232.09C228.305 232.089 228.1 232.03 227.923 231.919C227.746 231.808 227.603 231.65 227.511 231.462C227.419 231.274 227.382 231.064 227.403 230.855C227.425 230.647 227.504 230.449 227.633 230.284L233.957 222.115L227.624 213.711C227.531 213.594 227.462 213.459 227.421 213.315C227.38 213.171 227.369 213.02 227.388 212.871C227.406 212.723 227.455 212.579 227.53 212.45C227.605 212.32 227.705 212.207 227.825 212.117C227.944 212.027 228.081 211.961 228.226 211.925C228.372 211.888 228.523 211.881 228.671 211.904C228.819 211.927 228.961 211.98 229.088 212.058C229.216 212.137 229.326 212.241 229.413 212.363L236.26 221.45C236.408 221.646 236.488 221.886 236.486 222.131C236.485 222.377 236.402 222.615 236.252 222.809L229.403 231.654C229.299 231.79 229.164 231.9 229.01 231.976C228.856 232.051 228.686 232.09 228.515 232.09Z" fill="#111111"/>
<path fill-rule="evenodd" clip-rule="evenodd" d="M299.012 40.693C299.012 18.2974 317.167 0.142212 339.563 0.142212C350.317 0.142212 360.632 4.41452 368.236 12.0193C375.841 19.624 380.113 29.9383 380.113 40.693C380.113 63.0886 361.958 81.2438 339.563 81.2438C317.167 81.2438 299.012 63.0886 299.012 40.693ZM321.967 63.7161C332.556 71.8038 347.295 71.6322 357.693 63.3001H357.689C358.254 62.8785 358.544 62.182 358.445 61.4841C358.345 60.7861 357.873 60.1982 357.213 59.9509C356.553 59.7037 355.81 59.8367 355.277 60.2976C346.261 67.5191 333.485 67.6668 324.305 60.6555C315.126 53.6443 311.906 41.2792 316.501 30.6814C316.776 30.0501 316.694 29.3197 316.285 28.7656C315.876 28.2114 315.202 27.9175 314.518 27.9947C313.833 28.0719 313.242 28.5084 312.966 29.1397C307.664 41.3641 311.378 55.6284 321.967 63.7161Z" fill="#231F20"/>
<path d="M573.928 152.579L570.367 143.274H570.31C570.377 144.011 570.41 144.887 570.41 145.902V152.579H569.283V142.082H571.121L574.445 150.741H574.503L577.856 142.082H579.68V152.579H578.459V145.815C578.459 145.04 578.493 144.197 578.56 143.288H578.502L574.912 152.579H573.928ZM587.226 152.579L586.989 151.459H586.931C586.539 151.952 586.146 152.287 585.754 152.464C585.366 152.636 584.88 152.722 584.296 152.722C583.516 152.722 582.903 152.521 582.458 152.119C582.018 151.717 581.798 151.145 581.798 150.403C581.798 148.814 583.069 147.981 585.61 147.905L586.946 147.862V147.373C586.946 146.756 586.812 146.301 586.544 146.009C586.28 145.712 585.857 145.564 585.273 145.564C584.617 145.564 583.875 145.765 583.047 146.167L582.681 145.255C583.069 145.045 583.492 144.88 583.952 144.76C584.416 144.64 584.88 144.58 585.345 144.58C586.283 144.58 586.977 144.789 587.427 145.205C587.881 145.621 588.109 146.289 588.109 147.208V152.579H587.226ZM584.533 151.739C585.275 151.739 585.857 151.535 586.278 151.129C586.704 150.722 586.917 150.152 586.917 149.42V148.709L585.725 148.759C584.777 148.793 584.093 148.941 583.672 149.204C583.255 149.463 583.047 149.867 583.047 150.418C583.047 150.848 583.176 151.176 583.435 151.401C583.698 151.626 584.064 151.739 584.533 151.739ZM594.162 144.566C594.511 144.566 594.825 144.595 595.102 144.652L594.937 145.758C594.611 145.686 594.324 145.65 594.075 145.65C593.439 145.65 592.893 145.909 592.438 146.426C591.988 146.943 591.763 147.586 591.763 148.357V152.579H590.572V144.71H591.555L591.692 146.167H591.749C592.041 145.655 592.393 145.26 592.805 144.982C593.216 144.705 593.669 144.566 594.162 144.566ZM597.752 148.551C597.957 148.259 598.271 147.876 598.692 147.402L601.234 144.71H602.648L599.46 148.063L602.871 152.579H601.428L598.649 148.86L597.752 149.635V152.579H596.574V141.407H597.752V147.33C597.752 147.594 597.732 148 597.694 148.551H597.752Z" fill="black"/>
<g style="mix-blend-mode:multiply">
<rect x="-5.53516" y="208.891" width="709.535" height="23.4194" fill="#FEF200"/>
</g>
</g>
<defs>
<clipPath id="clip0">
<rect width="704" height="249" fill="white"/>
</clipPath>
</defs>
</svg>
