<svg width="317" height="1488" viewBox="0 0 317 1488" fill="none" xmlns="http://www.w3.org/2000/svg"><g clip-path="url(#clip0)"><path d="M5.142 318.878h.86v-6.42h2.67v-.72h-6.19v.72h2.66v6.42zm9.682 0v-2.96l2.73-4.18h-.95l-2.16 3.41h-.02l-2.23-3.41h-.95l2.72 4.18v2.96h.86zm8.47-2.87c1.58 0 2.5-.73 2.5-2.14 0-1.4-.92-2.13-2.51-2.13h-2.64v7.14h.85v-2.87h1.8zm-1.8-.72v-2.83h1.77c1.08 0 1.67.44 1.67 1.41s-.59 1.42-1.67 1.42h-1.77zm12.495 3.59v-.72h-3.98v-2.48h3.53v-.73h-3.53v-2.49h3.97v-.72h-4.82v7.14h4.83zm3.586 0h.86v-3.09h3.37v-.72h-3.37v-2.61h3.71v-.72h-4.57v7.14zm12.695 0h.9l-2.9-7.14h-.97l-2.89 7.14h.86l.79-1.99h3.42l.79 1.99zm-2.51-6.28h.03l1.41 3.58h-2.86l1.42-3.58zm6.716 2.7c0-1.78.85-2.95 2.32-2.95 1.2 0 1.72.67 1.88 1.47h.84c-.23-1.3-1.16-2.2-2.72-2.2-1.84 0-3.2 1.44-3.2 3.68 0 2.25 1.36 3.7 3.2 3.7 1.56 0 2.49-.9 2.72-2.2h-.84c-.16.8-.68 1.47-1.88 1.47-1.47 0-2.32-1.19-2.32-2.97zm13.235 3.58v-.72h-3.98v-2.48h3.53v-.73h-3.53v-2.49h3.97v-.72h-4.82v7.14h4.83zm3.376-4.82c0-.253.06-.43.18-.53a.65.65 0 01.43-.15c.174 0 .32.05.44.15.127.1.19.277.19.53 0 .24-.063.413-.19.52a.637.637 0 01-.44.16.624.624 0 01-.43-.16c-.12-.107-.18-.28-.18-.52zm0 4.28c0-.247.06-.42.18-.52a.65.65 0 01.43-.15c.174 0 .32.05.44.15.127.1.19.273.19.52 0 .24-.063.413-.19.52a.637.637 0 01-.44.16.624.624 0 01-.43-.16c-.12-.107-.18-.28-.18-.52zm8.624-3.04c0 2.25 1.37 3.7 3.26 3.7.95 0 1.91-.54 2.18-1.31l.08 1.19h.68v-3.56h-2.53v.68h1.69v.37c0 1.16-.89 1.9-2.09 1.9-1.51 0-2.39-1.19-2.39-2.97 0-1.78.9-2.95 2.42-2.95 1.09 0 1.74.58 1.93 1.47h.86c-.25-1.32-1.2-2.2-2.79-2.2-1.89 0-3.3 1.44-3.3 3.68zm11.767 3.58h.86v-6.42h2.67v-.72h-6.19v.72h2.66v6.42zm16.58 0h.98l2.01-7.14h-.86l-1.63 6.07h-.02l-1.62-6.07h-.91l-1.61 6.07h-.02l-1.64-6.07h-.91l2.01 7.14h.97l1.62-6h.02l1.61 6zm11.072 0h.9l-2.9-7.14h-.97l-2.89 7.14h.86l.79-1.99h3.42l.79 1.99zm-2.51-6.28h.03l1.41 3.58h-2.86l1.42-3.58zm6.509 6.28h4.7v-.72h-3.84v-6.42h-.86v7.14zm7.644-2.11c.1 1.56 1.4 2.23 2.95 2.23 1.51 0 2.59-.86 2.59-2.08 0-1.13-.7-1.64-1.8-1.86l-1.4-.29c-.87-.17-1.27-.42-1.27-1.13 0-.75.62-1.33 1.66-1.33 1.02 0 1.72.46 1.84 1.26h.83c-.14-1.29-1.15-1.95-2.68-1.95-1.48 0-2.49.88-2.49 2.05 0 1.23.86 1.67 1.82 1.85l1.36.27c.97.18 1.3.57 1.3 1.17 0 .86-.75 1.35-1.77 1.35-1.06 0-2-.39-2.11-1.54h-.83zm9.022 2.11h.86v-3.27h4.18v3.27h.86v-7.14h-.86v3.15h-4.18v-3.15h-.86v7.14zm14.594 0v-.72h-3.98v-2.48h3.53v-.73h-3.53v-2.49h3.97v-.72h-4.82v7.14h4.83zm3.586 0h.86v-7.14h-.86v7.14zm8.594 0l2.32-6.26h.02v6.26h.83v-7.14h-1.28l-2.2 6.02h-.02l-2.2-6.02h-1.33v7.14h.82v-6.26h.02l2.32 6.26h.7z" fill="#fff"/><g clip-path="url(#clip1)"><path d="M12.386 371.099h-1.654l-.988-2.872H2.76l-.987 2.872H.122l5.532-16.083H6.85l5.537 16.083zm-3.124-4.3l-3.01-9.279-3.01 9.282 6.02-.003zm6.362 2.16v2.137h-1.493v-16.08h1.49v8.062a4.267 4.267 0 013.952-2.389 5.166 5.166 0 013.771 1.539 5.17 5.17 0 011.49 3.791 5.19 5.19 0 01-5.26 5.33 4.299 4.299 0 01-3.953-2.387l.003-.003zm3.883 1.019a3.81 3.81 0 002.766-1.153 3.792 3.792 0 001.071-2.799 3.864 3.864 0 00-3.86-3.986 3.86 3.86 0 00-3.86 3.986 3.81 3.81 0 003.883 3.952zm16.931-5.33h-1.493c-.16-1.425-1.057-2.62-3.24-2.62-2.366-.005-3.584 1.902-3.584 3.97 0 2.114 1.172 3.975 3.653 3.975a2.918 2.918 0 003.217-2.367h1.493c-.32 2.091-1.838 3.745-4.8 3.745-3.308 0-5.077-2.573-5.077-5.353 0-2.757 1.77-5.33 5.077-5.33 3.261 0 4.594 1.999 4.754 3.975v.005zm11.05 6.456v-2.142a4.298 4.298 0 01-3.952 2.389 5.184 5.184 0 01-5.261-5.33 5.171 5.171 0 013.218-4.947 5.166 5.166 0 012.043-.383 4.262 4.262 0 013.952 2.387v-8.062h1.493v16.083l-1.493.005zm-3.883-1.126a3.797 3.797 0 001.515-.281 3.796 3.796 0 002.114-2.152 3.808 3.808 0 00.254-1.519 3.866 3.866 0 00-2.353-3.68 3.86 3.86 0 00-5.367 3.68 3.803 3.803 0 002.335 3.66 3.81 3.81 0 001.502.292zm13-8.11a3.228 3.228 0 00-3.205 1.996 3.23 3.23 0 00-.242 1.312h6.732a3.178 3.178 0 00-3.282-3.313l-.003.005zm4.687 4.48h-8.154c.07 1.976 1.08 3.7 3.584 3.7a2.897 2.897 0 002.987-1.87h1.517a4.324 4.324 0 01-4.5 3.17c-3.423 0-5.077-2.458-5.077-5.353 0-3.033 1.815-5.307 5.01-5.307a4.564 4.564 0 014.708 4.549c.004.37-.02.74-.072 1.106l-.003.005zm8.41-11.194v1.286a3.167 3.167 0 00-1.24-.206c-.9 0-1.93.183-1.93 2.274v2.413h3.17v1.286h-3.17v8.892h-1.494v-8.892h-2.317v-1.286h2.321v-2.275c0-3.492 2-3.768 3.24-3.768a3.1 3.1 0 011.42.276zm5.88 6.892a3.793 3.793 0 00-2.766 1.153 3.792 3.792 0 00-1.07 2.799 3.866 3.866 0 002.353 3.68 3.86 3.86 0 005.366-3.68 3.802 3.802 0 00-1.089-2.814 3.796 3.796 0 00-1.28-.857 3.796 3.796 0 00-1.514-.281zm5.376-1.125v10.957c0 3.883-2.044 5.353-5.445 5.353-3.538 0-5.009-2.228-5.146-4.687h1.516a3.305 3.305 0 003.63 3.334c2.46 0 3.952-1.08 3.952-4v-2.939a4.29 4.29 0 01-3.952 2.412 5.198 5.198 0 01-4.906-3.301 5.193 5.193 0 01-.355-2.052 5.166 5.166 0 015.261-5.307 4.262 4.262 0 013.952 2.387v-2.157h1.493zm3.468 10.178v-16.083h1.495v8.11a4.015 4.015 0 013.86-2.435 3.725 3.725 0 013.056 1.263 4.75 4.75 0 01.9 3.171v5.974h-1.499v-5.537c0-2-.85-3.539-2.964-3.539-2.252 0-3.355 1.976-3.355 3.86v5.216h-1.493zm12.612 0v-10.178h1.493v10.178h-1.493zm-.617-14.153a1.37 1.37 0 012.347-.992 1.393 1.393 0 01.408.992 1.373 1.373 0 01-.87 1.261 1.373 1.373 0 01-.53.094 1.335 1.335 0 01-1.255-.835 1.34 1.34 0 01-.1-.52zm7.4 3.975V374.2c0 2.091-1.011 2.987-2.252 2.987a4.234 4.234 0 01-1.7-.275v-1.31c.359.169.752.255 1.149.253.827 0 1.309-.6 1.309-1.746v-13.188h1.494zm-2.114-3.975a1.37 1.37 0 012.348-.992 1.395 1.395 0 01.408.992 1.368 1.368 0 01-1.4 1.355 1.352 1.352 0 01-.966-.391 1.341 1.341 0 01-.395-.964h.005zm13.853 3.975l-5.032 5.1 5.032 5.078h-1.953l-4.786-4.756v4.756h-1.494v-16.083h1.494v10.683l4.779-4.778h1.96zm1.928 10.178v-16.083h1.493v16.083h-1.493zm20.033 0h-1.516v-6c0-2.137-.988-3.079-2.413-3.079-1.792 0-2.826 1.586-2.826 3.906v5.17h-1.516v-5.718c0-2.527-1.011-3.355-2.413-3.355-1.769 0-2.849 1.586-2.849 3.906v5.17h-1.493v-10.178h1.493v2.228a3.293 3.293 0 013.194-2.458 3.01 3.01 0 013.308 2.527 3.56 3.56 0 013.424-2.527c2.366 0 3.607 1.424 3.607 4v6.408zm3.33 0v-10.178h1.493v2.2a4.011 4.011 0 013.86-2.435 3.727 3.727 0 013.056 1.263 4.75 4.75 0 01.9 3.171v5.974h-1.494v-5.532c0-2-.85-3.539-2.963-3.539-2.252 0-3.355 1.976-3.355 3.86v5.216h-1.497zm17.023.252a5.209 5.209 0 01-3.809-1.521 5.209 5.209 0 01-1.521-3.809 5.352 5.352 0 1110.706 0 5.218 5.218 0 01-3.307 4.971c-.66.26-1.365.382-2.074.359h.005zm0-1.378a3.81 3.81 0 003.883-3.952 3.868 3.868 0 00-1.085-2.811 3.876 3.876 0 00-2.775-1.175 3.854 3.854 0 00-2.774 1.175 3.868 3.868 0 00-1.086 2.811 3.796 3.796 0 002.331 3.663 3.79 3.79 0 001.501.294l.005-.005zm9.464-9.052v2.157a4.266 4.266 0 013.952-2.389 5.16 5.16 0 013.765 1.529 5.156 5.156 0 011.496 3.778 5.177 5.177 0 01-.355 2.052 5.178 5.178 0 01-1.132 1.748 5.201 5.201 0 01-3.774 1.553 4.29 4.29 0 01-3.952-2.412v8.064h-1.493v-16.08h1.493zm3.883 1.125a3.814 3.814 0 00-3.629 2.433 3.826 3.826 0 00-.254 1.519 3.868 3.868 0 001.086 2.811 3.855 3.855 0 002.774 1.175 3.863 3.863 0 003.86-3.986 3.798 3.798 0 00-3.837-3.952zm16.26 1.032v-2.157h1.494v16.082h-1.494v-8.064a4.29 4.29 0 01-3.952 2.412 5.201 5.201 0 01-3.774-1.553 5.193 5.193 0 01-1.487-3.8 5.166 5.166 0 015.261-5.307 4.264 4.264 0 013.952 2.387zm-3.883-1.034a3.797 3.797 0 00-3.837 3.952 3.868 3.868 0 001.086 2.811 3.855 3.855 0 002.774 1.175 3.863 3.863 0 003.86-3.986 3.808 3.808 0 00-3.883-3.95v-.002zm14.979-1.1v1.378a2.896 2.896 0 00-.965-.138c-2.482 0-3.63 2.022-3.63 4.389v4.526h-1.494v-10.178h1.494v2.389a3.822 3.822 0 013.63-2.527c.329-.012.658.042.965.161zm5.466 4.6c1.677.413 3.309.827 3.309 2.826 0 1.953-1.563 2.986-3.929 2.986-2.3 0-4.251-1.148-4.251-3.7h1.471c0 1.815 1.24 2.459 2.849 2.459 1.516 0 2.435-.6 2.435-1.723 0-1.333-1.4-1.494-3.354-2.045-1.677-.414-3.079-.85-3.079-2.757 0-1.884 1.608-2.9 3.768-2.9 2.229 0 3.929 1.286 3.929 3.377h-1.47c0-1.4-.942-2.159-2.481-2.159-1.333 0-2.275.62-2.275 1.7-.001 1.218 1.125 1.402 3.078 1.931v.005zm11.027 4.2v1.356c-.57.09-1.146.136-1.723.138-1.333 0-3.1-.276-3.1-3.539v-5.492h-2.045v-1.286h2.045v-3.768h1.516v3.768h2.941v1.286h-2.943v5.193c0 2.182.8 2.458 1.884 2.458a9.443 9.443 0 001.425-.115v.001zm9.395-8.822h1.494v10.177h-1.494v-2.206a4.03 4.03 0 01-3.86 2.458 3.78 3.78 0 01-3.056-1.286 4.751 4.751 0 01-.9-3.171v-5.973h1.517v5.537c0 2 .827 3.538 2.941 3.538 2.251 0 3.354-1.976 3.354-3.86l.004-5.214zm3.261 0h1.631l3.584 8.064 3.631-8.064h1.631L233.47 371.1h-1.08l-4.664-10.178zm21.572 10.178l-3.032-8.5-3.01 8.5h-1.08l-3.929-10.179h1.608l2.849 7.9 2.826-7.9h1.491l2.8 7.9 2.872-7.9h1.608l-3.929 10.178-1.074.001zm10.751-5.1l3.584 5.1h-1.746l-2.711-3.952-2.711 3.952h-1.744l3.584-5.1-3.561-5.077h1.746l2.688 3.905 2.688-3.9h1.724L260.049 366zm10.272 11.233c-3.079 0-4.664-1.562-4.733-4.641h1.516c.115 2.206 1.126 3.355 3.24 3.355 2.068 0 3.239-.919 3.239-3.654v-3.4a3.967 3.967 0 01-3.814 2.458 3.749 3.749 0 01-3.124-1.24 4.782 4.782 0 01-.873-3.332v-5.858h1.516v5.422c0 2.205.666 3.653 2.964 3.653 2.251 0 3.331-1.976 3.331-3.86v-5.215h1.494v11.372c-.003 3.493-1.635 4.94-4.756 4.94zm7.121-16.312h8.454l-6.088 8.822h6.113v1.356h-8.707l6.083-8.821h-5.858l.003-1.357zM1.266 400.267v-6a5.177 5.177 0 015.33-5.33 5.2 5.2 0 015.377 5.33v6a5.203 5.203 0 01-3.306 4.957 5.195 5.195 0 01-2.07.354 5.167 5.167 0 01-3.811-1.506 5.185 5.185 0 01-1.52-3.805zm9.121 0v-6a3.72 3.72 0 00-3.79-3.905 3.713 3.713 0 00-3.768 3.905v6a3.711 3.711 0 003.767 3.883 3.704 3.704 0 002.737-1.12 3.72 3.72 0 001.054-2.763zm3.307-7.1v-1.289c2.826 0 3.332-.735 3.332-2.665h1.495v16.086h-1.61v-12.131l-3.217-.001zm7.512 12.131c0-5.055 1.608-6.548 4.755-7.927 1.907-.8 3.654-1.631 3.654-3.975 0-1.815-1.24-2.986-3.309-2.986a3.346 3.346 0 00-3.338 2.184 3.355 3.355 0 00-.2 1.4h-1.562a4.85 4.85 0 011.442-3.639 4.851 4.851 0 013.658-1.393c2.964 0 4.871 1.723 4.871 4.549 0 3.01-2.619 4.32-4.388 5.055-2.987 1.4-3.814 2.527-3.814 5.307h8.271v1.425h-10.04zm11.348-4.779h1.562a3.514 3.514 0 003.814 3.584c2.23 0 3.63-1.4 3.63-3.194 0-1.884-1.217-3.262-3.63-3.262h-1.218v-1.4h1.218c2.23 0 3.332-1.217 3.332-2.963 0-1.793-1.333-2.872-3.332-2.872-2.252 0-3.423 1.286-3.423 3.17h-1.563c0-2.734 1.976-4.618 4.894-4.618 2.872 0 4.986 1.723 4.986 4.32a3.567 3.567 0 01-2.8 3.676 3.85 3.85 0 013.097 3.927c0 2.757-2.229 4.664-5.262 4.664-2.962 0-5.305-1.929-5.305-5.031v-.001zm19.275 4.779v-5.513h-6.108v-10.569h1.562v9.144h4.55v-5.077h1.558v5.077h2.62v1.425h-2.62v5.514l-1.562-.001zm6.477-6.847v-9.235h9.19v1.424h-7.742v6.273a4.267 4.267 0 013.745-1.953 4.945 4.945 0 015.146 5.261 5.352 5.352 0 01-9.113 3.738 5.352 5.352 0 01-1.594-3.738h1.583a3.778 3.778 0 004.578 3.614 3.776 3.776 0 002.918-3.007 3.782 3.782 0 00-3.75-4.467 3.427 3.427 0 00-3.309 2.091l-1.652-.001zm17.483 7.1a5.206 5.206 0 01-3.808-1.521 5.212 5.212 0 01-1.522-3.809 5.8 5.8 0 01.9-3.056l4.94-7.949h1.814l-3.95 6.18a2.469 2.469 0 011.63-.505 5.328 5.328 0 015.33 5.33 5.334 5.334 0 01-3.29 4.924 5.328 5.328 0 01-2.04.406h-.004zm0-1.447a3.902 3.902 0 003.698-2.318 3.9 3.9 0 10-7.466-1.565 3.733 3.733 0 002.294 3.595 3.73 3.73 0 001.474.288zm6.2-14.888h9.672l-7.419 16.083h-1.677l6.847-14.659h-7.42l-.003-1.424zm15.28 16.335c-3.287 0-5.309-2.044-5.309-4.664a3.858 3.858 0 012.987-3.951 3.515 3.515 0 01-2.665-3.585c0-2.481 1.884-4.388 4.986-4.388 3.078 0 4.962 1.93 4.962 4.388a3.516 3.516 0 01-2.665 3.585 3.87 3.87 0 012.987 3.951c0 2.574-2.022 4.664-5.284 4.664zm0-9.167c2.135 0 3.399-1.286 3.399-2.964 0-1.7-1.31-3.009-3.4-3.009s-3.4 1.286-3.4 3.009c0 1.678 1.263 2.964 3.4 2.964zm0 7.72c2.3 0 3.721-1.4 3.721-3.217 0-1.792-1.379-3.216-3.722-3.216-2.367 0-3.745 1.4-3.745 3.216-.002 1.838 1.447 3.217 3.745 3.217zm12.542-15.141a5.206 5.206 0 015.33 5.33 5.804 5.804 0 01-.9 3.056l-4.94 7.95h-1.815l3.952-6.181a2.023 2.023 0 01-1.448.506 5.327 5.327 0 01-3.883-1.446 5.323 5.323 0 01-1.676-3.791 5.328 5.328 0 011.545-3.845 5.324 5.324 0 013.831-1.579h.004zm0 1.448a3.902 3.902 0 00-3.971 4.583 3.899 3.899 0 007.739-.701 3.727 3.727 0 00-1.052-2.749 3.733 3.733 0 00-2.716-1.133z" fill="#fff"/></g><g clip-path="url(#clip2)" fill="#fff"><path d="M12.906 458.352l-1.124-3.309H4.265l-1.126 3.309H2.082l5.539-16.086h.827l5.515 16.086h-1.057zm-4.872-14.57l-3.447 10.319h6.871l-3.424-10.319zm8.822 14.57h-.965v-16.086h.965v8.709a4.506 4.506 0 014.3-2.757 5.038 5.038 0 013.678 1.495 5.04 5.04 0 011.448 3.698 5.024 5.024 0 01-5.125 5.17 4.509 4.509 0 01-4.3-2.734l-.001 2.505zm8.456-4.941a4.117 4.117 0 00-4.182-4.274 4.137 4.137 0 00-4.274 4.274 4.13 4.13 0 002.62 3.967 4.132 4.132 0 001.654.284 4.11 4.11 0 004.182-4.251zm11.42-1.356c-.16-1.517-1.172-2.942-3.63-2.942-2.575 0-3.953 2.046-3.953 4.275 0 2.252 1.332 4.274 4 4.274 2.252 0 3.332-1.172 3.631-2.712h.988c-.3 2.046-1.769 3.631-4.664 3.631-3.218 0-4.918-2.5-4.918-5.193a4.854 4.854 0 012.964-4.793 4.852 4.852 0 011.954-.377c3.148 0 4.435 1.907 4.618 3.837h-.99zm12.383 3.792a4.475 4.475 0 01-4.273 2.734 5.051 5.051 0 01-3.68-1.484 5.042 5.042 0 01-1.468-3.686 5.045 5.045 0 015.148-5.193 4.463 4.463 0 014.273 2.757v-8.709h.988v16.086h-.988v-2.505zm0-2.436a4.22 4.22 0 00-2.587-3.955 4.217 4.217 0 00-5.846 3.955 4.223 4.223 0 001.212 3.024 4.224 4.224 0 003.005 1.258 4.217 4.217 0 004.216-4.282zm4.823.092c.023 2.229 1.24 4.205 3.953 4.205a3.337 3.337 0 003.355-2.137h1.01a4.24 4.24 0 01-4.365 3.01c-3.31 0-4.918-2.435-4.918-5.193 0-2.964 1.747-5.17 4.849-5.17a4.46 4.46 0 013.22 1.255 4.453 4.453 0 011.353 3.179 6.54 6.54 0 01-.046.851h-8.411zm.023-.827h7.469a3.55 3.55 0 00-2.222-3.4 3.556 3.556 0 00-1.41-.254 3.645 3.645 0 00-2.704 1.002 3.65 3.65 0 00-1.133 2.652zm16.612-9.422a3.013 3.013 0 00-1.333-.226c-.942 0-2.045.3-2.045 2.6v2.819h3.378v.873h-3.378v9.032h-.965v-9.032h-2.367v-.873h2.367v-2.757c0-3.195 1.701-3.562 2.941-3.562.48-.011.955.075 1.4.253l.002.873zm10.939 16.017c0 4.021-2 5.492-5.285 5.492-3.563 0-4.895-2.275-5.01-4.825h.966c.115 2.067 1.15 3.906 4.045 3.906 2.689 0 4.3-1.2 4.3-4.573v-3.443a4.464 4.464 0 01-4.273 2.757 5.055 5.055 0 01-3.686-1.493 5.053 5.053 0 01-1.461-3.7 5.044 5.044 0 015.147-5.17 4.461 4.461 0 014.273 2.757v-2.532h.99l-.006 10.824zm-9.422-5.883a4.222 4.222 0 002.587 3.955 4.217 4.217 0 005.846-3.955 4.218 4.218 0 10-8.433 0zm13.14-11.122h.965v8.756a4.19 4.19 0 014.046-2.8 3.744 3.744 0 012.987 1.194 4.485 4.485 0 01.988 3.172v5.768h-.965v-5.52c0-2.091-1.011-3.7-3.264-3.7a3.938 3.938 0 00-3.576 2.634 3.946 3.946 0 00-.216 1.548v5.033h-.964v-16.085zm13.006 1.011a1.141 1.141 0 011.058.691 1.139 1.139 0 11-1.058-.691zm-.483 5.17h.966v9.905h-.965v-9.905zm6.043 13.306c0 1.93-.942 2.918-2.252 2.918a3.414 3.414 0 01-1.561-.275v-.92c.396.23.85.341 1.308.322.943 0 1.54-.759 1.54-2.091v-13.26h.965v13.306zm-.459-18.476a1.136 1.136 0 01.783 1.93 1.14 1.14 0 01-.783.345 1.103 1.103 0 01-.799-.325 1.117 1.117 0 01-.327-.799 1.123 1.123 0 011.126-1.151zm6.384 10.134l5.36 4.941h-1.356l-5.217-4.78v4.78h-.965v-16.086h.965v10.984l5.217-4.8h1.356l-5.36 4.961zm7.447-11.145h.965v16.086h-.965v-16.086zm18.242 16.086v-5.975c0-2.39-1.2-3.24-2.666-3.24-2.068 0-3.125 2-3.125 4.205v5.01h-.965v-5.584c0-2.919-1.287-3.631-2.689-3.631-2.022 0-3.125 2-3.125 4.205v5.01h-.965v-9.905h.965v2.6a3.433 3.433 0 013.309-2.826 3.037 3.037 0 013.286 2.872 3.613 3.613 0 013.47-2.872c1.93 0 3.47 1.056 3.47 3.906v6.228l-.965-.003zm4.524-9.905h.964v2.575a4.194 4.194 0 014.045-2.8 3.744 3.744 0 012.987 1.194 4.49 4.49 0 01.988 3.172v5.768h-.964v-5.52c0-2.091-1.011-3.7-3.264-3.7a3.93 3.93 0 00-2.777 1.292 3.934 3.934 0 00-1.015 2.89v5.033h-.964v-9.904zm11.535 4.964a5.204 5.204 0 1110.409 0 5.204 5.204 0 01-10.409 0zm9.421 0a4.213 4.213 0 00-4.216-4.216 4.213 4.213 0 00-4.216 4.216 4.215 4.215 0 108.432 0zm4.708-2.436a4.506 4.506 0 014.3-2.757 5.015 5.015 0 013.671 1.486 5.018 5.018 0 011.453 3.684 5.04 5.04 0 01-3.132 4.823 5.035 5.035 0 01-1.992.37 4.505 4.505 0 01-4.3-2.757v8.709h-.965v-16.086h.965v2.528zm0 2.413a4.216 4.216 0 002.595 3.966 4.236 4.236 0 003.267 0 4.24 4.24 0 002.292-2.328c.208-.52.311-1.077.303-1.638a4.231 4.231 0 00-5.862-3.966 4.24 4.24 0 00-2.292 2.328 4.211 4.211 0 00-.303 1.638zm20.657-4.941h.965v16.086h-.965v-8.705a4.5 4.5 0 01-4.3 2.757 5.043 5.043 0 01-5.125-5.193 5.03 5.03 0 011.459-3.68 5.03 5.03 0 013.666-1.49 4.496 4.496 0 014.3 2.757v-2.532zm-8.456 4.941a4.23 4.23 0 007.218 2.99 4.229 4.229 0 10-7.218-2.99zm18.91-4.022a3.122 3.122 0 00-.988-.137c-2.642 0-3.791 2.435-3.791 4.641v4.482h-.965v-9.905h.965v2.735a3.992 3.992 0 013.791-2.9c.337-.013.672.042.988.161v.923zm8.574 6.362c0 1.815-1.379 2.849-3.77 2.849-2.274 0-4.181-1.034-4.181-3.585h.964c0 2 1.449 2.736 3.241 2.736 1.815 0 2.8-.736 2.8-1.955 0-1.516-1.54-1.722-3.378-2.113-1.747-.345-3.309-.689-3.309-2.642 0-1.793 1.471-2.8 3.608-2.8 2.229 0 3.861 1.172 3.861 3.286h-.965c0-1.609-1.173-2.437-2.873-2.437-1.609 0-2.689.713-2.689 1.977 0 1.355 1.241 1.586 3.149 1.977 1.792.367 3.542.689 3.542 2.707zm7.599 2.624c-.547.088-1.101.133-1.655.137-1.379 0-2.872-.321-2.872-3.423v-5.746h-2.183v-.873h2.184v-4.044h.965v4.044h3.194v.873h-3.194v5.608c0 2.344.965 2.642 2.068 2.642.5-.003.999-.042 1.494-.115l-.001.897zm10.57-9.905v9.905h-.988v-2.575a4.174 4.174 0 01-4.045 2.8 3.718 3.718 0 01-2.963-1.194 4.528 4.528 0 01-1.012-3.172v-5.764h.988v5.516c0 2.113 1.011 3.723 3.263 3.723a3.963 3.963 0 003.558-2.659 3.945 3.945 0 00.211-1.547v-5.033h.988zm3.031 0l3.93 8.549 3.975-8.549h1.057l-4.642 9.905h-.781l-4.6-9.905h1.061zm16.888 1.126l-3.126 8.779h-.758l-3.815-9.905h1.034l3.148 8.5 3.033-8.5h.988l3.011 8.5 3.149-8.5h1.056l-3.81 9.905h-.781l-3.129-8.779zm16.817 8.779h-1.149l-3.08-4.2-3.055 4.205h-1.15l3.627-4.969-3.6-4.941h1.148l3.033 4.183 3.057-4.183h1.149l-3.63 4.941 3.65 4.964zm2.25 1.654h.966c.114 2.551 1.08 3.884 3.631 3.884 2.343 0 3.561-1.1 3.561-4.229v-3.884a4.133 4.133 0 01-4 2.8 3.76 3.76 0 01-3.079-1.126c-.689-.735-.943-1.746-.943-3.424v-5.58h.966v5.355c0 2.413.757 3.884 3.331 3.884 2.505 0 3.724-2.276 3.724-4.206v-5.033h.965v11.214c0 3.677-1.518 5.1-4.551 5.1-3.193.002-4.503-1.633-4.571-4.755zm19.786-11.559l-6.618 9.008h6.687v.9h-8.457l6.619-8.986h-6.32v-.922h8.089zM3.322 481.36a5.06 5.06 0 011.471-3.707 5.056 5.056 0 013.7-1.486 5.058 5.058 0 013.731 1.469 5.048 5.048 0 011.485 3.724v6.319a5.045 5.045 0 01-5.216 5.171 5.044 5.044 0 01-3.693-1.477 5.056 5.056 0 01-1.478-3.694v-6.319zm9.376 0a4.1 4.1 0 00-4.205-4.251 4.101 4.101 0 00-3.889 2.62c-.2.52-.292 1.075-.27 1.631v6.319a4.09 4.09 0 002.54 3.926c.513.21 1.064.313 1.62.303a4.105 4.105 0 003.92-2.596 4.098 4.098 0 00.284-1.633v-6.319zm2.917-2.232c2.735 0 3.194-.735 3.194-2.666h.965v16.089H18.74v-12.547h-3.125v-.876zm11.965 5.61c2.16-.781 3.884-1.609 3.884-4.159 0-1.953-1.356-3.4-3.837-3.4a3.854 3.854 0 00-2.938 1.14 3.873 3.873 0 00-1.108 2.95h-1.006a4.836 4.836 0 015.079-5.032c3.055 0 4.824 1.792 4.824 4.412 0 3.033-2.274 4.136-4.412 4.895-3.331 1.241-4.365 2.666-4.365 6.066h8.916v.942h-10.02c0-5.01 1.471-6.549 4.983-7.814zm7.358 3.332c0 2.252 1.677 3.769 4.182 3.769 2.528 0 4.136-1.517 4.136-3.585s-1.47-3.539-4.044-3.539h-1.287v-.942h1.287c2.39 0 3.769-1.355 3.769-3.286 0-2-1.517-3.309-3.861-3.309-2.46 0-3.883 1.4-3.883 3.47h-1.011c0-2.62 1.93-4.412 4.848-4.412s4.918 1.724 4.918 4.251a3.62 3.62 0 01-3.125 3.746 3.915 3.915 0 013.4 4.021c0 2.689-2.115 4.527-5.171 4.527-3.01 0-5.17-1.861-5.17-4.711h1.012zm18.198-1.378h-6.253v-10.227h1.01v9.285h5.24v-5.217h1.01v5.217h2.83v.942h-2.827v5.859h-1.01v-5.859zm6.246-10.227h8.893v.943h-7.95v7.22a4.414 4.414 0 013.929-2.115 4.892 4.892 0 013.685 1.421 4.906 4.906 0 011.44 3.679 5.204 5.204 0 01-10.41 0h1.013a4.194 4.194 0 104.16-4.159 3.71 3.71 0 00-3.631 2.252h-1.13v-9.241zm11.852 11.146a5.393 5.393 0 01.829-2.9l5.123-8.25h1.172l-4.25 6.734a3.386 3.386 0 012.3-.781 5.188 5.188 0 014.794 3.189 5.18 5.18 0 01-6.757 6.785 5.188 5.188 0 01-3.209-4.781l-.002.004zm9.376 0a4.18 4.18 0 00-5.017-4.052 4.188 4.188 0 00-3.267 3.285 4.183 4.183 0 004.08 4.995 4.104 4.104 0 004.204-4.228zm11.215-11.146l-7.743 16.086h-1.08l7.307-15.143h-7.883v-.943h9.399zm.295 11.789a3.926 3.926 0 013.332-4.021 3.613 3.613 0 01-3.056-3.7c0-2.482 1.884-4.3 4.918-4.3 3.01 0 4.917 1.815 4.917 4.3a3.639 3.639 0 01-3.056 3.7 3.905 3.905 0 013.309 4.021c0 2.6-1.976 4.527-5.17 4.527s-5.194-1.907-5.194-4.527zm9.353 0c0-2.022-1.54-3.539-4.16-3.539-2.642 0-4.182 1.494-4.182 3.539 0 2.091 1.609 3.585 4.183 3.585 2.55 0 4.159-1.517 4.159-3.585zm-.253-7.7c0-1.953-1.516-3.378-3.906-3.378-2.367 0-3.884 1.4-3.884 3.378 0 1.907 1.448 3.286 3.884 3.286s3.906-1.377 3.906-3.284v-.002zm13.535.852a5.35 5.35 0 01-.827 2.9l-5.125 8.25h-1.172l4.251-6.738a3.108 3.108 0 01-2.206.781 5.19 5.19 0 01-2.906-.822 5.187 5.187 0 01-.902-7.982 5.185 5.185 0 018 .725 5.18 5.18 0 01.887 2.886zm-9.376 0a4.185 4.185 0 002.603 3.828 4.18 4.18 0 005.68-3.046 4.181 4.181 0 00-4.055-5.01 4.101 4.101 0 00-3.937 2.592 4.088 4.088 0 00-.288 1.636h-.003z"/></g><path d="M5.79 568l2.32-6.26h.02V568h.83v-7.14H7.68l-2.2 6.02h-.02l-2.2-6.02H1.93V568h.82v-6.26h.02L5.09 568h.7zm11.857 0v-.72h-3.98v-2.48h3.53v-.73h-3.53v-2.49h3.97v-.72h-4.82V568h4.83zm3.116-2.11c.1 1.56 1.4 2.23 2.95 2.23 1.51 0 2.59-.86 2.59-2.08 0-1.13-.7-1.64-1.8-1.86l-1.4-.29c-.87-.17-1.27-.42-1.27-1.13 0-.75.62-1.33 1.66-1.33 1.02 0 1.72.46 1.84 1.26h.83c-.14-1.29-1.15-1.95-2.68-1.95-1.48 0-2.49.88-2.49 2.05 0 1.23.86 1.67 1.82 1.85l1.36.27c.97.18 1.3.57 1.3 1.17 0 .86-.75 1.35-1.77 1.35-1.06 0-2-.39-2.11-1.54h-.83zm8.563 0c.1 1.56 1.4 2.23 2.95 2.23 1.51 0 2.59-.86 2.59-2.08 0-1.13-.7-1.64-1.8-1.86l-1.4-.29c-.87-.17-1.27-.42-1.27-1.13 0-.75.62-1.33 1.66-1.33 1.02 0 1.72.46 1.84 1.26h.83c-.14-1.29-1.15-1.95-2.68-1.95-1.48 0-2.49.88-2.49 2.05 0 1.23.86 1.67 1.82 1.85l1.36.27c.97.18 1.3.57 1.3 1.17 0 .86-.75 1.35-1.77 1.35-1.06 0-2-.39-2.11-1.54h-.83zM43.438 568h.9l-2.9-7.14h-.97l-2.89 7.14h.86l.79-1.99h3.42l.79 1.99zm-2.51-6.28h.03l1.41 3.58h-2.86l1.42-3.58zm5.836 2.7c0 2.25 1.37 3.7 3.26 3.7.95 0 1.91-.54 2.18-1.31l.08 1.19h.68v-3.56h-2.53v.68h1.69v.37c0 1.16-.89 1.9-2.09 1.9-1.51 0-2.39-1.19-2.39-2.97 0-1.78.9-2.95 2.42-2.95 1.09 0 1.74.58 1.93 1.47h.86c-.25-1.32-1.2-2.2-2.79-2.2-1.89 0-3.3 1.44-3.3 3.68zm9.89 3.58h.86v-7.14h-.86V568zm5.795-7.14h-1.06V568h.84v-6.09h.02l4.06 6.09h.8v-7.14h-.83v5.7h-.02l-3.81-5.7zm8.098 3.56c0 2.25 1.37 3.7 3.26 3.7.95 0 1.91-.54 2.18-1.31l.08 1.19h.68v-3.56h-2.53v.68h1.69v.37c0 1.16-.89 1.9-2.09 1.9-1.51 0-2.39-1.19-2.39-2.97 0-1.78.9-2.95 2.42-2.95 1.09 0 1.74.58 1.93 1.47h.86c-.25-1.32-1.2-2.2-2.79-2.2-1.89 0-3.3 1.44-3.3 3.68zm16.589-3.56h-2.53V568h2.53c2.07 0 3.48-1.42 3.48-3.57 0-2.14-1.41-3.57-3.48-3.57zm0 .72c1.66 0 2.59 1.13 2.59 2.85 0 1.73-.93 2.85-2.59 2.85h-1.68v-5.7h1.68zM98.877 568v-.72h-3.98v-2.48h3.53v-.73h-3.53v-2.49h3.97v-.72h-4.82V568h4.83zm5.706 0h.98l2.9-7.14h-.88l-2.48 6.26h-.02l-2.48-6.26h-.9l2.88 7.14zm6.98 0h.86v-7.14h-.86V568zm5.184-3.58c0-1.78.85-2.95 2.32-2.95 1.2 0 1.72.67 1.88 1.47h.84c-.23-1.3-1.16-2.2-2.72-2.2-1.84 0-3.2 1.44-3.2 3.68 0 2.25 1.36 3.7 3.2 3.7 1.56 0 2.49-.9 2.72-2.2h-.84c-.16.8-.68 1.47-1.88 1.47-1.47 0-2.32-1.19-2.32-2.97zm13.236 3.58v-.72h-3.98v-2.48h3.53v-.73h-3.53v-2.49h3.97v-.72h-4.82V568h4.83z" fill="#fff"/><g clip-path="url(#clip3)"><path d="M8.785 627.962H217.74a6.683 6.683 0 110 13.365H8.785a6.684 6.684 0 01-4.725-11.405 6.678 6.678 0 014.725-1.96z" fill="#614601"/><path d="M20.294 636.837c-3.451 0-6.175-.922-8.168-2.767a9.825 9.825 0 01-2.991-7.589h2.99a7.317 7.317 0 002.21 5.6 8.35 8.35 0 005.96 2.076 7.906 7.906 0 005.245-1.563 5.41 5.41 0 001.852-4.374 5.394 5.394 0 00-1.316-3.77 8.378 8.378 0 00-4.085-2.21l-5.267-1.607c-4.434-1.22-6.652-3.928-6.652-8.125a7.65 7.65 0 011.228-4.285 8.2 8.2 0 013.436-2.924 11.68 11.68 0 015.069-1.049 10.125 10.125 0 017.232 2.522 8.96 8.96 0 012.678 6.852h-2.992a6.545 6.545 0 00-1.852-4.974 7.181 7.181 0 00-5.156-1.766 7.268 7.268 0 00-4.822 1.495 4.9 4.9 0 00-1.789 3.951 5.194 5.194 0 001.407 3.772 9.754 9.754 0 004.4 2.3l5.093 1.517a8.941 8.941 0 014.755 2.968 8.3 8.3 0 011.63 5.29 7.91 7.91 0 01-2.723 6.317 10.912 10.912 0 01-7.372 2.343zm15.31-20.981h2.858v20.312h-2.858v-20.312zm1.428-4.106a2.521 2.521 0 01-1.9-.759 2.586 2.586 0 01-.737-1.875 2.647 2.647 0 01.736-1.92 2.521 2.521 0 011.9-.759 2.595 2.595 0 011.92.76 2.6 2.6 0 01.76 1.919 2.544 2.544 0 01-.76 1.875 2.59 2.59 0 01-1.92.759zm8.21 4.106h2.863v4.554a7.298 7.298 0 012.232-3.616 6.201 6.201 0 014.285-1.473 7.133 7.133 0 014.375 1.294 6.112 6.112 0 012.277 3.8 7.029 7.029 0 016.874-5.089 6.935 6.935 0 015.424 2.053 8.577 8.577 0 011.853 5.937v12.852h-2.82v-12.276a6.61 6.61 0 00-1.361-4.6 4.83 4.83 0 00-3.728-1.473 4.937 4.937 0 00-4.24 2.1 9.825 9.825 0 00-1.518 5.847v10.4h-2.854v-11.7c0-4.434-1.696-6.651-5.088-6.651a4.814 4.814 0 00-4.241 2.165 10.113 10.113 0 00-1.473 5.78v10.4h-2.86v-20.304zm47.762-.535a9.782 9.782 0 015.157 1.361 9.444 9.444 0 013.526 3.8 11.802 11.802 0 011.273 5.557 11.563 11.563 0 01-1.3 5.513 9.455 9.455 0 01-3.617 3.795 10.127 10.127 0 01-5.223 1.361 8.904 8.904 0 01-4.816-1.344 8.163 8.163 0 01-3.169-3.571v13.972H81.98v-29.909h2.856v4.42a7.58 7.58 0 013.193-3.638 9.532 9.532 0 014.976-1.317zm-.49 18.793a7.295 7.295 0 006.607-3.928 8.656 8.656 0 00.982-4.152 8.792 8.792 0 00-.982-4.174 7.265 7.265 0 00-6.607-3.95 7.75 7.75 0 00-4.04 1.049 7.419 7.419 0 00-2.768 2.9 8.625 8.625 0 00-1 4.174 8.49 8.49 0 001 4.152 7.41 7.41 0 002.79 2.879 7.791 7.791 0 004.017 1.05zm15.442-29.194h2.857v31.248h-2.857V604.92zm9.64 10.936h2.857v20.312h-2.857v-20.312zm1.428-4.106a2.525 2.525 0 01-1.9-.759 2.574 2.574 0 01-.736-1.875 2.642 2.642 0 01.736-1.92 2.525 2.525 0 011.9-.759 2.597 2.597 0 012.499 1.64c.131.331.193.684.182 1.039a2.541 2.541 0 01-.759 1.875 2.614 2.614 0 01-1.922.759zm16.871-4.509a4.339 4.339 0 00-2.79.87c-.73.581-1.094 1.747-1.093 3.5v4.24h6.205v2.456h-6.205v17.861h-2.857v-17.856h-4.464v-2.456h4.464v-4.106c0-2.738.61-4.605 1.83-5.6a6.508 6.508 0 014.241-1.5 7.18 7.18 0 012.991.535v2.5a8.217 8.217 0 00-2.322-.444zm6.562 8.615h2.857v20.312h-2.857v-20.312zm1.429-4.106a2.525 2.525 0 01-1.9-.759 2.593 2.593 0 01-.737-1.875 2.632 2.632 0 01.737-1.92 2.525 2.525 0 011.9-.759 2.593 2.593 0 011.918.761 2.614 2.614 0 01.76 1.918 2.541 2.541 0 01-.759 1.875 2.598 2.598 0 01-1.919.759zm25.844 12.99c0 .327-.03.967-.09 1.919h-16.427a7.634 7.634 0 001.919 5.469 6.827 6.827 0 005.223 2.031 7.434 7.434 0 003.906-.982 5.352 5.352 0 002.3-2.723h2.9a7.346 7.346 0 01-3.125 4.508 10.2 10.2 0 01-5.982 1.741 10.413 10.413 0 01-5.312-1.317 8.797 8.797 0 01-3.5-3.749 12.353 12.353 0 01-1.228-5.647 12.21 12.21 0 011.228-5.625 8.904 8.904 0 013.459-3.727 10.86 10.86 0 0110.156-.112 8.59 8.59 0 013.37 3.348 9.75 9.75 0 011.203 4.866zm-2.813-.357a6.905 6.905 0 00-1.83-4.888 6.51 6.51 0 00-4.91-1.853 6.617 6.617 0 00-4.866 1.853 7.361 7.361 0 00-2.1 4.888h13.706zm26.781-19.463v31.248h-2.812v-4.375a8.033 8.033 0 01-3.147 3.549 8.92 8.92 0 01-4.844 1.361 10.3 10.3 0 01-5.423-1.384 9.182 9.182 0 01-3.527-3.816 11.966 11.966 0 01-1.227-5.469 11.786 11.786 0 011.249-5.468 9.445 9.445 0 013.572-3.839 10.206 10.206 0 015.4-1.406 8.849 8.849 0 014.866 1.339 7.927 7.927 0 013.08 3.616V604.92h2.813zm-10.493 29.194a7.755 7.755 0 004.174-1.094 7.269 7.269 0 002.7-2.946 8.848 8.848 0 00.937-4.04 8.93 8.93 0 00-.937-4.084 7.269 7.269 0 00-2.7-2.946 7.755 7.755 0 00-4.174-1.094 7.137 7.137 0 00-5.535 2.3 8.303 8.303 0 00-2.1 5.825 8.962 8.962 0 00.937 4.152 7.043 7.043 0 002.678 2.879 7.633 7.633 0 004.02 1.048zm38.011 3.836l-.012.012a.643.643 0 01-.062.076.647.647 0 01-.057.047 4.863 4.863 0 01-7.7-5.8.64.64 0 01.1-.183l.006-.012a.662.662 0 01.91-.104.666.666 0 01.148.904 3.543 3.543 0 005.595 4.248c.014-.017.026-.035.041-.05a.666.666 0 011.016.853l.015.009zm-3.576-9.986a6.685 6.685 0 00-6.555 7.987 6.692 6.692 0 001.829 3.422 6.692 6.692 0 003.422 1.829 6.692 6.692 0 006.861-2.842 6.685 6.685 0 00-5.557-10.398v.002z" fill="#fff"/></g><g clip-path="url(#clip4)"><path d="M9.32 701.111a2.815 2.815 0 01.135-.971c.136-.294.35-.546.617-.727l.542-.419c.231-.164.425-.376.566-.623a1.65 1.65 0 00.177-.787 1.204 1.204 0 00-.3-.859 1.035 1.035 0 00-.794-.32 1.33 1.33 0 00-.994.381c-.268.313-.4.72-.37 1.131H7.544a2.687 2.687 0 01.741-2.022 2.8 2.8 0 012.035-.718 2.4 2.4 0 011.787.651 2.321 2.321 0 01.647 1.708 2.35 2.35 0 01-.306 1.24 4.097 4.097 0 01-.917 1.008l-.424.344a1.514 1.514 0 00-.405.442 1.117 1.117 0 00-.1.504v.172H9.32v-.135zm.635 2.973a.919.919 0 01-.7-.307 1.04 1.04 0 01-.29-.737 1.017 1.017 0 01.29-.732.942.942 0 01.7-.3.942.942 0 01.706.3 1.015 1.015 0 01.29.732 1.023 1.023 0 01-.29.737.944.944 0 01-.706.307z" fill="#fff"/><path d="M9.726 707.612a8.072 8.072 0 100-16.144 8.072 8.072 0 000 16.144zm25.451 0a8.072 8.072 0 100-16.144 8.072 8.072 0 000 16.144z" stroke="#fff" stroke-width="1.309"/><path d="M34.793 694.461h1.664v6.866h-1.664v-6.866zm.811 10.158a1.264 1.264 0 01-.91-.357 1.142 1.142 0 01-.374-.856 1.116 1.116 0 01.375-.847c.245-.232.572-.358.909-.35.34-.007.668.119.916.35a1.108 1.108 0 01.383.847 1.134 1.134 0 01-.383.856 1.295 1.295 0 01-.916.357z" fill="#fff"/><path d="M59.9 707.612a8.072 8.072 0 100-16.144 8.072 8.072 0 000 16.144z" stroke="#fff" stroke-width="1.309"/><path d="M59.229 700.212h-3.49a.685.685 0 01-.497-.173.668.668 0 01-.222-.477.67.67 0 01.187-.491.684.684 0 01.483-.207h3.539v-3.511a.679.679 0 01.411-.643.68.68 0 01.527 0 .67.67 0 01.411.643v3.512h3.512a.666.666 0 01.491.19.666.666 0 01.206.485.674.674 0 01-.697.674h-3.512v3.539a.674.674 0 11-1.348-.048l-.001-3.493z" fill="#fff"/><path d="M60.571 700.212v3.49a.672.672 0 01-.65.719.683.683 0 01-.49-.188.669.669 0 01-.208-.483c0-.086-.004-1.32 0-3.538h-3.51a.667.667 0 01-.492-.19.677.677 0 010-.97.667.667 0 01.491-.189h3.512v-3.512a.67.67 0 01.411-.644.68.68 0 01.749.152.672.672 0 01.19.492v3.518h3.538a.665.665 0 01.627.434.674.674 0 01-.675.914c-.06-.006-1.424-.006-3.493-.005zm25.452-.21l1.91-2.327.628-.767.239-.291a.675.675 0 01.739-.216c.087.03.166.077.234.138a.747.747 0 01.073 1.019l-.238.29-.629.767-1.906 2.327a1255.15 1255.15 0 00-2.756 3.368.67.67 0 01-1.048.04l-3.303-3.76a.745.745 0 01.041-1.018.664.664 0 01.975.043l2.775 3.158c.466-.575 1.23-1.51 2.266-2.771z" fill="#fff"/><path d="M84.627 707.612a8.072 8.072 0 100-16.144 8.072 8.072 0 000 16.144zm24.89.336a8.24 8.24 0 008.24-8.24 8.24 8.24 0 00-8.24-8.24 8.24 8.24 0 00-8.24 8.24 8.24 8.24 0 008.24 8.24z" stroke="#fff" stroke-width="1.309"/><path d="M109.637 696.049a1.818 1.818 0 10.005 3.636 1.818 1.818 0 00-.005-3.636v0zm.059 9.672a5.815 5.815 0 004.425-2.051 6.144 6.144 0 00-6.737-1.219 6.162 6.162 0 00-1.974 1.374 5.812 5.812 0 004.286 1.896v0z" stroke="#fff" stroke-width="1.309"/><path d="M45.48 727.159h-.01v-3.964a.883.883 0 00-.882-.882h-.602v-1.869a.885.885 0 00-.548-.821.883.883 0 00-.34-.068h-14.47a2.01 2.01 0 00-2.007 1.951h-.012v11.601a2.588 2.588 0 002.588 2.587h15.392a.884.884 0 00.881-.884v-3.346h.006l.004-4.305zm-16.852-6.327h14.086v1.475H28.628a.739.739 0 010-1.475zm15.556 13.572H29.199a1.298 1.298 0 01-1.298-1.297v-9.648c.231.094.478.143.727.146h15.558v3.555H41.68a2.159 2.159 0 00-2.04 1.316 2.153 2.153 0 002.04 2.989h2.503v2.939zm-.037-5.913v1.64h-2.466a.824.824 0 01-.795-.82.82.82 0 01.795-.82h2.466zm-26.075 6.705l-3.491-3.609c-.014-.015-.033-.021-.048-.034a7.547 7.547 0 10-.92.9c.01.013.015.03.027.043l3.49 3.609a.659.659 0 00.464.215.662.662 0 00.623-.398.657.657 0 00-.145-.726zm-9.27-2.333a6.305 6.305 0 110-12.61 6.305 6.305 0 010 12.61zm60.566-12.546H66.91v-1.171a.65.65 0 00-.404-.604.653.653 0 00-.905.604v1.171h-5.745v-1.171a.653.653 0 00-.654-.654.654.654 0 00-.654.654v1.171H56.24a1.755 1.755 0 00-1.753 1.753v12.567a1.753 1.753 0 001.753 1.753h13.127a1.755 1.755 0 001.62-1.082c.088-.213.133-.441.133-.671V722.07a1.747 1.747 0 00-.513-1.239 1.746 1.746 0 00-1.24-.514zm-13.127 1.309h13.127a.443.443 0 01.444.444v1.947H55.797v-1.947a.443.443 0 01.444-.444zm13.127 13.458H56.241a.444.444 0 01-.444-.444v-9.314h14.015v9.314a.443.443 0 01-.444.444z" fill="#fff"/><path d="M58.166 726.995h1.98a.576.576 0 01.577.577v1.979a.577.577 0 01-.577.577h-1.98a.577.577 0 01-.576-.577v-1.979a.577.577 0 01.576-.577zm6.784 0h-1.979a.577.577 0 00-.576.577v1.979c0 .319.258.577.576.577h1.98a.577.577 0 00.576-.577v-1.979a.577.577 0 00-.576-.577zm35.072.841c-.146-.254-3.612-6.222-10.071-6.222h-.218c-6.458 0-9.927 5.968-10.072 6.222l-.087.15v.378l.088.149c.145.254 3.611 6.222 10.07 6.222h.219c6.457 0 9.926-5.968 10.071-6.222l.087-.181v-.349l-.087-.147zm-10.071 5.59h-.218c-4.898 0-7.963-4.083-8.74-5.252.777-1.167 3.84-5.251 8.74-5.251h.218c4.899 0 7.963 4.084 8.738 5.252-.772 1.17-3.825 5.251-8.738 5.251z" fill="#fff"/><path d="M89.6 724.446a3.802 3.802 0 100 7.605 3.802 3.802 0 000-7.605zm0 6.299a2.496 2.496 0 01-1.765-4.259 2.5 2.5 0 012.719-.541 2.498 2.498 0 011.54 2.305 2.494 2.494 0 01-2.494 2.495zm39.509-3.395a.769.769 0 00.087-.354.648.648 0 00-.087-.324c-.145-.254-3.612-6.222-10.071-6.222h-.218a10.212 10.212 0 00-4.587 1.095l-3.164-3.166a.654.654 0 10-.927.926l2.909 2.909a14.383 14.383 0 00-4.304 4.457.665.665 0 00-.087.323v.031a.669.669 0 00.087.324c.146.253 3.612 6.221 10.071 6.221h.219a10.22 10.22 0 004.382-.99l3.089 3.089a.658.658 0 00.713.143.652.652 0 00.355-.855.652.652 0 00-.142-.213l-2.821-2.82a14.376 14.376 0 004.496-4.574zm-10.071 4.912h-.218c-4.899 0-7.962-4.082-8.739-5.252a13.417 13.417 0 013.931-3.839l1.642 1.64a3.732 3.732 0 00-.773 2.269 3.808 3.808 0 003.803 3.804 3.732 3.732 0 002.269-.773l1.464 1.465a8.81 8.81 0 01-3.379.686zm.986-3.077a2.44 2.44 0 01-1.339.397 2.5 2.5 0 01-2.495-2.495 2.438 2.438 0 01.397-1.339l3.437 3.437zm3.632 1.781l-8.428-8.429a8.782 8.782 0 013.593-.779h.218c4.899 0 7.963 4.084 8.738 5.252a13.223 13.223 0 01-4.121 3.956z" fill="#fff"/><path d="M169.713 725.445l-5.712 4.364-5.923-4.364M138 727.219l5.303-4.866 5.5 4.866" stroke="#fff" stroke-width="1.571" stroke-linecap="round" stroke-linejoin="round"/><path d="M143.398 732.946v-9.428" stroke="#fff" stroke-width="1.571" stroke-linecap="round"/><path d="M189.06 728.035l-5.303 4.866-5.499-4.866" stroke="#fff" stroke-width="1.571" stroke-linecap="round" stroke-linejoin="round"/><path d="M183.66 722.308v9.428" stroke="#fff" stroke-width="1.571" stroke-linecap="round"/></g><path d="M199.742 1251.3H70.906v-82.65h128.836v82.65z" fill="#fff" stroke="#343434" stroke-width="1.167" stroke-linecap="round" stroke-linejoin="round"/><path d="M199.244 1177.22H71.398" stroke="#343434" stroke-width=".778" stroke-linecap="round" stroke-linejoin="round"/><path d="M80.683 1174.97a1.77 1.77 0 100-3.54 1.77 1.77 0 100 3.54zm5.196 0a1.77 1.77 0 100-3.54 1.77 1.77 0 100 3.54zm-10.395 0a1.77 1.77 0 100-3.54 1.77 1.77 0 100 3.54z" fill="#fff" stroke="#343434" stroke-width=".778" stroke-linecap="round" stroke-linejoin="round"/><path d="M114.026 1183h-29.92v1.89h29.92V1183zm-11.299 5.2H84.106v1.89h18.621v-1.89z" fill="#343434"/><path d="M198.392 1179.86a3.53 3.53 0 100-7.058 3.53 3.53 0 000 7.058z" fill="#fff" stroke="#343434" stroke-width="1.167" stroke-linecap="round" stroke-linejoin="round"/><path d="M150.829 1121.24v32.11h-11.826l-10.671 10.69.083-10.69h-25.911v-48.32h8.202" fill="#fff"/><path d="M150.829 1121.24v32.11h-11.826l-10.671 10.69.083-10.69h-25.911v-48.32h8.202" stroke="#343434" stroke-width="1.76" stroke-linecap="round" stroke-linejoin="round"/><path d="M154.09 1090.03l-28.178-7.2a1.999 1.999 0 00-2.43 1.44l-12.263 48a1.996 1.996 0 001.441 2.43l28.178 7.2a1.999 1.999 0 002.43-1.44l12.264-48a1.996 1.996 0 00-1.442-2.43z" fill="#343434"/><path d="M151.262 1089.32l-28.178-7.2a1.999 1.999 0 00-2.43 1.44l-12.263 48.01a2.004 2.004 0 001.441 2.43l28.178 7.19a1.99 1.99 0 002.43-1.44l12.264-48a1.996 1.996 0 00-1.442-2.43z" fill="#fff" stroke="#343434" stroke-width="1.32" stroke-linecap="round" stroke-linejoin="round"/><path d="M138.813 1138.31l11.769-46.07a1.51 1.51 0 00-1.095-1.84l-25.358-6.48a1.515 1.515 0 00-1.846 1.09l-11.768 46.07c-.207.81.283 1.63 1.094 1.84l25.359 6.48c.812.21 1.638-.28 1.845-1.09z" fill="#fff" stroke="#343434" stroke-width=".88" stroke-linecap="round" stroke-linejoin="round"/><path d="M125.895 1132.98a3.11 3.11 0 003.114-3.11c0-1.72-1.394-3.12-3.114-3.12s-3.114 1.4-3.114 3.12a3.11 3.11 0 003.114 3.11z" fill="#fff" stroke="#343434" stroke-width=".88" stroke-linecap="round" stroke-linejoin="round"/><path d="M124.838 1108.24c.102.01.2.05.287.1.087.06.16.13.214.22a.69.69 0 01.062.59c-.132.51-.5.63-1.024.5l-4.253-1.1a.841.841 0 01-.34-.13.81.81 0 01-.258-.25.878.878 0 01-.114-.7c.208-.8 1.154-1.52 2.8-2.04 1.835-.59 2.432-.66 2.669-1.58.043-.15.054-.31.032-.47a1.182 1.182 0 00-.161-.45 1.202 1.202 0 00-.327-.34c-.132-.1-.281-.16-.438-.19-.345-.12-.722-.1-1.052.06-.33.15-.589.43-.722.76-.222.39-.425.57-.879.45a.707.707 0 01-.316-.1.698.698 0 01-.238-.23.721.721 0 01-.077-.64c.358-1.38 1.992-2.09 3.659-1.66 1.815.47 2.584 1.94 2.314 2.99-.391 1.51-1.235 1.92-2.613 2.29-1.47.39-2.373.65-2.632 1.05l3.407.87zm5.057.9l-2.849-.74a.873.873 0 01-.312-.12.87.87 0 01-.236-.24.792.792 0 01-.123-.31 1.024 1.024 0 01.4-.95l4.653-3.57c.115-.09.25-.15.393-.17a.882.882 0 01.426.04.745.745 0 01.576.36c.062.1.1.21.111.33a.782.782 0 01-.048.35l-1.071 4.14.567.14a.674.674 0 01.172 1.23.692.692 0 01-.508.07l-.567-.15-.3 1.17a.822.822 0 01-1 .59.799.799 0 01-.501-.38.817.817 0 01-.087-.62l.304-1.17zm1.095-4.23h-.023l-2.949 2.37 2.211.57.761-2.94zm6.451-.3a.594.594 0 01.334-.29.613.613 0 01.442-.01c.143.06.262.16.337.29.075.13.1.29.071.43-.043.13-.106.25-.188.36l-4.558 6.43a.68.68 0 01-.333.29.67.67 0 01-.442 0 .633.633 0 01-.409-.72c.042-.13.106-.25.189-.35l4.557-6.43zm6.778 1.73c.113.01.221.05.315.12.095.06.173.14.229.24a.747.747 0 01.027.66c-.235.9-2.191.75-4.672 5.56-.321.64-.539.82-1.072.68a.676.676 0 01-.334-.12.84.84 0 01-.241-.26.77.77 0 01-.025-.69c.99-2.05 2.528-3.78 4.443-5.01l-3.663-.95a.586.586 0 01-.28-.11.666.666 0 01-.3-.49.668.668 0 01.039-.3c.016-.1.055-.2.114-.28a.639.639 0 01.518-.29c.103-.01.206.01.301.05l4.601 1.19z" fill="#343434"/><path d="M62.981 1210.11v12.29l-46.712.41v-39.54" fill="#fff"/><path d="M62.981 1210.11v12.29l-46.712.41v-39.54" stroke="#343434" stroke-width="1.76" stroke-linecap="round" stroke-linejoin="round"/><path d="M26.27 1156.46h36.713v21.42l10.797-.7-10.797 14.66v2.73" fill="#fff"/><path d="M26.27 1156.46h36.713v21.42l10.797-.7-10.797 14.66v2.73" stroke="#343434" stroke-width="1.76" stroke-linecap="round" stroke-linejoin="round"/><path d="M36.465 1185.76l2.734-3.86 31.852 22.51 5.074 1.02 2.504 4.33-2.733 3.87-4.95-1.11-2.97-4.49-31.511-22.27zm-2.126 3l6.912-9.79c.91-1.29.603-3.07-.685-3.98a2.863 2.863 0 00-3.981.68l-6.912 9.79a2.855 2.855 0 00.685 3.98c1.288.91 3.07.6 3.98-.68z" fill="#fff" stroke="#343434" stroke-width="1.32" stroke-linecap="round" stroke-linejoin="round"/><path d="M5.184 1160.76a6.214 6.214 0 014.013-2.53c1.62-.28 3.284.1 4.627 1.04l19.282 13.63 1.43 5.7-2.734 3.87-5.51.8L6.67 1169.4a6.3 6.3 0 01-1.666-1.75 6.202 6.202 0 01.18-6.89z" fill="#343434" stroke="#343434" stroke-width="1.32" stroke-linecap="round" stroke-linejoin="round"/><path d="M29.617 1174.7l-16.894-11.94m13.76 16.38L9.59 1167.2" stroke="#fff" stroke-width=".88" stroke-linecap="round" stroke-linejoin="round"/><path d="M194.863 1208.02v42.1" stroke="#343434" stroke-width=".778" stroke-linecap="round" stroke-linejoin="round"/><path d="M84.625 1241.26l10.591-9.65 6.307 5.74 13.808-12.58 4.549 4.15 14.376-15.83 8.43 10.39 4.413-7.69 11.129 12.17 14.206-24.15v37.7l-87.809-.25z" fill="#FFF100"/><path d="M84.625 1241.26l10.591-9.65 6.307 5.74 13.808-12.58 4.549 4.15 14.376-15.83 8.43 10.39 4.413-7.69 11.129 12.17 13.432-23.87" stroke="#343434" stroke-width="1.637" stroke-linecap="round" stroke-linejoin="round"/><path d="M84.625 1195.8v46.12h87.626" stroke="#343434" stroke-width="1.637" stroke-linecap="round" stroke-linejoin="round"/><path d="M200.237 1208.02h-5.374v42.76h5.374v-42.76z" fill="#343434"/><path d="M246.434 1190.6v19.35h-53.727v-7.39l-14.027-.24 14.027-11.37v-78.89h53.727v11.62" fill="#fff"/><path d="M246.434 1190.6v19.35h-53.727v-7.39l-14.027-.24 14.027-11.37v-78.89h53.727v11.62" stroke="#343434" stroke-width="1.76" stroke-linecap="round" stroke-linejoin="round"/><path d="M251.796 1169.83c2.778 0 5.03-2.25 5.03-5.03 0-2.78-2.252-5.03-5.03-5.03a5.029 5.029 0 00-5.03 5.03c0 2.78 2.252 5.03 5.03 5.03z" fill="#343434"/><path d="M251.796 1158.4v10.55a21.65 21.65 0 01-1.606 8.33 21.644 21.644 0 01-4.686 7.08 21.789 21.789 0 01-7.045 4.73 21.612 21.612 0 01-8.322 1.66c-2.857 0-5.686-.56-8.323-1.66a21.789 21.789 0 01-7.045-4.73 21.669 21.669 0 01-6.292-15.41v-10.55c-.019-2.86.527-5.69 1.606-8.33a21.644 21.644 0 014.686-7.08 21.475 21.475 0 017.045-4.73 21.623 21.623 0 018.323-1.67c2.856 0 5.685.57 8.322 1.67a21.475 21.475 0 017.045 4.73 21.644 21.644 0 014.686 7.08 21.614 21.614 0 011.606 8.33z" fill="#fff" stroke="#343434" stroke-width="1.32" stroke-linecap="round" stroke-linejoin="round"/><path d="M229.995 1144.74l10.25 19.73a1.324 1.324 0 01-1.173 1.93h-7.73a1.284 1.284 0 00-.943.4c-.123.12-.22.27-.285.43-.065.17-.096.34-.093.52l.115 5.85h9.722s.616 7.17-9.722 7.17-10.339-7.31-10.339-7.31l10.339.14" fill="#fff"/><path d="M229.995 1144.74l10.25 19.73a1.324 1.324 0 01-1.173 1.93h-7.73a1.284 1.284 0 00-.943.4c-.123.12-.22.27-.285.43-.065.17-.096.34-.093.52l.115 5.85h9.722s.616 7.17-9.722 7.17-10.339-7.31-10.339-7.31l10.339.14" stroke="#343434" stroke-width="1.32" stroke-linecap="round" stroke-linejoin="round"/><path d="M224.35 1158.77c.767 0 1.389-.62 1.389-1.39a1.388 1.388 0 10-2.778 0c0 .77.622 1.39 1.389 1.39zm16.898 0c.768 0 1.389-.62 1.389-1.39a1.388 1.388 0 10-2.778 0c0 .77.622 1.39 1.389 1.39z" fill="#343434"/><path d="M208.472 1162.35c0-13.93-7.473-36.15 21.662-34.32 15.683.98 22.754-1.84 22.754-1.84s16.278 20.83-28.542 12.95c-7.948-1.4-16.158 9.28-15.877 23.21" fill="#FFF100"/><path d="M208.472 1162.35c0-13.93-7.473-36.15 21.662-34.32 15.683.98 22.754-1.84 22.754-1.84s16.278 20.83-28.542 12.95c-7.948-1.4-16.158 9.28-15.877 23.21" stroke="#343434" stroke-width="1.32" stroke-linecap="round" stroke-linejoin="round"/><path d="M251.796 1158.4a21.62 21.62 0 00-8.648-17.32s16.6-6.08 8.648 17.32z" fill="#343434"/><path d="M215.533 1200.18c4.655 0 8.428-3.78 8.428-8.43 0-4.66-3.773-8.43-8.428-8.43a8.427 8.427 0 00-8.428 8.43c0 4.65 3.774 8.43 8.428 8.43z" fill="#fff" stroke="#343434" stroke-width="1.32" stroke-linecap="round" stroke-linejoin="round"/><path d="M215.533 1186.21l1.662 3.37 3.718.54-2.69 2.62.635 3.7-3.325-1.74-3.326 1.74.635-3.7-2.69-2.62 3.718-.54 1.663-3.37z" fill="#fff" stroke="#343434" stroke-width=".578" stroke-linecap="round" stroke-linejoin="round"/><path d="M48.723 1257.56h190.78m-210.98 0h12.941" stroke="#fff" stroke-width="3.314" stroke-linecap="round" stroke-linejoin="round"/><g clip-path="url(#clip5)"><path d="M47.91 1480.96h190.78m-210.98 0h12.942" stroke="#fff" stroke-width="3.314" stroke-linecap="round" stroke-linejoin="round"/><path d="M229.517 1451.4h-59.2a.653.653 0 01-.442-.18.639.639 0 01-.184-.45v-72.21a.853.853 0 01.24-.58.835.835 0 01.578-.24h59.011c.166 0 .326.07.443.19.117.11.183.27.183.44v72.4a.621.621 0 01-.047.24.613.613 0 01-.136.21.671.671 0 01-.446.18zm-58.581-1.26h57.951V1379h-57.951v71.14z" fill="#343434"/><path d="M208.507 1380.19h-36.628v66.43h36.628v-66.43z" fill="#fff"/><path d="M208.506 1446.93h-36.627a.306.306 0 01-.221-.09.317.317 0 01-.092-.22v-66.43c0-.09.033-.17.092-.22.059-.06.138-.1.221-.1h36.627c.083 0 .163.04.222.1.058.05.091.13.091.22v66.43a.308.308 0 01-.313.31zm-36.314-.63h36v-65.8h-36v65.8z" fill="#231F20"/><path d="M200.079 1414.57a10.71 10.71 0 01-4.493 5.26 10.688 10.688 0 01-6.772 1.39c-2.35-.3-4.533-1.37-6.206-3.04a10.683 10.683 0 01-1.621-12.99 10.717 10.717 0 015.266-4.48 10.76 10.76 0 016.908-.31c2.273.67 4.26 2.07 5.647 3.99" fill="#fff"/><path d="M190.163 1421.77c-1.906 0-3.781-.49-5.444-1.42a11.086 11.086 0 01-4.055-3.9 11.149 11.149 0 01-1.629-5.39 11.145 11.145 0 0110.277-11.53c1.901-.14 3.808.2 5.538 1.01 1.729.8 3.224 2.03 4.34 3.58a.456.456 0 01-.105.65.51.51 0 01-.166.08.562.562 0 01-.354-.06.42.42 0 01-.135-.12 10.2 10.2 0 00-5.398-3.82 10.176 10.176 0 00-6.604.3 10.196 10.196 0 00-3.487 16.69 10.188 10.188 0 005.932 2.92c2.247.28 4.525-.19 6.475-1.34a10.161 10.161 0 004.296-5.02.485.485 0 01.249-.27.39.39 0 01.183-.04c.063 0 .126.01.184.03.059.02.112.06.157.1.045.05.081.1.105.16a.479.479 0 01-.005.37 11.093 11.093 0 01-4.09 5.11 11.097 11.097 0 01-6.264 1.91z" fill="#231F20"/><path d="M196.205 1415.87a10.707 10.707 0 01-2.975 3.36l2.975-3.36z" fill="#fff"/><path d="M193.235 1419.54a.302.302 0 01-.183-.06.31.31 0 01-.114-.15.333.333 0 01-.001-.2c.02-.06.059-.11.112-.15 1.18-.87 2.164-1.99 2.887-3.26a.318.318 0 01.189-.15c.08-.02.165-.01.238.03a.318.318 0 01.119.43 11.064 11.064 0 01-3.062 3.45.306.306 0 01-.185.06z" fill="#231F20"/><path d="M196.254 1405.49c.87 1.57 1.326 3.35 1.323 5.15 0 .63-.055 1.25-.164 1.87" fill="#fff"/><path d="M197.415 1412.83h-.055a.465.465 0 01-.114-.05.336.336 0 01-.088-.08.38.38 0 01-.049-.11.357.357 0 01-.002-.13c.413-2.33.016-4.74-1.125-6.82a.257.257 0 01-.045-.11.325.325 0 01.007-.13c.01-.04.029-.08.056-.11a.265.265 0 01.096-.09.26.26 0 01.122-.03.27.27 0 01.126.01c.041.01.078.03.11.06s.058.07.076.1a11.048 11.048 0 011.193 7.24.333.333 0 01-.109.18.355.355 0 01-.199.07zm-7.808-12.32h-2.556a.353.353 0 01-.221-.09.323.323 0 01-.092-.23v-6.13c0-.09.033-.17.092-.23a.353.353 0 01.221-.09h2.556c.083 0 .163.04.222.09.058.06.091.14.091.23v6.13c0 .09-.033.17-.091.23a.356.356 0 01-.222.09zm-2.243-.63h1.93v-5.51h-1.93v5.51z" fill="#231F20"/><path d="M190.652 1395.46h-4.539l-.811-11.88c-.02-.29.02-.58.117-.85.097-.28.249-.53.447-.74.197-.21.437-.38.703-.5.265-.11.552-.17.842-.17h1.855c.288 0 .574.06.839.17.264.12.503.29.701.5a2.105 2.105 0 01.57 1.57l-.724 11.9z" fill="#fff"/><path d="M190.649 1395.93h-4.539a.478.478 0 01-.469-.44l-.807-11.88a2.589 2.589 0 011.549-2.55c.325-.14.675-.21 1.029-.21h1.855a2.576 2.576 0 012.579 2.74l-.724 11.9a.462.462 0 01-.149.31.444.444 0 01-.324.13zm-4.1-.94h3.658l.7-11.46a1.598 1.598 0 00-.444-1.22c-.154-.17-.34-.3-.545-.39a1.814 1.814 0 00-.653-.13h-1.855a1.702 1.702 0 00-1.202.52c-.154.17-.272.36-.348.57a1.7 1.7 0 00-.091.67l.78 11.44z" fill="#231F20"/><path d="M175.004 1421.28l1.808 1.8 4.341-4.34-1.808-1.8-4.341 4.34z" fill="#fff"/><path d="M176.812 1423.4a.47.47 0 01-.119-.02.385.385 0 01-.102-.07l-1.808-1.81a.3.3 0 01-.092-.22.3.3 0 01.092-.22l4.34-4.34a.308.308 0 01.222-.09c.083 0 .162.03.221.09l1.807 1.81c.029.02.053.06.069.1.015.04.024.08.024.12a.303.303 0 01-.093.22l-4.34 4.34a.38.38 0 01-.101.07.478.478 0 01-.12.02zm-1.365-2.12l1.365 1.36 3.9-3.9-1.365-1.36-3.9 3.9z" fill="#231F20"/><path d="M175.258 1419.55l3.21 3.21-7.828 8.97c-.19.22-.423.4-.685.52-.262.13-.546.19-.836.2-.29.01-.578-.04-.848-.14a2.25 2.25 0 01-.719-.47l-1.312-1.32a2.03 2.03 0 01-.47-.71 2.13 2.13 0 01.051-1.68 2.1 2.1 0 01.513-.68l8.924-7.9z" fill="#fff"/><path d="M169.049 1432.92c-.685 0-1.342-.27-1.828-.75l-1.312-1.31a2.596 2.596 0 01.115-3.77l8.924-7.9c.09-.07.206-.12.326-.11.119 0 .233.05.317.13l3.21 3.21c.085.09.134.2.138.32a.438.438 0 01-.116.32l-7.828 8.98a2.5 2.5 0 01-.838.63 2.42 2.42 0 01-1.021.25h-.087zm6.191-12.73l-8.594 7.61c-.168.15-.305.33-.401.53a1.69 1.69 0 00-.155.65 1.642 1.642 0 00.483 1.22l1.312 1.31c.16.16.35.28.56.37a1.64 1.64 0 001.308-.05c.203-.1.384-.23.532-.4l7.54-8.65-2.585-2.59z" fill="#231F20"/><path d="M199.36 1423.08l1.808-1.81-4.34-4.34-1.808 1.81 4.34 4.34z" fill="#fff"/><path d="M199.364 1423.39a.478.478 0 01-.12-.02.38.38 0 01-.101-.07l-4.341-4.34a.32.32 0 01-.091-.22c0-.08.033-.16.091-.22l1.808-1.81a.31.31 0 01.221-.09.31.31 0 01.222.09l4.34 4.34c.059.06.091.14.091.22 0 .08-.032.16-.091.22l-1.808 1.81a.396.396 0 01-.101.07.478.478 0 01-.12.02zm-3.9-4.65l3.9 3.9 1.365-1.37-3.9-3.9-1.365 1.37z" fill="#231F20"/><path d="M197.637 1422.82l3.21-3.21 8.974 7.83c.218.19.395.43.52.69a2.111 2.111 0 01.057 1.68 2.06 2.06 0 01-.471.72l-1.312 1.31c-.204.21-.448.37-.716.47-.268.11-.555.16-.843.15a2.147 2.147 0 01-1.519-.71l-7.9-8.93z" fill="#fff"/><path d="M207.118 1432.93h-.083c-.353-.01-.7-.09-1.02-.24a2.506 2.506 0 01-.837-.63l-7.9-8.92a.485.485 0 01-.118-.33.485.485 0 01.138-.32l3.21-3.21a.462.462 0 01.315-.13c.119-.01.235.03.325.11l8.975 7.83c.267.23.483.52.635.84a2.553 2.553 0 01.07 2.05c-.13.33-.326.63-.576.88l-1.312 1.32c-.239.24-.523.43-.835.56-.313.13-.649.19-.987.19zm-8.842-10.09l7.607 8.6c.149.17.33.3.534.4.203.09.423.14.648.15.224.01.447-.03.656-.11.209-.09.398-.21.557-.37l1.312-1.31a1.657 1.657 0 00.479-1.22 1.695 1.695 0 00-.158-.65c-.097-.2-.234-.38-.403-.53l-8.644-7.54-2.588 2.58z" fill="#231F20"/><path d="M190.943 1420.52c-1.706.69-3.563.93-5.391.7a10.665 10.665 0 01-5.038-2.04 10.757 10.757 0 01-3.377-4.26 10.654 10.654 0 011.079-10.46c1.068-1.5 2.506-2.7 4.175-3.48a10.608 10.608 0 015.349-.98c1.837.15 3.606.76 5.134 1.79" fill="#fff"/><path d="M186.909 1421.77c-1.74 0-3.456-.41-5.01-1.19a11.133 11.133 0 01-3.033-17.64 11.099 11.099 0 014.325-2.8 11.14 11.14 0 019.942 1.26.467.467 0 01.11.64.497.497 0 01-.29.2.52.52 0 01-.346-.06 10.067 10.067 0 00-4.908-1.71c-1.756-.14-3.519.18-5.115.93a10.173 10.173 0 00-3.992 3.32 10.238 10.238 0 00-1.833 4.87c-.181 1.75.095 3.52.802 5.13a10.2 10.2 0 003.229 4.08 10.213 10.213 0 004.817 1.95 10.2 10.2 0 005.154-.67.437.437 0 01.354.01.466.466 0 01.248.6.464.464 0 01-.247.26c-1.335.54-2.764.82-4.207.82z" fill="#231F20"/><path d="M228.891 1377.9h-17.879v72.24h17.879v-72.24z" fill="#343434"/><path d="M142.374 1367.7l9.68 28.54 26.421-8.96 5.727-2.06-13.156-38.95-21.938 7.44-10.229 3.51 3.495 10.48z" fill="#fff" stroke="#343434" stroke-width="1.803" stroke-linecap="round" stroke-linejoin="round"/><path d="M172.997 1352.03l-1.018 2.84a5.96 5.96 0 01-1.439 2.25 6.058 6.058 0 01-2.275 1.42l-19.793 6.8a5.95 5.95 0 01-2.648.28c-.894-.1-1.753-.4-2.515-.88l-2.286-1.44" fill="#fff"/><path d="M172.997 1352.03l-1.018 2.84a5.96 5.96 0 01-1.439 2.25 6.058 6.058 0 01-2.275 1.42l-19.793 6.8a5.95 5.95 0 01-2.648.28c-.894-.1-1.753-.4-2.515-.88l-2.286-1.44" stroke="#343434" stroke-width="1.803" stroke-linecap="round" stroke-linejoin="round"/><path d="M160.546 1366.13a1.087 1.087 0 10-1.3-1.742 1.087 1.087 0 001.3 1.742z" fill="#fff" stroke="#212221" stroke-width="1.046" stroke-linecap="round" stroke-linejoin="round"/><path d="M158.446 1359.25a2.313 2.313 0 00.472-3.24 2.324 2.324 0 00-3.241-.47 2.316 2.316 0 00-.472 3.24 2.306 2.306 0 003.241.47z" fill="#fff" stroke="#212221" stroke-width="1.803" stroke-linecap="round" stroke-linejoin="round"/><path d="M159.344 1363.88l-1.356-3.9" stroke="#212221" stroke-width="1.803" stroke-linecap="round" stroke-linejoin="round"/><path d="M159.398 1357.49c.325.3.716.52 1.141.64.425.12.872.13 1.305.05" fill="#fff"/><path d="M159.398 1357.49c.325.3.716.52 1.141.64.425.12.872.13 1.305.05" stroke="#212221" stroke-width="1.803" stroke-linecap="round" stroke-linejoin="round"/><path d="M163.988 1454.41h21.383" stroke="#343434" stroke-width=".75" stroke-linecap="round" stroke-linejoin="round"/><path d="M145.027 1457.45h47.336" stroke="#343434" stroke-width="1.002" stroke-linecap="round" stroke-linejoin="round"/><path d="M168.093 1333.06c5.053 0 9.148-4.1 9.148-9.15 0-5.05-4.095-9.15-9.148-9.15-5.052 0-9.148 4.1-9.148 9.15 0 5.05 4.096 9.15 9.148 9.15z" fill="#FFF100" stroke="#212221" stroke-width=".511" stroke-linecap="round" stroke-linejoin="round"/><path d="M165.195 1332.36c5.052 0 9.148-4.1 9.148-9.15 0-5.05-4.096-9.15-9.148-9.15s-9.148 4.1-9.148 9.15c0 5.05 4.096 9.15 9.148 9.15z" fill="#FFF100" stroke="#212221" stroke-width=".511" stroke-linecap="round" stroke-linejoin="round"/><path d="M168.831 1323.35c.367-.1.69-.32.919-.62.23-.3.352-.67.349-1.05.109-1.33-.934-1.96-2.329-2.34l.319-1.8-1.093-.19-.314 1.75c-.289-.05-.586-.1-.88-.14l.317-1.77-1.1-.2-.319 1.8c-.24-.03-.475-.07-.7-.11l-1.511-.28-.209 1.17s.8.13.8.14c.15.01.292.08.394.19.102.11.156.26.15.41l-.882 4.94a.362.362 0 01-.065.13.361.361 0 01-.259.16.267.267 0 01-.153-.01c.014.02-.8-.14-.8-.14l-.453 1.27 1.43.26.782.15-.326 1.82 1.1.2.319-1.8c.3.05.592.11.877.16l-.323 1.8 1.1.2.327-1.82c1.863.22 3.236-.01 3.707-1.71.105-.25.158-.51.155-.78a1.966 1.966 0 00-.172-.77 1.955 1.955 0 00-.47-.63c-.2-.17-.434-.31-.687-.39zm-3.633-.77l.383-2.16c.61.11 2.559.26 2.331 1.53-.218 1.22-2.103.73-2.714.63zm-.621 3.46l.424-2.38c.734.14 3.065.34 2.814 1.73-.237 1.35-2.509.78-3.238.65z" fill="#FFF100" stroke="#231F20" stroke-width=".511" stroke-linecap="round" stroke-linejoin="round"/><path d="M139.242 1417.44c6.64 0 12.023-5.39 12.023-12.03s-5.383-12.02-12.023-12.02-12.023 5.38-12.023 12.02 5.383 12.03 12.023 12.03z" fill="#FFF100" stroke="#212221" stroke-width="1.002" stroke-linecap="round" stroke-linejoin="round"/><path d="M136.48 1416.91c6.64 0 12.023-5.38 12.023-12.02s-5.383-12.02-12.023-12.02-12.023 5.38-12.023 12.02 5.383 12.02 12.023 12.02z" fill="#FFF100" stroke="#212221" stroke-width="1.002" stroke-linecap="round" stroke-linejoin="round"/><path d="M140.208 1404.68c.482-.13.907-.42 1.208-.82.302-.4.463-.88.458-1.38.144-1.74-1.228-2.58-3.061-3.07l.419-2.37-1.436-.25-.413 2.3c-.379-.07-.771-.13-1.157-.19l.417-2.33-1.441-.25-.42 2.37c-.316-.05-.625-.1-.923-.16v0l-1.988-.36-.274 1.54s1.049.16 1.045.18c.198.01.384.1.518.25.134.14.205.34.198.53l-1.16 6.49a.56.56 0 01-.085.19.72.72 0 01-.15.14.612.612 0 01-.19.06.46.46 0 01-.202-.01c.019.03-1.045-.18-1.045-.18l-.6 1.67 1.88.34c.347.06.687.13 1.027.19l-.429 2.39 1.441.26.419-2.37c.395.08.779.15 1.153.21l-.424 2.37 1.442.25.429-2.39c2.448.3 4.254-.01 4.872-2.25.135-.32.202-.66.197-1a2.52 2.52 0 00-.225-1.01 2.659 2.659 0 00-.609-.83c-.258-.23-.562-.4-.891-.51zm-4.776-1.02l.5-2.84c.8.15 3.363.35 3.064 2.01-.283 1.61-2.762.97-3.562.83h-.002zm-.816 4.56l.557-3.13c.965.17 4.029.44 3.7 2.27-.313 1.77-3.298 1.03-4.257.86z" fill="#FFF100" stroke="#231F20" stroke-width=".501" stroke-linecap="round" stroke-linejoin="round"/><path d="M155.666 1341.68l-10.2 45-50.81-11.51 2.783-12.28 11.164-49.27 34.585 7.84s-6.082 15.38-.517 16.58c5.565 1.2 12.995 3.64 12.995 3.64z" fill="#fff" stroke="#343434" stroke-width="2.003" stroke-linecap="round" stroke-linejoin="round"/><path d="M143.188 1321.46l.613.82 11.864 19.4" fill="#fff"/><path d="M143.188 1321.46l.613.82 11.864 19.4" stroke="#212221" stroke-width="2.003" stroke-linecap="round" stroke-linejoin="round"/><path d="M155.669 1341.68s-7.43-2.44-13-3.64c-5.57-1.2.517-16.58.517-16.58l12.483 20.22zm-32.404 96.54H22.316l.208-76.02h100.741v76.02z" fill="#fff" stroke="#343434" stroke-width="2.003" stroke-linecap="round" stroke-linejoin="round"/><path d="M68.414 1404.34l1.603 5.34m-11.392-24.79l5.173 17.21" stroke="#231F20" stroke-width="1.503" stroke-linecap="round" stroke-linejoin="round"/><path d="M22.316 1433.54v7.53l34.985 47.42 100.208-2.43 1.278-4.54-35.398-47.25" fill="#fff"/><path d="M22.316 1433.54v7.53l34.985 47.42 100.208-2.43 1.278-4.54-35.398-47.25" stroke="#343434" stroke-width="2.003" stroke-linecap="round" stroke-linejoin="round"/><path d="M59.754 1482.54l98.753-1.56m-101.294-.42l-34.897-47.02" stroke="#231F20" stroke-width="1.002" stroke-linecap="round" stroke-linejoin="round"/><path d="M83.238 1463.47h28.271l8.956 12.19-29.11.1-8.117-12.29zm-49.948-24.98h87.233l15.521 21.49-85.354 1.26-17.4-22.75z" fill="#fff" stroke="#231F20" stroke-width="1.002" stroke-linecap="round" stroke-linejoin="round"/><path d="M120.082 1434.27H42.481m-19.001 0h6.71" stroke="#231F20" stroke-width="1.002" stroke-linecap="round" stroke-linejoin="round"/><path d="M57.3 1488.49l1.97-5.95 99.517-1.02-1.278 4.54-100.208 2.43z" fill="#343434"/><path d="M127.556 1372.02l-16.836 42.96-39.766-15.58-4.368-14.59 18.652-47.6 33.017 12.94 15.393 6.09-6.092 15.78z" fill="#FFF100" stroke="#343434" stroke-width="2.003" stroke-linecap="round" stroke-linejoin="round"/><path d="M81.84 1345.88l1.259 4.11a9.88 9.88 0 002.19 3.81 9.943 9.943 0 003.624 2.49l29.151 11.56a9.97 9.97 0 004.356.68 9.983 9.983 0 004.223-1.27l3.288-1.85" stroke="#343434" stroke-width="2.003" stroke-linecap="round" stroke-linejoin="round"/><path d="M101.833 1368.43c.764-.5.982-1.52.486-2.28a1.649 1.649 0 10-2.768 1.79c.496.77 1.518.99 2.282.49z" fill="#fff" stroke="#212221" stroke-width="1.152" stroke-linecap="round" stroke-linejoin="round"/><path d="M107.622 1358.64a3.35 3.35 0 10-3.652-5.616 3.35 3.35 0 003.652 5.616z" fill="#fff" stroke="#212221" stroke-width="2.003" stroke-linecap="round" stroke-linejoin="round"/><path d="M101.77 1365.19l2.459-6.07m-1.702-3.97a4.31 4.31 0 01-1.789.89 4.36 4.36 0 01-2-.01" stroke="#212221" stroke-width="2.003" stroke-linecap="round" stroke-linejoin="round"/></g><path d="M1.972 14h1.596V5.432H1.972V14zm9.24-8.568h-3.3V14h3.3c2.58 0 4.283-1.704 4.283-4.284 0-2.568-1.704-4.284-4.284-4.284zm0 1.26c1.703 0 2.651 1.116 2.651 3.024s-.948 3.024-2.652 3.024h-1.74V6.692h1.74zM25.561 14v-1.26h-4.644v-2.4h4.068V9.08h-4.068V6.692h4.596v-1.26h-6.156V14h6.204zm5.943-8.568h-1.86V14h1.524V7.364h.024L35.597 14h1.476V5.432H35.56v6.072h-.024l-4.032-6.072zM43.975 14h1.585V6.692h3.084v-1.26h-7.74v1.26h3.072V14zm8.493 0h1.596V5.432h-1.596V14zm8.495 0h1.584V6.692h3.084v-1.26h-7.74v1.26h3.072V14zm12.549 0v-3.516l3.324-5.052h-1.74l-2.316 3.66h-.024l-2.376-3.66h-1.776l3.312 5.052V14h1.596zm17.94 0v-1.26h-4.644v-2.4h4.068V9.08h-4.068V6.692h4.596v-1.26h-6.156V14h6.204zm4.082 0h6.013v-1.26h-4.416V5.432h-1.597V14zm16.198 0v-1.26h-4.644v-2.4h4.068V9.08h-4.068V6.692h4.596v-1.26h-6.156V14h6.204zm9.171 0l2.436-6.732h.024V14h1.524V5.432h-2.184l-2.304 6.444h-.024l-2.304-6.444h-2.256V14h1.464V7.268h.024L119.751 14h1.152zm14.543 0v-1.26h-4.644v-2.4h4.068V9.08h-4.068V6.692h4.596v-1.26h-6.156V14h6.204zm5.943-8.568h-1.86V14h1.524V7.364h.024L145.481 14h1.476V5.432h-1.512v6.072h-.024l-4.032-6.072zM153.86 14h1.584V6.692h3.084v-1.26h-7.74v1.26h3.072V14zm7.671-2.592c.156 1.884 1.728 2.736 3.768 2.736 1.896 0 3.324-1.032 3.324-2.592 0-1.38-.84-2.076-2.244-2.34l-1.656-.324c-.924-.18-1.368-.408-1.368-1.116 0-.756.648-1.296 1.68-1.296 1.068 0 1.812.468 1.92 1.308h1.5c-.168-1.608-1.392-2.496-3.432-2.496-1.872 0-3.216 1.056-3.216 2.58 0 1.5 1.02 2.1 2.28 2.328l1.572.288c1.032.192 1.404.54 1.404 1.164 0 .864-.792 1.32-1.812 1.32-1.068 0-2.076-.396-2.184-1.56h-1.536zM5.79 69l2.32-6.26h.02V69h.83v-7.14H7.68l-2.2 6.02h-.02l-2.2-6.02H1.93V69h.82v-6.26h.02L5.09 69h.7zm12.127 0h.9l-2.9-7.14h-.97L12.057 69h.86l.79-1.99h3.42l.79 1.99zm-2.51-6.28h.03l1.41 3.58h-2.86l1.42-3.58zm7.36 6.28v-2.89h1.9l1.85 2.89h.97l-1.96-3.02c.84-.19 1.65-.84 1.65-2 0-1.37-.91-2.12-2.51-2.12h-2.75V69h.85zm0-3.61v-2.81h1.85c1.08 0 1.69.5 1.69 1.4 0 .93-.61 1.41-1.69 1.41h-1.85zM35.62 69h1.04l-3.3-4 3.11-3.14h-1.04l-3.76 3.88v-3.88h-.86V69h.86v-2.29l1.09-1.11 2.86 3.4zm10.548-7.25c.533 0 .953.137 1.26.41.313.267.47.643.47 1.13 0 .42-.137.777-.41 1.07-.267.293-.607.56-1.02.8l1.93 1.86c.173-.207.313-.443.42-.71.113-.273.207-.567.28-.88h.89c-.107.427-.24.823-.4 1.19-.16.367-.367.687-.62.96l1.46 1.42h-1.19l-.87-.84c-.313.28-.663.507-1.05.68-.387.173-.857.26-1.41.26-.687 0-1.233-.17-1.64-.51-.407-.34-.61-.823-.61-1.45 0-.513.137-.923.41-1.23.28-.313.657-.603 1.13-.87a7.67 7.67 0 01-.6-.77 1.705 1.705 0 01-.27-.96c0-.493.163-.877.49-1.15.333-.273.783-.41 1.35-.41zm-.03.72c-.28 0-.51.073-.69.22-.173.147-.26.35-.26.61 0 .24.063.463.19.67.127.2.31.423.55.67.393-.227.673-.44.84-.64.173-.207.26-.443.26-.71a.78.78 0 00-.24-.59c-.16-.153-.377-.23-.65-.23zm-.41 3.12a3.87 3.87 0 00-.85.65c-.2.22-.3.51-.3.87 0 .367.123.66.37.88.247.22.577.33.99.33.427 0 .793-.07 1.1-.21.307-.14.563-.307.77-.5l-2.08-2.02zM58 65.42c0-1.78.85-2.95 2.32-2.95 1.2 0 1.72.67 1.88 1.47h.84c-.23-1.3-1.16-2.2-2.72-2.2-1.84 0-3.2 1.44-3.2 3.68 0 2.25 1.36 3.7 3.2 3.7 1.56 0 2.49-.9 2.72-2.2h-.84c-.16.8-.68 1.47-1.88 1.47-1.47 0-2.32-1.19-2.32-2.97zm14.476.01c0-2.14-1.27-3.69-3.25-3.69s-3.25 1.55-3.25 3.69c0 2.15 1.27 3.69 3.25 3.69s3.25-1.54 3.25-3.69zm-.89 0c0 1.73-.8 2.96-2.36 2.96-1.57 0-2.37-1.23-2.37-2.96 0-1.72.8-2.96 2.37-2.96 1.56 0 2.36 1.24 2.36 2.96zm4.32 3.57h4.7v-.72h-3.84v-6.42h-.86V69zm13.949-3.57c0-2.14-1.27-3.69-3.25-3.69s-3.25 1.55-3.25 3.69c0 2.15 1.27 3.69 3.25 3.69s3.25-1.54 3.25-3.69zm-.89 0c0 1.73-.8 2.96-2.36 2.96-1.57 0-2.37-1.23-2.37-2.96 0-1.72.8-2.96 2.37-2.96 1.56 0 2.36 1.24 2.36 2.96zm9.99.66v-4.23h-.86v4.28c0 1.52-.77 2.25-2.03 2.25-1.25 0-2.03-.73-2.03-2.25v-4.28h-.86v4.21c0 1.97 1.07 3.05 2.89 3.05 1.84 0 2.89-1.08 2.89-3.03zm4.611 2.91v-2.89h1.9l1.85 2.89h.97l-1.96-3.02c.84-.19 1.65-.84 1.65-2 0-1.37-.91-2.12-2.51-2.12h-2.75V69h.85zm0-3.61v-2.81h1.85c1.08 0 1.69.5 1.69 1.4 0 .93-.61 1.41-1.69 1.41h-1.85zm7.585 1.5c.1 1.56 1.4 2.23 2.95 2.23 1.51 0 2.59-.86 2.59-2.08 0-1.13-.7-1.64-1.8-1.86l-1.4-.29c-.87-.17-1.27-.42-1.27-1.13 0-.75.62-1.33 1.66-1.33 1.02 0 1.72.46 1.84 1.26h.83c-.14-1.29-1.15-1.95-2.68-1.95-1.48 0-2.49.88-2.49 2.05 0 1.23.86 1.67 1.82 1.85l1.36.27c.97.18 1.3.57 1.3 1.17 0 .86-.75 1.35-1.77 1.35-1.06 0-2-.39-2.11-1.54h-.83zM1.93 819.137h.86v-7.14h-.86v7.14zm4.734 0h4.7v-.72h-3.84v-6.42h-.86v7.14zm8.211 0h4.7v-.72h-3.84v-6.42h-.86v7.14zm13.55-2.91v-4.23h-.86v4.28c0 1.52-.77 2.25-2.03 2.25-1.25 0-2.03-.73-2.03-2.25v-4.28h-.86v4.21c0 1.97 1.07 3.05 2.89 3.05 1.84 0 2.89-1.08 2.89-3.03zm3.3.8c.1 1.56 1.4 2.23 2.95 2.23 1.51 0 2.59-.86 2.59-2.08 0-1.13-.7-1.64-1.8-1.86l-1.4-.29c-.87-.17-1.27-.42-1.27-1.13 0-.75.62-1.33 1.66-1.33 1.02 0 1.72.46 1.84 1.26h.83c-.14-1.29-1.15-1.95-2.68-1.95-1.48 0-2.49.88-2.49 2.05 0 1.23.86 1.67 1.82 1.85l1.36.27c.97.18 1.3.57 1.3 1.17 0 .86-.75 1.35-1.77 1.35-1.06 0-2-.39-2.11-1.54h-.83zm10.87 2.11h.86v-6.42h2.67v-.72h-6.19v.72h2.66v6.42zm7.712 0v-2.89h1.9l1.85 2.89h.97l-1.96-3.02c.84-.19 1.65-.84 1.65-2 0-1.37-.91-2.12-2.51-2.12h-2.75v7.14h.85zm0-3.61v-2.81h1.85c1.08 0 1.69.5 1.69 1.4 0 .93-.61 1.41-1.69 1.41h-1.85zm13.145 3.61h.9l-2.9-7.14h-.97l-2.89 7.14h.86l.79-1.99h3.42l.79 1.99zm-2.51-6.28h.03l1.41 3.58h-2.86l1.42-3.58zm8.054 6.28h.86v-6.42h2.67v-.72h-6.19v.72h2.66v6.42zm6.862 0h.86v-7.14h-.86v7.14zm10.804-3.57c0-2.14-1.27-3.69-3.25-3.69s-3.25 1.55-3.25 3.69c0 2.15 1.27 3.69 3.25 3.69s3.25-1.54 3.25-3.69zm-.89 0c0 1.73-.8 2.96-2.36 2.96-1.57 0-2.37-1.23-2.37-2.96 0-1.72.8-2.96 2.37-2.96 1.56 0 2.36 1.24 2.36 2.96zm5.38-3.57h-1.06v7.14h.84v-6.09h.02l4.06 6.09h.8v-7.14h-.83v5.7h-.02l-3.81-5.7zm12.236 5.03c.1 1.56 1.4 2.23 2.95 2.23 1.51 0 2.59-.86 2.59-2.08 0-1.13-.7-1.64-1.8-1.86l-1.4-.29c-.87-.17-1.27-.42-1.27-1.13 0-.75.62-1.33 1.66-1.33 1.02 0 1.72.46 1.84 1.26h.83c-.14-1.29-1.15-1.95-2.68-1.95-1.48 0-2.49.88-2.49 2.05 0 1.23.86 1.67 1.82 1.85l1.36.27c.97.18 1.3.57 1.3 1.17 0 .86-.75 1.35-1.77 1.35-1.06 0-2-.39-2.11-1.54h-.83zm10.869 2.11h.86v-6.42h2.67v-.72h-6.19v.72h2.66v6.42zm9.682 0v-2.96l2.73-4.18h-.95l-2.16 3.41h-.02l-2.23-3.41h-.95l2.72 4.18v2.96h.86zm5.821 0h4.7v-.72h-3.84v-6.42h-.86v7.14zm13.041 0v-.72h-3.98v-2.48h3.53v-.73h-3.53v-2.49h3.97v-.72h-4.82v7.14h4.83zM26.932 106.25a24.77 24.77 0 00-9.48 47.657 24.774 24.774 0 0034.131-25.314 24.77 24.77 0 00-24.651-22.343zm11.08 38.58a17.713 17.713 0 01-28.22-9.356 17.712 17.712 0 01.893-11.512 1.178 1.178 0 012.159.942 15.357 15.357 0 0014.268 21.468 15.358 15.358 0 009.424-3.375 1.185 1.185 0 01.88-.291 1.167 1.167 0 01.817.435 1.175 1.175 0 01-.223 1.689h.002z" fill="#fff"/><g clip-path="url(#clip6)"><path d="M30.578 247.155c16.335 0 29.577-13.242 29.577-29.578 0-16.335-13.242-29.577-29.578-29.577C14.242 188 1 201.242 1 217.577c0 16.336 13.242 29.578 29.578 29.578z" fill="#FEF200"/><path d="M102.409 247.155c16.336 0 29.578-13.242 29.578-29.578 0-16.335-13.242-29.577-29.578-29.577-16.335 0-29.577 13.242-29.577 29.577 0 16.336 13.242 29.578 29.577 29.578z" fill="#222"/><path d="M199.289 236.29c8.834 0 15.996-7.162 15.996-15.996 0-8.835-7.162-15.996-15.996-15.996s-15.996 7.161-15.996 15.996c0 8.834 7.162 15.996 15.996 15.996z" fill="#F8F8F8" stroke="#CCC" stroke-width=".462"/><path d="M160.055 236.29c8.834 0 15.996-7.162 15.996-15.996 0-8.835-7.162-15.996-15.996-15.996-8.835 0-15.996 7.161-15.996 15.996 0 8.834 7.161 15.996 15.996 15.996z" fill="#CCC"/></g><g clip-path="url(#clip7)"><path d="M158.527 934.683l54.816.173v-13.817h11.979v23.037h-56.537" fill="#fff"/><path d="M158.527 934.683l54.816.173v-13.817h11.979v23.037h-56.537" stroke="#343434" stroke-width="2.021" stroke-linecap="round" stroke-linejoin="round"/><path d="M150.598 934.658l4.262.013" stroke="#343434" stroke-width="1.42" stroke-linecap="round" stroke-linejoin="round"/><path d="M166.973 941.721h54.486" stroke="#343434" stroke-width=".947" stroke-linecap="round" stroke-linejoin="round"/><path d="M105.879 930.919v-26.12h12.127v39.929" fill="#fff"/><path d="M105.879 930.919v-26.12h12.127v39.929" stroke="#343434" stroke-width="1.894" stroke-linecap="round" stroke-linejoin="round"/><path d="M262.94 1020.81a25.902 25.902 0 00-26.54-41.598l-1.183.309c0-.109-.01-.407-.016-.516a31.121 31.121 0 00-27.202-29.21 31.121 31.121 0 00-33.57 21.591l-1.3 4.616M114.2 960.034a24.668 24.668 0 00-26.749-17.115 24.669 24.669 0 00-21.45 23.415 16.336 16.336 0 00-20.478 8.987 28.484 28.484 0 00-29.15 16.019c-.052.107-.1.215-.152.323a24.778 24.778 0 00-2.415 8.587c-.066 1.1-.193 2.21-.193 3.33 0 1.8.17 3.6.507 5.37a11.992 11.992 0 00-6.997 2.76 11.981 11.981 0 00-3.963 6.4" stroke="#fff" stroke-width="2.021" stroke-linecap="round" stroke-linejoin="round"/><path d="M202.897 930.984H68.305v41.358h134.592v-41.358z" fill="#fff" stroke="#343434" stroke-width="1.786" stroke-linecap="round" stroke-linejoin="round"/><path d="M188.23 930.984v41.359" stroke="#343434" stroke-width="1.894" stroke-linecap="round" stroke-linejoin="round"/><path d="M203.135 978.026H68.543v41.354h134.592v-41.354z" fill="#fff" stroke="#343434" stroke-width="1.786" stroke-linecap="round" stroke-linejoin="round"/><path d="M188.496 978.026v41.354" stroke="#343434" stroke-width="1.894" stroke-linecap="round" stroke-linejoin="round"/><path d="M167.021 956.555a4.892 4.892 0 100-9.783 4.892 4.892 0 000 9.783zm0 47.045a4.892 4.892 0 004.892-4.895 4.892 4.892 0 10-9.784 0 4.892 4.892 0 004.892 4.895z" fill="#FFF100" stroke="#343434" stroke-width="1.42" stroke-linecap="round" stroke-linejoin="round"/><path d="M152.464 946.771l-2.999 9.785m-3.595-9.785l-2.999 9.785m-3.591-9.785l-2.999 9.785m-3.591-9.785l-2.999 9.785m-3.594-9.785l-2.999 9.785m-3.591-9.785l-2.999 9.785m-3.591-9.785l-2.999 9.785m-3.595-9.785l-2.999 9.785m-3.592-9.785l-2.998 9.785m-3.592-9.785l-2.998 9.785m62.32 37.696l-2.999 9.788m-3.595-9.788l-2.999 9.788m-3.591-9.788l-2.999 9.788m-3.591-9.788l-2.999 9.788m-3.594-9.788l-2.999 9.788m-3.591-9.788l-2.999 9.788m-3.591-9.788l-2.999 9.788m-3.595-9.788l-2.999 9.788m-3.592-9.788l-2.998 9.788m-3.592-9.788l-2.998 9.788" stroke="#343434" stroke-width="1.42" stroke-linecap="round" stroke-linejoin="round"/><path d="M75.224 927.51a6.827 6.827 0 00-11.06-3.651l-22.138 18.756-3.085-3.642 22.136-18.756a11.613 11.613 0 0110.964-2.218 11.607 11.607 0 017.744 8.071" fill="#fff"/><path d="M75.224 927.51a6.827 6.827 0 00-11.06-3.651l-22.138 18.756-3.085-3.642 22.136-18.756a11.613 11.613 0 0110.964-2.218 11.607 11.607 0 017.744 8.071" stroke="#343434" stroke-width="1.42" stroke-linecap="round" stroke-linejoin="round"/><path d="M74.838 935.5c2.187 2.453-1.636 4.851-1.636 4.851L53.94 956.674l-3.086-3.641L70.1 936.726s3.117-2.967 4.738-1.223" fill="#fff"/><path d="M74.838 935.5c2.187 2.453-1.636 4.851-1.636 4.851L53.94 956.674l-3.086-3.641L70.1 936.726s3.117-2.967 4.738-1.223" stroke="#343434" stroke-width="1.42" stroke-linecap="round" stroke-linejoin="round"/><path d="M70.001 948.186l-20.048-23.661-23.66 20.048 20.047 23.66 23.661-20.047z" fill="#FFF100" stroke="#343434" stroke-width="1.894" stroke-linecap="round" stroke-linejoin="round"/><path d="M58.01 948.088c.95-5.442-2.693-10.622-8.135-11.571-5.442-.949-10.623 2.694-11.571 8.135-.949 5.442 2.694 10.623 8.135 11.572 5.442.948 10.623-2.694 11.572-8.136z" fill="#fff" stroke="#343434" stroke-width="1.42" stroke-linecap="round" stroke-linejoin="round"/><path d="M51.301 946.986a2.487 2.487 0 01-2.134.536l-3.45 2.923-1.885-2.226 3.37-2.855a2.498 2.498 0 012.138-2.761 2.496 2.496 0 012.813 2.07 2.502 2.502 0 01-.851 2.313h-.001z" fill="#343434" stroke="#343434" stroke-width=".947" stroke-linecap="round" stroke-linejoin="round"/><path d="M128.582 853.108H83.703v60.885h44.879v-60.885z" fill="#fff" stroke="#343434" stroke-width="1.831" stroke-linecap="round" stroke-linejoin="round"/><path d="M124.832 913.997v-60.885" stroke="#343434" stroke-width=".947" stroke-linecap="round" stroke-linejoin="round"/><path d="M121.324 856.156H86.879v45.098h34.445v-45.098z" fill="#fff" stroke="#343434" stroke-width=".947" stroke-linecap="round" stroke-linejoin="round"/><path d="M115.402 916.404v13.77" stroke="#343434" stroke-width=".947" stroke-linecap="round" stroke-linejoin="round"/><path d="M104.098 904.799H86.402v3.319h17.696v-3.319z" fill="#fff" stroke="#343434" stroke-width=".947" stroke-linecap="round" stroke-linejoin="round"/><path d="M100.785 865.684v25.982" stroke="#343434" stroke-width=".473" stroke-linecap="round" stroke-linejoin="round"/><path d="M203.136 930.984h-14.991v41.358h14.991v-41.358zm0 46.972h-14.991v41.354h14.991v-41.354zm-74.549-124.844h-3.735v60.885h3.735v-60.885z" fill="#343434"/><path d="M117.499 868.8c-6.4-.524-9.826-3.321-11.234-5.131a1.987 1.987 0 00-2.487-.517c-.271.144-.505.35-.683.601-1.408 1.81-4.554 4.523-10.952 5.047a1.285 1.285 0 00-1.19 1.319 35.842 35.842 0 0012.324 25.961 2.385 2.385 0 003.088 0 35.846 35.846 0 0012.323-25.964 1.29 1.29 0 00-1.189-1.316z" fill="#fff" stroke="#343434" stroke-width=".947" stroke-linecap="round" stroke-linejoin="round"/><path d="M103.971 893.8a32.698 32.698 0 01-10.85-22.861c5.977-.574 9.209-3.058 10.85-4.987 1.641 1.929 4.873 4.413 10.85 4.987a32.705 32.705 0 01-10.85 22.861z" fill="#FFF100" stroke="#343434" stroke-width=".449" stroke-linecap="round" stroke-linejoin="round"/><path d="M251.463 887.066h-93.061v33.16h93.061v-33.16z" fill="#fff" stroke="#343434" stroke-width="1.84" stroke-linecap="round" stroke-linejoin="round"/><path d="M245.121 887.066v33.16" stroke="#343434" stroke-width=".947" stroke-linecap="round" stroke-linejoin="round"/><path d="M251.463 887.066h-7.139v33.16h7.139v-33.16z" fill="#343434"/><path d="M231.08 895.794h-65.174v15.388h65.174v-15.388z" fill="#fff" stroke="#343434" stroke-width="1.42" stroke-linecap="round" stroke-linejoin="round"/><path d="M175.637 901.423l.86 1.54-1.623.555 1.623.528-.929 1.609-1.291-1.207.361 1.72h-1.776l.361-1.72-1.276 1.221-.947-1.637 1.623-.555-1.609-.5.86-1.554 1.36 1.18-.389-1.734h1.8l-.375 1.734 1.367-1.18zm40.574 0l.86 1.54-1.623.555 1.623.528-.929 1.609-1.29-1.207.361 1.72h-1.776l.36-1.72-1.276 1.221-.943-1.637 1.623-.555-1.609-.5.86-1.554 1.359 1.18-.388-1.734h1.8l-.374 1.734 1.362-1.18zm-6.761 0l.86 1.54-1.623.555 1.623.528-.929 1.609-1.291-1.207.361 1.72h-1.776l.361-1.72-1.276 1.221-.944-1.637 1.623-.555-1.609-.5.86-1.554 1.36 1.18-.389-1.734h1.8l-.375 1.734 1.364-1.18zm-6.761 0l.86 1.54-1.624.555 1.624.528-.93 1.609-1.29-1.207.361 1.72h-1.776l.36-1.72-1.272 1.221-.943-1.637 1.623-.555-1.609-.5.86-1.554 1.359 1.18-.388-1.734h1.8l-.374 1.734 1.359-1.18zm-6.766 0l.86 1.54-1.623.555 1.623.528-.929 1.609-1.29-1.207.36 1.72h-1.776l.361-1.72-1.276 1.221-.944-1.637 1.624-.555-1.61-.5.861-1.554 1.359 1.18-.388-1.734h1.8l-.374 1.734 1.362-1.18zm-6.76 0l.86 1.54-1.623.555 1.623.528-.929 1.609-1.293-1.207.361 1.72h-1.776l.361-1.72-1.277 1.221-.943-1.637 1.623-.555-1.609-.5.86-1.554 1.36 1.18-.389-1.734h1.8l-.371 1.731 1.362-1.177zm-6.764 0l.86 1.54-1.623.555 1.623.528-.929 1.609-1.29-1.207.361 1.72h-1.776l.36-1.72-1.276 1.221-.943-1.637 1.623-.555-1.61-.5.861-1.554 1.359 1.177-.388-1.734h1.8l-.372 1.734 1.36-1.177z" fill="#343434"/><path d="M48.875 1025.56h190.78m-210.979 0h12.94" stroke="#fff" stroke-width="3.314" stroke-linecap="round" stroke-linejoin="round"/></g></g><defs><clipPath id="clip0"><path fill="#fff" d="M0 0h317v1488H0z"/></clipPath><clipPath id="clip1"><path fill="#fff" transform="translate(.121 354.878)" d="M0 0h285.795v54.5H0z"/></clipPath><clipPath id="clip2"><path fill="#fff" transform="translate(2.082 442.128)" d="M0 0h285.795v54.5H0z"/></clipPath><clipPath id="clip3"><path fill="#fff" transform="translate(2.305 604.25)" d="M0 0h285.795v54.5H0z"/></clipPath><clipPath id="clip4"><path fill="#fff" transform="translate(1 690.813)" d="M0 0h207.83v57.327H0z"/></clipPath><clipPath id="clip5"><path fill="#fff" transform="translate(22.316 1313.62)" d="M0 0h216.374v174.864H0z"/></clipPath><clipPath id="clip6"><path fill="#fff" transform="translate(1 188)" d="M0 0h253.694v60H0z"/></clipPath><clipPath id="clip7"><path fill="#fff" transform="translate(-8 853)" d="M0 0h280v175H0z"/></clipPath></defs></svg>