<svg width="767" height="462" viewBox="0 0 767 462" fill="none" xmlns="http://www.w3.org/2000/svg"><path d="M12.6 13.863h1.597V5.295H12.6v8.568zm9.24-8.568h-3.3v8.568h3.3c2.58 0 4.284-1.704 4.284-4.284 0-2.568-1.704-4.284-4.284-4.284zm0 1.26c1.704 0 2.652 1.116 2.652 3.024 0 1.907-.948 3.023-2.652 3.023H20.1V6.555h1.74zm14.35 7.308v-1.26h-4.643v-2.4h4.068v-1.26h-4.068V6.555h4.596v-1.26h-6.156v8.567h6.204zm5.944-8.568h-1.86v8.568h1.524V7.227h.024l4.404 6.636h1.476V5.295H46.19v6.072h-.024l-4.032-6.072zm12.47 8.568h1.585V6.555h3.084v-1.26h-7.74v1.26h3.072v7.308zm8.493 0h1.596V5.295h-1.596v8.568zm8.495 0h1.584V6.555h3.084v-1.26h-7.74v1.26h3.072v7.308zm12.549 0v-3.516l3.323-5.052h-1.74l-2.316 3.66h-.023l-2.377-3.66h-1.775l3.311 5.052v3.516h1.597zm17.94 0v-1.26h-4.644v-2.4h4.068v-1.26h-4.068V6.555h4.596v-1.26h-6.156v8.567h6.204zm4.082 0h6.012v-1.26h-4.416V5.294h-1.596v8.567zm16.198 0v-1.26h-4.644v-2.4h4.068v-1.26h-4.068V6.555h4.596v-1.26h-6.156v8.567h6.204zm9.171 0l2.436-6.732h.024v6.732h1.524V5.295h-2.184l-2.304 6.444h-.024L128.7 5.295h-2.256v8.567h1.464v-6.73h.024l2.448 6.732h1.152zm14.543 0v-1.26h-4.644v-2.4h4.068v-1.26h-4.068V6.555h4.596v-1.26h-6.156v8.567h6.204zm5.943-8.568h-1.86v8.568h1.524V7.227h.024l4.404 6.636h1.476V5.295h-1.512v6.072h-.024l-4.032-6.072zm12.471 8.568h1.584V6.555h3.084v-1.26h-7.74v1.26h3.072v7.308zm7.671-2.592c.156 1.883 1.728 2.736 3.768 2.736 1.896 0 3.324-1.032 3.324-2.592 0-1.38-.84-2.076-2.244-2.34l-1.656-.324c-.924-.18-1.368-.408-1.368-1.116 0-.756.648-1.296 1.68-1.296 1.068 0 1.812.468 1.92 1.308h1.5c-.168-1.608-1.392-2.496-3.432-2.496-1.872 0-3.216 1.056-3.216 2.58 0 1.5 1.02 2.1 2.28 2.328l1.572.288c1.032.192 1.404.54 1.404 1.164 0 .864-.792 1.32-1.812 1.32-1.068 0-2.076-.396-2.184-1.56h-1.536zM20.419 69.82l2.32-6.26h.02v6.26h.83v-7.14h-1.28l-2.2 6.02h-.02l-2.2-6.02h-1.33v7.14h.82v-6.26h.02l2.32 6.26h.7zm12.127 0h.9l-2.9-7.14h-.97l-2.89 7.14h.86l.79-1.99h3.42l.79 1.99zm-2.51-6.28h.03l1.41 3.58h-2.86l1.42-3.58zm7.36 6.28v-2.89h1.9l1.85 2.89h.97l-1.96-3.02c.84-.19 1.65-.84 1.65-2 0-1.37-.91-2.12-2.51-2.12h-2.75v7.14h.85zm0-3.61V63.4h1.85c1.08 0 1.69.5 1.69 1.4 0 .93-.61 1.41-1.69 1.41h-1.85zm12.854 3.61h1.04l-3.3-4 3.11-3.14h-1.04l-3.76 3.88v-3.88h-.86v7.14h.86v-2.29l1.09-1.11 2.86 3.4zm10.548-7.25c.533 0 .953.138 1.26.41.313.268.47.644.47 1.13 0 .42-.137.778-.41 1.07a4.24 4.24 0 01-1.02.8l1.93 1.86c.173-.206.313-.443.42-.71.113-.272.206-.566.28-.88h.89c-.107.427-.24.824-.4 1.19-.16.368-.367.688-.62.96l1.46 1.42h-1.19l-.87-.84c-.313.28-.663.507-1.05.68-.387.174-.857.26-1.41.26-.687 0-1.233-.17-1.64-.51-.407-.34-.61-.822-.61-1.45 0-.512.137-.922.41-1.23.28-.313.657-.603 1.13-.87a7.67 7.67 0 01-.6-.77 1.705 1.705 0 01-.27-.96c0-.492.163-.876.49-1.15.333-.272.783-.41 1.35-.41zm-.03.72c-.28 0-.51.074-.69.22-.174.148-.26.35-.26.61 0 .24.063.464.19.67.127.2.31.424.55.67.393-.226.673-.44.84-.64.173-.206.26-.442.26-.71 0-.24-.08-.436-.24-.59-.16-.153-.377-.23-.65-.23zm-.41 3.12a3.87 3.87 0 00-.85.65c-.2.22-.3.51-.3.87 0 .367.123.66.37.88.246.22.576.33.99.33.427 0 .793-.07 1.1-.21.306-.14.563-.306.77-.5l-2.08-2.02zm12.272-.17c0-1.78.85-2.95 2.32-2.95 1.2 0 1.72.67 1.88 1.47h.84c-.23-1.3-1.16-2.2-2.72-2.2-1.84 0-3.2 1.44-3.2 3.68 0 2.25 1.36 3.7 3.2 3.7 1.56 0 2.49-.9 2.72-2.2h-.84c-.16.8-.68 1.47-1.88 1.47-1.47 0-2.32-1.19-2.32-2.97zm14.476.01c0-2.14-1.27-3.69-3.25-3.69s-3.25 1.55-3.25 3.69c0 2.15 1.27 3.69 3.25 3.69s3.25-1.54 3.25-3.69zm-.89 0c0 1.73-.8 2.96-2.36 2.96-1.57 0-2.37-1.23-2.37-2.96 0-1.72.8-2.96 2.37-2.96 1.56 0 2.36 1.24 2.36 2.96zm4.32 3.57h4.7v-.72h-3.84v-6.42h-.86v7.14zm13.948-3.57c0-2.14-1.27-3.69-3.25-3.69s-3.25 1.55-3.25 3.69c0 2.15 1.27 3.69 3.25 3.69s3.25-1.54 3.25-3.69zm-.89 0c0 1.73-.8 2.96-2.36 2.96-1.57 0-2.37-1.23-2.37-2.96 0-1.72.8-2.96 2.37-2.96 1.56 0 2.36 1.24 2.36 2.96zm9.99.66v-4.23h-.86v4.28c0 1.52-.77 2.25-2.03 2.25-1.25 0-2.03-.73-2.03-2.25v-4.28h-.86v4.21c0 1.97 1.07 3.05 2.89 3.05 1.84 0 2.89-1.08 2.89-3.03zm4.612 2.91v-2.89h1.9l1.85 2.89h.97l-1.96-3.02c.84-.19 1.65-.84 1.65-2 0-1.37-.91-2.12-2.51-2.12h-2.75v7.14h.85zm0-3.61V63.4h1.85c1.08 0 1.69.5 1.69 1.4 0 .93-.61 1.41-1.69 1.41h-1.85zm7.585 1.5c.1 1.56 1.4 2.23 2.95 2.23 1.51 0 2.59-.86 2.59-2.08 0-1.13-.7-1.64-1.8-1.86l-1.4-.29c-.87-.17-1.27-.42-1.27-1.13 0-.75.62-1.33 1.66-1.33 1.02 0 1.72.46 1.84 1.26h.83c-.14-1.29-1.15-1.95-2.68-1.95-1.48 0-2.49.88-2.49 2.05 0 1.23.86 1.67 1.82 1.85l1.36.27c.97.18 1.3.57 1.3 1.17 0 .86-.75 1.35-1.77 1.35-1.06 0-2-.39-2.11-1.54h-.83zM12.559 282.127h.86v-7.14h-.86v7.14zm4.734 0h4.7v-.72h-3.84v-6.42h-.86v7.14zm8.211 0h4.7v-.72h-3.84v-6.42h-.86v7.14zm13.55-2.91v-4.23h-.86v4.28c0 1.52-.77 2.25-2.03 2.25-1.25 0-2.03-.73-2.03-2.25v-4.28h-.86v4.21c0 1.97 1.07 3.05 2.89 3.05 1.84 0 2.89-1.08 2.89-3.03zm3.3.8c.1 1.56 1.4 2.23 2.95 2.23 1.51 0 2.59-.86 2.59-2.08 0-1.13-.7-1.64-1.8-1.86l-1.4-.29c-.87-.17-1.27-.42-1.27-1.13 0-.75.62-1.33 1.66-1.33 1.02 0 1.72.46 1.84 1.26h.83c-.14-1.29-1.15-1.95-2.68-1.95-1.48 0-2.49.88-2.49 2.05 0 1.23.86 1.67 1.82 1.85l1.36.27c.97.18 1.3.57 1.3 1.17 0 .86-.75 1.35-1.77 1.35-1.06 0-2-.39-2.11-1.54h-.83zm10.87 2.11h.86v-6.42h2.67v-.72h-6.19v.72h2.66v6.42zm7.712 0v-2.89h1.9l1.85 2.89h.97l-1.96-3.02c.84-.19 1.65-.84 1.65-2 0-1.37-.91-2.12-2.51-2.12h-2.75v7.14h.85zm0-3.61v-2.81h1.85c1.08 0 1.69.5 1.69 1.4 0 .93-.61 1.41-1.69 1.41h-1.85zm13.145 3.61h.9l-2.9-7.14h-.97l-2.89 7.14h.86l.79-1.99h3.42l.79 1.99zm-2.51-6.28h.03l1.41 3.58h-2.86l1.42-3.58zm8.053 6.28h.86v-6.42h2.67v-.72h-6.19v.72h2.66v6.42zm6.863 0h.86v-7.14h-.86v7.14zm10.804-3.57c0-2.14-1.27-3.69-3.25-3.69s-3.25 1.55-3.25 3.69c0 2.15 1.27 3.69 3.25 3.69s3.25-1.54 3.25-3.69zm-.89 0c0 1.73-.8 2.96-2.36 2.96-1.57 0-2.37-1.23-2.37-2.96 0-1.72.8-2.96 2.37-2.96 1.56 0 2.36 1.24 2.36 2.96zm5.38-3.57h-1.06v7.14h.84v-6.09h.02l4.06 6.09h.8v-7.14h-.83v5.7h-.02l-3.81-5.7zm12.236 5.03c.1 1.56 1.4 2.23 2.95 2.23 1.51 0 2.59-.86 2.59-2.08 0-1.13-.7-1.64-1.8-1.86l-1.4-.29c-.87-.17-1.27-.42-1.27-1.13 0-.75.62-1.33 1.66-1.33 1.02 0 1.72.46 1.84 1.26h.83c-.14-1.29-1.15-1.95-2.68-1.95-1.48 0-2.49.88-2.49 2.05 0 1.23.86 1.67 1.82 1.85l1.36.27c.97.18 1.3.57 1.3 1.17 0 .86-.75 1.35-1.77 1.35-1.06 0-2-.39-2.11-1.54h-.83zm10.869 2.11h.86v-6.42h2.67v-.72h-6.19v.72h2.66v6.42zm9.682 0v-2.96l2.73-4.18h-.95l-2.16 3.41h-.02l-2.23-3.41h-.95l2.72 4.18v2.96h.86zm5.821 0h4.7v-.72h-3.84v-6.42h-.86v7.14zm13.041 0v-.72h-3.98v-2.48h3.53v-.73h-3.53v-2.49h3.97v-.72h-4.82v7.14h4.83zM546.938 69.82l2.32-6.26h.02v6.26h.83v-7.14h-1.28l-2.2 6.02h-.02l-2.2-6.02h-1.33v7.14h.82v-6.26h.02l2.32 6.26h.7zm11.857 0v-.72h-3.98v-2.48h3.53v-.73h-3.53V63.4h3.97v-.72h-4.82v7.14h4.83zm3.116-2.11c.1 1.56 1.4 2.23 2.95 2.23 1.51 0 2.59-.86 2.59-2.08 0-1.13-.7-1.64-1.8-1.86l-1.4-.29c-.87-.17-1.27-.42-1.27-1.13 0-.75.62-1.33 1.66-1.33 1.02 0 1.72.46 1.84 1.26h.83c-.14-1.29-1.15-1.95-2.68-1.95-1.48 0-2.49.88-2.49 2.05 0 1.23.86 1.67 1.82 1.85l1.36.27c.97.18 1.3.57 1.3 1.17 0 .86-.75 1.35-1.77 1.35-1.06 0-2-.39-2.11-1.54h-.83zm8.563 0c.1 1.56 1.4 2.23 2.95 2.23 1.51 0 2.59-.86 2.59-2.08 0-1.13-.7-1.64-1.8-1.86l-1.4-.29c-.87-.17-1.27-.42-1.27-1.13 0-.75.62-1.33 1.66-1.33 1.02 0 1.72.46 1.84 1.26h.83c-.14-1.29-1.15-1.95-2.68-1.95-1.48 0-2.49.88-2.49 2.05 0 1.23.86 1.67 1.82 1.85l1.36.27c.97.18 1.3.57 1.3 1.17 0 .86-.75 1.35-1.77 1.35-1.06 0-2-.39-2.11-1.54h-.83zm14.113 2.11h.9l-2.9-7.14h-.97l-2.89 7.14h.86l.79-1.99h3.42l.79 1.99zm-2.51-6.28h.03l1.41 3.58h-2.86l1.42-3.58zm5.835 2.7c0 2.25 1.37 3.7 3.26 3.7.95 0 1.91-.54 2.18-1.31l.08 1.19h.68v-3.56h-2.53v.68h1.69v.37c0 1.16-.89 1.9-2.09 1.9-1.51 0-2.39-1.19-2.39-2.97 0-1.78.9-2.95 2.42-2.95 1.09 0 1.74.58 1.93 1.47h.86c-.25-1.32-1.2-2.2-2.79-2.2-1.89 0-3.3 1.44-3.3 3.68zm9.891 3.58h.86v-7.14h-.86v7.14zm5.794-7.14h-1.06v7.14h.84v-6.09h.02l4.06 6.09h.8v-7.14h-.83v5.7h-.02l-3.81-5.7zm8.098 3.56c0 2.25 1.37 3.7 3.26 3.7.95 0 1.91-.54 2.18-1.31l.08 1.19h.68v-3.56h-2.53v.68h1.69v.37c0 1.16-.89 1.9-2.09 1.9-1.51 0-2.39-1.19-2.39-2.97 0-1.78.9-2.95 2.42-2.95 1.09 0 1.74.58 1.93 1.47h.86c-.25-1.32-1.2-2.2-2.79-2.2-1.89 0-3.3 1.44-3.3 3.68zm16.589-3.56h-2.53v7.14h2.53c2.07 0 3.48-1.42 3.48-3.57 0-2.14-1.41-3.57-3.48-3.57zm0 .72c1.66 0 2.59 1.13 2.59 2.85 0 1.73-.93 2.85-2.59 2.85h-1.68v-5.7h1.68zm11.742 6.42v-.72h-3.98v-2.48h3.53v-.73h-3.53V63.4h3.97v-.72h-4.82v7.14h4.83zm5.706 0h.98l2.9-7.14h-.88l-2.48 6.26h-.02l-2.48-6.26h-.9l2.88 7.14zm6.979 0h.86v-7.14h-.86v7.14zm5.185-3.58c0-1.78.85-2.95 2.32-2.95 1.2 0 1.72.67 1.88 1.47h.84c-.23-1.3-1.16-2.2-2.72-2.2-1.84 0-3.2 1.44-3.2 3.68 0 2.25 1.36 3.7 3.2 3.7 1.56 0 2.49-.9 2.72-2.2h-.84c-.16.8-.68 1.47-1.88 1.47-1.47 0-2.32-1.19-2.32-2.97zm13.235 3.58v-.72h-3.98v-2.48h3.53v-.73h-3.53V63.4h3.97v-.72h-4.82v7.14h4.83zM31.89 96.535a19.361 19.361 0 100 38.722 19.361 19.361 0 000-38.722zm8.66 30.155a13.844 13.844 0 01-21.36-16.311.923.923 0 011.684.045.92.92 0 01.004.692 12 12 0 003.725 14.317 12.003 12.003 0 0014.794-.175.912.912 0 01.687-.228.919.919 0 01.464 1.66h.002z" fill="#fff"/><g clip-path="url(#clip0)"><path d="M548.233 115.069h163.326a5.22 5.22 0 015.223 5.223 5.222 5.222 0 01-5.223 5.223H548.233a5.22 5.22 0 01-4.825-7.218 5.22 5.22 0 014.825-3.228z" fill="#614601"/><path d="M557.226 122.006c-2.698 0-4.827-.721-6.385-2.163a7.68 7.68 0 01-2.338-5.932h2.338a5.704 5.704 0 001.727 4.377 6.526 6.526 0 004.658 1.623 6.173 6.173 0 004.099-1.222 4.22 4.22 0 001.449-3.419 4.215 4.215 0 00-1.03-2.946 6.546 6.546 0 00-3.193-1.728l-4.116-1.256c-3.466-.954-5.199-3.07-5.2-6.351a5.977 5.977 0 01.96-3.349 6.411 6.411 0 012.686-2.285 9.138 9.138 0 013.962-.82 7.915 7.915 0 015.653 1.97 7.023 7.023 0 012.093 5.357h-2.339a5.117 5.117 0 00-1.447-3.888 5.614 5.614 0 00-4.031-1.38 5.681 5.681 0 00-3.768 1.168 3.826 3.826 0 00-1.398 3.088 4.057 4.057 0 001.099 2.948 7.618 7.618 0 003.439 1.798l3.982 1.186a6.99 6.99 0 013.716 2.32 6.489 6.489 0 011.274 4.135 6.189 6.189 0 01-2.129 4.937 8.528 8.528 0 01-5.761 1.832zm11.967-16.4h2.233v15.877h-2.233v-15.877zm1.115-3.209a1.977 1.977 0 01-1.485-.593 2.033 2.033 0 01-.576-1.466 2.067 2.067 0 01.576-1.5 1.969 1.969 0 011.485-.594 2.031 2.031 0 012.094 2.094 1.998 1.998 0 01-.593 1.466 2.04 2.04 0 01-1.501.593zm6.418 3.209h2.237v3.56a5.705 5.705 0 011.745-2.827 4.85 4.85 0 013.349-1.151 5.582 5.582 0 013.42 1.011 4.782 4.782 0 011.779 2.971 5.49 5.49 0 015.373-3.978 5.412 5.412 0 014.24 1.605 6.704 6.704 0 011.448 4.64v10.046h-2.204v-9.596a5.164 5.164 0 00-1.064-3.595 3.771 3.771 0 00-2.914-1.151 3.853 3.853 0 00-3.314 1.641 7.678 7.678 0 00-1.186 4.57v8.129h-2.23v-9.145c0-3.466-1.326-5.199-3.978-5.199a3.774 3.774 0 00-3.315 1.693 7.9 7.9 0 00-1.151 4.518v8.129h-2.235v-15.871zm37.332-.418a7.648 7.648 0 014.03 1.064 7.379 7.379 0 012.757 2.97 9.236 9.236 0 01.995 4.344 9.034 9.034 0 01-1.017 4.309 7.381 7.381 0 01-2.826 2.966 7.921 7.921 0 01-4.082 1.064 6.962 6.962 0 01-3.765-1.051 6.375 6.375 0 01-2.477-2.791v10.921h-2.233v-23.378h2.233v3.455a5.93 5.93 0 012.495-2.844 7.457 7.457 0 013.89-1.029zm-.383 14.689a5.7 5.7 0 005.164-3.07 6.748 6.748 0 00.767-3.245 6.867 6.867 0 00-.767-3.263 5.675 5.675 0 00-5.164-3.087 6.054 6.054 0 00-3.158.82 5.799 5.799 0 00-2.164 2.266 6.743 6.743 0 00-.781 3.263 6.622 6.622 0 00.781 3.245 5.803 5.803 0 002.181 2.251 6.092 6.092 0 003.141.82zm12.07-22.819h2.233v24.425h-2.233V97.058zm7.535 8.548h2.233v15.877h-2.233v-15.877zm1.116-3.209a1.985 1.985 0 01-1.922-1.268 2.038 2.038 0 01-.139-.791 2.067 2.067 0 01.576-1.5 1.973 1.973 0 011.485-.594 2.037 2.037 0 011.5.594 2.019 2.019 0 01.595 1.5 1.99 1.99 0 01-.593 1.466 2.035 2.035 0 01-1.502.593zm13.187-3.525a3.394 3.394 0 00-2.181.68c-.57.454-.855 1.366-.854 2.736v3.314h4.85v1.92h-4.85v13.961h-2.234v-13.957h-3.489v-1.92h3.489v-3.209c0-2.14.477-3.6 1.431-4.377a5.085 5.085 0 013.315-1.173c.8-.029 1.597.114 2.338.418v1.954a6.425 6.425 0 00-1.815-.347zm5.129 6.734h2.233v15.877h-2.233v-15.877zm1.117-3.209a1.982 1.982 0 01-1.922-1.268 2.02 2.02 0 01-.139-.791 2.067 2.067 0 01.576-1.5 1.974 1.974 0 011.485-.594 2.031 2.031 0 012.093 2.094 1.998 1.998 0 01-.593 1.466 2.038 2.038 0 01-1.5.593zm20.2 10.153c0 .256-.023.756-.07 1.5h-12.84a5.972 5.972 0 001.5 4.275 5.356 5.356 0 004.082 1.587 5.813 5.813 0 003.054-.767 4.177 4.177 0 001.797-2.128h2.267a5.736 5.736 0 01-2.443 3.523 7.972 7.972 0 01-4.675 1.361 8.142 8.142 0 01-4.152-1.029 6.882 6.882 0 01-2.736-2.931 9.668 9.668 0 01-.96-4.414 9.566 9.566 0 01.96-4.396 6.968 6.968 0 012.704-2.914 8.485 8.485 0 017.938-.087 6.702 6.702 0 012.634 2.617 7.608 7.608 0 01.94 3.803zm-2.198-.279a5.395 5.395 0 00-1.431-3.82 5.073 5.073 0 00-3.838-1.449 5.178 5.178 0 00-3.803 1.449 5.76 5.76 0 00-1.642 3.82h10.714zm20.933-15.213v24.425h-2.198v-3.42a6.289 6.289 0 01-2.46 2.774 6.97 6.97 0 01-3.786 1.064 8.055 8.055 0 01-4.239-1.082 7.18 7.18 0 01-2.757-2.983 9.363 9.363 0 01-.959-4.274 9.22 9.22 0 01.976-4.274 7.387 7.387 0 012.792-3.001 7.98 7.98 0 014.221-1.099 6.911 6.911 0 013.803 1.047 6.19 6.19 0 012.408 2.826V97.058h2.199zm-8.202 22.819a6.053 6.053 0 003.262-.855 5.681 5.681 0 002.111-2.303 6.901 6.901 0 00.732-3.157 6.975 6.975 0 00-.732-3.193 5.685 5.685 0 00-2.111-2.302 6.053 6.053 0 00-3.262-.855 5.582 5.582 0 00-4.327 1.797 6.497 6.497 0 00-1.641 4.553 7.024 7.024 0 00.732 3.246 5.504 5.504 0 002.094 2.25 5.964 5.964 0 003.142.819zm29.711 2.999l-.01.009a.387.387 0 01-.093.096 3.798 3.798 0 01-4.986.359 3.795 3.795 0 01-1.433-2.253 3.796 3.796 0 01.401-2.639.485.485 0 01.078-.143l.005-.01a.518.518 0 01.91.249.523.523 0 01-.083.377 2.769 2.769 0 004.373 3.32c.011-.013.02-.027.032-.039a.516.516 0 01.345-.151.527.527 0 01.357.121.525.525 0 01.092.697l.012.007zm-2.795-7.806a5.225 5.225 0 100 10.452 5.225 5.225 0 000-10.453v.001z" fill="#fff"/></g><path d="M266.681 69.82h.86V63.4h2.67v-.72h-6.19v.72h2.66v6.42zm9.682 0v-2.96l2.73-4.18h-.95l-2.16 3.41h-.02l-2.23-3.41h-.95l2.72 4.18v2.96h.86zm8.471-2.87c1.58 0 2.5-.73 2.5-2.14 0-1.4-.92-2.13-2.51-2.13h-2.64v7.14h.85v-2.87h1.8zm-1.8-.72V63.4h1.77c1.08 0 1.67.44 1.67 1.41s-.59 1.42-1.67 1.42h-1.77zm12.494 3.59v-.72h-3.98v-2.48h3.53v-.73h-3.53V63.4h3.97v-.72h-4.82v7.14h4.83zm3.586 0h.86v-3.09h3.37v-.72h-3.37V63.4h3.71v-.72h-4.57v7.14zm12.695 0h.9l-2.9-7.14h-.97l-2.89 7.14h.86l.79-1.99h3.42l.79 1.99zm-2.51-6.28h.03l1.41 3.58h-2.86l1.42-3.58zm6.716 2.7c0-1.78.85-2.95 2.32-2.95 1.2 0 1.72.67 1.88 1.47h.84c-.23-1.3-1.16-2.2-2.72-2.2-1.84 0-3.2 1.44-3.2 3.68 0 2.25 1.36 3.7 3.2 3.7 1.56 0 2.49-.9 2.72-2.2h-.84c-.16.8-.68 1.47-1.88 1.47-1.47 0-2.32-1.19-2.32-2.97zm13.235 3.58v-.72h-3.98v-2.48h3.53v-.73h-3.53V63.4h3.97v-.72h-4.82v7.14h4.83zm3.376-4.82c0-.252.06-.43.18-.53.12-.1.264-.15.43-.15.174 0 .32.05.44.15.127.1.19.278.19.53 0 .24-.063.414-.19.52a.637.637 0 01-.44.16.626.626 0 01-.43-.16c-.12-.106-.18-.28-.18-.52zm0 4.28c0-.246.06-.42.18-.52.12-.1.264-.15.43-.15.174 0 .32.05.44.15.127.1.19.274.19.52 0 .24-.063.414-.19.52a.637.637 0 01-.44.16.626.626 0 01-.43-.16c-.12-.106-.18-.28-.18-.52zm8.624-3.04c0 2.25 1.37 3.7 3.26 3.7.95 0 1.91-.54 2.18-1.31l.08 1.19h.68v-3.56h-2.53v.68h1.69v.37c0 1.16-.89 1.9-2.09 1.9-1.51 0-2.39-1.19-2.39-2.97 0-1.78.9-2.95 2.42-2.95 1.09 0 1.74.58 1.93 1.47h.86c-.25-1.32-1.2-2.2-2.79-2.2-1.89 0-3.3 1.44-3.3 3.68zm11.767 3.58h.86V63.4h2.67v-.72h-6.19v.72h2.66v6.42zm16.58 0h.98l2.01-7.14h-.86l-1.63 6.07h-.02l-1.62-6.07h-.91l-1.61 6.07h-.02l-1.64-6.07h-.91l2.01 7.14h.97l1.62-6h.02l1.61 6zm11.072 0h.9l-2.9-7.14h-.97l-2.89 7.14h.86l.79-1.99h3.42l.79 1.99zm-2.51-6.28h.03l1.41 3.58h-2.86l1.42-3.58zm6.509 6.28h4.7v-.72h-3.84v-6.42h-.86v7.14zm7.644-2.11c.1 1.56 1.4 2.23 2.95 2.23 1.51 0 2.59-.86 2.59-2.08 0-1.13-.7-1.64-1.8-1.86l-1.4-.29c-.87-.17-1.27-.42-1.27-1.13 0-.75.62-1.33 1.66-1.33 1.02 0 1.72.46 1.84 1.26h.83c-.14-1.29-1.15-1.95-2.68-1.95-1.48 0-2.49.88-2.49 2.05 0 1.23.86 1.67 1.82 1.85l1.36.27c.97.18 1.3.57 1.3 1.17 0 .86-.75 1.35-1.77 1.35-1.06 0-2-.39-2.11-1.54h-.83zm9.022 2.11h.86v-3.27h4.18v3.27h.86v-7.14h-.86v3.15h-4.18v-3.15h-.86v7.14zm14.594 0v-.72h-3.98v-2.48h3.53v-.73h-3.53V63.4h3.97v-.72h-4.82v7.14h4.83zm3.586 0h.86v-7.14h-.86v7.14zm8.594 0l2.32-6.26h.02v6.26h.83v-7.14h-1.28l-2.2 6.02h-.02l-2.2-6.02h-1.33v7.14h.82v-6.26h.02l2.32 6.26h.7z" fill="#fff"/><g clip-path="url(#clip1)"><path d="M271.669 115.271h-1.293l-.772-2.245h-5.46l-.771 2.245h-1.291l4.325-12.571h.934l4.328 12.571zm-2.442-3.361l-2.353-7.253-2.352 7.255 4.705-.002zm4.973 1.688v1.671h-1.167V102.7h1.164v6.302a3.343 3.343 0 013.089-1.868 4.05 4.05 0 014.113 4.166 4.053 4.053 0 01-2.517 3.864 4.06 4.06 0 01-1.596.303 3.364 3.364 0 01-3.089-1.866l.003-.003zm3.035.797a2.971 2.971 0 002.999-3.089 3.02 3.02 0 10-6.034 0 2.97 2.97 0 001.851 2.869c.376.153.778.228 1.184.22zm13.234-4.166h-1.167c-.126-1.114-.827-2.048-2.533-2.048-1.849-.004-2.801 1.487-2.801 3.103 0 1.652.916 3.107 2.855 3.107a2.283 2.283 0 002.515-1.85h1.167c-.251 1.634-1.437 2.927-3.752 2.927-2.586 0-3.969-2.011-3.969-4.184 0-2.155 1.383-4.166 3.969-4.166 2.549 0 3.591 1.562 3.716 3.107v.004zm8.637 5.046v-1.674a3.356 3.356 0 01-3.089 1.867 4.06 4.06 0 01-2.945-1.206 4.043 4.043 0 01-1.167-2.96 4.037 4.037 0 011.164-2.963 4.042 4.042 0 012.948-1.203 3.332 3.332 0 013.089 1.866V102.7h1.167v12.571l-1.167.004zm-3.035-.88a2.977 2.977 0 003.035-3.089 3.022 3.022 0 00-5.186-2.197 3.019 3.019 0 00-.849 2.197 2.971 2.971 0 003 3.089zm10.161-6.339a2.533 2.533 0 00-2.505 1.56 2.52 2.52 0 00-.189 1.026h5.262a2.491 2.491 0 00-2.566-2.59l-.002.004zm3.663 3.502h-6.373c.054 1.544.844 2.892 2.801 2.892a2.272 2.272 0 002.335-1.462h1.186a3.383 3.383 0 01-3.518 2.478c-2.675 0-3.968-1.922-3.968-4.184 0-2.371 1.419-4.148 3.915-4.148.477-.015.952.066 1.397.237a3.578 3.578 0 011.998 1.93c.187.439.284.911.286 1.388.003.289-.015.578-.056.865l-.003.004zm6.574-8.75v1.005a2.487 2.487 0 00-.97-.161c-.704 0-1.509.143-1.509 1.778v1.886h2.479v1.005h-2.479v6.95h-1.167v-6.95h-1.811v-1.005h1.815v-1.779c0-2.729 1.563-2.945 2.531-2.945.382-.017.763.057 1.111.216zm4.596 5.387a2.973 2.973 0 00-2.806 1.909 2.988 2.988 0 00-.193 1.18 3.02 3.02 0 106.034 0 2.995 2.995 0 00-.198-1.188 2.986 2.986 0 00-1.653-1.682 2.985 2.985 0 00-1.184-.219zm4.202-.879v8.564c0 3.035-1.598 4.184-4.256 4.184-2.765 0-3.915-1.741-4.022-3.663h1.185a2.584 2.584 0 002.837 2.606c1.922 0 3.089-.845 3.089-3.127v-2.297a3.35 3.35 0 01-3.089 1.885 4.059 4.059 0 01-4.112-4.184 4.03 4.03 0 011.169-2.953 4.047 4.047 0 012.943-1.195 3.335 3.335 0 013.089 1.866v-1.686h1.167zm2.711 7.955V102.7h1.168v6.339a3.143 3.143 0 013.017-1.903 2.92 2.92 0 012.389.987c.523.716.772 1.595.704 2.479v4.669h-1.172v-4.328c0-1.563-.665-2.766-2.317-2.766-1.76 0-2.622 1.545-2.622 3.017v4.077h-1.167zm9.858 0v-7.955h1.167v7.955h-1.167zm-.483-11.062a1.07 1.07 0 011.479-1.013c.133.055.254.136.356.237a1.099 1.099 0 01.319.776 1.078 1.078 0 01-.326.758 1.068 1.068 0 01-.768.301 1.044 1.044 0 01-.982-.653 1.066 1.066 0 01-.078-.406zm5.785 3.107v10.379c0 1.634-.791 2.335-1.761 2.335a3.305 3.305 0 01-1.328-.215v-1.024c.28.132.587.199.898.198.646 0 1.023-.469 1.023-1.365v-10.308h1.168zm-1.653-3.107a1.07 1.07 0 011.48-1.013 1.096 1.096 0 01.674 1.013 1.067 1.067 0 01-1.094 1.059 1.035 1.035 0 01-.408-.077 1.034 1.034 0 01-.577-.574 1.062 1.062 0 01-.079-.408h.004zm10.828 3.107l-3.933 3.986 3.933 3.969h-1.526l-3.741-3.717v3.717h-1.168V102.7h1.168v8.35l3.735-3.734h1.532zm1.507 7.955V102.7h1.167v12.571h-1.167zm15.659 0h-1.185v-4.69c0-1.67-.773-2.406-1.886-2.406-1.401 0-2.209 1.239-2.209 3.053v4.041h-1.185v-4.47c0-1.975-.791-2.622-1.886-2.622-1.383 0-2.227 1.24-2.227 3.053v4.041h-1.167v-7.955h1.167v1.741a2.572 2.572 0 012.496-1.921 2.35 2.35 0 012.586 1.975 2.787 2.787 0 012.676-1.975c1.85 0 2.82 1.113 2.82 3.126v5.009zm2.602 0v-7.955h1.167v1.719a3.143 3.143 0 013.018-1.903 2.917 2.917 0 012.388.987c.523.716.772 1.595.704 2.479v4.669h-1.168v-4.324c0-1.563-.664-2.766-2.316-2.766-1.76 0-2.622 1.545-2.622 3.017v4.077h-1.171zm13.306.197a4.048 4.048 0 01-1.61-.289 4.056 4.056 0 01-2.267-2.266 4.056 4.056 0 01-.289-1.611 4.184 4.184 0 018.368 0 4.074 4.074 0 01-4.206 4.166h.004zm0-1.077a2.983 2.983 0 002.837-1.902 2.97 2.97 0 00.198-1.187 3.02 3.02 0 10-6.034 0 2.97 2.97 0 002.995 3.093l.004-.004zm7.398-7.075v1.686a3.33 3.33 0 013.089-1.868 4.036 4.036 0 014.112 4.148 4.058 4.058 0 01-2.513 3.88 4.077 4.077 0 01-1.599.305 3.354 3.354 0 01-3.089-1.886v6.303h-1.167v-12.568h1.167zm3.035.879a2.98 2.98 0 00-3.035 3.089 3.02 3.02 0 106.034 0 2.971 2.971 0 00-2.999-3.089zm12.709.807v-1.686h1.168v12.57h-1.168v-6.303a3.35 3.35 0 01-3.089 1.885 4.059 4.059 0 01-4.112-4.184 4.014 4.014 0 01.283-1.596 4.03 4.03 0 012.235-2.256 4.047 4.047 0 011.594-.296 3.335 3.335 0 013.089 1.866zm-3.035-.809a2.974 2.974 0 00-2.999 3.089 3.013 3.013 0 001.839 2.877 3.018 3.018 0 004.195-2.877 2.97 2.97 0 00-1.852-2.868 2.977 2.977 0 00-1.183-.219v-.002zm11.708-.859v1.077a2.24 2.24 0 00-.754-.108c-1.94 0-2.838 1.58-2.838 3.43v3.538h-1.167v-7.955h1.167v1.867a2.99 2.99 0 012.838-1.975c.257-.01.514.033.754.126zm4.272 3.595c1.311.323 2.587.647 2.587 2.209 0 1.527-1.222 2.334-3.071 2.334-1.798 0-3.323-.897-3.323-2.892h1.15c0 1.419.969 1.922 2.227 1.922 1.185 0 1.903-.469 1.903-1.347 0-1.042-1.094-1.168-2.622-1.598-1.31-.324-2.406-.665-2.406-2.155 0-1.473 1.257-2.267 2.945-2.267 1.742 0 3.071 1.005 3.071 2.64h-1.149c0-1.095-.736-1.688-1.939-1.688-1.042 0-1.778.485-1.778 1.329-.001.952.879 1.096 2.405 1.509v.004zm8.62 3.283v1.06a8.94 8.94 0 01-1.347.108c-1.042 0-2.423-.216-2.423-2.766v-4.293h-1.599v-1.005h1.599v-2.946h1.185v2.946h2.298v1.005h-2.3v4.059c0 1.705.625 1.921 1.473 1.921a7.427 7.427 0 001.114-.09v.001zm7.343-6.896h1.168v7.955h-1.168v-1.724a3.152 3.152 0 01-3.017 1.921 2.96 2.96 0 01-2.389-1.005 3.712 3.712 0 01-.703-2.479v-4.668h1.186v4.328c0 1.563.646 2.765 2.298 2.765 1.76 0 2.622-1.545 2.622-3.017l.003-4.076zm2.549 0h1.275l2.801 6.304 2.838-6.304h1.275l-3.699 7.956h-.845l-3.645-7.956zm16.861 7.956l-2.37-6.644-2.352 6.644h-.844l-3.071-7.956h1.256l2.227 6.175 2.209-6.175h1.166l2.188 6.175 2.245-6.175h1.257l-3.071 7.955-.84.001zm8.404-3.986l2.801 3.986h-1.365l-2.119-3.089-2.119 3.089h-1.363l2.802-3.986-2.784-3.969h1.365l2.101 3.052 2.101-3.048h1.347l-2.767 3.965zm8.029 8.78c-2.407 0-3.646-1.221-3.7-3.628h1.185c.09 1.724.88 2.622 2.533 2.622 1.616 0 2.531-.718 2.531-2.856v-2.657a3.095 3.095 0 01-2.981 1.921 2.917 2.917 0 01-2.442-.969 3.739 3.739 0 01-.682-2.605v-4.578h1.185v4.238c0 1.723.521 2.855 2.317 2.855 1.759 0 2.603-1.545 2.603-3.017v-4.076h1.168v8.888c-.002 2.731-1.278 3.862-3.717 3.862zm5.566-12.75h6.608l-4.759 6.895h4.778v1.06h-6.806l4.755-6.895h-4.579l.003-1.06zM262.977 138.07v-4.69a4.04 4.04 0 011.184-2.982 4.04 4.04 0 012.982-1.184 4.067 4.067 0 013.911 2.546c.207.515.306 1.066.292 1.62v4.69a4.078 4.078 0 01-1.207 2.981 4.076 4.076 0 01-2.996 1.17 4.045 4.045 0 01-4.166-4.151zm7.129 0v-4.69a2.9 2.9 0 00-.818-2.17 2.918 2.918 0 00-2.145-.882 2.914 2.914 0 00-2.764 1.886 2.914 2.914 0 00-.181 1.166v4.69a2.894 2.894 0 001.789 2.815c.367.151.76.226 1.156.22a2.903 2.903 0 002.963-3.035zm2.585-5.55v-1.007c2.209 0 2.605-.575 2.605-2.083h1.168v12.573h-1.258v-9.482l-2.515-.001zm5.872 9.482c0-3.951 1.257-5.118 3.716-6.196 1.491-.625 2.857-1.275 2.857-3.107 0-1.418-.97-2.334-2.587-2.334a2.624 2.624 0 00-2.765 2.802h-1.221a3.79 3.79 0 011.127-2.845 3.79 3.79 0 012.859-1.089c2.317 0 3.807 1.347 3.807 3.556 0 2.353-2.047 3.377-3.429 3.951-2.335 1.095-2.981 1.975-2.981 4.148h6.464v1.114h-7.847zm8.87-3.735h1.221a2.745 2.745 0 002.981 2.801c1.742 0 2.837-1.094 2.837-2.496 0-1.473-.951-2.55-2.837-2.55h-.952v-1.094h.952c1.742 0 2.604-.952 2.604-2.316 0-1.402-1.042-2.245-2.604-2.245-1.76 0-2.676 1.005-2.676 2.478h-1.221c0-2.137 1.544-3.61 3.825-3.61 2.245 0 3.897 1.347 3.897 3.377a2.788 2.788 0 01-2.188 2.873c.702.14 1.332.526 1.775 1.089.444.562.673 1.265.645 1.98 0 2.155-1.742 3.646-4.113 3.646-2.315 0-4.146-1.508-4.146-3.932v-.001zm15.066 3.735v-4.309h-4.774v-8.261h1.22v7.147h3.557v-3.968h1.218v3.968h2.047v1.114h-2.047v4.31l-1.221-.001zm5.062-5.352v-7.218h7.184v1.113h-6.052v4.903a3.335 3.335 0 012.927-1.526 3.864 3.864 0 014.023 4.112 4.184 4.184 0 01-8.369 0h1.237a2.953 2.953 0 005.859.474 2.956 2.956 0 00-2.932-3.491 2.672 2.672 0 00-2.586 1.634l-1.291-.001zm13.666 5.55a4.056 4.056 0 01-2.977-1.189 4.08 4.08 0 01-.901-1.366 4.073 4.073 0 01-.288-1.611c.007-.846.25-1.674.703-2.389l3.861-6.213h1.418l-3.088 4.83a1.938 1.938 0 011.275-.394 4.17 4.17 0 013.849 2.572 4.17 4.17 0 01-.903 4.54 4.171 4.171 0 01-2.946 1.22h-.003zm0-1.131a3.044 3.044 0 002.89-1.812 3.046 3.046 0 00-2.162-4.218 3.05 3.05 0 00-3.158 1.287 3.045 3.045 0 00-.515 1.708 2.922 2.922 0 001.792 2.81c.365.152.757.229 1.153.225zm4.846-11.637h7.56l-5.799 12.571h-1.311l5.352-11.458h-5.801l-.001-1.113zm11.942 12.768c-2.568 0-4.148-1.598-4.148-3.646a3.011 3.011 0 012.334-3.088 2.747 2.747 0 01-2.083-2.802c0-1.939 1.473-3.43 3.897-3.43 2.406 0 3.879 1.509 3.879 3.43a2.747 2.747 0 01-2.083 2.802 3.028 3.028 0 012.335 3.088c0 2.012-1.581 3.646-4.131 3.646zm0-7.165c1.67 0 2.658-1.005 2.658-2.317 0-1.329-1.024-2.352-2.658-2.352-1.633 0-2.657 1.005-2.657 2.352-.001 1.312.987 2.317 2.657 2.317zm0 6.034c1.798 0 2.91-1.094 2.91-2.515 0-1.4-1.078-2.513-2.91-2.513-1.85 0-2.927 1.094-2.927 2.513-.001 1.437 1.131 2.515 2.927 2.515zm9.805-11.835a4.073 4.073 0 013.876 2.556 4.09 4.09 0 01.29 1.61 4.542 4.542 0 01-.704 2.389l-3.861 6.214h-1.419l3.089-4.831a1.582 1.582 0 01-1.132.395 4.169 4.169 0 11-.143-8.333h.004zm0 1.132a3.045 3.045 0 00-2.891 1.812 3.053 3.053 0 002.162 4.218 3.044 3.044 0 003.159-1.288c.338-.505.517-1.1.515-1.708a2.933 2.933 0 00-.823-2.148 2.905 2.905 0 00-2.122-.886z" fill="#fff"/></g><g clip-path="url(#clip2)" fill="#fff"><path d="M272.082 195.977l-.879-2.587h-5.876l-.88 2.587h-.826l4.33-12.573h.646l4.311 12.573h-.826zm-3.809-11.389l-2.694 8.066h5.371l-2.677-8.066zm6.895 11.389h-.754v-12.573h.754v6.807a3.517 3.517 0 013.361-2.155 3.938 3.938 0 013.739 2.498c.194.497.285 1.028.268 1.561a3.928 3.928 0 01-4.006 4.041 3.53 3.53 0 01-3.361-2.137l-.001 1.958zm6.61-3.862a3.22 3.22 0 00-3.269-3.341 3.235 3.235 0 00-3.341 3.341 3.237 3.237 0 002.049 3.101c.411.162.851.237 1.292.222a3.222 3.222 0 003.269-3.323zm8.926-1.06c-.126-1.185-.916-2.299-2.838-2.299-2.012 0-3.089 1.599-3.089 3.341 0 1.76 1.041 3.341 3.126 3.341 1.76 0 2.605-.916 2.838-2.12h.772c-.234 1.599-1.382 2.838-3.645 2.838-2.515 0-3.844-1.954-3.844-4.059a3.79 3.79 0 013.844-4.041c2.461 0 3.466 1.491 3.61 2.999h-.774zm9.682 2.964a3.502 3.502 0 01-3.341 2.137 3.962 3.962 0 01-2.877-1.159 3.937 3.937 0 01-.868-1.324 3.935 3.935 0 01-.279-1.558 3.958 3.958 0 011.142-2.892 3.945 3.945 0 012.882-1.167 3.486 3.486 0 013.341 2.155v-6.807h.772v12.573h-.772v-1.958zm0-1.904a3.323 3.323 0 00-.236-1.277 3.314 3.314 0 00-1.787-1.814 3.293 3.293 0 00-3.622.728 3.304 3.304 0 00-.947 2.363 3.304 3.304 0 00.947 2.364 3.311 3.311 0 002.349.983 3.293 3.293 0 002.349-.983c.306-.312.548-.681.711-1.087.162-.406.242-.84.236-1.277zm3.767.072c.018 1.742.97 3.287 3.09 3.287a2.606 2.606 0 002.622-1.671h.79a3.318 3.318 0 01-3.412 2.353c-2.587 0-3.845-1.903-3.845-4.059 0-2.317 1.366-4.041 3.791-4.041a3.479 3.479 0 013.296 2.117c.182.426.276.885.278 1.349.003.222-.009.444-.036.665h-6.574zm.018-.646h5.838a2.79 2.79 0 00-.192-1.103 2.79 2.79 0 00-.612-.937 2.769 2.769 0 00-2.034-.816 2.846 2.846 0 00-2.114.783 2.855 2.855 0 00-.886 2.073zm12.984-7.365a2.37 2.37 0 00-1.042-.177c-.736 0-1.598.235-1.598 2.033v2.203h2.64v.683h-2.64v7.059h-.755v-7.059h-1.85v-.683h1.85v-2.155c0-2.497 1.33-2.784 2.299-2.784a2.75 2.75 0 011.094.198l.002.682zm8.549 12.52c0 3.142-1.563 4.292-4.131 4.292-2.784 0-3.826-1.778-3.916-3.771h.756c.09 1.616.898 3.053 3.162 3.053 2.101 0 3.361-.938 3.361-3.574v-2.692a3.485 3.485 0 01-3.34 2.155 3.937 3.937 0 01-2.882-1.167 3.955 3.955 0 01-1.142-2.892 3.934 3.934 0 011.147-2.881 3.945 3.945 0 012.877-1.16 3.493 3.493 0 013.34 2.155v-1.979h.773l-.005 8.461zm-7.364-4.599a3.285 3.285 0 00.947 2.364 3.297 3.297 0 005.644-2.364 3.304 3.304 0 00-.947-2.363 3.288 3.288 0 00-2.349-.984 3.293 3.293 0 00-3.059 2.07c-.163.406-.243.84-.236 1.277zm10.273-8.693h.755v6.844a3.277 3.277 0 013.161-2.189 2.93 2.93 0 012.335.934c.565.697.842 1.584.772 2.479v4.508h-.754v-4.314c0-1.635-.79-2.892-2.55-2.892a3.092 3.092 0 00-2.171 1.009 3.073 3.073 0 00-.793 2.259v3.934h-.755v-12.572zm10.166.79a.887.887 0 01.827.54.888.888 0 01-.635 1.22.886.886 0 01-.917-.368.89.89 0 01.725-1.392zm-.377 4.041h.754v7.742h-.754v-7.742zm4.723 10.401c0 1.508-.736 2.28-1.76 2.28a2.653 2.653 0 01-1.221-.215v-.719c.31.18.665.267 1.023.252.737 0 1.204-.593 1.204-1.634v-10.365h.754v10.401zm-.358-14.442a.889.889 0 010 1.778.859.859 0 01-.625-.254.875.875 0 01-.256-.624.876.876 0 01.881-.9zm4.99 7.921l4.19 3.862h-1.06l-4.078-3.736v3.736h-.754v-12.573h.754v8.585l4.078-3.752h1.06l-4.19 3.878zm5.821-8.711h.754v12.573h-.754v-12.573zm14.255 12.573v-4.67c0-1.868-.938-2.533-2.084-2.533-1.616 0-2.442 1.564-2.442 3.287v3.916h-.754v-4.364c0-2.282-1.006-2.839-2.102-2.839-1.581 0-2.443 1.564-2.443 3.287v3.916h-.754v-7.742h.754v2.032a2.69 2.69 0 012.587-2.209 2.386 2.386 0 011.759.579 2.369 2.369 0 01.809 1.666 2.823 2.823 0 012.712-2.245c1.509 0 2.713.826 2.713 3.054v4.868l-.755-.003zm3.538-7.742h.754v2.013a3.286 3.286 0 013.161-2.189 2.93 2.93 0 012.335.934c.565.697.842 1.584.772 2.479v4.508h-.753v-4.314c0-1.635-.79-2.892-2.551-2.892a3.081 3.081 0 00-2.964 3.268v3.934h-.754v-7.741zm9.016 3.88a4.066 4.066 0 016.944-2.876 4.067 4.067 0 11-6.944 2.876zm7.364 0a3.296 3.296 0 10-6.591.002 3.296 3.296 0 006.591-.002zm3.679-1.904a3.517 3.517 0 013.361-2.155 3.936 3.936 0 012.869 1.162 3.917 3.917 0 011.136 2.879 3.929 3.929 0 01-4.005 4.059 3.513 3.513 0 01-3.361-2.155v6.807h-.754v-12.573h.754v1.976zm0 1.886a3.306 3.306 0 106.61 0 3.3 3.3 0 00-3.305-3.356 3.307 3.307 0 00-3.305 3.356zm16.146-3.862h.754v12.574h-.754v-6.805a3.52 3.52 0 01-3.361 2.155 3.942 3.942 0 01-4.006-4.059 3.93 3.93 0 012.453-3.751 3.935 3.935 0 011.553-.29 3.518 3.518 0 013.361 2.155v-1.979zm-6.61 3.862a3.304 3.304 0 005.642 2.337 3.304 3.304 0 00-2.337-5.642 3.308 3.308 0 00-3.305 3.305zm14.782-3.144a2.465 2.465 0 00-.773-.107c-2.065 0-2.963 1.904-2.963 3.628v3.503h-.754v-7.742h.754v2.138a3.117 3.117 0 012.963-2.267c.263-.01.526.033.773.126v.721zm6.701 4.973c0 1.419-1.078 2.227-2.947 2.227-1.777 0-3.268-.808-3.268-2.802h.754c0 1.563 1.132 2.138 2.533 2.138 1.419 0 2.189-.575 2.189-1.528 0-1.185-1.204-1.346-2.641-1.651-1.365-.27-2.586-.539-2.586-2.065 0-1.402 1.15-2.189 2.82-2.189 1.742 0 3.018.916 3.018 2.569h-.754c0-1.258-.917-1.905-2.246-1.905-1.258 0-2.102.557-2.102 1.545 0 1.059.97 1.24 2.462 1.545 1.4.287 2.768.539 2.768 2.116zm5.94 2.051c-.428.069-.86.105-1.293.107-1.078 0-2.245-.251-2.245-2.675v-4.491h-1.706v-.683h1.707v-3.161h.754v3.161h2.496v.683h-2.496v4.383c0 1.832.754 2.065 1.616 2.065a8.158 8.158 0 001.168-.09l-.001.701zm8.262-7.742v7.742h-.773v-2.013a3.256 3.256 0 01-3.161 2.189 2.91 2.91 0 01-2.316-.933 3.54 3.54 0 01-.791-2.48v-4.505h.772v4.312c0 1.651.79 2.91 2.55 2.91a3.104 3.104 0 002.162-1.027 3.09 3.09 0 00.784-2.261v-3.934h.773zm2.37 0l3.072 6.682 3.107-6.682h.826l-3.629 7.742h-.61l-3.596-7.742h.83zm13.2.88l-2.443 6.862h-.593l-2.982-7.742h.808l2.461 6.644 2.371-6.644h.772l2.353 6.644 2.462-6.644h.825l-2.978 7.742h-.61l-2.446-6.862zm13.145 6.862h-.898l-2.408-3.283-2.388 3.287h-.899l2.835-3.884-2.813-3.862h.897l2.371 3.27 2.389-3.27h.898l-2.837 3.862 2.853 3.88zm1.759 1.293h.755c.089 1.994.844 3.036 2.838 3.036 1.832 0 2.784-.86 2.784-3.306v-3.036a3.233 3.233 0 01-3.127 2.189 2.936 2.936 0 01-2.407-.88c-.538-.575-.736-1.365-.736-2.676v-4.362h.754v4.186c0 1.886.593 3.036 2.605 3.036 1.958 0 2.91-1.779 2.91-3.288v-3.934h.754V197c0 2.874-1.186 3.987-3.556 3.987-2.496.001-3.52-1.277-3.574-3.717zm15.467-9.035l-5.173 7.041h5.226v.704h-6.61l5.174-7.024h-4.94v-.721h6.323zm-218.001 25.726a3.96 3.96 0 011.15-2.897c.378-.38.829-.679 1.327-.878.497-.2 1.03-.297 1.565-.284a3.95 3.95 0 013.798 2.483c.2.501.295 1.037.279 1.576v4.939a3.946 3.946 0 01-4.077 4.042 3.939 3.939 0 01-2.887-1.155 3.948 3.948 0 01-1.155-2.887v-4.939zm7.329 0a3.206 3.206 0 00-3.287-3.323 3.19 3.19 0 00-1.269.24 3.19 3.19 0 00-1.77 1.809 3.185 3.185 0 00-.212 1.274v4.939a3.2 3.2 0 00.915 2.352 3.193 3.193 0 002.336.954 3.217 3.217 0 002.356-.944 3.207 3.207 0 00.931-2.362v-4.939zm2.279-1.744c2.138 0 2.497-.575 2.497-2.084h.754v12.575h-.808v-9.807h-2.443v-.684zm9.354 4.384c1.688-.61 3.035-1.257 3.035-3.25 0-1.527-1.06-2.658-2.999-2.658a3.013 3.013 0 00-2.975 1.952 3.017 3.017 0 00-.187 1.245h-.787a3.765 3.765 0 01.259-1.539 3.767 3.767 0 012.169-2.15 3.776 3.776 0 011.542-.244c2.389 0 3.771 1.4 3.771 3.448 0 2.371-1.777 3.233-3.448 3.826-2.605.97-3.413 2.084-3.413 4.742h6.969v.736h-7.831c0-3.916 1.15-5.119 3.895-6.108zm5.75 2.605c0 1.76 1.311 2.946 3.269 2.946 1.975 0 3.232-1.186 3.232-2.802 0-1.617-1.149-2.766-3.161-2.766h-1.006v-.737h1.006c1.869 0 2.946-1.059 2.946-2.568 0-1.564-1.185-2.587-3.017-2.587-1.923 0-3.036 1.095-3.036 2.713h-.79c0-2.048 1.509-3.449 3.79-3.449 2.28 0 3.844 1.348 3.844 3.323a2.83 2.83 0 01-2.443 2.928 3.057 3.057 0 012.658 3.143c0 2.102-1.654 3.538-4.042 3.538-2.353 0-4.041-1.454-4.041-3.682h.791zm14.225-1.077h-4.887v-7.994h.79v7.258h4.096v-4.078h.789v4.078h2.211v.736h-2.209v4.579h-.79v-4.579zm4.881-7.994h6.951v.737h-6.214v5.644a3.45 3.45 0 013.071-1.654 3.828 3.828 0 014.006 3.987 4.07 4.07 0 01-8.137 0h.792a3.274 3.274 0 002.011 3.05 3.277 3.277 0 004.29-4.29 3.28 3.28 0 00-3.05-2.011 2.9 2.9 0 00-2.838 1.76h-.882v-7.223zm9.263 8.712a4.217 4.217 0 01.647-2.267l4.005-6.448h.916l-3.322 5.263a2.648 2.648 0 011.797-.61 4.046 4.046 0 013.748 2.492 4.05 4.05 0 11-7.79 1.567l-.001.003zm7.329 0a3.273 3.273 0 00-3.922-3.167 3.27 3.27 0 00.635 6.472 3.216 3.216 0 002.356-.944 3.208 3.208 0 00.931-2.361zm8.767-8.712l-6.052 12.573h-.844l5.711-11.836h-6.161v-.737h7.346zm.23 9.215a3.072 3.072 0 012.604-3.143 2.827 2.827 0 01-2.388-2.892c0-1.94 1.472-3.361 3.844-3.361 2.353 0 3.843 1.418 3.843 3.361a2.844 2.844 0 01-2.389 2.892 3.054 3.054 0 012.587 3.143c0 2.032-1.545 3.538-4.041 3.538-2.497 0-4.06-1.49-4.06-3.538zm7.311 0c0-1.581-1.203-2.766-3.251-2.766-2.066 0-3.27 1.167-3.27 2.766 0 1.634 1.258 2.802 3.27 2.802 1.993 0 3.251-1.186 3.251-2.802zm-.198-6.019c0-1.526-1.185-2.64-3.053-2.64-1.85 0-3.036 1.094-3.036 2.64 0 1.491 1.132 2.569 3.036 2.569 1.904 0 3.053-1.077 3.053-2.567v-.002zm10.58.666a4.18 4.18 0 01-.647 2.267l-4.006 6.448h-.916l3.323-5.266a2.43 2.43 0 01-1.724.61 4.048 4.048 0 01-4.063-4.787 4.045 4.045 0 015.507-3.015 4.051 4.051 0 012.526 3.743zm-7.329 0a3.268 3.268 0 002.035 2.992 3.271 3.271 0 003.546-.715 3.262 3.262 0 00.893-1.666 3.263 3.263 0 00-1.366-3.35 3.27 3.27 0 00-1.803-.566 3.216 3.216 0 00-3.303 3.305h-.002z"/></g><g clip-path="url(#clip3)"><path d="M548.638 192.567a2.197 2.197 0 01.106-.759 1.39 1.39 0 01.482-.568l.423-.327c.181-.128.332-.295.443-.487.096-.191.144-.402.138-.615a.941.941 0 00-.234-.672.803.803 0 00-.621-.25 1.038 1.038 0 00-.777.298 1.22 1.22 0 00-.289.883h-1.059a2.1 2.1 0 01.579-1.58 2.187 2.187 0 011.591-.561 1.885 1.885 0 011.397.508 1.827 1.827 0 01.506 1.336c.011.339-.072.674-.24.969a3.184 3.184 0 01-.717.788l-.331.269c-.128.093-.236.21-.317.346a.872.872 0 00-.078.393v.135h-1.002v-.106zm.496 2.324a.715.715 0 01-.547-.24.814.814 0 01-.227-.576.795.795 0 01.227-.572.742.742 0 01.547-.235.742.742 0 01.552.235.794.794 0 01.227.572.79.79 0 01-.227.576.745.745 0 01-.552.24z" fill="#fff"/><path d="M548.958 197.648a6.309 6.309 0 100-12.618 6.31 6.31 0 100 12.618zm19.894 0a6.309 6.309 0 10-6.309-6.309 6.309 6.309 0 006.309 6.309z" stroke="#fff" stroke-width="1.023"/><path d="M568.555 187.369h1.3v5.367h-1.3v-5.367zm.632 7.94a.984.984 0 01-.711-.279.89.89 0 01-.292-.669.874.874 0 01.292-.662c.192-.181.447-.28.711-.274.265-.005.522.093.716.274a.872.872 0 01.299.662.873.873 0 01-.299.669 1.01 1.01 0 01-.716.279z" fill="#fff"/><path d="M588.178 197.648a6.309 6.309 0 10-6.309-6.309 6.309 6.309 0 006.309 6.309z" stroke="#fff" stroke-width="1.023"/><path d="M587.656 191.864h-2.729a.527.527 0 11-.037-1.053h2.766v-2.744a.505.505 0 01.035-.207.515.515 0 01.492-.338.527.527 0 01.527.545v2.745h2.745a.525.525 0 01.503.733.53.53 0 01-.503.321h-2.745v2.766a.53.53 0 01-.339.49.524.524 0 01-.411-.015.532.532 0 01-.276-.305.522.522 0 01-.028-.208v-2.73z" fill="#fff"/><path d="M588.704 191.864v2.729a.524.524 0 01-.892.415.53.53 0 01-.162-.378c0-.067-.003-1.032 0-2.766h-2.744a.525.525 0 01-.503-.733.53.53 0 01.503-.321h2.745v-2.745a.525.525 0 01.733-.503.527.527 0 01.321.503v2.75h2.766a.53.53 0 01.49.339.521.521 0 01-.015.411.514.514 0 01-.305.275.52.52 0 01-.207.028c-.046-.004-1.113-.004-2.73-.004zm19.894-.164l1.493-1.819.491-.599.187-.227a.522.522 0 01.76-.061.585.585 0 01.057.796l-.186.227-.491.599-1.49 1.819a1044.927 1044.927 0 00-2.154 2.633.53.53 0 01-.402.212.514.514 0 01-.417-.181l-2.582-2.939a.585.585 0 01.032-.796.511.511 0 01.389-.148.522.522 0 01.373.182l2.169 2.468c.365-.449.962-1.18 1.771-2.166z" fill="#fff"/><path d="M607.505 197.648a6.309 6.309 0 100-12.618 6.31 6.31 0 100 12.618zm19.455.263a6.44 6.44 0 100-12.881 6.44 6.44 0 000 12.881z" stroke="#fff" stroke-width="1.023"/><path d="M627.053 188.611a1.417 1.417 0 00-1.359 1.009 1.415 1.415 0 00.57 1.593 1.418 1.418 0 001.691-.082 1.42 1.42 0 00-.112-2.281 1.424 1.424 0 00-.79-.239v0zm.047 7.56a4.55 4.55 0 003.459-1.603 4.808 4.808 0 00-6.809.121 4.54 4.54 0 003.35 1.482v0z" stroke="#fff" stroke-width="1.023"/><path d="M576.906 212.927h-.008v-3.098a.686.686 0 00-.689-.689h-.47v-1.462a.689.689 0 00-.204-.491.699.699 0 00-.491-.203h-11.31a1.57 1.57 0 00-1.569 1.525h-.009v9.068a2.026 2.026 0 002.023 2.021h12.03a.688.688 0 00.689-.691v-2.615h.005l.003-3.365zm-13.172-4.945h11.01v1.153h-11.01a.575.575 0 01-.407-.984.575.575 0 01.407-.169zm12.159 10.608H564.18a1.016 1.016 0 01-1.014-1.013v-7.542c.18.074.373.112.568.114h12.161v2.779h-1.958a1.675 1.675 0 00-1.218.477 1.678 1.678 0 00-.509 1.206 1.673 1.673 0 00.509 1.205 1.675 1.675 0 001.218.477h1.956v2.297zm-.029-4.622v1.282h-1.927a.643.643 0 01-.622-.641.639.639 0 01.622-.641h1.927zm-20.383 5.242l-2.729-2.821c-.011-.012-.026-.017-.037-.027a5.9 5.9 0 10-.72.703c.009.01.012.024.022.034l2.728 2.821a.504.504 0 00.563.134.507.507 0 00.287-.278.52.52 0 00-.114-.566zm-7.246-1.824a4.926 4.926 0 01-4.553-3.043 4.932 4.932 0 011.068-5.371 4.927 4.927 0 017.584.747 4.936 4.936 0 01.455 4.625 4.93 4.93 0 01-4.554 3.042zm47.341-9.807h-1.921v-.915a.503.503 0 00-.15-.361.5.5 0 00-.362-.15.511.511 0 00-.511.511v.915h-4.491v-.915a.511.511 0 00-1.023 0v.915h-1.803a1.365 1.365 0 00-.969.402 1.374 1.374 0 00-.401.969v9.822a1.364 1.364 0 00.846 1.266c.166.069.344.104.524.104h10.261a1.364 1.364 0 001.266-.846c.069-.166.104-.344.104-.524v-9.822a1.373 1.373 0 00-.846-1.266 1.365 1.365 0 00-.524-.105zm-10.261 1.024h10.261a.346.346 0 01.347.347v1.521h-10.955v-1.521a.346.346 0 01.347-.347zm10.261 10.519h-10.261a.347.347 0 01-.347-.347v-7.28h10.955v7.28a.347.347 0 01-.347.347z" fill="#fff"/><path d="M586.822 212.799h1.547c.059 0 .118.012.173.034a.463.463 0 01.243.244.45.45 0 01.035.173v1.547a.45.45 0 01-.278.416.45.45 0 01-.173.035h-1.547a.45.45 0 01-.319-.132.463.463 0 01-.098-.146.468.468 0 01-.034-.173v-1.547a.454.454 0 01.451-.451zm5.301 0h-1.547a.451.451 0 00-.451.451v1.547c0 .249.202.451.451.451h1.547a.451.451 0 00.451-.451v-1.547a.451.451 0 00-.451-.451zm27.414.657c-.114-.198-2.823-4.863-7.872-4.863h-.17c-5.048 0-7.759 4.665-7.872 4.863l-.068.118v.295l.068.117c.114.198 2.823 4.863 7.872 4.863h.17c5.048 0 7.759-4.665 7.872-4.863l.068-.142v-.272l-.068-.116zm-7.872 4.369h-.17c-3.828 0-6.224-3.191-6.831-4.105.607-.912 3.001-4.104 6.831-4.104h.17c3.83 0 6.225 3.193 6.831 4.106-.604.914-2.99 4.103-6.831 4.103z" fill="#fff"/><path d="M611.391 210.807a2.972 2.972 0 10-.002 5.943 2.972 2.972 0 00.002-5.943zm0 4.923a1.954 1.954 0 01-1.802-1.203 1.95 1.95 0 111.802 1.203zm30.882-2.653a.623.623 0 00.068-.277.52.52 0 00-.068-.253c-.114-.199-2.824-4.864-7.872-4.864h-.171a7.989 7.989 0 00-3.585.856l-2.473-2.475a.524.524 0 00-.362-.15.504.504 0 00-.363.15.527.527 0 00-.111.558.52.52 0 00.111.166l2.274 2.274a11.243 11.243 0 00-3.364 3.484.51.51 0 00-.068.253v.023a.51.51 0 00.068.253c.114.199 2.823 4.863 7.872 4.863h.171a7.96 7.96 0 003.425-.774l2.414 2.415a.515.515 0 00.724.001.515.515 0 00.001-.724l-2.205-2.204a11.253 11.253 0 003.514-3.575zm-7.872 3.839h-.171c-3.829 0-6.223-3.191-6.83-4.105a10.464 10.464 0 013.073-3.001l1.283 1.282a2.92 2.92 0 00-.605 1.774 2.974 2.974 0 002.973 2.973 2.915 2.915 0 001.773-.604l1.145 1.145a6.882 6.882 0 01-2.641.536zm.771-2.405a1.911 1.911 0 01-1.047.31 1.955 1.955 0 01-1.95-1.95 1.909 1.909 0 01.31-1.047l2.687 2.687zm2.838 1.392l-6.587-6.589a6.883 6.883 0 012.808-.609h.17c3.83 0 6.225 3.193 6.83 4.106a10.335 10.335 0 01-3.221 3.092z" fill="#fff"/><path d="M674.012 211.588l-4.464 3.41-4.63-3.41m-15.695 1.386l4.145-3.803 4.298 3.803" stroke="#fff" stroke-width="1.228" stroke-linecap="round" stroke-linejoin="round"/><path d="M653.441 217.45v-7.368" stroke="#fff" stroke-width="1.228" stroke-linecap="round"/><path d="M689.131 213.612l-4.145 3.803-4.298-3.803" stroke="#fff" stroke-width="1.228" stroke-linecap="round" stroke-linejoin="round"/><path d="M684.91 209.136v7.369" stroke="#fff" stroke-width="1.228" stroke-linecap="round"/></g><g clip-path="url(#clip4)"><path d="M34.755 218.395c12.769 0 23.12-10.35 23.12-23.118 0-12.769-10.351-23.119-23.12-23.119-12.768 0-23.118 10.35-23.118 23.119 0 12.768 10.35 23.118 23.118 23.118z" fill="#FEF200"/><path d="M90.9 218.395c12.768 0 23.119-10.35 23.119-23.118 0-12.769-10.351-23.119-23.119-23.119-12.768 0-23.119 10.35-23.119 23.119 0 12.768 10.35 23.118 23.119 23.118z" fill="#222"/><path d="M166.628 209.903c6.905 0 12.503-5.598 12.503-12.503 0-6.906-5.598-12.503-12.503-12.503s-12.503 5.597-12.503 12.503c0 6.905 5.598 12.503 12.503 12.503z" fill="#F8F8F8" stroke="#CCC" stroke-width=".361"/><path d="M135.96 209.903c6.905 0 12.503-5.598 12.503-12.503 0-6.906-5.598-12.503-12.503-12.503s-12.503 5.597-12.503 12.503c0 6.905 5.598 12.503 12.503 12.503z" fill="#CCC"/></g><path d="M414.5 441.415H313.797v-64.603H414.5v64.603z" fill="#fff" stroke="#343434" stroke-width=".912" stroke-linecap="round" stroke-linejoin="round"/><path d="M414.112 383.509h-99.928" stroke="#343434" stroke-width=".608" stroke-linecap="round" stroke-linejoin="round"/><path d="M321.441 381.753a1.385 1.385 0 100-2.77 1.385 1.385 0 000 2.77zm4.058 0a1.386 1.386 0 100-2.772 1.386 1.386 0 000 2.772zm-8.125 0a1.386 1.386 0 100-2.772 1.386 1.386 0 000 2.772z" fill="#fff" stroke="#343434" stroke-width=".608" stroke-linecap="round" stroke-linejoin="round"/><path d="M347.501 388.03h-23.388v1.473h23.388v-1.473zm-8.832 4.063h-14.556v1.474h14.556v-1.474z" fill="#343434"/><path d="M413.446 385.575a2.758 2.758 0 100-5.517 2.758 2.758 0 000 5.517z" fill="#fff" stroke="#343434" stroke-width=".912" stroke-linecap="round" stroke-linejoin="round"/><path d="M376.269 339.755v25.098h-9.244l-8.341 8.351.065-8.351h-20.253v-37.772h6.411" fill="#fff"/><path d="M376.269 339.755v25.098h-9.244l-8.341 8.351.065-8.351h-20.253v-37.772h6.411" stroke="#343434" stroke-width="1.376" stroke-linecap="round" stroke-linejoin="round"/><path d="M378.815 315.357l-22.025-5.627a1.561 1.561 0 00-1.899 1.127l-9.586 37.52a1.563 1.563 0 001.127 1.9l22.025 5.626a1.56 1.56 0 001.899-1.126l9.586-37.521a1.561 1.561 0 00-1.127-1.899z" fill="#343434"/><path d="M376.604 314.805l-22.024-5.627a1.561 1.561 0 00-1.9 1.126l-9.586 37.521a1.561 1.561 0 001.127 1.899l22.025 5.627a1.562 1.562 0 001.9-1.126l9.585-37.521a1.561 1.561 0 00-1.127-1.899z" fill="#fff" stroke="#343434" stroke-width="1.032" stroke-linecap="round" stroke-linejoin="round"/><path d="M366.875 353.093l9.199-36.006a1.186 1.186 0 00-.856-1.442l-19.821-5.064a1.186 1.186 0 00-1.442.856l-9.199 36.005a1.186 1.186 0 00.856 1.443l19.821 5.063c.634.162 1.28-.22 1.442-.855z" fill="#fff" stroke="#343434" stroke-width=".688" stroke-linecap="round" stroke-linejoin="round"/><path d="M356.778 348.932a2.434 2.434 0 100-4.867 2.434 2.434 0 000 4.867z" fill="#fff" stroke="#343434" stroke-width=".688" stroke-linecap="round" stroke-linejoin="round"/><path d="M355.951 329.595a.532.532 0 01.44.709c-.103.399-.39.494-.8.391l-3.324-.86a.669.669 0 01-.468-.297.7.7 0 01-.103-.264.693.693 0 01.014-.283c.163-.625.902-1.185 2.189-1.598 1.434-.461 1.901-.511 2.086-1.229a.91.91 0 00-.699-1.136 1.109 1.109 0 00-1.387.644c-.173.305-.332.444-.687.351a.566.566 0 01-.432-.26.572.572 0 01-.061-.501c.28-1.082 1.557-1.63 2.86-1.293 1.419.367 2.02 1.516 1.809 2.331-.306 1.18-.965 1.5-2.042 1.789-1.149.308-1.855.513-2.058.82l2.663.686zm3.954.702l-2.227-.58a.626.626 0 01-.243-.096.638.638 0 01-.272-.69.8.8 0 01.303-.479l3.637-2.794a.681.681 0 01.64-.1.6.6 0 01.537.541.593.593 0 01-.037.27l-.837 3.235.443.115a.523.523 0 11-.263 1.015l-.443-.115-.235.913a.64.64 0 11-1.241-.322l.238-.913zm.856-3.307l-.018-.004-2.305 1.853 1.728.447.595-2.296zm5.044-.237a.494.494 0 01.606-.23.501.501 0 01.319.564.936.936 0 01-.147.275l-3.563 5.026a.498.498 0 01-.925-.334.899.899 0 01.148-.274l3.562-5.027zm5.294 1.353a.565.565 0 01.446.796c-.183.709-1.712.588-3.652 4.352-.25.493-.421.638-.837.53a.594.594 0 01-.469-.841 9.644 9.644 0 013.472-3.916l-2.863-.741a.522.522 0 01-.38-.25.535.535 0 01-.043-.453.536.536 0 01.495-.447c.08-.005.16.009.235.04l3.596.93z" fill="#343434"/><path d="M307.602 409.216v9.604l-36.512.327v-30.912" fill="#fff"/><path d="M307.602 409.216v9.604l-36.512.327v-30.912" stroke="#343434" stroke-width="1.376" stroke-linecap="round" stroke-linejoin="round"/><path d="M278.906 367.28h28.696v16.744l8.44-.544-8.44 11.455v2.136" fill="#fff"/><path d="M278.906 367.28h28.696v16.744l8.44-.544-8.44 11.455v2.136" stroke="#343434" stroke-width="1.376" stroke-linecap="round" stroke-linejoin="round"/><path d="M286.875 390.189l2.137-3.023 24.897 17.595 3.966.802 1.957 3.383-2.136 3.024-3.869-.868-2.321-3.507-24.631-17.406zm-1.659 2.337l5.402-7.649a2.232 2.232 0 10-3.647-2.576l-5.402 7.65a2.231 2.231 0 103.647 2.575z" fill="#fff" stroke="#343434" stroke-width="1.032" stroke-linecap="round" stroke-linejoin="round"/><path d="M262.428 370.642a4.845 4.845 0 016.753-1.16l15.072 10.651 1.117 4.455-2.137 3.024-4.306.625-15.338-10.84a4.842 4.842 0 01-1.161-6.755z" fill="#343434" stroke="#343434" stroke-width="1.032" stroke-linecap="round" stroke-linejoin="round"/><path d="M281.525 381.539l-13.205-9.331m10.755 12.799l-13.204-9.332" stroke="#fff" stroke-width=".688" stroke-linecap="round" stroke-linejoin="round"/><path d="M410.688 407.581v32.907" stroke="#343434" stroke-width=".608" stroke-linecap="round" stroke-linejoin="round"/><path d="M324.52 433.561l8.278-7.542 4.93 4.492 10.792-9.833 3.556 3.239 11.237-12.369 6.589 8.121 3.449-6.013 8.699 9.517 11.104-18.878v29.467l-68.634-.201z" fill="#FFF100"/><path d="M324.52 433.561l8.278-7.542 4.93 4.492 10.792-9.833 3.556 3.239 11.237-12.369 6.589 8.121 3.449-6.013 8.699 9.517 10.499-18.658" stroke="#343434" stroke-width="1.28" stroke-linecap="round" stroke-linejoin="round"/><path d="M324.52 398.033v36.048h68.491" stroke="#343434" stroke-width="1.28" stroke-linecap="round" stroke-linejoin="round"/><path d="M414.888 407.581h-4.2v33.427h4.2v-33.427z" fill="#343434"/><path d="M450.994 393.972v15.121h-41.995v-5.778l-10.964-.185 10.964-8.888v-61.661h41.995v9.081" fill="#fff"/><path d="M450.994 393.972v15.121h-41.995v-5.778l-10.964-.185 10.964-8.888v-61.661h41.995v9.081" stroke="#343434" stroke-width="1.376" stroke-linecap="round" stroke-linejoin="round"/><path d="M455.186 377.732a3.932 3.932 0 10-.002-7.864 3.932 3.932 0 00.002 7.864z" fill="#343434"/><path d="M455.188 368.799v8.244a16.93 16.93 0 11-33.859 0v-8.244a16.912 16.912 0 011.255-6.514 16.934 16.934 0 0131.349 0 16.93 16.93 0 011.255 6.514z" fill="#fff" stroke="#343434" stroke-width="1.032" stroke-linecap="round" stroke-linejoin="round"/><path d="M438.147 358.12l8.012 15.423a1.037 1.037 0 01-.411 1.376 1.033 1.033 0 01-.506.132H439.2a1.036 1.036 0 00-1.033 1.053l.09 4.575h7.599s.482 5.608-7.599 5.608c-8.08 0-8.081-5.717-8.081-5.717l8.081.109" fill="#fff"/><path d="M438.147 358.12l8.012 15.423a1.037 1.037 0 01-.411 1.376 1.033 1.033 0 01-.506.132H439.2a1.036 1.036 0 00-1.033 1.053l.09 4.575h7.599s.482 5.608-7.599 5.608c-8.08 0-8.081-5.717-8.081-5.717l8.081.109" stroke="#343434" stroke-width="1.032" stroke-linecap="round" stroke-linejoin="round"/><path d="M433.734 369.088a1.086 1.086 0 100-2.173 1.086 1.086 0 000 2.173zm13.207 0a1.086 1.086 0 100-2.173 1.086 1.086 0 000 2.173z" fill="#343434"/><path d="M421.324 371.884c0-10.884-5.841-28.255 16.932-26.825 12.258.769 17.785-1.439 17.785-1.439s12.723 16.28-22.309 10.124c-6.213-1.094-12.63 7.256-12.411 18.14" fill="#FFF100"/><path d="M421.324 371.884c0-10.884-5.841-28.255 16.932-26.825 12.258.769 17.785-1.439 17.785-1.439s12.723 16.28-22.309 10.124c-6.213-1.094-12.63 7.256-12.411 18.14" stroke="#343434" stroke-width="1.032" stroke-linecap="round" stroke-linejoin="round"/><path d="M455.185 368.799a16.908 16.908 0 00-6.759-13.539s12.975-4.747 6.759 13.539z" fill="#343434"/><path d="M426.842 401.453a6.588 6.588 0 10-.001-13.175 6.588 6.588 0 00.001 13.175z" fill="#fff" stroke="#343434" stroke-width="1.032" stroke-linecap="round" stroke-linejoin="round"/><path d="M426.843 390.537l1.299 2.633 2.906.423-2.103 2.049.497 2.894-2.599-1.366-2.6 1.366.496-2.894-2.102-2.049 2.906-.423 1.3-2.633z" fill="#fff" stroke="#343434" stroke-width=".452" stroke-linecap="round" stroke-linejoin="round"/><path d="M296.457 446.303h149.12m-164.909 0h10.115" stroke="#fff" stroke-width="2.59" stroke-linecap="round" stroke-linejoin="round"/><g clip-path="url(#clip5)"><path d="M134.254 375.273l42.846.136v-10.8h9.363v18.006h-44.191" fill="#fff"/><path d="M134.254 375.273l42.846.136v-10.8h9.363v18.006h-44.191" stroke="#343434" stroke-width="1.58" stroke-linecap="round" stroke-linejoin="round"/><path d="M128.055 375.254l3.331.01" stroke="#343434" stroke-width="1.11" stroke-linecap="round" stroke-linejoin="round"/><path d="M140.855 380.775h42.589" stroke="#343434" stroke-width=".74" stroke-linecap="round" stroke-linejoin="round"/><path d="M93.102 372.331v-20.416h9.478v31.21" fill="#fff"/><path d="M93.102 372.331v-20.416h9.478v31.21" stroke="#343434" stroke-width="1.48" stroke-linecap="round" stroke-linejoin="round"/><path d="M215.867 442.591a20.247 20.247 0 001.498-23.83 20.238 20.238 0 00-9.705-7.969 20.235 20.235 0 00-12.537-.713l-.925.241c0-.085-.008-.318-.012-.403a24.324 24.324 0 00-47.502-5.955l-1.016 3.608m-46.063-12.481a19.282 19.282 0 00-32.627-7.283 19.285 19.285 0 00-5.048 12.207 12.767 12.767 0 00-16.005 7.024 22.265 22.265 0 00-22.785 12.521l-.119.253a19.372 19.372 0 00-1.887 6.712c-.052.86-.151 1.723-.151 2.604 0 1.408.132 2.814.396 4.197a9.345 9.345 0 00-8.567 7.157" stroke="#fff" stroke-width="1.58" stroke-linecap="round" stroke-linejoin="round"/><path d="M168.932 372.382H63.731v32.327h105.201v-32.327z" fill="#fff" stroke="#343434" stroke-width="1.396" stroke-linecap="round" stroke-linejoin="round"/><path d="M157.469 372.382v32.328" stroke="#343434" stroke-width="1.48" stroke-linecap="round" stroke-linejoin="round"/><path d="M169.12 409.152H63.918v32.327H169.12v-32.327z" fill="#fff" stroke="#343434" stroke-width="1.396" stroke-linecap="round" stroke-linejoin="round"/><path d="M157.68 409.152v32.327" stroke="#343434" stroke-width="1.48" stroke-linecap="round" stroke-linejoin="round"/><path d="M140.894 392.369a3.824 3.824 0 100-7.647 3.824 3.824 0 000 7.647zm0 36.77a3.824 3.824 0 100-7.648 3.824 3.824 0 000 7.648z" fill="#FFF100" stroke="#343434" stroke-width="1.11" stroke-linecap="round" stroke-linejoin="round"/><path d="M129.512 384.722l-2.344 7.648m-2.808-7.648l-2.344 7.648m-2.809-7.648l-2.344 7.648m-2.804-7.648l-2.344 7.648m-2.812-7.648l-2.344 7.648m-2.805-7.648l-2.344 7.648m-2.808-7.648l-2.344 7.648m-2.808-7.648l-2.344 7.648m-2.81-7.648l-2.343 7.648m-2.805-7.648l-2.343 7.648m48.707 29.465l-2.344 7.648m-2.808-7.648l-2.344 7.648m-2.809-7.648l-2.344 7.648m-2.804-7.648l-2.344 7.648m-2.812-7.648l-2.344 7.648m-2.805-7.648l-2.344 7.648m-2.808-7.648l-2.344 7.648m-2.808-7.648l-2.344 7.648m-2.81-7.648l-2.343 7.648m-2.805-7.648l-2.343 7.648" stroke="#343434" stroke-width="1.11" stroke-linecap="round" stroke-linejoin="round"/><path d="M69.141 369.667a5.335 5.335 0 00-8.645-2.854l-17.303 14.66-2.412-2.846 17.303-14.661a9.076 9.076 0 018.569-1.733 9.067 9.067 0 016.053 6.308" fill="#fff"/><path d="M69.141 369.667a5.335 5.335 0 00-8.645-2.854l-17.303 14.66-2.412-2.846 17.303-14.661a9.076 9.076 0 018.569-1.733 9.067 9.067 0 016.053 6.308" stroke="#343434" stroke-width="1.11" stroke-linecap="round" stroke-linejoin="round"/><path d="M68.84 375.912c1.708 1.917-1.28 3.792-1.28 3.792l-15.055 12.758-2.411-2.846 15.042-12.746s2.436-2.319 3.703-.956" fill="#fff"/><path d="M68.84 375.912c1.708 1.917-1.28 3.792-1.28 3.792l-15.055 12.758-2.411-2.846 15.042-12.746s2.436-2.319 3.703-.956" stroke="#343434" stroke-width="1.11" stroke-linecap="round" stroke-linejoin="round"/><path d="M65.057 385.827l-15.67-18.494-18.494 15.671 15.67 18.494 18.494-15.671z" fill="#FFF100" stroke="#343434" stroke-width="1.48" stroke-linecap="round" stroke-linejoin="round"/><path d="M55.688 385.751a7.818 7.818 0 00-6.36-9.044 7.817 7.817 0 00-9.044 6.359 7.817 7.817 0 006.36 9.044 7.817 7.817 0 009.044-6.359z" fill="#fff" stroke="#343434" stroke-width="1.11" stroke-linecap="round" stroke-linejoin="round"/><path d="M50.444 384.89a1.95 1.95 0 01-1.669.419l-2.696 2.285-1.474-1.74 2.635-2.232a1.956 1.956 0 012.66-2.04 1.951 1.951 0 011.209 1.5 1.95 1.95 0 01-.665 1.808h0z" fill="#343434" stroke="#343434" stroke-width=".74" stroke-linecap="round" stroke-linejoin="round"/><path d="M110.848 311.512H75.769v47.589h35.079v-47.589z" fill="#fff" stroke="#343434" stroke-width="1.431" stroke-linecap="round" stroke-linejoin="round"/><path d="M107.914 359.105v-47.59" stroke="#343434" stroke-width=".74" stroke-linecap="round" stroke-linejoin="round"/><path d="M105.173 313.894H78.25v35.25h26.923v-35.25z" fill="#fff" stroke="#343434" stroke-width=".74" stroke-linecap="round" stroke-linejoin="round"/><path d="M100.547 360.986v10.763" stroke="#343434" stroke-width=".74" stroke-linecap="round" stroke-linejoin="round"/><path d="M91.71 351.915H77.88v2.594h13.83v-2.594z" fill="#fff" stroke="#343434" stroke-width=".74" stroke-linecap="round" stroke-linejoin="round"/><path d="M89.121 321.341v20.309" stroke="#343434" stroke-width=".37" stroke-linecap="round" stroke-linejoin="round"/><path d="M169.12 372.382h-11.718v32.327h11.718v-32.327zm0 36.715h-11.718v32.327h11.718v-32.327zm-58.271-97.582h-2.919v47.59h2.919v-47.59z" fill="#343434"/><path d="M102.182 323.777c-5.002-.41-7.68-2.596-8.78-4.011a1.557 1.557 0 00-1.256-.586 1.56 1.56 0 00-1.222.652c-1.1 1.415-3.56 3.535-8.56 3.945a1.008 1.008 0 00-.93 1.031 28.017 28.017 0 009.632 20.292 1.866 1.866 0 002.414 0 28.015 28.015 0 009.632-20.294 1.008 1.008 0 00-.93-1.029z" fill="#fff" stroke="#343434" stroke-width=".74" stroke-linecap="round" stroke-linejoin="round"/><path d="M91.61 343.318a25.566 25.566 0 01-8.481-17.869c4.672-.449 7.198-2.39 8.48-3.898 1.283 1.508 3.81 3.449 8.481 3.898a25.554 25.554 0 01-8.48 17.869z" fill="#FFF100" stroke="#343434" stroke-width=".351" stroke-linecap="round" stroke-linejoin="round"/><path d="M206.896 338.054h-72.74v25.919h72.74v-25.919z" fill="#fff" stroke="#343434" stroke-width="1.438" stroke-linecap="round" stroke-linejoin="round"/><path d="M201.938 338.054v25.919" stroke="#343434" stroke-width=".74" stroke-linecap="round" stroke-linejoin="round"/><path d="M206.897 338.054h-5.581v25.919h5.581v-25.919z" fill="#343434"/><path d="M190.962 344.876H140.02v12.028h50.942v-12.028z" fill="#fff" stroke="#343434" stroke-width="1.11" stroke-linecap="round" stroke-linejoin="round"/><path d="M147.628 349.276l.673 1.204-1.269.434 1.269.413-.727 1.257-1.009-.943.282 1.344h-1.388l.282-1.344-.997.954-.74-1.279 1.268-.434-1.257-.391.672-1.215 1.063.923-.304-1.356h1.407l-.293 1.356 1.068-.923zm31.712 0l.672 1.204-1.268.434 1.268.412-.726 1.258-1.008-.943.282 1.344h-1.388l.281-1.344-.997.954-.737-1.279 1.268-.434-1.257-.391.672-1.215 1.062.923-.303-1.356h1.407l-.293 1.356 1.065-.923zm-5.284 0l.672 1.204-1.269.434 1.269.412-.726 1.258-1.009-.943.282 1.344h-1.388l.282-1.344-.998.954-.737-1.279 1.268-.434-1.257-.391.672-1.215 1.063.923-.304-1.356h1.407l-.293 1.356 1.066-.923zm-5.285 0l.673 1.204-1.27.434 1.27.412-.727 1.258-1.009-.943.282 1.344h-1.388l.282-1.344-.995.954-.737-1.279 1.269-.434-1.258-.391.672-1.215 1.063.923-.304-1.356h1.407l-.292 1.356 1.062-.923zm-5.29 0l.673 1.204-1.269.434 1.269.413-.726 1.257-1.009-.943.282 1.344h-1.389l.283-1.344-.998.954-.738-1.279 1.27-.434-1.259-.391.673-1.215 1.063.923-.304-1.356h1.407l-.292 1.356 1.064-.923zm-5.283 0l.672 1.204-1.269.434 1.269.413-.726 1.257-1.011-.943.282 1.344h-1.388l.282-1.344-.998.954-.737-1.279 1.269-.434-1.258-.391.672-1.215 1.063.923-.304-1.356h1.407l-.29 1.353 1.065-.92zm-5.288 0l.673 1.204-1.269.434 1.269.412-.727 1.258-1.008-.943.282 1.344h-1.388l.282-1.344-.998.954-.737-1.279 1.269-.434-1.259-.391.673-1.215 1.062.92-.303-1.355h1.407l-.291 1.355 1.063-.92z" fill="#343434"/><path d="M48.547 446.303h149.12m-164.909 0h10.115" stroke="#fff" stroke-width="2.59" stroke-linecap="round" stroke-linejoin="round"/></g><path d="M555.195 446.585h158.003m-174.731 0h10.717" stroke="#fff" stroke-width="2.745" stroke-linecap="round" stroke-linejoin="round"/><path d="M705.604 422.107h-49.029a.523.523 0 01-.367-.152.522.522 0 01-.151-.367v-59.805a.677.677 0 01.677-.678h48.873a.519.519 0 01.518.519v59.961a.524.524 0 01-.321.483.524.524 0 01-.2.039zm-48.516-1.04h47.994v-58.921h-47.994v58.921z" fill="#343434"/><path d="M688.2 363.129h-30.335v55.017H688.2v-55.017z" fill="#fff"/><path d="M688.203 418.405h-30.334a.26.26 0 01-.26-.259v-55.017c0-.069.028-.135.076-.184a.264.264 0 01.184-.076h30.334a.26.26 0 01.259.26v55.017a.259.259 0 01-.259.259zm-30.075-.519h29.815v-54.498h-29.815v54.498z" fill="#231F20"/><path d="M681.224 391.606a8.832 8.832 0 01-9.33 5.509 8.84 8.84 0 01-7.652-7.67 8.84 8.84 0 015.531-9.317 8.838 8.838 0 0110.398 3.046" fill="#fff"/><path d="M673.012 397.57a9.222 9.222 0 117.476-14.623.389.389 0 11-.629.455 8.449 8.449 0 10-12.829 10.913 8.445 8.445 0 0010.276 1.309 8.444 8.444 0 003.558-4.16.39.39 0 01.357-.258.377.377 0 01.283.112.402.402 0 01.087.129.395.395 0 01-.004.304 9.178 9.178 0 01-8.575 5.819z" fill="#231F20"/><path d="M678.015 392.682a8.877 8.877 0 01-2.464 2.781z" fill="#fff"/><path d="M675.554 395.722a.26.26 0 01-.154-.468 8.651 8.651 0 002.391-2.699.26.26 0 01.354-.099.262.262 0 01.099.354 9.214 9.214 0 01-2.536 2.862.251.251 0 01-.154.05z" fill="#231F20"/><path d="M678.055 384.083a8.782 8.782 0 011.095 4.264 8.895 8.895 0 01-.135 1.554" fill="#fff"/><path d="M679.018 390.16a.177.177 0 01-.046 0 .27.27 0 01-.094-.036.26.26 0 01-.115-.264 8.615 8.615 0 00-.932-5.647.27.27 0 01-.032-.204.26.26 0 01.486-.045 9.132 9.132 0 01.988 5.989.257.257 0 01-.091.149.257.257 0 01-.164.058zm-6.466-10.202h-2.117a.26.26 0 01-.259-.26v-5.083c0-.069.027-.135.076-.183a.256.256 0 01.183-.076h2.117c.069 0 .135.027.183.076a.256.256 0 01.076.183v5.083a.26.26 0 01-.259.26zm-1.858-.519h1.599v-4.564h-1.599v4.564z" fill="#231F20"/><path d="M673.413 375.777h-3.759l-.671-9.84a1.747 1.747 0 011.746-1.87h1.537a1.743 1.743 0 011.275.551 1.757 1.757 0 01.472 1.307l-.6 9.852z" fill="#fff"/><path d="M673.411 376.166h-3.759a.39.39 0 01-.389-.362l-.668-9.84a2.144 2.144 0 01.571-1.607 2.144 2.144 0 011.564-.679h1.536a2.137 2.137 0 012.136 2.27l-.6 9.855a.387.387 0 01-.391.363zm-3.396-.778h3.03l.579-9.487a1.357 1.357 0 00-1.359-1.446h-1.537a1.367 1.367 0 00-1.283.906 1.353 1.353 0 00-.076.55l.646 9.477z" fill="#231F20"/><path d="M660.454 397.158l1.497 1.498 3.595-3.595-1.498-1.497-3.594 3.594z" fill="#fff"/><path d="M661.952 398.917a.253.253 0 01-.183-.075l-1.498-1.497a.263.263 0 01-.056-.283.253.253 0 01.056-.084l3.595-3.595a.263.263 0 01.367 0l1.496 1.498a.255.255 0 01.057.283.266.266 0 01-.057.084l-3.594 3.594a.263.263 0 01-.183.075zm-1.131-1.756l1.131 1.13 3.23-3.23-1.131-1.13-3.23 3.23z" fill="#231F20"/><path d="M660.665 395.726l2.659 2.658-6.484 7.433a1.737 1.737 0 01-1.259.599 1.736 1.736 0 01-1.298-.512l-1.087-1.086a1.746 1.746 0 01-.347-1.981c.102-.216.246-.41.425-.568l7.391-6.543z" fill="#fff"/><path d="M655.522 406.806a2.146 2.146 0 01-1.514-.626l-1.086-1.087a2.134 2.134 0 01.095-3.115l7.391-6.543a.386.386 0 01.532.016l2.659 2.658a.389.389 0 01.018.531l-6.483 7.433a2.141 2.141 0 01-1.54.732l-.072.001zm5.128-10.546l-7.118 6.3a1.358 1.358 0 00-.365 1.526c.069.173.173.33.305.462l1.086 1.086a1.371 1.371 0 001.547.266c.168-.08.318-.194.441-.335l6.245-7.158-2.141-2.147z" fill="#231F20"/><path d="M680.628 398.651l1.497-1.498-3.595-3.594-1.497 1.497 3.595 3.595z" fill="#fff"/><path d="M680.631 398.91a.263.263 0 01-.183-.075l-3.595-3.595a.259.259 0 010-.367l1.497-1.497a.267.267 0 01.367 0l3.594 3.594a.26.26 0 010 .367l-1.497 1.498a.263.263 0 01-.183.075zm-3.23-3.854l3.23 3.23 1.13-1.13-3.23-3.23-1.13 1.13z" fill="#231F20"/><path d="M679.197 398.44l2.659-2.658 7.432 6.483a1.748 1.748 0 01.478 1.962 1.755 1.755 0 01-.39.596l-1.087 1.086a1.749 1.749 0 01-2.549-.077l-6.543-7.392z" fill="#fff"/><path d="M687.051 406.811h-.068a2.124 2.124 0 01-1.538-.721l-6.543-7.39a.394.394 0 01.017-.534l2.658-2.658a.388.388 0 01.53-.018l7.433 6.483a2.143 2.143 0 01.107 3.126l-1.087 1.086a2.105 2.105 0 01-1.509.626zm-7.322-8.354l6.3 7.117c.123.14.273.252.442.331a1.366 1.366 0 001.541-.271l1.087-1.086a1.362 1.362 0 00-.068-1.987l-7.159-6.244-2.143 2.14z" fill="#231F20"/><path d="M673.653 396.528a8.834 8.834 0 111.6-15.505" fill="#fff"/><path d="M670.313 397.57a9.229 9.229 0 01-7.411-3.737 9.228 9.228 0 01-1.406-8.18 9.22 9.22 0 019.979-6.456 9.225 9.225 0 013.993 1.5.388.388 0 01-.15.693.384.384 0 01-.286-.049 8.448 8.448 0 10-1.529 14.825.388.388 0 01.294.721 9.184 9.184 0 01-3.484.683z" fill="#231F20"/><path d="M705.085 361.235h-14.808v59.832h14.808v-59.832z" fill="#343434"/><path d="M633.432 352.783l8.017 23.641 21.881-7.42 4.743-1.706-10.895-32.259-18.169 6.161-8.472 2.903 2.895 8.68z" fill="#fff" stroke="#343434" stroke-width="1.493" stroke-linecap="round" stroke-linejoin="round"/><path d="M658.793 339.808l-.843 2.353a4.995 4.995 0 01-3.076 3.036l-16.392 5.631a4.985 4.985 0 01-4.276-.492l-1.894-1.19" fill="#fff"/><path d="M658.793 339.808l-.843 2.353a4.995 4.995 0 01-3.076 3.036l-16.392 5.631a4.985 4.985 0 01-4.276-.492l-1.894-1.19" stroke="#343434" stroke-width="1.493" stroke-linecap="round" stroke-linejoin="round"/><path d="M648.48 351.486a.9.9 0 10-1.077-1.442.9.9 0 001.077 1.442z" fill="#fff" stroke="#212221" stroke-width=".866" stroke-linecap="round" stroke-linejoin="round"/><path d="M646.743 345.792a1.918 1.918 0 10-2.294-3.075 1.918 1.918 0 002.294 3.075z" fill="#fff" stroke="#212221" stroke-width="1.493" stroke-linecap="round" stroke-linejoin="round"/><path d="M647.486 349.626l-1.123-3.229" stroke="#212221" stroke-width="1.493" stroke-linecap="round" stroke-linejoin="round"/><path d="M647.531 344.331a2.32 2.32 0 002.026.57" fill="#fff"/><path d="M647.531 344.331a2.32 2.32 0 002.026.57" stroke="#212221" stroke-width="1.493" stroke-linecap="round" stroke-linejoin="round"/><path d="M651.33 424.601h17.709" stroke="#343434" stroke-width=".621" stroke-linecap="round" stroke-linejoin="round"/><path d="M635.627 427.116h39.203" stroke="#343434" stroke-width=".83" stroke-linecap="round" stroke-linejoin="round"/><path d="M654.731 324.096a7.576 7.576 0 100-15.153 7.576 7.576 0 000 15.153z" fill="#FFF100" stroke="#212221" stroke-width=".423" stroke-linecap="round" stroke-linejoin="round"/><path d="M652.332 323.519a7.577 7.577 0 100-15.154 7.577 7.577 0 000 15.154z" fill="#FFF100" stroke="#212221" stroke-width=".423" stroke-linecap="round" stroke-linejoin="round"/><path d="M655.343 316.059a1.429 1.429 0 001.05-1.39c.09-1.094-.774-1.621-1.929-1.932l.264-1.491-.905-.16-.26 1.451a31.667 31.667 0 00-.729-.12l.263-1.465-.911-.161-.264 1.491a37.041 37.041 0 01-.58-.096l-1.252-.229-.173.97s.663.104.663.118a.471.471 0 01.45.491l-.73 4.09a.333.333 0 01-.148.202.32.32 0 01-.247.037c.012.013-.663-.117-.663-.117l-.375 1.052 1.184.212c.219.039.434.083.648.123l-.27 1.506.911.165.264-1.49c.249.047.491.092.727.134l-.268 1.491.911.165.271-1.506c1.543.186 2.68-.008 3.07-1.417a1.582 1.582 0 00-.014-1.278 1.582 1.582 0 00-.958-.846zm-3.009-.643l.317-1.789c.505.092 2.12.217 1.931 1.268-.181 1.011-1.742.609-2.248.521zm-.514 2.871l.351-1.97c.608.108 2.538.275 2.33 1.432-.196 1.114-2.078.646-2.681.538z" fill="#FFF100" stroke="#231F20" stroke-width=".423" stroke-linecap="round" stroke-linejoin="round"/><path d="M630.838 393.978c5.5 0 9.958-4.458 9.958-9.957 0-5.5-4.458-9.958-9.958-9.958-5.499 0-9.957 4.458-9.957 9.958 0 5.499 4.458 9.957 9.957 9.957z" fill="#FFF100" stroke="#212221" stroke-width=".83" stroke-linecap="round" stroke-linejoin="round"/><path d="M628.549 393.545c5.499 0 9.958-4.458 9.958-9.957 0-5.5-4.459-9.958-9.958-9.958-5.499 0-9.957 4.458-9.957 9.958 0 5.499 4.458 9.957 9.957 9.957z" fill="#FFF100" stroke="#212221" stroke-width=".83" stroke-linecap="round" stroke-linejoin="round"/><path d="M631.635 383.415a1.878 1.878 0 001.379-1.827c.12-1.438-1.017-2.131-2.535-2.538l.347-1.962-1.189-.21-.342 1.904c-.314-.054-.639-.106-.958-.158l.345-1.925-1.193-.211-.348 1.961c-.262-.04-.518-.082-.765-.125v-.005l-1.646-.298-.227 1.275s.869.137.866.155a.624.624 0 01.593.645l-.961 5.376a.428.428 0 01-.519.314c.015.018-.866-.154-.866-.154l-.497 1.382 1.557.281c.288.049.569.107.851.16l-.356 1.979 1.194.216.347-1.961c.327.061.645.122.955.175l-.351 1.957 1.194.212.355-1.979c2.028.248 3.523-.012 4.035-1.863a2.063 2.063 0 00-.022-1.666 2.068 2.068 0 00-1.243-1.11v0zm-3.956-.844l.414-2.353c.663.121 2.785.285 2.538 1.668-.235 1.328-2.288.799-2.95.685h-.002zm-.676 3.773l.462-2.59c.799.142 3.336.362 3.064 1.883-.259 1.463-2.731.848-3.526.707z" fill="#FFF100" stroke="#231F20" stroke-width=".415" stroke-linecap="round" stroke-linejoin="round"/><path d="M644.438 331.238l-8.447 37.269-42.081-9.533 2.305-10.175L605.461 308l28.643 6.49s-5.037 12.738-.428 13.73c4.609.993 10.762 3.018 10.762 3.018z" fill="#fff" stroke="#343434" stroke-width="1.659" stroke-linecap="round" stroke-linejoin="round"/><path d="M634.104 314.49l.508.679 9.826 16.069" fill="#fff"/><path d="M634.104 314.49l.508.679 9.826 16.069" stroke="#212221" stroke-width="1.659" stroke-linecap="round" stroke-linejoin="round"/><path d="M644.44 331.238s-6.154-2.026-10.767-3.018c-4.613-.992.429-13.73.429-13.73l10.338 16.748zm-26.835 79.952H534l.172-62.96h83.433v62.96z" fill="#fff" stroke="#343434" stroke-width="1.659" stroke-linecap="round" stroke-linejoin="round"/><path d="M572.178 383.135l1.327 4.419m-9.435-20.534l4.285 14.259" stroke="#231F20" stroke-width="1.245" stroke-linecap="round" stroke-linejoin="round"/><path d="M534 407.312v6.236l28.974 39.273 82.992-2.01 1.058-3.756-29.316-39.132" fill="#fff"/><path d="M534 407.312v6.236l28.974 39.273 82.992-2.01 1.058-3.756-29.316-39.132" stroke="#343434" stroke-width="1.659" stroke-linecap="round" stroke-linejoin="round"/><path d="M565.004 447.9l81.787-1.294m-83.89-.346L534 407.312" stroke="#231F20" stroke-width=".83" stroke-linecap="round" stroke-linejoin="round"/><path d="M584.453 432.1h23.414l7.417 10.098-24.109.08-6.722-10.178zm-41.363-20.685h72.247l12.854 17.797-70.69 1.046-14.411-18.843z" fill="#fff" stroke="#231F20" stroke-width=".83" stroke-linecap="round" stroke-linejoin="round"/><path d="M614.971 407.923h-64.27m-15.736 0h5.557" stroke="#231F20" stroke-width=".83" stroke-linecap="round" stroke-linejoin="round"/><path d="M562.973 452.821l1.63-4.921 82.42-.845-1.059 3.756-82.991 2.01z" fill="#343434"/><path d="M621.157 356.364l-13.943 35.581-32.934-12.906-3.618-12.085 15.448-39.416 27.344 10.716 12.748 5.044-5.045 13.066z" fill="#FFF100" stroke="#343434" stroke-width="1.659" stroke-linecap="round" stroke-linejoin="round"/><path d="M583.299 334.716l1.043 3.401a8.2 8.2 0 004.815 5.218l24.142 9.575a8.253 8.253 0 007.105-.486l2.724-1.537" stroke="#343434" stroke-width="1.659" stroke-linecap="round" stroke-linejoin="round"/><path d="M599.857 353.391a1.366 1.366 0 10-1.488-2.292 1.366 1.366 0 001.488 2.292z" fill="#fff" stroke="#212221" stroke-width=".954" stroke-linecap="round" stroke-linejoin="round"/><path d="M604.649 345.285a2.776 2.776 0 10-3.023-4.655 2.776 2.776 0 003.023 4.655z" fill="#fff" stroke="#212221" stroke-width="1.659" stroke-linecap="round" stroke-linejoin="round"/><path d="M599.801 350.704l2.036-5.026m-1.406-3.284a3.56 3.56 0 01-3.138.726" stroke="#212221" stroke-width="1.659" stroke-linecap="round" stroke-linejoin="round"/><defs><clipPath id="clip0"><path fill="#fff" transform="translate(543.168 96.535)" d="M0 0h223.387v42.599H0z"/></clipPath><clipPath id="clip1"><path fill="#fff" transform="translate(262.09 102.592)" d="M0 0h223.387v42.599H0z"/></clipPath><clipPath id="clip2"><path fill="#fff" transform="translate(263.621 183.296)" d="M0 0h223.387v42.599H0z"/></clipPath><clipPath id="clip3"><path fill="#fff" transform="translate(542.148 184.518)" d="M0 0h162.447v44.809H0z"/></clipPath><clipPath id="clip4"><path fill="#fff" transform="translate(7.629 172.158)" d="M0 0h198.296v46.898H0z"/></clipPath><clipPath id="clip5"><path fill="#fff" transform="translate(.09 285.633)" d="M0 0h218.858v175.868H0z"/></clipPath></defs></svg>