<svg width="320" height="246" fill="none" xmlns="http://www.w3.org/2000/svg"><g clip-path="url(#clip0)"><path fill-rule="evenodd" clip-rule="evenodd" d="M57.994 161.697l-.004 6.44H23.958l-3.628 7.407h37.655l-.005 6.529 13.584-10.472-13.57-9.904z" fill="#00F"/><path fill-rule="evenodd" clip-rule="evenodd" d="M290.932 161.653l-.004 6.439H256.96l-3.692 7.408h37.655l-.005 6.528 13.584-10.471-13.57-9.904z" fill="#E9D100"/><path fill-rule="evenodd" clip-rule="evenodd" d="M160.674 198.909v-.885l-.044.867h-.021c.025.383.022.768-.011 1.15l.076-1.132z" fill="#00F"/><path fill-rule="evenodd" clip-rule="evenodd" d="M234.529 93.812a100.576 100.576 0 00-23.6-9.843v-.126a136.367 136.367 0 00-18.17-3.786 64.19 64.19 0 01-.379 8.33c-.5 6.31-1.261 12.999-2.144 19.558a49.895 49.895 0 0110.725 4.668 55.186 55.186 0 01-1.893 13.628 86.299 86.299 0 01-10.094 23.976 80.453 80.453 0 01-15.4 20.695 64.66 64.66 0 01-10.977 8.327 38.658 38.658 0 01-1.255-.747v39.323c.379.229.755.452 1.128.668a98.156 98.156 0 0020.443-15.648c10.725-10.473 20.946-23.974 29.527-38.613 8.581-14.889 15.143-30.283 18.675-44.921a92.91 92.91 0 003.408-25.489" fill="#fff"/><path fill-rule="evenodd" clip-rule="evenodd" d="M258.76 79.6c-19.936-16.4-55.52-27.13-96.532-27.13l-.186 126.421.186.112a64.641 64.641 0 0010.979-8.328 80.39 80.39 0 0015.4-20.695A86.219 86.219 0 00198.7 126a55.085 55.085 0 001.893-13.628 49.817 49.817 0 00-10.725-4.666c.883-6.561 1.639-13.249 2.145-19.559.306-2.765.433-5.547.378-8.328a136.267 136.267 0 0118.171 3.785v.126a100.53 100.53 0 0123.6 9.844 92.832 92.832 0 01-3.407 25.489c-3.533 14.638-10.095 30.035-18.676 44.921-8.581 14.638-18.8 28.14-29.527 38.613a98.177 98.177 0 01-20.452 15.648l-.117-.07-.042 28.281c24.355-9.085 51.771-34.362 72.212-69.693h-.126c20.443-35.337 29.024-71.551 24.733-97.163z" fill="#E9D100"/><path d="M156.806 52.62c-1.439.031-3.033.016-4.705.1-3.347.168-5.285.314-8.763.662-6.967.564-13.106 1.533-14.243 1.75l3.586-.327-7.575 1.185c-2.245.408-4.276.78-6.255 1.14l-5.907 1.31c-2.019.477-4.124 1.1-6.506 1.754l.518-.183c-.35.081-.656.181-1.157.345-.5.18-1.188.431-2.316.8-1.121.387-2.7.8-4.92 1.545l-3.863 1.26c-1.481.461-3.11 1.121-4.994 1.781l-.008-.018c-.502.23-1.016.433-1.54.608l2.607-.91-2.227 1-2.574 1.233c-.203.106-.425.17-.653.19l-2.45 1.142-2.39 1.262-1.535.646a38.186 38.186 0 01-4.521 2.825c1.54-.674-1.833 1.206-1.293 1.04l-1 .555-1.906 1.314c-.73.481-1.434 1-2.11 1.554-1.346 1.076-2.544 2.053-3 2.467l1.35-.957c.832-.572 1.925-1.4 3.15-2.184l3.71-2.253c1.172-.664 2.217-1.166 2.826-1.478-3.187 1.821-.816.512-.164.2l.185-.167a26.832 26.832 0 012.955-1.458c0-.009-.041 0-.073 0l-.117.08c-.1.028-.058-.013.043-.078-.037-.01.043-.077.577-.346l-.1.065c.805-.439 2.216-1.15 2.833-1.462l.059.088a45.2 45.2 0 015.769-2.625c2.613-1.007 5.33-1.92 6.339-2.328 1.054-.3 2.205-.717 3.42-1.16 1.215-.443 2.484-.933 3.806-1.28a31.07 31.07 0 014.236-1.046c2.643-.666-.568.02.484-.277l3.195-.694c-1.83.5-.817.292-.473.245 1.37-.333 3.123-.806 4.67-1.1a22.135 22.135 0 003.235-.81c.933-.176 1.633-.312 2.187-.418l1.3-.182c.677-.09 1.085-.144 1.887-.288-.544.063-1.617.228-1.633.19 1.516-.19.711-.157.094-.06.567-.129 1.6-.308 2.828-.509 1.228-.2 2.664-.43 4.05-.579 2.768-.333 5.3-.67 5.529-.8l.006.042c.515-.233-.369-.3 1.232-.576l1.087-.049 1.615-.26c1.094-.07.564.036.566.058.658-.1 1.383-.188 2.15-.279l2.411-.189c1.659-.116 1.64-.238 3.245-.35L143.9 55.2c2.721-.175 5.89-.155 6.421-.334l1.639.076c5.457.14 3.8-.21 5.981-.17l.664.03.326.015.219.017.785.07-.006.053v-.049l-1.973.03.794.013.474.016.612.037c-.026.315-.047.595-.07.885a718.76 718.76 0 00-.085 1.691v.024c0-.09.008-.18.025-.268v.382a26.93 26.93 0 01.138 3.681c-.024 2.732.1 4.87-.079 9.233l.175 1.09-.1 3.276h-.139c-.011-3.208-.036-9.252-.051-13.377l-.062-.074.046 6.847c-.025.707-.142 2.391-.233 1.682l.105 1.171c.015 8.164.022 8.22-.135 16.743l.07-.74a29.082 29.082 0 01-.032 3.85c-.023 5.116-.109 8.667-.286 11.989l.164.728a14.57 14.57 0 00-.027 3.227l.072 2.309c-.013 1.477.08 2.382-.014 4.064v.009c-.006.1-.013.211-.018.317 0 0 .009-.009.013-.018-.072 3.342.146-.033.053 3.8-.117 1.227.205 1.358.169 3.223l-.233 1.873c-.134 3.382.1 3.957.1 8.854-.084 2.352-.282 3.488-.461 1.931.161 1.265.242 2.54.243 3.815-.088.437-.106.134-.186-.493-.1 2.521.08 1.556.074 3.458a6.91 6.91 0 01.441 1.808l.052-.736c.09 2.014.131 4.214.047 6.556l-.083-.088.042 2.493-.107.156.033 3.558.029-.489c.014.836.051 3.58-.006 5.148l-.058-.059c-.185 4.426.058 8.075.077 13.259l-.121-.681c-.12 1.766.187.484.126 2.589l-.148.105c.115 1.02.093 2.052-.065 3.066a15.383 15.383 0 00-.271-.205c.074.067.169.148.268.233 0 .053-.011.1-.016.16-.816-.6-2.093-1.644-3.249-2.683a37.872 37.872 0 00-2.914-2.59l.027-.03c-.389-.133-.061.4-.952-.3l-.5-.577-.86-.753c-.5-.584-.2-.35-.188-.361a56.958 56.958 0 01-4.5-4.971c.393.711.81 1.405 1.225 2.108-1.212-1.483-3.219-4.277-3.557-4.5l-.584-1c-2.056-3.221-1.691-2.059-2.511-3.348-.326-.55-.628-1.118-.943-1.675.36.525.705 1.055 1.075 1.571a49.047 49.047 0 01-2.105-3.616l-.013-.009c.033.053.059.11.078.17l-.145-.224a11.246 11.246 0 01-1.448-2.112 54.231 54.231 0 01-3.033-5.679l-.5-.6-.922-2.1.124-.058c.948 2.021 2.968 5.73 4.426 8.2l.08.012c-.851-1.464-1.848-3.138-2.361-4.141-.214-.44-.641-1.527-.344-1.154l-.462-.666c-1.3-2.525-1.889-3.828-2.483-5.161-.594-1.333-1.155-2.715-2.155-5.5l.122.5a11.894 11.894 0 01-.906-2.508 49.691 49.691 0 01-2.381-9.162l-.263-.453c-.143-.732-.1-1.867-.378-2.181a59.138 59.138 0 01-.306-1.553 18.824 18.824 0 01-.276-2.763v-.223c-.006 0-.009.006-.013.013a24.413 24.413 0 01-.152-2.579c.059-.51.007-.429-.052-.556-.018-.045-.089-.137-.058-.19a.6.6 0 01.221-.154c.089-.016.177-.042.262-.077l.311-.1.624-.195c1.06-.471 1.66-.78 2.375-1.154a25.674 25.674 0 013.122-1.387 7.232 7.232 0 011.633-.359c.145 0 .324-.015.221.065-.146.109-.3.207-.461.292.185-.093.249-.134.453-.22l.547-.222.671-.257.831-.287.157-.052.085-.029c.038 0 .059-.021.04-.058l-.07-.441-.187-1.166c.015-.552.083-.18.282.706l-.117-1.084c-.033-.274-.058-.489-.084-.671a2.861 2.861 0 00-.087-.429 4.865 4.865 0 01-.207-1.029 3.655 3.655 0 01-.595-1.2l.012.518a35.343 35.343 0 01-.583-4.549l.09.053-.233-1.729.095-.12-.28-2.472v.343c-.071-.579-.284-2.485-.311-3.582l.062.034c-.062-3.084-.425-5.625-.669-9.26l.149.467c.023-.623-.029-.7-.09-.817a.778.778 0 01-.09-.26 3.26 3.26 0 01-.035-.279 74.782 74.782 0 00-.025-.536l.14-.148a14.795 14.795 0 01-.189-2.433c.012-.16.008-.32-.012-.478l-.42.04a20.18 20.18 0 00-.992.121c.22.022.422.05.609.077l-2.621.484c-1.837.31-1.167-.012-.923-.166l-1.211.4-.278-.116c-.814.255-1.644.456-2.484.6-.145-.035.249-.158-.3-.07l-2.572.81 1.559-.453-.139.287c-1.606.545-2.235.467-3.395.8l.792-.257a25.29 25.29 0 01-3.118.627c.346-.036.875-.09.107.128-.564.151-.329-.01-.875.092a8.058 8.058 0 01-2.7.871c.01-.027.029-.059.107-.094a5.95 5.95 0 01-1.026.312l.275-.273-1.013.476c-.726.148-1.7.6-1.649.45l.388-.158c-1.778.52-3.542 1.087-5.291 1.7l-.123-.116c-.452.367-2.869.991-2.6 1.17-1.038.233-3.78 1.668-3.324 1.162-1.684.716-2.938 1.368-4.271 2.077-1.333.71-2.741 1.451-4.724 2.5l-.306.128c-.107.045-.381.191-.588.3l-.721.383c-.111.076-.291.117-.354.233 0 .15 0 .3-.008.455-.017 1.536-.025 2.014-.006 2.891.033 1.646.15 3.446.253 4.873a110.7 110.7 0 002.524 14.657c.394 3.435 2.21 8.236 3.143 11.781l.436.916c.534 2.391 2.013 5.821 3.04 9.085a38.5 38.5 0 01.607 1.345.807.807 0 01-.058-.477c.287.933 1.112 2.732.895 2.668l-.11-.223c-.224-.063 1.201 2.709 1.501 3.768l-.064-.623c.228.573.467 1.142.707 1.709l-.234-.438c1.788 3.6 3.018 6.237 4.237 8.817a77.832 77.832 0 004.465 8.281c-.666-.771.823 1.242.68 1.435a21.223 21.223 0 002.686 4.316c.009 0 .03 0 .09.072l1.4 2.333c-1.1-1.225 1.244 1.535.246.4a171.098 171.098 0 0014.288 20l-.175-.323c1.319 1.618 3.072 3.532 4.037 4.791a26.06 26.06 0 002.888 2.886 9.595 9.595 0 011.789 2.041c1.283 1.27 2.66 2.319 4.394 4.136a22.321 22.321 0 002.827 2.619 16.72 16.72 0 012.438 2.158h.037c2.414 2.268 5.069 3.934 7.891 6.1a1.927 1.927 0 01-.175-.076 88.292 88.292 0 003.733 1.894c.014.252.044.394.1.335-.139 1.477.1 5.814-.189 4.946-.022 5.142.255 7.92.117 14.172a17.562 17.562 0 00-.18 3.166c0 .595 0 1.22-.006 1.825.02.08-.048.028-.089.015-.11-.047-13.821-5.242-43.695-32.625-2.464-2.906-2.8-3.086-3.625-4.39l.38.774-1.6-2.053.463.522c-1.842-2.143-3.414-4.01-4.724-5.82-1.328-1.8-2.569-3.407-3.667-5.091-1.129-1.665-2.243-3.31-3.45-5.087a248.533 248.533 0 00-3.962-5.911c.9 1.1-1.166-1.74-1.05-1.975-1.128-2.443-2.638-4.2-3.737-6.106-.008.006-.032-.012-.108-.113l-1.838-3.372c1.356 1.873-1.542-2.311-.313-.584-1.13-2.246-2.333-4.647-3.6-7.158-1.185-2.551-2.485-5.183-3.691-7.91-1.18-2.741-2.435-5.5-3.492-8.317-.541-1.4-1.116-2.79-1.613-4.189-.497-1.399-.962-2.79-1.436-4.161l.1.5-.768-2.172c-.24-.753-.481-1.517-.716-2.26-.467-1.487-.9-2.893-1.174-3.973-.483-2.176-1.447-4.653-1.686-5.485a16.371 16.371 0 01-.793-3.785c-.292-1.182-.632-2.328-.945-3.595a66.116 66.116 0 01-.89-4.639c-.035-.622-.408-3.06-.785-5.359l-.263-1.669c-.06-.532-.107-1.022-.15-1.44a4.874 4.874 0 01-.046-1.436l-.025-.036a80.462 80.462 0 01-.31-12.21s.012.094.017.263l-.02-4.96.3-4.973.013-.19-.161.013-.252.02.252.078.073.021-.02.042-1.175 2.52-.491 2.2-.355 2.221c-.217 1.484-.511 2.974-.613 4.471A101.487 101.487 0 0065.54 115.2c.48 3.193 1.2 6.337 1.87 9.5.8 3.121 1.516 6.274 2.48 9.352a215.013 215.013 0 0018.947 42.938c.6.946 1.255 1.857 1.88 2.786 1.122 2.015 2.316 4.183 3.724 6.326 1.38 2.158 2.8 4.405 4.367 6.578l2.309 3.3c.778 1.095 1.6 2.152 2.383 3.221.783 1.069 1.568 2.124 2.339 3.167a3732.8 3732.8 0 002.326 3.021l.263.053c.704.85 1.364 1.736 1.977 2.654 32.647 33.443 49.67 37.588 50.887 38.09l.475.2.12.048.058.025v-3.387c.021-3.173.042-3.969.061-7.044.117-2.248.048-9.088.168-10.851-.211-7.573-.208-15.6-.186-23.179l.018.287-.033-3.573c.014-.151.035-.169.047-.054-.152-4.03 0-10.377.059-15.311l.019.291c.031-28.782-.292-55.5-.05-84.05.28-13.273-.107-26.963.128-42.19.012-.218.024-.6.034-1.139l.024-3.7c-1.524.013-3.368.035-5.428.061zm2.679 124.244v.1l-.026-.02.026-.08zm-.036.11l.034.029v.047c-.037-.024-.034-.011 0 .025v.081l-.074-.053.04-.129zm-.016 2.662c-.072 2.171-.24 1.237-.338.869l.154 1.8-.172.35c.2 1.316-.032 1.316.075 3.626-.065.19-.1-.394-.129.39l.242 3.807-.108-2.3.252.28c.178 2.234 0 3.122.032 4.623h-.011l-.053-.849c.007.313.011.59.014.842a.524.524 0 00-.112 0 1.71 1.71 0 00-.728.306l-.538.35-1.642 1.094c-1.618 1.043-3.377 2.29-5.225 3.616l-2.833 2.028-1.458 1.021-.74.5-.373.249-.01.006.04-.091a4.15 4.15 0 01.263-.525c.17-.296.361-.58.571-.849.302-.391.629-.762.978-1.112.314-.324.648-.629 1-.912.381-.288.39-.277 1.877-1.469 3.747-2.974-.82.529.666-.685 1.509-1.174 3.055-2.316 4.509-3.62-1.248 1.151-1.55 1.385-1.447 1.333.103-.052.579-.439.823-.634.349-.307.713-.642 1.083-1 .093-.087.183-.182.275-.274l.369-.381c.233-.275.5-.55.712-.837a8.28 8.28 0 001.057-1.721 6.302 6.302 0 00.462-1.7 5.324 5.324 0 00-.125-.6c0-.1-.117-.214-.222-.245a.808.808 0 00-.292-.046 3.455 3.455 0 00-1.1.233c-.959.418-1.862.956-2.686 1.6-.986.712-1.325.982-1.773 1.331a15.3 15.3 0 00-.892.746c-2.7 1.992-4.064 2.949-5.054 3.616-.99.667-1.6 1.064-2.77 1.8.39-.222 1-.606 1.5-.924l.642-.408a1.75 1.75 0 01.277-.163c-2.234 1.44-1.035.738-.129.135-.408.3-.991.7-1.71 1.166l-.532.335-.346.2a9.67 9.67 0 01-.747.39c-.13.058-.263.116-.4.166a3.138 3.138 0 01-.207.069c-.071.049-.147-.014-.169-.091-.073-.155.05-.312.086-.464.062-.15.132-.296.209-.439.151-.276.329-.538.531-.78l.156-.186.291-.33c.2-.22.409-.428.612-.642a45.646 45.646 0 015.039-4.064c1.446-1.05 2.444-1.791 2.588-1.96l.021.028c.676-.7-.621.139 1.608-1.687a36.521 36.521 0 001.525-1.188c.186-.175.338-.312.551-.525.213-.213.441-.433.648-.661.404-.42.772-.874 1.1-1.356.183-.269.344-.552.481-.847.041-.072.074-.148.1-.227.035 0-.024.189-.019.184.14-.212 0-.624-.247-.86a.942.942 0 00-.421-.266 1.66 1.66 0 00-.467.015c-.325.034-.641.05-.987.1l-1.246.43c-.21.074-.421.136-.636.233l-.579.262c-.32.154-.658.287-.972.462-.642.332-1.3.672-1.93 1.049-2.566 1.475-5.08 3.223-7.442 4.775 1.733-1 3.46-2.029 5.217-3-2.044 1.249-4.828 3.132-7.274 4.613-.308.183-.6.374-.9.537l-.692.391c-.412.23-.8.416-1.127.591l-.878.408a5.838 5.838 0 00-.566.252l-.215.075c-.069.017-.143.051-.215 0a.211.211 0 01-.1-.233l.171-.266c.201-.339.429-.661.682-.963.232-.311.488-.603.766-.875.206-.22.427-.427.659-.621.158-.126.475-.432.741-.632l.731-.575 1.782-1.362a21.98 21.98 0 012.517-1.79c1.366-.846 2.741-1.685 4.082-2.613-1.306.96-2.651 1.837-3.985 2.717 2.025-1.28 3.446-2.21 4.72-3.157a17.751 17.751 0 003.708-3.491l.024-.038a5.596 5.596 0 01-.32.387l.429-.572c.145-.241.276-.489.395-.744l.311-.6c.075-.142.135-.291.179-.446l.035-.188a.825.825 0 00.008-.238.93.93 0 00-.088-.335.872.872 0 00-.305-.341 1.071 1.071 0 00-.234-.1c-.43-.442-.86-.885-1.283-1.335a77.737 77.737 0 007.623 6.047zm-9.592-7.564c.1.095.2.194.291.285a64.335 64.335 0 002.787 2.513c-.067-.006-.13-.006-.187-.007a1.762 1.762 0 00-.346.058 3.343 3.343 0 00-.541.2c-.168.076-.33.16-.5.252-.082.047-.166.1-.257.155-.126.083-.165.116-.246.175-.577.423-1.216.879-1.907 1.359a170.554 170.554 0 01-5.832 3.873 88.733 88.733 0 01-7.931 4.5c-.536.34-1.079.663-1.622.991l-.5.23c.123-.143.252-.277.381-.408a90.724 90.724 0 004.727-2.535c3.674-2.1 7.4-4.518 10.359-6.57l.074-.117c-3.5 2.441-7.607 5.046-10.061 6.43-1.2.681-4.347 2.22-2.146.945-.75.453-1.5.9-2.266 1.325l-.339.169a18.65 18.65 0 011.1-.968 56.459 56.459 0 014.766-3.345c1.539-1 3.129-1.983 5.074-3.361a33.72 33.72 0 001.516-1.143c.264-.21.531-.436.8-.673l.409-.373c.07-.061.137-.13.206-.2l.247-.246a7.699 7.699 0 001.887-2.958l.1-.371-.043-.185zm-16.826 14.212c.1-.1.2-.21.3-.312l.083.081-.073.077c-.103.05-.209.105-.31.154zm12.2-17.141l.01-.015c.113-.172.233-.35.35-.525a.091.091 0 00-.03.025c.108-.175.192-.357.279-.519l.072-.138a91.032 91.032 0 002.851 3.016 2.563 2.563 0 00-.779-.087c.283-.003.565.045.832.141l.048.047a2.225 2.225 0 00-.7-.113 4.008 4.008 0 00-1.474.307l-1.516.6a2.49 2.49 0 00-.279.124l-.226.109-.435.209c-1.127.551-1.969 1.019-2.356 1.188-3.958 2.275-7.673 4.954-11.3 6.8a9.184 9.184 0 01-1.454.668c-.084.028-.17.05-.257.065-.037 0-.081.037-.107-.009-.026-.046.008-.094.031-.134.081-.145.185-.276.31-.386l.074-.059.033-.022.195-.18c.276-.227.537-.452.816-.649.278-.282.584-.55.886-.821 1.482-1.031 4.073-2.152 4.8-2.757 1.181-.651 2.38-1.307 3.564-2.023a24.653 24.653 0 002.958-1.993 14.553 14.553 0 002.814-2.871l-.01.002zm-4.55-5.979c.156-.379.251-.78.284-1.189a77.603 77.603 0 003.419 4.251 2.37 2.37 0 00-.323.088l-.366.164-.794.373c-.337.165-.35.187-.384.22a33.674 33.674 0 01-3.3 1.574c-1.992.852-2.085 1.185-5.035 2.635-1.012.44-2.02.891-3.024 1.353l-1.408.738-.983.538a4.813 4.813 0 00-.416.259l-.5.361-.077.058c-.023.021-.062.047-.075.014-.033-.042-.012-.085 0-.13.026-.107.064-.21.113-.308.084-.169.187-.327.309-.471.075-.092.154-.181.239-.265l.071-.069c.08-.077.16-.155.247-.23.169-.154.342-.312.53-.467.658-.536 1.35-1.03 2.072-1.479a25.273 25.273 0 011.383-.816c.6-.319.486-.147-.6.674l2.329-1.74c.467-.367 1.108-.738 3.091-2.406.653-.467.255-.078-.6.689a22.86 22.86 0 001.865-1.583l.189-.179a3.83 3.83 0 00.23-.229l.35-.416c.19-.205.361-.428.509-.666a9.84 9.84 0 00.655-1.346zm-9.876-18.05l.074-.152a151.595 151.595 0 005.891 10.812 52.023 52.023 0 003.14 4.761 2.196 2.196 0 00-.75 0 7.378 7.378 0 00-2.274.828 5.74 5.74 0 011.749-.577 6.458 6.458 0 00-1.813.685l-.946.472-.613.333c-.821.446-1.646.915-2.487 1.39l-5.19 2.967.1-.139-3.24 1.908c1.108-.906 2.268-1.8 3.164-2.486l-.048.1c1.55-1.171 3.028-2.307 4.453-3.5.713-.6 1.413-1.208 2.1-1.86.73-.672 1.39-1.416 1.97-2.221a4.465 4.465 0 00.519-1.028l.067-.291.028-.148.007-.045a1.223 1.223 0 00-.059-.457 1.217 1.217 0 00-.528-.662 1.115 1.115 0 00-.613-.167c-.18.004-.355.053-.51.143l-.073.046-.145.094-.291.187-.593.373c-.8.5-1.633.986-2.493 1.48a134.058 134.058 0 01-5.582 3.012l1.011-.632c-2.793 1.3-.675.54-3.993 2.113l-.219-.034c-.71.385-1.3.685-1.825.926-.324.151-.338.154-.461.2a1.533 1.533 0 01-.718.116.234.234 0 00-.048.102.24.24 0 00.002.113c-.1.034-.2.069-.3.093a.799.799 0 01-.153.024c-.058.012-.091-.058-.079-.117.062-.219.183-.418.349-.575.176-.17.372-.317.584-.439a.627.627 0 01.074-.035.446.446 0 00.066-.04l.078-.048c.093-.059.142-.078.16-.074.035.008-.059.117-.188.253a.103.103 0 00-.013.106l.016-.033a.074.074 0 01.022-.028l.147-.126.6-.5 1.215-.991.583-.248c1.757-1.508 1.889-1.305 5.1-3.853.3-.165-.5.5.618-.343.436-.366.869-.736 1.3-1.121.135-.121.629-.56.979-.906.183-.18.384-.356.551-.535l.49-.536c.155-.162.298-.336.427-.521.121-.168.266-.344.366-.5.178-.284.327-.586.445-.9.063-.183.112-.372.144-.563a3.776 3.776 0 01-.306.919 9.594 9.594 0 01-1.953 2.434c.14-.208.262-.428.364-.658a7.048 7.048 0 001.5-2.191c.23-.478.267-1.026.105-1.531a1.45 1.45 0 00-.254-.362.667.667 0 00-.152-.123.804.804 0 00-.108-.016l-.411-.051c-.069-.009-.129-.021-.2-.027l-.346.043-.695.084c-1.033.453-2.132.933-3.386 1.525l3.242-1.523-5.753 2.613c-.938.419-1.638.718-2.9 1.317.791-.35 2-.88.223.03-1.3.667-.744.292-1.99.9-.632.458-1.295.871-1.983 1.238 1.369-1.038 2.837-2.029 4.258-3.184.228-.195.46-.382.686-.584l.653-.6c.383-.361.813-.722 1.244-1.08l2.663-2.179.23-.03c.255-.281.8-.759 1.441-1.38.354-.337.688-.694 1-1.07.182-.228.346-.47.49-.725l-.006.005zm-1.574-3.623c.187.408.391.816.583 1.225a1.44 1.44 0 00-.228.012 2.701 2.701 0 00-.438.09 6.157 6.157 0 00-.572.195c-.329.129-.6.251-.812.355-.428.207-.642.34-.525.339-2.466 1.034-9.019 4.865-7.8 3.915-1.83.977-3.455 1.851-5 2.647 1.729-1.44 3.654-3.024 5.9-4.922a50.75 50.75 0 003.113-2.665c.1-.089.452-.43.731-.7.279-.27.578-.579.852-.879a10.77 10.77 0 001.385-1.776c.269-.426.423-.914.446-1.418a1.777 1.777 0 00-.1-.63 1.564 1.564 0 00-.519-.695.893.893 0 00-.225-.127c-.053-.025-.13-.049-.2-.074l-.236-.069-.292-.058c-.117-.018-.224-.046-.347-.058l-.572.2-1.3.609-1.327.65-1.261.634-1.387.713-5.147 2.7a175.574 175.574 0 01-4.359 2.267l-1.037.5a1.117 1.117 0 01-.17.063.067.067 0 01-.034-.009.08.08 0 01-.029-.022.07.07 0 01-.015-.033.352.352 0 01.021-.136.364.364 0 01.074-.116l.046-.058.137-.143c.221-.241.491-.466.736-.7a39.068 39.068 0 013.274-2.559 87.9 87.9 0 013.526-2.362c1.208-.775 2.45-1.5 3.778-2.363a21.78 21.78 0 001.952-1.442c.332-.273.649-.565.949-.874.077-.081.157-.155.233-.243l.276-.323c.213-.274.407-.563.578-.865.092-.138.164-.288.213-.447l.171-.451.07-.442.034-.221c0-.072-.006-.144-.008-.215a4.707 4.707 0 00-.029-.428l-.145-.386c-.022-.14-.175-.23-.263-.33a1.189 1.189 0 00-.336-.215 3.109 3.109 0 00-1.845-.1c-.369.072-.733.163-1.092.271-.278.083-.456.142-.686.218-4.179 1.278-8.9 3.649-13.809 5.622l-.466.187a2.67 2.67 0 01-.426.127.357.357 0 01-.226-.011c-.074-.049-.022-.133.013-.182.087-.109.188-.207.3-.291.113-.091.233-.178.35-.261l.587-.4.771-.506c1.025-.664 2.035-1.29 3.007-1.878l2.05-1.423a102.54 102.54 0 004.333-2.692 54.53 54.53 0 002.4-1.664c.691-.5 1.35-1.043 1.973-1.627.489-.439.875-.98 1.131-1.585.087-.229.134-.471.141-.716a1.28 1.28 0 00-.279-.825 1.548 1.548 0 00-.689-.467c-.117-.05-.237-.079-.356-.117-.119-.038-.269-.036-.4-.054a5.92 5.92 0 00-2.17.4c-.417.142-.855.33-1.283.5l-.98.446c-1.99.94-3.908 1.951-5.811 2.877a92.592 92.592 0 01-3.207 1.684 5.379 5.379 0 011.07-.412c-1.087.512-2.72 1.294-4.067 1.839l-.489.2-.327.122a1.71 1.71 0 01-.206.058c-.109.024-.143.008-.1-.046l.128-.058c.027-.059-.068-.033-.234.019-.083.027-.19.058-.317.093-.03.006-.07.025-.1 0 0-.025.02-.047.03-.071.028-.05.059-.098.095-.143.095-.124.204-.238.324-.34-.074.061.713-.589 1.07-.832l-.607.391-.3.2c-.041.03-.083.057-.126.082l-.051.018.737-.6.885-.683c.6-.448 1.21-.884 1.832-1.308l-.969.722a101.538 101.538 0 019.994-6.379l2.293-1.313 1.117-.641a96.288 96.288 0 001.786-1.058 20.56 20.56 0 001.611-1.073c.174-.13.341-.27.5-.418a46.165 46.165 0 00.324 4.631 61.62 61.62 0 001.374 7.517 76.823 76.823 0 005.026 14.278l.001.012zm-33.756-21.209c-.045.106-.08.217-.106.329a154.865 154.865 0 01-.817-3.112 102.792 102.792 0 01-2.312-12.912 87.092 87.092 0 01-.481-6.322 80.862 80.862 0 01-.062-3.085c0-.086-.007-.18.1-.2.356-.195.712-.388 1.066-.579l3.466-1.729c1.37-.67 2.729-1.276 3.31-1.469a80.616 80.616 0 0115.016-5.576l-.187.07 2.391-.65c.106-.012.124 0 .05.037 2.682-.836 7.046-1.653 10.439-2.286l-.194.058 3.275-.665.088-.017.043-.01c.007.007 0 .027.006.04l.035.537c.156 2.483.313 4.952.471 7.407.35 4.94.893 9.8 1.52 14.638l.361 2.688c.035.068-.058.054-.094.078l-.291.1c-.592.2-1.182.408-1.769.626-1.17.442-2.325.926-3.464 1.451-.568.267-1.132.54-1.692.82l-.834.43-.9.485-.728.409-.364.2-.183.1-.091.051a.839.839 0 00-.006.1v.175a2.512 2.512 0 00-.579-.135 5.156 5.156 0 00-.765-.042c-.138 0-.311.024-.466.035-.168.01-.335.03-.5.058-.356.059-.708.117-1.1.213-.379.081-.773.184-1.174.3-.401.116-.807.227-1.192.346l-.715.224a87.063 87.063 0 00-5.716 2.087c-1.933.776-3.931 1.633-5.97 2.68-1.015.487-2.06.908-3.129 1.261l-1.108.349c-.22.066-.443.117-.67.153.326-.095.319-.116.209-.095-.058.008-.152.025-.267.033-.115.008-.281.022-.344-.1.013-.175.193-.292.307-.389a.723.723 0 01.314-.161l.437-.233 1.359-.865 2.686-1.683c1.75-1.085 3.428-2.1 5.122-3 0-.008.033-.039.222-.149 1.983-.992 4.055-1.85 6.136-2.707-3.639 1.757 4.425-2.034 1.074-.437 2.049-.816 4.188-1.667 6.366-2.642a69.91 69.91 0 003.279-1.582 57.454 57.454 0 001.638-.893c.263-.145.572-.328.853-.521l.212-.15.249-.188c.201-.161.394-.333.579-.514a3.334 3.334 0 001.166-2.344 2.542 2.542 0 00-.1-.606 1.242 1.242 0 00-.329-.491 1.954 1.954 0 00-1.071-.358 7.455 7.455 0 00-1.507.091l-.758.122-.485.09c-.642.126-1.28.264-1.914.414-2.537.6-5.062 1.322-7.59 2.116-2.528.794-5.052 1.67-7.553 2.652a68.592 68.592 0 00-3.724 1.584c-1.23.571-2.434 1.224-3.592 1.842-1.158.618-2.329 1.225-3.5 1.741l-.438.189-.291.12c-.1.039-.2.074-.3.106a.927.927 0 01-.623.032.185.185 0 01-.1-.201.189.189 0 01.032-.073c.05-.093.113-.18.186-.257.07-.079.146-.153.223-.225l.116-.105.19-.163c.476-.4.97-.782 1.473-1.144.503-.362 1.024-.692 1.563-1.044l-.779.439c4.292-2.858 9.782-6.193 13.268-7.975 3.472-1.808 7.523-4.09 8.894-4.746 1.918-.985 3.78-1.784 4.993-2.3a6.43 6.43 0 001.3-.77c.095-.07.125-.09.1-.063.158-.143.309-.295.452-.454.281-.322.501-.692.65-1.093.139-.366.167-.765.082-1.147a1.942 1.942 0 00-.61-.987 1.418 1.418 0 00-1.043-.345 4.617 4.617 0 00-1.289.208l-.332.093-.272.09-.441.154-.875.333c-2.322.927-4.75 2.082-7.7 3.278-.514.172-1.771.646-3.4 1.3l-5.467 2.262a153.26 153.26 0 01-5.132 2.034c-.775.322-1.575.58-2.391.771l-.059.04c-.992.316-1.98.616-2.964.9l-1.458.409-.667.172-.49.116a.958.958 0 01-.25.045c-.1-.009-.113-.123-.1-.2.041-.161.12-.311.23-.436.095-.137.207-.263.316-.394.11-.13.228-.255.354-.37.245-.248.529-.484.8-.72a20.748 20.748 0 011.769-1.31 64.71 64.71 0 018.32-4.309l-.408.233 15.881-8.39-4.931 1.541-14.3 6.2a42.162 42.162 0 00-6.823 3.932c-.548.407-1.072.844-1.57 1.31l-.265.253c-.111.1-.217.211-.316.317-.207.212-.378.433-.57.648a8.86 8.86 0 00-.944 1.283l-.105.159a.744.744 0 00-.05.138l-.086.27a4.026 4.026 0 00-.151.528c-.046.351.024.706.2 1.013a.77.77 0 00.35.324l.5.082 1.009.163 1.492-.37.745-.185.372-.092.3-.083c.546-.16 1.1-.307 1.639-.479a89.776 89.776 0 003.233-1.06 150.526 150.526 0 006.329-2.39l6.221-2.53 3.125-1.259c1.05-.437 2.075-.89 3.1-1.34 1.289-.55 2.573-1.1 3.856-1.607a36.45 36.45 0 011.915-.709l.471-.15.094-.027.043-.01a.832.832 0 01.166-.023c.123-.013.171.16.117.246a.478.478 0 01-.152.167 3.382 3.382 0 01-.323.233 3.58 3.58 0 01-.344.2l-.175.083-.242.107-.969.428-1.931.87a184.92 184.92 0 00-15.069 7.741 187.106 187.106 0 00-8.762 5.439c-.7.453-1.486.991-2.178 1.536l-.525.421-.6.512a11.049 11.049 0 00-1.64 1.722c-.364.446-.573 1-.593 1.575.002.26.065.515.183.747.074.13.16.255.24.377.09.106.19.204.3.291a2.4 2.4 0 001.522.477 6.81 6.81 0 002.189-.446c.362-.125.864-.321 1-.38l.617-.268c.406-.183.806-.371 1.2-.564a83.575 83.575 0 002.315-1.192c1.53-.824 2.95-1.585 4.49-2.246a100.253 100.253 0 019.468-3.508 96.949 96.949 0 019.726-2.634l.631-.117a.7.7 0 01.092-.009c.088-.009.04.106.006.137l-.033.034-.018.015-.074.058a7.796 7.796 0 01-.954.6 42.77 42.77 0 01-2.2 1.182c-5.941 3.03-12.589 5.016-18.68 8.457a98.71 98.71 0 00-5.032 3.125c-.455.276-.914.556-1.373.85l-.725.47c-.4.277-.817.553-1.2.845a8.281 8.281 0 00-1.893 1.741 4.284 4.284 0 00-.226.385v.02zm2.624 9.228a162.09 162.09 0 01-2.348-7.558 2.182 2.182 0 00.829.422 5.524 5.524 0 002.308-.013c.472-.083.959-.186 1.453-.314.233-.059.519-.133.714-.192l.414-.121a30.5 30.5 0 001.638-.545c.544-.2 1.087-.411 1.63-.651.272-.121.544-.247.817-.384l.737-.362c.991-.474 2.022-.93 3.061-1.372 2.08-.883 4.213-1.724 6.369-2.475a59.178 59.178 0 011.621-.54l.3-.094c.158-.054.325-.081.493-.078.028.006.07.015.072.049a.147.147 0 01-.048.074 1.391 1.391 0 01-.144.112c-.1.07-.209.134-.318.2l-3.816 2.179c-2.974 1.692-5.89 3.388-8.634 5.208l-.219.328c-2.041 1.421-2.956 2.169-3.513 2.6l-.5.409-.48.414c-.311.26-.574.52-.968.9-.54.557-1.03 1.16-1.467 1.8l-.001.004zm2.531 7.015c-.6-1.56-1.177-3.128-1.731-4.705l.17.037c.05.014.103.014.154 0l.186-.029.743-.116c.252-.042.565-.144.845-.214s.563-.137.875-.251c.608-.208 1.21-.39 1.827-.633l.631-.248.5-.207.992-.427c2.624-1.161 5.132-2.489 7.624-3.786 1.245-.647 2.487-1.291 3.725-1.873l.273-.125.141-.058a.572.572 0 01.3-.05.09.09 0 01.034.017c.01.009.018.019.023.031a.097.097 0 01.005.038.077.077 0 01-.012.036.462.462 0 01-.089.121 2.284 2.284 0 01-.234.206l-.4.3-.842.6c-.567.393-1.145.779-1.726 1.163-2.329 1.53-4.721 3-7.1 4.519l-1.779 1.153-.887.591-.5.342-.783.552a12.613 12.613 0 00-2.524 2.206c-.188.25-.338.527-.443.822l.002-.012zm3.679 8.8l-.215-.061a9.933 9.933 0 01-.791-2.151 172.446 172.446 0 01-1.966-4.793c.244.108.505.176.772.2a7.648 7.648 0 002.956-.532c.583-.186 1.188-.415 1.754-.629l1.02-.4 1.949-.811c2.578-1.1 5.108-2.244 7.64-3.294 1.262-.518 2.541-1.03 3.776-1.408.13-.048.269-.072.408-.07.087 0 .09.093.078.156a.47.47 0 01-.068.193.854.854 0 01-.116.164 6.808 6.808 0 01-.63.641c-.474.429-.975.827-1.5 1.19-1.058.751-2.229 1.414-3.409 2.147a78.404 78.404 0 00-6.842 4.638c-.543.44-1.088.87-1.61 1.357-.131.121-.266.233-.394.362l-.449.454c-.389.428-.749.88-1.078 1.355a2.843 2.843 0 00-.433 2.541c.089.204.209.393.355.561.134.129.293.231.467.3a2.14 2.14 0 001.166.058 8.322 8.322 0 001.575-.525l.817-.361.521-.242a78.553 78.553 0 001.816-.891c1.2-.6 2.373-1.218 3.544-1.831l3.491-1.83 2.878-1.479.322-.153.158-.072c.052-.012.1-.073.155-.031.055.042.038.111.012.161a.882.882 0 01-.1.149c-.073.09-.151.175-.234.256l-.553.525c-.456.427-.919.849-1.389 1.265-.939.834-1.894 1.65-2.853 2.457-1.664 1.368-5.211 4.222-8.442 6.977l-.2.17-.1.216c-.048.1-.091.2-.131.308a2.772 2.772 0 00-.062.238l-.024.12a1.561 1.561 0 00-.011.193c-.002.067.001.134.009.2a.982.982 0 00.046.233c.054.191.145.37.27.525.121.144.266.266.43.36.117.06.241.109.368.146.255.06.519.073.78.039.156-.019.312-.046.466-.083.461-.12.914-.27 1.356-.45a38.645 38.645 0 002.18-.96l2.977-1.447 6.532-3.58c.57-.311 1.141-.62 1.713-.928-.2.165-.4.331-.6.5-.833.687-1.677 1.358-2.524 2.133l-.592.552c-.18.175-.372.339-.569.5-.385.333-.8.652-1.212.969-1.667 1.276-3.491 2.467-5.164 3.992a13.36 13.36 0 00-2.277 2.632 7.022 7.022 0 00-.451.785l-.106.2a1.854 1.854 0 00-.197.625 1.775 1.775 0 00-.014.164v.129l.008.091a1.128 1.128 0 00.081.313c-2.799-5-5.32-10.151-7.551-15.429l.011.001zm9.557 15.068l.089.041-.089-.041zm-1.465-.827l.55.731-.552-.733.002.002zm-.052-.07l.049.066-.049-.066zm6.544 11.516l-.034.064a1.22 1.22 0 00-.102.295c-.068.31-.022.634.128.913a194.808 194.808 0 01-3.674-5.832l-1.349-1.9a254.234 254.234 0 00-1.874-3.566c.054.082.12.156.194.221a1.171 1.171 0 001.338.159c.244-.147.136-.09.166-.1l.039-.028.077-.058c.412-.3.817-.6 1.246-.875l-.4.286a58.121 58.121 0 015.236-3.195c.234-.116.272-.116.1-.01a87.452 87.452 0 014.648-2.419 134.86 134.86 0 012.668-1.263l.9-.412.254-.109.3-.122c.046-.046.107.03.09.084a.459.459 0 01-.076.159 1.533 1.533 0 01-.228.248l-.117.1-.248.205c-1.964 1.627-4.07 3.1-6 4.5l.4-.31-2.507 1.84-1.251.95c-.13.1-.611.474-.96.775l-.557.467-.5.473-.251.234c-.075.078-.135.154-.2.233l-.393.46a8.816 8.816 0 00-.5.835 2.792 2.792 0 00-.374 1.562c.022.267.117.523.273.741.124.162.284.292.467.382.172.098.366.15.564.152.125.006.233.023.373.02l.482-.067a15.57 15.57 0 002.479-.869l.662-.279.613-.273.9-.408a123.1 123.1 0 002.786-1.329 177.058 177.058 0 005.42-2.783c-2.45 2.037-5.036 3.982-7.546 6.065-.782.654-1.558 1.318-2.319 2.074a8.787 8.787 0 00-1.133 1.333c-.047.07-.1.164-.143.247l-.067.13zm7.811 8.58l-.462.556c-.143.185-.242.37-.366.555a7.005 7.005 0 00-.521.925 185.583 185.583 0 01-6.347-9.151 1.28 1.28 0 001.576.375l.022-.011.043-.021.085-.044.686-.344c1.813-.933 3.557-1.933 5.288-2.936l5.159-3.018c.858-.5 1.716-.992 2.577-1.47l1.293-.711 1.115-.589c.14-.089.297-.149.461-.175a.057.057 0 01.029-.001c.01.003.019.008.026.015a.051.051 0 01.014.026.048.048 0 01-.001.029.481.481 0 01-.033.112 1.373 1.373 0 01-.112.211.487.487 0 01-.078.091l-.221.21c-.35.324-.707.636-1.074.943-.736.611-1.5 1.191-2.3 1.754-.8.563-1.614 1.114-2.441 1.67-.827.556-1.68 1.121-2.508 1.763-.411.322-.817.653-1.21 1.005l-.292.265-.364.35c-.333.318-.614.651-.915.978a12.405 12.405 0 00-2.267 3.7 2.055 2.055 0 00-.088.386 1.541 1.541 0 00-.05.363c-.007.202.013.403.058.6.015.093.039.185.073.273a.893.893 0 00.241.323c.1.022.2.032.3.049.325.031.652.031.978 0 .095.1.628-.278 1.022-.5l1.248-.749 2.508-1.476 1.4-.781c.914-.499 1.836-.989 2.766-1.469a211.15 211.15 0 015.639-2.8l1.611-.761c-.377.3-.773.594-1.182.874a58.004 58.004 0 01-5.44 3.108 43.199 43.199 0 00-5.671 3.4c-.464.348-.91.72-1.335 1.113-.072.071-.3.279-.467.451a9.93 9.93 0 00-.48.542l.007-.008zm4.165 6.347a6.403 6.403 0 00-.744 1.352l-.04.093a1.217 1.217 0 00-.068.286 171.12 171.12 0 01-2.783-3.539l1.076-.285a32.03 32.03 0 003.04-1.3c1.376-.687 2.7-1.458 4-2.257 2.614-1.587 5.151-3.325 7.792-4.826.329-.195.659-.378.991-.549.333-.175.665-.364 1-.516l.854-.409.17-.07c.04-.013.1-.047.134 0a.323.323 0 01-.068.128l-.025.028-.2.208c-.268.252-.537.5-.83.747-.575.49-1.187.963-1.823 1.422-1.268.922-2.615 1.8-3.974 2.69-1.359.89-2.745 1.789-4.114 2.77a21.626 21.626 0 00-3.952 3.458 6.042 6.042 0 00-.438.571l.002-.002zm2.163.525c-.1.116-.206.233-.3.361l-.251.117c.086-.117.182-.23.279-.343.028-.014.058-.025.084-.039l.191-.1-.003.004zm-.992 1.637l-.2-.073.2.073zm-.257-.093l-.262-.1.262.1zm-.338-.1l.033.076-.033-.075a.919.919 0 00.037.083l-.045-.1v.006l.008.01zm2.924 2.875l-.631 1.348a191.723 191.723 0 01-2.408-2.849c.051.009.102.015.154.017a1.37 1.37 0 00.429-.081l.106-.042.019-.009.144-.066a77.405 77.405 0 002.291-1.086 99.14 99.14 0 004.459-2.382 131.25 131.25 0 004.815-2.866l-1.527 1c-1.224.816-2.544 1.691-3.873 2.766-.333.265-.673.525-1 .834l-.891.817a10.03 10.03 0 00-.768.868l-1.319 1.731zm13.06 14.119l-.393.5-.051.065a1.89 1.89 0 00-.145.24 1.366 1.366 0 00-.071.207 120.423 120.423 0 01-3.579-3.273 150.779 150.779 0 01-7.763-8.515l.373-.066.4-.073.2-.036c.034-.007.065-.01.1-.021l.138-.058 1.108-.494 1.112-.5c.392-.211.78-.4 1.18-.645l.878-.513.6-.371c.8-.494 1.574-1.008 2.354-1.52 1.544-1.03 3.055-2.07 4.557-3.051a49.447 49.447 0 014.47-2.673c.367-.205.738-.368 1.108-.538l.15-.07.012-.006.011-.006a.129.129 0 01.058-.019c.026.011 0 .029 0 .043l-.019.025-.052.052-.258.236c-2.062 1.846-4.147 3.276-5.705 4.449-1.575 1.161-2.675 2.036-3.144 2.436 1.706-1.314 3.46-2.479 5.165-3.663-3.149 2.355-6.137 4.354-8.434 7.093a9.862 9.862 0 00-1.861 3.345 2.347 2.347 0 00-.015 1.2c.034.204.128.394.271.544a.75.75 0 00.435.261c.348.109.721.115 1.073.018a9.64 9.64 0 001.585-.672c.553-.285 1.127-.61 1.667-.947l.533-.333.462-.3c2.439-1.609 4.618-3.275 6.808-4.918l1.64-1.229.685-.5c.108-.075.218-.151.336-.219a.547.547 0 01.191-.076c.045-.008.054.035.046.068a.558.558 0 01-.012.1 1.086 1.086 0 01-.186.409 2.465 2.465 0 01-.147.188l-.083.094-.147.153-.212.211c-1.144 1.125-2.491 2.216-3.919 3.388l.717-.627c-.491.385-.918.746-1.62 1.348-.702.602-1.7 1.413-3.227 2.955-.426.436-.824.898-1.193 1.382-.22.289-.424.589-.612.9l-.285.534-.127.295-.064.151-.032.076a1.372 1.372 0 00-.065.244c-.063.351.016.714.219 1.007.078.116.177.218.291.3a1.094 1.094 0 001.251.018l.015-.01.059-.04.49-.341 1.043-.714 2.333-1.617c1.671-1.161 3.585-2.5 5.81-4l1.725-1.153c-.134.122-.259.245-.4.367l-.012-.013c-.412.372-.565.532-.938.85.207-.169.423-.334.625-.505.295-.25.583-.5.864-.758l.116-.107.158-.1-.148.154c-.228.24-.481.466-.719.7a50.56 50.56 0 01-1.553 1.393c-1.093.944-2.322 1.937-3.808 3.17a6.87 6.87 0 01-.962.7 29.099 29.099 0 00-3.471 3.426l.01-.005zm4.134 4.808c-.018.049-.027.1-.04.146-.89-.696-1.768-1.406-2.634-2.131l.019-.007.178-.064c.117-.043.242-.086.35-.133.77-.371 1.504-.816 2.189-1.328a51.37 51.37 0 002.4-1.7c.405-.339.689-.6.933-.817l.331-.309a.52.52 0 00.079-.107c.16-.217.352-.408.569-.568.141-.112.292-.212.45-.3.082-.039.191-.126.291-.034.087.126-.066.285-.157.412.225-.254.33-.382.35-.364.02.018-.058.147-.158.311-.2.327-.515.773-.347.609l-.245.281-.142.162-.068.076-.15.188a166.48 166.48 0 01-2.357 3.216c-.441.583-.9 1.184-1.369 1.761l-.174.216-.048.058-.1.138a1.547 1.547 0 00-.155.289l.005-.001zm7.944-7.835c-.025-.022-.047-.059-.063-.179.048.501.059 1.005.031 1.507l-.186-.474.175 1.549c.04.8.026 1.602-.042 2.4l-.037-.587-.045 7.828-.149.109c.085.647.11 1.3.076 1.952-1.1-.9-2.178-1.825-3.227-2.776a111.282 111.282 0 01-2.342-1.691l.045-.021a5.62 5.62 0 001.068-.749c.3-.257.563-.514.816-.764.5-.5.946-.975 1.348-1.39.332-.356.683-.694 1.052-1.012.101-.088.21-.166.326-.233.02.038.008 0-.009-.07a.236.236 0 00.01.046 1.103 1.103 0 00-.157.08 10.47 10.47 0 00-1.453 1.264 28.827 28.827 0 01-2.3 2.106c-.265.207-.55.385-.852.532-.036.016-.079.03-.117.045-.574-.427-1.144-.861-1.71-1.3.033-.175.103-.341.205-.488l.068-.089.039-.047.076-.086.15-.175.3-.355c.8-.959 1.608-1.983 2.391-2.989l1.983-2.589a84.71 84.71 0 001.543-2.092c.126-.158.234-.33.322-.512a.44.44 0 00.051-.259.441.441 0 00-.109-.241c-.271-.184-.525-.01-.706.072.262-.17.579-.305.809-.142a.35.35 0 01.117.336.816.816 0 01-.117.305l-.477.722c-.2.3-.175.271-.028.07s.427-.574.689-1c.121-.206.155-.52-.028-.648a.533.533 0 00-.46-.051c-.151.091-.288.2-.425.3-.471.269-.928.562-1.368.878-1.334.957-1.585 1.1-2.779 2.032 0 .007.058-.022.1-.048l.181-.165c.153-.1.078-.023-.075.116.05-.012-.074.117-.894.769l.149-.135a21.7 21.7 0 01-4.63 3.15l-.054-.074a.92.92 0 01-.673.121.543.543 0 01-.35-.305.343.343 0 01.011-.274c.046-.079.1-.153.16-.222a17.266 17.266 0 011.755-1.932 68.44 68.44 0 015.294-4.38c.969-.754 1.942-1.516 2.852-2.3.453-.39.891-.784 1.3-1.183a.954.954 0 00.191-.2c-.013.234-.027.491-.038.807.047-.488.117-1.232.148-.105-.015.413-.054.824-.116 1.232.226 1.318.283 2.66.171 3.992l.014.012z" fill="#00F"/><path fill-rule="evenodd" clip-rule="evenodd" d="M32.046.79l10.278.02-.006 2.783-7.262-.014-.007 3.712 5.846.011v2.784l-5.847-.01-.014 6.96-3.016-.007.028-16.24zm12.588 4.57l2.877.006v1.9a4.636 4.636 0 011.535-1.539 3.666 3.666 0 011.926-.542 4.9 4.9 0 011.415.235l-.54 2.667a2.276 2.276 0 00-1.205-.327A2.659 2.659 0 0048.386 9a6.842 6.842 0 00-.89 3.907l-.008 4.153-2.877-.006.023-11.694zM56.4 16.474a5.252 5.252 0 01-2.05-2.16 7.08 7.08 0 01.013-6.173 5.26 5.26 0 012.058-2.153A6.8 6.8 0 0162.776 6a5.243 5.243 0 012.048 2.161 7.08 7.08 0 01-.012 6.172 5.252 5.252 0 01-2.057 2.153 6.794 6.794 0 01-6.357-.013l.003.001zm5.318-2.692a4.486 4.486 0 00.01-5.08 2.724 2.724 0 00-4.27-.009 4.485 4.485 0 00-.01 5.081 2.724 2.724 0 004.27.008zm6.42-8.374l2.877.006v1.88a5.257 5.257 0 011.476-1.54 3.388 3.388 0 011.892-.519 3.494 3.494 0 012.017.607 3.27 3.27 0 011.25 1.813 5.023 5.023 0 011.569-1.772 3.512 3.512 0 012.008-.634 3.4 3.4 0 012.55.956 3.63 3.63 0 01.923 2.647l-.017 8.282h-2.876l.015-7.8c0-1.082-.479-1.624-1.435-1.627a2.083 2.083 0 00-1.824 1.25 7.49 7.49 0 00-.715 3.617l-.01 4.548-2.875-.006.015-7.8c0-1.083-.479-1.625-1.435-1.627A2.082 2.082 0 0071.713 9 8.215 8.215 0 0071 12.815l-.01 4.292-2.878-.007.026-11.692zm29.476 11.5a2.637 2.637 0 01-1.054-.953v1.206l-2.877-.006L93.717.73l2.877.006-.012 5.8a3.17 3.17 0 011.185-.88 3.832 3.832 0 011.648-.368 4.89 4.89 0 013.952 1.644 7.693 7.693 0 01-.017 8.793 4.893 4.893 0 01-3.96 1.627 3.528 3.528 0 01-1.778-.447l.003.003zm3.335-2.963a4.898 4.898 0 00.011-5.255 2.414 2.414 0 00-1.947-.943 2.371 2.371 0 00-1.94.936 4.97 4.97 0 00-.01 5.266 2.47 2.47 0 003.886 0v-.004zM107.357.757l2.876.006-.032 16.423-2.876-.006.032-16.423zm7.079 15.721a3.372 3.372 0 01-.981-2.624l.017-8.352 2.877.006-.018 7.492a2.022 2.022 0 00.449 1.462 1.622 1.622 0 001.217.467 1.913 1.913 0 001.324-.555 3.92 3.92 0 00.977-1.633 7.928 7.928 0 00.377-2.563l.009-4.663 2.877.006-.024 11.692-2.876-.005v-1.88a5.29 5.29 0 01-1.6 1.5 3.861 3.861 0 01-2.02.553 3.708 3.708 0 01-2.608-.906l.003.003zm14.152.04a5.291 5.291 0 01-1.852-2.277 7.226 7.226 0 01.012-5.73 5.295 5.295 0 011.86-2.27 5.358 5.358 0 013.169-.888 5.066 5.066 0 014.866 3.073 6.7 6.7 0 01.574 2.715v1.183l-8.05-.016c.021.693.296 1.354.773 1.858a2.575 2.575 0 001.982.793 2.89 2.89 0 001.637-.438 4 4 0 001.2-1.366l2.318.863a5.294 5.294 0 01-5.319 3.4 5.351 5.351 0 01-3.173-.903l.003.003zm5.685-6.473a3.187 3.187 0 00-.82-1.6 2.25 2.25 0 00-1.681-.629 2.34 2.34 0 00-1.695.646c-.444.42-.738.974-.838 1.576l5.034.007zm5.554-4.49l2.877.006v1.206a2.636 2.636 0 011.058-.949 3.537 3.537 0 011.776-.437 4.884 4.884 0 013.952 1.644 7.698 7.698 0 01-.018 8.792 4.896 4.896 0 01-3.959 1.628c-.57 0-1.132-.128-1.646-.374a3.164 3.164 0 01-1.181-.884l-.012 5.8-2.877-.006.03-16.426zm7.245 8.483a4.898 4.898 0 00.01-5.255 2.415 2.415 0 00-1.947-.944 2.378 2.378 0 00-1.939.936 4.963 4.963 0 00-.759 2.632 4.968 4.968 0 00.749 2.635 2.472 2.472 0 003.023.696 2.47 2.47 0 00.863-.696v-.004zm6.4-8.455h2.876v1.9a4.628 4.628 0 011.534-1.54 3.662 3.662 0 011.927-.54c.48.008.956.087 1.414.234l-.539 2.666a2.278 2.278 0 00-1.205-.327 2.66 2.66 0 00-2.253 1.237 6.825 6.825 0 00-.89 3.907l-.008 4.153-2.877-.006.021-11.684zm9.794-2.022a1.903 1.903 0 01-.273-2.41 1.91 1.91 0 012.314-.726 1.904 1.904 0 01.493 3.24c-.342.28-.771.433-1.213.432a1.8 1.8 0 01-1.327-.539l.006.003zm-.12 2.041l2.877.006-.03 11.692-2.876-.006.029-11.692zm6.125.012l2.877.006V7.5a5.274 5.274 0 011.6-1.5 3.84 3.84 0 012.019-.553 3.702 3.702 0 012.608.91 3.382 3.382 0 01.981 2.623l-.017 8.352h-2.876l.015-7.494a2.038 2.038 0 00-.45-1.463 1.63 1.63 0 00-1.227-.475 1.909 1.909 0 00-1.323.554 3.905 3.905 0 00-.978 1.634 7.874 7.874 0 00-.376 2.563l-.01 4.663-2.873-.014.03-11.686zm14.849 10.818a4.273 4.273 0 01-1.13-3.227l.01-5.1h-1.809V5.646H183l.001-2.93 2.881-1.8-.01 4.733 3.086.006-.005 2.46-3.082-.015-.01 5.057a2.21 2.21 0 00.38 1.474 1.45 1.45 0 001.147.432c.388 0 .77-.094 1.114-.276l.669 2.321a4.502 4.502 0 01-1.9.414 4.372 4.372 0 01-3.157-1.093l.006.003zm14.338.03a4.273 4.273 0 01-1.13-3.228l.01-5.1h-1.81l.005-2.459h1.81l.006-2.924 2.88-1.8-.009 4.732 3.085.007v2.46l-3.085-.007-.01 5.057a2.21 2.21 0 00.379 1.474 1.456 1.456 0 001.148.432c.388 0 .77-.095 1.114-.277l.668 2.322a4.502 4.502 0 01-1.9.414 4.372 4.372 0 01-3.167-1.107l.006.003zm9.163.32a5.238 5.238 0 01-2.048-2.163 7.074 7.074 0 01.012-6.171 5.251 5.251 0 012.057-2.154 6.798 6.798 0 016.357.013 5.261 5.261 0 012.049 2.162 7.08 7.08 0 01-.012 6.171 5.26 5.26 0 01-2.058 2.154 6.805 6.805 0 01-6.357-.013zm5.319-2.693a4.496 4.496 0 00.01-5.08 2.73 2.73 0 00-2.136-1.04A2.722 2.722 0 00208.675 9a4.479 4.479 0 00-.01 5.081 2.722 2.722 0 004.269.01l.006-.002zm12.173-8.363l2.877.006v1.9a4.625 4.625 0 011.535-1.54 3.671 3.671 0 011.926-.542c.48.01.957.088 1.415.235l-.539 2.667a2.279 2.279 0 00-1.206-.327 2.66 2.66 0 00-2.253 1.237 6.832 6.832 0 00-.889 3.907l-.008 4.153-2.877-.006.019-11.69zm11.451 11.01a5.296 5.296 0 01-1.852-2.279 7.224 7.224 0 01.012-5.73 5.285 5.285 0 011.86-2.27 5.356 5.356 0 013.169-.887 5.069 5.069 0 014.866 3.072 6.7 6.7 0 01.574 2.716v1.183l-8.051-.016a2.83 2.83 0 00.774 1.857 2.566 2.566 0 001.982.793 2.88 2.88 0 001.636-.437c.5-.357.91-.825 1.2-1.367l2.318.863a5.294 5.294 0 01-5.319 3.4 5.346 5.346 0 01-3.175-.902l.006.003zm5.685-6.474a3.187 3.187 0 00-.82-1.6 2.264 2.264 0 00-1.681-.63 2.338 2.338 0 00-1.7.647c-.443.42-.738.973-.838 1.575l5.039.008zm5.926 6.461a3.395 3.395 0 01-.992-2.624 3.367 3.367 0 011.328-2.78 5.613 5.613 0 013.575-1.038h2.041v-.51a1.497 1.497 0 00-.577-1.289 2.39 2.39 0 00-1.461-.432 1.965 1.965 0 00-2.021 1.342l-2.435-.562a3.683 3.683 0 011.5-2.352 4.867 4.867 0 012.96-.887 5.022 5.022 0 013.629 1.248 4.858 4.858 0 011.279 3.661l-.014 6.983-2.367-.005-.3-1.485a4.432 4.432 0 01-3.6 1.663 3.6 3.6 0 01-2.551-.936l.006.003zm5.155-2.182a2.183 2.183 0 00.792-1.75v-.232h-1.926a2.52 2.52 0 00-1.474.368 1.303 1.303 0 00-.524 1.136 1.035 1.035 0 00.358.824c.262.218.597.331.939.316.67.007 1.319-.23 1.829-.665l.006.003zm6.709-13.477l2.877.005-.033 16.426-2.882-.009.038-16.422zm6.235 2.7a1.898 1.898 0 01.756-3.176 1.901 1.901 0 11.565 3.713 1.794 1.794 0 01-1.327-.537h.006zm-.12 2.042l2.877.005-.03 11.69-2.876-.006.029-11.689zm7.634 10.8a4.273 4.273 0 01-1.13-3.227l.01-5.1h-1.809l.005-2.459h1.809l.006-2.923 2.881-1.8-.01 4.733 3.086.006v2.46l-3.086-.007-.01 5.057c-.052.52.083 1.043.38 1.474a1.451 1.451 0 001.147.432c.388 0 .77-.094 1.114-.276l.669 2.321a4.5 4.5 0 01-1.9.414 4.368 4.368 0 01-3.168-1.102l.006-.003zm9.906.182L279.471 5.83l2.9.006 2.7 7.337 2.566-7.326 2.877.006-6.065 16.413h-2.784l2.029-5.477z" fill="#00F"/><path fill-rule="evenodd" clip-rule="evenodd" d="M22.836 216.332h-1.49v-7.138h4.092v1.24h-2.6v1.841h2.42v1.235h-2.422v2.822zm8.012-3.969h.489c.369.027.737-.057 1.059-.24a.853.853 0 00.342-.751.78.78 0 00-.35-.723 2.12 2.12 0 00-1.081-.215h-.46v1.929zm0 1.23v2.739h-1.513v-7.138h2.08a3.548 3.548 0 012.153.53 2.114 2.114 0 01.352 2.729 2.3 2.3 0 01-.982.769 265.581 265.581 0 002.1 3.11h-1.68l-1.7-2.739h-.81zm14.068-.84a3.875 3.875 0 01-.88 2.725 3.264 3.264 0 01-2.52.952 3.257 3.257 0 01-2.516-.952 3.889 3.889 0 01-.88-2.734 3.84 3.84 0 01.88-2.723 3.298 3.298 0 012.527-.94 3.255 3.255 0 012.517.948 3.88 3.88 0 01.872 2.724zm-5.21 0a2.98 2.98 0 00.454 1.8 1.588 1.588 0 001.357.606c1.208 0 1.812-.803 1.812-2.408s-.6-2.409-1.8-2.412a1.598 1.598 0 00-1.362.608 2.97 2.97 0 00-.461 1.806zm12.94 1.9h.028l1.792-5.459h2.06v7.138h-1.41v-3.378c0-.16 0-.344.007-.552.007-.208.027-.762.066-1.66h-.044l-1.841 5.59h-1.386l-1.72-5.6h-.043a52.41 52.41 0 01.093 2.28v3.32H48.9v-7.138h2.06l1.69 5.457-.003.002zm-29.786 11.9h.5c.37.027.737-.07 1.045-.276a.968.968 0 00.347-.8.985.985 0 00-.291-.786 1.36 1.36 0 00-.911-.254h-.69v2.116zm3.418-1.133a2.181 2.181 0 01-.72 1.763 3.082 3.082 0 01-2.05.61h-.648v2.539h-1.514v-7.138h2.28a3.033 3.033 0 011.976.559 2.04 2.04 0 01.676 1.667zm3.848 4.912v-7.138h1.513v5.888h2.9v1.25h-4.413zm12.519 0l-.517-1.7h-2.6l-.518 1.7h-1.63l2.519-7.168h1.85l2.53 7.168h-1.634zm-.88-2.968h-1.86c.509-1.644.816-2.674.924-3.091.026.117.069.277.129.478.06.201.33 1.073.808 2.613zm7.214-2.431l3.105 5.4h1.923v-7.138h-1.362v3.379c0 .384.024 1.04.073 1.967h-.034l-3.1-5.346h-1.91v7.138h1.353v-3.359c0-.407-.031-1.088-.093-2.041h.045zm12.509-1.739l-2.661 7.138h-1.353l2.66-7.138h1.354zM27.268 240.7a3.513 3.513 0 01-1 2.7 4.091 4.091 0 01-2.9.937h-2.022v-7.138h2.242a3.77 3.77 0 012.714.923 3.387 3.387 0 01.967 2.578zm-1.571.039c0-1.533-.677-2.3-2.031-2.3h-.806v4.648h.649c1.46-.003 2.19-.788 2.19-2.353l-.002.005zm9.663 3.6h-4.111v-7.138h4.11v1.24h-2.6V240h2.418v1.241h-2.415v1.84h2.6l-.002 1.258zm8.2-1.982a1.847 1.847 0 01-.7 1.523 3.015 3.015 0 01-1.936.557A4.537 4.537 0 0138.91 244v-1.406c.395.183.804.335 1.223.454.298.083.605.127.915.132.268.017.535-.049.765-.19a.65.65 0 00.266-.567.624.624 0 00-.117-.373 1.321 1.321 0 00-.345-.315 8.733 8.733 0 00-.925-.484 4.42 4.42 0 01-.981-.59 2.192 2.192 0 01-.523-.66 1.878 1.878 0 01-.2-.879 1.845 1.845 0 01.642-1.489 2.673 2.673 0 011.775-.542 4.18 4.18 0 011.062.132c.36.097.714.221 1.057.371l-.488 1.177a7.169 7.169 0 00-.945-.327 3.036 3.036 0 00-.735-.093.972.972 0 00-.66.2.66.66 0 00-.23.523.644.644 0 00.094.349c.079.116.181.214.3.288.31.186.63.353.959.5.523.214.991.542 1.372.96.253.34.385.755.372 1.179l-.003.007zm3.794 1.982v-7.138h1.514v7.138h-1.514zm8.52-4.008h2.836v3.7a7.954 7.954 0 01-1.3.315c-.411.06-.827.09-1.242.09a3.144 3.144 0 01-2.469-.95 3.952 3.952 0 01-.852-2.727 3.598 3.598 0 01.989-2.695 3.762 3.762 0 012.742-.967 5.293 5.293 0 012.119.44l-.5 1.211a3.577 3.577 0 00-1.626-.391 2.002 2.002 0 00-1.571.653 2.557 2.557 0 00-.591 1.773 2.852 2.852 0 00.476 1.775 1.644 1.644 0 001.384.612 4.94 4.94 0 00.962-.1v-1.49h-1.353l-.003-1.249zm8.336-1.391l3.105 5.4h1.924v-7.138h-1.36v3.379c0 .384.025 1.04.074 1.967h-.034l-3.1-5.346h-1.91v7.138h1.352v-3.359c0-.407-.031-1.088-.092-2.041h.044-.003zm169.368-22.593h-1.513l.012-5.879h-1.939v-1.26l5.39.011v1.26h-1.939l-.011 5.868zm11.824-3.556a3.872 3.872 0 01-.884 2.723 3.808 3.808 0 01-5.039-.01 3.895 3.895 0 01-.874-2.736 3.845 3.845 0 01.887-2.721 3.3 3.3 0 012.529-.935 3.255 3.255 0 012.515.953 3.88 3.88 0 01.863 2.726h.003zm-5.21-.01a2.981 2.981 0 00.451 1.8 1.594 1.594 0 001.356.609c1.207 0 1.812-.8 1.816-2.4.004-1.6-.596-2.406-1.8-2.416a1.593 1.593 0 00-1.363.6 2.976 2.976 0 00-.46 1.807zm18.65 3.616l-.514-1.7h-2.6l-.521 1.7h-1.63l2.533-7.163h1.851l2.515 7.174-1.634-.011zm-.873-2.97a321.552 321.552 0 01-.8-2.614c-.06-.2-.1-.362-.128-.479-.108.416-.417 1.446-.929 3.089l1.857.004zm12.235 2.993h-1.923l-3.095-5.406h-.044c.06.954.09 1.635.089 2.042l-.007 3.359h-1.353l.015-7.138h1.909l3.09 5.352h.034a42.758 42.758 0 01-.069-1.967l.006-3.379h1.363l-.015 7.137zm-35.037 13.93l-.515-1.7-2.6-.006-.521 1.7H229.9l2.534-7.163h1.85l2.515 7.173-1.632-.004zm-.873-2.971c-.476-1.54-.742-2.411-.8-2.614-.057-.203-.1-.362-.129-.478-.108.416-.417 1.446-.929 3.089l1.858.003zm12.455 2.994h-1.724l-.959-3.752c-.036-.134-.1-.41-.182-.828-.082-.418-.134-.7-.147-.843-.02.176-.069.458-.148.847-.078.388-.139.666-.183.832l-.969 3.738h-1.719l-1.807-7.142h1.49l.905 3.9c.158.72.273 1.344.343 1.871.02-.186.066-.473.136-.862a9.45 9.45 0 01.2-.905l1.048-4h1.431l1.032 4c.045.179.1.453.169.821.069.368.119.683.155.947.033-.254.085-.57.158-.949s.138-.686.2-.92l.916-3.895h1.489l-1.834 7.14zm9.326.019l-4.112-.009.015-7.138 4.111.008v1.24h-2.6v1.567h2.417v1.241h-2.417v1.841h2.6l-.014 1.25zm8.207-1.966a1.837 1.837 0 01-.7 1.522c-.563.4-1.247.595-1.937.553a4.567 4.567 0 01-2.021-.434v-1.406c.395.183.804.336 1.222.456.299.083.607.128.916.134.268.017.535-.049.764-.189a.65.65 0 00.267-.566.619.619 0 00-.116-.374 1.308 1.308 0 00-.344-.315 8.647 8.647 0 00-.924-.486 4.427 4.427 0 01-.98-.592 2.23 2.23 0 01-.521-.661 1.886 1.886 0 01-.194-.879 1.843 1.843 0 01.645-1.488 2.67 2.67 0 011.776-.538c.359-.002.716.043 1.062.134.362.097.715.221 1.056.373l-.49 1.176a6.95 6.95 0 00-.945-.329 2.973 2.973 0 00-.734-.095.975.975 0 00-.66.2.653.653 0 00-.23.522.653.653 0 00.092.35c.079.116.182.214.3.288.309.186.629.353.958.5a3.8 3.8 0 011.37.962c.254.341.383.757.368 1.182zm10.276-1.576a3.872 3.872 0 01-.884 2.723 3.808 3.808 0 01-5.039-.011 3.885 3.885 0 01-.873-2.736 3.837 3.837 0 01.886-2.72 3.3 3.3 0 012.529-.935 3.255 3.255 0 012.515.952c.626.765.935 1.741.866 2.727zm-5.209-.011a2.989 2.989 0 00.45 1.8 1.6 1.6 0 001.356.608c1.208 0 1.814-.8 1.817-2.4.004-1.6-.596-2.405-1.8-2.416a1.596 1.596 0 00-1.364.605 2.97 2.97 0 00-.459 1.803zm12.964 1.926h-.029l-1.678-5.463h-2.061l-.014 7.139h1.352l.007-3.321c0-.382-.029-1.142-.088-2.28h.044l1.707 5.6h1.387l1.852-5.587h.044c-.041.898-.064 1.451-.069 1.66a24 24 0 00-.009.551l-.007 3.379h1.412l.014-7.139h-2.061l-1.8 5.454-.003.007zm12.258 1.7l-4.111-.008.014-7.139 4.111.008v1.241l-2.6-.006v1.568h2.417v1.24h-2.417v1.841h2.6l-.014 1.255zm-59.691 13.88l-4.112-.008.015-7.139 4.111.009v1.24h-2.6v1.567h2.417v1.24h-2.417v1.841h2.6l-.014 1.25zm9.76.02h-1.728l-1.655-2.7-1.665 2.7h-1.622l2.376-3.676-2.21-3.462h1.67l1.533 2.572 1.514-2.565h1.631l-2.248 3.535 2.404 3.596zm4.92-3.77h.5a1.66 1.66 0 001.046-.273.974.974 0 00.348-.8.982.982 0 00-.289-.787 1.358 1.358 0 00-.91-.255h-.689l-.006 2.115zm3.42-1.126a2.18 2.18 0 01-.723 1.762 3.082 3.082 0 01-2.05.606h-.649v2.539h-1.514l.014-7.139h2.28a3.025 3.025 0 011.974.563 2.03 2.03 0 01.668 1.673v-.004zm7.949 4.929l-4.111-.009.014-7.138 4.112.008v1.24h-2.6v1.567h2.417v1.24h-2.417v1.84l2.6.006-.015 1.246zm5.511-3.959v-1.929h.459c.374-.025.747.05 1.081.217a.782.782 0 01.348.723.855.855 0 01-.343.752 1.876 1.876 0 01-1.06.237h-.485zm0 1.23l-.006 2.74h-1.513l.014-7.139h2.08a3.554 3.554 0 012.152.534c.375.338.616.8.679 1.301a2.104 2.104 0 01-.333 1.429c-.25.342-.59.608-.983.767a320.948 320.948 0 002.094 3.115h-1.68l-1.7-2.743-.804-.004zm7.582 2.755l.015-7.139h1.513l-.014 7.139h-1.514zm9.922.02l-4.111-.009.014-7.138 4.111.008v1.24h-2.6v1.567h2.417v1.241l-2.417-.005v1.841h2.6l-.014 1.255zm8.964-1.842l.038.066h.035a42.79 42.79 0 01-.069-1.968v-1.9l-.004 3.802zm0 0l-3.051-5.285h-1.909l-.015 7.139h1.353l.007-3.359c0-.407-.029-1.087-.089-2.041h.044l3.095 5.407h1.923l.015-7.138h-1.363v1.479l-.01 3.798zm8.7-4.1a1.55 1.55 0 00-1.325.639 2.992 2.992 0 00-.472 1.789c-.004 1.592.592 2.389 1.787 2.391a5.679 5.679 0 001.822-.372v1.269a5.07 5.07 0 01-1.963.363 3.011 3.011 0 01-2.381-.95 4.004 4.004 0 01-.82-2.714 4.446 4.446 0 01.409-1.95 2.942 2.942 0 011.167-1.282 3.449 3.449 0 011.781-.443c.726.009 1.44.182 2.089.507l-.491 1.23a7.751 7.751 0 00-.805-.334 2.373 2.373 0 00-.8-.145l.002.002zm9.939 6l-4.112-.008.015-7.139 4.111.008v1.241l-2.6-.006v1.568l2.417.005v1.24h-2.417v1.841h2.6l-.014 1.25z" fill="#222"/></g><defs><clipPath id="clip0"><path fill="#fff" d="M0 0h320v246H0z"/></clipPath></defs></svg>