<svg viewBox="0 0 189.556 32" xmlns="http://www.w3.org/2000/svg"><path d="M5.044 7.714c-.537 3.031.493 7.316 2.9 11.5s5.614 7.211 8.51 8.286v-23c-4.837 0-9.077 1.254-11.436 3.21z" fill="#00f"/><path d="M24.93 19.21c2.419-4.18 3.434-8.465 2.926-11.5C25.5 5.773 21.287 4.5 16.435 4.5v23c2.882-1.075 6.091-4.106 8.51-8.286z" fill="#e9d100"/><path d="M43.84 7.231a8.418 8.418 0 013.9.922 7.044 7.044 0 012.9 2.824 9.337 9.337 0 011.1 4.74 9.327 9.327 0 01-1.1 4.74 7.055 7.055 0 01-2.9 2.826 8.416 8.416 0 01-3.9.92h-5.31V7.231zm3.067 12.814q1.636-1.248 1.637-4.328t-1.637-4.328a6.5 6.5 0 00-4.061-1.248h-1.164v11.153h1.164a6.507 6.507 0 004.061-1.249zm6.746 1.043a7.564 7.564 0 010-5.989 5.53 5.53 0 011.94-2.376 5.6 5.6 0 013.309-.934 5.3 5.3 0 015.092 3.2 7 7 0 01.606 2.837v1.236h-8.413A2.96 2.96 0 0057 21a2.69 2.69 0 002.073.825 3.015 3.015 0 001.709-.461 4.173 4.173 0 001.249-1.431l2.425.9A5.532 5.532 0 0158.9 24.4a5.409 5.409 0 01-5.249-3.31zm7.007-6.074a2.35 2.35 0 00-1.76-.654 2.445 2.445 0 00-1.77.678 2.938 2.938 0 00-.872 1.649h5.261a3.314 3.314 0 00-.859-1.673zm13.705-7.783l3.807 12.559 3.806-12.559h3.492L79.772 24.2h-3.2l-5.7-16.973zM84.62 21.318a6.913 6.913 0 01-.739-3.225 6.921 6.921 0 01.739-3.224 5.491 5.491 0 012.146-2.255 7.1 7.1 0 016.643 0 5.491 5.491 0 012.146 2.255 6.91 6.91 0 01.74 3.224 6.89 6.89 0 01-.74 3.225 5.479 5.479 0 01-2.146 2.255 7.1 7.1 0 01-6.643 0 5.491 5.491 0 01-2.146-2.255zm8.523-3.225a4.243 4.243 0 00-.825-2.654 2.845 2.845 0 00-4.461 0 4.242 4.242 0 00-.824 2.654 4.248 4.248 0 00.824 2.656 2.845 2.845 0 004.461 0 4.249 4.249 0 00.825-2.656zm5.272 3.225a6.913 6.913 0 01-.739-3.225 6.921 6.921 0 01.739-3.224 5.491 5.491 0 012.146-2.255 7.1 7.1 0 016.643 0 5.491 5.491 0 012.146 2.255 6.91 6.91 0 01.74 3.224 6.89 6.89 0 01-.74 3.225 5.479 5.479 0 01-2.146 2.255 7.1 7.1 0 01-6.643 0 5.485 5.485 0 01-2.146-2.255zm8.523-3.225a4.243 4.243 0 00-.825-2.654 2.845 2.845 0 00-4.461 0 4.242 4.242 0 00-.824 2.654 4.248 4.248 0 00.824 2.656 2.845 2.845 0 004.461 0 4.249 4.249 0 00.825-2.656zm7.662-6.109v1.988a4.848 4.848 0 011.6-1.613 3.843 3.843 0 012.012-.569 5.161 5.161 0 011.479.242l-.557 2.789a2.371 2.371 0 00-1.261-.34 2.787 2.787 0 00-2.353 1.3 7.166 7.166 0 00-.921 4.086V24.2h-3.006V11.984zm9.393-4.946v6.91a4.679 4.679 0 011.612-1.565 4.381 4.381 0 012.268-.593 3.974 3.974 0 012.788.933 3.546 3.546 0 011.019 2.752V24.2h-3.007v-7.658a2.533 2.533 0 00-.448-1.649 1.693 1.693 0 00-1.371-.533 2.22 2.22 0 00-1.381.509 3.585 3.585 0 00-1.068 1.552 7.2 7.2 0 00-.412 2.619v5.16h-3.006V7.038zm9.955 14.28a6.913 6.913 0 01-.739-3.225 6.921 6.921 0 01.739-3.224 5.491 5.491 0 012.146-2.255 7.1 7.1 0 016.643 0 5.491 5.491 0 012.146 2.255 6.91 6.91 0 01.74 3.224 6.914 6.914 0 01-.74 3.225 5.491 5.491 0 01-2.146 2.255 7.1 7.1 0 01-6.644 0 5.483 5.483 0 01-2.145-2.255zm8.522-3.225a4.242 4.242 0 00-.824-2.654 2.846 2.846 0 00-4.462 0 4.254 4.254 0 00-.824 2.654 4.248 4.248 0 00.824 2.656 2.846 2.846 0 004.462 0 4.248 4.248 0 00.824-2.656zm5.151 2.996a7.566 7.566 0 010-5.99 5.528 5.528 0 011.939-2.376 5.6 5.6 0 013.31-.933 5.293 5.293 0 015.092 3.2 7 7 0 01.606 2.837v1.236h-8.413a2.964 2.964 0 00.812 1.937 2.693 2.693 0 002.073.824 3.011 3.011 0 001.71-.461 4.163 4.163 0 001.25-1.427l2.425.9a5.534 5.534 0 01-5.555 3.564 5.4 5.4 0 01-5.249-3.311zm7.007-6.075a2.355 2.355 0 00-1.758-.654 2.45 2.45 0 00-1.77.679 2.946 2.946 0 00-.873 1.648h5.262a3.325 3.325 0 00-.861-1.673zm5.418 3.08a7.049 7.049 0 011.394-4.6 4.8 4.8 0 013.94-1.709 4.694 4.694 0 011.9.376 3.26 3.26 0 011.3.933V7.038h3.007V24.2h-3.007v-1.257a2.585 2.585 0 01-1.151 1.006 4.366 4.366 0 01-2.049.449 4.8 4.8 0 01-3.94-1.71 7.05 7.05 0 01-1.394-4.594zm8.8 0a4.292 4.292 0 00-.788-2.752 2.482 2.482 0 00-2.025-.982 2.513 2.513 0 00-2.036.982 4.24 4.24 0 00-.8 2.752 4.255 4.255 0 00.8 2.74 2.58 2.58 0 004.061.012 4.291 4.291 0 00.789-2.752zm4.854 2.995a7.566 7.566 0 010-5.99 5.4 5.4 0 015.249-3.309 5.3 5.3 0 015.092 3.2 7 7 0 01.606 2.837v1.236h-8.414A2.96 2.96 0 00177.05 21a2.686 2.686 0 002.073.824 3.008 3.008 0 001.709-.461 4.173 4.173 0 001.249-1.431l2.425.9a5.535 5.535 0 01-5.553 3.564 5.4 5.4 0 01-5.249-3.309zm7.007-6.074a2.35 2.35 0 00-1.758-.655 2.45 2.45 0 00-1.77.679 2.946 2.946 0 00-.873 1.648h5.261a3.311 3.311 0 00-.856-1.672z" fill="#00f"/><path d="M22.153 8.267A15.8 15.8 0 0020 7.819a7.715 7.715 0 01-.044.985c-.06.746-.15 1.538-.254 2.314a5.885 5.885 0 011.269.552 6.51 6.51 0 01-.224 1.613 10.234 10.234 0 01-1.194 2.836 9.53 9.53 0 01-1.822 2.449 7.64 7.64 0 01-1.3.985 6.569 6.569 0 01-1.284-.985 10.526 10.526 0 01-1.866-2.449 11.2 11.2 0 01-1.194-2.836 5.928 5.928 0 01-.187-1.613 4.877 4.877 0 011.254-.552 43.573 43.573 0 01-.254-2.314c0-.358-.03-.687-.045-1-.746.149-1.463.3-2.135.477a11.187 11.187 0 00-2.794 1.165 12.188 12.188 0 00.4 3.016 20.733 20.733 0 002.209 5.315 21.413 21.413 0 003.494 4.568A12.354 12.354 0 0016.42 24.2a11.607 11.607 0 002.419-1.851 22.1 22.1 0 003.493-4.568 20.5 20.5 0 002.21-5.315 10.977 10.977 0 00.4-3.016 11.926 11.926 0 00-2.792-1.165z" fill="#fff"/></svg>