<svg width="320" height="246" viewBox="0 0 320 246" fill="none" xmlns="http://www.w3.org/2000/svg">
<g clip-path="url(#clip0)">
<path fill-rule="evenodd" clip-rule="evenodd" d="M57.9941 161.697L57.9901 168.137H23.9581L20.3301 175.544H57.9851L57.9801 182.073L71.5641 171.601L57.9941 161.697Z" fill="#0000FF"/>
<path fill-rule="evenodd" clip-rule="evenodd" d="M290.932 161.653L290.928 168.092H256.96L253.268 175.5H290.923L290.918 182.028L304.502 171.557L290.932 161.653Z" fill="#E9D100"/>
<path fill-rule="evenodd" clip-rule="evenodd" d="M160.674 198.909V198.024C160.66 198.307 160.646 198.594 160.63 198.891H160.609C160.634 199.274 160.631 199.659 160.598 200.041L160.674 198.909Z" fill="#0000FF"/>
<path fill-rule="evenodd" clip-rule="evenodd" d="M234.529 93.8121C227.113 89.5403 219.182 86.2325 210.929 83.9691V83.8431C204.965 82.1698 198.894 80.9049 192.759 80.0571C192.813 82.8387 192.687 85.621 192.38 88.3861C191.88 94.6961 191.119 101.386 190.236 107.945C193.982 109.075 197.581 110.642 200.961 112.613C200.901 117.217 200.265 121.795 199.068 126.241C196.934 134.697 193.531 142.781 188.974 150.217C184.987 157.899 179.787 164.887 173.574 170.912C170.222 174.071 166.542 176.862 162.597 179.239C162.179 179.001 161.761 178.752 161.342 178.492V217.815C161.721 218.044 162.097 218.267 162.47 218.483C169.942 214.187 176.815 208.926 182.913 202.835C193.638 192.362 203.859 178.861 212.44 164.222C221.021 149.333 227.583 133.939 231.115 119.301C233.427 111.004 234.574 102.425 234.523 93.8121" fill="white"/>
<path fill-rule="evenodd" clip-rule="evenodd" d="M258.76 79.6002C238.824 63.2002 203.24 52.4692 162.228 52.4692L162.042 178.891L162.228 179.003C166.174 176.626 169.855 173.834 173.207 170.675C179.421 164.651 184.621 157.662 188.607 149.98C193.165 142.543 196.568 134.458 198.7 126C199.898 121.555 200.534 116.976 200.593 112.372C197.214 110.401 193.614 108.835 189.868 107.706C190.751 101.145 191.507 94.4572 192.013 88.1472C192.319 85.3823 192.446 82.6005 192.391 79.8192C198.527 80.6664 204.598 81.931 210.562 83.6042V83.7302C218.816 85.9938 226.747 89.3019 234.162 93.5742C234.214 102.187 233.068 110.766 230.755 119.063C227.222 133.701 220.66 149.098 212.079 163.984C203.498 178.622 193.279 192.124 182.552 202.597C176.451 208.688 169.575 213.95 162.1 218.245L161.983 218.175L161.941 246.456C186.296 237.371 213.712 212.094 234.153 176.763H234.027C254.47 141.426 263.051 105.212 258.76 79.6002V79.6002Z" fill="#E9D100"/>
<path d="M156.806 52.6201C155.367 52.6511 153.773 52.6361 152.101 52.7201C148.754 52.8881 146.816 53.0341 143.338 53.3821C136.371 53.9461 130.232 54.9151 129.095 55.1311L132.681 54.8051L125.106 55.9901C122.861 56.3981 120.83 56.7691 118.851 57.1301C116.885 57.5661 114.971 57.9911 112.944 58.4391C110.925 58.9171 108.82 59.5391 106.438 60.1941L106.956 60.0111C106.606 60.0921 106.3 60.1921 105.799 60.3561C105.299 60.5361 104.611 60.7871 103.483 61.1561C102.362 61.5431 100.783 61.9561 98.5626 62.7011L94.6996 63.9611C93.2186 64.4221 91.5896 65.0821 89.7056 65.7421L89.6976 65.7241C89.1956 65.9542 88.6815 66.1571 88.1576 66.3321L90.7646 65.4211L88.5376 66.4211L85.9636 67.6551C85.7608 67.7612 85.5388 67.8258 85.3106 67.8451L82.8616 68.9871L80.4706 70.2491L78.9356 70.8951C77.4963 71.9409 75.9856 72.8849 74.4146 73.7201C75.9546 73.0461 72.5816 74.9261 73.1216 74.7601L72.1216 75.3151L70.2156 76.6291C69.4862 77.1102 68.7822 77.6289 68.1066 78.1831C66.7596 79.2591 65.5616 80.2361 65.1066 80.6501L66.4556 79.6931C67.2876 79.1211 68.3806 78.2931 69.6056 77.5091L73.3166 75.2561C74.4876 74.5921 75.5326 74.0901 76.1416 73.7781C72.9546 75.5991 75.3256 74.2901 75.9776 73.9781L76.1626 73.8111C77.1168 73.265 78.1037 72.7781 79.1176 72.3531C79.1176 72.3441 79.0766 72.3531 79.0446 72.3531L78.9276 72.4321C78.8276 72.4611 78.8696 72.4201 78.9706 72.3551C78.9336 72.3441 79.0136 72.2781 79.5476 72.0091L79.4476 72.0741C80.2526 71.6351 81.6636 70.9231 82.2806 70.6121L82.3396 70.7001C84.1988 69.6912 86.1266 68.814 88.1086 68.0751C90.7216 67.0681 93.4396 66.1541 94.4476 65.7471C95.5016 65.4471 96.6526 65.0301 97.8676 64.5871C99.0826 64.1441 100.352 63.6541 101.674 63.3071C103.059 62.8597 104.475 62.5102 105.91 62.2611C108.553 61.5951 105.342 62.2801 106.394 61.9841L109.589 61.2901C107.759 61.7901 108.772 61.5821 109.116 61.5351C110.486 61.2021 112.239 60.7291 113.786 60.4351C114.883 60.2466 115.964 59.9755 117.021 59.6241C117.954 59.4491 118.654 59.3131 119.208 59.2071L120.508 59.0251C121.185 58.9341 121.593 58.8811 122.395 58.7371C121.851 58.8001 120.778 58.9651 120.762 58.9261C122.278 58.7361 121.473 58.7701 120.856 58.8671C121.423 58.7381 122.456 58.5591 123.684 58.3581C124.912 58.1571 126.348 57.9281 127.734 57.7791C130.502 57.4461 133.034 57.1091 133.263 56.9791L133.269 57.0211C133.784 56.7881 132.9 56.7211 134.501 56.4451L135.588 56.3961L137.203 56.1361C138.297 56.0651 137.767 56.1721 137.769 56.1941C138.427 56.0941 139.152 56.0061 139.919 55.9151L142.33 55.7261C143.989 55.6101 143.97 55.4881 145.575 55.3761L143.9 55.2001C146.621 55.0251 149.79 55.0451 150.321 54.8661L151.96 54.9421C157.417 55.0821 155.76 54.7321 157.941 54.7711L158.605 54.8011L158.931 54.8171L159.15 54.8341L159.935 54.9031L159.929 54.9571V54.9081L157.956 54.9371L158.75 54.9511L159.224 54.9671L159.836 55.0041C159.81 55.3191 159.789 55.5991 159.766 55.8891C159.739 56.4131 159.712 56.9501 159.681 57.5801V57.6041C159.681 57.5142 159.689 57.4245 159.706 57.3361V57.7181C159.836 58.9405 159.882 60.1704 159.844 61.3991C159.82 64.1311 159.944 66.2691 159.765 70.6321L159.94 71.7211L159.84 74.9981H159.701C159.69 71.7901 159.665 65.7461 159.65 61.6211L159.588 61.5471C159.604 63.9921 159.624 66.7771 159.634 68.3941C159.609 69.1011 159.492 70.7851 159.401 70.0761L159.506 71.2471C159.521 79.4111 159.528 79.4661 159.371 87.9901L159.441 87.2501C159.515 88.5324 159.505 89.8182 159.409 91.0991C159.386 96.2161 159.3 99.7671 159.123 103.089L159.287 103.817C159.159 104.888 159.149 105.971 159.26 107.044L159.332 109.353C159.319 110.83 159.412 111.735 159.318 113.417V113.426C159.312 113.526 159.305 113.637 159.3 113.743C159.3 113.743 159.309 113.734 159.313 113.725C159.241 117.067 159.459 113.692 159.366 117.525C159.249 118.752 159.571 118.883 159.535 120.748L159.302 122.621C159.168 126.003 159.402 126.578 159.402 131.475C159.318 133.827 159.12 134.963 158.941 133.406C159.102 134.671 159.183 135.946 159.184 137.221C159.096 137.658 159.078 137.355 158.998 136.728C158.898 139.249 159.078 138.284 159.072 140.186C159.3 140.766 159.448 141.374 159.513 141.994L159.565 141.258C159.655 143.272 159.696 145.472 159.612 147.814L159.529 147.726L159.571 150.219L159.464 150.375L159.497 153.933L159.526 153.444C159.54 154.28 159.577 157.024 159.52 158.592L159.462 158.533C159.277 162.959 159.52 166.608 159.539 171.792L159.418 171.111C159.298 172.877 159.605 171.595 159.544 173.7L159.396 173.805C159.511 174.825 159.489 175.857 159.331 176.871C159.249 176.807 159.162 176.742 159.06 176.666C159.134 176.733 159.229 176.814 159.328 176.899C159.328 176.952 159.317 176.999 159.312 177.059C158.496 176.459 157.219 175.415 156.063 174.376C155.137 173.463 154.164 172.599 153.149 171.786L153.176 171.756C152.787 171.623 153.115 172.156 152.224 171.456L151.724 170.879L150.864 170.126C150.364 169.542 150.664 169.776 150.676 169.765C149.08 168.198 147.577 166.538 146.176 164.794C146.569 165.505 146.986 166.199 147.401 166.902C146.189 165.419 144.182 162.625 143.844 162.402L143.26 161.402C141.204 158.181 141.569 159.343 140.749 158.054C140.423 157.504 140.121 156.936 139.806 156.379C140.166 156.904 140.511 157.434 140.881 157.95C139.865 156.34 139.496 155.671 138.776 154.334L138.763 154.325C138.796 154.378 138.822 154.435 138.841 154.495L138.696 154.271C138.134 153.624 137.649 152.916 137.248 152.159C136.125 150.328 135.113 148.431 134.215 146.48L133.715 145.88L132.793 143.78L132.917 143.722C133.865 145.743 135.885 149.452 137.343 151.922L137.423 151.934C136.572 150.47 135.575 148.796 135.062 147.793C134.848 147.353 134.421 146.266 134.718 146.639L134.256 145.973C132.956 143.448 132.367 142.145 131.773 140.812C131.179 139.479 130.618 138.097 129.618 135.312L129.74 135.812C129.345 135.013 129.041 134.171 128.834 133.304C127.751 130.333 126.953 127.265 126.453 124.142L126.19 123.689C126.047 122.957 126.09 121.822 125.812 121.508C125.703 120.991 125.601 120.474 125.506 119.955C125.346 119.042 125.254 118.119 125.23 117.192V116.969C125.224 116.969 125.221 116.975 125.217 116.982C125.121 116.126 125.07 115.265 125.065 114.403C125.124 113.893 125.072 113.974 125.013 113.847C124.995 113.802 124.924 113.71 124.955 113.657C125.016 113.59 125.091 113.537 125.176 113.503C125.265 113.487 125.353 113.461 125.438 113.426L125.749 113.326L126.373 113.131C127.433 112.66 128.033 112.351 128.748 111.977C129.756 111.446 130.799 110.983 131.87 110.59C132.398 110.408 132.946 110.287 133.503 110.231C133.648 110.231 133.827 110.216 133.724 110.296C133.578 110.405 133.424 110.503 133.263 110.588C133.448 110.495 133.512 110.454 133.716 110.368L134.263 110.146L134.934 109.889L135.765 109.602L135.922 109.55L136.007 109.521C136.045 109.521 136.066 109.5 136.047 109.463C136.025 109.33 136.003 109.185 135.977 109.022C135.926 108.705 135.864 108.322 135.79 107.856C135.805 107.304 135.873 107.676 136.072 108.562C136.024 108.125 135.986 107.771 135.955 107.478C135.922 107.204 135.897 106.989 135.871 106.807C135.853 106.662 135.824 106.519 135.784 106.378C135.678 106.044 135.609 105.699 135.577 105.349C135.306 104.989 135.105 104.582 134.982 104.149L134.994 104.667C134.701 103.165 134.507 101.645 134.411 100.118L134.501 100.171L134.268 98.4421L134.363 98.3221L134.083 95.8501V96.1931C134.012 95.6141 133.799 93.7081 133.772 92.6111L133.834 92.6451C133.772 89.5611 133.409 87.0201 133.165 83.3851L133.314 83.8521C133.337 83.2291 133.285 83.1521 133.224 83.0351C133.179 82.9543 133.148 82.8663 133.134 82.7751C133.122 82.7051 133.109 82.6141 133.099 82.4961C133.093 82.3541 133.085 82.1821 133.074 81.9601L133.214 81.8121C133.084 81.0077 133.021 80.1939 133.025 79.3791C133.037 79.2197 133.033 79.0596 133.013 78.9011L132.593 78.9411C132.301 78.9701 131.987 79.0051 131.601 79.0621C131.821 79.0841 132.023 79.1111 132.21 79.1391L129.589 79.6231C127.752 79.9321 128.422 79.6111 128.666 79.4571L127.455 79.8571L127.177 79.7411C126.363 79.9965 125.533 80.1969 124.693 80.3411C124.548 80.3061 124.942 80.1831 124.393 80.2711L121.821 81.0801L123.38 80.6281L123.241 80.9151C121.635 81.4601 121.006 81.3821 119.846 81.7151L120.638 81.4581C119.613 81.7323 118.571 81.9418 117.52 82.0851C117.866 82.0491 118.395 81.9941 117.627 82.2131C117.063 82.3641 117.298 82.2021 116.752 82.3051C115.91 82.753 114.996 83.0479 114.052 83.1761C114.062 83.1491 114.081 83.1171 114.159 83.0821C113.827 83.2169 113.483 83.3213 113.133 83.3941L113.408 83.1211L112.395 83.5971C111.669 83.7451 110.695 84.1971 110.746 84.0461L111.134 83.8891C109.356 84.4091 107.592 84.9758 105.843 85.5891L105.72 85.4731C105.268 85.8401 102.851 86.4641 103.12 86.6431C102.082 86.8761 99.3396 88.3111 99.7956 87.8051C98.1116 88.5211 96.8576 89.1731 95.5246 89.8821C94.1916 90.5911 92.7836 91.3331 90.8006 92.3821L90.4946 92.5101C90.3876 92.5551 90.1136 92.7011 89.9066 92.8101L89.1856 93.1931C89.0746 93.2691 88.8946 93.3101 88.8316 93.4261C88.8316 93.5751 88.8316 93.7261 88.8236 93.8811C88.8066 95.4171 88.7986 95.8951 88.8176 96.7721C88.8506 98.4181 88.9686 100.218 89.0706 101.645C89.5825 106.582 90.4257 111.479 91.5946 116.302C91.9886 119.737 93.8056 124.538 94.7376 128.083L95.1736 128.999C95.7076 131.39 97.1866 134.82 98.2146 138.084C98.5706 138.846 98.7456 139.251 98.8206 139.429C98.7533 139.28 98.733 139.113 98.7626 138.952C99.0496 139.885 99.8746 141.684 99.6576 141.62L99.5486 141.397C99.3236 141.334 100.749 144.106 101.049 145.165L100.985 144.542C101.213 145.115 101.452 145.684 101.692 146.251L101.458 145.813C103.246 149.413 104.476 152.05 105.695 154.63C107.015 157.478 108.506 160.243 110.16 162.911C109.494 162.14 110.983 164.153 110.84 164.346C111.559 165.887 112.461 167.336 113.526 168.662C113.535 168.662 113.556 168.662 113.616 168.734L115.016 171.067C113.916 169.842 116.26 172.602 115.262 171.467C119.539 178.468 124.314 185.151 129.55 191.467L129.375 191.144C130.694 192.762 132.447 194.676 133.412 195.935C134.298 196.971 135.263 197.936 136.3 198.821C136.99 199.413 137.592 200.1 138.089 200.862C139.372 202.132 140.749 203.181 142.483 204.998C143.348 205.951 144.294 206.827 145.31 207.617C146.191 208.255 147.007 208.978 147.748 209.775H147.785C150.199 212.043 152.854 213.709 155.676 215.875C155.617 215.853 155.558 215.827 155.501 215.799C156.731 216.465 157.978 217.088 159.234 217.693C159.248 217.945 159.278 218.087 159.334 218.028C159.195 219.505 159.434 223.842 159.145 222.974C159.123 228.116 159.4 230.894 159.262 237.146C159.107 238.194 159.046 239.254 159.082 240.312C159.082 240.907 159.082 241.532 159.076 242.137C159.096 242.217 159.028 242.165 158.987 242.152C158.877 242.105 145.166 236.91 115.292 209.527C112.828 206.621 112.492 206.441 111.667 205.137L112.047 205.911L110.447 203.858L110.91 204.38C109.068 202.237 107.496 200.37 106.186 198.56C104.858 196.76 103.617 195.153 102.519 193.469C101.39 191.804 100.276 190.159 99.0696 188.382C97.9026 186.575 96.6126 184.662 95.1066 182.471C96.0066 183.571 93.9406 180.731 94.0576 180.496C92.9286 178.053 91.4186 176.296 90.3196 174.39C90.3116 174.396 90.2876 174.378 90.2116 174.277L88.3736 170.905C89.7296 172.778 86.8316 168.594 88.0606 170.321C86.9316 168.075 85.7276 165.674 84.4606 163.163C83.2756 160.612 81.9756 157.98 80.7696 155.253C79.5906 152.512 78.3346 149.753 77.2776 146.936C76.7366 145.536 76.1616 144.146 75.6646 142.747C75.1676 141.348 74.7026 139.957 74.2286 138.586L74.3286 139.086L73.5606 136.914C73.3216 136.161 73.0796 135.397 72.8446 134.654C72.3776 133.167 71.9446 131.761 71.6706 130.681C71.1876 128.505 70.2236 126.028 69.9846 125.196C69.5717 123.97 69.3055 122.7 69.1916 121.411C68.8996 120.229 68.5596 119.083 68.2466 117.816C67.9416 116.457 67.6306 114.969 67.3566 113.177C67.3216 112.555 66.9486 110.117 66.5716 107.818C66.4806 107.242 66.3906 106.675 66.3086 106.149C66.2496 105.617 66.2016 105.127 66.1586 104.709C66.0724 104.235 66.0569 103.751 66.1126 103.273L66.0876 103.237C65.675 99.1805 65.5714 95.0984 65.7776 91.0261C65.7776 91.0261 65.7896 91.1211 65.7946 91.2901L65.7756 86.3291L66.0756 81.3571L66.0876 81.1671L65.9266 81.1801L65.6746 81.2001L65.9266 81.2781L65.9996 81.2991L65.9806 81.3411L64.8046 83.8611L64.3136 86.0611L63.9586 88.2821C63.7416 89.7661 63.4476 91.2561 63.3456 92.7531C63.2414 100.294 63.9773 107.822 65.5396 115.2C66.0206 118.393 66.7396 121.537 67.4096 124.7C68.2096 127.821 68.9256 130.974 69.8906 134.052C74.6204 149.013 80.9735 163.412 88.8366 176.99C89.4366 177.936 90.0916 178.847 90.7176 179.776C91.8386 181.791 93.0326 183.959 94.4406 186.102C95.8216 188.26 97.2406 190.507 98.8076 192.68L101.117 195.98C101.895 197.075 102.717 198.132 103.5 199.201C104.283 200.27 105.068 201.325 105.839 202.368C106.626 203.391 107.401 204.398 108.165 205.389L108.428 205.442C109.132 206.292 109.792 207.178 110.405 208.096C143.052 241.539 160.075 245.684 161.292 246.186L161.767 246.386L161.887 246.434L161.945 246.459V245.114V243.072C161.966 239.899 161.987 239.103 162.006 236.028C162.123 233.78 162.054 226.94 162.174 225.177C161.963 217.604 161.966 209.577 161.988 201.998L162.006 202.285L161.973 198.712C161.987 198.561 162.008 198.543 162.02 198.658C161.868 194.628 162.02 188.281 162.079 183.347L162.098 183.638C162.129 154.856 161.806 128.138 162.048 99.5881C162.328 86.3151 161.941 72.6251 162.176 57.3971C162.188 57.1801 162.2 56.7971 162.21 56.2591C162.217 55.2841 162.225 54.0431 162.234 52.5591C160.71 52.5721 158.866 52.5941 156.806 52.6201V52.6201ZM159.485 176.864V176.964L159.459 176.944L159.485 176.864ZM159.449 176.974L159.483 177.003V177.05C159.446 177.026 159.449 177.039 159.483 177.075V177.156L159.409 177.103L159.449 176.974ZM159.433 179.636C159.361 181.807 159.193 180.873 159.095 180.505L159.249 182.305L159.077 182.655C159.277 183.971 159.045 183.971 159.152 186.281C159.087 186.471 159.052 185.887 159.023 186.671L159.265 190.478L159.157 188.178L159.409 188.458C159.587 190.692 159.409 191.58 159.441 193.081H159.43L159.377 192.232C159.384 192.545 159.388 192.822 159.391 193.074C159.353 193.07 159.316 193.07 159.279 193.074C159.015 193.118 158.766 193.223 158.551 193.38L158.013 193.73L156.371 194.824C154.753 195.867 152.994 197.114 151.146 198.44L148.313 200.468L146.855 201.489L146.115 201.989L145.742 202.238L145.732 202.244L145.772 202.153C145.847 201.972 145.935 201.797 146.035 201.628C146.205 201.332 146.396 201.048 146.606 200.779C146.908 200.388 147.235 200.017 147.584 199.667C147.898 199.343 148.232 199.038 148.584 198.755C148.965 198.467 148.974 198.478 150.461 197.286C154.208 194.312 149.641 197.815 151.127 196.601C152.636 195.427 154.182 194.285 155.636 192.981C154.388 194.132 154.086 194.366 154.189 194.314C154.292 194.262 154.768 193.875 155.012 193.68C155.361 193.373 155.725 193.038 156.095 192.68C156.188 192.593 156.278 192.498 156.37 192.406L156.739 192.025C156.972 191.75 157.239 191.475 157.451 191.188C157.872 190.66 158.227 190.082 158.508 189.467C158.741 188.925 158.896 188.353 158.97 187.767C158.94 187.565 158.898 187.364 158.845 187.167C158.845 187.067 158.728 186.953 158.623 186.922C158.529 186.889 158.43 186.873 158.331 186.876C157.954 186.893 157.582 186.972 157.231 187.109C156.272 187.527 155.369 188.065 154.545 188.709C153.559 189.421 153.22 189.691 152.772 190.04C152.364 190.363 152.057 190.619 151.88 190.786C149.18 192.778 147.816 193.735 146.826 194.402C145.836 195.069 145.226 195.466 144.056 196.202C144.446 195.98 145.056 195.596 145.556 195.278L146.198 194.87C146.285 194.807 146.378 194.753 146.475 194.707C144.241 196.147 145.44 195.445 146.346 194.842C145.938 195.142 145.355 195.542 144.636 196.008L144.104 196.343L143.758 196.543C143.525 196.678 143.272 196.811 143.011 196.933C142.881 196.991 142.748 197.049 142.611 197.099C142.542 197.124 142.474 197.148 142.404 197.168C142.333 197.217 142.257 197.154 142.235 197.077C142.162 196.922 142.285 196.765 142.321 196.613C142.383 196.463 142.453 196.317 142.53 196.174C142.681 195.898 142.859 195.636 143.061 195.394L143.217 195.208L143.508 194.878C143.708 194.658 143.917 194.45 144.12 194.236C145.701 192.764 147.385 191.406 149.159 190.172C150.605 189.122 151.603 188.381 151.747 188.212L151.768 188.24C152.444 187.54 151.147 188.379 153.376 186.553C153.893 186.172 154.401 185.776 154.901 185.365C155.087 185.19 155.239 185.053 155.452 184.84C155.665 184.627 155.893 184.407 156.1 184.179C156.504 183.759 156.872 183.305 157.2 182.823C157.383 182.554 157.544 182.271 157.681 181.976C157.722 181.904 157.755 181.828 157.781 181.749C157.816 181.749 157.757 181.938 157.762 181.933C157.902 181.721 157.762 181.309 157.515 181.073C157.401 180.948 157.255 180.856 157.094 180.807C156.938 180.79 156.781 180.795 156.627 180.822C156.302 180.856 155.986 180.872 155.64 180.922L154.394 181.352C154.184 181.426 153.973 181.488 153.758 181.585L153.179 181.847C152.859 182.001 152.521 182.134 152.207 182.309C151.565 182.641 150.907 182.981 150.277 183.358C147.711 184.833 145.197 186.581 142.835 188.133C144.568 187.133 146.295 186.104 148.052 185.133C146.008 186.382 143.224 188.265 140.778 189.746C140.47 189.929 140.178 190.12 139.878 190.283L139.186 190.674C138.774 190.904 138.386 191.09 138.059 191.265L137.181 191.673C136.988 191.747 136.799 191.831 136.615 191.925L136.4 192C136.331 192.017 136.257 192.051 136.185 192C136.145 191.977 136.114 191.942 136.096 191.9C136.077 191.858 136.074 191.812 136.085 191.767L136.256 191.501C136.457 191.162 136.685 190.84 136.938 190.538C137.17 190.227 137.426 189.935 137.704 189.663C137.91 189.443 138.131 189.236 138.363 189.042C138.521 188.916 138.838 188.61 139.104 188.41L139.835 187.835L141.617 186.473C142.413 185.818 143.254 185.22 144.134 184.683C145.5 183.837 146.875 182.998 148.216 182.07C146.91 183.03 145.565 183.907 144.231 184.787C146.256 183.507 147.677 182.577 148.951 181.63C150.348 180.651 151.597 179.475 152.659 178.139L152.683 178.101C152.508 178.323 152.392 178.463 152.363 178.488L152.792 177.916C152.937 177.675 153.068 177.427 153.187 177.172L153.498 176.572C153.573 176.43 153.633 176.281 153.677 176.126L153.712 175.938C153.726 175.86 153.729 175.779 153.72 175.7C153.712 175.584 153.682 175.47 153.632 175.365C153.562 175.226 153.457 175.108 153.327 175.024C153.253 174.981 153.174 174.948 153.093 174.924C152.663 174.482 152.233 174.039 151.81 173.589C154.222 175.762 156.768 177.781 159.433 179.636V179.636ZM149.841 172.072C149.941 172.167 150.041 172.266 150.132 172.357C151.299 173.469 152.28 174.33 152.919 174.87C152.852 174.864 152.789 174.864 152.732 174.863C152.615 174.871 152.499 174.89 152.386 174.921C152.2 174.972 152.019 175.039 151.845 175.121C151.677 175.197 151.515 175.281 151.345 175.373C151.263 175.42 151.179 175.473 151.088 175.528C150.962 175.611 150.923 175.644 150.842 175.703C150.265 176.126 149.626 176.582 148.935 177.062C146.969 178.416 145.203 179.607 143.103 180.935C140.538 182.57 137.891 184.072 135.172 185.435C134.636 185.775 134.093 186.098 133.55 186.426L133.05 186.656C133.173 186.513 133.302 186.379 133.431 186.248C134.947 185.496 136.543 184.638 138.158 183.713C141.832 181.613 145.558 179.195 148.517 177.143L148.591 177.026C145.091 179.467 140.984 182.072 138.53 183.456C137.33 184.137 134.183 185.676 136.384 184.401C135.634 184.854 134.884 185.301 134.118 185.726L133.779 185.895C134.143 185.546 134.516 185.224 134.879 184.927C136.409 183.731 138 182.614 139.645 181.582C141.184 180.582 142.774 179.599 144.719 178.221C145.205 177.877 145.71 177.496 146.235 177.078C146.499 176.868 146.766 176.642 147.035 176.405L147.444 176.032C147.514 175.971 147.581 175.902 147.65 175.832L147.897 175.586C148.745 174.759 149.391 173.746 149.784 172.628L149.884 172.257L149.841 172.072ZM133.015 186.284C133.115 186.184 133.215 186.074 133.315 185.972L133.398 186.053C133.373 186.078 133.349 186.105 133.325 186.13C133.222 186.18 133.116 186.235 133.015 186.284V186.284ZM145.215 169.143L145.225 169.128C145.338 168.956 145.458 168.778 145.575 168.603C145.563 168.609 145.553 168.618 145.545 168.628C145.653 168.453 145.737 168.271 145.824 168.109L145.896 167.971C146.865 169.045 147.834 170.064 148.747 170.987C148.493 170.918 148.23 170.889 147.968 170.9C148.251 170.897 148.533 170.945 148.8 171.041L148.848 171.088C148.622 171.013 148.385 170.975 148.148 170.975C147.641 170.983 147.141 171.088 146.674 171.282L145.158 171.882C145.062 171.918 144.969 171.959 144.879 172.006L144.653 172.115L144.218 172.324C143.091 172.875 142.249 173.343 141.862 173.512C137.904 175.787 134.189 178.466 130.562 180.312C130.097 180.577 129.611 180.8 129.108 180.98C129.024 181.008 128.938 181.03 128.851 181.045C128.814 181.045 128.77 181.082 128.744 181.036C128.718 180.99 128.752 180.942 128.775 180.902C128.856 180.757 128.96 180.626 129.085 180.516L129.159 180.457L129.192 180.435L129.387 180.255C129.663 180.028 129.924 179.803 130.203 179.606C130.481 179.324 130.787 179.056 131.089 178.785C132.571 177.754 135.162 176.633 135.889 176.028C137.07 175.377 138.269 174.721 139.453 174.005C140.486 173.413 141.474 172.747 142.411 172.012C143.477 171.19 144.424 170.224 145.225 169.141L145.215 169.143ZM140.665 163.164C140.821 162.785 140.916 162.384 140.949 161.975C141.979 163.348 143.141 164.812 144.368 166.226C144.258 166.248 144.15 166.277 144.045 166.314L143.679 166.478L142.885 166.851C142.548 167.016 142.535 167.038 142.501 167.071C141.43 167.655 140.328 168.181 139.201 168.645C137.209 169.497 137.116 169.83 134.166 171.28C133.154 171.72 132.146 172.171 131.142 172.633L129.734 173.371L128.751 173.909C128.608 173.988 128.469 174.075 128.335 174.168L127.835 174.529L127.758 174.587C127.735 174.608 127.696 174.634 127.683 174.601C127.65 174.559 127.671 174.516 127.683 174.471C127.709 174.364 127.747 174.261 127.796 174.163C127.88 173.994 127.983 173.836 128.105 173.692C128.18 173.6 128.259 173.511 128.344 173.427L128.415 173.358C128.495 173.281 128.575 173.203 128.662 173.128C128.831 172.974 129.004 172.816 129.192 172.661C129.85 172.125 130.542 171.631 131.264 171.182C131.871 170.804 132.348 170.524 132.647 170.366C133.247 170.047 133.133 170.219 132.047 171.04L134.376 169.3C134.843 168.933 135.484 168.562 137.467 166.894C138.12 166.427 137.722 166.816 136.867 167.583C137.516 167.089 138.139 166.561 138.732 166L138.921 165.821C139.002 165.745 139.085 165.666 139.151 165.592L139.501 165.176C139.691 164.971 139.862 164.748 140.01 164.51C140.262 164.079 140.481 163.629 140.665 163.164V163.164ZM130.789 145.114L130.863 144.962C132.654 148.604 134.629 152.216 136.754 155.774C137.713 157.417 138.761 159.007 139.894 160.535C139.645 160.492 139.392 160.492 139.144 160.535C138.345 160.684 137.577 160.964 136.87 161.363C137.418 161.078 138.008 160.883 138.619 160.786C137.983 160.922 137.372 161.153 136.806 161.471L135.86 161.943L135.247 162.276C134.426 162.722 133.601 163.191 132.76 163.666L127.57 166.633L127.67 166.494L124.43 168.402C125.538 167.496 126.698 166.602 127.594 165.916L127.546 166.016C129.096 164.845 130.574 163.709 131.999 162.516C132.712 161.916 133.412 161.308 134.099 160.656C134.829 159.984 135.489 159.24 136.069 158.435C136.238 158.187 136.381 157.922 136.497 157.645C136.531 157.567 136.561 157.488 136.588 157.407L136.655 157.116L136.683 156.968L136.69 156.923C136.694 156.866 136.694 156.809 136.69 156.752C136.682 156.655 136.662 156.559 136.631 156.466C136.54 156.189 136.352 155.954 136.103 155.804C135.919 155.69 135.706 155.632 135.49 155.637C135.31 155.641 135.135 155.69 134.98 155.78L134.907 155.826L134.762 155.92L134.471 156.107L133.878 156.48C133.078 156.98 132.245 157.466 131.385 157.96C129.662 158.946 127.818 159.942 125.803 160.972L126.814 160.34C124.021 161.64 126.139 160.88 122.821 162.453L122.602 162.419C121.892 162.804 121.302 163.104 120.777 163.345C120.453 163.496 120.439 163.499 120.316 163.545C120.245 163.574 120.172 163.598 120.098 163.617C119.934 163.659 119.766 163.674 119.598 163.661C119.574 163.691 119.557 163.726 119.55 163.763C119.542 163.8 119.542 163.839 119.552 163.876C119.452 163.91 119.352 163.945 119.252 163.969C119.202 163.982 119.15 163.99 119.099 163.993C119.041 164.005 119.008 163.935 119.02 163.876C119.082 163.657 119.203 163.458 119.369 163.301C119.545 163.131 119.741 162.984 119.953 162.862C119.977 162.849 120.001 162.837 120.027 162.827C120.05 162.816 120.072 162.802 120.093 162.787L120.171 162.739C120.264 162.68 120.313 162.661 120.331 162.665C120.366 162.673 120.272 162.782 120.143 162.918C120.131 162.933 120.124 162.951 120.122 162.969C120.12 162.988 120.122 163.007 120.13 163.024L120.146 162.991C120.151 162.98 120.158 162.971 120.168 162.963L120.315 162.837L120.915 162.337L122.13 161.346L122.713 161.098C124.47 159.59 124.602 159.793 127.813 157.245C128.113 157.08 127.313 157.745 128.431 156.902C128.867 156.536 129.3 156.166 129.731 155.781C129.866 155.66 130.36 155.221 130.71 154.875C130.893 154.695 131.094 154.519 131.261 154.34L131.751 153.804C131.906 153.642 132.049 153.468 132.178 153.283C132.299 153.115 132.444 152.939 132.544 152.783C132.722 152.499 132.871 152.197 132.989 151.883C133.052 151.7 133.101 151.511 133.133 151.32C133.071 151.638 132.968 151.947 132.827 152.239C132.313 153.152 131.653 153.974 130.874 154.673C131.014 154.465 131.136 154.245 131.238 154.015C131.872 153.387 132.381 152.643 132.738 151.824C132.968 151.346 133.005 150.798 132.843 150.293C132.777 150.16 132.692 150.038 132.589 149.931C132.545 149.883 132.493 149.841 132.437 149.808C132.401 149.8 132.365 149.795 132.329 149.792L131.918 149.741C131.849 149.732 131.789 149.72 131.718 149.714L131.372 149.757L130.677 149.841C129.644 150.294 128.545 150.774 127.291 151.366L130.533 149.843L124.78 152.456C123.842 152.875 123.142 153.174 121.88 153.773C122.671 153.423 123.88 152.893 122.103 153.803C120.803 154.47 121.359 154.095 120.113 154.703C119.481 155.161 118.818 155.574 118.13 155.941C119.499 154.903 120.967 153.912 122.388 152.757C122.616 152.562 122.848 152.375 123.074 152.173L123.727 151.573C124.11 151.212 124.54 150.851 124.971 150.493L127.634 148.314L127.864 148.284C128.119 148.003 128.664 147.525 129.305 146.904C129.659 146.567 129.993 146.21 130.305 145.834C130.487 145.606 130.651 145.364 130.795 145.109L130.789 145.114ZM129.215 141.491C129.402 141.899 129.606 142.307 129.798 142.716C129.721 142.714 129.645 142.718 129.57 142.728C129.421 142.746 129.275 142.776 129.132 142.818C128.907 142.882 128.724 142.949 128.56 143.013C128.231 143.142 127.96 143.264 127.748 143.368C127.32 143.575 127.106 143.708 127.223 143.707C124.757 144.741 118.204 148.572 119.423 147.622C117.593 148.599 115.968 149.473 114.423 150.269C116.152 148.829 118.077 147.245 120.323 145.347C121.099 144.738 122.189 143.837 123.436 142.682C123.536 142.593 123.888 142.252 124.167 141.982C124.446 141.712 124.745 141.403 125.019 141.103C125.541 140.561 126.006 139.966 126.404 139.327C126.673 138.901 126.827 138.413 126.85 137.909C126.855 137.695 126.821 137.481 126.75 137.279C126.646 137.003 126.466 136.762 126.231 136.584C126.162 136.531 126.087 136.488 126.006 136.457C125.953 136.432 125.876 136.408 125.806 136.383L125.57 136.314L125.278 136.256C125.161 136.238 125.054 136.21 124.931 136.198L124.359 136.398L123.059 137.007L121.732 137.657L120.471 138.291L119.084 139.004L113.937 141.704C112.421 142.51 110.976 143.278 109.578 143.971L108.541 144.471C108.497 144.492 108.452 144.51 108.406 144.525C108.395 144.531 108.383 144.534 108.371 144.534C108.359 144.534 108.347 144.531 108.337 144.525C108.325 144.52 108.316 144.512 108.308 144.503C108.3 144.493 108.295 144.482 108.293 144.47C108.291 144.424 108.298 144.378 108.314 144.334C108.331 144.291 108.356 144.252 108.388 144.218L108.434 144.16L108.571 144.017C108.792 143.776 109.062 143.551 109.307 143.317C110.352 142.407 111.445 141.552 112.581 140.758C113.72 139.947 114.899 139.171 116.107 138.396C117.315 137.621 118.557 136.896 119.885 136.033C120.562 135.589 121.213 135.108 121.837 134.591C122.169 134.318 122.486 134.026 122.786 133.717C122.863 133.636 122.943 133.562 123.019 133.474L123.295 133.151C123.508 132.877 123.702 132.588 123.873 132.286C123.965 132.148 124.037 131.998 124.086 131.839L124.257 131.388L124.327 130.946L124.361 130.725C124.361 130.653 124.355 130.581 124.353 130.51C124.35 130.367 124.34 130.224 124.324 130.082L124.179 129.696C124.157 129.556 124.004 129.466 123.916 129.366C123.817 129.276 123.703 129.203 123.58 129.151C122.989 128.931 122.346 128.897 121.735 129.051C121.366 129.123 121.002 129.214 120.643 129.322C120.365 129.405 120.187 129.464 119.957 129.54C115.778 130.818 111.057 133.189 106.148 135.162L105.682 135.349C105.543 135.403 105.401 135.446 105.256 135.476C105.181 135.497 105.102 135.493 105.03 135.465C104.956 135.416 105.008 135.332 105.043 135.283C105.13 135.174 105.231 135.076 105.343 134.992C105.456 134.901 105.576 134.814 105.693 134.731L106.28 134.331L107.051 133.825C108.076 133.161 109.086 132.535 110.058 131.947L112.108 130.524C113.413 129.756 114.879 128.859 116.441 127.832C117.222 127.317 118.026 126.77 118.841 126.168C119.532 125.668 120.191 125.125 120.814 124.541C121.303 124.102 121.689 123.561 121.945 122.956C122.032 122.727 122.079 122.485 122.086 122.24C122.092 121.941 121.994 121.649 121.807 121.415C121.624 121.199 121.386 121.038 121.118 120.948C121.001 120.898 120.881 120.869 120.762 120.831C120.643 120.793 120.493 120.795 120.362 120.777C119.62 120.773 118.884 120.909 118.192 121.177C117.775 121.319 117.337 121.507 116.909 121.677L115.929 122.123C113.939 123.063 112.021 124.074 110.118 125C108.3 125.991 107.336 126.472 106.911 126.684C107.252 126.509 107.61 126.371 107.981 126.272C106.894 126.784 105.261 127.566 103.914 128.111L103.425 128.311L103.098 128.433C103.03 128.457 102.961 128.476 102.892 128.491C102.783 128.515 102.749 128.499 102.792 128.445L102.92 128.387C102.947 128.328 102.852 128.354 102.686 128.406C102.603 128.433 102.496 128.464 102.369 128.499C102.339 128.505 102.299 128.524 102.269 128.499C102.269 128.474 102.289 128.452 102.299 128.428C102.327 128.378 102.358 128.33 102.394 128.285C102.489 128.161 102.598 128.047 102.718 127.945C102.644 128.006 103.431 127.356 103.788 127.113L103.181 127.504L102.881 127.704C102.84 127.734 102.798 127.761 102.755 127.786L102.704 127.804L103.441 127.204L104.326 126.521C104.926 126.073 105.536 125.637 106.158 125.213L105.189 125.935C108.393 123.616 111.73 121.486 115.183 119.556L117.476 118.243L118.593 117.602C119.154 117.278 119.8 116.896 120.379 116.544C120.958 116.192 121.522 115.822 121.99 115.471C122.164 115.341 122.331 115.201 122.49 115.053C122.496 115.333 122.503 115.612 122.514 115.893C122.56 117.161 122.664 118.426 122.814 119.684C123.116 122.216 123.575 124.726 124.188 127.201C125.389 132.114 127.073 136.897 129.214 141.479L129.215 141.491ZM95.4586 120.282C95.4137 120.388 95.3783 120.499 95.3526 120.611C95.0686 119.573 94.7963 118.536 94.5356 117.499C93.4909 113.249 92.7186 108.936 92.2236 104.587C91.9846 102.458 91.8236 100.346 91.7426 98.2651C91.7036 97.2301 91.6796 96.1781 91.6806 95.1801C91.6806 95.0941 91.6736 94.9991 91.7806 94.9801C92.1373 94.7854 92.4926 94.5924 92.8466 94.4011L96.3126 92.6721C97.6836 92.0021 99.0416 91.3961 99.6226 91.2031C104.43 88.8506 109.461 86.9827 114.639 85.6271L114.452 85.6961L116.843 85.0471C116.949 85.0351 116.967 85.0471 116.893 85.0841C119.575 84.2481 123.939 83.4311 127.332 82.7981L127.138 82.8561L130.413 82.1911L130.501 82.1741L130.544 82.1641C130.551 82.1711 130.544 82.1911 130.55 82.2041L130.585 82.7411C130.741 85.2244 130.898 87.6934 131.056 90.1481C131.406 95.0871 131.949 99.9481 132.576 104.786L132.937 107.474C132.972 107.542 132.879 107.528 132.843 107.552L132.552 107.652C131.96 107.852 131.37 108.06 130.783 108.278C129.613 108.72 128.458 109.204 127.319 109.729C126.751 109.996 126.187 110.269 125.627 110.549L124.793 110.979L123.893 111.464L123.165 111.873L122.801 112.073L122.618 112.173L122.527 112.224C122.523 112.257 122.521 112.291 122.521 112.324V112.499C122.334 112.431 122.139 112.386 121.942 112.364C121.688 112.331 121.432 112.317 121.177 112.322C121.039 112.322 120.866 112.346 120.711 112.357C120.543 112.367 120.376 112.387 120.211 112.415C119.855 112.474 119.503 112.532 119.111 112.628C118.732 112.709 118.338 112.812 117.937 112.928C117.536 113.044 117.13 113.155 116.745 113.274L116.03 113.498C114.13 114.111 112.247 114.809 110.314 115.585C108.381 116.361 106.383 117.218 104.344 118.265C103.329 118.752 102.284 119.173 101.215 119.526L100.107 119.875C99.8873 119.941 99.6638 119.992 99.4376 120.028C99.7626 119.933 99.7556 119.912 99.6456 119.933C99.5876 119.941 99.4936 119.958 99.3786 119.966C99.2636 119.974 99.0976 119.988 99.0346 119.866C99.0476 119.691 99.2276 119.574 99.3416 119.477C99.4315 119.398 99.5393 119.343 99.6556 119.316L100.093 119.083L101.452 118.218L104.138 116.535C105.888 115.45 107.566 114.435 109.26 113.535C109.26 113.527 109.293 113.496 109.482 113.386C111.465 112.394 113.537 111.536 115.618 110.679C111.979 112.436 120.043 108.645 116.692 110.242C118.741 109.426 120.88 108.575 123.058 107.6C124.146 107.11 125.239 106.583 126.337 106.018C126.883 105.732 127.429 105.434 127.975 105.125C128.238 104.98 128.547 104.797 128.828 104.604L129.04 104.454L129.289 104.266C129.49 104.105 129.683 103.933 129.868 103.752C130.21 103.46 130.49 103.102 130.69 102.699C130.891 102.296 131.007 101.857 131.034 101.408C131.025 101.203 130.992 100.999 130.934 100.802C130.865 100.614 130.753 100.446 130.605 100.311C130.291 100.089 129.918 99.9642 129.534 99.9531C129.03 99.9323 128.525 99.9628 128.027 100.044L127.269 100.166L126.784 100.256C126.142 100.382 125.504 100.52 124.87 100.67C122.333 101.27 119.808 101.992 117.28 102.786C114.752 103.58 112.228 104.456 109.727 105.438C108.477 105.931 107.233 106.451 106.003 107.022C104.773 107.593 103.569 108.246 102.411 108.864C101.253 109.482 100.082 110.089 98.9106 110.605L98.4726 110.794L98.1816 110.914C98.0816 110.953 97.9816 110.988 97.8816 111.02C97.6839 111.102 97.4638 111.114 97.2586 111.052C97.2347 111.04 97.2136 111.023 97.1969 111.002C97.1801 110.981 97.1681 110.957 97.1617 110.931C97.1552 110.905 97.1545 110.878 97.1595 110.851C97.1645 110.825 97.1751 110.8 97.1906 110.778C97.2414 110.685 97.3039 110.598 97.3766 110.521C97.4476 110.442 97.5226 110.368 97.5996 110.296L97.7156 110.191L97.9066 110.028C98.3816 109.628 98.8756 109.246 99.3786 108.884C99.8816 108.522 100.403 108.192 100.942 107.84L100.163 108.279C104.455 105.421 109.945 102.086 113.431 100.304C116.903 98.4961 120.954 96.2141 122.325 95.5581C124.243 94.5731 126.105 93.7741 127.318 93.2581C127.78 93.0533 128.216 92.7945 128.618 92.4871C128.713 92.4181 128.743 92.3971 128.718 92.4251C128.876 92.2816 129.027 92.13 129.17 91.9711C129.451 91.6491 129.671 91.2787 129.82 90.8781C129.959 90.512 129.987 90.1132 129.902 89.7311C129.804 89.3475 129.591 89.003 129.292 88.7441C129.15 88.62 128.984 88.5255 128.805 88.4662C128.626 88.407 128.437 88.3842 128.249 88.3991C127.811 88.4071 127.377 88.4772 126.96 88.6071L126.628 88.7001L126.356 88.7891L125.915 88.9441L125.04 89.2771C122.718 90.2041 120.29 91.3591 117.34 92.5551C116.826 92.7271 115.569 93.2011 113.94 93.8551L108.473 96.1171C106.573 96.9031 104.731 97.6381 103.341 98.1511C102.566 98.473 101.766 98.7308 100.95 98.9221L100.891 98.9621C99.8986 99.2781 98.9106 99.5781 97.9266 99.8621L96.4686 100.271L95.8016 100.443L95.3116 100.559C95.231 100.585 95.1473 100.6 95.0626 100.604C94.9626 100.595 94.9486 100.481 94.9626 100.404C95.0034 100.243 95.0819 100.093 95.1916 99.9681C95.2866 99.8311 95.3986 99.7051 95.5076 99.5741C95.6179 99.4433 95.7361 99.3193 95.8616 99.2031C96.1066 98.9561 96.3906 98.7201 96.6616 98.4841C97.2277 98.0161 97.8182 97.5784 98.4306 97.1731C101.096 95.538 103.877 94.0983 106.751 92.8651L106.343 93.0981L122.224 84.7081L117.293 86.2491L102.993 92.4491C100.601 93.544 98.3163 94.8604 96.1696 96.3811C95.6222 96.788 95.098 97.2254 94.5996 97.6911L94.3346 97.9441C94.2236 98.0441 94.1176 98.1551 94.0186 98.2611C93.8116 98.4731 93.6406 98.6941 93.4496 98.9091C93.0967 99.3075 92.7804 99.7369 92.5046 100.192L92.3996 100.351C92.3784 100.395 92.3616 100.442 92.3496 100.489L92.2636 100.759C92.2013 100.931 92.1509 101.108 92.1126 101.287C92.0666 101.638 92.1369 101.993 92.3126 102.3C92.392 102.442 92.5145 102.556 92.6626 102.624L93.1626 102.706L94.1716 102.869L95.6636 102.499L96.4086 102.314L96.7806 102.222L97.0806 102.139C97.6266 101.979 98.1806 101.832 98.7196 101.66C99.8056 101.327 100.883 100.973 101.953 100.6C104.091 99.8551 106.195 99.0431 108.282 98.2091L114.503 95.6791L117.628 94.4211C118.678 93.9841 119.703 93.5311 120.728 93.0801C122.017 92.5301 123.301 91.9801 124.584 91.4741C125.225 91.2211 125.867 90.9741 126.499 90.7651L126.97 90.6151L127.064 90.5881L127.107 90.5771C127.161 90.5642 127.217 90.5569 127.273 90.5551C127.396 90.5421 127.444 90.7141 127.39 90.8011C127.364 90.8481 127.33 90.8904 127.29 90.9261C127.274 90.9417 127.256 90.9558 127.238 90.9681C127.135 91.0521 127.027 91.1299 126.915 91.2011C126.804 91.2741 126.689 91.3409 126.571 91.4011L126.396 91.4841L126.154 91.5911L125.185 92.0191L123.254 92.8881C118.12 95.2348 113.097 97.8154 108.185 100.63C105.213 102.363 102.293 104.176 99.4226 106.069C98.7226 106.522 97.9366 107.06 97.2446 107.605L96.7196 108.026L96.1196 108.538C95.5126 109.051 94.9627 109.629 94.4796 110.26C94.1156 110.706 93.9074 111.26 93.8866 111.835C93.8893 112.095 93.952 112.35 94.0696 112.582C94.1436 112.712 94.2296 112.837 94.3096 112.959C94.4002 113.065 94.5007 113.163 94.6096 113.25C95.0478 113.578 95.5848 113.746 96.1316 113.727C96.8809 113.7 97.6205 113.549 98.3206 113.281C98.6826 113.156 99.1846 112.96 99.3206 112.901L99.9376 112.633C100.344 112.45 100.744 112.262 101.138 112.069C101.926 111.682 102.693 111.28 103.453 110.877C104.983 110.053 106.403 109.292 107.943 108.631C111.038 107.303 114.198 106.133 117.411 105.123C120.605 104.077 123.851 103.198 127.137 102.489L127.768 102.372C127.798 102.367 127.829 102.364 127.86 102.363C127.948 102.354 127.9 102.469 127.866 102.5L127.833 102.534L127.815 102.549L127.741 102.607C127.438 102.83 127.119 103.03 126.787 103.207C126.068 103.619 125.338 104.015 124.587 104.389C118.646 107.419 111.998 109.405 105.907 112.846C104.199 113.837 102.521 114.879 100.875 115.971C100.42 116.247 99.9606 116.527 99.5016 116.821L98.7766 117.291C98.3766 117.568 97.9596 117.844 97.5766 118.136C96.8587 118.614 96.22 119.202 95.6836 119.877C95.6017 120.001 95.5262 120.13 95.4576 120.262L95.4586 120.282ZM98.0826 129.51C97.236 127 96.4533 124.481 95.7346 121.952C95.7749 121.989 95.8181 122.022 95.8636 122.052C96.0759 122.2 96.313 122.309 96.5636 122.374C97.3253 122.532 98.1118 122.528 98.8716 122.361C99.3436 122.278 99.8306 122.175 100.325 122.047C100.558 121.988 100.844 121.914 101.039 121.855L101.453 121.734C102.001 121.569 102.547 121.387 103.091 121.189C103.635 120.989 104.178 120.778 104.721 120.538C104.993 120.417 105.265 120.291 105.538 120.154L106.275 119.792C107.266 119.318 108.297 118.862 109.336 118.42C111.416 117.537 113.549 116.696 115.705 115.945C116.243 115.757 116.784 115.577 117.326 115.405L117.626 115.311C117.784 115.257 117.951 115.23 118.119 115.233C118.147 115.239 118.189 115.248 118.191 115.282C118.183 115.311 118.166 115.337 118.143 115.356C118.097 115.397 118.049 115.434 117.999 115.468C117.899 115.538 117.79 115.602 117.681 115.668L113.865 117.847C110.891 119.539 107.975 121.235 105.231 123.055L105.012 123.383C102.971 124.804 102.056 125.552 101.499 125.983L100.999 126.392L100.519 126.806C100.208 127.066 99.9446 127.326 99.5506 127.706C99.0115 128.263 98.5207 128.866 98.0836 129.506L98.0826 129.51ZM100.614 136.525C100.014 134.965 99.4366 133.397 98.8826 131.82L99.0526 131.857C99.103 131.871 99.1563 131.871 99.2066 131.857L99.3926 131.828L100.136 131.712C100.388 131.67 100.701 131.568 100.981 131.498C101.261 131.428 101.544 131.361 101.856 131.247C102.464 131.039 103.066 130.857 103.683 130.614L104.314 130.366L104.814 130.159L105.806 129.732C108.43 128.571 110.938 127.243 113.43 125.946C114.675 125.299 115.917 124.655 117.155 124.073L117.428 123.948L117.569 123.89C117.662 123.847 117.766 123.829 117.869 123.84C117.881 123.843 117.893 123.849 117.903 123.857C117.913 123.866 117.921 123.876 117.926 123.888C117.93 123.9 117.932 123.913 117.931 123.926C117.93 123.939 117.926 123.951 117.919 123.962C117.896 124.007 117.866 124.048 117.83 124.083C117.757 124.157 117.678 124.226 117.596 124.289L117.196 124.589L116.354 125.189C115.787 125.582 115.209 125.968 114.628 126.352C112.299 127.882 109.907 129.352 107.528 130.871L105.749 132.024L104.862 132.615L104.362 132.957L103.579 133.509C102.643 134.129 101.794 134.871 101.055 135.715C100.867 135.965 100.717 136.242 100.612 136.537L100.614 136.525ZM104.293 145.325L104.078 145.264C103.732 144.58 103.467 143.858 103.287 143.113C102.609 141.529 101.954 139.931 101.321 138.32C101.565 138.428 101.826 138.496 102.093 138.52C103.103 138.54 104.108 138.359 105.049 137.988C105.632 137.802 106.237 137.573 106.803 137.359L107.823 136.959L109.772 136.148C112.35 135.048 114.88 133.904 117.412 132.854C118.674 132.336 119.953 131.824 121.188 131.446C121.318 131.398 121.457 131.374 121.596 131.376C121.683 131.376 121.686 131.469 121.674 131.532C121.666 131.601 121.642 131.667 121.606 131.725C121.574 131.784 121.535 131.839 121.49 131.889C121.294 132.116 121.084 132.331 120.86 132.53C120.386 132.959 119.885 133.357 119.36 133.72C118.302 134.471 117.131 135.134 115.951 135.867C113.59 137.292 111.306 138.84 109.109 140.505C108.566 140.945 108.021 141.375 107.499 141.862C107.368 141.983 107.233 142.095 107.105 142.224L106.656 142.678C106.267 143.106 105.907 143.558 105.578 144.033C105.311 144.393 105.133 144.81 105.058 145.252C104.982 145.693 105.012 146.146 105.145 146.574C105.234 146.778 105.354 146.967 105.5 147.135C105.634 147.264 105.793 147.366 105.967 147.435C106.342 147.562 106.746 147.582 107.133 147.493C107.674 147.371 108.202 147.195 108.708 146.968L109.525 146.607L110.046 146.365C110.661 146.074 111.264 145.776 111.862 145.474C113.062 144.874 114.235 144.256 115.406 143.643L118.897 141.813L121.775 140.334L122.097 140.181L122.255 140.109C122.307 140.097 122.355 140.036 122.41 140.078C122.465 140.12 122.448 140.189 122.422 140.239C122.394 140.292 122.36 140.342 122.322 140.388C122.249 140.478 122.171 140.563 122.088 140.644L121.535 141.169C121.079 141.596 120.616 142.018 120.146 142.434C119.207 143.268 118.252 144.084 117.293 144.891C115.629 146.259 112.082 149.113 108.851 151.868L108.651 152.038L108.551 152.254C108.503 152.354 108.46 152.454 108.42 152.562C108.396 152.64 108.375 152.72 108.358 152.8L108.334 152.92C108.326 152.984 108.323 153.049 108.323 153.113C108.321 153.18 108.324 153.247 108.332 153.313C108.338 153.392 108.353 153.47 108.378 153.546C108.432 153.737 108.523 153.916 108.648 154.071C108.769 154.215 108.914 154.337 109.078 154.431C109.195 154.491 109.319 154.54 109.446 154.577C109.701 154.637 109.965 154.65 110.226 154.616C110.382 154.597 110.538 154.57 110.692 154.533C111.153 154.413 111.606 154.263 112.048 154.083C112.856 153.762 113.573 153.43 114.228 153.123L117.205 151.676L123.737 148.096C124.307 147.785 124.878 147.476 125.45 147.168C125.25 147.333 125.05 147.499 124.85 147.668C124.017 148.355 123.173 149.026 122.326 149.801L121.734 150.353C121.554 150.528 121.362 150.692 121.165 150.853C120.78 151.186 120.365 151.505 119.953 151.822C118.286 153.098 116.462 154.289 114.789 155.814C113.918 156.589 113.153 157.473 112.512 158.446C112.345 158.698 112.194 158.96 112.061 159.231L111.955 159.431C111.891 159.554 111.841 159.684 111.806 159.818C111.786 159.897 111.77 159.976 111.758 160.056C111.752 160.101 111.747 160.151 111.744 160.22V160.349L111.752 160.44C111.758 160.491 111.767 160.542 111.78 160.592C111.794 160.647 111.811 160.701 111.833 160.753C109.034 155.753 106.513 150.602 104.282 145.324L104.293 145.325ZM113.85 160.393L113.939 160.434L113.85 160.393ZM112.385 159.566C112.444 159.643 112.757 160.06 112.935 160.297C111.951 158.991 112.348 159.519 112.383 159.564L112.385 159.566ZM112.333 159.496L112.382 159.562L112.333 159.496ZM118.877 171.012L118.843 171.076C118.832 171.095 118.823 171.115 118.815 171.135C118.782 171.211 118.758 171.29 118.741 171.371C118.673 171.681 118.719 172.005 118.869 172.284C117.614 170.36 116.381 168.419 115.195 166.452L113.846 164.552C113.263 163.415 112.63 162.22 111.972 160.986C112.026 161.068 112.092 161.142 112.166 161.207C112.296 161.324 112.451 161.41 112.619 161.458C112.914 161.545 113.232 161.512 113.504 161.366C113.748 161.219 113.64 161.276 113.67 161.266L113.709 161.238L113.786 161.18C114.198 160.88 114.603 160.58 115.032 160.305L114.632 160.591C116.32 159.435 118.067 158.368 119.868 157.396C120.102 157.28 120.14 157.28 119.968 157.386C121.33 156.618 122.901 155.801 124.616 154.967C125.472 154.549 126.365 154.128 127.284 153.704L128.184 153.292L128.438 153.183L128.738 153.061C128.784 153.015 128.845 153.091 128.828 153.145C128.813 153.203 128.787 153.257 128.752 153.304C128.685 153.395 128.609 153.478 128.524 153.552L128.407 153.652L128.159 153.857C126.195 155.484 124.089 156.957 122.159 158.357L122.559 158.047L120.052 159.887L118.801 160.837C118.671 160.937 118.19 161.311 117.841 161.612L117.284 162.079L116.784 162.552L116.533 162.786C116.458 162.864 116.398 162.94 116.333 163.019L115.94 163.479C115.758 163.748 115.591 164.027 115.44 164.314C115.165 164.787 115.035 165.33 115.066 165.876C115.088 166.143 115.183 166.399 115.339 166.617C115.463 166.779 115.623 166.909 115.806 166.999C115.978 167.097 116.172 167.149 116.37 167.151C116.495 167.157 116.603 167.174 116.743 167.171L117.225 167.104C118.074 166.885 118.903 166.594 119.704 166.235L120.366 165.956L120.979 165.683L121.879 165.275C122.817 164.842 123.745 164.399 124.665 163.946C126.493 163.047 128.299 162.119 130.085 161.163C127.635 163.2 125.049 165.145 122.539 167.228C121.757 167.882 120.981 168.546 120.22 169.302C119.799 169.708 119.419 170.154 119.087 170.635C119.04 170.705 118.987 170.799 118.944 170.882L118.877 171.012ZM126.688 179.592L126.226 180.148C126.083 180.333 125.984 180.518 125.86 180.703C125.663 180.998 125.489 181.307 125.339 181.628C123.133 178.643 121.017 175.592 118.992 172.477C119.128 172.656 119.309 172.795 119.516 172.882C119.723 172.968 119.95 172.998 120.173 172.969C120.31 172.951 120.443 172.911 120.568 172.852L120.59 172.841L120.633 172.82L120.718 172.776L121.404 172.432C123.217 171.499 124.961 170.499 126.692 169.496L131.851 166.478C132.709 165.978 133.567 165.486 134.428 165.008L135.721 164.297L136.836 163.708C136.976 163.619 137.133 163.559 137.297 163.533C137.306 163.53 137.316 163.53 137.326 163.532C137.336 163.535 137.345 163.54 137.352 163.547C137.359 163.554 137.364 163.563 137.366 163.573C137.369 163.582 137.368 163.593 137.365 163.602C137.359 163.641 137.347 163.678 137.332 163.714C137.301 163.788 137.263 163.858 137.22 163.925C137.198 163.959 137.171 163.989 137.142 164.016L136.921 164.226C136.571 164.55 136.214 164.862 135.847 165.169C135.111 165.78 134.347 166.36 133.547 166.923C132.747 167.486 131.933 168.037 131.106 168.593C130.279 169.149 129.426 169.714 128.598 170.356C128.187 170.678 127.781 171.009 127.388 171.361L127.096 171.626L126.732 171.976C126.399 172.294 126.118 172.627 125.817 172.954C124.85 174.045 124.082 175.297 123.55 176.654C123.508 176.78 123.479 176.909 123.462 177.04C123.431 177.159 123.414 177.281 123.412 177.403C123.405 177.605 123.425 177.806 123.47 178.003C123.485 178.096 123.509 178.188 123.543 178.276C123.598 178.401 123.68 178.511 123.784 178.599C123.884 178.621 123.984 178.631 124.084 178.648C124.409 178.679 124.736 178.679 125.062 178.648C125.157 178.748 125.69 178.37 126.084 178.148L127.332 177.399L129.84 175.923L131.24 175.142C132.154 174.643 133.076 174.153 134.006 173.673C135.865 172.711 137.748 171.784 139.645 170.873L141.256 170.112C140.879 170.412 140.483 170.706 140.074 170.986C138.318 172.119 136.502 173.157 134.634 174.094C132.659 175.081 130.763 176.218 128.963 177.494C128.499 177.842 128.053 178.214 127.628 178.607C127.556 178.678 127.328 178.886 127.161 179.058C126.994 179.23 126.836 179.415 126.681 179.6L126.688 179.592ZM130.853 185.939C130.551 186.358 130.302 186.812 130.109 187.291L130.069 187.384C130.035 187.476 130.012 187.572 130.001 187.67C129.059 186.504 128.131 185.324 127.218 184.131L128.294 183.846C129.329 183.465 130.343 183.032 131.334 182.546C132.71 181.859 134.034 181.088 135.334 180.289C137.948 178.702 140.485 176.964 143.126 175.463C143.455 175.268 143.785 175.085 144.117 174.914C144.45 174.739 144.782 174.55 145.117 174.398L145.971 173.989L146.141 173.919C146.181 173.906 146.241 173.872 146.275 173.919C146.262 173.967 146.239 174.01 146.207 174.047L146.182 174.075L145.982 174.283C145.714 174.535 145.445 174.783 145.152 175.03C144.577 175.52 143.965 175.993 143.329 176.452C142.061 177.374 140.714 178.252 139.355 179.142C137.996 180.032 136.61 180.931 135.241 181.912C133.788 182.9 132.461 184.061 131.289 185.37C131.132 185.552 130.985 185.742 130.851 185.941L130.853 185.939ZM133.016 186.464C132.916 186.58 132.81 186.697 132.716 186.825L132.465 186.942C132.551 186.825 132.647 186.712 132.744 186.599C132.772 186.585 132.802 186.574 132.828 186.56C132.889 186.527 132.956 186.493 133.019 186.46L133.016 186.464ZM132.024 188.101L131.824 188.028L132.024 188.101ZM131.767 188.008L131.505 187.908L131.767 188.008ZM131.429 187.908L131.462 187.984L131.429 187.909C131.463 187.987 131.47 188.002 131.466 187.992L131.421 187.892V187.898L131.429 187.908ZM134.353 190.783L133.722 192.131C132.91 191.189 132.107 190.239 131.314 189.282C131.365 189.291 131.416 189.297 131.468 189.299C131.614 189.295 131.759 189.268 131.897 189.218L132.003 189.176L132.022 189.167L132.166 189.101C132.938 188.752 133.699 188.388 134.457 188.015C135.966 187.261 137.449 186.462 138.916 185.633C140.542 184.715 142.145 183.754 143.731 182.767L142.204 183.767C140.98 184.583 139.66 185.458 138.331 186.533C137.998 186.798 137.658 187.058 137.331 187.367L136.44 188.184C136.167 188.459 135.911 188.748 135.672 189.052L134.353 190.783ZM147.413 204.902L147.02 205.402L146.969 205.467C146.915 205.543 146.866 205.624 146.824 205.707C146.795 205.774 146.771 205.843 146.753 205.914C145.538 204.847 144.345 203.756 143.174 202.641C140.474 199.91 137.896 197.057 135.411 194.126L135.784 194.06L136.184 193.987L136.384 193.951C136.418 193.944 136.449 193.941 136.484 193.93L136.622 193.872L137.73 193.378L138.842 192.878C139.234 192.667 139.622 192.478 140.022 192.233L140.9 191.72L141.5 191.349C142.3 190.855 143.074 190.341 143.854 189.829C145.398 188.799 146.909 187.759 148.411 186.778C149.853 185.809 151.345 184.917 152.881 184.105C153.248 183.9 153.619 183.737 153.989 183.567L154.139 183.497L154.151 183.491L154.162 183.485C154.179 183.474 154.199 183.468 154.22 183.466C154.246 183.477 154.22 183.495 154.22 183.509L154.201 183.534L154.149 183.586L153.891 183.822C151.829 185.668 149.744 187.098 148.186 188.271C146.611 189.432 145.511 190.307 145.042 190.707C146.748 189.393 148.502 188.228 150.207 187.044C147.058 189.399 144.07 191.398 141.773 194.137C140.94 195.12 140.308 196.256 139.912 197.482C139.803 197.874 139.798 198.287 139.897 198.682C139.931 198.886 140.025 199.076 140.168 199.226C140.278 199.361 140.432 199.453 140.603 199.487C140.951 199.596 141.324 199.602 141.676 199.505C142.223 199.329 142.753 199.104 143.261 198.833C143.814 198.548 144.388 198.223 144.928 197.886L145.461 197.553L145.923 197.253C148.362 195.644 150.541 193.978 152.731 192.335L154.371 191.106L155.056 190.606C155.164 190.531 155.274 190.455 155.392 190.387C155.45 190.35 155.515 190.324 155.583 190.311C155.628 190.303 155.637 190.346 155.629 190.379C155.628 190.413 155.624 190.446 155.617 190.479C155.584 190.627 155.521 190.766 155.431 190.888C155.387 190.951 155.337 191.014 155.284 191.076L155.201 191.17L155.054 191.323L154.842 191.534C153.698 192.659 152.351 193.75 150.923 194.922L151.64 194.295C151.149 194.68 150.722 195.041 150.02 195.643C149.318 196.245 148.32 197.056 146.793 198.598C146.367 199.034 145.969 199.496 145.6 199.98C145.38 200.269 145.176 200.569 144.988 200.88L144.703 201.414L144.576 201.709L144.512 201.86L144.48 201.936C144.451 202.015 144.429 202.097 144.415 202.18C144.352 202.531 144.431 202.894 144.634 203.187C144.712 203.303 144.811 203.405 144.925 203.487C145.081 203.599 145.264 203.667 145.455 203.686C145.646 203.705 145.838 203.674 146.014 203.595C146.07 203.569 146.124 203.539 146.176 203.505L146.191 203.495L146.25 203.455L146.74 203.114L147.783 202.4L150.116 200.783C151.787 199.622 153.701 198.283 155.926 196.783L157.651 195.63C157.517 195.752 157.392 195.875 157.251 195.997L157.239 195.984C156.827 196.356 156.674 196.516 156.301 196.834C156.508 196.665 156.724 196.5 156.926 196.329C157.221 196.079 157.509 195.829 157.79 195.571L157.906 195.464L158.064 195.364L157.916 195.518C157.688 195.758 157.435 195.984 157.197 196.218C156.703 196.681 156.191 197.139 155.644 197.611C154.551 198.555 153.322 199.548 151.836 200.781C151.536 201.042 151.214 201.276 150.874 201.481C149.623 202.524 148.462 203.67 147.403 204.907L147.413 204.902ZM151.547 209.71C151.529 209.759 151.52 209.81 151.507 209.856C150.617 209.16 149.739 208.45 148.873 207.725L148.892 207.718L149.07 207.654C149.187 207.611 149.312 207.568 149.42 207.521C150.19 207.15 150.924 206.705 151.609 206.193C152.445 205.645 153.232 205.068 154.009 204.493C154.414 204.154 154.698 203.893 154.942 203.676L155.273 203.367C155.304 203.335 155.33 203.299 155.352 203.26C155.512 203.043 155.704 202.852 155.921 202.692C156.062 202.58 156.213 202.48 156.371 202.392C156.453 202.353 156.562 202.266 156.662 202.358C156.749 202.484 156.596 202.643 156.505 202.77C156.73 202.516 156.835 202.388 156.855 202.406C156.875 202.424 156.797 202.553 156.697 202.717C156.497 203.044 156.182 203.49 156.35 203.326L156.105 203.607L155.963 203.769L155.895 203.845L155.745 204.033C155.085 204.955 154.272 206.075 153.388 207.249C152.947 207.832 152.488 208.433 152.019 209.01L151.845 209.226L151.797 209.284L151.697 209.422C151.635 209.513 151.583 209.61 151.542 209.711L151.547 209.71ZM159.491 201.875C159.466 201.853 159.444 201.816 159.428 201.696C159.476 202.197 159.487 202.701 159.459 203.203L159.273 202.729L159.448 204.278C159.488 205.078 159.474 205.88 159.406 206.678L159.369 206.091L159.324 213.919L159.175 214.028C159.26 214.675 159.285 215.328 159.251 215.98C158.151 215.08 157.073 214.155 156.024 213.204C155.235 212.652 154.456 212.085 153.682 211.513L153.727 211.492C154.111 211.285 154.469 211.033 154.795 210.743C155.095 210.486 155.358 210.229 155.611 209.979C156.111 209.479 156.557 209.004 156.959 208.589C157.291 208.233 157.642 207.895 158.011 207.577C158.112 207.489 158.221 207.411 158.337 207.344C158.357 207.382 158.345 207.344 158.328 207.274C158.33 207.29 158.333 207.305 158.338 207.32C158.283 207.343 158.231 207.369 158.181 207.4C157.659 207.776 157.172 208.199 156.728 208.664C156 209.407 155.232 210.11 154.428 210.77C154.163 210.977 153.878 211.155 153.576 211.302C153.54 211.318 153.497 211.332 153.459 211.347C152.885 210.92 152.315 210.486 151.749 210.047C151.782 209.872 151.852 209.706 151.954 209.559L152.022 209.47L152.061 209.423L152.137 209.337L152.287 209.162L152.587 208.807C153.387 207.848 154.195 206.824 154.978 205.818L156.961 203.229C157.491 202.529 158.024 201.814 158.504 201.137C158.63 200.979 158.738 200.807 158.826 200.625C158.869 200.546 158.887 200.455 158.877 200.366C158.866 200.276 158.828 200.192 158.768 200.125C158.497 199.941 158.243 200.115 158.062 200.197C158.324 200.027 158.641 199.892 158.871 200.055C158.919 200.095 158.955 200.148 158.975 200.207C158.996 200.266 159 200.33 158.988 200.391C158.97 200.5 158.93 200.603 158.871 200.696L158.394 201.418C158.194 201.718 158.219 201.689 158.366 201.488C158.513 201.287 158.793 200.914 159.055 200.488C159.176 200.282 159.21 199.968 159.027 199.84C158.959 199.797 158.882 199.77 158.803 199.761C158.723 199.752 158.642 199.762 158.567 199.789C158.416 199.88 158.279 199.989 158.142 200.089C157.671 200.358 157.214 200.651 156.774 200.967C155.44 201.924 155.189 202.067 153.995 202.999C153.995 203.006 154.053 202.977 154.095 202.951L154.276 202.786C154.429 202.686 154.354 202.763 154.201 202.902C154.251 202.89 154.127 203.019 153.307 203.671L153.456 203.536C152.055 204.782 150.499 205.84 148.826 206.686L148.772 206.612C148.571 206.737 148.33 206.781 148.099 206.733C148.021 206.711 147.95 206.673 147.889 206.62C147.829 206.567 147.781 206.502 147.749 206.428C147.732 206.384 147.724 206.337 147.726 206.29C147.728 206.243 147.74 206.197 147.76 206.154C147.806 206.075 147.86 206.001 147.92 205.932C148.455 205.245 149.042 204.599 149.675 204C151.365 202.452 153.132 200.991 154.969 199.62C155.938 198.866 156.911 198.104 157.821 197.32C158.274 196.93 158.712 196.536 159.121 196.137C159.194 196.08 159.258 196.013 159.312 195.937C159.299 196.171 159.285 196.428 159.274 196.744C159.321 196.256 159.391 195.512 159.422 196.639C159.407 197.052 159.368 197.463 159.306 197.871C159.532 199.189 159.589 200.531 159.477 201.863L159.491 201.875Z" fill="#0000FF"/>
<path fill-rule="evenodd" clip-rule="evenodd" d="M32.0456 0.789154L42.3236 0.809151L42.3176 3.59315L35.0556 3.57915L35.0486 7.29115L40.8946 7.30215V10.0862L35.0476 10.0751L35.0336 17.0352L32.0176 17.0292L32.0456 0.789154ZM44.6336 5.36115L47.5106 5.36715V7.26715C47.8931 6.63975 48.4192 6.11225 49.0456 5.72815C49.6249 5.37239 50.2917 5.18474 50.9716 5.18615C51.4522 5.19465 51.929 5.27383 52.3866 5.42115L51.8476 8.08815C51.484 7.86877 51.0662 7.75551 50.6416 7.76115C50.1914 7.75982 49.7483 7.87279 49.3537 8.0895C48.9591 8.30621 48.626 8.61954 48.3856 9.00015C47.7055 10.1848 47.3955 11.5458 47.4956 12.9081L47.4876 17.0611L44.6106 17.0552L44.6336 5.36115ZM56.4006 16.4742C55.5234 15.9666 54.8117 15.2161 54.3516 14.3132C53.8875 13.3502 53.6475 12.2947 53.6496 11.2258C53.6517 10.1569 53.8958 9.10228 54.3636 8.14115C54.8278 7.2402 55.5425 6.49256 56.4216 5.98815C57.4016 5.47264 58.4927 5.20427 59.6001 5.20636C60.7074 5.20845 61.7975 5.48094 62.7756 6.00015C63.6527 6.50745 64.3641 7.25805 64.8236 8.16116C65.2876 9.1241 65.5276 10.1796 65.5255 11.2485C65.5235 12.3174 65.2794 13.372 64.8116 14.3332C64.348 15.2343 63.6336 15.982 62.7546 16.4862C61.7743 17.0026 60.6825 17.2714 59.5745 17.2692C58.4664 17.2669 57.3758 16.9936 56.3976 16.4732L56.4006 16.4742ZM61.7186 13.7822C62.2339 13.0356 62.5107 12.1503 62.5125 11.2432C62.5143 10.3361 62.2409 9.44972 61.7286 8.70115C61.4742 8.37882 61.1503 8.11818 60.781 7.93873C60.4117 7.75928 60.0066 7.66567 59.596 7.6649C59.1854 7.66413 58.78 7.75622 58.41 7.93429C58.04 8.11235 57.7151 8.37178 57.4596 8.69315C56.9443 9.43971 56.6675 10.325 56.6657 11.2321C56.6639 12.1392 56.9372 13.0256 57.4496 13.7742C57.7039 14.0965 58.0279 14.3571 58.3972 14.5366C58.7665 14.716 59.1716 14.8096 59.5821 14.8104C59.9927 14.8112 60.3982 14.7191 60.7682 14.541C61.1381 14.363 61.463 14.1035 61.7186 13.7822ZM68.1386 5.40815L71.0156 5.41415V7.29315C71.3972 6.68435 71.8995 6.16022 72.4916 5.75315C73.0574 5.39769 73.7156 5.21747 74.3836 5.23515C75.1023 5.22519 75.8067 5.43716 76.4006 5.84216C77.0144 6.28373 77.4561 6.92444 77.6506 7.65515C78.025 6.94796 78.5629 6.34044 79.2196 5.88316C79.8083 5.47142 80.5092 5.25013 81.2276 5.24915C81.6956 5.22416 82.1637 5.29618 82.6025 5.46069C83.0413 5.62521 83.4414 5.87867 83.7776 6.20515C84.0993 6.56309 84.3466 6.98146 84.5051 7.43591C84.6635 7.89035 84.73 8.37177 84.7006 8.85215L84.6836 17.1342H81.8076L81.8226 9.33415C81.8226 8.25215 81.3442 7.70982 80.3876 7.70715C79.9969 7.72329 79.6186 7.84909 79.296 8.07014C78.9735 8.2912 78.7196 8.59859 78.5636 8.95715C78.0276 10.0844 77.7818 11.3277 77.8486 12.5742L77.8396 17.1222L74.9636 17.1161L74.9786 9.31615C74.9786 8.23349 74.5002 7.69116 73.5436 7.68916C73.1448 7.7091 72.7602 7.84329 72.4355 8.07574C72.1109 8.30818 71.8599 8.62907 71.7126 9.00015C71.174 10.1967 70.9298 11.5049 71.0006 12.8152L70.9916 17.1072L68.1126 17.1002L68.1386 5.40815ZM97.6146 16.9081C97.1827 16.6929 96.8181 16.3633 96.5606 15.9552V17.1612L93.6836 17.1552L93.7166 0.730152L96.5936 0.736153L96.5816 6.53616C96.9018 6.15367 97.3078 5.85216 97.7666 5.65615C98.2817 5.41247 98.8447 5.28676 99.4146 5.28815C100.155 5.24452 100.895 5.36985 101.58 5.65468C102.265 5.9395 102.876 6.37635 103.367 6.93215C104.263 8.22384 104.742 9.75917 104.739 11.3313C104.736 12.9035 104.251 14.4369 103.35 15.7252C102.856 16.2789 102.244 16.7132 101.558 16.995C100.872 17.2769 100.131 17.399 99.3906 17.3521C98.7685 17.3626 98.1548 17.2084 97.6116 16.9052L97.6146 16.9081ZM100.95 13.9452C101.451 13.161 101.719 12.2501 101.721 11.3193C101.723 10.3884 101.459 9.47637 100.961 8.69016C100.732 8.39194 100.437 8.15134 100.099 7.98759C99.7609 7.82385 99.3892 7.7415 99.0136 7.74715C98.6394 7.73908 98.2687 7.81968 97.9317 7.98236C97.5947 8.14504 97.301 8.38519 97.0746 8.68315C96.5798 9.47181 96.3164 10.3836 96.3145 11.3146C96.3125 12.2456 96.5721 13.1584 97.0636 13.9492C97.2947 14.2436 97.5897 14.4817 97.9263 14.6454C98.2629 14.8091 98.6323 14.8941 99.0066 14.8941C99.3809 14.8941 99.7503 14.8091 100.087 14.6454C100.423 14.4817 100.718 14.2436 100.95 13.9492V13.9452ZM107.357 0.757153L110.233 0.763153L110.201 17.1861L107.325 17.1802L107.357 0.757153ZM114.436 16.4781C114.094 16.1362 113.83 15.7251 113.661 15.2725C113.491 14.8198 113.421 14.3362 113.455 13.8541L113.472 5.50215L116.349 5.50816L116.331 13.0002C116.283 13.5274 116.445 14.0522 116.78 14.4622C116.939 14.6198 117.13 14.7427 117.339 14.8231C117.549 14.9035 117.772 14.9396 117.997 14.9292C118.493 14.9234 118.968 14.7243 119.321 14.3742C119.776 13.9187 120.111 13.3577 120.298 12.7411C120.563 11.9134 120.691 11.0474 120.675 10.1782L120.684 5.51515L123.561 5.52116L123.537 17.2132L120.661 17.2082V15.3282C120.238 15.9347 119.693 16.4458 119.061 16.8282C118.451 17.1952 117.752 17.3865 117.041 17.3811C116.087 17.426 115.153 17.1015 114.433 16.4752L114.436 16.4781ZM128.588 16.5182C127.768 15.9486 127.126 15.1594 126.736 14.2411C126.347 13.3355 126.148 12.3599 126.15 11.3744C126.152 10.3889 126.355 9.41418 126.748 8.51015C127.142 7.5935 127.786 6.80666 128.608 6.24015C129.545 5.61951 130.653 5.30921 131.777 5.35315C132.804 5.31149 133.819 5.5831 134.688 6.13194C135.557 6.68078 136.239 7.48091 136.643 8.42616C137.022 9.28104 137.217 10.206 137.217 11.1412V12.3242L129.167 12.3082C129.188 13.0013 129.463 13.6624 129.94 14.1662C130.194 14.4325 130.503 14.6411 130.844 14.7779C131.186 14.9147 131.554 14.9765 131.922 14.9592C132.499 14.9801 133.069 14.8275 133.559 14.5212C134.058 14.1642 134.469 13.6967 134.759 13.1552L137.077 14.0182C136.673 15.0814 135.938 15.9863 134.98 16.5987C134.022 17.2112 132.892 17.4985 131.758 17.4182C130.631 17.4588 129.521 17.1427 128.585 16.5152L128.588 16.5182ZM134.273 10.0452C134.159 9.44406 133.874 8.88854 133.453 8.44515C133.231 8.23047 132.967 8.06383 132.678 7.95561C132.388 7.84739 132.08 7.79992 131.772 7.81615C131.46 7.8056 131.15 7.8573 130.859 7.96823C130.568 8.07916 130.302 8.24708 130.077 8.46215C129.633 8.88245 129.339 9.43571 129.239 10.0382L134.273 10.0452ZM139.827 5.55515L142.704 5.56115V6.76715C142.963 6.36002 143.329 6.03178 143.762 5.81815C144.305 5.51934 144.918 5.36864 145.538 5.38115C146.278 5.33721 147.018 5.46242 147.703 5.74726C148.388 6.0321 148.999 6.46912 149.49 7.02515C150.385 8.3169 150.864 9.85207 150.861 11.424C150.857 12.9959 150.373 14.5291 149.472 15.8172C148.978 16.3711 148.366 16.8056 147.68 17.0877C146.994 17.3697 146.253 17.492 145.513 17.4452C144.943 17.4445 144.381 17.3168 143.867 17.0712C143.409 16.8734 143.004 16.5705 142.686 16.1871L142.674 21.9872L139.797 21.9812L139.827 5.55515ZM147.072 14.0382C147.573 13.2538 147.84 12.3429 147.842 11.4121C147.843 10.4814 147.58 9.5694 147.082 8.78315C146.853 8.48481 146.558 8.24406 146.22 8.08015C145.882 7.91623 145.51 7.8337 145.135 7.83915C144.761 7.83148 144.39 7.91226 144.053 8.07491C143.716 8.23756 143.422 8.47749 143.196 8.77515C142.701 9.56422 142.438 10.4761 142.437 11.4072C142.435 12.3383 142.694 13.2512 143.186 14.0422C143.417 14.3366 143.712 14.5747 144.048 14.7384C144.385 14.9021 144.754 14.9871 145.129 14.9871C145.503 14.9871 145.872 14.9021 146.209 14.7384C146.545 14.5747 146.84 14.3366 147.072 14.0422V14.0382ZM153.472 5.58315H156.348V7.48315C156.73 6.85551 157.255 6.32767 157.882 5.94315C158.461 5.58757 159.128 5.40026 159.809 5.40215C160.289 5.41068 160.765 5.48986 161.223 5.63715L160.684 8.30315C160.32 8.08391 159.903 7.97064 159.479 7.97615C159.029 7.9752 158.587 8.08816 158.193 8.30447C157.799 8.52079 157.466 8.83341 157.226 9.21315C156.545 10.3974 156.235 11.7582 156.336 13.1202L156.328 17.2732L153.451 17.2672L153.472 5.58315ZM163.266 3.56115C162.948 3.25351 162.746 2.84478 162.697 2.40508C162.647 1.96537 162.752 1.52208 162.993 1.15125C163.235 0.780408 163.598 0.505128 164.02 0.37262C164.442 0.240111 164.897 0.258634 165.307 0.425007C165.717 0.59138 166.057 0.895235 166.267 1.28446C166.478 1.67369 166.546 2.12403 166.461 2.55825C166.376 2.99247 166.142 3.3835 165.8 3.66429C165.458 3.94507 165.029 4.09811 164.587 4.09715C164.34 4.10291 164.095 4.05804 163.867 3.96532C163.639 3.87261 163.432 3.73403 163.26 3.55815L163.266 3.56115ZM163.146 5.60215L166.023 5.60815L165.993 17.3002L163.117 17.2942L163.146 5.60215ZM169.271 5.61415L172.148 5.62016V7.49915C172.57 6.89287 173.115 6.38189 173.748 5.99915C174.357 5.63189 175.055 5.4408 175.767 5.44715C176.721 5.40245 177.655 5.72853 178.375 6.35715C178.716 6.69875 178.981 7.10967 179.15 7.56217C179.319 8.01467 179.389 8.49822 179.356 8.98016L179.339 17.3322H176.463L176.478 9.83815C176.524 9.31048 176.362 8.78557 176.028 8.37515C175.867 8.21491 175.676 8.08988 175.464 8.00809C175.253 7.92629 175.027 7.88953 174.801 7.90015C174.304 7.90604 173.83 8.10472 173.478 8.45415C173.022 8.91013 172.686 9.47136 172.5 10.0882C172.234 10.916 172.107 11.782 172.124 12.6512L172.114 17.3142L169.241 17.3002L169.271 5.61415ZM184.12 16.4322C183.719 16.0012 183.412 15.4921 183.217 14.9368C183.023 14.3814 182.945 13.7919 182.99 13.2052L183 8.10516H181.191V5.64616H183L183.001 2.71615L185.882 0.916153L185.872 5.64915L188.958 5.65515L188.953 8.11415L185.871 8.10015L185.861 13.1572C185.809 13.6779 185.944 14.2001 186.241 14.6311C186.389 14.7822 186.568 14.899 186.766 14.9736C186.965 15.0482 187.176 15.0788 187.388 15.0632C187.776 15.0638 188.158 14.969 188.502 14.7872L189.171 17.1082C188.575 17.383 187.927 17.5243 187.271 17.5222C186.115 17.5901 184.98 17.197 184.114 16.4292L184.12 16.4322ZM198.458 16.4612C198.057 16.0302 197.75 15.5211 197.555 14.9658C197.361 14.4104 197.283 13.8209 197.328 13.2342L197.338 8.13416H195.528L195.533 5.67516H197.343L197.349 2.75115L200.229 0.951153L200.22 5.68315L203.305 5.69016V8.14915L200.22 8.14315L200.21 13.2001C200.158 13.7208 200.292 14.243 200.589 14.6742C200.737 14.8251 200.917 14.9419 201.115 15.0165C201.313 15.0911 201.525 15.1217 201.737 15.1062C202.125 15.1059 202.507 15.0108 202.851 14.8292L203.519 17.1512C202.923 17.426 202.275 17.5673 201.619 17.5652C201.044 17.5982 200.468 17.5174 199.925 17.3274C199.381 17.1375 198.881 16.8421 198.452 16.4582L198.458 16.4612ZM207.621 16.7812C206.743 16.2735 206.032 15.5226 205.573 14.6192C205.108 13.6564 204.868 12.601 204.871 11.5323C204.873 10.4635 205.117 9.40909 205.585 8.44815C206.048 7.54677 206.763 6.7987 207.642 6.29415C208.622 5.77828 209.714 5.5098 210.822 5.51207C211.93 5.51434 213.02 5.78728 213.999 6.30715C214.876 6.81506 215.587 7.56591 216.048 8.46915C216.512 9.4319 216.752 10.4873 216.75 11.556C216.748 12.6248 216.503 13.6792 216.036 14.6402C215.572 15.5416 214.857 16.2897 213.978 16.7942C212.997 17.31 211.905 17.5785 210.797 17.5762C209.69 17.574 208.599 17.301 207.621 16.7812ZM212.94 14.0891C213.454 13.3424 213.731 12.4572 213.733 11.5502C213.734 10.6432 213.461 9.75694 212.95 9.00816C212.695 8.68473 212.371 8.42312 212.001 8.24299C211.631 8.06285 211.225 7.96888 210.814 7.96811C210.403 7.96734 209.996 8.0598 209.626 8.23855C209.255 8.4173 208.93 8.67768 208.675 9.00015C208.159 9.74671 207.882 10.632 207.881 11.5391C207.879 12.4462 208.152 13.3326 208.665 14.0812C208.919 14.4035 209.243 14.6643 209.612 14.8438C209.981 15.0233 210.386 15.117 210.797 15.1179C211.207 15.1188 211.613 15.0268 211.983 14.8488C212.353 14.6708 212.678 14.4115 212.934 14.0901L212.94 14.0891ZM225.113 5.72615L227.99 5.73215V7.63216C228.372 7.00425 228.898 6.47636 229.525 6.09216C230.104 5.73674 230.771 5.54911 231.451 5.55016C231.931 5.55917 232.408 5.63834 232.866 5.78516L232.327 8.45216C231.963 8.23278 231.545 8.11951 231.121 8.12515C230.671 8.1242 230.229 8.23716 229.835 8.45348C229.441 8.66979 229.108 8.98241 228.868 9.36215C228.188 10.5465 227.878 11.9073 227.979 13.2691L227.971 17.4221L225.094 17.4162L225.113 5.72615ZM236.564 16.7352C235.744 16.1651 235.102 15.3755 234.712 14.4572C234.323 13.5517 234.124 12.5763 234.126 11.5909C234.128 10.6055 234.331 9.63101 234.724 8.72715C235.117 7.81029 235.762 7.02338 236.584 6.45715C237.521 5.83638 238.629 5.52608 239.753 5.57015C240.779 5.52841 241.795 5.79988 242.664 6.34853C243.533 6.89719 244.215 7.6971 244.619 8.64215C244.998 9.49743 245.193 10.4227 245.193 11.3582V12.5412L237.142 12.5252C237.164 13.218 237.439 13.8786 237.916 14.3822C238.17 14.6487 238.478 14.8574 238.82 14.9943C239.162 15.1311 239.53 15.1928 239.898 15.1752C240.474 15.197 241.044 15.0448 241.534 14.7382C242.034 14.381 242.444 13.9132 242.734 13.3712L245.052 14.2342C244.648 15.2973 243.913 16.2021 242.955 16.8145C241.997 17.427 240.867 17.7144 239.733 17.6342C238.606 17.6758 237.494 17.3601 236.558 16.7322L236.564 16.7352ZM242.249 10.2622C242.135 9.66107 241.85 9.10554 241.429 8.66216C241.206 8.44759 240.943 8.28096 240.654 8.17258C240.364 8.06421 240.056 8.01641 239.748 8.03215C239.435 8.02094 239.124 8.07242 238.832 8.18355C238.54 8.29467 238.273 8.4632 238.048 8.67915C237.605 9.09919 237.31 9.65206 237.21 10.2542L242.249 10.2622ZM248.175 16.7232C247.832 16.3815 247.566 15.9707 247.395 15.5182C247.224 15.0657 247.152 14.5819 247.183 14.0992C247.167 13.5634 247.279 13.0315 247.51 12.5477C247.741 12.064 248.084 11.6425 248.511 11.3182C249.55 10.576 250.811 10.2102 252.086 10.2812H254.127V9.77116C254.144 9.52544 254.1 9.27931 253.999 9.0545C253.899 8.82969 253.744 8.63312 253.55 8.48215C253.123 8.18257 252.61 8.03085 252.089 8.05016C251.65 8.01574 251.213 8.12922 250.847 8.37248C250.48 8.61574 250.206 8.97474 250.068 9.39215L247.633 8.83015C247.805 7.87992 248.344 7.03537 249.133 6.47815C249.997 5.86887 251.036 5.55751 252.093 5.59116C253.42 5.51023 254.725 5.95904 255.722 6.83915C256.175 7.32864 256.523 7.9064 256.743 8.53632C256.963 9.16623 257.051 9.83478 257.001 10.5002L256.987 17.4832L254.62 17.4781L254.32 15.9931C253.89 16.5313 253.341 16.9619 252.716 17.2506C252.091 17.5393 251.408 17.6782 250.72 17.6562C249.78 17.6894 248.864 17.3534 248.169 16.7202L248.175 16.7232ZM253.33 14.5412C253.587 14.3298 253.792 14.062 253.93 13.7586C254.067 13.4551 254.133 13.1241 254.122 12.7912V12.5592H252.196C251.678 12.5275 251.163 12.656 250.722 12.9272C250.546 13.0572 250.406 13.2294 250.314 13.428C250.222 13.6265 250.182 13.845 250.198 14.0632C250.192 14.2185 250.221 14.3732 250.283 14.5158C250.345 14.6585 250.438 14.7853 250.556 14.8872C250.818 15.1054 251.153 15.2181 251.495 15.2032C252.165 15.2101 252.814 14.9738 253.324 14.5382L253.33 14.5412ZM260.039 1.06415L262.916 1.06915L262.883 17.4952L260.001 17.4862L260.039 1.06415ZM266.274 3.76415C265.957 3.45699 265.758 3.0494 265.709 2.61122C265.66 2.17304 265.765 1.73154 266.006 1.36238C266.247 0.993226 266.609 0.719381 267.03 0.587776C267.451 0.456171 267.904 0.474999 268.313 0.641029C268.721 0.807059 269.059 1.10996 269.269 1.49783C269.478 1.88569 269.547 2.33438 269.462 2.76702C269.377 3.19965 269.144 3.58929 268.803 3.86918C268.463 4.14907 268.035 4.30179 267.595 4.30116C267.348 4.30753 267.103 4.26313 266.875 4.17075C266.647 4.07836 266.44 3.93996 266.268 3.76415H266.274ZM266.154 5.80615L269.031 5.81115L269.001 17.5002L266.125 17.4952L266.154 5.80615ZM273.788 16.6062C273.387 16.1752 273.08 15.6661 272.885 15.1108C272.691 14.5554 272.613 13.9659 272.658 13.3792L272.668 8.27915H270.859L270.864 5.82015H272.673L272.679 2.89715L275.56 1.09715L275.55 5.83015L278.636 5.83615V8.29515L275.55 8.28915L275.54 13.3462C275.488 13.8669 275.623 14.3891 275.92 14.8202C276.068 14.9712 276.247 15.088 276.445 15.1626C276.644 15.2372 276.855 15.2678 277.067 15.2522C277.455 15.2528 277.837 15.158 278.181 14.9762L278.85 17.2971C278.254 17.572 277.606 17.7133 276.95 17.7112C276.375 17.7451 275.799 17.6652 275.256 17.476C274.712 17.2869 274.211 16.9923 273.782 16.6092L273.788 16.6062ZM283.694 16.7882L279.471 5.82915L282.371 5.83515L285.071 13.1721L287.637 5.84615L290.514 5.85215L284.449 22.2652H281.665L283.694 16.7882Z" fill="#0000FF"/>
<path fill-rule="evenodd" clip-rule="evenodd" d="M22.8357 216.332H21.3457V209.194H25.4377V210.434H22.8377V212.275H25.2587V213.51H22.8357V216.332ZM30.8477 212.363H31.3367C31.7057 212.39 32.0744 212.306 32.3957 212.123C32.5117 212.037 32.6039 211.923 32.6637 211.792C32.7235 211.66 32.749 211.516 32.7377 211.372C32.7505 211.231 32.7248 211.089 32.6634 210.962C32.6019 210.835 32.507 210.726 32.3887 210.649C32.0533 210.483 31.68 210.409 31.3067 210.434H30.8477V212.363ZM30.8477 213.593V216.332H29.3347V209.194H31.4147C32.1705 209.136 32.925 209.322 33.5677 209.724C33.9426 210.062 34.1842 210.523 34.2488 211.023C34.3134 211.524 34.1966 212.031 33.9197 212.453C33.6694 212.795 33.3296 213.061 32.9377 213.222C34.0117 214.827 34.7117 215.864 35.0377 216.332H33.3577L31.6577 213.593H30.8477ZM44.9157 212.753C44.9814 213.74 44.6669 214.715 44.0367 215.478C43.7088 215.807 43.3143 216.062 42.8797 216.227C42.4451 216.391 41.9803 216.46 41.5167 216.43C41.0535 216.46 40.5894 216.39 40.1553 216.226C39.7211 216.062 39.3272 215.807 38.9997 215.478C38.3685 214.712 38.0541 213.734 38.1207 212.744C38.052 211.757 38.3668 210.781 38.9997 210.021C39.331 209.695 39.7274 209.443 40.1628 209.281C40.5983 209.119 41.0631 209.051 41.5267 209.081C41.9896 209.05 42.4538 209.119 42.8879 209.282C43.3221 209.446 43.7162 209.7 44.0437 210.029C44.6706 210.793 44.9824 211.767 44.9157 212.753ZM39.7057 212.753C39.6616 213.386 39.8206 214.017 40.1597 214.553C40.3193 214.757 40.5264 214.919 40.7629 215.024C40.9995 215.13 41.2582 215.176 41.5167 215.159C42.7247 215.159 43.3287 214.356 43.3287 212.751C43.3287 211.146 42.7287 210.342 41.5287 210.339C41.2694 210.322 41.0098 210.369 40.7725 210.475C40.5352 210.58 40.3273 210.743 40.1667 210.947C39.8232 211.484 39.6615 212.117 39.7057 212.753ZM52.6467 214.653H52.6737L54.4657 209.194H56.5267V216.332H55.1157V212.954C55.1157 212.794 55.1157 212.61 55.1227 212.402C55.1297 212.194 55.1497 211.64 55.1887 210.742H55.1447L53.3037 216.332H51.9177L50.1987 210.732H50.1547C50.2167 211.871 50.2477 212.631 50.2477 213.012V216.332H48.8997V209.194H50.9607L52.6497 214.651L52.6467 214.653ZM22.8597 226.553H23.3597C23.7291 226.58 24.097 226.483 24.4047 226.277C24.5213 226.18 24.6134 226.057 24.6737 225.918C24.734 225.779 24.7607 225.628 24.7517 225.477C24.7638 225.333 24.744 225.187 24.6937 225.052C24.6434 224.916 24.5639 224.793 24.4607 224.691C24.1971 224.5 23.874 224.41 23.5497 224.437H22.8597V226.553ZM26.2777 225.42C26.2987 225.749 26.2449 226.079 26.1202 226.384C25.9955 226.69 25.8032 226.963 25.5577 227.183C24.9694 227.624 24.2426 227.841 23.5087 227.793H22.8597V230.332H21.3457V223.194H23.6267C24.33 223.145 25.0284 223.343 25.6017 223.753C25.8345 223.961 26.0165 224.219 26.1337 224.508C26.2509 224.797 26.3002 225.109 26.2777 225.42V225.42ZM30.1257 230.332V223.194H31.6387V229.082H34.5387V230.332H30.1257ZM42.6447 230.332L42.1277 228.632H39.5277L39.0097 230.332H37.3797L39.8987 223.164H41.7497L44.2787 230.332H42.6447ZM41.7657 227.364H39.9057C40.4137 225.72 40.7214 224.69 40.8287 224.273C40.8547 224.39 40.8977 224.55 40.9577 224.751C41.0177 224.952 41.2877 225.824 41.7657 227.364ZM48.9787 224.933L52.0837 230.333H54.0067V223.195H52.6447V226.574C52.6447 226.958 52.669 227.614 52.7177 228.541H52.6837L49.5837 223.195H47.6737V230.333H49.0267V226.974C49.0267 226.567 48.9957 225.886 48.9337 224.933H48.9787ZM61.4877 223.194L58.8267 230.332H57.4737L60.1347 223.194H61.4877ZM27.2687 240.7C27.3021 241.195 27.2302 241.692 27.0578 242.157C26.8855 242.622 26.6165 243.046 26.2687 243.4C25.4587 244.074 24.42 244.41 23.3687 244.337H21.3457V237.199H23.5877C24.5786 237.137 25.554 237.469 26.3017 238.122C26.6342 238.46 26.892 238.864 27.0585 239.308C27.2251 239.752 27.2967 240.227 27.2687 240.7V240.7ZM25.6967 240.739C25.6967 239.206 25.0197 238.439 23.6657 238.439H22.8597V243.087H23.5087C24.9694 243.084 25.6997 242.299 25.6997 240.734L25.6967 240.739ZM35.3597 244.339H31.2487V237.201H35.3597V238.441H32.7597V240H35.1767V241.241H32.7617V243.081H35.3617L35.3597 244.339ZM43.5597 242.357C43.5716 242.648 43.5144 242.938 43.3927 243.203C43.2711 243.467 43.0884 243.699 42.8597 243.88C42.2972 244.282 41.6138 244.479 40.9237 244.437C40.2277 244.448 39.5387 244.298 38.9097 244V242.594C39.3049 242.777 39.7138 242.929 40.1327 243.048C40.4308 243.131 40.7383 243.175 41.0477 243.18C41.3162 243.197 41.5835 243.131 41.8127 242.99C41.901 242.925 41.9716 242.84 42.0181 242.74C42.0646 242.641 42.0854 242.532 42.0787 242.423C42.0807 242.289 42.0396 242.159 41.9617 242.05C41.8663 241.925 41.7495 241.819 41.6167 241.735C41.3182 241.555 41.0093 241.394 40.6917 241.251C40.3405 241.098 40.0107 240.899 39.7107 240.661C39.4955 240.477 39.3179 240.253 39.1877 240.001C39.0507 239.729 38.9821 239.427 38.9877 239.122C38.9743 238.841 39.0252 238.561 39.1365 238.303C39.2477 238.045 39.4164 237.816 39.6297 237.633C40.1375 237.246 40.7673 237.054 41.4047 237.091C41.7629 237.089 42.1198 237.134 42.4667 237.223C42.8279 237.32 43.1813 237.444 43.5237 237.594L43.0357 238.771C42.7287 238.64 42.4129 238.531 42.0907 238.444C41.8504 238.383 41.6036 238.352 41.3557 238.351C41.119 238.335 40.8848 238.406 40.6967 238.551C40.6217 238.615 40.5622 238.696 40.5224 238.786C40.4826 238.877 40.4636 238.975 40.4667 239.074C40.4638 239.197 40.4961 239.318 40.5597 239.423C40.6389 239.539 40.741 239.637 40.8597 239.711C41.1691 239.897 41.4894 240.064 41.8187 240.211C42.3415 240.425 42.8102 240.753 43.1907 241.171C43.4445 241.511 43.5756 241.926 43.5627 242.35L43.5597 242.357ZM47.3537 244.339V237.201H48.8677V244.339H47.3537ZM55.8747 240.331H58.7097V244.031C58.286 244.172 57.8511 244.278 57.4097 244.346C56.9985 244.406 56.5833 244.436 56.1677 244.436C55.7118 244.467 55.2548 244.398 54.8283 244.233C54.4019 244.069 54.0164 243.814 53.6987 243.486C53.0845 242.715 52.7806 241.742 52.8467 240.759C52.8179 240.266 52.8908 239.772 53.0609 239.309C53.2311 238.845 53.4948 238.421 53.8357 238.064C54.2056 237.729 54.6386 237.47 55.1094 237.304C55.5802 237.138 56.0793 237.068 56.5777 237.097C57.3068 237.096 58.0281 237.246 58.6967 237.537L58.1967 238.748C57.6931 238.491 57.1359 238.357 56.5707 238.357C56.277 238.344 55.9841 238.396 55.7127 238.509C55.4412 238.622 55.1978 238.793 54.9997 239.01C54.586 239.505 54.3749 240.139 54.4087 240.783C54.3672 241.411 54.5345 242.035 54.8847 242.558C55.0497 242.763 55.2615 242.926 55.5023 243.032C55.7431 243.139 56.0059 243.186 56.2687 243.17C56.5919 243.168 56.9141 243.135 57.2307 243.07V241.58H55.8777L55.8747 240.331ZM64.2097 238.94L67.3147 244.34H69.2387V237.202H67.8797V240.581C67.8797 240.965 67.904 241.621 67.9527 242.548H67.9187L64.8187 237.202H62.9087V244.34H64.2607V240.981C64.2607 240.574 64.23 239.893 64.1687 238.94H64.2127H64.2097Z" fill="#222222"/>
<path fill-rule="evenodd" clip-rule="evenodd" d="M233.578 216.347H232.065L232.077 210.468H230.138V209.208L235.528 209.219V210.479H233.589L233.578 216.347ZM245.402 212.791C245.466 213.778 245.15 214.752 244.518 215.514C243.821 216.126 242.925 216.463 241.997 216.461C241.069 216.459 240.174 216.119 239.479 215.504C238.85 214.737 238.537 213.758 238.605 212.768C238.54 211.78 238.857 210.806 239.492 210.047C239.824 209.722 240.221 209.47 240.657 209.309C241.093 209.148 241.558 209.081 242.021 209.112C242.484 209.082 242.948 209.152 243.382 209.316C243.816 209.481 244.209 209.736 244.536 210.065C245.16 210.831 245.469 211.805 245.399 212.791H245.402ZM240.192 212.781C240.147 213.414 240.305 214.044 240.643 214.581C240.803 214.785 241.009 214.948 241.246 215.054C241.482 215.16 241.741 215.207 241.999 215.19C243.206 215.19 243.811 214.39 243.815 212.79C243.819 211.19 243.219 210.384 242.015 210.374C241.757 210.356 241.497 210.401 241.26 210.506C241.022 210.61 240.814 210.771 240.652 210.974C240.309 211.511 240.148 212.145 240.192 212.781V212.781ZM258.842 216.397L258.328 214.697H255.728L255.207 216.397H253.577L256.11 209.234H257.961L260.476 216.408L258.842 216.397ZM257.969 213.427C257.494 211.886 257.227 211.014 257.169 210.813C257.109 210.613 257.069 210.451 257.041 210.334C256.933 210.75 256.624 211.78 256.112 213.423L257.969 213.427ZM270.204 216.42H268.281L265.186 211.014H265.142C265.202 211.968 265.232 212.649 265.231 213.056L265.224 216.415H263.871L263.886 209.277H265.795L268.885 214.629H268.919C268.872 213.701 268.849 213.046 268.85 212.662L268.856 209.283H270.219L270.204 216.42ZM235.167 230.35L234.652 228.65L232.052 228.644L231.531 230.344H229.9L232.434 223.181H234.284L236.799 230.354L235.167 230.35ZM234.294 227.379C233.818 225.839 233.552 224.968 233.494 224.765C233.437 224.562 233.394 224.403 233.365 224.287C233.257 224.703 232.948 225.733 232.436 227.376L234.294 227.379ZM246.749 230.373H245.025L244.066 226.621C244.03 226.487 243.966 226.211 243.884 225.793C243.802 225.375 243.75 225.093 243.737 224.95C243.717 225.126 243.668 225.408 243.589 225.797C243.511 226.185 243.45 226.463 243.406 226.629L242.437 230.367H240.718L238.911 223.225H240.401L241.306 227.125C241.464 227.845 241.579 228.469 241.649 228.996C241.669 228.81 241.715 228.523 241.785 228.134C241.856 227.745 241.922 227.444 241.985 227.229L243.033 223.229H244.464L245.496 227.229C245.541 227.408 245.596 227.682 245.665 228.05C245.734 228.418 245.784 228.733 245.82 228.997C245.853 228.743 245.905 228.427 245.978 228.048C246.051 227.669 246.116 227.362 246.178 227.128L247.094 223.233H248.583L246.749 230.373ZM256.075 230.392L251.963 230.383L251.978 223.245L256.089 223.253V224.493H253.489V226.06H255.906V227.301H253.489V229.142H256.089L256.075 230.392ZM264.282 228.426C264.294 228.717 264.237 229.006 264.115 229.271C263.994 229.535 263.811 229.767 263.582 229.948C263.019 230.348 262.335 230.543 261.645 230.501C260.947 230.513 260.256 230.364 259.624 230.067V228.661C260.019 228.844 260.428 228.997 260.846 229.117C261.145 229.2 261.453 229.245 261.762 229.251C262.03 229.268 262.297 229.202 262.526 229.062C262.615 228.998 262.686 228.912 262.733 228.813C262.779 228.714 262.8 228.605 262.793 228.496C262.796 228.362 262.755 228.231 262.677 228.122C262.582 227.997 262.466 227.891 262.333 227.807C262.035 227.627 261.727 227.464 261.409 227.321C261.058 227.167 260.729 226.968 260.429 226.729C260.215 226.544 260.038 226.319 259.908 226.068C259.773 225.795 259.707 225.493 259.714 225.189C259.701 224.908 259.753 224.628 259.865 224.37C259.976 224.112 260.146 223.883 260.359 223.701C260.868 223.315 261.498 223.124 262.135 223.163C262.494 223.161 262.851 223.206 263.197 223.297C263.559 223.394 263.912 223.518 264.253 223.67L263.763 224.846C263.457 224.714 263.141 224.604 262.818 224.517C262.579 224.455 262.332 224.423 262.084 224.422C261.847 224.406 261.613 224.477 261.424 224.622C261.349 224.686 261.29 224.766 261.25 224.857C261.21 224.947 261.191 225.045 261.194 225.144C261.191 225.267 261.223 225.388 261.286 225.494C261.365 225.61 261.468 225.708 261.586 225.782C261.895 225.968 262.215 226.135 262.544 226.282C263.067 226.497 263.535 226.826 263.914 227.244C264.168 227.585 264.297 228.001 264.282 228.426V228.426ZM274.558 226.85C274.622 227.837 274.306 228.811 273.674 229.573C272.977 230.185 272.081 230.522 271.153 230.52C270.225 230.518 269.33 230.177 268.635 229.562C268.005 228.795 267.693 227.816 267.762 226.826C267.696 225.839 268.013 224.864 268.648 224.106C268.98 223.781 269.377 223.529 269.813 223.368C270.249 223.207 270.714 223.14 271.177 223.171C271.64 223.141 272.104 223.21 272.538 223.374C272.972 223.539 273.365 223.794 273.692 224.123C274.318 224.888 274.627 225.864 274.558 226.85V226.85ZM269.349 226.839C269.304 227.471 269.462 228.102 269.799 228.639C269.959 228.843 270.166 229.005 270.402 229.111C270.638 229.217 270.897 229.264 271.155 229.247C272.363 229.247 272.969 228.447 272.972 226.847C272.976 225.247 272.376 224.442 271.172 224.431C270.913 224.413 270.653 224.459 270.416 224.565C270.178 224.67 269.969 224.832 269.808 225.036C269.466 225.572 269.305 226.204 269.349 226.839V226.839ZM282.313 228.765H282.284L280.606 223.302H278.545L278.531 230.441H279.883L279.89 227.12C279.89 226.738 279.861 225.978 279.802 224.84H279.846L281.553 230.44H282.94L284.792 224.853H284.836C284.795 225.751 284.772 226.304 284.767 226.513C284.761 226.721 284.759 226.905 284.758 227.064L284.751 230.443H286.163L286.177 223.304H284.116L282.316 228.758L282.313 228.765ZM294.571 230.465L290.46 230.457L290.474 223.318L294.585 223.326V224.567L291.985 224.561V226.129H294.402V227.369H291.985V229.21H294.585L294.571 230.465ZM234.88 244.345L230.768 244.337L230.783 237.198L234.894 237.207V238.447H232.294V240.014H234.711V241.254H232.294V243.095H234.894L234.88 244.345ZM244.64 244.365H242.912L241.257 241.665L239.592 244.365H237.97L240.346 240.689L238.136 237.227H239.806L241.339 239.799L242.853 237.234H244.484L242.236 240.769L244.64 244.365ZM249.56 240.595H250.06C250.43 240.623 250.798 240.527 251.106 240.322C251.223 240.225 251.315 240.102 251.376 239.963C251.436 239.824 251.463 239.673 251.454 239.522C251.467 239.378 251.447 239.232 251.397 239.096C251.347 238.96 251.268 238.837 251.165 238.735C250.902 238.544 250.579 238.453 250.255 238.48H249.566L249.56 240.595ZM252.98 239.469C253.001 239.798 252.947 240.128 252.821 240.433C252.696 240.738 252.503 241.011 252.257 241.231C251.668 241.671 250.941 241.886 250.207 241.837H249.558V244.376H248.044L248.058 237.237H250.338C251.042 237.189 251.74 237.388 252.312 237.8C252.545 238.009 252.726 238.268 252.842 238.558C252.958 238.848 253.005 239.161 252.98 239.473V239.469ZM260.929 244.398L256.818 244.389L256.832 237.251L260.944 237.259V238.499H258.344V240.066H260.761V241.306H258.344V243.146L260.944 243.152L260.929 244.398ZM266.44 240.439V238.51H266.899C267.273 238.485 267.646 238.56 267.98 238.727C268.098 238.805 268.193 238.913 268.254 239.04C268.316 239.167 268.341 239.309 268.328 239.45C268.339 239.594 268.314 239.738 268.254 239.87C268.194 240.001 268.101 240.116 267.985 240.202C267.663 240.384 267.294 240.466 266.925 240.439H266.44ZM266.44 241.669L266.434 244.409H264.921L264.935 237.27H267.015C267.771 237.214 268.525 237.401 269.167 237.804C269.542 238.142 269.783 238.604 269.846 239.105C269.91 239.606 269.792 240.113 269.513 240.534C269.263 240.876 268.923 241.142 268.53 241.301C269.602 242.908 270.3 243.946 270.624 244.416H268.944L267.244 241.673L266.44 241.669ZM274.022 244.424L274.037 237.285H275.55L275.536 244.424H274.022ZM283.944 244.444L279.833 244.435L279.847 237.297L283.958 237.305V238.545H281.358V240.112H283.775V241.353L281.358 241.348V243.189H283.958L283.944 244.444ZM292.908 242.602L292.946 242.668H292.981C292.934 241.74 292.911 241.084 292.912 240.7V238.8L292.908 242.602ZM292.908 242.602L289.857 237.317H287.948L287.933 244.456H289.286L289.293 241.097C289.293 240.69 289.264 240.01 289.204 239.056H289.248L292.343 244.463H294.266L294.281 237.325H292.918V238.804L292.908 242.602ZM301.608 238.502C301.352 238.49 301.096 238.542 300.865 238.653C300.633 238.765 300.434 238.932 300.283 239.141C299.941 239.672 299.775 240.299 299.811 240.93C299.807 242.522 300.403 243.319 301.598 243.321C302.222 243.298 302.838 243.172 303.42 242.949V244.218C302.797 244.468 302.129 244.591 301.457 244.581C301.015 244.608 300.572 244.537 300.16 244.373C299.749 244.209 299.378 243.955 299.076 243.631C298.481 242.857 298.189 241.891 298.256 240.917C298.243 240.244 298.383 239.578 298.665 238.967C298.917 238.432 299.323 237.985 299.832 237.685C300.375 237.379 300.991 237.226 301.613 237.242C302.339 237.251 303.053 237.424 303.702 237.749L303.211 238.979C302.949 238.853 302.681 238.741 302.406 238.645C302.15 238.551 301.879 238.502 301.606 238.5L301.608 238.502ZM311.547 244.502L307.435 244.494L307.45 237.355L311.561 237.363V238.604L308.961 238.598V240.166L311.378 240.171V241.411H308.961V243.252H311.561L311.547 244.502Z" fill="#222222"/>
</g>
<defs>
<clipPath id="clip0">
<rect width="320" height="246" fill="white"/>
</clipPath>
</defs>
</svg>
