<svg viewBox="0 0 819 431" xmlns="http://www.w3.org/2000/svg"><g fill-rule="evenodd"><path d="M97.626 276.3h-2.085v-9.99h5.729v1.736h-3.644v2.577h3.391v1.73h-3.391zm11.218-5.558v-2.7h.642a2.957 2.957 0 011.514.3 1.093 1.093 0 01.489 1.012 1.194 1.194 0 01-.478 1.052 2.612 2.612 0 01-1.484.335zm0 1.723v3.835h-2.119v-9.99h2.912a4.984 4.984 0 013.014.741 2.958 2.958 0 01.493 3.822 3.21 3.21 0 01-1.374 1.076q2.254 3.371 2.939 4.355h-2.352l-2.385-3.835zm19.694-1.176a5.427 5.427 0 01-1.23 3.815 5.334 5.334 0 01-7.055 0 5.448 5.448 0 01-1.231-3.829 5.375 5.375 0 011.234-3.811 4.616 4.616 0 013.538-1.316 4.551 4.551 0 013.524 1.327 5.438 5.438 0 011.22 3.818zm-7.294 0a4.176 4.176 0 00.636 2.523 2.224 2.224 0 001.9.847q2.537 0 2.536-3.37t-2.522-3.377a2.24 2.24 0 00-1.907.851 4.156 4.156 0 00-.643 2.53zm14.691-2.829l2.406 7.84h1.941l2.577-7.827h.062q-.082 1.885-.092 2.324t-.011.772v4.731h1.976v-9.99h-2.885l-2.509 7.642h-.041l-2.365-7.642h-2.885v9.99H136v-4.649q0-.8-.13-3.192h.062zm24.13 2.549v-2.967h.964a1.905 1.905 0 011.275.355 1.387 1.387 0 01.407 1.1 1.355 1.355 0 01-.485 1.125 2.328 2.328 0 01-1.463.386zm4.786-1.586a3.057 3.057 0 01-1.009 2.468 4.315 4.315 0 01-2.867.854h-.91v3.555h-2.119v-9.99h3.193a4.251 4.251 0 012.765.782 2.855 2.855 0 01.947 2.335zm5.386 6.877v-9.99h2.119v8.244h4.054v1.75zm17.528 0l-.725-2.379h-3.64l-.724 2.379h-2.283l3.527-10.035h2.591l3.541 10.035zm-1.231-4.156l-1.131-3.658a10.126 10.126 0 01-.181-.67q-.227.876-1.292 4.328zm17.138 4.156h-2.693l-4.348-7.561h-.062q.131 2 .13 2.858v4.7h-1.893v-9.987h2.673l4.34 7.485h.048q-.1-1.949-.1-2.755v-4.73h1.907zm-71.88 9.006l-3.726 9.994h-1.893l3.725-9.994zm13.118 4.9a4.92 4.92 0 01-1.405 3.78 5.728 5.728 0 01-4.057 1.313h-2.83v-9.989h3.138a5.283 5.283 0 013.8 1.292 4.752 4.752 0 011.354 3.609zm-2.2.055q0-3.22-2.844-3.22h-1.128v6.508h.909q3.062.005 3.062-3.283zm13.528 5.038h-5.756v-9.989h5.756v1.736H152.6v2.194h3.383v1.737H152.6v2.577h3.636zm11.485-2.776a2.583 2.583 0 01-.974 2.133 4.231 4.231 0 01-2.711.78 6.366 6.366 0 01-2.83-.6v-1.966a11.662 11.662 0 001.712.636 5.081 5.081 0 001.282.185 1.82 1.82 0 001.07-.267.913.913 0 00.373-.793.873.873 0 00-.165-.523 1.829 1.829 0 00-.481-.441 12.463 12.463 0 00-1.3-.677 6.1 6.1 0 01-1.374-.827 3.1 3.1 0 01-.731-.923 2.624 2.624 0 01-.274-1.23 2.584 2.584 0 01.9-2.085 3.735 3.735 0 012.485-.759 5.871 5.871 0 011.487.185 10.234 10.234 0 011.48.519l-.684 1.648a9.854 9.854 0 00-1.323-.458 4.229 4.229 0 00-1.028-.13 1.362 1.362 0 00-.923.28.926.926 0 00-.321.732.909.909 0 00.129.488 1.44 1.44 0 00.414.4 12.774 12.774 0 001.343.7 5.348 5.348 0 011.921 1.344 2.615 2.615 0 01.522 1.654zm5.311 2.776v-9.989h2.119v9.99zm11.929-5.612h3.965v5.181a11.129 11.129 0 01-1.815.441 11.868 11.868 0 01-1.74.127 4.4 4.4 0 01-3.455-1.33 5.527 5.527 0 01-1.193-3.818 5.034 5.034 0 011.384-3.773 5.253 5.253 0 013.838-1.354 7.426 7.426 0 012.967.615l-.7 1.7a5.023 5.023 0 00-2.276-.547 2.811 2.811 0 00-2.2.923 3.58 3.58 0 00-.827 2.481 3.981 3.981 0 00.667 2.485 2.3 2.3 0 001.938.858 6.855 6.855 0 001.346-.137v-2.085h-1.893zm18.71 5.612h-2.693l-4.348-7.561h-.062q.131 2 .13 2.858v4.7h-1.893v-9.986h2.673l4.34 7.485h.048q-.1-1.949-.1-2.755v-4.73h1.907z" fill="#222"/><path d="M302.155 270.725l-16.753-12.227-.005 7.95h-51.891l-4.479 9.145h56.363l-.005 8.06z" fill="#00f"/><path d="M594.669 270.67l-16.753-12.227-.005 7.951h-51.812l-4.558 9.144h56.364l-.006 8.061z" fill="#e9d100"/><path d="M412.167 304.438v-1.092l-.054 1.071h-.026a9.35 9.35 0 01-.013 1.42z" fill="#00f"/><path d="M503.345 174.69a124.191 124.191 0 00-29.133-12.153v-.155a168.386 168.386 0 00-22.433-4.674 79.294 79.294 0 01-.467 10.283c-.624 7.789-1.558 16.046-2.648 24.146a61.487 61.487 0 0113.241 5.764 68.082 68.082 0 01-2.337 16.825 106.516 106.516 0 01-12.462 29.6 99.257 99.257 0 01-19.006 25.548 79.756 79.756 0 01-13.553 10.281q-.771-.441-1.549-.923v48.548q.7.423 1.393.825a121.184 121.184 0 0025.237-19.319c13.242-12.929 25.86-29.6 36.454-47.67 10.594-18.382 18.695-37.388 23.056-55.458a114.643 114.643 0 004.207-31.468" fill="#fff"/><path d="M533.261 157.139c-24.612-20.253-68.544-33.5-119.175-33.5l-.23 156.077c.077.044.154.093.23.137a79.775 79.775 0 0013.553-10.281 99.259 99.259 0 0019.008-25.549 106.508 106.508 0 0012.462-29.6 68.025 68.025 0 002.337-16.825 61.543 61.543 0 00-13.24-5.76c1.09-8.1 2.023-16.358 2.647-24.147a79.349 79.349 0 00.467-10.282 168.2 168.2 0 0122.433 4.674v.155a124.21 124.21 0 0129.133 12.162 114.646 114.646 0 01-4.207 31.469c-4.362 18.072-12.463 37.08-23.056 55.458-10.594 18.072-23.212 34.74-36.453 47.67a121.247 121.247 0 01-25.238 19.318l-.144-.087-.052 34.915c30.068-11.216 63.915-42.423 89.151-86.04h-.156c25.234-43.631 35.828-88.339 30.53-119.964z" fill="#e9d100"/></g><path d="M407.392 123.835c-1.777.038-3.744.019-5.809.12-4.132.208-6.524.388-10.818.817-8.6.7-16.181 1.893-17.584 2.16l4.426-.4-9.351 1.463c-2.772.5-5.279.962-7.723 1.408l-7.292 1.616c-2.493.59-5.091 1.353-8.031 2.166l.639-.225c-.432.1-.81.223-1.429.425-.612.223-1.466.532-2.859.984-1.384.478-3.34.989-6.074 1.907l-4.765 1.564c-1.828.568-3.839 1.384-6.164 2.2l-.01-.023a19.31 19.31 0 01-1.9.751l3.219-1.125-2.749 1.237-3.178 1.524a2.116 2.116 0 01-.806.234l-3.024 1.409-2.952 1.559-1.895.8c-1.774 1.019-.779.884-5.582 3.488 1.9-.833-2.262 1.489-1.6 1.284l-1.23.686-2.353 1.621a31.256 31.256 0 00-2.6 1.919c-1.663 1.328-3.142 2.534-3.7 3.046l1.666-1.182c1.027-.706 2.376-1.728 3.888-2.7 1.53-.928 3.153-1.913 4.582-2.782 1.446-.819 2.736-1.44 3.488-1.824-3.935 2.248-1.008.632-.2.249l.228-.206a33.29 33.29 0 013.649-1.8c-.006-.011-.05-.006-.09 0l-.144.1c-.126.035-.072-.016.053-.1-.046-.014.053-.095.712-.427l-.117.08a129.49 129.49 0 013.5-1.8l.072.108a55.719 55.719 0 017.123-3.24c3.227-1.244 6.582-2.373 7.826-2.875 1.3-.372 2.722-.884 4.222-1.432s3.067-1.152 4.7-1.581c5.147-1.533 2.624-.608 5.229-1.29 3.263-.822-.7.022.6-.343l3.944-.856c-2.26.613-1.008.36-.584.3 1.691-.41 3.855-.994 5.766-1.357a27.314 27.314 0 003.993-1c1.152-.216 2.016-.384 2.7-.515l1.605-.225c.835-.111 1.339-.177 2.329-.355-.671.078-2 .282-2.016.233 1.872-.234.879-.193.117-.072.7-.159 1.971-.38 3.491-.629s3.289-.531 5-.715c3.417-.411 6.542-.827 6.826-.982l.008.051c.635-.288-.456-.365 1.521-.71l1.341-.062 1.994-.321c1.351-.087.7.046.7.072.812-.118 1.707-.232 2.655-.345l2.976-.232c2.048-.144 2.025-.3 4.006-.432l-2.083-.228c3.359-.216 7.272-.193 7.928-.414l2.023.095c6.737.172 4.695-.26 7.383-.212l.821.037.4.02.27.021.968.085-.006.067v-.06l-2.436.036.979.016.586.021.755.045-.086 1.092-.105 2.088v.03a1.837 1.837 0 01.031-.331v.472a33.31 33.31 0 01.17 4.544c-.03 3.373.124 6.012-.1 11.4l.216 1.345-.129 4.045h-.172c-.013-3.96-.044-11.422-.062-16.515l-.077-.091.057 8.453c-.031.873-.175 2.952-.288 2.077l.13 1.445c.018 10.08.026 10.147-.166 20.67l.086-.914a35.545 35.545 0 01-.04 4.752c-.028 6.318-.135 10.7-.353 14.8l.2.9c-.012 1.334-.315 3.335-.033 3.984l.089 2.85c-.016 1.824.1 2.942-.017 5.018v.011c-.007.127-.016.261-.022.392 0 0 .01-.011.016-.023-.09 4.127.18-.04.065 4.686-.144 1.516.253 1.677.209 3.98l-.288 2.311c-.165 4.176.125 4.886.126 10.932-.1 2.9-.349 4.306-.569 2.384a37.835 37.835 0 01.3 4.71c-.109.54-.131.165-.229-.609-.127 3.113.1 1.921.091 4.269a8.542 8.542 0 01.544 2.232l.064-.908c.111 2.486.162 5.2.058 8.094l-.1-.11.052 3.078-.131.193.04 4.392.035-.6c.018 1.031.064 4.419-.006 6.354l-.072-.072c-.228 5.464.072 9.969.095 16.37l-.149-.841c-.148 2.18.23.6.156 3.2l-.184.129a14.154 14.154 0 01-.08 3.785c-.1-.078-.209-.16-.334-.253.091.083.208.183.33.288l-.019.2c-1.008-.736-2.584-2.03-4.012-3.312a46.6 46.6 0 00-3.6-3.2l.034-.038c-.481-.163-.076.5-1.176-.374l-.61-.714-1.062-.929c-.619-.72-.249-.432-.233-.445a70.652 70.652 0 01-5.555-6.137c.485.877 1 1.734 1.512 2.6-1.5-1.831-3.974-5.281-4.392-5.549l-.72-1.231c-2.539-3.977-2.088-2.542-3.1-4.134-.4-.679-.776-1.38-1.164-2.067.444.648.869 1.3 1.327 1.939-1.255-1.988-1.71-2.814-2.6-4.464l-.015-.012a.906.906 0 01.1.21l-.179-.275a14.082 14.082 0 01-1.788-2.608 67.311 67.311 0 01-3.744-7.012l-.621-.735-1.139-2.587.154-.072c1.17 2.5 3.664 7.074 5.464 10.119l.1.015c-1.05-1.808-2.281-3.874-2.913-5.112-.265-.543-.792-1.885-.425-1.425l-.571-.823c-1.6-3.117-2.332-4.725-3.066-6.371s-1.426-3.351-2.66-6.786l.151.622a14.649 14.649 0 01-1.118-3.1 61.362 61.362 0 01-2.94-11.311l-.325-.56c-.177-.9-.12-2.3-.466-2.693a72.933 72.933 0 01-.379-1.917 23.646 23.646 0 01-.341-3.411v-.276c-.006 0-.01.008-.016.017-.057-2.808-.216.035-.187-3.184.072-.629.008-.53-.064-.687-.022-.055-.111-.168-.072-.234a.767.767 0 01.273-.191 1.522 1.522 0 00.324-.094l.384-.123.77-.241a45.647 45.647 0 002.932-1.424 31.414 31.414 0 013.854-1.713 8.925 8.925 0 012.016-.443c.18 0 .4-.019.273.08a4.366 4.366 0 01-.569.36c.228-.115.307-.166.56-.271l.675-.275c.377-.144.6-.227.828-.317l1.026-.354.194-.064.105-.036c.047 0 .072-.026.049-.072l-.087-.544-.23-1.44c.018-.681.1-.221.348.872-.059-.539-.107-.976-.144-1.339-.042-.338-.072-.6-.1-.827a3.7 3.7 0 00-.108-.531 6.047 6.047 0 01-.255-1.27 4.551 4.551 0 01-.735-1.48l.015.64a44.046 44.046 0 01-.72-5.616l.111.065-.288-2.134.118-.149-.346-3.051.005.423c-.087-.715-.35-3.068-.383-4.423l.076.043c-.076-3.808-.525-6.945-.826-11.432l.183.576c.029-.769-.035-.869-.11-1.008a.993.993 0 01-.111-.322 3.456 3.456 0 01-.043-.344c-.008-.175-.017-.388-.031-.662l.173-.182a18.227 18.227 0 01-.234-3 2.9 2.9 0 00-.015-.589c-.169.018-.344.033-.519.049-.36.036-.748.079-1.224.15.271.027.521.06.751.095l-3.235.6c-2.268.38-1.44-.016-1.139-.206l-1.5.5-.343-.144c-1.07.475-1.129.193-3.067.737-.178-.044.308-.2-.366-.086l-3.175 1 1.924-.558-.171.355c-1.982.673-2.76.576-4.191.99l.977-.317a31.294 31.294 0 01-3.849.774c.427-.044 1.08-.112.132.158-.7.186-.407-.014-1.08.114a9.951 9.951 0 01-3.333 1.074c.012-.033.037-.072.133-.115a7.376 7.376 0 01-1.267.385l.339-.337-1.25.587c-.9.184-2.1.742-2.037.555l.48-.194q-3.293.963-6.533 2.1l-.151-.144c-.558.454-3.542 1.224-3.215 1.445-1.281.288-4.666 2.059-4.1 1.435-2.079.883-3.626 1.689-5.272 2.564l-5.832 3.088c-.121.049-.246.1-.378.157s-.47.237-.726.368l-.89.473c-.137.094-.36.144-.437.288 0 .184-.006.371-.01.561-.021 1.9-.031 2.487-.007 3.57.04 2.032.186 4.254.312 6.016a136.541 136.541 0 003.116 18.1c.486 4.24 2.73 10.167 3.88 14.544l.538 1.131c.659 2.952 2.485 7.186 3.755 11.217.439.94.655 1.44.748 1.66a1 1 0 01-.072-.589c.355 1.152 1.373 3.372 1.106 3.293l-.135-.275c-.278-.077 1.485 3.345 1.849 4.653l-.079-.77c.281.708.576 1.41.872 2.11l-.288-.541c2.208 4.445 3.726 7.7 5.23 10.885a96.549 96.549 0 005.513 10.224c-.823-.953 1.016 1.533.84 1.772a26.244 26.244 0 003.316 5.328c.01-.007.036 0 .11.088l1.728 2.881c-1.363-1.513 1.536 1.9.3.491 4.409 7.591 11.239 16.807 17.64 24.688l-.216-.4c1.627 2 3.792 4.361 4.983 5.915a32.416 32.416 0 003.565 3.563 11.826 11.826 0 012.209 2.52c1.584 1.568 3.285 2.863 5.425 5.106a27.681 27.681 0 003.49 3.234 20.562 20.562 0 013.01 2.664h.045c2.981 2.8 6.259 4.856 9.743 7.533a2.073 2.073 0 01-.216-.094c1.518.823 3.057 1.592 4.608 2.338.017.312.054.487.125.414-.172 1.823.123 7.178-.234 6.106-.027 6.348.316 9.778.144 17.5a21.749 21.749 0 00-.221 3.909c0 .735 0 1.507-.008 2.253.025.1-.059.035-.109.019-.136-.059-17.064-6.472-53.945-40.278-3.042-3.587-3.456-3.81-4.476-5.42l.47.956-1.974-2.535.571.645c-2.274-2.646-4.214-4.952-5.832-7.186-1.639-2.22-3.172-4.2-4.527-6.285-1.394-2.055-2.769-4.086-4.258-6.28-1.44-2.232-3.033-4.592-4.892-7.3 1.108 1.36-1.44-2.148-1.3-2.437-1.394-3.017-3.257-5.184-4.614-7.54-.01.008-.04-.014-.134-.139l-2.268-4.163c1.674 2.313-1.9-2.853-.388-.72-1.393-2.773-2.88-5.737-4.439-8.838-1.463-3.15-3.068-6.4-4.557-9.765-1.455-3.384-3.006-6.788-4.311-10.269-.668-1.733-1.377-3.443-1.991-5.171q-.9-2.6-1.772-5.137l.124.62c-.3-.855-.623-1.761-.949-2.682l-.884-2.789c-.576-1.836-1.108-3.572-1.449-4.906-.6-2.686-1.786-5.744-2.081-6.771a20.166 20.166 0 01-.979-4.673c-.36-1.459-.78-2.874-1.167-4.438a82.368 82.368 0 01-1.1-5.727c-.044-.769-.5-3.778-.97-6.617l-.325-2.06c-.072-.657-.131-1.262-.184-1.778a5.984 5.984 0 01-.057-1.772l-.031-.045c-.339-5.7-.8-8.935-.383-15.075 0 0 .015.117.021.326l-.024-6.126.377-6.138.015-.234-.2.016-.312.025.312.1.09.026-.024.051-1.452 3.112-.607 2.715-.437 2.741c-.269 1.833-.631 3.672-.758 5.521-.21 10.051.84 17.891 2.68 27.7.594 3.942 1.485 7.823 2.308 11.723.99 3.853 1.872 7.745 3.063 11.545a265.486 265.486 0 0023.39 53.01c.737 1.168 1.55 2.292 2.322 3.439 1.384 2.489 2.859 5.164 4.6 7.81 1.7 2.664 3.456 5.439 5.392 8.122l2.85 4.072c.96 1.351 1.974 2.657 2.942 3.977s1.936 2.623 2.887 3.909l2.872 3.73.325.065a39.8 39.8 0 012.441 3.278c40.3 41.287 61.32 46.4 62.823 47.024l.587.244.147.059.072.031v-1.661l.007-2.52c.026-3.918.051-4.9.075-8.7.144-2.775.059-11.219.208-13.395-.261-9.35-.257-19.257-.231-28.617l.023.354-.041-4.41c.017-.186.043-.209.059-.068-.188-4.975 0-12.81.072-18.9l.023.36c.039-35.534-.36-68.523-.062-103.766.347-16.386-.131-33.287.158-52.087.016-.269.03-.745.043-1.405l.03-4.566c-1.884-.004-4.16.021-6.703.056zm3.308 153.387v.127l-.031-.024zm-.044.137l.041.036v.057c-.045-.029-.041-.014 0 .031v.1l-.09-.066zm-.02 3.286c-.089 2.681-.3 1.527-.417 1.072l.19 2.227-.213.432c.247 1.625-.039 1.625.093 4.477-.08.234-.126-.487-.16.481l.3 4.7-.129-2.834.31.345c.22 2.759 0 3.854.04 5.707h-.013l-.067-1.048c.009.387.015.728.018 1.04a.646.646 0 00-.139 0 2.1 2.1 0 00-.9.378l-.664.432-2.027 1.351c-2 1.287-4.169 2.826-6.45 4.464l-3.5 2.5-1.8 1.261-.913.623-.461.307-.012.008.049-.112a5.372 5.372 0 01.325-.648 8.826 8.826 0 01.706-1.049 14.3 14.3 0 011.207-1.372 13.484 13.484 0 011.24-1.126c.471-.356.482-.342 2.318-1.813 4.626-3.672-1.012.653.822-.847 1.863-1.449 3.772-2.859 5.566-4.469-1.541 1.422-1.913 1.71-1.786 1.646s.715-.542 1.016-.783a43.8 43.8 0 001.337-1.228c.116-.108.226-.225.34-.339l.455-.47c.288-.34.622-.679.879-1.034a10.222 10.222 0 001.304-2.124 7.8 7.8 0 00.571-2.094 6.507 6.507 0 00-.155-.744c.006-.123-.144-.264-.274-.3a.964.964 0 00-.36-.057 4.214 4.214 0 00-1.353.288 15.336 15.336 0 00-3.316 1.97c-1.218.88-1.636 1.213-2.189 1.644-.5.4-.884.714-1.1.921-3.329 2.459-5.018 3.64-6.24 4.464s-1.971 1.313-3.42 2.224c.481-.274 1.24-.748 1.85-1.141l.792-.5a2.253 2.253 0 01.342-.2c-2.757 1.778-1.278.911-.159.166-.5.368-1.224.87-2.111 1.44l-.657.414-.427.252c-.288.166-.6.331-.922.481a5.408 5.408 0 01-.493.2 3.336 3.336 0 01-.256.085c-.087.061-.18-.017-.208-.113-.091-.19.062-.385.106-.572a5.368 5.368 0 01.259-.541 5.95 5.95 0 01.655-.964l.192-.229.36-.408c.24-.271.5-.529.755-.792a56.669 56.669 0 016.221-5.018c1.786-1.3 3.018-2.211 3.195-2.42l.026.035c.835-.859-.766.172 1.985-2.082q.957-.707 1.882-1.468c.23-.216.418-.385.681-.648s.544-.534.8-.816a12.888 12.888 0 001.354-1.674 7.5 7.5 0 00.595-1.046 1.574 1.574 0 00.12-.28c.043 0-.029.234-.024.228.174-.262 0-.771-.3-1.062a1.151 1.151 0 00-.52-.328 1.986 1.986 0 00-.576.018c-.4.041-.792.061-1.218.123l-1.539.53c-.26.092-.521.168-.786.288l-.714.324c-.395.189-.813.353-1.2.569-.792.41-1.6.83-2.382 1.3-3.168 1.821-6.271 3.978-9.188 5.894 2.14-1.229 4.272-2.5 6.442-3.707-2.525 1.543-5.961 3.867-8.982 5.7-.379.225-.743.46-1.108.663l-.854.482c-.509.284-.982.514-1.391.73l-1.085.5a7.5 7.5 0 00-.7.31l-.268.067c-.085.021-.177.062-.265 0a.259.259 0 01-.125-.288l.21-.328a9.321 9.321 0 01.842-1.189 9.423 9.423 0 01.947-1.08 9.049 9.049 0 01.813-.766c.2-.156.587-.534.914-.782s.632-.5.9-.709l2.2-1.682a27.4 27.4 0 013.107-2.209c1.687-1.045 3.384-2.081 5.04-3.226-1.613 1.185-3.272 2.267-4.92 3.355 2.5-1.581 4.255-2.729 5.827-3.9a21.8 21.8 0 004.579-4.309l.029-.047c-.216.273-.36.446-.395.477l.529-.706a9.713 9.713 0 00.488-.918l.384-.745a2.978 2.978 0 00.221-.551l.043-.233a.992.992 0 00.011-.293 1.155 1.155 0 00-.109-.415 1.075 1.075 0 00-.377-.42 1.336 1.336 0 00-.288-.125 111.983 111.983 0 01-1.584-1.648 95.932 95.932 0 009.406 7.476zm-11.842-9.338c.12.117.243.239.36.352a76.748 76.748 0 003.441 3.1c-.084-.007-.161-.007-.232-.009a2.19 2.19 0 00-.427.072 4.311 4.311 0 00-.668.245c-.207.093-.407.2-.612.311-.1.058-.2.118-.318.191-.155.1-.2.144-.3.216-.711.522-1.5 1.085-2.353 1.677-2.428 1.672-4.608 3.142-7.2 4.782a109.513 109.513 0 01-9.792 5.56c-.661.42-1.332.82-2 1.224l-.614.284c.152-.176.311-.341.47-.5a111.578 111.578 0 005.836-3.129c4.536-2.592 9.138-5.578 12.789-8.112l.092-.144c-4.32 3.014-9.392 6.23-12.421 7.938-1.479.841-5.367 2.741-2.649 1.168a95.468 95.468 0 01-2.8 1.635l-.418.209c.45-.432.911-.829 1.357-1.195a69.581 69.581 0 015.884-4.13c1.9-1.239 3.863-2.448 6.264-4.149q.9-.637 1.872-1.411c.325-.26.655-.539.993-.831l.5-.46c.087-.076.17-.161.255-.245l.3-.3a9.474 9.474 0 002.33-3.652l.121-.458zm-20.772 17.546c.122-.13.242-.26.368-.386l.1.1c-.031.031-.06.065-.09.095l-.379.191zm15.061-21.163l.012-.018c.14-.212.288-.432.432-.648a.135.135 0 00-.036.031c.133-.216.237-.441.344-.641l.089-.17a110.56 110.56 0 003.52 3.723 3.189 3.189 0 00-.962-.107 2.968 2.968 0 011.027.174l.059.058a2.782 2.782 0 00-.868-.14 4.973 4.973 0 00-1.82.38l-1.872.747a3.392 3.392 0 00-.344.152l-.278.135-.538.258c-1.391.68-2.431 1.258-2.908 1.467-4.887 2.808-9.473 6.116-13.954 8.392a11.249 11.249 0 01-1.8.825 2.016 2.016 0 01-.317.08c-.045 0-.1.046-.132-.011s.01-.116.038-.166a1.84 1.84 0 01.384-.476l.091-.072.041-.028.24-.221c.341-.281.662-.558 1.008-.8.342-.349.72-.68 1.093-1.014 1.83-1.273 5.029-2.656 5.924-3.4 1.458-.8 2.938-1.613 4.4-2.5a30.282 30.282 0 003.653-2.461 17.969 17.969 0 003.473-3.544zm-5.618-7.381a4.824 4.824 0 00.351-1.468 96.37 96.37 0 004.222 5.248 3.07 3.07 0 00-.4.109l-.451.2-.98.46c-.416.2-.432.231-.475.271a40.012 40.012 0 01-4.078 1.944c-2.458 1.051-2.573 1.463-6.215 3.253q-1.872.815-3.734 1.671l-1.738.911-1.214.663c-.18.1-.334.2-.513.32l-.624.446-.1.072c-.028.025-.077.057-.092.018-.041-.053-.016-.106 0-.162a1.841 1.841 0 01.139-.38 3.023 3.023 0 01.381-.582c.087-.1.185-.216.3-.326l.088-.085c.1-.1.2-.192.3-.285.209-.189.423-.384.654-.576a24.957 24.957 0 012.558-1.826c.75-.467 1.34-.813 1.707-1.008.741-.393.6-.181-.745.833l2.875-2.148c.576-.453 1.368-.912 3.816-2.971.805-.576.315-.1-.741.851a28.051 28.051 0 002.323-1.949l.234-.221c.1-.094.2-.192.284-.284l.432-.513a5.336 5.336 0 00.628-.822 11.97 11.97 0 00.807-1.664zm-12.192-22.283l.092-.188c2.211 4.5 4.649 8.956 7.272 13.348a64.879 64.879 0 003.876 5.878 2.661 2.661 0 00-.925 0 9.057 9.057 0 00-2.808 1.022 7.138 7.138 0 012.16-.713 7.973 7.973 0 00-2.239.846l-1.168.583-.756.411c-1.014.55-2.032 1.129-3.07 1.717l-6.408 3.661.121-.171-4 2.356c1.368-1.118 2.8-2.228 3.906-3.069l-.059.125c1.913-1.446 3.738-2.849 5.5-4.32a54.338 54.338 0 002.592-2.3 18.166 18.166 0 002.432-2.743 5.4 5.4 0 00.528-.975 2.722 2.722 0 00.112-.293l.084-.36.034-.183.008-.055a1.486 1.486 0 000-.211 1.42 1.42 0 00-.072-.353 1.5 1.5 0 00-.652-.818 1.375 1.375 0 00-.757-.206 1.315 1.315 0 00-.629.176l-.09.057-.179.116-.36.232-.732.46c-.988.612-2.016 1.217-3.078 1.826a160.638 160.638 0 01-6.891 3.719l1.248-.78c-3.447 1.61-.833.667-4.929 2.608l-.271-.041c-.877.475-1.608.846-2.253 1.144-.4.186-.417.189-.569.252a2.425 2.425 0 01-.269.09 1.961 1.961 0 01-.62.054.307.307 0 00-.057.265c-.126.042-.25.085-.375.114a1.006 1.006 0 01-.189.03c-.072.015-.112-.072-.1-.144a1.561 1.561 0 01.432-.71 3.6 3.6 0 01.72-.542c.03-.016.06-.031.091-.044a.464.464 0 00.083-.049l.1-.059c.115-.072.176-.1.2-.091.043.01-.072.144-.232.312a.134.134 0 00-.016.131l.019-.041a.12.12 0 01.028-.035l.182-.155.735-.615 1.5-1.224.72-.305c2.169-1.862 2.332-1.612 6.3-4.758.373-.2-.62.618.763-.423a58.858 58.858 0 001.6-1.384c.168-.149.778-.691 1.21-1.118.226-.222.474-.44.68-.661l.605-.662a5.246 5.246 0 00.527-.642c.149-.208.328-.425.452-.623a6.093 6.093 0 00.549-1.106 4.269 4.269 0 00.178-.695 4.689 4.689 0 01-.378 1.135 11.847 11.847 0 01-2.411 3 5.321 5.321 0 00.45-.813 8.685 8.685 0 001.857-2.705 2.544 2.544 0 00.128-1.889 1.719 1.719 0 00-.312-.447.814.814 0 00-.188-.153.991.991 0 00-.133-.019l-.508-.064c-.085-.01-.16-.025-.251-.032l-.426.052-.859.1c-1.275.559-2.632 1.152-4.18 1.883l4-1.881-7.1 3.226c-1.159.518-2.024.887-3.575 1.627.977-.432 2.467-1.087.275.037-1.611.823-.919.36-2.456 1.114a21.034 21.034 0 01-2.448 1.527c1.689-1.281 3.5-2.5 5.256-3.931.282-.24.568-.471.847-.72l.807-.745c.472-.445 1-.891 1.535-1.333l3.288-2.69.284-.038c.314-.346.989-.936 1.778-1.7a15.452 15.452 0 001.236-1.322 6.619 6.619 0 00.6-.9zm-1.943-4.474c.231.5.483 1.008.72 1.512a1.884 1.884 0 00-.281.015 3.556 3.556 0 00-.541.111c-.279.08-.5.162-.706.241-.407.16-.739.31-1 .438-.529.257-.792.421-.648.419-3.045 1.277-11.134 6.006-9.634 4.834-2.259 1.206-4.265 2.284-6.179 3.268 2.135-1.779 4.511-3.734 7.286-6.077.959-.752 2.3-1.864 3.844-3.291.123-.11.558-.529.9-.864a33.78 33.78 0 001.053-1.085 13.244 13.244 0 001.71-2.192 3.592 3.592 0 00.55-1.75 2.2 2.2 0 00-.122-.779 1.931 1.931 0 00-.642-.858 1.08 1.08 0 00-.277-.156c-.066-.032-.161-.061-.24-.092l-.293-.084-.36-.072c-.144-.023-.276-.057-.428-.072l-.706.246-1.605.751-1.639.8-1.556.783-1.712.88-6.355 3.329a201.6 201.6 0 01-5.382 2.8l-1.28.624a1.4 1.4 0 01-.166.067.094.094 0 01-.086.006.092.092 0 01-.053-.068.417.417 0 01.116-.311l.057-.072.17-.177c.272-.3.606-.576.908-.858a47.766 47.766 0 014.042-3.16c1.406-1 2.862-1.96 4.353-2.916s3.024-1.848 4.665-2.917a26.817 26.817 0 002.409-1.78 14.089 14.089 0 001.172-1.08c.1-.1.194-.191.288-.3l.34-.4a8.6 8.6 0 00.714-1.068 2.116 2.116 0 00.263-.551l.211-.557.086-.546.042-.273c0-.089-.007-.177-.01-.265a5.069 5.069 0 00-.035-.528l-.179-.478c-.027-.172-.216-.283-.325-.406a1.46 1.46 0 00-.415-.265 3.836 3.836 0 00-2.278-.119c-.444.083-.9.2-1.348.334-.344.1-.562.175-.846.269-5.16 1.579-10.993 4.5-17.048 6.941l-.576.231a3.239 3.239 0 01-.526.156.444.444 0 01-.279-.013c-.091-.06-.027-.164.016-.224a2.13 2.13 0 01.375-.36c.139-.112.288-.22.432-.322l.725-.49.952-.625c1.265-.82 2.512-1.592 3.712-2.318l2.531-1.757a125.578 125.578 0 005.349-3.324 69.795 69.795 0 002.965-2.053 24.933 24.933 0 002.437-2.01 5.515 5.515 0 001.4-1.956 2.647 2.647 0 00.174-.884 1.572 1.572 0 00-.344-1.019 1.915 1.915 0 00-.851-.576c-.144-.062-.292-.1-.439-.144s-.333-.045-.5-.068a7.3 7.3 0 00-2.679.493c-.515.176-1.056.407-1.584.62l-1.21.55c-2.456 1.161-4.824 2.409-7.174 3.552a112.736 112.736 0 01-3.96 2.079 6.747 6.747 0 011.322-.508c-1.342.632-3.359 1.6-5.022 2.27l-.6.243-.405.151a2.228 2.228 0 01-.254.072c-.134.03-.177.01-.12-.057l.157-.072c.033-.072-.084-.04-.288.023-.1.034-.235.072-.392.116-.037.007-.087.03-.118 0 0-.031.024-.059.036-.088a1.4 1.4 0 01.118-.177 2.743 2.743 0 01.4-.42c-.091.076.879-.727 1.321-1.027l-.75.483-.371.246a1.569 1.569 0 01-.154.1l-.064.022.91-.745 1.093-.843q1.107-.831 2.261-1.615l-1.2.89a125.733 125.733 0 0112.337-7.875l2.831-1.62 1.379-.792c.692-.4 1.491-.871 2.2-1.305s1.411-.893 1.989-1.325a7.533 7.533 0 00.612-.517 58.922 58.922 0 00.395 5.717 76.423 76.423 0 001.7 9.28 94.954 94.954 0 006.206 17.628zm-41.674-26.183a2.306 2.306 0 00-.131.405q-.525-1.922-1.008-3.842a126.851 126.851 0 01-2.855-15.941 104.82 104.82 0 01-.67-11.609c0-.106-.009-.223.123-.246q.66-.36 1.317-.715l4.278-2.133c1.693-.827 3.369-1.576 4.087-1.814a99.506 99.506 0 0118.537-6.884l-.23.085 2.952-.8c.13-.014.153.007.061.046 3.312-1.031 8.7-2.041 12.888-2.822l-.239.072 4.043-.821.108-.022.053-.011c.009.009.006.033.007.049l.044.663q.288 4.6.582 9.144c.432 6.1 1.1 12.1 1.876 18.072l.446 3.318c.043.084-.072.067-.116.1l-.36.121c-.731.244-1.459.5-2.183.772q-2.168.819-4.277 1.792-1.053.489-2.088 1.012l-1.031.531-1.113.6-.9.5-.449.251-.226.126-.113.063a1.07 1.07 0 00-.006.127v.216a3.116 3.116 0 00-.714-.167 6.211 6.211 0 00-.944-.051c-.171 0-.385.03-.576.043a5.263 5.263 0 00-.615.072c-.439.072-.874.144-1.362.263-.468.1-.955.226-1.448.365s-1 .28-1.472.427l-.884.277c-2.347.757-4.67 1.618-7.056 2.577s-4.854 2.016-7.371 3.307a32.5 32.5 0 01-3.863 1.557l-1.368.432a6.419 6.419 0 01-.826.189c.4-.118.393-.144.257-.118-.072.01-.187.031-.329.041s-.347.027-.424-.12c.015-.216.237-.36.378-.48a.9.9 0 01.388-.2l.54-.288 1.677-1.068 3.317-2.078c2.16-1.339 4.231-2.6 6.323-3.7 0-.01.04-.048.274-.184 2.448-1.224 5.006-2.284 7.575-3.342-4.492 2.169 5.463-2.511 1.326-.539 2.529-1.008 5.17-2.059 7.859-3.262q2.014-.908 4.049-1.953c.674-.354 1.35-.72 2.021-1.1.325-.179.707-.4 1.054-.643l.261-.185.308-.233a9.147 9.147 0 00.715-.634 4.12 4.12 0 001.44-2.893 3.105 3.105 0 00-.119-.748 1.527 1.527 0 00-.406-.607 2.416 2.416 0 00-1.322-.442 9.274 9.274 0 00-1.861.113l-.936.15-.6.111q-1.188.233-2.363.511c-3.132.739-6.249 1.633-9.37 2.613s-6.237 2.062-9.325 3.274c-1.543.608-3.078 1.25-4.6 1.955s-3.006 1.512-4.435 2.274-2.875 1.512-4.32 2.15l-.54.233-.36.148a5.06 5.06 0 01-.376.13 1.143 1.143 0 01-.769.041.23.23 0 01-.084-.339 1.492 1.492 0 01.23-.317c.087-.1.18-.189.274-.278l.144-.129.236-.2c.586-.493 1.2-.965 1.817-1.411s1.264-.856 1.929-1.29l-.962.541c5.3-3.528 12.078-7.644 16.381-9.845 4.286-2.232 9.288-5.049 10.981-5.859 2.367-1.216 4.666-2.2 6.164-2.833a7.949 7.949 0 001.6-.951c.116-.086.154-.112.122-.078a7.758 7.758 0 00.558-.56 4.376 4.376 0 00.8-1.349 2.466 2.466 0 00.1-1.417 2.379 2.379 0 00-.753-1.218 1.747 1.747 0 00-1.288-.426 5.734 5.734 0 00-1.591.257l-.409.115-.337.11-.544.191-1.08.411c-2.867 1.144-5.864 2.57-9.5 4.047-.634.212-2.186.8-4.2 1.608l-6.75 2.792c-2.341.971-4.619 1.878-6.336 2.511a18.738 18.738 0 01-2.952.951l-.072.051q-1.838.583-3.66 1.116l-1.8.5-.823.212-.6.144a1.2 1.2 0 01-.309.055c-.121-.011-.14-.152-.118-.244a1.274 1.274 0 01.282-.538c.117-.169.255-.325.389-.487a5.429 5.429 0 01.437-.458c.3-.3.654-.6.99-.887a25.88 25.88 0 012.183-1.619 79.93 79.93 0 0110.273-5.319l-.5.288 19.606-10.358-6.088 1.9-17.65 7.655a52.051 52.051 0 00-8.424 4.854 22.7 22.7 0 00-1.939 1.618l-.326.312c-.137.13-.268.26-.39.392-.256.261-.467.534-.7.8a10.957 10.957 0 00-1.167 1.584l-.129.2a.908.908 0 00-.062.17l-.106.333a4.942 4.942 0 00-.186.652 1.976 1.976 0 00.247 1.25.938.938 0 00.432.4l.623.1 1.246.2 1.842-.457.919-.229.46-.113.37-.1c.674-.2 1.355-.379 2.023-.592 1.341-.411 2.674-.843 3.992-1.308 2.639-.919 5.237-1.922 7.813-2.952l7.681-3.123 3.858-1.553c1.3-.54 2.561-1.1 3.827-1.656 1.591-.678 3.176-1.356 4.76-1.983a49.578 49.578 0 012.364-.875l.582-.185.116-.034.053-.013a1.01 1.01 0 01.2-.027c.152-.017.211.2.144.3a.565.565 0 01-.121.154.4.4 0 01-.064.052 4.4 4.4 0 01-.4.288 4.59 4.59 0 01-.425.245l-.216.1-.3.132-1.2.529-2.384 1.073q-9.513 4.347-18.6 9.558-5.5 3.2-10.818 6.714a34.95 34.95 0 00-2.688 1.9l-.648.52-.745.632a13.665 13.665 0 00-2.024 2.126 3.252 3.252 0 00-.732 1.944 2.068 2.068 0 00.226.922c.091.161.2.316.3.465a2.706 2.706 0 00.366.36 2.963 2.963 0 001.88.589 8.411 8.411 0 002.7-.551c.448-.154 1.067-.4 1.229-.468l.762-.331q.755-.34 1.482-.7c.972-.478 1.919-.974 2.857-1.471 1.89-1.018 3.642-1.957 5.544-2.773a123.711 123.711 0 0111.688-4.331 120.044 120.044 0 0112.009-3.252l.779-.144a.849.849 0 01.113-.012c.108-.01.049.131.007.17l-.04.041-.023.019-.091.072a9.8 9.8 0 01-1.178.742c-.887.508-1.789 1-2.71 1.459-7.334 3.74-15.542 6.192-23.062 10.44q-3.164 1.836-6.212 3.859c-.562.34-1.129.686-1.7 1.049l-.895.581c-.488.342-1.008.682-1.478 1.042a10.228 10.228 0 00-2.337 2.149 5.349 5.349 0 00-.279.476zm3.24 11.392q-1.569-4.647-2.9-9.33a1.266 1.266 0 00.159.125 2.685 2.685 0 00.864.4 6.844 6.844 0 002.85-.016c.582-.1 1.184-.23 1.793-.388.288-.072.641-.165.882-.237l.51-.15q1.017-.306 2.023-.672a35.516 35.516 0 002.013-.8c.335-.149.671-.305 1.008-.475l.91-.446a96.899 96.899 0 013.779-1.693c2.568-1.091 5.2-2.129 7.863-3.057q1-.348 2-.666l.372-.116a1.8 1.8 0 01.608-.1c.034.008.087.019.089.061a.18.18 0 01-.06.091 1.323 1.323 0 01-.178.138 6.65 6.65 0 01-.391.247l-4.711 2.69c-3.672 2.088-7.272 4.183-10.66 6.43l-.271.4c-2.52 1.755-3.649 2.677-4.336 3.208l-.62.5-.593.511c-.384.321-.709.643-1.195 1.116a16.916 16.916 0 00-1.811 2.228zm3.125 8.66q-1.111-2.887-2.138-5.809l.21.047a.371.371 0 00.19 0l.229-.036.918-.144c.311-.052.7-.178 1.043-.263.36-.105.695-.169 1.08-.31.751-.257 1.494-.482 2.256-.782l.779-.306.617-.256 1.224-.526c3.24-1.434 6.336-3.074 9.413-4.675 1.538-.8 3.07-1.594 4.6-2.312l.337-.154.174-.072a.713.713 0 01.373-.062.1.1 0 01.062.15.589.589 0 01-.111.151 2.569 2.569 0 01-.288.253l-.5.368-1.039.736c-.7.485-1.413.962-2.131 1.436-2.876 1.889-5.828 3.705-8.762 5.58l-2.2 1.423-1.094.729-.619.422-.966.681a15.6 15.6 0 00-3.117 2.725 3.885 3.885 0 00-.547 1.014zm4.541 10.864l-.266-.076a12.373 12.373 0 01-.976-2.656q-1.254-2.931-2.427-5.917a3.019 3.019 0 00.953.251 9.428 9.428 0 003.649-.656 45.56 45.56 0 002.166-.778l1.26-.5 2.4-1c3.182-1.355 6.307-2.769 9.432-4.065 1.558-.64 3.137-1.273 4.662-1.739a1.4 1.4 0 01.5-.087c.107 0 .111.115.1.193a.6.6 0 01-.085.238 1.03 1.03 0 01-.144.2 8.3 8.3 0 01-.777.792 17.891 17.891 0 01-1.849 1.469c-1.305.927-2.751 1.746-4.207 2.651a96.489 96.489 0 00-8.447 5.726c-.671.543-1.344 1.074-1.989 1.675-.161.15-.328.288-.485.446l-.555.562a16.346 16.346 0 00-1.331 1.672 3.525 3.525 0 00-.535 3.138 2.769 2.769 0 00.439.692 1.777 1.777 0 00.576.372 2.642 2.642 0 001.44.072 10.154 10.154 0 001.944-.648l1.008-.445.644-.3c.759-.36 1.5-.728 2.242-1.1 1.476-.745 2.93-1.5 4.375-2.261l4.31-2.259 3.554-1.826.4-.189.195-.088c.064-.016.126-.09.192-.039s.047.137.014.2a1.086 1.086 0 01-.12.185 3.746 3.746 0 01-.288.316l-.683.648a91 91 0 01-1.715 1.562 177.085 177.085 0 01-3.522 3.033c-2.055 1.689-6.433 5.213-10.423 8.614l-.245.209-.124.268a4.979 4.979 0 00-.161.38 2.864 2.864 0 00-.077.293l-.029.149a2.357 2.357 0 00-.015.238 1.73 1.73 0 00.012.249 1.278 1.278 0 00.057.288 1.841 1.841 0 00.333.648 1.993 1.993 0 00.532.444 2.467 2.467 0 00.454.18 2.684 2.684 0 00.962.049 5.343 5.343 0 00.576-.1 13.129 13.129 0 001.674-.555c1-.4 1.882-.806 2.69-1.186l3.676-1.787 8.064-4.419q1.056-.576 2.115-1.145c-.246.2-.488.408-.737.612-1.028.848-2.07 1.676-3.116 2.633l-.731.681c-.222.216-.458.419-.7.621-.475.411-.982.805-1.5 1.2-2.057 1.576-4.31 3.046-6.375 4.929a16.54 16.54 0 00-2.811 3.249 8.859 8.859 0 00-.556.969l-.131.249a2.218 2.218 0 00-.184.478 2.467 2.467 0 00-.059.294 2.11 2.11 0 00-.018.2v.16l.01.112a1.663 1.663 0 00.034.187 1.733 1.733 0 00.066.2c-3.2-6.028-6.876-12.8-9.322-19.049zm11.8 18.6l.109.051zm-1.809-1.021l.679.9-.682-.905zm-.064-.086l.061.081zM360.566 270l-.042.08a.792.792 0 00-.035.072 1.664 1.664 0 00.067 1.42 242.285 242.285 0 01-4.536-7.2l-1.665-2.348c-.72-1.4-1.5-2.88-2.313-4.4a1.329 1.329 0 00.239.274 1.411 1.411 0 00.559.309 1.453 1.453 0 001.093-.113c.3-.182.168-.111.2-.13l.047-.035.1-.072c.509-.365 1.008-.738 1.538-1.08l-.489.354a71.871 71.871 0 016.465-3.944c.288-.144.335-.144.127-.013a108.687 108.687 0 015.739-2.987c1.057-.516 2.16-1.035 3.294-1.559l1.116-.508.313-.135.368-.151c.056-.057.131.037.111.1a.547.547 0 01-.094.2 1.911 1.911 0 01-.282.307l-.144.126-.307.253c-2.424 2.009-5.024 3.832-7.41 5.558l.492-.383-3.1 2.272-1.543 1.173c-.161.123-.755.585-1.186.957l-.688.576-.62.584-.309.288c-.093.1-.167.191-.252.288l-.485.568a11.515 11.515 0 00-.613 1.031 3.461 3.461 0 00-.462 1.928 1.852 1.852 0 00.338.916 1.635 1.635 0 00.576.471 1.441 1.441 0 00.7.188c.154.007.288.028.46.025l.595-.083a19.251 19.251 0 003.061-1.073l.817-.345.756-.337 1.115-.5q1.737-.8 3.441-1.641 3.384-1.663 6.69-3.435c-3.024 2.515-6.217 4.916-9.316 7.488-.965.807-1.923 1.627-2.862 2.561a10.77 10.77 0 00-1.4 1.645c-.059.086-.119.2-.177.3zm9.643 10.594l-.571.686c-.176.228-.3.457-.451.685a8.844 8.844 0 00-.644 1.142q-4.085-5.529-7.835-11.3a1.576 1.576 0 001.458.608 1.672 1.672 0 00.488-.144l.026-.014.054-.026.105-.054.846-.425c2.239-1.152 4.392-2.386 6.529-3.625l6.37-3.726a208.221 208.221 0 013.18-1.815l1.6-.878 1.376-.726a1.481 1.481 0 01.57-.216.066.066 0 01.084.084.517.517 0 01-.041.139 1.577 1.577 0 01-.138.26.552.552 0 01-.1.113l-.273.259c-.432.4-.873.786-1.326 1.165-.908.753-1.858 1.47-2.841 2.165s-1.994 1.375-3.015 2.061-2.073 1.385-3.1 2.177c-.507.4-1.008.806-1.494 1.241l-.36.327-.449.432c-.411.393-.758.8-1.13 1.208a15.311 15.311 0 00-2.8 4.569 2.683 2.683 0 00-.11.477 1.981 1.981 0 00-.061.447 2.954 2.954 0 00.072.738 1.773 1.773 0 00.09.338 1.131 1.131 0 00.3.4c.128.028.248.04.373.061a6.24 6.24 0 001.207 0c.118.122.776-.343 1.262-.622l1.541-.926 3.1-1.822 1.733-.964q1.7-.923 3.416-1.814a261.963 261.963 0 016.962-3.456l1.988-.94c-.465.375-.954.734-1.459 1.08a71.638 71.638 0 01-6.716 3.837 53.371 53.371 0 00-7 4.192 21.416 21.416 0 00-1.648 1.374c-.089.088-.365.344-.576.558s-.4.439-.592.668zm5.143 7.835a7.99 7.99 0 00-.92 1.67l-.049.114a1.587 1.587 0 00-.084.354q-1.743-2.16-3.435-4.369l1.328-.352a39.928 39.928 0 003.753-1.61c1.7-.849 3.333-1.8 4.941-2.788 3.227-1.958 6.359-4.1 9.619-5.958q.611-.36 1.224-.677c.412-.216.821-.449 1.237-.637l1.054-.5.21-.087c.05-.016.126-.059.166 0a.388.388 0 01-.085.157l-.03.036-.253.256c-.33.311-.663.623-1.023.923a35.081 35.081 0 01-2.252 1.755c-1.564 1.139-3.228 2.221-4.906 3.321s-3.389 2.209-5.079 3.42a26.669 26.669 0 00-4.879 4.269 7.558 7.558 0 00-.54.7zm2.669.648c-.127.144-.254.288-.375.446l-.312.144c.107-.144.226-.283.345-.422.036-.018.072-.032.105-.049.075-.041.157-.083.234-.121zM376.8 291.1l-.251-.091zm-.318-.116l-.323-.118zm-.417-.118l.041.094-.041-.093.046.1-.055-.123v.006zm3.61 3.549l-.779 1.664q-1.5-1.743-2.973-3.516a1.512 1.512 0 00.19.021 1.71 1.71 0 00.53-.1l.131-.053.023-.01.178-.081c.953-.433 1.892-.882 2.828-1.342a118.06 118.06 0 005.5-2.94 161.82 161.82 0 005.945-3.539l-1.885 1.24c-1.512 1.008-3.141 2.088-4.782 3.415-.411.327-.83.648-1.231 1.029l-1.1 1.008a12.675 12.675 0 00-.948 1.072zm16.125 17.426l-.485.612-.063.08a2.394 2.394 0 00-.178.3 1.889 1.889 0 00-.089.256q-2.249-1.976-4.418-4.041c-3.338-3.372-6.516-6.894-9.584-10.512l.46-.083.5-.089.249-.044c.043-.01.081-.013.128-.026l.17-.072 1.368-.61 1.373-.618c.484-.261.963-.5 1.457-.8l1.084-.635.739-.458c.988-.609 1.944-1.244 2.906-1.876 1.906-1.271 3.772-2.555 5.627-3.767a60.994 60.994 0 015.518-3.3c.453-.253.911-.454 1.368-.665l.185-.086.014-.008.014-.007a.181.181 0 01.072-.024c.031.014 0 .037-.005.054l-.023.03-.064.065-.319.292c-2.546 2.279-5.12 4.044-7.043 5.491-1.944 1.434-3.3 2.514-3.882 3.008 2.107-1.622 4.271-3.06 6.377-4.522-3.888 2.907-7.577 5.376-10.413 8.757a12.182 12.182 0 00-2.3 4.129 2.946 2.946 0 00-.018 1.486 1.294 1.294 0 00.335.672.931.931 0 00.537.321 2.331 2.331 0 001.324.022 11.987 11.987 0 001.958-.828 30.053 30.053 0 002.058-1.17l.657-.411.571-.37c3.01-1.986 5.7-4.042 8.405-6.071l2.025-1.518.845-.62c.133-.093.269-.186.415-.27a.677.677 0 01.235-.095c.057-.01.067.044.057.085a.635.635 0 01-.014.123 1.321 1.321 0 01-.23.5 3.195 3.195 0 01-.181.234l-.1.115-.182.188-.261.261c-1.412 1.39-3.075 2.736-4.838 4.183l.884-.774c-.606.475-1.132.921-2 1.664-.859.762-2.1 1.745-3.984 3.648a18.85 18.85 0 00-1.474 1.707 12.654 12.654 0 00-.754 1.114l-.352.659-.157.365-.079.186-.039.094a1.762 1.762 0 00-.081.3 1.677 1.677 0 00.27 1.244 1.516 1.516 0 00.36.368 1.351 1.351 0 001.344.133 1.563 1.563 0 00.2-.111l.019-.013.072-.05.605-.42 1.288-.882 2.88-2c2.063-1.434 4.427-3.083 7.173-4.939l2.129-1.424c-.164.151-.318.3-.492.454l-.014-.016c-.509.459-.7.657-1.158 1.049.255-.209.521-.413.771-.624.364-.308.72-.622 1.066-.936l.144-.131.195-.128-.183.189c-.281.3-.593.576-.888.864a59.258 59.258 0 01-1.917 1.718c-1.35 1.167-2.866 2.392-4.7 3.914a8.3 8.3 0 01-1.188.864 36.042 36.042 0 00-4.285 4.23zm5.1 5.936c-.022.061-.033.12-.049.181q-1.647-1.29-3.253-2.632l.024-.008.221-.079c.144-.053.3-.106.432-.165a16.351 16.351 0 002.7-1.639c1.031-.677 2-1.388 2.962-2.1.5-.419.851-.735 1.152-1.008l.409-.382a.665.665 0 00.1-.132 3.286 3.286 0 01.7-.7 4.227 4.227 0 01.555-.376c.1-.048.237-.155.36-.042.108.156-.082.352-.193.509.277-.314.407-.471.432-.449s-.072.181-.2.384c-.251.4-.636.954-.428.752l-.3.347-.175.2-.084.094-.185.233a211.051 211.051 0 01-2.91 3.969 83.272 83.272 0 01-1.689 2.175l-.216.266-.059.072-.124.17a1.954 1.954 0 00-.193.357zm9.808-9.673c-.031-.027-.058-.072-.078-.221a12.288 12.288 0 01.039 1.86l-.231-.585.216 1.913a21.671 21.671 0 01-.051 2.969l-.046-.725-.055 9.664-.185.135a13.211 13.211 0 01.1 2.41 111.848 111.848 0 01-3.985-3.427 135.05 135.05 0 01-2.891-2.088l.055-.025a6.913 6.913 0 001.319-.926c.367-.317.7-.634 1.008-.942.621-.618 1.167-1.2 1.663-1.717a17.031 17.031 0 011.3-1.249 2.652 2.652 0 01.4-.288c.024.047.01 0-.011-.086a.39.39 0 00.013.057h-.006a1.416 1.416 0 00-.194.1 12.99 12.99 0 00-1.794 1.56 35.226 35.226 0 01-2.834 2.6 5.8 5.8 0 01-1.052.655c-.044.02-.1.037-.144.057q-1.063-.792-2.111-1.61a1.577 1.577 0 01.252-.6l.084-.11.049-.057.093-.107.186-.216.372-.438a135.026 135.026 0 002.952-3.69l2.448-3.2c.655-.864 1.314-1.746 1.906-2.582a3.518 3.518 0 00.4-.632.539.539 0 00-.072-.617c-.335-.228-.648-.013-.872.088.324-.209.715-.377 1-.175a.433.433 0 01.144.415 1.008 1.008 0 01-.144.377l-.589.891c-.248.368-.216.334-.035.086s.527-.709.851-1.229c.149-.254.191-.641-.035-.8a.648.648 0 00-.568-.063c-.186.112-.355.249-.524.371a19.085 19.085 0 00-1.689 1.085c-1.647 1.181-1.957 1.353-3.432 2.508.007.009.072-.027.13-.059l.224-.2c.189-.124.1-.028-.092.144.061-.016-.092.144-1.105.949l.185-.167c-1.523 1.265-4.253 3.384-5.717 3.888l-.066-.091a1.133 1.133 0 01-.831.15.671.671 0 01-.432-.377.436.436 0 01.013-.338 1.966 1.966 0 01.2-.274 21.382 21.382 0 012.167-2.385 84.47 84.47 0 016.535-5.408c1.2-.93 2.4-1.872 3.521-2.835.56-.481 1.1-.967 1.609-1.46a1.144 1.144 0 00.235-.251c-.017.288-.033.606-.047 1 .058-.6.144-1.521.183-.128a13.338 13.338 0 01-.144 1.52 19.452 19.452 0 01.211 4.928z" fill="#00f"/><path d="M248.9 69.079l12.847.026-.007 3.48-9.077-.018-.009 4.64 7.308.014-.007 3.48-7.308-.014-.018 8.7-3.77-.008zm15.734 5.721l3.6.007v2.378a5.8 5.8 0 011.918-1.925 4.59 4.59 0 012.408-.676 6.144 6.144 0 011.768.293l-.673 3.334a2.838 2.838 0 00-1.507-.409 3.325 3.325 0 00-2.816 1.546 8.545 8.545 0 00-1.112 4.884l-.011 5.191-3.6-.007zm14.7 13.891a6.559 6.559 0 01-2.561-2.7 8.852 8.852 0 01.015-7.714 6.568 6.568 0 012.572-2.692 8.5 8.5 0 017.946.016 6.571 6.571 0 012.561 2.7 8.852 8.852 0 01-.015 7.714 6.568 6.568 0 01-2.572 2.692 8.5 8.5 0 01-7.946-.016zm6.648-3.365A5.606 5.606 0 00286 78.97a3.4 3.4 0 00-5.336-.011 5.607 5.607 0 00-.012 6.351 3.4 3.4 0 005.336.011zm8.025-10.467l3.6.007-.007 2.344a6.546 6.546 0 011.845-1.925 4.241 4.241 0 012.365-.648 4.366 4.366 0 012.522.759 4.085 4.085 0 011.561 2.266 6.276 6.276 0 011.962-2.215 4.384 4.384 0 012.51-.792 4.251 4.251 0 013.188 1.195 4.535 4.535 0 011.153 3.308l-.021 10.353-3.6-.007.02-9.744q0-2.03-1.794-2.034a2.6 2.6 0 00-2.28 1.562 9.358 9.358 0 00-.893 4.522l-.012 5.684-3.6-.007.02-9.744q0-2.029-1.794-2.034a2.6 2.6 0 00-2.28 1.634 10.265 10.265 0 00-.894 4.769l-.011 5.365-3.6-.007zm36.844 14.371a3.292 3.292 0 01-1.317-1.192v1.508l-3.6-.007L325.98 69l3.6.007-.014 7.25a3.94 3.94 0 011.481-1.1 4.788 4.788 0 012.06-.46 6.108 6.108 0 014.94 2.055 8.238 8.238 0 011.715 5.5 8.247 8.247 0 01-1.737 5.492 6.108 6.108 0 01-4.948 2.034 4.418 4.418 0 01-2.222-.553zm4.169-3.7a6.113 6.113 0 00.014-6.568 3.007 3.007 0 00-2.434-1.18 2.967 2.967 0 00-2.424 1.17 6.219 6.219 0 00-.013 6.583 3.087 3.087 0 004.857 0zm8.008-16.485l3.6.007-.041 20.532-3.6-.007zm8.85 19.651a4.223 4.223 0 01-1.226-3.28l.021-10.44 3.6.008-.019 9.367a2.534 2.534 0 00.562 1.828 2.028 2.028 0 001.521.583 2.389 2.389 0 001.654-.693 4.884 4.884 0 001.222-2.042 9.863 9.863 0 00.471-3.2l.012-5.829 3.6.007-.03 14.616-3.6-.007v-2.349a6.626 6.626 0 01-2 1.881 4.827 4.827 0 01-2.524.691 4.634 4.634 0 01-3.26-1.15zm17.69.05a6.614 6.614 0 01-2.315-2.847 9.043 9.043 0 01.015-7.163 6.618 6.618 0 012.332-2.846 6.7 6.7 0 013.961-1.109 6.334 6.334 0 016.082 3.841 8.357 8.357 0 01.719 3.394v1.479l-10.063-.02a3.54 3.54 0 00.966 2.322 3.218 3.218 0 002.478.991 3.614 3.614 0 002.046-.547 5.007 5.007 0 001.5-1.708l2.9 1.079a6.609 6.609 0 01-6.649 4.249 6.692 6.692 0 01-3.968-1.124zm7.106-8.091a3.966 3.966 0 00-1.025-2 2.813 2.813 0 00-2.1-.788 2.93 2.93 0 00-2.119.808 3.522 3.522 0 00-1.048 1.97zm6.943-5.612l3.6.007v1.508a3.292 3.292 0 011.321-1.187 4.418 4.418 0 012.22-.546 6.108 6.108 0 014.94 2.054 8.242 8.242 0 011.715 5.5 8.244 8.244 0 01-1.737 5.492 6.109 6.109 0 01-4.948 2.035 4.793 4.793 0 01-2.058-.468 3.953 3.953 0 01-1.477-1.105l-.015 7.25-3.6-.007zm9.055 10.6a6.115 6.115 0 00.014-6.569 3.009 3.009 0 00-2.434-1.179 2.967 2.967 0 00-2.424 1.17 6.219 6.219 0 00-.013 6.583 3.087 3.087 0 004.857 0zm8-10.569l3.6.007v2.378a5.8 5.8 0 011.918-1.925 4.59 4.59 0 012.408-.676 6.144 6.144 0 011.768.293l-.673 3.334a2.838 2.838 0 00-1.507-.409 3.325 3.325 0 00-2.816 1.546 8.545 8.545 0 00-1.12 4.878l-.011 5.191-3.6-.007zm12.243-2.528a2.381 2.381 0 111.651.671 2.244 2.244 0 01-1.65-.677zm-.15 2.552l3.6.007-.03 14.616-3.6-.007zm7.656.015l3.6.008v2.349a6.59 6.59 0 012-1.881 4.806 4.806 0 012.524-.691 4.635 4.635 0 013.26 1.137 4.227 4.227 0 011.226 3.28l-.021 10.44-3.6-.007.019-9.367a2.539 2.539 0 00-.562-1.829 2.032 2.032 0 00-1.521-.583 2.389 2.389 0 00-1.654.693 4.9 4.9 0 00-1.222 2.038 9.867 9.867 0 00-.47 3.2l-.012 5.829-3.6-.008zm18.563 13.517a5.33 5.33 0 01-1.413-4.034l.012-6.38h-2.262l.007-3.074h2.262l.007-3.654 3.6-2.255-.011 5.916 3.857.008-.007 3.074-3.857-.008-.012 6.322a2.767 2.767 0 00.475 1.843 1.823 1.823 0 001.434.539 2.973 2.973 0 001.393-.345l.835 2.9a5.614 5.614 0 01-2.379.518 5.467 5.467 0 01-3.941-1.37zm17.922.036a5.33 5.33 0 01-1.413-4.034l.012-6.38h-2.262l.007-3.074h2.262l.007-3.654 3.6-2.255-.011 5.916 3.857.008-.007 3.074-3.857-.008-.012 6.322a2.767 2.767 0 00.475 1.843 1.823 1.823 0 001.434.539 2.973 2.973 0 001.393-.345l.835 2.9a5.614 5.614 0 01-2.379.518 5.467 5.467 0 01-3.941-1.37zm11.454.4a6.571 6.571 0 01-2.561-2.7 8.852 8.852 0 01.015-7.714 6.562 6.562 0 012.572-2.692 8.5 8.5 0 017.946.016 6.559 6.559 0 012.561 2.7 8.852 8.852 0 01-.015 7.714 6.574 6.574 0 01-2.572 2.692 8.5 8.5 0 01-7.946-.016zm6.648-3.365a5.607 5.607 0 00.012-6.351 3.4 3.4 0 00-5.336-.011 5.606 5.606 0 00-.012 6.351 3.4 3.4 0 005.336.011zm15.217-10.453l3.6.007-.005 2.378a5.8 5.8 0 011.918-1.925 4.591 4.591 0 012.408-.677 6.159 6.159 0 011.769.294l-.674 3.334a2.838 2.838 0 00-1.507-.409 3.322 3.322 0 00-2.816 1.546 8.54 8.54 0 00-1.118 4.884l-.011 5.191-3.6-.007zm14.313 13.76a6.619 6.619 0 01-2.315-2.847 9.043 9.043 0 01.015-7.161 6.618 6.618 0 012.325-2.837 6.7 6.7 0 013.961-1.109 6.463 6.463 0 013.826 1.095 6.532 6.532 0 012.256 2.746 8.354 8.354 0 01.719 3.394v1.479l-10.063-.02a3.545 3.545 0 00.966 2.322 3.218 3.218 0 002.478.991 3.614 3.614 0 002.046-.547 5.007 5.007 0 001.5-1.708l2.9 1.079a6.609 6.609 0 01-6.649 4.249 6.692 6.692 0 01-3.965-1.126zm7.106-8.091a3.966 3.966 0 00-1.025-2 2.809 2.809 0 00-2.1-.788 2.93 2.93 0 00-2.119.808 3.522 3.522 0 00-1.048 1.97zm7.408 8.076a4.253 4.253 0 01-1.24-3.279 4.21 4.21 0 011.66-3.477 7.022 7.022 0 014.468-1.3h2.552v-.638a1.877 1.877 0 00-.722-1.611 3 3 0 00-1.826-.54 2.459 2.459 0 00-2.526 1.677l-3.044-.7a4.606 4.606 0 011.876-2.94 6.084 6.084 0 013.7-1.109 6.268 6.268 0 014.535 1.561 6.058 6.058 0 011.6 4.571l-.018 8.729-2.958-.006-.373-1.857a5.526 5.526 0 01-4.5 2.079 4.5 4.5 0 01-3.184-1.16zm6.444-2.727a2.717 2.717 0 00.99-2.188v-.29h-2.407a3.137 3.137 0 00-1.843.46 1.627 1.627 0 00-.655 1.42 1.3 1.3 0 00.447 1.03 1.723 1.723 0 001.174.394 3.458 3.458 0 002.298-.826zm8.385-16.847l3.6.007-.041 20.532-3.6-.007zm7.8 3.38a2.382 2.382 0 111.651.67 2.247 2.247 0 01-1.656-.669zm-.15 2.552l3.6.007-.03 14.616-3.6-.007zm9.543 13.5a5.33 5.33 0 01-1.413-4.034l.012-6.38h-2.262l.007-3.074 2.262.005.007-3.654 3.6-2.255-.011 5.916 3.857.008-.007 3.074-3.857-.008-.012 6.322a2.767 2.767 0 00.475 1.843 1.823 1.823 0 001.434.539 2.973 2.973 0 001.393-.345l.835 2.9a5.614 5.614 0 01-2.379.518 5.467 5.467 0 01-3.946-1.371zm12.382.228l-5.279-13.7 3.625.007 3.374 9.171 3.204-9.157 3.6.008-7.582 20.517-3.48-.007z" fill="#00f" fill-rule="evenodd"/><path d="M623.5 276.357l-2.119-.005.017-8.23h-2.714v-1.764l7.547.015v1.764l-2.714-.006zm16.553-4.978a5.423 5.423 0 01-1.238 3.812 5.334 5.334 0 01-7.055-.014 5.443 5.443 0 01-1.222-3.831 5.368 5.368 0 011.241-3.808 4.612 4.612 0 013.54-1.309 4.554 4.554 0 013.522 1.333 5.442 5.442 0 011.215 3.817zm-7.294-.014a4.173 4.173 0 00.631 2.523 2.225 2.225 0 001.9.852q2.535 0 2.542-3.365t-2.515-3.382a2.237 2.237 0 00-1.909.847 4.151 4.151 0 00-.646 2.525zm26.11 5.063l-.72-2.381-3.643-.007-.73 2.377h-2.283l3.548-10.028h2.591l3.52 10.042zm-1.222-4.159q-1-3.236-1.124-3.66a10.005 10.005 0 01-.18-.67q-.226.874-1.3 4.325zm17.129 4.191l-2.693-.006-4.332-7.569h-.062q.126 2 .124 2.858l-.009 4.7h-1.894l.02-9.994h2.673l4.326 7.494h.048q-.1-1.948-.1-2.755l.009-4.73h1.908zm19.271.038l-.72-2.38-3.643-.007-.73 2.377h-2.283l3.548-10.029 2.59.006 3.521 10.042zm-1.222-4.158q-1-3.235-1.124-3.66t-.18-.67q-.228.875-1.3 4.324zm17.437 4.191h-2.413l-1.343-5.253q-.075-.281-.254-1.159t-.206-1.18q-.042.37-.208 1.186t-.255 1.165l-1.357 5.234h-2.407l-2.529-10h2.085l1.267 5.457q.332 1.512.48 2.62.042-.39.191-1.207t.279-1.267l1.467-5.6h2l1.445 5.6q.094.376.237 1.149t.216 1.326q.069-.533.221-1.329t.276-1.288l1.283-5.452h2.085zm13.056.026l-5.755-.011.02-10 5.756.012v1.736l-3.637-.007v2.194l3.384.007v1.736l-3.384-.006v2.577l3.637.007zm11.49-2.752a2.584 2.584 0 01-.978 2.131 4.227 4.227 0 01-2.712.773 6.363 6.363 0 01-2.829-.607v-1.969a11.581 11.581 0 001.711.64 5.077 5.077 0 001.282.187 1.817 1.817 0 001.07-.265.911.911 0 00.374-.792.878.878 0 00-.163-.523 1.832 1.832 0 00-.481-.442 12.36 12.36 0 00-1.294-.679 6.142 6.142 0 01-1.372-.83 3.1 3.1 0 01-.73-.925 2.625 2.625 0 01-.271-1.231 2.585 2.585 0 01.9-2.083 3.739 3.739 0 012.487-.754 5.863 5.863 0 011.486.188 10.3 10.3 0 011.479.522l-.687 1.647a9.929 9.929 0 00-1.322-.461 4.283 4.283 0 00-1.028-.132 1.366 1.366 0 00-.924.278.929.929 0 00-.323.731.91.91 0 00.129.489 1.435 1.435 0 00.413.4 12.658 12.658 0 001.342.7 5.332 5.332 0 011.918 1.347 2.613 2.613 0 01.526 1.66zM749.2 271.6a5.426 5.426 0 01-1.238 3.812 5.334 5.334 0 01-7.055-.014 5.443 5.443 0 01-1.223-3.831 5.366 5.366 0 011.242-3.808 4.612 4.612 0 013.54-1.309 4.552 4.552 0 013.521 1.333 5.438 5.438 0 011.213 3.817zm-7.294-.014a4.18 4.18 0 00.63 2.523 2.227 2.227 0 001.9.852q2.537 0 2.543-3.365t-2.516-3.382a2.238 2.238 0 00-1.909.847 4.161 4.161 0 00-.649 2.523zm17.086 5.045l-2.39-7.846h-.062q.126 2.392.124 3.193l-.009 4.648h-1.894l.02-9.994 2.885.006 2.35 7.647h.041l2.524-7.637h2.885l-.02 10h-1.976l.009-4.731c0-.223 0-.481.012-.772s.04-1.067.1-2.324h-.061l-2.593 7.822zm18.225.036l-5.756-.011.02-9.994 5.756.011v1.736l-3.637-.009v2.194l3.384.007v1.737l-3.384-.007v2.577l3.637.007zm-151.851 18.7l-5.755-.012.02-9.994 5.755.011v1.737l-3.637-.008v2.195l3.384.007v1.736l-3.384-.007v2.577l3.637.008zm13.665.027h-2.42l-2.316-3.785-2.332 3.776h-2.269l3.325-5.147-3.093-4.847h2.337l2.146 3.6 2.12-3.591h2.283l-3.147 4.95zm6.888-5.277h.7a2.323 2.323 0 001.464-.383 1.354 1.354 0 00.488-1.124 1.385 1.385 0 00-.4-1.1 1.9 1.9 0 00-1.274-.358h-.964zm4.788-1.577a3.055 3.055 0 01-1.014 2.46 4.316 4.316 0 01-2.869.849h-.909l-.008 3.555h-2.119l.02-10 3.193.007a4.243 4.243 0 012.763.788 2.854 2.854 0 01.942 2.335zm11.129 6.9l-5.756-.012.02-9.994 5.756.012v1.736l-3.637-.007v2.194l3.383.007v1.736l-3.384-.007v2.577l3.637.008zm7.715-5.542h.684a2.614 2.614 0 001.484-.332 1.2 1.2 0 00.481-1.052 1.1 1.1 0 00-.487-1.013 2.967 2.967 0 00-1.514-.3h-.642zm0 1.722l-.008 3.835h-2.119l.02-9.994 2.912.006a4.983 4.983 0 013.013.747 2.959 2.959 0 01.485 3.823 3.22 3.22 0 01-1.376 1.074q2.248 3.374 2.93 4.36h-2.351l-2.378-3.84zm10.615 3.857l.02-10h2.119l-.02 9.994zm13.891.027l-5.756-.011.02-9.994 5.756.011v1.737l-3.636-.008v2.195l3.384.006v1.737l-3.384-.007v2.577l3.636.007zm14.451.029h-2.693l-4.333-7.569h-.061q.126 2 .124 2.857l-.01 4.7h-1.893l.02-10 2.673.006 4.326 7.494h.047q-.1-1.948-.1-2.755l.01-4.731h1.907zm10.278-8.353a2.16 2.16 0 00-1.855.9 4.187 4.187 0 00-.661 2.5q-.006 3.344 2.5 3.348a7.939 7.939 0 002.551-.521v1.777a7.083 7.083 0 01-2.749.507 4.191 4.191 0 01-3.333-1.329 5.606 5.606 0 01-1.148-3.8 6.2 6.2 0 01.573-2.73 4.1 4.1 0 011.634-1.794 4.821 4.821 0 012.493-.621 6.733 6.733 0 012.925.71l-.688 1.722a11.187 11.187 0 00-1.127-.468 3.392 3.392 0 00-1.119-.207zm13.914 8.4l-5.755-.012.02-9.994 5.755.012v1.736l-3.637-.007v2.194l3.384.007v1.736l-3.384-.006v2.577l3.637.007z" fill="#222" fill-rule="evenodd"/></svg>