<svg width="378" height="163" viewBox="0 0 378 163" fill="none" xmlns="http://www.w3.org/2000/svg"><g id="Group 10"><g id="icon/eye/closed" fill-rule="evenodd" clip-rule="evenodd" stroke="#FFE400" stroke-width="3.811"><path id="Shape" d="M10.973 75.317s24.554 50.98 69.662 50.98h1.59c45.108 0 69.662-50.98 69.662-50.98v-.27s-24.554-50.98-69.662-50.98h-1.59c-45.108 0-69.662 50.98-69.662 50.98v.27z"/><path id="Oval" d="M79.64 100.942c13.92 0 25.204-11.283 25.204-25.203S93.56 50.536 79.641 50.536c-13.92 0-25.204 11.284-25.204 25.203 0 13.92 11.284 25.203 25.204 25.203z"/></g><g id="icon/eye/closed copy 2"><g id="icon/eye/closed_2" fill-rule="evenodd" clip-rule="evenodd" stroke="#FFE400" stroke-width="3.811"><path id="Shape_2" d="M231.504 78.55s24.231 50.309 68.746 50.309h1.568c44.494.032 68.725-50.309 68.725-50.309v-.234s-24.231-50.309-68.746-50.309h-1.568c-44.515 0-68.725 50.309-68.725 50.309v.234z"/><path id="Shape_3" d="M281.301 61.841c-9.384 9.667-9.338 25.056.104 34.666 9.442 9.61 24.828 9.928 34.658.716L281.301 61.84z"/><path id="Shape_4" d="M370.128 152.067L236.594 16.131l133.534 135.936z" stroke-linecap="round" stroke-linejoin="round"/></g></g></g></svg>