<svg width="24" height="24" fill="none" xmlns="http://www.w3.org/2000/svg"><path fill-rule="evenodd" clip-rule="evenodd" d="M16.169 6.814a6.345 6.345 0 00-4.157-1.496 6.057 6.057 0 00-1.594.22 16.535 16.535 0 012.548 3.538 7.782 7.782 0 003.203-2.262zm-7.106-.779a15.774 15.774 0 012.61 3.507c-1.608.474-3.277.71-4.953.702-.448 0-.786-.01-1.016-.031a6.646 6.646 0 011.242-2.447 6.356 6.356 0 012.117-1.731zm3.626 5.611a7.785 7.785 0 00-3.173 1.669 8.925 8.925 0 00-2.374 2.789 6.273 6.273 0 01-1.642-4.29c0-.046.001-.093.01-.155.007-.063.007-.116.007-.157.198.01.5.016.906.016a19.01 19.01 0 005.812-.858c.145.292.296.621.454.986zm-4.657 5.3a8.86 8.86 0 012.164-2.65 6.665 6.665 0 012.898-1.573 22.857 22.857 0 011.22 5.159 6.402 6.402 0 01-6.282-.935zm5.5-6.76c.156.333.333.754.53 1.262a26.77 26.77 0 012.516-.11c.646 0 1.287.016 1.922.048a6.25 6.25 0 00-1.53-3.776 7.73 7.73 0 01-3.438 2.575zm2 7.088a22.39 22.39 0 00-1.077-4.739 29.9 29.9 0 011.953-.082c.625 0 1.317.026 2.078.078a6.282 6.282 0 01-.938 2.696 6.515 6.515 0 01-2.016 2.047z" fill="#fff"/></svg>