<svg data-name="Layer 1" xmlns="http://www.w3.org/2000/svg" viewBox="0 0 32 32"><path d="M8.316 23.055a10.189 10.189 0 01-2.58-6.883 1.984 1.984 0 01.014-.25 2 2 0 00.012-.251q.467.027 1.425.026a29.323 29.323 0 009.135-1.376q.342.7.714 1.582a12.168 12.168 0 00-4.988 2.676 14.259 14.259 0 00-3.732 4.476zm7.122-10.528a25.272 25.272 0 00-4.1-5.627 10.036 10.036 0 00-3.329 2.777A10.737 10.737 0 006.056 13.6q.542.051 1.6.049a26.471 26.471 0 007.782-1.122zm7.067-4.377a9.853 9.853 0 00-6.533-2.4 9.32 9.32 0 00-2.506.352 26.491 26.491 0 014.005 5.678 12.236 12.236 0 005.034-3.63zm-9.388 12.005a14.165 14.165 0 00-3.4 4.252 9.9 9.9 0 009.875 1.5 37.362 37.362 0 00-1.917-8.277 10.408 10.408 0 00-4.558 2.525zm6.077-4.57q1.82-.176 3.955-.176 1.523 0 3.02.076a10.137 10.137 0 00-2.4-6.058 12.171 12.171 0 01-5.405 4.132q.364.803.83 2.026zm.617 1.744a36.608 36.608 0 011.694 7.6 10.356 10.356 0 003.169-3.284 10.213 10.213 0 001.473-4.326q-1.792-.124-3.266-.125-1.351.006-3.07.135z" fill="#FFF"/></svg>