<svg id="Layer_1" data-name="Layer 1" xmlns="http://www.w3.org/2000/svg" viewBox="0 0 32 32">
  <title>icon-social-be</title>
  <path d="M13.9,15.478a4.035,4.035,0,0,0,1.637-1.364,3.637,3.637,0,0,0,.554-2.068,4.44,4.44,0,0,0-.374-1.93,3.116,3.116,0,0,0-1.05-1.254,4.5,4.5,0,0,0-1.624-.682,9.88,9.88,0,0,0-2.1-.206H3.356V24.386h7.812a8.085,8.085,0,0,0,2.11-.277,5.6,5.6,0,0,0,1.829-.852,4.151,4.151,0,0,0,1.276-1.482v0a4.592,4.592,0,0,0,.474-2.134,4.615,4.615,0,0,0-.734-2.632A3.877,3.877,0,0,0,13.9,15.478Zm-7-4.7h3.319a4.922,4.922,0,0,1,.914.08,2.25,2.25,0,0,1,.78.286,1.54,1.54,0,0,1,.541.575,1.936,1.936,0,0,1,.2.943,1.745,1.745,0,0,1-.61,1.494,2.507,2.507,0,0,1-1.557.46H6.9Zm6.2,9.7a1.719,1.719,0,0,1-.574.654,2.377,2.377,0,0,1-.838.341,4.617,4.617,0,0,1-.994.1H6.9V17.076h3.861a2.945,2.945,0,0,1,1.852.544,2.14,2.14,0,0,1,.7,1.8A2.283,2.283,0,0,1,13.1,20.483Zm13.4-9.837H19.98V8.8H26.5Zm-1.43,10.807a3.239,3.239,0,0,1-3.748-.218v0a3.335,3.335,0,0,1-.791-2.3h8.417a8.528,8.528,0,0,0-.226-2.645,6.548,6.548,0,0,0-1.027-2.253,5.2,5.2,0,0,0-1.818-1.573,5.45,5.45,0,0,0-2.6-.587,5.921,5.921,0,0,0-2.426.483,5.7,5.7,0,0,0-3.105,3.309,7.042,7.042,0,0,0-.417,2.483,7.351,7.351,0,0,0,.417,2.529,5.748,5.748,0,0,0,1.179,1.974A5.165,5.165,0,0,0,20.8,23.936a6.573,6.573,0,0,0,2.483.448,6.035,6.035,0,0,0,3.386-.919,5.467,5.467,0,0,0,2.078-3.057H25.923A2.04,2.04,0,0,1,25.066,21.453Zm-4.391-5.364a2.4,2.4,0,0,1,.429-.827,2.437,2.437,0,0,1,.812-.657,2.759,2.759,0,0,1,1.276-.264,2.232,2.232,0,0,1,1.75.644,3.8,3.8,0,0,1,.8,1.885H20.527A3.766,3.766,0,0,1,20.675,16.089Z" fill="#222"/>
</svg>
