<svg id="Layer_1" data-name="Layer 1" xmlns="http://www.w3.org/2000/svg" viewBox="0 0 32 32"><g id="Symbols"><g id="footer_small" data-name="footer/small"><g id="Group-23"><g id="Group-3"><path id="Shape" d="M28.343 9.194h-.023l-.01.021-.011.023-.275.376a3.215 3.215 0 01-.293.376c-.014 0-.035.026-.061.065a5.937 5.937 0 01-.459.492 11.146 11.146 0 01-.83.768 1.049 1.049 0 00-.411.829c0 .329-.022.706-.05 1.11s-.083.858-.163 1.336a16.306 16.306 0 01-.369 1.624 15.25 15.25 0 01-.607 1.765 13.577 13.577 0 01-.749 1.545q-.389.686-.715 1.16c-.217.318-.439.616-.662.895s-.508.594-.851.945l-.564.574a20.147 20.147 0 01-1.224.995c-.28.211-.547.383-.785.53s-.52.3-.866.48a10.213 10.213 0 01-1.089.5q-.585.232-1.235.43a11.4 11.4 0 01-1.259.311c-.4.072-.866.136-1.378.187l-.769.078v.01h-1.468v-.01l-.183-.013-.3-.021c-.078 0-.38-.048-.9-.122s-.929-.146-1.225-.22-.738-.214-1.324-.42a12.87 12.87 0 01-1.5-.625l-.782-.332c-.1-.054-.22-.123-.346-.2l-.2-.121-.021-.01-.048-.039H4.29v-.044h.044l.1.011c.065 0 .243.019.531.033s.6.014.922 0a9.289 9.289 0 001-.1 10.921 10.921 0 001.213-.264 9.016 9.016 0 001.276-.447c.385-.176.66-.3.823-.39a7.839 7.839 0 00.742-.468l.5-.342h.043v-.044l-.173-.012-.341-.019a3.066 3.066 0 01-.51-.1 4.618 4.618 0 01-.748-.265 5.653 5.653 0 01-.782-.42 3.721 3.721 0 01-.548-.4 9.88 9.88 0 01-.435-.45 4.468 4.468 0 01-.4-.685 5.163 5.163 0 01-.372-.706L7 18.965l-.012-.032-.01-.033v-.044h.064l.239.033a5.508 5.508 0 00.749.021 5.36 5.36 0 00.705-.044c.13-.021.21-.037.238-.044l.043-.011.055-.01.054-.012-.045-.011-.043-.012-.044-.011-.043-.011-.043-.01-.148-.064a7.123 7.123 0 01-.585-.243 4.354 4.354 0 01-.76-.41 5.091 5.091 0 01-.539-.434 6.235 6.235 0 01-.556-.614 4.39 4.39 0 01-.542-.873 5.037 5.037 0 01-.52-1.866l-.038-.464h.043l.021.012.022.011.021.011.023.01.336.156a4.31 4.31 0 00.835.264c.331.074.531.115.6.122l.1.011h.2l-.022-.011-.021-.011-.021-.01-.022-.011-.188-.141a3.1 3.1 0 01-.372-.353c-.13-.148-.26-.3-.392-.464a3.7 3.7 0 01-.347-.519 6.6 6.6 0 01-.32-.706 5.17 5.17 0 01-.255-.856 4.963 4.963 0 01-.156-.914 5.349 5.349 0 01.023-.716 4.407 4.407 0 01.13-.674 5.291 5.291 0 01.28-.8l.186-.418.007-.043.01-.033.011.023.01.023.293.331c.194.221.426.466.693.74a4.147 4.147 0 00.446.423.35.35 0 01.107.1 4.729 4.729 0 00.435.39q.369.309.965.718c.4.272.839.542 1.323.806a13.017 13.017 0 001.56.719q.837.32 1.171.418t1.151.254c.541.1.95.176 1.225.2s.463.046.564.052h.152v-.06l-.045-.277a5.391 5.391 0 01-.043-.773 5.117 5.117 0 01.076-.916 5.306 5.306 0 01.229-.85 4.446 4.446 0 01.3-.692 6.789 6.789 0 01.387-.589 4.788 4.788 0 01.618-.685 4.694 4.694 0 01.867-.63 5.673 5.673 0 01.9-.42 4.2 4.2 0 01.693-.187 2.268 2.268 0 00.272-.051h1.128l.413.083a4.36 4.36 0 01.747.215 4.965 4.965 0 01.651.309 6.071 6.071 0 01.57.353 3.408 3.408 0 01.456.384.627.627 0 00.622.106 8.261 8.261 0 00.912-.277q.489-.174.965-.4c.319-.148.52-.24.581-.281l.109-.065.023-.01.021-.013.022-.01.021-.011h.043V7.2l-.012.032-.01.033-.011.023-.01.022-.012.033a.7.7 0 00-.021.088 3.686 3.686 0 01-.206.441 5.577 5.577 0 01-.489.786 3.765 3.765 0 01-.52.6 5.766 5.766 0 00-.31.287.846.846 0 01-.183.155l-.109.074-.021.011-.022.01-.023.011-.021.01h.108l.608-.132a10.6 10.6 0 001.161-.319l.584-.2.066-.021.033-.012.021-.011.022-.01.021-.011.023-.012h.086z" fill="#FFF"/></g></g></g></g></svg>