<svg id="Layer_1" data-name="Layer 1" xmlns="http://www.w3.org/2000/svg" viewBox="0 0 796.443 350"><path d="M0 198.744h220.8v152.4H0z" fill="none"/><ellipse cx="110.4" cy="300.7" rx="22.777" ry="23.281" fill="#ccc"/><path d="M110.4 268.82c-17.255 0-31.244 14.273-31.244 31.88s13.989 31.88 31.244 31.88 31.244-14.273 31.244-31.88-13.988-31.88-31.244-31.88zm0 57.161a25.286 25.286 0 1124.772-25.79v.509a25.032 25.032 0 01-24.772 25.281z" fill="#ccc" fill-rule="evenodd"/><path d="M81 217.156a2.978 2.978 0 01-1.162 2.5 5.044 5.044 0 01-3.155.9 7.9 7.9 0 01-3.32-.557v-1.361a9.021 9.021 0 003.37.682 3.516 3.516 0 002.125-.537 1.753 1.753 0 00.714-1.489 1.919 1.919 0 00-.253-1.034 2.348 2.348 0 00-.847-.743 11.767 11.767 0 00-1.8-.772 5.762 5.762 0 01-2.42-1.435 3.169 3.169 0 01-.727-2.167 2.7 2.7 0 011.055-2.234 4.39 4.39 0 012.789-.83 8.237 8.237 0 013.328.664l-.439 1.229a7.541 7.541 0 00-2.922-.631 2.825 2.825 0 00-1.752.483 1.582 1.582 0 00-.631 1.335 2.065 2.065 0 00.232 1.034 2.2 2.2 0 00.786.739 9.658 9.658 0 001.689.743 6.682 6.682 0 012.627 1.461 2.875 2.875 0 01.718 2.02zm8.5 3.229V214.5a2.368 2.368 0 00-.507-1.66 2.064 2.064 0 00-1.585-.549 2.6 2.6 0 00-2.1.781 3.947 3.947 0 00-.66 2.557v4.756h-1.375v-12.916h1.378v3.91a8.474 8.474 0 01-.066 1.17h.083a2.792 2.792 0 011.158-1.033 3.767 3.767 0 011.714-.378 3.516 3.516 0 012.5.793 3.341 3.341 0 01.834 2.518v5.936zm4.091-11.563a.914.914 0 01.233-.693.857.857 0 011.153 0 .9.9 0 01.241.689.911.911 0 01-.241.693.843.843 0 01-1.153 0 .931.931 0 01-.233-.689zm1.5 11.563h-1.384v-9.1h1.379zm9.141 0V214.5a2.375 2.375 0 00-.506-1.66 2.064 2.064 0 00-1.586-.549 2.617 2.617 0 00-2.092.773 3.9 3.9 0 00-.664 2.547v4.774h-1.377v-9.1h1.121l.223 1.245h.067a2.811 2.811 0 011.187-1.042 3.856 3.856 0 011.7-.369 3.455 3.455 0 012.475.793 3.376 3.376 0 01.83 2.535v5.936zm2.768-9.098h1.477l1.992 5.188a19.5 19.5 0 01.814 2.565h.066q.108-.423.452-1.448t2.254-6.305h1.478l-3.909 10.36a5.157 5.157 0 01-1.358 2.178 2.884 2.884 0 01-1.905.644 5.547 5.547 0 01-1.245-.141v-1.1a4.863 4.863 0 001.021.1 2.1 2.1 0 002.026-1.593l.506-1.3zm18.059 9.264a3.88 3.88 0 01-3.059-1.216 5 5 0 01-1.083-3.44 5.158 5.158 0 011.1-3.529 3.962 3.962 0 013.133-1.245 6.232 6.232 0 011.313.141 4.433 4.433 0 011.029.332l-.424 1.171a6.462 6.462 0 00-1-.3 4.389 4.389 0 00-.955-.12q-2.772 0-2.772 3.535a4.206 4.206 0 00.676 2.574 2.355 2.355 0 002 .9 6.137 6.137 0 002.333-.49v1.22a4.988 4.988 0 01-2.291.467zm12.31-4.723a5.018 5.018 0 01-1.12 3.474 3.947 3.947 0 01-3.1 1.249 4.1 4.1 0 01-2.166-.572 3.792 3.792 0 01-1.461-1.645 5.711 5.711 0 01-.515-2.506 5.011 5.011 0 011.113-3.466 3.936 3.936 0 013.088-1.241 3.846 3.846 0 013.033 1.27 5 5 0 011.128 3.437zm-6.931 0a4.329 4.329 0 00.7 2.657 2.77 2.77 0 003.911.194 2.536 2.536 0 00.194-.194 4.29 4.29 0 00.7-2.66 4.22 4.22 0 00-.7-2.635 2.462 2.462 0 00-2.07-.9 2.427 2.427 0 00-2.043.889 4.273 4.273 0 00-.692 2.649zm9.231-7.006a.918.918 0 01.232-.693.857.857 0 011.153 0 .9.9 0 01.242.689.912.912 0 01-.242.693.843.843 0 01-1.153 0 .93.93 0 01-.232-.689zm1.494 11.563h-1.378v-9.1h1.378zm9.147 0V214.5a2.375 2.375 0 00-.506-1.66 2.064 2.064 0 00-1.586-.549 2.616 2.616 0 00-2.091.773 3.884 3.884 0 00-.664 2.547v4.774h-1.378v-9.1h1.12l.224 1.245h.067a2.811 2.811 0 011.187-1.042 3.856 3.856 0 011.7-.369 3.454 3.454 0 012.474.793 3.368 3.368 0 01.83 2.535v5.936z" fill="#111"/><path d="M288.143 198.744h220.8v152.4h-220.8z" fill="none"/><path d="M330.959 211.619a3.4 3.4 0 01-1.258 2.835 5.7 5.7 0 01-3.6.992h-1.428v4.773h-1.411v-12.136h3.147q4.55 0 4.55 3.536zm-6.285 2.616h1.271a4.721 4.721 0 002.714-.607 2.231 2.231 0 00.839-1.942 2.093 2.093 0 00-.789-1.793 4.118 4.118 0 00-2.457-.589h-1.578zm16.469 1.427a5.018 5.018 0 01-1.12 3.474 3.947 3.947 0 01-3.1 1.249 4.1 4.1 0 01-2.166-.572 3.8 3.8 0 01-1.461-1.644 5.729 5.729 0 01-.514-2.507 5.013 5.013 0 011.118-3.462 3.933 3.933 0 013.088-1.241 3.847 3.847 0 013.033 1.271 4.994 4.994 0 011.122 3.432zm-6.93 0a4.323 4.323 0 00.7 2.657 2.766 2.766 0 003.907.193c.067-.061.132-.126.193-.193a4.29 4.29 0 00.7-2.66 4.22 4.22 0 00-.7-2.635 2.461 2.461 0 00-2.071-.9 2.429 2.429 0 00-2.042.888 4.281 4.281 0 00-.687 2.65zm15.214 2.075a2.278 2.278 0 01-.946 1.959 4.447 4.447 0 01-2.656.689 5.791 5.791 0 01-2.822-.572v-1.279a6.783 6.783 0 001.407.523 5.849 5.849 0 001.448.191 3.268 3.268 0 001.66-.345 1.186 1.186 0 00.121-1.959 7.3 7.3 0 00-1.8-.892 9.765 9.765 0 01-1.8-.826 2.466 2.466 0 01-.8-.8 2.083 2.083 0 01-.262-1.07 2.04 2.04 0 01.9-1.756 4.223 4.223 0 012.483-.644 7.257 7.257 0 012.872.6l-.49 1.121a6.583 6.583 0 00-2.482-.564 2.863 2.863 0 00-1.477.306.95.95 0 00-.5.847 1.043 1.043 0 00.186.623 1.845 1.845 0 00.6.489 13.584 13.584 0 001.594.673 5.934 5.934 0 012.187 1.187 2.089 2.089 0 01.577 1.5zm2.125-9.081a.922.922 0 01.233-.693.861.861 0 011.154 0 .9.9 0 01.24.689.916.916 0 01-.24.693.844.844 0 01-1.154 0 .939.939 0 01-.233-.689zm1.5 11.563h-1.378v-9.1h1.378zm5.855-.971a4.518 4.518 0 00.706-.054 4.686 4.686 0 00.539-.112v1.054a2.484 2.484 0 01-.66.179 5.021 5.021 0 01-.784.07q-2.64 0-2.64-2.78v-5.412h-1.3v-.665l1.3-.573.581-1.942h.8v2.108h2.64v1.072h-2.64v5.353a1.837 1.837 0 00.391 1.262 1.351 1.351 0 001.067.44zm2.947-10.592a.913.913 0 01.233-.693.86.86 0 011.153 0 .9.9 0 01.241.689.911.911 0 01-.241.693.843.843 0 01-1.153 0 .929.929 0 01-.233-.689zm1.494 11.563h-1.378v-9.1h1.378zm4.914 0l-3.453-9.1h1.478l1.959 5.4a25.676 25.676 0 01.78 2.457h.066a18.438 18.438 0 01.578-1.822q.484-1.381 2.178-6.031h1.478l-3.453 9.1zm10.368.166a4.178 4.178 0 01-3.183-1.229 4.753 4.753 0 01-1.167-3.411 5.27 5.27 0 011.084-3.5 3.6 3.6 0 012.909-1.3 3.428 3.428 0 012.706 1.125 4.307 4.307 0 011 2.968v.871h-6.267a3.612 3.612 0 00.809 2.433 2.8 2.8 0 002.162.83 7.326 7.326 0 002.906-.614v1.242a7.4 7.4 0 01-1.382.452 7.8 7.8 0 01-1.577.133zm-.374-8.275a2.25 2.25 0 00-1.747.713 3.3 3.3 0 00-.768 1.976h4.759a3.04 3.04 0 00-.581-2 2.049 2.049 0 00-1.663-.689zm14.328 8.275a4.18 4.18 0 01-3.184-1.229 4.757 4.757 0 01-1.166-3.411 5.271 5.271 0 011.083-3.5 3.6 3.6 0 012.909-1.3 3.428 3.428 0 012.706 1.125 4.307 4.307 0 011 2.968v.871h-6.266a3.611 3.611 0 00.808 2.433 2.806 2.806 0 002.163.83 7.326 7.326 0 002.906-.614v1.242a7.383 7.383 0 01-1.383.452 7.779 7.779 0 01-1.576.133zm-.374-8.275a2.245 2.245 0 00-1.747.713 3.292 3.292 0 00-.768 1.976h4.756a3.034 3.034 0 00-.581-2 2.043 2.043 0 00-1.66-.689zm8.259 3.453l-3.163-4.442h1.57l2.4 3.487 2.392-3.487h1.551l-3.163 4.442 3.329 4.656h-1.56l-2.549-3.686-2.573 3.686h-1.563zm10.95 4.822a3.94 3.94 0 01-1.623-.328 3.057 3.057 0 01-1.233-1.008h-.1a12.315 12.315 0 01.1 1.511v3.74h-1.378v-13.179h1.121l.191 1.245h.066a3.214 3.214 0 011.237-1.079 3.778 3.778 0 011.619-.332 3.357 3.357 0 012.793 1.238 6.587 6.587 0 01-.017 6.951 3.365 3.365 0 01-2.776 1.241zm-.2-8.259a2.44 2.44 0 00-2.016.772 3.963 3.963 0 00-.64 2.457v.307a4.537 4.537 0 00.64 2.743 2.429 2.429 0 002.05.827 2.131 2.131 0 001.846-.955 4.521 4.521 0 00.668-2.631 4.36 4.36 0 00-.668-2.612 2.2 2.2 0 00-1.88-.908zm10.227 8.259a4.18 4.18 0 01-3.184-1.229 4.757 4.757 0 01-1.166-3.411 5.271 5.271 0 011.083-3.5 3.6 3.6 0 012.91-1.3 3.431 3.431 0 012.706 1.125 4.307 4.307 0 011 2.968v.871h-6.267a3.612 3.612 0 00.809 2.433 2.8 2.8 0 002.162.83 7.326 7.326 0 002.906-.614v1.242a7.383 7.383 0 01-1.383.452 7.779 7.779 0 01-1.576.133zm-.374-8.275a2.245 2.245 0 00-1.747.713 3.292 3.292 0 00-.768 1.976h4.756a3.028 3.028 0 00-.581-2 2.043 2.043 0 00-1.66-.689zm10.219-1.155a5.367 5.367 0 011.088.1l-.192 1.278a4.678 4.678 0 00-1-.124 2.426 2.426 0 00-1.889.9 3.27 3.27 0 00-.784 2.232v4.881h-1.374v-9.1h1.137l.158 1.686h.067a4 4 0 011.22-1.37 2.745 2.745 0 011.569-.483zm2.673-2.299a.918.918 0 01.232-.693.86.86 0 011.153 0 .9.9 0 01.241.689.911.911 0 01-.241.693.843.843 0 01-1.153 0 .93.93 0 01-.232-.689zm1.494 11.563h-1.378v-9.1h1.378zm6.764.166a4.178 4.178 0 01-3.183-1.229 4.748 4.748 0 01-1.166-3.411 5.271 5.271 0 011.083-3.5 3.6 3.6 0 012.909-1.3 3.428 3.428 0 012.706 1.125 4.307 4.307 0 011 2.968v.871H439.3a3.612 3.612 0 00.809 2.433 2.8 2.8 0 002.162.83 7.326 7.326 0 002.906-.614v1.242a7.4 7.4 0 01-1.382.452 7.835 7.835 0 01-1.573.133zm-.374-8.275a2.25 2.25 0 00-1.747.713 3.29 3.29 0 00-.767 1.976h4.756a3.028 3.028 0 00-.582-2 2.043 2.043 0 00-1.66-.689zm12.294 8.109v-5.885a2.368 2.368 0 00-.507-1.66 2.063 2.063 0 00-1.585-.548 2.612 2.612 0 00-2.091.772 3.9 3.9 0 00-.664 2.548v4.773h-1.378v-9.1h1.121l.223 1.245h.067a2.821 2.821 0 011.186-1.042 3.856 3.856 0 011.7-.369 3.459 3.459 0 012.474.793 3.369 3.369 0 01.83 2.536v5.935zm7.845.166a3.883 3.883 0 01-3.059-1.216 5.005 5.005 0 01-1.083-3.44 5.158 5.158 0 011.1-3.529 3.958 3.958 0 013.133-1.245 6.159 6.159 0 011.312.142 4.288 4.288 0 011.03.332L464 212.6a6.573 6.573 0 00-1-.3 4.451 4.451 0 00-.955-.12q-2.772 0-2.772 3.536a4.2 4.2 0 00.676 2.573 2.355 2.355 0 002 .9 6.118 6.118 0 002.333-.49v1.22a4.966 4.966 0 01-2.295.466zm8.301 0a4.172 4.172 0 01-3.184-1.229 4.757 4.757 0 01-1.166-3.411 5.271 5.271 0 011.083-3.5 3.6 3.6 0 012.909-1.3 3.428 3.428 0 012.706 1.125 4.307 4.307 0 011 2.968v.871h-6.266a3.611 3.611 0 00.808 2.433 2.806 2.806 0 002.163.83 7.326 7.326 0 002.906-.614v1.242a7.383 7.383 0 01-1.383.452 7.785 7.785 0 01-1.576.133zm-.374-8.275a2.245 2.245 0 00-1.747.713 3.292 3.292 0 00-.768 1.976h4.756a3.028 3.028 0 00-.581-2 2.046 2.046 0 00-1.66-.689z" fill="#111"/><path d="M424.249 293.415a.7.7 0 01-.012.092 3.663 3.663 0 01-.019.534 3.728 3.728 0 01-.093.389 26.375 26.375 0 01-10.016 17.409 25.491 25.491 0 01-35.754-4.6 22.778 22.778 0 01-.421-.561 26.5 26.5 0 01-4.949-12.217 3.692 3.692 0 01-.14-1.131c0-.024-.006-.048-.008-.072h.012a3.607 3.607 0 011.385-2.7 3.49 3.49 0 014.9.626l.057.076a3.635 3.635 0 01.707 2.019h.019a19.3 19.3 0 003.633 9.078 18.553 18.553 0 0025.921 4.066q.207-.15.409-.306a19.2 19.2 0 007.3-12.72h.024a3.2 3.2 0 01.013-.353 3.526 3.526 0 017.027.375z" fill="#ccc" fill-rule="evenodd"/><path d="M575.643 198.744h220.8v152.4h-220.8z" fill="none"/><path d="M658.71 217.636a6.684 6.684 0 01-1.474 4.582 5.178 5.178 0 01-4.1 1.669 5.244 5.244 0 01-4.138-1.64 6.74 6.74 0 01-1.457-4.628 6.647 6.647 0 011.459-4.593 5.279 5.279 0 014.15-1.632 5.169 5.169 0 014.084 1.66 6.674 6.674 0 011.474 4.582zm-9.671 0a5.754 5.754 0 001.051 3.74 4.288 4.288 0 006.064.036l.036-.036a7.285 7.285 0 000-7.458 3.669 3.669 0 00-3.034-1.267 3.74 3.74 0 00-3.066 1.275 5.7 5.7 0 00-1.051 3.71zm14.361 1.428l-3.163-4.441h1.569l2.4 3.487 2.39-3.487h1.553l-3.163 4.441 3.329 4.657h-1.56l-2.549-3.686-2.574 3.686h-1.56zm5.271-4.441h1.477l1.992 5.188a19.5 19.5 0 01.814 2.565h.066c.071-.282.223-.765.452-1.448s.981-2.785 2.254-6.305h1.474l-3.909 10.36a5.157 5.157 0 01-1.358 2.178 2.883 2.883 0 01-1.9.644 5.491 5.491 0 01-1.245-.142v-1.1a4.8 4.8 0 001.021.1 2.108 2.108 0 002.026-1.593l.506-1.3zm26.022 9.098V217.8a2.451 2.451 0 00-.465-1.631 1.8 1.8 0 00-1.443-.544 2.332 2.332 0 00-1.9.739 3.519 3.519 0 00-.614 2.275v5.08h-1.378V217.8a2.451 2.451 0 00-.465-1.631 1.809 1.809 0 00-1.452-.544 2.252 2.252 0 00-1.9.776 4.2 4.2 0 00-.6 2.544v4.774H683.1v-9.1h1.121l.224 1.245h.066a2.715 2.715 0 011.1-1.038 3.365 3.365 0 011.59-.373 2.7 2.7 0 012.786 1.547h.066a2.906 2.906 0 011.179-1.129 3.654 3.654 0 011.76-.415 3.076 3.076 0 012.311.793 3.541 3.541 0 01.769 2.535v5.936zm9.813 0l-.275-1.3h-.066a3.839 3.839 0 01-1.357 1.158 4.154 4.154 0 01-1.689.3 3.042 3.042 0 01-2.121-.7 2.545 2.545 0 01-.768-1.985q0-2.755 4.407-2.888l1.544-.05v-.556a2.306 2.306 0 00-.461-1.581 1.9 1.9 0 00-1.472-.51 6.008 6.008 0 00-2.575.7l-.422-1.054a6.588 6.588 0 013.079-.78 3.469 3.469 0 012.412.721 3.018 3.018 0 01.784 2.317v6.209zm-3.114-.972a2.8 2.8 0 002.022-.7 2.611 2.611 0 00.734-1.975v-.823l-1.378.059a5 5 0 00-2.37.511 1.536 1.536 0 00-.727 1.406 1.425 1.425 0 00.454 1.138 1.876 1.876 0 001.265.384zm11.123-8.292a5.367 5.367 0 011.088.1l-.191 1.278a4.744 4.744 0 00-1-.125 2.426 2.426 0 00-1.889.9 3.268 3.268 0 00-.784 2.233v4.881h-1.378v-9.1h1.139l.158 1.685h.066a3.983 3.983 0 011.221-1.369 2.733 2.733 0 011.57-.483zm4.151 4.607a16.1 16.1 0 011.088-1.328l2.937-3.113h1.636l-3.686 3.876 3.943 5.222h-1.668l-3.213-4.3-1.037.9v3.4H715.3v-12.916h1.362v6.847q0 .458-.067 1.412z" fill="#111"/><path d="M686.043 268.585c-16.972 0-30.73 14.153-30.73 31.612s13.758 31.611 30.73 31.611 30.73-14.153 30.73-31.611a32.078 32.078 0 00-9-22.353 30.3 30.3 0 00-21.73-9.259zm13.745 49.235a21.487 21.487 0 01-27.073.325 23.01 23.01 0 01-6.821-26.955 1.466 1.466 0 011.175-.892 1.444 1.444 0 011.34.6 1.538 1.538 0 01.163 1.493 19.948 19.948 0 005.915 23.367 18.632 18.632 0 0023.47-.279 1.429 1.429 0 011.467-.271 1.494 1.494 0 01.934 1.2 1.521 1.521 0 01-.573 1.415z" fill="#ccc"/><path d="M538.664 319.382a1.218 1.218 0 01-.96-1.965l6.882-8.889-6.891-9.144a1.219 1.219 0 011.9-1.523.743.743 0 01.042.056l7.451 9.888a1.218 1.218 0 01-.009 1.479l-7.452 9.624a1.215 1.215 0 01-.967.474zm-287.5 0a1.218 1.218 0 01-.96-1.965l6.882-8.889-6.891-9.144a1.219 1.219 0 011.9-1.522.727.727 0 01.042.055l7.451 9.888a1.218 1.218 0 01-.009 1.479l-7.452 9.624a1.217 1.217 0 01-.967.474z" fill="#111" fill-rule="evenodd" opacity=".25" style="isolation:isolate"/><path d="M398.221 4.718A52.857 52.857 0 10435.6 20.2a52.856 52.856 0 00-37.379-15.482zm23.64 82.32a37.792 37.792 0 01-58.312-44.527 2.52 2.52 0 014.607 2.01 32.76 32.76 0 0050.56 38.606 2.511 2.511 0 013.328 3.762c-.058.053-.12.1-.183.149z" fill="#231f20"/></svg>