<svg width="492" height="346" viewBox="0 0 492 346" fill="none" xmlns="http://www.w3.org/2000/svg"><path d="M15.134 339h7.014v-1.47h-5.152v-8.526h-1.862V339zm11.831 0h1.862v-9.996h-1.862V339zm9.27-9.996h-2.17V339h1.779v-7.742h.027L41.01 339h1.721v-9.996h-1.764v7.084h-.027l-4.704-7.084zM54.737 339h2.24l-4.522-5.656 4.13-4.34h-2.128l-4.62 5.026v-5.026h-1.862V339h1.862v-2.898l1.386-1.456L54.737 339zm5.669-3.024c.181 2.198 2.016 3.192 4.396 3.192 2.211 0 3.877-1.204 3.877-3.024 0-1.61-.98-2.422-2.618-2.73l-1.932-.378c-1.078-.21-1.596-.476-1.596-1.302 0-.882.756-1.512 1.96-1.512 1.247 0 2.115.546 2.24 1.526h1.75c-.196-1.876-1.624-2.912-4.004-2.912-2.184 0-3.752 1.232-3.752 3.01 0 1.75 1.19 2.45 2.66 2.716l1.835.336c1.204.224 1.638.63 1.638 1.358 0 1.008-.924 1.54-2.114 1.54-1.246 0-2.422-.462-2.548-1.82h-1.792zM77.776 339v-4.102l3.879-5.894h-2.03l-2.702 4.27h-.028l-2.772-4.27H72.05l3.864 5.894V339h1.862zm7.14-3.024c.181 2.198 2.015 3.192 4.395 3.192 2.212 0 3.878-1.204 3.878-3.024 0-1.61-.98-2.422-2.618-2.73l-1.932-.378c-1.078-.21-1.596-.476-1.596-1.302 0-.882.756-1.512 1.96-1.512 1.246 0 2.114.546 2.24 1.526h1.75c-.196-1.876-1.624-2.912-4.004-2.912-2.184 0-3.752 1.232-3.752 3.01 0 1.75 1.19 2.45 2.66 2.716l1.834.336c1.204.224 1.638.63 1.638 1.358 0 1.008-.924 1.54-2.114 1.54-1.246 0-2.422-.462-2.548-1.82h-1.792zm18.22 0c.182 2.198 2.016 3.192 4.396 3.192 2.212 0 3.878-1.204 3.878-3.024 0-1.61-.98-2.422-2.618-2.73l-1.932-.378c-1.078-.21-1.596-.476-1.596-1.302 0-.882.756-1.512 1.96-1.512 1.246 0 2.114.546 2.24 1.526h1.75c-.196-1.876-1.624-2.912-4.004-2.912-2.184 0-3.752 1.232-3.752 3.01 0 1.75 1.19 2.45 2.66 2.716l1.834.336c1.204.224 1.638.63 1.638 1.358 0 1.008-.924 1.54-2.114 1.54-1.246 0-2.422-.462-2.548-1.82h-1.792zM116.103 339h1.862v-9.996h-1.862V339zm10.083 0h1.848v-8.526h3.598v-1.47h-9.03v1.47h3.584V339zm17.317 0v-1.47h-5.418v-2.8h4.746v-1.47h-4.746v-2.786h5.362v-1.47h-7.182V339h7.238zm175.451 0v-3.738h2.24l2.282 3.738h2.03L323 334.982c1.134-.364 2.128-1.288 2.128-2.842 0-2.044-1.372-3.136-3.71-3.136h-4.284V339h1.82zm0-5.194v-3.332h2.254c1.386 0 2.086.574 2.086 1.666s-.7 1.666-2.086 1.666h-2.254zM337.269 339v-1.47h-5.418v-2.8h4.746v-1.47h-4.746v-2.786h5.362v-1.47h-7.182V339h7.238zm7.917 0h1.848v-8.526h3.598v-1.47h-9.03v1.47h3.584V339zm16.374 0h1.904l-4.018-9.996h-2.086L353.342 339h1.82l.952-2.45h4.508l.938 2.45zm-3.192-8.204h.042l1.652 4.312h-3.374l1.68-4.312zm9.371 8.204h1.862v-9.996h-1.862V339zm7.101 0h7.014v-1.47h-5.152v-8.526h-1.862V339zm19.069 0v-1.47h-5.418v-2.8h4.746v-1.47h-4.746v-2.786h5.362v-1.47h-7.182V339h7.238zm6.755 0v-3.738h2.24l2.282 3.738h2.03l-2.506-4.018c1.134-.364 2.128-1.288 2.128-2.842 0-2.044-1.372-3.136-3.71-3.136h-4.284V339h1.82zm0-5.194v-3.332h2.254c1.386 0 2.086.574 2.086 1.666s-.7 1.666-2.086 1.666h-2.254z" fill="#222"/><path fill="#FAFAFA" d="M1 31h163v106H1z"/><path d="M164 283V31H1v252" stroke="#B6B6B6" stroke-width=".81"/><path d="M164 0l6.96 21.766h22.523l-18.222 13.452 6.96 21.766L164 43.532l-18.221 13.452 6.96-21.766-18.222-13.452h22.523L164 0z" fill="#C4C4C4"/><path d="M491 283V29H231v254" stroke="#B6B6B6" stroke-width=".81"/><path stroke="#C4C4C4" d="M314.5 38.5h122v15h-122z"/><path fill="#C4C4C4" d="M247 70h25v3h-25zm40 0h25v3h-25zm40 0h25v3h-25zm40 0h25v3h-25zm40 0h25v3h-25zm40 0h25v3h-25zM250 83h13v3h-13zm26 0h13v3h-13zm26 0h13v3h-13zm26 0h13v3h-13zm26 0h13v3h-13zm26 0h13v3h-13zm26 0h13v3h-13zm26 0h13v3h-13zm26 0h13v3h-13z"/><circle cx="428" cy="46" r="3.5" stroke="#C4C4C4"/><path d="M430.5 49l2 2M491 97H232.5" stroke="#C4C4C4"/><path fill="#E9E9E9" d="M274 108h175v175H274z"/><path fill-rule="evenodd" clip-rule="evenodd" d="M457.834 43.5h-3.006V42h3.995l3 7h6.042l2.413-4.915h1.721l-3.207 6.415h-7.958l-3-7z" fill="#C4C4C4"/><path d="M469.532 52.502a1.047 1.047 0 11-2.094 0 1.047 1.047 0 012.094 0zm-6.965 0a1.047 1.047 0 11-2.094 0 1.047 1.047 0 012.094 0z" fill="#C4C4C4"/><circle cx="249.691" cy="46" r="9.809" fill="#C4C4C4"/><path fill="#C4C4C4" d="M264 42h24v8h-24zM9 67h36.214v2.786H9zm0 8.357h61.286v12.536H9zm10 80.657h33v5H19z"/><path fill="#AAA" d="M22.336 171.014h26v6h-26z"/><path fill="#C4C4C4" d="M21.336 163.508h27.468v1.831H21.336zm40.736-7.494h33v5h-33z"/><path fill="#AAA" d="M65.408 171.014h26v6h-26z"/><path fill="#C4C4C4" d="M64.408 163.508h27.468v1.831H64.408zm40.735-7.494h33v5h-33z"/><path fill="#AAA" d="M108.479 171.014h26v6h-26z"/><path fill="#C4C4C4" d="M107.479 163.508h27.468v1.831h-27.468zM9 93.465h47.357v12.536H9z"/><path d="M83 140.823V61h36.199v79.823H83zM129.875 144l25.525-9.282V62.785L129.875 60m0 84V60m0 84l-10.676-8.002V62.672L129.875 60" stroke="#C4C4C4" stroke-width=".928"/><path fill="#C4C4C4" d="M80 40h13v2H80zm21 0h13v2h-13zm21 0h13v2h-13zM9 39h27v6H9zm120.594 157.031h12.803v-1.032h-12.803zm0 2.323h13.428v-1.032h-13.428zm0 2.322h18.398v-1.032h-18.398zm0 2.322h17.175v-1.032h-17.175z"/><path d="M113 221.897c.168-.175 12.281-4.004 18.316-5.897l9.684 7.425m-28-1.528l10.526 7.862M113 221.897V266l10.526 7M141 223.425l-17.474 6.334M141 223.425V267.5l-17.474 5.5m0-43.241V273M92 211.897c.168-.175 12.281-4.004 18.316-5.897l11.184 7.5M92 211.897l10.526 7.862M92 211.897V256l10.526 7m0-43.241V263m0-43.241L108 218l13.5-4.5M102.526 263L113 258m8.5-44.5v5.5" stroke="#C4C4C4"/><path d="M130 219v-13" stroke="#C4C4C4" stroke-linecap="round"/><circle cx="129.983" cy="219.617" r="1.217" fill="#C4C4C4"/><path d="M218.906 199.416l21.095-29.208-21.095-29.207v58.415z" fill="#222"/><path fill="#222" d="M178 156h44v29h-44z"/><path fill="#AAA" d="M10 113h26v6H10z"/><path fill="#C4C4C4" d="M28 215.4h29.78v-2.401H28zm0 5.401h42.795V218.4H28zm0 5.4h31.233V223.8H28zm0 5.401h39.949v-2.401H28zm0 5.402h34.138v-2.401H28z"/><path opacity=".5" d="M104 208.5V203H19v57h68" stroke="#C4C4C4" stroke-width=".726"/><path fill="#AAA" d="M28 243h26v6H28z"/></svg>