<svg width="316" height="224" viewBox="0 0 316 224" fill="none" xmlns="http://www.w3.org/2000/svg"><path d="M1.44 219.402h6.013v-1.26H3.037v-7.308H1.44v8.568zm9.995 0h1.595v-8.568h-1.595v8.568zm7.799-8.568h-1.86v8.568h1.524v-6.636h.024l4.404 6.636h1.476v-8.568H23.29v6.072h-.024l-4.032-6.072zm15.71 8.568h1.92l-3.875-4.848 3.54-3.72h-1.824l-3.96 4.308v-4.308h-1.596v8.568h1.596v-2.484l1.188-1.248 3.012 3.732zm4.712-2.592c.156 1.884 1.728 2.736 3.768 2.736 1.896 0 3.324-1.032 3.324-2.592 0-1.38-.84-2.076-2.244-2.34l-1.656-.324c-.924-.18-1.368-.408-1.368-1.116 0-.756.648-1.296 1.68-1.296 1.068 0 1.812.468 1.92 1.308h1.5c-.168-1.608-1.392-2.496-3.432-2.496-1.872 0-3.216 1.056-3.216 2.58 0 1.5 1.02 2.1 2.28 2.328l1.572.288c1.032.192 1.404.54 1.404 1.164 0 .864-.792 1.32-1.812 1.32-1.068 0-2.076-.396-2.184-1.56h-1.536zm14.743 2.592v-3.516l3.324-5.052h-1.74l-2.316 3.66h-.024l-2.376-3.66h-1.776l3.312 5.052v3.516H54.4zm5.971-2.592c.157 1.884 1.729 2.736 3.768 2.736 1.896 0 3.325-1.032 3.325-2.592 0-1.38-.84-2.076-2.244-2.34l-1.656-.324c-.925-.18-1.369-.408-1.369-1.116 0-.756.648-1.296 1.68-1.296 1.068 0 1.812.468 1.92 1.308h1.5c-.168-1.608-1.391-2.496-3.431-2.496-1.873 0-3.216 1.056-3.216 2.58 0 1.5 1.02 2.1 2.28 2.328l1.572.288c1.032.192 1.404.54 1.404 1.164 0 .864-.793 1.32-1.813 1.32-1.068 0-2.076-.396-2.184-1.56h-1.535zm15.324 0c.156 1.884 1.728 2.736 3.768 2.736 1.896 0 3.324-1.032 3.324-2.592 0-1.38-.84-2.076-2.244-2.34l-1.656-.324c-.924-.18-1.368-.408-1.368-1.116 0-.756.648-1.296 1.68-1.296 1.068 0 1.812.468 1.92 1.308h1.5c-.168-1.608-1.392-2.496-3.432-2.496-1.872 0-3.216 1.056-3.216 2.58 0 1.5 1.02 2.1 2.28 2.328l1.572.288c1.032.192 1.404.54 1.404 1.164 0 .864-.792 1.32-1.812 1.32-1.068 0-2.076-.396-2.184-1.56h-1.536zm10.968 2.592h1.596v-8.568h-1.596v8.568zm8.495 0h1.584v-7.308h3.084v-1.26h-7.74v1.26h3.072v7.308zm14.696 0v-1.26h-4.644v-2.4h4.068v-1.26h-4.068v-2.388h4.596v-1.26h-6.156v8.568h6.204zm85.679-.402v-3.204h1.92l1.956 3.204h1.74L199 215.556c.972-.312 1.824-1.104 1.824-2.436 0-1.752-1.176-2.688-3.18-2.688h-3.672V219h1.56zm0-4.452v-2.856h1.932c1.188 0 1.788.492 1.788 1.428 0 .936-.6 1.428-1.788 1.428h-1.932zM211.084 219v-1.26h-4.644v-2.4h4.068v-1.26h-4.068v-2.388h4.596v-1.26h-6.156V219h6.204zm6.639 0h1.584v-7.308h3.084v-1.26h-7.74v1.26h3.072V219zm13.887 0h1.632l-3.444-8.568h-1.788L224.566 219h1.56l.816-2.1h3.864l.804 2.1zm-2.736-7.032h.036l1.416 3.696h-2.892l1.44-3.696zm7.885 7.032h1.596v-8.568h-1.596V219zm5.94 0h6.012v-1.26h-4.416v-7.308h-1.596V219zm16.197 0v-1.26h-4.644v-2.4h4.068v-1.26h-4.068v-2.388h4.596v-1.26h-6.156V219h6.204zm5.643 0v-3.204h1.92l1.956 3.204h1.74l-2.148-3.444c.972-.312 1.824-1.104 1.824-2.436 0-1.752-1.176-2.688-3.18-2.688h-3.672V219h1.56zm0-4.452v-2.856h1.932c1.188 0 1.788.492 1.788 1.428 0 .936-.6 1.428-1.788 1.428h-1.932z" fill="#222"/><path fill="#FAFAFA" d="M4.094 19.715h103.655v67.408H4.094z"/><path d="M107.749 179.967V19.715H4.094v160.252" stroke="#B6B6B6" stroke-width=".515"/><path d="M107.749 0l4.426 13.841h14.322l-11.587 8.555 4.426 13.841-11.587-8.554-11.588 8.554 4.426-13.841L89 13.84h14.323L107.749 0z" fill="#C4C4C4"/><path d="M315.695 179.965V18.441h-165.34v161.524" stroke="#B6B6B6" stroke-width=".515"/><path stroke="#C4C4C4" stroke-width=".636" d="M203.455 24.482h77.582v9.539h-77.582z"/><path fill="#C4C4C4" d="M160.531 44.512h15.898v1.908h-15.898zm25.438 0h15.898v1.908h-15.898zm25.435 0h15.898v1.908h-15.898zm25.438 0h15.898v1.908h-15.898zm25.437 0h15.898v1.908h-15.898zm25.436 0h15.898v1.908h-15.898zm-125.276 8.267h8.267v1.908h-8.267zm16.534 0h8.267v1.908h-8.267zm16.535 0h8.267v1.908h-8.267zm16.533 0h8.267v1.908h-8.267zm16.535 0h8.267v1.908h-8.267zm16.533 0h8.267v1.908h-8.267zm16.534 0h8.267v1.908h-8.267zm16.535 0h8.267v1.908h-8.267zm16.533 0h8.267v1.908h-8.267z"/><circle cx="275.632" cy="29.251" r="2.226" stroke="#C4C4C4" stroke-width=".636"/><path d="M277.223 31.16l1.271 1.272m37.202 29.252H151.311" stroke="#C4C4C4" stroke-width=".636"/><path fill="#E9E9E9" d="M177.701 68.68h111.286v111.286H177.701z"/><path fill-rule="evenodd" clip-rule="evenodd" d="M294.605 27.66h-1.912v-.953h2.541l1.907 4.451h3.843l1.534-3.125h1.095l-2.04 4.08h-5.061l-1.907-4.452z" fill="#C4C4C4"/><path d="M302.044 33.386a.666.666 0 11-1.333-.002.666.666 0 011.333.002zm-4.429 0a.666.666 0 11-1.333-.002.666.666 0 011.333.002z" fill="#C4C4C4"/><circle cx="162.241" cy="29.251" r="6.237" fill="#C4C4C4"/><path fill="#C4C4C4" d="M171.342 26.707h15.262v5.087h-15.262zm-162.16 15.9h23.029v1.772H9.182zm0 5.315h38.973v7.972H9.182zm6.357 51.291h20.985v3.18H15.539z"/><path fill="#AAA" d="M17.66 108.75h16.534v3.816H17.66z"/><path fill="#C4C4C4" d="M17.025 103.979h17.467v1.164H17.025zm25.905-4.766h20.985v3.18H42.93z"/><path fill="#AAA" d="M45.051 108.75h16.534v3.816H45.051z"/><path fill="#C4C4C4" d="M44.414 103.979h17.467v1.164H44.414zm25.904-4.766h20.985v3.18H70.318z"/><path fill="#AAA" d="M72.439 108.75h16.534v3.816H72.439z"/><path fill="#C4C4C4" d="M71.803 103.979H89.27v1.164H71.803zM9.182 59.435h30.115v7.972H9.182z"/><path d="M56.24 89.552V38.791h23.02v50.761H56.24z" stroke="#C4C4C4" stroke-width=".59"/><path d="M86.047 91.574l16.232-5.903V39.927l-16.232-1.77m0 53.417V38.156m0 53.418l-6.79-5.089v-46.63l6.79-1.699" stroke="#C4C4C4" stroke-width=".59"/><path fill="#C4C4C4" d="M54.332 25.436h8.267v1.272h-8.267zm13.354 0h8.267v1.272h-8.267zm13.355 0h8.267v1.272h-8.267zm-71.859-.635h17.17v3.816H9.182zM85.87 124.66h8.141v-.656H85.87zm0 1.477h8.538v-.656H85.87zm0 1.476h11.7v-.656h-11.7zm0 1.477h10.92v-.656H85.87z"/><path d="M75.316 141.109c.108-.111 7.81-2.546 11.648-3.75l6.158 4.722m-17.806-.972l6.694 5m-6.694-5v28.046l6.694 4.452m11.112-31.526l-11.112 4.028m11.112-4.028v28.028l-11.112 3.498m0-27.498v27.498M61.963 134.75c.107-.111 7.81-2.546 11.647-3.75l7.113 4.769m-18.76-1.019l6.694 5m-6.694-5v28.046l6.694 4.452m0-27.498v27.498m0-27.498l3.48-1.119 8.586-2.862m-12.066 31.479l6.66-3.18m5.406-28.299v3.498" stroke="#C4C4C4" stroke-width=".636"/><path d="M86.129 139.267V131" stroke="#C4C4C4" stroke-width=".636" stroke-linecap="round"/><circle cx="86.116" cy="139.659" r=".774" fill="#C4C4C4"/><path d="M142.664 126.812l13.414-18.573-13.414-18.574v37.147z" fill="#222"/><path fill="#222" d="M116.652 99.203h27.98v18.442h-27.98z"/><path fill="#AAA" d="M9.818 71.857h16.534v3.816H9.818z"/><path fill="#C4C4C4" d="M21.264 136.979h18.938v-1.527H21.264zm0 3.433h27.214v-1.527H21.264zm0 3.434h19.86v-1.527h-19.86zm0 3.435h25.404v-1.527H21.264zm0 3.434h21.709v-1.527h-21.71z"/><path opacity=".5" d="M69.592 132.589v-3.497H15.54v36.247h43.243" stroke="#C4C4C4" stroke-width=".462"/><path fill="#AAA" d="M21.264 154.529h16.534v3.816H21.264z"/></svg>