<svg width="93" height="92" viewBox="0 0 93 92" fill="none" xmlns="http://www.w3.org/2000/svg"><path fill="#fff" d="M.902 0h91.3v91.3H.902z"/><path d="M46.974 67.403c11.82 0 21.403-9.583 21.403-21.403 0-11.82-9.583-21.403-21.403-21.403-11.821 0-21.404 9.582-21.404 21.403 0 11.82 9.583 21.403 21.404 21.403z" stroke="#222" stroke-width="2.5" stroke-miterlimit="10" stroke-linecap="round" stroke-linejoin="round"/><path d="M30.032 67.403C41.557 67.403 50.9 57.82 50.9 46c0-11.82-9.343-21.403-20.868-21.403-11.525 0-20.868 9.582-20.868 21.403 0 11.82 9.343 21.403 20.868 21.403z" stroke="#222" stroke-width="2.5" stroke-miterlimit="10" stroke-linecap="round" stroke-linejoin="round"/><path d="M12.28 24.597c11.725 0 21.217 9.575 21.217 21.403s-9.678 21.403-21.403 21.403" stroke="#222" stroke-width="2.5" stroke-miterlimit="10" stroke-linecap="round" stroke-linejoin="round"/><path d="M63.306 67.403c11.82 0 21.403-9.583 21.403-21.403 0-11.82-9.583-21.403-21.404-21.403-11.82 0-21.403 9.582-21.403 21.403 0 11.82 9.583 21.403 21.404 21.403z" fill="#fff" stroke="#222" stroke-width="2.5" stroke-miterlimit="10" stroke-linecap="round" stroke-linejoin="round"/></svg>