<svg width="92" height="92" viewBox="0 0 92 92" fill="none" xmlns="http://www.w3.org/2000/svg"><path d="M52.663 86.409V60.812l-6.848-11.738-7.01 11.901V86.41m.652-24.945h12.717" stroke="#222" stroke-width="2.5" stroke-miterlimit="10" stroke-linecap="round" stroke-linejoin="round"/><path d="M60.486 79.235h6.358c2.772 0 5.054-2.282 5.054-5.054V18.912c0-2.771-2.282-5.054-5.054-5.054H24.78c-2.772 0-5.054 2.282-5.054 5.054v55.432c0 2.772 2.282 5.054 5.054 5.054h6.195" stroke="#222" stroke-width="2.5" stroke-miterlimit="10" stroke-linecap="round" stroke-linejoin="round"/><path d="M48.257 21.032h-18.75V39.78h18.75V21.03zm5.056 4.402c5.217 0 9.456 4.238 9.456 9.456 0 5.217-4.24 9.456-9.456 9.456" stroke="#222" stroke-width="2.5" stroke-miterlimit="10" stroke-linecap="round" stroke-linejoin="round"/></svg>