<svg width="92" height="92" viewBox="0 0 92 92" fill="none" xmlns="http://www.w3.org/2000/svg"><path fill="#fff" d="M0 0h91.3v91.3H0z"/><path d="M65.866 45.487C65.866 34.4 56.9 25.27 45.65 25.27c-11.086 0-20.216 8.967-20.216 20.217 0 7.5 4.075 14.021 10.108 17.445v15.651h4.728c.815 2.283 3.097 3.913 5.706 3.913 2.609 0 4.891-1.63 5.706-3.913h4.402V62.77c5.87-3.424 9.782-9.945 9.782-17.282zM55.92 70.105H35.703m10.11-55.269V5.054m21.359 18.749l6.847-7.01M5.707 45.161h9.782m60.488 0h9.782M17.445 16.793l6.848 7.01m21.52-18.749v9.782" stroke="#222" stroke-width="2.5" stroke-miterlimit="10" stroke-linecap="round" stroke-linejoin="round"/></svg>