<svg width="280" height="275" viewBox="0 0 280 275" fill="none" xmlns="http://www.w3.org/2000/svg"><path d="M22.59 1.008a.436.436 0 00-.617 0L19.2 3.781a.436.436 0 10.616.617l2.465-2.465 2.465 2.465a.436.436 0 10.616-.617L22.59 1.008zm-.617 223.659c.17.17.446.17.616 0l2.773-2.774a.435.435 0 10-.616-.616l-2.465 2.465-2.465-2.465a.436.436 0 00-.616.616l2.773 2.774zm-.127-223.35v223.041h.871V1.316h-.871zm258.027 230.007a.436.436 0 000-.616l-2.773-2.774a.437.437 0 00-.617.617l2.465 2.465-2.465 2.465a.436.436 0 10.617.616l2.773-2.773zm-255.84-.616a.436.436 0 000 .616l2.772 2.773a.436.436 0 00.617-.616l-2.465-2.465 2.465-2.465a.437.437 0 00-.617-.617l-2.773 2.774zm255.531-.128H24.34v.871h255.224v-.871z" fill="#52FFE0"/><path d="M3.805 121.177v5.735H5.11v-2.17h5.695v-1.395H5.11v-2.17H3.805zm0-3.849v1.395h7v-1.395h-7zm0-10.819v2.045l4.725 1.815-4.725 1.82v2.045h7v-1.395H5.56l4.57-1.73v-1.475l-4.61-1.73h5.285v-1.395h-7zm5.72-8.321v3.835h-1.61v-3.62h-1.28v3.62h-1.55v-3.795h-1.28v5.19h7v-5.23h-1.28zm112.084 148.619c1.66 0 2.55-.87 2.55-2.215 0-1.355-.89-2.225-2.56-2.225h-2.855v7h1.395v-2.56h1.47zm-.035-3.155c.76 0 1.155.315 1.155.94 0 .63-.395.94-1.155.94h-1.435v-1.88h1.435zm5.272-1.285v7h1.395v-2.785h.41l2.04 2.785h1.69l-2.155-2.805c1.345-.13 2.145-.915 2.145-2.065 0-1.34-.895-2.13-2.565-2.13h-2.96zm2.935 1.285c.74 0 1.155.265 1.155.845 0 .59-.395.87-1.155.87h-1.54v-1.715h1.54zm8.682-1.415c-2.155 0-3.675 1.54-3.675 3.63s1.52 3.63 3.675 3.63 3.68-1.54 3.68-3.63-1.525-3.63-3.68-3.63zm0 1.34c1.29 0 2.22.93 2.22 2.29 0 1.36-.93 2.29-2.22 2.29-1.285 0-2.22-.93-2.22-2.29 0-1.36.935-2.29 2.22-2.29zm9.792-1.34c-2.15 0-3.695 1.515-3.695 3.63 0 2.26 1.72 3.625 3.66 3.625 1.985 0 3.42-1.495 3.42-3.615 0-.13-.005-.26-.02-.395h-3.22v1.165h1.78c-.185.995-.85 1.545-1.99 1.545-1.21 0-2.185-.895-2.185-2.325 0-1.365.93-2.305 2.21-2.305.715 0 1.295.28 1.69.735l1.005-.985c-.62-.675-1.545-1.075-2.655-1.075zm6.138.13v7h1.395v-2.785h.41l2.04 2.785h1.69l-2.155-2.805c1.345-.13 2.145-.915 2.145-2.065 0-1.34-.895-2.13-2.565-2.13h-2.96zm2.935 1.285c.74 0 1.155.265 1.155.845 0 .59-.395.87-1.155.87h-1.54v-1.715h1.54zm10.592 4.435h-3.835v-1.61h3.62v-1.28h-3.62v-1.55h3.795v-1.28h-5.19v7h5.23v-1.28zm8.32-5.095c-.88-.525-1.695-.745-2.675-.745-1.49 0-2.79.76-2.79 2.22 0 1.265.9 1.81 2.135 2.005l.445.07c.975.155 1.485.335 1.485.82 0 .54-.6.845-1.375.845-.9 0-1.725-.35-2.23-.755l-.725 1.125c.75.605 1.89.915 2.95.915 1.505 0 2.865-.735 2.865-2.28 0-1.22-.98-1.755-2.23-1.96l-.395-.065c-.84-.14-1.445-.295-1.445-.81 0-.53.555-.84 1.34-.84.765 0 1.435.255 1.985.595l.66-1.14zm8.151 0c-.88-.525-1.695-.745-2.675-.745-1.49 0-2.79.76-2.79 2.22 0 1.265.9 1.81 2.135 2.005l.445.07c.975.155 1.485.335 1.485.82 0 .54-.6.845-1.375.845-.9 0-1.725-.35-2.23-.755l-.725 1.125c.75.605 1.89.915 2.95.915 1.505 0 2.865-.735 2.865-2.28 0-1.22-.98-1.755-2.23-1.96l-.395-.065c-.84-.14-1.445-.295-1.445-.81 0-.53.555-.84 1.34-.84.765 0 1.435.255 1.985.595l.66-1.14zM65.547 264.364c-1.744.68-2.934 2.345-2.934 4.405s1.19 3.725 2.934 4.405l.416-1.165c-1.295-.61-1.975-1.84-1.975-3.24 0-1.4.68-2.63 1.975-3.24l-.415-1.165zm5.432.12c-1.675 0-3.015 1.36-3.015 3.625 0 2.265 1.34 3.625 3.015 3.625 1.67 0 3.02-1.36 3.02-3.625 0-2.265-1.35-3.625-3.02-3.625zm0 1.295c.9 0 1.61.8 1.61 2.33s-.71 2.33-1.61 2.33c-.895 0-1.61-.8-1.61-2.33s.715-2.33 1.61-2.33zm6.323 4.015c-.52 0-.975.445-.975.965 0 .525.455.975.975.975.515 0 .965-.45.965-.975 0-.52-.45-.965-.965-.965zm5.533-5.31c-1.114 0-1.874.465-2.334 1.085l.85.855a1.76 1.76 0 011.415-.71c.65 0 1.16.31 1.16.875 0 .59-.546.89-1.225.89h-.82v1.2h.814c.756 0 1.37.315 1.37.915 0 .615-.544.91-1.224.91a2.21 2.21 0 01-1.59-.67l-.806.885c.53.64 1.396 1.015 2.446 1.015 1.325 0 2.58-.665 2.58-2.045 0-.755-.466-1.315-1.2-1.605.65-.305 1.044-.85 1.044-1.59 0-1.21-1.004-2.01-2.48-2.01zm7.223 0c-1.115 0-1.875.465-2.335 1.085l.85.855a1.76 1.76 0 011.415-.71c.65 0 1.16.31 1.16.875 0 .59-.545.89-1.225.89h-.82v1.2h.815c.755 0 1.37.315 1.37.915 0 .615-.545.91-1.225.91a2.21 2.21 0 01-1.59-.67l-.805.885c.53.64 1.395 1.015 2.445 1.015 1.325 0 2.58-.665 2.58-2.045 0-.755-.465-1.315-1.2-1.605.65-.305 1.045-.85 1.045-1.59 0-1.21-1.005-2.01-2.48-2.01zm5.328 5.545l-.335 2.98h1.1l.7-2.98h-1.465zm10.912-5.545c-1.675 0-3.015 1.36-3.015 3.625 0 2.265 1.34 3.625 3.015 3.625 1.67 0 3.02-1.36 3.02-3.625 0-2.265-1.35-3.625-3.02-3.625zm0 1.295c.9 0 1.61.8 1.61 2.33s-.71 2.33-1.61 2.33c-.895 0-1.61-.8-1.61-2.33s.715-2.33 1.61-2.33zm5.687 4.25l-.335 2.98h1.1l.7-2.98h-1.465zm10.912-5.545c-1.675 0-3.015 1.36-3.015 3.625 0 2.265 1.34 3.625 3.015 3.625 1.67 0 3.02-1.36 3.02-3.625 0-2.265-1.35-3.625-3.02-3.625zm0 1.295c.9 0 1.61.8 1.61 2.33s-.71 2.33-1.61 2.33c-.895 0-1.61-.8-1.61-2.33s.715-2.33 1.61-2.33zm6.323 4.015c-.52 0-.975.445-.975.965 0 .525.455.975.975.975.515 0 .965-.45.965-.975 0-.52-.45-.965-.965-.965zm7.429-5.185h-1.63l-1.94 2.905c-.425.64-.665 1.22-.665 1.86 0 1.355 1.13 2.36 2.625 2.36 1.505 0 2.635-1.015 2.635-2.385 0-1.31-1.005-2.325-2.425-2.325-.12 0-.23.01-.325.02l1.725-2.435zm-1.61 3.6c.705 0 1.23.475 1.23 1.15 0 .68-.525 1.15-1.23 1.15-.695 0-1.22-.47-1.22-1.15 0-.675.525-1.15 1.22-1.15zm9.591-3.6h-4.935v1.26h3.325l-2.88 5.74h1.59l2.9-5.945v-1.055zm1.707 5.42l-.335 2.98h1.1l.7-2.98h-1.465zm10.667-5.53l-3.025 1.22v1.36l1.675-.68v5.21h1.35v-7.11zm3.051 8.67c1.745-.68 2.935-2.345 2.935-4.405s-1.19-3.725-2.935-4.405l-.415 1.165c1.295.61 1.975 1.84 1.975 3.24 0 1.4-.68 2.63-1.975 3.24l.415 1.165zm15.345-8.56h-1.305v8.325h1.305v-8.325zm5.036 0h-1.305v8.325h1.305v-8.325zm14.041-.245c-1.745.68-2.935 2.345-2.935 4.405s1.19 3.725 2.935 4.405l.415-1.165c-1.295-.61-1.975-1.84-1.975-3.24 0-1.4.68-2.63 1.975-3.24l-.415-1.165zm4.884.12c-1.115 0-1.875.465-2.335 1.085l.85.855a1.76 1.76 0 011.415-.71c.65 0 1.16.31 1.16.875 0 .59-.545.89-1.225.89h-.82v1.2h.815c.755 0 1.37.315 1.37.915 0 .615-.545.91-1.225.91a2.21 2.21 0 01-1.59-.67l-.805.885c.53.64 1.395 1.015 2.445 1.015 1.325 0 2.58-.665 2.58-2.045 0-.755-.465-1.315-1.2-1.605.65-.305 1.045-.85 1.045-1.59 0-1.21-1.005-2.01-2.48-2.01zm7.223 0c-1.115 0-1.875.465-2.335 1.085l.85.855a1.76 1.76 0 011.415-.71c.65 0 1.16.31 1.16.875 0 .59-.545.89-1.225.89h-.82v1.2h.815c.755 0 1.37.315 1.37.915 0 .615-.545.91-1.225.91a2.21 2.21 0 01-1.59-.67l-.805.885c.53.64 1.395 1.015 2.445 1.015 1.325 0 2.58-.665 2.58-2.045 0-.755-.465-1.315-1.2-1.605.65-.305 1.045-.85 1.045-1.59 0-1.21-1.005-2.01-2.48-2.01zm5.327 5.545l-.335 2.98h1.1l.7-2.98h-1.465zm10.032-5.545c-1.115 0-1.875.465-2.335 1.085l.85.855a1.76 1.76 0 011.415-.71c.65 0 1.16.31 1.16.875 0 .59-.545.89-1.225.89h-.82v1.2h.815c.755 0 1.37.315 1.37.915 0 .615-.545.91-1.225.91a2.21 2.21 0 01-1.59-.67l-.805.885c.53.64 1.395 1.015 2.445 1.015 1.325 0 2.58-.665 2.58-2.045 0-.755-.465-1.315-1.2-1.605.65-.305 1.045-.85 1.045-1.59 0-1.21-1.005-2.01-2.48-2.01zm7.223 0c-1.115 0-1.875.465-2.335 1.085l.85.855a1.76 1.76 0 011.415-.71c.65 0 1.16.31 1.16.875 0 .59-.545.89-1.225.89h-.82v1.2h.815c.755 0 1.37.315 1.37.915 0 .615-.545.91-1.225.91a2.21 2.21 0 01-1.59-.67l-.805.885c.53.64 1.395 1.015 2.445 1.015 1.325 0 2.58-.665 2.58-2.045 0-.755-.465-1.315-1.2-1.605.65-.305 1.045-.85 1.045-1.59 0-1.21-1.005-2.01-2.48-2.01zm5.219 8.685c1.745-.68 2.935-2.345 2.935-4.405s-1.19-3.725-2.935-4.405l-.415 1.165c1.295.61 1.975 1.84 1.975 3.24 0 1.4-.68 2.63-1.975 3.24l.415 1.165z" fill="#fff"/><ellipse cx="37.283" cy="223.187" rx="3.103" ry="3.156" fill="#fff"/><path d="M274.684 4.785c-80.694 0-160.754 217.773-237.697 217.773" stroke="#fff" stroke-width="2.614"/><ellipse cx="274.982" cy="5" rx="3.103" ry="3.156" fill="#fff"/></svg>