<svg width="282" height="275" viewBox="0 0 282 275" fill="none" xmlns="http://www.w3.org/2000/svg"><path d="M23.832.483a.436.436 0 00-.617 0l-2.773 2.773a.436.436 0 10.616.616l2.465-2.465 2.465 2.465a.436.436 0 10.617-.616L23.832.483zm-.617 223.658c.17.17.446.17.617 0l2.773-2.773a.435.435 0 10-.617-.616l-2.465 2.465-2.465-2.465a.436.436 0 00-.616.616l2.773 2.773zM23.088.791v223.042h.871V.791h-.871zm258.027 230.007a.436.436 0 000-.616l-2.773-2.773a.437.437 0 00-.617.616l2.465 2.465-2.465 2.465a.436.436 0 10.617.616l2.773-2.773zm-255.84-.616a.436.436 0 000 .616l2.773 2.773a.435.435 0 10.616-.616l-2.465-2.465 2.465-2.465a.435.435 0 10-.617-.616l-2.773 2.773zm255.532-.128H25.583v.872h255.224v-.872z" fill="#52FFE0"/><circle cx="38.817" cy="222.301" r="3.151" fill="#fff"/><path d="M39.146 222.3c40.042 0 32.875-214.303 236.901-217.38" stroke="#fff" stroke-width="2.614"/><path d="M3.047 121.177v5.735h1.305v-2.17h5.695v-1.395H4.352v-2.17H3.047zm0-3.849v1.395h7v-1.395h-7zm0-10.819v2.045l4.725 1.815-4.725 1.82v2.045h7v-1.395H4.802l4.57-1.73v-1.475l-4.61-1.73h5.285v-1.395h-7zm5.72-8.321v3.835h-1.61v-3.62h-1.28v3.62h-1.55v-3.795h-1.28v5.19h7v-5.23h-1.28zm114.084 148.098c1.66 0 2.55-.87 2.55-2.215 0-1.355-.89-2.225-2.56-2.225h-2.855v7h1.395v-2.56h1.47zm-.035-3.155c.76 0 1.155.315 1.155.94 0 .63-.395.94-1.155.94h-1.435v-1.88h1.435zm5.272-1.285v7h1.395v-2.785h.41l2.04 2.785h1.69l-2.155-2.805c1.345-.13 2.145-.915 2.145-2.065 0-1.34-.895-2.13-2.565-2.13h-2.96zm2.935 1.285c.74 0 1.155.265 1.155.845 0 .59-.395.87-1.155.87h-1.54v-1.715h1.54zm8.682-1.415c-2.155 0-3.675 1.54-3.675 3.63s1.52 3.63 3.675 3.63 3.68-1.54 3.68-3.63-1.525-3.63-3.68-3.63zm0 1.34c1.29 0 2.22.93 2.22 2.29 0 1.36-.93 2.29-2.22 2.29-1.285 0-2.22-.93-2.22-2.29 0-1.36.935-2.29 2.22-2.29zm9.792-1.34c-2.15 0-3.695 1.515-3.695 3.63 0 2.26 1.72 3.625 3.66 3.625 1.985 0 3.42-1.495 3.42-3.615 0-.13-.005-.26-.02-.395h-3.22v1.165h1.78c-.185.995-.85 1.545-1.99 1.545-1.21 0-2.185-.895-2.185-2.325 0-1.365.93-2.305 2.21-2.305.715 0 1.295.28 1.69.735l1.005-.985c-.62-.675-1.545-1.075-2.655-1.075zm6.138.13v7h1.395v-2.785h.41l2.04 2.785h1.69l-2.155-2.805c1.345-.13 2.145-.915 2.145-2.065 0-1.34-.895-2.13-2.565-2.13h-2.96zm2.935 1.285c.74 0 1.155.265 1.155.845 0 .59-.395.87-1.155.87h-1.54v-1.715h1.54zm10.592 4.435h-3.835v-1.61h3.62v-1.28h-3.62v-1.55h3.795v-1.28h-5.19v7h5.23v-1.28zm8.32-5.095c-.88-.525-1.695-.745-2.675-.745-1.49 0-2.79.76-2.79 2.22 0 1.265.9 1.81 2.135 2.005l.445.07c.975.155 1.485.335 1.485.82 0 .54-.6.845-1.375.845-.9 0-1.725-.35-2.23-.755l-.725 1.125c.75.605 1.89.915 2.95.915 1.505 0 2.865-.735 2.865-2.28 0-1.22-.98-1.755-2.23-1.96l-.395-.065c-.84-.14-1.445-.295-1.445-.81 0-.53.555-.84 1.34-.84.765 0 1.435.255 1.985.595l.66-1.14zm8.151 0c-.88-.525-1.695-.745-2.675-.745-1.49 0-2.79.76-2.79 2.22 0 1.265.9 1.81 2.135 2.005l.445.07c.975.155 1.485.335 1.485.82 0 .54-.6.845-1.375.845-.9 0-1.725-.35-2.23-.755l-.725 1.125c.75.605 1.89.915 2.95.915 1.505 0 2.865-.735 2.865-2.28 0-1.22-.98-1.755-2.23-1.96l-.395-.065c-.84-.14-1.445-.295-1.445-.81 0-.53.555-.84 1.34-.84.765 0 1.435.255 1.985.595l.66-1.14zM74.694 263.843c-1.745.68-2.935 2.345-2.935 4.405s1.19 3.725 2.935 4.405l.415-1.165c-1.295-.61-1.975-1.84-1.975-3.24 0-1.4.68-2.63 1.975-3.24l-.415-1.165zm5.432.12c-1.675 0-3.015 1.36-3.015 3.625 0 2.265 1.34 3.625 3.015 3.625 1.67 0 3.02-1.36 3.02-3.625 0-2.265-1.35-3.625-3.02-3.625zm0 1.295c.9 0 1.61.8 1.61 2.33s-.71 2.33-1.61 2.33c-.895 0-1.61-.8-1.61-2.33s.715-2.33 1.61-2.33zm6.323 4.015c-.52 0-.975.445-.975.965 0 .525.455.975.975.975.515 0 .965-.45.965-.975 0-.52-.45-.965-.965-.965zm5.64-5.295l-3.024 1.22v1.36l1.675-.68v5.21h1.35v-7.11zm7.297.11h-4.025l-.075 3.875h1.665c1.095 0 1.425.46 1.425.985 0 .555-.385 1.015-1.165 1.015-.645 0-1.33-.325-1.71-.74l-.76.945c.58.655 1.435 1.045 2.48 1.045 1.415 0 2.555-.86 2.555-2.365 0-1.17-.82-2.105-2.45-2.105h-.805l.03-1.4h2.835v-1.255zm3.105 5.42l-.335 2.98h1.1l.7-2.98h-1.465zm10.912-5.545c-1.675 0-3.015 1.36-3.015 3.625 0 2.265 1.34 3.625 3.015 3.625 1.67 0 3.02-1.36 3.02-3.625 0-2.265-1.35-3.625-3.02-3.625zm0 1.295c.9 0 1.61.8 1.61 2.33s-.71 2.33-1.61 2.33c-.895 0-1.61-.8-1.61-2.33s.715-2.33 1.61-2.33zm5.688 4.25l-.335 2.98h1.1l.7-2.98h-1.465zm10.912-5.545c-1.675 0-3.015 1.36-3.015 3.625 0 2.265 1.34 3.625 3.015 3.625 1.67 0 3.02-1.36 3.02-3.625 0-2.265-1.35-3.625-3.02-3.625zm0 1.295c.9 0 1.61.8 1.61 2.33s-.71 2.33-1.61 2.33c-.895 0-1.61-.8-1.61-2.33s.715-2.33 1.61-2.33zm6.323 4.015c-.52 0-.975.445-.975.965 0 .525.455.975.975.975.515 0 .965-.45.965-.975 0-.52-.45-.965-.965-.965zm5.641-5.295l-3.025 1.22v1.36l1.675-.68v5.21h1.35v-7.11zm7.296.11h-4.025l-.075 3.875h1.665c1.095 0 1.425.46 1.425.985 0 .555-.385 1.015-1.165 1.015-.645 0-1.33-.325-1.71-.74l-.76.945c.58.655 1.435 1.045 2.48 1.045 1.415 0 2.555-.86 2.555-2.365 0-1.17-.82-2.105-2.45-2.105h-.805l.03-1.4h2.835v-1.255zm3.105 5.42l-.335 2.98h1.1l.7-2.98h-1.465zm10.667-5.53l-3.025 1.22v1.36l1.675-.68v5.21h1.35v-7.11zm3.052 8.67c1.745-.68 2.935-2.345 2.935-4.405s-1.19-3.725-2.935-4.405l-.415 1.165c1.295.61 1.975 1.84 1.975 3.24 0 1.4-.68 2.63-1.975 3.24l.415 1.165zm11.374-8.56h-1.305v8.325h1.305v-8.325zm5.035 0h-1.305v8.325h1.305v-8.325zm10.071-.245c-1.745.68-2.935 2.345-2.935 4.405s1.19 3.725 2.935 4.405l.415-1.165c-1.295-.61-1.975-1.84-1.975-3.24 0-1.4.68-2.63 1.975-3.24l-.415-1.165zm5.47.135l-3.025 1.22v1.36l1.675-.68v5.21h1.35v-7.11zm7.297.11h-4.025l-.075 3.875h1.665c1.095 0 1.425.46 1.425.985 0 .555-.385 1.015-1.165 1.015-.645 0-1.33-.325-1.71-.74l-.76.945c.58.655 1.435 1.045 2.48 1.045 1.415 0 2.555-.86 2.555-2.365 0-1.17-.82-2.105-2.45-2.105h-.805l.03-1.4h2.835v-1.255zm3.105 5.42l-.335 2.98h1.1l.7-2.98h-1.465zm10.556-5.545c-1.415 0-2.565.75-2.565 2.01 0 .805.46 1.305 1.065 1.585-.69.27-1.235.77-1.235 1.625 0 1.275 1.23 2.03 2.735 2.03s2.735-.755 2.735-2.03c0-.855-.55-1.355-1.24-1.625.605-.28 1.07-.78 1.07-1.585 0-1.26-1.15-2.01-2.565-2.01zm0 4.145c.695 0 1.28.335 1.28.96 0 .615-.585.94-1.28.94-.7 0-1.28-.325-1.28-.94 0-.625.58-.96 1.28-.96zm0-2.925c.625 0 1.13.315 1.13.895 0 .6-.505.92-1.13.92-.625 0-1.13-.32-1.13-.92 0-.58.505-.895 1.13-.895zm9.653-1.095h-4.025l-.075 3.875h1.665c1.095 0 1.425.46 1.425.985 0 .555-.385 1.015-1.165 1.015-.645 0-1.33-.325-1.71-.74l-.76.945c.58.655 1.435 1.045 2.48 1.045 1.415 0 2.555-.86 2.555-2.365 0-1.17-.82-2.105-2.45-2.105h-.805l.03-1.4h2.835v-1.255zm3.046 8.56c1.745-.68 2.935-2.345 2.935-4.405s-1.19-3.725-2.935-4.405l-.415 1.165c1.295.61 1.975 1.84 1.975 3.24 0 1.4-.68 2.63-1.975 3.24l.415 1.165z" fill="#fff"/><circle cx="276.176" cy="4.887" r="3.151" fill="#fff"/></svg>