<svg width="381" height="374" viewBox="0 0 381 374" fill="none" xmlns="http://www.w3.org/2000/svg"><path d="M24.474.498a.436.436 0 00-.616 0L21.085 3.27a.436.436 0 10.616.616l2.465-2.465 2.465 2.465a.436.436 0 10.616-.616L24.474.498zm-.616 309.063c.17.17.446.17.616 0l2.773-2.773a.435.435 0 10-.616-.616l-2.465 2.465-2.465-2.465a.436.436 0 00-.616.616l2.773 2.773zM23.73.806v308.447h.872V.806h-.872zM380.277 318.77a.436.436 0 000-.616l-2.773-2.773a.436.436 0 00-.616.616l2.465 2.465-2.465 2.465a.436.436 0 00.616.616l2.773-2.773zm-353.569-.616a.435.435 0 000 .616l2.773 2.773a.436.436 0 00.617-.616l-2.465-2.465 2.465-2.465a.435.435 0 10-.617-.616l-2.773 2.773zm353.261-.128H27.016v.872H379.97v-.872z" fill="#52FFE0"/><circle cx="45.316" cy="307.133" r="4.357" fill="#fff"/><path d="M3.6 165.668v6.882h1.566v-2.604H12v-1.674H5.166v-2.604H3.6zm0-4.62v1.674H12v-1.674H3.6zm0-12.982v2.454l5.67 2.178-5.67 2.184v2.454H12v-1.674H5.706l5.484-2.076v-1.77l-5.532-2.076H12v-1.674H3.6zm6.864-9.986v4.602H8.532v-4.344H6.996v4.344h-1.86v-4.554H3.6v6.228H12v-6.276h-1.536zm157.218 200.86c1.992 0 3.06-1.044 3.06-2.658 0-1.626-1.068-2.67-3.072-2.67h-3.426v8.4h1.674v-3.072h1.764zm-.042-3.786c.912 0 1.386.378 1.386 1.128 0 .756-.474 1.128-1.386 1.128h-1.722v-2.256h1.722zm6.326-1.542v8.4h1.674v-3.342h.492l2.448 3.342h2.028l-2.586-3.366c1.614-.156 2.574-1.098 2.574-2.478 0-1.608-1.074-2.556-3.078-2.556h-3.552zm3.522 1.542c.888 0 1.386.318 1.386 1.014 0 .708-.474 1.044-1.386 1.044h-1.848v-2.058h1.848zm10.419-1.698c-2.586 0-4.41 1.848-4.41 4.356s1.824 4.356 4.41 4.356c2.586 0 4.416-1.848 4.416-4.356s-1.83-4.356-4.416-4.356zm0 1.608c1.548 0 2.664 1.116 2.664 2.748 0 1.632-1.116 2.748-2.664 2.748-1.542 0-2.664-1.116-2.664-2.748 0-1.632 1.122-2.748 2.664-2.748zm11.749-1.608c-2.58 0-4.434 1.818-4.434 4.356 0 2.712 2.064 4.35 4.392 4.35 2.382 0 4.104-1.794 4.104-4.338 0-.156-.006-.312-.024-.474h-3.864v1.398h2.136c-.222 1.194-1.02 1.854-2.388 1.854-1.452 0-2.622-1.074-2.622-2.79 0-1.638 1.116-2.766 2.652-2.766.858 0 1.554.336 2.028.882l1.206-1.182c-.744-.81-1.854-1.29-3.186-1.29zm7.366.156v8.4h1.674v-3.342h.492l2.448 3.342h2.028l-2.586-3.366c1.614-.156 2.574-1.098 2.574-2.478 0-1.608-1.074-2.556-3.078-2.556h-3.552zm3.522 1.542c.888 0 1.386.318 1.386 1.014 0 .708-.474 1.044-1.386 1.044h-1.848v-2.058h1.848zm12.71 5.322h-4.602v-1.932h4.344v-1.536h-4.344v-1.86h4.554v-1.536h-6.228v8.4h6.276v-1.536zm9.985-6.114c-1.056-.63-2.034-.894-3.21-.894-1.788 0-3.348.912-3.348 2.664 0 1.518 1.08 2.172 2.562 2.406l.534.084c1.17.186 1.782.402 1.782.984 0 .648-.72 1.014-1.65 1.014-1.08 0-2.07-.42-2.676-.906l-.87 1.35c.9.726 2.268 1.098 3.54 1.098 1.806 0 3.438-.882 3.438-2.736 0-1.464-1.176-2.106-2.676-2.352l-.474-.078c-1.008-.168-1.734-.354-1.734-.972 0-.636.666-1.008 1.608-1.008.918 0 1.722.306 2.382.714l.792-1.368zm9.781 0c-1.056-.63-2.034-.894-3.21-.894-1.788 0-3.348.912-3.348 2.664 0 1.518 1.08 2.172 2.562 2.406l.534.084c1.17.186 1.782.402 1.782.984 0 .648-.72 1.014-1.65 1.014-1.08 0-2.07-.42-2.676-.906l-.87 1.35c.9.726 2.268 1.098 3.54 1.098 1.806 0 3.438-.882 3.438-2.736 0-1.464-1.176-2.106-2.676-2.352l-.474-.078c-1.008-.168-1.734-.354-1.734-.972 0-.636.666-1.008 1.608-1.008.918 0 1.722.306 2.382.714l.792-1.368zm-128.7 29.758c-1.843.718-3.1 2.477-3.1 4.653 0 2.176 1.257 3.934 3.1 4.653l.439-1.231c-1.368-.644-2.087-1.944-2.087-3.422 0-1.479.719-2.778 2.087-3.423l-.439-1.23zm5.738.126c-1.77 0-3.185 1.437-3.185 3.829 0 2.393 1.415 3.829 3.185 3.829 1.764 0 3.19-1.436 3.19-3.829 0-2.392-1.426-3.829-3.19-3.829zm0 1.368c.95 0 1.7.845 1.7 2.461 0 1.617-.75 2.462-1.7 2.462-.946 0-1.701-.845-1.701-2.462 0-1.616.755-2.461 1.701-2.461zm6.679 4.241c-.55 0-1.03.47-1.03 1.02 0 .554.48 1.029 1.03 1.029.544 0 1.019-.475 1.019-1.029 0-.55-.475-1.02-1.019-1.02zm5.845-5.609c-1.178 0-1.981.492-2.467 1.146l.898.904c.301-.397.808-.75 1.495-.75.686 0 1.225.327 1.225.924 0 .623-.576.94-1.294.94h-.866v1.268h.861c.797 0 1.447.332 1.447.966 0 .65-.576.961-1.294.961a2.34 2.34 0 01-1.68-.707l-.85.934c.56.676 1.474 1.072 2.583 1.072 1.399 0 2.725-.702 2.725-2.16 0-.797-.491-1.389-1.268-1.695.687-.322 1.104-.898 1.104-1.68 0-1.278-1.061-2.123-2.619-2.123zm7.629 0c-1.178 0-1.981.492-2.467 1.146l.898.904c.301-.397.808-.75 1.495-.75s1.225.327 1.225.924c0 .623-.575.94-1.294.94h-.866v1.268h.861c.798 0 1.447.332 1.447.966 0 .65-.576.961-1.294.961a2.335 2.335 0 01-1.679-.707l-.851.934c.56.676 1.474 1.072 2.583 1.072 1.4 0 2.725-.702 2.725-2.16 0-.797-.491-1.389-1.267-1.695.686-.322 1.104-.898 1.104-1.68 0-1.278-1.062-2.123-2.62-2.123zm5.628 5.858l-.354 3.147h1.162l.739-3.147h-1.547zm11.526-5.858c-1.77 0-3.185 1.437-3.185 3.829 0 2.393 1.415 3.829 3.185 3.829 1.764 0 3.19-1.436 3.19-3.829 0-2.392-1.426-3.829-3.19-3.829zm0 1.368c.95 0 1.7.845 1.7 2.461 0 1.617-.75 2.462-1.7 2.462-.946 0-1.701-.845-1.701-2.462 0-1.616.755-2.461 1.701-2.461zm6.008 4.49l-.354 3.147h1.162l.739-3.147h-1.547zm11.526-5.858c-1.77 0-3.185 1.437-3.185 3.829 0 2.393 1.415 3.829 3.185 3.829 1.764 0 3.19-1.436 3.19-3.829 0-2.392-1.426-3.829-3.19-3.829zm0 1.368c.95 0 1.7.845 1.7 2.461 0 1.617-.75 2.462-1.7 2.462-.946 0-1.701-.845-1.701-2.462 0-1.616.755-2.461 1.701-2.461zm6.679 4.241c-.55 0-1.03.47-1.03 1.02 0 .554.48 1.029 1.03 1.029.544 0 1.019-.475 1.019-1.029 0-.55-.475-1.02-1.019-1.02zm7.846-5.477h-1.722l-2.049 3.069c-.449.676-.702 1.289-.702 1.965 0 1.431 1.193 2.492 2.773 2.492 1.589 0 2.783-1.072 2.783-2.519 0-1.384-1.062-2.456-2.562-2.456-.126 0-.243.011-.343.021l1.822-2.572zm-1.7 3.803c.744 0 1.299.502 1.299 1.215 0 .718-.555 1.215-1.299 1.215-.735 0-1.289-.497-1.289-1.215 0-.713.554-1.215 1.289-1.215zm10.131-3.803h-5.213v1.331h3.512l-3.042 6.063h1.68l3.063-6.279v-1.115zm1.803 5.726l-.354 3.147h1.162l.74-3.147h-1.548zm11.267-5.842l-3.195 1.289v1.436l1.769-.718v5.503h1.426v-7.51zm3.224 9.158c1.843-.718 3.1-2.477 3.1-4.653 0-2.176-1.257-3.934-3.1-4.653l-.439 1.231c1.368.644 2.087 1.943 2.087 3.422s-.719 2.778-2.087 3.423l.439 1.23zm16.209-9.042h-1.379v8.794h1.379v-8.794zm5.319 0h-1.379v8.794h1.379v-8.794zm10.637-.258c-1.843.718-3.1 2.477-3.1 4.653 0 2.176 1.257 3.934 3.1 4.653l.439-1.231c-1.368-.644-2.086-1.944-2.086-3.422 0-1.479.718-2.778 2.086-3.423l-.439-1.23zm5.159.126c-1.178 0-1.98.492-2.466 1.146l.898.904c.301-.397.808-.75 1.494-.75.687 0 1.226.327 1.226.924 0 .623-.576.94-1.294.94h-.867v1.268h.861c.798 0 1.447.332 1.447.966 0 .65-.575.961-1.294.961a2.339 2.339 0 01-1.679-.707l-.85.934c.559.676 1.473 1.072 2.582 1.072 1.4 0 2.725-.702 2.725-2.16 0-.797-.491-1.389-1.267-1.695.687-.322 1.104-.898 1.104-1.68 0-1.278-1.062-2.123-2.62-2.123zm7.629 0c-1.177 0-1.98.492-2.466 1.146l.898.904c.301-.397.808-.75 1.494-.75.687 0 1.226.327 1.226.924 0 .623-.576.94-1.294.94h-.866v1.268h.861c.797 0 1.447.332 1.447.966 0 .65-.576.961-1.294.961a2.34 2.34 0 01-1.68-.707l-.85.934c.56.676 1.473 1.072 2.583 1.072 1.399 0 2.725-.702 2.725-2.16 0-.797-.491-1.389-1.268-1.695.687-.322 1.104-.898 1.104-1.68 0-1.278-1.062-2.123-2.62-2.123zm5.628 5.858l-.354 3.147h1.162l.74-3.147h-1.548zm10.597-5.858c-1.178 0-1.981.492-2.467 1.146l.898.904c.301-.397.808-.75 1.495-.75.686 0 1.225.327 1.225.924 0 .623-.576.94-1.294.94h-.866v1.268h.861c.797 0 1.447.332 1.447.966 0 .65-.576.961-1.294.961a2.34 2.34 0 01-1.68-.707l-.85.934c.56.676 1.474 1.072 2.583 1.072 1.399 0 2.725-.702 2.725-2.16 0-.797-.491-1.389-1.268-1.695.687-.322 1.104-.898 1.104-1.68 0-1.278-1.061-2.123-2.619-2.123zm7.629 0c-1.178 0-1.981.492-2.467 1.146l.898.904c.301-.397.808-.75 1.495-.75.686 0 1.225.327 1.225.924 0 .623-.575.94-1.294.94h-.866v1.268h.861c.797 0 1.447.332 1.447.966 0 .65-.576.961-1.294.961a2.335 2.335 0 01-1.679-.707l-.851.934c.56.676 1.474 1.072 2.583 1.072 1.4 0 2.725-.702 2.725-2.16 0-.797-.491-1.389-1.267-1.695.686-.322 1.103-.898 1.103-1.68 0-1.278-1.061-2.123-2.619-2.123zm5.513 9.174c1.844-.718 3.101-2.477 3.101-4.653 0-2.176-1.257-3.934-3.101-4.653l-.438 1.231c1.368.644 2.086 1.943 2.086 3.422s-.718 2.778-2.086 3.423l.438 1.23z" fill="#fff"/><path d="M378.682 5.599c-113.312 0-225.734 300.663-333.78 300.663" stroke="#fff" stroke-width="2.614"/></svg>