<svg width="381" height="374" viewBox="0 0 381 374" fill="none" xmlns="http://www.w3.org/2000/svg"><path d="M24.474.498a.436.436 0 00-.616 0L21.085 3.27a.436.436 0 10.616.616l2.465-2.465 2.465 2.465a.436.436 0 10.616-.616L24.474.498zm-.616 309.063c.17.17.446.17.616 0l2.773-2.773a.435.435 0 10-.616-.616l-2.465 2.465-2.465-2.465a.436.436 0 00-.616.616l2.773 2.773zM23.73.806v308.447h.872V.806h-.872zM380.277 318.77a.436.436 0 000-.616l-2.773-2.773a.436.436 0 00-.616.616l2.465 2.465-2.465 2.465a.436.436 0 00.616.616l2.773-2.773zm-353.569-.616a.435.435 0 000 .616l2.773 2.773a.436.436 0 00.617-.616l-2.465-2.465 2.465-2.465a.435.435 0 10-.617-.616l-2.773 2.773zm353.261-.128H27.016v.872H379.97v-.872z" fill="#52FFE0"/><circle cx="45.316" cy="307.133" r="4.357" fill="#fff"/><path d="M3 163.895v5.735h1.305v-2.17H10v-1.395H4.305v-2.17H3zm0-3.85v1.395h7v-1.395H3zm0-10.818v2.045l4.725 1.815L3 154.907v2.045h7v-1.395H4.755l4.57-1.73v-1.475l-4.61-1.73H10v-1.395H3zm5.72-8.322v3.835H7.11v-3.62H5.83v3.62H4.28v-3.795H3v5.19h7v-5.23H8.72zm164.93 196.547c1.66 0 2.55-.87 2.55-2.215 0-1.355-.89-2.225-2.56-2.225h-2.855v7h1.395v-2.56h1.47zm-.035-3.155c.76 0 1.155.315 1.155.94 0 .63-.395.94-1.155.94h-1.435v-1.88h1.435zm5.272-1.285v7h1.395v-2.785h.41l2.04 2.785h1.69l-2.155-2.805c1.345-.13 2.145-.915 2.145-2.065 0-1.34-.895-2.13-2.565-2.13h-2.96zm2.935 1.285c.74 0 1.155.265 1.155.845 0 .59-.395.87-1.155.87h-1.54v-1.715h1.54zm8.682-1.415c-2.155 0-3.675 1.54-3.675 3.63s1.52 3.63 3.675 3.63 3.68-1.54 3.68-3.63-1.525-3.63-3.68-3.63zm0 1.34c1.29 0 2.22.93 2.22 2.29 0 1.36-.93 2.29-2.22 2.29-1.285 0-2.22-.93-2.22-2.29 0-1.36.935-2.29 2.22-2.29zm9.792-1.34c-2.15 0-3.695 1.515-3.695 3.63 0 2.26 1.72 3.625 3.66 3.625 1.985 0 3.42-1.495 3.42-3.615 0-.13-.005-.26-.02-.395h-3.22v1.165h1.78c-.185.995-.85 1.545-1.99 1.545-1.21 0-2.185-.895-2.185-2.325 0-1.365.93-2.305 2.21-2.305.715 0 1.295.28 1.69.735l1.005-.985c-.62-.675-1.545-1.075-2.655-1.075zm6.138.13v7h1.395v-2.785h.41l2.04 2.785h1.69l-2.155-2.805c1.345-.13 2.145-.915 2.145-2.065 0-1.34-.895-2.13-2.565-2.13h-2.96zm2.935 1.285c.74 0 1.155.265 1.155.845 0 .59-.395.87-1.155.87h-1.54v-1.715h1.54zm10.592 4.435h-3.835v-1.61h3.62v-1.28h-3.62v-1.55h3.795v-1.28h-5.19v7h5.23v-1.28zm8.32-5.095c-.88-.525-1.695-.745-2.675-.745-1.49 0-2.79.76-2.79 2.22 0 1.265.9 1.81 2.135 2.005l.445.07c.975.155 1.485.335 1.485.82 0 .54-.6.845-1.375.845-.9 0-1.725-.35-2.23-.755l-.725 1.125c.75.605 1.89.915 2.95.915 1.505 0 2.865-.735 2.865-2.28 0-1.22-.98-1.755-2.23-1.96l-.395-.065c-.84-.14-1.445-.295-1.445-.81 0-.53.555-.84 1.34-.84.765 0 1.435.255 1.985.595l.66-1.14zm8.151 0c-.88-.525-1.695-.745-2.675-.745-1.49 0-2.79.76-2.79 2.22 0 1.265.9 1.81 2.135 2.005l.445.07c.975.155 1.485.335 1.485.82 0 .54-.6.845-1.375.845-.9 0-1.725-.35-2.23-.755l-.725 1.125c.75.605 1.89.915 2.95.915 1.505 0 2.865-.735 2.865-2.28 0-1.22-.98-1.755-2.23-1.96l-.395-.065c-.84-.14-1.445-.295-1.445-.81 0-.53.555-.84 1.34-.84.765 0 1.435.255 1.985.595l.66-1.14zM114.32 364.12c-1.843.718-3.1 2.477-3.1 4.653 0 2.176 1.257 3.934 3.1 4.653l.439-1.231c-1.368-.644-2.087-1.944-2.087-3.422 0-1.479.719-2.778 2.087-3.423l-.439-1.23zm5.738.126c-1.77 0-3.185 1.437-3.185 3.829 0 2.393 1.415 3.829 3.185 3.829 1.764 0 3.19-1.436 3.19-3.829 0-2.392-1.426-3.829-3.19-3.829zm0 1.368c.95 0 1.7.845 1.7 2.461 0 1.617-.75 2.462-1.7 2.462-.946 0-1.701-.845-1.701-2.462 0-1.616.755-2.461 1.701-2.461zm6.679 4.241c-.55 0-1.03.47-1.03 1.02 0 .554.48 1.029 1.03 1.029.544 0 1.019-.475 1.019-1.029 0-.55-.475-1.02-1.019-1.02zm5.845-5.609c-1.178 0-1.981.492-2.467 1.146l.898.904c.301-.397.808-.75 1.495-.75.686 0 1.225.327 1.225.924 0 .623-.576.94-1.294.94h-.866v1.268h.861c.797 0 1.447.332 1.447.966 0 .65-.576.961-1.294.961a2.34 2.34 0 01-1.68-.707l-.85.934c.56.676 1.474 1.072 2.583 1.072 1.399 0 2.725-.702 2.725-2.16 0-.797-.491-1.389-1.268-1.695.687-.322 1.104-.898 1.104-1.68 0-1.278-1.061-2.123-2.619-2.123zm7.629 0c-1.178 0-1.981.492-2.467 1.146l.898.904c.301-.397.808-.75 1.495-.75s1.225.327 1.225.924c0 .623-.575.94-1.294.94h-.866v1.268h.861c.798 0 1.447.332 1.447.966 0 .65-.576.961-1.294.961a2.335 2.335 0 01-1.679-.707l-.851.934c.56.676 1.474 1.072 2.583 1.072 1.4 0 2.725-.702 2.725-2.16 0-.797-.491-1.389-1.267-1.695.686-.322 1.104-.898 1.104-1.68 0-1.278-1.062-2.123-2.62-2.123zm5.628 5.858l-.354 3.147h1.162l.739-3.147h-1.547zm11.526-5.858c-1.77 0-3.185 1.437-3.185 3.829 0 2.393 1.415 3.829 3.185 3.829 1.764 0 3.19-1.436 3.19-3.829 0-2.392-1.426-3.829-3.19-3.829zm0 1.368c.95 0 1.7.845 1.7 2.461 0 1.617-.75 2.462-1.7 2.462-.946 0-1.701-.845-1.701-2.462 0-1.616.755-2.461 1.701-2.461zm6.008 4.49l-.354 3.147h1.162l.739-3.147h-1.547zm11.526-5.858c-1.77 0-3.185 1.437-3.185 3.829 0 2.393 1.415 3.829 3.185 3.829 1.764 0 3.19-1.436 3.19-3.829 0-2.392-1.426-3.829-3.19-3.829zm0 1.368c.95 0 1.7.845 1.7 2.461 0 1.617-.75 2.462-1.7 2.462-.946 0-1.701-.845-1.701-2.462 0-1.616.755-2.461 1.701-2.461zm6.679 4.241c-.55 0-1.03.47-1.03 1.02 0 .554.48 1.029 1.03 1.029.544 0 1.019-.475 1.019-1.029 0-.55-.475-1.02-1.019-1.02zm7.846-5.477h-1.722l-2.049 3.069c-.449.676-.702 1.289-.702 1.965 0 1.431 1.193 2.492 2.773 2.492 1.589 0 2.783-1.072 2.783-2.519 0-1.384-1.062-2.456-2.562-2.456-.126 0-.243.011-.343.021l1.822-2.572zm-1.7 3.803c.744 0 1.299.502 1.299 1.215 0 .718-.555 1.215-1.299 1.215-.735 0-1.289-.497-1.289-1.215 0-.713.554-1.215 1.289-1.215zm10.131-3.803h-5.213v1.331h3.512l-3.042 6.063h1.68l3.063-6.279v-1.115zm1.803 5.726l-.354 3.147h1.162l.74-3.147h-1.548zm11.267-5.842l-3.195 1.289v1.436l1.769-.718v5.503h1.426v-7.51zm3.224 9.158c1.843-.718 3.1-2.477 3.1-4.653 0-2.176-1.257-3.934-3.1-4.653l-.439 1.231c1.368.644 2.087 1.943 2.087 3.422s-.719 2.778-2.087 3.423l.439 1.23zm16.209-9.042h-1.379v8.794h1.379v-8.794zm5.319 0h-1.379v8.794h1.379v-8.794zm10.637-.258c-1.843.718-3.1 2.477-3.1 4.653 0 2.176 1.257 3.934 3.1 4.653l.439-1.231c-1.368-.644-2.086-1.944-2.086-3.422 0-1.479.718-2.778 2.086-3.423l-.439-1.23zm5.159.126c-1.178 0-1.98.492-2.466 1.146l.898.904c.301-.397.808-.75 1.494-.75.687 0 1.226.327 1.226.924 0 .623-.576.94-1.294.94h-.867v1.268h.861c.798 0 1.447.332 1.447.966 0 .65-.575.961-1.294.961a2.339 2.339 0 01-1.679-.707l-.85.934c.559.676 1.473 1.072 2.582 1.072 1.4 0 2.725-.702 2.725-2.16 0-.797-.491-1.389-1.267-1.695.687-.322 1.104-.898 1.104-1.68 0-1.278-1.062-2.123-2.62-2.123zm7.629 0c-1.177 0-1.98.492-2.466 1.146l.898.904c.301-.397.808-.75 1.494-.75.687 0 1.226.327 1.226.924 0 .623-.576.94-1.294.94h-.866v1.268h.861c.797 0 1.447.332 1.447.966 0 .65-.576.961-1.294.961a2.34 2.34 0 01-1.68-.707l-.85.934c.56.676 1.473 1.072 2.583 1.072 1.399 0 2.725-.702 2.725-2.16 0-.797-.491-1.389-1.268-1.695.687-.322 1.104-.898 1.104-1.68 0-1.278-1.062-2.123-2.62-2.123zm5.628 5.858l-.354 3.147h1.162l.74-3.147h-1.548zm10.597-5.858c-1.178 0-1.981.492-2.467 1.146l.898.904c.301-.397.808-.75 1.495-.75.686 0 1.225.327 1.225.924 0 .623-.576.94-1.294.94h-.866v1.268h.861c.797 0 1.447.332 1.447.966 0 .65-.576.961-1.294.961a2.34 2.34 0 01-1.68-.707l-.85.934c.56.676 1.474 1.072 2.583 1.072 1.399 0 2.725-.702 2.725-2.16 0-.797-.491-1.389-1.268-1.695.687-.322 1.104-.898 1.104-1.68 0-1.278-1.061-2.123-2.619-2.123zm7.629 0c-1.178 0-1.981.492-2.467 1.146l.898.904c.301-.397.808-.75 1.495-.75.686 0 1.225.327 1.225.924 0 .623-.575.94-1.294.94h-.866v1.268h.861c.797 0 1.447.332 1.447.966 0 .65-.576.961-1.294.961a2.335 2.335 0 01-1.679-.707l-.851.934c.56.676 1.474 1.072 2.583 1.072 1.4 0 2.725-.702 2.725-2.16 0-.797-.491-1.389-1.267-1.695.686-.322 1.103-.898 1.103-1.68 0-1.278-1.061-2.123-2.619-2.123zm5.513 9.174c1.844-.718 3.101-2.477 3.101-4.653 0-2.176-1.257-3.934-3.101-4.653l-.438 1.231c1.368.644 2.086 1.943 2.086 3.422s-.718 2.778-2.086 3.423l.438 1.23z" fill="#fff"/><path d="M378.682 5.599c-113.312 0-225.734 300.663-333.78 300.663" stroke="#fff" stroke-width="2.614"/></svg>