<svg width="384" height="374" viewBox="0 0 384 374" fill="none" xmlns="http://www.w3.org/2000/svg"><circle cx="379.098" cy="6.467" r="4.357" fill="#fff"/><path d="M24.476.497a.436.436 0 00-.616 0L21.087 3.27a.436.436 0 10.616.616l2.465-2.465 2.465 2.465a.436.436 0 00.616-.616L24.476.497zM23.86 309.56c.17.17.446.17.616 0l2.773-2.773a.436.436 0 10-.616-.616l-2.465 2.465-2.465-2.465a.436.436 0 00-.616.616l2.773 2.773zM23.732.805v308.447h.872V.805h-.872zm356.545 317.963a.436.436 0 000-.616l-2.773-2.773a.436.436 0 00-.616.616l2.465 2.465-2.465 2.465a.436.436 0 00.616.616l2.773-2.773zm-353.569-.616a.435.435 0 000 .616l2.773 2.773a.436.436 0 00.617-.616l-2.465-2.465 2.465-2.465a.435.435 0 10-.617-.616l-2.773 2.773zm353.261-.128H27.016v.872H379.97v-.872z" fill="#52FFE0"/><circle cx="45.318" cy="307.133" r="4.357" fill="#fff"/><path d="M379.553 6.47c-288.462 0-278.005 300.664-333.78 300.664" stroke="#fff" stroke-width="2.614"/><path d="M3.6 165.667v6.882h1.566v-2.604H12v-1.674H5.166v-2.604H3.6zm0-4.62v1.674H12v-1.674H3.6zm0-12.982v2.454l5.67 2.178-5.67 2.184v2.454H12v-1.674H5.706l5.484-2.076v-1.77l-5.532-2.076H12v-1.674H3.6zm6.864-9.986v4.602H8.532v-4.344H6.996v4.344h-1.86v-4.554H3.6v6.228H12v-6.276h-1.536zm157.216 200.86c1.992 0 3.06-1.044 3.06-2.658 0-1.626-1.068-2.67-3.072-2.67h-3.426v8.4h1.674v-3.072h1.764zm-.042-3.786c.912 0 1.386.378 1.386 1.128 0 .756-.474 1.128-1.386 1.128h-1.722v-2.256h1.722zm6.326-1.542v8.4h1.674v-3.342h.492l2.448 3.342h2.028l-2.586-3.366c1.614-.156 2.574-1.098 2.574-2.478 0-1.608-1.074-2.556-3.078-2.556h-3.552zm3.522 1.542c.888 0 1.386.318 1.386 1.014 0 .708-.474 1.044-1.386 1.044h-1.848v-2.058h1.848zm10.419-1.698c-2.586 0-4.41 1.848-4.41 4.356s1.824 4.356 4.41 4.356c2.586 0 4.416-1.848 4.416-4.356s-1.83-4.356-4.416-4.356zm0 1.608c1.548 0 2.664 1.116 2.664 2.748 0 1.632-1.116 2.748-2.664 2.748-1.542 0-2.664-1.116-2.664-2.748 0-1.632 1.122-2.748 2.664-2.748zm11.749-1.608c-2.58 0-4.434 1.818-4.434 4.356 0 2.712 2.064 4.35 4.392 4.35 2.382 0 4.104-1.794 4.104-4.338 0-.156-.006-.312-.024-.474h-3.864v1.398h2.136c-.222 1.194-1.02 1.854-2.388 1.854-1.452 0-2.622-1.074-2.622-2.79 0-1.638 1.116-2.766 2.652-2.766.858 0 1.554.336 2.028.882l1.206-1.182c-.744-.81-1.854-1.29-3.186-1.29zm7.366.156v8.4h1.674v-3.342h.492l2.448 3.342h2.028l-2.586-3.366c1.614-.156 2.574-1.098 2.574-2.478 0-1.608-1.074-2.556-3.078-2.556h-3.552zm3.522 1.542c.888 0 1.386.318 1.386 1.014 0 .708-.474 1.044-1.386 1.044h-1.848v-2.058h1.848zm12.71 5.322h-4.602v-1.932h4.344v-1.536h-4.344v-1.86h4.554v-1.536h-6.228v8.4h6.276v-1.536zm9.985-6.114c-1.056-.63-2.034-.894-3.21-.894-1.788 0-3.348.912-3.348 2.664 0 1.518 1.08 2.172 2.562 2.406l.534.084c1.17.186 1.782.402 1.782.984 0 .648-.72 1.014-1.65 1.014-1.08 0-2.07-.42-2.676-.906l-.87 1.35c.9.726 2.268 1.098 3.54 1.098 1.806 0 3.438-.882 3.438-2.736 0-1.464-1.176-2.106-2.676-2.352l-.474-.078c-1.008-.168-1.734-.354-1.734-.972 0-.636.666-1.008 1.608-1.008.918 0 1.722.306 2.382.714l.792-1.368zm9.781 0c-1.056-.63-2.034-.894-3.21-.894-1.788 0-3.348.912-3.348 2.664 0 1.518 1.08 2.172 2.562 2.406l.534.084c1.17.186 1.782.402 1.782.984 0 .648-.72 1.014-1.65 1.014-1.08 0-2.07-.42-2.676-.906l-.87 1.35c.9.726 2.268 1.098 3.54 1.098 1.806 0 3.438-.882 3.438-2.736 0-1.464-1.176-2.106-2.676-2.352l-.474-.078c-1.008-.168-1.734-.354-1.734-.972 0-.636.666-1.008 1.608-1.008.918 0 1.722.306 2.382.714l.792-1.368zM120.573 364.12c-1.843.718-3.1 2.477-3.1 4.653 0 2.176 1.257 3.934 3.1 4.653l.438-1.231c-1.368-.644-2.086-1.944-2.086-3.422 0-1.479.718-2.778 2.086-3.423l-.438-1.23zm5.737.126c-1.769 0-3.184 1.437-3.184 3.829 0 2.393 1.415 3.829 3.184 3.829 1.764 0 3.19-1.436 3.19-3.829 0-2.392-1.426-3.829-3.19-3.829zm0 1.368c.951 0 1.701.845 1.701 2.461 0 1.617-.75 2.462-1.701 2.462-.945 0-1.7-.845-1.7-2.462 0-1.616.755-2.461 1.7-2.461zm6.679 4.241c-.549 0-1.03.47-1.03 1.02 0 .554.481 1.029 1.03 1.029.544 0 1.02-.475 1.02-1.029 0-.55-.476-1.02-1.02-1.02zm5.959-5.593l-3.195 1.289v1.436l1.769-.718v5.503h1.426v-7.51zm7.707.116h-4.251l-.08 4.094h1.759c1.157 0 1.505.485 1.505 1.04 0 .586-.406 1.072-1.23 1.072-.681 0-1.405-.343-1.806-.782l-.803.999c.612.692 1.516 1.103 2.619 1.103 1.495 0 2.699-.908 2.699-2.498 0-1.236-.866-2.223-2.588-2.223h-.85l.032-1.479h2.994v-1.326zm3.28 5.726l-.354 3.147h1.162l.74-3.147h-1.548zm11.526-5.858c-1.769 0-3.185 1.437-3.185 3.829 0 2.393 1.416 3.829 3.185 3.829 1.764 0 3.19-1.436 3.19-3.829 0-2.392-1.426-3.829-3.19-3.829zm0 1.368c.951 0 1.701.845 1.701 2.461 0 1.617-.75 2.462-1.701 2.462-.945 0-1.7-.845-1.7-2.462 0-1.616.755-2.461 1.7-2.461zm6.008 4.49l-.354 3.147h1.162l.74-3.147h-1.548zm11.526-5.858c-1.769 0-3.184 1.437-3.184 3.829 0 2.393 1.415 3.829 3.184 3.829 1.764 0 3.19-1.436 3.19-3.829 0-2.392-1.426-3.829-3.19-3.829zm0 1.368c.951 0 1.701.845 1.701 2.461 0 1.617-.75 2.462-1.701 2.462-.945 0-1.7-.845-1.7-2.462 0-1.616.755-2.461 1.7-2.461zm6.679 4.241c-.549 0-1.03.47-1.03 1.02 0 .554.481 1.029 1.03 1.029.544 0 1.02-.475 1.02-1.029 0-.55-.476-1.02-1.02-1.02zm5.959-5.593l-3.195 1.289v1.436l1.769-.718v5.503h1.426v-7.51zm7.707.116h-4.251l-.08 4.094h1.759c1.157 0 1.505.485 1.505 1.04 0 .586-.406 1.072-1.23 1.072-.681 0-1.405-.343-1.806-.782l-.803.999c.612.692 1.516 1.103 2.619 1.103 1.495 0 2.699-.908 2.699-2.498 0-1.236-.866-2.223-2.588-2.223h-.85l.032-1.479h2.994v-1.326zm3.28 5.726l-.354 3.147h1.162l.74-3.147h-1.548zm11.267-5.842l-3.195 1.289v1.436l1.769-.718v5.503h1.426v-7.51zm3.224 9.158c1.843-.718 3.1-2.477 3.1-4.653 0-2.176-1.257-3.934-3.1-4.653l-.439 1.231c1.368.644 2.087 1.943 2.087 3.422s-.719 2.778-2.087 3.423l.439 1.23zm12.015-9.042h-1.379v8.794h1.379v-8.794zm5.318 0h-1.378v8.794h1.378v-8.794zm10.638-.258c-1.843.718-3.1 2.477-3.1 4.653 0 2.176 1.257 3.934 3.1 4.653l.439-1.231c-1.368-.644-2.087-1.944-2.087-3.422 0-1.479.719-2.778 2.087-3.423l-.439-1.23zm5.778.142l-3.195 1.289v1.436l1.769-.718v5.503h1.426v-7.51zm7.707.116h-4.251l-.079 4.094h1.758c1.157 0 1.506.485 1.506 1.04 0 .586-.407 1.072-1.231 1.072-.681 0-1.405-.343-1.806-.782l-.803.999c.613.692 1.516 1.103 2.619 1.103 1.495 0 2.699-.908 2.699-2.498 0-1.236-.866-2.223-2.588-2.223h-.85l.032-1.479h2.994v-1.326zm3.28 5.726l-.354 3.147h1.162l.74-3.147h-1.548zm11.151-5.858c-1.494 0-2.709.793-2.709 2.123 0 .851.486 1.379 1.125 1.675-.729.285-1.305.813-1.305 1.716 0 1.347 1.3 2.144 2.889 2.144 1.59 0 2.889-.797 2.889-2.144 0-.903-.581-1.431-1.31-1.716.64-.296 1.131-.824 1.131-1.675 0-1.33-1.215-2.123-2.71-2.123zm0 4.379c.734 0 1.352.354 1.352 1.014 0 .649-.618.993-1.352.993-.739 0-1.352-.344-1.352-.993 0-.66.613-1.014 1.352-1.014zm0-3.09c.661 0 1.194.333 1.194.945 0 .634-.533.972-1.194.972-.66 0-1.193-.338-1.193-.972 0-.612.533-.945 1.193-.945zm10.196-1.157h-4.251l-.079 4.094h1.758c1.157 0 1.506.485 1.506 1.04 0 .586-.407 1.072-1.231 1.072-.681 0-1.405-.343-1.806-.782l-.803.999c.613.692 1.516 1.103 2.62 1.103 1.494 0 2.698-.908 2.698-2.498 0-1.236-.866-2.223-2.588-2.223h-.85l.032-1.479h2.994v-1.326zm3.218 9.042c1.843-.718 3.1-2.477 3.1-4.653 0-2.176-1.257-3.934-3.1-4.653l-.438 1.231c1.367.644 2.086 1.943 2.086 3.422s-.719 2.778-2.086 3.423l.438 1.23z" fill="#fff"/></svg>