<svg width="480" height="535" viewBox="0 0 480 535" fill="none" xmlns="http://www.w3.org/2000/svg"><path d="M9.508 3.956c-1.859 0-3.346 1.51-3.346 4.024 0 2.514 1.487 4.024 3.346 4.024 1.854 0 3.353-1.51 3.353-4.024 0-2.514-1.499-4.024-3.353-4.024zm0 1.438c1 0 1.788.888 1.788 2.586s-.789 2.586-1.788 2.586c-.993 0-1.787-.888-1.787-2.586s.794-2.586 1.787-2.586zm8.16-1.438c-1.238 0-2.165.905-2.165 2.115 0 1.22.927 2.126 2.165 2.126 1.243 0 2.17-.905 2.17-2.126 0-1.21-.927-2.115-2.17-2.115zm0 1.16c.544 0 .938.4.938.955 0 .566-.394.966-.938.966-.533 0-.933-.4-.933-.966 0-.555.4-.955.933-.955zm6.238-1.021h-1.448l-5.212 7.77H18.7l5.206-7.77zm-.405 3.669c-1.238 0-2.165.921-2.165 2.12 0 1.215.927 2.12 2.165 2.12 1.243 0 2.17-.905 2.17-2.12 0-1.21-.927-2.12-2.17-2.12zm0 1.16c.544 0 .938.4.938.96 0 .56-.394.96-.938.96-.538 0-.933-.4-.933-.96 0-.56.395-.96.933-.96zm-11.023 9.865c-.977-.583-1.882-.827-2.97-.827-1.654 0-3.097.843-3.097 2.464 0 1.404 1 2.01 2.37 2.226l.494.077c1.082.172 1.649.372 1.649.91 0 .6-.666.939-1.527.939-.999 0-1.915-.389-2.475-.838l-.805 1.248c.833.672 2.098 1.016 3.275 1.016 1.67 0 3.18-.816 3.18-2.53 0-1.355-1.088-1.949-2.475-2.177l-.439-.072c-.932-.155-1.604-.327-1.604-.899 0-.588.616-.932 1.488-.932.849 0 1.592.283 2.203.66l.733-1.265zm6.836-.838c-2.392 0-4.08 1.692-4.08 4.03 0 2.336 1.688 4.028 4.08 4.028 1.42 0 2.592-.632 3.28-1.642l-1.265-.91a2.378 2.378 0 01-2.026 1.065c-1.371 0-2.448-.982-2.453-2.542 0-1.51 1.043-2.542 2.453-2.542.866 0 1.57.4 2.009 1.071l1.332-.816c-.633-1.087-1.898-1.742-3.33-1.742zm6.337.144v7.77h1.548v-3.091h.455l2.265 3.091h1.876l-2.392-3.113c1.493-.145 2.38-1.016 2.38-2.293 0-1.487-.993-2.364-2.846-2.364H25.65zm3.258 1.426c.821 0 1.282.294 1.282.938 0 .655-.438.966-1.282.966h-1.71v-1.904h1.71zm9.638-1.57c-2.392 0-4.08 1.71-4.08 4.03 0 2.32 1.688 4.028 4.08 4.028 2.392 0 4.085-1.709 4.085-4.029s-1.693-4.03-4.085-4.03zm0 1.487c1.432 0 2.464 1.032 2.464 2.542 0 1.51-1.032 2.542-2.464 2.542-1.427 0-2.465-1.032-2.465-2.542 0-1.51 1.038-2.542 2.465-2.542zm12.795 4.979h-4.108v-6.322h-1.548v7.77h5.656v-1.448zm8.386 0H55.62v-6.322h-1.548v7.77h5.655v-1.448zm8.535.027h-4.257v-1.787h4.019v-1.42h-4.019v-1.721h4.213v-1.421h-5.761v7.77h5.805v-1.42zm3.253-6.349v7.77h3.202c2.431 0 4.035-1.543 4.035-3.885 0-2.342-1.604-3.885-4.035-3.885h-3.202zm3.186 1.449c1.637 0 2.43 1.01 2.43 2.436 0 1.41-.793 2.437-2.43 2.437h-1.638v-4.873h1.638zM9.733 38.03c1.79 0 2.805-.896 2.805-2.381 0-1.485-1.014-2.38-2.805-2.38H6.718v7.934h.997V38.03h2.018zm-.023-3.82c1.173 0 1.791.475 1.791 1.439 0 .963-.617 1.44-1.79 1.44H7.714v-2.88H9.71zm6.166 1.495c-.753 0-1.462.221-2.085.698l.436.691c.385-.289.896-.55 1.53-.55.98 0 1.525.488 1.548 1.48h-1.587c-1.434 0-2.216.691-2.216 1.632 0 .958.697 1.66 1.893 1.66a3 3 0 001.91-.685v.572h.929v-3.23c0-1.463-.879-2.267-2.358-2.267zm-.294 4.795c-.726 0-1.089-.39-1.089-.844 0-.448.346-.862 1.32-.862h1.492v.885c-.465.504-1.083.821-1.723.821zm7.048-4.794c-.64 0-1.202.294-1.576.821v-.708h-.912v5.384h.924v-2.998c0-.992.578-1.621 1.4-1.621.306 0 .668.074.923.21l.227-.913c-.289-.124-.6-.175-.986-.175zm4.006 0c-.754 0-1.462.22-2.086.697l.437.691c.385-.289.895-.55 1.53-.55.98 0 1.525.488 1.547 1.48h-1.587c-1.434 0-2.216.691-2.216 1.632 0 .958.697 1.66 1.893 1.66a3 3 0 001.91-.685v.572h.93v-3.23c0-1.463-.879-2.267-2.358-2.267zm-.295 4.794c-.725 0-1.088-.39-1.088-.844 0-.448.346-.862 1.32-.862h1.491v.885c-.465.504-1.082.821-1.723.821zm4.708-7.232v7.935h3.23c1.769 0 2.908-.669 2.908-2.216 0-.97-.555-1.598-1.31-1.87.675-.261 1.134-.873 1.134-1.74 0-1.525-1.218-2.109-2.89-2.109h-3.072zm3.185 4.382c1.145 0 1.904.283 1.904 1.297 0 1.032-.759 1.321-1.904 1.321h-2.188V37.65h2.188zm-.153-3.447c1.049 0 1.887.239 1.887 1.247 0 1.038-.827 1.27-1.876 1.27h-2.045v-2.517h2.034zm6.735 1.502c-.754 0-1.462.221-2.085.698l.436.691c.385-.289.895-.55 1.53-.55.98 0 1.525.488 1.548 1.48h-1.587c-1.434 0-2.216.691-2.216 1.632 0 .958.697 1.66 1.893 1.66a3 3 0 001.91-.685v.572h.93v-3.23c0-1.463-.88-2.267-2.359-2.267zm-.294 4.795c-.726 0-1.089-.39-1.089-.844 0-.448.346-.862 1.321-.862h1.49v.885c-.464.504-1.082.821-1.722.821zm8.59-4.205c-.522-.357-1.298-.584-2.148-.584-1.31 0-2.166.624-2.166 1.655 0 .816.584 1.36 1.791 1.508l.624.073c.731.091 1.082.34 1.082.737 0 .533-.544.822-1.428.822-.901 0-1.44-.26-1.842-.572l-.43.691c.708.533 1.603.691 2.267.691 1.468 0 2.386-.663 2.386-1.689 0-.89-.675-1.371-1.82-1.524l-.623-.08c-.652-.079-1.043-.277-1.043-.708 0-.487.476-.8 1.213-.8.708 0 1.394.267 1.734.5l.403-.72zm3.871-.59c-1.547 0-2.675 1.151-2.675 2.806 0 1.678 1.134 2.805 2.732 2.805.794 0 1.542-.192 2.21-.816l-.493-.635a2.526 2.526 0 01-1.66.641c-.924 0-1.7-.55-1.83-1.666H55.5c.006-.102.017-.227.017-.346-.011-1.65-1.066-2.788-2.534-2.788zm-.017.822c.873 0 1.491.612 1.604 1.565h-3.292c.141-.919.736-1.565 1.688-1.565zm12.04 2.318h-4.965v.845h4.965v-.845zm0-2.136h-4.965v.844h4.965v-.844zm9.478-3.44H70.15l-.09 4.057h1.75c1.525 0 2.058.697 2.058 1.52 0 .844-.607 1.558-1.74 1.558a2.724 2.724 0 01-2.063-.952l-.635.623c.669.822 1.576 1.241 2.703 1.241 1.497 0 2.732-.906 2.732-2.55 0-1.264-.895-2.346-2.76-2.346h-1.14l.069-2.245h3.451v-.907zm5.057-.114c-1.82 0-3.293 1.53-3.293 4.08 0 2.546 1.474 4.081 3.293 4.081 1.814 0 3.293-1.535 3.293-4.08 0-2.55-1.48-4.081-3.293-4.081zm0 .924c1.27 0 2.29 1.116 2.29 3.157 0 2.04-1.02 3.157-2.29 3.157-1.258 0-2.29-1.117-2.29-3.157s1.032-3.157 2.29-3.157zm7.827 1.627c-.85 0-1.48.328-1.899.833v-.72h-.924v7.651h.924v-2.987c.42.505 1.049.834 1.899.834 1.508 0 2.692-1.18 2.692-2.806 0-1.627-1.184-2.806-2.692-2.806zm-.108.872c1.1 0 1.848.862 1.848 1.933 0 1.071-.731 1.938-1.848 1.938-1.088 0-1.848-.833-1.848-1.938 0-1.1.76-1.933 1.848-1.933zm8.74-.76h-1.094l-1.559 1.99-1.547-1.99h-1.134l2.075 2.636-2.126 2.75h1.083l1.598-2.07 1.621 2.07h1.14l-2.132-2.761L96 35.819zm83.176-31.723h-5.478v1.399h3.691l-3.197 6.371h1.765l3.219-6.599V4.095zm5.701-.139c-1.859 0-3.346 1.51-3.346 4.024 0 2.514 1.487 4.024 3.346 4.024 1.854 0 3.353-1.51 3.353-4.024 0-2.514-1.499-4.024-3.353-4.024zm0 1.438c1 0 1.788.888 1.788 2.586s-.788 2.586-1.788 2.586c-.993 0-1.787-.888-1.787-2.586s.794-2.586 1.787-2.586zm8.16-1.438c-1.238 0-2.165.905-2.165 2.115 0 1.22.927 2.126 2.165 2.126 1.243 0 2.17-.905 2.17-2.126 0-1.21-.927-2.115-2.17-2.115zm0 1.16c.544 0 .938.4.938.955 0 .566-.394.966-.938.966-.533 0-.933-.4-.933-.966 0-.555.4-.955.933-.955zm6.238-1.021h-1.448l-5.212 7.77h1.454l5.206-7.77zm-.405 3.669c-1.238 0-2.164.921-2.164 2.12 0 1.215.926 2.12 2.164 2.12 1.243 0 2.17-.905 2.17-2.12 0-1.21-.927-2.12-2.17-2.12zm0 1.16c.544 0 .938.4.938.96 0 .56-.394.96-.938.96-.538 0-.932-.4-.932-.96 0-.56.394-.96.932-.96zm-18.629 9.865c-.977-.583-1.881-.827-2.969-.827-1.654 0-3.097.843-3.097 2.464 0 1.404.999 2.01 2.37 2.226l.494.077c1.082.172 1.648.372 1.648.91 0 .6-.666.939-1.526.939-.999 0-1.915-.389-2.475-.838l-.805 1.248c.832.672 2.098 1.016 3.274 1.016 1.671 0 3.181-.816 3.181-2.53 0-1.355-1.088-1.949-2.476-2.177l-.438-.072c-.933-.155-1.604-.327-1.604-.899 0-.588.616-.932 1.487-.932.849 0 1.593.283 2.204.66l.732-1.265zm6.837-.838c-2.393 0-4.08 1.692-4.08 4.03 0 2.336 1.687 4.028 4.08 4.028 1.42 0 2.591-.632 3.28-1.642l-1.266-.91a2.377 2.377 0 01-2.026 1.065c-1.37 0-2.447-.982-2.453-2.542 0-1.51 1.044-2.542 2.453-2.542.866 0 1.571.4 2.01 1.071l1.332-.816c-.633-1.087-1.899-1.742-3.33-1.742zm6.337.144v7.77h1.548v-3.091h.455l2.265 3.091h1.876l-2.393-3.113c1.493-.145 2.382-1.016 2.382-2.293 0-1.487-.994-2.364-2.848-2.364h-3.285zm3.258 1.426c.821 0 1.282.294 1.282.938 0 .655-.439.966-1.282.966h-1.71v-1.904h1.71zm9.637-1.57c-2.392 0-4.079 1.71-4.079 4.03 0 2.32 1.687 4.028 4.079 4.028 2.392 0 4.085-1.709 4.085-4.029s-1.693-4.03-4.085-4.03zm0 1.487c1.432 0 2.465 1.032 2.465 2.542 0 1.51-1.033 2.542-2.465 2.542-1.426 0-2.464-1.032-2.464-2.542 0-1.51 1.038-2.542 2.464-2.542zm12.795 4.979h-4.107v-6.322h-1.549v7.77h5.656v-1.448zm8.386 0h-4.107v-6.322h-1.549v7.77h5.656v-1.448zm8.536.027h-4.257v-1.787h4.018v-1.42h-4.018v-1.721h4.213v-1.421h-5.762v7.77h5.806v-1.42zm3.253-6.349v7.77h3.202c2.431 0 4.035-1.543 4.035-3.885 0-2.342-1.604-3.885-4.035-3.885h-3.202zm3.185 1.449c1.638 0 2.431 1.01 2.431 2.436 0 1.41-.793 2.437-2.431 2.437h-1.637v-4.873h1.637zM177.497 38.03c1.791 0 2.805-.896 2.805-2.381 0-1.485-1.014-2.38-2.805-2.38h-3.016v7.934h.998V38.03h2.018zm-.023-3.82c1.173 0 1.791.475 1.791 1.439 0 .963-.618 1.44-1.791 1.44h-1.995v-2.88h1.995zm6.166 1.495a3.36 3.36 0 00-2.086.698l.437.691c.385-.289.895-.55 1.53-.55.98 0 1.525.488 1.547 1.48h-1.587c-1.434 0-2.216.691-2.216 1.632 0 .958.697 1.66 1.893 1.66a3 3 0 001.91-.685v.572h.93v-3.23c0-1.463-.879-2.267-2.358-2.267zm-.295 4.795c-.725 0-1.088-.39-1.088-.844 0-.448.346-.862 1.321-.862h1.49v.885c-.465.504-1.082.821-1.723.821zm7.049-4.794c-.641 0-1.202.294-1.576.821v-.708h-.913v5.384h.924v-2.998c0-.992.578-1.621 1.4-1.621.306 0 .669.074.924.21l.227-.913c-.289-.124-.601-.175-.986-.175zm4.006 0c-.754 0-1.463.22-2.086.697l.436.691c.386-.289.896-.55 1.531-.55.98 0 1.524.488 1.547 1.48h-1.587c-1.434 0-2.216.691-2.216 1.632 0 .958.697 1.66 1.893 1.66a3 3 0 001.91-.685v.572h.929v-3.23c0-1.463-.878-2.267-2.357-2.267zm-.295 4.794c-.725 0-1.088-.39-1.088-.844 0-.448.346-.862 1.32-.862h1.491v.885c-.465.504-1.083.821-1.723.821zm4.708-7.232v7.935h3.23c1.769 0 2.908-.669 2.908-2.216 0-.97-.556-1.598-1.31-1.87.675-.261 1.134-.873 1.134-1.74 0-1.525-1.219-2.109-2.891-2.109h-3.071zm3.185 4.382c1.145 0 1.904.283 1.904 1.297 0 1.032-.759 1.321-1.904 1.321h-2.188V37.65h2.188zm-.153-3.447c1.048 0 1.887.239 1.887 1.247 0 1.038-.827 1.27-1.876 1.27h-2.046v-2.517h2.035zm6.735 1.502a3.36 3.36 0 00-2.086.698l.437.691c.385-.289.895-.55 1.53-.55.98 0 1.525.488 1.547 1.48h-1.587c-1.434 0-2.216.691-2.216 1.632 0 .958.697 1.66 1.893 1.66a3 3 0 001.91-.685v.572h.93v-3.23c0-1.463-.879-2.267-2.358-2.267zm-.295 4.795c-.725 0-1.088-.39-1.088-.844 0-.448.346-.862 1.321-.862h1.49v.885c-.465.504-1.082.821-1.723.821zm8.59-4.205c-.521-.357-1.298-.584-2.148-.584-1.309 0-2.165.624-2.165 1.655 0 .816.584 1.36 1.791 1.508l.624.073c.731.091 1.082.34 1.082.737 0 .533-.544.822-1.428.822-.901 0-1.44-.26-1.842-.572l-.431.691c.709.533 1.604.691 2.267.691 1.468 0 2.386-.663 2.386-1.689 0-.89-.674-1.371-1.819-1.524l-.623-.08c-.652-.079-1.043-.277-1.043-.708 0-.487.476-.8 1.213-.8.708 0 1.394.267 1.734.5l.402-.72zm3.872-.59c-1.547 0-2.675 1.151-2.675 2.806 0 1.678 1.133 2.805 2.732 2.805.793 0 1.541-.192 2.21-.816l-.493-.635a2.528 2.528 0 01-1.661.641c-.923 0-1.7-.55-1.83-1.666h4.234c.005-.102.017-.227.017-.346-.012-1.65-1.066-2.788-2.534-2.788zm-.017.822c.873 0 1.491.612 1.604 1.565h-3.293c.142-.919.737-1.565 1.689-1.565zm12.04 2.318h-4.965v.845h4.965v-.845zm0-2.136h-4.965v.844h4.965v-.844zm7.546-3.543l-3.231 1.372v.997l2.273-.974v6.642h.958v-8.037zm6.703.102h-4.336l-.09 4.058h1.751c1.525 0 2.057.697 2.057 1.52 0 .844-.606 1.558-1.74 1.558a2.725 2.725 0 01-2.063-.952l-.634.623c.668.822 1.575 1.241 2.703 1.241 1.496 0 2.732-.906 2.732-2.55 0-1.264-.896-2.346-2.76-2.346H243.5l.068-2.245h3.451v-.907zm4.836 2.438c-.85 0-1.479.328-1.899.833v-.72h-.924v7.651h.924v-2.987c.42.505 1.049.834 1.899.834 1.508 0 2.692-1.18 2.692-2.806 0-1.627-1.184-2.806-2.692-2.806zm-.108.872c1.1 0 1.848.862 1.848 1.933 0 1.071-.731 1.938-1.848 1.938-1.088 0-1.847-.833-1.847-1.938 0-1.1.759-1.933 1.847-1.933zm8.74-.76h-1.094l-1.559 1.99-1.547-1.99h-1.134l2.075 2.636-2.126 2.75h1.083l1.598-2.07 1.621 2.07h1.139l-2.131-2.761 2.075-2.624zm-83.886 15.888c-1.547 0-2.675 1.15-2.675 2.805 0 1.678 1.133 2.805 2.732 2.805.793 0 1.541-.192 2.21-.816l-.493-.635a2.528 2.528 0 01-1.661.641c-.923 0-1.7-.55-1.83-1.666h4.234c.005-.102.017-.227.017-.346-.012-1.65-1.066-2.788-2.534-2.788zm-.017.821c.873 0 1.491.612 1.604 1.565h-3.293c.142-.919.737-1.565 1.689-1.565zm6.785-.822c-.624 0-1.321.21-1.763.817v-.703h-.918v5.384h.924v-3.02c0-1.004.725-1.599 1.592-1.599.936 0 1.48.584 1.48 1.576v3.043h.929V53.86c0-1.292-.918-2.154-2.244-2.154zm7.727.114h-2.261v-1.69h-.93v1.69h-1.15v.844h1.15v2.641c0 1.372.697 2.012 1.865 2.012a2.71 2.71 0 001.615-.532l-.436-.697c-.306.21-.703.362-1.1.362-.583 0-1.014-.351-1.014-1.162v-2.624h2.261v-.844zm3.737-.114c-1.547 0-2.675 1.151-2.675 2.806 0 1.678 1.133 2.805 2.732 2.805.793 0 1.541-.192 2.21-.816l-.493-.635a2.53 2.53 0 01-1.661.641c-.924 0-1.7-.55-1.83-1.666h4.233c.006-.102.017-.227.017-.346-.011-1.65-1.065-2.788-2.533-2.788zm-.017.822c.873 0 1.491.612 1.604 1.565h-3.293c.142-.919.737-1.565 1.689-1.565zm6.592-.822c-.64 0-1.202.295-1.576.822v-.708h-.912v5.384h.924v-2.998c0-.992.578-1.621 1.4-1.621.306 0 .668.074.923.21l.227-.913c-.289-.124-.601-.175-.986-.175zm7.439 0c-1.547 0-2.675 1.151-2.675 2.806 0 1.678 1.134 2.805 2.732 2.805.793 0 1.541-.192 2.21-.816l-.493-.635a2.527 2.527 0 01-1.66.641c-.924 0-1.701-.55-1.831-1.666h4.234c.005-.102.017-.227.017-.346-.012-1.65-1.066-2.788-2.534-2.788zm-.017.822c.873 0 1.491.612 1.604 1.565h-3.293c.142-.919.737-1.565 1.689-1.565zm8.816-.708h-.981l-1.813 4.449-1.808-4.45h-1.009l2.267 5.39h1.088l2.256-5.39zm3.334-.114c-1.548 0-2.676 1.151-2.676 2.806 0 1.678 1.134 2.805 2.732 2.805.794 0 1.542-.192 2.211-.816l-.493-.635c-.46.397-1.032.641-1.661.641-.924 0-1.7-.55-1.831-1.666h4.234c.006-.102.017-.227.017-.346-.011-1.65-1.065-2.788-2.533-2.788zm-.017.822c.872 0 1.49.612 1.604 1.565h-3.293c.141-.919.736-1.565 1.689-1.565zm6.784-.822c-.623 0-1.32.21-1.762.817v-.703h-.918v5.384h.923v-3.02c0-1.004.726-1.599 1.593-1.599.935 0 1.479.584 1.479 1.576v3.043h.93V53.86c0-1.292-.918-2.154-2.245-2.154zm7.728.114h-2.262v-1.69h-.929v1.69h-1.151v.844h1.151v2.641c0 1.372.697 2.012 1.864 2.012.664 0 1.202-.232 1.616-.532l-.437-.697a2 2 0 01-1.099.362c-.584 0-1.015-.351-1.015-1.162v-2.624h2.262v-.844zm5.51.476c-.521-.357-1.298-.584-2.148-.584-1.309 0-2.165.624-2.165 1.655 0 .816.584 1.36 1.791 1.508l.623.073c.732.091 1.083.34 1.083.737 0 .533-.544.822-1.428.822-.901 0-1.44-.26-1.842-.572l-.431.691c.708.533 1.604.691 2.267.691 1.468 0 2.386-.663 2.386-1.689 0-.89-.674-1.371-1.819-1.524l-.624-.08c-.651-.079-1.042-.277-1.042-.708 0-.487.476-.8 1.212-.8.709 0 1.395.267 1.735.5l.402-.72zm8.058-.476h-2.069V50.9c0-.698.283-1.106.924-1.106a2.2 2.2 0 011.082.312l.335-.776a2.8 2.8 0 00-1.48-.403c-1.269 0-1.791.845-1.791 1.973v.918h-1.195v.844h1.195v4.54h.93v-4.54h2.069v-.844zm2.286 0h-.924v5.384h.924V51.82zm-.471-2.556a.647.647 0 00-.651.663c0 .368.283.646.651.646a.647.647 0 00.664-.646.657.657 0 00-.664-.663zm4.924 2.443c-.64 0-1.201.294-1.575.821v-.708h-.913v5.384h.924v-2.998c0-.992.578-1.621 1.4-1.621.306 0 .669.074.924.21l.227-.913c-.289-.124-.601-.175-.987-.175zm4.307 0c-1.547 0-2.675 1.15-2.675 2.805 0 1.678 1.133 2.805 2.732 2.805.793 0 1.541-.192 2.21-.816l-.493-.635a2.53 2.53 0 01-1.661.641c-.924 0-1.7-.55-1.83-1.666h4.233c.006-.102.017-.227.017-.346-.011-1.65-1.065-2.788-2.533-2.788zm-.017.821c.873 0 1.49.612 1.604 1.565h-3.293c.142-.919.737-1.565 1.689-1.565z" fill="#fff"/><path fill="#1E1E1E" d="M.188 164.075h140.135v86.736H.188z"/><path stroke="#B0B0B0" stroke-width="2.267" d="M5.29 166.362h129.79v111.087H5.29z"/><path fill="#B0B0B0" d="M48.93 220.074h46.194v1.696H48.93zm0 3.655h46.194v1.696H48.93zm0 3.394h46.194v1.696H48.93zm13.834 7.16h18.53v6.264h-18.53zm-13.834-29.43h46.194v10.439H48.93zm8.09-6.206h30.143v1.435H57.02z"/><path stroke="#fff" stroke-width=".567" d="M.471 77.662h139.568v86.169H.471z"/><path d="M5.834 308.896l-3.358 1.354v1.51l1.86-.755v5.783h1.498v-7.892zm6.49-.017c-1.86 0-3.347 1.51-3.347 4.024 0 2.514 1.488 4.024 3.347 4.024 1.854 0 3.352-1.51 3.352-4.024 0-2.514-1.498-4.024-3.352-4.024zm0 1.438c.999 0 1.787.888 1.787 2.586s-.788 2.586-1.787 2.586c-.994 0-1.787-.888-1.787-2.586s.793-2.586 1.787-2.586zm9.502-1.438c-1.859 0-3.346 1.51-3.346 4.024 0 2.514 1.487 4.024 3.346 4.024 1.854 0 3.353-1.51 3.353-4.024 0-2.514-1.499-4.024-3.352-4.024zm0 1.438c1 0 1.788.888 1.788 2.586s-.788 2.586-1.788 2.586c-.993 0-1.787-.888-1.787-2.586s.794-2.586 1.787-2.586zm8.16-1.438c-1.238 0-2.165.905-2.165 2.115 0 1.221.927 2.125 2.165 2.125 1.243 0 2.17-.904 2.17-2.125 0-1.21-.927-2.115-2.17-2.115zm0 1.16c.544 0 .938.4.938.955 0 .566-.394.965-.938.965-.533 0-.933-.399-.933-.965 0-.555.4-.955.933-.955zm6.238-1.021h-1.448l-5.212 7.77h1.454l5.206-7.77zm-.405 3.668c-1.238 0-2.165.922-2.165 2.121 0 1.215.927 2.12 2.165 2.12 1.243 0 2.17-.905 2.17-2.12 0-1.21-.927-2.121-2.17-2.121zm0 1.16c.544 0 .938.4.938.961 0 .56-.394.96-.938.96-.538 0-.932-.4-.932-.96 0-.561.394-.961.932-.961zm-26.744 9.866c-.977-.583-1.881-.827-2.97-.827-1.653 0-3.096.843-3.096 2.464 0 1.404.999 2.009 2.37 2.226l.494.077c1.082.172 1.648.372 1.648.91 0 .6-.666.938-1.526.938-1 0-1.915-.388-2.475-.838l-.805 1.249c.832.672 2.098 1.016 3.274 1.016 1.671 0 3.18-.816 3.18-2.531 0-1.354-1.087-1.948-2.475-2.176l-.438-.072c-.933-.155-1.604-.327-1.604-.899 0-.588.616-.932 1.487-.932.85 0 1.593.283 2.204.66l.732-1.265zm6.837-.839c-2.393 0-4.08 1.693-4.08 4.03s1.687 4.029 4.08 4.029c1.42 0 2.591-.632 3.28-1.642l-1.266-.911a2.378 2.378 0 01-2.026 1.066c-1.37 0-2.447-.982-2.453-2.542 0-1.51 1.044-2.542 2.453-2.542.866 0 1.571.4 2.01 1.071l1.332-.816c-.633-1.088-1.899-1.743-3.33-1.743zm6.336.145v7.77h1.549v-3.091h.455l2.265 3.091h1.876L26 327.674c1.494-.144 2.381-1.015 2.381-2.292 0-1.487-.993-2.364-2.847-2.364H22.25zm3.258 1.426c.822 0 1.283.294 1.283.938 0 .655-.439.966-1.283.966h-1.709v-1.904h1.71zm9.638-1.571c-2.392 0-4.08 1.71-4.08 4.03 0 2.32 1.688 4.029 4.08 4.029 2.392 0 4.085-1.709 4.085-4.029s-1.693-4.03-4.085-4.03zm0 1.488c1.432 0 2.465 1.032 2.465 2.542 0 1.51-1.033 2.542-2.465 2.542-1.426 0-2.464-1.032-2.464-2.542 0-1.51 1.038-2.542 2.464-2.542zm12.795 4.978h-4.107v-6.321h-1.549v7.77h5.656v-1.449zm8.386 0h-4.107v-6.321h-1.549v7.77h5.656v-1.449zm8.536.028h-4.257v-1.787h4.018v-1.421h-4.018v-1.72h4.213v-1.421h-5.761v7.77h5.805v-1.421zm3.253-6.349v7.77h3.202c2.431 0 4.035-1.543 4.035-3.885 0-2.342-1.604-3.885-4.035-3.885h-3.202zm3.185 1.448c1.638 0 2.431 1.011 2.431 2.437 0 1.41-.793 2.436-2.43 2.436h-1.638v-4.873H71.3zM6.33 342.953c1.792 0 2.806-.895 2.806-2.38 0-1.485-1.014-2.381-2.805-2.381H3.315v7.935h.998v-3.174H6.33zm-.022-3.82c1.173 0 1.79.476 1.79 1.44 0 .963-.617 1.439-1.79 1.439H4.313v-2.879h1.995zm6.166 1.496c-.754 0-1.462.221-2.086.697l.437.692c.385-.289.895-.55 1.53-.55.98 0 1.524.488 1.547 1.479h-1.587c-1.434 0-2.216.692-2.216 1.633 0 .958.697 1.66 1.893 1.66a3 3 0 001.91-.685v.572h.93v-3.231c0-1.462-.879-2.267-2.358-2.267zm-.295 4.795c-.725 0-1.088-.391-1.088-.844 0-.448.346-.862 1.32-.862h1.491v.884c-.465.505-1.082.822-1.723.822zm7.049-4.795c-.64 0-1.202.295-1.576.822v-.708h-.913v5.384h.924v-2.998c0-.992.578-1.621 1.4-1.621.306 0 .669.073.924.209l.227-.912c-.29-.125-.601-.176-.986-.176zm4.006 0c-.754 0-1.463.221-2.086.697l.436.692c.386-.289.896-.55 1.53-.55.981 0 1.525.488 1.548 1.479h-1.587c-1.434 0-2.216.692-2.216 1.633 0 .958.697 1.66 1.893 1.66a3 3 0 001.91-.685v.572h.93v-3.231c0-1.462-.88-2.267-2.358-2.267zm-.295 4.795c-.726 0-1.088-.391-1.088-.844 0-.448.346-.862 1.32-.862h1.49v.884c-.464.505-1.082.822-1.722.822zm4.708-7.232v7.935h3.23c1.768 0 2.908-.669 2.908-2.216 0-.969-.556-1.598-1.31-1.87.675-.261 1.134-.873 1.134-1.74 0-1.525-1.218-2.109-2.89-2.109h-3.072zm3.185 4.381c1.145 0 1.904.284 1.904 1.298 0 1.032-.76 1.321-1.904 1.321h-2.188v-2.619h2.188zm-.153-3.446c1.048 0 1.887.238 1.887 1.247 0 1.037-.827 1.27-1.876 1.27h-2.046v-2.517h2.035zm6.735 1.502c-.754 0-1.462.221-2.086.697l.437.692c.385-.289.895-.55 1.53-.55.98 0 1.525.488 1.547 1.479h-1.587c-1.434 0-2.216.692-2.216 1.633 0 .958.697 1.66 1.893 1.66a3 3 0 001.91-.685v.572h.93v-3.231c0-1.462-.879-2.267-2.358-2.267zm-.295 4.795c-.725 0-1.088-.391-1.088-.844 0-.448.346-.862 1.32-.862h1.491v.884c-.465.505-1.082.822-1.723.822zm8.59-4.205c-.521-.357-1.298-.584-2.148-.584-1.309 0-2.165.623-2.165 1.655 0 .816.584 1.36 1.791 1.508l.624.073c.73.091 1.082.34 1.082.737 0 .533-.544.822-1.428.822-.901 0-1.44-.261-1.842-.573l-.43.692c.708.533 1.603.691 2.266.691 1.468 0 2.386-.663 2.386-1.689 0-.889-.674-1.371-1.819-1.524l-.623-.08c-.652-.079-1.043-.277-1.043-.708 0-.488.476-.799 1.212-.799.709 0 1.395.266 1.735.499l.402-.72zm3.872-.59c-1.547 0-2.675 1.151-2.675 2.806 0 1.677 1.133 2.805 2.732 2.805.793 0 1.541-.192 2.21-.816l-.493-.635a2.528 2.528 0 01-1.66.641c-.924 0-1.7-.55-1.831-1.666h4.233c.006-.102.017-.227.017-.346-.01-1.65-1.065-2.789-2.533-2.789zm-.017.822c.873 0 1.49.612 1.604 1.564h-3.293c.142-.918.737-1.564 1.69-1.564zm12.04 2.318h-4.965v.845h4.965v-.845zm0-2.137h-4.965v.845h4.965v-.845zm7.97-3.553c-1.819 0-3.292 1.53-3.292 4.081 0 2.544 1.473 4.08 3.293 4.08 1.813 0 3.293-1.536 3.293-4.08 0-2.551-1.48-4.081-3.293-4.081zm0 .924c1.27 0 2.29 1.116 2.29 3.157 0 2.04-1.02 3.156-2.29 3.156-1.258 0-2.29-1.116-2.29-3.156 0-2.041 1.032-3.157 2.29-3.157zm7.827 1.626c-.85 0-1.479.329-1.898.833v-.719h-.924v7.651h.924v-2.987c.419.505 1.048.833 1.898.833 1.508 0 2.692-1.179 2.692-2.805 0-1.627-1.184-2.806-2.692-2.806zm-.108.873c1.1 0 1.848.862 1.848 1.933 0 1.071-.73 1.938-1.848 1.938-1.088 0-1.847-.833-1.847-1.938 0-1.1.76-1.933 1.847-1.933zm8.74-.759h-1.094l-1.558 1.989-1.548-1.989H80.7l2.074 2.635-2.125 2.749h1.082l1.599-2.069 1.62 2.069h1.14l-2.131-2.76 2.074-2.624zm94.324-29.577c.4-.455.838-.855 1.576-.855.716 0 1.188.483 1.188 1.16 0 .488-.227.916-.638 1.332l-2.747 2.814v1.171h5.133v-1.404H181.9l1.66-1.726c.638-.661 1.121-1.321 1.121-2.27 0-1.488-1.01-2.509-2.637-2.509-1.443 0-2.231.788-2.653 1.338l.966.949zm10.501-2.287c-1.859 0-3.347 1.51-3.347 4.024 0 2.514 1.488 4.024 3.347 4.024 1.854 0 3.352-1.51 3.352-4.024 0-2.514-1.498-4.024-3.352-4.024zm0 1.438c.999 0 1.787.888 1.787 2.586s-.788 2.586-1.787 2.586c-.994 0-1.787-.888-1.787-2.586s.793-2.586 1.787-2.586zm9.502-1.438c-1.859 0-3.346 1.51-3.346 4.024 0 2.514 1.487 4.024 3.346 4.024 1.854 0 3.353-1.51 3.353-4.024 0-2.514-1.499-4.024-3.353-4.024zm0 1.438c.999 0 1.788.888 1.788 2.586s-.789 2.586-1.788 2.586c-.993 0-1.787-.888-1.787-2.586s.794-2.586 1.787-2.586zm8.16-1.438c-1.238 0-2.165.905-2.165 2.115 0 1.221.927 2.125 2.165 2.125 1.243 0 2.17-.904 2.17-2.125 0-1.21-.927-2.115-2.17-2.115zm0 1.16c.544 0 .938.4.938.955 0 .566-.394.965-.938.965-.533 0-.933-.399-.933-.965 0-.555.4-.955.933-.955zm6.238-1.021h-1.448l-5.212 7.77h1.454l5.206-7.77zm-.405 3.668c-1.238 0-2.165.922-2.165 2.121 0 1.215.927 2.12 2.165 2.12 1.243 0 2.17-.905 2.17-2.12 0-1.21-.927-2.121-2.17-2.121zm0 1.16c.544 0 .938.4.938.961 0 .56-.394.96-.938.96-.538 0-.932-.4-.932-.96 0-.561.394-.961.932-.961zm-28.446 9.866c-.977-.583-1.881-.827-2.969-.827-1.654 0-3.097.843-3.097 2.464 0 1.404.999 2.009 2.37 2.226l.494.077c1.082.172 1.648.372 1.648.91 0 .6-.666.938-1.526.938-.999 0-1.915-.388-2.475-.838l-.805 1.249c.832.672 2.098 1.016 3.274 1.016 1.671 0 3.181-.816 3.181-2.531 0-1.354-1.088-1.948-2.476-2.176l-.438-.072c-.933-.155-1.604-.327-1.604-.899 0-.588.616-.932 1.487-.932.849 0 1.593.283 2.204.66l.732-1.265zm6.837-.839c-2.393 0-4.08 1.693-4.08 4.03s1.687 4.029 4.08 4.029c1.42 0 2.591-.632 3.28-1.642l-1.266-.911a2.378 2.378 0 01-2.026 1.066c-1.37 0-2.447-.982-2.453-2.542 0-1.51 1.044-2.542 2.453-2.542.866 0 1.571.4 2.01 1.071l1.332-.816c-.633-1.088-1.899-1.743-3.33-1.743zm6.337.145v7.77h1.548v-3.091h.455l2.265 3.091h1.876l-2.392-3.114c1.493-.144 2.381-1.015 2.381-2.292 0-1.487-.994-2.364-2.848-2.364h-3.285zm3.258 1.426c.821 0 1.282.294 1.282.938 0 .655-.439.966-1.282.966h-1.71v-1.904h1.71zm9.637-1.571c-2.392 0-4.079 1.71-4.079 4.03 0 2.32 1.687 4.029 4.079 4.029 2.392 0 4.085-1.709 4.085-4.029s-1.693-4.03-4.085-4.03zm0 1.488c1.432 0 2.465 1.032 2.465 2.542 0 1.51-1.033 2.542-2.465 2.542-1.426 0-2.464-1.032-2.464-2.542 0-1.51 1.038-2.542 2.464-2.542zm12.795 4.978h-4.107v-6.321h-1.549v7.77h5.656v-1.449zm8.386 0h-4.107v-6.321h-1.548v7.77h5.655v-1.449zm8.536.028h-4.257v-1.787h4.018v-1.421h-4.018v-1.72h4.213v-1.421h-5.761v7.77h5.805v-1.421zm3.253-6.349v7.77h3.202c2.431 0 4.035-1.543 4.035-3.885 0-2.342-1.604-3.885-4.035-3.885h-3.202zm3.185 1.448c1.638 0 2.431 1.011 2.431 2.437 0 1.41-.793 2.436-2.431 2.436h-1.637v-4.873h1.637zm-64.968 18.487c1.791 0 2.805-.895 2.805-2.38 0-1.485-1.014-2.381-2.805-2.381h-3.016v7.935h.998v-3.174h2.018zm-.023-3.82c1.173 0 1.791.476 1.791 1.44 0 .963-.618 1.439-1.791 1.439h-1.995v-2.879h1.995zm6.166 1.496c-.754 0-1.462.221-2.086.697l.437.692c.385-.289.895-.55 1.53-.55.98 0 1.525.488 1.547 1.479h-1.587c-1.434 0-2.216.692-2.216 1.633 0 .958.697 1.66 1.893 1.66a3 3 0 001.91-.685v.572h.93v-3.231c0-1.462-.879-2.267-2.358-2.267zm-.295 4.795c-.725 0-1.088-.391-1.088-.844 0-.448.346-.862 1.321-.862h1.49v.884c-.465.505-1.082.822-1.723.822zm7.049-4.795c-.641 0-1.202.295-1.576.822v-.708h-.912v5.384h.923v-2.998c0-.992.578-1.621 1.4-1.621.306 0 .669.073.924.209l.227-.912c-.289-.125-.601-.176-.986-.176zm4.006 0c-.754 0-1.463.221-2.086.697l.436.692c.386-.289.896-.55 1.531-.55.98 0 1.524.488 1.547 1.479h-1.587c-1.434 0-2.216.692-2.216 1.633 0 .958.697 1.66 1.893 1.66a3 3 0 001.91-.685v.572h.929v-3.231c0-1.462-.878-2.267-2.357-2.267zm-.295 4.795c-.725 0-1.088-.391-1.088-.844 0-.448.346-.862 1.32-.862h1.491v.884c-.465.505-1.083.822-1.723.822zm4.708-7.232v7.935h3.23c1.769 0 2.908-.669 2.908-2.216 0-.969-.556-1.598-1.31-1.87.675-.261 1.134-.873 1.134-1.74 0-1.525-1.219-2.109-2.89-2.109h-3.072zm3.185 4.381c1.145 0 1.904.284 1.904 1.298 0 1.032-.759 1.321-1.904 1.321h-2.188v-2.619h2.188zm-.153-3.446c1.048 0 1.887.238 1.887 1.247 0 1.037-.827 1.27-1.876 1.27h-2.046v-2.517h2.035zm6.735 1.502c-.754 0-1.462.221-2.086.697l.437.692c.385-.289.895-.55 1.53-.55.98 0 1.525.488 1.547 1.479h-1.587c-1.434 0-2.216.692-2.216 1.633 0 .958.697 1.66 1.893 1.66a3 3 0 001.91-.685v.572h.93v-3.231c0-1.462-.879-2.267-2.358-2.267zm-.295 4.795c-.725 0-1.088-.391-1.088-.844 0-.448.346-.862 1.321-.862h1.49v.884c-.464.505-1.082.822-1.723.822zm8.59-4.205c-.521-.357-1.298-.584-2.148-.584-1.309 0-2.165.623-2.165 1.655 0 .816.584 1.36 1.791 1.508l.624.073c.731.091 1.082.34 1.082.737 0 .533-.544.822-1.428.822-.901 0-1.44-.261-1.842-.573l-.431.692c.709.533 1.604.691 2.267.691 1.468 0 2.386-.663 2.386-1.689 0-.889-.674-1.371-1.819-1.524l-.623-.08c-.652-.079-1.043-.277-1.043-.708 0-.488.476-.799 1.213-.799.708 0 1.394.266 1.734.499l.402-.72zm3.872-.59c-1.547 0-2.675 1.151-2.675 2.806 0 1.677 1.134 2.805 2.732 2.805.793 0 1.541-.192 2.21-.816l-.493-.635a2.527 2.527 0 01-1.661.641c-.923 0-1.7-.55-1.83-1.666h4.234c.005-.102.017-.227.017-.346-.012-1.65-1.066-2.789-2.534-2.789zm-.017.822c.873 0 1.491.612 1.604 1.564h-3.293c.142-.918.737-1.564 1.689-1.564zm12.04 2.318h-4.965v.845h4.965v-.845zm0-2.137h-4.965v.845h4.965v-.845zm7.925 1.072h-3.185v.838h3.185v-.838zm6.324-4.512h-4.336l-.09 4.058h1.751c1.525 0 2.057.697 2.057 1.519 0 .845-.606 1.559-1.739 1.559a2.728 2.728 0 01-2.064-.952l-.634.623c.668.822 1.575 1.241 2.703 1.241 1.496 0 2.732-.907 2.732-2.55 0-1.264-.895-2.347-2.76-2.347h-1.139l.068-2.244h3.451v-.907zm5.057-.113c-1.819 0-3.293 1.53-3.293 4.081 0 2.544 1.474 4.08 3.293 4.08 1.814 0 3.293-1.536 3.293-4.08 0-2.551-1.479-4.081-3.293-4.081zm0 .924c1.27 0 2.29 1.116 2.29 3.157 0 2.04-1.02 3.156-2.29 3.156-1.258 0-2.29-1.116-2.29-3.156 0-2.041 1.032-3.157 2.29-3.157zm7.827 1.626c-.851 0-1.48.329-1.899.833v-.719h-.924v7.651h.924v-2.987c.419.505 1.048.833 1.899.833 1.507 0 2.692-1.179 2.692-2.805 0-1.627-1.185-2.806-2.692-2.806zm-.108.873c1.099 0 1.848.862 1.848 1.933 0 1.071-.732 1.938-1.848 1.938-1.088 0-1.848-.833-1.848-1.938 0-1.1.76-1.933 1.848-1.933zm8.739-.759h-1.093l-1.559 1.989-1.547-1.989h-1.134l2.075 2.635-2.126 2.749h1.083l1.598-2.069 1.621 2.069h1.139l-2.131-2.76 2.074-2.624z" fill="#fff"/><path fill="#1E1E1E" d="M168.002 101.73h140.135v86.736H168.002z"/><path stroke="#B0B0B0" stroke-width="2.267" d="M173.1 93.815h129.79v111.087H173.1z"/><path fill="#B0B0B0" d="M216.742 133.926h46.194v1.696h-46.194zm0 3.654h46.194v1.696h-46.194zm0 3.393h46.194v1.696h-46.194zm13.834 7.162h18.53v6.264h-18.53zm-13.834-29.432h46.194v10.439h-46.194zm8.09-6.205h30.143v1.435h-30.143z"/><path stroke="#fff" stroke-width=".567" d="M168.283 77.096h139.568v86.169H168.283z"/><path fill="#1E1E1E" d="M.188 435.438h140.135v86.736H.188z"/><path stroke="#B0B0B0" stroke-width="2.267" d="M5.29 421.855h129.79v111.087H5.29z"/><path fill="#B0B0B0" d="M48.93 479.535h46.194v1.696H48.93zm0 3.654h46.194v1.696H48.93zm0 3.394h46.194v1.696H48.93zm13.834 7.161h18.53v6.264h-18.53zM48.93 464.312h46.194v10.439H48.93zm8.09-6.205h30.143v1.435H57.02z"/><path stroke="#fff" stroke-width=".567" d="M.471 435.174h139.568v86.169H.471z"/><path d="M360.114 194.519v6.348h2.747c1.524 0 2.39-.598 2.39-1.818 0-.685-.476-1.229-1.057-1.424.531-.195.921-.707.921-1.346 0-1.211-.93-1.76-2.408-1.76h-2.593zm2.684 3.709c.698 0 1.138.164 1.138.758 0 .607-.44.77-1.138.77l-1.419-.004v-1.524h1.419zm-.127-2.593c.625 0 1.124.136 1.124.734 0 .617-.489.748-1.12.748h-1.296v-1.482h1.292zm8.128-1.234c-1.949 0-3.35 1.374-3.35 3.292 0 2.05 1.559 3.288 3.319 3.288 1.8 0 3.101-1.356 3.101-3.279 0-.118-.004-.235-.018-.358h-2.92v1.057h1.614c-.168.902-.771 1.401-1.804 1.401-1.098 0-1.982-.812-1.982-2.109 0-1.238.843-2.09 2.004-2.09.649 0 1.175.254 1.533.667l.911-.894c-.562-.612-1.401-.975-2.408-.975zm10.432.118h-1.265v6.348h1.265v-6.348zm9.811 0h-1.855l-1.646 4.285-1.65-4.285h-1.855v6.348h1.266v-4.756l1.568 4.144h1.338l1.569-4.18v4.792h1.265v-6.348zm6.19 0h-1.541l-2.472 6.348h1.32l.553-1.478h2.707l.553 1.478h1.351l-2.471-6.348zm-.784 1.252l.916 2.453h-1.837l.921-2.453zm8.189-1.37c-1.949 0-3.35 1.374-3.35 3.292 0 2.05 1.559 3.288 3.319 3.288 1.8 0 3.101-1.356 3.101-3.279 0-.118-.005-.235-.018-.358h-2.92v1.057h1.614c-.168.902-.771 1.401-1.805 1.401-1.097 0-1.981-.812-1.981-2.109 0-1.238.843-2.09 2.004-2.09.648 0 1.174.254 1.533.667l.911-.894c-.562-.612-1.401-.975-2.408-.975zm10.309 5.305h-3.477v-1.46h3.282v-1.16h-3.282v-1.406h3.441v-1.161h-4.706v6.348h4.742v-1.161zm-52.234-74.274c1.505 0 2.312-.789 2.312-2.008 0-1.229-.807-2.018-2.321-2.018h-2.589v6.348h1.265v-2.322h1.333zm-.032-2.861c.689 0 1.047.286 1.047.853 0 .571-.358.852-1.047.852h-1.301v-1.705h1.301zm7.618-1.165h-1.541l-2.472 6.348h1.32l.553-1.478h2.707l.553 1.478h1.351l-2.471-6.348zm-.784 1.252l.916 2.452h-1.837l.921-2.452zm8.189-1.37c-1.949 0-3.35 1.374-3.35 3.292 0 2.049 1.559 3.287 3.319 3.287 1.8 0 3.101-1.355 3.101-3.278 0-.118-.005-.236-.018-.358h-2.92v1.056h1.614c-.168.903-.771 1.401-1.805 1.401-1.097 0-1.981-.811-1.981-2.108 0-1.238.843-2.09 2.004-2.09.649 0 1.174.254 1.533.666l.911-.893c-.562-.612-1.401-.975-2.408-.975zm10.309 5.305h-3.477v-1.46h3.282v-1.161h-3.282v-1.405h3.441v-1.161h-4.706v6.348h4.742v-1.161zm11.001 0h-3.478v-1.46h3.283v-1.161h-3.283v-1.405h3.442v-1.161h-4.707v6.348h4.743v-1.161zm7.277-.023h-3.355v-5.164h-1.265v6.348h4.62v-1.184zm6.974.023h-3.478v-1.46h3.283v-1.161h-3.283v-1.405h3.441v-1.161h-4.706v6.348h4.743v-1.161zm9.662-5.187h-1.854l-1.646 4.285-1.651-4.285h-1.854v6.348h1.265v-4.756l1.569 4.144h1.337l1.569-4.181v4.793h1.265v-6.348zm7.546 5.187h-3.478v-1.46h3.283v-1.161h-3.283v-1.405h3.442v-1.161h-4.707v6.348h4.743v-1.161zm8.334-5.187h-1.269v4.24l-3.224-4.24h-1.184v6.348h1.265l.005-4.24 3.219 4.24h1.188v-6.348zm7.428 0h-5.2v1.184h1.968v5.164h1.265v-5.164h1.967v-1.184zm7.088.567c-.798-.476-1.537-.676-2.426-.676-1.351 0-2.53.689-2.53 2.013 0 1.148.816 1.642 1.936 1.819l.404.063c.884.141 1.347.304 1.347.744 0 .489-.545.766-1.247.766-.816 0-1.565-.317-2.023-.685l-.657 1.021c.68.548 1.714.829 2.675.829 1.365 0 2.598-.666 2.598-2.067 0-1.107-.888-1.592-2.022-1.778l-.358-.059c-.762-.127-1.311-.267-1.311-.734 0-.481.504-.762 1.216-.762.693 0 1.301.231 1.8.54l.598-1.034zm-87.211-41.641h-1.315l-1.827 5.065-1.818-5.065h-1.347l2.385 6.348h1.537l2.385-6.348zm3.444 0h-1.265v6.348h1.265v-6.348zm7.548 5.187h-3.478v-1.46h3.283v-1.16h-3.283v-1.406h3.442v-1.161h-4.707v6.348h4.743v-1.161zm11.667-5.187h-1.293l-1.364 4.87-1.42-4.87h-1.401l-1.419 4.87-1.365-4.87h-1.314l1.895 6.348h1.532l1.361-4.535 1.36 4.535h1.532l1.896-6.348zm8.344 4.026c1.505 0 2.312-.789 2.312-2.008 0-1.23-.807-2.018-2.321-2.018h-2.589v6.348h1.265v-2.322h1.333zm-.032-2.86c.689 0 1.047.285 1.047.852 0 .57-.358.852-1.047.852h-1.301v-1.705h1.301zm7.818-1.284c-1.954 0-3.332 1.397-3.332 3.292 0 1.895 1.378 3.292 3.332 3.292s3.337-1.397 3.337-3.292c0-1.895-1.383-3.292-3.337-3.292zm0 1.215c1.17 0 2.013.843 2.013 2.077 0 1.233-.843 2.076-2.013 2.076-1.165 0-2.013-.843-2.013-2.076 0-1.234.848-2.077 2.013-2.077zm5.832-1.097v6.348h1.265v-2.526h.372l1.85 2.526h1.533l-1.954-2.544c1.219-.118 1.945-.83 1.945-1.873 0-1.215-.812-1.931-2.326-1.931h-2.685zm2.662 1.165c.671 0 1.047.24 1.047.766 0 .535-.358.79-1.047.79h-1.397v-1.556h1.397zm9.469-1.165h-5.2v1.183h1.968v5.165h1.265v-5.165h1.967v-1.183zm8.143-.222c-1.583.616-2.662 2.126-2.662 3.994 0 1.868 1.079 3.378 2.662 3.995l.376-1.057c-1.174-.553-1.791-1.668-1.791-2.938 0-1.27.617-2.385 1.791-2.938l-.376-1.056zm11.8.222h-1.292l-1.365 4.87-1.419-4.87h-1.401l-1.42 4.87-1.364-4.87h-1.315l1.895 6.348h1.532l1.361-4.535 1.36 4.535h1.533l1.895-6.348zm3.499 0h-1.265v6.348h1.265v-2.612h3.056v2.612h1.265v-6.348h-1.265v2.557h-3.056v-2.557zm10.513 0h-1.541l-2.471 6.348h1.319l.553-1.478h2.707l.553 1.478h1.352l-2.472-6.348zm-.784 1.251l.916 2.453h-1.836l.92-2.453zm9.502-1.251h-5.201v1.183h1.968v5.165h1.265v-5.165h1.968v-1.183zm-103.841 11h-1.265v6.348h1.265v-6.348zm7.711.567c-.798-.476-1.537-.676-2.426-.676-1.351 0-2.53.69-2.53 2.013 0 1.147.816 1.642 1.936 1.818l.404.064c.884.14 1.346.304 1.346.744 0 .49-.544.766-1.246.766-.817 0-1.565-.318-2.023-.685l-.657 1.02c.68.549 1.714.83 2.675.83 1.365 0 2.598-.667 2.598-2.068 0-1.106-.889-1.591-2.022-1.777l-.358-.059c-.762-.127-1.311-.267-1.311-.734 0-.481.504-.762 1.215-.762.694 0 1.302.231 1.8.54l.599-1.034zm11.767-.567h-1.315l-1.827 5.065-1.818-5.065h-1.347l2.385 6.348h1.537l2.385-6.348zm3.444 0h-1.265v6.348h1.265v-6.348zm7.711.567c-.798-.476-1.537-.676-2.426-.676-1.351 0-2.53.69-2.53 2.013 0 1.147.817 1.642 1.937 1.818l.403.064c.884.14 1.347.304 1.347.744 0 .49-.544.766-1.247.766-.816 0-1.564-.318-2.022-.685l-.658 1.02c.68.549 1.714.83 2.675.83 1.365 0 2.598-.667 2.598-2.068 0-1.106-.888-1.591-2.022-1.777l-.358-.059c-.762-.127-1.31-.267-1.31-.734 0-.481.503-.762 1.215-.762.693 0 1.301.231 1.8.54l.598-1.034zm3.857-.567h-1.265v6.348h1.265v-6.348zm2.805 0v6.348h2.747c1.524 0 2.39-.599 2.39-1.819 0-.684-.476-1.228-1.057-1.423.531-.195.921-.708.921-1.347 0-1.21-.93-1.76-2.408-1.76h-2.593zm2.684 3.709c.698 0 1.138.163 1.138.757 0 .608-.44.77-1.138.77l-1.419-.004v-1.523h1.419zm-.127-2.594c.626 0 1.124.136 1.124.735 0 .617-.489.748-1.119.748h-1.297v-1.483h1.292zm9.702 4.05h-3.355v-5.165h-1.265v6.348h4.62v-1.184zm6.973.022h-3.477v-1.46h3.282v-1.16h-3.282v-1.406h3.441v-1.161h-4.706v6.348h4.742v-1.161zm10.759-5.187h-5.201v1.183h1.968v5.165h1.265v-5.165h1.968v-1.183zm5.069-.118c-1.954 0-3.333 1.397-3.333 3.292 0 1.895 1.379 3.292 3.333 3.292 1.954 0 3.337-1.397 3.337-3.292 0-1.895-1.383-3.292-3.337-3.292zm0 1.215c1.17 0 2.013.843 2.013 2.077 0 1.233-.843 2.076-2.013 2.076-1.165 0-2.013-.843-2.013-2.076 0-1.234.848-2.077 2.013-2.077zm13.934-1.097h-5.201v1.183h1.968v5.165h1.265v-5.165h1.968v-1.183zm3.491 0h-1.265v6.348h1.265v-2.612h3.056v2.612h1.265v-6.348h-1.265v2.557h-3.056v-2.557zm11.869 5.187h-3.478v-1.46h3.283v-1.16h-3.283v-1.406h3.442v-1.161h-4.707v6.348h4.743v-1.161zm-97.518 5.813h-1.27v3.75c0 1.042-.589 1.5-1.465 1.5-.875 0-1.464-.458-1.464-1.5v-3.75h-1.27v3.813c0 1.755 1.12 2.648 2.734 2.648 1.615 0 2.735-.893 2.735-2.648v-3.813zm7.636.567c-.798-.476-1.537-.676-2.426-.676-1.351 0-2.53.689-2.53 2.013 0 1.147.816 1.642 1.936 1.818l.404.064c.884.14 1.346.304 1.346.743 0 .49-.544.767-1.247.767-.816 0-1.564-.318-2.022-.685l-.657 1.02c.68.549 1.714.83 2.675.83 1.365 0 2.598-.666 2.598-2.068 0-1.106-.889-1.591-2.022-1.777l-.358-.059c-.762-.127-1.311-.267-1.311-.734 0-.481.503-.762 1.215-.762.694 0 1.302.231 1.8.539l.599-1.033zm7.334 4.62h-3.478v-1.46h3.283v-1.161h-3.283v-1.405h3.442v-1.161h-4.707v6.348h4.743v-1.161zm2.657-5.187v6.348h1.265v-2.526h.372l1.85 2.526h1.532l-1.954-2.544c1.22-.118 1.945-.83 1.945-1.873 0-1.215-.811-1.931-2.326-1.931h-2.684zm2.662 1.165c.671 0 1.047.24 1.047.766 0 .535-.358.789-1.047.789h-1.397v-1.555h1.397zm-23.403 71.811c1.505 0 2.312-.789 2.312-2.008 0-1.229-.807-2.018-2.321-2.018h-2.589v6.348h1.265v-2.322h1.333zm-.032-2.861c.689 0 1.047.286 1.047.853 0 .571-.358.852-1.047.852h-1.301v-1.705h1.301zm7.618-1.165h-1.541l-2.472 6.348h1.32l.553-1.478h2.707l.553 1.478h1.351l-2.471-6.348zm-.784 1.251l.916 2.453h-1.837l.921-2.453zm8.189-1.369c-1.949 0-3.35 1.374-3.35 3.292 0 2.049 1.559 3.287 3.319 3.287 1.8 0 3.101-1.355 3.101-3.278 0-.118-.005-.236-.018-.358h-2.92v1.056h1.614c-.168.903-.771 1.401-1.805 1.401-1.097 0-1.981-.811-1.981-2.108 0-1.238.843-2.09 2.004-2.09.649 0 1.174.254 1.533.666l.911-.893c-.562-.612-1.401-.975-2.408-.975zm10.309 5.305h-3.477v-1.46h3.282v-1.161h-3.282v-1.405h3.441v-1.161h-4.706v6.348h4.742v-1.161zm11.164-4.62c-.798-.476-1.537-.676-2.426-.676-1.351 0-2.53.689-2.53 2.013 0 1.148.816 1.642 1.936 1.819l.404.063c.884.141 1.347.304 1.347.744 0 .489-.544.766-1.247.766-.816 0-1.565-.317-2.023-.685l-.657 1.02c.68.549 1.714.83 2.675.83 1.365 0 2.598-.666 2.598-2.067 0-1.107-.888-1.592-2.022-1.778l-.358-.059c-.762-.127-1.311-.267-1.311-.734 0-.481.504-.762 1.216-.762.693 0 1.301.231 1.8.54l.598-1.034zm7.334 4.62h-3.477v-1.46h3.282v-1.161h-3.282v-1.405h3.441v-1.161h-4.706v6.348h4.742v-1.161zm5.642-5.305c-1.954 0-3.333 1.383-3.333 3.292 0 1.909 1.379 3.292 3.333 3.292 1.161 0 2.117-.517 2.68-1.342l-1.034-.744a1.943 1.943 0 01-1.655.871c-1.12 0-2-.803-2.004-2.077 0-1.233.852-2.077 2.004-2.077.707 0 1.283.327 1.641.875l1.088-.666c-.516-.889-1.55-1.424-2.72-1.424zm9.89.118h-5.2v1.183h1.967v5.165h1.265v-5.165h1.968v-1.183zm3.491 0h-1.265v6.348h1.265v-6.348zm5.834-.118c-1.954 0-3.332 1.397-3.332 3.292 0 1.895 1.378 3.292 3.332 3.292s3.337-1.397 3.337-3.292c0-1.895-1.383-3.292-3.337-3.292zm0 1.215c1.17 0 2.013.844 2.013 2.077s-.843 2.077-2.013 2.077c-1.165 0-2.013-.844-2.013-2.077s.848-2.077 2.013-2.077zm11.509-1.097h-1.269v4.24l-3.224-4.24h-1.184v6.348h1.265l.005-4.24 3.219 4.24h1.188v-6.348z" fill="#fff"/><path d="M351.969 198.668h-44.727m44.727-73.113h-70.932m70.935-41.807h-40.103m40.099 91.683h-39.075" stroke="#fff" stroke-width=".567"/><path fill="#1E1E1E" d="M167.902 354.713h140.53v81.298h-140.53z"/><path d="M173.065 359.735h130.067v112.044H173.065V359.735z" stroke="#B0B0B0" stroke-width="2.247"/><path fill="#B0B0B0" d="M214.605 390.779h46.983v1.598h-46.983zm0 3.426h46.983v1.597h-46.983zm0 3.18h46.983v1.598h-46.983zm14.073 6.715h18.846v5.87h-18.846zm-14.073-27.588h46.983v9.785h-46.983zm8.229-5.817h30.659v1.352h-30.659z"/><path stroke="#fff" stroke-width=".562" d="M168.183 435.211h139.968v86.527H168.183z"/></svg>