<svg width="282" height="273" viewBox="0 0 282 273" fill="none" xmlns="http://www.w3.org/2000/svg"><path d="M23.832.483a.436.436 0 00-.617 0l-2.773 2.773a.436.436 0 10.616.616l2.465-2.465 2.465 2.465a.436.436 0 10.617-.616L23.832.483zm-.617 223.658c.17.17.446.17.617 0l2.773-2.773a.435.435 0 10-.617-.616l-2.465 2.465-2.465-2.465a.436.436 0 00-.616.616l2.773 2.773zM23.088.791v223.042h.871V.791h-.871zm258.027 230.007a.436.436 0 000-.616l-2.773-2.773a.437.437 0 00-.617.616l2.465 2.465-2.465 2.465a.436.436 0 10.617.616l2.773-2.773zm-255.84-.616a.436.436 0 000 .616l2.773 2.773a.435.435 0 10.616-.616l-2.465-2.465 2.465-2.465a.435.435 0 10-.617-.616l-2.773 2.773zm255.532-.128H25.583v.872h255.224v-.872z" fill="#52FFE0"/><circle cx="38.817" cy="222.301" r="3.151" fill="#fff"/><path d="M39.146 222.3c40.042 0 32.875-214.303 236.901-217.38" stroke="#fff" stroke-width="2.614"/><path d="M2.747 119.791v5.161H3.92v-1.953h5.126v-1.255H3.92v-1.953H2.747zm0-3.465v1.256h6.3v-1.256h-6.3zm0-9.736v1.84l4.252 1.634-4.252 1.638v1.84h6.3v-1.255h-4.72l4.112-1.557v-1.328l-4.149-1.557h4.757v-1.255h-6.3zm5.148-7.49v3.452h-1.45v-3.258h-1.15v3.258H3.899v-3.416H2.747v4.671h6.3V99.1H7.895zm118.441 146.442c1.494 0 2.295-.783 2.295-1.994 0-1.219-.801-2.002-2.304-2.002h-2.57v6.3h1.256v-2.304h1.323zm-.032-2.84c.684 0 1.04.284 1.04.846 0 .567-.356.846-1.04.846h-1.291v-1.692h1.291zm4.745-1.156v6.3h1.255v-2.507h.369l1.836 2.507h1.521l-1.939-2.525c1.21-.117 1.93-.823 1.93-1.858 0-1.206-.805-1.917-2.308-1.917h-2.664zm2.641 1.156c.666 0 1.04.239 1.04.761 0 .531-.356.783-1.04.783h-1.386v-1.544h1.386zm7.814-1.273c-1.939 0-3.307 1.386-3.307 3.267s1.368 3.267 3.307 3.267c1.94 0 3.312-1.386 3.312-3.267s-1.372-3.267-3.312-3.267zm0 1.206c1.161 0 1.998.837 1.998 2.061s-.837 2.061-1.998 2.061c-1.156 0-1.998-.837-1.998-2.061s.842-2.061 1.998-2.061zm8.812-1.206c-1.935 0-3.325 1.363-3.325 3.267 0 2.034 1.548 3.262 3.294 3.262 1.786 0 3.078-1.345 3.078-3.253 0-.117-.005-.234-.018-.356h-2.898v1.049h1.602c-.167.895-.765 1.39-1.791 1.39-1.089 0-1.967-.805-1.967-2.092 0-1.229.837-2.075 1.989-2.075.644 0 1.166.252 1.521.662l.905-.887c-.558-.607-1.391-.967-2.39-.967zm5.525.117v6.3h1.255v-2.507h.369l1.836 2.507h1.521l-1.939-2.525c1.21-.117 1.93-.823 1.93-1.858 0-1.206-.805-1.917-2.308-1.917h-2.664zm2.641 1.156c.666 0 1.04.239 1.04.761 0 .531-.356.783-1.04.783h-1.386v-1.544h1.386zm9.533 3.992h-3.452v-1.449h3.258v-1.152h-3.258v-1.395h3.416v-1.152h-4.671v6.3h4.707v-1.152zm7.488-4.586c-.792-.472-1.525-.67-2.407-.67-1.341 0-2.511.684-2.511 1.998 0 1.138.81 1.629 1.921 1.804l.401.063c.877.14 1.336.302 1.336.738 0 .486-.54.761-1.237.761-.81 0-1.553-.315-2.007-.68l-.653 1.013c.675.544 1.701.823 2.655.823 1.355 0 2.579-.661 2.579-2.052 0-1.098-.882-1.579-2.007-1.764l-.356-.058c-.756-.126-1.3-.266-1.3-.729 0-.477.499-.756 1.206-.756.688 0 1.291.229 1.786.535l.594-1.026zm7.336 0c-.792-.472-1.526-.67-2.408-.67-1.341 0-2.511.684-2.511 1.998 0 1.138.81 1.629 1.922 1.804l.4.063c.878.14 1.337.302 1.337.738 0 .486-.54.761-1.238.761-.81 0-1.552-.315-2.007-.68l-.652 1.013c.675.544 1.701.823 2.655.823 1.354 0 2.578-.661 2.578-2.052 0-1.098-.882-1.579-2.007-1.764l-.355-.058c-.756-.126-1.301-.266-1.301-.729 0-.477.5-.756 1.206-.756.689 0 1.292.229 1.787.535l.594-1.026zM82.544 263.567c-1.57.612-2.642 2.111-2.642 3.965 0 1.854 1.071 3.352 2.642 3.964l.373-1.048c-1.165-.549-1.777-1.656-1.777-2.916s.612-2.367 1.777-2.916l-.373-1.049zm4.889.108c-1.508 0-2.714 1.224-2.714 3.263 0 2.038 1.206 3.262 2.714 3.262 1.502 0 2.717-1.224 2.717-3.262 0-2.039-1.215-3.263-2.718-3.263zm0 1.166c.81 0 1.448.72 1.448 2.097s-.638 2.097-1.448 2.097c-.806 0-1.45-.72-1.45-2.097s.644-2.097 1.45-2.097zm5.69 3.613a.892.892 0 00-.877.869c0 .472.41.877.877.877a.892.892 0 00.869-.877.887.887 0 00-.869-.869zm5.077-4.765l-2.722 1.098v1.224l1.507-.612v4.689H98.2v-6.399zm6.567.099h-3.623l-.067 3.487h1.498c.986 0 1.283.414 1.283.887 0 .499-.347.913-1.049.913-.58 0-1.197-.292-1.539-.666l-.684.851c.522.589 1.292.94 2.232.94 1.274 0 2.3-.774 2.3-2.128 0-1.053-.738-1.895-2.205-1.895h-.725l.027-1.26h2.552v-1.129zm2.795 4.878l-.302 2.682h.99l.63-2.682h-1.318zm9.82-4.991c-1.507 0-2.713 1.224-2.713 3.263 0 2.038 1.206 3.262 2.713 3.262 1.503 0 2.718-1.224 2.718-3.262 0-2.039-1.215-3.263-2.718-3.263zm0 1.166c.81 0 1.449.72 1.449 2.097s-.639 2.097-1.449 2.097c-.805 0-1.449-.72-1.449-2.097s.644-2.097 1.449-2.097zm5.119 3.825l-.301 2.682h.99l.63-2.682h-1.319zm9.821-4.991c-1.508 0-2.714 1.224-2.714 3.263 0 2.038 1.206 3.262 2.714 3.262 1.503 0 2.718-1.224 2.718-3.262 0-2.039-1.215-3.263-2.718-3.263zm0 1.166c.81 0 1.449.72 1.449 2.097s-.639 2.097-1.449 2.097c-.806 0-1.449-.72-1.449-2.097s.643-2.097 1.449-2.097zm5.69 3.613a.892.892 0 00-.877.869c0 .472.409.877.877.877a.892.892 0 00.869-.877.887.887 0 00-.869-.869zm5.077-4.765l-2.722 1.098v1.224l1.507-.612v4.689h1.215v-6.399zm6.567.099h-3.622l-.068 3.487h1.499c.985 0 1.282.414 1.282.887 0 .499-.346.913-1.048.913-.581 0-1.197-.292-1.539-.666l-.684.851c.522.589 1.291.94 2.232.94 1.273 0 2.299-.774 2.299-2.128 0-1.053-.738-1.895-2.205-1.895h-.724l.027-1.26h2.551v-1.129zm2.795 4.878l-.302 2.682h.99l.63-2.682h-1.318zm9.6-4.977l-2.723 1.098v1.224l1.508-.612v4.689h1.215v-6.399zm2.746 7.803c1.571-.612 2.642-2.111 2.642-3.965 0-1.854-1.071-3.352-2.642-3.964l-.373 1.048c1.165.549 1.777 1.656 1.777 2.916s-.612 2.367-1.777 2.916l.373 1.049zm10.237-7.704h-1.174v7.492h1.174v-7.492zm4.532 0h-1.175v7.492h1.175v-7.492zm9.064-.221c-1.571.612-2.642 2.111-2.642 3.965 0 1.854 1.071 3.352 2.642 3.964l.373-1.048c-1.165-.549-1.777-1.656-1.777-2.916s.612-2.367 1.777-2.916l-.373-1.049zm4.923.122l-2.723 1.098v1.224l1.508-.612v4.689h1.215v-6.399zm6.567.099h-3.623l-.067 3.487h1.498c.986 0 1.283.414 1.283.887 0 .499-.347.913-1.049.913-.58 0-1.197-.292-1.539-.666l-.684.851c.522.589 1.292.94 2.232.94 1.274 0 2.3-.774 2.3-2.128 0-1.053-.738-1.895-2.205-1.895h-.725l.027-1.26h2.552v-1.129zm2.794 4.878l-.301 2.682h.99l.63-2.682h-1.319zm9.501-4.991c-1.273 0-2.308.675-2.308 1.809 0 .725.414 1.175.958 1.427-.621.243-1.111.693-1.111 1.462 0 1.148 1.107 1.827 2.461 1.827 1.355 0 2.462-.679 2.462-1.827 0-.769-.495-1.219-1.116-1.462.544-.252.963-.702.963-1.427 0-1.134-1.035-1.809-2.309-1.809zm0 3.731c.626 0 1.152.301 1.152.864 0 .553-.526.846-1.152.846-.63 0-1.152-.293-1.152-.846 0-.563.522-.864 1.152-.864zm0-2.633c.563 0 1.017.284 1.017.806 0 .54-.454.828-1.017.828-.562 0-1.017-.288-1.017-.828 0-.522.455-.806 1.017-.806zm8.688-.985h-3.623l-.067 3.487h1.498c.986 0 1.283.414 1.283.887 0 .499-.347.913-1.049.913-.58 0-1.197-.292-1.539-.666l-.684.851c.522.589 1.292.94 2.232.94 1.274 0 2.3-.774 2.3-2.128 0-1.053-.738-1.895-2.205-1.895h-.725l.027-1.26h2.552v-1.129zm2.741 7.704c1.57-.612 2.641-2.111 2.641-3.965 0-1.854-1.071-3.352-2.641-3.964l-.374 1.048c1.166.549 1.778 1.656 1.778 2.916s-.612 2.367-1.778 2.916l.374 1.049z" fill="#fff"/><circle cx="276.176" cy="4.887" r="3.151" fill="#fff"/></svg>