<svg width="450" height="381" viewBox="0 0 450 381" fill="none" xmlns="http://www.w3.org/2000/svg"><path opacity=".3" d="M20.219 41.182h409.53m-409.53 62.597h409.53m-409.53 62.596h409.53m-409.53 61.536h409.53m-409.53 62.597h409.53m-409.53 62.596h409.53" stroke="#fff" stroke-width=".524" stroke-dasharray="5.24 5.24"/><path stroke="#fff" stroke-width=".855" d="M.49 1.293h448.991v378.968H.49z"/><path stroke="#fff" stroke-width=".855" d="M226.885 181.646h184.663v5.957H226.885zm0 14.673h184.663v5.957H226.885zm0 13.626h184.663v5.957H226.885zm55.55 30.396h73.562v24.3h-73.562zm-55.55-124.728h184.663v41.07H226.885zm32.492-31.443H379.58v4.909H259.377z"/><path d="M36.502 62.53h-3.797v-5.845h-1.432v7.185h5.23v-1.34zm7.893.026H40.46v-1.652h3.716V59.59H40.46V58h3.895v-1.315h-5.327v7.185h5.368v-1.314zm9.418-5.87h-1.488l-2.068 5.732-2.058-5.733h-1.524l2.699 7.185h1.74l2.7-7.185zm7.835 5.87H57.71v-1.652h3.716V59.59H57.71V58h3.895v-1.315H56.28v7.185h5.369v-1.314zm8.237-.025h-3.798v-5.846h-1.432v7.185h5.23v-1.34zM80.6 56.685h-4.131l-.077 3.978H78.1c1.123 0 1.462.472 1.462 1.01 0 .57-.395 1.042-1.196 1.042-.662 0-1.365-.333-1.755-.76l-.78.97c.596.673 1.473 1.073 2.546 1.073 1.452 0 2.622-.882 2.622-2.427 0-1.2-.841-2.16-2.515-2.16h-.826l.031-1.438h2.91v-1.288zM35.897 75.268h-4.591v.781h4.59v-.78zm0-1.976h-4.591v.781h4.59v-.78zm7.48 1.221c1.656 0 2.594-.828 2.594-2.2 0-1.374-.938-2.202-2.594-2.202H40.59v7.337h.922v-2.934h1.866zm-.02-3.532c1.084 0 1.655.44 1.655 1.331s-.571 1.332-1.656 1.332h-1.845V70.98h1.845zm5.7 1.384a3.11 3.11 0 00-1.928.644l.404.64c.356-.267.828-.509 1.415-.509.906 0 1.41.451 1.43 1.368h-1.467c-1.326 0-2.05.64-2.05 1.51 0 .885.645 1.535 1.751 1.535.729 0 1.357-.288 1.766-.634v.53h.86V74.46c0-1.352-.813-2.096-2.18-2.096zm-.272 4.433c-.67 0-1.006-.361-1.006-.78 0-.415.32-.797 1.221-.797h1.378v.817c-.43.467-1 .76-1.593.76zm6.517-4.433a1.75 1.75 0 00-1.456.76v-.655h-.844v4.978h.854v-2.772c0-.917.535-1.499 1.294-1.499.283 0 .619.068.855.194l.21-.844c-.268-.115-.556-.162-.913-.162zm3.705 0a3.11 3.11 0 00-1.929.644l.404.64c.356-.267.828-.509 1.415-.509.906 0 1.41.451 1.43 1.368H58.86c-1.326 0-2.05.64-2.05 1.51 0 .885.645 1.535 1.751 1.535a2.77 2.77 0 001.766-.634v.53h.86V74.46c0-1.352-.813-2.096-2.18-2.096zm-.273 4.433c-.67 0-1.006-.361-1.006-.78 0-.415.32-.797 1.221-.797h1.378v.817c-.43.467-1 .76-1.593.76zm4.353-6.687v7.337h2.987c1.635 0 2.689-.618 2.689-2.049 0-.896-.514-1.478-1.21-1.73.623-.24 1.047-.806 1.047-1.608 0-1.41-1.126-1.95-2.672-1.95h-2.84zm2.945 4.051c1.059 0 1.761.262 1.761 1.2 0 .954-.702 1.222-1.76 1.222h-2.024v-2.422h2.023zm-.141-3.186c.97 0 1.745.22 1.745 1.153 0 .959-.765 1.174-1.735 1.174H64.01v-2.327h1.882zm6.227 1.389a3.11 3.11 0 00-1.928.644l.404.64c.356-.267.828-.509 1.414-.509.907 0 1.41.451 1.431 1.368h-1.467c-1.326 0-2.05.64-2.05 1.51 0 .885.645 1.535 1.751 1.535.728 0 1.357-.288 1.766-.634v.53h.86V74.46c0-1.352-.813-2.096-2.18-2.096zm-.272 4.433c-.67 0-1.006-.361-1.006-.78 0-.415.32-.797 1.22-.797h1.38v.817c-.43.467-1.002.76-1.594.76zm7.943-3.888c-.482-.33-1.2-.54-1.987-.54-1.21 0-2.001.576-2.001 1.53 0 .755.54 1.258 1.656 1.394l.576.069c.676.083 1.001.314 1.001.68 0 .493-.503.76-1.32.76-.834 0-1.332-.24-1.704-.529l-.398.64c.655.492 1.483.64 2.096.64 1.358 0 2.207-.614 2.207-1.563 0-.822-.624-1.268-1.683-1.41l-.576-.073c-.603-.073-.965-.257-.965-.655 0-.45.44-.739 1.122-.739.655 0 1.29.246 1.604.461l.372-.665zm3.58-.545c-1.43 0-2.474 1.064-2.474 2.594 0 1.551 1.048 2.594 2.526 2.594.734 0 1.426-.178 2.044-.755l-.456-.587a2.338 2.338 0 01-1.535.593c-.855 0-1.573-.509-1.693-1.541h3.915c.005-.094.015-.21.015-.32-.01-1.525-.985-2.578-2.342-2.578zm-.016.76c.807 0 1.378.566 1.483 1.446h-3.045c.131-.849.682-1.446 1.562-1.446zm10.814-.655h-1.012l-1.44 1.84-1.431-1.84h-1.049l1.918 2.436-1.965 2.542h1.001l1.478-1.913 1.499 1.913h1.053l-1.97-2.552 1.918-2.426zm6.323-2.453l-2.987 1.268v.923l2.102-.902v6.142h.885v-7.431zm2.462 6.1a.732.732 0 00-.718.713c0 .388.336.723.718.723a.733.733 0 00.713-.723.727.727 0 00-.713-.713zm6.027-3.05h-.886v2.028h-2.327l2.683-4.973h-1.006l-2.741 5.13v.682h3.391v1.514h.886v-1.514h1.221v-.839h-1.221v-2.028zM34.063 84.938c-1.704.671-2.851 2.432-2.851 4.534 0 2.101 1.147 3.862 2.85 4.528l.305-.787c-1.384-.581-2.238-2.075-2.238-3.741 0-1.667.854-3.16 2.238-3.742l-.304-.792zm4.874 2.532h-1.912v-.85c0-.644.261-1.021.854-1.021.367 0 .739.13 1 .288l.31-.718a2.587 2.587 0 00-1.368-.372c-1.174 0-1.656.78-1.656 1.824v.849h-1.106v.78h1.106v4.198h.86v-4.197h1.912v-.781zm2.884-.105a3.11 3.11 0 00-1.928.644l.403.64c.356-.267.828-.509 1.415-.509.907 0 1.41.451 1.43 1.368h-1.467c-1.326 0-2.049.64-2.049 1.51 0 .885.645 1.535 1.75 1.535.729 0 1.358-.288 1.767-.634v.53h.86V89.46c0-1.352-.813-2.096-2.181-2.096zm-.273 4.433c-.67 0-1.006-.361-1.006-.78 0-.415.32-.797 1.221-.797h1.379v.817c-.43.467-1.001.76-1.594.76zm7.943-3.888c-.482-.33-1.2-.54-1.986-.54-1.21 0-2.002.576-2.002 1.53 0 .755.54 1.258 1.656 1.394l.577.069c.676.083 1 .314 1 .68 0 .493-.502.76-1.32.76-.833 0-1.331-.24-1.703-.529l-.398.64c.655.492 1.483.64 2.096.64 1.357 0 2.206-.614 2.206-1.563 0-.822-.624-1.268-1.682-1.41l-.577-.073c-.602-.073-.964-.257-.964-.655 0-.45.44-.739 1.122-.739.655 0 1.289.246 1.603.461l.372-.665zm4.864-.44h-2.09v-1.562h-.86v1.562H50.34v.78h1.064v2.443c0 1.268.644 1.86 1.724 1.86.613 0 1.111-.215 1.494-.493l-.404-.644c-.283.194-.65.335-1.017.335-.54 0-.938-.325-.938-1.074V88.25h2.091v-.78zm3.456-.105c-1.431 0-2.474 1.064-2.474 2.594 0 1.551 1.048 2.594 2.526 2.594.734 0 1.425-.178 2.044-.755l-.456-.587a2.338 2.338 0 01-1.536.593c-.854 0-1.572-.509-1.692-1.541h3.914c.005-.094.016-.21.016-.32-.01-1.525-.985-2.578-2.343-2.578zm-.016.76c.807 0 1.378.566 1.483 1.446h-3.045c.131-.849.681-1.446 1.562-1.446zm7.52-.215c-.482-.33-1.2-.54-1.986-.54-1.21 0-2.002.576-2.002 1.53 0 .755.54 1.258 1.657 1.394l.576.069c.676.083 1 .314 1 .68 0 .493-.502.76-1.32.76-.833 0-1.33-.24-1.703-.529l-.398.64c.655.492 1.483.64 2.096.64 1.357 0 2.206-.614 2.206-1.563 0-.822-.623-1.268-1.682-1.41l-.576-.073c-.603-.073-.965-.257-.965-.655 0-.45.44-.739 1.122-.739.655 0 1.289.246 1.603.461l.373-.665zm4.865-.44h-2.091v-1.562h-.86v1.562h-1.064v.78h1.064v2.443c0 1.268.645 1.86 1.724 1.86.613 0 1.111-.215 1.494-.493l-.404-.644c-.283.194-.65.335-1.016.335-.54 0-.938-.325-.938-1.074V88.25h2.09v-.78zm8.586-3.092h-.943l-4.45 9.118h.944l4.449-9.118zm5.818 2.987c-1.54 0-2.583 1.116-2.583 2.594 0 1.478 1.043 2.594 2.583 2.594.74 0 1.4-.272 1.85-.78l-.529-.593c-.346.335-.812.571-1.342.571-.959 0-1.687-.75-1.687-1.792 0-1.043.728-1.787 1.687-1.787.53 0 .954.204 1.321.56l.55-.581c-.445-.514-1.11-.786-1.85-.786zm4.022-2.463h-.854v7.546h.854v-7.546zm4.07 2.463c-1.509 0-2.63 1.116-2.63 2.594 0 1.478 1.121 2.594 2.63 2.594 1.51 0 2.637-1.116 2.637-2.594 0-1.478-1.127-2.594-2.636-2.594zm0 .807c.996 0 1.756.744 1.756 1.787s-.76 1.792-1.755 1.792c-1.001 0-1.756-.75-1.756-1.792 0-1.043.755-1.787 1.756-1.787zm7.799-.262c-.482-.33-1.2-.54-1.986-.54-1.21 0-2.002.576-2.002 1.53 0 .755.54 1.258 1.656 1.394l.576.069c.676.083 1.001.314 1.001.68 0 .493-.503.76-1.32.76-.834 0-1.332-.24-1.704-.529l-.398.64c.655.492 1.483.64 2.096.64 1.358 0 2.207-.614 2.207-1.563 0-.822-.624-1.268-1.683-1.41l-.576-.073c-.603-.073-.964-.257-.964-.655 0-.45.44-.739 1.121-.739.655 0 1.29.246 1.604.461l.372-.665zm3.58-.545c-1.431 0-2.474 1.064-2.474 2.594 0 1.551 1.049 2.594 2.526 2.594.734 0 1.426-.178 2.044-.755l-.456-.587a2.336 2.336 0 01-1.535.593c-.854 0-1.572-.509-1.693-1.541h3.915c.005-.094.016-.21.016-.32-.011-1.525-.986-2.578-2.343-2.578zm-.016.76c.807 0 1.379.566 1.483 1.446h-3.044c.131-.849.681-1.446 1.561-1.446zm7.521-.215c-.482-.33-1.2-.54-1.986-.54-1.211 0-2.002.576-2.002 1.53 0 .755.54 1.258 1.656 1.394l.576.069c.677.083 1.001.314 1.001.68 0 .493-.503.76-1.32.76-.833 0-1.331-.24-1.703-.529l-.399.64c.655.492 1.483.64 2.097.64 1.357 0 2.206-.614 2.206-1.563 0-.822-.624-1.268-1.682-1.41l-.577-.073c-.603-.073-.964-.257-.964-.655 0-.45.44-.739 1.121-.739.655 0 1.29.246 1.604.461l.372-.665zm4.864-.44h-2.091v-1.562h-.859v1.562h-1.064v.78h1.064v2.443c0 1.268.644 1.86 1.724 1.86.613 0 1.111-.215 1.493-.493l-.403-.644c-.283.194-.65.335-1.017.335-.54 0-.938-.325-.938-1.074V88.25h2.091v-.78zm1.186 6.524c1.703-.67 2.851-2.431 2.851-4.533 0-2.101-1.148-3.862-2.851-4.528l-.304.786c1.383.582 2.238 2.076 2.238 3.742 0 1.667-.855 3.16-2.238 3.742l.304.791zm-81.108 30.377h-3.797v-5.846h-1.432v7.185h5.23v-1.339zm7.893.025H40.46v-1.652h3.716v-1.314H40.46v-1.591h3.895v-1.314h-5.327v7.185h5.368v-1.314zm9.418-5.871h-1.488l-2.068 5.733-2.058-5.733h-1.524l2.699 7.185h1.74l2.7-7.185zm7.835 5.871H57.71v-1.652h3.716v-1.314H57.71v-1.591h3.895v-1.314H56.28v7.185h5.369v-1.314zm8.237-.025h-3.798v-5.846h-1.432v7.185h5.23v-1.339zm10.386-3.182h-1.385v1.914h-1.53l2.402-4.573h-1.54l-2.52 4.86v1.006h3.188v1.314h1.385v-1.314h1.001v-1.293h-1v-1.914zm-44.374 15.92h-4.591v.781h4.59v-.781zm0-1.976h-4.591v.781h4.59v-.781zm7.48 1.221c1.656 0 2.594-.828 2.594-2.201 0-1.373-.938-2.201-2.594-2.201H40.59v7.337h.922v-2.935h1.866zm-.02-3.532c1.084 0 1.655.44 1.655 1.331s-.571 1.331-1.656 1.331h-1.845v-2.662h1.845zm5.7 1.384a3.11 3.11 0 00-1.928.644l.404.64c.356-.268.828-.509 1.415-.509.906 0 1.41.451 1.43 1.368h-1.467c-1.326 0-2.05.639-2.05 1.509 0 .886.645 1.536 1.751 1.536.729 0 1.357-.288 1.766-.634v.529h.86v-2.987c0-1.352-.813-2.096-2.18-2.096zm-.272 4.433c-.67 0-1.006-.361-1.006-.781 0-.414.32-.796 1.221-.796h1.378v.817c-.43.467-1 .76-1.593.76zm6.517-4.433a1.75 1.75 0 00-1.456.76v-.656h-.844v4.979h.854v-2.772c0-.917.535-1.499 1.294-1.499.283 0 .619.068.855.194l.21-.844c-.268-.115-.556-.162-.913-.162zm3.705 0a3.11 3.11 0 00-1.929.644l.404.64c.356-.268.828-.509 1.415-.509.906 0 1.41.451 1.43 1.368H58.86c-1.326 0-2.05.639-2.05 1.509 0 .886.645 1.536 1.751 1.536a2.77 2.77 0 001.766-.634v.529h.86v-2.987c0-1.352-.813-2.096-2.18-2.096zm-.273 4.433c-.67 0-1.006-.361-1.006-.781 0-.414.32-.796 1.221-.796h1.378v.817c-.43.467-1 .76-1.593.76zm4.353-6.687v7.337h2.987c1.635 0 2.689-.618 2.689-2.049 0-.896-.514-1.478-1.21-1.729.623-.242 1.047-.807 1.047-1.609 0-1.41-1.126-1.95-2.672-1.95h-2.84zm2.945 4.051c1.059 0 1.761.262 1.761 1.2 0 .954-.702 1.221-1.76 1.221h-2.024v-2.421h2.023zm-.141-3.186c.97 0 1.745.22 1.745 1.153 0 .959-.765 1.174-1.735 1.174H64.01v-2.327h1.882zm6.227 1.389a3.11 3.11 0 00-1.928.644l.404.64c.356-.268.828-.509 1.414-.509.907 0 1.41.451 1.431 1.368h-1.467c-1.326 0-2.05.639-2.05 1.509 0 .886.645 1.536 1.751 1.536.728 0 1.357-.288 1.766-.634v.529h.86v-2.987c0-1.352-.813-2.096-2.18-2.096zm-.272 4.433c-.67 0-1.006-.361-1.006-.781 0-.414.32-.796 1.22-.796h1.38v.817c-.43.467-1.002.76-1.594.76zm7.943-3.888c-.482-.33-1.2-.54-1.987-.54-1.21 0-2.001.576-2.001 1.53 0 .755.54 1.258 1.656 1.394l.576.068c.676.084 1.001.315 1.001.682 0 .492-.503.759-1.32.759-.834 0-1.332-.241-1.704-.529l-.398.64c.655.492 1.483.639 2.096.639 1.358 0 2.207-.613 2.207-1.562 0-.823-.624-1.268-1.683-1.41l-.576-.073c-.603-.073-.965-.257-.965-.655 0-.451.44-.739 1.122-.739.655 0 1.29.246 1.604.461l.372-.665zm3.58-.545c-1.43 0-2.474 1.063-2.474 2.594 0 1.551 1.048 2.594 2.526 2.594.734 0 1.426-.178 2.044-.755l-.456-.587a2.337 2.337 0 01-1.535.592c-.855 0-1.573-.508-1.693-1.54h3.915c.005-.095.015-.21.015-.32-.01-1.525-.985-2.578-2.342-2.578zm-.016.76c.807 0 1.378.566 1.483 1.446h-3.045c.131-.849.682-1.446 1.562-1.446zm10.814-.656h-1.012l-1.44 1.84-1.431-1.84h-1.049l1.918 2.437-1.965 2.542h1.001l1.478-1.913 1.499 1.913h1.053l-1.97-2.552 1.918-2.427zm6.323-2.452l-2.987 1.268v.922l2.102-.901v6.142h.885v-7.431zm2.462 6.1a.732.732 0 00-.718.713c0 .387.336.723.718.723a.733.733 0 00.713-.723.727.727 0 00-.713-.713zm2.455-4.371c.351-.471.786-.891 1.604-.891.927 0 1.462.624 1.462 1.442 0 .602-.294 1.095-.734 1.556l-2.746 2.898v.697h4.638v-.844h-3.323l2.107-2.237c.472-.498.985-1.153.985-2.065 0-1.316-.869-2.296-2.368-2.296-1.269 0-1.918.713-2.264 1.221l.639.519zm-71.344 13.192c-1.704.671-2.851 2.432-2.851 4.533 0 2.102 1.147 3.863 2.85 4.528l.305-.786c-1.384-.582-2.238-2.075-2.238-3.742 0-1.666.854-3.16 2.238-3.741l-.304-.792zm4.874 2.531h-1.912v-.849c0-.644.261-1.021.854-1.021.367 0 .739.131 1 .288l.31-.718a2.586 2.586 0 00-1.368-.372c-1.174 0-1.656.781-1.656 1.823v.849h-1.106v.781h1.106v4.198h.86v-4.198h1.912v-.781zm2.884-.104a3.11 3.11 0 00-1.928.644l.403.64c.356-.268.828-.509 1.415-.509.907 0 1.41.451 1.43 1.368h-1.467c-1.326 0-2.049.639-2.049 1.509 0 .886.645 1.536 1.75 1.536.729 0 1.358-.288 1.767-.634v.529h.86v-2.987c0-1.352-.813-2.096-2.181-2.096zm-.273 4.433c-.67 0-1.006-.361-1.006-.781 0-.414.32-.796 1.221-.796h1.379v.817c-.43.467-1.001.76-1.594.76zm7.943-3.888c-.482-.33-1.2-.54-1.986-.54-1.21 0-2.002.576-2.002 1.53 0 .755.54 1.258 1.656 1.394l.577.068c.676.084 1 .315 1 .682 0 .492-.502.759-1.32.759-.833 0-1.331-.241-1.703-.529l-.398.64c.655.492 1.483.639 2.096.639 1.357 0 2.206-.613 2.206-1.562 0-.823-.624-1.268-1.682-1.41l-.577-.073c-.602-.073-.964-.257-.964-.655 0-.451.44-.739 1.122-.739.655 0 1.289.246 1.603.461l.372-.665zm4.864-.441h-2.09v-1.561h-.86v1.561H50.34v.781h1.064v2.442c0 1.269.644 1.861 1.724 1.861.613 0 1.111-.215 1.494-.493l-.404-.644c-.283.194-.65.335-1.017.335-.54 0-.938-.325-.938-1.074v-2.427h2.091v-.781zm3.456-.104c-1.431 0-2.474 1.063-2.474 2.594 0 1.551 1.048 2.594 2.526 2.594.734 0 1.425-.178 2.044-.755l-.456-.587a2.337 2.337 0 01-1.536.592c-.854 0-1.572-.508-1.692-1.54h3.914c.005-.095.016-.21.016-.32-.01-1.525-.985-2.578-2.343-2.578zm-.016.76c.807 0 1.378.566 1.483 1.446h-3.045c.131-.849.681-1.446 1.562-1.446zm6.095-.76a1.75 1.75 0 00-1.457.76v-.656h-.843v4.979h.854v-2.772c0-.917.534-1.499 1.294-1.499.283 0 .618.068.854.194l.21-.844c-.267-.115-.556-.162-.912-.162zm9.195-2.988h-.943l-4.45 9.119h.944l4.45-9.119zm5.819 2.988c-1.541 0-2.584 1.116-2.584 2.594 0 1.478 1.043 2.594 2.584 2.594.739 0 1.399-.273 1.85-.781l-.53-.592c-.346.335-.812.571-1.341.571-.96 0-1.688-.749-1.688-1.792 0-1.043.729-1.787 1.688-1.787.529 0 .953.204 1.32.56l.55-.581c-.445-.514-1.11-.786-1.85-.786zm4.021-2.463h-.854v7.546h.854v-7.546zm4.07 2.463c-1.508 0-2.63 1.116-2.63 2.594 0 1.478 1.122 2.594 2.63 2.594 1.51 0 2.637-1.116 2.637-2.594 0-1.478-1.127-2.594-2.636-2.594zm0 .807c.997 0 1.756.744 1.756 1.787s-.76 1.792-1.755 1.792c-1.001 0-1.756-.749-1.756-1.792 0-1.043.755-1.787 1.756-1.787zm7.8-.262c-.483-.33-1.201-.54-1.987-.54-1.21 0-2.002.576-2.002 1.53 0 .755.54 1.258 1.656 1.394l.576.068c.677.084 1.002.315 1.002.682 0 .492-.504.759-1.321.759-.833 0-1.331-.241-1.703-.529l-.399.64c.655.492 1.483.639 2.097.639 1.357 0 2.206-.613 2.206-1.562 0-.823-.624-1.268-1.682-1.41l-.577-.073c-.603-.073-.964-.257-.964-.655 0-.451.44-.739 1.121-.739.656 0 1.29.246 1.604.461l.372-.665zm3.58-.545c-1.431 0-2.474 1.063-2.474 2.594 0 1.551 1.048 2.594 2.526 2.594.733 0 1.425-.178 2.043-.755l-.455-.587a2.34 2.34 0 01-1.536.592c-.854 0-1.572-.508-1.693-1.54h3.915c.005-.095.016-.21.016-.32-.011-1.525-.985-2.578-2.343-2.578zm-.016.76c.807 0 1.378.566 1.483 1.446h-3.045c.13-.849.681-1.446 1.562-1.446zm6.095-.76a1.75 1.75 0 00-1.457.76v-.656h-.844v4.979h.854v-2.772c0-.917.535-1.499 1.295-1.499.283 0 .618.068.854.194l.21-.844c-.268-.115-.556-.162-.912-.162zm1.753 6.629c1.704-.671 2.851-2.432 2.851-4.533 0-2.102-1.147-3.862-2.851-4.528l-.304.786c1.384.582 2.238 2.075 2.238 3.742 0 1.666-.854 3.16-2.238 3.742l.304.791zm-69.705 30.376h-3.797v-5.845h-1.432v7.185h5.23v-1.34zm7.893.026H40.46v-1.653h3.716v-1.313H40.46v-1.591h3.895v-1.314h-5.327v7.185h5.368v-1.314zm9.418-5.871h-1.488l-2.068 5.732-2.058-5.732h-1.524l2.699 7.185h1.74l2.7-7.185zm7.835 5.871H57.71v-1.653h3.716v-1.313H57.71v-1.591h3.895v-1.314H56.28v7.185h5.369v-1.314zm8.237-.026h-3.798v-5.845h-1.432v7.185h5.23v-1.34zm8.323-5.973c-1.144 0-1.924.477-2.396 1.113l.872.878a1.806 1.806 0 011.453-.729c.667 0 1.19.318 1.19.898 0 .606-.56.914-1.257.914h-.842v1.231h.837c.775 0 1.406.324 1.406.94 0 .631-.56.934-1.258.934a2.27 2.27 0 01-1.631-.688l-.827.908c.544.657 1.432 1.042 2.51 1.042 1.36 0 2.648-.682 2.648-2.099 0-.775-.477-1.35-1.232-1.647.667-.313 1.073-.873 1.073-1.632 0-1.242-1.032-2.063-2.546-2.063zm-42.311 18.711h-4.591v.781h4.59v-.781zm0-1.976h-4.591v.781h4.59v-.781zm7.48 1.221c1.656 0 2.594-.828 2.594-2.201 0-1.373-.938-2.201-2.594-2.201H40.59v7.337h.922v-2.935h1.866zm-.02-3.532c1.084 0 1.655.44 1.655 1.331s-.571 1.331-1.656 1.331h-1.845v-2.662h1.845zm5.7 1.383a3.11 3.11 0 00-1.928.645l.404.639c.356-.267.828-.508 1.415-.508.906 0 1.41.451 1.43 1.368h-1.467c-1.326 0-2.05.639-2.05 1.509 0 .886.645 1.536 1.751 1.536a2.78 2.78 0 001.766-.634v.529h.86v-2.987c0-1.352-.813-2.097-2.18-2.097zm-.272 4.434c-.67 0-1.006-.362-1.006-.781 0-.414.32-.796 1.221-.796h1.378v.817c-.43.467-1 .76-1.593.76zm6.517-4.434a1.75 1.75 0 00-1.456.76v-.655h-.844v4.979h.854v-2.772c0-.918.535-1.499 1.294-1.499.283 0 .619.068.855.194l.21-.844c-.268-.115-.556-.163-.913-.163zm3.705 0c-.697 0-1.352.205-1.929.645l.404.639c.356-.267.828-.508 1.415-.508.906 0 1.41.451 1.43 1.368H58.86c-1.326 0-2.05.639-2.05 1.509 0 .886.645 1.536 1.751 1.536a2.78 2.78 0 001.766-.634v.529h.86v-2.987c0-1.352-.813-2.097-2.18-2.097zm-.273 4.434c-.67 0-1.006-.362-1.006-.781 0-.414.32-.796 1.221-.796h1.378v.817c-.43.467-1 .76-1.593.76zm4.353-6.687v7.337h2.987c1.635 0 2.689-.618 2.689-2.049 0-.896-.514-1.478-1.21-1.73.623-.241 1.047-.807 1.047-1.608 0-1.41-1.126-1.95-2.672-1.95h-2.84zm2.945 4.051c1.059 0 1.761.262 1.761 1.2 0 .954-.702 1.221-1.76 1.221h-2.024v-2.421h2.023zm-.141-3.186c.97 0 1.745.22 1.745 1.153 0 .959-.765 1.174-1.735 1.174H64.01v-2.327h1.882zm6.227 1.388c-.697 0-1.352.205-1.928.645l.404.639c.356-.267.828-.508 1.414-.508.907 0 1.41.451 1.431 1.368h-1.467c-1.326 0-2.05.639-2.05 1.509 0 .886.645 1.536 1.751 1.536a2.78 2.78 0 001.766-.634v.529h.86v-2.987c0-1.352-.813-2.097-2.18-2.097zm-.272 4.434c-.67 0-1.006-.362-1.006-.781 0-.414.32-.796 1.22-.796h1.38v.817c-.43.467-1.002.76-1.594.76zm7.943-3.888c-.482-.331-1.2-.54-1.987-.54-1.21 0-2.001.576-2.001 1.53 0 .755.54 1.258 1.656 1.394l.576.068c.676.084 1.001.315 1.001.681 0 .493-.503.76-1.32.76-.834 0-1.332-.241-1.704-.529l-.398.639c.655.493 1.483.64 2.096.64 1.358 0 2.207-.613 2.207-1.562 0-.823-.624-1.268-1.683-1.41l-.576-.073c-.603-.073-.965-.257-.965-.655 0-.451.44-.739 1.122-.739.655 0 1.29.246 1.604.461l.372-.665zm3.58-.546c-1.43 0-2.474 1.064-2.474 2.595 0 1.551 1.048 2.594 2.526 2.594.734 0 1.426-.178 2.044-.755l-.456-.587a2.337 2.337 0 01-1.535.592c-.855 0-1.573-.508-1.693-1.54h3.915c.005-.095.015-.21.015-.32-.01-1.525-.985-2.579-2.342-2.579zm-.016.76c.807 0 1.378.566 1.483 1.447h-3.045c.131-.849.682-1.447 1.562-1.447zm-49.29 11.814c-1.704.671-2.851 2.432-2.851 4.533 0 2.102 1.147 3.863 2.85 4.528l.305-.786c-1.384-.582-2.238-2.075-2.238-3.742 0-1.666.854-3.16 2.238-3.742l-.304-.791zm3.323 2.426c-1.4 0-2.49 1.091-2.49 2.595 0 1.504 1.09 2.594 2.49 2.594.78 0 1.362-.304 1.755-.771v.666h.86v-7.547h-.86v3.239c-.393-.472-.974-.776-1.755-.776zm.1.808c1.005 0 1.708.77 1.708 1.787 0 1.022-.703 1.792-1.709 1.792-1.022 0-1.713-.802-1.713-1.792 0-.991.676-1.787 1.713-1.787zm6.425-.808c-1.431 0-2.474 1.064-2.474 2.595 0 1.551 1.048 2.594 2.526 2.594.734 0 1.425-.178 2.044-.755l-.456-.587a2.337 2.337 0 01-1.536.592c-.854 0-1.572-.508-1.692-1.54h3.914c.006-.095.016-.21.016-.32-.01-1.525-.985-2.579-2.343-2.579zm-.016.76c.807 0 1.378.566 1.483 1.447h-3.045c.131-.849.681-1.447 1.562-1.447zm6.987-.655H48.97v-.849c0-.644.262-1.022.855-1.022.367 0 .739.131 1 .289l.31-.718a2.586 2.586 0 00-1.368-.372c-1.174 0-1.656.78-1.656 1.823v.849h-1.106v.781h1.106v4.198h.86v-4.198h1.912v-.781zm2.884-.105c-.697 0-1.352.205-1.929.645l.404.639c.356-.267.828-.508 1.415-.508.907 0 1.41.451 1.43 1.368H53.62c-1.326 0-2.049.639-2.049 1.509 0 .886.645 1.536 1.75 1.536a2.78 2.78 0 001.767-.634v.529h.86v-2.987c0-1.352-.813-2.097-2.181-2.097zm-.273 4.434c-.67 0-1.006-.362-1.006-.781 0-.414.32-.796 1.221-.796h1.379v.817c-.43.467-1.001.76-1.594.76zm8.708-4.329h-.86v2.815c0 1.016-.602 1.467-1.409 1.467-.812 0-1.415-.451-1.415-1.467v-2.815h-.86v2.893c0 1.504 1.075 2.191 2.275 2.191 1.19 0 2.27-.687 2.27-2.191v-2.893zm2.617-2.568h-.854v7.547h.854v-7.547zm5.198 2.568h-2.091v-1.561h-.86v1.561h-1.064v.781h1.064v2.442c0 1.269.645 1.861 1.725 1.861.613 0 1.11-.215 1.493-.493l-.403-.644c-.283.193-.65.335-1.017.335-.54 0-.938-.325-.938-1.074v-2.427h2.09v-.781zm1.185 6.525c1.704-.671 2.851-2.432 2.851-4.533 0-2.102-1.147-3.863-2.85-4.528l-.304.786c1.383.582 2.237 2.075 2.237 3.742 0 1.666-.854 3.16-2.237 3.742l.303.791zm-34.699 30.376h-3.797v-5.845h-1.432v7.185h5.23v-1.34zm7.893.026H40.46v-1.653h3.716v-1.313H40.46v-1.591h3.895v-1.314h-5.327v7.185h5.368v-1.314zm9.418-5.871h-1.488l-2.068 5.732-2.058-5.732h-1.524l2.699 7.185h1.74l2.7-7.185zm7.835 5.871H57.71v-1.653h3.716v-1.313H57.71v-1.591h3.895v-1.314H56.28v7.185h5.369v-1.314zm8.237-.026h-3.798v-5.845h-1.432v7.185h5.23v-1.34zm6.84-3.859c.37-.421.775-.79 1.458-.79.662 0 1.098.446 1.098 1.072 0 .452-.21.847-.59 1.232l-2.54 2.602v1.083h4.746v-1.299h-2.745l1.534-1.596c.59-.611 1.037-1.221 1.037-2.099 0-1.375-.934-2.319-2.438-2.319-1.334 0-2.063.728-2.453 1.236l.893.878zm-40.828 16.596h-4.591v.781h4.59v-.781zm0-1.976h-4.591v.781h4.59v-.781zm7.48 1.221c1.656 0 2.594-.828 2.594-2.201 0-1.373-.938-2.201-2.594-2.201H40.59v7.337h.922v-2.935h1.866zm-.02-3.532c1.084 0 1.655.44 1.655 1.331s-.571 1.331-1.656 1.331h-1.845v-2.662h1.845zm5.7 1.383a3.11 3.11 0 00-1.928.645l.404.639c.356-.267.828-.508 1.415-.508.906 0 1.41.451 1.43 1.368h-1.467c-1.326 0-2.05.639-2.05 1.509 0 .886.645 1.536 1.751 1.536.729 0 1.357-.289 1.766-.635v.53h.86v-2.987c0-1.352-.813-2.097-2.18-2.097zm-.272 4.434c-.67 0-1.006-.362-1.006-.781 0-.414.32-.796 1.221-.796h1.378v.817c-.43.466-1 .76-1.593.76zm6.517-4.434a1.75 1.75 0 00-1.456.76v-.655h-.844v4.979h.854v-2.773c0-.917.535-1.498 1.294-1.498.283 0 .619.068.855.194l.21-.844c-.268-.115-.556-.163-.913-.163zm3.705 0c-.697 0-1.352.205-1.929.645l.404.639c.356-.267.828-.508 1.415-.508.906 0 1.41.451 1.43 1.368H58.86c-1.326 0-2.05.639-2.05 1.509 0 .886.645 1.536 1.751 1.536.729 0 1.358-.289 1.766-.635v.53h.86v-2.987c0-1.352-.813-2.097-2.18-2.097zm-.273 4.434c-.67 0-1.006-.362-1.006-.781 0-.414.32-.796 1.221-.796h1.378v.817c-.43.466-1 .76-1.593.76zm4.353-6.687v7.337h2.987c1.635 0 2.689-.619 2.689-2.049 0-.896-.514-1.478-1.21-1.73.623-.241 1.047-.807 1.047-1.609 0-1.409-1.126-1.949-2.672-1.949h-2.84zm2.945 4.051c1.059 0 1.761.262 1.761 1.2 0 .954-.702 1.221-1.76 1.221h-2.024v-2.421h2.023zm-.141-3.186c.97 0 1.745.22 1.745 1.153 0 .959-.765 1.173-1.735 1.173H64.01v-2.326h1.882zm6.227 1.388c-.697 0-1.352.205-1.928.645l.404.639c.356-.267.828-.508 1.414-.508.907 0 1.41.451 1.431 1.368h-1.467c-1.326 0-2.05.639-2.05 1.509 0 .886.645 1.536 1.751 1.536.728 0 1.357-.289 1.766-.635v.53h.86v-2.987c0-1.352-.813-2.097-2.18-2.097zm-.272 4.434c-.67 0-1.006-.362-1.006-.781 0-.414.32-.796 1.22-.796h1.38v.817c-.43.466-1.002.76-1.594.76zm7.943-3.889c-.482-.33-1.2-.539-1.987-.539-1.21 0-2.001.576-2.001 1.53 0 .755.54 1.258 1.656 1.394l.576.068c.676.084 1.001.314 1.001.681 0 .493-.503.76-1.32.76-.834 0-1.332-.241-1.704-.529l-.398.639c.655.493 1.483.64 2.096.64 1.358 0 2.207-.614 2.207-1.562 0-.823-.624-1.268-1.683-1.41l-.576-.073c-.603-.074-.965-.257-.965-.655 0-.451.44-.739 1.122-.739.655 0 1.29.246 1.604.461l.372-.666zm3.58-.545c-1.43 0-2.474 1.064-2.474 2.594 0 1.552 1.048 2.595 2.526 2.595.734 0 1.426-.179 2.044-.755l-.456-.587a2.337 2.337 0 01-1.535.592c-.855 0-1.573-.508-1.693-1.541h3.915c.005-.094.015-.209.015-.319-.01-1.525-.985-2.579-2.342-2.579zm-.016.76c.807 0 1.378.566 1.483 1.447h-3.045c.131-.849.682-1.447 1.562-1.447zm11.012-3.747h-.943l-4.45 9.119h.944l4.449-9.119zm6.033.64l-2.987 1.268v.922l2.102-.901v6.142h.885v-7.431zm2.462 6.1a.732.732 0 00-.718.712c0 .388.336.724.718.724a.734.734 0 00.713-.724.727.727 0 00-.713-.712zm2.455-4.371c.351-.472.786-.891 1.604-.891.927 0 1.462.624 1.462 1.441 0 .603-.294 1.096-.734 1.557l-2.746 2.898v.697h4.638v-.844h-3.323l2.107-2.238c.472-.498.985-1.153.985-2.065 0-1.315-.87-2.295-2.368-2.295-1.269 0-1.918.713-2.264 1.221l.639.519zm-71.252 13.192c-1.704.671-2.851 2.432-2.851 4.533 0 2.102 1.147 3.862 2.85 4.528l.305-.786c-1.384-.582-2.238-2.075-2.238-3.742 0-1.666.854-3.16 2.238-3.742l-.304-.791zm5.254 2.971c-.482-.33-1.2-.539-1.986-.539-1.21 0-2.002.576-2.002 1.53 0 .755.54 1.258 1.656 1.394l.577.068c.675.084 1 .314 1 .681 0 .493-.503.76-1.32.76-.834 0-1.331-.241-1.703-.529l-.399.639c.655.493 1.483.64 2.096.64 1.358 0 2.207-.614 2.207-1.562 0-.823-.624-1.268-1.682-1.41l-.577-.073c-.602-.074-.964-.257-.964-.655 0-.451.44-.739 1.121-.739.655 0 1.29.246 1.604.461l.372-.666zm2.338-3.008h-.854v7.547h.854v-7.547zm4.07 2.463c-1.508 0-2.63 1.117-2.63 2.594 0 1.478 1.122 2.595 2.63 2.595 1.51 0 2.637-1.117 2.637-2.595 0-1.477-1.127-2.594-2.636-2.594zm0 .807c.997 0 1.756.745 1.756 1.787 0 1.043-.76 1.793-1.755 1.793-1.001 0-1.756-.75-1.756-1.793 0-1.042.755-1.787 1.756-1.787zm8.072-.702h-.97l-1.42 4.072-1.41-4.072h-.916l1.792 4.979h1.006l1.42-4.051 1.426 4.051h1.022l1.792-4.979h-.896l-1.415 4.083-1.43-4.083zm6.961-.105c-1.43 0-2.473 1.064-2.473 2.594 0 1.552 1.048 2.595 2.526 2.595.733 0 1.425-.179 2.044-.755l-.456-.587a2.337 2.337 0 01-1.536.592c-.854 0-1.572-.508-1.693-1.541h3.915c.005-.094.016-.209.016-.319-.01-1.525-.985-2.579-2.343-2.579zm-.015.76c.807 0 1.378.566 1.483 1.447H59.18c.13-.849.681-1.447 1.562-1.447zm6.095-.76c-.592 0-1.111.273-1.457.76v-.655h-.844v4.979h.854v-2.773c0-.917.535-1.498 1.295-1.498.283 0 .618.068.854.194l.21-.844c-.267-.115-.556-.163-.912-.163zm9.195-2.987h-.943l-4.45 9.119h.944l4.449-9.119zm6.774 3.092h-1.913v-.849c0-.644.262-1.022.855-1.022.366 0 .739.131 1 .288l.31-.717a2.586 2.586 0 00-1.368-.373c-1.174 0-1.656.781-1.656 1.824v.849h-1.106v.781h1.106v4.198h.86v-4.198h1.912v-.781zm5.659 0h-.86v2.814c0 1.017-.602 1.468-1.41 1.468-.811 0-1.414-.451-1.414-1.468v-2.814h-.86v2.893c0 1.504 1.075 2.191 2.275 2.191 1.19 0 2.269-.687 2.269-2.191v-2.893zm4.063-.105a1.75 1.75 0 00-1.456.76v-.655h-.844v4.979h.854v-2.773c0-.917.535-1.498 1.294-1.498.283 0 .619.068.855.194l.21-.844c-.268-.115-.556-.163-.913-.163zm5.573.105h-2.09v-1.562h-.86v1.562h-1.064v.781h1.064v2.442c0 1.268.644 1.861 1.724 1.861.613 0 1.111-.215 1.494-.493l-.404-.645c-.283.194-.65.336-1.017.336-.54 0-.938-.325-.938-1.075v-2.426h2.091v-.781zm2.224-2.568h-.854v7.547h.854v-2.793c0-.928.671-1.478 1.472-1.478.865 0 1.368.539 1.368 1.457v2.814h.86v-3.092c0-1.195-.849-1.992-2.076-1.992-.576 0-1.216.189-1.624.75v-3.213zm7.557 2.463c-1.431 0-2.473 1.064-2.473 2.594 0 1.552 1.048 2.595 2.526 2.595.733 0 1.425-.179 2.043-.755l-.456-.587a2.334 2.334 0 01-1.535.592c-.854 0-1.572-.508-1.693-1.541h3.915c.005-.094.016-.209.016-.319-.011-1.525-.986-2.579-2.343-2.579zm-.016.76c.807 0 1.379.566 1.484 1.447h-3.045c.131-.849.681-1.447 1.561-1.447zm6.096-.76c-.592 0-1.111.273-1.457.76v-.655h-.844v4.979h.854v-2.773c0-.917.535-1.498 1.295-1.498.283 0 .618.068.854.194l.21-.844c-.268-.115-.556-.163-.912-.163zm1.753 6.63c1.703-.671 2.851-2.432 2.851-4.533 0-2.102-1.148-3.863-2.851-4.528l-.304.786c1.384.582 2.238 2.075 2.238 3.742 0 1.666-.854 3.16-2.238 3.741l.304.792zm-79.214 30.377h-3.797v-5.845h-1.432v7.184h5.23v-1.339zm7.893.026H40.46v-1.653h3.716v-1.314H40.46v-1.591h3.895v-1.313h-5.327v7.184h5.368v-1.313zm9.418-5.871h-1.488l-2.068 5.732-2.058-5.732h-1.524l2.699 7.184h1.74l2.7-7.184zm7.835 5.871H57.71v-1.653h3.716v-1.314H57.71v-1.591h3.895v-1.313H56.28v7.184h5.369v-1.313zm8.237-.026h-3.798v-5.845h-1.432v7.184h5.23v-1.339zm8.975-5.958l-3.105 1.252v1.396l1.72-.698v5.347h1.385v-7.297zm-42.963 18.695h-4.591v.781h4.59v-.781zm0-1.975h-4.591v.781h4.59v-.781zm7.255-3.354c-1.703.671-2.851 2.431-2.851 4.533 0 2.101 1.148 3.862 2.85 4.528l.305-.786c-1.384-.582-2.238-2.076-2.238-3.742 0-1.667.854-3.16 2.238-3.742l-.304-.791zm4.555 4.575c1.656 0 2.594-.828 2.594-2.201 0-1.373-.938-2.201-2.594-2.201h-2.788v7.337h.922v-2.935h1.866zm-.021-3.532c1.085 0 1.656.44 1.656 1.331s-.571 1.331-1.656 1.331H45.84v-2.662h1.845zm5.701 1.383c-.697 0-1.352.205-1.928.645l.403.639c.357-.267.828-.508 1.415-.508.907 0 1.41.45 1.43 1.368H53.24c-1.325 0-2.049.639-2.049 1.509 0 .886.645 1.535 1.75 1.535.73 0 1.358-.288 1.767-.634v.53h.86v-2.988c0-1.352-.813-2.096-2.18-2.096zm-.272 4.434c-.671 0-1.006-.362-1.006-.781 0-.414.32-.797 1.22-.797h1.379v.818c-.43.466-1.001.76-1.593.76zm6.517-4.434c-.592 0-1.11.273-1.457.76v-.655h-.844v4.979h.855v-2.773c0-.917.534-1.499 1.294-1.499.283 0 .619.069.854.194l.21-.843c-.267-.116-.556-.163-.912-.163zm3.704 0c-.697 0-1.352.205-1.928.645l.403.639c.357-.267.828-.508 1.415-.508.907 0 1.41.45 1.431 1.368H63.19c-1.326 0-2.05.639-2.05 1.509 0 .886.645 1.535 1.75 1.535.73 0 1.358-.288 1.767-.634v.53h.86v-2.988c0-1.352-.813-2.096-2.18-2.096zm-.272 4.434c-.671 0-1.006-.362-1.006-.781 0-.414.32-.797 1.22-.797h1.379v.818c-.43.466-1.001.76-1.593.76zm4.353-6.687v7.337h2.987c1.635 0 2.688-.619 2.688-2.049 0-.897-.513-1.478-1.21-1.73.623-.241 1.048-.807 1.048-1.609 0-1.41-1.127-1.949-2.673-1.949h-2.84zm2.945 4.051c1.059 0 1.76.262 1.76 1.2 0 .954-.701 1.221-1.76 1.221h-2.023v-2.421h2.023zm-.141-3.187c.969 0 1.745.221 1.745 1.153 0 .959-.765 1.174-1.735 1.174h-1.892v-2.327h1.882zm6.227 1.389c-.697 0-1.352.205-1.928.645l.403.639c.356-.267.828-.508 1.415-.508.907 0 1.41.45 1.43 1.368h-1.467c-1.326 0-2.049.639-2.049 1.509 0 .886.645 1.535 1.75 1.535.73 0 1.358-.288 1.767-.634v.53h.86v-2.988c0-1.352-.813-2.096-2.18-2.096zm-.272 4.434c-.671 0-1.007-.362-1.007-.781 0-.414.32-.797 1.222-.797h1.378v.818c-.43.466-1.001.76-1.593.76zm7.942-3.889c-.482-.33-1.2-.54-1.986-.54-1.21 0-2.002.577-2.002 1.531 0 .754.54 1.257 1.656 1.394l.577.068c.676.084 1 .314 1 .681 0 .493-.502.76-1.32.76-.833 0-1.331-.241-1.703-.529l-.398.639c.655.493 1.483.639 2.096.639 1.357 0 2.206-.613 2.206-1.561 0-.823-.623-1.269-1.682-1.41l-.576-.073c-.603-.074-.965-.257-.965-.655 0-.451.44-.739 1.122-.739.655 0 1.289.246 1.603.461l.372-.666zm3.58-.545c-1.43 0-2.473 1.064-2.473 2.594 0 1.552 1.048 2.594 2.526 2.594.734 0 1.425-.178 2.044-.754l-.456-.587a2.337 2.337 0 01-1.536.592c-.854 0-1.572-.508-1.692-1.541h3.914c.006-.094.016-.209.016-.319-.01-1.525-.985-2.579-2.343-2.579zm-.015.76c.807 0 1.378.566 1.483 1.446H86.12c.131-.849.681-1.446 1.562-1.446zm10.813-.655h-1.01l-1.442 1.839-1.43-1.839h-1.049l1.918 2.437-1.965 2.542h1l1.479-1.913 1.499 1.913h1.053l-1.97-2.553 1.918-2.426zm6.675 1.813h-2.945v.776h2.945v-.776zm3.641-4.266l-2.987 1.269v.922l2.101-.901v6.142h.886v-7.432zm1.807 8.978c1.703-.671 2.851-2.432 2.851-4.534 0-2.101-1.148-3.862-2.851-4.527l-.304.786c1.383.581 2.238 2.075 2.238 3.741 0 1.667-.855 3.161-2.238 3.742l.304.792zm11.532-6.525h-1.011l-1.442 1.839-1.43-1.839h-1.048l1.918 2.437-1.966 2.542h1.001l1.478-1.913 1.499 1.913h1.053l-1.97-2.553 1.918-2.426zm6.324-2.453l-2.988 1.269v.922l2.102-.901v6.142h.886v-7.432zm2.462 6.1a.732.732 0 00-.718.713c0 .388.335.723.718.723a.732.732 0 00.712-.723.728.728 0 00-.712-.713zm4.063-6.11c-1.09 0-1.86.477-2.28 1.111l.64.54a1.93 1.93 0 011.583-.823c.885 0 1.572.477 1.572 1.247 0 .839-.692 1.258-1.567 1.258h-.944v.812h.944c.954 0 1.729.461 1.729 1.284 0 .875-.744 1.289-1.63 1.289a2.555 2.555 0 01-1.829-.754l-.566.597c.535.619 1.373.985 2.416.985 1.3 0 2.537-.676 2.537-2.08 0-.854-.519-1.436-1.279-1.73.671-.293 1.111-.854 1.111-1.703 0-1.21-.98-2.033-2.437-2.033zM34.063 332.299c-1.704.671-2.851 2.431-2.851 4.533 0 2.101 1.147 3.862 2.85 4.528l.305-.786c-1.384-.582-2.238-2.076-2.238-3.742 0-1.667.854-3.16 2.238-3.742l-.304-.791zm7.804 2.426c-.676 0-1.447.246-1.855 1.001-.33-.624-.996-1.001-1.84-1.001-.576 0-1.22.194-1.63.755v-.65h-.849v4.979h.855v-2.794c0-.927.67-1.478 1.472-1.478.865 0 1.368.54 1.368 1.457v2.815h.86v-2.794c0-.906.644-1.478 1.467-1.478.864 0 1.368.54 1.368 1.457v2.815h.86v-3.092c0-1.195-.845-1.992-2.076-1.992zm8.328.105h-.86v2.814c0 1.017-.602 1.468-1.41 1.468-.811 0-1.414-.451-1.414-1.468v-2.814h-.86v2.893c0 1.504 1.075 2.19 2.275 2.19 1.19 0 2.269-.686 2.269-2.19v-2.893zm3.969-.105c-1.54 0-2.584 1.116-2.584 2.594 0 1.478 1.043 2.594 2.584 2.594.739 0 1.4-.272 1.85-.78l-.53-.593c-.345.336-.812.572-1.34.572-.96 0-1.688-.75-1.688-1.793s.728-1.787 1.687-1.787c.53 0 .954.205 1.32.561l.551-.582c-.446-.513-1.111-.786-1.85-.786zm4.022-2.463h-.855v7.547h.855v-2.794c0-.927.67-1.478 1.472-1.478.865 0 1.368.54 1.368 1.457v2.815h.86v-3.092c0-1.195-.85-1.992-2.076-1.992-.576 0-1.216.189-1.624.75v-3.213zm5.492 6.221l-.304 2.699h.74l.565-2.699h-1zm9.1-3.213c-.483-.33-1.2-.54-1.987-.54-1.21 0-2.002.577-2.002 1.531 0 .754.54 1.257 1.656 1.394l.577.068c.676.084 1 .314 1 .681 0 .493-.502.76-1.32.76-.833 0-1.331-.241-1.703-.529l-.398.639c.655.493 1.483.639 2.096.639 1.357 0 2.206-.613 2.206-1.561 0-.823-.624-1.269-1.682-1.41l-.577-.073c-.602-.074-.964-.257-.964-.655 0-.451.44-.739 1.122-.739.655 0 1.289.246 1.603.461l.372-.666zm2.337-3.008h-.854v7.547h.854v-7.547zm4.071 2.463c-1.51 0-2.63 1.116-2.63 2.594 0 1.478 1.12 2.594 2.63 2.594 1.51 0 2.636-1.116 2.636-2.594 0-1.478-1.127-2.594-2.636-2.594zm0 .807c.996 0 1.756.744 1.756 1.787s-.76 1.793-1.756 1.793c-1 0-1.756-.75-1.756-1.793s.755-1.787 1.756-1.787zm8.072-.702h-.97l-1.42 4.072-1.41-4.072h-.917l1.792 4.979h1.007l1.42-4.051 1.425 4.051h1.022L91 334.83h-.896l-1.415 4.082-1.43-4.082zm6.96-.105c-1.43 0-2.473 1.064-2.473 2.594 0 1.552 1.048 2.594 2.526 2.594.734 0 1.425-.178 2.044-.754l-.456-.587a2.337 2.337 0 01-1.536.592c-.854 0-1.572-.508-1.692-1.541h3.914c.006-.094.016-.209.016-.319-.01-1.525-.985-2.579-2.342-2.579zm-.015.76c.807 0 1.378.566 1.483 1.446h-3.045c.131-.849.681-1.446 1.562-1.446zm6.095-.76c-.592 0-1.11.273-1.457.76v-.655h-.843v4.979h.854v-2.773c0-.917.534-1.499 1.294-1.499.283 0 .619.069.854.194l.21-.843c-.267-.116-.555-.163-.912-.163zm9.195-2.987h-.943l-4.449 9.119h.943l4.449-9.119zm6.774 3.092h-1.912v-.849c0-.645.262-1.022.854-1.022.367 0 .739.131 1.001.288l.309-.718a2.586 2.586 0 00-1.368-.372c-1.174 0-1.656.781-1.656 1.824v.849h-1.106v.781h1.106v4.198h.86v-4.198h1.912v-.781zm5.659 0h-.859v2.814c0 1.017-.603 1.468-1.41 1.468-.812 0-1.415-.451-1.415-1.468v-2.814h-.859v2.893c0 1.504 1.074 2.19 2.274 2.19 1.19 0 2.269-.686 2.269-2.19v-2.893zm4.064-.105a1.75 1.75 0 00-1.457.76v-.655h-.844v4.979h.854v-2.773c0-.917.535-1.499 1.295-1.499.283 0 .618.069.854.194l.209-.843c-.267-.116-.555-.163-.911-.163zm5.573.105h-2.091v-1.562h-.86v1.562h-1.064v.781h1.064v2.442c0 1.268.645 1.86 1.724 1.86.613 0 1.111-.214 1.494-.492l-.404-.645a1.852 1.852 0 01-1.016.336c-.54 0-.938-.325-.938-1.075v-2.426h2.091v-.781zm2.223-2.568h-.854v7.547h.854v-2.794c0-.927.671-1.478 1.473-1.478.864 0 1.367.54 1.367 1.457v2.815h.86v-3.092c0-1.195-.849-1.992-2.075-1.992-.577 0-1.216.189-1.625.75v-3.213zm7.557 2.463c-1.43 0-2.473 1.064-2.473 2.594 0 1.552 1.048 2.594 2.526 2.594.733 0 1.425-.178 2.044-.754l-.456-.587a2.339 2.339 0 01-1.536.592c-.854 0-1.572-.508-1.693-1.541h3.915c.005-.094.016-.209.016-.319-.011-1.525-.985-2.579-2.343-2.579zm-.015.76c.807 0 1.378.566 1.483 1.446h-3.045c.131-.849.681-1.446 1.562-1.446zm7.52-.215c-.482-.33-1.2-.54-1.986-.54-1.21 0-2.002.577-2.002 1.531 0 .754.54 1.257 1.656 1.394l.577.068c.676.084 1.001.314 1.001.681 0 .493-.503.76-1.321.76-.833 0-1.331-.241-1.703-.529l-.398.639c.655.493 1.483.639 2.096.639 1.357 0 2.206-.613 2.206-1.561 0-.823-.623-1.269-1.682-1.41l-.576-.073c-.603-.074-.965-.257-.965-.655 0-.451.44-.739 1.122-.739.655 0 1.289.246 1.603.461l.372-.666zm4.865-.44h-2.091v-1.562h-.86v1.562h-1.064v.781h1.064v2.442c0 1.268.645 1.86 1.724 1.86.613 0 1.111-.214 1.494-.492l-.404-.645c-.283.194-.65.336-1.016.336-.54 0-.938-.325-.938-1.075v-2.426h2.091v-.781zm1.185 6.525c1.703-.671 2.851-2.432 2.851-4.534 0-2.101-1.148-3.862-2.851-4.527l-.304.786c1.384.581 2.238 2.075 2.238 3.741 0 1.667-.854 3.161-2.238 3.742l.304.792z" fill="#fff"/><path stroke="#fff" stroke-width=".855" d="M303.396 311.09h30.588v23.252h-30.588z"/><path d="M307.686 334.245l9.528-11.25 3.335 4.145m5.717 7.105l-5.717-7.105m0 0l6.193-7.569 7.147 7.826" stroke="#fff" stroke-width=".855"/><circle cx="310.041" cy="317.736" r="2.979" stroke="#fff" stroke-width=".855"/><path d="M297.488 129.223h-1.024v5.135h1.024v-2.113h2.472v2.113h1.024v-5.135h-1.024v2.069h-2.472v-2.069zm9.603 4.196h-2.814v-1.181h2.656v-.939h-2.656v-1.137h2.784v-.939h-3.807v5.135h3.837v-.939zm4.89-4.196h-1.247l-2 5.135h1.068l.447-1.196h2.19l.448 1.196h1.093l-1.999-5.135zm-.635 1.012l.741 1.985h-1.485l.744-1.985zm4.397-1.012v5.135h2.117c1.607 0 2.667-1.019 2.667-2.568 0-1.548-1.06-2.567-2.667-2.567h-2.117zm2.106.957c1.082 0 1.607.668 1.607 1.61 0 .932-.525 1.611-1.607 1.611h-1.082v-3.221h1.082zm8.436 3.221h-2.714v-4.178h-1.024v5.135h3.738v-.957zm2.829-4.178h-1.024v5.135h1.024v-5.135zm6.862 0h-1.027v3.43l-2.608-3.43h-.958v5.135h1.024l.003-3.43 2.605 3.43h.961v-5.135zm6.105 4.196h-2.813v-1.181h2.656v-.939h-2.656v-1.137h2.784v-.939h-3.808v5.135h3.837v-.939zm-34.668 36.553v5.135h2.224c1.232 0 1.933-.484 1.933-1.471 0-.554-.385-.994-.855-1.152.429-.157.745-.572.745-1.089 0-.98-.752-1.423-1.948-1.423h-2.099zm2.172 3c.565 0 .921.132.921.613 0 .492-.356.624-.921.624l-1.148-.004v-1.233h1.148zm-.103-2.098c.507 0 .91.11.91.594 0 .499-.396.606-.906.606h-1.049v-1.2h1.045zm6.562-.998c-1.581 0-2.696 1.13-2.696 2.664 0 1.533 1.115 2.663 2.696 2.663 1.582 0 2.7-1.13 2.7-2.663 0-1.534-1.118-2.664-2.7-2.664zm0 .983c.947 0 1.629.683 1.629 1.681 0 .997-.682 1.68-1.629 1.68-.942 0-1.628-.683-1.628-1.68 0-.998.686-1.681 1.628-1.681zm4.719-.887v5.135h2.117c1.607 0 2.667-1.019 2.667-2.567 0-1.549-1.06-2.568-2.667-2.568h-2.117zm2.106.957c1.082 0 1.607.668 1.607 1.611 0 .931-.525 1.61-1.607 1.61h-1.082v-3.221h1.082zm8.709-.957h-1.166l-1.291 2.179-1.292-2.179h-1.203l1.977 3.107v2.028h1.024v-2.025l1.951-3.11zm-17.932 79.484c-1.581 0-2.697 1.119-2.697 2.664 0 1.544 1.116 2.663 2.697 2.663.939 0 1.713-.418 2.168-1.086l-.837-.602a1.57 1.57 0 01-1.339.705c-.906 0-1.617-.65-1.621-1.68 0-.998.69-1.681 1.621-1.681.573 0 1.038.265 1.328.708l.881-.539c-.418-.719-1.255-1.152-2.201-1.152zm8.002.096h-4.208v.957h1.592v4.179h1.024v-4.179h1.592v-.957zm4.09 0h-1.248l-1.999 5.136h1.067l.448-1.196h2.19l.448 1.196h1.093l-1.999-5.136zm-.635 1.012l.741 1.985h-1.486l.745-1.985zm-97.346 63.587v5.136h2.223c1.233 0 1.933-.484 1.933-1.471 0-.554-.385-.994-.854-1.152.429-.158.744-.572.744-1.089 0-.98-.752-1.424-1.948-1.424h-2.098zm2.172 3.001c.565 0 .921.132.921.613 0 .491-.356.623-.921.623l-1.148-.003v-1.233h1.148zm-.103-2.098c.506 0 .91.11.91.594 0 .499-.396.605-.906.605h-1.049v-1.199h1.045zm6.766-.903h-1.247l-2 5.136h1.068l.447-1.196h2.19l.448 1.196h1.093l-1.999-5.136zm-.635 1.013l.741 1.984h-1.485l.744-1.984zm6.612-1.108c-1.582 0-2.697 1.119-2.697 2.663 0 1.545 1.115 2.663 2.697 2.663.939 0 1.713-.418 2.168-1.085l-.837-.602a1.57 1.57 0 01-1.339.704c-.906 0-1.618-.649-1.621-1.68 0-.998.689-1.68 1.621-1.68.572 0 1.038.264 1.328.708l.881-.539c-.419-.719-1.255-1.152-2.201-1.152zm7.512 5.231h1.328l-2.315-2.63 2.153-2.506h-1.284l-1.698 2.08h-.484v-2.08h-1.024v5.136h1.024v-2.113h.473l1.827 2.113zm5.057-5.231c-1.578 0-2.711 1.111-2.711 2.663 0 1.658 1.262 2.66 2.685 2.66 1.456 0 2.509-1.097 2.509-2.652 0-.096-.004-.191-.015-.29h-2.362v.854h1.306c-.136.73-.624 1.134-1.46 1.134-.888 0-1.603-.657-1.603-1.706 0-1.001.682-1.691 1.621-1.691.525 0 .95.205 1.24.539l.738-.722c-.455-.496-1.134-.789-1.948-.789zm4.503.095v5.136h1.024v-2.043h.3l1.497 2.043h1.24l-1.581-2.058c.987-.095 1.574-.671 1.574-1.515 0-.983-.657-1.563-1.882-1.563h-2.172zm2.153.943c.543 0 .848.195.848.62 0 .433-.29.638-.848.638h-1.129v-1.258h1.129zm6.371-1.038c-1.582 0-2.697 1.13-2.697 2.663 0 1.534 1.115 2.663 2.697 2.663 1.581 0 2.7-1.129 2.7-2.663 0-1.533-1.119-2.663-2.7-2.663zm0 .983c.946 0 1.628.682 1.628 1.68 0 .998-.682 1.68-1.628 1.68-.943 0-1.629-.682-1.629-1.68 0-.998.686-1.68 1.629-1.68zm9.084-.888h-1.027v3.034c0 .844-.477 1.214-1.185 1.214-.708 0-1.185-.37-1.185-1.214v-3.034h-1.027v3.085c0 1.42.906 2.143 2.212 2.143s2.212-.723 2.212-2.143v-3.085zm6.802 0h-1.027v3.43l-2.609-3.43h-.957v5.136h1.023l.004-3.43 2.605 3.43h.961v-5.136zm2.268 0v5.136h2.117c1.606 0 2.667-1.02 2.667-2.568s-1.061-2.568-2.667-2.568h-2.117zm2.106.958c1.082 0 1.606.667 1.606 1.61 0 .932-.524 1.611-1.606 1.611h-1.083v-3.221h1.083zm-24.73 8.042h-1.023v5.136h1.023v-5.136zm7.938 0h-1.501l-1.331 3.467-1.336-3.467h-1.5v5.136h1.023v-3.848l1.27 3.353h1.082l1.269-3.382v3.877h1.024v-5.136zm5.008 0h-1.247l-2 5.136h1.068l.448-1.196h2.19l.447 1.196h1.093l-1.999-5.136zm-.635 1.013l.741 1.984h-1.485l.744-1.984zm6.626-1.108c-1.577 0-2.711 1.111-2.711 2.663 0 1.658 1.262 2.66 2.686 2.66 1.456 0 2.509-1.097 2.509-2.652 0-.096-.004-.191-.015-.29h-2.362v.854h1.306c-.136.73-.624 1.134-1.46 1.134-.888 0-1.603-.657-1.603-1.706 0-1.001.682-1.691 1.621-1.691.525 0 .95.205 1.24.539l.737-.722c-.455-.496-1.133-.789-1.948-.789zm8.341 4.292h-2.814v-1.181h2.656v-.939h-2.656v-1.138h2.785v-.939h-3.808v5.136h3.837v-.939zm9.986-248.778h-2.814v-1.18h2.656v-.94h-2.656v-1.137h2.785v-.94h-3.808v5.137h3.837v-.94zm6.541-4.196h-1.167l-1.291 2.179-1.291-2.18h-1.203l1.977 3.108v2.029h1.023v-2.025l1.952-3.111zm5.54 4.197h-2.813v-1.182h2.656v-.939h-2.656v-1.137h2.784v-.94h-3.808v5.137h3.837v-.94zm2.15-4.197v5.136h2.223c1.233 0 1.934-.485 1.934-1.471 0-.554-.386-.994-.855-1.152.429-.158.745-.573.745-1.09 0-.98-.752-1.423-1.948-1.423h-2.099zm2.172 3c.565 0 .921.133.921.613 0 .492-.356.624-.921.624l-1.148-.004v-1.232h1.148zm-.103-2.098c.507 0 .91.11.91.595 0 .499-.396.605-.906.605h-1.049v-1.2h1.045zm4.112-.902v5.136h1.023v-2.044h.301l1.497 2.044h1.24l-1.581-2.058c.986-.096 1.573-.672 1.573-1.515 0-.983-.656-1.563-1.882-1.563h-2.171zm2.153.943c.543 0 .848.194.848.62 0 .433-.29.638-.848.638h-1.13v-1.258h1.13zm6.37-1.038c-1.581 0-2.696 1.13-2.696 2.663s1.115 2.663 2.696 2.663c1.581 0 2.7-1.13 2.7-2.663 0-1.534-1.119-2.663-2.7-2.663zm0 .983c.947 0 1.629.682 1.629 1.68 0 .998-.682 1.68-1.629 1.68-.943 0-1.629-.682-1.629-1.68 0-.998.686-1.68 1.629-1.68zm11.872-.888h-1.045l-1.105 3.94-1.148-3.94h-1.133l-1.149 3.94-1.104-3.94h-1.064l1.534 5.136h1.24l1.1-3.669 1.101 3.669h1.24l1.533-5.136z" fill="#fff"/></svg>