<svg width="206" height="200" viewBox="0 0 206 200" fill="none" xmlns="http://www.w3.org/2000/svg"><path d="M11.206 121.214H.596v.133c1.516 0 1.605 1.003 1.605 2.653v10.655c0 1.65-.09 2.653-1.605 2.653v.133h5.171v-.133c-1.515 0-1.605-1.003-1.605-2.653v-5.038H6.66c2.006 0 2.452.758 2.83 2.341h.135v-4.882H9.49c-.379 1.65-.825 2.185-2.831 2.185H4.162v-7.691H7.06c2.408 0 3.143.446 4.28 2.987h.134l-.268-3.343zm1.036 16.227h3.767v-.133c-.914 0-.981-.758-.981-2.185V120.01h-.09l-2.853.713v.134c.758.201 1.137.669 1.137 2.095v12.171c0 1.427-.067 2.185-.98 2.185v.133zM26.64 134.7v-9.162h-.09l-2.897.312v.134c.758.201 1.181.602 1.181 2.028v7.267c-.958.736-2.028 1.226-3.009 1.226-1.56 0-2.095-1.07-2.095-2.764v-8.203h-.09l-2.897.312v.134c.758.201 1.181.602 1.181 2.028v6.22c0 2.251 1.093 3.477 2.831 3.477 1.494 0 2.898-1.003 4.08-2.229l.378 2.229h.09l2.474-.691v-.134c-.78-.223-1.137-.758-1.137-2.184zm3.665-11.057c.692 0 1.249-.557 1.249-1.248s-.557-1.248-1.248-1.248c-.714 0-1.271.557-1.271 1.248s.557 1.248 1.27 1.248zm-1.65 13.798h3.768v-.133c-.914 0-.98-.758-.98-2.185v-9.585h-.09l-2.853.892v.133c.758.201 1.137.669 1.137 2.096v6.464c0 1.427-.067 2.185-.981 2.185v.133zm14.71-2.741v-14.69h-.089l-2.853.713v.134c.758.201 1.137.669 1.137 2.095v3.277a5.045 5.045 0 00-2.63-.736c-3.099 0-5.44 2.519-5.44 6.331 0 3.455 1.85 5.885 4.459 5.885 1.605 0 2.764-.959 3.633-2.162l.357 2.162h.089l2.474-.691v-.134c-.78-.223-1.137-.758-1.137-2.184zm-4.525 2.006c-2.273 0-3.41-2.519-3.41-5.461 0-2.854 1.137-5.439 3.41-5.439 1.717 0 2.72 1.448 2.72 3.432v6.019c-.691.802-1.583 1.449-2.72 1.449zM7.528 165.709c3.366 0 5.105-1.85 5.105-5.617v-6.844c0-2.184.223-3.901 1.739-3.901v-.133h-4.013v.133c1.516 0 1.873 1.717 1.873 3.901v6.844c0 3.499-1.583 5.082-4.325 5.082s-3.878-1.583-3.878-5.194V152c0-1.65.089-2.653 1.605-2.653v-.133H.44v.133c1.516 0 1.605 1.003 1.605 2.653v8.136c0 3.812 1.917 5.573 5.483 5.573zm17.067-2.586v-6.152c0-2.252-1.092-3.478-2.831-3.478-1.494 0-2.898 1.004-4.08 2.23v-2.185h-.088l-2.854.892v.133c.758.201 1.137.669 1.137 2.096v6.464c0 1.427-.067 2.185-.98 2.185v.133h3.766v-.133c-.913 0-.98-.758-.98-2.185v-7.178c.958-.757 2.028-1.248 3.009-1.248 1.56 0 2.095 1.07 2.095 2.764v5.662c0 1.427-.067 2.185-.98 2.185v.133h3.767v-.133c-.914 0-.981-.758-.981-2.185zm1.818 2.318h3.767v-.133c-.914 0-.98-.758-.98-2.185V148.01h-.09l-2.853.713v.134c.758.201 1.136.669 1.136 2.095v12.171c0 1.427-.066 2.185-.98 2.185v.133zm6.396-13.798c.69 0 1.248-.557 1.248-1.248s-.557-1.248-1.248-1.248c-.713 0-1.27.557-1.27 1.248s.556 1.248 1.27 1.248zm-1.65 13.798h3.767v-.133c-.913 0-.98-.758-.98-2.185v-9.585h-.09l-2.853.892v.133c.758.201 1.137.669 1.137 2.096v6.464c0 1.427-.067 2.185-.98 2.185v.133zm20.862-2.318v-6.152c0-2.252-1.092-3.478-2.83-3.478-1.494 0-2.876 1.026-3.946 2.274-.335-1.471-1.293-2.274-2.72-2.274-1.471 0-2.764.981-3.834 2.185v-2.14h-.089l-2.853.892v.133c.758.201 1.137.669 1.137 2.096v6.464c0 1.427-.067 2.185-.981 2.185v.133h3.767v-.133c-.914 0-.98-.758-.98-2.185v-7.2c.824-.735 1.805-1.204 2.785-1.204 1.539 0 2.074 1.048 2.074 2.742v5.662c0 1.427-.067 2.185-.981 2.185v.133h3.767v-.133c-.914 0-.98-.758-.98-2.185v-6.152c0-.357-.023-.691-.09-1.003.847-.78 1.872-1.249 2.853-1.249 1.56 0 2.096 1.048 2.096 2.742v5.662c0 1.427-.067 2.185-.981 2.185v.133h3.767v-.133c-.914 0-.98-.758-.98-2.185zm3.514-11.48c.691 0 1.248-.557 1.248-1.248s-.557-1.248-1.248-1.248c-.713 0-1.27.557-1.27 1.248s.557 1.248 1.27 1.248zm-1.65 13.798h3.768v-.133c-.914 0-.981-.758-.981-2.185v-9.585h-.09l-2.852.892v.133c.757.201 1.136.669 1.136 2.096v6.464c0 1.427-.066 2.185-.98 2.185v.133zm11.79-1.894c-.669.624-1.56 1.159-2.452 1.159-1.16 0-1.761-.691-1.761-2.006v-8.114h3.856l.312-.825h-4.168v-2.92h-.134c-.646 2.006-1.426 2.898-2.519 3.366l-.312.134v.245h1.16v8.314c0 1.895.958 2.809 2.608 2.809 1.159 0 2.496-.758 3.544-2.073l-.134-.089zm9.216-.847c-.714 1.025-1.962 1.917-3.5 1.917-2.497 0-3.745-2.497-3.745-5.662a7.5 7.5 0 01.067-1.003h7.29c.133-2.809-1.65-4.459-3.99-4.459-2.876 0-5.262 2.609-5.262 6.287 0 3.321 1.806 5.929 4.77 5.929 2.364 0 3.723-1.583 4.504-2.92l-.134-.089zm-3.99-8.894c1.694 0 2.362 1.493 2.184 3.789h-5.327c.334-2.073 1.426-3.789 3.143-3.789zm15.022 8.894v-14.69h-.09l-2.853.713v.134c.758.201 1.137.669 1.137 2.095v3.277a5.045 5.045 0 00-2.63-.736c-3.099 0-5.44 2.519-5.44 6.331 0 3.455 1.851 5.885 4.46 5.885 1.604 0 2.763-.959 3.632-2.162l.357 2.162h.09l2.474-.691v-.134c-.78-.223-1.137-.758-1.137-2.184zm-4.525 2.006c-2.274 0-3.41-2.519-3.41-5.461 0-2.854 1.136-5.439 3.41-5.439 1.716 0 2.72 1.448 2.72 3.432v6.019c-.692.802-1.583 1.449-2.72 1.449zM.596 192.441h6.33c4.905 0 8.137-3.187 8.137-8.314 0-5.016-2.92-7.913-8.003-7.913H.596v.133c1.516 0 1.605 1.003 1.605 2.653v10.655c0 1.65-.09 2.653-1.605 2.653v.133zm6.42-.356c-2.274 0-2.854-.401-2.854-1.427v-13.285c0-.535.312-.803.847-.803h1.895c4.057 0 5.952 3.21 5.952 7.691 0 4.792-1.85 7.824-5.84 7.824zM25.52 189.7c-.713 1.025-1.962 1.917-3.5 1.917-2.496 0-3.745-2.497-3.745-5.662 0-.335.023-.669.067-1.003h7.29c.133-2.809-1.65-4.459-3.99-4.459-2.876 0-5.261 2.609-5.261 6.287 0 3.321 1.805 5.929 4.77 5.929 2.363 0 3.722-1.583 4.503-2.92l-.134-.089zm-3.99-8.894c1.694 0 2.363 1.493 2.184 3.789h-5.327c.334-2.073 1.426-3.789 3.143-3.789zm5.013 11.635h3.768v-.133c-.914 0-.981-.758-.981-2.185V175.01h-.09l-2.853.713v.134c.758.201 1.137.669 1.137 2.095v12.171c0 1.427-.067 2.185-.98 2.185v.133zm6.396-13.798c.691 0 1.249-.557 1.249-1.248s-.558-1.248-1.249-1.248c-.713 0-1.27.557-1.27 1.248s.557 1.248 1.27 1.248zm-1.65 13.798h3.768v-.133c-.914 0-.98-.758-.98-2.185v-9.585h-.09l-2.853.892v.133c.758.201 1.137.669 1.137 2.096v6.464c0 1.427-.067 2.185-.981 2.185v.133zm9.606.268c2.34 0 3.678-1.605 4.458-2.965l-.134-.089c-.69 1.003-1.917 1.939-3.522 1.939-2.407 0-3.678-2.496-3.678-5.595 0-2.741 1.226-5.193 3.366-5.193 1.494 0 2.296 1.248 2.742 2.92h.134l.891-1.338c-.758-1.092-2.184-1.895-3.767-1.895-2.875 0-5.26 2.609-5.26 6.287 0 3.321 1.805 5.929 4.77 5.929zm14.45-1.583c-.134.179-.446.513-.914.513-.691 0-.736-.758-.736-1.672v-5.885c0-2.095-1.047-3.589-3.21-3.589-2.585 0-3.878 2.096-4.235 3.322l.134.067c.69-1.338 1.783-2.385 3.277-2.385 2.25 0 2.25 2.429 2.25 3.076v1.716l-2.117.602c-2.697.78-3.923 1.872-3.923 3.477 0 1.382 1.07 2.341 2.586 2.341 1.27 0 2.608-.758 3.522-1.895.044.803.29 1.895 1.404 1.895 1.003 0 1.739-.825 2.095-1.494l-.133-.089zm-5.863.58c-1.047 0-1.805-.736-1.805-1.917 0-1.293.602-1.984 2.652-2.653l1.583-.513v3.968c-.602.535-1.538 1.115-2.43 1.115zm13.385-1.159c-.669.624-1.56 1.159-2.452 1.159-1.16 0-1.761-.691-1.761-2.006v-8.114h3.856l.312-.825h-4.168v-2.92h-.134c-.646 2.006-1.427 2.898-2.519 3.366l-.312.134v.245h1.16v8.314c0 1.895.958 2.809 2.607 2.809 1.16 0 2.497-.758 3.545-2.073l-.134-.089zm9.216-.847c-.714 1.025-1.962 1.917-3.5 1.917-2.497 0-3.745-2.497-3.745-5.662a7.5 7.5 0 01.067-1.003h7.289c.134-2.809-1.65-4.459-3.99-4.459-2.876 0-5.26 2.609-5.26 6.287 0 3.321 1.805 5.929 4.77 5.929 2.362 0 3.722-1.583 4.502-2.92l-.133-.089zm-3.99-8.894c1.694 0 2.362 1.493 2.184 3.789h-5.328c.335-2.073 1.427-3.789 3.144-3.789zM22.515 8.04H1.095v.27c3.06 0 3.24 2.026 3.24 5.356v21.51c0 3.33-.18 5.355-3.24 5.355v.27h10.44v-.27c-3.06 0-3.24-2.025-3.24-5.355v-10.17h5.04c4.05 0 4.95 1.53 5.715 4.725h.27v-9.855h-.27c-.765 3.33-1.665 4.41-5.715 4.41h-5.04V8.76h5.85c4.86 0 6.346.9 8.64 6.03h.27l-.54-6.75zm2.09 32.76h7.605v-.27c-1.845 0-1.98-1.53-1.98-4.41V5.61h-.18l-5.76 1.44v.27c1.53.406 2.295 1.35 2.295 4.23v24.57c0 2.88-.135 4.41-1.98 4.41v.27zm29.067-5.534V16.77h-.18l-5.85.63v.27c1.53.405 2.385 1.215 2.385 4.095v14.67c-1.935 1.485-4.095 2.475-6.075 2.475-3.15 0-4.23-2.16-4.23-5.58V16.77h-.18l-5.85.63v.27c1.53.405 2.385 1.215 2.385 4.095V34.32c0 4.545 2.205 7.02 5.715 7.02 3.015 0 5.85-2.025 8.235-4.5l.765 4.5h.18l4.995-1.395v-.27c-1.575-.45-2.295-1.53-2.295-4.41zm7.4-22.32a2.516 2.516 0 002.52-2.52 2.516 2.516 0 00-2.52-2.52c-1.44 0-2.565 1.125-2.565 2.52s1.125 2.52 2.565 2.52zM57.742 40.8h7.605v-.27c-1.845 0-1.98-1.53-1.98-4.41V16.77h-.18l-5.76 1.8v.27c1.53.405 2.295 1.35 2.295 4.23v13.05c0 2.88-.135 4.41-1.98 4.41v.27zm29.695-5.535V5.61h-.18l-5.76 1.44v.27c1.53.405 2.295 1.35 2.295 4.23v6.615a10.188 10.188 0 00-5.31-1.485c-6.255 0-10.98 5.085-10.98 12.78 0 6.975 3.735 11.88 9 11.88 3.24 0 5.58-1.935 7.335-4.365l.72 4.365h.18l4.995-1.395v-.27c-1.575-.45-2.295-1.53-2.295-4.41zm-9.135 4.05c-4.59 0-6.885-5.085-6.885-11.025 0-5.76 2.295-10.98 6.885-10.98 3.465 0 5.49 2.925 5.49 6.93v12.15c-1.395 1.62-3.195 2.925-5.49 2.925zM16.26 73.61v-.09c3.51-.675 7.47-2.88 7.47-7.785 0-4.635-3.645-7.695-11.114-7.695H1.096v.27c3.06 0 3.24 2.025 3.24 5.355v21.51c0 3.33-.18 5.355-3.24 5.355v.27h12.15c7.964 0 12.194-3.6 12.194-8.46 0-5.175-4.455-8.19-9.18-8.73zm-6.255-14.85h1.845c5.04 0 7.696 2.925 7.696 7.65 0 4.095-2.25 6.975-7.65 6.975h-3.6V60.38c0-1.08.63-1.62 1.71-1.62zM12.3 90.08c-4.005 0-4.005-1.665-4.005-2.88V74.106h3.78c5.67 0 9 3.06 9 8.1 0 4.995-3.24 7.875-8.774 7.875zm26.453 1.26c6.255 0 10.935-4.95 10.935-12.42 0-7.56-4.5-12.24-10.845-12.24-6.3 0-10.98 4.95-10.98 12.42 0 7.56 4.5 12.24 10.89 12.24zm.09-.63c-4.545 0-7.02-5.175-7.02-11.7 0-6.795 2.385-11.7 6.93-11.7s6.975 5.175 6.975 11.7c0 6.795-2.34 11.7-6.885 11.7zm32.495-5.445V66.77h-.18l-5.85.63v.27c1.53.405 2.385 1.215 2.385 4.095v14.67c-1.935 1.485-4.095 2.475-6.075 2.475-3.15 0-4.23-2.16-4.23-5.58V66.77h-.18l-5.85.63v.27c1.53.405 2.385 1.215 2.385 4.095V84.32c0 4.545 2.205 7.02 5.715 7.02 3.015 0 5.85-2.025 8.235-4.5l.765 4.5h.18l4.995-1.395v-.27c-1.575-.45-2.295-1.53-2.295-4.41zm23.645.855V73.7c0-4.545-2.205-7.02-5.715-7.02-3.015 0-5.85 2.025-8.235 4.5v-4.41h-.18l-5.76 1.8v.27c1.53.405 2.295 1.35 2.295 4.23v13.05c0 2.88-.135 4.41-1.98 4.41v.27h7.605v-.27c-1.845 0-1.98-1.53-1.98-4.41V71.63c1.935-1.53 4.095-2.52 6.075-2.52 3.15 0 4.23 2.16 4.23 5.58v11.43c0 2.88-.135 4.41-1.98 4.41v.27h7.605v-.27c-1.845 0-1.98-1.53-1.98-4.41zm23.875-.855V55.61h-.18l-5.76 1.44v.27c1.53.405 2.295 1.35 2.295 4.23v6.615a10.188 10.188 0 00-5.31-1.485c-6.255 0-10.98 5.085-10.98 12.78 0 6.975 3.735 11.88 9 11.88 3.24 0 5.58-1.935 7.335-4.365l.72 4.365h.18l4.995-1.395v-.27c-1.575-.45-2.295-1.53-2.295-4.41zm-9.135 4.05c-4.59 0-6.885-5.085-6.885-11.025 0-5.76 2.295-10.98 6.885-10.98 3.465 0 5.49 2.925 5.49 6.93v12.15c-1.395 1.62-3.195 2.925-5.49 2.925zm31.912-1.17c-.27.36-.9 1.035-1.845 1.035-1.395 0-1.485-1.53-1.485-3.375v-11.88c0-4.23-2.115-7.245-6.48-7.245-5.22 0-7.83 4.23-8.55 6.705l.27.135c1.395-2.7 3.6-4.815 6.615-4.815 4.545 0 4.545 4.905 4.545 6.21v3.465l-4.275 1.215c-5.445 1.575-7.92 3.78-7.92 7.02 0 2.79 2.16 4.725 5.22 4.725 2.565 0 5.265-1.53 7.11-3.825.09 1.62.585 3.825 2.835 3.825 2.025 0 3.51-1.665 4.23-3.015l-.27-.18zm-11.835 1.17c-2.115 0-3.645-1.485-3.645-3.87 0-2.61 1.215-4.005 5.355-5.355l3.195-1.035v8.01c-1.215 1.08-3.105 2.25-4.905 2.25zm24.809-22.635c-2.295 0-4.275 2.07-6.12 4.905V66.77h-.18l-5.76 1.8v.27c1.53.405 2.295 1.35 2.295 4.23v13.05c0 2.88-.135 4.41-1.98 4.41v.27h7.605v-.27c-1.845 0-1.98-1.53-1.98-4.41V72.216c1.215-1.71 2.385-2.385 3.6-2.385.945 0 2.115.405 3.105 1.08h.27l.9-3.87a4.373 4.373 0 00-1.755-.36zm6.395-3.735a2.516 2.516 0 002.52-2.52 2.516 2.516 0 00-2.52-2.52c-1.44 0-2.565 1.125-2.565 2.52s1.125 2.52 2.565 2.52zm-3.33 27.855h7.605v-.27c-1.845 0-1.98-1.53-1.98-4.41V66.77h-.18l-5.76 1.8v.27c1.53.405 2.295 1.35 2.295 4.23v13.05c0 2.88-.135 4.41-1.98 4.41v.27zm28.21-5.535c-1.44 2.07-3.96 3.87-7.065 3.87-5.04 0-7.56-5.04-7.56-11.43 0-.675.045-1.35.135-2.025h14.715c.27-5.67-3.33-9-8.055-9-5.805 0-10.62 5.265-10.62 12.69 0 6.705 3.645 11.97 9.63 11.97 4.77 0 7.515-3.195 9.09-5.895l-.27-.18zm-8.055-17.955c3.42 0 4.77 3.015 4.41 7.65h-10.755c.675-4.185 2.88-7.65 6.345-7.65zm17.141 24.03c4.86 0 8.235-2.745 8.235-6.975 0-4.005-2.88-5.4-6.12-7.11l-1.665-.9c-2.205-1.125-4.185-2.385-4.185-4.95 0-2.43 1.8-4.095 4.455-4.095 2.745 0 5.04 1.98 6.165 5.31h.27v-4.59c-1.71-.945-4.185-1.35-5.985-1.35-4.275 0-7.425 2.475-7.425 6.57 0 3.69 2.52 5.22 4.905 6.525l1.71.9c3.465 1.89 5.355 2.88 5.355 5.58 0 3.06-2.475 4.455-5.13 4.455-3.465 0-5.535-2.385-7.2-6.39h-.27l.36 5.58c1.62.855 4.185 1.44 6.525 1.44z" fill="#000"/></svg>