<svg width="343" height="394" viewBox="0 0 343 394" fill="none" xmlns="http://www.w3.org/2000/svg"><path d="M5.606 3.29c-1.412 0-2.541 1.146-2.541 3.055 0 1.909 1.13 3.055 2.541 3.055 1.408 0 2.545-1.146 2.545-3.055 0-1.909-1.137-3.055-2.545-3.055zm0 1.091c.759 0 1.357.674 1.357 1.964s-.598 1.964-1.357 1.964c-.754 0-1.357-.674-1.357-1.964s.603-1.964 1.357-1.964zm6.195-1.091c-.94 0-1.643.687-1.643 1.605 0 .927.704 1.614 1.643 1.614.944 0 1.648-.687 1.648-1.614 0-.918-.704-1.605-1.648-1.605zm0 .88c.413 0 .713.304.713.725 0 .43-.3.734-.713.734-.404 0-.708-.304-.708-.734 0-.421.304-.725.708-.725zm4.737-.775h-1.1l-3.957 5.9h1.104l3.953-5.9zm-.308 2.786c-.94 0-1.643.7-1.643 1.61 0 .922.704 1.61 1.643 1.61.944 0 1.648-.688 1.648-1.61 0-.92-.704-1.61-1.648-1.61zm0 .88c.413 0 .713.304.713.73 0 .425-.3.729-.713.729-.408 0-.707-.304-.707-.73 0-.425.299-.729.707-.729zm-8.37 7.86c-.741-.442-1.428-.627-2.254-.627-1.256 0-2.351.64-2.351 1.871 0 1.066.758 1.526 1.799 1.69l.375.059c.822.13 1.252.282 1.252.691 0 .455-.506.712-1.16.712-.758 0-1.453-.295-1.879-.636l-.61.948c.631.51 1.592.771 2.486.771 1.268 0 2.414-.62 2.414-1.921 0-1.029-.826-1.48-1.88-1.652l-.332-.055c-.708-.118-1.218-.249-1.218-.683 0-.446.468-.708 1.13-.708.644 0 1.209.215 1.672.502l.557-.961zm5.191-.635c-1.816 0-3.097 1.285-3.097 3.059 0 1.774 1.281 3.06 3.097 3.06 1.08 0 1.968-.48 2.49-1.248l-.96-.691c-.354.514-.885.81-1.538.81-1.041 0-1.859-.747-1.863-1.931 0-1.146.792-1.93 1.863-1.93.657 0 1.193.303 1.525.813l1.012-.62c-.48-.825-1.441-1.322-2.529-1.322zm4.812.11v5.899h1.176v-2.347h.345l1.72 2.347h1.424l-1.816-2.364c1.133-.11 1.808-.771 1.808-1.74 0-1.13-.755-1.796-2.162-1.796h-2.495zm2.474 1.082c.623 0 .973.223.973.712 0 .498-.333.734-.973.734h-1.298v-1.446h1.298zm7.317-1.192c-1.816 0-3.097 1.298-3.097 3.059 0 1.762 1.281 3.06 3.097 3.06 1.817 0 3.102-1.299 3.102-3.06 0-1.761-1.285-3.06-3.102-3.06zm0 1.129c1.088 0 1.872.784 1.872 1.93s-.784 1.93-1.872 1.93c-1.083 0-1.87-.784-1.87-1.93s.787-1.93 1.87-1.93zm9.715 3.78h-3.118v-4.8h-1.176v5.9h4.294v-1.1zm6.368 0h-3.119v-4.8h-1.176v5.9h4.295v-1.1zm6.48.021h-3.231V17.86h3.05v-1.08h-3.05v-1.306h3.198v-1.079H45.81v5.9h4.408v-1.079zm2.47-4.82v5.899h2.432c1.846 0 3.064-1.172 3.064-2.95 0-1.778-1.218-2.95-3.064-2.95h-2.431zm2.42 1.099c1.243 0 1.845.767 1.845 1.85 0 1.07-.602 1.85-1.846 1.85h-1.243v-3.7h1.243zM5.777 28.403c1.36 0 2.13-.68 2.13-1.808 0-1.127-.77-1.807-2.13-1.807h-2.29v6.024h.758v-2.41h1.532zm-.018-2.9c.891 0 1.36.36 1.36 1.092 0 .732-.469 1.093-1.36 1.093H4.245v-2.186h1.514zm4.682 1.135a2.55 2.55 0 00-1.583.53l.33.524c.294-.219.68-.417 1.163-.417.744 0 1.157.37 1.175 1.123H10.32c-1.09 0-1.683.525-1.683 1.24 0 .727.53 1.26 1.437 1.26.599 0 1.115-.236 1.45-.52v.434h.706V28.36c0-1.11-.667-1.722-1.79-1.722zm-.224 3.64c-.55 0-.826-.296-.826-.64 0-.34.263-.654 1.003-.654h1.132v.67c-.353.384-.822.625-1.309.625zm5.352-3.64c-.486 0-.912.224-1.196.624v-.538h-.693v4.088h.701v-2.276c0-.753.44-1.23 1.063-1.23.233 0 .508.055.702.159l.172-.693a1.833 1.833 0 00-.749-.134zm3.042 0c-.573 0-1.11.168-1.584.53l.332.524c.292-.219.68-.417 1.161-.417.745 0 1.158.37 1.175 1.123H18.49c-1.088 0-1.682.525-1.682 1.24 0 .727.53 1.26 1.437 1.26.598 0 1.115-.236 1.45-.52v.434h.706V28.36c0-1.11-.667-1.722-1.79-1.722zm-.224 3.64c-.55 0-.826-.296-.826-.64 0-.34.262-.654 1.003-.654h1.131v.67c-.352.384-.822.625-1.308.625zm3.575-5.49v6.024h2.453c1.342 0 2.207-.507 2.207-1.682 0-.736-.422-1.214-.994-1.42.512-.198.86-.663.86-1.321 0-1.158-.924-1.601-2.194-1.601h-2.332zm2.418 3.326c.87 0 1.446.215 1.446.986 0 .783-.577 1.002-1.446 1.002h-1.661v-1.988h1.661zm-.116-2.616c.796 0 1.433.18 1.433.947 0 .787-.628.963-1.424.963h-1.554v-1.91h1.545zm5.114 1.14c-.573 0-1.11.168-1.584.53l.331.524c.293-.219.68-.417 1.162-.417.745 0 1.158.37 1.175 1.123h-1.205c-1.088 0-1.682.525-1.682 1.24 0 .727.529 1.26 1.437 1.26.598 0 1.114-.236 1.45-.52v.434h.706V28.36c0-1.11-.667-1.722-1.79-1.722zm-.224 3.64c-.55 0-.826-.296-.826-.64 0-.34.262-.654 1.002-.654h1.132v.67c-.353.384-.822.625-1.308.625zm6.522-3.192c-.396-.271-.985-.444-1.63-.444-.995 0-1.645.474-1.645 1.257 0 .62.444 1.033 1.36 1.145l.474.056c.555.069.822.258.822.56 0 .404-.414.623-1.085.623-.684 0-1.093-.198-1.398-.434l-.328.525c.538.404 1.218.525 1.722.525 1.114 0 1.811-.504 1.811-1.283 0-.675-.512-1.041-1.38-1.157l-.474-.06c-.495-.06-.792-.212-.792-.539 0-.37.361-.606.92-.606.539 0 1.06.202 1.318.378l.305-.546zm2.94-.448c-1.175 0-2.031.874-2.031 2.13 0 1.274.86 2.13 2.074 2.13.603 0 1.17-.146 1.678-.62l-.374-.481a1.92 1.92 0 01-1.26.486c-.702 0-1.292-.417-1.39-1.265h3.214c.004-.078.013-.172.013-.262-.009-1.253-.81-2.118-1.924-2.118zm-.013.624c.663 0 1.132.465 1.218 1.188h-2.5c.107-.697.56-1.188 1.282-1.188zm9.142 1.76h-3.77v.642h3.77v-.642zm0-1.622h-3.77v.641h3.77V27.4zm7.197-2.612h-3.293l-.069 3.081h1.33c1.158 0 1.562.53 1.562 1.153 0 .642-.46 1.184-1.32 1.184a2.069 2.069 0 01-1.567-.723l-.482.473c.508.624 1.196.943 2.053.943 1.136 0 2.074-.689 2.074-1.937 0-.96-.68-1.782-2.096-1.782h-.865l.052-1.704h2.62v-.688zm3.839-.086c-1.381 0-2.5 1.162-2.5 3.098 0 1.932 1.119 3.099 2.5 3.099 1.377 0 2.5-1.167 2.5-3.099 0-1.936-1.123-3.098-2.5-3.098zm0 .701c.964 0 1.739.848 1.739 2.397 0 1.55-.775 2.397-1.739 2.397-.955 0-1.739-.848-1.739-2.397 0-1.55.784-2.397 1.739-2.397zm5.943 1.235c-.646 0-1.124.25-1.442.633v-.547h-.701v5.81h.701v-2.268c.318.383.796.633 1.442.633 1.144 0 2.044-.896 2.044-2.13 0-1.236-.9-2.13-2.044-2.13zm-.082.663c.835 0 1.403.654 1.403 1.467 0 .814-.555 1.472-1.403 1.472-.826 0-1.403-.632-1.403-1.472 0-.835.577-1.467 1.403-1.467zm6.636-.577h-.83l-1.184 1.51-1.175-1.51h-.86l1.574 2.001-1.614 2.087h.822l1.214-1.57 1.23 1.57h.866l-1.618-2.095 1.575-1.993zM134.43 3.395h-4.159v1.062h2.802l-2.427 4.838h1.34l2.444-5.01v-.89zm4.33-.105c-1.412 0-2.541 1.146-2.541 3.055 0 1.909 1.129 3.055 2.541 3.055 1.407 0 2.545-1.146 2.545-3.055 0-1.909-1.138-3.055-2.545-3.055zm0 1.091c.758 0 1.357.674 1.357 1.964s-.599 1.964-1.357 1.964c-.755 0-1.357-.674-1.357-1.964s.602-1.964 1.357-1.964zm6.195-1.091c-.94 0-1.644.687-1.644 1.605 0 .927.704 1.614 1.644 1.614.944 0 1.648-.687 1.648-1.614 0-.918-.704-1.605-1.648-1.605zm0 .88c.413 0 .712.304.712.725 0 .43-.299.734-.712.734-.405 0-.708-.304-.708-.734 0-.421.303-.725.708-.725zm4.737-.775h-1.1l-3.957 5.9h1.104l3.953-5.9zm-.308 2.786c-.94 0-1.643.7-1.643 1.61 0 .922.703 1.61 1.643 1.61.944 0 1.648-.688 1.648-1.61 0-.92-.704-1.61-1.648-1.61zm0 .88c.413 0 .712.304.712.73 0 .425-.299.729-.712.729-.409 0-.708-.304-.708-.73 0-.425.299-.729.708-.729zm-14.144 7.86c-.742-.442-1.429-.627-2.255-.627-1.256 0-2.352.64-2.352 1.871 0 1.066.759 1.526 1.8 1.69l.375.059c.822.13 1.252.282 1.252.691 0 .455-.506.712-1.159.712-.759 0-1.454-.295-1.88-.636l-.611.948c.632.51 1.593.771 2.486.771 1.269 0 2.415-.62 2.415-1.921 0-1.029-.826-1.48-1.879-1.652l-.333-.055c-.708-.118-1.218-.249-1.218-.683 0-.446.468-.708 1.129-.708.645 0 1.21.215 1.673.502l.557-.961zm5.19-.635c-1.816 0-3.097 1.285-3.097 3.059 0 1.774 1.281 3.06 3.097 3.06 1.079 0 1.968-.48 2.491-1.248l-.961-.691c-.354.514-.885.81-1.538.81-1.041 0-1.859-.747-1.863-1.931 0-1.146.792-1.93 1.863-1.93.657 0 1.192.303 1.525.813l1.012-.62c-.481-.825-1.442-1.322-2.529-1.322zm4.812.11v5.899h1.176v-2.347h.345l1.719 2.347h1.425l-1.816-2.364c1.133-.11 1.807-.771 1.807-1.74 0-1.13-.754-1.796-2.161-1.796h-2.495zm2.474 1.082c.623 0 .973.223.973.712 0 .498-.333.734-.973.734h-1.298v-1.446h1.298zm7.317-1.192c-1.816 0-3.097 1.298-3.097 3.059 0 1.762 1.281 3.06 3.097 3.06 1.817 0 3.102-1.299 3.102-3.06 0-1.761-1.285-3.06-3.102-3.06zm0 1.129c1.088 0 1.871.784 1.871 1.93s-.783 1.93-1.871 1.93c-1.083 0-1.871-.784-1.871-1.93s.788-1.93 1.871-1.93zm9.715 3.78h-3.118v-4.8h-1.176v5.9h4.294v-1.1zm6.368 0h-3.119v-4.8h-1.176v5.9h4.295v-1.1zm6.481.021h-3.233V17.86h3.052v-1.08h-3.052v-1.306h3.199v-1.079h-4.374v5.9h4.408v-1.079zm2.469-4.82v5.899h2.432c1.846 0 3.064-1.172 3.064-2.95 0-1.778-1.218-2.95-3.064-2.95h-2.432zm2.419 1.099c1.243 0 1.846.767 1.846 1.85 0 1.07-.603 1.85-1.846 1.85h-1.243v-3.7h1.243zm-49.329 12.908c1.359 0 2.13-.68 2.13-1.808 0-1.127-.771-1.807-2.13-1.807h-2.29v6.024h.758v-2.41h1.532zm-.018-2.9c.891 0 1.36.36 1.36 1.092 0 .732-.469 1.093-1.36 1.093h-1.514v-2.186h1.514zm4.682 1.135c-.572 0-1.11.168-1.584.53l.332.524c.292-.219.68-.417 1.162-.417.744 0 1.157.37 1.175 1.123H137.7c-1.089 0-1.683.525-1.683 1.24 0 .727.529 1.26 1.437 1.26.598 0 1.115-.236 1.451-.52v.434h.705V28.36c0-1.11-.667-1.722-1.79-1.722zm-.224 3.64c-.551 0-.826-.296-.826-.64 0-.34.263-.654 1.003-.654h1.132v.67c-.353.384-.822.625-1.309.625zm5.352-3.64c-.486 0-.912.224-1.196.624v-.538h-.693v4.088h.701v-2.276c0-.753.439-1.23 1.063-1.23a1.6 1.6 0 01.702.159l.172-.693a1.834 1.834 0 00-.749-.134zm3.042 0c-.573 0-1.11.168-1.584.53l.332.524c.292-.219.679-.417 1.161-.417.745 0 1.158.37 1.175 1.123h-1.205c-1.088 0-1.682.525-1.682 1.24 0 .727.529 1.26 1.437 1.26.598 0 1.115-.236 1.45-.52v.434h.706V28.36c0-1.11-.667-1.722-1.79-1.722zm-.224 3.64c-.551 0-.826-.296-.826-.64 0-.34.262-.654 1.002-.654h1.132v.67c-.353.384-.822.625-1.308.625zm3.574-5.49v6.024h2.453c1.343 0 2.208-.507 2.208-1.682 0-.736-.422-1.214-.994-1.42.512-.198.861-.663.861-1.321 0-1.158-.926-1.601-2.195-1.601h-2.333zm2.419 3.326c.869 0 1.446.215 1.446.986 0 .783-.577 1.002-1.446 1.002h-1.661v-1.988h1.661zm-.116-2.616c.796 0 1.433.18 1.433.947 0 .787-.629.963-1.425.963h-1.553v-1.91h1.545zm5.114 1.14a2.55 2.55 0 00-1.584.53l.331.524c.293-.219.68-.417 1.162-.417.745 0 1.158.37 1.175 1.123h-1.205c-1.089 0-1.682.525-1.682 1.24 0 .727.529 1.26 1.437 1.26.598 0 1.114-.236 1.45-.52v.434h.706V28.36c0-1.11-.667-1.722-1.79-1.722zm-.224 3.64c-.551 0-.826-.296-.826-.64 0-.34.262-.654 1.002-.654h1.132v.67c-.353.384-.822.625-1.308.625zm6.522-3.192c-.396-.271-.985-.444-1.631-.444-.994 0-1.644.474-1.644 1.257 0 .62.444 1.033 1.36 1.145l.474.056c.555.069.821.258.821.56 0 .404-.413.623-1.084.623-.684 0-1.093-.198-1.399-.434l-.327.525c.538.404 1.218.525 1.722.525 1.114 0 1.811-.504 1.811-1.283 0-.675-.512-1.041-1.381-1.157l-.473-.06c-.495-.06-.792-.212-.792-.539 0-.37.361-.606.921-.606.538 0 1.058.202 1.317.378l.305-.546zm2.94-.448c-1.175 0-2.031.874-2.031 2.13 0 1.274.86 2.13 2.074 2.13.602 0 1.171-.146 1.678-.62l-.374-.481a1.92 1.92 0 01-1.261.486c-.701 0-1.291-.417-1.39-1.265h3.215c.004-.078.013-.172.013-.262-.009-1.253-.809-2.118-1.924-2.118zm-.013.624c.663 0 1.132.465 1.218 1.188h-2.5c.107-.697.559-1.188 1.282-1.188zm9.142 1.76h-3.77v.642h3.77v-.642zm0-1.622h-3.77v.641h3.77V27.4zm5.729-2.69l-2.453 1.042v.757l1.726-.74v5.044h.727V24.71zm5.09.078h-3.292l-.069 3.081h1.33c1.157 0 1.562.53 1.562 1.153 0 .642-.461 1.184-1.321 1.184a2.07 2.07 0 01-1.567-.723l-.482.473c.508.624 1.197.943 2.053.943 1.136 0 2.074-.689 2.074-1.937 0-.96-.68-1.782-2.095-1.782h-.865l.051-1.704h2.621v-.688zm3.672 1.85c-.646 0-1.124.25-1.442.633v-.547h-.701v5.81h.701v-2.268c.318.383.796.633 1.442.633 1.144 0 2.044-.896 2.044-2.13 0-1.236-.9-2.13-2.044-2.13zm-.082.663c.835 0 1.403.654 1.403 1.467 0 .814-.555 1.472-1.403 1.472-.826 0-1.403-.632-1.403-1.472 0-.835.577-1.467 1.403-1.467zm6.636-.577h-.831l-1.183 1.51-1.175-1.51h-.861l1.575 2.001-1.614 2.087h.822l1.214-1.57 1.231 1.57h.865l-1.618-2.095 1.575-1.993zm1.087 3l-.25 2.216h.607l.465-2.216h-.822zm6.133-3.086c-1.175 0-2.031.874-2.031 2.13 0 1.274.861 2.13 2.074 2.13.603 0 1.171-.146 1.678-.62l-.374-.481a1.92 1.92 0 01-1.261.486c-.701 0-1.291-.417-1.39-1.265h3.215c.004-.078.013-.172.013-.262-.009-1.253-.809-2.118-1.924-2.118zm-.013.624c.663 0 1.132.465 1.218 1.188h-2.5c.107-.697.559-1.188 1.282-1.188zm5.152-.624c-.474 0-1.003.16-1.339.62v-.534h-.697v4.088h.702V28.52c0-.762.55-1.214 1.209-1.214.71 0 1.123.444 1.123 1.197v2.31h.706v-2.539c0-.98-.697-1.635-1.704-1.635zm5.867.086h-1.717v-1.282h-.706v1.282h-.873v.642h.873v2.005c0 1.041.529 1.528 1.416 1.528a2.06 2.06 0 001.226-.405l-.331-.53c-.232.16-.534.276-.835.276-.443 0-.77-.267-.77-.882v-1.992h1.717v-.642zm2.837-.086c-1.175 0-2.031.874-2.031 2.13 0 1.274.861 2.13 2.074 2.13.603 0 1.171-.146 1.679-.62l-.375-.481a1.919 1.919 0 01-1.261.486c-.701 0-1.291-.417-1.39-1.265h3.215c.004-.078.013-.172.013-.262-.009-1.253-.809-2.118-1.924-2.118zm-.013.624c.663 0 1.132.465 1.218 1.188h-2.5c.107-.697.559-1.188 1.282-1.188zm5.005-.624c-.486 0-.912.224-1.196.624v-.538h-.693v4.088h.702v-2.276c0-.753.439-1.23 1.063-1.23.232 0 .507.055.701.159l.172-.693a1.831 1.831 0 00-.749-.134zm5.649 0c-1.175 0-2.031.874-2.031 2.13 0 1.274.86 2.13 2.074 2.13.602 0 1.171-.146 1.678-.62l-.374-.481a1.92 1.92 0 01-1.261.486c-.701 0-1.291-.417-1.39-1.265h3.215c.004-.078.013-.172.013-.262-.009-1.253-.809-2.118-1.924-2.118zm-.013.624c.663 0 1.132.465 1.218 1.188h-2.5c.107-.697.559-1.188 1.282-1.188zm6.694-.538h-.745l-1.377 3.378-1.373-3.378h-.766l1.722 4.093h.826l1.713-4.093zm2.531-.086c-1.175 0-2.031.874-2.031 2.13 0 1.274.86 2.13 2.074 2.13.602 0 1.17-.146 1.678-.62l-.374-.481a1.92 1.92 0 01-1.261.486c-.702 0-1.291-.417-1.39-1.265h3.215c.004-.078.012-.172.012-.262-.008-1.253-.809-2.118-1.923-2.118zm-.013.624c.663 0 1.132.465 1.218 1.188h-2.5c.107-.697.559-1.188 1.282-1.188zm5.152-.624c-.474 0-1.003.16-1.339.62v-.534h-.697v4.088h.701V28.52c0-.762.551-1.214 1.21-1.214.71 0 1.123.444 1.123 1.197v2.31h.706v-2.539c0-.98-.697-1.635-1.704-1.635zm5.867.086h-1.717v-1.282h-.706v1.282h-.874v.642h.874v2.005c0 1.041.529 1.528 1.416 1.528a2.06 2.06 0 001.226-.405l-.331-.53c-.232.16-.534.276-.835.276-.443 0-.77-.267-.77-.882v-1.992h1.717v-.642zm4.184.362c-.396-.271-.986-.444-1.631-.444-.994 0-1.644.474-1.644 1.257 0 .62.443 1.033 1.36 1.145l.473.056c.555.069.822.258.822.56 0 .404-.413.623-1.084.623-.685 0-1.093-.198-1.399-.434l-.327.525c.538.404 1.218.525 1.721.525 1.115 0 1.812-.504 1.812-1.283 0-.675-.512-1.041-1.381-1.157l-.474-.06c-.495-.06-.792-.212-.792-.539 0-.37.362-.606.921-.606.538 0 1.059.202 1.317.378l.306-.546zm6.118-.362h-1.571v-.697c0-.53.215-.839.701-.839.302 0 .607.108.822.237l.254-.59a2.122 2.122 0 00-1.123-.305c-.964 0-1.36.64-1.36 1.497v.697h-.908v.642h.908v3.447h.706v-3.447h1.571v-.642zm1.736 0h-.702v4.088h.702v-4.088zm-.358-1.94a.491.491 0 00-.494.503c0 .28.215.49.494.49a.49.49 0 00.504-.49.499.499 0 00-.504-.503zm3.739 1.854c-.486 0-.912.224-1.196.624v-.538h-.693v4.088h.701v-2.276c0-.753.439-1.23 1.063-1.23a1.6 1.6 0 01.702.159l.172-.693a1.834 1.834 0 00-.749-.134zm3.27 0c-1.175 0-2.031.874-2.031 2.13 0 1.274.86 2.13 2.074 2.13.602 0 1.17-.146 1.678-.62l-.374-.481a1.92 1.92 0 01-1.261.486c-.701 0-1.291-.417-1.39-1.265h3.215c.004-.078.013-.172.013-.262-.009-1.253-.809-2.118-1.924-2.118zm-.013.624c.663 0 1.132.465 1.218 1.188h-2.5c.107-.697.559-1.188 1.282-1.188z" fill="#fff"/><path fill="#1E1E1E" d="M.047 112.217h106.402v65.857H.047z"/><path stroke="#B0B0B0" stroke-width="1.721" d="M3.921 115.954h98.548V200.3H3.921z"/><path fill="#B0B0B0" d="M37.055 154.738h35.074v1.288H37.055zm0 2.776h35.074v1.288H37.055zm0 2.576h35.074v1.288H37.055zm10.504 5.437h14.069v4.756H47.559zM37.055 143.18h35.074v7.926H37.055zm6.142-4.711h22.887v1.09H43.197z"/><path stroke="#fff" stroke-width=".43" d="M.262 46.606h105.972v65.427H.262z"/><path d="M2.816 222.824l-2.55 1.028v1.146l1.412-.573v4.391h1.138v-5.992zm4.927-.013c-1.411 0-2.54 1.146-2.54 3.055 0 1.91 1.129 3.056 2.54 3.056 1.408 0 2.546-1.146 2.546-3.056 0-1.909-1.138-3.055-2.546-3.055zm0 1.092c.759 0 1.357.674 1.357 1.963 0 1.29-.598 1.964-1.357 1.964-.754 0-1.357-.674-1.357-1.964 0-1.289.603-1.963 1.357-1.963zm7.215-1.092c-1.411 0-2.54 1.146-2.54 3.055 0 1.91 1.129 3.056 2.54 3.056 1.408 0 2.546-1.146 2.546-3.056 0-1.909-1.138-3.055-2.546-3.055zm0 1.092c.759 0 1.357.674 1.357 1.963 0 1.29-.598 1.964-1.357 1.964-.754 0-1.357-.674-1.357-1.964 0-1.289.603-1.963 1.357-1.963zm6.196-1.092c-.94 0-1.644.687-1.644 1.606 0 .927.704 1.614 1.644 1.614.944 0 1.648-.687 1.648-1.614 0-.919-.704-1.606-1.648-1.606zm0 .881c.413 0 .712.303.712.725 0 .43-.3.733-.712.733-.405 0-.708-.303-.708-.733 0-.422.303-.725.708-.725zm4.736-.775h-1.1l-3.957 5.899h1.105l3.953-5.899zm-.307 2.785c-.94 0-1.644.7-1.644 1.61 0 .923.704 1.61 1.644 1.61.944 0 1.648-.687 1.648-1.61 0-.919-.704-1.61-1.648-1.61zm0 .881c.413 0 .712.303.712.729s-.3.729-.712.729c-.409 0-.708-.303-.708-.729s.299-.729.708-.729zm-20.306 7.86c-.742-.442-1.429-.628-2.255-.628-1.256 0-2.351.641-2.351 1.872 0 1.066.758 1.525 1.799 1.689l.375.059c.822.131 1.252.283 1.252.692 0 .455-.506.712-1.16.712-.758 0-1.453-.295-1.879-.637l-.61.949c.631.509 1.592.771 2.486.771 1.268 0 2.414-.62 2.414-1.922 0-1.028-.826-1.479-1.88-1.652l-.332-.055c-.708-.118-1.218-.248-1.218-.682 0-.447.468-.708 1.13-.708.644 0 1.209.215 1.672.501l.557-.961zm5.19-.636c-1.816 0-3.097 1.285-3.097 3.059 0 1.775 1.281 3.06 3.097 3.06 1.08 0 1.968-.48 2.49-1.247l-.96-.692c-.354.515-.885.81-1.538.81-1.041 0-1.859-.746-1.863-1.931 0-1.146.792-1.93 1.863-1.93.657 0 1.193.304 1.525.814l1.012-.62c-.48-.826-1.441-1.323-2.529-1.323zm4.812.11v5.899h1.176v-2.347h.345l1.72 2.347h1.424l-1.816-2.364c1.133-.109 1.808-.771 1.808-1.74 0-1.13-.755-1.795-2.162-1.795h-2.495zM17.753 235c.623 0 .973.223.973.712 0 .497-.333.733-.973.733h-1.298V235h1.298zm7.317-1.193c-1.816 0-3.097 1.298-3.097 3.059 0 1.762 1.281 3.06 3.097 3.06 1.817 0 3.102-1.298 3.102-3.06 0-1.761-1.285-3.059-3.102-3.059zm0 1.129c1.088 0 1.872.784 1.872 1.93 0 1.147-.784 1.931-1.872 1.931-1.083 0-1.87-.784-1.87-1.931 0-1.146.787-1.93 1.87-1.93zm9.715 3.781h-3.118v-4.8H30.49v5.899h4.294v-1.099zm6.368 0h-3.119v-4.8H36.86v5.899h4.294v-1.099zm6.48.021h-3.231v-1.357h3.05v-1.079h-3.05v-1.307H47.6v-1.078h-4.374v5.899h4.408v-1.078zm2.47-4.821v5.899h2.432c1.846 0 3.064-1.171 3.064-2.95 0-1.778-1.218-2.949-3.064-2.949h-2.431zm2.42 1.099c1.243 0 1.845.767 1.845 1.85 0 1.071-.602 1.851-1.846 1.851H51.28v-3.701h1.243zm-49.33 12.908c1.36 0 2.13-.68 2.13-1.807 0-1.128-.77-1.808-2.13-1.808H.903v6.025h.758v-2.41h1.532zm-.018-2.9c.891 0 1.36.361 1.36 1.093 0 .731-.469 1.093-1.36 1.093H1.661v-2.186h1.514zm4.682 1.136c-.572 0-1.11.168-1.583.529l.33.525c.294-.219.68-.417 1.163-.417.744 0 1.157.37 1.175 1.123H7.737c-1.09 0-1.683.525-1.683 1.239 0 .727.53 1.261 1.437 1.261.599 0 1.115-.237 1.45-.521v.435h.706v-2.453c0-1.11-.667-1.721-1.79-1.721zm-.224 3.64c-.55 0-.826-.297-.826-.641 0-.34.263-.654 1.003-.654h1.132v.671c-.353.383-.822.624-1.309.624zm5.352-3.64c-.486 0-.912.223-1.196.624v-.538h-.693v4.088h.701v-2.277c0-.753.44-1.23 1.063-1.23.233 0 .508.056.702.159l.172-.693a1.827 1.827 0 00-.749-.133zm3.042 0c-.573 0-1.11.168-1.584.529l.332.525c.292-.219.68-.417 1.162-.417.744 0 1.157.37 1.174 1.123h-1.205c-1.088 0-1.682.525-1.682 1.239 0 .727.53 1.261 1.437 1.261.598 0 1.115-.237 1.45-.521v.435h.706v-2.453c0-1.11-.667-1.721-1.79-1.721zm-.224 3.64c-.55 0-.826-.297-.826-.641 0-.34.262-.654 1.003-.654h1.131v.671c-.352.383-.822.624-1.308.624zm3.575-5.491v6.025h2.453c1.342 0 2.207-.508 2.207-1.683 0-.736-.422-1.213-.994-1.42.512-.198.86-.662.86-1.321 0-1.158-.924-1.601-2.194-1.601h-2.332zm2.418 3.327c.87 0 1.446.215 1.446.985 0 .783-.577 1.003-1.446 1.003h-1.661v-1.988h1.661zm-.116-2.617c.796 0 1.433.181 1.433.947 0 .788-.628.964-1.424.964h-1.554v-1.911h1.545zm5.114 1.141c-.573 0-1.11.168-1.584.529l.331.525c.293-.219.68-.417 1.162-.417.745 0 1.158.37 1.175 1.123h-1.205c-1.088 0-1.682.525-1.682 1.239 0 .727.529 1.261 1.437 1.261.598 0 1.115-.237 1.45-.521v.435h.706v-2.453c0-1.11-.667-1.721-1.79-1.721zm-.224 3.64c-.55 0-.826-.297-.826-.641 0-.34.262-.654 1.002-.654h1.132v.671c-.353.383-.822.624-1.308.624zm6.522-3.193c-.396-.271-.985-.443-1.63-.443-.995 0-1.645.473-1.645 1.257 0 .619.444 1.032 1.36 1.144l.474.056c.555.069.822.258.822.56 0 .404-.414.624-1.085.624-.684 0-1.093-.198-1.399-.435l-.327.525c.538.405 1.218.525 1.722.525 1.114 0 1.812-.503 1.812-1.282 0-.676-.513-1.042-1.382-1.158l-.473-.06c-.495-.06-.792-.211-.792-.538 0-.37.361-.607.92-.607.539 0 1.06.202 1.318.379l.305-.547zm2.94-.447c-1.175 0-2.031.873-2.031 2.13 0 1.274.86 2.13 2.074 2.13.603 0 1.17-.146 1.678-.62l-.374-.482a1.917 1.917 0 01-1.26.487c-.702 0-1.292-.418-1.39-1.266h3.214c.004-.077.013-.172.013-.262-.009-1.252-.81-2.117-1.924-2.117zm-.013.624c.663 0 1.132.464 1.218 1.187h-2.5c.107-.697.56-1.187 1.282-1.187zm9.142 1.76h-3.77v.641h3.77v-.641zm0-1.623h-3.77v.642h3.77v-.642zm6.052-2.698c-1.382 0-2.5 1.162-2.5 3.099 0 1.932 1.118 3.098 2.5 3.098 1.377 0 2.5-1.166 2.5-3.098 0-1.937-1.123-3.099-2.5-3.099zm0 .702c.964 0 1.738.847 1.738 2.397 0 1.549-.774 2.397-1.738 2.397-.956 0-1.739-.848-1.739-2.397 0-1.55.783-2.397 1.739-2.397zm5.942 1.235c-.645 0-1.123.249-1.441.632v-.546h-.702v5.809h.702v-2.268c.318.383.796.633 1.441.633 1.145 0 2.044-.895 2.044-2.13 0-1.235-.899-2.13-2.044-2.13zm-.081.662c.834 0 1.403.655 1.403 1.468s-.556 1.472-1.403 1.472c-.827 0-1.403-.633-1.403-1.472 0-.835.576-1.468 1.403-1.468zm6.635-.576h-.83l-1.184 1.51-1.174-1.51h-.861l1.575 2.001-1.614 2.087h.822l1.214-1.571 1.23 1.571h.865l-1.618-2.096 1.575-1.992zm71.619-21.699c.304-.345.636-.649 1.197-.649.544 0 .902.367.902.881 0 .371-.173.696-.485 1.012l-2.086 2.136v.889h3.898v-1.066H136.5l1.26-1.31c.484-.502.851-1.003.851-1.724 0-1.129-.767-1.905-2.002-1.905-1.095 0-1.694.599-2.014 1.016l.733.72zm7.973-1.736c-1.412 0-2.541 1.146-2.541 3.055 0 1.91 1.129 3.056 2.541 3.056 1.408 0 2.546-1.146 2.546-3.056 0-1.909-1.138-3.055-2.546-3.055zm0 1.092c.759 0 1.357.674 1.357 1.963 0 1.29-.598 1.964-1.357 1.964-.754 0-1.357-.674-1.357-1.964 0-1.289.603-1.963 1.357-1.963zm7.215-1.092c-1.411 0-2.541 1.146-2.541 3.055 0 1.91 1.13 3.056 2.541 3.056 1.408 0 2.546-1.146 2.546-3.056 0-1.909-1.138-3.055-2.546-3.055zm0 1.092c.759 0 1.357.674 1.357 1.963 0 1.29-.598 1.964-1.357 1.964-.754 0-1.357-.674-1.357-1.964 0-1.289.603-1.963 1.357-1.963zm6.196-1.092c-.94 0-1.644.687-1.644 1.606 0 .927.704 1.614 1.644 1.614.944 0 1.647-.687 1.647-1.614 0-.919-.703-1.606-1.647-1.606zm0 .881c.413 0 .712.303.712.725 0 .43-.299.733-.712.733-.405 0-.708-.303-.708-.733 0-.422.303-.725.708-.725zm4.736-.775h-1.1l-3.957 5.899h1.104l3.953-5.899zm-.307 2.785c-.94 0-1.644.7-1.644 1.61 0 .923.704 1.61 1.644 1.61.944 0 1.647-.687 1.647-1.61 0-.919-.703-1.61-1.647-1.61zm0 .881c.413 0 .712.303.712.729s-.299.729-.712.729c-.409 0-.708-.303-.708-.729s.299-.729.708-.729zm-21.599 7.86c-.741-.442-1.428-.628-2.254-.628-1.256 0-2.352.641-2.352 1.872 0 1.066.759 1.525 1.8 1.689l.375.059c.821.131 1.251.283 1.251.692 0 .455-.505.712-1.159.712-.758 0-1.453-.295-1.879-.637l-.611.949c.632.509 1.593.771 2.486.771 1.269 0 2.415-.62 2.415-1.922 0-1.028-.826-1.479-1.88-1.652l-.333-.055c-.707-.118-1.217-.248-1.217-.682 0-.447.467-.708 1.129-.708.645 0 1.209.215 1.673.501l.556-.961zm5.191-.636c-1.816 0-3.098 1.285-3.098 3.059 0 1.775 1.282 3.06 3.098 3.06 1.079 0 1.968-.48 2.49-1.247l-.96-.692c-.354.515-.885.81-1.539.81-1.04 0-1.858-.746-1.862-1.931 0-1.146.792-1.93 1.862-1.93.658 0 1.193.304 1.526.814l1.011-.62c-.48-.826-1.441-1.323-2.528-1.323zm4.812.11v5.899h1.175v-2.347h.346l1.719 2.347h1.425l-1.817-2.364c1.134-.109 1.808-.771 1.808-1.74 0-1.13-.754-1.795-2.162-1.795h-2.494zm2.473 1.083c.624 0 .974.223.974.712 0 .497-.333.733-.974.733h-1.298V235h1.298zm7.318-1.193c-1.816 0-3.097 1.298-3.097 3.059 0 1.762 1.281 3.06 3.097 3.06s3.102-1.298 3.102-3.06c0-1.761-1.286-3.059-3.102-3.059zm0 1.129c1.087 0 1.871.784 1.871 1.93 0 1.147-.784 1.931-1.871 1.931-1.083 0-1.871-.784-1.871-1.931 0-1.146.788-1.93 1.871-1.93zm9.715 3.781h-3.119v-4.8h-1.175v5.899h4.294v-1.099zm6.367 0H172.3v-4.8h-1.176v5.899h4.294v-1.099zm6.481.021h-3.232v-1.357h3.051v-1.079h-3.051v-1.307h3.199v-1.078h-4.375v5.899h4.408v-1.078zm2.47-4.821v5.899h2.432c1.846 0 3.063-1.171 3.063-2.95 0-1.778-1.217-2.949-3.063-2.949h-2.432zm2.419 1.099c1.243 0 1.846.767 1.846 1.85 0 1.071-.603 1.851-1.846 1.851h-1.243v-3.701h1.243zm-49.33 12.908c1.36 0 2.13-.68 2.13-1.807 0-1.128-.77-1.808-2.13-1.808h-2.289v6.025h.757v-2.41h1.532zm-.017-2.9c.891 0 1.36.361 1.36 1.093 0 .731-.469 1.093-1.36 1.093h-1.515v-2.186h1.515zm4.682 1.136c-.573 0-1.11.168-1.584.529l.332.525c.292-.219.679-.417 1.161-.417.745 0 1.158.37 1.175 1.123h-1.205c-1.088 0-1.682.525-1.682 1.239 0 .727.529 1.261 1.437 1.261.598 0 1.115-.237 1.45-.521v.435h.706v-2.453c0-1.11-.667-1.721-1.79-1.721zm-.224 3.64c-.551 0-.826-.297-.826-.641 0-.34.262-.654 1.002-.654h1.132v.671c-.353.383-.822.624-1.308.624zm5.352-3.64c-.487 0-.913.223-1.197.624v-.538h-.692v4.088h.701v-2.277c0-.753.439-1.23 1.063-1.23.232 0 .508.056.701.159l.173-.693a1.832 1.832 0 00-.749-.133zm3.042 0c-.573 0-1.111.168-1.584.529l.331.525c.293-.219.68-.417 1.162-.417.745 0 1.158.37 1.175 1.123h-1.205c-1.089 0-1.683.525-1.683 1.239 0 .727.53 1.261 1.438 1.261a2.28 2.28 0 001.45-.521v.435h.706v-2.453c0-1.11-.667-1.721-1.79-1.721zm-.224 3.64c-.551 0-.827-.297-.827-.641 0-.34.263-.654 1.003-.654h1.132v.671c-.353.383-.822.624-1.308.624zm3.574-5.491v6.025h2.453c1.343 0 2.208-.508 2.208-1.683 0-.736-.422-1.213-.994-1.42.512-.198.86-.662.86-1.321 0-1.158-.925-1.601-2.194-1.601h-2.333zm2.419 3.327c.869 0 1.446.215 1.446.985 0 .783-.577 1.003-1.446 1.003h-1.661v-1.988h1.661zm-.117-2.617c.797 0 1.434.181 1.434.947 0 .788-.629.964-1.425.964h-1.553v-1.911h1.544zm5.114 1.141c-.572 0-1.11.168-1.583.529l.331.525c.293-.219.68-.417 1.162-.417.745 0 1.158.37 1.175 1.123h-1.205c-1.089 0-1.683.525-1.683 1.239 0 .727.53 1.261 1.438 1.261a2.28 2.28 0 001.45-.521v.435h.706v-2.453c0-1.11-.667-1.721-1.791-1.721zm-.223 3.64c-.551 0-.827-.297-.827-.641 0-.34.263-.654 1.003-.654h1.132v.671c-.353.383-.822.624-1.308.624zm6.522-3.193c-.396-.271-.986-.443-1.631-.443-.994 0-1.644.473-1.644 1.257 0 .619.443 1.032 1.36 1.144l.473.056c.555.069.822.258.822.56 0 .404-.413.624-1.084.624-.685 0-1.093-.198-1.399-.435l-.327.525c.538.405 1.218.525 1.721.525 1.115 0 1.812-.503 1.812-1.282 0-.676-.512-1.042-1.381-1.158l-.474-.06c-.494-.06-.791-.211-.791-.538 0-.37.361-.607.92-.607.538 0 1.059.202 1.317.379l.306-.547zm2.94-.447c-1.175 0-2.032.873-2.032 2.13 0 1.274.861 2.13 2.075 2.13.602 0 1.17-.146 1.678-.62l-.374-.482a1.92 1.92 0 01-1.261.487c-.702 0-1.291-.418-1.39-1.266h3.214c.005-.077.013-.172.013-.262-.008-1.252-.809-2.117-1.923-2.117zm-.013.624c.663 0 1.132.464 1.218 1.187h-2.501c.108-.697.56-1.187 1.283-1.187zm9.141 1.76h-3.77v.641h3.77v-.641zm0-1.623h-3.77v.642h3.77v-.642zm6.018.814h-2.419v.637h2.419v-.637zm4.802-3.426h-3.292l-.069 3.081h1.33c1.157 0 1.562.53 1.562 1.154 0 .641-.461 1.183-1.322 1.183a2.07 2.07 0 01-1.566-.723l-.482.474c.508.624 1.196.942 2.053.942 1.136 0 2.074-.688 2.074-1.936 0-.96-.68-1.782-2.096-1.782h-.865l.052-1.704h2.621v-.689zm3.839-.086c-1.381 0-2.5 1.162-2.5 3.099 0 1.932 1.119 3.098 2.5 3.098 1.377 0 2.5-1.166 2.5-3.098 0-1.937-1.123-3.099-2.5-3.099zm0 .702c.964 0 1.739.847 1.739 2.397 0 1.549-.775 2.397-1.739 2.397-.955 0-1.738-.848-1.738-2.397 0-1.55.783-2.397 1.738-2.397zm5.943 1.235c-.646 0-1.123.249-1.442.632v-.546h-.701v5.809h.701v-2.268c.319.383.796.633 1.442.633 1.145 0 2.044-.895 2.044-2.13 0-1.235-.899-2.13-2.044-2.13zm-.082.662c.835 0 1.403.655 1.403 1.468s-.555 1.472-1.403 1.472c-.826 0-1.403-.633-1.403-1.472 0-.835.577-1.468 1.403-1.468zm6.636-.576h-.831l-1.183 1.51-1.175-1.51h-.861l1.575 2.001-1.613 2.087h.822l1.213-1.571 1.231 1.571h.865l-1.618-2.096 1.575-1.992z" fill="#fff"/><path fill="#1E1E1E" d="M134.312 258.804h106.402v60.691H134.312z"/><path d="M138.187 262.575h98.547v84.346h-98.547v-84.346z" stroke="#B0B0B0" stroke-width="1.721"/><path fill="#B0B0B0" d="M171.32 285.728h35.074v1.193H171.32zm0 2.557h35.074v1.192H171.32zm0 2.374h35.074v1.193H171.32zm10.504 5.012h14.069v4.382h-14.069zm-10.504-20.595h35.074v7.305H171.32zm6.143-4.342h22.887v1.009h-22.887z"/><path fill="#1E1E1E" d="M131.303 64.881h106.402v65.857H131.303z"/><path stroke="#B0B0B0" stroke-width="1.721" d="M135.173 58.87h98.548v84.346h-98.548z"/><path fill="#B0B0B0" d="M168.309 89.324h35.074v1.288h-35.074zm0 2.776h35.074v1.288h-35.074zm0 2.576h35.074v1.288h-35.074zm10.503 5.437h14.069v4.756h-14.069zm-10.503-22.347h35.074v7.926h-35.074zm6.142-4.711h22.887v1.09h-22.887z"/><path stroke="#fff" stroke-width=".43" d="M131.516 46.176h105.972v65.427H131.516z"/><path fill="#1E1E1E" d="M.047 318.258h106.402v65.857H.047z"/><path stroke="#B0B0B0" stroke-width="1.721" d="M3.921 307.945h98.548v84.346H3.921z"/><path fill="#B0B0B0" d="M37.055 351.74h35.074v1.288H37.055zm0 2.775h35.074v1.288H37.055zm0 2.576h35.074v1.288H37.055zm10.504 5.438h14.069v4.756H47.559zm-10.504-22.347h35.074v7.926H37.055zm6.142-4.711h22.887v1.09H43.197z"/><path stroke="#fff" stroke-width=".43" d="M.262 318.058h105.972v65.427H.262zm134.266.843H240.5v64.584H134.528z"/><path d="M269.214 139.72v5.6h2.424c1.344 0 2.108-.528 2.108-1.604 0-.604-.42-1.084-.932-1.256a1.25 1.25 0 00.812-1.188c0-1.068-.82-1.552-2.124-1.552h-2.288zm2.368 3.272c.616 0 1.004.144 1.004.668 0 .536-.388.68-1.004.68l-1.252-.004v-1.344h1.252zm-.112-2.288c.552 0 .992.12.992.648 0 .544-.432.66-.988.66h-1.144v-1.308h1.14zm7.171-1.088c-1.72 0-2.956 1.212-2.956 2.904 0 1.808 1.376 2.9 2.928 2.9 1.588 0 2.736-1.196 2.736-2.892 0-.104-.004-.208-.016-.316h-2.576v.932h1.424c-.148.796-.68 1.236-1.592 1.236-.968 0-1.748-.716-1.748-1.86 0-1.092.744-1.844 1.768-1.844.572 0 1.036.224 1.352.588l.804-.788c-.496-.54-1.236-.86-2.124-.86zm9.203.104h-1.116v5.6h1.116v-5.6zm8.655 0h-1.636l-1.452 3.78-1.456-3.78h-1.636v5.6h1.116v-4.196l1.384 3.656h1.18l1.384-3.688v4.228h1.116v-5.6zm5.461 0h-1.36l-2.18 5.6h1.164l.488-1.304h2.388l.488 1.304h1.192l-2.18-5.6zm-.692 1.104l.808 2.164h-1.62l.812-2.164zm7.225-1.208c-1.72 0-2.956 1.212-2.956 2.904 0 1.808 1.376 2.9 2.928 2.9 1.588 0 2.736-1.196 2.736-2.892 0-.104-.004-.208-.016-.316h-2.576v.932h1.424c-.148.796-.68 1.236-1.592 1.236-.968 0-1.748-.716-1.748-1.86 0-1.092.744-1.844 1.768-1.844.572 0 1.036.224 1.352.588l.804-.788c-.496-.54-1.236-.86-2.124-.86zm9.094 4.68h-3.068v-1.288h2.896v-1.024h-2.896v-1.24h3.036v-1.024h-4.152v5.6h4.184v-1.024zm-46.081-56.024c1.328 0 2.04-.696 2.04-1.772 0-1.084-.712-1.78-2.048-1.78h-2.284v5.6h1.116v-2.048h1.176zm-.028-2.524c.608 0 .924.252.924.752 0 .504-.316.752-.924.752h-1.148v-1.504h1.148zm6.721-1.028h-1.36l-2.18 5.6h1.164l.488-1.304h2.388l.488 1.304h1.192l-2.18-5.6zm-.692 1.104l.808 2.164h-1.62l.812-2.164zm7.225-1.208c-1.72 0-2.956 1.212-2.956 2.904 0 1.808 1.376 2.9 2.928 2.9 1.588 0 2.736-1.196 2.736-2.892 0-.104-.004-.208-.016-.316h-2.576v.932h1.424c-.148.796-.68 1.236-1.592 1.236-.968 0-1.748-.716-1.748-1.86 0-1.092.744-1.844 1.768-1.844.572 0 1.036.224 1.352.588l.804-.788c-.496-.54-1.236-.86-2.124-.86zm9.094 4.68h-3.068v-1.288h2.896v-1.024h-2.896v-1.24h3.036V84.72h-4.152v5.6h4.184v-1.024zm-20.428 10h-3.068v-1.288h2.896v-1.024h-2.896v-1.24h3.036V94.72h-4.152v5.6h4.184v-1.024zm6.42-.02h-2.96V94.72h-1.116v5.6h4.076v-1.044zm6.152.02h-3.068v-1.288h2.896v-1.024h-2.896v-1.24h3.036V94.72h-4.152v5.6h4.184v-1.024zm8.524-4.576h-1.636l-1.452 3.78-1.456-3.78h-1.636v5.6h1.116v-4.196l1.384 3.656h1.18l1.384-3.688v4.228h1.116v-5.6zm6.657 4.576h-3.068v-1.288h2.896v-1.024h-2.896v-1.24h3.036V94.72h-4.152v5.6h4.184v-1.024zm7.352-4.576h-1.12v3.74l-2.844-3.74h-1.044v5.6h1.116l.004-3.74 2.84 3.74h1.048v-5.6zm6.554 0h-4.588v1.044h1.736v4.556h1.116v-4.556h1.736V94.72zm6.252.5c-.704-.42-1.356-.596-2.14-.596-1.192 0-2.232.608-2.232 1.776 0 1.012.72 1.448 1.708 1.604l.356.056c.78.124 1.188.268 1.188.656 0 .432-.48.676-1.1.676-.72 0-1.38-.28-1.784-.604l-.58.9c.6.484 1.512.732 2.36.732 1.204 0 2.292-.588 2.292-1.824 0-.976-.784-1.404-1.784-1.568l-.316-.052c-.672-.112-1.156-.236-1.156-.648 0-.424.444-.672 1.072-.672a3.01 3.01 0 011.588.476l.528-.912zm-46.843-46.2h-1.16l-1.612 4.467-1.604-4.468h-1.188l2.104 5.6h1.356l2.104-5.6zm3.039 0h-1.116v5.6h1.116v-5.6zm6.802.5c-.704-.42-1.356-.597-2.14-.597-1.192 0-2.232.608-2.232 1.776 0 1.012.72 1.448 1.708 1.604l.356.056c.78.124 1.188.268 1.188.656 0 .432-.48.676-1.1.676-.72 0-1.38-.28-1.784-.604l-.58.9c.6.484 1.512.732 2.36.732 1.204 0 2.292-.588 2.292-1.824 0-.976-.784-1.404-1.784-1.568l-.316-.052c-.672-.112-1.156-.236-1.156-.648 0-.424.444-.672 1.072-.672a3.01 3.01 0 011.588.476l.528-.912zm3.402-.5h-1.116v5.6h1.116v-5.6zm2.475 0v5.6h2.424c1.344 0 2.108-.529 2.108-1.605 0-.604-.42-1.084-.932-1.256a1.25 1.25 0 00.812-1.188c0-1.068-.82-1.552-2.124-1.552h-2.288zm2.368 3.271c.616 0 1.004.144 1.004.668 0 .536-.388.68-1.004.68l-1.252-.004v-1.344h1.252zm-.112-2.288c.552 0 .992.12.992.648 0 .544-.432.66-.988.66H291.3v-1.308h1.14zm8.559 3.572h-2.96V49.02h-1.116v5.6h4.076v-1.044zm6.152.02h-3.068v-1.288h2.896v-1.024h-2.896v-1.24h3.036V49.02h-4.152v5.6h4.184v-1.024zm9.491-4.576h-4.588v1.044h1.736v4.556h1.116v-4.556h1.736V49.02zm4.472-.104c-1.724 0-2.94 1.232-2.94 2.904s1.216 2.904 2.94 2.904 2.944-1.232 2.944-2.904-1.22-2.904-2.944-2.904zm0 1.072c1.032 0 1.776.744 1.776 1.832s-.744 1.832-1.776 1.832c-1.028 0-1.776-.744-1.776-1.832s.748-1.832 1.776-1.832zm-47.58 9.032h-4.588v1.044h1.736v4.556h1.116v-4.556h1.736V59.02zm3.08 0h-1.116v5.6h1.116v-2.304h2.696v2.304h1.116v-5.6h-1.116v2.256h-2.696V59.02zm10.471 4.576h-3.068v-1.288h2.896v-1.024h-2.896v-1.24h3.036V59.02h-4.152v5.6h4.184v-1.024zm10.281-4.576h-1.12v3.308c0 .92-.52 1.324-1.292 1.324s-1.292-.404-1.292-1.324V59.02h-1.12v3.364c0 1.548.988 2.336 2.412 2.336s2.412-.788 2.412-2.336V59.02zm6.737.5c-.704-.42-1.356-.596-2.14-.596-1.192 0-2.232.608-2.232 1.776 0 1.012.72 1.448 1.708 1.604l.356.056c.78.124 1.188.268 1.188.656 0 .432-.48.676-1.1.676-.72 0-1.38-.28-1.784-.604l-.58.9c.6.484 1.512.732 2.36.732 1.204 0 2.292-.588 2.292-1.824 0-.976-.784-1.404-1.784-1.568l-.316-.052c-.672-.112-1.156-.236-1.156-.648 0-.424.444-.672 1.072-.672a3.01 3.01 0 011.588.476l.528-.912zm6.47 4.076h-3.068v-1.288h2.896v-1.024h-2.896v-1.24h3.036V59.02h-4.152v5.6h4.184v-1.024zm2.344-4.576v5.6h1.116v-2.228h.328l1.632 2.228h1.352l-1.724-2.244c1.076-.104 1.716-.732 1.716-1.652 0-1.072-.716-1.704-2.052-1.704h-2.368zm2.348 1.028c.592 0 .924.212.924.676 0 .472-.316.696-.924.696h-1.232v-1.372h1.232zm-43.759 56.581c1.328 0 2.04-.696 2.04-1.772 0-1.084-.712-1.78-2.048-1.78h-2.284v5.6h1.116v-2.048h1.176zm-.028-2.524c.608 0 .924.252.924.752 0 .504-.316.752-.924.752h-1.148v-1.504h1.148zm6.721-1.028h-1.36l-2.18 5.6h1.164l.488-1.304h2.388l.488 1.304h1.192l-2.18-5.6zm-.692 1.104l.808 2.164h-1.62l.812-2.164zm7.225-1.208c-1.72 0-2.956 1.212-2.956 2.904 0 1.808 1.376 2.9 2.928 2.9 1.588 0 2.736-1.196 2.736-2.892 0-.104-.004-.208-.016-.316h-2.576v.932h1.424c-.148.796-.68 1.236-1.592 1.236-.968 0-1.748-.716-1.748-1.86 0-1.092.744-1.844 1.768-1.844.572 0 1.036.224 1.352.588l.804-.788c-.496-.54-1.236-.86-2.124-.86zm9.094 4.68h-3.068v-1.288h2.896v-1.024h-2.896v-1.24h3.036v-1.024h-4.152v5.6h4.184v-1.024zm-20.284 5.924c-.704-.42-1.356-.596-2.14-.596-1.192 0-2.232.608-2.232 1.776 0 1.012.72 1.448 1.708 1.604l.356.056c.78.124 1.188.268 1.188.656 0 .432-.48.676-1.1.676-.72 0-1.38-.28-1.784-.604l-.58.9c.6.484 1.512.732 2.36.732 1.204 0 2.292-.588 2.292-1.824 0-.976-.784-1.404-1.784-1.568l-.316-.052c-.672-.112-1.156-.236-1.156-.648 0-.424.444-.672 1.072-.672a3.01 3.01 0 011.588.476l.528-.912zm6.47 4.076h-3.068v-1.288h2.896v-1.024h-2.896v-1.24h3.036v-1.024h-4.152v5.6h4.184v-1.024zm4.977-4.68c-1.724 0-2.94 1.22-2.94 2.904s1.216 2.904 2.94 2.904c1.024 0 1.868-.456 2.364-1.184l-.912-.656c-.336.488-.84.768-1.46.768-.988 0-1.764-.708-1.768-1.832 0-1.088.752-1.832 1.768-1.832.624 0 1.132.288 1.448.772l.96-.588c-.456-.784-1.368-1.256-2.4-1.256zm8.725.104h-4.588v1.044h1.736v4.556h1.116v-4.556h1.736v-1.044zm3.08 0h-1.116v5.6h1.116v-5.6zm5.147-.104c-1.724 0-2.94 1.232-2.94 2.904s1.216 2.904 2.94 2.904 2.944-1.232 2.944-2.904-1.22-2.904-2.944-2.904zm0 1.072c1.032 0 1.776.744 1.776 1.832s-.744 1.832-1.776 1.832c-1.028 0-1.776-.744-1.776-1.832s.748-1.832 1.776-1.832zm10.153-.968h-1.12v3.74l-2.844-3.74h-1.044v5.6h1.116l.004-3.74 2.84 3.74h1.048v-5.6z" fill="#fff"/><path d="M260.181 142.484h-26.46m26.46-55h-48.408m48.41-35.498h-22.587m22.584 63.854h-22.477" stroke="#fff" stroke-width=".43"/></svg>