<svg width="384" height="374" viewBox="0 0 384 374" fill="none" xmlns="http://www.w3.org/2000/svg"><circle cx="379.098" cy="6.467" r="4.357" fill="#fff"/><path d="M24.476.497a.436.436 0 00-.616 0L21.087 3.27a.436.436 0 10.616.616l2.465-2.465 2.465 2.465a.436.436 0 00.616-.616L24.476.497zM23.86 309.56c.17.17.446.17.616 0l2.773-2.773a.436.436 0 10-.616-.616l-2.465 2.465-2.465-2.465a.436.436 0 00-.616.616l2.773 2.773zM23.732.805v308.447h.872V.805h-.872zm356.545 317.963a.436.436 0 000-.616l-2.773-2.773a.436.436 0 00-.616.616l2.465 2.465-2.465 2.465a.436.436 0 00.616.616l2.773-2.773zm-353.569-.616a.435.435 0 000 .616l2.773 2.773a.436.436 0 00.617-.616l-2.465-2.465 2.465-2.465a.435.435 0 10-.617-.616l-2.773 2.773zm353.261-.128H27.016v.872H379.97v-.872z" fill="#52FFE0"/><circle cx="45.318" cy="307.133" r="4.357" fill="#fff"/><path d="M379.553 6.47c-288.462 0-278.005 300.664-333.78 300.664" stroke="#fff" stroke-width="2.614"/><path d="M3 163.894v5.735h1.305v-2.17H10v-1.395H4.305v-2.17H3zm0-3.85v1.395h7v-1.395H3zm0-10.818v2.045l4.725 1.815L3 154.906v2.045h7v-1.395H4.755l4.57-1.73v-1.475l-4.61-1.73H10v-1.395H3zm5.72-8.322v3.835H7.11v-3.62H5.83v3.62H4.28v-3.795H3v5.19h7v-5.23H8.72zm164.928 196.547c1.66 0 2.55-.87 2.55-2.215 0-1.355-.89-2.225-2.56-2.225h-2.855v7h1.395v-2.56h1.47zm-.035-3.155c.76 0 1.155.315 1.155.94 0 .63-.395.94-1.155.94h-1.435v-1.88h1.435zm5.272-1.285v7h1.395v-2.785h.41l2.04 2.785h1.69l-2.155-2.805c1.345-.13 2.145-.915 2.145-2.065 0-1.34-.895-2.13-2.565-2.13h-2.96zm2.935 1.285c.74 0 1.155.265 1.155.845 0 .59-.395.87-1.155.87h-1.54v-1.715h1.54zm8.682-1.415c-2.155 0-3.675 1.54-3.675 3.63s1.52 3.63 3.675 3.63 3.68-1.54 3.68-3.63-1.525-3.63-3.68-3.63zm0 1.34c1.29 0 2.22.93 2.22 2.29 0 1.36-.93 2.29-2.22 2.29-1.285 0-2.22-.93-2.22-2.29 0-1.36.935-2.29 2.22-2.29zm9.792-1.34c-2.15 0-3.695 1.515-3.695 3.63 0 2.26 1.72 3.625 3.66 3.625 1.985 0 3.42-1.495 3.42-3.615 0-.13-.005-.26-.02-.395h-3.22v1.165h1.78c-.185.995-.85 1.545-1.99 1.545-1.21 0-2.185-.895-2.185-2.325 0-1.365.93-2.305 2.21-2.305.715 0 1.295.28 1.69.735l1.005-.985c-.62-.675-1.545-1.075-2.655-1.075zm6.138.13v7h1.395v-2.785h.41l2.04 2.785h1.69l-2.155-2.805c1.345-.13 2.145-.915 2.145-2.065 0-1.34-.895-2.13-2.565-2.13h-2.96zm2.935 1.285c.74 0 1.155.265 1.155.845 0 .59-.395.87-1.155.87h-1.54v-1.715h1.54zm10.592 4.435h-3.835v-1.61h3.62v-1.28h-3.62v-1.55h3.795v-1.28h-5.19v7h5.23v-1.28zm8.32-5.095c-.88-.525-1.695-.745-2.675-.745-1.49 0-2.79.76-2.79 2.22 0 1.265.9 1.81 2.135 2.005l.445.07c.975.155 1.485.335 1.485.82 0 .54-.6.845-1.375.845-.9 0-1.725-.35-2.23-.755l-.725 1.125c.75.605 1.89.915 2.95.915 1.505 0 2.865-.735 2.865-2.28 0-1.22-.98-1.755-2.23-1.96l-.395-.065c-.84-.14-1.445-.295-1.445-.81 0-.53.555-.84 1.34-.84.765 0 1.435.255 1.985.595l.66-1.14zm8.151 0c-.88-.525-1.695-.745-2.675-.745-1.49 0-2.79.76-2.79 2.22 0 1.265.9 1.81 2.135 2.005l.445.07c.975.155 1.485.335 1.485.82 0 .54-.6.845-1.375.845-.9 0-1.725-.35-2.23-.755l-.725 1.125c.75.605 1.89.915 2.95.915 1.505 0 2.865-.735 2.865-2.28 0-1.22-.98-1.755-2.23-1.96l-.395-.065c-.84-.14-1.445-.295-1.445-.81 0-.53.555-.84 1.34-.84.765 0 1.435.255 1.985.595l.66-1.14zM120.573 364.12c-1.843.718-3.1 2.477-3.1 4.653 0 2.176 1.257 3.934 3.1 4.653l.438-1.231c-1.368-.644-2.086-1.944-2.086-3.422 0-1.479.718-2.778 2.086-3.423l-.438-1.23zm5.737.126c-1.769 0-3.184 1.437-3.184 3.829 0 2.393 1.415 3.829 3.184 3.829 1.764 0 3.19-1.436 3.19-3.829 0-2.392-1.426-3.829-3.19-3.829zm0 1.368c.951 0 1.701.845 1.701 2.461 0 1.617-.75 2.462-1.701 2.462-.945 0-1.7-.845-1.7-2.462 0-1.616.755-2.461 1.7-2.461zm6.679 4.241c-.549 0-1.03.47-1.03 1.02 0 .554.481 1.029 1.03 1.029.544 0 1.02-.475 1.02-1.029 0-.55-.476-1.02-1.02-1.02zm5.959-5.593l-3.195 1.289v1.436l1.769-.718v5.503h1.426v-7.51zm7.707.116h-4.251l-.08 4.094h1.759c1.157 0 1.505.485 1.505 1.04 0 .586-.406 1.072-1.23 1.072-.681 0-1.405-.343-1.806-.782l-.803.999c.612.692 1.516 1.103 2.619 1.103 1.495 0 2.699-.908 2.699-2.498 0-1.236-.866-2.223-2.588-2.223h-.85l.032-1.479h2.994v-1.326zm3.28 5.726l-.354 3.147h1.162l.74-3.147h-1.548zm11.526-5.858c-1.769 0-3.185 1.437-3.185 3.829 0 2.393 1.416 3.829 3.185 3.829 1.764 0 3.19-1.436 3.19-3.829 0-2.392-1.426-3.829-3.19-3.829zm0 1.368c.951 0 1.701.845 1.701 2.461 0 1.617-.75 2.462-1.701 2.462-.945 0-1.7-.845-1.7-2.462 0-1.616.755-2.461 1.7-2.461zm6.008 4.49l-.354 3.147h1.162l.74-3.147h-1.548zm11.526-5.858c-1.769 0-3.184 1.437-3.184 3.829 0 2.393 1.415 3.829 3.184 3.829 1.764 0 3.19-1.436 3.19-3.829 0-2.392-1.426-3.829-3.19-3.829zm0 1.368c.951 0 1.701.845 1.701 2.461 0 1.617-.75 2.462-1.701 2.462-.945 0-1.7-.845-1.7-2.462 0-1.616.755-2.461 1.7-2.461zm6.679 4.241c-.549 0-1.03.47-1.03 1.02 0 .554.481 1.029 1.03 1.029.544 0 1.02-.475 1.02-1.029 0-.55-.476-1.02-1.02-1.02zm5.959-5.593l-3.195 1.289v1.436l1.769-.718v5.503h1.426v-7.51zm7.707.116h-4.251l-.08 4.094h1.759c1.157 0 1.505.485 1.505 1.04 0 .586-.406 1.072-1.23 1.072-.681 0-1.405-.343-1.806-.782l-.803.999c.612.692 1.516 1.103 2.619 1.103 1.495 0 2.699-.908 2.699-2.498 0-1.236-.866-2.223-2.588-2.223h-.85l.032-1.479h2.994v-1.326zm3.28 5.726l-.354 3.147h1.162l.74-3.147h-1.548zm11.267-5.842l-3.195 1.289v1.436l1.769-.718v5.503h1.426v-7.51zm3.224 9.158c1.843-.718 3.1-2.477 3.1-4.653 0-2.176-1.257-3.934-3.1-4.653l-.439 1.231c1.368.644 2.087 1.943 2.087 3.422s-.719 2.778-2.087 3.423l.439 1.23zm12.015-9.042h-1.379v8.794h1.379v-8.794zm5.318 0h-1.378v8.794h1.378v-8.794zm10.638-.258c-1.843.718-3.1 2.477-3.1 4.653 0 2.176 1.257 3.934 3.1 4.653l.439-1.231c-1.368-.644-2.087-1.944-2.087-3.422 0-1.479.719-2.778 2.087-3.423l-.439-1.23zm5.778.142l-3.195 1.289v1.436l1.769-.718v5.503h1.426v-7.51zm7.707.116h-4.251l-.079 4.094h1.758c1.157 0 1.506.485 1.506 1.04 0 .586-.407 1.072-1.231 1.072-.681 0-1.405-.343-1.806-.782l-.803.999c.613.692 1.516 1.103 2.619 1.103 1.495 0 2.699-.908 2.699-2.498 0-1.236-.866-2.223-2.588-2.223h-.85l.032-1.479h2.994v-1.326zm3.28 5.726l-.354 3.147h1.162l.74-3.147h-1.548zm11.151-5.858c-1.494 0-2.709.793-2.709 2.123 0 .851.486 1.379 1.125 1.675-.729.285-1.305.813-1.305 1.716 0 1.347 1.3 2.144 2.889 2.144 1.59 0 2.889-.797 2.889-2.144 0-.903-.581-1.431-1.31-1.716.64-.296 1.131-.824 1.131-1.675 0-1.33-1.215-2.123-2.71-2.123zm0 4.379c.734 0 1.352.354 1.352 1.014 0 .649-.618.993-1.352.993-.739 0-1.352-.344-1.352-.993 0-.66.613-1.014 1.352-1.014zm0-3.09c.661 0 1.194.333 1.194.945 0 .634-.533.972-1.194.972-.66 0-1.193-.338-1.193-.972 0-.612.533-.945 1.193-.945zm10.196-1.157h-4.251l-.079 4.094h1.758c1.157 0 1.506.485 1.506 1.04 0 .586-.407 1.072-1.231 1.072-.681 0-1.405-.343-1.806-.782l-.803.999c.613.692 1.516 1.103 2.62 1.103 1.494 0 2.698-.908 2.698-2.498 0-1.236-.866-2.223-2.588-2.223h-.85l.032-1.479h2.994v-1.326zm3.218 9.042c1.843-.718 3.1-2.477 3.1-4.653 0-2.176-1.257-3.934-3.1-4.653l-.438 1.231c1.367.644 2.086 1.943 2.086 3.422s-.719 2.778-2.086 3.423l.438 1.23z" fill="#fff"/></svg>