<svg width="280" height="273" viewBox="0 0 280 273" fill="none" xmlns="http://www.w3.org/2000/svg"><path d="M22.59 1.008a.436.436 0 00-.617 0L19.2 3.781a.436.436 0 10.616.617l2.465-2.465 2.465 2.465a.436.436 0 10.616-.617L22.59 1.008zm-.617 223.659c.17.17.446.17.616 0l2.773-2.774a.435.435 0 10-.616-.616l-2.465 2.465-2.465-2.465a.436.436 0 00-.616.616l2.773 2.774zm-.127-223.35v223.041h.871V1.316h-.871zm258.027 230.007a.436.436 0 000-.616l-2.773-2.774a.437.437 0 00-.617.617l2.465 2.465-2.465 2.465a.436.436 0 10.617.616l2.773-2.773zm-255.84-.616a.436.436 0 000 .616l2.772 2.773a.436.436 0 00.617-.616l-2.465-2.465 2.465-2.465a.437.437 0 00-.617-.617l-2.773 2.774zm255.531-.128H24.34v.871h255.224v-.871z" fill="#52FFE0"/><path d="M3.505 119.791v5.161h1.174v-1.953h5.126v-1.255H4.679v-1.953H3.505zm0-3.465v1.256h6.3v-1.256h-6.3zm0-9.736v1.84l4.252 1.634-4.252 1.638v1.84h6.3v-1.255h-4.72l4.112-1.557v-1.328l-4.149-1.557h4.757v-1.255h-6.3zm5.148-7.49v3.452h-1.45v-3.258h-1.15v3.258H4.657v-3.416H3.505v4.671h6.3V99.1H8.653zm116.44 146.963c1.494 0 2.295-.783 2.295-1.993 0-1.22-.801-2.003-2.304-2.003h-2.569v6.3h1.255v-2.304h1.323zm-.031-2.839c.684 0 1.039.283 1.039.846 0 .567-.355.846-1.039.846h-1.292v-1.692h1.292zm4.744-1.157v6.3h1.256v-2.506h.369l1.836 2.506h1.521l-1.94-2.524c1.211-.117 1.931-.824 1.931-1.859 0-1.206-.806-1.917-2.309-1.917h-2.664zm2.642 1.157c.666 0 1.039.238 1.039.76 0 .531-.355.783-1.039.783h-1.386v-1.543h1.386zm7.814-1.274c-1.94 0-3.308 1.386-3.308 3.267s1.368 3.267 3.308 3.267c1.939 0 3.312-1.386 3.312-3.267s-1.373-3.267-3.312-3.267zm0 1.206c1.161 0 1.998.837 1.998 2.061s-.837 2.061-1.998 2.061c-1.157 0-1.998-.837-1.998-2.061s.841-2.061 1.998-2.061zm8.812-1.206c-1.935 0-3.325 1.364-3.325 3.267 0 2.034 1.548 3.263 3.294 3.263 1.786 0 3.078-1.346 3.078-3.254 0-.117-.005-.234-.018-.355h-2.898v1.048h1.602c-.167.896-.765 1.391-1.791 1.391-1.089 0-1.967-.806-1.967-2.093 0-1.228.837-2.074 1.989-2.074.644 0 1.166.252 1.521.661l.905-.886c-.558-.608-1.391-.968-2.39-.968zm5.525.117v6.3h1.255v-2.506h.369l1.836 2.506h1.521l-1.939-2.524c1.21-.117 1.93-.824 1.93-1.859 0-1.206-.805-1.917-2.308-1.917h-2.664zm2.641 1.157c.666 0 1.04.238 1.04.76 0 .531-.356.783-1.04.783h-1.386v-1.543h1.386zm9.533 3.991h-3.452v-1.449h3.258v-1.152h-3.258v-1.395h3.416v-1.152h-4.671v6.3h4.707v-1.152zm7.488-4.585c-.792-.473-1.525-.671-2.407-.671-1.341 0-2.511.684-2.511 1.998 0 1.139.81 1.629 1.921 1.805l.401.063c.877.139 1.336.301 1.336.738 0 .486-.54.76-1.237.76-.81 0-1.553-.315-2.007-.679l-.653 1.012c.675.545 1.701.824 2.655.824 1.355 0 2.579-.662 2.579-2.052 0-1.098-.882-1.58-2.007-1.764l-.356-.059c-.756-.126-1.3-.265-1.3-.729 0-.477.499-.756 1.206-.756.688 0 1.291.23 1.786.536l.594-1.026zm7.336 0c-.792-.473-1.526-.671-2.408-.671-1.341 0-2.511.684-2.511 1.998 0 1.139.81 1.629 1.922 1.805l.4.063c.878.139 1.337.301 1.337.738 0 .486-.54.76-1.238.76-.81 0-1.552-.315-2.007-.679l-.652 1.012c.675.545 1.701.824 2.655.824 1.354 0 2.578-.662 2.578-2.052 0-1.098-.882-1.58-2.007-1.764l-.355-.059c-.756-.126-1.301-.265-1.301-.729 0-.477.5-.756 1.206-.756.689 0 1.292.23 1.787.536l.594-1.026zM74.188 264.089c-1.57.612-2.642 2.11-2.642 3.964s1.071 3.353 2.642 3.965l.373-1.049c-1.165-.549-1.777-1.656-1.777-2.916s.612-2.367 1.777-2.916l-.373-1.048zm4.888.108c-1.507 0-2.713 1.224-2.713 3.262 0 2.039 1.206 3.263 2.713 3.263 1.503 0 2.718-1.224 2.718-3.263 0-2.038-1.215-3.262-2.718-3.262zm0 1.165c.81 0 1.45.72 1.45 2.097s-.64 2.097-1.45 2.097c-.805 0-1.449-.72-1.449-2.097s.644-2.097 1.45-2.097zm5.691 3.614a.89.89 0 00-.877.868c0 .473.409.878.877.878a.892.892 0 00.868-.878.887.887 0 00-.868-.868zm4.98-4.779c-1.003 0-1.687.418-2.101.976l.765.77a1.582 1.582 0 011.273-.639c.585 0 1.044.279 1.044.787 0 .531-.49.801-1.102.801h-.738v1.08h.733c.68 0 1.233.284 1.233.824 0 .553-.49.819-1.102.819a1.99 1.99 0 01-1.431-.603l-.725.796c.477.576 1.256.914 2.2.914 1.193 0 2.323-.599 2.323-1.841 0-.679-.419-1.183-1.08-1.444.585-.275.94-.765.94-1.431 0-1.089-.904-1.809-2.232-1.809zm6.5 0c-1.003 0-1.687.418-2.101.976l.765.77a1.582 1.582 0 011.273-.639c.585 0 1.044.279 1.044.787 0 .531-.49.801-1.102.801h-.738v1.08h.733c.68 0 1.234.284 1.234.824 0 .553-.491.819-1.103.819-.54 0-1.066-.221-1.431-.603l-.724.796c.477.576 1.255.914 2.2.914 1.193 0 2.322-.599 2.322-1.841 0-.679-.418-1.183-1.08-1.444.585-.275.94-.765.94-1.431 0-1.089-.904-1.809-2.231-1.809zm4.795 4.99l-.301 2.682h.99l.63-2.682h-1.319zm9.821-4.99c-1.508 0-2.714 1.224-2.714 3.262 0 2.039 1.206 3.263 2.714 3.263 1.503 0 2.718-1.224 2.718-3.263 0-2.038-1.215-3.262-2.718-3.262zm0 1.165c.81 0 1.449.72 1.449 2.097s-.639 2.097-1.449 2.097c-.806 0-1.449-.72-1.449-2.097s.643-2.097 1.449-2.097zm5.119 3.825l-.301 2.682h.99l.63-2.682h-1.319zm9.821-4.99c-1.508 0-2.714 1.224-2.714 3.262 0 2.039 1.206 3.263 2.714 3.263 1.503 0 2.718-1.224 2.718-3.263 0-2.038-1.215-3.262-2.718-3.262zm0 1.165c.81 0 1.449.72 1.449 2.097s-.639 2.097-1.449 2.097c-.806 0-1.449-.72-1.449-2.097s.643-2.097 1.449-2.097zm5.69 3.614a.89.89 0 00-.877.868c0 .473.409.878.877.878a.892.892 0 00.869-.878.887.887 0 00-.869-.868zm6.686-4.667h-1.467l-1.746 2.615c-.383.576-.599 1.098-.599 1.674 0 1.219 1.017 2.124 2.363 2.124 1.354 0 2.371-.914 2.371-2.147 0-1.179-.904-2.092-2.182-2.092-.108 0-.207.009-.293.018l1.553-2.192zm-1.449 3.24c.634 0 1.107.428 1.107 1.035 0 .612-.473 1.035-1.107 1.035-.626 0-1.098-.423-1.098-1.035 0-.607.472-1.035 1.098-1.035zm8.632-3.24h-4.442v1.134h2.993l-2.592 5.166h1.431l2.61-5.35v-.95zm1.536 4.878l-.301 2.682h.99l.63-2.682h-1.319zm9.6-4.977l-2.722 1.098v1.224l1.507-.612v4.689h1.215v-6.399zm2.747 7.803c1.57-.612 2.641-2.11 2.641-3.964s-1.071-3.353-2.641-3.965l-.374 1.049c1.166.549 1.778 1.656 1.778 2.916s-.612 2.367-1.778 2.916l.374 1.048zm13.811-7.704h-1.175v7.493h1.175v-7.493zm4.531 0h-1.174v7.493h1.174v-7.493zm12.638-.22c-1.571.612-2.642 2.11-2.642 3.964s1.071 3.353 2.642 3.965l.373-1.049c-1.165-.549-1.777-1.656-1.777-2.916s.612-2.367 1.777-2.916l-.373-1.048zm4.395.108c-1.004 0-1.688.418-2.102.976l.765.77a1.584 1.584 0 011.274-.639c.585 0 1.044.279 1.044.787 0 .531-.491.801-1.103.801h-.738v1.08h.734c.679 0 1.233.284 1.233.824 0 .553-.491.819-1.103.819-.54 0-1.066-.221-1.431-.603l-.724.796c.477.576 1.255.914 2.2.914 1.193 0 2.322-.599 2.322-1.841 0-.679-.418-1.183-1.08-1.444.585-.275.941-.765.941-1.431 0-1.089-.905-1.809-2.232-1.809zm6.5 0c-1.003 0-1.687.418-2.101.976l.765.77a1.58 1.58 0 011.273-.639c.585 0 1.044.279 1.044.787 0 .531-.49.801-1.102.801h-.738v1.08h.733c.68 0 1.233.284 1.233.824 0 .553-.49.819-1.102.819a1.99 1.99 0 01-1.431-.603l-.725.796c.477.576 1.256.914 2.201.914 1.192 0 2.322-.599 2.322-1.841 0-.679-.419-1.183-1.08-1.444.585-.275.94-.765.94-1.431 0-1.089-.904-1.809-2.232-1.809zm4.795 4.99l-.301 2.682h.99l.63-2.682h-1.319zm9.029-4.99c-1.004 0-1.688.418-2.102.976l.765.77a1.584 1.584 0 011.274-.639c.585 0 1.044.279 1.044.787 0 .531-.491.801-1.103.801h-.738v1.08h.734c.679 0 1.233.284 1.233.824 0 .553-.491.819-1.103.819-.54 0-1.066-.221-1.431-.603l-.724.796c.477.576 1.255.914 2.2.914 1.193 0 2.322-.599 2.322-1.841 0-.679-.418-1.183-1.08-1.444.585-.275.941-.765.941-1.431 0-1.089-.905-1.809-2.232-1.809zm6.5 0c-1.003 0-1.687.418-2.101.976l.765.77a1.58 1.58 0 011.273-.639c.585 0 1.044.279 1.044.787 0 .531-.49.801-1.102.801h-.738v1.08h.733c.68 0 1.233.284 1.233.824 0 .553-.49.819-1.102.819a1.99 1.99 0 01-1.431-.603l-.725.796c.477.576 1.256.914 2.201.914 1.192 0 2.322-.599 2.322-1.841 0-.679-.419-1.183-1.08-1.444.585-.275.94-.765.94-1.431 0-1.089-.904-1.809-2.232-1.809zm4.698 7.816c1.57-.612 2.641-2.11 2.641-3.964s-1.071-3.353-2.641-3.965l-.374 1.049c1.166.549 1.778 1.656 1.778 2.916s-.612 2.367-1.778 2.916l.374 1.048z" fill="#fff"/><ellipse cx="37.283" cy="223.187" rx="3.103" ry="3.156" fill="#fff"/><path d="M274.684 4.785c-80.694 0-160.754 217.773-237.697 217.773" stroke="#fff" stroke-width="2.614"/><ellipse cx="274.982" cy="5" rx="3.103" ry="3.156" fill="#fff"/></svg>