<svg width="171" height="87" viewBox="0 0 171 87" fill="none" xmlns="http://www.w3.org/2000/svg"><path d="M1.095 36.04H21.84l1.125-7.966h-.27c-2.79 6.165-4.634 7.245-9.495 7.245h-3.15c-1.35 0-1.755-.72-1.755-2.115v-24.3c0-3.33.18-5.355 3.24-5.355v-.27H1.096v.27c3.06 0 3.24 2.025 3.24 5.355v21.51c0 3.33-.18 5.355-3.24 5.355v.27zM27.981 8.183a2.516 2.516 0 002.52-2.52 2.516 2.516 0 00-2.52-2.52c-1.44 0-2.565 1.125-2.565 2.52s1.125 2.52 2.565 2.52zm-3.33 27.855h7.605v-.27c-1.845 0-1.98-1.53-1.98-4.41V12.01h-.18l-5.76 1.8v.27c1.53.405 2.295 1.35 2.295 4.23v13.05c0 2.88-.135 4.41-1.98 4.41v.27zM45.346.76c-5.445 0-9.135 4.5-9.135 11.7l-2.34 1.17v.495h2.34V31.36c0 2.88-.135 4.41-1.98 4.41v.27h7.605v-.27c-1.845 0-1.98-1.53-1.98-4.41V14.124h5.4l.585-1.665h-5.985V8.274c0-4.275 1.215-6.12 3.195-6.12 1.08 0 2.52.81 4.365 2.16h.27l.405-3.33A19.34 19.34 0 0045.346.76zm18.81 29.745c-1.44 2.07-3.96 3.87-7.066 3.87-5.04 0-7.56-5.04-7.56-11.43 0-.675.045-1.35.135-2.025H64.38c.27-5.67-3.33-9-8.055-9-5.805 0-10.62 5.265-10.62 12.69 0 6.705 3.645 11.97 9.63 11.97 4.77 0 7.515-3.195 9.09-5.895l-.27-.18zM56.1 12.55c3.42 0 4.77 3.015 4.41 7.65H49.755c.675-4.185 2.88-7.65 6.345-7.65zM15.09 86.58c6.796 0 10.305-3.735 10.305-11.34V61.424c0-4.41.45-7.875 3.51-7.875v-.27h-8.1v.27c3.06 0 3.78 3.465 3.78 7.875V75.24c0 7.065-3.195 10.26-8.73 10.26s-7.83-3.195-7.83-10.485v-16.11c0-3.33.18-5.355 3.24-5.355v-.27H.78v.27c3.06 0 3.24 2.025 3.24 5.355V75.33c0 7.695 3.87 11.25 11.07 11.25zm34.454-5.22V68.94c0-4.545-2.205-7.02-5.715-7.02-3.015 0-5.85 2.025-8.235 4.5v-4.41h-.18l-5.76 1.8v.27c1.53.405 2.295 1.35 2.295 4.23v13.05c0 2.88-.135 4.41-1.98 4.41v.27h7.605v-.27c-1.845 0-1.98-1.53-1.98-4.41V66.87c1.935-1.53 4.095-2.52 6.075-2.52 3.15 0 4.23 2.16 4.23 5.58v11.43c0 2.88-.135 4.41-1.98 4.41v.27h7.605v-.27c-1.845 0-1.98-1.53-1.98-4.41zm16.18-19.44c-3.24 0-5.58 1.89-7.335 4.32V50.85h-.18l-5.76 1.44v.27c1.53.405 2.295 1.35 2.295 4.23v29.52h.36l1.575-2.61a9.861 9.861 0 007.02 2.88c6.255 0 10.98-5.085 10.98-12.78 0-6.975-3.735-11.88-8.955-11.88zm-1.845 24.03c-3.465 0-5.49-2.925-5.49-6.93V66.914c1.395-1.62 3.195-2.97 5.49-2.97 4.635 0 6.885 5.085 6.885 11.025 0 5.76-2.295 10.98-6.885 10.98zm24.137.63c6.255 0 10.935-4.95 10.935-12.42 0-7.56-4.5-12.24-10.845-12.24-6.3 0-10.98 4.95-10.98 12.42 0 7.56 4.5 12.24 10.89 12.24zm.09-.63c-4.545 0-7.02-5.175-7.02-11.7 0-6.795 2.385-11.7 6.93-11.7s6.975 5.175 6.975 11.7c0 6.795-2.34 11.7-6.885 11.7zm32.495-5.445V62.01h-.18l-5.85.63v.27c1.53.405 2.385 1.215 2.385 4.095v14.67c-1.935 1.485-4.095 2.475-6.075 2.475-3.15 0-4.23-2.16-4.23-5.58V62.01h-.18l-5.85.63v.27c1.53.405 2.385 1.215 2.385 4.095V79.56c0 4.545 2.205 7.02 5.715 7.02 3.015 0 5.85-2.025 8.235-4.5l.765 4.5h.18l4.995-1.395v-.27c-1.575-.45-2.295-1.53-2.295-4.41zm23.645.855V68.94c0-4.545-2.205-7.02-5.715-7.02-3.015 0-5.85 2.025-8.235 4.5v-4.41h-.18l-5.76 1.8v.27c1.53.405 2.295 1.35 2.295 4.23v13.05c0 2.88-.135 4.41-1.98 4.41v.27h7.605v-.27c-1.845 0-1.98-1.53-1.98-4.41V66.87c1.935-1.53 4.095-2.52 6.075-2.52 3.15 0 4.23 2.16 4.23 5.58v11.43c0 2.88-.135 4.41-1.98 4.41v.27h7.605v-.27c-1.845 0-1.98-1.53-1.98-4.41zm23.875-.855V50.85h-.18l-5.76 1.44v.27c1.53.405 2.295 1.35 2.295 4.23v6.615a10.188 10.188 0 00-5.31-1.485c-6.255 0-10.98 5.085-10.98 12.78 0 6.975 3.735 11.88 9 11.88 3.24 0 5.58-1.935 7.335-4.365l.72 4.365h.18l4.995-1.395v-.27c-1.575-.45-2.295-1.53-2.295-4.41zm-9.135 4.05c-4.59 0-6.885-5.085-6.885-11.025 0-5.76 2.295-10.98 6.885-10.98 3.465 0 5.49 2.925 5.49 6.93v12.15c-1.395 1.62-3.195 2.925-5.49 2.925z" fill="#000"/></svg>