<svg xmlns="http://www.w3.org/2000/svg" viewBox="0 0 285.795 54.5"><g id="grid"><g id="Specified"><g id="case-small-320-measured-copy"><g id="Group-11"><path id="Abcdefghijklmnopqrst" d="M12.265 16.221h-1.654l-.988-2.872H2.638l-.987 2.872H0L5.533.138h1.195zm-3.124-4.3l-3.01-9.279-3.01 9.282zm6.362 2.16v2.137H14.01V.138h1.49V8.2a4.266 4.266 0 013.952-2.389 5.175 5.175 0 015.261 5.33 5.188 5.188 0 01-5.261 5.33 4.3 4.3 0 01-3.952-2.387zm3.883 1.019a3.8 3.8 0 003.837-3.952 3.862 3.862 0 10-7.72 0 3.809 3.809 0 003.883 3.952zm16.931-5.33h-1.493c-.161-1.425-1.057-2.62-3.24-2.62C29.218 7.145 28 9.052 28 11.12c0 2.114 1.172 3.975 3.653 3.975a2.918 2.918 0 003.217-2.367h1.493c-.321 2.091-1.838 3.745-4.8 3.745-3.308 0-5.077-2.573-5.077-5.353 0-2.757 1.769-5.33 5.077-5.33 3.261 0 4.594 1.999 4.754 3.975zm11.05 6.456v-2.142a4.3 4.3 0 01-3.952 2.389 5.188 5.188 0 01-5.261-5.33 5.175 5.175 0 015.261-5.33A4.266 4.266 0 0147.367 8.2V.138h1.493v16.083zM43.484 15.1a3.808 3.808 0 003.883-3.952 3.862 3.862 0 10-7.72 0 3.8 3.8 0 003.837 3.952zm13-8.11a3.233 3.233 0 00-3.447 3.308h6.732a3.179 3.179 0 00-3.282-3.313zm4.687 4.48h-8.154c.069 1.976 1.08 3.7 3.584 3.7a2.9 2.9 0 002.987-1.87h1.517a4.322 4.322 0 01-4.5 3.17c-3.423 0-5.077-2.458-5.077-5.353 0-3.033 1.815-5.307 5.009-5.307a4.567 4.567 0 014.709 4.549 7.243 7.243 0 01-.072 1.106zM69.581.276v1.286a3.176 3.176 0 00-1.241-.206c-.9 0-1.93.183-1.93 2.274v2.413h3.171v1.286H66.41v8.892h-1.493V7.329H62.6V6.043h2.321V3.768c0-3.492 2-3.768 3.239-3.768a3.1 3.1 0 011.421.276zm5.88 6.892a3.8 3.8 0 00-3.837 3.952 3.862 3.862 0 107.72 0 3.808 3.808 0 00-3.883-3.952zm5.376-1.125V17c0 3.883-2.044 5.353-5.445 5.353-3.538 0-5.009-2.228-5.146-4.687h1.516A3.306 3.306 0 0075.392 21c2.459 0 3.952-1.08 3.952-4v-2.939a4.285 4.285 0 01-3.952 2.412 5.194 5.194 0 01-5.261-5.353 5.169 5.169 0 015.261-5.307A4.266 4.266 0 0179.344 8.2V6.043zm3.468 10.178V.138H85.8v8.11a4.017 4.017 0 013.86-2.435 3.728 3.728 0 013.056 1.263 4.751 4.751 0 01.9 3.171v5.974h-1.499v-5.537c0-2-.85-3.539-2.964-3.539-2.252 0-3.355 1.976-3.355 3.86v5.216zm12.612 0V6.043h1.493v10.178zM96.3 2.068a1.369 1.369 0 011.355-1.4 1.394 1.394 0 011.4 1.4 1.369 1.369 0 01-1.4 1.355A1.343 1.343 0 0196.3 2.068zm7.4 3.975v13.279c0 2.091-1.011 2.987-2.252 2.987a4.237 4.237 0 01-1.7-.275v-1.31a2.666 2.666 0 001.149.253c.827 0 1.309-.6 1.309-1.746V6.043zm-2.114-3.975a1.369 1.369 0 011.356-1.4 1.393 1.393 0 011.4 1.4 1.368 1.368 0 01-1.4 1.355 1.343 1.343 0 01-1.361-1.355zm13.853 3.975l-5.032 5.1 5.032 5.078h-1.953l-4.786-4.756v4.756h-1.494V.138h1.494v10.683l4.779-4.778zm1.928 10.178V.138h1.493v16.083zm20.033 0h-1.516v-6c0-2.137-.988-3.079-2.413-3.079-1.792 0-2.826 1.586-2.826 3.906v5.17h-1.516V10.5c0-2.527-1.011-3.355-2.413-3.355-1.769 0-2.849 1.586-2.849 3.906v5.17h-1.493V6.043h1.493v2.228a3.294 3.294 0 013.194-2.458 3.007 3.007 0 013.308 2.527 3.562 3.562 0 013.424-2.527c2.366 0 3.607 1.424 3.607 4zm3.33 0V6.043h1.493v2.2a4.016 4.016 0 013.86-2.435 3.729 3.729 0 013.056 1.263 4.751 4.751 0 01.9 3.171v5.974h-1.494v-5.532c0-2-.85-3.539-2.963-3.539-2.252 0-3.355 1.976-3.355 3.86v5.216zm17.023.252a5.2 5.2 0 01-5.33-5.33 5.353 5.353 0 0110.706 0 5.216 5.216 0 01-5.381 5.33zm0-1.378a3.809 3.809 0 003.883-3.952 3.862 3.862 0 10-7.72 0 3.8 3.8 0 003.832 3.957zm9.464-9.052V8.2a4.266 4.266 0 013.952-2.389 5.169 5.169 0 015.261 5.307 5.194 5.194 0 01-5.261 5.353 4.285 4.285 0 01-3.952-2.412v8.064h-1.493V6.043zm3.883 1.125a3.809 3.809 0 00-3.883 3.952 3.862 3.862 0 107.72 0 3.8 3.8 0 00-3.837-3.952zM187.36 8.2V6.043h1.494v16.082h-1.494v-8.064a4.285 4.285 0 01-3.952 2.412 5.194 5.194 0 01-5.261-5.353 5.17 5.17 0 015.261-5.307A4.266 4.266 0 01187.36 8.2zm-3.883-1.034a3.8 3.8 0 00-3.837 3.952 3.862 3.862 0 107.72 0 3.808 3.808 0 00-3.883-3.95zm14.979-1.1v1.378a2.886 2.886 0 00-.965-.138c-2.482 0-3.63 2.022-3.63 4.389v4.526h-1.494V6.043h1.494v2.389a3.823 3.823 0 013.63-2.527 2.426 2.426 0 01.965.161zm5.466 4.6c1.677.413 3.309.827 3.309 2.826 0 1.953-1.563 2.986-3.929 2.986-2.3 0-4.251-1.148-4.251-3.7h1.471c0 1.815 1.24 2.459 2.849 2.459 1.516 0 2.435-.6 2.435-1.723 0-1.333-1.4-1.494-3.354-2.045-1.677-.414-3.079-.85-3.079-2.757 0-1.884 1.608-2.9 3.768-2.9 2.229 0 3.929 1.286 3.929 3.377h-1.47c0-1.4-.942-2.159-2.481-2.159-1.333 0-2.275.62-2.275 1.7-.001 1.218 1.125 1.402 3.078 1.931zm11.027 4.2v1.356a11.349 11.349 0 01-1.723.138c-1.333 0-3.1-.276-3.1-3.539V7.329h-2.045V6.043h2.045V2.275h1.516v3.768h2.941v1.286h-2.943v5.193c0 2.182.8 2.458 1.884 2.458a9.409 9.409 0 001.425-.115zm9.395-8.822h1.494v10.177h-1.494v-2.206a4.032 4.032 0 01-3.86 2.458 3.775 3.775 0 01-3.056-1.286 4.747 4.747 0 01-.9-3.171V6.043h1.517v5.537c0 2 .827 3.538 2.941 3.538 2.251 0 3.354-1.976 3.354-3.86zm3.261 0h1.631l3.584 8.064 3.631-8.064h1.631l-4.733 10.178h-1.08zm21.572 10.178l-3.032-8.5-3.01 8.5h-1.08l-3.929-10.179h1.608l2.849 7.9 2.826-7.9h1.491l2.8 7.9 2.872-7.9h1.608l-3.929 10.178zm10.751-5.1l3.584 5.1h-1.746l-2.711-3.952-2.711 3.952H254.6l3.584-5.1-3.561-5.077h1.746l2.688 3.905 2.688-3.9h1.724zM270.2 22.355c-3.079 0-4.664-1.562-4.733-4.641h1.516c.115 2.206 1.126 3.355 3.24 3.355 2.068 0 3.239-.919 3.239-3.654v-3.4a3.967 3.967 0 01-3.814 2.458 3.74 3.74 0 01-3.124-1.24 4.782 4.782 0 01-.873-3.332V6.043h1.516v5.422c0 2.205.666 3.653 2.964 3.653 2.251 0 3.331-1.976 3.331-3.86V6.043h1.494v11.372c-.003 3.493-1.635 4.94-4.756 4.94zm7.121-16.312h8.454l-6.088 8.822h6.113v1.356h-8.707l6.083-8.821h-5.858zM1.145 45.389v-6a5.179 5.179 0 015.33-5.33 5.2 5.2 0 015.377 5.33v6A5.2 5.2 0 016.475 50.7a5.173 5.173 0 01-5.33-5.311zm9.121 0v-6a3.722 3.722 0 00-3.791-3.905 3.718 3.718 0 00-3.768 3.905v6a3.712 3.712 0 003.768 3.883 3.717 3.717 0 003.791-3.883zm3.307-7.1V37c2.826 0 3.332-.735 3.332-2.665H18.4v16.086h-1.61V38.29zm7.512 12.131c0-5.055 1.608-6.548 4.755-7.927 1.907-.8 3.654-1.631 3.654-3.975 0-1.815-1.241-2.986-3.309-2.986a3.352 3.352 0 00-3.538 3.584h-1.562a4.855 4.855 0 015.1-5.032c2.964 0 4.871 1.723 4.871 4.549 0 3.01-2.619 4.32-4.388 5.055-2.987 1.4-3.814 2.527-3.814 5.307h8.271v1.425zm11.348-4.779h1.562a3.513 3.513 0 003.814 3.584c2.229 0 3.63-1.4 3.63-3.194 0-1.884-1.217-3.262-3.63-3.262h-1.218v-1.4h1.218c2.229 0 3.332-1.217 3.332-2.963 0-1.793-1.333-2.872-3.332-2.872-2.252 0-3.423 1.286-3.423 3.17h-1.563c0-2.734 1.976-4.618 4.894-4.618 2.872 0 4.986 1.723 4.986 4.32a3.568 3.568 0 01-2.8 3.676A3.854 3.854 0 0143 46.009c0 2.757-2.229 4.664-5.262 4.664-2.962 0-5.305-1.929-5.305-5.031zm19.275 4.779v-5.513H45.6V34.338h1.562v9.144h4.55v-5.077h1.558v5.077h2.619v1.425H53.27v5.514zm6.477-6.847v-9.235h9.19v1.424h-7.742v6.273a4.264 4.264 0 013.745-1.953 4.947 4.947 0 015.146 5.261 5.354 5.354 0 01-10.707 0H59.4a3.78 3.78 0 103.745-3.86 3.426 3.426 0 00-3.309 2.091zm17.483 7.1a5.2 5.2 0 01-5.33-5.33 5.8 5.8 0 01.9-3.056l4.939-7.949h1.815l-3.951 6.18a2.474 2.474 0 011.631-.505 5.33 5.33 0 110 10.66zm0-1.447a3.9 3.9 0 10-3.768-3.883 3.736 3.736 0 003.768 3.883zm6.2-14.888h9.672l-7.419 16.083h-1.677l6.847-14.659H81.87zm15.279 16.335c-3.286 0-5.308-2.044-5.308-4.664a3.858 3.858 0 012.987-3.951 3.515 3.515 0 01-2.665-3.585c0-2.481 1.884-4.388 4.986-4.388 3.078 0 4.962 1.93 4.962 4.388a3.515 3.515 0 01-2.665 3.585 3.875 3.875 0 012.987 3.951c0 2.574-2.022 4.664-5.284 4.664zm0-9.167c2.136 0 3.4-1.286 3.4-2.964 0-1.7-1.31-3.009-3.4-3.009s-3.4 1.286-3.4 3.009c-.001 1.678 1.263 2.964 3.4 2.964zm0 7.72c2.3 0 3.722-1.4 3.722-3.217 0-1.792-1.379-3.216-3.722-3.216-2.367 0-3.745 1.4-3.745 3.216-.002 1.838 1.447 3.217 3.745 3.217zm12.543-15.141a5.205 5.205 0 015.33 5.33 5.807 5.807 0 01-.9 3.056l-4.94 7.95h-1.815l3.952-6.181a2.024 2.024 0 01-1.448.506 5.333 5.333 0 11-.183-10.661zm0 1.448a3.9 3.9 0 103.768 3.882 3.735 3.735 0 00-3.768-3.882z"/></g></g></g></g></svg>