<svg xmlns="http://www.w3.org/2000/svg" viewBox="0 0 285.795 78.833">
  <title>Artboard 15 copy 8</title>
  <g id="grid">
    <g id="Specified">
      <g id="case-large-1440-measured">
        <g id="Group-20">
          <g id="Stacked-Group-10">
            <g id="Group-19">
              <g id="Stacked-Group">
                <g id="Stacked-Group-8">
                  <g id="Group-8">
                    <polygon id="Shape" points="0 0 25 0 25 25 0 25 0 0" fill="none"/>
                    <g id="Group">
                      <path id="_" data-name="?" d="M11.442,14.16a3.871,3.871,0,0,1,.186-1.335,2.446,2.446,0,0,1,.849-1l.744-.575A2.691,2.691,0,0,0,14,10.393a2.271,2.271,0,0,0,.243-1.082,1.657,1.657,0,0,0-.412-1.182,1.428,1.428,0,0,0-1.092-.44,1.82,1.82,0,0,0-1.367.524,2.148,2.148,0,0,0-.509,1.555H9a3.7,3.7,0,0,1,1.019-2.78A3.848,3.848,0,0,1,12.817,6a3.308,3.308,0,0,1,2.458.895,3.188,3.188,0,0,1,.89,2.349,3.235,3.235,0,0,1-.421,1.706,5.658,5.658,0,0,1-1.261,1.386l-.583.473a2.077,2.077,0,0,0-.558.608,1.534,1.534,0,0,0-.137.693v.236H11.442Zm.873,4.089a1.269,1.269,0,0,1-.962-.423,1.428,1.428,0,0,1-.4-1.013,1.4,1.4,0,0,1,.4-1.006,1.281,1.281,0,0,1,.962-.413,1.308,1.308,0,0,1,.971.413,1.388,1.388,0,0,1,.4,1.006,1.414,1.414,0,0,1-.4,1.013A1.3,1.3,0,0,1,12.315,18.249Z" fill="#222"/>
                    </g>
                    <circle id="Oval-2" cx="12" cy="12" r="11.1" fill="none" stroke="#222" stroke-width="1.8"/>
                  </g>
                  <g id="Group-5">
                    <circle id="Oval-2-2" data-name="Oval-2" cx="47" cy="12" r="11.1" fill="none" stroke="#222" stroke-width="1.8"/>
                    <g id="Group-2" data-name="Group">
                      <polygon id="_2" data-name="!" points="46.468 5.016 48.756 5.016 48.756 14.457 46.468 14.457 46.468 5.016" fill="#222"/>
                      <path id="_3" data-name="!" d="M47.584,18.984a1.745,1.745,0,0,1-1.25-.49,1.569,1.569,0,0,1-.515-1.177,1.536,1.536,0,0,1,.515-1.166,1.763,1.763,0,0,1,1.25-.481,1.8,1.8,0,0,1,1.26.481,1.523,1.523,0,0,1,.526,1.166,1.555,1.555,0,0,1-.526,1.177A1.78,1.78,0,0,1,47.584,18.984Z" fill="#222"/>
                    </g>
                  </g>
                  <g id="Group-6">
                    <circle id="Oval-2-3" data-name="Oval-2" cx="81" cy="12" r="11.1" fill="none" stroke="#222" stroke-width="1.8"/>
                    <path id="Combined-Shape" d="M80.076,12.924c-2.845,0-4.722,0-4.8,0a.928.928,0,1,1-.066-1.854c.119,0,1.816,0,4.866,0,0-.721,0-1.459,0-2.2,0-.7,0-1.683,0-2.177V6.243a.928.928,0,1,1,1.855,0v.452c0,.494,0,1.477,0,2.177,0,.739,0,1.479,0,2.2l2.2,0h2.629a.928.928,0,1,1,0,1.855H81.931c0,3.05,0,4.747,0,4.866a.928.928,0,1,1-1.854-.066C80.077,17.646,80.077,15.769,80.076,12.924Z" fill="#222"/>
                    <path id="Combined-Shape-2" data-name="Combined-Shape" d="M81.924,12.924c0,2.845,0,4.722,0,4.8a.928.928,0,1,1-1.854.066c0-.119-.005-1.816,0-4.866H75.243a.928.928,0,1,1,0-1.855h2.629l2.2,0c0-.723,0-1.463,0-2.2,0-.7,0-1.683,0-2.177V6.239a.928.928,0,1,1,1.855,0V6.7c0,.494,0,1.478,0,2.177,0,.738,0,1.476,0,2.2,3.05,0,4.747,0,4.866,0a.928.928,0,1,1-.066,1.854C86.646,12.923,84.769,12.923,81.924,12.924Z" fill="#222"/>
                  </g>
                  <g id="Group-7">
                    <g id="Group-3" data-name="Group">
                      <path id="Shape-2" data-name="Shape" d="M116.924,12.635l2.627-3.2.864-1.054.328-.4a.92.92,0,0,1,1.338-.107,1.024,1.024,0,0,1,.1,1.4l-.327.4-.864,1.054-2.622,3.2c-2.243,2.737-3.728,4.553-3.789,4.632a.922.922,0,0,1-1.441.054l-4.542-5.17a1.025,1.025,0,0,1,.056-1.4.92.92,0,0,1,1.341.059l3.816,4.343C114.45,15.655,115.5,14.37,116.924,12.635Z" fill="#222"/>
                    </g>
                    <circle id="Oval-2-Copy" cx="115" cy="12" r="11.1" fill="none" stroke="#222" stroke-width="1.8"/>
                  </g>
                  <g id="Group-9">
                    <circle id="Oval-2-4" data-name="Oval-2" cx="149.231" cy="12.231" r="11.331" fill="none" stroke="#222" stroke-width="1.8"/>
                    <path id="Path" d="M149.4,7.2a2.5,2.5,0,1,0,2.312,1.545A2.5,2.5,0,0,0,149.4,7.2Z" fill="none" stroke="#222" stroke-width="1.8"/>
                    <path id="Path-2" data-name="Path" d="M149.476,20.5a7.99,7.99,0,0,0,6.086-2.82,8.456,8.456,0,0,0-11.979.213A7.983,7.983,0,0,0,149.476,20.5Zm0,0h0Z" fill="none" stroke="#222" stroke-width="1.8"/>
                  </g>
                </g>
                <g id="Stacked-Group-9">
                  <g id="icons-03">
                    <path id="Shape-3" data-name="Shape" d="M61.163,62.356H61.15v-5.45a1.213,1.213,0,0,0-1.213-1.213H59.11V53.122A1.222,1.222,0,0,0,57.888,51.9H37.99a2.76,2.76,0,0,0-2.76,2.683h-.016V70.536a3.559,3.559,0,0,0,3.558,3.557H59.938a1.216,1.216,0,0,0,1.212-1.216v-4.6h.008Zm-23.173-8.7H57.36v2.028H37.99a1.014,1.014,0,0,1,0-2.028ZM59.381,72.319H38.775a1.786,1.786,0,0,1-1.785-1.783V57.269a2.748,2.748,0,0,0,1,.2H59.384v4.889H55.94a2.961,2.961,0,1,0,0,5.92h3.441Zm-.05-8.131v2.255H55.94a1.128,1.128,0,0,1,0-2.255Z" fill="#231f20"/>
                  </g>
                  <g id="icons-04">
                    <path id="Shape-4" data-name="Shape" d="M23.472,73.409l-4.8-4.963c-.02-.021-.046-.029-.066-.047a10.379,10.379,0,1,0-1.266,1.237c.015.018.021.042.038.06l4.8,4.963a.9.9,0,1,0,1.294-1.25ZM10.725,70.2a8.671,8.671,0,1,1,8.671-8.67A8.67,8.67,0,0,1,10.725,70.2Z" fill="#222"/>
                  </g>
                  <g id="icons-05">
                    <path id="Shape-5" data-name="Shape" d="M94.016,52.948h-3.38v-1.61a.9.9,0,1,0-1.8,0v1.61h-7.9v-1.61a.9.9,0,1,0-1.8,0v1.61H75.964a2.41,2.41,0,0,0-2.41,2.411v17.28a2.409,2.409,0,0,0,2.41,2.411H94.016a2.409,2.409,0,0,0,2.41-2.411V55.359a2.41,2.41,0,0,0-2.41-2.411Zm-18.052,1.8H94.016a.611.611,0,0,1,.61.611v2.677H75.354V55.359A.611.611,0,0,1,75.964,54.748ZM94.016,73.255H75.964a.611.611,0,0,1-.61-.611V59.836H94.626V72.644A.611.611,0,0,1,94.016,73.255Z" fill="#231f20"/>
                    <path id="Rectangle-path" d="M78.612,62.131h2.722a.793.793,0,0,1,.793.793v2.722a.793.793,0,0,1-.793.793H78.612a.793.793,0,0,1-.793-.793V62.924A.793.793,0,0,1,78.612,62.131Z" fill="#231f20"/>
                    <rect id="Rectangle-path-2" data-name="Rectangle-path" x="84.424" y="62.131" width="4.308" height="4.308" rx="0.793" ry="0.793" fill="#231f20"/>
                  </g>
                  <g id="eye-open">
                    <path id="Shape-6" data-name="Shape" d="M136.166,63.287c-.2-.349-4.967-8.556-13.849-8.556h-.3c-8.88,0-13.65,8.207-13.849,8.556l-.12.207v.519l.12.206c.2.349,4.967,8.555,13.849,8.555h.3c8.88,0,13.65-8.206,13.849-8.555l.12-.249v-.48Zm-13.849,7.687h-.3c-6.735,0-10.949-5.614-12.017-7.222,1.068-1.605,5.28-7.221,12.017-7.221h.3c6.737,0,10.951,5.617,12.017,7.223C133.272,65.362,129.074,70.974,122.317,70.974Z" fill="#231f20"/>
                    <path id="Shape-7" data-name="Shape" d="M121.833,58.626a5.23,5.23,0,1,0,5.23,5.231A5.23,5.23,0,0,0,121.833,58.626Zm0,8.662a3.431,3.431,0,1,1,3.43-3.431A3.431,3.431,0,0,1,121.833,67.288Z" fill="#231f20"/>
                  </g>
                  <g id="eye-closed-copy">
                    <path id="Shape-8" data-name="Shape" d="M176.167,62.619a1.075,1.075,0,0,0,.12-.487.9.9,0,0,0-.12-.445c-.2-.349-4.967-8.556-13.849-8.556h-.3a14.042,14.042,0,0,0-6.307,1.505l-4.352-4.354a.9.9,0,0,0-1.274,1.274l4,4a19.782,19.782,0,0,0-5.918,6.129.9.9,0,0,0-.12.445v.042a.9.9,0,0,0,.12.445c.2.349,4.966,8.555,13.849,8.555h.3a14.034,14.034,0,0,0,6.026-1.361l4.248,4.248a.9.9,0,1,0,1.274-1.272l-3.879-3.878A19.772,19.772,0,0,0,176.167,62.619Zm-13.849,6.755h-.3c-6.737,0-10.949-5.614-12.017-7.222a18.444,18.444,0,0,1,5.406-5.28l2.258,2.256a5.135,5.135,0,0,0-1.064,3.12,5.236,5.236,0,0,0,5.23,5.231,5.132,5.132,0,0,0,3.12-1.063l2.014,2.015A12.124,12.124,0,0,1,162.318,69.374Zm1.356-4.231a3.364,3.364,0,0,1-1.842.545,3.436,3.436,0,0,1-3.43-3.431,3.359,3.359,0,0,1,.545-1.841Zm4.994,2.449L157.079,56a12.092,12.092,0,0,1,4.94-1.071h.3c6.737,0,10.951,5.617,12.016,7.223A18.191,18.191,0,0,1,168.668,67.592Z" fill="#231f20"/>
                  </g>
                  <polyline id="arrow_open" data-name="arrow open" points="232 60 224.145 66 216 60" fill="none" stroke="#222" stroke-linecap="round" stroke-linejoin="round" stroke-width="2.16"/>
                  <g id="Group-4" data-name="Group">
                    <polyline id="arrow_open-2" data-name="arrow open" points="188.39 62.439 195.683 55.748 203.245 62.439" fill="none" stroke="#222" stroke-linecap="round" stroke-linejoin="round" stroke-width="2.16"/>
                    <path id="Path-8" d="M195.817,70.314V57.35" fill="none" stroke="#222" stroke-linecap="round" stroke-width="2.16"/>
                  </g>
                  <g id="Group-Copy">
                    <polyline id="arrow_open-3" data-name="arrow open" points="258.61 63.561 251.317 70.252 243.755 63.561" fill="none" stroke="#222" stroke-linecap="round" stroke-linejoin="round" stroke-width="2.16"/>
                    <path id="Path-8-2" data-name="Path-8" d="M251.183,55.686V68.65" fill="none" stroke="#222" stroke-linecap="round" stroke-width="2.16"/>
                  </g>
                </g>
              </g>
            </g>
          </g>
        </g>
      </g>
    </g>
  </g>
</svg>
