<svg xmlns="http://www.w3.org/2000/svg" viewBox="0 0 285.795 78.833"><g id="grid"><g id="Specified"><g id="case-large-1440-measured"><g id="Group-20"><g id="Stacked-Group-10"><g id="Group-19"><g id="Stacked-Group"><g id="Stacked-Group-8"><g id="Group-8"><path id="Shape" fill="none" d="M0 0h25v25H0V0z"/><g id="Group"><path id="_" data-name="?" d="M11.442 14.16a3.871 3.871 0 01.186-1.335 2.446 2.446 0 01.849-1l.744-.575a2.691 2.691 0 00.779-.857 2.271 2.271 0 00.243-1.082 1.657 1.657 0 00-.412-1.182 1.428 1.428 0 00-1.092-.44 1.82 1.82 0 00-1.367.524 2.148 2.148 0 00-.509 1.555H9a3.7 3.7 0 011.019-2.78A3.848 3.848 0 0112.817 6a3.308 3.308 0 012.458.895 3.188 3.188 0 01.89 2.349 3.235 3.235 0 01-.421 1.706 5.658 5.658 0 01-1.261 1.386l-.583.473a2.077 2.077 0 00-.558.608 1.534 1.534 0 00-.137.693v.236h-1.763zm.873 4.089a1.269 1.269 0 01-.962-.423 1.428 1.428 0 01-.4-1.013 1.4 1.4 0 01.4-1.006 1.281 1.281 0 01.962-.413 1.308 1.308 0 01.971.413 1.388 1.388 0 01.4 1.006 1.414 1.414 0 01-.4 1.013 1.3 1.3 0 01-.971.423z" fill="#222"/></g><circle id="Oval-2" cx="12" cy="12" r="11.1" fill="none" stroke="#222" stroke-width="1.8"/></g><g id="Group-5"><circle id="Oval-2-2" data-name="Oval-2" cx="47" cy="12" r="11.1" fill="none" stroke="#222" stroke-width="1.8"/><g id="Group-2" data-name="Group" fill="#222"><path id="_2" data-name="!" d="M46.468 5.016h2.288v9.441h-2.288V5.016z"/><path id="_3" data-name="!" d="M47.584 18.984a1.745 1.745 0 01-1.25-.49 1.569 1.569 0 01-.515-1.177 1.536 1.536 0 01.515-1.166 1.763 1.763 0 011.25-.481 1.8 1.8 0 011.26.481 1.523 1.523 0 01.526 1.166 1.555 1.555 0 01-.526 1.177 1.78 1.78 0 01-1.26.49z"/></g></g><g id="Group-6"><circle id="Oval-2-3" data-name="Oval-2" cx="81" cy="12" r="11.1" fill="none" stroke="#222" stroke-width="1.8"/><path id="Combined-Shape" d="M80.076 12.924h-4.8a.928.928 0 11-.066-1.854h4.866V6.243a.928.928 0 111.855 0v4.829h4.829a.928.928 0 110 1.855h-4.829v4.866a.928.928 0 11-1.854-.066l-.001-4.803z" fill="#222"/><path id="Combined-Shape-2" data-name="Combined-Shape" d="M81.924 12.924v4.8a.928.928 0 11-1.854.066c0-.119-.005-1.816 0-4.866h-4.827a.928.928 0 110-1.855h4.829v-4.83a.928.928 0 111.855 0v4.838h4.866a.928.928 0 11-.066 1.854c-.081-.008-1.958-.008-4.803-.007z" fill="#222"/></g><g id="Group-7"><g id="Group-3" data-name="Group"><path id="Shape-2" data-name="Shape" d="M116.924 12.635l2.627-3.2.864-1.054.328-.4a.92.92 0 011.338-.107 1.024 1.024 0 01.1 1.4l-.327.4-.864 1.054-2.622 3.2a1621.97 1621.97 0 00-3.789 4.632.922.922 0 01-1.441.054l-4.542-5.17a1.025 1.025 0 01.056-1.4.92.92 0 011.341.059l3.816 4.343c.641-.791 1.691-2.076 3.115-3.811z" fill="#222"/></g><circle id="Oval-2-Copy" cx="115" cy="12" r="11.1" fill="none" stroke="#222" stroke-width="1.8"/></g><g id="Group-9" fill="none" stroke="#222" stroke-width="1.8"><circle id="Oval-2-4" data-name="Oval-2" cx="149.231" cy="12.231" r="11.331"/><path id="Path" d="M149.4 7.2a2.5 2.5 0 102.312 1.545A2.5 2.5 0 00149.4 7.2z"/><path id="Path-2" data-name="Path" d="M149.476 20.5a7.99 7.99 0 006.086-2.82 8.456 8.456 0 00-11.979.213 7.983 7.983 0 005.893 2.607zm0 0h0z"/></g></g><g id="Stacked-Group-9"><g id="icons-03"><path id="Shape-3" data-name="Shape" d="M61.163 62.356h-.013v-5.45a1.213 1.213 0 00-1.213-1.213h-.827v-2.571a1.222 1.222 0 00-1.222-1.222H37.99a2.76 2.76 0 00-2.76 2.683h-.016v15.953a3.559 3.559 0 003.558 3.557h21.166a1.216 1.216 0 001.212-1.216v-4.6h.008zm-23.173-8.7h19.37v2.028H37.99a1.014 1.014 0 010-2.028zm21.391 18.663H38.775a1.786 1.786 0 01-1.785-1.783V57.269a2.748 2.748 0 001 .2h21.394v4.889H55.94a2.961 2.961 0 100 5.92h3.441zm-.05-8.131v2.255H55.94a1.128 1.128 0 010-2.255z" fill="#231f20"/></g><g id="icons-04"><path id="Shape-4" data-name="Shape" d="M23.472 73.409l-4.8-4.963c-.02-.021-.046-.029-.066-.047a10.379 10.379 0 10-1.266 1.237c.015.018.021.042.038.06l4.8 4.963a.9.9 0 101.294-1.25zM10.725 70.2a8.671 8.671 0 118.671-8.67 8.67 8.67 0 01-8.671 8.67z" fill="#222"/></g><g id="icons-05" fill="#231f20"><path id="Shape-5" data-name="Shape" d="M94.016 52.948h-3.38v-1.61a.9.9 0 10-1.8 0v1.61h-7.9v-1.61a.9.9 0 10-1.8 0v1.61h-3.172a2.41 2.41 0 00-2.41 2.411v17.28a2.409 2.409 0 002.41 2.411h18.052a2.409 2.409 0 002.41-2.411v-17.28a2.41 2.41 0 00-2.41-2.411zm-18.052 1.8h18.052a.611.611 0 01.61.611v2.677H75.354v-2.677a.611.611 0 01.61-.611zm18.052 18.507H75.964a.611.611 0 01-.61-.611V59.836h19.272v12.808a.611.611 0 01-.61.611z"/><path id="Rectangle-path" d="M78.612 62.131h2.722a.793.793 0 01.793.793v2.722a.793.793 0 01-.793.793h-2.722a.793.793 0 01-.793-.793v-2.722a.793.793 0 01.793-.793z"/><rect id="Rectangle-path-2" data-name="Rectangle-path" x="84.424" y="62.131" width="4.308" height="4.308" rx=".793" ry=".793"/></g><g id="eye-open" fill="#231f20"><path id="Shape-6" data-name="Shape" d="M136.166 63.287c-.2-.349-4.967-8.556-13.849-8.556h-.3c-8.88 0-13.65 8.207-13.849 8.556l-.12.207v.519l.12.206c.2.349 4.967 8.555 13.849 8.555h.3c8.88 0 13.65-8.206 13.849-8.555l.12-.249v-.48zm-13.849 7.687h-.3c-6.735 0-10.949-5.614-12.017-7.222 1.068-1.605 5.28-7.221 12.017-7.221h.3c6.737 0 10.951 5.617 12.017 7.223-1.062 1.608-5.26 7.22-12.017 7.22z"/><path id="Shape-7" data-name="Shape" d="M121.833 58.626a5.23 5.23 0 105.23 5.231 5.23 5.23 0 00-5.23-5.231zm0 8.662a3.431 3.431 0 113.43-3.431 3.431 3.431 0 01-3.43 3.431z"/></g><g id="eye-closed-copy"><path id="Shape-8" data-name="Shape" d="M176.167 62.619a1.075 1.075 0 00.12-.487.9.9 0 00-.12-.445c-.2-.349-4.967-8.556-13.849-8.556h-.3a14.042 14.042 0 00-6.307 1.505l-4.352-4.354a.9.9 0 00-1.274 1.274l4 4a19.782 19.782 0 00-5.918 6.129.9.9 0 00-.12.445v.042a.9.9 0 00.12.445c.2.349 4.966 8.555 13.849 8.555h.3a14.034 14.034 0 006.026-1.361l4.248 4.248a.9.9 0 101.274-1.272l-3.879-3.878a19.772 19.772 0 006.182-6.29zm-13.849 6.755h-.3c-6.737 0-10.949-5.614-12.017-7.222a18.444 18.444 0 015.406-5.28l2.258 2.256a5.135 5.135 0 00-1.064 3.12 5.236 5.236 0 005.23 5.231 5.132 5.132 0 003.12-1.063l2.014 2.015a12.124 12.124 0 01-4.647.943zm1.356-4.231a3.364 3.364 0 01-1.842.545 3.436 3.436 0 01-3.43-3.431 3.359 3.359 0 01.545-1.841zm4.994 2.449L157.079 56a12.092 12.092 0 014.94-1.071h.3c6.737 0 10.951 5.617 12.016 7.223a18.191 18.191 0 01-5.667 5.44z" fill="#231f20"/></g><path id="arrow_open" data-name="arrow open" fill="none" stroke="#222" stroke-linecap="round" stroke-linejoin="round" stroke-width="2.16" d="M232 60l-7.855 6L216 60"/><g id="Group-4" data-name="Group" fill="none" stroke="#222" stroke-linecap="round" stroke-width="2.16"><path id="arrow_open-2" data-name="arrow open" stroke-linejoin="round" d="M188.39 62.439l7.293-6.691 7.562 6.691"/><path id="Path-8" d="M195.817 70.314V57.35"/></g><g id="Group-Copy" fill="none" stroke="#222" stroke-linecap="round" stroke-width="2.16"><path id="arrow_open-3" data-name="arrow open" stroke-linejoin="round" d="M258.61 63.561l-7.293 6.691-7.562-6.691"/><path id="Path-8-2" data-name="Path-8" d="M251.183 55.686V68.65"/></g></g></g></g></g></g></g></g></g></svg>