<svg xmlns="http://www.w3.org/2000/svg" viewBox="0 0 285.795 54.5"><g id="grid"><g id="Specified"><g id="case-small-320-measured-copy"><g id="logo-primary"><g id="C1-logo-primary" fill="#231f20"><path id="Shape" d="M109.217 34.71a5.58 5.58 0 01-2.1 1.218 8.278 8.278 0 01-2.635.419 6.234 6.234 0 01-4.648-1.659 6.306 6.306 0 01-1.638-4.627V14.966h-3.575v-1.9H98.2v-5.05h2.214v5.046h7.348v1.9h-7.348V29.84a4.884 4.884 0 001.084 3.428 4.157 4.157 0 003.209 1.173 5.137 5.137 0 003.586-1.285z"/><path id="Shape-2" data-name="Shape" d="M119.49 14.235a10.5 10.5 0 015.489-1.35v2.169l-.531-.043a7.676 7.676 0 00-6.02 2.412 9.672 9.672 0 00-2.17 6.706V36.17h-2.213V13.062h2.122v5.046a8 8 0 013.323-3.873z"/><path id="Shape-3" data-name="Shape" d="M144.325 15.076q2.3 2.19 2.3 6.442V36.17H144.5v-4.116a7.678 7.678 0 01-3.231 3.164 10.715 10.715 0 01-5.092 1.129 9.378 9.378 0 01-6.087-1.814 5.856 5.856 0 01-2.235-4.781 5.9 5.9 0 012.058-4.671q2.06-1.793 6.569-1.792h7.924v-1.86a6.512 6.512 0 00-1.747-4.914 7.1 7.1 0 00-5.115-1.682 12.368 12.368 0 00-4.405.8 11.072 11.072 0 00-3.563 2.126l-1.106-1.593a12.294 12.294 0 014.161-2.414 15.091 15.091 0 015.091-.863q4.3-.004 6.603 2.187zm-2.944 18.129a8.073 8.073 0 003.032-3.852v-4.338h-7.88q-3.41 0-4.935 1.238a4.149 4.149 0 00-1.523 3.408 4.269 4.269 0 001.683 3.566 7.567 7.567 0 004.735 1.3 8.687 8.687 0 004.888-1.322z"/><path id="Shape-4" data-name="Shape" d="M174.118 3.323v32.845h-2.169v-5.442a9.928 9.928 0 01-3.852 4.161 10.859 10.859 0 01-5.622 1.46 11.473 11.473 0 01-5.847-1.5 10.776 10.776 0 01-4.094-4.161 12.224 12.224 0 01-1.483-6.065 12.348 12.348 0 011.483-6.089 10.581 10.581 0 014.094-4.161 11.63 11.63 0 015.843-1.483 10.657 10.657 0 015.556 1.461 10.39 10.39 0 013.873 4.073V3.323zm-6.75 29.792a8.9 8.9 0 003.319-3.453 10.269 10.269 0 001.217-5.045 10.292 10.292 0 00-1.217-5.046 8.9 8.9 0 00-3.319-3.453 9.755 9.755 0 00-9.521 0 8.9 8.9 0 00-3.32 3.453 10.292 10.292 0 00-1.217 5.046 10.291 10.291 0 001.217 5.045 8.879 8.879 0 003.32 3.453 9.749 9.749 0 009.521 0z"/><path id="Shape-5" data-name="Shape" d="M200.1 25.148h-19.873a9.653 9.653 0 001.372 4.8 8.773 8.773 0 003.474 3.254 10.459 10.459 0 004.938 1.151 10.576 10.576 0 004.183-.819 8.153 8.153 0 003.209-2.412l1.283 1.46a9.872 9.872 0 01-3.784 2.79 13.2 13.2 0 01-11.09-.532 10.919 10.919 0 01-4.227-4.161 11.948 11.948 0 01-1.523-6.065 12.56 12.56 0 011.439-6.043 10.616 10.616 0 013.962-4.189 11.451 11.451 0 0111.311-.022 10.562 10.562 0 013.933 4.144 12.449 12.449 0 011.439 6.021zm-15.362-9.23a8.283 8.283 0 00-3.122 3.054 9.976 9.976 0 00-1.35 4.45h17.708a9.28 9.28 0 00-1.327-4.428 8.6 8.6 0 00-7.527-4.161 8.834 8.834 0 00-4.378 1.085z"/><g id="_Group_" data-name="Group"><path id="Shape-6" data-name="Shape" d="M21.194 0a20.033 20.033 0 1014.165 5.867A20.032 20.032 0 0021.194 0zm8.961 31.2a14.323 14.323 0 01-22.1-16.876.953.953 0 011.746.762 12.418 12.418 0 0019.16 14.632.952.952 0 111.192 1.482z"/><path id="Shape-7" data-name="Shape" d="M92.366 13.755a.393.393 0 01.362.548L82.6 38.12a12.01 12.01 0 01-3.9 5.59 9.564 9.564 0 01-5.611 1.618 11.638 11.638 0 01-3.543-.555 8.074 8.074 0 01-2.613-1.333.4.4 0 01-.095-.491l2.061-4.011a.4.4 0 01.6-.126 5.788 5.788 0 001.393.762 5.526 5.526 0 001.984.381 3.529 3.529 0 002.221-.661 5.624 5.624 0 001.535-2.2l.086-.213L67 14.3a.394.394 0 01.362-.549h6.007a.4.4 0 01.364.243l6.344 15.327L86.463 14a.4.4 0 01.364-.242z"/><path id="Shape-8" data-name="Shape" d="M58.664 36.534l-4.909-6.864-5.079 6.869a.425.425 0 01-.341.172h-6.182a.424.424 0 01-.337-.682l8.311-10.882L42.1 14.433a.424.424 0 01.34-.679h6.4a.425.425 0 01.344.175l4.737 6.524 4.865-6.528a.424.424 0 01.34-.17h6.016a.424.424 0 01.338.681l-8.016 10.54 8.361 11.055a.424.424 0 01-.338.68h-6.48a.421.421 0 01-.343-.177z"/></g></g></g></g></g></g></svg>