<svg viewBox="0 0 286.393 208" xmlns="http://www.w3.org/2000/svg"><path d="M-.451 111.209h79.8v96.52h-79.8z" fill="none"/><path d="M25.12 109.37a2.8 2.8 0 01-1.093 2.352 4.748 4.748 0 01-2.969.844 7.431 7.431 0 01-3.125-.524v-1.281a8.258 8.258 0 001.531.469 8.1 8.1 0 001.641.172 3.313 3.313 0 002-.5 1.655 1.655 0 00.672-1.4 1.79 1.79 0 00-.239-.972 2.212 2.212 0 00-.8-.7 11.079 11.079 0 00-1.7-.726 5.424 5.424 0 01-2.277-1.352 2.98 2.98 0 01-.684-2.039 2.535 2.535 0 01.992-2.1 4.125 4.125 0 012.625-.782 7.729 7.729 0 013.133.625l-.414 1.157a7.073 7.073 0 00-2.75-.594 2.659 2.659 0 00-1.648.453 1.494 1.494 0 00-.594 1.258 1.924 1.924 0 00.219.972 2.045 2.045 0 00.738.7 9.164 9.164 0 001.59.7 6.305 6.305 0 012.473 1.375 2.705 2.705 0 01.679 1.893zm8 3.039v-5.539a2.237 2.237 0 00-.476-1.562 1.942 1.942 0 00-1.492-.516 2.443 2.443 0 00-1.973.735 3.719 3.719 0 00-.621 2.406v4.476h-1.3v-12.156h1.3v3.68a7.956 7.956 0 01-.063 1.1h.078a2.648 2.648 0 011.09-.972 3.533 3.533 0 011.614-.356 3.3 3.3 0 012.355.746 3.14 3.14 0 01.785 2.371v5.586zm3.852-10.882a.862.862 0 01.219-.653.81.81 0 011.086 0 .847.847 0 01.226.649.859.859 0 01-.226.652.76.76 0 01-.539.215.749.749 0 01-.547-.215.877.877 0 01-.219-.648zm1.406 10.882h-1.3v-8.562h1.3zm8.61 0v-5.539a2.237 2.237 0 00-.477-1.562 1.939 1.939 0 00-1.492-.516 2.46 2.46 0 00-1.969.727 3.665 3.665 0 00-.625 2.4v4.492h-1.3v-8.562h1.055l.211 1.172h.062a2.653 2.653 0 011.117-.981 3.643 3.643 0 011.6-.347 3.253 3.253 0 012.328.746 3.173 3.173 0 01.781 2.386v5.586zm2.601-8.562h1.391l1.875 4.883a18.425 18.425 0 01.765 2.414h.063c.067-.266.21-.72.426-1.364s.922-2.621 2.121-5.933h1.39l-3.679 9.75a4.859 4.859 0 01-1.278 2.051 2.72 2.72 0 01-1.793.605 5.2 5.2 0 01-1.172-.133v-1.039a4.493 4.493 0 00.961.094 1.981 1.981 0 001.907-1.5l.476-1.219zm-20.918 27.919a3.656 3.656 0 01-2.879-1.145 4.709 4.709 0 01-1.019-3.238 4.846 4.846 0 011.035-3.32 3.724 3.724 0 012.949-1.172 5.819 5.819 0 011.234.133 4.023 4.023 0 01.969.312l-.4 1.1a6.08 6.08 0 00-.938-.286 4.212 4.212 0 00-.9-.113q-2.608 0-2.61 3.328a3.959 3.959 0 00.637 2.422 2.216 2.216 0 001.887.844 5.752 5.752 0 002.2-.461v1.148a4.676 4.676 0 01-2.165.448zm11.586-4.446a4.721 4.721 0 01-1.055 3.27 3.713 3.713 0 01-2.914 1.176 3.865 3.865 0 01-2.039-.539 3.572 3.572 0 01-1.375-1.547 5.39 5.39 0 01-.484-2.36 4.714 4.714 0 011.047-3.261 3.7 3.7 0 012.906-1.168 3.621 3.621 0 012.855 1.195 4.7 4.7 0 011.059 3.234zm-6.523 0a4.061 4.061 0 00.656 2.5 2.6 2.6 0 003.863 0 4.037 4.037 0 00.66-2.5 3.972 3.972 0 00-.66-2.48 2.32 2.32 0 00-1.949-.848 2.285 2.285 0 00-1.922.836 4.02 4.02 0 00-.648 2.492zm8.687-6.593a.862.862 0 01.219-.653.81.81 0 011.086 0 .847.847 0 01.226.649.857.857 0 01-.226.652.755.755 0 01-.539.215.745.745 0 01-.547-.215.875.875 0 01-.219-.648zm1.406 10.883h-1.3v-8.563h1.3zm8.61 0v-5.54a2.232 2.232 0 00-.477-1.562 1.939 1.939 0 00-1.492-.516 2.465 2.465 0 00-1.969.727 3.665 3.665 0 00-.625 2.4v4.493h-1.3v-8.563h1.055l.211 1.172h.063a2.641 2.641 0 011.117-.981 3.636 3.636 0 011.6-.347 3.251 3.251 0 012.328.746 3.175 3.175 0 01.782 2.387v5.586z" fill="#111"/><ellipse cx="39.449" cy="181.662" fill="#ccc" rx="14.44" ry="14.76"/><path d="M39.449 161.451a20.216 20.216 0 000 40.423 20.216 20.216 0 000-40.423zm0 36.239a16.031 16.031 0 1115.708-16.028 15.871 15.871 0 01-15.708 16.028z" fill="#ccc" fill-rule="evenodd"/><path d="M103.296 111.408h79.8v96.52h-79.8z" fill="none"/><path d="M121.1 104.316a3.2 3.2 0 01-1.184 2.668 5.363 5.363 0 01-3.386.933h-1.344v4.492h-1.328v-11.422h2.961q4.281 0 4.281 3.329zm-5.914 2.461h1.195a4.447 4.447 0 002.555-.571 2.1 2.1 0 00.789-1.828 1.969 1.969 0 00-.742-1.687 3.87 3.87 0 00-2.313-.555h-1.484zm15.499 1.343a4.725 4.725 0 01-1.055 3.27 3.715 3.715 0 01-2.914 1.176 3.862 3.862 0 01-2.039-.539 3.56 3.56 0 01-1.375-1.547 5.39 5.39 0 01-.484-2.36 4.714 4.714 0 011.046-3.261 3.7 3.7 0 012.907-1.168 3.621 3.621 0 012.855 1.195 4.7 4.7 0 011.059 3.234zm-6.524 0a4.06 4.06 0 00.657 2.5 2.6 2.6 0 003.863 0 4.044 4.044 0 00.66-2.5 3.976 3.976 0 00-.66-2.48 2.318 2.318 0 00-1.949-.848 2.281 2.281 0 00-1.922.836 4.019 4.019 0 00-.649 2.492zm14.321 1.953a2.144 2.144 0 01-.891 1.844 4.182 4.182 0 01-2.5.649 5.439 5.439 0 01-2.656-.539v-1.2a6.489 6.489 0 001.324.493 5.523 5.523 0 001.363.179 3.094 3.094 0 001.563-.324 1.116 1.116 0 00.113-1.844 6.843 6.843 0 00-1.691-.84 9.086 9.086 0 01-1.7-.777 2.349 2.349 0 01-.75-.754 1.966 1.966 0 01-.246-1.008 1.922 1.922 0 01.852-1.652 3.973 3.973 0 012.336-.605 6.832 6.832 0 012.7.562l-.461 1.055a6.187 6.187 0 00-2.336-.531 2.689 2.689 0 00-1.391.289.893.893 0 00-.468.8.963.963 0 00.176.586 1.708 1.708 0 00.566.461 12.7 12.7 0 001.5.633 5.608 5.608 0 012.059 1.117 1.974 1.974 0 01.538 1.406zm2-8.546a.866.866 0 01.218-.653.81.81 0 011.086 0 .844.844 0 01.227.649.855.855 0 01-.227.652.793.793 0 01-1.086 0 .88.88 0 01-.218-.648zm1.406 10.882h-1.3v-8.562h1.3zm5.512-.909a4.107 4.107 0 00.664-.051 4.446 4.446 0 00.507-.105v.992a2.334 2.334 0 01-.621.168 4.692 4.692 0 01-.738.067q-2.484 0-2.484-2.618v-5.093h-1.227v-.625l1.227-.539.547-1.829h.75v1.985h2.484v1.008h-2.484v5.039a1.732 1.732 0 00.367 1.187 1.275 1.275 0 001.008.414zm2.777-9.973a.862.862 0 01.219-.653.81.81 0 011.086 0 .847.847 0 01.226.649.859.859 0 01-.226.652.76.76 0 01-.539.215.749.749 0 01-.547-.215.877.877 0 01-.219-.648zm1.406 10.882h-1.3v-8.562h1.3zm4.625 0l-3.25-8.562h1.391l1.844 5.078a23.892 23.892 0 01.734 2.312h.062a17.884 17.884 0 01.543-1.714q.457-1.3 2.051-5.676h1.391l-3.25 8.562zm9.758.157a3.932 3.932 0 01-3-1.157 4.477 4.477 0 01-1.1-3.211 4.966 4.966 0 011.02-3.289 3.389 3.389 0 012.738-1.218 3.228 3.228 0 012.547 1.058 4.058 4.058 0 01.937 2.793v.82h-5.9a3.4 3.4 0 00.762 2.29 2.636 2.636 0 002.035.781 6.9 6.9 0 002.734-.578v1.156a6.846 6.846 0 01-1.3.426 7.319 7.319 0 01-1.473.129zm-.352-7.789a2.117 2.117 0 00-1.644.671 3.107 3.107 0 00-.723 1.86h4.477a2.853 2.853 0 00-.547-1.879 1.925 1.925 0 00-1.563-.652zm-58.48 26.989a3.935 3.935 0 01-3-1.156 4.475 4.475 0 01-1.1-3.211 4.962 4.962 0 011.02-3.289 3.385 3.385 0 012.738-1.219 3.228 3.228 0 012.547 1.058 4.058 4.058 0 01.937 2.793v.821h-5.9a3.393 3.393 0 00.762 2.289 2.636 2.636 0 002.035.781 6.884 6.884 0 002.734-.578v1.156a6.831 6.831 0 01-1.3.426 7.3 7.3 0 01-1.473.129zm-.352-7.789a2.114 2.114 0 00-1.644.672 3.1 3.1 0 00-.723 1.859h4.477a2.856 2.856 0 00-.547-1.879 1.925 1.925 0 00-1.563-.652zm7.774 3.25l-2.977-4.18h1.477l2.258 3.281 2.25-3.281h1.461l-2.977 4.18 3.133 4.383h-1.469l-2.4-3.469-2.422 3.469h-1.469zm10.305 4.539a3.7 3.7 0 01-1.528-.309 2.877 2.877 0 01-1.16-.949h-.094a11.392 11.392 0 01.094 1.422v3.523h-1.3v-12.406h1.055l.18 1.172h.062a3.011 3.011 0 011.164-1.016 3.544 3.544 0 011.524-.312 3.16 3.16 0 012.628 1.164 6.2 6.2 0 01-.015 6.543 3.173 3.173 0 01-2.61 1.168zm-.188-7.774a2.3 2.3 0 00-1.9.727 3.738 3.738 0 00-.6 2.312v.289a4.275 4.275 0 00.6 2.582 2.285 2.285 0 001.929.778 2.007 2.007 0 001.739-.9 4.258 4.258 0 00.629-2.476 4.1 4.1 0 00-.629-2.457 2.067 2.067 0 00-1.768-.855zm9.627 7.774a3.935 3.935 0 01-3-1.156 4.48 4.48 0 01-1.1-3.211 4.962 4.962 0 011.02-3.289 3.386 3.386 0 012.738-1.219 3.228 3.228 0 012.547 1.058 4.058 4.058 0 01.938 2.793v.821h-5.9a3.393 3.393 0 00.762 2.289 2.636 2.636 0 002.035.781 6.884 6.884 0 002.734-.578v1.156a6.846 6.846 0 01-1.3.426 7.319 7.319 0 01-1.474.129zm-.351-7.789a2.115 2.115 0 00-1.645.672 3.1 3.1 0 00-.723 1.859h4.477a2.856 2.856 0 00-.547-1.879 1.924 1.924 0 00-1.564-.652zm9.615-1.086a5.034 5.034 0 011.023.094l-.18 1.2a4.433 4.433 0 00-.937-.118 2.284 2.284 0 00-1.777.844 3.074 3.074 0 00-.739 2.1v4.594h-1.3v-8.563h1.071l.148 1.586h.063a3.747 3.747 0 011.148-1.289 2.588 2.588 0 011.48-.448zm2.515-2.164a.866.866 0 01.219-.653.81.81 0 011.086 0 .847.847 0 01.227.649.858.858 0 01-.227.652.754.754 0 01-.539.215.746.746 0 01-.547-.215.879.879 0 01-.219-.648zm1.407 10.883h-1.3v-8.563h1.3zm6.367.156a3.935 3.935 0 01-3-1.156 4.475 4.475 0 01-1.1-3.211 4.962 4.962 0 011.02-3.289 3.384 3.384 0 012.738-1.219 3.228 3.228 0 012.547 1.058 4.058 4.058 0 01.937 2.793v.821h-5.9a3.4 3.4 0 00.761 2.289 2.64 2.64 0 002.036.781 6.884 6.884 0 002.734-.578v1.156a6.854 6.854 0 01-1.3.426 7.3 7.3 0 01-1.473.129zm-.352-7.789a2.114 2.114 0 00-1.644.672 3.1 3.1 0 00-.723 1.859h4.477a2.856 2.856 0 00-.547-1.879 1.926 1.926 0 00-1.564-.652zm11.571 7.633v-5.54a2.237 2.237 0 00-.477-1.562 1.939 1.939 0 00-1.492-.516 2.463 2.463 0 00-1.969.727 3.665 3.665 0 00-.625 2.4v4.493h-1.3v-8.563h1.055l.211 1.172h.062a2.653 2.653 0 011.117-.981 3.643 3.643 0 011.6-.347 3.253 3.253 0 012.328.746 3.174 3.174 0 01.781 2.387v5.586zm7.382.156a3.656 3.656 0 01-2.879-1.145 4.709 4.709 0 01-1.019-3.238 4.851 4.851 0 011.035-3.32 3.724 3.724 0 012.949-1.172 5.829 5.829 0 011.235.133 4.029 4.029 0 01.968.312l-.4 1.1a6.08 6.08 0 00-.938-.286 4.2 4.2 0 00-.9-.113q-2.608 0-2.609 3.328a3.966 3.966 0 00.636 2.422 2.216 2.216 0 001.887.844 5.752 5.752 0 002.195-.461v1.148a4.676 4.676 0 01-2.16.448zm7.813 0a3.935 3.935 0 01-3-1.156 4.475 4.475 0 01-1.1-3.211 4.962 4.962 0 011.02-3.289 3.384 3.384 0 012.738-1.219 3.228 3.228 0 012.547 1.058 4.058 4.058 0 01.937 2.793v.821h-5.9a3.393 3.393 0 00.762 2.289 2.636 2.636 0 002.035.781 6.884 6.884 0 002.734-.578v1.156a6.854 6.854 0 01-1.3.426 7.3 7.3 0 01-1.473.129zm-.352-7.789a2.114 2.114 0 00-1.644.672 3.1 3.1 0 00-.723 1.859h4.477a2.856 2.856 0 00-.547-1.879 1.925 1.925 0 00-1.563-.652z" fill="#111"/><path d="M160.352 175.8c0 .021-.006.041-.008.062a2.509 2.509 0 01-.013.356c-.013.09-.041.173-.062.26a17.6 17.6 0 01-6.685 11.618 17.013 17.013 0 01-24.142-3.447 17.694 17.694 0 01-3.3-8.153 2.452 2.452 0 01-.093-.755l-.006-.048h.008a2.411 2.411 0 01.925-1.8 2.328 2.328 0 013.3.473 2.427 2.427 0 01.472 1.347h.012a12.885 12.885 0 002.425 6.058 12.381 12.381 0 0017.572 2.508 12.8 12.8 0 004.873-8.488h.017a2.279 2.279 0 012.672-2.286 2.385 2.385 0 012.025 2.3z" fill="#ccc" fill-rule="evenodd"/><path d="M206.593 111.209h79.8v96.52h-79.8z" fill="none"/><path d="M246.493 161.458c-10.76 0-19.483 8.973-19.483 20.042s8.723 20.041 19.483 20.041 19.482-8.973 19.482-20.041a20.339 20.339 0 00-5.706-14.172 19.209 19.209 0 00-13.776-5.87zm8.714 31.215a13.624 13.624 0 01-17.165.2 14.587 14.587 0 01-4.324-17.088.926.926 0 01.745-.566.913.913 0 01.849.381.973.973 0 01.1.946 12.648 12.648 0 003.75 14.815 11.812 11.812 0 0014.88-.177.9.9 0 01.93-.171.947.947 0 01.592.757.965.965 0 01-.363.9z" fill="#ccc"/><path d="M241.446 106.682a6.285 6.285 0 01-1.387 4.312 4.877 4.877 0 01-3.856 1.571 4.938 4.938 0 01-3.894-1.543 6.342 6.342 0 01-1.371-4.356 6.258 6.258 0 011.375-4.324 4.972 4.972 0 013.906-1.535 4.864 4.864 0 013.844 1.562 6.283 6.283 0 011.383 4.313zm-9.1 0a5.417 5.417 0 00.988 3.519 4.036 4.036 0 005.739 0 6.855 6.855 0 000-7.019 3.457 3.457 0 00-2.855-1.192 3.524 3.524 0 00-2.887 1.2 5.361 5.361 0 00-.987 3.492zm13.514 1.344l-2.977-4.18h1.477l2.257 3.281 2.25-3.281h1.461l-2.976 4.18 3.133 4.382h-1.469l-2.4-3.468-2.421 3.468h-1.469zm4.961-4.18h1.39l1.875 4.883a18.632 18.632 0 01.766 2.414h.062q.1-.4.426-1.364t2.121-5.933h1.391l-3.68 9.75a4.858 4.858 0 01-1.277 2.051 2.722 2.722 0 01-1.793.6 5.2 5.2 0 01-1.172-.133v-1.034a4.48 4.48 0 00.961.094 1.981 1.981 0 001.906-1.5l.477-1.219zm-11.395 27.763v-5.571a2.31 2.31 0 00-.437-1.535 1.7 1.7 0 00-1.36-.512 2.195 2.195 0 00-1.789.7 3.3 3.3 0 00-.578 2.14v4.782h-1.3v-5.571a2.31 2.31 0 00-.437-1.535 1.7 1.7 0 00-1.368-.512 2.119 2.119 0 00-1.785.731 3.95 3.95 0 00-.566 2.394v4.493h-1.3v-8.563h1.055l.211 1.172h.062a2.555 2.555 0 011.035-.977 3.171 3.171 0 011.5-.351 2.543 2.543 0 012.631 1.449h.063a2.735 2.735 0 011.109-1.063 3.447 3.447 0 011.656-.39 2.9 2.9 0 012.176.746 3.336 3.336 0 01.723 2.387v5.586zm9.234 0l-.257-1.219h-.063a3.612 3.612 0 01-1.277 1.09 3.9 3.9 0 01-1.59.285 2.86 2.86 0 01-2-.656 2.4 2.4 0 01-.723-1.868q0-2.594 4.149-2.718l1.453-.047v-.532a2.173 2.173 0 00-.434-1.488 1.784 1.784 0 00-1.387-.48 5.641 5.641 0 00-2.421.656l-.4-.992a6.247 6.247 0 012.9-.735 3.262 3.262 0 012.269.68 2.838 2.838 0 01.738 2.18v5.844zm-2.929-.915a2.631 2.631 0 001.9-.664 2.454 2.454 0 00.691-1.859v-.771l-1.3.054a4.71 4.71 0 00-2.231.481 1.448 1.448 0 00-.683 1.324 1.334 1.334 0 00.425 1.07 1.767 1.767 0 001.198.365zm10.469-7.804a5.044 5.044 0 011.024.094l-.18 1.2a4.433 4.433 0 00-.937-.118 2.286 2.286 0 00-1.778.844 3.079 3.079 0 00-.738 2.1v4.594h-1.3v-8.563h1.071l.148 1.586h.062a3.76 3.76 0 011.149-1.289 2.585 2.585 0 011.479-.448zm3.906 4.336a14.946 14.946 0 011.023-1.25l2.766-2.93h1.539l-3.469 3.648 3.711 4.915h-1.57l-3.024-4.047-.976.843v3.2h-1.282v-12.153h1.282v6.448q0 .429-.063 1.328z" fill="#111"/><path d="M193.526 187.613a.772.772 0 01-.608-1.245l4.359-5.629-4.364-5.791a.772.772 0 111.232-.929l4.719 6.262a.773.773 0 01-.006.937l-4.719 6.095a.771.771 0 01-.613.3zm-100.702 0a.772.772 0 01-.608-1.245l4.359-5.629-4.364-5.791a.772.772 0 111.232-.929l4.719 6.262a.771.771 0 01-.006.937l-4.719 6.095a.769.769 0 01-.613.3z" fill="#111" fill-rule="evenodd" opacity=".25"/><path d="M107.8 5.419a27.52 27.52 0 1019.458 8.06 27.52 27.52 0 00-19.458-8.06zm12.309 42.86A19.675 19.675 0 0189.752 25.1a1.309 1.309 0 012.4 1.047 17.059 17.059 0 0026.32 20.1A1.308 1.308 0 01120.2 48.2a.88.88 0 01-.1.077zm85.461-23.964a.539.539 0 01.5.752l-13.915 32.718a16.5 16.5 0 01-5.358 7.679 13.148 13.148 0 01-7.708 2.223 15.984 15.984 0 01-4.867-.763 11.072 11.072 0 01-3.589-1.831.549.549 0 01-.131-.674l2.831-5.51a.55.55 0 01.744-.226.593.593 0 01.081.053 7.923 7.923 0 001.913 1.046 7.6 7.6 0 002.726.524 4.854 4.854 0 003.051-.908 7.738 7.738 0 002.108-3.022l.118-.293-13.349-31.02a.541.541 0 01.5-.754h8.252a.549.549 0 01.5.334l8.712 21.057 8.772-21.047a.549.549 0 01.5-.332z" fill="#231f20"/><path d="M159.274 55.606l-6.744-9.429-6.977 9.436a.582.582 0 01-.469.236h-8.492a.582.582 0 01-.463-.936l11.417-14.949-11.027-14.718a.583.583 0 01.115-.816.59.59 0 01.352-.117h8.792a.583.583 0 01.473.241l6.507 8.962 6.683-8.968a.58.58 0 01.467-.233h8.264a.582.582 0 01.465.935l-11.012 14.479 11.486 15.186a.582.582 0 01-.465.934h-8.9a.576.576 0 01-.472-.243z" fill="#231f20"/></svg>