<svg id="Layer_1" data-name="Layer 1" xmlns="http://www.w3.org/2000/svg" viewBox="0 0 280 225"><path fill="#fff" stroke="#231f20" stroke-linecap="round" stroke-linejoin="round" stroke-width="3.314" d="M56.876 205.556h190.78m-210.981 0h12.941"/><path d="M179.555 102.97h58.926v72.4h-59.2v-72.123a.276.276 0 01.274-.277z" fill="none"/><path d="M238.481 176h-59.2a.627.627 0 01-.626-.627v-72.211a.819.819 0 01.818-.818h59.011a.626.626 0 01.626.626v72.4a.627.627 0 01-.629.63zm-58.581-1.256h57.951V103.6H179.9z" fill="#231f20"/><path fill="#fff" d="M180.844 104.787h36.628v66.43h-36.628z"/><path d="M217.471 171.53h-36.627a.313.313 0 01-.313-.313v-66.43a.313.313 0 01.313-.313h36.627a.313.313 0 01.313.313v66.43a.313.313 0 01-.313.313zm-36.314-.626h36V105.1h-36z" fill="#231f20"/><path d="M209.045 139.172a10.669 10.669 0 11-1.271-10.181" fill="#fff"/><path d="M199.127 146.373a11.136 11.136 0 119.027-17.657.469.469 0 11-.76.55 10.2 10.2 0 101.214 9.734.47.47 0 11.873.347 11.082 11.082 0 01-10.354 7.026z" fill="#231f20"/><path d="M205.172 140.471a10.707 10.707 0 01-2.975 3.358" fill="#fff"/><path d="M202.2 144.142a.313.313 0 01-.186-.565 10.47 10.47 0 002.887-3.259.313.313 0 01.546.307 11.106 11.106 0 01-3.062 3.456.306.306 0 01-.185.061z" fill="#231f20"/><path d="M205.219 130.088a10.621 10.621 0 011.323 5.149 10.738 10.738 0 01-.164 1.876" fill="#fff"/><path d="M206.378 137.426a.262.262 0 01-.055 0 .312.312 0 01-.253-.363 10.4 10.4 0 00-1.125-6.818.313.313 0 11.548-.3 11.024 11.024 0 011.193 7.231.314.314 0 01-.308.25zm-7.807-12.319h-2.556a.313.313 0 01-.313-.313v-6.138a.313.313 0 01.313-.313h2.556a.313.313 0 01.313.313v6.138a.313.313 0 01-.313.313zm-2.243-.626h1.93v-5.511h-1.93z" fill="#231f20"/><path d="M199.615 120.059h-4.539l-.811-11.881a2.113 2.113 0 012.109-2.258h1.855a2.114 2.114 0 012.11 2.243z" fill="#fff"/><path d="M199.615 120.529h-4.539a.47.47 0 01-.469-.437l-.807-11.882a2.584 2.584 0 012.578-2.76h1.855a2.583 2.583 0 012.579 2.741l-.724 11.9a.47.47 0 01-.473.438zm-4.1-.939h3.658l.7-11.456a1.646 1.646 0 00-1.642-1.745h-1.855a1.645 1.645 0 00-1.641 1.757z" fill="#231f20"/><path transform="rotate(-135 187.044 144.61)" fill="#fff" d="M185.766 141.541h2.557v6.138h-2.557z"/><path d="M185.778 148a.311.311 0 01-.221-.091l-1.808-1.808a.313.313 0 010-.443l4.34-4.34a.314.314 0 01.443 0l1.807 1.808a.312.312 0 010 .443l-4.34 4.34a.311.311 0 01-.221.091zm-1.365-2.121l1.365 1.365 3.9-3.9-1.365-1.365z" fill="#231f20"/><path d="M184.224 144.147l3.21 3.209-7.828 8.975a2.113 2.113 0 01-3.088.105l-1.312-1.311a2.114 2.114 0 01.094-3.078z" fill="#fff"/><path d="M178.014 157.525a2.593 2.593 0 01-1.828-.756l-1.312-1.312a2.583 2.583 0 01.115-3.762l8.924-7.9a.469.469 0 01.643.019l3.21 3.21a.47.47 0 01.022.641l-7.828 8.975a2.593 2.593 0 01-1.859.884zm6.191-12.734l-8.594 7.607a1.645 1.645 0 00-.073 2.4l1.312 1.312a1.645 1.645 0 002.4-.083l7.54-8.644z" fill="#231f20"/><path transform="rotate(135 207.06 144.604)" fill="#fff" d="M205.782 141.536h2.557v6.138h-2.557z"/><path d="M208.327 147.991a.311.311 0 01-.221-.091l-4.341-4.34a.315.315 0 010-.443l1.808-1.808a.323.323 0 01.443 0l4.34 4.34a.314.314 0 010 .443l-1.808 1.808a.311.311 0 01-.221.091zm-3.9-4.653l3.9 3.9 1.365-1.365-3.9-3.9z" fill="#231f20"/><path d="M206.6 147.424l3.21-3.21 8.974 7.828a2.115 2.115 0 01.106 3.089l-1.312 1.311a2.114 2.114 0 01-3.078-.093z" fill="#fff"/><path d="M216.083 157.531H216a2.563 2.563 0 01-1.857-.87l-7.9-8.924a.471.471 0 01.02-.644l3.21-3.21a.47.47 0 01.64-.022l8.975 7.828a2.585 2.585 0 01.129 3.775l-1.312 1.311a2.557 2.557 0 01-1.822.756zm-8.842-10.087l7.607 8.594a1.646 1.646 0 002.395.072l1.312-1.311a1.645 1.645 0 00-.082-2.4l-8.644-7.539z" fill="#231f20"/><path d="M199.909 145.115a10.668 10.668 0 111.931-18.722" fill="#fff"/><path d="M195.876 146.373A11.136 11.136 0 11202.1 126a.47.47 0 01-.526.778 10.2 10.2 0 10-1.846 17.9.47.47 0 01.355.87 11.076 11.076 0 01-4.207.825zm24.1-43.872h17.879v72.244h-17.879z" fill="#231f20"/><path fill="#fff" stroke="#212221" stroke-linecap="round" stroke-linejoin="round" stroke-width="1.803" d="M151.338 92.295l9.68 28.545 26.421-8.959 5.727-2.06L180.01 70.87l-21.938 7.439-10.229 3.506 3.495 10.48z"/><path d="M181.963 76.629l-1.018 2.84a6.026 6.026 0 01-3.714 3.666l-19.793 6.8a6.028 6.028 0 01-5.163-.595l-2.286-1.436" fill="#fff" stroke="#212221" stroke-linecap="round" stroke-linejoin="round" stroke-width="1.803"/><circle cx="168.861" cy="89.859" r="1.087" transform="rotate(-36.704 168.86 89.86)" fill="#fff" stroke="#212221" stroke-linecap="round" stroke-linejoin="round" stroke-width="1.046"/><circle cx="166.027" cy="81.998" r="2.316" transform="rotate(-36.704 166.026 81.997)" fill="#fff" stroke="#212221" stroke-linecap="round" stroke-linejoin="round" stroke-width="1.803"/><path fill="#fff" stroke="#212221" stroke-linecap="round" stroke-linejoin="round" stroke-width="1.803" d="M168.309 88.483l-1.356-3.898m1.411-2.495a2.809 2.809 0 002.446.688"/><path fill="#fff" stroke="#231f20" stroke-linecap="round" stroke-linejoin="round" stroke-width=".75" d="M172.955 179.012h21.383"/><path fill="#fff" stroke="#231f20" stroke-linecap="round" stroke-linejoin="round" stroke-width="1.002" d="M153.993 182.048h47.336"/><circle cx="177.058" cy="48.509" r="9.148" fill="#fff100" stroke="#212221" stroke-linecap="round" stroke-linejoin="round" stroke-width=".511"/><circle cx="174.161" cy="47.812" r="9.148" fill="#fff100" stroke="#212221" stroke-linecap="round" stroke-linejoin="round" stroke-width=".511"/><path d="M177.794 47.953a1.723 1.723 0 001.268-1.678c.109-1.322-.934-1.958-2.329-2.333l.319-1.8-1.093-.194-.314 1.752c-.289-.05-.586-.1-.88-.145l.317-1.768-1.1-.195-.319 1.8c-.24-.037-.475-.077-.7-.116v0L171.452 43l-.209 1.171s.8.126.8.142a.571.571 0 01.544.593l-.882 4.939a.394.394 0 01-.477.289c.014.015-.8-.142-.8-.142l-.453 1.27 1.43.257c.264.046.523.1.782.148l-.326 1.818 1.1.2.319-1.8c.3.057.592.112.877.162l-.323 1.8 1.1.2.327-1.818c1.863.224 3.236-.01 3.707-1.711a1.9 1.9 0 00-1.174-2.565zm-3.633-.777l.383-2.16c.61.111 2.559.262 2.331 1.531-.218 1.221-2.103.736-2.714.629zm-.621 3.467l.424-2.379c.734.131 3.065.333 2.814 1.73-.237 1.344-2.509.779-3.238.649z" fill="#fff100" stroke="#231f20" stroke-linecap="round" stroke-linejoin="round" stroke-width=".511"/><circle cx="148.207" cy="130.013" r="12.023" fill="#fff100" stroke="#212221" stroke-linecap="round" stroke-linejoin="round" stroke-width="1.002"/><circle cx="145.444" cy="129.49" r="12.023" fill="#fff100" stroke="#212221" stroke-linecap="round" stroke-linejoin="round" stroke-width="1.002"/><path d="M149.174 129.282a2.265 2.265 0 001.666-2.206c.144-1.737-1.228-2.573-3.061-3.065l.419-2.369-1.436-.254-.413 2.3a90.112 90.112 0 00-1.157-.191l.417-2.324-1.441-.255-.42 2.368c-.316-.049-.625-.1-.923-.152v-.006l-1.988-.359-.274 1.539s1.049.165 1.045.187a.752.752 0 01.716.779l-1.16 6.491a.517.517 0 01-.627.38c.019.021-1.045-.186-1.045-.186l-.6 1.668 1.88.339c.347.06.687.13 1.027.194l-.429 2.389 1.441.261.419-2.368c.395.074.779.147 1.153.212l-.424 2.362 1.442.256.429-2.389c2.448.3 4.254-.014 4.872-2.249a2.5 2.5 0 00-1.528-3.352zm-4.776-1.02l.5-2.84c.8.146 3.363.344 3.064 2.013-.283 1.604-2.762.965-3.562.827zm-.816 4.556l.557-3.127c.965.171 4.029.437 3.7 2.273-.313 1.767-3.298 1.024-4.257.854z" fill="#fff100" stroke="#231f20" stroke-linecap="round" stroke-linejoin="round" stroke-width=".501"/><path d="M164.632 66.281l-10.2 45-50.81-11.511 2.783-12.285 11.164-49.263 34.585 7.836s-6.082 15.381-.517 16.579 12.995 3.644 12.995 3.644z" fill="#fff" stroke="#212221" stroke-linecap="round" stroke-linejoin="round" stroke-width="2.003"/><path fill="#fff" stroke="#212221" stroke-linecap="round" stroke-linejoin="round" stroke-width="2.003" d="M152.154 46.058l.614.82 11.864 19.403m0 0s-7.43-2.446-13-3.644.517-16.579.517-16.579z"/><path fill="#fff" stroke="#231f20" stroke-linecap="round" stroke-linejoin="round" stroke-width="2.003" d="M132.231 162.819H31.282l.208-76.021h100.741v76.021z"/><path fill="#fff" stroke="#231f20" stroke-linecap="round" stroke-linejoin="round" stroke-width="1.503" d="M77.378 128.944l1.603 5.335m-11.392-24.793l5.173 17.216"/><path fill="#fff" stroke="#231f20" stroke-linecap="round" stroke-linejoin="round" stroke-width="2.003" d="M31.282 158.136v7.53l34.985 47.42 100.208-2.427 1.278-4.536-35.398-47.249"/><path fill="#fff" stroke="#231f20" stroke-linecap="round" stroke-linejoin="round" stroke-width="1.002" d="M68.717 207.144l98.753-1.563m-101.291-.418l-34.897-47.027m60.92 29.93h28.271l8.956 12.193-29.111.096-8.116-12.289zM42.255 163.09h87.234l15.521 21.489-85.354 1.263-17.401-22.752zm86.794-4.216H51.447m-19.002 0h6.71"/><path fill="#231f20" d="M66.267 213.086l1.969-5.942 99.517-1.021-1.278 4.536-100.208 2.427z"/><path fill="#fff100" stroke="#212221" stroke-linecap="round" stroke-linejoin="round" stroke-width="2.003" d="M136.521 96.619l-16.836 42.962-39.766-15.583-4.368-14.592 18.652-47.593 33.017 12.939 15.393 6.09-6.092 15.777z"/><path d="M90.806 70.48l1.259 4.107a9.9 9.9 0 005.814 6.3l29.151 11.562a9.971 9.971 0 008.579-.587l3.288-1.856" fill="none" stroke="#212221" stroke-linecap="round" stroke-linejoin="round" stroke-width="2.003"/><circle cx="109.898" cy="91.645" r="1.65" transform="rotate(-32.99 109.898 91.646)" fill="#fff" stroke="#212221" stroke-linecap="round" stroke-linejoin="round" stroke-width="1.152"/><circle cx="114.764" cy="80.432" r="3.35" transform="rotate(-32.99 114.763 80.432)" fill="#fff" stroke="#212221" stroke-linecap="round" stroke-linejoin="round" stroke-width="2.003"/><path fill="none" stroke="#212221" stroke-linecap="round" stroke-linejoin="round" stroke-width="2.003" d="M110.733 89.785l2.459-6.069m-1.7-3.965a4.3 4.3 0 01-3.789.877"/></svg>