<svg xmlns="http://www.w3.org/2000/svg" viewBox="0 0 285.795 54.5"><g id="grid"><g id="Specified"><g id="case-small-320-measured-copy"><path d="M10.824 16.224L9.7 12.915H2.183l-1.126 3.309H0L5.539.138h.827l5.515 16.086zM5.952 1.654L2.505 11.973h6.871zm8.822 14.57h-.965V.138h.965v8.709a4.5 4.5 0 014.3-2.757 5.03 5.03 0 015.126 5.193 5.025 5.025 0 01-5.125 5.17 4.51 4.51 0 01-4.3-2.734zm8.456-4.941a4.117 4.117 0 00-4.182-4.274 4.14 4.14 0 00-4.274 4.274 4.134 4.134 0 004.274 4.251 4.112 4.112 0 004.182-4.251zm11.419-1.356c-.161-1.517-1.172-2.942-3.63-2.942-2.575 0-3.953 2.046-3.953 4.275 0 2.252 1.332 4.274 4 4.274 2.252 0 3.332-1.172 3.631-2.712h.988c-.3 2.046-1.769 3.631-4.664 3.631-3.218 0-4.918-2.5-4.918-5.193a4.851 4.851 0 014.918-5.17c3.148 0 4.435 1.907 4.618 3.837zm12.384 3.792a4.477 4.477 0 01-4.274 2.734 5.043 5.043 0 01-5.148-5.17 5.048 5.048 0 015.148-5.193 4.463 4.463 0 014.274 2.757V.138h.988v16.086h-.988zm0-2.436a4.217 4.217 0 10-8.433 0 4.217 4.217 0 108.433 0zm4.823.092c.023 2.229 1.241 4.205 3.953 4.205a3.337 3.337 0 003.355-2.137h1.011a4.241 4.241 0 01-4.366 3.01c-3.309 0-4.918-2.435-4.918-5.193 0-2.964 1.747-5.17 4.849-5.17a4.454 4.454 0 014.573 4.434 6.374 6.374 0 01-.046.851zm.023-.827h7.469a3.545 3.545 0 00-3.631-3.654 3.651 3.651 0 00-3.838 3.654zm16.612-9.422A3.015 3.015 0 0067.158.9c-.942 0-2.045.3-2.045 2.6v2.819h3.378v.873h-3.378v9.032h-.965V7.192h-2.367v-.873h2.367V3.562C64.148.367 65.849 0 67.089 0a3.542 3.542 0 011.4.253zm10.937 16.017c0 4.021-2 5.492-5.285 5.492-3.562 0-4.895-2.275-5.01-4.825h.967c.115 2.067 1.149 3.906 4.045 3.906 2.688 0 4.3-1.2 4.3-4.573V13.7a4.462 4.462 0 01-4.273 2.757 5.049 5.049 0 01-5.148-5.193 5.043 5.043 0 015.148-5.17 4.462 4.462 0 014.273 2.757V6.319h.989zm-9.422-5.883a4.217 4.217 0 108.433 0 4.217 4.217 0 10-8.433 0zM83.148.138h.965v8.756a4.194 4.194 0 014.045-2.8 3.741 3.741 0 012.987 1.194 4.485 4.485 0 01.988 3.172v5.768h-.965v-5.52c0-2.091-1.011-3.7-3.263-3.7a3.943 3.943 0 00-3.792 4.182v5.033h-.965zm13.004 1.011A1.138 1.138 0 1195.026 2.3a1.137 1.137 0 011.126-1.151zm-.482 5.17h.965v9.905h-.965zm6.043 13.306c0 1.93-.942 2.918-2.252 2.918a3.411 3.411 0 01-1.562-.275v-.92a2.407 2.407 0 001.309.322c.943 0 1.54-.759 1.54-2.091V6.319h.965zm-.459-18.476a1.138 1.138 0 010 2.275 1.113 1.113 0 01-1.126-1.124 1.118 1.118 0 011.126-1.151zm6.386 10.134l5.36 4.941h-1.356l-5.217-4.78v4.78h-.965V.138h.965v10.984l5.217-4.8H113zM115.084.138h.965v16.086h-.965zm18.245 16.086v-5.975c0-2.39-1.2-3.24-2.666-3.24-2.068 0-3.125 2-3.125 4.205v5.01h-.965V10.64c0-2.919-1.287-3.631-2.689-3.631-2.022 0-3.125 2-3.125 4.205v5.01h-.965V6.319h.965v2.6a3.435 3.435 0 013.309-2.826 3.038 3.038 0 013.286 2.872 3.614 3.614 0 013.47-2.872c1.93 0 3.47 1.056 3.47 3.906v6.228zm4.524-9.905h.964v2.575a4.2 4.2 0 014.045-2.8 3.741 3.741 0 012.987 1.194 4.485 4.485 0 01.988 3.172v5.768h-.964v-5.52c0-2.091-1.011-3.7-3.264-3.7a3.944 3.944 0 00-3.792 4.182v5.033h-.964zm11.533 4.964a5.2 5.2 0 0110.409 0 5.2 5.2 0 01-10.409 0zm9.421 0a4.216 4.216 0 10-8.432 0 4.216 4.216 0 108.432 0zm4.709-2.436a4.5 4.5 0 014.3-2.757 5.023 5.023 0 015.124 5.17 5.03 5.03 0 01-5.124 5.193 4.5 4.5 0 01-4.3-2.757v8.709h-.965V6.319h.965zm0 2.413a4.229 4.229 0 108.457 0 4.229 4.229 0 10-8.457 0zm20.656-4.941h.965v16.086h-.965V13.7a4.5 4.5 0 01-4.3 2.757 5.044 5.044 0 01-5.125-5.193 5.038 5.038 0 015.125-5.17 4.5 4.5 0 014.3 2.757zm-8.456 4.941a4.228 4.228 0 108.456 0 4.228 4.228 0 10-8.456 0zm18.909-4.022a3.121 3.121 0 00-.988-.137c-2.642 0-3.791 2.435-3.791 4.641v4.482h-.965V6.319h.965v2.735a3.988 3.988 0 013.791-2.9 2.536 2.536 0 01.988.161zM203.2 13.6c0 1.815-1.379 2.849-3.77 2.849-2.274 0-4.181-1.034-4.181-3.585h.964c0 2 1.449 2.736 3.241 2.736 1.815 0 2.8-.736 2.8-1.955 0-1.516-1.54-1.722-3.378-2.113-1.747-.345-3.309-.689-3.309-2.642 0-1.793 1.471-2.8 3.608-2.8 2.229 0 3.861 1.172 3.861 3.286h-.965c0-1.609-1.173-2.437-2.873-2.437-1.609 0-2.689.713-2.689 1.977 0 1.355 1.241 1.586 3.149 1.977 1.792.367 3.542.689 3.542 2.707zm7.6 2.624a10.9 10.9 0 01-1.655.137c-1.379 0-2.872-.321-2.872-3.423V7.192h-2.183v-.873h2.184V2.275h.965v4.044h3.194v.873h-3.194V12.8c0 2.344.965 2.642 2.068 2.642a10.619 10.619 0 001.494-.115zm10.57-9.905v9.905h-.988v-2.575a4.172 4.172 0 01-4.045 2.8 3.721 3.721 0 01-2.963-1.194 4.529 4.529 0 01-1.012-3.172V6.319h.988v5.516c0 2.113 1.011 3.723 3.263 3.723a3.96 3.96 0 003.769-4.206V6.319zm3.03 0l3.93 8.549 3.975-8.549h1.057l-4.642 9.905h-.781l-4.6-9.905zm16.89 1.126l-3.126 8.779h-.758l-3.815-9.905h1.034l3.148 8.5 3.033-8.5h.988l3.011 8.5 3.149-8.5h1.056l-3.81 9.905h-.781zm16.817 8.779h-1.149l-3.08-4.2-3.055 4.205h-1.15l3.627-4.969-3.6-4.941h1.148l3.033 4.183 3.057-4.183h1.149l-3.63 4.941zm2.25 1.654h.966c.114 2.551 1.08 3.884 3.631 3.884 2.343 0 3.561-1.1 3.561-4.229v-3.884a4.132 4.132 0 01-4 2.8 3.758 3.758 0 01-3.079-1.126c-.689-.735-.942-1.746-.942-3.424v-5.58h.965v5.355c0 2.413.758 3.884 3.332 3.884 2.505 0 3.723-2.276 3.723-4.206V6.319h.965v11.214c0 3.677-1.517 5.1-4.55 5.1-3.193.002-4.503-1.633-4.572-4.755zM280.14 6.319l-6.618 9.008h6.687v.9h-8.457l6.619-8.986h-6.32v-.922zM1.241 39.232a5.054 5.054 0 015.171-5.193 5.051 5.051 0 015.216 5.193v6.319a5.046 5.046 0 01-5.216 5.171 5.049 5.049 0 01-5.171-5.171zm9.376 0a4.1 4.1 0 00-4.205-4.251 4.094 4.094 0 00-4.16 4.251v6.319a4.088 4.088 0 004.16 4.229 4.1 4.1 0 004.205-4.229zM13.533 37c2.735 0 3.194-.735 3.194-2.666h.965v16.089h-1.034V37.876h-3.125zM25.5 42.61c2.16-.781 3.883-1.609 3.883-4.159 0-1.953-1.356-3.4-3.837-3.4a3.859 3.859 0 00-4.045 4.09h-1.007a4.838 4.838 0 015.079-5.032c3.056 0 4.825 1.792 4.825 4.412 0 3.033-2.274 4.136-4.412 4.895-3.332 1.241-4.366 2.666-4.366 6.066h8.916v.942H20.517c0-5.01 1.471-6.549 4.983-7.814zm7.355 3.332c0 2.252 1.677 3.769 4.182 3.769 2.528 0 4.136-1.517 4.136-3.585s-1.47-3.539-4.044-3.539h-1.287v-.942h1.287c2.39 0 3.769-1.355 3.769-3.286 0-2-1.517-3.309-3.861-3.309-2.459 0-3.883 1.4-3.883 3.47h-1.011c0-2.62 1.93-4.412 4.848-4.412s4.918 1.724 4.918 4.251a3.619 3.619 0 01-3.125 3.746 3.914 3.914 0 013.4 4.021c0 2.689-2.115 4.527-5.171 4.527-3.01 0-5.17-1.861-5.17-4.711zm18.198-1.378H44.8V34.337h1.011v9.285h5.24v-5.217h1.01v5.217h2.829v.942h-2.827v5.859h-1.01zM57.3 34.337h8.893v.943h-7.95v7.22a4.415 4.415 0 013.929-2.115 4.9 4.9 0 015.125 5.1 5.205 5.205 0 01-10.41 0H57.9a4.194 4.194 0 104.16-4.159 3.714 3.714 0 00-3.631 2.252H57.3zm11.855 11.146a5.394 5.394 0 01.828-2.9l5.124-8.25h1.172l-4.251 6.734a3.388 3.388 0 012.3-.781 5.182 5.182 0 11-5.171 5.193zm9.376 0a4.182 4.182 0 10-4.205 4.228 4.1 4.1 0 004.205-4.228zm11.212-11.146L82 50.423h-1.08l7.307-15.143h-7.883v-.943zm.297 11.789a3.926 3.926 0 013.332-4.021 3.615 3.615 0 01-3.056-3.7c0-2.482 1.884-4.3 4.918-4.3 3.01 0 4.917 1.815 4.917 4.3a3.636 3.636 0 01-3.056 3.7 3.906 3.906 0 013.309 4.021c0 2.6-1.976 4.527-5.17 4.527s-5.194-1.907-5.194-4.527zm9.353 0c0-2.022-1.539-3.539-4.159-3.539-2.643 0-4.183 1.494-4.183 3.539 0 2.091 1.609 3.585 4.183 3.585 2.55 0 4.159-1.517 4.159-3.585zm-.253-7.7c0-1.953-1.516-3.378-3.906-3.378-2.367 0-3.884 1.4-3.884 3.378 0 1.907 1.448 3.286 3.884 3.286s3.906-1.377 3.906-3.284zm13.533.852a5.34 5.34 0 01-.827 2.9l-5.125 8.25h-1.172l4.251-6.738a3.107 3.107 0 01-2.206.781 5.182 5.182 0 115.079-5.193zm-9.376 0a4.183 4.183 0 104.228-4.228 4.11 4.11 0 00-4.225 4.228z" id="Abcdefghijklmnopqrst"/></g></g></g></svg>