<svg width="64" height="63" viewBox="0 0 64 63" fill="none" xmlns="http://www.w3.org/2000/svg"><path d="M32.578 7.83H13.084a2.897 2.897 0 00-2.896 2.896v41.795c0 1.6 1.296 2.896 2.896 2.896h19.494c1.6 0 2.896-1.297 2.896-2.896V10.726c0-1.6-1.296-2.896-2.896-2.896z" stroke="#fff" stroke-width="1.257" stroke-linecap="round" stroke-linejoin="round"/><path d="M32.052 17.268l-10.96 6.464v16.262l11.072 6.688m-.056-16.609l-11.016-6.341m17.736-6.464l10.95 6.464v16.262l-11.073 6.688m.057-16.609l11.016-6.341m6.595 7.571h4.932M47.373 48.795l3.49 3.5m-3.048-37.097l3.5-3.49M17.86 51.94l9.696.044" stroke="#fff" stroke-width="1.257" stroke-linecap="round" stroke-linejoin="round"/></svg>