<svg width="273" height="618" viewBox="0 0 273 618" fill="none" xmlns="http://www.w3.org/2000/svg"><path d="M66.419 20.6h2.112v-9.744h4.112v-1.68h-10.32v1.68h4.096V20.6zm19.483 0h2.336L91.39 9.176h-2.08l-2.272 8.864h-.032l-2.224-8.864h-2.144l-2.224 8.864h-.032l-2.288-8.864h-2.176L79.07 20.6h2.32l2.24-8.816h.032l2.24 8.816zm19.603-5.712c0-3.424-2.096-5.904-5.456-5.904-3.36 0-5.456 2.48-5.456 5.904 0 3.44 2.096 5.904 5.456 5.904 3.36 0 5.456-2.464 5.456-5.904zm-2.16 0c0 2.544-1.12 4.224-3.296 4.224-2.192 0-3.296-1.68-3.296-4.224 0-2.528 1.104-4.224 3.296-4.224 2.176 0 3.296 1.696 3.296 4.224zm13.802-.016c0-2.592 1.152-4.208 3.216-4.208 1.632 0 2.384.928 2.608 2.096h2.064c-.4-2.24-1.936-3.776-4.672-3.776-3.2 0-5.376 2.368-5.376 5.888 0 3.552 2.176 5.92 5.376 5.92 2.736 0 4.272-1.552 4.672-3.776h-2.064c-.224 1.168-.976 2.096-2.608 2.096-2.064 0-3.216-1.632-3.216-4.24zm22.449.016c0-3.424-2.096-5.904-5.456-5.904-3.36 0-5.456 2.48-5.456 5.904 0 3.44 2.096 5.904 5.456 5.904 3.36 0 5.456-2.464 5.456-5.904zm-2.16 0c0 2.544-1.12 4.224-3.296 4.224-2.192 0-3.296-1.68-3.296-4.224 0-2.528 1.104-4.224 3.296-4.224 2.176 0 3.296 1.696 3.296 4.224zm8.986-5.712h-2.48V20.6h2.032v-8.848h.032l5.872 8.848h1.968V9.176h-2.016v8.096h-.032l-5.376-8.096zm13.956 5.696c0-2.592 1.152-4.208 3.216-4.208 1.632 0 2.384.928 2.608 2.096h2.064c-.4-2.24-1.936-3.776-4.672-3.776-3.2 0-5.376 2.368-5.376 5.888 0 3.552 2.176 5.92 5.376 5.92 2.736 0 4.272-1.552 4.672-3.776h-2.064c-.224 1.168-.976 2.096-2.608 2.096-2.064 0-3.216-1.632-3.216-4.24zm20.433 5.728v-1.68h-6.192v-3.2h5.424v-1.68h-5.424v-3.184h6.128v-1.68h-8.208V20.6h8.272zm9.38-4.208c2.688 0 4.256-1.216 4.256-3.6 0-2.384-1.568-3.616-4.272-3.616h-4.72V20.6h2.08v-4.208h2.656zm-2.656-1.664v-3.872h2.464c1.568 0 2.352.624 2.352 1.936 0 1.296-.784 1.936-2.352 1.936h-2.464zM202.06 20.6h2.112v-9.744h4.112v-1.68h-10.32v1.68h4.096V20.6zM89.33 44.144c.207 2.512 2.303 3.648 5.023 3.648 2.528 0 4.432-1.376 4.432-3.456 0-1.84-1.12-2.768-2.992-3.12l-2.208-.432c-1.232-.24-1.824-.544-1.824-1.488 0-1.008.864-1.728 2.24-1.728 1.424 0 2.416.624 2.56 1.744h2c-.224-2.144-1.856-3.328-4.576-3.328-2.496 0-4.288 1.408-4.288 3.44 0 2 1.36 2.8 3.04 3.104l2.096.384c1.376.256 1.872.72 1.872 1.552 0 1.152-1.056 1.76-2.416 1.76-1.424 0-2.768-.528-2.912-2.08H89.33zm16.887 3.456h2.112v-9.744h4.112v-1.68h-10.32v1.68h4.096V47.6zm12.604 0v-4.272h2.56l2.608 4.272h2.32l-2.864-4.592c1.296-.416 2.432-1.472 2.432-3.248 0-2.336-1.568-3.584-4.24-3.584h-4.896V47.6h2.08zm0-5.936v-3.808h2.576c1.584 0 2.384.656 2.384 1.904 0 1.248-.8 1.904-2.384 1.904h-2.576zm19.935 5.936v-1.68h-6.192v-3.2h5.424v-1.68h-5.424v-3.184h6.128v-1.68h-8.208V47.6h8.272zm12.916 0h2.176l-4.592-11.424h-2.384L142.28 47.6h2.08l1.088-2.8h5.152l1.072 2.8zm-3.648-9.376h.048l1.888 4.928h-3.856l1.92-4.928zm16.498 9.376l3.248-8.976h.032V47.6h2.032V36.176h-2.912l-3.072 8.592h-.032l-3.072-8.592h-3.008V47.6h1.952v-8.976h.032l3.264 8.976h1.536zm9.567-3.456c.208 2.512 2.304 3.648 5.024 3.648 2.528 0 4.432-1.376 4.432-3.456 0-1.84-1.12-2.768-2.992-3.12l-2.208-.432c-1.232-.24-1.824-.544-1.824-1.488 0-1.008.864-1.728 2.24-1.728 1.424 0 2.416.624 2.56 1.744h2c-.224-2.144-1.856-3.328-4.576-3.328-2.496 0-4.288 1.408-4.288 3.44 0 2 1.36 2.8 3.04 3.104l2.096.384c1.376.256 1.872.72 1.872 1.552 0 1.152-1.056 1.76-2.416 1.76-1.424 0-2.768-.528-2.912-2.08h-2.048zM45.244 236.041h1.632l-3.444-8.568h-1.788l-3.444 8.568h1.56l.816-2.1h3.864l.804 2.1zm-2.736-7.032h.036l1.416 3.696h-2.892l1.44-3.696zm9.445 7.032v-3.204h1.92l1.957 3.204h1.74l-2.148-3.444c.972-.312 1.824-1.104 1.824-2.436 0-1.752-1.177-2.688-3.18-2.688h-3.672v8.568h1.56zm0-4.452v-2.856h1.932c1.189 0 1.788.492 1.788 1.428 0 .936-.6 1.428-1.788 1.428h-1.931zm20.472 4.452h1.632l-3.444-8.568h-1.788l-3.444 8.568h1.56l.816-2.1h3.864l.804 2.1zm-2.736-7.032h.036l1.416 3.696h-2.892l1.44-3.696zm8.709 2.736c0-1.944.864-3.156 2.412-3.156 1.224 0 1.788.696 1.956 1.572h1.548c-.3-1.68-1.452-2.832-3.504-2.832-2.4 0-4.032 1.776-4.032 4.416 0 2.664 1.632 4.44 4.032 4.44 2.052 0 3.204-1.164 3.504-2.832h-1.548c-.168.876-.732 1.572-1.956 1.572-1.548 0-2.412-1.224-2.412-3.18zm12.16 4.296h1.583v-7.308h3.084v-1.26h-7.74v1.26h3.072v7.308zm8.492 0h1.596v-8.568H99.05v8.568zm8.483 0h1.776l3.396-8.568h-1.62l-2.616 6.864h-.024l-2.604-6.864h-1.692l3.384 8.568zm14.169 0h1.632l-3.444-8.568h-1.788l-3.444 8.568h1.56l.816-2.1h3.864l.804 2.1zm-2.736-7.032h.036l1.416 3.696h-2.892l1.44-3.696zm9.633 7.032h1.584v-7.308h3.084v-1.26h-7.74v1.26h3.072v7.308zm8.492 0h1.596v-8.568h-1.596v8.568zm13.655-4.284c0-2.568-1.572-4.428-4.092-4.428-2.52 0-4.092 1.86-4.092 4.428 0 2.58 1.572 4.428 4.092 4.428 2.52 0 4.092-1.848 4.092-4.428zm-1.62 0c0 1.908-.84 3.168-2.472 3.168-1.644 0-2.472-1.26-2.472-3.168 0-1.896.828-3.168 2.472-3.168 1.632 0 2.472 1.272 2.472 3.168zm7.34-4.284h-1.86v8.568h1.524v-6.636h.024l4.404 6.636h1.476v-8.568h-1.512v6.072h-.024l-4.032-6.072zm9.351 5.976c.156 1.884 1.728 2.736 3.768 2.736 1.896 0 3.324-1.032 3.324-2.592 0-1.38-.84-2.076-2.244-2.34l-1.656-.324c-.924-.18-1.368-.408-1.368-1.116 0-.756.648-1.296 1.68-1.296 1.068 0 1.812.468 1.92 1.308h1.5c-.168-1.608-1.392-2.496-3.432-2.496-1.872 0-3.216 1.056-3.216 2.58 0 1.5 1.02 2.1 2.28 2.328l1.572.288c1.032.192 1.404.54 1.404 1.164 0 .864-.792 1.32-1.812 1.32-1.068 0-2.076-.396-2.184-1.56h-1.536zm19.643 2.592c1.98 0 3.132-.828 3.132-2.436 0-.996-.708-1.752-1.644-2.004.696-.204 1.296-1.032 1.296-1.788 0-1.536-1.092-2.34-3.096-2.34h-3.444v8.568h3.756zm-2.196-4.944v-2.448h1.884c1.044 0 1.56.444 1.56 1.224 0 .744-.504 1.224-1.572 1.224h-1.872zm0 1.14h2.064c1.104 0 1.692.504 1.692 1.308 0 .828-.576 1.32-1.68 1.32h-2.076v-2.628zm15.376 3.804h1.632l-3.444-8.568h-1.788l-3.444 8.568h1.56l.816-2.1h3.864l.804 2.1zm-2.736-7.032h.036l1.416 3.696h-2.892l1.44-3.696zm7.298 4.44c.156 1.884 1.728 2.736 3.768 2.736 1.896 0 3.324-1.032 3.324-2.592 0-1.38-.84-2.076-2.244-2.34l-1.656-.324c-.924-.18-1.368-.408-1.368-1.116 0-.756.648-1.296 1.68-1.296 1.068 0 1.812.468 1.92 1.308h1.5c-.168-1.608-1.392-2.496-3.432-2.496-1.872 0-3.216 1.056-3.216 2.58 0 1.5 1.02 2.1 2.28 2.328l1.572.288c1.032.192 1.404.54 1.404 1.164 0 .864-.792 1.32-1.812 1.32-1.068 0-2.076-.396-2.184-1.56h-1.536zm17.172 2.592v-1.26h-4.644v-2.4h4.068v-1.26h-4.068v-2.388h4.596v-1.26h-6.156v8.568h6.204zm7.383-8.568h-3.3v8.568h3.3c2.58 0 4.284-1.704 4.284-4.284 0-2.568-1.704-4.284-4.284-4.284zm0 1.26c1.704 0 2.652 1.116 2.652 3.024s-.948 3.024-2.652 3.024h-1.74v-6.048h1.74zM51.434 260.041h1.632l-3.444-8.568h-1.788l-3.444 8.568h1.56l.816-2.1h3.864l.804 2.1zm-2.736-7.032h.036l1.416 3.696h-2.892l1.44-3.696zm9.445 7.032v-3.204h1.92l1.956 3.204h1.74l-2.148-3.444c.972-.312 1.824-1.104 1.824-2.436 0-1.752-1.176-2.688-3.18-2.688h-3.672v8.568h1.56zm0-4.452v-2.856h1.932c1.188 0 1.788.492 1.788 1.428 0 .936-.6 1.428-1.788 1.428h-1.932zm17.064.168c0-2.568-1.572-4.428-4.092-4.428-2.52 0-4.092 1.86-4.092 4.428 0 2.58 1.572 4.428 4.092 4.428 2.52 0 4.092-1.848 4.092-4.428zm-1.62 0c0 1.908-.84 3.168-2.472 3.168-1.644 0-2.472-1.26-2.472-3.168 0-1.896.828-3.168 2.472-3.168 1.632 0 2.472 1.272 2.472 3.168zm12.692.828v-5.112h-1.584v5.1c0 1.5-.696 2.34-2.076 2.34-1.38 0-2.064-.84-2.064-2.34v-5.1h-1.596v5.088c0 2.364 1.356 3.624 3.66 3.624 2.316 0 3.66-1.26 3.66-3.6zm6.095-5.112h-1.86v8.568h1.524v-6.636h.024l4.404 6.636h1.476v-8.568H96.43v6.072h-.024l-4.032-6.072zm13.215 0h-3.3v8.568h3.3c2.58 0 4.284-1.704 4.284-4.284 0-2.568-1.704-4.284-4.284-4.284zm0 1.26c1.704 0 2.652 1.116 2.652 3.024s-.948 3.024-2.652 3.024h-1.74v-6.048h1.74zm19.27 7.308h1.632l-3.444-8.568h-1.788l-3.444 8.568h1.56l.816-2.1h3.864l.804 2.1zm-2.736-7.032h.036l1.416 3.696h-2.892l1.44-3.696zm9.745-1.536h-1.86v8.568h1.524v-6.636h.024l4.404 6.636h1.476v-8.568h-1.512v6.072h-.024l-4.032-6.072zm21.039 8.568h1.632l-3.444-8.568h-1.788l-3.444 8.568h1.56l.816-2.1h3.864l.804 2.1zm-2.736-7.032h.036l1.416 3.696h-2.892l1.44-3.696zm9.632 7.032h1.584v-7.308h3.084v-1.26h-7.74v1.26h3.072v7.308zm8.493 0h1.596v-3.72h4.392v3.72h1.584v-8.568h-1.584v3.6h-4.392v-3.6h-1.596v8.568zm18.119 0v-1.26h-4.644v-2.4h4.068v-1.26h-4.068v-2.388h4.596v-1.26h-6.156v8.568h6.204zm4.083 0h6.012v-1.26h-4.416v-7.308h-1.596v8.568zm16.198 0v-1.26h-4.644v-2.4h4.068v-1.26h-4.068v-2.388h4.596v-1.26h-6.156v8.568h6.204zm6.639 0h1.584v-7.308h3.084v-1.26h-7.74v1.26h3.072v7.308zm14.696 0v-1.26h-4.644v-2.4h4.068v-1.26h-4.068v-2.388h4.596v-1.26h-6.156v8.568h6.204z" fill="#222"/><path d="M273 311.841H0" stroke="#000" stroke-width=".856"/><path d="M27.076 586.569h1.632l-3.444-8.568h-1.788l-3.444 8.568h1.56l.816-2.1h3.864l.804 2.1zm-2.736-7.032h.036l1.416 3.696H22.9l1.44-3.696zm8.709 2.736c0-1.944.864-3.156 2.412-3.156 1.224 0 1.788.696 1.956 1.572h1.548c-.3-1.68-1.452-2.832-3.504-2.832-2.4 0-4.032 1.776-4.032 4.416 0 2.664 1.632 4.44 4.032 4.44 2.052 0 3.204-1.164 3.504-2.832h-1.548c-.168.876-.732 1.572-1.956 1.572-1.548 0-2.412-1.224-2.412-3.18zm12.16 4.296h1.583v-7.308h3.084v-1.26h-7.74v1.26h3.072v7.308zm8.492 0h1.596v-8.568h-1.596v8.568zm8.483 0h1.776l3.396-8.568h-1.62l-2.616 6.864h-.024l-2.604-6.864H58.8l3.384 8.568zm14.17 0h1.631l-3.444-8.568h-1.788l-3.444 8.568h1.56l.816-2.1h3.864l.804 2.1zm-2.737-7.032h.036l1.416 3.696h-2.892l1.44-3.696zm9.633 7.032h1.584v-7.308h3.084v-1.26h-7.74v1.26h3.072v7.308zm8.492 0h1.596v-8.568h-1.596v8.568zm13.655-4.284c0-2.568-1.572-4.428-4.092-4.428-2.52 0-4.092 1.86-4.092 4.428 0 2.58 1.572 4.428 4.092 4.428 2.52 0 4.092-1.848 4.092-4.428zm-1.62 0c0 1.908-.84 3.168-2.472 3.168-1.644 0-2.472-1.26-2.472-3.168 0-1.896.828-3.168 2.472-3.168 1.632 0 2.472 1.272 2.472 3.168zm7.34-4.284h-1.86v8.568h1.524v-6.636h.024l4.404 6.636h1.476v-8.568h-1.512v6.072h-.024l-4.032-6.072zm9.351 5.976c.156 1.884 1.728 2.736 3.768 2.736 1.896 0 3.324-1.032 3.324-2.592 0-1.38-.84-2.076-2.244-2.34l-1.656-.324c-.924-.18-1.368-.408-1.368-1.116 0-.756.648-1.296 1.68-1.296 1.068 0 1.812.468 1.92 1.308h1.5c-.168-1.608-1.392-2.496-3.432-2.496-1.872 0-3.216 1.056-3.216 2.58 0 1.5 1.02 2.1 2.28 2.328l1.572.288c1.032.192 1.404.54 1.404 1.164 0 .864-.792 1.32-1.812 1.32-1.068 0-2.076-.396-2.184-1.56h-1.536zm22.608 2.592h1.752l2.364-8.568h-1.56l-1.704 6.648h-.024l-1.668-6.648h-1.608l-1.668 6.648h-.024l-1.716-6.648h-1.632l2.364 8.568h1.74l1.68-6.612h.024l1.68 6.612zm7.691 0h1.596v-8.568h-1.596v8.568zm8.495 0h1.584v-7.308h3.084v-1.26h-7.74v1.26h3.072v7.308zm8.493 0h1.596v-3.72h4.392v3.72h1.584v-8.568h-1.584v3.6h-4.392v-3.6h-1.596v8.568zm18.695-8.568h-1.86v8.568h1.524v-6.636h.024l4.404 6.636h1.476v-8.568h-1.512v6.072h-.024l-4.032-6.072zm16.119 8.568h1.632l-3.444-8.568h-1.788l-3.444 8.568h1.56l.816-2.1h3.864l.804 2.1zm-2.736-7.032h.036l1.416 3.696h-2.892l1.44-3.696zm9.633 7.032h1.584v-7.308h3.084v-1.26h-7.74v1.26h3.072v7.308zm8.492 0h1.596v-8.568h-1.596v8.568zm8.483 0h1.776l3.396-8.568h-1.62l-2.616 6.864h-.024l-2.604-6.864h-1.692l3.384 8.568zm14.896 0v-1.26h-4.644v-2.4h4.068v-1.26h-4.068v-2.388h4.596v-1.26h-6.156v8.568h6.204zm-159.789 24h1.584v-7.308h3.084v-1.26h-7.74v1.26h3.072v7.308zm14.697 0v-1.26H91.6v-2.4h4.068v-1.26H91.6v-2.388h4.596v-1.26H90.04v8.568h6.204zm5.235-4.296c0-1.944.864-3.156 2.412-3.156 1.224 0 1.788.696 1.956 1.572h1.548c-.3-1.68-1.452-2.832-3.504-2.832-2.4 0-4.032 1.776-4.032 4.416 0 2.664 1.632 4.44 4.032 4.44 2.052 0 3.204-1.164 3.504-2.832h-1.548c-.168.876-.732 1.572-1.956 1.572-1.548 0-2.412-1.224-2.412-3.18zm9.72 4.296h1.596v-3.72h4.392v3.72h1.584v-8.568h-1.584v3.6h-4.392v-3.6H111.2v8.568zm13.776-8.568h-1.86v8.568h1.524v-6.636h.024l4.404 6.636h1.476v-8.568h-1.512v6.072h-.024l-4.032-6.072zm17.631 4.284c0-2.568-1.572-4.428-4.092-4.428-2.52 0-4.092 1.86-4.092 4.428 0 2.58 1.572 4.428 4.092 4.428 2.52 0 4.092-1.848 4.092-4.428zm-1.62 0c0 1.908-.84 3.168-2.472 3.168-1.644 0-2.472-1.26-2.472-3.168 0-1.896.828-3.168 2.472-3.168 1.632 0 2.472 1.272 2.472 3.168zm5.48 4.284h6.012v-1.26h-4.416v-7.308h-1.596v8.568zm17.311-4.284c0-2.568-1.572-4.428-4.092-4.428-2.52 0-4.092 1.86-4.092 4.428 0 2.58 1.572 4.428 4.092 4.428 2.52 0 4.092-1.848 4.092-4.428zm-1.62 0c0 1.908-.84 3.168-2.472 3.168-1.644 0-2.472-1.26-2.472-3.168 0-1.896.828-3.168 2.472-3.168 1.632 0 2.472 1.272 2.472 3.168zm5.07-.012c0 2.652 1.62 4.44 4.02 4.44 1.056 0 2.148-.552 2.46-1.368l.108 1.224h1.236v-4.368h-3.24v1.152h1.656v.3c0 1.056-.864 1.8-2.124 1.8-1.596 0-2.496-1.224-2.496-3.18 0-1.944.924-3.156 2.52-3.156 1.152 0 1.8.6 2.004 1.56h1.572c-.336-1.692-1.512-2.82-3.576-2.82-2.448 0-4.14 1.776-4.14 4.416zm15.655 4.296v-3.516l3.324-5.052h-1.74l-2.316 3.66h-.024l-2.376-3.66h-1.776l3.312 5.052v3.516h1.596z" fill="#222"/><path d="M61.214 397.629l-24.388 17.047m.18-33.731l50.073 35.292-26.277 17.753v-38.035" stroke="#222" stroke-width="2.463" stroke-linecap="round" stroke-linejoin="round"/><path d="M60.803 396.283v-34.061l26.276 17.326-26.21 18.361m184.322-12.604l-18.998-18.998a3.99 3.99 0 00-5.644 0l-38.623 38.624a3.989 3.989 0 000 5.643l18.998 18.998a3.99 3.99 0 005.644 0l38.623-38.623a3.99 3.99 0 000-5.644zm-29.414 46.944l4.385 5.256m-4.369-5.255l5.255-4.368m-5.107 4.335a27.92 27.92 0 0031.137-18.961 27.921 27.921 0 00.986-13.079m-36.933-36.755l-4.385-5.239m4.37 5.256l-5.239 4.368m5.106-4.286a28 28 0 00-32.09 32.024m11.529 16.57l9.492 9.591M62.58 464.751h-.016c-8.68 0-15.716 7.036-15.716 15.716v23.863c0 8.68 7.036 15.716 15.716 15.716h.017c8.68 0 15.716-7.036 15.716-15.716v-23.863c0-8.68-7.036-15.716-15.716-15.716z" stroke="#222" stroke-width="2.463" stroke-linecap="round" stroke-linejoin="round"/><path d="M87.049 504.082a24.489 24.489 0 01-15.116 22.622 24.478 24.478 0 01-18.741 0 24.474 24.474 0 01-13.252-13.251 24.487 24.487 0 01-1.864-9.371m24.487 24.602v9.525m15.632.082h-31.27m167.554-72.819a21.22 21.22 0 00-21.202 21.202c0 11.184 19.166 43.504 19.987 44.883a1.42 1.42 0 001.215.693 1.416 1.416 0 001.215-.693c.821-1.379 19.987-33.732 19.987-44.883a21.22 21.22 0 00-21.202-21.202v0z" stroke="#222" stroke-width="2.463" stroke-linecap="round" stroke-linejoin="round"/><path d="M214.448 493.917a8.934 8.934 0 100-17.867 8.934 8.934 0 100 17.867zm8.882 38.479c3.121.525 5.124 1.346 5.124 2.266 0 1.642-5.978 2.89-13.352 2.89-7.373 0-13.368-1.297-13.368-2.89 0-.788 1.495-1.511 3.909-2.037" stroke="#222" stroke-width="2.463" stroke-linecap="round" stroke-linejoin="round"/><path d="M137.634 152.975h5.977v2.133h-5.977v6.187h-2.163v-6.187h-5.977v-2.133h5.977v-6.217h2.163v6.217z" fill="#222"/><path d="M63.422 118.536h-28.6a4.25 4.25 0 00-4.25 4.249v61.319a4.25 4.25 0 004.25 4.25h28.6a4.25 4.25 0 004.25-4.25v-61.319a4.25 4.25 0 00-4.25-4.249z" stroke="#222" stroke-width="2.461" stroke-linecap="round" stroke-linejoin="round"/><path d="M62.65 132.385l-16.08 9.484v23.858l16.245 9.812m-.082-24.367l-16.163-9.304m26.025-9.483l16.064 9.484v23.858l-16.245 9.812m.08-24.367l16.162-9.304m9.68 11.109h7.236M85.13 178.64l5.12 5.136m-4.477-54.428l5.136-5.119m-49.081 59.023l14.226.065" stroke="#222" stroke-width="2.461" stroke-linecap="round" stroke-linejoin="round"/><path d="M214.47 121.408a15.273 15.273 0 0114.982 18.256 15.28 15.28 0 01-12.002 12.003 15.281 15.281 0 01-15.682-6.496 15.274 15.274 0 01-2.575-8.487 15.291 15.291 0 0115.277-15.276zm10.337 39.79a18.246 18.246 0 0117.918 18.197v3.692h-55.92v-3.692a18.216 18.216 0 0117.885-18.197 43.807 43.807 0 009.747 1.428 52.287 52.287 0 0010.37-1.444v.016zm-10.337-42.252a17.74 17.74 0 00-17.397 21.198 17.735 17.735 0 0024.185 12.927 17.733 17.733 0 0010.949-16.387 17.738 17.738 0 00-17.737-17.738zm10.042 39.774a51.379 51.379 0 01-10.075 1.444 41.83 41.83 0 01-9.435-1.444 20.675 20.675 0 00-20.658 20.675v3.938a2.215 2.215 0 002.198 2.215h56.446a2.213 2.213 0 002.198-2.215v-3.938a20.675 20.675 0 00-20.674-20.675z" fill="#222"/></svg>