<svg width="706" height="464" viewBox="0 0 706 464" fill="none" xmlns="http://www.w3.org/2000/svg">
<path d="M628.06 412L630.496 405.268H630.52V412H632.044V403.432H629.86L627.556 409.876H627.532L625.228 403.432H622.972V412H624.436V405.268H624.46L626.908 412H628.06ZM642.603 412H644.235L640.791 403.432H639.003L635.559 412H637.119L637.935 409.9H641.799L642.603 412ZM639.867 404.968H639.903L641.319 408.664H638.427L639.867 404.968ZM646.956 407.704C646.956 410.356 648.576 412.144 650.976 412.144C652.032 412.144 653.124 411.592 653.436 410.776L653.544 412H654.78V407.632H651.54V408.784H653.196V409.084C653.196 410.14 652.332 410.884 651.072 410.884C649.476 410.884 648.576 409.66 648.576 407.704C648.576 405.76 649.5 404.548 651.096 404.548C652.248 404.548 652.896 405.148 653.1 406.108H654.672C654.336 404.416 653.16 403.288 651.096 403.288C648.648 403.288 646.956 405.064 646.956 407.704ZM665.181 412H666.813L663.369 403.432H661.581L658.137 412H659.697L660.513 409.9H664.377L665.181 412ZM662.445 404.968H662.481L663.897 408.664H661.005L662.445 404.968ZM676.846 404.632V403.432H670.078V404.692H674.902L669.922 410.884V412H676.918V410.74H671.89L676.846 404.632ZM680.863 412H682.459V403.432H680.863V412ZM688.662 403.432H686.802V412H688.326V405.364H688.35L692.754 412H694.23V403.432H692.718V409.504H692.694L688.662 403.432ZM704.781 412V410.74H700.137V408.34H704.205V407.08H700.137V404.692H704.733V403.432H698.577V412H704.781Z" fill="#464646"/>
<path d="M1 375H705L1 319V375Z" fill="url(#paint0_linear)"/>
<path d="M705 319L1 319L705 375L705 319Z" fill="url(#paint1_linear)"/>
<path d="M1 432L705 432" stroke="black"/>
<path d="M7.67431 425L1 432.026L7.84995 439.051" stroke="#222222" stroke-linecap="round" stroke-linejoin="round"/>
<path d="M698.326 439.051L705 432.026L698.15 425" stroke="#222222" stroke-linecap="round" stroke-linejoin="round"/>
<rect x="1" y="1" width="704" height="75" stroke="black" stroke-dasharray="0.44 2.67"/>
<g filter="url(#filter0_d)">
<g clip-path="url(#clip0)">
<g filter="url(#filter1_d)">
<rect x="57" y="108" width="177" height="216" fill="white"/>
</g>
<rect x="57" y="108" width="172" height="74" fill="url(#paint2_linear)"/>
<path d="M128.663 136.576H124.263V148H128.663C132.103 148 134.375 145.728 134.375 142.288C134.375 138.864 132.103 136.576 128.663 136.576ZM128.663 138.256C130.935 138.256 132.199 139.744 132.199 142.288C132.199 144.832 130.935 146.32 128.663 146.32H126.343V138.256H128.663ZM138.726 148H146.742V146.32H140.854V136.576H138.726V148ZM151.251 148H153.379V143.424H158.547V141.744H153.379V138.256H159.139V136.576H151.251V148Z" fill="white"/>
<path d="M104.639 162.89C104.739 164.45 106.039 165.12 107.589 165.12C109.099 165.12 110.179 164.26 110.179 163.04C110.179 161.91 109.479 161.4 108.379 161.18L106.979 160.89C106.109 160.72 105.709 160.47 105.709 159.76C105.709 159.01 106.329 158.43 107.369 158.43C108.389 158.43 109.089 158.89 109.209 159.69H110.039C109.899 158.4 108.889 157.74 107.359 157.74C105.879 157.74 104.869 158.62 104.869 159.79C104.869 161.02 105.729 161.46 106.689 161.64L108.049 161.91C109.019 162.09 109.349 162.48 109.349 163.08C109.349 163.94 108.599 164.43 107.579 164.43C106.519 164.43 105.579 164.04 105.469 162.89H104.639ZM119.331 162.09V157.86H118.471V162.14C118.471 163.66 117.701 164.39 116.441 164.39C115.191 164.39 114.411 163.66 114.411 162.14V157.86H113.551V162.07C113.551 164.04 114.621 165.12 116.441 165.12C118.281 165.12 119.331 164.04 119.331 162.09ZM125.923 165C127.503 165 128.433 164.31 128.433 163C128.433 162.16 127.883 161.51 127.003 161.29C127.613 161.11 128.113 160.43 128.113 159.77C128.113 158.52 127.193 157.86 125.603 157.86H123.093V165H125.923ZM123.943 161.01V158.56H125.663C126.723 158.56 127.243 158.99 127.243 159.78C127.243 160.56 126.713 161.01 125.653 161.01H123.943ZM123.943 161.68H125.863C126.953 161.68 127.573 162.18 127.573 163C127.573 163.82 126.973 164.3 125.883 164.3H123.943V161.68ZM138.829 165C140.409 165 141.339 164.31 141.339 163C141.339 162.16 140.789 161.51 139.909 161.29C140.519 161.11 141.019 160.43 141.019 159.77C141.019 158.52 140.099 157.86 138.509 157.86H135.999V165H138.829ZM136.849 161.01V158.56H138.569C139.629 158.56 140.149 158.99 140.149 159.78C140.149 160.56 139.619 161.01 138.559 161.01H136.849ZM136.849 161.68H138.769C139.859 161.68 140.479 162.18 140.479 163C140.479 163.82 139.879 164.3 138.789 164.3H136.849V161.68ZM145.588 165V162.11H147.488L149.338 165H150.308L148.348 161.98C149.188 161.79 149.998 161.14 149.998 159.98C149.998 158.61 149.088 157.86 147.488 157.86H144.738V165H145.588ZM145.588 161.39V158.58H147.438C148.518 158.58 149.128 159.08 149.128 159.98C149.128 160.91 148.518 161.39 147.438 161.39H145.588ZM158.732 165H159.632L156.732 157.86H155.762L152.872 165H153.732L154.522 163.01H157.942L158.732 165ZM156.222 158.72H156.252L157.662 162.3H154.802L156.222 158.72ZM163.792 157.86H162.732V165H163.572V158.91H163.592L167.652 165H168.452V157.86H167.622V163.56H167.602L163.792 157.86ZM174.85 157.86H172.32V165H174.85C176.92 165 178.33 163.58 178.33 161.43C178.33 159.29 176.92 157.86 174.85 157.86ZM174.85 158.58C176.51 158.58 177.44 159.71 177.44 161.43C177.44 163.16 176.51 164.28 174.85 164.28H173.17V158.58H174.85Z" fill="white"/>
<path d="M112.368 199.432H110.508V208H112.032V201.364H112.056L116.46 208H117.936V199.432H116.424V205.504H116.4L112.368 199.432ZM128.487 208V206.74H123.843V204.34H127.911V203.08H123.843V200.692H128.439V199.432H122.283V208H128.487ZM139.29 208H141.042L143.406 199.432H141.846L140.142 206.08H140.118L138.45 199.432H136.842L135.174 206.08H135.15L133.434 199.432H131.802L134.166 208H135.906L137.586 201.388H137.61L139.29 208ZM146.359 205.408C146.515 207.292 148.087 208.144 150.127 208.144C152.023 208.144 153.451 207.112 153.451 205.552C153.451 204.172 152.611 203.476 151.207 203.212L149.551 202.888C148.627 202.708 148.183 202.48 148.183 201.772C148.183 201.016 148.831 200.476 149.863 200.476C150.931 200.476 151.675 200.944 151.783 201.784H153.283C153.115 200.176 151.891 199.288 149.851 199.288C147.979 199.288 146.635 200.344 146.635 201.868C146.635 203.368 147.655 203.968 148.915 204.196L150.487 204.484C151.519 204.676 151.891 205.024 151.891 205.648C151.891 206.512 151.099 206.968 150.079 206.968C149.011 206.968 148.003 206.572 147.895 205.408H146.359ZM164.923 199.3C165.563 199.3 166.067 199.464 166.435 199.792C166.811 200.112 166.999 200.564 166.999 201.148C166.999 201.652 166.835 202.08 166.507 202.432C166.187 202.784 165.779 203.104 165.283 203.392L167.599 205.624C167.807 205.376 167.975 205.092 168.103 204.772C168.239 204.444 168.351 204.092 168.439 203.716H169.507C169.379 204.228 169.219 204.704 169.027 205.144C168.835 205.584 168.587 205.968 168.283 206.296L170.035 208H168.607L167.563 206.992C167.187 207.328 166.767 207.6 166.303 207.808C165.839 208.016 165.275 208.12 164.611 208.12C163.787 208.12 163.131 207.916 162.643 207.508C162.155 207.1 161.911 206.52 161.911 205.768C161.911 205.152 162.075 204.66 162.403 204.292C162.739 203.916 163.191 203.568 163.759 203.248C163.503 202.96 163.263 202.652 163.039 202.324C162.823 201.996 162.715 201.612 162.715 201.172C162.715 200.58 162.911 200.12 163.303 199.792C163.703 199.464 164.243 199.3 164.923 199.3ZM164.887 200.164C164.551 200.164 164.275 200.252 164.059 200.428C163.851 200.604 163.747 200.848 163.747 201.16C163.747 201.448 163.823 201.716 163.975 201.964C164.127 202.204 164.347 202.472 164.635 202.768C165.107 202.496 165.443 202.24 165.643 202C165.851 201.752 165.955 201.468 165.955 201.148C165.955 200.86 165.859 200.624 165.667 200.44C165.475 200.256 165.215 200.164 164.887 200.164ZM164.395 203.908C163.963 204.164 163.623 204.424 163.375 204.688C163.135 204.952 163.015 205.3 163.015 205.732C163.015 206.172 163.163 206.524 163.459 206.788C163.755 207.052 164.151 207.184 164.647 207.184C165.159 207.184 165.599 207.1 165.967 206.932C166.335 206.764 166.643 206.564 166.891 206.332L164.395 203.908ZM104.501 221.704C104.501 219.76 105.365 218.548 106.913 218.548C108.137 218.548 108.701 219.244 108.869 220.12H110.417C110.117 218.44 108.965 217.288 106.913 217.288C104.513 217.288 102.881 219.064 102.881 221.704C102.881 224.368 104.513 226.144 106.913 226.144C108.965 226.144 110.117 224.98 110.417 223.312H108.869C108.701 224.188 108.137 224.884 106.913 224.884C105.365 224.884 104.501 223.66 104.501 221.704ZM121.434 222.544V217.432H119.85V222.532C119.85 224.032 119.154 224.872 117.774 224.872C116.394 224.872 115.71 224.032 115.71 222.532V217.432H114.114V222.52C114.114 224.884 115.47 226.144 117.774 226.144C120.09 226.144 121.434 224.884 121.434 222.544ZM127.229 226V222.796H129.149L131.105 226H132.845L130.697 222.556C131.669 222.244 132.521 221.452 132.521 220.12C132.521 218.368 131.345 217.432 129.341 217.432H125.669V226H127.229ZM127.229 221.548V218.692H129.161C130.349 218.692 130.949 219.184 130.949 220.12C130.949 221.056 130.349 221.548 129.161 221.548H127.229ZM138.137 226V222.796H140.057L142.013 226H143.753L141.605 222.556C142.577 222.244 143.429 221.452 143.429 220.12C143.429 218.368 142.253 217.432 140.249 217.432H136.577V226H138.137ZM138.137 221.548V218.692H140.069C141.257 218.692 141.857 219.184 141.857 220.12C141.857 221.056 141.257 221.548 140.069 221.548H138.137ZM153.688 226V224.74H149.044V222.34H153.112V221.08H149.044V218.692H153.64V217.432H147.484V226H153.688ZM159.631 217.432H157.771V226H159.295V219.364H159.319L163.723 226H165.199V217.432H163.687V223.504H163.663L159.631 217.432ZM172.102 226H173.686V218.692H176.77V217.432H169.03V218.692H172.102V226ZM114.767 244H116.399L112.955 235.432H111.167L107.723 244H109.283L110.099 241.9H113.963L114.767 244ZM112.031 236.968H112.067L113.483 240.664H110.591L112.031 236.968ZM119.916 244H121.512V240.568H125.388V239.308H121.512V236.692H125.832V235.432H119.916V244ZM129.875 244H131.471V240.568H135.347V239.308H131.471V236.692H135.791V235.432H129.875V244ZM145.381 244H147.013L143.569 235.432H141.781L138.337 244H139.897L140.713 241.9H144.577L145.381 244ZM142.645 236.968H142.681L144.097 240.664H141.205L142.645 236.968ZM150.53 244H152.126V235.432H150.53V244ZM158.029 244V240.796H159.949L161.905 244H163.645L161.497 240.556C162.469 240.244 163.321 239.452 163.321 238.12C163.321 236.368 162.145 235.432 160.141 235.432H156.469V244H158.029ZM158.029 239.548V236.692H159.961C161.149 236.692 161.749 237.184 161.749 238.12C161.749 239.056 161.149 239.548 159.961 239.548H158.029ZM166.813 241.408C166.969 243.292 168.541 244.144 170.581 244.144C172.477 244.144 173.905 243.112 173.905 241.552C173.905 240.172 173.065 239.476 171.661 239.212L170.005 238.888C169.081 238.708 168.637 238.48 168.637 237.772C168.637 237.016 169.285 236.476 170.317 236.476C171.385 236.476 172.129 236.944 172.237 237.784H173.737C173.569 236.176 172.345 235.288 170.305 235.288C168.433 235.288 167.089 236.344 167.089 237.868C167.089 239.368 168.109 239.968 169.369 240.196L170.941 240.484C171.973 240.676 172.345 241.024 172.345 241.648C172.345 242.512 171.553 242.968 170.533 242.968C169.465 242.968 168.457 242.572 168.349 241.408H166.813ZM81.6417 258.712C81.6417 257.736 81.7817 256.796 82.0617 255.892C82.3497 254.98 82.7977 254.16 83.4057 253.432H84.4017C83.8417 254.184 83.4177 255.012 83.1297 255.916C82.8497 256.82 82.7097 257.748 82.7097 258.7C82.7097 259.628 82.8497 260.54 83.1297 261.436C83.4177 262.324 83.8377 263.144 84.3897 263.896H83.4057C82.7977 263.192 82.3497 262.396 82.0617 261.508C81.7817 260.612 81.6417 259.68 81.6417 258.712ZM88.1314 262H89.7274V253.432H88.1314V262ZM95.9304 253.432H94.0704V262H95.5944V255.364H95.6184L100.022 262H101.498V253.432H99.9864V259.504H99.9624L95.9304 253.432ZM105.281 259.408C105.437 261.292 107.009 262.144 109.049 262.144C110.945 262.144 112.373 261.112 112.373 259.552C112.373 258.172 111.533 257.476 110.129 257.212L108.473 256.888C107.549 256.708 107.105 256.48 107.105 255.772C107.105 255.016 107.753 254.476 108.785 254.476C109.853 254.476 110.597 254.944 110.705 255.784H112.205C112.037 254.176 110.813 253.288 108.773 253.288C106.901 253.288 105.557 254.344 105.557 255.868C105.557 257.368 106.577 257.968 107.837 258.196L109.409 258.484C110.441 258.676 110.813 259.024 110.813 259.648C110.813 260.512 110.021 260.968 109.001 260.968C107.933 260.968 106.925 260.572 106.817 259.408H105.281ZM118.548 262H120.132V254.692H123.216V253.432H115.476V254.692H118.548V262ZM127.04 262H128.636V253.432H127.04V262ZM135.535 262H137.119V254.692H140.203V253.432H132.463V254.692H135.535V262ZM151.239 258.544V253.432H149.655V258.532C149.655 260.032 148.959 260.872 147.579 260.872C146.199 260.872 145.515 260.032 145.515 258.532V253.432H143.919V258.52C143.919 260.884 145.275 262.144 147.579 262.144C149.895 262.144 151.239 260.884 151.239 258.544ZM158.03 262H159.614V254.692H162.698V253.432H154.958V254.692H158.03V262ZM166.523 262H168.119V253.432H166.523V262ZM180.178 257.716C180.178 255.148 178.606 253.288 176.086 253.288C173.566 253.288 171.994 255.148 171.994 257.716C171.994 260.296 173.566 262.144 176.086 262.144C178.606 262.144 180.178 260.296 180.178 257.716ZM178.558 257.716C178.558 259.624 177.718 260.884 176.086 260.884C174.442 260.884 173.614 259.624 173.614 257.716C173.614 255.82 174.442 254.548 176.086 254.548C177.718 254.548 178.558 255.82 178.558 257.716ZM185.898 253.432H184.038V262H185.562V255.364H185.586L189.99 262H191.466V253.432H189.954V259.504H189.93L185.898 253.432ZM197.961 258.712C197.961 259.68 197.817 260.612 197.529 261.508C197.249 262.396 196.805 263.192 196.197 263.896H195.213C195.765 263.144 196.181 262.324 196.461 261.436C196.749 260.54 196.893 259.628 196.893 258.7C196.893 257.748 196.749 256.82 196.461 255.916C196.181 255.012 195.761 254.184 195.201 253.432H196.197C196.805 254.16 197.249 254.98 197.529 255.892C197.817 256.796 197.961 257.736 197.961 258.712Z" fill="#222222"/>
</g>
</g>
<g filter="url(#filter2_d)">
<g clip-path="url(#clip1)">
<g filter="url(#filter3_d)">
<rect x="269" y="108" width="177" height="216" fill="white"/>
</g>
<rect x="269" y="108" width="172" height="74" fill="#78DE7F"/>
<path d="M308.96 136.576H304.56V148H308.96C312.4 148 314.672 145.728 314.672 142.288C314.672 138.864 312.4 136.576 308.96 136.576ZM308.96 138.256C311.232 138.256 312.496 139.744 312.496 142.288C312.496 144.832 311.232 146.32 308.96 146.32H306.64V138.256H308.96ZM319.023 148H327.039V146.32H321.151V136.576H319.023V148ZM331.548 148H333.676V143.424H338.844V141.744H333.676V138.256H339.436V136.576H331.548V148ZM352.265 136.576H349.785V148H351.817V139.152H351.849L357.721 148H359.689V136.576H357.673V144.672H357.641L352.265 136.576ZM374.973 142.288C374.973 138.864 372.877 136.384 369.517 136.384C366.157 136.384 364.061 138.864 364.061 142.288C364.061 145.728 366.157 148.192 369.517 148.192C372.877 148.192 374.973 145.728 374.973 142.288ZM372.813 142.288C372.813 144.832 371.693 146.512 369.517 146.512C367.325 146.512 366.221 144.832 366.221 142.288C366.221 139.76 367.325 138.064 369.517 138.064C371.693 138.064 372.813 139.76 372.813 142.288ZM382.274 148H384.642L389.17 136.576H387.01L383.522 145.728H383.49L380.018 136.576H377.762L382.274 148ZM400.366 148H402.542L397.95 136.576H395.566L390.974 148H393.054L394.142 145.2H399.294L400.366 148ZM396.718 138.624H396.766L398.654 143.552H394.798L396.718 138.624Z" fill="white"/>
<path d="M316.139 162.89C316.239 164.45 317.539 165.12 319.089 165.12C320.599 165.12 321.679 164.26 321.679 163.04C321.679 161.91 320.979 161.4 319.879 161.18L318.479 160.89C317.609 160.72 317.209 160.47 317.209 159.76C317.209 159.01 317.829 158.43 318.869 158.43C319.889 158.43 320.589 158.89 320.709 159.69H321.539C321.399 158.4 320.389 157.74 318.859 157.74C317.379 157.74 316.369 158.62 316.369 159.79C316.369 161.02 317.229 161.46 318.189 161.64L319.549 161.91C320.519 162.09 320.849 162.48 320.849 163.08C320.849 163.94 320.099 164.43 319.079 164.43C318.019 164.43 317.079 164.04 316.969 162.89H316.139ZM330.831 162.09V157.86H329.971V162.14C329.971 163.66 329.201 164.39 327.941 164.39C326.691 164.39 325.911 163.66 325.911 162.14V157.86H325.051V162.07C325.051 164.04 326.121 165.12 327.941 165.12C329.781 165.12 330.831 164.04 330.831 162.09ZM337.423 165C339.003 165 339.933 164.31 339.933 163C339.933 162.16 339.383 161.51 338.503 161.29C339.113 161.11 339.613 160.43 339.613 159.77C339.613 158.52 338.693 157.86 337.103 157.86H334.593V165H337.423ZM335.443 161.01V158.56H337.163C338.223 158.56 338.743 158.99 338.743 159.78C338.743 160.56 338.213 161.01 337.153 161.01H335.443ZM335.443 161.68H337.363C338.453 161.68 339.073 162.18 339.073 163C339.073 163.82 338.473 164.3 337.383 164.3H335.443V161.68ZM350.329 165C351.909 165 352.839 164.31 352.839 163C352.839 162.16 352.289 161.51 351.409 161.29C352.019 161.11 352.519 160.43 352.519 159.77C352.519 158.52 351.599 157.86 350.009 157.86H347.499V165H350.329ZM348.349 161.01V158.56H350.069C351.129 158.56 351.649 158.99 351.649 159.78C351.649 160.56 351.119 161.01 350.059 161.01H348.349ZM348.349 161.68H350.269C351.359 161.68 351.979 162.18 351.979 163C351.979 163.82 351.379 164.3 350.289 164.3H348.349V161.68ZM357.088 165V162.11H358.988L360.838 165H361.808L359.848 161.98C360.688 161.79 361.498 161.14 361.498 159.98C361.498 158.61 360.588 157.86 358.988 157.86H356.238V165H357.088ZM357.088 161.39V158.58H358.938C360.018 158.58 360.628 159.08 360.628 159.98C360.628 160.91 360.018 161.39 358.938 161.39H357.088ZM370.232 165H371.132L368.232 157.86H367.262L364.372 165H365.232L366.022 163.01H369.442L370.232 165ZM367.722 158.72H367.752L369.162 162.3H366.302L367.722 158.72ZM375.292 157.86H374.232V165H375.072V158.91H375.092L379.152 165H379.952V157.86H379.122V163.56H379.102L375.292 157.86ZM386.35 157.86H383.82V165H386.35C388.42 165 389.83 163.58 389.83 161.43C389.83 159.29 388.42 157.86 386.35 157.86ZM386.35 158.58C388.01 158.58 388.94 159.71 388.94 161.43C388.94 163.16 388.01 164.28 386.35 164.28H384.67V158.58H386.35Z" fill="white"/>
<path d="M301.174 208H302.758V200.692H305.842V199.432H298.102V200.692H301.174V208ZM315.871 208V206.74H311.227V204.34H315.295V203.08H311.227V200.692H315.823V199.432H309.667V208H315.871ZM321.106 203.704C321.106 201.76 321.97 200.548 323.518 200.548C324.742 200.548 325.306 201.244 325.474 202.12H327.022C326.722 200.44 325.57 199.288 323.518 199.288C321.118 199.288 319.486 201.064 319.486 203.704C319.486 206.368 321.118 208.144 323.518 208.144C325.57 208.144 326.722 206.98 327.022 205.312H325.474C325.306 206.188 324.742 206.884 323.518 206.884C321.97 206.884 321.106 205.66 321.106 203.704ZM330.826 208H332.422V204.28H336.814V208H338.398V199.432H336.814V203.032H332.422V199.432H330.826V208ZM344.602 199.432H342.742V208H344.266V201.364H344.29L348.694 208H350.17V199.432H348.658V205.504H348.634L344.602 199.432ZM362.233 203.716C362.233 201.148 360.661 199.288 358.141 199.288C355.621 199.288 354.049 201.148 354.049 203.716C354.049 206.296 355.621 208.144 358.141 208.144C360.661 208.144 362.233 206.296 362.233 203.716ZM360.613 203.716C360.613 205.624 359.773 206.884 358.141 206.884C356.497 206.884 355.669 205.624 355.669 203.716C355.669 201.82 356.497 200.548 358.141 200.548C359.773 200.548 360.613 201.82 360.613 203.716ZM366.093 208H372.105V206.74H367.689V199.432H366.093V208ZM383.404 203.716C383.404 201.148 381.832 199.288 379.312 199.288C376.792 199.288 375.22 201.148 375.22 203.716C375.22 206.296 376.792 208.144 379.312 208.144C381.832 208.144 383.404 206.296 383.404 203.716ZM381.784 203.716C381.784 205.624 380.944 206.884 379.312 206.884C377.668 206.884 376.84 205.624 376.84 203.716C376.84 201.82 377.668 200.548 379.312 200.548C380.944 200.548 381.784 201.82 381.784 203.716ZM386.854 203.704C386.854 206.356 388.474 208.144 390.874 208.144C391.93 208.144 393.022 207.592 393.334 206.776L393.442 208H394.678V203.632H391.438V204.784H393.094V205.084C393.094 206.14 392.23 206.884 390.97 206.884C389.374 206.884 388.474 205.66 388.474 203.704C388.474 201.76 389.398 200.548 390.994 200.548C392.146 200.548 392.794 201.148 392.998 202.108H394.57C394.234 200.416 393.058 199.288 390.994 199.288C388.546 199.288 386.854 201.064 386.854 203.704ZM402.509 208V204.484L405.833 199.432H404.093L401.777 203.092H401.753L399.377 199.432H397.601L400.913 204.484V208H402.509ZM297.378 226H299.01L295.566 217.432H293.778L290.334 226H291.894L292.71 223.9H296.574L297.378 226ZM294.642 218.968H294.678L296.094 222.664H293.202L294.642 218.968ZM304.387 217.432H302.527V226H304.051V219.364H304.075L308.479 226H309.955V217.432H308.443V223.504H308.419L304.387 217.432ZM317.602 217.432H314.302V226H317.602C320.182 226 321.886 224.296 321.886 221.716C321.886 219.148 320.182 217.432 317.602 217.432ZM317.602 218.692C319.306 218.692 320.254 219.808 320.254 221.716C320.254 223.624 319.306 224.74 317.602 224.74H315.862V218.692H317.602ZM330.668 226H336.68V224.74H332.264V217.432H330.668V226ZM340.662 226H342.258V217.432H340.662V226ZM346.601 226H348.197V222.568H352.073V221.308H348.197V218.692H352.517V217.432H346.601V226ZM362.764 226V224.74H358.12V222.34H362.188V221.08H358.12V218.692H362.716V217.432H356.56V226H362.764ZM366.259 223.408C366.415 225.292 367.987 226.144 370.027 226.144C371.923 226.144 373.351 225.112 373.351 223.552C373.351 222.172 372.511 221.476 371.107 221.212L369.451 220.888C368.527 220.708 368.083 220.48 368.083 219.772C368.083 219.016 368.731 218.476 369.763 218.476C370.831 218.476 371.575 218.944 371.683 219.784H373.183C373.015 218.176 371.791 217.288 369.751 217.288C367.879 217.288 366.535 218.344 366.535 219.868C366.535 221.368 367.555 221.968 368.815 222.196L370.387 222.484C371.419 222.676 371.791 223.024 371.791 223.648C371.791 224.512 370.999 224.968 369.979 224.968C368.911 224.968 367.903 224.572 367.795 223.408H366.259ZM379.525 226H381.109V218.692H384.193V217.432H376.453V218.692H379.525V226ZM392.073 226V222.484L395.397 217.432H393.657L391.341 221.092H391.317L388.941 217.432H387.165L390.477 222.484V226H392.073ZM398.89 226H404.902V224.74H400.486V217.432H398.89V226ZM415.088 226V224.74H410.444V222.34H414.512V221.08H410.444V218.692H415.04V217.432H408.884V226H415.088ZM311.507 240.712C311.507 239.736 311.647 238.796 311.927 237.892C312.215 236.98 312.663 236.16 313.271 235.432H314.267C313.707 236.184 313.283 237.012 312.995 237.916C312.715 238.82 312.575 239.748 312.575 240.7C312.575 241.628 312.715 242.54 312.995 243.436C313.283 244.324 313.703 245.144 314.255 245.896H313.271C312.663 245.192 312.215 244.396 311.927 243.508C311.647 242.612 311.507 241.68 311.507 240.712ZM322.053 244V240.484L325.377 235.432H323.637L321.321 239.092H321.297L318.921 235.432H317.145L320.457 240.484V244H322.053ZM336.117 239.716C336.117 237.148 334.545 235.288 332.025 235.288C329.505 235.288 327.933 237.148 327.933 239.716C327.933 242.296 329.505 244.144 332.025 244.144C334.545 244.144 336.117 242.296 336.117 239.716ZM334.497 239.716C334.497 241.624 333.657 242.884 332.025 242.884C330.381 242.884 329.553 241.624 329.553 239.716C329.553 237.82 330.381 236.548 332.025 236.548C333.657 236.548 334.497 237.82 334.497 239.716ZM347.188 240.544V235.432H345.604V240.532C345.604 242.032 344.908 242.872 343.528 242.872C342.148 242.872 341.464 242.032 341.464 240.532V235.432H339.868V240.52C339.868 242.884 341.224 244.144 343.528 244.144C345.844 244.144 347.188 242.884 347.188 240.544ZM353.283 235.432H351.423V244H352.947V237.364H352.971L357.375 244H358.851V235.432H357.339V241.504H357.315L353.283 235.432ZM362.73 239.704C362.73 242.356 364.35 244.144 366.75 244.144C367.806 244.144 368.898 243.592 369.21 242.776L369.318 244H370.554V239.632H367.314V240.784H368.97V241.084C368.97 242.14 368.106 242.884 366.846 242.884C365.25 242.884 364.35 241.66 364.35 239.704C364.35 237.76 365.274 236.548 366.87 236.548C368.022 236.548 368.67 237.148 368.874 238.108H370.446C370.11 236.416 368.934 235.288 366.87 235.288C364.422 235.288 362.73 237.064 362.73 239.704ZM380.955 244V242.74H376.311V240.34H380.379V239.08H376.311V236.692H380.907V235.432H374.751V244H380.955ZM386.597 244V240.796H388.517L390.473 244H392.213L390.065 240.556C391.037 240.244 391.889 239.452 391.889 238.12C391.889 236.368 390.713 235.432 388.709 235.432H385.037V244H386.597ZM386.597 239.548V236.692H388.529C389.717 236.692 390.317 237.184 390.317 238.12C390.317 239.056 389.717 239.548 388.529 239.548H386.597ZM316.814 262H318.446L315.002 253.432H313.214L309.77 262H311.33L312.146 259.9H316.01L316.814 262ZM314.078 254.968H314.114L315.53 258.664H312.638L314.078 254.968ZM328.894 258.544V253.432H327.31V258.532C327.31 260.032 326.614 260.872 325.234 260.872C323.854 260.872 323.17 260.032 323.17 258.532V253.432H321.574V258.52C321.574 260.884 322.93 262.144 325.234 262.144C327.55 262.144 328.894 260.884 328.894 258.544ZM336.429 253.432H333.129V262H336.429C339.009 262 340.713 260.296 340.713 257.716C340.713 255.148 339.009 253.432 336.429 253.432ZM336.429 254.692C338.133 254.692 339.081 255.808 339.081 257.716C339.081 259.624 338.133 260.74 336.429 260.74H334.689V254.692H336.429ZM344.576 262H346.172V253.432H344.576V262ZM356.719 262V260.74H352.075V258.34H356.143V257.08H352.075V254.692H356.671V253.432H350.515V262H356.719ZM362.662 253.432H360.802V262H362.326V255.364H362.35L366.754 262H368.23V253.432H366.718V259.504H366.694L362.662 253.432ZM373.729 257.704C373.729 255.76 374.593 254.548 376.141 254.548C377.365 254.548 377.929 255.244 378.097 256.12H379.645C379.345 254.44 378.193 253.288 376.141 253.288C373.741 253.288 372.109 255.064 372.109 257.704C372.109 260.368 373.741 262.144 376.141 262.144C378.193 262.144 379.345 260.98 379.645 259.312H378.097C377.929 260.188 377.365 260.884 376.141 260.884C374.593 260.884 373.729 259.66 373.729 257.704ZM389.653 262V260.74H385.009V258.34H389.077V257.08H385.009V254.692H389.605V253.432H383.449V262H389.653ZM395.884 258.712C395.884 259.68 395.74 260.612 395.452 261.508C395.172 262.396 394.728 263.192 394.12 263.896H393.136C393.688 263.144 394.104 262.324 394.384 261.436C394.672 260.54 394.816 259.628 394.816 258.7C394.816 257.748 394.672 256.82 394.384 255.916C394.104 255.012 393.684 254.184 393.124 253.432H394.12C394.728 254.16 395.172 254.98 395.452 255.892C395.74 256.796 395.884 257.736 395.884 258.712Z" fill="#222222"/>
</g>
</g>
<g filter="url(#filter4_d)">
<g clip-path="url(#clip2)">
<g filter="url(#filter5_d)">
<rect x="481" y="108" width="177" height="216" fill="white"/>
</g>
<rect x="481" y="108" width="172" height="74" fill="#FF6400"/>
<path d="M508.701 136.576H504.301V148H508.701C512.141 148 514.413 145.728 514.413 142.288C514.413 138.864 512.141 136.576 508.701 136.576ZM508.701 138.256C510.973 138.256 512.237 139.744 512.237 142.288C512.237 144.832 510.973 146.32 508.701 146.32H506.381V138.256H508.701ZM518.763 148H526.779V146.32H520.891V136.576H518.763V148ZM531.288 148H533.416V143.424H538.584V141.744H533.416V138.256H539.176V136.576H531.288V148ZM557.254 148H559.814L554.646 141.536L559.366 136.576H556.934L551.654 142.32V136.576H549.526V148H551.654V144.688L553.238 143.024L557.254 148ZM573.01 143.392V136.576H570.898V143.376C570.898 145.376 569.97 146.496 568.13 146.496C566.29 146.496 565.378 145.376 565.378 143.376V136.576H563.25V143.36C563.25 146.512 565.058 148.192 568.13 148.192C571.218 148.192 573.01 146.512 573.01 143.392ZM577.857 148H585.873V146.32H579.985V136.576H577.857V148ZM591.962 148H594.074V138.256H598.186V136.576H587.866V138.256H591.962V148ZM612.101 143.392V136.576H609.989V143.376C609.989 145.376 609.061 146.496 607.221 146.496C605.381 146.496 604.469 145.376 604.469 143.376V136.576H602.341V143.36C602.341 146.512 604.149 148.192 607.221 148.192C610.309 148.192 612.101 146.512 612.101 143.392ZM619.028 148V143.728H621.588L624.196 148H626.516L623.652 143.408C624.948 142.992 626.084 141.936 626.084 140.16C626.084 137.824 624.516 136.576 621.844 136.576H616.948V148H619.028ZM619.028 142.064V138.256H621.604C623.188 138.256 623.988 138.912 623.988 140.16C623.988 141.408 623.188 142.064 621.604 142.064H619.028Z" fill="white"/>
<path d="M528.139 162.89C528.239 164.45 529.539 165.12 531.089 165.12C532.599 165.12 533.679 164.26 533.679 163.04C533.679 161.91 532.979 161.4 531.879 161.18L530.479 160.89C529.609 160.72 529.209 160.47 529.209 159.76C529.209 159.01 529.829 158.43 530.869 158.43C531.889 158.43 532.589 158.89 532.709 159.69H533.539C533.399 158.4 532.389 157.74 530.859 157.74C529.379 157.74 528.369 158.62 528.369 159.79C528.369 161.02 529.229 161.46 530.189 161.64L531.549 161.91C532.519 162.09 532.849 162.48 532.849 163.08C532.849 163.94 532.099 164.43 531.079 164.43C530.019 164.43 529.079 164.04 528.969 162.89H528.139ZM542.831 162.09V157.86H541.971V162.14C541.971 163.66 541.201 164.39 539.941 164.39C538.691 164.39 537.911 163.66 537.911 162.14V157.86H537.051V162.07C537.051 164.04 538.121 165.12 539.941 165.12C541.781 165.12 542.831 164.04 542.831 162.09ZM549.423 165C551.003 165 551.933 164.31 551.933 163C551.933 162.16 551.383 161.51 550.503 161.29C551.113 161.11 551.613 160.43 551.613 159.77C551.613 158.52 550.693 157.86 549.103 157.86H546.593V165H549.423ZM547.443 161.01V158.56H549.163C550.223 158.56 550.743 158.99 550.743 159.78C550.743 160.56 550.213 161.01 549.153 161.01H547.443ZM547.443 161.68H549.363C550.453 161.68 551.073 162.18 551.073 163C551.073 163.82 550.473 164.3 549.383 164.3H547.443V161.68ZM562.329 165C563.909 165 564.839 164.31 564.839 163C564.839 162.16 564.289 161.51 563.409 161.29C564.019 161.11 564.519 160.43 564.519 159.77C564.519 158.52 563.599 157.86 562.009 157.86H559.499V165H562.329ZM560.349 161.01V158.56H562.069C563.129 158.56 563.649 158.99 563.649 159.78C563.649 160.56 563.119 161.01 562.059 161.01H560.349ZM560.349 161.68H562.269C563.359 161.68 563.979 162.18 563.979 163C563.979 163.82 563.379 164.3 562.289 164.3H560.349V161.68ZM569.088 165V162.11H570.988L572.838 165H573.808L571.848 161.98C572.688 161.79 573.498 161.14 573.498 159.98C573.498 158.61 572.588 157.86 570.988 157.86H568.238V165H569.088ZM569.088 161.39V158.58H570.938C572.018 158.58 572.628 159.08 572.628 159.98C572.628 160.91 572.018 161.39 570.938 161.39H569.088ZM582.232 165H583.132L580.232 157.86H579.262L576.372 165H577.232L578.022 163.01H581.442L582.232 165ZM579.722 158.72H579.752L581.162 162.3H578.302L579.722 158.72ZM587.292 157.86H586.232V165H587.072V158.91H587.092L591.152 165H591.952V157.86H591.122V163.56H591.102L587.292 157.86ZM598.35 157.86H595.82V165H598.35C600.42 165 601.83 163.58 601.83 161.43C601.83 159.29 600.42 157.86 598.35 157.86ZM598.35 158.58C600.01 158.58 600.94 159.71 600.94 161.43C600.94 163.16 600.01 164.28 598.35 164.28H596.67V158.58H598.35Z" fill="white"/>
<path d="M510.061 203.704C510.061 201.76 510.925 200.548 512.473 200.548C513.697 200.548 514.261 201.244 514.429 202.12H515.977C515.677 200.44 514.525 199.288 512.473 199.288C510.073 199.288 508.441 201.064 508.441 203.704C508.441 206.368 510.073 208.144 512.473 208.144C514.525 208.144 515.677 206.98 515.977 205.312H514.429C514.261 206.188 513.697 206.884 512.473 206.884C510.925 206.884 510.061 205.66 510.061 203.704ZM526.993 204.544V199.432H525.409V204.532C525.409 206.032 524.713 206.872 523.333 206.872C521.953 206.872 521.269 206.032 521.269 204.532V199.432H519.673V204.52C519.673 206.884 521.029 208.144 523.333 208.144C525.649 208.144 526.993 206.884 526.993 204.544ZM531.228 208H537.24V206.74H532.824V199.432H531.228V208ZM542.407 208H543.991V200.692H547.075V199.432H539.335V200.692H542.407V208ZM558.111 204.544V199.432H556.527V204.532C556.527 206.032 555.831 206.872 554.451 206.872C553.071 206.872 552.387 206.032 552.387 204.532V199.432H550.791V204.52C550.791 206.884 552.147 208.144 554.451 208.144C556.767 208.144 558.111 206.884 558.111 204.544ZM563.906 208V204.796H565.826L567.782 208H569.522L567.374 204.556C568.346 204.244 569.198 203.452 569.198 202.12C569.198 200.368 568.022 199.432 566.018 199.432H562.346V208H563.906ZM563.906 203.548V200.692H565.838C567.026 200.692 567.626 201.184 567.626 202.12C567.626 203.056 567.026 203.548 565.838 203.548H563.906ZM579.458 208V206.74H574.814V204.34H578.882V203.08H574.814V200.692H579.41V199.432H573.254V208H579.458ZM594.664 208H596.296L592.852 199.432H591.064L587.62 208H589.18L589.996 205.9H593.86L594.664 208ZM591.928 200.968H591.964L593.38 204.664H590.488L591.928 200.968ZM601.673 199.432H599.813V208H601.337V201.364H601.361L605.765 208H607.241V199.432H605.729V205.504H605.705L601.673 199.432ZM614.888 199.432H611.588V208H614.888C617.468 208 619.172 206.296 619.172 203.716C619.172 201.148 617.468 199.432 614.888 199.432ZM614.888 200.692C616.592 200.692 617.54 201.808 617.54 203.716C617.54 205.624 616.592 206.74 614.888 206.74H613.148V200.692H614.888ZM531.067 223.408C531.223 225.292 532.795 226.144 534.835 226.144C536.731 226.144 538.159 225.112 538.159 223.552C538.159 222.172 537.319 221.476 535.915 221.212L534.259 220.888C533.335 220.708 532.891 220.48 532.891 219.772C532.891 219.016 533.539 218.476 534.571 218.476C535.639 218.476 536.383 218.944 536.491 219.784H537.991C537.823 218.176 536.599 217.288 534.559 217.288C532.687 217.288 531.343 218.344 531.343 219.868C531.343 221.368 532.363 221.968 533.623 222.196L535.195 222.484C536.227 222.676 536.599 223.024 536.599 223.648C536.599 224.512 535.807 224.968 534.787 224.968C533.719 224.968 532.711 224.572 532.603 223.408H531.067ZM549.775 221.716C549.775 219.148 548.203 217.288 545.683 217.288C543.163 217.288 541.591 219.148 541.591 221.716C541.591 224.296 543.163 226.144 545.683 226.144C548.203 226.144 549.775 224.296 549.775 221.716ZM548.155 221.716C548.155 223.624 547.315 224.884 545.683 224.884C544.039 224.884 543.211 223.624 543.211 221.716C543.211 219.82 544.039 218.548 545.683 218.548C547.315 218.548 548.155 219.82 548.155 221.716ZM554.845 221.704C554.845 219.76 555.709 218.548 557.257 218.548C558.481 218.548 559.045 219.244 559.213 220.12H560.761C560.461 218.44 559.309 217.288 557.257 217.288C554.857 217.288 553.225 219.064 553.225 221.704C553.225 224.368 554.857 226.144 557.257 226.144C559.309 226.144 560.461 224.98 560.761 223.312H559.213C559.045 224.188 558.481 224.884 557.257 224.884C555.709 224.884 554.845 223.66 554.845 221.704ZM564.566 226H566.162V217.432H564.566V226ZM576.709 226V224.74H572.065V222.34H576.133V221.08H572.065V218.692H576.661V217.432H570.505V226H576.709ZM583.348 226H584.932V218.692H588.016V217.432H580.276V218.692H583.348V226ZM595.896 226V222.484L599.22 217.432H597.48L595.164 221.092H595.14L592.764 217.432H590.988L594.3 222.484V226H595.896ZM512.319 240.712C512.319 239.736 512.459 238.796 512.739 237.892C513.027 236.98 513.475 236.16 514.083 235.432H515.079C514.519 236.184 514.095 237.012 513.807 237.916C513.527 238.82 513.387 239.748 513.387 240.7C513.387 241.628 513.527 242.54 513.807 243.436C514.095 244.324 514.515 245.144 515.067 245.896H514.083C513.475 245.192 513.027 244.396 512.739 243.508C512.459 242.612 512.319 241.68 512.319 240.712ZM523.897 244L526.333 237.268H526.357V244H527.881V235.432H525.697L523.393 241.876H523.369L521.065 235.432H518.809V244H520.273V237.268H520.297L522.745 244H523.897ZM532.236 244H533.832V235.432H532.236V244ZM541.475 235.432H538.175V244H541.475C544.055 244 545.759 242.296 545.759 239.716C545.759 237.148 544.055 235.432 541.475 235.432ZM541.475 236.692C543.179 236.692 544.127 237.808 544.127 239.716C544.127 241.624 543.179 242.74 541.475 242.74H539.735V236.692H541.475ZM552.922 235.432H549.622V244H552.922C555.502 244 557.206 242.296 557.206 239.716C557.206 237.148 555.502 235.432 552.922 235.432ZM552.922 236.692C554.626 236.692 555.574 237.808 555.574 239.716C555.574 241.624 554.626 242.74 552.922 242.74H551.182V236.692H552.922ZM561.069 244H567.081V242.74H562.665V235.432H561.069V244ZM577.267 244V242.74H572.623V240.34H576.691V239.08H572.623V236.692H577.219V235.432H571.063V244H577.267ZM592.473 244H594.105L590.661 235.432H588.873L585.429 244H586.989L587.805 241.9H591.669L592.473 244ZM589.737 236.968H589.773L591.189 240.664H588.297L589.737 236.968ZM596.826 239.704C596.826 242.356 598.446 244.144 600.846 244.144C601.902 244.144 602.994 243.592 603.306 242.776L603.414 244H604.65V239.632H601.41V240.784H603.066V241.084C603.066 242.14 602.202 242.884 600.942 242.884C599.346 242.884 598.446 241.66 598.446 239.704C598.446 237.76 599.37 236.548 600.966 236.548C602.118 236.548 602.766 237.148 602.97 238.108H604.542C604.206 236.416 603.03 235.288 600.966 235.288C598.518 235.288 596.826 237.064 596.826 239.704ZM615.05 244V242.74H610.406V240.34H614.474V239.08H610.406V236.692H615.002V235.432H608.846V244H615.05ZM528.814 262H530.446L527.002 253.432H525.214L521.77 262H523.33L524.146 259.9H528.01L528.814 262ZM526.078 254.968H526.114L527.53 258.664H524.638L526.078 254.968ZM540.894 258.544V253.432H539.31V258.532C539.31 260.032 538.614 260.872 537.234 260.872C535.854 260.872 535.17 260.032 535.17 258.532V253.432H533.574V258.52C533.574 260.884 534.93 262.144 537.234 262.144C539.55 262.144 540.894 260.884 540.894 258.544ZM548.429 253.432H545.129V262H548.429C551.009 262 552.713 260.296 552.713 257.716C552.713 255.148 551.009 253.432 548.429 253.432ZM548.429 254.692C550.133 254.692 551.081 255.808 551.081 257.716C551.081 259.624 550.133 260.74 548.429 260.74H546.689V254.692H548.429ZM556.576 262H558.172V253.432H556.576V262ZM568.719 262V260.74H564.075V258.34H568.143V257.08H564.075V254.692H568.671V253.432H562.515V262H568.719ZM574.662 253.432H572.802V262H574.326V255.364H574.35L578.754 262H580.23V253.432H578.718V259.504H578.694L574.662 253.432ZM585.729 257.704C585.729 255.76 586.593 254.548 588.141 254.548C589.365 254.548 589.929 255.244 590.097 256.12H591.645C591.345 254.44 590.193 253.288 588.141 253.288C585.741 253.288 584.109 255.064 584.109 257.704C584.109 260.368 585.741 262.144 588.141 262.144C590.193 262.144 591.345 260.98 591.645 259.312H590.097C589.929 260.188 589.365 260.884 588.141 260.884C586.593 260.884 585.729 259.66 585.729 257.704ZM601.653 262V260.74H597.009V258.34H601.077V257.08H597.009V254.692H601.605V253.432H595.449V262H601.653ZM607.884 258.712C607.884 259.68 607.74 260.612 607.452 261.508C607.172 262.396 606.728 263.192 606.12 263.896H605.136C605.688 263.144 606.104 262.324 606.384 261.436C606.672 260.54 606.816 259.628 606.816 258.7C606.816 257.748 606.672 256.82 606.384 255.916C606.104 255.012 605.684 254.184 605.124 253.432H606.12C606.728 254.16 607.172 254.98 607.452 255.892C607.74 256.796 607.884 257.736 607.884 258.712Z" fill="#222222"/>
</g>
</g>
<path d="M3.832 403.432H1.972V412H3.496V405.364H3.52L7.924 412H9.4V403.432H7.888V409.504H7.864L3.832 403.432ZM19.951 412V410.74H15.307V408.34H19.375V407.08H15.307V404.692H19.903V403.432H13.747V412H19.951ZM30.7537 412H32.5057L34.8697 403.432H33.3097L31.6057 410.08H31.5817L29.9137 403.432H28.3057L26.6377 410.08H26.6137L24.8977 403.432H23.2657L25.6297 412H27.3697L29.0497 405.388H29.0737L30.7537 412ZM37.8228 409.408C37.9788 411.292 39.5508 412.144 41.5908 412.144C43.4868 412.144 44.9148 411.112 44.9148 409.552C44.9148 408.172 44.0748 407.476 42.6708 407.212L41.0148 406.888C40.0908 406.708 39.6468 406.48 39.6468 405.772C39.6468 405.016 40.2948 404.476 41.3268 404.476C42.3948 404.476 43.1388 404.944 43.2468 405.784H44.7468C44.5788 404.176 43.3548 403.288 41.3148 403.288C39.4428 403.288 38.0988 404.344 38.0988 405.868C38.0988 407.368 39.1188 407.968 40.3788 408.196L41.9508 408.484C42.9828 408.676 43.3548 409.024 43.3548 409.648C43.3548 410.512 42.5628 410.968 41.5428 410.968C40.4748 410.968 39.4668 410.572 39.3588 409.408H37.8228Z" fill="#464646"/>
<path d="M255.196 27.7083H250.796V39.1323H255.196C258.636 39.1323 260.908 36.8603 260.908 33.4203C260.908 29.9963 258.636 27.7083 255.196 27.7083ZM255.196 29.3883C257.468 29.3883 258.732 30.8763 258.732 33.4203C258.732 35.9643 257.468 37.4523 255.196 37.4523H252.876V29.3883H255.196ZM273.531 39.1323V37.4523H267.338V34.2523H272.762V32.5723H267.338V29.3883H273.467V27.7083H265.258V39.1323H273.531ZM287.79 34.5243V27.7083H285.678V34.5083C285.678 36.5083 284.75 37.6283 282.91 37.6283C281.07 37.6283 280.158 36.5083 280.158 34.5083V27.7083H278.03V34.4923C278.03 37.6443 279.838 39.3243 282.91 39.3243C285.998 39.3243 287.79 37.6443 287.79 34.5243ZM296.045 39.1323H298.157V29.3883H302.269V27.7083H291.949V29.3883H296.045V39.1323ZM305.472 35.6763C305.68 38.1883 307.776 39.3243 310.496 39.3243C313.024 39.3243 314.928 37.9483 314.928 35.8683C314.928 34.0283 313.808 33.1003 311.936 32.7483L309.728 32.3163C308.496 32.0763 307.904 31.7723 307.904 30.8283C307.904 29.8203 308.768 29.1003 310.144 29.1003C311.568 29.1003 312.56 29.7243 312.704 30.8443H314.704C314.48 28.7003 312.848 27.5163 310.128 27.5163C307.632 27.5163 305.84 28.9243 305.84 30.9563C305.84 32.9563 307.2 33.7563 308.88 34.0603L310.976 34.4443C312.352 34.7003 312.848 35.1643 312.848 35.9963C312.848 37.1483 311.792 37.7563 310.432 37.7563C309.008 37.7563 307.664 37.2283 307.52 35.6763H305.472ZM320.863 33.4043C320.863 30.8123 322.015 29.1963 324.079 29.1963C325.711 29.1963 326.463 30.1243 326.687 31.2923H328.751C328.351 29.0523 326.815 27.5163 324.079 27.5163C320.879 27.5163 318.703 29.8843 318.703 33.4043C318.703 36.9563 320.879 39.3243 324.079 39.3243C326.815 39.3243 328.351 37.7723 328.751 35.5483H326.687C326.463 36.7163 325.711 37.6443 324.079 37.6443C322.015 37.6443 320.863 36.0123 320.863 33.4043ZM333.024 39.1323H335.152V34.1723H341.008V39.1323H343.12V27.7083H341.008V32.5083H335.152V27.7083H333.024V39.1323ZM348.112 39.1323H356.128V37.4523H350.24V27.7083H348.112V39.1323ZM368.909 39.1323H371.085L366.493 27.7083H364.109L359.517 39.1323H361.597L362.685 36.3323H367.837L368.909 39.1323ZM365.261 29.7563H365.309L367.197 34.6843H363.341L365.261 29.7563ZM377.454 27.7083H374.974V39.1323H377.006V30.2843H377.038L382.91 39.1323H384.878V27.7083H382.862V35.8043H382.83L377.454 27.7083ZM394.274 27.7083H389.874V39.1323H394.274C397.714 39.1323 399.986 36.8603 399.986 33.4203C399.986 29.9963 397.714 27.7083 394.274 27.7083ZM394.274 29.3883C396.546 29.3883 397.81 30.8763 397.81 33.4203C397.81 35.9643 396.546 37.4523 394.274 37.4523H391.954V29.3883H394.274ZM404.337 39.1323H406.465V34.5563H411.633V32.8763H406.465V29.3883H412.225V27.7083H404.337V39.1323ZM426.431 34.5243V27.7083H424.319V34.5083C424.319 36.5083 423.391 37.6283 421.551 37.6283C419.711 37.6283 418.799 36.5083 418.799 34.5083V27.7083H416.671V34.4923C416.671 37.6443 418.479 39.3243 421.551 39.3243C424.639 39.3243 426.431 37.6443 426.431 34.5243ZM433.757 27.7083H431.277V39.1323H433.309V30.2843H433.341L439.213 39.1323H441.181V27.7083H439.165V35.8043H439.133L433.757 27.7083ZM453.905 39.1323H456.465L451.297 32.6683L456.017 27.7083H453.585L448.305 33.4523V27.7083H446.177V39.1323H448.305V35.8203L449.889 34.1563L453.905 39.1323Z" fill="#222222"/>
<path d="M316.55 58.6985L318.58 53.0885H318.6V58.6985H319.87V51.5585H318.05L316.13 56.9285H316.11L314.19 51.5585H312.31V58.6985H313.53V53.0885H313.55L315.59 58.6985H316.55ZM328.669 58.6985H330.029L327.159 51.5585H325.669L322.799 58.6985H324.099L324.779 56.9485H327.999L328.669 58.6985ZM326.389 52.8385H326.419L327.599 55.9185H325.189L326.389 52.8385ZM332.471 56.5385C332.601 58.1085 333.911 58.8185 335.611 58.8185C337.191 58.8185 338.381 57.9585 338.381 56.6585C338.381 55.5085 337.681 54.9285 336.511 54.7085L335.131 54.4385C334.361 54.2885 333.991 54.0985 333.991 53.5085C333.991 52.8785 334.531 52.4285 335.391 52.4285C336.281 52.4285 336.901 52.8185 336.991 53.5185H338.241C338.101 52.1785 337.081 51.4385 335.381 51.4385C333.821 51.4385 332.701 52.3185 332.701 53.5885C332.701 54.8385 333.551 55.3385 334.601 55.5285L335.911 55.7685C336.771 55.9285 337.081 56.2185 337.081 56.7385C337.081 57.4585 336.421 57.8385 335.571 57.8385C334.681 57.8385 333.841 57.5085 333.751 56.5385H332.471ZM343.526 58.6985H344.846V52.6085H347.416V51.5585H340.966V52.6085H343.526V58.6985ZM355.773 58.6985V57.6485H351.903V55.6485H355.293V54.5985H351.903V52.6085H355.733V51.5585H350.603V58.6985H355.773ZM360.475 58.6985V56.0285H362.075L363.705 58.6985H365.155L363.365 55.8285C364.175 55.5685 364.885 54.9085 364.885 53.7985C364.885 52.3385 363.905 51.5585 362.235 51.5585H359.175V58.6985H360.475ZM360.475 54.9885V52.6085H362.085C363.075 52.6085 363.575 53.0185 363.575 53.7985C363.575 54.5785 363.075 54.9885 362.085 54.9885H360.475ZM375.495 58.6985C377.145 58.6985 378.105 58.0085 378.105 56.6685C378.105 55.8385 377.515 55.2085 376.735 54.9985C377.315 54.8285 377.815 54.1385 377.815 53.5085C377.815 52.2285 376.905 51.5585 375.235 51.5585H372.365V58.6985H375.495ZM373.665 54.5785V52.5385H375.235C376.105 52.5385 376.535 52.9085 376.535 53.5585C376.535 54.1785 376.115 54.5785 375.225 54.5785H373.665ZM373.665 55.5285H375.385C376.305 55.5285 376.795 55.9485 376.795 56.6185C376.795 57.3085 376.315 57.7185 375.395 57.7185H373.665V55.5285ZM382.628 58.6985V56.0285H384.228L385.858 58.6985H387.308L385.518 55.8285C386.328 55.5685 387.038 54.9085 387.038 53.7985C387.038 52.3385 386.058 51.5585 384.388 51.5585H381.328V58.6985H382.628ZM382.628 54.9885V52.6085H384.238C385.228 52.6085 385.728 53.0185 385.728 53.7985C385.728 54.5785 385.228 54.9885 384.238 54.9885H382.628ZM395.587 58.6985H396.947L394.077 51.5585H392.587L389.717 58.6985H391.017L391.697 56.9485H394.917L395.587 58.6985ZM393.307 52.8385H393.337L394.517 55.9185H392.107L393.307 52.8385ZM401.428 51.5585H399.878V58.6985H401.148V53.1685H401.168L404.838 58.6985H406.068V51.5585H404.808V56.6185H404.788L401.428 51.5585ZM412.441 51.5585H409.691V58.6985H412.441C414.591 58.6985 416.011 57.2785 416.011 55.1285C416.011 52.9885 414.591 51.5585 412.441 51.5585ZM412.441 52.6085C413.861 52.6085 414.651 53.5385 414.651 55.1285C414.651 56.7185 413.861 57.6485 412.441 57.6485H410.991V52.6085H412.441Z" fill="#222222"/>
<path d="M272.124 455.704C272.124 453.76 272.988 452.548 274.536 452.548C275.76 452.548 276.324 453.244 276.492 454.12H278.04C277.74 452.44 276.588 451.288 274.536 451.288C272.136 451.288 270.504 453.064 270.504 455.704C270.504 458.368 272.136 460.144 274.536 460.144C276.588 460.144 277.74 458.98 278.04 457.312H276.492C276.324 458.188 275.76 458.884 274.536 458.884C272.988 458.884 272.124 457.66 272.124 455.704ZM289.561 455.716C289.561 453.148 287.989 451.288 285.469 451.288C282.949 451.288 281.377 453.148 281.377 455.716C281.377 458.296 282.949 460.144 285.469 460.144C287.989 460.144 289.561 458.296 289.561 455.716ZM287.941 455.716C287.941 457.624 287.101 458.884 285.469 458.884C283.825 458.884 282.997 457.624 282.997 455.716C282.997 453.82 283.825 452.548 285.469 452.548C287.101 452.548 287.941 453.82 287.941 455.716ZM295.28 451.432H293.42V460H294.944V453.364H294.968L299.372 460H300.848V451.432H299.336V457.504H299.312L295.28 451.432ZM307.751 460H309.335V452.692H312.419V451.432H304.679V452.692H307.751V460ZM322.448 460V458.74H317.804V456.34H321.872V455.08H317.804V452.692H322.4V451.432H316.244V460H322.448ZM328.391 451.432H326.531V460H328.055V453.364H328.079L332.483 460H333.959V451.432H332.447V457.504H332.423L328.391 451.432ZM340.862 460H342.446V452.692H345.53V451.432H337.79V452.692H340.862V460ZM353.71 457.408C353.866 459.292 355.438 460.144 357.478 460.144C359.374 460.144 360.802 459.112 360.802 457.552C360.802 456.172 359.962 455.476 358.558 455.212L356.902 454.888C355.978 454.708 355.534 454.48 355.534 453.772C355.534 453.016 356.182 452.476 357.214 452.476C358.282 452.476 359.026 452.944 359.134 453.784H360.634C360.466 452.176 359.242 451.288 357.202 451.288C355.33 451.288 353.986 452.344 353.986 453.868C353.986 455.368 355.006 455.968 356.266 456.196L357.838 456.484C358.87 456.676 359.242 457.024 359.242 457.648C359.242 458.512 358.45 458.968 357.43 458.968C356.362 458.968 355.354 458.572 355.246 457.408H353.71ZM368.229 456.844C370.245 456.844 371.421 455.932 371.421 454.144C371.421 452.356 370.245 451.432 368.217 451.432H364.677V460H366.237V456.844H368.229ZM366.237 455.596V452.692H368.085C369.261 452.692 369.849 453.16 369.849 454.144C369.849 455.116 369.261 455.596 368.085 455.596H366.237ZM381.379 460V458.74H376.735V456.34H380.803V455.08H376.735V452.692H381.331V451.432H375.175V460H381.379ZM386.614 455.704C386.614 453.76 387.478 452.548 389.026 452.548C390.25 452.548 390.814 453.244 390.982 454.12H392.53C392.23 452.44 391.078 451.288 389.026 451.288C386.626 451.288 384.994 453.064 384.994 455.704C384.994 458.368 386.626 460.144 389.026 460.144C391.078 460.144 392.23 458.98 392.53 457.312H390.982C390.814 458.188 390.25 458.884 389.026 458.884C387.478 458.884 386.614 457.66 386.614 455.704ZM398.773 460H400.357V452.692H403.441V451.432H395.701V452.692H398.773V460ZM408.826 460V456.796H410.746L412.702 460H414.442L412.294 456.556C413.266 456.244 414.118 455.452 414.118 454.12C414.118 452.368 412.942 451.432 410.938 451.432H407.266V460H408.826ZM408.826 455.548V452.692H410.758C411.946 452.692 412.546 453.184 412.546 454.12C412.546 455.056 411.946 455.548 410.758 455.548H408.826ZM425.386 456.544V451.432H423.802V456.532C423.802 458.032 423.106 458.872 421.726 458.872C420.346 458.872 419.662 458.032 419.662 456.532V451.432H418.066V456.52C418.066 458.884 419.422 460.144 421.726 460.144C424.042 460.144 425.386 458.884 425.386 456.544ZM434.708 460L437.144 453.268H437.168V460H438.692V451.432H436.508L434.204 457.876H434.18L431.876 451.432H429.62V460H431.084V453.268H431.108L433.556 460H434.708Z" fill="#464646"/>
<defs>
<filter id="filter0_d" x="55.2206" y="108" width="171.559" height="182.559" filterUnits="userSpaceOnUse" color-interpolation-filters="sRGB">
<feFlood flood-opacity="0" result="BackgroundImageFix"/>
<feColorMatrix in="SourceAlpha" type="matrix" values="0 0 0 0 0 0 0 0 0 0 0 0 0 0 0 0 0 0 127 0"/>
<feOffset dy="1.77941"/>
<feGaussianBlur stdDeviation="0.889706"/>
<feColorMatrix type="matrix" values="0 0 0 0 0 0 0 0 0 0 0 0 0 0 0 0 0 0 0.13 0"/>
<feBlend mode="normal" in2="BackgroundImageFix" result="effect1_dropShadow"/>
<feBlend mode="normal" in="SourceGraphic" in2="effect1_dropShadow" result="shape"/>
</filter>
<filter id="filter1_d" x="55.2206" y="108" width="180.559" height="219.559" filterUnits="userSpaceOnUse" color-interpolation-filters="sRGB">
<feFlood flood-opacity="0" result="BackgroundImageFix"/>
<feColorMatrix in="SourceAlpha" type="matrix" values="0 0 0 0 0 0 0 0 0 0 0 0 0 0 0 0 0 0 127 0"/>
<feOffset dy="1.77941"/>
<feGaussianBlur stdDeviation="0.889706"/>
<feColorMatrix type="matrix" values="0 0 0 0 0 0 0 0 0 0 0 0 0 0 0 0 0 0 0.13 0"/>
<feBlend mode="normal" in2="BackgroundImageFix" result="effect1_dropShadow"/>
<feBlend mode="normal" in="SourceGraphic" in2="effect1_dropShadow" result="shape"/>
</filter>
<filter id="filter2_d" x="267.221" y="108" width="171.559" height="182.559" filterUnits="userSpaceOnUse" color-interpolation-filters="sRGB">
<feFlood flood-opacity="0" result="BackgroundImageFix"/>
<feColorMatrix in="SourceAlpha" type="matrix" values="0 0 0 0 0 0 0 0 0 0 0 0 0 0 0 0 0 0 127 0"/>
<feOffset dy="1.77941"/>
<feGaussianBlur stdDeviation="0.889706"/>
<feColorMatrix type="matrix" values="0 0 0 0 0 0 0 0 0 0 0 0 0 0 0 0 0 0 0.13 0"/>
<feBlend mode="normal" in2="BackgroundImageFix" result="effect1_dropShadow"/>
<feBlend mode="normal" in="SourceGraphic" in2="effect1_dropShadow" result="shape"/>
</filter>
<filter id="filter3_d" x="267.221" y="108" width="180.559" height="219.559" filterUnits="userSpaceOnUse" color-interpolation-filters="sRGB">
<feFlood flood-opacity="0" result="BackgroundImageFix"/>
<feColorMatrix in="SourceAlpha" type="matrix" values="0 0 0 0 0 0 0 0 0 0 0 0 0 0 0 0 0 0 127 0"/>
<feOffset dy="1.77941"/>
<feGaussianBlur stdDeviation="0.889706"/>
<feColorMatrix type="matrix" values="0 0 0 0 0 0 0 0 0 0 0 0 0 0 0 0 0 0 0.13 0"/>
<feBlend mode="normal" in2="BackgroundImageFix" result="effect1_dropShadow"/>
<feBlend mode="normal" in="SourceGraphic" in2="effect1_dropShadow" result="shape"/>
</filter>
<filter id="filter4_d" x="479.221" y="108" width="171.559" height="182.559" filterUnits="userSpaceOnUse" color-interpolation-filters="sRGB">
<feFlood flood-opacity="0" result="BackgroundImageFix"/>
<feColorMatrix in="SourceAlpha" type="matrix" values="0 0 0 0 0 0 0 0 0 0 0 0 0 0 0 0 0 0 127 0"/>
<feOffset dy="1.77941"/>
<feGaussianBlur stdDeviation="0.889706"/>
<feColorMatrix type="matrix" values="0 0 0 0 0 0 0 0 0 0 0 0 0 0 0 0 0 0 0.13 0"/>
<feBlend mode="normal" in2="BackgroundImageFix" result="effect1_dropShadow"/>
<feBlend mode="normal" in="SourceGraphic" in2="effect1_dropShadow" result="shape"/>
</filter>
<filter id="filter5_d" x="479.221" y="108" width="180.559" height="219.559" filterUnits="userSpaceOnUse" color-interpolation-filters="sRGB">
<feFlood flood-opacity="0" result="BackgroundImageFix"/>
<feColorMatrix in="SourceAlpha" type="matrix" values="0 0 0 0 0 0 0 0 0 0 0 0 0 0 0 0 0 0 127 0"/>
<feOffset dy="1.77941"/>
<feGaussianBlur stdDeviation="0.889706"/>
<feColorMatrix type="matrix" values="0 0 0 0 0 0 0 0 0 0 0 0 0 0 0 0 0 0 0.13 0"/>
<feBlend mode="normal" in2="BackgroundImageFix" result="effect1_dropShadow"/>
<feBlend mode="normal" in="SourceGraphic" in2="effect1_dropShadow" result="shape"/>
</filter>
<linearGradient id="paint0_linear" x1="1" y1="363.291" x2="701.085" y2="373.372" gradientUnits="userSpaceOnUse">
<stop stop-color="#198AFF"/>
<stop offset="1" stop-color="#198AFF" stop-opacity="0"/>
</linearGradient>
<linearGradient id="paint1_linear" x1="705" y1="319" x2="0.999958" y2="319" gradientUnits="userSpaceOnUse">
<stop stop-color="#FF6400"/>
<stop offset="1" stop-color="#FF0000" stop-opacity="0"/>
</linearGradient>
<linearGradient id="paint2_linear" x1="142.94" y1="109.273" x2="142.972" y2="182" gradientUnits="userSpaceOnUse">
<stop stop-color="#198AFF"/>
<stop offset="1" stop-color="#198AFF"/>
</linearGradient>
<clipPath id="clip0">
<rect x="57" y="108" width="168" height="179" fill="white"/>
</clipPath>
<clipPath id="clip1">
<rect x="269" y="108" width="168" height="179" fill="white"/>
</clipPath>
<clipPath id="clip2">
<rect x="481" y="108" width="168" height="179" fill="white"/>
</clipPath>
</defs>
</svg>
