<svg width="343" height="456" viewBox="0 0 343 456" fill="none" xmlns="http://www.w3.org/2000/svg">
<g clip-path="url(#clip0)">
<path d="M266.05 408L268.08 402.39H268.1V408H269.37V400.86H267.55L265.63 406.23H265.61L263.69 400.86H261.81V408H263.03V402.39H263.05L265.09 408H266.05ZM278.169 408H279.529L276.659 400.86H275.169L272.299 408H273.599L274.279 406.25H277.499L278.169 408ZM275.889 402.14H275.919L277.099 405.22H274.689L275.889 402.14ZM281.797 404.42C281.797 406.63 283.147 408.12 285.147 408.12C286.027 408.12 286.937 407.66 287.197 406.98L287.287 408H288.317V404.36H285.617V405.32H286.997V405.57C286.997 406.45 286.277 407.07 285.227 407.07C283.897 407.07 283.147 406.05 283.147 404.42C283.147 402.8 283.917 401.79 285.247 401.79C286.207 401.79 286.747 402.29 286.917 403.09H288.227C287.947 401.68 286.967 400.74 285.247 400.74C283.207 400.74 281.797 402.22 281.797 404.42ZM296.984 408H298.344L295.474 400.86H293.984L291.114 408H292.414L293.094 406.25H296.314L296.984 408ZM294.704 402.14H294.734L295.914 405.22H293.504L294.704 402.14ZM306.705 401.86V400.86H301.065V401.91H305.085L300.935 407.07V408H306.765V406.95H302.575L306.705 401.86ZM310.052 408H311.382V400.86H310.052V408ZM316.551 400.86H315.001V408H316.271V402.47H316.291L319.961 408H321.191V400.86H319.931V405.92H319.911L316.551 400.86ZM329.984 408V406.95H326.114V404.95H329.504V403.9H326.114V401.91H329.944V400.86H324.814V408H329.984Z" fill="#464646"/>
<path d="M14 374H330L14 318V374Z" fill="url(#paint0_linear)"/>
<path d="M330 318L14 318L330 374L330 318Z" fill="url(#paint1_linear)"/>
<path d="M14 427L330 427" stroke="black"/>
<path d="M20.6743 420L14 427.026L20.8499 434.051" stroke="#222222" stroke-linecap="round" stroke-linejoin="round"/>
<path d="M323.326 434.051L330 427.026L323.15 420" stroke="#222222" stroke-linecap="round" stroke-linejoin="round"/>
<rect width="343" height="75" stroke="black" stroke-dasharray="0.44 2.67"/>
<g filter="url(#filter0_d)">
<g clip-path="url(#clip1)">
<g filter="url(#filter1_d)">
<rect x="14" y="107" width="95" height="216" fill="white"/>
</g>
<rect x="14" y="107" width="98" height="74" fill="url(#paint2_linear)"/>
<path d="M51.2724 128.432H47.9724V137H51.2724C53.8524 137 55.5564 135.296 55.5564 132.716C55.5564 130.148 53.8524 128.432 51.2724 128.432ZM51.2724 129.692C52.9764 129.692 53.9244 130.808 53.9244 132.716C53.9244 134.624 52.9764 135.74 51.2724 135.74H49.5324V129.692H51.2724ZM59.4193 137H65.4313V135.74H61.0153V128.432H59.4193V137ZM69.413 137H71.009V133.568H74.885V132.308H71.009V129.692H75.329V128.432H69.413V137Z" fill="white"/>
<path d="M24.6389 149.89C24.7389 151.45 26.0389 152.12 27.5889 152.12C29.0989 152.12 30.1789 151.26 30.1789 150.04C30.1789 148.91 29.4789 148.4 28.3789 148.18L26.9789 147.89C26.1089 147.72 25.7089 147.47 25.7089 146.76C25.7089 146.01 26.3289 145.43 27.3689 145.43C28.3889 145.43 29.0889 145.89 29.2089 146.69H30.0389C29.8989 145.4 28.8889 144.74 27.3589 144.74C25.8789 144.74 24.8689 145.62 24.8689 146.79C24.8689 148.02 25.7289 148.46 26.6889 148.64L28.0489 148.91C29.0189 149.09 29.3489 149.48 29.3489 150.08C29.3489 150.94 28.5989 151.43 27.5789 151.43C26.5189 151.43 25.5789 151.04 25.4689 149.89H24.6389ZM39.3314 149.09V144.86H38.4714V149.14C38.4714 150.66 37.7014 151.39 36.4414 151.39C35.1914 151.39 34.4114 150.66 34.4114 149.14V144.86H33.5514V149.07C33.5514 151.04 34.6214 152.12 36.4414 152.12C38.2814 152.12 39.3314 151.04 39.3314 149.09ZM45.9231 152C47.5031 152 48.4331 151.31 48.4331 150C48.4331 149.16 47.8831 148.51 47.0031 148.29C47.6131 148.11 48.1131 147.43 48.1131 146.77C48.1131 145.52 47.1931 144.86 45.6031 144.86H43.0931V152H45.9231ZM43.9431 148.01V145.56H45.6631C46.7231 145.56 47.2431 145.99 47.2431 146.78C47.2431 147.56 46.7131 148.01 45.6531 148.01H43.9431ZM43.9431 148.68H45.8631C46.9531 148.68 47.5731 149.18 47.5731 150C47.5731 150.82 46.9731 151.3 45.8831 151.3H43.9431V148.68ZM58.8293 152C60.4093 152 61.3393 151.31 61.3393 150C61.3393 149.16 60.7893 148.51 59.9093 148.29C60.5193 148.11 61.0193 147.43 61.0193 146.77C61.0193 145.52 60.0993 144.86 58.5093 144.86H55.9993V152H58.8293ZM56.8493 148.01V145.56H58.5693C59.6293 145.56 60.1493 145.99 60.1493 146.78C60.1493 147.56 59.6193 148.01 58.5593 148.01H56.8493ZM56.8493 148.68H58.7693C59.8593 148.68 60.4793 149.18 60.4793 150C60.4793 150.82 59.8793 151.3 58.7893 151.3H56.8493V148.68ZM65.5876 152V149.11H67.4876L69.3376 152H70.3076L68.3476 148.98C69.1876 148.79 69.9976 148.14 69.9976 146.98C69.9976 145.61 69.0876 144.86 67.4876 144.86H64.7376V152H65.5876ZM65.5876 148.39V145.58H67.4376C68.5176 145.58 69.1276 146.08 69.1276 146.98C69.1276 147.91 68.5176 148.39 67.4376 148.39H65.5876ZM78.7321 152H79.6321L76.7321 144.86H75.7621L72.8721 152H73.7321L74.5221 150.01H77.9421L78.7321 152ZM76.2221 145.72H76.2521L77.6621 149.3H74.8021L76.2221 145.72ZM83.7918 144.86H82.7318V152H83.5718V145.91H83.5918L87.6518 152H88.4518V144.86H87.6218V150.56H87.6018L83.7918 144.86ZM94.8496 144.86H92.3196V152H94.8496C96.9196 152 98.3296 150.58 98.3296 148.43C98.3296 146.29 96.9196 144.86 94.8496 144.86ZM94.8496 145.58C96.5096 145.58 97.4396 146.71 97.4396 148.43C97.4396 150.16 96.5096 151.28 94.8496 151.28H93.1696V145.58H94.8496Z" fill="white"/>
<path d="M42.1403 198.86H40.5903V206H41.8603V200.47H41.8803L45.5503 206H46.7803V198.86H45.5203V203.92H45.5003L42.1403 198.86ZM54.5728 206V204.95H50.7028V202.95H54.0928V201.9H50.7028V199.91H54.5328V198.86H49.4028V206H54.5728ZM62.575 206H64.035L66.005 198.86H64.705L63.285 204.4H63.265L61.875 198.86H60.535L59.145 204.4H59.125L57.695 198.86H56.335L58.305 206H59.755L61.155 200.49H61.175L62.575 206ZM67.466 203.84C67.596 205.41 68.906 206.12 70.606 206.12C72.186 206.12 73.376 205.26 73.376 203.96C73.376 202.81 72.676 202.23 71.506 202.01L70.126 201.74C69.356 201.59 68.986 201.4 68.986 200.81C68.986 200.18 69.526 199.73 70.386 199.73C71.276 199.73 71.896 200.12 71.986 200.82H73.236C73.096 199.48 72.076 198.74 70.376 198.74C68.816 198.74 67.696 199.62 67.696 200.89C67.696 202.14 68.546 202.64 69.596 202.83L70.906 203.07C71.766 203.23 72.076 203.52 72.076 204.04C72.076 204.76 71.416 205.14 70.566 205.14C69.676 205.14 68.836 204.81 68.746 203.84H67.466ZM80.9355 198.75C81.4688 198.75 81.8888 198.887 82.1955 199.16C82.5088 199.427 82.6655 199.803 82.6655 200.29C82.6655 200.71 82.5288 201.067 82.2555 201.36C81.9888 201.653 81.6488 201.92 81.2355 202.16L83.1655 204.02C83.3388 203.813 83.4788 203.577 83.5855 203.31C83.6988 203.037 83.7922 202.743 83.8655 202.43H84.7555C84.6488 202.857 84.5155 203.253 84.3555 203.62C84.1955 203.987 83.9888 204.307 83.7355 204.58L85.1955 206H84.0055L83.1355 205.16C82.8222 205.44 82.4722 205.667 82.0855 205.84C81.6988 206.013 81.2288 206.1 80.6755 206.1C79.9888 206.1 79.4422 205.93 79.0355 205.59C78.6288 205.25 78.4255 204.767 78.4255 204.14C78.4255 203.627 78.5622 203.217 78.8355 202.91C79.1155 202.597 79.4922 202.307 79.9655 202.04C79.7522 201.8 79.5522 201.543 79.3655 201.27C79.1855 200.997 79.0955 200.677 79.0955 200.31C79.0955 199.817 79.2588 199.433 79.5855 199.16C79.9188 198.887 80.3688 198.75 80.9355 198.75ZM80.9055 199.47C80.6255 199.47 80.3955 199.543 80.2155 199.69C80.0422 199.837 79.9555 200.04 79.9555 200.3C79.9555 200.54 80.0188 200.763 80.1455 200.97C80.2722 201.17 80.4555 201.393 80.6955 201.64C81.0888 201.413 81.3688 201.2 81.5355 201C81.7088 200.793 81.7955 200.557 81.7955 200.29C81.7955 200.05 81.7155 199.853 81.5555 199.7C81.3955 199.547 81.1788 199.47 80.9055 199.47ZM80.4955 202.59C80.1355 202.803 79.8522 203.02 79.6455 203.24C79.4455 203.46 79.3455 203.75 79.3455 204.11C79.3455 204.477 79.4688 204.77 79.7155 204.99C79.9622 205.21 80.2922 205.32 80.7055 205.32C81.1322 205.32 81.4988 205.25 81.8055 205.11C82.1122 204.97 82.3688 204.803 82.5755 204.61L80.4955 202.59ZM36.0845 220.42C36.0845 218.8 36.8045 217.79 38.0945 217.79C39.1145 217.79 39.5845 218.37 39.7245 219.1H41.0145C40.7645 217.7 39.8045 216.74 38.0945 216.74C36.0945 216.74 34.7345 218.22 34.7345 220.42C34.7345 222.64 36.0945 224.12 38.0945 224.12C39.8045 224.12 40.7645 223.15 41.0145 221.76H39.7245C39.5845 222.49 39.1145 223.07 38.0945 223.07C36.8045 223.07 36.0845 222.05 36.0845 220.42ZM49.195 221.12V216.86H47.875V221.11C47.875 222.36 47.295 223.06 46.145 223.06C44.995 223.06 44.425 222.36 44.425 221.11V216.86H43.095V221.1C43.095 223.07 44.225 224.12 46.145 224.12C48.075 224.12 49.195 223.07 49.195 221.12ZM53.0241 224V221.33H54.6241L56.2541 224H57.7041L55.9141 221.13C56.7241 220.87 57.4341 220.21 57.4341 219.1C57.4341 217.64 56.4541 216.86 54.7841 216.86H51.7241V224H53.0241ZM53.0241 220.29V217.91H54.6341C55.6241 217.91 56.1241 218.32 56.1241 219.1C56.1241 219.88 55.6241 220.29 54.6341 220.29H53.0241ZM61.1139 224V221.33H62.7139L64.3439 224H65.7939L64.0039 221.13C64.8139 220.87 65.5239 220.21 65.5239 219.1C65.5239 217.64 64.5439 216.86 62.8739 216.86H59.8139V224H61.1139ZM61.1139 220.29V217.91H62.7239C63.7139 217.91 64.2139 218.32 64.2139 219.1C64.2139 219.88 63.7139 220.29 62.7239 220.29H61.1139ZM73.0738 224V222.95H69.2038V220.95H72.5938V219.9H69.2038V217.91H73.0338V216.86H67.9038V224H73.0738ZM77.026 216.86H75.476V224H76.746V218.47H76.766L80.436 224H81.666V216.86H80.406V221.92H80.386L77.026 216.86ZM86.4185 224H87.7385V217.91H90.3085V216.86H83.8585V217.91H86.4185V224ZM44.1392 242H45.4992L42.6292 234.86H41.1392L38.2692 242H39.5692L40.2492 240.25H43.4692L44.1392 242ZM41.8592 236.14H41.8892L43.0692 239.22H40.6592L41.8592 236.14ZM47.4301 242H48.7601V239.14H51.9901V238.09H48.7601V235.91H52.3601V234.86H47.4301V242ZM54.7289 242H56.0589V239.14H59.2889V238.09H56.0589V235.91H59.6589V234.86H54.7289V242ZM66.6509 242H68.0109L65.1409 234.86H63.6509L60.7809 242H62.0809L62.7609 240.25H65.9809L66.6509 242ZM64.3709 236.14H64.4009L65.5809 239.22H63.1709L64.3709 236.14ZM69.9418 242H71.2718V234.86H69.9418V242ZM75.1911 242V239.33H76.7911L78.4211 242H79.8711L78.0811 239.13C78.8911 238.87 79.6011 238.21 79.6011 237.1C79.6011 235.64 78.6211 234.86 76.9511 234.86H73.8911V242H75.1911ZM75.1911 238.29V235.91H76.8011C77.7911 235.91 78.2911 236.32 78.2911 237.1C78.2911 237.88 77.7911 238.29 76.8011 238.29H75.1911ZM81.5109 239.84C81.6409 241.41 82.9509 242.12 84.6509 242.12C86.2309 242.12 87.4209 241.26 87.4209 239.96C87.4209 238.81 86.7209 238.23 85.5509 238.01L84.1709 237.74C83.4009 237.59 83.0309 237.4 83.0309 236.81C83.0309 236.18 83.5709 235.73 84.4309 235.73C85.3209 235.73 85.9409 236.12 86.0309 236.82H87.2809C87.1409 235.48 86.1209 234.74 84.4209 234.74C82.8609 234.74 81.7409 235.62 81.7409 236.89C81.7409 238.14 82.5909 238.64 83.6409 238.83L84.9509 239.07C85.8109 239.23 86.1209 239.52 86.1209 240.04C86.1209 240.76 85.4609 241.14 84.6109 241.14C83.7209 241.14 82.8809 240.81 82.7909 239.84H81.5109ZM20.0348 257.26C20.0348 256.447 20.1514 255.663 20.3848 254.91C20.6248 254.15 20.9981 253.467 21.5048 252.86H22.3348C21.8681 253.487 21.5148 254.177 21.2748 254.93C21.0414 255.683 20.9248 256.457 20.9248 257.25C20.9248 258.023 21.0414 258.783 21.2748 259.53C21.5148 260.27 21.8648 260.953 22.3248 261.58H21.5048C20.9981 260.993 20.6248 260.33 20.3848 259.59C20.1514 258.843 20.0348 258.067 20.0348 257.26ZM24.4428 260H25.7728V252.86H24.4428V260ZM29.942 252.86H28.392V260H29.662V254.47H29.682L33.352 260H34.582V252.86H33.322V257.92H33.302L29.942 252.86ZM36.7345 257.84C36.8645 259.41 38.1745 260.12 39.8745 260.12C41.4545 260.12 42.6445 259.26 42.6445 257.96C42.6445 256.81 41.9445 256.23 40.7745 256.01L39.3945 255.74C38.6245 255.59 38.2545 255.4 38.2545 254.81C38.2545 254.18 38.7945 253.73 39.6545 253.73C40.5445 253.73 41.1645 254.12 41.2545 254.82H42.5045C42.3645 253.48 41.3445 252.74 39.6445 252.74C38.0845 252.74 36.9645 253.62 36.9645 254.89C36.9645 256.14 37.8145 256.64 38.8645 256.83L40.1745 257.07C41.0345 257.23 41.3445 257.52 41.3445 258.04C41.3445 258.76 40.6845 259.14 39.8345 259.14C38.9445 259.14 38.1045 258.81 38.0145 257.84H36.7345ZM46.7896 260H48.1096V253.91H50.6796V252.86H44.2296V253.91H46.7896V260ZM52.8666 260H54.1966V252.86H52.8666V260ZM58.9459 260H60.2659V253.91H62.8359V252.86H56.3859V253.91H58.9459V260ZM71.0329 257.12V252.86H69.7129V257.11C69.7129 258.36 69.1329 259.06 67.9829 259.06C66.8329 259.06 66.2629 258.36 66.2629 257.11V252.86H64.9329V257.1C64.9329 259.07 66.0629 260.12 67.9829 260.12C69.9129 260.12 71.0329 259.07 71.0329 257.12ZM75.692 260H77.012V253.91H79.582V252.86H73.132V253.91H75.692V260ZM81.769 260H83.099V252.86H81.769V260ZM92.1482 256.43C92.1482 254.29 90.8382 252.74 88.7382 252.74C86.6382 252.74 85.3282 254.29 85.3282 256.43C85.3282 258.58 86.6382 260.12 88.7382 260.12C90.8382 260.12 92.1482 258.58 92.1482 256.43ZM90.7982 256.43C90.7982 258.02 90.0982 259.07 88.7382 259.07C87.3682 259.07 86.6782 258.02 86.6782 256.43C86.6782 254.85 87.3682 253.79 88.7382 253.79C90.0982 253.79 90.7982 254.85 90.7982 256.43ZM95.9147 252.86H94.3647V260H95.6347V254.47H95.6547L99.3247 260H100.555V252.86H99.2947V257.92H99.2747L95.9147 252.86ZM104.967 257.26C104.967 258.067 104.847 258.843 104.607 259.59C104.374 260.33 104.004 260.993 103.497 261.58H102.677C103.137 260.953 103.484 260.27 103.717 259.53C103.957 258.783 104.077 258.023 104.077 257.25C104.077 256.457 103.957 255.683 103.717 254.93C103.484 254.177 103.134 253.487 102.667 252.86H103.497C104.004 253.467 104.374 254.15 104.607 254.91C104.847 255.663 104.967 256.447 104.967 257.26Z" fill="#222222"/>
</g>
</g>
<g filter="url(#filter2_d)">
<g clip-path="url(#clip2)">
<g filter="url(#filter3_d)">
<rect x="125" y="107" width="95" height="216" fill="white"/>
</g>
<rect x="125" y="107" width="95" height="74" fill="#78DE7F"/>
<path d="M137.37 128.432H134.07V137H137.37C139.95 137 141.654 135.296 141.654 132.716C141.654 130.148 139.95 128.432 137.37 128.432ZM137.37 129.692C139.074 129.692 140.022 130.808 140.022 132.716C140.022 134.624 139.074 135.74 137.37 135.74H135.63V129.692H137.37ZM145.517 137H151.529V135.74H147.113V128.432H145.517V137ZM155.511 137H157.107V133.568H160.983V132.308H157.107V129.692H161.427V128.432H155.511V137ZM172.249 128.432H170.389V137H171.913V130.364H171.937L176.341 137H177.817V128.432H176.305V134.504H176.281L172.249 128.432ZM189.88 132.716C189.88 130.148 188.308 128.288 185.788 128.288C183.268 128.288 181.696 130.148 181.696 132.716C181.696 135.296 183.268 137.144 185.788 137.144C188.308 137.144 189.88 135.296 189.88 132.716ZM188.26 132.716C188.26 134.624 187.42 135.884 185.788 135.884C184.144 135.884 183.316 134.624 183.316 132.716C183.316 130.82 184.144 129.548 185.788 129.548C187.42 129.548 188.26 130.82 188.26 132.716ZM195.955 137H197.731L201.127 128.432H199.507L196.891 135.296H196.867L194.263 128.432H192.571L195.955 137ZM210.125 137H211.757L208.313 128.432H206.525L203.081 137H204.641L205.457 134.9H209.321L210.125 137ZM207.389 129.968H207.425L208.841 133.664H205.949L207.389 129.968Z" fill="white"/>
<path d="M135.639 149.89C135.739 151.45 137.039 152.12 138.589 152.12C140.099 152.12 141.179 151.26 141.179 150.04C141.179 148.91 140.479 148.4 139.379 148.18L137.979 147.89C137.109 147.72 136.709 147.47 136.709 146.76C136.709 146.01 137.329 145.43 138.369 145.43C139.389 145.43 140.089 145.89 140.209 146.69H141.039C140.899 145.4 139.889 144.74 138.359 144.74C136.879 144.74 135.869 145.62 135.869 146.79C135.869 148.02 136.729 148.46 137.689 148.64L139.049 148.91C140.019 149.09 140.349 149.48 140.349 150.08C140.349 150.94 139.599 151.43 138.579 151.43C137.519 151.43 136.579 151.04 136.469 149.89H135.639ZM150.331 149.09V144.86H149.471V149.14C149.471 150.66 148.701 151.39 147.441 151.39C146.191 151.39 145.411 150.66 145.411 149.14V144.86H144.551V149.07C144.551 151.04 145.621 152.12 147.441 152.12C149.281 152.12 150.331 151.04 150.331 149.09ZM156.923 152C158.503 152 159.433 151.31 159.433 150C159.433 149.16 158.883 148.51 158.003 148.29C158.613 148.11 159.113 147.43 159.113 146.77C159.113 145.52 158.193 144.86 156.603 144.86H154.093V152H156.923ZM154.943 148.01V145.56H156.663C157.723 145.56 158.243 145.99 158.243 146.78C158.243 147.56 157.713 148.01 156.653 148.01H154.943ZM154.943 148.68H156.863C157.953 148.68 158.573 149.18 158.573 150C158.573 150.82 157.973 151.3 156.883 151.3H154.943V148.68ZM169.829 152C171.409 152 172.339 151.31 172.339 150C172.339 149.16 171.789 148.51 170.909 148.29C171.519 148.11 172.019 147.43 172.019 146.77C172.019 145.52 171.099 144.86 169.509 144.86H166.999V152H169.829ZM167.849 148.01V145.56H169.569C170.629 145.56 171.149 145.99 171.149 146.78C171.149 147.56 170.619 148.01 169.559 148.01H167.849ZM167.849 148.68H169.769C170.859 148.68 171.479 149.18 171.479 150C171.479 150.82 170.879 151.3 169.789 151.3H167.849V148.68ZM176.588 152V149.11H178.488L180.338 152H181.308L179.348 148.98C180.188 148.79 180.998 148.14 180.998 146.98C180.998 145.61 180.088 144.86 178.488 144.86H175.738V152H176.588ZM176.588 148.39V145.58H178.438C179.518 145.58 180.128 146.08 180.128 146.98C180.128 147.91 179.518 148.39 178.438 148.39H176.588ZM189.732 152H190.632L187.732 144.86H186.762L183.872 152H184.732L185.522 150.01H188.942L189.732 152ZM187.222 145.72H187.252L188.662 149.3H185.802L187.222 145.72ZM194.792 144.86H193.732V152H194.572V145.91H194.592L198.652 152H199.452V144.86H198.622V150.56H198.602L194.792 144.86ZM205.85 144.86H203.32V152H205.85C207.92 152 209.33 150.58 209.33 148.43C209.33 146.29 207.92 144.86 205.85 144.86ZM205.85 145.58C207.51 145.58 208.44 146.71 208.44 148.43C208.44 150.16 207.51 151.28 205.85 151.28H204.17V145.58H205.85Z" fill="white"/>
<path d="M135.812 206H137.132V199.91H139.702V198.86H133.252V199.91H135.812V206ZM147.059 206V204.95H143.189V202.95H146.579V201.9H143.189V199.91H147.019V198.86H141.889V206H147.059ZM150.421 202.42C150.421 200.8 151.141 199.79 152.431 199.79C153.451 199.79 153.921 200.37 154.061 201.1H155.351C155.101 199.7 154.141 198.74 152.431 198.74C150.431 198.74 149.071 200.22 149.071 202.42C149.071 204.64 150.431 206.12 152.431 206.12C154.141 206.12 155.101 205.15 155.351 203.76H154.061C153.921 204.49 153.451 205.07 152.431 205.07C151.141 205.07 150.421 204.05 150.421 202.42ZM157.522 206H158.852V202.9H162.512V206H163.832V198.86H162.512V201.86H158.852V198.86H157.522V206ZM168.002 198.86H166.452V206H167.722V200.47H167.742L171.412 206H172.642V198.86H171.382V203.92H171.362L168.002 198.86ZM181.694 202.43C181.694 200.29 180.384 198.74 178.284 198.74C176.184 198.74 174.874 200.29 174.874 202.43C174.874 204.58 176.184 206.12 178.284 206.12C180.384 206.12 181.694 204.58 181.694 202.43ZM180.344 202.43C180.344 204.02 179.644 205.07 178.284 205.07C176.914 205.07 176.224 204.02 176.224 202.43C176.224 200.85 176.914 199.79 178.284 199.79C179.644 199.79 180.344 200.85 180.344 202.43ZM183.911 206H188.921V204.95H185.241V198.86H183.911V206ZM197.337 202.43C197.337 200.29 196.027 198.74 193.927 198.74C191.827 198.74 190.517 200.29 190.517 202.43C190.517 204.58 191.827 206.12 193.927 206.12C196.027 206.12 197.337 204.58 197.337 202.43ZM195.987 202.43C195.987 204.02 195.287 205.07 193.927 205.07C192.557 205.07 191.867 204.02 191.867 202.43C191.867 200.85 192.557 199.79 193.927 199.79C195.287 199.79 195.987 200.85 195.987 202.43ZM199.212 202.42C199.212 204.63 200.562 206.12 202.562 206.12C203.442 206.12 204.352 205.66 204.612 204.98L204.702 206H205.732V202.36H203.032V203.32H204.412V203.57C204.412 204.45 203.692 205.07 202.642 205.07C201.312 205.07 200.562 204.05 200.562 202.42C200.562 200.8 201.332 199.79 202.662 199.79C203.622 199.79 204.162 200.29 204.332 201.09H205.642C205.362 199.68 204.382 198.74 202.662 198.74C200.622 198.74 199.212 200.22 199.212 202.42ZM211.257 206V203.07L214.027 198.86H212.577L210.647 201.91H210.627L208.647 198.86H207.167L209.927 203.07V206H211.257ZM133.648 224H135.008L132.138 216.86H130.648L127.778 224H129.078L129.758 222.25H132.978L133.648 224ZM131.368 218.14H131.398L132.578 221.22H130.168L131.368 218.14ZM138.489 216.86H136.939V224H138.209V218.47H138.229L141.899 224H143.129V216.86H141.869V221.92H141.849L138.489 216.86ZM148.501 216.86H145.751V224H148.501C150.651 224 152.071 222.58 152.071 220.43C152.071 218.29 150.651 216.86 148.501 216.86ZM148.501 217.91C149.921 217.91 150.711 218.84 150.711 220.43C150.711 222.02 149.921 222.95 148.501 222.95H147.051V217.91H148.501ZM157.39 224H162.4V222.95H158.72V216.86H157.39V224ZM164.718 224H166.048V216.86H164.718V224ZM168.667 224H169.997V221.14H173.227V220.09H169.997V217.91H173.597V216.86H168.667V224ZM181.136 224V222.95H177.266V220.95H180.656V219.9H177.266V217.91H181.096V216.86H175.966V224H181.136ZM183.049 221.84C183.179 223.41 184.489 224.12 186.189 224.12C187.769 224.12 188.959 223.26 188.959 221.96C188.959 220.81 188.259 220.23 187.089 220.01L185.709 219.74C184.939 219.59 184.569 219.4 184.569 218.81C184.569 218.18 185.109 217.73 185.969 217.73C186.859 217.73 187.479 218.12 187.569 218.82H188.819C188.679 217.48 187.659 216.74 185.959 216.74C184.399 216.74 183.279 217.62 183.279 218.89C183.279 220.14 184.129 220.64 185.179 220.83L186.489 221.07C187.349 221.23 187.659 221.52 187.659 222.04C187.659 222.76 186.999 223.14 186.149 223.14C185.259 223.14 184.419 222.81 184.329 221.84H183.049ZM193.104 224H194.424V217.91H196.994V216.86H190.544V217.91H193.104V224ZM202.561 224V221.07L205.331 216.86H203.881L201.951 219.91H201.931L199.951 216.86H198.471L201.231 221.07V224H202.561ZM207.242 224H212.252V222.95H208.572V216.86H207.242V224ZM219.74 224V222.95H215.87V220.95H219.26V219.9H215.87V217.91H219.7V216.86H214.57V224H219.74ZM143.422 239.26C143.422 238.447 143.539 237.663 143.772 236.91C144.012 236.15 144.386 235.467 144.892 234.86H145.722C145.256 235.487 144.902 236.177 144.662 236.93C144.429 237.683 144.312 238.457 144.312 239.25C144.312 240.023 144.429 240.783 144.662 241.53C144.902 242.27 145.252 242.953 145.712 243.58H144.892C144.386 242.993 144.012 242.33 143.772 241.59C143.539 240.843 143.422 240.067 143.422 239.26ZM151.211 242V239.07L153.981 234.86H152.531L150.601 237.91H150.581L148.601 234.86H147.121L149.881 239.07V242H151.211ZM161.93 238.43C161.93 236.29 160.62 234.74 158.52 234.74C156.42 234.74 155.11 236.29 155.11 238.43C155.11 240.58 156.42 242.12 158.52 242.12C160.62 242.12 161.93 240.58 161.93 238.43ZM160.58 238.43C160.58 240.02 159.88 241.07 158.52 241.07C157.15 241.07 156.46 240.02 156.46 238.43C156.46 236.85 157.15 235.79 158.52 235.79C159.88 235.79 160.58 236.85 160.58 238.43ZM170.157 239.12V234.86H168.837V239.11C168.837 240.36 168.257 241.06 167.107 241.06C165.957 241.06 165.387 240.36 165.387 239.11V234.86H164.057V239.1C164.057 241.07 165.187 242.12 167.107 242.12C169.037 242.12 170.157 241.07 170.157 239.12ZM174.236 234.86H172.686V242H173.956V236.47H173.976L177.646 242H178.876V234.86H177.616V239.92H177.596L174.236 234.86ZM181.108 238.42C181.108 240.63 182.458 242.12 184.458 242.12C185.338 242.12 186.248 241.66 186.508 240.98L186.598 242H187.628V238.36H184.928V239.32H186.308V239.57C186.308 240.45 185.588 241.07 184.538 241.07C183.208 241.07 182.458 240.05 182.458 238.42C182.458 236.8 183.228 235.79 184.558 235.79C185.518 235.79 186.058 236.29 186.228 237.09H187.538C187.258 235.68 186.278 234.74 184.558 234.74C182.518 234.74 181.108 236.22 181.108 238.42ZM195.295 242V240.95H191.425V238.95H194.815V237.9H191.425V235.91H195.255V234.86H190.125V242H195.295ZM198.998 242V239.33H200.598L202.228 242H203.678L201.888 239.13C202.698 238.87 203.408 238.21 203.408 237.1C203.408 235.64 202.428 234.86 200.758 234.86H197.698V242H198.998ZM198.998 238.29V235.91H200.608C201.598 235.91 202.098 236.32 202.098 237.1C202.098 237.88 201.598 238.29 200.608 238.29H198.998ZM147.845 260H149.205L146.335 252.86H144.845L141.975 260H143.275L143.955 258.25H147.175L147.845 260ZM145.565 254.14H145.595L146.775 257.22H144.365L145.565 254.14ZM156.912 257.12V252.86H155.592V257.11C155.592 258.36 155.012 259.06 153.862 259.06C152.712 259.06 152.142 258.36 152.142 257.11V252.86H150.812V257.1C150.812 259.07 151.942 260.12 153.862 260.12C155.792 260.12 156.912 259.07 156.912 257.12ZM162.191 252.86H159.441V260H162.191C164.341 260 165.761 258.58 165.761 256.43C165.761 254.29 164.341 252.86 162.191 252.86ZM162.191 253.91C163.611 253.91 164.401 254.84 164.401 256.43C164.401 258.02 163.611 258.95 162.191 258.95H160.741V253.91H162.191ZM167.98 260H169.31V252.86H167.98V260ZM177.099 260V258.95H173.229V256.95H176.619V255.9H173.229V253.91H177.059V252.86H171.929V260H177.099ZM181.051 252.86H179.501V260H180.771V254.47H180.791L184.461 260H185.691V252.86H184.431V257.92H184.411L181.051 252.86ZM189.274 256.42C189.274 254.8 189.994 253.79 191.284 253.79C192.304 253.79 192.774 254.37 192.914 255.1H194.204C193.954 253.7 192.994 252.74 191.284 252.74C189.284 252.74 187.924 254.22 187.924 256.42C187.924 258.64 189.284 260.12 191.284 260.12C192.994 260.12 193.954 259.15 194.204 257.76H192.914C192.774 258.49 192.304 259.07 191.284 259.07C189.994 259.07 189.274 258.05 189.274 256.42ZM201.544 260V258.95H197.674V256.95H201.064V255.9H197.674V253.91H201.504V252.86H196.374V260H201.544ZM205.737 257.26C205.737 258.067 205.617 258.843 205.377 259.59C205.143 260.33 204.773 260.993 204.267 261.58H203.447C203.907 260.953 204.253 260.27 204.487 259.53C204.727 258.783 204.847 258.023 204.847 257.25C204.847 256.457 204.727 255.683 204.487 254.93C204.253 254.177 203.903 253.487 203.437 252.86H204.267C204.773 253.467 205.143 254.15 205.377 254.91C205.617 255.663 205.737 256.447 205.737 257.26Z" fill="#222222"/>
</g>
</g>
<g filter="url(#filter4_d)">
<g clip-path="url(#clip3)">
<g filter="url(#filter5_d)">
<rect x="236" y="107" width="95" height="216" fill="white"/>
</g>
<rect x="236" y="107" width="98" height="74" fill="#FF6400"/>
<path d="M270.813 128.432H267.513V137H270.813C273.393 137 275.097 135.296 275.097 132.716C275.097 130.148 273.393 128.432 270.813 128.432ZM270.813 129.692C272.517 129.692 273.465 130.808 273.465 132.716C273.465 134.624 272.517 135.74 270.813 135.74H269.073V129.692H270.813ZM278.959 137H284.971V135.74H280.555V128.432H278.959V137ZM288.953 137H290.549V133.568H294.425V132.308H290.549V129.692H294.869V128.432H288.953V137ZM259.231 155H261.151L257.275 150.152L260.815 146.432H258.991L255.031 150.74V146.432H253.435V155H255.031V152.516L256.219 151.268L259.231 155ZM271.648 151.544V146.432H270.064V151.532C270.064 153.032 269.368 153.872 267.988 153.872C266.608 153.872 265.924 153.032 265.924 151.532V146.432H264.328V151.52C264.328 153.884 265.684 155.144 267.988 155.144C270.304 155.144 271.648 153.884 271.648 151.544ZM275.883 155H281.895V153.74H277.479V146.432H275.883V155ZM287.062 155H288.646V147.692H291.73V146.432H283.99V147.692H287.062V155ZM302.766 151.544V146.432H301.182V151.532C301.182 153.032 300.486 153.872 299.106 153.872C297.726 153.872 297.042 153.032 297.042 151.532V146.432H295.446V151.52C295.446 153.884 296.802 155.144 299.106 155.144C301.422 155.144 302.766 153.884 302.766 151.544ZM308.561 155V151.796H310.481L312.437 155H314.177L312.029 151.556C313.001 151.244 313.853 150.452 313.853 149.12C313.853 147.368 312.677 146.432 310.673 146.432H307.001V155H308.561ZM308.561 150.548V147.692H310.493C311.681 147.692 312.281 148.184 312.281 149.12C312.281 150.056 311.681 150.548 310.493 150.548H308.561Z" fill="white"/>
<path d="M246.639 167.89C246.739 169.45 248.039 170.12 249.589 170.12C251.099 170.12 252.179 169.26 252.179 168.04C252.179 166.91 251.479 166.4 250.379 166.18L248.979 165.89C248.109 165.72 247.709 165.47 247.709 164.76C247.709 164.01 248.329 163.43 249.369 163.43C250.389 163.43 251.089 163.89 251.209 164.69H252.039C251.899 163.4 250.889 162.74 249.359 162.74C247.879 162.74 246.869 163.62 246.869 164.79C246.869 166.02 247.729 166.46 248.689 166.64L250.049 166.91C251.019 167.09 251.349 167.48 251.349 168.08C251.349 168.94 250.599 169.43 249.579 169.43C248.519 169.43 247.579 169.04 247.469 167.89H246.639ZM261.331 167.09V162.86H260.471V167.14C260.471 168.66 259.701 169.39 258.441 169.39C257.191 169.39 256.411 168.66 256.411 167.14V162.86H255.551V167.07C255.551 169.04 256.621 170.12 258.441 170.12C260.281 170.12 261.331 169.04 261.331 167.09ZM267.923 170C269.503 170 270.433 169.31 270.433 168C270.433 167.16 269.883 166.51 269.003 166.29C269.613 166.11 270.113 165.43 270.113 164.77C270.113 163.52 269.193 162.86 267.603 162.86H265.093V170H267.923ZM265.943 166.01V163.56H267.663C268.723 163.56 269.243 163.99 269.243 164.78C269.243 165.56 268.713 166.01 267.653 166.01H265.943ZM265.943 166.68H267.863C268.953 166.68 269.573 167.18 269.573 168C269.573 168.82 268.973 169.3 267.883 169.3H265.943V166.68ZM280.829 170C282.409 170 283.339 169.31 283.339 168C283.339 167.16 282.789 166.51 281.909 166.29C282.519 166.11 283.019 165.43 283.019 164.77C283.019 163.52 282.099 162.86 280.509 162.86H277.999V170H280.829ZM278.849 166.01V163.56H280.569C281.629 163.56 282.149 163.99 282.149 164.78C282.149 165.56 281.619 166.01 280.559 166.01H278.849ZM278.849 166.68H280.769C281.859 166.68 282.479 167.18 282.479 168C282.479 168.82 281.879 169.3 280.789 169.3H278.849V166.68ZM287.588 170V167.11H289.488L291.338 170H292.308L290.348 166.98C291.188 166.79 291.998 166.14 291.998 164.98C291.998 163.61 291.088 162.86 289.488 162.86H286.738V170H287.588ZM287.588 166.39V163.58H289.438C290.518 163.58 291.128 164.08 291.128 164.98C291.128 165.91 290.518 166.39 289.438 166.39H287.588ZM300.732 170H301.632L298.732 162.86H297.762L294.872 170H295.732L296.522 168.01H299.942L300.732 170ZM298.222 163.72H298.252L299.662 167.3H296.802L298.222 163.72ZM305.792 162.86H304.732V170H305.572V163.91H305.592L309.652 170H310.452V162.86H309.622V168.56H309.602L305.792 162.86ZM316.85 162.86H314.32V170H316.85C318.92 170 320.33 168.58 320.33 166.43C320.33 164.29 318.92 162.86 316.85 162.86ZM316.85 163.58C318.51 163.58 319.44 164.71 319.44 166.43C319.44 168.16 318.51 169.28 316.85 169.28H315.17V163.58H316.85Z" fill="white"/>
<path d="M244.717 202.42C244.717 200.8 245.437 199.79 246.727 199.79C247.747 199.79 248.217 200.37 248.357 201.1H249.647C249.397 199.7 248.437 198.74 246.727 198.74C244.727 198.74 243.367 200.22 243.367 202.42C243.367 204.64 244.727 206.12 246.727 206.12C248.437 206.12 249.397 205.15 249.647 203.76H248.357C248.217 204.49 247.747 205.07 246.727 205.07C245.437 205.07 244.717 204.05 244.717 202.42ZM257.828 203.12V198.86H256.508V203.11C256.508 204.36 255.928 205.06 254.778 205.06C253.628 205.06 253.058 204.36 253.058 203.11V198.86H251.728V203.1C251.728 205.07 252.858 206.12 254.778 206.12C256.708 206.12 257.828 205.07 257.828 203.12ZM260.357 206H265.367V204.95H261.687V198.86H260.357V206ZM268.672 206H269.992V199.91H272.562V198.86H266.112V199.91H268.672V206ZM280.759 203.12V198.86H279.439V203.11C279.439 204.36 278.859 205.06 277.709 205.06C276.559 205.06 275.989 204.36 275.989 203.11V198.86H274.659V203.1C274.659 205.07 275.789 206.12 277.709 206.12C279.639 206.12 280.759 205.07 280.759 203.12ZM284.589 206V203.33H286.189L287.819 206H289.269L287.479 203.13C288.289 202.87 288.999 202.21 288.999 201.1C288.999 199.64 288.019 198.86 286.349 198.86H283.289V206H284.589ZM284.589 202.29V199.91H286.199C287.189 199.91 287.689 200.32 287.689 201.1C287.689 201.88 287.189 202.29 286.199 202.29H284.589ZM296.548 206V204.95H292.678V202.95H296.068V201.9H292.678V199.91H296.508V198.86H291.378V206H296.548ZM307.22 206H308.58L305.71 198.86H304.22L301.35 206H302.65L303.33 204.25H306.55L307.22 206ZM304.94 200.14H304.97L306.15 203.22H303.74L304.94 200.14ZM312.061 198.86H310.511V206H311.781V200.47H311.801L315.471 206H316.701V198.86H315.441V203.92H315.421L312.061 198.86ZM322.074 198.86H319.324V206H322.074C324.224 206 325.644 204.58 325.644 202.43C325.644 200.29 324.224 198.86 322.074 198.86ZM322.074 199.91C323.494 199.91 324.284 200.84 324.284 202.43C324.284 204.02 323.494 204.95 322.074 204.95H320.624V199.91H322.074ZM259.723 221.84C259.853 223.41 261.163 224.12 262.863 224.12C264.443 224.12 265.633 223.26 265.633 221.96C265.633 220.81 264.933 220.23 263.763 220.01L262.383 219.74C261.613 219.59 261.243 219.4 261.243 218.81C261.243 218.18 261.783 217.73 262.643 217.73C263.533 217.73 264.153 218.12 264.243 218.82H265.493C265.353 217.48 264.333 216.74 262.633 216.74C261.073 216.74 259.953 217.62 259.953 218.89C259.953 220.14 260.803 220.64 261.853 220.83L263.163 221.07C264.023 221.23 264.333 221.52 264.333 222.04C264.333 222.76 263.673 223.14 262.823 223.14C261.933 223.14 261.093 222.81 261.003 221.84H259.723ZM274.312 220.43C274.312 218.29 273.002 216.74 270.902 216.74C268.802 216.74 267.492 218.29 267.492 220.43C267.492 222.58 268.802 224.12 270.902 224.12C273.002 224.12 274.312 222.58 274.312 220.43ZM272.962 220.43C272.962 222.02 272.262 223.07 270.902 223.07C269.532 223.07 268.842 222.02 268.842 220.43C268.842 218.85 269.532 217.79 270.902 217.79C272.262 217.79 272.962 218.85 272.962 220.43ZM277.538 220.42C277.538 218.8 278.258 217.79 279.548 217.79C280.568 217.79 281.038 218.37 281.178 219.1H282.468C282.218 217.7 281.258 216.74 279.548 216.74C277.548 216.74 276.188 218.22 276.188 220.42C276.188 222.64 277.548 224.12 279.548 224.12C281.258 224.12 282.218 223.15 282.468 221.76H281.178C281.038 222.49 280.568 223.07 279.548 223.07C278.258 223.07 277.538 222.05 277.538 220.42ZM284.638 224H285.968V216.86H284.638V224ZM293.757 224V222.95H289.887V220.95H293.277V219.9H289.887V217.91H293.717V216.86H288.587V224H293.757ZM298.29 224H299.61V217.91H302.18V216.86H295.73V217.91H298.29V224ZM307.747 224V221.07L310.517 216.86H309.067L307.137 219.91H307.117L305.137 216.86H303.657L306.417 221.07V224H307.747ZM246.599 239.26C246.599 238.447 246.716 237.663 246.949 236.91C247.189 236.15 247.563 235.467 248.069 234.86H248.899C248.433 235.487 248.079 236.177 247.839 236.93C247.606 237.683 247.489 238.457 247.489 239.25C247.489 240.023 247.606 240.783 247.839 241.53C248.079 242.27 248.429 242.953 248.889 243.58H248.069C247.563 242.993 247.189 242.33 246.949 241.59C246.716 240.843 246.599 240.067 246.599 239.26ZM255.247 242L257.277 236.39H257.297V242H258.567V234.86H256.747L254.827 240.23H254.807L252.887 234.86H251.007V242H252.227V236.39H252.247L254.287 242H255.247ZM261.197 242H262.527V234.86H261.197V242ZM267.896 234.86H265.146V242H267.896C270.046 242 271.466 240.58 271.466 238.43C271.466 236.29 270.046 234.86 267.896 234.86ZM267.896 235.91C269.316 235.91 270.106 236.84 270.106 238.43C270.106 240.02 269.316 240.95 267.896 240.95H266.446V235.91H267.896ZM276.435 234.86H273.685V242H276.435C278.585 242 280.005 240.58 280.005 238.43C280.005 236.29 278.585 234.86 276.435 234.86ZM276.435 235.91C277.855 235.91 278.645 236.84 278.645 238.43C278.645 240.02 277.855 240.95 276.435 240.95H274.985V235.91H276.435ZM282.224 242H287.234V240.95H283.554V234.86H282.224V242ZM294.722 242V240.95H290.852V238.95H294.242V237.9H290.852V235.91H294.682V234.86H289.552V242H294.722ZM305.394 242H306.754L303.884 234.86H302.394L299.524 242H300.824L301.504 240.25H304.724L305.394 242ZM303.114 236.14H303.144L304.324 239.22H301.914L303.114 236.14ZM308.022 238.42C308.022 240.63 309.372 242.12 311.372 242.12C312.252 242.12 313.162 241.66 313.422 240.98L313.512 242H314.542V238.36H311.842V239.32H313.222V239.57C313.222 240.45 312.502 241.07 311.452 241.07C310.122 241.07 309.372 240.05 309.372 238.42C309.372 236.8 310.142 235.79 311.472 235.79C312.432 235.79 312.972 236.29 313.142 237.09H314.452C314.172 235.68 313.192 234.74 311.472 234.74C309.432 234.74 308.022 236.22 308.022 238.42ZM322.209 242V240.95H318.339V238.95H321.729V237.9H318.339V235.91H322.169V234.86H317.039V242H322.209ZM258.845 260H260.205L257.335 252.86H255.845L252.975 260H254.275L254.955 258.25H258.175L258.845 260ZM256.565 254.14H256.595L257.775 257.22H255.365L256.565 254.14ZM267.912 257.12V252.86H266.592V257.11C266.592 258.36 266.012 259.06 264.862 259.06C263.712 259.06 263.142 258.36 263.142 257.11V252.86H261.812V257.1C261.812 259.07 262.942 260.12 264.862 260.12C266.792 260.12 267.912 259.07 267.912 257.12ZM273.191 252.86H270.441V260H273.191C275.341 260 276.761 258.58 276.761 256.43C276.761 254.29 275.341 252.86 273.191 252.86ZM273.191 253.91C274.611 253.91 275.401 254.84 275.401 256.43C275.401 258.02 274.611 258.95 273.191 258.95H271.741V253.91H273.191ZM278.98 260H280.31V252.86H278.98V260ZM288.099 260V258.95H284.229V256.95H287.619V255.9H284.229V253.91H288.059V252.86H282.929V260H288.099ZM292.051 252.86H290.501V260H291.771V254.47H291.791L295.461 260H296.691V252.86H295.431V257.92H295.411L292.051 252.86ZM300.274 256.42C300.274 254.8 300.994 253.79 302.284 253.79C303.304 253.79 303.774 254.37 303.914 255.1H305.204C304.954 253.7 303.994 252.74 302.284 252.74C300.284 252.74 298.924 254.22 298.924 256.42C298.924 258.64 300.284 260.12 302.284 260.12C303.994 260.12 304.954 259.15 305.204 257.76H303.914C303.774 258.49 303.304 259.07 302.284 259.07C300.994 259.07 300.274 258.05 300.274 256.42ZM312.544 260V258.95H308.674V256.95H312.064V255.9H308.674V253.91H312.504V252.86H307.374V260H312.544ZM316.737 257.26C316.737 258.067 316.617 258.843 316.377 259.59C316.143 260.33 315.773 260.993 315.267 261.58H314.447C314.907 260.953 315.253 260.27 315.487 259.53C315.727 258.783 315.847 258.023 315.847 257.25C315.847 256.457 315.727 255.683 315.487 254.93C315.253 254.177 314.903 253.487 314.437 252.86H315.267C315.773 253.467 316.143 254.15 316.377 254.91C316.617 255.663 316.737 256.447 316.737 257.26Z" fill="#222222"/>
</g>
</g>
<path d="M16.36 400.86H14.81V408H16.08V402.47H16.1L19.77 408H21V400.86H19.74V405.92H19.72L16.36 400.86ZM29.7925 408V406.95H25.9225V404.95H29.3125V403.9H25.9225V401.91H29.7525V400.86H24.6225V408H29.7925ZM38.7948 408H40.2548L42.2248 400.86H40.9248L39.5048 406.4H39.4848L38.0948 400.86H36.7548L35.3648 406.4H35.3448L33.9148 400.86H32.5548L34.5248 408H35.9748L37.3748 402.49H37.3948L38.7948 408ZM44.6857 405.84C44.8157 407.41 46.1257 408.12 47.8257 408.12C49.4057 408.12 50.5957 407.26 50.5957 405.96C50.5957 404.81 49.8957 404.23 48.7257 404.01L47.3457 403.74C46.5757 403.59 46.2057 403.4 46.2057 402.81C46.2057 402.18 46.7457 401.73 47.6057 401.73C48.4957 401.73 49.1157 402.12 49.2057 402.82H50.4557C50.3157 401.48 49.2957 400.74 47.5957 400.74C46.0357 400.74 44.9157 401.62 44.9157 402.89C44.9157 404.14 45.7657 404.64 46.8157 404.83L48.1257 405.07C48.9857 405.23 49.2957 405.52 49.2957 406.04C49.2957 406.76 48.6357 407.14 47.7857 407.14C46.8957 407.14 46.0557 406.81 45.9657 405.84H44.6857Z" fill="#464646"/>
<path d="M68.696 26.7083H64.296V38.1323H68.696C72.136 38.1323 74.408 35.8603 74.408 32.4203C74.408 28.9963 72.136 26.7083 68.696 26.7083ZM68.696 28.3883C70.968 28.3883 72.232 29.8763 72.232 32.4203C72.232 34.9643 70.968 36.4523 68.696 36.4523H66.376V28.3883H68.696ZM87.0305 38.1323V36.4523H80.8385V33.2523H86.2625V31.5723H80.8385V28.3883H86.9665V26.7083H78.7585V38.1323H87.0305ZM101.29 33.5243V26.7083H99.1781V33.5083C99.1781 35.5083 98.2501 36.6283 96.4101 36.6283C94.5701 36.6283 93.6581 35.5083 93.6581 33.5083V26.7083H91.5301V33.4923C91.5301 36.6443 93.3381 38.3243 96.4101 38.3243C99.4981 38.3243 101.29 36.6443 101.29 33.5243ZM109.545 38.1323H111.657V28.3883H115.769V26.7083H105.449V28.3883H109.545V38.1323ZM118.972 34.6763C119.18 37.1883 121.276 38.3243 123.996 38.3243C126.524 38.3243 128.428 36.9483 128.428 34.8683C128.428 33.0283 127.308 32.1003 125.436 31.7483L123.228 31.3163C121.996 31.0763 121.404 30.7723 121.404 29.8283C121.404 28.8203 122.268 28.1003 123.644 28.1003C125.068 28.1003 126.06 28.7243 126.204 29.8443H128.204C127.98 27.7003 126.348 26.5163 123.628 26.5163C121.132 26.5163 119.34 27.9243 119.34 29.9563C119.34 31.9563 120.7 32.7563 122.38 33.0603L124.476 33.4443C125.852 33.7003 126.348 34.1643 126.348 34.9963C126.348 36.1483 125.292 36.7563 123.932 36.7563C122.508 36.7563 121.164 36.2283 121.02 34.6763H118.972ZM134.363 32.4043C134.363 29.8123 135.515 28.1963 137.579 28.1963C139.211 28.1963 139.963 29.1243 140.187 30.2923H142.251C141.851 28.0523 140.315 26.5163 137.579 26.5163C134.379 26.5163 132.203 28.8843 132.203 32.4043C132.203 35.9563 134.379 38.3243 137.579 38.3243C140.315 38.3243 141.851 36.7723 142.251 34.5483H140.187C139.963 35.7163 139.211 36.6443 137.579 36.6443C135.515 36.6443 134.363 35.0123 134.363 32.4043ZM146.524 38.1323H148.652V33.1723H154.508V38.1323H156.62V26.7083H154.508V31.5083H148.652V26.7083H146.524V38.1323ZM161.612 38.1323H169.628V36.4523H163.74V26.7083H161.612V38.1323ZM182.409 38.1323H184.585L179.993 26.7083H177.609L173.017 38.1323H175.097L176.185 35.3323H181.337L182.409 38.1323ZM178.761 28.7563H178.809L180.697 33.6843H176.841L178.761 28.7563ZM190.954 26.7083H188.474V38.1323H190.506V29.2843H190.538L196.41 38.1323H198.378V26.7083H196.362V34.8043H196.33L190.954 26.7083ZM207.774 26.7083H203.374V38.1323H207.774C211.214 38.1323 213.486 35.8603 213.486 32.4203C213.486 28.9963 211.214 26.7083 207.774 26.7083ZM207.774 28.3883C210.046 28.3883 211.31 29.8763 211.31 32.4203C211.31 34.9643 210.046 36.4523 207.774 36.4523H205.454V28.3883H207.774ZM217.837 38.1323H219.965V33.5563H225.133V31.8763H219.965V28.3883H225.725V26.7083H217.837V38.1323ZM239.931 33.5243V26.7083H237.819V33.5083C237.819 35.5083 236.891 36.6283 235.051 36.6283C233.211 36.6283 232.299 35.5083 232.299 33.5083V26.7083H230.171V33.4923C230.171 36.6443 231.979 38.3243 235.051 38.3243C238.139 38.3243 239.931 36.6443 239.931 33.5243ZM247.257 26.7083H244.777V38.1323H246.809V29.2843H246.841L252.713 38.1323H254.681V26.7083H252.665V34.8043H252.633L247.257 26.7083ZM267.405 38.1323H269.965L264.797 31.6683L269.517 26.7083H267.085L261.805 32.4523V26.7083H259.677V38.1323H261.805V34.8203L263.389 33.1563L267.405 38.1323Z" fill="#222222"/>
<path d="M130.05 57.6985L132.08 52.0885H132.1V57.6985H133.37V50.5585H131.55L129.63 55.9285H129.61L127.69 50.5585H125.81V57.6985H127.03V52.0885H127.05L129.09 57.6985H130.05ZM142.169 57.6985H143.529L140.659 50.5585H139.169L136.299 57.6985H137.599L138.279 55.9485H141.499L142.169 57.6985ZM139.889 51.8385H139.919L141.099 54.9185H138.689L139.889 51.8385ZM145.971 55.5385C146.101 57.1085 147.411 57.8185 149.111 57.8185C150.691 57.8185 151.881 56.9585 151.881 55.6585C151.881 54.5085 151.181 53.9285 150.011 53.7085L148.631 53.4385C147.861 53.2885 147.491 53.0985 147.491 52.5085C147.491 51.8785 148.031 51.4285 148.891 51.4285C149.781 51.4285 150.401 51.8185 150.491 52.5185H151.741C151.601 51.1785 150.581 50.4385 148.881 50.4385C147.321 50.4385 146.201 51.3185 146.201 52.5885C146.201 53.8385 147.051 54.3385 148.101 54.5285L149.411 54.7685C150.271 54.9285 150.581 55.2185 150.581 55.7385C150.581 56.4585 149.921 56.8385 149.071 56.8385C148.181 56.8385 147.341 56.5085 147.251 55.5385H145.971ZM157.026 57.6985H158.346V51.6085H160.916V50.5585H154.466V51.6085H157.026V57.6985ZM169.273 57.6985V56.6485H165.403V54.6485H168.793V53.5985H165.403V51.6085H169.233V50.5585H164.103V57.6985H169.273ZM173.975 57.6985V55.0285H175.575L177.205 57.6985H178.655L176.865 54.8285C177.675 54.5685 178.385 53.9085 178.385 52.7985C178.385 51.3385 177.405 50.5585 175.735 50.5585H172.675V57.6985H173.975ZM173.975 53.9885V51.6085H175.585C176.575 51.6085 177.075 52.0185 177.075 52.7985C177.075 53.5785 176.575 53.9885 175.585 53.9885H173.975ZM188.995 57.6985C190.645 57.6985 191.605 57.0085 191.605 55.6685C191.605 54.8385 191.015 54.2085 190.235 53.9985C190.815 53.8285 191.315 53.1385 191.315 52.5085C191.315 51.2285 190.405 50.5585 188.735 50.5585H185.865V57.6985H188.995ZM187.165 53.5785V51.5385H188.735C189.605 51.5385 190.035 51.9085 190.035 52.5585C190.035 53.1785 189.615 53.5785 188.725 53.5785H187.165ZM187.165 54.5285H188.885C189.805 54.5285 190.295 54.9485 190.295 55.6185C190.295 56.3085 189.815 56.7185 188.895 56.7185H187.165V54.5285ZM196.128 57.6985V55.0285H197.728L199.358 57.6985H200.808L199.018 54.8285C199.828 54.5685 200.538 53.9085 200.538 52.7985C200.538 51.3385 199.558 50.5585 197.888 50.5585H194.828V57.6985H196.128ZM196.128 53.9885V51.6085H197.738C198.728 51.6085 199.228 52.0185 199.228 52.7985C199.228 53.5785 198.728 53.9885 197.738 53.9885H196.128ZM209.087 57.6985H210.447L207.577 50.5585H206.087L203.217 57.6985H204.517L205.197 55.9485H208.417L209.087 57.6985ZM206.807 51.8385H206.837L208.017 54.9185H205.607L206.807 51.8385ZM214.928 50.5585H213.378V57.6985H214.648V52.1685H214.668L218.338 57.6985H219.568V50.5585H218.308V55.6185H218.288L214.928 50.5585ZM225.941 50.5585H223.191V57.6985H225.941C228.091 57.6985 229.511 56.2785 229.511 54.1285C229.511 51.9885 228.091 50.5585 225.941 50.5585ZM225.941 51.6085C227.361 51.6085 228.151 52.5385 228.151 54.1285C228.151 55.7185 227.361 56.6485 225.941 56.6485H224.491V51.6085H225.941Z" fill="#222222"/>
<path d="M103.77 448.42C103.77 446.8 104.49 445.79 105.78 445.79C106.8 445.79 107.27 446.37 107.41 447.1H108.7C108.45 445.7 107.49 444.74 105.78 444.74C103.78 444.74 102.42 446.22 102.42 448.42C102.42 450.64 103.78 452.12 105.78 452.12C107.49 452.12 108.45 451.15 108.7 449.76H107.41C107.27 450.49 106.8 451.07 105.78 451.07C104.49 451.07 103.77 450.05 103.77 448.42ZM118.301 448.43C118.301 446.29 116.991 444.74 114.891 444.74C112.791 444.74 111.481 446.29 111.481 448.43C111.481 450.58 112.791 452.12 114.891 452.12C116.991 452.12 118.301 450.58 118.301 448.43ZM116.951 448.43C116.951 450.02 116.251 451.07 114.891 451.07C113.521 451.07 112.831 450.02 112.831 448.43C112.831 446.85 113.521 445.79 114.891 445.79C116.251 445.79 116.951 446.85 116.951 448.43ZM123.067 444.86H121.517V452H122.787V446.47H122.807L126.477 452H127.707V444.86H126.447V449.92H126.427L123.067 444.86ZM133.46 452H134.78V445.91H137.35V444.86H130.9V445.91H133.46V452ZM145.707 452V450.95H141.837V448.95H145.227V447.9H141.837V445.91H145.667V444.86H140.537V452H145.707ZM150.659 444.86H149.109V452H150.379V446.47H150.399L154.069 452H155.299V444.86H154.039V449.92H154.019L150.659 444.86ZM161.051 452H162.371V445.91H164.941V444.86H158.491V445.91H161.051V452ZM171.758 449.84C171.888 451.41 173.198 452.12 174.898 452.12C176.478 452.12 177.668 451.26 177.668 449.96C177.668 448.81 176.968 448.23 175.798 448.01L174.418 447.74C173.648 447.59 173.278 447.4 173.278 446.81C173.278 446.18 173.818 445.73 174.678 445.73C175.568 445.73 176.188 446.12 176.278 446.82H177.528C177.388 445.48 176.368 444.74 174.668 444.74C173.108 444.74 171.988 445.62 171.988 446.89C171.988 448.14 172.838 448.64 173.888 448.83L175.198 449.07C176.058 449.23 176.368 449.52 176.368 450.04C176.368 450.76 175.708 451.14 174.858 451.14C173.968 451.14 173.128 450.81 173.038 449.84H171.758ZM183.858 449.37C185.538 449.37 186.518 448.61 186.518 447.12C186.518 445.63 185.538 444.86 183.848 444.86H180.898V452H182.198V449.37H183.858ZM182.198 448.33V445.91H183.738C184.718 445.91 185.208 446.3 185.208 447.12C185.208 447.93 184.718 448.33 183.738 448.33H182.198ZM194.816 452V450.95H190.946V448.95H194.336V447.9H190.946V445.91H194.776V444.86H189.646V452H194.816ZM199.178 448.42C199.178 446.8 199.898 445.79 201.188 445.79C202.208 445.79 202.678 446.37 202.818 447.1H204.108C203.858 445.7 202.898 444.74 201.188 444.74C199.188 444.74 197.828 446.22 197.828 448.42C197.828 450.64 199.188 452.12 201.188 452.12C202.898 452.12 203.858 451.15 204.108 449.76H202.818C202.678 450.49 202.208 451.07 201.188 451.07C199.898 451.07 199.178 450.05 199.178 448.42ZM209.311 452H210.631V445.91H213.201V444.86H206.751V445.91H209.311V452ZM217.688 452V449.33H219.288L220.918 452H222.368L220.578 449.13C221.388 448.87 222.098 448.21 222.098 447.1C222.098 445.64 221.118 444.86 219.448 444.86H216.388V452H217.688ZM217.688 448.29V445.91H219.298C220.288 445.91 220.788 446.32 220.788 447.1C220.788 447.88 220.288 448.29 219.298 448.29H217.688ZM231.488 449.12V444.86H230.168V449.11C230.168 450.36 229.588 451.06 228.438 451.06C227.288 451.06 226.718 450.36 226.718 449.11V444.86H225.388V449.1C225.388 451.07 226.518 452.12 228.438 452.12C230.368 452.12 231.488 451.07 231.488 449.12ZM239.257 452L241.287 446.39H241.307V452H242.577V444.86H240.757L238.837 450.23H238.817L236.897 444.86H235.017V452H236.237V446.39H236.257L238.297 452H239.257Z" fill="#464646"/>
</g>
<defs>
<filter id="filter0_d" x="12.2206" y="107" width="98.5588" height="182.559" filterUnits="userSpaceOnUse" color-interpolation-filters="sRGB">
<feFlood flood-opacity="0" result="BackgroundImageFix"/>
<feColorMatrix in="SourceAlpha" type="matrix" values="0 0 0 0 0 0 0 0 0 0 0 0 0 0 0 0 0 0 127 0"/>
<feOffset dy="1.77941"/>
<feGaussianBlur stdDeviation="0.889706"/>
<feColorMatrix type="matrix" values="0 0 0 0 0 0 0 0 0 0 0 0 0 0 0 0 0 0 0.13 0"/>
<feBlend mode="normal" in2="BackgroundImageFix" result="effect1_dropShadow"/>
<feBlend mode="normal" in="SourceGraphic" in2="effect1_dropShadow" result="shape"/>
</filter>
<filter id="filter1_d" x="12.2206" y="107" width="98.5588" height="219.559" filterUnits="userSpaceOnUse" color-interpolation-filters="sRGB">
<feFlood flood-opacity="0" result="BackgroundImageFix"/>
<feColorMatrix in="SourceAlpha" type="matrix" values="0 0 0 0 0 0 0 0 0 0 0 0 0 0 0 0 0 0 127 0"/>
<feOffset dy="1.77941"/>
<feGaussianBlur stdDeviation="0.889706"/>
<feColorMatrix type="matrix" values="0 0 0 0 0 0 0 0 0 0 0 0 0 0 0 0 0 0 0.13 0"/>
<feBlend mode="normal" in2="BackgroundImageFix" result="effect1_dropShadow"/>
<feBlend mode="normal" in="SourceGraphic" in2="effect1_dropShadow" result="shape"/>
</filter>
<filter id="filter2_d" x="123.221" y="107" width="98.5588" height="182.559" filterUnits="userSpaceOnUse" color-interpolation-filters="sRGB">
<feFlood flood-opacity="0" result="BackgroundImageFix"/>
<feColorMatrix in="SourceAlpha" type="matrix" values="0 0 0 0 0 0 0 0 0 0 0 0 0 0 0 0 0 0 127 0"/>
<feOffset dy="1.77941"/>
<feGaussianBlur stdDeviation="0.889706"/>
<feColorMatrix type="matrix" values="0 0 0 0 0 0 0 0 0 0 0 0 0 0 0 0 0 0 0.13 0"/>
<feBlend mode="normal" in2="BackgroundImageFix" result="effect1_dropShadow"/>
<feBlend mode="normal" in="SourceGraphic" in2="effect1_dropShadow" result="shape"/>
</filter>
<filter id="filter3_d" x="123.221" y="107" width="98.5588" height="219.559" filterUnits="userSpaceOnUse" color-interpolation-filters="sRGB">
<feFlood flood-opacity="0" result="BackgroundImageFix"/>
<feColorMatrix in="SourceAlpha" type="matrix" values="0 0 0 0 0 0 0 0 0 0 0 0 0 0 0 0 0 0 127 0"/>
<feOffset dy="1.77941"/>
<feGaussianBlur stdDeviation="0.889706"/>
<feColorMatrix type="matrix" values="0 0 0 0 0 0 0 0 0 0 0 0 0 0 0 0 0 0 0.13 0"/>
<feBlend mode="normal" in2="BackgroundImageFix" result="effect1_dropShadow"/>
<feBlend mode="normal" in="SourceGraphic" in2="effect1_dropShadow" result="shape"/>
</filter>
<filter id="filter4_d" x="234.221" y="107" width="98.5588" height="182.559" filterUnits="userSpaceOnUse" color-interpolation-filters="sRGB">
<feFlood flood-opacity="0" result="BackgroundImageFix"/>
<feColorMatrix in="SourceAlpha" type="matrix" values="0 0 0 0 0 0 0 0 0 0 0 0 0 0 0 0 0 0 127 0"/>
<feOffset dy="1.77941"/>
<feGaussianBlur stdDeviation="0.889706"/>
<feColorMatrix type="matrix" values="0 0 0 0 0 0 0 0 0 0 0 0 0 0 0 0 0 0 0.13 0"/>
<feBlend mode="normal" in2="BackgroundImageFix" result="effect1_dropShadow"/>
<feBlend mode="normal" in="SourceGraphic" in2="effect1_dropShadow" result="shape"/>
</filter>
<filter id="filter5_d" x="234.221" y="107" width="98.5588" height="219.559" filterUnits="userSpaceOnUse" color-interpolation-filters="sRGB">
<feFlood flood-opacity="0" result="BackgroundImageFix"/>
<feColorMatrix in="SourceAlpha" type="matrix" values="0 0 0 0 0 0 0 0 0 0 0 0 0 0 0 0 0 0 127 0"/>
<feOffset dy="1.77941"/>
<feGaussianBlur stdDeviation="0.889706"/>
<feColorMatrix type="matrix" values="0 0 0 0 0 0 0 0 0 0 0 0 0 0 0 0 0 0 0.13 0"/>
<feBlend mode="normal" in2="BackgroundImageFix" result="effect1_dropShadow"/>
<feBlend mode="normal" in="SourceGraphic" in2="effect1_dropShadow" result="shape"/>
</filter>
<linearGradient id="paint0_linear" x1="14" y1="362.291" x2="328.295" y2="364.322" gradientUnits="userSpaceOnUse">
<stop stop-color="#198AFF"/>
<stop offset="1" stop-color="#198AFF" stop-opacity="0"/>
</linearGradient>
<linearGradient id="paint1_linear" x1="330" y1="318" x2="14" y2="318" gradientUnits="userSpaceOnUse">
<stop stop-color="#FF6400"/>
<stop offset="1" stop-color="#FF0000" stop-opacity="0"/>
</linearGradient>
<linearGradient id="paint2_linear" x1="62.9659" y1="108.273" x2="63.0223" y2="181" gradientUnits="userSpaceOnUse">
<stop stop-color="#198AFF"/>
<stop offset="1" stop-color="#198AFF"/>
</linearGradient>
<clipPath id="clip0">
<rect width="343" height="456" fill="white"/>
</clipPath>
<clipPath id="clip1">
<rect x="14" y="107" width="95" height="179" fill="white"/>
</clipPath>
<clipPath id="clip2">
<rect x="125" y="107" width="95" height="179" fill="white"/>
</clipPath>
<clipPath id="clip3">
<rect x="236" y="107" width="95" height="179" fill="white"/>
</clipPath>
</defs>
</svg>
