<svg viewBox="0 0 285.795 54.5" xmlns="http://www.w3.org/2000/svg"><path d="M1.049 17.968a3.081 3.081 0 011.3-2.672 6.037 6.037 0 013.568-.928h1.92v-.48a2.2 2.2 0 00-.644-1.756 2.487 2.487 0 00-1.69-.557 2.341 2.341 0 00-2.4 1.79l-1.615-.371a3.281 3.281 0 011.343-2.2A4.375 4.375 0 015.5 9.961a4.157 4.157 0 012.989 1.08 4 4 0 011.135 3.044v7.048H8.205l-.327-1.593a3.8 3.8 0 01-3.426 1.767 3.577 3.577 0 01-2.443-.839 3.144 3.144 0 01-.96-2.5zm6.327.23a3.746 3.746 0 00.458-1.932v-.348H5.979a4.083 4.083 0 00-2.291.523 1.717 1.717 0 00-.763 1.506 1.675 1.675 0 00.491 1.287 1.916 1.916 0 001.363.458 3.114 3.114 0 001.44-.359A2.881 2.881 0 007.376 18.2zm7.312 1.602v1.332h-1.81V5.684h1.81v5.826a4.034 4.034 0 011.4-1.124 3.989 3.989 0 011.812-.425 4.784 4.784 0 012.684.731 4.535 4.535 0 011.68 2.018 7.185 7.185 0 01.568 2.924 7.177 7.177 0 01-.568 2.923 4.538 4.538 0 01-1.68 2.019 4.784 4.784 0 01-2.684.731 4.179 4.179 0 01-1.909-.458 3.31 3.31 0 01-1.303-1.049zm6.263-4.167a4.687 4.687 0 00-.862-2.935 2.822 2.822 0 00-2.368-1.124 2.8 2.8 0 00-2.345 1.126 4.687 4.687 0 00-.862 2.935 4.736 4.736 0 00.851 2.935 2.789 2.789 0 002.356 1.123 2.821 2.821 0 002.368-1.123 4.689 4.689 0 00.862-2.936zm4.684 2.816a7.144 7.144 0 010-5.63 4.934 4.934 0 011.713-2.073 4.707 4.707 0 012.752-.785 4.481 4.481 0 014.6 3.076l-1.615.633a3.021 3.021 0 00-2.99-2.1 2.711 2.711 0 00-2.356 1.135 4.931 4.931 0 00-.808 2.924 4.942 4.942 0 00.808 2.913 2.7 2.7 0 002.361 1.15 3 3 0 001.812-.523 3.742 3.742 0 001.175-1.569l1.615.633a4.687 4.687 0 01-1.757 2.3 5.039 5.039 0 01-2.848.774 4.7 4.7 0 01-2.749-.786 4.925 4.925 0 01-1.713-2.072zm11.688.108a7.16 7.16 0 01-.567-2.923 7.168 7.168 0 01.567-2.924 4.589 4.589 0 011.658-2.018 4.639 4.639 0 012.64-.731 4.267 4.267 0 011.9.415 3.814 3.814 0 011.4 1.134V5.684h1.79v15.449h-1.79v-1.441a3.374 3.374 0 01-1.331 1.135 4.172 4.172 0 01-1.964.48 4.639 4.639 0 01-2.64-.731 4.591 4.591 0 01-1.663-2.019zm7.746-2.923a4.728 4.728 0 00-.852-2.935 2.789 2.789 0 00-2.356-1.124 2.819 2.819 0 00-2.367 1.125 4.694 4.694 0 00-.862 2.935 4.7 4.7 0 00.862 2.935 3.054 3.054 0 004.723.011 4.72 4.72 0 00.852-2.947zm5.099 2.847a7.055 7.055 0 010-5.694 4.909 4.909 0 011.732-2.063 4.7 4.7 0 012.684-.763 4.817 4.817 0 012.618.7 4.608 4.608 0 011.7 1.877 5.766 5.766 0 01.589 2.618v.764h-8.047a4.34 4.34 0 00.862 2.717 2.8 2.8 0 002.325 1.057 3.171 3.171 0 001.854-.5 4.26 4.26 0 001.287-1.636l1.528.655a5.734 5.734 0 01-1.91 2.356 4.978 4.978 0 01-2.8.742 4.7 4.7 0 01-2.684-.763 4.915 4.915 0 01-1.738-2.067zm6.513-6.153a2.9 2.9 0 00-2.094-.753 2.769 2.769 0 00-2.008.786 3.722 3.722 0 00-1.047 2.007h6.131a3.448 3.448 0 00-.982-2.04zm4.281-.578v-1.615H62.6V9.48a3.92 3.92 0 01.927-2.858 3.5 3.5 0 012.608-.938 3.428 3.428 0 011.549.327l-.395 1.549a2.773 2.773 0 00-1.178-.26 1.639 1.639 0 00-1.276.491 2.118 2.118 0 00-.448 1.472v.873h2.553v1.614h-2.553v9.383H62.6V11.75zm6.919 10.386a2.875 2.875 0 01.294-1.309 2.73 2.73 0 01.775-.96 2.221 2.221 0 01-.786-1.768 2.111 2.111 0 01.371-1.232 2.552 2.552 0 01.982-.84 3.621 3.621 0 01-.807-2.379 3.633 3.633 0 01.512-1.93 3.493 3.493 0 011.386-1.3 4.213 4.213 0 013.905.044l1.964-1.114.786 1.354-1.549.829a3.612 3.612 0 01.654 2.116 3.74 3.74 0 01-.5 1.953 3.345 3.345 0 01-1.375 1.287 4.435 4.435 0 01-3.862.011 1.175 1.175 0 00-.764 1.091.837.837 0 00.349.742 1.547 1.547 0 00.895.24h2.64a3.976 3.976 0 012.542.753 2.681 2.681 0 01.949 2.237 3.283 3.283 0 01-1.309 2.858 5.629 5.629 0 01-3.36.939 5.553 5.553 0 01-3.415-.96 3.144 3.144 0 01-1.277-2.662zm7.571 0a1.46 1.46 0 00-.513-1.254 2.475 2.475 0 00-1.495-.382h-1.985a9.107 9.107 0 01-1.135-.066 2.135 2.135 0 00-.7 1.659 1.8 1.8 0 00.753 1.549 3.706 3.706 0 002.193.545 3.526 3.526 0 002.127-.556 1.766 1.766 0 00.755-1.495zm-.829-8.488a2.119 2.119 0 00-.589-1.582 2.033 2.033 0 00-1.484-.578 2.068 2.068 0 00-1.495.578 2.1 2.1 0 00-.6 1.582 2.1 2.1 0 00.6 1.582 2.068 2.068 0 001.495.578 2.033 2.033 0 001.484-.578 2.119 2.119 0 00.589-1.582zm6.81-7.964v6.655a4.062 4.062 0 011.572-1.756 4.171 4.171 0 012.2-.622 3.4 3.4 0 012.519.9 3.523 3.523 0 01.906 2.607v7.66h-1.785V13.91a2.556 2.556 0 00-.524-1.734 1.942 1.942 0 00-1.549-.6 2.688 2.688 0 00-1.658.579 3.926 3.926 0 00-1.222 1.69 6.867 6.867 0 00-.459 2.619v4.67h-1.81V5.684zm10.259 1.287a1.254 1.254 0 01.382-.938A1.283 1.283 0 0193 5.662a1.31 1.31 0 01.949.371 1.254 1.254 0 01.382.938 1.258 1.258 0 01-.382.939 1.31 1.31 0 01-.949.371 1.3 1.3 0 01-1.31-1.31zm2.226 3.164v11h-1.811v-11zM96.941 23.3a2.478 2.478 0 00.47-1.668v-11.5h1.81v11.524a4.171 4.171 0 01-.839 2.793 4.247 4.247 0 01-2.5 1.31l-.437-1.637a3 3 0 001.496-.822zM97 6.971a1.254 1.254 0 01.382-.938 1.282 1.282 0 01.927-.371 1.313 1.313 0 01.95.371 1.253 1.253 0 01.381.938 1.257 1.257 0 01-.381.939 1.313 1.313 0 01-.95.371A1.3 1.3 0 0197 6.971zm7.524-1.287v9.143l4.255-4.692h2.248l-4.647 5.041 5 5.957h-2.247l-4.605-5.586v5.586h-1.81V5.684zm10.738 0v15.449h-1.81V5.684zm5.304 4.451v2.117a4.783 4.783 0 011.419-1.68 3.282 3.282 0 011.964-.611 2.857 2.857 0 013.011 2.378 4.81 4.81 0 011.506-1.724 3.433 3.433 0 012.006-.654q3.165 0 3.164 3.535v7.637h-1.789v-7.354a2.719 2.719 0 00-.414-1.669 1.608 1.608 0 00-1.353-.535 2.238 2.238 0 00-1.506.59 4.022 4.022 0 00-1.08 1.7 7.674 7.674 0 00-.4 2.618v4.648H125.3v-7.352a2.781 2.781 0 00-.4-1.669 1.6 1.6 0 00-1.364-.535 2.238 2.238 0 00-1.506.59 3.94 3.94 0 00-1.069 1.723 8.219 8.219 0 00-.393 2.684v4.561h-1.81v-11zm18.357 0v2.117a4.647 4.647 0 011.56-1.669 3.793 3.793 0 012.084-.622 3.334 3.334 0 012.466.916 3.514 3.514 0 01.916 2.6v7.66h-1.789v-7.27a2.508 2.508 0 00-.513-1.713 1.919 1.919 0 00-1.516-.579 2.527 2.527 0 00-1.626.59 3.921 3.921 0 00-1.157 1.69 7.184 7.184 0 00-.425 2.586v4.692h-1.811v-11zm10.531 8.314a6.474 6.474 0 010-5.63 5.029 5.029 0 014.658-2.858 5.028 5.028 0 012.793.774 5.113 5.113 0 011.844 2.084 6.474 6.474 0 010 5.63 5.119 5.119 0 01-1.844 2.084 5.036 5.036 0 01-2.793.774 5.029 5.029 0 01-4.658-2.858zm7.67-.818a5.283 5.283 0 000-3.994 3.519 3.519 0 00-1.168-1.5 3.282 3.282 0 00-3.688 0 3.585 3.585 0 00-1.177 1.5 5.126 5.126 0 000 3.994 3.576 3.576 0 001.177 1.494 3.282 3.282 0 003.688 0 3.51 3.51 0 001.168-1.494zm6.942-7.496v1.418a3.315 3.315 0 011.276-1.112 3.987 3.987 0 011.932-.48 4.784 4.784 0 012.684.731 4.541 4.541 0 011.68 2.018 7.185 7.185 0 01.568 2.924 7.177 7.177 0 01-.568 2.923 4.544 4.544 0 01-1.68 2.019 4.784 4.784 0 01-2.684.731 4.219 4.219 0 01-1.833-.425 3.386 3.386 0 01-1.375-1.124v5.826h-1.81V10.135zm6.263 5.5a4.687 4.687 0 00-.862-2.935 2.822 2.822 0 00-2.368-1.124 2.789 2.789 0 00-2.356 1.124 4.734 4.734 0 00-.851 2.935 4.689 4.689 0 00.862 2.935 3.034 3.034 0 004.713 0 4.689 4.689 0 00.862-2.936zm10.891 5.257a4.12 4.12 0 01-1.833.415 4.839 4.839 0 01-2.695-.731A4.514 4.514 0 01175 18.557a7.16 7.16 0 01-.568-2.923A7.168 7.168 0 01175 12.71a4.511 4.511 0 011.69-2.018 4.839 4.839 0 012.695-.731 4.171 4.171 0 011.91.458 3.3 3.3 0 011.3 1.048v-1.332h1.79v15.449h-1.79v-5.826a3.612 3.612 0 01-1.375 1.134zm1.528-5.258a4.72 4.72 0 00-.852-2.946 3.052 3.052 0 00-4.723.011 4.688 4.688 0 00-.863 2.935 4.69 4.69 0 00.863 2.935 2.818 2.818 0 002.367 1.123 2.789 2.789 0 002.356-1.123 4.73 4.73 0 00.852-2.935zm6.942-5.499v1.9a3.955 3.955 0 011.354-1.539 3.377 3.377 0 011.876-.534 4.235 4.235 0 011.549.327l-.371 1.68a2.9 2.9 0 00-1.419-.371 2.473 2.473 0 00-2.148 1.374 7.78 7.78 0 00-.841 4.016v4.146h-1.81v-11zm5.828 8.183l1.506-.808a3.581 3.581 0 00.949 1.615 2.348 2.348 0 001.648.567 1.914 1.914 0 001.3-.425 1.544 1.544 0 00.49-1.233 1.315 1.315 0 00-.589-1.135 8.364 8.364 0 00-1.833-.872 5.418 5.418 0 01-2.019-1.2 2.623 2.623 0 01-.709-1.921 2.733 2.733 0 01.906-2.127 3.3 3.3 0 012.3-.818 3.507 3.507 0 013.186 1.723l-1.179 1.048a2.3 2.3 0 00-2.029-1.157 1.507 1.507 0 00-1.025.36 1.283 1.283 0 00.12 1.986 7.987 7.987 0 001.909.906q2.684.981 2.684 3.141a3.179 3.179 0 01-.96 2.445 3.6 3.6 0 01-2.553.894 4.121 4.121 0 01-2.728-.873 4.058 4.058 0 01-1.374-2.116zm10.717-.546V11.75h-1.854v-1.615h1.854V6.841l1.812-1.157v4.451h2.945v1.615h-2.945v6.15q0 1.79 1.527 1.789a2.463 2.463 0 001.266-.306l.458 1.529a4.172 4.172 0 01-1.877.392 3.092 3.092 0 01-2.335-.883 3.685 3.685 0 01-.851-2.649zm7.007.022v-7.659h1.81V17.4a2.51 2.51 0 00.513 1.713 1.893 1.893 0 001.5.578 2.57 2.57 0 001.635-.591 3.872 3.872 0 001.167-1.7 7.239 7.239 0 00.426-2.6v-4.665h1.789v11h-1.792v-2.119a4.649 4.649 0 01-1.561 1.669 3.831 3.831 0 01-2.105.622 3.329 3.329 0 01-2.466-.917 3.513 3.513 0 01-.916-2.596zm12.658-7.659l2.772 8.685 2.749-8.685h1.855l-3.71 11h-1.81l-3.71-11zm10.063 0l2.356 8.576 2.182-8.576h1.723l2.16 8.576 2.379-8.576h1.855l-3.382 11h-1.7l-2.182-8.379-2.16 8.379h-1.725l-3.36-11zm13.924 0h1.943l2.137 3.492 2.161-3.492h1.942l-3.12 5.041 3.687 5.957h-1.877l-2.793-4.408-2.77 4.408h-1.877l3.688-5.957zm9.472 0h1.856l3.032 8.249 2.837-8.249h1.833L263.4 25.584h-1.767l1.7-4.713zm16.108 1.615h-5.041v-1.615h7.353v.851l-5.28 8.532h5.542v1.615h-7.9v-.786zM1.179 39.687a10.257 10.257 0 011.385-5.717 4.51 4.51 0 014-2.094 4.487 4.487 0 013.993 2.083 10.308 10.308 0 011.375 5.728 10.311 10.311 0 01-1.375 5.728A4.49 4.49 0 016.568 47.5a4.509 4.509 0 01-4-2.095 10.257 10.257 0 01-1.389-5.718zm8.946 0a9.3 9.3 0 00-.925-4.506 2.914 2.914 0 00-5.27 0 9.392 9.392 0 00-.917 4.506 9.319 9.319 0 00.917 4.494 2.921 2.921 0 005.27 0 9.23 9.23 0 00.925-4.494zm4.302-3.295v-1.964l3.841-2.378h.632v15.274h-1.81V34.756zm12.746 3.076a10.068 10.068 0 001.233-1.843 3.691 3.691 0 00.316-1.56 2.591 2.591 0 00-.655-1.866 2.353 2.353 0 00-1.789-.688 2.308 2.308 0 00-1.768.753 3.6 3.6 0 00-.872 2l-1.68-.327a4.465 4.465 0 01.666-2.094 4.1 4.1 0 011.538-1.443 4.388 4.388 0 012.139-.523A4.263 4.263 0 0129.387 33a4.053 4.053 0 011.168 3.066 4.731 4.731 0 01-.425 1.952 9.682 9.682 0 01-1.255 2l-4.365 5.648h6.39v1.658h-9.248v-.7zm5.938 3.645l1.768-.24a3.749 3.749 0 00.981 2.171 2.783 2.783 0 002.073.8 2.964 2.964 0 002.291-.873 4.032 4.032 0 00-.01-4.856 2.969 2.969 0 00-2.259-.861 2.551 2.551 0 00-1.353.371l-.807-1.07 3.6-4.866h-5.542V32.05H42.1v.567L38.151 37.9a2.012 2.012 0 01.567-.066 3.941 3.941 0 013.59 2.215 5.429 5.429 0 01.556 2.52 5.267 5.267 0 01-.61 2.575 4.36 4.36 0 01-1.724 1.735 5.241 5.241 0 01-2.6.622 4.749 4.749 0 01-3.284-1.179 4.81 4.81 0 01-1.535-3.209zm11.917.916v-.7l6.437-11.279h2.05v10.342h1.921v1.637h-1.921v3.295h-1.81v-3.295zm6.677-9.36l-4.3 7.723h4.3zm5.566 8.64l1.746-.3q.458 2.835 2.946 2.837a2.6 2.6 0 002.16-.928 4.037 4.037 0 00.742-2.586 3.932 3.932 0 00-.764-2.618 2.633 2.633 0 00-2.117-.9 3.283 3.283 0 00-1.81.5 4.459 4.459 0 00-1.332 1.331l-1.2-.262.808-8.335h7.35v1.636H60l-.458 4.451a3.9 3.9 0 012.705-.938 4.073 4.073 0 013.263 1.386 5.559 5.559 0 011.19 3.744 6.022 6.022 0 01-.578 2.684 4.3 4.3 0 01-1.659 1.832 5.148 5.148 0 01-5.684-.435 4.641 4.641 0 01-1.508-3.099zm12.06 1.745a5.167 5.167 0 01-.622-2.531 6.2 6.2 0 01.894-3.076l4.386-7.571h1.942l-3.36 5.913a1.514 1.514 0 01.49-.175 2.857 2.857 0 01.579-.065 4.806 4.806 0 012.488.643 4.529 4.529 0 011.7 1.778 5.3 5.3 0 01.61 2.553 5.167 5.167 0 01-.622 2.531 4.612 4.612 0 01-1.724 1.789 5.147 5.147 0 01-5.029 0 4.588 4.588 0 01-1.732-1.789zm7.276-2.531a3.43 3.43 0 00-.84-2.432 3.094 3.094 0 00-4.375 0 3.408 3.408 0 00-.85 2.432 3.373 3.373 0 00.861 2.39 3.018 3.018 0 004.354 0 3.4 3.4 0 00.85-2.39zm3.626-8.837V32.05h8.729v.655l-5.957 14.619h-1.833L86.8 33.686zM90.938 45.4a4.506 4.506 0 01-.638-2.44 4.432 4.432 0 01.643-2.389 3.617 3.617 0 011.664-1.471 3.6 3.6 0 01-1.287-1.3 3.663 3.663 0 01-.48-1.888 4.1 4.1 0 01.523-2.072 3.743 3.743 0 011.474-1.44 4.765 4.765 0 014.341 0 3.733 3.733 0 011.473 1.441 4.088 4.088 0 01.524 2.072 3.561 3.561 0 01-.491 1.866 3.958 3.958 0 01-1.276 1.321 3.617 3.617 0 011.669 1.474 4.432 4.432 0 01.643 2.389 4.506 4.506 0 01-.643 2.444 4.22 4.22 0 01-1.713 1.56 5.457 5.457 0 01-4.713 0 4.214 4.214 0 01-1.713-1.567zm6.949-2.444a2.831 2.831 0 00-.8-2.127 3.189 3.189 0 00-4.168 0 2.825 2.825 0 00-.8 2.127 2.792 2.792 0 00.8 2.117 3.238 3.238 0 004.178 0 2.816 2.816 0 00.79-2.113zm-.458-7.026a2.464 2.464 0 00-.666-1.811 2.616 2.616 0 00-3.512 0 2.8 2.8 0 000 3.622 2.616 2.616 0 003.512 0 2.466 2.466 0 00.666-1.807zm9.965 5.83a2.913 2.913 0 01-.578.065 4.853 4.853 0 01-2.5-.644A4.475 4.475 0 01102.6 39.4a5.3 5.3 0 01-.61-2.553 5.178 5.178 0 01.622-2.531 4.608 4.608 0 011.734-1.789 5.142 5.142 0 015.019 0 4.608 4.608 0 011.734 1.789 5.178 5.178 0 01.622 2.531 5.053 5.053 0 01-.207 1.4 6.352 6.352 0 01-.578 1.375l-4.5 7.877H104.5l3.382-5.913a1.531 1.531 0 01-.488.174zm2.5-4.91a3.413 3.413 0 00-.861-2.4 2.98 2.98 0 00-4.343 0 3.413 3.413 0 00-.861 2.4 3.368 3.368 0 00.85 2.422 3.121 3.121 0 004.375 0 3.389 3.389 0 00.838-2.422z"/></svg>