<svg viewBox="0 0 285.795 211.807" xmlns="http://www.w3.org/2000/svg"><clipPath id="a"><path d="M40.312 6.781a27.008 27.008 0 00-9.421 4.753 19.606 19.606 0 00-5.678 7.585 29.005 29.005 0 00-1.927 11.316q0 4.749.452 10.627.453 5.9 1.023 12 .572 6.115 1.016 12 .462 5.88.459 10.634a31.08 31.08 0 01-1.816 11.651 16.1 16.1 0 01-4.877 6.792 16.6 16.6 0 01-6.924 3.167 39.922 39.922 0 01-7.945.793v10.182a39.338 39.338 0 017.945.793 16.573 16.573 0 016.924 3.167 16 16 0 014.877 6.792 31.05 31.05 0 011.823 11.65q0 4.758-.459 10.522t-1.023 11.768q-.561 6-1.016 11.657t-.459 10.181a28.976 28.976 0 001.927 11.315 19.485 19.485 0 005.678 7.586 27.07 27.07 0 009.421 4.753 95.808 95.808 0 0013.388 2.826l2.275-9.277q-5.244-1.148-10.444-2.491a24.615 24.615 0 01-6.8-2.715 9.274 9.274 0 01-3.632-4.189 17.417 17.417 0 01-1.134-6.9 197.12 197.12 0 011.357-21.5 216.418 216.418 0 001.364-24.212 39.942 39.942 0 00-1.475-11.879 24.353 24.353 0 00-3.75-7.585 16.38 16.38 0 00-5.219-4.524 51.14 51.14 0 00-5.9-2.714 51.355 51.355 0 005.9-2.721 15.9 15.9 0 005.219-4.635 26.108 26.108 0 003.75-7.7 40 40 0 001.469-11.876A230.785 230.785 0 0035.316 51.7a212.22 212.22 0 01-1.363-22.17 17.534 17.534 0 011.134-6.9 9.266 9.266 0 013.632-4.19 24.556 24.556 0 016.811-2.714q5.2-1.344 10.444-2.491L53.7 3.955a95.522 95.522 0 00-13.388 2.826"/></clipPath><g clip-path="url(#a)"><path d="M1.396.677h57.857v203.891H1.396z" fill="#00f"/></g><path d="M71.983 42.046a8.546 8.546 0 001.05-1.571 3.137 3.137 0 00.27-1.329 2.207 2.207 0 00-.558-1.588 2.005 2.005 0 00-1.524-.586 1.967 1.967 0 00-1.505.642 3.052 3.052 0 00-.743 1.7l-1.431-.28a3.812 3.812 0 01.567-1.784 3.528 3.528 0 011.309-1.226 3.75 3.75 0 011.822-.446 3.63 3.63 0 012.629.957 3.452 3.452 0 01.994 2.61 4.027 4.027 0 01-.362 1.663 8.141 8.141 0 01-1.069 1.7l-3.716 4.814h5.444v1.412h-7.878v-.594zM81.45 44a2.457 2.457 0 01-.492.056 4.136 4.136 0 01-2.128-.556 3.809 3.809 0 01-1.459-1.514 4.523 4.523 0 01-.519-2.174 4.4 4.4 0 01.529-2.156 3.919 3.919 0 011.478-1.523 4.369 4.369 0 014.273 0 3.917 3.917 0 011.477 1.523 4.415 4.415 0 01.53 2.156 4.28 4.28 0 01-.177 1.189 5.319 5.319 0 01-.493 1.17l-3.827 6.708h-1.654l2.88-5.035a1.335 1.335 0 01-.418.156zm2.128-4.181a2.908 2.908 0 00-.734-2.045 2.538 2.538 0 00-3.7 0 2.9 2.9 0 00-.735 2.045 2.873 2.873 0 00.725 2.063 2.661 2.661 0 003.726 0 2.9 2.9 0 00.718-2.066zm4.197 6.054v-5.129H86.2v-1.375h1.579v-2.806l1.542-.984v3.79h2.51v1.375h-2.51v5.241q0 1.524 1.3 1.523a2.105 2.105 0 001.077-.259l.39 1.3a3.536 3.536 0 01-1.6.334 2.632 2.632 0 01-1.988-.751 3.147 3.147 0 01-.725-2.259zm7.507-10.294v5.668a3.459 3.459 0 011.338-1.5 3.56 3.56 0 011.877-.53 2.9 2.9 0 012.147.772 3.007 3.007 0 01.77 2.22v6.522h-1.523v-6.147a2.177 2.177 0 00-.447-1.477 1.655 1.655 0 00-1.318-.511 2.3 2.3 0 00-1.413.492 3.354 3.354 0 00-1.041 1.44 5.856 5.856 0 00-.39 2.23v3.977H93.74V35.579zm12.708 9.96l1.635-.353a2.875 2.875 0 00.688 1.625 1.928 1.928 0 001.468.568 2.156 2.156 0 001.608-.614 2.64 2.64 0 00.6-1.913v-9.124h1.6v8.956a4.264 4.264 0 01-1.059 3.141 3.723 3.723 0 01-2.75 1.058 3.635 3.635 0 01-2.629-.938 3.9 3.9 0 01-1.161-2.406zm9.904.502a2.626 2.626 0 011.1-2.276 5.137 5.137 0 013.039-.791h1.635v-.408a1.874 1.874 0 00-.548-1.5 2.127 2.127 0 00-1.441-.474 1.992 1.992 0 00-2.043 1.523l-1.375-.315a2.8 2.8 0 011.142-1.877 3.735 3.735 0 012.276-.706 3.542 3.542 0 012.547.92 3.412 3.412 0 01.966 2.592v6h-1.208l-.279-1.356a3.233 3.233 0 01-2.917 1.5 3.047 3.047 0 01-2.082-.715 2.678 2.678 0 01-.812-2.117zm5.387.194a3.173 3.173 0 00.391-1.644v-.3h-1.58a3.474 3.474 0 00-1.951.447 1.461 1.461 0 00-.65 1.282 1.425 1.425 0 00.418 1.1 1.631 1.631 0 001.161.39 2.654 2.654 0 001.23-.31 2.446 2.446 0 00.981-.965zm6.039-6.866v1.8a3.957 3.957 0 011.329-1.421 3.232 3.232 0 011.775-.53 2.841 2.841 0 012.1.78 2.993 2.993 0 01.78 2.212v6.522h-1.524v-6.185a2.138 2.138 0 00-.437-1.459 1.639 1.639 0 00-1.292-.492 2.153 2.153 0 00-1.384.5 3.334 3.334 0 00-.984 1.44 6.088 6.088 0 00-.363 2.2v3.995h-1.542v-9.362zm8.769 6.522v-6.522h1.543v6.188a2.138 2.138 0 00.436 1.459 1.611 1.611 0 001.274.492 2.191 2.191 0 001.393-.5 3.312 3.312 0 00.994-1.45 6.162 6.162 0 00.363-2.211v-3.978h1.523v9.366h-1.523v-1.8a3.966 3.966 0 01-1.329 1.421 3.255 3.255 0 01-1.794.53 2.833 2.833 0 01-2.1-.78 2.992 2.992 0 01-.78-2.215zm9.811.15a2.627 2.627 0 011.1-2.276 5.14 5.14 0 013.04-.791h1.634v-.408a1.877 1.877 0 00-.547-1.5 2.13 2.13 0 00-1.441-.474 1.993 1.993 0 00-2.044 1.523l-1.374-.315a2.794 2.794 0 011.141-1.877 3.738 3.738 0 012.277-.706 3.541 3.541 0 012.546.92 3.408 3.408 0 01.966 2.592v6H154l-.28-1.356a3.233 3.233 0 01-2.917 1.5 3.047 3.047 0 01-2.081-.715 2.676 2.676 0 01-.822-2.117zm5.389.194a3.183 3.183 0 00.39-1.644v-.3H152.1a3.468 3.468 0 00-1.95.447 1.46 1.46 0 00-.651 1.282 1.422 1.422 0 00.419 1.1 1.628 1.628 0 001.16.39 2.648 2.648 0 001.222-.31 2.455 2.455 0 00.988-.965zm6.018-6.866v1.617a3.381 3.381 0 011.152-1.31 2.891 2.891 0 011.6-.455 3.629 3.629 0 011.32.279l-.316 1.43a2.473 2.473 0 00-1.208-.315 2.107 2.107 0 00-1.83 1.17 6.633 6.633 0 00-.716 3.42v3.53h-1.542v-9.366zm5.185 0h1.579l2.583 7.025 2.416-7.025h1.561l-4.7 13.157h-1.506l1.45-4.014zm18.245 2.677a8.615 8.615 0 001.051-1.571 3.152 3.152 0 00.269-1.329 2.211 2.211 0 00-.557-1.588 2.009 2.009 0 00-1.525-.586 1.967 1.967 0 00-1.5.642 3.044 3.044 0 00-.742 1.7l-1.432-.28a3.813 3.813 0 01.568-1.784 3.513 3.513 0 011.309-1.226 3.749 3.749 0 011.821-.446 3.628 3.628 0 012.629.957 3.453 3.453 0 011 2.61 4.012 4.012 0 01-.363 1.663 8.133 8.133 0 01-1.068 1.7l-3.717 4.814h5.444v1.412h-7.878v-.594zm5.017.186a8.747 8.747 0 011.179-4.87 4.15 4.15 0 016.812-.008 8.784 8.784 0 011.17 4.878 8.785 8.785 0 01-1.17 4.877 4.15 4.15 0 01-6.812-.01 8.739 8.739 0 01-1.179-4.867zm7.619 0a7.92 7.92 0 00-.79-3.837 2.481 2.481 0 00-4.488 0 8 8 0 00-.78 3.837 7.951 7.951 0 00.78 3.828 2.49 2.49 0 004.488 0 7.873 7.873 0 00.79-3.828zm3.473-2.807v-1.672l3.271-2.025h.539v13.007h-1.542v-10.7zM209.706 44a2.457 2.457 0 01-.492.056 4.136 4.136 0 01-2.128-.549 3.8 3.8 0 01-1.458-1.514 4.513 4.513 0 01-.52-2.174 4.4 4.4 0 01.53-2.156 3.91 3.91 0 011.477-1.523 4.369 4.369 0 014.273 0 3.917 3.917 0 011.477 1.523 4.415 4.415 0 01.53 2.156 4.28 4.28 0 01-.177 1.189 5.364 5.364 0 01-.492 1.17l-3.826 6.705h-1.655l2.88-5.035a1.335 1.335 0 01-.419.152zm2.128-4.181a2.908 2.908 0 00-.734-2.045 2.538 2.538 0 00-3.7 0 2.9 2.9 0 00-.735 2.045 2.873 2.873 0 00.725 2.063 2.661 2.661 0 003.726 0 2.9 2.9 0 00.718-2.066zM91.59 65.87v6.415H75.4v7.856h12.982v6.414H75.4V96.87h16.725v6.414H68.447V65.87zm9.51 10.476l5.451 18.76 5.451-18.76h6.682l-9.14 26.938h-5.986l-9.14-26.938zm20.179 20.07a16.677 16.677 0 010-13.2 12.2 12.2 0 014.276-5.237 12.334 12.334 0 017.295-2.058 11.67 11.67 0 0111.224 7.054 15.408 15.408 0 011.337 6.254v2.727h-18.547a6.526 6.526 0 001.791 4.275 5.927 5.927 0 004.57 1.817 6.645 6.645 0 003.768-1.015 9.2 9.2 0 002.752-3.154l5.345 1.977a12.183 12.183 0 01-12.24 7.857 11.92 11.92 0 01-11.571-7.3zm15.447-13.389a5.188 5.188 0 00-3.876-1.442 5.39 5.39 0 00-3.9 1.5 6.479 6.479 0 00-1.925 3.635h11.6a7.32 7.32 0 00-1.899-3.693zm20.281-6.681v4.383a10.683 10.683 0 013.527-3.554 8.458 8.458 0 014.437-1.256 11.27 11.27 0 013.259.535L167 82.6a5.241 5.241 0 00-2.778-.748 6.131 6.131 0 00-5.185 2.86q-2.031 2.859-2.031 9v9.568h-6.628V76.346zm13.309 0H177l6.253 16.889 5.88-16.889h6.627l-13.9 37.841h-6.413l4.649-12.614zm27.764 20.578a16.317 16.317 0 010-14.218 12.11 12.11 0 014.73-4.97 15.663 15.663 0 0114.645 0 12.117 12.117 0 014.73 4.97 16.317 16.317 0 010 14.218 12.117 12.117 0 01-4.73 4.97 15.663 15.663 0 01-14.645 0 12.11 12.11 0 01-4.73-4.97zm18.787-7.11a9.354 9.354 0 00-1.818-5.851 6.272 6.272 0 00-9.834 0 10.337 10.337 0 000 11.7 6.271 6.271 0 009.834 0 9.354 9.354 0 001.818-5.849zm18.546-13.468v4.33A12.194 12.194 0 01239.1 77.2a8.862 8.862 0 014.649-1.283A8.546 8.546 0 01249.764 78a7.793 7.793 0 012.271 6.04v19.241h-6.628V86.02a4.676 4.676 0 00-1.042-3.367 3.739 3.739 0 00-2.806-1.068 4.407 4.407 0 00-3.047 1.282 9.022 9.022 0 00-2.244 3.767 18.193 18.193 0 00-.855 5.907v10.743h-6.628V76.346zm22.901 20.07a16.666 16.666 0 010-13.2 12.2 12.2 0 014.276-5.237 12.335 12.335 0 017.3-2.058 11.672 11.672 0 0111.223 7.054 15.424 15.424 0 011.336 6.254v2.727H263.9a6.52 6.52 0 001.79 4.275 5.926 5.926 0 004.57 1.817 6.641 6.641 0 003.767-1.015 9.189 9.189 0 002.752-3.154l5.346 1.977a12.185 12.185 0 01-12.239 7.857 12.328 12.328 0 01-7.3-2.058 12.2 12.2 0 01-4.272-5.239zm15.446-13.389a5.185 5.185 0 00-3.874-1.442 5.394 5.394 0 00-3.9 1.5 6.491 6.491 0 00-1.925 3.635h11.6a7.321 7.321 0 00-1.901-3.693zM66.951 120.869a4.2 4.2 0 111.229 3.047 4.138 4.138 0 01-1.229-3.047zm7.589 7.75v26.937h-6.628v-26.937zm4.008 20.096l5.291-2.832a7.606 7.606 0 002.111 3.26 4.788 4.788 0 003.234 1.175 4.381 4.381 0 002.405-.614 2.2 2.2 0 00.962-2 2.33 2.33 0 00-1.149-2 16.565 16.565 0 00-3.554-1.631 10.468 10.468 0 01-1.122-.427 12.788 12.788 0 01-4.811-3.1 6.849 6.849 0 01-1.71-4.81 6.775 6.775 0 011.122-3.8 8.018 8.018 0 013.074-2.725 9.4 9.4 0 014.409-1.016 10.736 10.736 0 014.97 1.15 8.336 8.336 0 013.474 3.233l-3.954 3.63a4.988 4.988 0 00-4.329-2.351 3.062 3.062 0 00-1.844.561 1.737 1.737 0 00-.776 1.47 2.291 2.291 0 001.124 1.79 19.4 19.4 0 004.383 2 11.92 11.92 0 014.783 2.94 6.571 6.571 0 011.683 4.649 8.309 8.309 0 01-2.512 6.334 9.166 9.166 0 01-6.573 2.379 11.173 11.173 0 01-6.975-2.138 10.084 10.084 0 01-3.716-5.127zm35.541-.909a7.757 7.757 0 013.047-6.413 12.934 12.934 0 018.231-2.405h4.7v-1.176a3.452 3.452 0 00-1.336-2.966 5.5 5.5 0 00-3.367-.989 4.532 4.532 0 00-4.65 3.1l-5.612-1.284a8.483 8.483 0 013.448-5.423 11.2 11.2 0 016.814-2.059q5.4 0 8.364 2.86t2.967 8.418v16.087h-5.452l-.7-3.42a10.19 10.19 0 01-8.284 3.848 8.291 8.291 0 01-5.879-2.138 7.842 7.842 0 01-2.291-6.04zm15.981-3.046v-.535h-4.435a5.79 5.79 0 00-3.394.855 3 3 0 00-1.2 2.619 2.39 2.39 0 00.829 1.9 3.177 3.177 0 002.164.722 6.37 6.37 0 004.222-1.523 5 5 0 001.814-4.038zm24.798 3.1v-19.241h6.632v17.264a4.672 4.672 0 001.043 3.367 3.739 3.739 0 002.806 1.068 4.4 4.4 0 003.046-1.283 9.016 9.016 0 002.244-3.767 18.187 18.187 0 00.855-5.906v-10.743h6.628v26.937h-6.632v-4.329a12.179 12.179 0 01-3.69 3.473 8.878 8.878 0 01-4.65 1.283 8.544 8.544 0 01-6.013-2.085 7.787 7.787 0 01-2.269-6.038zm27.526.855l5.29-2.832a7.6 7.6 0 002.112 3.26 4.788 4.788 0 003.234 1.175 4.375 4.375 0 002.4-.614 2.2 2.2 0 00.963-2 2.329 2.329 0 00-1.15-2 16.541 16.541 0 00-3.554-1.631 10.633 10.633 0 01-1.122-.427 12.791 12.791 0 01-4.81-3.1 6.845 6.845 0 01-1.71-4.81 6.775 6.775 0 011.122-3.8 8.025 8.025 0 013.074-2.725 9.4 9.4 0 014.409-1.016 10.733 10.733 0 014.97 1.15 8.336 8.336 0 013.474 3.233l-3.955 3.634a4.99 4.99 0 00-4.33-2.351 3.059 3.059 0 00-1.843.561 1.736 1.736 0 00-.775 1.47 2.288 2.288 0 001.122 1.79 19.4 19.4 0 004.383 2 11.906 11.906 0 014.783 2.94 6.573 6.573 0 011.685 4.649 8.307 8.307 0 01-2.514 6.334 9.165 9.165 0 01-6.573 2.379 11.17 11.17 0 01-6.974-2.138 10.084 10.084 0 01-3.711-5.131zm23.806-.026a16.679 16.679 0 010-13.2 12.2 12.2 0 014.276-5.236 12.327 12.327 0 017.295-2.059A11.671 11.671 0 01229 135.247a15.4 15.4 0 011.337 6.253v2.725h-18.549a6.526 6.526 0 001.791 4.276 5.927 5.927 0 004.57 1.817 6.645 6.645 0 003.768-1.015 9.2 9.2 0 002.752-3.153l5.345 1.977a12.187 12.187 0 01-12.24 7.857 12.334 12.334 0 01-7.295-2.058 12.211 12.211 0 01-4.279-5.237zm15.45-13.389a5.188 5.188 0 00-3.876-1.442 5.39 5.39 0 00-3.9 1.5 6.476 6.476 0 00-1.925 3.635h11.6a7.327 7.327 0 00-1.899-3.693zm20.283-6.681V133a10.667 10.667 0 013.528-3.554 8.441 8.441 0 014.435-1.257 11.328 11.328 0 013.261.535l-1.23 6.146a5.235 5.235 0 00-2.779-.748 6.13 6.13 0 00-5.185 2.859q-2.029 2.86-2.03 9.006v9.567h-6.628v-26.935z" fill="#00f"/></svg>