<svg viewBox="0 0 291.259 115.115" xmlns="http://www.w3.org/2000/svg"><g fill="none" stroke="#00f"><path d="m4.136 50.654s19.334 40.146 54.853 40.146h1.251c35.519 0 54.853-40.142 54.853-40.142v-.212s-19.334-40.146-54.853-40.146h-1.251c-35.519 0-54.853 40.142-54.853 40.142z" stroke-width="8.271"/><circle cx="58.205" cy="50.986" r="19.845" stroke-width="8.58"/><path d="m177.75 53.189s19.076 39.611 54.121 39.611h1.235c35.028.025 54.1-39.606 54.1-39.606v-.194s-19.072-39.6-54.117-39.6h-1.235c-35.045 0-54.104 39.6-54.104 39.6z" stroke-width="8.098"/><path d="m216.952 40.034a19.53 19.53 0 0 0 27.368 27.855z" stroke-width="8.4"/><path d="m286.883 111.066-105.127-107.017z" stroke-linecap="round" stroke-linejoin="round" stroke-width="8.098"/></g></svg>