<svg viewBox="0 0 1210 546" xmlns="http://www.w3.org/2000/svg"><g fill-rule="evenodd"><path d="M157.807 360.15h-2.085v-9.994h5.729v1.736h-3.644v2.577h3.393v1.73h-3.391zm11.218-5.558h.683a2.612 2.612 0 001.484-.335 1.194 1.194 0 00.478-1.052 1.1 1.1 0 00-.488-1.012 2.964 2.964 0 00-1.515-.3h-.642zm0 1.723v3.835h-2.119v-9.994h2.912a4.99 4.99 0 013.015.741 2.959 2.959 0 01.492 3.822 3.21 3.21 0 01-1.374 1.076q2.256 3.37 2.939 4.355h-2.351l-2.386-3.835zm19.694-1.176a5.427 5.427 0 01-1.23 3.815 5.334 5.334 0 01-7.055 0 5.448 5.448 0 01-1.23-3.829 5.37 5.37 0 011.234-3.811 4.612 4.612 0 013.537-1.314 4.549 4.549 0 013.524 1.326 5.433 5.433 0 011.22 3.813zm-7.294 0a4.176 4.176 0 00.636 2.523 2.224 2.224 0 001.9.847q2.536 0 2.537-3.37t-2.523-3.377a2.24 2.24 0 00-1.907.851 4.156 4.156 0 00-.643 2.526zm17.1 5.011l-2.406-7.841h-.062q.13 2.392.13 3.192v4.649h-1.893v-9.994h2.884l2.366 7.642h.041l2.508-7.642h2.885v9.994H203v-4.731q0-.334.01-.772t.092-2.324h-.061l-2.578 7.827zm21.725-5.291h.7a2.326 2.326 0 001.463-.386 1.355 1.355 0 00.485-1.125 1.382 1.382 0 00-.407-1.1 1.905 1.905 0 00-1.275-.356h-.963zm4.785-1.586a3.054 3.054 0 01-1.009 2.468 4.315 4.315 0 01-2.867.854h-.909v3.555h-2.12v-9.994h3.193a4.251 4.251 0 012.765.782 2.855 2.855 0 01.944 2.335zm5.386 6.877v-9.994h2.12v8.244h4.053v1.75zm17.528 0l-.725-2.379h-3.643l-.725 2.379h-2.286l3.527-10.035h2.591l3.541 10.035zm-1.231-4.156q-1.005-3.234-1.131-3.658a9.217 9.217 0 01-.181-.67q-.226.876-1.292 4.328zm17.138 4.156h-2.696l-4.348-7.561h-.062q.13 2 .13 2.858v4.7h-1.893v-9.994h2.673l4.34 7.485h.048q-.1-1.949-.1-2.755v-4.73h1.907zm10.473-9.994l-3.729 9.994h-1.893l3.725-9.994zm13.118 4.9a4.92 4.92 0 01-1.405 3.78 5.728 5.728 0 01-4.057 1.313h-2.83v-9.994h3.138a5.279 5.279 0 013.8 1.292 4.749 4.749 0 011.351 3.61zm-2.2.055q0-3.221-2.844-3.22h-1.128v6.509h.909q3.059 0 3.059-3.288zm13.528 5.038h-5.756v-9.994h5.756v1.736h-3.637v2.194h3.384v1.737h-3.384v2.578h3.637zm11.484-2.776a2.581 2.581 0 01-.974 2.133 4.228 4.228 0 01-2.71.78 6.363 6.363 0 01-2.83-.6v-1.969a11.62 11.62 0 001.712.636 5.068 5.068 0 001.282.185 1.822 1.822 0 001.07-.267.913.913 0 00.372-.793.872.872 0 00-.164-.523 1.819 1.819 0 00-.482-.441 12.413 12.413 0 00-1.3-.677 6.1 6.1 0 01-1.374-.827 3.1 3.1 0 01-.732-.923 2.636 2.636 0 01-.273-1.23 2.584 2.584 0 01.9-2.085 3.733 3.733 0 012.485-.759 5.876 5.876 0 011.487.185 10.276 10.276 0 011.48.519l-.684 1.648a9.854 9.854 0 00-1.323-.458 4.231 4.231 0 00-1.029-.13 1.359 1.359 0 00-.922.28.924.924 0 00-.322.732.91.91 0 00.13.488 1.44 1.44 0 00.414.4 12.774 12.774 0 001.343.7 5.357 5.357 0 011.921 1.344 2.622 2.622 0 01.519 1.653zm5.312 2.776v-9.994h2.119v9.994zm11.929-5.612h3.964v5.181a11.1 11.1 0 01-1.814.441 11.878 11.878 0 01-1.74.127 4.4 4.4 0 01-3.456-1.33 5.532 5.532 0 01-1.193-3.818 5.034 5.034 0 011.385-3.773 5.252 5.252 0 013.838-1.354 7.433 7.433 0 012.967.615l-.7 1.7a5.024 5.024 0 00-2.277-.547 2.809 2.809 0 00-2.2.923 3.58 3.58 0 00-.827 2.481 3.988 3.988 0 00.666 2.485 2.308 2.308 0 001.938.858 6.865 6.865 0 001.347-.137V356.3H327.5zm18.71 5.612h-2.694l-4.347-7.561h-.069q.13 2 .13 2.858v4.7h-1.894v-9.994h2.673l4.341 7.485h.048q-.1-1.949-.1-2.755v-4.73h1.908zm535.826-.241h-2.12l.017-8.23-2.714-.006v-1.764l7.546.016v1.763h-2.714zm16.553-4.977a5.423 5.423 0 01-1.239 3.812 5.333 5.333 0 01-7.054-.014 5.447 5.447 0 01-1.223-3.831 5.368 5.368 0 011.242-3.809 4.611 4.611 0 013.54-1.308 4.548 4.548 0 013.521 1.333 5.438 5.438 0 011.213 3.817zm-7.294-.015a4.175 4.175 0 00.63 2.524 2.223 2.223 0 001.9.851q2.537.006 2.543-3.365t-2.516-3.382a2.243 2.243 0 00-1.909.847 4.163 4.163 0 00-.643 2.525zm26.11 5.063l-.72-2.38-3.644-.007-.729 2.377h-2.283l3.547-10.028 2.591.006 3.521 10.042zm-1.222-4.159q-1-3.234-1.124-3.659t-.18-.67q-.228.875-1.3 4.324zm17.129 4.191l-2.693-.005-4.333-7.57h-.061q.125 2 .124 2.858l-.01 4.7h-1.893l.02-9.994 2.673.006 4.325 7.494h.048q-.1-1.949-.1-2.755l.01-4.731h1.907zm19.27.039l-.719-2.381-3.644-.007-.729 2.378h-2.284l3.548-10.028h2.591l3.521 10.042zm-1.222-4.159q-1-3.236-1.124-3.659t-.18-.671q-.227.875-1.3 4.325zm17.437 4.191h-2.413l-1.343-5.253q-.075-.281-.254-1.159t-.206-1.18q-.042.369-.207 1.186t-.256 1.165l-1.357 5.233h-2.406l-2.53-10h2.085l1.267 5.458q.333 1.512.481 2.619.04-.39.19-1.206t.279-1.268l1.468-5.6h2l1.444 5.6q.1.377.237 1.149t.216 1.327q.071-.534.222-1.329t.276-1.288l1.282-5.453h2.085zm13.057.027l-5.754-.009.02-9.994 5.756.011v1.737l-3.636-.008v2.195l3.384.007v1.736l-3.384-.007v2.577l3.636.008zm11.49-2.753a2.582 2.582 0 01-.979 2.131 4.233 4.233 0 01-2.712.774 6.369 6.369 0 01-2.828-.607v-1.969a11.634 11.634 0 001.711.639 5.031 5.031 0 001.281.187 1.821 1.821 0 001.07-.264.912.912 0 00.375-.792.881.881 0 00-.163-.524 1.854 1.854 0 00-.482-.442 12.452 12.452 0 00-1.294-.679 6.128 6.128 0 01-1.372-.83 3.113 3.113 0 01-.73-.924 2.653 2.653 0 01-.271-1.231 2.581 2.581 0 01.9-2.083 3.733 3.733 0 012.486-.754 5.857 5.857 0 011.486.187 10.221 10.221 0 011.479.523l-.687 1.646a10.069 10.069 0 00-1.321-.461 4.3 4.3 0 00-1.029-.132 1.361 1.361 0 00-.923.279.99.99 0 00-.194 1.22 1.422 1.422 0 00.413.4 12.668 12.668 0 001.341.7 5.362 5.362 0 011.919 1.347 2.628 2.628 0 01.524 1.659zm14.387-2.206a5.423 5.423 0 01-1.238 3.812 5.334 5.334 0 01-7.055-.014 5.446 5.446 0 01-1.222-3.831 5.373 5.373 0 011.241-3.809A4.616 4.616 0 011003 350a4.55 4.55 0 013.522 1.333 5.442 5.442 0 011.209 3.817zm-7.294-.015a4.174 4.174 0 00.631 2.524 2.222 2.222 0 001.9.851q2.535.006 2.542-3.365t-2.515-3.382a2.24 2.24 0 00-1.909.848 4.15 4.15 0 00-.649 2.524zm17.087 5.045l-2.391-7.845h-.061q.125 2.394.123 3.193l-.009 4.648h-1.894l.02-9.994h2.885l2.35 7.648h.041l2.524-7.638 2.885.006-.02 9.994h-1.976l.01-4.73c0-.224 0-.481.012-.773s.039-1.066.1-2.324h-.062l-2.593 7.822zm18.224.037l-5.755-.012.02-9.994 5.756.012v1.736l-3.637-.007v2.194l3.384.007v1.736l-3.384-.007v2.577l3.637.008zm18.478.037l-5.756-.012.02-9.994 5.756.012v1.736l-3.637-.007v2.194l3.384.007v1.736l-3.384-.007v2.578l3.637.007zm13.665.027h-2.42l-2.317-3.785-2.331 3.776h-2.27l3.326-5.148-3.094-4.846h2.338l2.146 3.6 2.12-3.592h2.283l-3.148 4.949zm6.888-5.277h.7a2.319 2.319 0 001.464-.383 1.351 1.351 0 00.487-1.123 1.39 1.39 0 00-.4-1.1 1.91 1.91 0 00-1.275-.358h-.963zm4.788-1.576a3.054 3.054 0 01-1.013 2.465 4.308 4.308 0 01-2.87.849h-.909l-.007 3.555h-2.119l.02-9.994 3.192.006a4.25 4.25 0 012.764.788 2.855 2.855 0 01.942 2.331zm11.129 6.9l-5.756-.012.02-9.994 5.756.012v1.736l-3.636-.007-.005 2.194 3.384.007V356l-3.383-.006v2.577l3.636.007zm7.715-5.542h.684a2.61 2.61 0 001.484-.332 1.2 1.2 0 00.48-1.052 1.094 1.094 0 00-.486-1.012 2.966 2.966 0 00-1.514-.3h-.643zm0 1.723l-.008 3.835h-2.119l.02-9.994 2.912.006a4.985 4.985 0 013.013.748 2.958 2.958 0 01.485 3.822 3.223 3.223 0 01-1.377 1.074q2.25 3.375 2.931 4.36h-2.352l-2.378-3.84zm10.615 3.856l.02-9.994h2.119l-.02 9.994zm13.89.028l-5.755-.012.02-9.994 5.756.012v1.736l-3.637-.007v2.194l3.384.007v1.736l-3.384-.007-.005 2.577 3.637.008zm14.452.029l-2.694-.006-4.332-7.569h-.062q.126 2 .124 2.858l-.009 4.7h-1.894l.021-9.994h2.672l4.326 7.494h.048q-.1-1.949-.1-2.755l.009-4.73h1.908zm10.277-8.354a2.162 2.162 0 00-1.854.895 4.183 4.183 0 00-.661 2.5q-.007 3.342 2.5 3.347a7.912 7.912 0 002.551-.521v1.777a7.065 7.065 0 01-2.749.508 4.188 4.188 0 01-3.333-1.33 5.6 5.6 0 01-1.148-3.8 6.191 6.191 0 01.573-2.729 4.1 4.1 0 011.634-1.8 4.825 4.825 0 012.493-.62 6.718 6.718 0 012.924.71l-.687 1.721a11.178 11.178 0 00-1.127-.467 3.37 3.37 0 00-1.119-.192zm13.915 8.4l-5.756-.011.02-9.994 5.756.011v1.736l-3.637-.007v2.194l3.384.007v1.737l-3.384-.007-.005 2.577 3.637.007z" fill="#222"/><path d="M478.255 352.242l-20.941-15.284-.006 9.938h-64.864l-5.599 11.431H457.3l-.007 10.076z" fill="#00f"/><path d="M843.898 352.174l-20.941-15.284-.006 9.938h-64.765l-5.698 11.431h70.455l-.007 10.075z" fill="#e9d100"/><path d="M615.77 394.384v-1.366c-.021.437-.043.88-.067 1.339h-.033a11.687 11.687 0 01-.016 1.775z" fill="#00f"/><path d="M729.743 232.2c-9.737-5.843-22.2-11.1-36.416-15.19v-.2a210.525 210.525 0 00-28.042-5.842 99.066 99.066 0 01-.584 12.853c-.779 9.737-1.946 20.058-3.309 30.183a76.889 76.889 0 0116.551 7.2 85.12 85.12 0 01-2.921 21.031 133.144 133.144 0 01-15.578 37 124.076 124.076 0 01-23.758 31.937 99.815 99.815 0 01-16.94 12.851 64.39 64.39 0 01-1.936-1.154v60.691q.876.53 1.74 1.032a151.51 151.51 0 0031.55-24.148c16.552-16.162 32.324-37 45.567-59.588 13.243-22.977 23.369-46.735 28.82-69.323a143.332 143.332 0 005.259-39.335" fill="#fff"/><path d="M767.138 210.259c-30.765-25.315-85.68-41.868-148.969-41.868l-.288 195.1c.1.056.193.117.288.172a99.759 99.759 0 0016.942-12.851 124.137 124.137 0 0023.76-31.937 133.148 133.148 0 0015.577-37 85.1 85.1 0 002.922-21.031 76.946 76.946 0 00-16.551-7.2c1.362-10.126 2.529-20.447 3.309-30.183a99.08 99.08 0 00.584-12.853 210.214 210.214 0 0128.041 5.842v.194c14.216 4.09 26.679 9.347 36.416 15.19a143.3 143.3 0 01-5.259 39.336c-5.452 22.59-15.578 46.35-28.819 69.322-13.243 22.59-29.016 43.426-45.567 59.588a151.5 151.5 0 01-31.547 24.147l-.18-.108-.065 43.643c37.585-14.019 79.893-53.028 111.439-107.55h-.2c31.547-54.536 44.789-110.421 38.167-149.953z" fill="#e9d100"/></g><path d="M609.8 168.63c-2.22.047-4.68.024-7.26.15-5.165.259-8.156.484-13.524 1.02-10.751.871-20.225 2.367-21.979 2.7l5.533-.5-11.689 1.828c-3.465.63-6.6 1.2-9.654 1.761-3.034.671-5.987 1.327-9.115 2.019-3.116.738-6.364 1.692-10.039 2.708l.8-.281c-.54.124-1.013.279-1.787.531a96.62 96.62 0 01-3.573 1.23c-1.73.6-4.175 1.237-7.593 2.384l-5.955 1.955c-2.285.71-4.8 1.73-7.706 2.748l-.013-.028a23.794 23.794 0 01-2.377.938l4.023-1.405-3.436 1.546-3.972 1.9a2.659 2.659 0 01-1.008.294l-3.78 1.761-3.69 1.948-2.368 1c-2.218 1.273-.973 1.1-6.977 4.359 2.376-1.04-2.828 1.861-2 1.605l-1.538.858-2.941 2.026a38.719 38.719 0 00-3.254 2.4c-2.079 1.66-3.928 3.168-4.627 3.807l2.082-1.477c1.284-.882 2.97-2.16 4.86-3.37 1.913-1.161 3.941-2.391 5.727-3.477 1.807-1.024 3.42-1.8 4.361-2.281-4.919 2.81-1.26.79-.254.312l.285-.258a41.588 41.588 0 014.561-2.25c-.008-.013-.063-.007-.113 0l-.18.123c-.158.044-.09-.02.067-.12-.058-.017.066-.119.89-.534l-.147.1c1.243-.678 3.42-1.776 4.372-2.255l.09.135c1.008-.786 4.922-2.387 8.9-4.05 4.033-1.555 8.227-2.966 9.782-3.594 1.626-.465 3.4-1.1 5.278-1.79s3.833-1.44 5.874-1.976c6.434-1.917 3.28-.76 6.537-1.612 4.078-1.028-.877.028.747-.429l4.93-1.07c-2.824.766-1.26.45-.73.377 2.114-.513 4.819-1.243 7.207-1.7a34.17 34.17 0 004.992-1.253c1.44-.27 2.52-.48 3.375-.644l2.006-.28c1.044-.14 1.674-.222 2.912-.444-.839.1-2.5.352-2.52.291 2.34-.293 1.1-.241.146-.09.875-.2 2.463-.476 4.364-.786s4.11-.664 6.249-.894c4.272-.514 8.178-1.034 8.532-1.227l.01.064c.794-.36-.569-.457 1.9-.889l1.677-.076 2.492-.4c1.688-.109.871.057.874.09 1.015-.147 2.134-.29 3.318-.431l3.721-.29c2.559-.18 2.53-.369 5.007-.54l-2.6-.286c4.2-.27 9.09-.24 9.91-.516l2.529.118c8.421.216 5.868-.324 9.229-.265l1.026.047.5.024.338.026 1.21.107-.008.083v-.075l-3.045.045 1.224.021.733.025.944.057c-.04.486-.073.918-.108 1.365l-.131 2.61.006.037a2.387 2.387 0 01.039-.413l.006.59a41.589 41.589 0 01.212 5.679c-.037 4.217.156 7.516-.121 14.249l.27 1.681-.16 5.057h-.215l-.079-20.644-.1-.113c.025 3.772.056 8.07.072 10.566-.039 1.091-.22 3.69-.36 2.6l.162 1.806c.022 12.6.033 12.684-.208 25.838l.108-1.142a44.433 44.433 0 01-.05 5.94c-.035 7.9-.169 13.377-.441 18.5l.253 1.123c-.016 1.668-.395 4.169-.042 4.98l.111 3.563c-.019 2.28.123 3.676-.021 6.272v.013c-.009.16-.02.326-.028.49.007 0 .014-.013.02-.028-.112 5.158.226-.05.082 5.857-.18 1.895.317 2.1.261 4.975l-.36 2.89c-.206 5.22.157 6.107.157 13.664-.129 3.63-.435 5.382-.711 2.98a47.3 47.3 0 01.376 5.887c-.137.675-.165.207-.287-.761-.159 3.891.122 2.4.114 5.337a10.681 10.681 0 01.68 2.79l.08-1.135c.138 3.107.2 6.5.072 10.117l-.128-.137.065 3.847-.164.242.05 5.49.044-.754c.023 1.29.079 5.524-.008 7.944l-.09-.09c-.285 6.83.09 12.461.119 20.461l-.186-1.051c-.186 2.725.288.747.194 4l-.229.161a17.728 17.728 0 01-.1 4.732c-.127-.1-.261-.2-.418-.316.113.1.26.228.413.36-.008.081-.017.162-.024.246-1.26-.92-3.23-2.537-5.015-4.14a58.167 58.167 0 00-4.5-4l.042-.047c-.6-.2-.1.625-1.47-.468l-.763-.891-1.327-1.162c-.774-.9-.311-.54-.291-.557a88.2 88.2 0 01-6.944-7.671c.606 1.1 1.25 2.168 1.89 3.252-1.87-2.287-4.967-6.6-5.49-6.936l-.9-1.538c-3.173-4.971-2.61-3.178-3.875-5.168-.5-.848-.969-1.725-1.455-2.584.555.81 1.087 1.628 1.658 2.425-1.567-2.486-2.137-3.518-3.249-5.58l-.019-.015a1.091 1.091 0 01.12.262l-.223-.344a17.591 17.591 0 01-2.236-3.26 84.225 84.225 0 01-4.68-8.764l-.776-.919-1.423-3.234.191-.09c1.463 3.12 4.581 8.843 6.831 12.649l.123.018c-1.313-2.259-2.852-4.842-3.642-6.39-.331-.679-.99-2.356-.531-1.78l-.714-1.029c-2-3.9-2.914-5.907-3.832-7.964-.9-2.064-1.782-4.19-3.325-8.483l.188.777a18.357 18.357 0 01-1.4-3.87 76.741 76.741 0 01-3.674-14.138l-.406-.7c-.222-1.129-.15-2.88-.583-3.366-.17-.8-.324-1.6-.474-2.4a29.457 29.457 0 01-.425-4.264v-.345c-.009 0-.014.01-.02.021-.072-3.51-.27.044-.234-3.98.09-.787.01-.663-.08-.859-.028-.069-.139-.21-.09-.292a.938.938 0 01.341-.239 1.978 1.978 0 00.405-.118l.479-.154.963-.3a54.7 54.7 0 003.665-1.78 39.311 39.311 0 014.818-2.141 11.15 11.15 0 012.52-.554c.224 0 .5-.023.341.1a5.426 5.426 0 01-.711.45c.284-.143.383-.207.7-.338l.845-.344 1.035-.4c.331-.114.677-.235 1.282-.443l.242-.08.132-.045c.058-.006.09-.032.061-.09-.034-.2-.069-.428-.108-.68-.079-.49-.174-1.08-.288-1.8.022-.852.128-.277.434 1.09-.073-.674-.133-1.22-.18-1.674-.052-.422-.09-.754-.129-1.034a4.665 4.665 0 00-.135-.663 7.541 7.541 0 01-.319-1.588 5.682 5.682 0 01-.919-1.849l.019.8a54.889 54.889 0 01-.9-7.02l.139.081-.36-2.668.147-.185-.432-3.814.006.528c-.109-.894-.438-3.835-.479-5.528l.1.053c-.1-4.76-.657-8.681-1.033-14.29l.23.72c.036-.96-.044-1.086-.138-1.26a1.234 1.234 0 01-.139-.4 4.703 4.703 0 01-.054-.431 98.077 98.077 0 00-.038-.827l.216-.228a22.827 22.827 0 01-.293-3.756 3.622 3.622 0 00-.019-.736c-.211.022-.429.041-.648.061-.45.045-.935.1-1.53.187.339.034.651.075.939.119l-4.045.747c-2.835.476-1.8-.019-1.423-.257l-1.87.624-.428-.18c-1.338.594-1.411.241-3.834.921-.223-.055.385-.244-.457-.108l-3.969 1.248 2.4-.7-.215.444c-2.477.84-3.449.72-5.239 1.236l1.223-.4a38.869 38.869 0 01-4.813.968c.534-.055 1.35-.141.166.2-.871.233-.509-.017-1.35.143-.139.3-2.213.951-4.166 1.343.015-.042.046-.09.165-.144a9.091 9.091 0 01-1.583.481l.424-.421-1.563.734c-1.12.229-2.628.927-2.545.694l.6-.243q-4.116 1.2-8.166 2.63l-.189-.18c-.7.567-4.428 1.53-4.018 1.806-1.6.36-5.833 2.574-5.13 1.793-2.6 1.1-4.533 2.112-6.591 3.206-2.077 1.1-4.23 2.238-7.29 3.859q-.226.093-.472.2c-.165.07-.588.3-.907.46l-1.113.592c-.172.117-.45.18-.546.36 0 .229-.008.463-.013.7-.026 2.37-.038 3.108-.009 4.462.051 2.54.233 5.317.391 7.519a170.692 170.692 0 003.894 22.62c.608 5.3 3.413 12.709 4.85 18.18l.673 1.413c.824 3.69 3.106 8.983 4.694 14.021.549 1.176.819 1.8.935 2.076a1.245 1.245 0 01-.09-.737c.443 1.44 1.716 4.216 1.382 4.117l-.169-.344c-.347-.1 1.856 4.182 2.311 5.816l-.1-.962c.351.885.72 1.762 1.09 2.638l-.36-.677c2.76 5.556 4.657 9.625 6.538 13.606a120.363 120.363 0 006.891 12.78c-1.029-1.19 1.27 1.916 1.05 2.215 1.08 2.764 2.8 4.661 4.144 6.66.014-.008.046.006.139.111l2.16 3.6c-1.705-1.89 1.919 2.37.379.614 5.511 9.488 14.049 21.009 22.05 30.86l-.27-.5c2.034 2.5 4.74 5.45 6.229 7.393a40.476 40.476 0 004.456 4.454 14.707 14.707 0 012.761 3.15c1.98 1.96 4.106 3.578 6.781 6.383a34.771 34.771 0 004.363 4.041c1.963 1.643 3.852 3.127 3.763 3.33h.056c3.726 3.5 7.824 6.071 12.179 9.417a2.4 2.4 0 01-.27-.118c1.9 1.029 3.821 1.99 5.76 2.923.021.39.067.609.156.518-.215 2.279.153 8.972-.292 7.632-.034 7.935.394 12.223.18 21.87a27.163 27.163 0 00-.276 4.886c0 .919-.006 1.884-.01 2.817.03.123-.075.043-.137.023-.17-.073-21.33-8.09-67.431-50.347-3.8-4.484-4.32-4.763-5.595-6.776l.588 1.2-2.468-3.168.713.805c-2.842-3.307-5.267-6.189-7.29-8.982-2.049-2.775-3.964-5.257-5.659-7.857l-5.322-7.849c-1.8-2.79-3.791-5.741-6.115-9.122 1.385 1.7-1.8-2.686-1.62-3.048-1.742-3.771-4.072-6.48-5.767-9.423-.013.009-.051-.018-.168-.175l-2.835-5.2c2.092 2.892-2.381-3.566-.485-.9-1.741-3.466-3.6-7.171-5.548-11.046-1.829-3.938-3.835-8-5.7-12.207-1.819-4.23-3.759-8.485-5.389-12.836-.836-2.166-1.722-4.305-2.489-6.464l-2.216-6.421.155.775-1.185-3.353c-.368-1.162-.742-2.34-1.1-3.486-.72-2.295-1.386-4.465-1.811-6.132-.745-3.358-2.233-7.18-2.6-8.465a25.174 25.174 0 01-1.224-5.841c-.45-1.824-.975-3.592-1.459-5.547-.471-2.1-.95-4.394-1.373-7.159-.054-.961-.63-4.722-1.212-8.271l-.406-2.576c-.09-.82-.164-1.576-.23-2.222a7.478 7.478 0 01-.071-2.215l-.039-.056c-.424-7.129-1-11.168-.479-18.844 0 0 .019.146.027.408l-.03-7.657.471-7.673.018-.292-.247.019-.39.031.39.12.112.033-.029.064-1.815 3.89-.759 3.393-.547 3.427c-.335 2.291-.788 4.59-.947 6.9-.262 12.565 1.05 22.365 3.35 34.623.743 4.927 1.857 9.778 2.886 14.652 1.236 4.817 2.34 9.683 3.828 14.432 7.13 23.169 17.289 45.265 29.238 66.262.921 1.461 1.937 2.866 2.9 4.3 1.73 3.11 3.574 6.455 5.746 9.762 2.131 3.33 4.32 6.8 6.74 10.152l3.563 5.09c1.2 1.69 2.467 3.321 3.677 4.971s2.42 3.279 3.609 4.887l3.59 4.663.406.081a49.678 49.678 0 013.051 4.1c50.381 51.609 76.651 58.006 78.529 58.781l.733.3.185.075.09.038v-2.078l.008-3.15c.032-4.9.064-6.125.1-10.871.18-3.47.072-14.024.259-16.745-.326-11.687-.322-24.07-.288-35.771l.028.443-.051-5.513c.021-.233.053-.261.073-.084-.235-6.219 0-16.013.09-23.628l.03.45c.048-44.418-.45-85.654-.078-129.708.433-20.482-.164-41.609.2-65.109.019-.335.037-.93.053-1.756l.037-5.707c-2.348.024-5.193.058-8.374.099zm4.135 191.734v.158l-.04-.03zm-.056.171l.052.044v.072c-.057-.036-.052-.017 0 .039v.126l-.113-.083zm-.024 4.106c-.112 3.352-.371 1.91-.522 1.341l.237 2.783-.265.54c.308 2.032-.05 2.032.116 5.6-.1.294-.158-.608-.2.6l.374 5.874-.166-3.543.388.432c.274 3.448 0 4.817.05 7.134h-.017l-.083-1.311c.011.485.018.911.023 1.3a.723.723 0 00-.174 0 2.627 2.627 0 00-1.123.472l-.83.54-2.533 1.689c-2.5 1.609-5.212 3.532-8.063 5.58l-4.374 3.129-2.25 1.576-1.142.779-.575.384-.015.01.061-.141a6.883 6.883 0 01.406-.81 11.337 11.337 0 01.882-1.311 18.217 18.217 0 011.509-1.715 16.785 16.785 0 011.55-1.407c.589-.445.6-.428 2.9-2.267 5.783-4.59-1.265.816 1.027-1.058 2.329-1.811 4.715-3.574 6.958-5.587-1.926 1.778-2.391 2.138-2.232 2.058s.894-.677 1.269-.979c.54-.473 1.1-.99 1.671-1.535.145-.134.283-.281.426-.423l.569-.588c.36-.425.777-.849 1.1-1.292a12.764 12.764 0 001.631-2.655 9.678 9.678 0 00.714-2.617 8.179 8.179 0 00-.193-.931c.007-.154-.18-.33-.343-.378a1.234 1.234 0 00-.45-.071 5.3 5.3 0 00-1.691.36 19.18 19.18 0 00-4.146 2.463c-1.522 1.1-2.045 1.516-2.736 2.055-.63.5-1.1.893-1.376 1.151-4.161 3.074-6.272 4.55-7.8 5.58s-2.464 1.642-4.275 2.78c.6-.343 1.549-.935 2.312-1.426l.99-.63a2.783 2.783 0 01.427-.252c-3.447 2.223-1.6 1.14-.2.208a54.63 54.63 0 01-2.638 1.8l-.822.517-.534.315c-.36.208-.749.414-1.152.6-.2.09-.407.18-.616.258-.106.037-.212.075-.32.106-.109.075-.226-.022-.26-.142-.113-.238.078-.481.132-.715a7.118 7.118 0 01.324-.677 7.448 7.448 0 01.819-1.2l.24-.287.45-.51c.3-.339.63-.66.944-.99a70.764 70.764 0 017.776-6.272c2.232-1.62 3.772-2.764 3.993-3.025l.033.044c1.044-1.074-.958.215 2.482-2.6q1.2-.882 2.352-1.834c.288-.27.522-.482.851-.81.335-.344.68-.668 1-1.021a16.114 16.114 0 001.693-2.092 9.261 9.261 0 00.743-1.307 1.892 1.892 0 00.15-.35c.054 0-.036.291-.029.284.217-.328 0-.963-.38-1.327a1.453 1.453 0 00-.651-.411 2.555 2.555 0 00-.72.023c-.5.052-.99.077-1.523.154l-1.923.662c-.325.115-.651.211-.982.36l-.893.405c-.494.237-1.016.442-1.5.712-.99.513-2 1.037-2.978 1.62-3.96 2.276-7.839 4.972-11.485 7.367 2.676-1.536 5.34-3.131 8.053-4.634-3.156 1.929-7.452 4.834-11.227 7.12-.474.282-.929.576-1.386.829l-1.067.6c-.636.355-1.227.642-1.739.912l-1.356.63a9.446 9.446 0 00-.874.388l-.335.083c-.106.026-.221.079-.331 0a.321.321 0 01-.156-.36l.263-.409a11.429 11.429 0 011.052-1.486 11.679 11.679 0 011.183-1.35 11.233 11.233 0 011.017-.959c.244-.194.733-.667 1.142-.976l1.129-.888 2.749-2.1a34.3 34.3 0 013.885-2.762c2.109-1.306 4.23-2.6 6.3-4.032-2.016 1.481-4.091 2.834-6.15 4.193 3.125-1.976 5.318-3.411 7.284-4.873a27.268 27.268 0 005.723-5.387l.037-.059c-.27.342-.45.558-.494.6l.661-.883a11.874 11.874 0 00.61-1.147l.48-.932a3.623 3.623 0 00.276-.688l.054-.291a1.215 1.215 0 00.013-.366 1.421 1.421 0 00-.136-.519 1.332 1.332 0 00-.471-.525 1.614 1.614 0 00-.36-.156 142.466 142.466 0 01-1.98-2.06 119.709 119.709 0 0011.76 9.339zm-14.8-11.672c.151.146.3.3.45.44a99.28 99.28 0 004.3 3.878c-.105-.008-.2-.009-.29-.011a2.759 2.759 0 00-.534.09 5.273 5.273 0 00-.834.306 9.49 9.49 0 00-1.165.627c-.194.129-.254.18-.38.27-.889.653-1.876 1.357-2.942 2.1-3.034 2.09-5.76 3.928-9 5.977a137.016 137.016 0 01-12.24 6.951c-.826.524-1.665 1.024-2.5 1.53l-.767.354c.189-.22.388-.426.587-.63 2.34-1.16 4.8-2.484 7.295-3.911 5.67-3.24 11.423-6.972 15.986-10.139l.115-.18c-5.4 3.767-11.74 7.786-15.526 9.922-1.849 1.05-6.708 3.426-3.311 1.459-1.158.7-2.321 1.387-3.5 2.045l-.522.261a27.388 27.388 0 011.7-1.494 86.844 86.844 0 017.355-5.163c2.375-1.549 4.828-3.06 7.83-5.186q1.125-.8 2.34-1.764c.406-.325.819-.674 1.241-1.039l.63-.575c.109-.1.212-.2.318-.305l.381-.38a11.842 11.842 0 002.912-4.565l.152-.572zM573.087 374.9c.153-.162.3-.324.461-.482l.128.126c-.038.038-.075.08-.112.118-.157.079-.322.164-.477.238zm18.827-26.452l.015-.024.54-.81a.177.177 0 00-.045.039c.166-.27.3-.551.43-.8l.111-.213c1.5 1.656 2.991 3.23 4.4 4.653a4.029 4.029 0 00-1.2-.134 3.7 3.7 0 011.284.218l.074.073a3.453 3.453 0 00-1.086-.175 6.17 6.17 0 00-2.274.475l-2.34.933a4.229 4.229 0 00-.43.191l-.349.168-.672.323c-1.739.85-3.038 1.573-3.635 1.834-6.108 3.51-11.84 7.644-17.442 10.49a13.916 13.916 0 01-2.244 1.03 2.554 2.554 0 01-.4.1c-.056 0-.125.058-.165-.014s.012-.145.047-.207a2.322 2.322 0 01.48-.6l.114-.09.051-.035.3-.276c.427-.351.828-.7 1.26-1 .428-.437.9-.85 1.367-1.267 2.287-1.592 6.286-3.321 7.4-4.255 1.822-1 3.672-2.017 5.5-3.123a37.636 37.636 0 004.566-3.075 22.522 22.522 0 004.341-4.43zm-7.022-9.227a6.046 6.046 0 00.438-1.835 119.242 119.242 0 005.278 6.56 3.774 3.774 0 00-.5.137l-.564.253-1.225.576c-.52.254-.54.288-.593.338a50.837 50.837 0 01-5.1 2.43c-3.073 1.314-3.216 1.829-7.769 4.066q-2.34 1.018-4.668 2.088l-2.171 1.14-1.518.828a8.138 8.138 0 00-.642.4l-.78.557-.119.09c-.034.033-.1.072-.115.023-.05-.066-.019-.133 0-.2a2.233 2.233 0 01.173-.475 3.767 3.767 0 01.477-.727c.108-.132.231-.27.369-.408l.11-.107c.123-.119.247-.24.38-.356.262-.236.529-.48.818-.72a31.243 31.243 0 013.2-2.282 39.476 39.476 0 012.134-1.26c.925-.491.75-.227-.933 1.041l3.594-2.685c.72-.566 1.71-1.14 4.77-3.714 1.007-.72.394-.12-.926 1.064a35.179 35.179 0 002.9-2.436l.293-.277c.124-.117.252-.239.354-.354l.54-.642a6.637 6.637 0 00.786-1.027 15.049 15.049 0 001.009-2.085zm-15.241-27.854l.115-.235a234.634 234.634 0 009.09 16.685 81.169 81.169 0 004.846 7.348 3.3 3.3 0 00-1.156 0 11.333 11.333 0 00-3.51 1.277 8.876 8.876 0 012.7-.89 9.919 9.919 0 00-2.8 1.057l-1.46.728-.945.514c-1.267.688-2.54 1.411-3.838 2.146l-8.01 4.577.151-.214-5 2.945c1.71-1.4 3.5-2.785 4.882-3.837l-.073.157c2.392-1.808 4.672-3.562 6.872-5.4a69.377 69.377 0 003.24-2.871 22.571 22.571 0 003.041-3.428 6.828 6.828 0 00.66-1.218 3.792 3.792 0 00.14-.367l.105-.45.042-.228.011-.069a1.938 1.938 0 000-.264 1.846 1.846 0 00-.09-.442 1.879 1.879 0 00-.816-1.022 1.714 1.714 0 00-.946-.258 1.644 1.644 0 00-.786.221l-.116.071-.224.145-.45.289-.915.576c-1.235.765-2.52 1.521-3.847 2.283-2.659 1.522-5.5 3.06-8.614 4.648l1.56-.975c-4.309 2.013-1.041.833-6.161 3.26l-.339-.051c-1.1.593-2.01 1.057-2.816 1.429-.5.233-.521.237-.711.315a2.883 2.883 0 01-.336.113 2.446 2.446 0 01-.776.067.381.381 0 00-.07.332c-.159.053-.314.106-.47.143a1.172 1.172 0 01-.236.037c-.09.018-.14-.09-.122-.18a1.942 1.942 0 01.54-.887 4.549 4.549 0 01.9-.678c.037-.02.075-.038.114-.055a.537.537 0 00.1-.061l.119-.074c.143-.09.22-.12.247-.114.055.013-.09.18-.289.391a.168.168 0 00-.021.163l.025-.052a.13.13 0 01.035-.043l.226-.193.919-.769 1.875-1.53.9-.382c2.712-2.327 2.915-2.015 7.873-5.947.466-.254-.775.772.954-.529a73.195 73.195 0 002-1.73c.209-.186.972-.864 1.512-1.4.282-.278.592-.55.849-.827l.757-.827a6.582 6.582 0 00.658-.8c.187-.26.411-.531.566-.778a7.611 7.611 0 00.686-1.383 5.325 5.325 0 00.222-.869 5.83 5.83 0 01-.472 1.419 14.8 14.8 0 01-3.014 3.756 6.708 6.708 0 00.562-1.016 10.832 10.832 0 002.321-3.381 3.18 3.18 0 00.161-2.362 2.186 2.186 0 00-.39-.559 1.052 1.052 0 00-.235-.191 1.341 1.341 0 00-.167-.023l-.635-.08c-.106-.013-.2-.032-.313-.041l-.533.066-1.073.13c-1.6.7-3.29 1.44-5.225 2.353l5-2.351-8.877 4.033c-1.448.647-2.529 1.108-4.468 2.033 1.221-.54 3.084-1.359.344.046-2.014 1.029-1.149.45-3.07 1.393a26.473 26.473 0 01-3.06 1.909c2.111-1.6 4.376-3.131 6.57-4.914.353-.3.71-.588 1.058-.9l1.009-.931a41.898 41.898 0 011.92-1.667l4.109-3.362.355-.047c.393-.433 1.236-1.17 2.223-2.129a19.444 19.444 0 001.544-1.652 8.125 8.125 0 00.755-1.119zm-2.428-5.592c.288.63.6 1.26.9 1.89a2.181 2.181 0 00-.352.019 4.36 4.36 0 00-.676.139c-.348.1-.63.2-.883.3-.508.2-.923.387-1.253.547-.661.321-.99.526-.81.524-3.806 1.6-13.918 7.508-12.042 6.042-2.824 1.508-5.332 2.855-7.724 4.085 2.668-2.223 5.638-4.668 9.108-7.6 1.2-.94 2.88-2.33 4.8-4.113.154-.138.7-.663 1.128-1.08.442-.44.892-.894 1.316-1.356a16.519 16.519 0 002.137-2.741 4.465 4.465 0 00.688-2.188 2.753 2.753 0 00-.152-.973 2.419 2.419 0 00-.8-1.073 1.346 1.346 0 00-.347-.195c-.083-.039-.2-.075-.3-.114l-.366-.106-.45-.09c-.18-.028-.345-.071-.535-.09l-.882.307-2.007.94-2.049 1-1.945.979-2.14 1.1-7.943 4.16c-2.34 1.245-4.57 2.43-6.728 3.5l-1.6.78a1.559 1.559 0 01-.208.084.116.116 0 01-.174-.078.525.525 0 01.146-.389l.071-.09.212-.22c.341-.373.758-.72 1.136-1.074a59.97 59.97 0 015.051-3.949c1.759-1.252 3.578-2.45 5.443-3.645s3.78-2.31 5.83-3.647a33.365 33.365 0 003.012-2.225 17.467 17.467 0 001.464-1.35c.119-.125.243-.238.36-.374l.425-.5a10.669 10.669 0 00.893-1.335 2.679 2.679 0 00.329-.689l.264-.7.107-.683.052-.341c0-.111-.008-.221-.011-.332-.016-.218-.007-.45-.044-.659l-.224-.6c-.035-.215-.27-.355-.406-.509a1.818 1.818 0 00-.52-.331 4.786 4.786 0 00-2.846-.148c-.556.1-1.122.253-1.686.417-.429.128-.7.219-1.058.337-6.449 1.973-13.741 5.631-21.31 8.676l-.72.289a4.063 4.063 0 01-.657.195.563.563 0 01-.349-.016c-.113-.076-.033-.206.02-.281a2.7 2.7 0 01.469-.45c.174-.139.36-.274.54-.4l.907-.613 1.189-.78a180.66 180.66 0 014.64-2.9l3.164-2.2a158.08 158.08 0 006.687-4.156 85.91 85.91 0 003.706-2.567 30.882 30.882 0 003.046-2.511 6.9 6.9 0 001.745-2.446 3.309 3.309 0 00.217-1.1 1.963 1.963 0 00-.43-1.274 2.389 2.389 0 00-1.064-.72 5.5 5.5 0 00-.549-.18c-.192-.046-.415-.056-.621-.085a9.152 9.152 0 00-3.349.616c-.644.22-1.321.509-1.98.775l-1.513.688c-3.07 1.451-6.03 3.011-8.967 4.44-2.806 1.53-4.293 2.271-4.95 2.6a8.38 8.38 0 011.652-.636c-1.677.791-4.2 2-6.277 2.837l-.753.3-.506.189a2.5 2.5 0 01-.318.09c-.167.037-.22.012-.15-.072l.2-.09c.042-.09-.1-.049-.36.03-.129.042-.293.09-.49.144-.045.009-.108.039-.147.006-.006-.038.03-.072.045-.109a2.031 2.031 0 01.147-.222 3.5 3.5 0 01.5-.524c-.114.095 1.1-.909 1.65-1.284l-.936.6-.464.308a1.879 1.879 0 01-.193.126l-.08.028 1.138-.932 1.366-1.054q1.385-1.038 2.826-2.018l-1.494 1.113a157.073 157.073 0 0115.422-9.844l3.538-2.025 1.724-.99c.866-.5 1.864-1.089 2.757-1.632s1.764-1.115 2.485-1.656a9.249 9.249 0 00.765-.645c.009.431.019.862.036 1.3.072 1.956.232 3.909.459 5.85a95.458 95.458 0 002.12 11.6 118.705 118.705 0 007.757 22.035zm-52.093-32.728a3.081 3.081 0 00-.164.506q-.655-2.4-1.26-4.8a158.71 158.71 0 01-3.568-19.926 134.813 134.813 0 01-.742-9.756c-.06-1.6-.1-3.22-.1-4.76 0-.133-.011-.28.154-.308q.826-.45 1.646-.894l5.348-2.666c2.117-1.034 4.212-1.97 5.108-2.268a124.3 124.3 0 0123.172-8.6l-.288.105 3.69-1c.163-.018.191.008.077.058 4.14-1.29 10.874-2.552 16.11-3.528l-.3.09 5.054-1.026.135-.027.066-.015c.011.011.007.042.009.062l.055.829q.36 5.748.727 11.43c.54 7.622 1.378 15.126 2.346 22.59l.557 4.147c.054.1-.09.084-.145.12l-.45.151c-.914.306-1.824.63-2.729.965q-2.709 1.024-5.347 2.24-1.314.611-2.61 1.265l-1.288.664-1.391.749-1.124.63-.562.314-.281.157-.142.079a1.382 1.382 0 00-.008.158v.27a3.916 3.916 0 00-.893-.208 7.766 7.766 0 00-1.181-.064c-.213 0-.48.037-.72.054a6.617 6.617 0 00-.768.09c-.549.09-1.093.18-1.7.328-.585.124-1.194.284-1.811.456s-1.246.35-1.84.534l-1.1.347c-2.935.945-5.838 2.022-8.82 3.221s-6.068 2.52-9.214 4.134a40.321 40.321 0 01-4.838 1.938l-1.71.54a7.748 7.748 0 01-1.032.236c.5-.147.49-.18.321-.148-.09.014-.234.039-.411.052-.159 0-.434.034-.531-.15.02-.27.3-.45.473-.6a1.125 1.125 0 01.485-.249l.675-.36 2.1-1.334 4.146-2.6c2.7-1.674 5.289-3.247 7.9-4.623-.007-.013.05-.059.343-.23 3.06-1.53 6.257-2.854 9.469-4.177-5.616 2.711 6.829-3.139 1.657-.674 3.161-1.26 6.462-2.573 9.824-4.077a104.131 104.131 0 005.061-2.442c.843-.442 1.688-.9 2.527-1.379a16.64 16.64 0 001.316-.8l.327-.23.385-.292a11.2 11.2 0 00.893-.792 5.146 5.146 0 001.8-3.617 3.855 3.855 0 00-.148-.935 1.905 1.905 0 00-.508-.758 3.007 3.007 0 00-1.652-.553 11.618 11.618 0 00-2.327.141l-1.17.188-.748.139q-1.485.291-2.954.638c-3.915.924-7.811 2.041-11.712 3.266s-7.8 2.578-11.656 4.093c-1.93.76-3.848 1.563-5.747 2.444s-3.757 1.89-5.544 2.843-3.593 1.89-5.4 2.686l-.675.292-.45.185a6.5 6.5 0 01-.469.163 1.428 1.428 0 01-.962.051.289.289 0 01-.105-.423 1.9 1.9 0 01.287-.4c.109-.123.225-.237.343-.348l.18-.161.295-.253c.732-.615 1.5-1.206 2.272-1.764.762-.555 1.579-1.069 2.411-1.611l-1.2.676c6.624-4.41 15.1-9.556 20.476-12.306 5.357-2.79 11.61-6.312 13.725-7.324 2.96-1.52 5.833-2.754 7.7-3.541a9.9 9.9 0 002-1.19c.146-.107.193-.139.153-.1q.366-.333.7-.7a5.45 5.45 0 001-1.686 3.077 3.077 0 00.126-1.771 2.974 2.974 0 00-.941-1.523 2.181 2.181 0 00-1.609-.532 7.174 7.174 0 00-1.989.321l-.512.144-.421.137-.68.239-1.35.514c-3.584 1.43-7.33 3.213-11.88 5.059-.793.264-2.733 1-5.246 2.009l-8.438 3.49c-2.927 1.214-5.774 2.348-7.92 3.139a23.619 23.619 0 01-3.69 1.19l-.09.063q-2.3.729-4.574 1.4l-2.25.63-1.03.265-.755.18a1.533 1.533 0 01-.385.068c-.152-.013-.176-.189-.149-.305a1.6 1.6 0 01.353-.672c.147-.211.319-.407.487-.609a6.588 6.588 0 01.546-.572c.379-.38.817-.746 1.238-1.109a32.019 32.019 0 012.728-2.024 99.973 99.973 0 0112.841-6.648l-.63.36 24.508-12.948-7.61 2.378-22.063 9.569a65.128 65.128 0 00-10.53 6.068 28.546 28.546 0 00-2.423 2.022l-.408.391a9.789 9.789 0 00-.488.49c-.319.326-.583.666-.878 1a13.6 13.6 0 00-1.459 1.98l-.162.245a1.261 1.261 0 00-.077.213l-.133.416a6.222 6.222 0 00-.232.816 2.476 2.476 0 00.309 1.562 1.171 1.171 0 00.54.5l.779.126 1.557.252 2.3-.571 1.15-.285.574-.143.463-.127c.843-.248 1.693-.475 2.529-.74a128.067 128.067 0 004.989-1.635c3.3-1.15 6.547-2.4 9.767-3.69l9.6-3.905 4.822-1.941c1.62-.675 3.2-1.374 4.784-2.07 1.99-.848 3.971-1.7 5.951-2.479a62.88 62.88 0 012.954-1.093l.728-.231.145-.043.066-.016a1.3 1.3 0 01.257-.034c.189-.021.263.246.18.38a.7.7 0 01-.152.192.5.5 0 01-.08.065 5.161 5.161 0 01-.5.36 5.849 5.849 0 01-.531.307l-.27.128-.374.165-1.5.66-2.98 1.342q-11.889 5.433-23.255 11.948-6.876 4-13.521 8.392c-1.088.7-2.293 1.53-3.361 2.372l-.81.649-.931.79a17.056 17.056 0 00-2.53 2.657 4.077 4.077 0 00-.916 2.43 2.6 2.6 0 00.283 1.153c.114.2.247.394.371.582a3.47 3.47 0 00.457.45 3.7 3.7 0 002.35.736 10.527 10.527 0 003.377-.689c.559-.192 1.333-.5 1.535-.586l.953-.414q.942-.423 1.852-.871c1.215-.6 2.4-1.217 3.572-1.838 2.362-1.272 4.553-2.447 6.93-3.466A154.632 154.632 0 01549 249.687a149.787 149.787 0 0115.01-4.065l.974-.18a1.124 1.124 0 01.141-.015c.135-.013.063.164.009.212l-.05.052-.028.024-.114.09a12.274 12.274 0 01-1.473.927 69.91 69.91 0 01-3.387 1.824c-9.168 4.675-19.428 7.74-28.827 13.05q-3.954 2.3-7.765 4.823c-.7.426-1.412.858-2.12 1.311l-1.119.727c-.61.427-1.26.853-1.847 1.3a12.782 12.782 0 00-2.922 2.686c-.149.2-.227.393-.349.594zm4.05 14.239q-1.96-5.808-3.623-11.662a1.51 1.51 0 00.2.157 3.362 3.362 0 001.08.5 8.553 8.553 0 003.562-.021 29.194 29.194 0 002.241-.485 21 21 0 001.1-.3l.638-.188q1.272-.381 2.529-.839c.84-.307 1.677-.636 2.516-1.006.419-.186.839-.381 1.26-.593l1.138-.558c1.53-.73 3.12-1.434 4.724-2.116 3.209-1.364 6.5-2.661 9.828-3.821q1.246-.435 2.5-.833l.464-.145a2.236 2.236 0 01.76-.121c.043.01.109.024.111.076a.219.219 0 01-.074.114 1.872 1.872 0 01-.223.173 8.815 8.815 0 01-.489.308l-5.889 3.363c-4.59 2.61-9.09 5.228-13.324 8.037l-.339.505c-3.15 2.194-4.561 3.347-5.421 4.01l-.774.63-.741.639c-.481.4-.887.8-1.494 1.395a21.09 21.09 0 00-2.264 2.785zm3.906 10.827q-1.389-3.61-2.672-7.262l.263.058a.454.454 0 00.237-.006l.287-.044 1.147-.18c.388-.065.872-.223 1.3-.33.45-.13.87-.211 1.35-.387.939-.321 1.869-.6 2.82-.977l.975-.383.771-.32 1.53-.658c4.05-1.792 7.92-3.842 11.766-5.843 1.922-1 3.837-1.992 5.749-2.891l.421-.192.217-.09a.891.891 0 01.466-.077.124.124 0 01.078.187.735.735 0 01-.138.189 3.378 3.378 0 01-.36.316l-.623.46-1.3.92c-.875.607-1.766 1.2-2.664 1.8-3.594 2.361-7.285 4.632-10.953 6.975l-2.746 1.779-1.368.912-.773.527-1.208.851a19.468 19.468 0 00-3.9 3.406 4.83 4.83 0 00-.684 1.268zm5.677 13.579l-.333-.1a15.5 15.5 0 01-1.22-3.32q-1.566-3.664-3.034-7.4a3.759 3.759 0 001.192.313 11.782 11.782 0 004.561-.82c.9-.288 1.833-.641 2.707-.972l1.575-.623 3.007-1.251c3.978-1.694 7.883-3.463 11.79-5.083 1.948-.8 3.921-1.59 5.827-2.173a1.72 1.72 0 01.63-.108c.134 0 .139.143.121.24a.739.739 0 01-.105.3 1.321 1.321 0 01-.18.253 10.563 10.563 0 01-.972.99 22.454 22.454 0 01-2.311 1.836c-1.631 1.158-3.438 2.182-5.259 3.314a120.786 120.786 0 00-10.559 7.156c-.838.68-1.679 1.343-2.486 2.1-.2.187-.409.36-.606.558l-.694.7a20.162 20.162 0 00-1.663 2.09c-.81 1.433-1.17 2.691-.669 3.922a3.391 3.391 0 00.549.865 2.209 2.209 0 00.72.466 3.31 3.31 0 001.8.09 12.769 12.769 0 002.43-.81l1.26-.557.8-.374c.949-.45 1.88-.91 2.8-1.375a393.166 393.166 0 005.468-2.826l5.389-2.824 4.441-2.282.5-.236.243-.111c.08-.019.158-.113.24-.048s.059.171.018.248a1.336 1.336 0 01-.15.23 4.346 4.346 0 01-.36.395l-.853.81q-1.056.99-2.145 1.953a224.93 224.93 0 01-4.4 3.791c-2.568 2.111-8.041 6.516-13.028 10.768l-.307.262-.155.333a6.11 6.11 0 00-.2.476c-.038.119-.07.243-.1.366l-.036.186a2.978 2.978 0 00-.018.3 2.174 2.174 0 00.015.312 1.531 1.531 0 00.071.36 2.3 2.3 0 00.416.81 2.513 2.513 0 00.665.554 3.1 3.1 0 00.568.226 3.352 3.352 0 001.2.06 6.5 6.5 0 00.72-.128 16.7 16.7 0 002.092-.694 61.829 61.829 0 003.364-1.483l4.601-2.227 10.08-5.524q1.32-.72 2.644-1.432c-.307.255-.611.511-.921.765-1.285 1.061-2.588 2.1-3.895 3.292l-.914.852c-.277.27-.573.523-.877.776a41.448 41.448 0 01-1.871 1.5c-2.573 1.97-5.388 3.807-7.969 6.161a20.67 20.67 0 00-3.515 4.061 11.26 11.26 0 00-.694 1.212l-.164.311a2.8 2.8 0 00-.231.6 3.28 3.28 0 00-.073.368 2.966 2.966 0 00-.022.252v.2l.012.14a2.294 2.294 0 00.043.234 1.831 1.831 0 00.083.25c-4-7.535-8.6-16-11.653-23.812zm14.749 23.253l.136.063zm-2.261-1.277l.849 1.129c-1.519-2.016-.907-1.2-.853-1.132zm-.081-.107l.076.1zm10.1 17.77l-.052.1a.749.749 0 00-.044.09 2.032 2.032 0 00-.114.365 2.07 2.07 0 00.2 1.409 304.138 304.138 0 01-5.67-9l-2.081-2.935c-.9-1.755-1.877-3.6-2.891-5.5a1.707 1.707 0 00.3.342 1.768 1.768 0 00.7.387 1.81 1.81 0 001.366-.142c.376-.227.21-.139.256-.162l.059-.044.12-.09c.636-.457 1.26-.922 1.922-1.35l-.611.442a89.883 89.883 0 018.081-4.93c.36-.18.419-.18.159-.016 2.1-1.184 4.527-2.446 7.173-3.733 1.322-.646 2.7-1.294 4.119-1.949l1.394-.635.392-.168.459-.189c.07-.072.164.045.139.129a.707.707 0 01-.117.246 2.42 2.42 0 01-.353.383l-.18.158-.383.316c-3.031 2.511-6.281 4.789-9.263 6.948l.615-.479-3.87 2.839-1.929 1.466c-.2.154-.943.732-1.482 1.2l-.86.72-.775.73-.387.36c-.116.121-.209.239-.314.36l-.607.71a14.051 14.051 0 00-.765 1.289 4.318 4.318 0 00-.578 2.41 2.311 2.311 0 00.422 1.144 2.036 2.036 0 00.72.589 1.8 1.8 0 00.871.235c.193.01.36.036.575.031l.744-.1a24.069 24.069 0 003.826-1.341l1.022-.431.945-.421 1.394-.63q2.171-1 4.3-2.052 4.23-2.081 8.363-4.294c-3.78 3.144-7.772 6.145-11.644 9.36-1.207 1.009-2.4 2.034-3.579 3.2a13.557 13.557 0 00-1.748 2.056c-.073.108-.149.253-.221.381zm12.053 13.242l-.712.858c-.221.285-.374.571-.565.857a10.989 10.989 0 00-.8 1.427q-5.107-6.91-9.794-14.123a1.97 1.97 0 001.822.76 2.07 2.07 0 00.61-.18l.033-.017.067-.034.131-.066 1.058-.532c2.8-1.44 5.49-2.983 8.162-4.531l7.961-4.657c1.324-.768 2.648-1.53 3.976-2.269l2-1.1 1.72-.908a1.871 1.871 0 01.712-.27.083.083 0 01.085.02.086.086 0 01.021.085.711.711 0 01-.052.174 1.949 1.949 0 01-.173.325.7.7 0 01-.12.141l-.341.323c-.54.5-1.092.983-1.658 1.456-1.136.942-2.323 1.838-3.551 2.707s-2.493 1.718-3.769 2.576c-1.26.85-2.592 1.731-3.87 2.722-.634.5-1.26 1.007-1.867 1.55l-.45.41-.562.54c-.514.49-.948 1-1.413 1.509a19.149 19.149 0 00-3.5 5.712 3.377 3.377 0 00-.137.6 2.46 2.46 0 00-.077.559 3.679 3.679 0 00.09.924 2.21 2.21 0 00.113.422 1.42 1.42 0 00.371.5c.16.034.31.049.466.075a7.764 7.764 0 001.509 0c.147.153.97-.428 1.578-.777l1.926-1.157 3.87-2.278 2.166-1.2q2.12-1.154 4.27-2.267a327.285 327.285 0 018.7-4.32l2.486-1.175a29.69 29.69 0 01-1.825 1.35 89.8 89.8 0 01-8.394 4.8 66.539 66.539 0 00-8.752 5.24 26.437 26.437 0 00-2.06 1.718c-.112.109-.458.43-.72.7s-.5.55-.741.835zm6.429 9.794a9.959 9.959 0 00-1.149 2.087l-.061.143a1.978 1.978 0 00-.106.442q-2.178-2.7-4.294-5.461l1.66-.44a49.527 49.527 0 004.692-2.013c2.124-1.061 4.166-2.25 6.176-3.484 4.033-2.448 7.948-5.13 12.024-7.447q.762-.45 1.53-.847c.514-.27 1.026-.562 1.547-.8l1.316-.63.263-.108c.062-.02.158-.073.207 0a.477.477 0 01-.105.2l-.038.044-.316.32c-.413.389-.829.78-1.28 1.154a44.1 44.1 0 01-2.814 2.194c-1.956 1.423-4.035 2.776-6.133 4.151s-4.236 2.761-6.348 4.275a33.3 33.3 0 00-6.1 5.336 9.6 9.6 0 00-.675.881zm3.337.81c-.159.18-.317.36-.469.558l-.389.18c.133-.18.281-.355.431-.528.044-.022.09-.04.13-.062.094-.05.2-.1.294-.151zm-1.53 2.527s-.068-.023-.314-.113zm-.4-.144l-.4-.148zm-.522-.148l.052.117-.052-.116.057.129-.068-.154v.008zm4.513 4.437l-.974 2.079q-1.881-2.178-3.717-4.395a1.732 1.732 0 00.238.026 2.116 2.116 0 00.663-.125l.164-.066.028-.012.222-.1c1.192-.54 2.366-1.1 3.536-1.677 2.329-1.163 4.618-2.4 6.881-3.675 2.51-1.418 4.983-2.9 7.431-4.424-.758.5-1.54 1.013-2.356 1.55-1.89 1.26-3.926 2.61-5.977 4.269-.514.409-1.039.81-1.539 1.287l-1.374 1.26a15.881 15.881 0 00-1.186 1.34zm20.154 21.789l-.607.764-.078.1a2.827 2.827 0 00-.223.369 2.3 2.3 0 00-.111.321q-2.811-2.471-5.522-5.052c-4.174-4.215-8.145-8.617-11.98-13.14l.575-.1.622-.112.311-.056c.053-.012.1-.015.159-.032l.214-.09 1.71-.762 1.716-.773c.605-.326 1.2-.619 1.821-1l1.355-.793.923-.572c1.236-.763 2.43-1.556 3.633-2.346 2.383-1.589 4.715-3.194 7.033-4.709a76.5 76.5 0 016.9-4.123c.566-.317 1.139-.568 1.71-.831l.232-.108.017-.01.017-.009a.246.246 0 01.09-.03c.04.017 0 .046-.006.068l-.029.038-.08.08-.4.365c-3.182 2.849-6.4 5.055-8.8 6.864-2.43 1.792-4.129 3.142-4.852 3.76 2.633-2.028 5.339-3.825 7.971-5.652-4.86 3.634-9.472 6.719-13.017 10.945a15.268 15.268 0 00-2.872 5.162 3.678 3.678 0 00-.022 1.858 1.613 1.613 0 00.418.839 1.165 1.165 0 00.672.4 2.922 2.922 0 001.655.028 14.955 14.955 0 002.447-1.036c.853-.44 1.739-.942 2.572-1.462l.822-.514.714-.462c3.763-2.483 7.126-5.053 10.505-7.589l2.532-1.9 1.057-.775a7.23 7.23 0 01.518-.339.873.873 0 01.294-.118c.071-.012.084.054.071.106a.79.79 0 01-.018.154 1.649 1.649 0 01-.287.63c-.068.1-.145.2-.226.292l-.129.144-.227.236-.327.326c-1.765 1.737-3.844 3.42-6.048 5.229l1.106-.968c-.757.593-1.415 1.151-2.5 2.08-1.074.952-2.63 2.181-4.98 4.56a23.514 23.514 0 00-1.842 2.133 15.772 15.772 0 00-.943 1.394l-.44.823-.2.456-.1.233-.05.117a2.118 2.118 0 00-.1.377 2.088 2.088 0 00.338 1.554 1.855 1.855 0 00.45.46 1.687 1.687 0 001.679.166 1.972 1.972 0 00.251-.138l.024-.016.09-.063.756-.525 1.61-1.1 3.6-2.494c2.578-1.792 5.533-3.853 8.966-6.173l2.662-1.78c-.206.189-.4.379-.616.567l-.018-.02c-.636.574-.872.821-1.447 1.312.319-.261.652-.516.964-.78.455-.385.9-.777 1.333-1.17l.18-.164.244-.161-.23.237c-.351.371-.741.72-1.11 1.08a75.415 75.415 0 01-2.395 2.148c-1.688 1.458-3.583 2.99-5.877 4.893a10.541 10.541 0 01-1.485 1.08 44.952 44.952 0 00-5.356 5.287zm6.379 7.419c-.027.076-.041.15-.061.226q-2.058-1.612-4.066-3.289l.03-.01.276-.1c.18-.067.372-.133.54-.206a20.461 20.461 0 003.377-2.05c1.29-.846 2.5-1.735 3.7-2.625a44.403 44.403 0 001.44-1.26l.51-.477a.762.762 0 00.123-.165 4.12 4.12 0 01.878-.876 5.188 5.188 0 01.694-.47c.127-.06.295-.194.45-.052.134.194-.1.44-.242.635.346-.391.508-.589.54-.561s-.09.226-.245.48c-.314.5-.8 1.193-.535.94l-.379.433-.218.25-.095.12-.231.29a263.446 263.446 0 01-3.637 4.962c-.68.9-1.39 1.827-2.112 2.718l-.27.333-.073.09-.156.212a2.434 2.434 0 00-.24.447zm12.261-12.091c-.039-.034-.073-.09-.1-.277a15.31 15.31 0 01.048 2.326l-.288-.732.27 2.392c-.078 1.594.13 3.921-.064 3.711l-.057-.906-.07 12.08-.23.168a16.494 16.494 0 01.118 3.013 145.275 145.275 0 01-4.981-4.284 168.104 168.104 0 01-3.614-2.61l.069-.031a8.6 8.6 0 001.649-1.158c.459-.4.869-.792 1.26-1.178.776-.771 1.459-1.5 2.079-2.145a21.57 21.57 0 011.624-1.562 3.414 3.414 0 01.5-.36c.03.059.013 0-.014-.107a.562.562 0 00.016.071h-.007a1.774 1.774 0 00-.242.123 16.394 16.394 0 00-2.243 1.951 43.922 43.922 0 01-3.542 3.25 7.269 7.269 0 01-1.315.82c-.056.025-.122.046-.18.071q-1.329-.99-2.639-2.012a1.988 1.988 0 01.315-.753l.105-.137.062-.072.116-.133.232-.27.465-.548c1.24-1.481 2.482-3.06 3.69-4.613l3.06-4c.818-1.08 1.642-2.182 2.383-3.227a4.349 4.349 0 00.5-.79.672.672 0 00-.09-.772c-.418-.284-.81-.016-1.089.11.4-.261.894-.471 1.249-.219a.542.542 0 01.18.52 1.265 1.265 0 01-.18.47l-.737 1.115c-.309.459-.27.417-.043.108s.658-.887 1.063-1.537c.186-.317.24-.8-.043-1a.81.81 0 00-.71-.079c-.233.14-.444.311-.655.464a24.165 24.165 0 00-2.112 1.356c-2.058 1.477-2.446 1.692-4.289 3.135.008.011.09-.034.162-.073l.28-.256c.236-.155.12-.035-.115.18.076-.02-.116.18-1.381 1.186l.23-.208c-1.9 1.581-5.316 4.23-7.145 4.86l-.083-.114a1.418 1.418 0 01-1.038.188.835.835 0 01-.54-.471.545.545 0 01.016-.423 2.378 2.378 0 01.247-.342 26.671 26.671 0 012.709-2.982 105.609 105.609 0 018.169-6.759c1.5-1.164 3-2.34 4.4-3.544.7-.6 1.376-1.209 2.011-1.826a1.438 1.438 0 00.294-.314c-.021.36-.042.758-.059 1.245.072-.752.18-1.9.229-.161a16.837 16.837 0 01-.18 1.9c.247.277.384 3.362.264 6.159z" fill="#00f"/><path d="M407.047 88.8l16.48.033-.009 4.464-11.644-.024-.012 5.952 9.375.019-.009 4.464-9.375-.019-.022 11.16-4.831-.005zm20.185 7.331l4.613.01-.006 3.05a7.442 7.442 0 012.46-2.469 5.883 5.883 0 013.089-.868 7.876 7.876 0 012.269.377l-.864 4.276a3.658 3.658 0 00-1.934-.525 4.265 4.265 0 00-3.612 1.983q-1.417 1.988-1.426 6.266l-.014 6.659-4.612-.01zm18.862 17.82a8.421 8.421 0 01-3.285-3.466 11.351 11.351 0 01.02-9.9 8.418 8.418 0 013.3-3.453 10.9 10.9 0 0110.193.02 8.434 8.434 0 013.285 3.466 11.351 11.351 0 01-.02 9.9 8.418 8.418 0 01-3.3 3.453 10.9 10.9 0 01-10.193-.02zm8.528-4.317a7.191 7.191 0 00.016-8.147 4.366 4.366 0 00-6.845-.013 7.191 7.191 0 00-.016 8.147 4.366 4.366 0 006.845.013zm10.294-13.427l4.613.009-.006 3.014a8.409 8.409 0 012.367-2.47 5.42 5.42 0 013.033-.83 5.6 5.6 0 013.235.973 5.237 5.237 0 012 2.906 8.06 8.06 0 012.516-2.841 5.62 5.62 0 013.22-1.016 5.45 5.45 0 014.089 1.533 5.818 5.818 0 011.48 4.244l-.027 13.28-4.61-.009.025-12.5q.006-2.6-2.3-2.609a3.338 3.338 0 00-2.924 2 11.992 11.992 0 00-1.146 5.8l-.015 7.291-4.613-.009.025-12.5q.006-2.6-2.3-2.609a3.339 3.339 0 00-2.924 2.1 13.158 13.158 0 00-1.147 6.117l-.014 6.882-4.613-.009zm47.263 18.435a4.23 4.23 0 01-1.69-1.529v1.934l-4.612-.009.052-26.337 4.613.009-.018 9.3a5.056 5.056 0 011.9-1.41 6.128 6.128 0 012.642-.59 7.839 7.839 0 016.337 2.635 10.582 10.582 0 012.2 7.054 10.573 10.573 0 01-2.228 7.045 7.834 7.834 0 01-6.348 2.61 5.674 5.674 0 01-2.848-.708zm5.348-4.751a7.841 7.841 0 00.016-8.426 3.858 3.858 0 00-3.121-1.513 3.81 3.81 0 00-3.11 1.5 7.981 7.981 0 00-.017 8.445 3.96 3.96 0 006.232-.006zM527.8 88.748l4.613.01-.053 26.337-4.613-.009zm11.351 25.208a5.421 5.421 0 01-1.572-4.207l.027-13.392 4.612.009-.024 12.016a3.254 3.254 0 00.721 2.345 2.6 2.6 0 001.951.748 3.069 3.069 0 002.123-.889 6.277 6.277 0 001.567-2.619 12.67 12.67 0 00.6-4.11l.015-7.477 4.613.009-.038 18.749-4.613-.009.006-3.013a8.494 8.494 0 01-2.571 2.413 6.185 6.185 0 01-3.239.886 5.951 5.951 0 01-4.179-1.459zm22.692.064a8.5 8.5 0 01-2.968-3.652 11.594 11.594 0 01.018-9.188 8.5 8.5 0 012.983-3.64 8.588 8.588 0 015.081-1.422 8.123 8.123 0 017.8 4.926 10.74 10.74 0 01.921 4.355v1.9l-12.909-.026a4.539 4.539 0 001.24 2.978 4.126 4.126 0 003.178 1.272 4.621 4.621 0 002.624-.7 6.406 6.406 0 001.921-2.191l3.717 1.384a8.483 8.483 0 01-8.53 5.451 8.59 8.59 0 01-5.077-1.447zm9.116-10.379a5.093 5.093 0 00-1.315-2.57 3.609 3.609 0 00-2.7-1.01 3.755 3.755 0 00-2.718 1.037 4.516 4.516 0 00-1.344 2.527zm8.906-7.2l4.613.009v1.934a4.216 4.216 0 011.7-1.521 5.655 5.655 0 012.848-.7 7.837 7.837 0 016.337 2.635 10.574 10.574 0 012.2 7.054 10.576 10.576 0 01-2.227 7.045 7.84 7.84 0 01-6.348 2.61 6.125 6.125 0 01-2.64-.6 5.066 5.066 0 01-1.895-1.417l-.018 9.3-4.613-.01zm11.616 13.6a7.844 7.844 0 00.017-8.426 3.858 3.858 0 00-3.122-1.513 3.806 3.806 0 00-3.109 1.5 7.979 7.979 0 00-.017 8.444 3.959 3.959 0 006.231-.006zm10.257-13.557l4.613.009-.006 3.05a7.442 7.442 0 012.46-2.469 5.9 5.9 0 013.09-.868 7.875 7.875 0 012.268.377l-.864 4.276a3.646 3.646 0 00-1.934-.524 4.265 4.265 0 00-3.612 1.983q-1.417 1.988-1.426 6.265l-.013 6.659-4.613-.009zm15.705-3.242a3.057 3.057 0 112.119.859 2.881 2.881 0 01-2.12-.857zm-.192 3.273l4.613.009-.038 18.749-4.613-.009zm9.821.02l4.612.009-.006 3.013a8.5 8.5 0 012.572-2.413 6.182 6.182 0 013.238-.886 5.946 5.946 0 014.182 1.459 5.423 5.423 0 011.573 4.207l-.027 13.392-4.613-.009.024-12.016a3.259 3.259 0 00-.72-2.345 2.606 2.606 0 00-1.952-.748 3.062 3.062 0 00-2.122.889 6.272 6.272 0 00-1.568 2.619 12.665 12.665 0 00-.6 4.109l-.015 7.478-4.613-.01zm23.81 17.345a6.837 6.837 0 01-1.812-5.174l.016-8.184-2.9-.006.008-3.943 2.9.006.009-4.687L653.721 89l-.015 7.589 4.947.01-.008 3.943-4.947-.01-.016 8.11a3.542 3.542 0 00.609 2.363 2.339 2.339 0 001.84.692 3.805 3.805 0 001.786-.443l1.072 3.722a7.2 7.2 0 01-3.052.664 7.008 7.008 0 01-5.056-1.758zm22.99.047a6.844 6.844 0 01-1.813-5.175l.017-8.184-2.9-.006.008-3.943 2.9.006.009-4.687 4.619-2.893-.016 7.589 4.948.01-.008 3.943-4.948-.01-.016 8.11a3.554 3.554 0 00.609 2.363 2.337 2.337 0 001.84.692 3.8 3.8 0 001.787-.443l1.071 3.723a7.2 7.2 0 01-3.052.663 7.006 7.006 0 01-5.056-1.756zm14.693.513a8.426 8.426 0 01-3.286-3.467 11.36 11.36 0 01.02-9.895 8.436 8.436 0 013.3-3.453 10.9 10.9 0 0110.193.021 8.415 8.415 0 013.285 3.466 11.355 11.355 0 01-.019 9.895 8.424 8.424 0 01-3.3 3.453 10.9 10.9 0 01-10.193-.02zm8.527-4.317a7.194 7.194 0 00.017-8.147 4.366 4.366 0 00-6.845-.014 7.194 7.194 0 00-.017 8.147 4.366 4.366 0 006.845.014zm19.52-13.409l4.613.01-.006 3.05a7.424 7.424 0 012.46-2.469 5.883 5.883 0 013.089-.868 7.842 7.842 0 012.269.377l-.865 4.276a3.652 3.652 0 00-1.933-.525 4.265 4.265 0 00-3.612 1.983q-1.417 1.987-1.426 6.266l-.014 6.658-4.613-.009zm18.36 17.651a8.491 8.491 0 01-2.972-3.649 11.6 11.6 0 01.019-9.189A8.494 8.494 0 01735 97.888a8.588 8.588 0 015.081-1.422 8.126 8.126 0 017.8 4.926 10.735 10.735 0 01.921 4.354v1.9l-12.908-.026a4.544 4.544 0 001.24 2.979 4.125 4.125 0 003.178 1.271 4.629 4.629 0 002.624-.7 6.4 6.4 0 001.92-2.191l3.718 1.383a8.482 8.482 0 01-8.53 5.452 8.582 8.582 0 01-5.073-1.447zm9.116-10.379a5.09 5.09 0 00-1.315-2.569 3.6 3.6 0 00-2.7-1.01 3.754 3.754 0 00-2.718 1.036 4.51 4.51 0 00-1.344 2.527zm9.5 10.361a5.454 5.454 0 01-1.588-4.205 5.4 5.4 0 012.129-4.46 9 9 0 015.732-1.662l3.274.006v-.818a2.4 2.4 0 00-.926-2.066 3.833 3.833 0 00-2.342-.693 3.153 3.153 0 00-3.24 2.151l-3.9-.9a5.9 5.9 0 012.407-3.771 7.8 7.8 0 014.746-1.422 8.049 8.049 0 015.818 2 7.773 7.773 0 012.053 5.864l-.023 11.2-3.794-.008-.479-2.382a7.09 7.09 0 01-5.771 2.667 5.768 5.768 0 01-4.094-1.499zm8.265-3.5a3.483 3.483 0 001.271-2.806v-.372l-3.087-.006a4.038 4.038 0 00-2.364.59 2.087 2.087 0 00-.84 1.821 1.665 1.665 0 00.574 1.322 2.2 2.2 0 001.5.5 4.433 4.433 0 002.948-1.046zm10.757-21.61l4.613.009-.053 26.338-4.613-.01zm10 4.335a3.056 3.056 0 112.119.86 2.878 2.878 0 01-2.119-.857zm-.192 3.273l4.613.01-.038 18.748-4.613-.009zm12.241 17.323a6.839 6.839 0 01-1.812-5.168l.016-8.184-2.9-.006.008-3.943h2.9l.009-4.687 4.62-2.89-.015 7.589 4.947.01-.008 3.943-4.947-.01-.016 8.109a3.547 3.547 0 00.609 2.364 2.343 2.343 0 001.84.692 3.817 3.817 0 001.786-.443l1.071 3.722a7.187 7.187 0 01-3.051.664 7.012 7.012 0 01-5.057-1.759zm15.884.292l-6.772-17.572 4.65.01 4.328 11.763 4.116-11.747 4.613.01-9.725 26.318-4.464-.009zm-655.58-27.178" fill="#00f" fill-rule="evenodd"/></svg>