<svg width="24" height="24" fill="none" xmlns="http://www.w3.org/2000/svg"><path d="M20.125 7.099h-.014l-.006.014-.007.015-.172.246a2.1 2.1 0 01-.182.246c-.01 0-.022.017-.038.042-.09.113-.186.22-.287.322a7.067 7.067 0 01-.518.502.698.698 0 00-.256.543c0 .215-.014.462-.031.726a9.688 9.688 0 01-.102.874 11.084 11.084 0 01-.608 2.217 9.24 9.24 0 01-.467 1.01 9.416 9.416 0 01-.86 1.344c-.139.183-.316.39-.53.62l-.351.375a12.138 12.138 0 01-.765.651 6.8 6.8 0 01-.49.346 8.418 8.418 0 01-.54.314c-.22.124-.447.234-.68.33-.243.1-.5.195-.77.28-.258.084-.52.152-.785.204-.253.047-.54.089-.859.122l-.48.051v.007h-.913v-.007l-.115-.008-.19-.014c-.049 0-.237-.031-.561-.08a7.661 7.661 0 01-.764-.144 9.74 9.74 0 01-.826-.275 7.817 7.817 0 01-.937-.408l-.487-.217a2.939 2.939 0 01-.217-.134l-.122-.079-.013-.007-.03-.025h-.027v-.029h.027l.062.007c.04 0 .15.013.33.022a5.988 5.988 0 001.198-.065 6.375 6.375 0 001.552-.465c.24-.115.412-.198.513-.255.16-.093.314-.195.463-.306l.311-.224h.027v-.029L9.5 15.75l-.21-.014a2.826 2.826 0 01-.785-.239 3.49 3.49 0 01-.487-.274 2.318 2.318 0 01-.341-.265 5.716 5.716 0 01-.271-.294 2.972 2.972 0 01-.251-.448 3.5 3.5 0 01-.233-.462l-.108-.263-.007-.02-.007-.023v-.028h.04l.15.022c.155.016.31.02.466.014.147 0 .294-.01.44-.029.081-.014.131-.024.148-.029l.027-.007.035-.006.033-.008-.028-.007-.027-.008-.027-.007-.027-.007-.027-.007-.092-.042a5.402 5.402 0 01-.365-.16 2.68 2.68 0 01-.81-.551 3.939 3.939 0 01-.346-.402 2.927 2.927 0 01-.339-.571 3.431 3.431 0 01-.324-1.22l-.024-.304h.027l.013.008.014.007.013.007.014.007.21.101c.168.077.342.135.521.174.206.048.33.075.372.08l.06.006h.122l-.014-.007-.013-.007-.013-.007-.014-.006-.116-.093a1.918 1.918 0 01-.233-.23 10.262 10.262 0 01-.244-.304 2.423 2.423 0 01-.216-.34 4.407 4.407 0 01-.2-.462 3.52 3.52 0 01-.159-.56 3.387 3.387 0 01-.097-.597 3.096 3.096 0 01.095-.91 3.65 3.65 0 01.175-.52l.116-.274.004-.028.006-.022.007.015.006.015.183.217c.121.144.266.305.432.484.087.1.18.192.278.277.027.017.05.04.067.067.085.09.176.176.271.255.154.135.354.292.602.47.25.178.524.354.825.527.314.18.64.336.973.47.348.14.592.23.73.274.14.043.379.098.718.166.338.068.593.115.764.13.172.015.289.03.352.034h.095V9.47l-.028-.181a3.746 3.746 0 01-.027-.506 3.54 3.54 0 01.047-.599c.033-.19.08-.375.143-.556a3.03 3.03 0 01.185-.453c.074-.133.154-.261.24-.385a3.11 3.11 0 01.927-.86c.18-.109.368-.2.562-.275a2.53 2.53 0 01.432-.123c.06-.007.119-.018.177-.033h.703l.257.054c.16.033.315.08.466.141a3.865 3.865 0 01.762.433c.102.075.197.16.285.252a.377.377 0 00.388.069c.192-.049.382-.11.568-.181a7.19 7.19 0 00.602-.26c.2-.097.324-.157.362-.184l.068-.042.014-.007.013-.008.014-.007.013-.007h.027v.044l-.007.02-.007.022-.006.015-.007.014-.007.022a.566.566 0 00-.013.058c-.037.099-.08.195-.129.289-.088.18-.19.351-.304.513a2.413 2.413 0 01-.325.393c-.097.09-.16.152-.193.188a.535.535 0 01-.115.1l-.068.049-.013.007-.014.007-.014.007-.013.007h.067l.38-.087a6.41 6.41 0 00.724-.209l.364-.13.04-.014.021-.008.013-.007.015-.007.012-.007.014-.008h.054l.007.068z" fill="#fff"/></svg>