<svg id="Layer_1" data-name="Layer 1" xmlns="http://www.w3.org/2000/svg" viewBox="0 0 286.393 208">
  <title>kow-brand-s</title>
  <path d="M-.451,111.209h79.8v96.52H-.451Z" fill="none"/>
  <path d="M25.12,109.37a2.8,2.8,0,0,1-1.093,2.352,4.75,4.75,0,0,1-2.969.844,7.437,7.437,0,0,1-3.125-.524v-1.281a8.206,8.206,0,0,0,1.531.469,8.085,8.085,0,0,0,1.641.172,3.316,3.316,0,0,0,2-.5,1.655,1.655,0,0,0,.672-1.4,1.8,1.8,0,0,0-.239-.972,2.211,2.211,0,0,0-.8-.7,11.028,11.028,0,0,0-1.7-.726,5.429,5.429,0,0,1-2.277-1.352,2.979,2.979,0,0,1-.684-2.039,2.535,2.535,0,0,1,.992-2.1,4.123,4.123,0,0,1,2.625-.782,7.735,7.735,0,0,1,3.133.625l-.414,1.157a7.081,7.081,0,0,0-2.75-.594,2.665,2.665,0,0,0-1.648.453,1.494,1.494,0,0,0-.594,1.258,1.92,1.92,0,0,0,.219.972,2.039,2.039,0,0,0,.738.7,9.153,9.153,0,0,0,1.59.7,6.3,6.3,0,0,1,2.473,1.375A2.707,2.707,0,0,1,25.12,109.37Z" fill="#111"/>
  <path d="M33.12,112.409V106.87a2.235,2.235,0,0,0-.476-1.562,1.94,1.94,0,0,0-1.492-.516,2.443,2.443,0,0,0-1.973.735,3.718,3.718,0,0,0-.621,2.406v4.476h-1.3V100.253h1.3v3.68a8.088,8.088,0,0,1-.063,1.1h.078a2.645,2.645,0,0,1,1.09-.972,3.521,3.521,0,0,1,1.614-.356,3.3,3.3,0,0,1,2.355.746,3.143,3.143,0,0,1,.785,2.371v5.586Z" fill="#111"/>
  <path d="M36.972,101.527a.86.86,0,0,1,.219-.653.809.809,0,0,1,1.086,0,.845.845,0,0,1,.226.649.86.86,0,0,1-.226.652.762.762,0,0,1-.539.215.749.749,0,0,1-.547-.215A.874.874,0,0,1,36.972,101.527Zm1.406,10.882h-1.3v-8.562h1.3Z" fill="#111"/>
  <path d="M46.988,112.409V106.87a2.236,2.236,0,0,0-.477-1.562,1.94,1.94,0,0,0-1.492-.516,2.461,2.461,0,0,0-1.969.727,3.664,3.664,0,0,0-.625,2.4v4.492h-1.3v-8.562H42.18l.211,1.172h.062a2.652,2.652,0,0,1,1.117-.981,3.639,3.639,0,0,1,1.6-.347,3.256,3.256,0,0,1,2.328.746,3.173,3.173,0,0,1,.781,2.386v5.586Z" fill="#111"/>
  <path d="M49.589,103.847H50.98l1.875,4.883a18.388,18.388,0,0,1,.765,2.414h.063c.067-.266.21-.72.426-1.364s.922-2.621,2.121-5.933h1.39l-3.679,9.75a4.855,4.855,0,0,1-1.278,2.051,2.721,2.721,0,0,1-1.793.605,5.2,5.2,0,0,1-1.172-.133v-1.039a4.494,4.494,0,0,0,.961.094,1.983,1.983,0,0,0,1.907-1.5l.476-1.219Z" fill="#111"/>
  <path d="M28.671,131.766a3.654,3.654,0,0,1-2.879-1.145,4.71,4.71,0,0,1-1.019-3.238,4.842,4.842,0,0,1,1.035-3.32,3.722,3.722,0,0,1,2.949-1.172,5.814,5.814,0,0,1,1.234.133,4.018,4.018,0,0,1,.969.312l-.4,1.1a6.15,6.15,0,0,0-.938-.286,4.2,4.2,0,0,0-.9-.113q-2.608,0-2.61,3.328a3.96,3.96,0,0,0,.637,2.422,2.217,2.217,0,0,0,1.887.844,5.739,5.739,0,0,0,2.2-.461v1.148a4.676,4.676,0,0,1-2.165.448Z" fill="#111"/>
  <path d="M40.257,127.32a4.718,4.718,0,0,1-1.055,3.27,3.71,3.71,0,0,1-2.914,1.176,3.868,3.868,0,0,1-2.039-.539,3.576,3.576,0,0,1-1.375-1.547,5.392,5.392,0,0,1-.484-2.36,4.712,4.712,0,0,1,1.047-3.261,3.7,3.7,0,0,1,2.906-1.168,3.622,3.622,0,0,1,2.855,1.195A4.7,4.7,0,0,1,40.257,127.32Zm-6.523,0a4.064,4.064,0,0,0,.656,2.5,2.6,2.6,0,0,0,3.672.191h0a2.459,2.459,0,0,0,.191-.191,4.038,4.038,0,0,0,.66-2.5,3.977,3.977,0,0,0-.66-2.48,2.32,2.32,0,0,0-1.949-.848,2.287,2.287,0,0,0-1.922.836A4.023,4.023,0,0,0,33.734,127.32Z" fill="#111"/>
  <path d="M42.421,120.727a.86.86,0,0,1,.219-.653.809.809,0,0,1,1.086,0,.845.845,0,0,1,.226.649.86.86,0,0,1-.226.652.754.754,0,0,1-.539.215.745.745,0,0,1-.547-.215A.874.874,0,0,1,42.421,120.727Zm1.406,10.883h-1.3v-8.563h1.3Z" fill="#111"/>
  <path d="M52.437,131.61v-5.54a2.231,2.231,0,0,0-.477-1.562,1.94,1.94,0,0,0-1.492-.516,2.464,2.464,0,0,0-1.969.727,3.664,3.664,0,0,0-.625,2.4v4.493h-1.3v-8.563h1.055l.211,1.172h.06a2.64,2.64,0,0,1,1.117-.981,3.639,3.639,0,0,1,1.6-.347,3.249,3.249,0,0,1,2.328.746,3.172,3.172,0,0,1,.782,2.387v5.586Z" fill="#111"/>
  <ellipse cx="39.449" cy="181.662" rx="14.44" ry="14.76" fill="#ccc"/>
  <path d="M39.449,161.451a20.216,20.216,0,0,0,0,40.423,20.216,20.216,0,0,0,0-40.423Zm0,36.239a16.031,16.031,0,1,1,15.705-16.351v.323A15.872,15.872,0,0,1,39.449,197.69Z" fill="#ccc" fill-rule="evenodd"/>
  <path d="M103.3,111.408h79.8v96.52H103.3Z" fill="none"/>
  <g>
    <path d="M121.1,104.316a3.2,3.2,0,0,1-1.184,2.668,5.364,5.364,0,0,1-3.386.933h-1.344v4.492h-1.328V100.987h2.961Q121.1,100.987,121.1,104.316Zm-5.914,2.461h1.195a4.452,4.452,0,0,0,2.555-.571,2.1,2.1,0,0,0,.789-1.828,1.972,1.972,0,0,0-.742-1.687,3.875,3.875,0,0,0-2.313-.555h-1.484Z" fill="#111"/>
    <path d="M130.685,108.12a4.723,4.723,0,0,1-1.055,3.27,3.716,3.716,0,0,1-2.914,1.176,3.865,3.865,0,0,1-2.039-.539,3.565,3.565,0,0,1-1.375-1.547,5.392,5.392,0,0,1-.484-2.36,4.717,4.717,0,0,1,1.046-3.261,3.7,3.7,0,0,1,2.907-1.168,3.622,3.622,0,0,1,2.855,1.195A4.7,4.7,0,0,1,130.685,108.12Zm-6.524,0a4.057,4.057,0,0,0,.657,2.5,2.6,2.6,0,0,0,3.672.191h0a2.459,2.459,0,0,0,.191-.191,4.038,4.038,0,0,0,.66-2.5,3.977,3.977,0,0,0-.66-2.48,2.32,2.32,0,0,0-1.949-.848,2.28,2.28,0,0,0-1.922.836A4.017,4.017,0,0,0,124.161,108.12Z" fill="#111"/>
    <path d="M138.482,110.073a2.144,2.144,0,0,1-.891,1.844,4.179,4.179,0,0,1-2.5.649,5.441,5.441,0,0,1-2.656-.539v-1.2a6.509,6.509,0,0,0,1.324.493,5.548,5.548,0,0,0,1.363.179,3.089,3.089,0,0,0,1.563-.324,1.115,1.115,0,0,0,.393-1.527,1.1,1.1,0,0,0-.28-.317,6.846,6.846,0,0,0-1.691-.84,9.062,9.062,0,0,1-1.7-.777,2.359,2.359,0,0,1-.75-.754,1.961,1.961,0,0,1-.246-1.008,1.922,1.922,0,0,1,.852-1.652,3.975,3.975,0,0,1,2.336-.605,6.831,6.831,0,0,1,2.7.562l-.461,1.055a6.176,6.176,0,0,0-2.336-.531,2.693,2.693,0,0,0-1.391.289.894.894,0,0,0-.468.8.96.96,0,0,0,.176.586,1.7,1.7,0,0,0,.566.461,12.733,12.733,0,0,0,1.5.633,5.608,5.608,0,0,1,2.059,1.117A1.976,1.976,0,0,1,138.482,110.073Z" fill="#111"/>
    <path d="M140.482,101.527a.864.864,0,0,1,.218-.653.809.809,0,0,1,1.086,0,.844.844,0,0,1,.227.649.856.856,0,0,1-.227.652.793.793,0,0,1-1.086,0A.878.878,0,0,1,140.482,101.527Zm1.406,10.882h-1.3v-8.562h1.3Z" fill="#111"/>
    <path d="M147.4,111.5a4.108,4.108,0,0,0,.664-.051,4.385,4.385,0,0,0,.507-.105v.992a2.341,2.341,0,0,1-.621.168,4.687,4.687,0,0,1-.738.067q-2.484,0-2.484-2.618V104.86H143.5v-.625l1.227-.539.547-1.829h.75v1.985h2.484v1.008h-2.484v5.04a1.731,1.731,0,0,0,.367,1.187,1.274,1.274,0,0,0,1.008.414Z" fill="#111"/>
    <path d="M150.177,101.527a.86.86,0,0,1,.219-.653.809.809,0,0,1,1.086,0,.845.845,0,0,1,.226.649.86.86,0,0,1-.226.652.762.762,0,0,1-.539.215.749.749,0,0,1-.547-.215A.874.874,0,0,1,150.177,101.527Zm1.406,10.882h-1.3v-8.562h1.3Z" fill="#111"/>
    <path d="M156.208,112.409l-3.25-8.562h1.391l1.844,5.078a23.686,23.686,0,0,1,.734,2.312h.062a17.755,17.755,0,0,1,.543-1.714q.457-1.3,2.051-5.676h1.391l-3.25,8.562Z" fill="#111"/>
    <path d="M165.966,112.566a3.928,3.928,0,0,1-3-1.157,4.476,4.476,0,0,1-1.1-3.211,4.97,4.97,0,0,1,1.02-3.289,3.392,3.392,0,0,1,2.738-1.218,3.227,3.227,0,0,1,2.547,1.058,4.056,4.056,0,0,1,.937,2.793v.82h-5.9a3.4,3.4,0,0,0,.762,2.29,2.637,2.637,0,0,0,2.035.781,6.9,6.9,0,0,0,2.734-.578v1.156a6.843,6.843,0,0,1-1.3.426,7.277,7.277,0,0,1-1.473.129Zm-.352-7.789a2.116,2.116,0,0,0-1.644.671,3.107,3.107,0,0,0-.723,1.86h4.477a2.853,2.853,0,0,0-.547-1.879A1.924,1.924,0,0,0,165.614,104.777Z" fill="#111"/>
    <path d="M107.134,131.766a3.936,3.936,0,0,1-3-1.156,4.476,4.476,0,0,1-1.1-3.211,4.957,4.957,0,0,1,1.02-3.289,3.384,3.384,0,0,1,2.738-1.219,3.227,3.227,0,0,1,2.547,1.058,4.056,4.056,0,0,1,.937,2.793v.821h-5.9a3.392,3.392,0,0,0,.762,2.289,2.637,2.637,0,0,0,2.035.781,6.881,6.881,0,0,0,2.734-.578v1.156a6.843,6.843,0,0,1-1.3.426,7.277,7.277,0,0,1-1.473.129Zm-.352-7.789a2.117,2.117,0,0,0-1.644.672,3.1,3.1,0,0,0-.723,1.859h4.477a2.853,2.853,0,0,0-.547-1.879A1.924,1.924,0,0,0,106.782,123.977Z" fill="#111"/>
    <path d="M114.556,127.227l-2.977-4.18h1.477l2.258,3.281,2.25-3.281h1.461l-2.977,4.18,3.133,4.383h-1.469l-2.4-3.469-2.422,3.469h-1.469Z" fill="#111"/>
    <path d="M124.861,131.766a3.7,3.7,0,0,1-1.528-.309,2.875,2.875,0,0,1-1.16-.949h-.094a11.459,11.459,0,0,1,.094,1.422v3.523h-1.3V123.047h1.055l.18,1.172h.062a3.013,3.013,0,0,1,1.164-1.016,3.541,3.541,0,0,1,1.524-.312,3.16,3.16,0,0,1,2.628,1.164,6.2,6.2,0,0,1-.015,6.543A3.174,3.174,0,0,1,124.861,131.766Zm-.188-7.774a2.3,2.3,0,0,0-1.9.727,3.741,3.741,0,0,0-.6,2.312v.289a4.268,4.268,0,0,0,.6,2.582,2.285,2.285,0,0,0,1.929.778,2.006,2.006,0,0,0,1.739-.9,4.258,4.258,0,0,0,.629-2.476,4.1,4.1,0,0,0-.629-2.457A2.066,2.066,0,0,0,124.673,123.992Z" fill="#111"/>
    <path d="M134.3,131.766a3.936,3.936,0,0,1-3-1.156,4.478,4.478,0,0,1-1.1-3.211,4.957,4.957,0,0,1,1.02-3.289,3.384,3.384,0,0,1,2.738-1.219,3.227,3.227,0,0,1,2.547,1.058,4.057,4.057,0,0,1,.938,2.793v.821h-5.9a3.392,3.392,0,0,0,.762,2.289,2.637,2.637,0,0,0,2.035.781,6.881,6.881,0,0,0,2.734-.578v1.156a6.843,6.843,0,0,1-1.3.426,7.293,7.293,0,0,1-1.474.129Zm-.351-7.789a2.116,2.116,0,0,0-1.645.672,3.1,3.1,0,0,0-.723,1.859h4.477a2.853,2.853,0,0,0-.547-1.879,1.923,1.923,0,0,0-1.564-.652Z" fill="#111"/>
    <path d="M143.564,122.891a5.02,5.02,0,0,1,1.023.094l-.18,1.2a4.411,4.411,0,0,0-.937-.118,2.286,2.286,0,0,0-1.777.844,3.072,3.072,0,0,0-.739,2.1V131.6h-1.3v-8.563h1.071l.148,1.586h.063a3.74,3.74,0,0,1,1.148-1.289A2.584,2.584,0,0,1,143.564,122.891Z" fill="#111"/>
    <path d="M146.079,120.727a.868.868,0,0,1,.219-.653.809.809,0,0,1,1.086,0,1.046,1.046,0,0,1,0,1.3.793.793,0,0,1-1.086,0A.882.882,0,0,1,146.079,120.727Zm1.407,10.883h-1.3v-8.563h1.3Z" fill="#111"/>
    <path d="M153.853,131.766a3.936,3.936,0,0,1-3-1.156,4.476,4.476,0,0,1-1.1-3.211,4.957,4.957,0,0,1,1.02-3.289,3.384,3.384,0,0,1,2.738-1.219,3.227,3.227,0,0,1,2.547,1.058,4.056,4.056,0,0,1,.937,2.793v.821h-5.9a3.4,3.4,0,0,0,.761,2.289,2.638,2.638,0,0,0,2.036.781,6.881,6.881,0,0,0,2.734-.578v1.156a6.843,6.843,0,0,1-1.3.426,7.277,7.277,0,0,1-1.473.129Zm-.352-7.789a2.117,2.117,0,0,0-1.644.672,3.1,3.1,0,0,0-.723,1.859h4.477a2.853,2.853,0,0,0-.547-1.879,1.928,1.928,0,0,0-1.564-.652Z" fill="#111"/>
    <path d="M165.072,131.61v-5.54a2.236,2.236,0,0,0-.477-1.562,1.94,1.94,0,0,0-1.492-.516,2.464,2.464,0,0,0-1.969.727,3.664,3.664,0,0,0-.625,2.4v4.493h-1.3v-8.563h1.055l.211,1.172h.062a2.652,2.652,0,0,1,1.117-.981,3.639,3.639,0,0,1,1.6-.347,3.256,3.256,0,0,1,2.328.746,3.175,3.175,0,0,1,.781,2.387v5.586Z" fill="#111"/>
    <path d="M172.454,131.766a3.654,3.654,0,0,1-2.879-1.145,4.71,4.71,0,0,1-1.019-3.238,4.854,4.854,0,0,1,1.035-3.32,3.722,3.722,0,0,1,2.949-1.172,5.831,5.831,0,0,1,1.235.133,4.069,4.069,0,0,1,.968.312l-.4,1.1a6.116,6.116,0,0,0-.938-.286,4.2,4.2,0,0,0-.9-.113q-2.608,0-2.609,3.328a3.966,3.966,0,0,0,.636,2.422,2.217,2.217,0,0,0,1.887.844,5.751,5.751,0,0,0,2.195-.461v1.148a4.684,4.684,0,0,1-2.16.448Z" fill="#111"/>
    <path d="M180.267,131.766a3.936,3.936,0,0,1-3-1.156,4.476,4.476,0,0,1-1.1-3.211,4.957,4.957,0,0,1,1.02-3.289,3.384,3.384,0,0,1,2.738-1.219,3.227,3.227,0,0,1,2.547,1.058,4.056,4.056,0,0,1,.937,2.793v.821h-5.9a3.392,3.392,0,0,0,.762,2.289,2.637,2.637,0,0,0,2.035.781,6.881,6.881,0,0,0,2.734-.578v1.156a6.843,6.843,0,0,1-1.3.426,7.277,7.277,0,0,1-1.473.129Zm-.352-7.789a2.117,2.117,0,0,0-1.644.672,3.1,3.1,0,0,0-.723,1.859h4.477a2.853,2.853,0,0,0-.547-1.879A1.924,1.924,0,0,0,179.915,123.977Z" fill="#111"/>
  </g>
  <path d="M160.352,175.8c0,.021-.006.041-.008.062a2.488,2.488,0,0,1-.013.356c-.013.09-.041.173-.062.26a17.6,17.6,0,0,1-6.685,11.618,17.013,17.013,0,0,1-23.863-3.075h0q-.142-.184-.279-.372a17.686,17.686,0,0,1-3.3-8.153,2.468,2.468,0,0,1-.093-.755l-.006-.048h.008a2.407,2.407,0,0,1,.925-1.8,2.328,2.328,0,0,1,3.265.426h0l.035.047a2.429,2.429,0,0,1,.472,1.347h.012a12.881,12.881,0,0,0,2.425,6.058,12.382,12.382,0,0,0,17.3,2.715h0c.092-.068.184-.136.274-.206a12.8,12.8,0,0,0,4.873-8.488h.017a2.279,2.279,0,0,1,2.237-2.32,2.349,2.349,0,0,1,.435.034,2.385,2.385,0,0,1,2.025,2.3Z" fill="#ccc" fill-rule="evenodd"/>
  <path d="M206.593,111.209h79.8v96.52h-79.8Z" fill="none"/>
  <path d="M246.493,161.458c-10.76,0-19.483,8.973-19.483,20.042s8.723,20.041,19.483,20.041,19.482-8.973,19.482-20.041a20.34,20.34,0,0,0-5.706-14.172,19.21,19.21,0,0,0-13.776-5.87Zm8.714,31.215a13.624,13.624,0,0,1-17.165.2,14.587,14.587,0,0,1-4.324-17.088.93.93,0,0,1,.745-.566.911.911,0,0,1,.849.381.971.971,0,0,1,.1.946,12.649,12.649,0,0,0,3.75,14.815,11.811,11.811,0,0,0,14.88-.177.9.9,0,0,1,.93-.171.947.947,0,0,1,.592.757.965.965,0,0,1-.363.9Z" fill="#ccc"/>
  <path d="M241.446,106.682a6.284,6.284,0,0,1-1.387,4.312,4.875,4.875,0,0,1-3.856,1.571,4.936,4.936,0,0,1-3.894-1.543,6.34,6.34,0,0,1-1.371-4.356,6.257,6.257,0,0,1,1.375-4.324,4.972,4.972,0,0,1,3.906-1.535,4.867,4.867,0,0,1,3.844,1.562A6.285,6.285,0,0,1,241.446,106.682Zm-9.1,0a5.419,5.419,0,0,0,.988,3.519,4.036,4.036,0,0,0,5.708.031h0l.031-.031a6.853,6.853,0,0,0,0-7.019,3.458,3.458,0,0,0-2.855-1.192,3.526,3.526,0,0,0-2.887,1.2,5.361,5.361,0,0,0-.987,3.492Z" fill="#111"/>
  <path d="M245.86,108.026l-2.977-4.18h1.477l2.257,3.281,2.25-3.281h1.461l-2.976,4.18,3.133,4.382h-1.469l-2.4-3.468-2.421,3.468h-1.469Z" fill="#111"/>
  <path d="M250.821,103.846h1.39l1.875,4.883a18.544,18.544,0,0,1,.766,2.414h.062q.1-.4.426-1.364t2.121-5.933h1.391l-3.68,9.75a4.853,4.853,0,0,1-1.277,2.051,2.72,2.72,0,0,1-1.793.6,5.2,5.2,0,0,1-1.172-.133V115.08a4.494,4.494,0,0,0,.961.094,1.981,1.981,0,0,0,1.906-1.5l.477-1.219Z" fill="#111"/>
  <path d="M239.426,131.609v-5.571a2.315,2.315,0,0,0-.437-1.535,1.7,1.7,0,0,0-1.36-.512,2.194,2.194,0,0,0-1.789.7,3.3,3.3,0,0,0-.578,2.14v4.782h-1.3v-5.571a2.315,2.315,0,0,0-.437-1.535,1.7,1.7,0,0,0-1.368-.512,2.119,2.119,0,0,0-1.785.731,3.947,3.947,0,0,0-.566,2.394v4.493h-1.3V123.05h1.055l.211,1.172h.062a2.55,2.55,0,0,1,1.035-.977,3.165,3.165,0,0,1,1.5-.351A2.543,2.543,0,0,1,235,124.343h.063a2.735,2.735,0,0,1,1.109-1.063,3.456,3.456,0,0,1,1.656-.39,2.9,2.9,0,0,1,2.176.746,3.332,3.332,0,0,1,.723,2.387v5.586Z" fill="#111"/>
  <path d="M248.66,131.609l-.257-1.219h-.063a3.61,3.61,0,0,1-1.277,1.09,3.9,3.9,0,0,1-1.59.285,2.857,2.857,0,0,1-2-.656,2.4,2.4,0,0,1-.723-1.868q0-2.594,4.149-2.718l1.453-.047v-.532a2.173,2.173,0,0,0-.434-1.488,1.784,1.784,0,0,0-1.387-.48,5.63,5.63,0,0,0-2.421.656l-.4-.992a6.244,6.244,0,0,1,2.9-.735,3.259,3.259,0,0,1,2.269.68,2.838,2.838,0,0,1,.738,2.18v5.844Zm-2.929-.915a2.634,2.634,0,0,0,1.9-.664,2.455,2.455,0,0,0,.691-1.859V127.4l-1.3.054a4.707,4.707,0,0,0-2.231.481,1.447,1.447,0,0,0-.683,1.324,1.336,1.336,0,0,0,.425,1.07,1.76,1.76,0,0,0,1.2.365Z" fill="#111"/>
  <path d="M256.2,122.89a5.024,5.024,0,0,1,1.024.094l-.18,1.2a4.411,4.411,0,0,0-.937-.118,2.287,2.287,0,0,0-1.778.844,3.071,3.071,0,0,0-.738,2.1v4.59h-1.3v-8.563h1.071l.148,1.586h.062a3.762,3.762,0,0,1,1.149-1.289,2.583,2.583,0,0,1,1.479-.448Z" fill="#111"/>
  <path d="M260.106,127.226a14.939,14.939,0,0,1,1.023-1.25l2.766-2.93h1.539l-3.469,3.648,3.711,4.915h-1.57l-3.024-4.047-.976.843v3.2h-1.282V119.452h1.282V125.9q0,.429-.063,1.328Z" fill="#111"/>
  <path d="M193.526,187.613a.772.772,0,0,1-.608-1.245l4.359-5.629-4.364-5.791a.772.772,0,0,1,1.2-.973l.033.044,4.719,6.262a.773.773,0,0,1-.006.937l-4.719,6.095a.771.771,0,0,1-.613.3Z" fill="#111" fill-rule="evenodd" opacity="0.25" style="isolation: isolate"/>
  <path d="M92.824,187.613a.772.772,0,0,1-.608-1.245l4.359-5.629-4.364-5.791a.772.772,0,0,1,1.2-.973h0l.033.044,4.719,6.262a.771.771,0,0,1-.006.937l-4.719,6.095A.773.773,0,0,1,92.824,187.613Z" fill="#111" fill-rule="evenodd" opacity="0.25" style="isolation: isolate"/>
  <path d="M143.2,5.419a33.024,33.024,0,1,0,23.35,9.672A33.024,33.024,0,0,0,143.2,5.419Zm14.771,51.432A23.61,23.61,0,0,1,121.54,29.036a1.571,1.571,0,1,1,2.88,1.257h0A20.471,20.471,0,0,0,156,54.413a1.569,1.569,0,0,1,2.076,2.343.986.986,0,0,1-.12.093Z" fill="#231f20"/>
</svg>
