<svg data-name="Layer 1" xmlns="http://www.w3.org/2000/svg" viewBox="0 0 285.795 54.5"><g data-name="Layer 1-2"><path d="M12.021 23.838l-4.221 4.4v7.527a.427.427 0 01-.424.426H.988a.425.425 0 01-.425-.425V5.163a.425.425 0 01.425-.425h6.385a.425.425 0 01.425.425v14.268L21.6 4.871a.422.422 0 01.308-.133h6.931a.425.425 0 01.311.715l-12.367 13.3L30.034 35.5a.425.425 0 01-.333.689h-7.413a.421.421 0 01-.325-.153z" fill="#231f20"/><path d="M33.9 34.956a11.864 11.864 0 01-4.74-4.427 12.177 12.177 0 01-1.712-6.429 12.185 12.185 0 011.708-6.425 11.843 11.843 0 014.74-4.427 14.5 14.5 0 016.853-1.594 14.37 14.37 0 016.829 1.594 11.9 11.9 0 014.722 4.431A12.2 12.2 0 0154 24.1a12.2 12.2 0 01-1.7 6.429 11.91 11.91 0 01-4.719 4.427 14.386 14.386 0 01-6.83 1.595 14.5 14.5 0 01-6.851-1.595zm11.28-5.976a6.79 6.79 0 001.72-4.88 6.791 6.791 0 00-1.729-4.875 5.84 5.84 0 00-4.427-1.82 5.91 5.91 0 00-4.448 1.82 6.729 6.729 0 00-1.748 4.875 6.733 6.733 0 001.752 4.88 5.916 5.916 0 004.448 1.82 5.849 5.849 0 004.427-1.82zm49.675-16.393L86.4 35.911a.427.427 0 01-.4.28h-6.143a.426.426 0 01-.4-.28l-5.335-14.727-5.513 14.731a.426.426 0 01-.4.276h-6.146a.426.426 0 01-.4-.281l-8.409-23.324a.424.424 0 01.256-.544.416.416 0 01.144-.025h5.7a.423.423 0 01.4.285l5.609 16.071 5.83-16.073a.423.423 0 01.4-.28h5.333a.425.425 0 01.4.284l5.651 16.072L88.763 12.3a.424.424 0 01.4-.281h5.3a.425.425 0 01.417.432.432.432 0 01-.025.136zm12.177-.031a12.277 12.277 0 014.478-.893.434.434 0 01.441.427v5.58a.425.425 0 01-.425.425h-.03q-.8-.056-1.117-.056a6.424 6.424 0 00-4.718 1.685 6.8 6.8 0 00-1.708 5.055v10.987a.426.426 0 01-.425.425h-6.16a.425.425 0 01-.425-.425V12.438a.425.425 0 01.425-.425h5.845a.425.425 0 01.425.425V15.2a7.782 7.782 0 013.394-2.644zm33.754-.54a.427.427 0 01.391.592l-10.668 25.065a12.638 12.638 0 01-4.109 5.887 8.968 8.968 0 01-5.547 1.708 14.676 14.676 0 01-4.092-.585 8.54 8.54 0 01-2.746-1.4.429.429 0 01-.106-.53l2.164-4.213a.428.428 0 01.581-.177.331.331 0 01.064.041 6.174 6.174 0 001.458.794 5.836 5.836 0 002.09.4 3.72 3.72 0 002.336-.7 5.926 5.926 0 001.618-2.315l.09-.224-10.216-23.749a.424.424 0 01.391-.593h6.3a.425.425 0 01.393.262l6.685 16.139 6.722-16.14a.424.424 0 01.392-.261z" fill="#231f20"/><path d="M144.263 35.238l-.01.01a.558.558 0 01-.049.06q-.023.02-.045.036a3.818 3.818 0 01-6.04-4.552.524.524 0 01.083-.143v-.009a.521.521 0 01.83.63 2.78 2.78 0 004.39 3.333c.011-.013.021-.028.033-.04a.522.522 0 01.8.669zm-2.806-7.838a5.244 5.244 0 105.244 5.244 5.244 5.244 0 00-5.244-5.244z" fill="#222"/></g></svg>