<svg xmlns="http://www.w3.org/2000/svg" viewBox="0 0 285.795 54.5"><path d="M6.48 23.712h208.954a6.683 6.683 0 016.683 6.683 6.683 6.683 0 01-6.683 6.682H6.48A6.682 6.682 0 01-.2 30.4a6.682 6.682 0 016.68-6.688z" fill="#fef200"/><path d="M17.99 32.587q-5.178 0-8.169-2.767a9.832 9.832 0 01-2.991-7.589h2.991a7.315 7.315 0 002.21 5.6 8.35 8.35 0 005.959 2.076 7.906 7.906 0 005.245-1.563 5.408 5.408 0 001.853-4.374 5.394 5.394 0 00-1.317-3.77 8.378 8.378 0 00-4.085-2.21l-5.267-1.607q-6.651-1.83-6.652-8.125a7.649 7.649 0 011.228-4.285 8.2 8.2 0 013.437-2.924A11.686 11.686 0 0117.5 0a10.123 10.123 0 017.232 2.522 8.963 8.963 0 012.678 6.852h-2.992A6.545 6.545 0 0022.566 4.4a7.18 7.18 0 00-5.156-1.766 7.269 7.269 0 00-4.821 1.495A4.9 4.9 0 0010.8 8.08a5.194 5.194 0 001.406 3.772 9.753 9.753 0 004.4 2.3l5.094 1.517a8.942 8.942 0 014.754 2.968 8.3 8.3 0 011.63 5.29 7.91 7.91 0 01-2.723 6.317 10.915 10.915 0 01-7.371 2.343zM33.3 11.606h2.857v20.312H33.3zM34.727 7.5a2.527 2.527 0 01-1.9-.759 2.588 2.588 0 01-.737-1.875 2.645 2.645 0 01.737-1.92 2.527 2.527 0 011.9-.759 2.6 2.6 0 012.679 2.679 2.547 2.547 0 01-.759 1.875 2.6 2.6 0 01-1.92.759zm8.211 4.106H45.8v4.554a7.3 7.3 0 012.232-3.616 6.2 6.2 0 014.285-1.473 7.132 7.132 0 014.375 1.294 6.114 6.114 0 012.277 3.8 7.027 7.027 0 016.874-5.089 6.931 6.931 0 015.424 2.053 8.577 8.577 0 011.853 5.937v12.852H70.3V19.642a6.609 6.609 0 00-1.361-4.6 4.826 4.826 0 00-3.728-1.473 4.933 4.933 0 00-4.24 2.1 9.825 9.825 0 00-1.518 5.847v10.4H56.6v-11.7q0-6.651-5.089-6.651a4.816 4.816 0 00-4.241 2.165 10.113 10.113 0 00-1.473 5.78v10.4h-2.859zm47.762-.535a9.783 9.783 0 015.156 1.361 9.441 9.441 0 013.526 3.8 11.8 11.8 0 011.273 5.557 11.552 11.552 0 01-1.3 5.513 9.451 9.451 0 01-3.616 3.795 10.133 10.133 0 01-5.223 1.361 8.909 8.909 0 01-4.816-1.344 8.164 8.164 0 01-3.169-3.571v13.972h-2.857V11.606h2.857v4.42a7.581 7.581 0 013.192-3.638 9.533 9.533 0 014.977-1.317zm-.491 18.793a7.294 7.294 0 006.607-3.928 8.649 8.649 0 00.982-4.152 8.785 8.785 0 00-.982-4.174 7.261 7.261 0 00-6.607-3.95 7.751 7.751 0 00-4.04 1.049 7.418 7.418 0 00-2.768 2.9 8.625 8.625 0 00-1 4.174 8.492 8.492 0 001 4.152 7.417 7.417 0 002.79 2.879 7.788 7.788 0 004.018 1.05zM105.651.67h2.857v31.248h-2.857zm9.64 10.936h2.857v20.312h-2.857zm1.428-4.106a2.528 2.528 0 01-1.9-.759 2.587 2.587 0 01-.736-1.875 2.644 2.644 0 01.736-1.92 2.528 2.528 0 011.9-.759 2.6 2.6 0 012.681 2.679 2.547 2.547 0 01-.759 1.875 2.6 2.6 0 01-1.922.759zm16.871-4.509a4.343 4.343 0 00-2.79.87q-1.094.871-1.093 3.5v4.24h6.205v2.456h-6.205v17.861h-2.857V14.062h-4.464v-2.456h4.464V7.5q0-4.107 1.83-5.6a6.506 6.506 0 014.241-1.5 7.178 7.178 0 012.991.535v2.5a8.212 8.212 0 00-2.322-.444zm6.562 8.615h2.857v20.312h-2.857zm1.429-4.106a2.527 2.527 0 01-1.9-.759 2.588 2.588 0 01-.737-1.875 2.645 2.645 0 01.737-1.92 2.527 2.527 0 011.9-.759 2.6 2.6 0 012.678 2.679 2.547 2.547 0 01-.759 1.875 2.6 2.6 0 01-1.919.759zm25.844 12.99q0 .491-.09 1.919h-16.427a7.639 7.639 0 001.919 5.469 6.843 6.843 0 005.223 2.031 7.433 7.433 0 003.906-.982 5.348 5.348 0 002.3-2.723h2.9a7.342 7.342 0 01-3.125 4.508 10.2 10.2 0 01-5.982 1.741 10.419 10.419 0 01-5.312-1.317 8.8 8.8 0 01-3.5-3.749 12.371 12.371 0 01-1.228-5.647 12.23 12.23 0 011.228-5.625 8.916 8.916 0 013.459-3.727 10.861 10.861 0 0110.156-.112 8.584 8.584 0 013.37 3.348 9.745 9.745 0 011.203 4.866zm-2.813-.357a6.9 6.9 0 00-1.83-4.888 6.5 6.5 0 00-4.91-1.853 6.627 6.627 0 00-4.866 1.853 7.366 7.366 0 00-2.1 4.888zM191.393.67v31.248h-2.812v-4.375a8.034 8.034 0 01-3.147 3.549 8.916 8.916 0 01-4.844 1.361 10.308 10.308 0 01-5.423-1.384 9.193 9.193 0 01-3.527-3.816 11.974 11.974 0 01-1.227-5.469 11.794 11.794 0 011.249-5.468 9.45 9.45 0 013.572-3.839 10.212 10.212 0 015.4-1.406 8.846 8.846 0 014.866 1.339 7.922 7.922 0 013.08 3.616V.67zM180.9 29.864a7.752 7.752 0 004.174-1.094 7.265 7.265 0 002.7-2.946 8.829 8.829 0 00.937-4.04 8.925 8.925 0 00-.937-4.084 7.265 7.265 0 00-2.7-2.946 7.752 7.752 0 00-4.174-1.094 7.133 7.133 0 00-5.535 2.3 8.306 8.306 0 00-2.1 5.825 8.975 8.975 0 00.937 4.152 7.043 7.043 0 002.678 2.879 7.636 7.636 0 004.02 1.048z" fill="#222"/><g data-name="effects/highlight/logo"><path d="M218.912 33.7l-.012.012a.625.625 0 01-.062.076.617.617 0 01-.057.047 4.865 4.865 0 01-7.7-5.8.651.651 0 01.1-.183l.006-.012a.664.664 0 011.058.8 3.544 3.544 0 005.595 4.248c.014-.017.026-.035.041-.05a.666.666 0 011.016.853zm-3.576-9.986a6.683 6.683 0 106.683 6.683 6.683 6.683 0 00-6.683-6.685z" fill="#222" data-name="logo/smile"/></g></svg>