<svg xmlns="http://www.w3.org/2000/svg" xmlns:xlink="http://www.w3.org/1999/xlink" viewBox="0 0 487 573">
  <defs>
    <filter id="filter-9" x="-13" y="-32.1" width="128" height="180.4" name="filter-9">
      <feComposite result="shadowBlurOuter1" operator="out" in="shadowBlurOuter1" in2="SourceAlpha"/>
    </filter>
  </defs>
  <title>Asset 2</title>
  <g id="Layer_2" data-name="Layer 2">
    <g id="Layer_1-2" data-name="Layer 1">
      <g id="payment-medium-768-copy-5">
        <g id="panel">
          <rect id="Rectangle-33" x="0.5" y="0.5" width="486" height="572" rx="4" ry="4" fill="#fff" stroke="#e6e6e6"/>
          <g id="Group-9">
            <g id="Group">
              <g id="Go-back">
                <g>
                  <path d="M48.727,524.623h5.129v.93h-1.11a4.558,4.558,0,0,1-4.927,4.156l-.022,0a5.238,5.238,0,0,1-5.374-5.1c0-.126,0-.252,0-.378a5.308,5.308,0,0,1,5.139-5.472c.077,0,.154,0,.231,0a4.191,4.191,0,0,1,4.335,2.939h-1.05a3.268,3.268,0,0,0-3.285-2.009,4.331,4.331,0,0,0-4.325,4.339c0,.068,0,.137,0,.2a4.287,4.287,0,0,0,4.02,4.54c.14.009.28.01.42,0a3.485,3.485,0,0,0,3.748-3.2l0-.022h-2.94Z" fill="#222"/>
                  <path d="M54.922,526.168a3.5,3.5,0,1,1,3.521,3.479H58.4a3.389,3.389,0,0,1-3.48-3.3C54.92,526.29,54.92,526.229,54.922,526.168Zm6.015,0a2.521,2.521,0,1,0-2.535,2.579,2.491,2.491,0,0,0,2.536-2.445C60.939,526.257,60.939,526.213,60.937,526.168Z" fill="#222"/>
                  <path d="M68.6,529.482h-.975v-10.5H68.6v5.266a2.781,2.781,0,0,1,2.58-1.56,3.48,3.48,0,0,1,0,6.959,2.806,2.806,0,0,1-2.58-1.559Zm5.04-3.314a2.521,2.521,0,1,0-2.5,2.579,2.486,2.486,0,0,0,2.5-2.466c0-.038,0-.075,0-.113Z" fill="#222"/>
                  <path d="M82.911,522.838v6.644h-.975v-1.394a2.809,2.809,0,0,1-2.58,1.559,3.48,3.48,0,0,1,0-6.959,2.784,2.784,0,0,1,2.58,1.56v-1.41Zm-.975,3.33a2.521,2.521,0,1,0-2.535,2.579,2.491,2.491,0,0,0,2.536-2.445C81.938,526.257,81.938,526.213,81.936,526.168Z" fill="#222"/>
                  <path d="M90.291,525.268a1.863,1.863,0,0,0-1.993-1.723c-.041,0-.082.007-.122.013a2.606,2.606,0,0,0,.045,5.189,1.9,1.9,0,0,0,2.1-1.545H91.3a2.849,2.849,0,0,1-3.135,2.445,3.491,3.491,0,0,1,0-6.974,2.784,2.784,0,0,1,3.086,2.445c.006.051.011.1.014.155Z" fill="#222"/>
                  <path d="M95.346,526.168l3.285,3.314H97.355l-3.12-3.1v3.1h-.974v-10.5h.974v6.976l3.12-3.12h1.276Z" fill="#222"/>
                </g>
              </g>
              <g id="arrow_right_black" data-name="arrow right black">
                <polyline id="arrow_open" data-name="arrow open" points="32.589 518.091 26.393 524.844 32.589 531.846" fill="none" stroke="#222" stroke-linecap="round" stroke-linejoin="round" stroke-width="2"/>
              </g>
            </g>
          </g>
          <g id="elements_button_primary_arrow" data-name="elements button primary arrow">
            <path id="Rectangle" d="M343.5,501h95A23.5,23.5,0,0,1,462,524.5h0A23.5,23.5,0,0,1,438.5,548h-95A23.5,23.5,0,0,1,320,524.5h0A23.5,23.5,0,0,1,343.5,501Z" fill="#222"/>
            <g id="Buy">
              <g>
                <path d="M377.56,525.722a2.729,2.729,0,0,1,.706,1.963,3.063,3.063,0,0,1-1.012,2.431,4.083,4.083,0,0,1-2.779.884h-4.2V519.1h3.978a4.342,4.342,0,0,1,2.806.825,2.758,2.758,0,0,1,1.019,2.269,2.494,2.494,0,0,1-2.261,2.686A2.7,2.7,0,0,1,377.56,525.722Zm-5.33-4.9v3.264h1.938a2.167,2.167,0,0,0,1.436-.434,1.662,1.662,0,0,0,.064-2.35l-.055-.055a2.2,2.2,0,0,0-1.445-.425Zm3.587,7.99a1.755,1.755,0,0,0,.494-1.326,1.565,1.565,0,0,0-.511-1.215,1.91,1.91,0,0,0-1.343-.468H372.23v3.485h2.21a1.9,1.9,0,0,0,1.377-.481Z" fill="#fff"/>
                <path d="M380.849,530.405a3.178,3.178,0,0,1-.8-2.346v-4.981H381.9V527.6a2.541,2.541,0,0,0,.374,1.513,1.435,1.435,0,0,0,1.242.51,1.766,1.766,0,0,0,1.461-.569,2.329,2.329,0,0,0,.459-1.5v-4.471h1.853V531h-1.853v-1.1a2.577,2.577,0,0,1-2.448,1.309A2.894,2.894,0,0,1,380.849,530.405Z" fill="#fff"/>
                <path d="M396.914,523.078v7.956a3.751,3.751,0,0,1-1.037,2.822,3.828,3.828,0,0,1-2.687.918,4.1,4.1,0,0,1-2.719-.816,2.7,2.7,0,0,1-.884-2.057h1.87a1.47,1.47,0,0,0,.45,1.011,1.887,1.887,0,0,0,1.249.332,1.781,1.781,0,0,0,1.395-.569,2.612,2.612,0,0,0,.51-1.777v-1a2.444,2.444,0,0,1-1.02.977,3.294,3.294,0,0,1-1.53.332,2.66,2.66,0,0,1-2.168-.909,3.613,3.613,0,0,1-.756-2.389v-4.828h1.852v4.437a2.548,2.548,0,0,0,.392,1.513,1.52,1.52,0,0,0,1.325.544,1.647,1.647,0,0,0,1.42-.663,2.87,2.87,0,0,0,.485-1.734v-4.1Z" fill="#fff"/>
              </g>
            </g>
            <g id="arrow_long_white" data-name="arrow long white">
              <polyline id="arrow_open-2" data-name="arrow open-2" points="428.288 517.828 434.484 524.58 428.288 531.582" fill="none" stroke="#fff" stroke-linecap="round" stroke-linejoin="round" stroke-width="2"/>
              <path id="Path-8" d="M415,524.705h18" fill="none" stroke="#fff" stroke-linecap="round" stroke-width="2"/>
            </g>
          </g>
          <g id="Stacked-Group-2">
            <g id="title-field-copy-3">
              <g id="multi-field">
                <g id="forms_validation_tick" data-name="forms validation tick">
                  <g id="Group-2">
                    <circle id="Oval-13" cx="448.68" cy="315.68" r="13.133" fill="#c1ffbf"/>
                    <path id="Shape" d="M442.469,316.246l5.148,5.6c.191-.239,8.641-10.088,8.641-10.088" fill="none" stroke="#fff" stroke-linecap="round" stroke-linejoin="round" stroke-width="2.15"/>
                  </g>
                </g>
                <g id="forms_dropdown_focus-closed" data-name="forms dropdown focus-closed">
                  <path id="outline" d="M29,293.5a3.5,3.5,0,0,0-3.5,3.5v37a3.5,3.5,0,0,0,3.5,3.5H421a3.5,3.5,0,0,0,3.5-3.5V297a3.5,3.5,0,0,0-3.5-3.5Z" fill="#fff" stroke="#222"/>
                  <g id="_-label-_" data-name=" -label- ">
                    <g>
                      <path d="M38.233,310.815H35.225v-.992h7.138v.992H39.322v10.212H38.233Z" fill="#222"/>
                      <path d="M43.913,309.823h1.04v5.65a2.8,2.8,0,0,1,2.69-1.7,2.6,2.6,0,0,1,2.128.881,3.3,3.3,0,0,1,.625,2.208v4.162H49.354V317.17c0-1.393-.591-2.465-2.064-2.465a2.452,2.452,0,0,0-2.347,2.553c0,.046.006.091.01.136v3.633h-1.04Z" fill="#222"/>
                      <path d="M53.354,317.714a2.378,2.378,0,0,0,2.165,2.572,2.34,2.34,0,0,0,.335,0,2.021,2.021,0,0,0,2.08-1.3H58.99a3.009,3.009,0,0,1-3.136,2.209,3.719,3.719,0,0,1-.049-7.427,3.181,3.181,0,0,1,3.279,3.081c0,.03,0,.059,0,.088a4.949,4.949,0,0,1-.048.769Zm.015-.817h4.69a2.215,2.215,0,0,0-2.125-2.3c-.054,0-.109,0-.163,0a2.253,2.253,0,0,0-2.4,2.1c0,.069-.006.138,0,.207Z" fill="#222"/>
                      <path d="M72.123,319.139v-9.316h1.1v11.2H72.007l-5.635-9.315v9.315H65.284v-11.2H66.5Z" fill="#222"/>
                      <path d="M76.329,317.714a2.378,2.378,0,0,0,2.167,2.572,2.468,2.468,0,0,0,.333,0,2.019,2.019,0,0,0,2.08-1.3h1.057a3.01,3.01,0,0,1-3.137,2.209,3.719,3.719,0,0,1-.049-7.427,3.182,3.182,0,0,1,3.28,3.082c0,.029,0,.058,0,.087a4.949,4.949,0,0,1-.048.769Zm.016-.817h4.689a2.215,2.215,0,0,0-2.125-2.3c-.054,0-.109,0-.163,0a2.252,2.252,0,0,0-2.4,2.1c0,.069-.006.137,0,.206Z" fill="#222"/>
                      <path d="M87.85,321.027a7.908,7.908,0,0,1-1.2.1c-.928,0-2.161-.191-2.161-2.465v-3.825H83.065v-.9h1.424v-2.625h1.057v2.625H87.6v.9H85.546v3.617c0,1.521.56,1.713,1.312,1.713a6.476,6.476,0,0,0,.993-.08Z" fill="#222"/>
                      <path d="M89.337,309.823h1.04v5.65a2.8,2.8,0,0,1,2.689-1.7,2.6,2.6,0,0,1,2.129.881,3.3,3.3,0,0,1,.624,2.208v4.162H94.778V317.17c0-1.393-.591-2.465-2.064-2.465a2.452,2.452,0,0,0-2.347,2.553c0,.045.006.091.01.136v3.633h-1.04Z" fill="#222"/>
                      <path d="M98.776,317.714a2.378,2.378,0,0,0,2.167,2.572,2.468,2.468,0,0,0,.333,0,2.02,2.02,0,0,0,2.081-1.3h1.057a3.01,3.01,0,0,1-3.138,2.209,3.719,3.719,0,0,1-.047-7.427,3.184,3.184,0,0,1,3.28,3.083c0,.029,0,.057,0,.086a4.949,4.949,0,0,1-.048.769Zm.016-.817h4.69a2.215,2.215,0,0,0-2.125-2.3c-.055,0-.109,0-.164,0a2.252,2.252,0,0,0-2.4,2.1c0,.069-.006.137,0,.206Z" fill="#222"/>
                      <path d="M110.874,314.913a2.018,2.018,0,0,0-.672-.1c-1.728,0-2.529,1.41-2.529,3.058v3.153h-1.04v-7.09h1.04V315.6a2.663,2.663,0,0,1,2.529-1.761,1.694,1.694,0,0,1,.672.111Z" fill="#222"/>
                      <path d="M112.28,309.823h1.04v11.2h-1.04Z" fill="#222"/>
                      <path d="M122.8,313.937v7.09h-1.04v-1.488A3,3,0,0,1,119,321.2a3.714,3.714,0,0,1,0-7.427,2.972,2.972,0,0,1,2.754,1.665v-1.5Zm-1.04,3.553a2.69,2.69,0,1,0-2.7,2.753,2.656,2.656,0,0,0,2.7-2.612c0-.047,0-.094,0-.141Z" fill="#222"/>
                      <path d="M125.448,313.937h1.04v1.536a2.8,2.8,0,0,1,2.69-1.7,2.6,2.6,0,0,1,2.129.881,3.307,3.307,0,0,1,.624,2.208v4.162H130.89V317.17c0-1.393-.592-2.465-2.065-2.465a2.452,2.452,0,0,0-2.347,2.553c0,.045.006.091.01.136v3.633h-1.04Z" fill="#222"/>
                      <path d="M140.219,319.539a3,3,0,0,1-2.754,1.664,3.714,3.714,0,0,1,0-7.427,2.972,2.972,0,0,1,2.754,1.665v-5.618h1.04v11.2h-1.04Zm0-2.049a2.69,2.69,0,1,0-2.7,2.753,2.656,2.656,0,0,0,2.7-2.612C140.221,317.584,140.221,317.537,140.219,317.49Z" fill="#222"/>
                      <path d="M148.985,319.123c0,1.36-1.088,2.08-2.736,2.08-1.6,0-2.962-.8-2.962-2.577h1.025c0,1.265.865,1.713,1.985,1.713,1.057,0,1.7-.416,1.7-1.2,0-.929-.976-1.04-2.337-1.425-1.168-.288-2.144-.592-2.144-1.921,0-1.313,1.12-2.017,2.625-2.017a2.447,2.447,0,0,1,2.721,2.136c.008.072.014.145.016.217H147.85c0-.976-.657-1.5-1.729-1.5-.929,0-1.585.432-1.585,1.185,0,.847.784.975,2.145,1.343C147.85,317.441,148.985,317.73,148.985,319.123Z" fill="#222"/>
                    </g>
                  </g>
                  <g id="arrow_down_black" data-name="arrow down black">
                    <polyline id="arrow_open-3" data-name="arrow open-3" points="413.432 314.037 408.57 318.498 403.528 314.037" fill="none" stroke="#222" stroke-linecap="round" stroke-linejoin="round" stroke-width="1.44"/>
                  </g>
                </g>
              </g>
              <g id="Country">
                <g>
                  <path d="M35.268,281.114a4.578,4.578,0,0,1-4.539,3.1,5.114,5.114,0,0,1-.182-10.226c2.773,0,4.329,1.541,4.721,3.516h-1a3.455,3.455,0,0,0-3.614-2.646,4.033,4.033,0,0,0-4.08,3.985c0,.081,0,.163,0,.244a4.079,4.079,0,0,0,3.891,4.259c.122.006.245.006.368,0a3.575,3.575,0,0,0,3.375-2.228Z" fill="#222"/>
                  <path d="M36.453,280.9a3.264,3.264,0,1,1,3.278,3.25H39.7a3.165,3.165,0,0,1-3.249-3.079Q36.45,280.986,36.453,280.9Zm5.616,0a2.354,2.354,0,1,0-2.367,2.409,2.325,2.325,0,0,0,2.368-2.281C42.071,280.985,42.071,280.943,42.069,280.9Z" fill="#222"/>
                  <path d="M50.26,277.8V284h-.911v-1.345a2.457,2.457,0,0,1-2.353,1.5,2.3,2.3,0,0,1-1.863-.784,2.9,2.9,0,0,1-.547-1.933V277.8h.925v3.376c0,1.218.5,2.157,1.793,2.157a2.146,2.146,0,0,0,2.053-2.235c0-.039,0-.079-.008-.118V277.8Z" fill="#222"/>
                  <path d="M52.58,277.8h.911v1.345a2.447,2.447,0,0,1,2.353-1.486,2.276,2.276,0,0,1,1.863.771,2.9,2.9,0,0,1,.546,1.933V284h-.91v-3.376c0-1.219-.519-2.157-1.807-2.157a2.146,2.146,0,0,0-2.053,2.235c0,.039,0,.079.008.118V284H52.58Z" fill="#222"/>
                  <path d="M63.754,284a6.831,6.831,0,0,1-1.05.084c-.812,0-1.891-.168-1.891-2.157v-3.348H59.566V277.8h1.247v-2.3h.924v2.3H63.53v.784H61.737v3.166c0,1.33.491,1.5,1.149,1.5a5.729,5.729,0,0,0,.868-.069Z" fill="#222"/>
                  <path d="M68.767,278.649a1.755,1.755,0,0,0-.589-.084c-1.513,0-2.213,1.233-2.213,2.675V284h-.91v-6.2h.91v1.456a2.331,2.331,0,0,1,2.213-1.54,1.48,1.48,0,0,1,.589.1Z" fill="#222"/>
                  <path d="M69.885,284.91h.924c.07,1.345.686,2.046,1.975,2.046,1.261,0,1.975-.56,1.975-2.227v-2.074a2.418,2.418,0,0,1-2.325,1.5,2.28,2.28,0,0,1-1.906-.757A2.923,2.923,0,0,1,70,281.367V277.8h.925v3.3c0,1.344.406,2.227,1.807,2.227a2.134,2.134,0,0,0,2.04-2.226c0-.042,0-.085-.009-.127V277.8h.91v6.934c0,2.128-.994,3.011-2.9,3.011a2.565,2.565,0,0,1-2.884-2.835Z" fill="#222"/>
                </g>
              </g>
            </g>
            <g id="title-field-copy-2">
              <g id="multi-field-2">
                <g id="forms_validation_tick-2" data-name="forms validation tick-2">
                  <g id="Group-3">
                    <circle id="Oval-13-2" cx="448.68" cy="233.68" r="13.133" fill="#c1ffbf"/>
                    <path id="Shape-2" d="M442.469,234.246l5.148,5.6c.191-.239,8.641-10.088,8.641-10.088" fill="none" stroke="#fff" stroke-linecap="round" stroke-linejoin="round" stroke-width="2.15"/>
                  </g>
                </g>
                <g id="forms_input_active-password" data-name="forms input active-password">
                  <path id="outline-2" d="M29,211.5a3.5,3.5,0,0,0-3.5,3.5v37a3.5,3.5,0,0,0,3.5,3.5H421a3.5,3.5,0,0,0,3.5-3.5V215a3.5,3.5,0,0,0-3.5-3.5Z" fill="#fff" stroke="#ccc"/>
                  <g id="icon_eye_open_filled-v-dim" data-name="icon eye open filled-v-dim">
                    <g id="eye-open">
                      <path id="Shape-3" d="M401.8,231.388a2.768,2.768,0,1,0,2.767,2.769h0a2.767,2.767,0,0,0-2.766-2.768Z" fill="#e6e6e6"/>
                      <path id="Shape-4" d="M413.367,233.7c-.161-.282-4.008-6.9-11.175-6.9h-.24c-7.166,0-11.014,6.622-11.175,6.9l-.1.167v.418l.1.167c.161.282,4.007,6.9,11.175,6.9h.24c7.165,0,11.014-6.621,11.175-6.9l.1-.2v-.387ZM401.8,238.377a4.221,4.221,0,1,1,4.219-4.223v0A4.223,4.223,0,0,1,401.8,238.377Z" fill="#e6e6e6"/>
                    </g>
                  </g>
                  <g id="_-label-_2" data-name=" -label- 2">
                    <g>
                      <path d="M38.381,233.418a2.331,2.331,0,1,1-2.32,2.342h0A2.331,2.331,0,0,1,38.381,233.418Z" fill="#222"/>
                      <path d="M50.281,233.418a2.331,2.331,0,1,1-2.321,2.341,2.332,2.332,0,0,1,2.321-2.341Z" fill="#222"/>
                      <path d="M62.181,233.418a2.331,2.331,0,1,1-2.322,2.341,2.331,2.331,0,0,1,2.322-2.341Z" fill="#222"/>
                      <path d="M74.08,233.418a2.331,2.331,0,1,1-2.32,2.342h0A2.331,2.331,0,0,1,74.08,233.418Z" fill="#222"/>
                      <path d="M85.979,233.418a2.331,2.331,0,1,1-2.32,2.342h0A2.331,2.331,0,0,1,85.979,233.418Z" fill="#222"/>
                      <path d="M97.88,233.418a2.331,2.331,0,1,1-2.321,2.341,2.332,2.332,0,0,1,2.321-2.341Z" fill="#222"/>
                      <path d="M109.779,233.418a2.331,2.331,0,1,1-2.32,2.342h0A2.331,2.331,0,0,1,109.779,233.418Z" fill="#222"/>
                      <path d="M121.679,233.418a2.331,2.331,0,1,1-2.321,2.341,2.332,2.332,0,0,1,2.321-2.341Z" fill="#222"/>
                    </g>
                  </g>
                </g>
              </g>
              <g id="Set-Password">
                <g>
                  <path d="M26.611,198.96a2.306,2.306,0,0,0,2.216,2.391,2.235,2.235,0,0,0,.306-.009c1.358,0,2.268-.715,2.268-1.863,0-1.374-1.148-1.723-2.171-1.99-1.722-.49-3.208-.924-3.208-2.955,0-1.471,1.206-2.55,3.069-2.55a2.848,2.848,0,0,1,3.048,2.633,2.656,2.656,0,0,1,.006.309h-.954a1.94,1.94,0,0,0-2.073-2.072c-1.345,0-2.129.685-2.129,1.68,0,1.317,1.051,1.667,2.186,1.961,1.513.42,3.179.952,3.179,2.886,0,1.82-1.373,2.829-3.291,2.829a3.167,3.167,0,0,1-3.4-2.919,3.042,3.042,0,0,1-.008-.331Z" fill="#222"/>
                  <path d="M34.563,199.1a2.079,2.079,0,0,0,1.895,2.249,2.006,2.006,0,0,0,.29.005,1.768,1.768,0,0,0,1.821-1.134h.924a2.636,2.636,0,0,1-2.745,1.933,3.255,3.255,0,0,1-.042-6.5,2.785,2.785,0,0,1,2.87,2.7c0,.025,0,.051,0,.076a4.456,4.456,0,0,1-.042.673Zm.014-.715h4.1a1.938,1.938,0,0,0-1.856-2.016c-.048,0-.1,0-.144,0a1.97,1.97,0,0,0-2.1,1.837c0,.06-.006.121,0,.181Z" fill="#222"/>
                  <path d="M44.645,202a6.854,6.854,0,0,1-1.051.084c-.813,0-1.891-.168-1.891-2.157v-3.348H40.456V195.8H41.7v-2.3h.924v2.3h1.8v.784H42.627v3.166c0,1.33.49,1.5,1.149,1.5a5.752,5.752,0,0,0,.869-.069Z" fill="#222"/>
                  <path d="M49.515,192.194h3.376a3.25,3.25,0,0,1,0,6.5H50.467V202h-.952Zm5.686,3.25a2.277,2.277,0,0,0-2.17-2.379c-.047,0-.093,0-.14,0H50.467v4.763h2.424a2.277,2.277,0,0,0,2.311-2.242c0-.047,0-.093,0-.14Z" fill="#222"/>
                  <path d="M63.308,195.8V202H62.4v-1.3a2.625,2.625,0,0,1-2.409,1.457,3.25,3.25,0,0,1,0-6.5,2.6,2.6,0,0,1,2.409,1.457V195.8Zm-.908,3.1a2.354,2.354,0,1,0-2.367,2.409,2.325,2.325,0,0,0,2.368-2.281C62.4,198.985,62.4,198.943,62.4,198.9Z" fill="#222"/>
                  <path d="M70.069,200.333c0,1.19-.953,1.821-2.395,1.821-1.4,0-2.592-.7-2.592-2.256h.9c0,1.108.756,1.5,1.737,1.5.925,0,1.484-.364,1.484-1.05,0-.812-.854-.91-2.045-1.246-1.022-.252-1.877-.519-1.877-1.681s.981-1.766,2.3-1.766a2.14,2.14,0,0,1,2.385,1.863c.008.065.013.131.015.2h-.9c0-.855-.574-1.318-1.512-1.318-.813,0-1.387.379-1.387,1.038,0,.742.686.854,1.877,1.176C69.074,198.862,70.069,199.114,70.069,200.333Z" fill="#222"/>
                  <path d="M76.369,200.333c0,1.19-.953,1.821-2.395,1.821-1.4,0-2.592-.7-2.592-2.256h.9c0,1.108.757,1.5,1.738,1.5.924,0,1.484-.364,1.484-1.05,0-.812-.854-.91-2.045-1.246-1.022-.252-1.877-.519-1.877-1.681s.981-1.766,2.3-1.766a2.141,2.141,0,0,1,2.381,1.871c.007.063.012.126.014.189h-.9c0-.855-.574-1.318-1.513-1.318-.812,0-1.386.379-1.386,1.038,0,.742.686.854,1.877,1.176C75.374,198.862,76.369,199.114,76.369,200.333Z" fill="#222"/>
                  <path d="M82.066,196.817,80.231,202h-.658l-2.395-6.2h.981l1.737,4.818,1.722-4.818h.911l1.709,4.818,1.751-4.818h.981l-2.4,6.2h-.658Z" fill="#222"/>
                  <path d="M87.37,198.9a3.264,3.264,0,1,1,3.278,3.25H90.62a3.166,3.166,0,0,1-3.25-3.08C87.368,199.014,87.368,198.957,87.37,198.9Zm5.617,0a2.354,2.354,0,1,0-2.367,2.409,2.325,2.325,0,0,0,2.368-2.281C92.989,198.985,92.989,198.943,92.987,198.9Z" fill="#222"/>
                  <path d="M99.37,196.649a1.752,1.752,0,0,0-.588-.084c-1.512,0-2.213,1.233-2.213,2.675V202h-.911v-6.2h.911v1.456a2.332,2.332,0,0,1,2.213-1.54,1.441,1.441,0,0,1,.588.1Z" fill="#222"/>
                  <path d="M105.447,200.7a2.625,2.625,0,0,1-2.409,1.457,3.25,3.25,0,1,1,0-6.5,2.6,2.6,0,0,1,2.409,1.457V192.2h.91V202h-.91Zm0-1.793a2.354,2.354,0,1,0-2.367,2.409,2.325,2.325,0,0,0,2.368-2.283c0-.044,0-.089,0-.133Z" fill="#222"/>
                </g>
              </g>
            </g>
            <g id="title-field">
              <g id="multi-field-3">
                <g id="forms_validation_cross" data-name="forms validation cross">
                  <g id="Group-4">
                    <path id="Combined-Shape" d="M447.27,151.676c-2.5,2.5-3.895,3.887-3.989,3.988a1.076,1.076,0,0,0,1.531,1.513l.044-.048c.063-.069,1.6-1.606,3.936-3.935,2.334,2.329,3.873,3.866,3.936,3.935a1.076,1.076,0,0,0,1.575-1.465c-.094-.1-1.485-1.492-3.988-3.988l1.8-1.8c.574-.572,1.38-1.378,1.785-1.782l.372-.37a1.075,1.075,0,1,0-1.518-1.523l-.372.37c-.4.4-1.211,1.21-1.785,1.782l-1.808,1.8-1.808-1.8c-.574-.572-1.38-1.378-1.785-1.782l-.371-.37a1.076,1.076,0,0,0-1.519,1.523l.372.37c.405.4,1.211,1.21,1.785,1.782Zm1.41,13.137a13.133,13.133,0,1,1,13.133-13.133h0A13.133,13.133,0,0,1,448.68,164.813Z" fill="#ffa6a6"/>
                  </g>
                </g>
                <g id="forms_input_error" data-name="forms input error">
                  <path id="outline-3" d="M29,129.5a3.5,3.5,0,0,0-3.5,3.5v37a3.5,3.5,0,0,0,3.5,3.5H421a3.5,3.5,0,0,0,3.5-3.5V133a3.5,3.5,0,0,0-3.5-3.5Z" fill="#fff" stroke="#ffa6a6"/>
                  <g id="_-label-_3" data-name=" -label- 3">
                    <g>
                      <path d="M42.87,153.577a3.624,3.624,0,0,1-3.306,3.916,3.559,3.559,0,0,1-.45.01,3.73,3.73,0,0,1-3.846-3.612c0-.11,0-.221,0-.331h1.156a2.656,2.656,0,0,0,2.411,2.88c.092.008.183.011.275.01a2.559,2.559,0,0,0,2.583-2.873V145.35H42.87Z" fill="#222"/>
                      <path d="M44.843,153.492a3.961,3.961,0,1,1,3.979,3.943h-.036a3.841,3.841,0,0,1-3.943-3.736Q44.84,153.6,44.843,153.492Zm6.816,0a2.856,2.856,0,1,0-2.873,2.924,2.822,2.822,0,0,0,2.874-2.769C51.661,153.6,51.661,153.544,51.659,153.492Z" fill="#222"/>
                      <path d="M54.906,145.35h1.106v6a2.971,2.971,0,0,1,2.855-1.8,2.759,2.759,0,0,1,2.261.935,3.514,3.514,0,0,1,.663,2.346v4.42h-1.1v-4.1c0-1.479-.629-2.617-2.194-2.617a2.6,2.6,0,0,0-2.492,2.7c0,.051.006.1.011.151v3.859h-1.11Z" fill="#222"/>
                      <path d="M64.461,149.718h1.1v1.632a2.974,2.974,0,0,1,2.857-1.8,2.759,2.759,0,0,1,2.261.935,3.508,3.508,0,0,1,.662,2.346v4.42h-1.1v-4.1c0-1.479-.629-2.617-2.192-2.617a2.6,2.6,0,0,0-2.494,2.7c0,.051.006.1.011.153v3.859h-1.1Z" fill="#222"/>
                      <path d="M79.743,157.232a3.493,3.493,0,0,1,0-6.986,2.857,2.857,0,0,1,2.635,1.6V150.4h.935v5.15c0,1.106.493,1.65,1.172,1.65.969,0,1.547-1.072,1.547-4.267,0-3.348-2.192-5.235-5.864-5.235a5.888,5.888,0,0,0-6.068,5.7c0,.116,0,.233,0,.35,0,3.043,2.159,5.983,6.442,5.983a8.236,8.236,0,0,0,3.978-.951l.374.764a8.94,8.94,0,0,1-4.352,1.071c-4.93,0-7.395-3.382-7.395-6.867a6.781,6.781,0,0,1,6.621-6.937c.133,0,.267,0,.4,0,4.267,0,6.816,2.227,6.816,6.119,0,3.638-.833,5.151-2.651,5.151a1.947,1.947,0,0,1-1.955-1.871v-.578A2.857,2.857,0,0,1,79.743,157.232Zm2.635-3.485a2.554,2.554,0,1,0,0,.128C82.379,153.832,82.379,153.79,82.378,153.747Z" fill="#222"/>
                      <path d="M92.408,145.35a5.953,5.953,0,0,1,.378,11.9q-.189.006-.378,0H88.924v-11.9ZM90.08,146.4v9.8h2.328a4.9,4.9,0,0,0,.42-9.791q-.21-.009-.42,0Z" fill="#222"/>
                      <path d="M100.042,153.492a3.961,3.961,0,1,1,3.979,3.943h-.036a3.841,3.841,0,0,1-3.943-3.736Q100.039,153.6,100.042,153.492Zm6.816,0a2.857,2.857,0,1,0-2.873,2.924,2.822,2.822,0,0,0,2.874-2.769C106.86,153.6,106.86,153.544,106.858,153.492Z" fill="#222"/>
                      <path d="M110.581,153.73a2.524,2.524,0,0,0,2.3,2.73,2.556,2.556,0,0,0,.35.006,2.144,2.144,0,0,0,2.21-1.377h1.122a3.2,3.2,0,0,1-3.332,2.346c-2.532,0-3.756-1.818-3.756-3.96a3.59,3.59,0,0,1,3.706-3.927,3.379,3.379,0,0,1,3.482,3.272c0,.032,0,.063,0,.094a5.3,5.3,0,0,1-.051.816Zm.017-.867h4.98a2.35,2.35,0,0,0-2.252-2.446c-.059,0-.119,0-.179,0a2.391,2.391,0,0,0-2.543,2.229c0,.073-.006.145,0,.218Z" fill="#222"/>
                      <path d="M119.421,155.293a1.02,1.02,0,1,1-1,1.04v-.019a1,1,0,0,1,.979-1.021Z" fill="#222"/>
                      <path d="M127.1,153.611h-2.549l-.51,3.638h-.935l.51-3.638h-1.733v-.884h1.852l.391-2.855H122.4v-.884h1.87l.493-3.638h.935l-.493,3.638h2.55l.492-3.638h.936l-.493,3.638h1.563v.884h-1.7l-.392,2.855h1.581v.884h-1.7l-.511,3.638H126.6Zm-2.43-.884h2.55l.39-2.855h-2.55Z" fill="#222"/>
                      <path d="M137.7,152.472a2.11,2.11,0,0,0-2.257-1.952c-.048,0-.095.008-.143.015a2.953,2.953,0,0,0,.051,5.881,2.157,2.157,0,0,0,2.379-1.751h1.1a3.229,3.229,0,0,1-3.553,2.77,3.957,3.957,0,0,1,0-7.9c2.414,0,3.4,1.478,3.519,2.94Z" fill="#222"/>
                      <path d="M140.3,153.492a3.961,3.961,0,1,1,3.979,3.943h-.036A3.841,3.841,0,0,1,140.3,153.7Q140.3,153.6,140.3,153.492Zm6.816,0a2.856,2.856,0,1,0-2.873,2.924,2.821,2.821,0,0,0,2.871-2.772c0-.05,0-.1,0-.152Z" fill="#222"/>
                      <path d="M160.355,157.249v-4.437c0-1.581-.73-2.277-1.784-2.277-1.326,0-2.091,1.173-2.091,2.889v3.825h-1.122v-4.233c0-1.87-.748-2.481-1.785-2.481-1.308,0-2.107,1.173-2.107,2.889v3.825H150.36v-7.531h1.106v1.649a2.437,2.437,0,0,1,2.362-1.819,2.225,2.225,0,0,1,2.448,1.87,2.634,2.634,0,0,1,2.533-1.87c1.751,0,2.669,1.054,2.669,2.958v4.743Z" fill="#222"/>
                    </g>
                  </g>
                </g>
              </g>
              <g id="Email-address">
                <g>
                  <path d="M27.115,111.063v3.628h4.4v.869h-4.4v3.572h4.4V120H26.163v-9.806h5.351v.869Z" fill="#222"/>
                  <path d="M42,120v-3.656c0-1.3-.6-1.877-1.471-1.877-1.092,0-1.722.967-1.722,2.382V120h-.925v-3.488c0-1.54-.616-2.045-1.471-2.045-1.078,0-1.736.967-1.736,2.382V120h-.911v-6.2h.911v1.358a2.007,2.007,0,0,1,1.946-1.5A1.836,1.836,0,0,1,38.64,115.2a2.17,2.17,0,0,1,2.087-1.541c1.443,0,2.2.869,2.2,2.438V120Z" fill="#222"/>
                  <path d="M51.1,113.8V120h-.911v-1.3a2.625,2.625,0,0,1-2.409,1.457,3.25,3.25,0,0,1,0-6.5,2.6,2.6,0,0,1,2.409,1.457V113.8Zm-.911,3.109a2.354,2.354,0,1,0-2.367,2.409,2.325,2.325,0,0,0,2.368-2.281c0-.045,0-.091,0-.137Z" fill="#222"/>
                  <path d="M53.869,110.517a.851.851,0,0,1,.855.845v.009a.835.835,0,0,1-.843.827h-.012a.819.819,0,0,1-.827-.811v-.016a.835.835,0,0,1,.816-.854Zm-.448,3.278h.91V120h-.91Z" fill="#222"/>
                  <path d="M56.654,110.194h.911V120h-.911Z" fill="#222"/>
                  <path d="M69.426,113.8V120h-.911v-1.3a2.625,2.625,0,0,1-2.41,1.457,3.25,3.25,0,0,1,0-6.5,2.6,2.6,0,0,1,2.41,1.457V113.8Zm-.911,3.109a2.354,2.354,0,1,0-2.368,2.409,2.324,2.324,0,0,0,2.369-2.28c0-.046,0-.092,0-.138Z" fill="#222"/>
                  <path d="M76.8,118.7a2.625,2.625,0,0,1-2.409,1.457,3.25,3.25,0,0,1,0-6.5,2.6,2.6,0,0,1,2.409,1.457V110.2h.911V120H76.8Zm0-1.793a2.354,2.354,0,1,0-2.367,2.409,2.325,2.325,0,0,0,2.368-2.281c0-.045,0-.09,0-.135Z" fill="#222"/>
                  <path d="M85.091,118.7a2.625,2.625,0,0,1-2.409,1.457,3.25,3.25,0,0,1,0-6.5,2.6,2.6,0,0,1,2.409,1.457V110.2H86V120h-.91Zm0-1.793a2.354,2.354,0,1,0-2.367,2.409,2.325,2.325,0,0,0,2.368-2.283c0-.044,0-.089,0-.133Z" fill="#222"/>
                  <path d="M92.034,114.649a1.755,1.755,0,0,0-.589-.084c-1.512,0-2.213,1.233-2.213,2.675V120h-.91v-6.2h.91v1.456a2.332,2.332,0,0,1,2.213-1.54,1.446,1.446,0,0,1,.589.1Z" fill="#222"/>
                  <path d="M93.517,117.1a2.079,2.079,0,0,0,1.9,2.249,2.006,2.006,0,0,0,.29,0,1.766,1.766,0,0,0,1.82-1.134h.925a2.634,2.634,0,0,1-2.745,1.933,3.255,3.255,0,0,1-.043-6.5,2.785,2.785,0,0,1,2.871,2.7c0,.025,0,.051,0,.077a4.456,4.456,0,0,1-.042.673Zm.013-.715h4.1a1.938,1.938,0,0,0-1.856-2.016c-.048,0-.1,0-.144,0a1.971,1.971,0,0,0-2.1,1.839,1.783,1.783,0,0,0,0,.179Z" fill="#222"/>
                  <path d="M104.83,118.333c0,1.19-.952,1.821-2.4,1.821-1.4,0-2.591-.7-2.591-2.256h.9c0,1.108.756,1.5,1.737,1.5.924,0,1.485-.364,1.485-1.05,0-.812-.855-.91-2.045-1.246-1.022-.252-1.877-.519-1.877-1.681s.981-1.766,2.3-1.766a2.14,2.14,0,0,1,2.385,1.865q.012.1.015.2h-.9c0-.855-.574-1.318-1.513-1.318-.812,0-1.386.379-1.386,1.038,0,.742.686.854,1.876,1.176C103.836,116.862,104.83,117.114,104.83,118.333Z" fill="#222"/>
                  <path d="M111.131,118.333c0,1.19-.953,1.821-2.4,1.821-1.4,0-2.591-.7-2.591-2.256h.9c0,1.108.757,1.5,1.737,1.5.925,0,1.485-.364,1.485-1.05,0-.812-.855-.91-2.045-1.246-1.023-.252-1.877-.519-1.877-1.681s.98-1.766,2.3-1.766a2.14,2.14,0,0,1,2.38,1.87c.007.063.012.126.014.19h-.9c0-.855-.574-1.318-1.513-1.318-.812,0-1.387.379-1.387,1.038,0,.742.687.854,1.877,1.176C110.136,116.862,111.131,117.114,111.131,118.333Z" fill="#222"/>
                </g>
              </g>
            </g>
            <g id="title-field-2">
              <g id="multi-field-4">
                <g id="forms_input_active" data-name="forms input active">
                  <path id="outline-4" d="M29,47.823a3.5,3.5,0,0,0-3.5,3.5v37a3.5,3.5,0,0,0,3.5,3.5H421a3.5,3.5,0,0,0,3.5-3.5v-37a3.5,3.5,0,0,0-3.5-3.5Z" fill="#fff" stroke="#ccc"/>
                  <path d="M42.852,72.819a3.625,3.625,0,0,1-3.306,3.916,4,4,0,0,1-4.3-3.6c0-.111,0-.221,0-.331H36.41a2.656,2.656,0,0,0,2.411,2.88c.091.008.183.011.275.01a2.559,2.559,0,0,0,2.583-2.873V64.592h1.173Z" fill="#222"/>
                  <path d="M44.825,72.734A3.961,3.961,0,1,1,48.8,76.677h-.036a3.841,3.841,0,0,1-3.943-3.736Q44.822,72.838,44.825,72.734Zm6.816,0a2.856,2.856,0,1,0-2.873,2.924,2.822,2.822,0,0,0,2.874-2.769C51.643,72.837,51.643,72.786,51.641,72.734Z" fill="#222"/>
                  <path d="M54.888,64.592h1.106v6a2.971,2.971,0,0,1,2.855-1.8,2.759,2.759,0,0,1,2.261.935,3.514,3.514,0,0,1,.663,2.346v4.42h-1.1v-4.1c0-1.479-.629-2.617-2.194-2.617a2.6,2.6,0,0,0-2.492,2.7c0,.05.006.1.011.151V76.49h-1.11Z" fill="#222"/>
                  <path d="M64.443,68.96h1.1v1.632a2.974,2.974,0,0,1,2.857-1.8,2.759,2.759,0,0,1,2.261.935,3.513,3.513,0,0,1,.662,2.346v4.42h-1.1v-4.1c0-1.479-.629-2.617-2.192-2.617a2.6,2.6,0,0,0-2.494,2.7c0,.051.006.1.011.153V76.49h-1.1Z" fill="#222"/>
                  <path d="M81.838,64.592a5.953,5.953,0,0,1,.378,11.9q-.189.006-.378,0H78.354v-11.9Zm-2.328,1.05v9.8h2.328a4.9,4.9,0,1,0,.419-9.791c-.139-.006-.279-.006-.419,0Z" fill="#222"/>
                  <path d="M89.472,72.734a3.961,3.961,0,1,1,3.979,3.943h-.036a3.841,3.841,0,0,1-3.943-3.736Q89.469,72.838,89.472,72.734Zm6.816,0a2.857,2.857,0,1,0-2.873,2.924,2.822,2.822,0,0,0,2.874-2.769C96.29,72.837,96.29,72.786,96.288,72.734Z" fill="#222"/>
                  <path d="M100.011,72.972a2.524,2.524,0,0,0,2.3,2.73,2.553,2.553,0,0,0,.35.006,2.144,2.144,0,0,0,2.21-1.377h1.122a3.2,3.2,0,0,1-3.332,2.346c-2.532,0-3.756-1.818-3.756-3.96a3.59,3.59,0,0,1,3.706-3.927,3.379,3.379,0,0,1,3.482,3.272c0,.031,0,.063,0,.094a5.3,5.3,0,0,1-.051.816Zm.017-.867h4.98a2.352,2.352,0,0,0-2.252-2.447c-.06,0-.119,0-.179,0a2.391,2.391,0,0,0-2.543,2.229c-.005.072-.006.145,0,.218Z" fill="#222"/>
                </g>
                <g id="forms_validation_tick-3" data-name="forms validation tick-3">
                  <g id="Group-5">
                    <circle id="Oval-13-3" cx="448.68" cy="69.68" r="13.133" fill="#c1ffbf"/>
                    <path id="Shape-5" d="M442.469,70.246l5.148,5.6c.191-.239,8.641-10.088,8.641-10.088" fill="none" stroke="#fff" stroke-linecap="round" stroke-linejoin="round" stroke-width="2.15"/>
                  </g>
                </g>
              </g>
              <g id="Name">
                <g>
                  <path d="M32.145,36.347V28.194h.965V38H32.046l-4.931-8.152V38h-.952V28.194h1.065Z" fill="#222"/>
                  <path d="M41.4,31.8V38h-.91V36.7a2.625,2.625,0,0,1-2.409,1.457,3.25,3.25,0,0,1,0-6.5,2.6,2.6,0,0,1,2.409,1.457V31.8Zm-.91,3.109a2.354,2.354,0,1,0-2.367,2.409,2.325,2.325,0,0,0,2.366-2.284c0-.045,0-.089,0-.134Z" fill="#222"/>
                  <path d="M51.955,38V34.344c0-1.3-.6-1.877-1.471-1.877-1.092,0-1.722.967-1.722,2.382V38h-.925V34.512c0-1.54-.616-2.045-1.471-2.045-1.079,0-1.737.967-1.737,2.382V38h-.91V31.8h.91v1.358a2.008,2.008,0,0,1,1.947-1.5A1.834,1.834,0,0,1,48.593,33.2a2.171,2.171,0,0,1,2.088-1.541c1.442,0,2.2.869,2.2,2.438V38Z" fill="#222"/>
                  <path d="M55.479,35.1a2.082,2.082,0,0,0,1.9,2.25,2.113,2.113,0,0,0,.287,0,1.768,1.768,0,0,0,1.821-1.134h.924a2.636,2.636,0,0,1-2.745,1.933,3.255,3.255,0,0,1-.042-6.5,2.785,2.785,0,0,1,2.87,2.7c0,.025,0,.051,0,.076a4.456,4.456,0,0,1-.042.673Zm.014-.715h4.1a1.938,1.938,0,0,0-1.856-2.016c-.048,0-.1,0-.144,0a1.97,1.97,0,0,0-2.1,1.837c0,.06-.006.121,0,.181Z" fill="#222"/>
                </g>
              </g>
            </g>
          </g>
          <g id="Group-2-2">
            <g id="multi-field-5">
              <g id="forms_validation_tick-4" data-name="forms validation tick-4">
                <g id="Group-6">
                  <circle id="Oval-13-4" cx="448.173" cy="455.68" r="13.133" fill="#c1ffbf"/>
                  <path id="Shape-6" d="M441.963,456.246l5.148,5.6c.19-.239,8.641-10.088,8.641-10.088" fill="none" stroke="#fff" stroke-linecap="round" stroke-linejoin="round" stroke-width="2.15"/>
                </g>
              </g>
              <g id="forms_input_active-2" data-name="forms input active-2">
                <path id="outline-5" d="M137,433.5a3.5,3.5,0,0,0-3.5,3.5v37a3.5,3.5,0,0,0,3.5,3.5H421a3.5,3.5,0,0,0,3.5-3.5V437a3.5,3.5,0,0,0-3.5-3.5Z" fill="#fff" stroke="#ccc"/>
                <g id="_-label-_5" data-name=" -label- 5">
                  <g>
                    <path d="M151.6,453.634a4.291,4.291,0,0,1-.664,2.261l-3.654,5.881h-1.343l2.923-4.572a1.5,1.5,0,0,1-1.07.374,3.945,3.945,0,1,1,3.806-4.08c0,.046,0,.091,0,.136Zm-6.766,0a2.8,2.8,0,1,0,2.822-2.872,2.776,2.776,0,0,0-2.821,2.732c0,.047,0,.093,0,.14Z" fill="#222"/>
                    <path d="M152.775,451.85c2.091,0,2.465-.544,2.465-1.972h1.1v11.9h-1.19V452.8h-2.38Z" fill="#222"/>
                    <path d="M158.691,458.513a2.857,2.857,0,0,1,2.209-2.924,2.6,2.6,0,0,1-1.971-2.651c0-1.836,1.394-3.248,3.688-3.248s3.672,1.428,3.672,3.248a2.6,2.6,0,0,1-1.972,2.651,2.868,2.868,0,0,1,2.21,2.924c0,1.9-1.5,3.45-3.91,3.45C160.187,461.963,158.691,460.45,158.691,458.513Zm6.68,0a2.456,2.456,0,0,0-2.511-2.4q-.122,0-.243.018c-1.75,0-2.77,1.037-2.77,2.38a2.793,2.793,0,0,0,5.524,0Zm-.237-5.525a2.54,2.54,0,1,0-2.168,2.168A2.534,2.534,0,0,0,165.134,452.988Z" fill="#222"/>
                    <path d="M168.908,449.878h6.8v1.054H169.98v4.64a3.155,3.155,0,0,1,2.771-1.445,3.664,3.664,0,0,1,3.808,3.893,3.961,3.961,0,0,1-7.922,0h1.173a2.8,2.8,0,1,0,2.771-2.856,2.535,2.535,0,0,0-2.448,1.547h-1.224Z" fill="#222"/>
                  </g>
                </g>
              </g>
              <g id="SMS-code">
                <g>
                  <path d="M26.611,458.016a2.3,2.3,0,0,0,2.206,2.39,2.378,2.378,0,0,0,.316-.009c1.358,0,2.268-.714,2.268-1.863,0-1.373-1.148-1.722-2.171-1.989-1.722-.49-3.208-.924-3.208-2.955,0-1.471,1.206-2.55,3.069-2.55a2.847,2.847,0,0,1,3.048,2.63,2.69,2.69,0,0,1,.006.311h-.954a1.939,1.939,0,0,0-1.8-2.072,1.8,1.8,0,0,0-.275,0c-1.345,0-2.129.686-2.129,1.681,0,1.316,1.051,1.667,2.186,1.961,1.513.42,3.179.952,3.179,2.886,0,1.82-1.373,2.829-3.291,2.829a3.167,3.167,0,0,1-3.4-2.921,3.006,3.006,0,0,1-.008-.329Z" fill="#222"/>
                  <path d="M43.191,461.056h-.952v-7.578l-3.179,7.578H38.3l-3.18-7.578v7.578h-.952V451.25H35.1l3.586,8.363,3.586-8.363H43.2Z" fill="#222"/>
                  <path d="M45.959,458.016a2.3,2.3,0,0,0,2.2,2.393,2.413,2.413,0,0,0,.318-.009c1.359,0,2.269-.714,2.269-1.863,0-1.373-1.148-1.722-2.171-1.989-1.723-.49-3.208-.924-3.208-2.955,0-1.471,1.2-2.55,3.068-2.55a2.846,2.846,0,0,1,3.048,2.628,2.725,2.725,0,0,1,.006.313h-.953a1.941,1.941,0,0,0-1.8-2.072,2.072,2.072,0,0,0-.273,0c-1.345,0-2.129.686-2.129,1.681,0,1.316,1.051,1.667,2.185,1.961,1.513.42,3.18.952,3.18,2.886,0,1.82-1.373,2.829-3.292,2.829a3.168,3.168,0,0,1-3.393-2.924,3.218,3.218,0,0,1-.007-.326Z" fill="#222"/>
                  <path d="M61.655,457.119a1.74,1.74,0,0,0-1.859-1.612c-.039,0-.078.007-.116.012a2.212,2.212,0,0,0-2.2,2.229c0,.065,0,.13.01.195a2.189,2.189,0,0,0,1.944,2.411,2.233,2.233,0,0,0,.283.012,1.78,1.78,0,0,0,1.962-1.442h.91a2.662,2.662,0,0,1-2.928,2.283,3.261,3.261,0,0,1,0-6.514,2.6,2.6,0,0,1,2.887,2.277c.006.049.01.1.013.146Z" fill="#222"/>
                  <path d="M63.794,457.96a3.264,3.264,0,1,1,3.278,3.25h-.028a3.166,3.166,0,0,1-3.25-3.08C63.792,458.074,63.792,458.017,63.794,457.96Zm5.617,0a2.354,2.354,0,1,0-2.367,2.409,2.326,2.326,0,0,0,2.368-2.283C69.413,458.044,69.413,458,69.411,457.96Z" fill="#222"/>
                  <path d="M77.139,459.753a2.625,2.625,0,0,1-2.41,1.457,3.25,3.25,0,1,1,0-6.5,2.6,2.6,0,0,1,2.41,1.457V451.25h.911v9.806h-.911Zm0-1.793a2.354,2.354,0,1,0-2.368,2.409,2.324,2.324,0,0,0,2.369-2.28c0-.043,0-.086,0-.129Z" fill="#222"/>
                  <path d="M80.762,458.156a2.082,2.082,0,0,0,1.9,2.25,1.951,1.951,0,0,0,.286,0,1.768,1.768,0,0,0,1.822-1.135h.923a2.633,2.633,0,0,1-2.745,1.934,3.255,3.255,0,0,1-.042-6.5,2.784,2.784,0,0,1,2.87,2.7c0,.025,0,.051,0,.077a4.456,4.456,0,0,1-.042.673Zm.014-.715h4.1a1.937,1.937,0,0,0-1.857-2.015c-.048,0-.095,0-.143,0a1.97,1.97,0,0,0-2.1,1.837C80.776,457.322,80.775,457.381,80.776,457.441Z" fill="#222"/>
                </g>
              </g>
            </g>
            <g id="title-field-copy">
              <g id="multi-field-6">
                <g id="icon_help_fill-clicked" data-name="icon help fill-clicked">
                  <g id="Group-7">
                    <circle id="Oval-2" cx="448.68" cy="398.68" r="12.996" fill="#222" stroke="#222" stroke-width="1.3"/>
                    <g id="_" data-name=" ">
                      <path d="M447.866,401.044a4.037,4.037,0,0,1,.209-1.438,2.673,2.673,0,0,1,.955-1.073l.838-.618a2.954,2.954,0,0,0,.873-.928,2.372,2.372,0,0,0,.273-1.165,1.739,1.739,0,0,0-.464-1.273,1.642,1.642,0,0,0-1.229-.473,2.1,2.1,0,0,0-1.537.564,2.253,2.253,0,0,0-.573,1.673h-2.093a3.887,3.887,0,0,1,1.147-2.993,4.446,4.446,0,0,1,3.148-1.063,3.821,3.821,0,0,1,2.766.964,3.74,3.74,0,0,1,.527,4.366,6.2,6.2,0,0,1-1.42,1.492l-.654.51a2.228,2.228,0,0,0-.628.655,1.585,1.585,0,0,0-.155.745v.255h-1.983Zm-.1,3.948a1.5,1.5,0,0,1-.447-1.092,1.524,1.524,0,0,1,1.52-1.528h.009a1.5,1.5,0,0,1,1.091.446,1.459,1.459,0,0,1,.456,1.082,1.554,1.554,0,0,1-1.547,1.547,1.452,1.452,0,0,1-1.081-.455Z" fill="#fff"/>
                    </g>
                  </g>
                </g>
                <g id="elements_button_secondary" data-name="elements button secondary">
                  <g id="Group-2-3">
                    <path id="Rectangle-2" d="M354.654,376.005a22.978,22.978,0,1,0-.027,45.956h46.7a22.978,22.978,0,0,0,0-45.956Z" fill="none" stroke="#222"/>
                    <g id="Buy-cryptocurrencies">
                      <g>
                        <path d="M360.715,403.338a4.1,4.1,0,0,1-1.131-3.094h1.955a2.529,2.529,0,0,0,.63,1.818,2.671,2.671,0,0,0,3.221.229,1.733,1.733,0,0,0,.136-2.32,4.064,4.064,0,0,0-1.385-.817l-1.939-.781a3.726,3.726,0,0,1-1.7-1.232,3.176,3.176,0,0,1-.578-1.93,3.048,3.048,0,0,1,.484-1.7,3.171,3.171,0,0,1,1.352-1.157,4.6,4.6,0,0,1,1.971-.408,4.453,4.453,0,0,1,2.066.459,3.268,3.268,0,0,1,1.377,1.309,3.872,3.872,0,0,1,.484,1.955H365.7a2.089,2.089,0,0,0-.526-1.522,2.031,2.031,0,0,0-1.514-.535,1.928,1.928,0,0,0-1.3.4,1.343,1.343,0,0,0-.468,1.078,1.416,1.416,0,0,0,.459,1.054,4.827,4.827,0,0,0,1.513.868l1.751.713a3.67,3.67,0,0,1,1.684,1.267,3.439,3.439,0,0,1,.56,2.014,3.27,3.27,0,0,1-.493,1.785A3.235,3.235,0,0,1,365.985,404a4.755,4.755,0,0,1-2.065.426A4.438,4.438,0,0,1,360.715,403.338Z" fill="#222"/>
                        <path d="M376.856,400.787h-5.881a1.9,1.9,0,0,0,.611,1.438,2.831,2.831,0,0,0,2.7.279,1.54,1.54,0,0,0,.663-.68h1.87a2.71,2.71,0,0,1-1.2,1.811,4.162,4.162,0,0,1-2.439.7,3.924,3.924,0,0,1-2.958-1.121,4.181,4.181,0,0,1-1.088-3.043,4.7,4.7,0,0,1,.492-2.2,3.479,3.479,0,0,1,1.394-1.455,4.168,4.168,0,0,1,2.091-.51,4.035,4.035,0,0,1,1.981.476,3.391,3.391,0,0,1,1.335,1.326,3.959,3.959,0,0,1,.475,1.956C376.907,400.006,376.891,400.346,376.856,400.787Zm-1.768-1.41a1.909,1.909,0,0,0-.535-1.412,2.051,2.051,0,0,0-1.471-.492,2.144,2.144,0,0,0-1.53.527,1.853,1.853,0,0,0-.577,1.377Z" fill="#222"/>
                        <path d="M378.691,396.215h1.854v1.1a2.526,2.526,0,0,1,1.037-.968,3.342,3.342,0,0,1,1.547-.34,2.785,2.785,0,0,1,2.159.8,3.37,3.37,0,0,1,.731,2.345v4.983h-1.853V400a3.339,3.339,0,0,0-.392-1.854,1.517,1.517,0,0,0-1.342-.56,1.743,1.743,0,0,0-1.394.568,2.411,2.411,0,0,0-.493,1.625v4.352h-1.854Z" fill="#222"/>
                        <path d="M396,392.236v11.9h-1.836v-1.073a2.5,2.5,0,0,1-1.08.928,3.335,3.335,0,0,1-1.471.348,3.949,3.949,0,0,1-2.116-.543,3.478,3.478,0,0,1-1.326-1.488,4.9,4.9,0,0,1-.45-2.133,4.635,4.635,0,0,1,.475-2.117,3.708,3.708,0,0,1,1.369-1.5,3.924,3.924,0,0,1,2.1-.552,3.157,3.157,0,0,1,1.462.34,2.6,2.6,0,0,1,1.037.935v-5.049Zm-2.372,9.741a2.994,2.994,0,0,0,0-3.6,2.433,2.433,0,0,0-3.434-.008,2.953,2.953,0,0,0,0,3.621,2.431,2.431,0,0,0,3.434-.009Z" fill="#222"/>
                      </g>
                    </g>
                  </g>
                </g>
                <g id="elements_input_text_empty-copy-7" data-name="elements input text empty-copy-7">
                  <g id="forms_input_empty-phone-number" data-name="forms input empty-phone-number">
                    <g id="Group-6-2">
                      <g id="elements_input_dropdown_default-copy" data-name="elements input dropdown default-copy">
                        <rect id="outline-6" x="25" y="375" width="88" height="47" rx="4" ry="4" fill="#f5f5f5"/>
                        <g id="_-label-_6" data-name=" -label- 6">
                          <g>
                            <path d="M54.284,403.891v-2.839H51.5v-1h2.788V397.2h1.1v2.856h2.8v1h-2.8v2.839Z" fill="#222"/>
                            <path d="M61.407,401.852a2.6,2.6,0,0,0,2.539,2.66,2.676,2.676,0,0,0,.283-.009,2.428,2.428,0,0,0,2.672-2.157c.007-.068.012-.137.013-.206,0-1.394-.9-2.413-2.685-2.413h-.9v-1.038h.9c1.649,0,2.464-.9,2.464-2.192,0-1.326-.985-2.125-2.464-2.125a2.244,2.244,0,0,0-2.517,1.933,2.281,2.281,0,0,0-.016.413H60.54a3.349,3.349,0,0,1,3.271-3.427,3.4,3.4,0,0,1,.35.01c2.124,0,3.689,1.275,3.689,3.2a2.641,2.641,0,0,1-2.075,2.72,2.85,2.85,0,0,1,2.295,2.906c0,2.04-1.648,3.45-3.892,3.45a3.668,3.668,0,0,1-3.918-3.4c-.008-.107-.011-.213-.009-.32Z" fill="#222"/>
                            <path d="M69.567,395.46c2.091,0,2.465-.544,2.465-1.972h1.105v11.9h-1.19v-8.975h-2.38Z" fill="#222"/>
                            <path d="M79.512,401.63a4.29,4.29,0,0,1,.663-2.261l3.654-5.881h1.344l-2.924,4.573a1.828,1.828,0,0,1,1.207-.374,3.943,3.943,0,1,1-3.944,3.943Zm6.765,0a2.8,2.8,0,1,0-2.821,2.873,2.777,2.777,0,0,0,2.822-2.731C86.279,401.725,86.279,401.677,86.277,401.63Z" fill="#222"/>
                          </g>
                        </g>
                      </g>
                    </g>
                    <g id="main-field">
                      <rect id="outline-7" x="106.5" y="375.5" width="213" height="46" rx="4" ry="4" fill="#fff" stroke="#ccc"/>
                      <g id="_-label-_7" data-name=" -label- 7">
                        <g>
                          <path d="M115.544,395.46c2.091,0,2.465-.544,2.465-1.972h1.105v11.9h-1.19v-8.975h-2.38Z" fill="#ccc"/>
                          <path d="M124.843,399.522c1.411-.594,2.7-1.207,2.7-2.94a2.165,2.165,0,0,0-2.448-2.21,2.481,2.481,0,0,0-2.621,2.333,2.6,2.6,0,0,0,0,.318h-1.155a3.59,3.59,0,0,1,3.451-3.725,3.261,3.261,0,0,1,.328,0c2.192,0,3.6,1.275,3.6,3.366,0,2.227-1.937,3.195-3.246,3.739-2.21,1.037-2.822,1.87-2.822,3.927h6.119v1.054h-7.428C121.324,401.647,122.514,400.542,124.843,399.522Z" fill="#ccc"/>
                          <path d="M131.1,401.852a2.6,2.6,0,0,0,2.539,2.66,2.676,2.676,0,0,0,.283-.009,2.429,2.429,0,0,0,2.672-2.159c.007-.068.012-.136.013-.2,0-1.394-.9-2.413-2.685-2.413h-.9v-1.038h.9c1.648,0,2.465-.9,2.465-2.192,0-1.326-.987-2.125-2.465-2.125a2.244,2.244,0,0,0-2.517,1.933,2.281,2.281,0,0,0-.016.413h-1.156a3.348,3.348,0,0,1,3.269-3.427,3.183,3.183,0,0,1,.352.01c2.125,0,3.688,1.275,3.688,3.2a2.64,2.64,0,0,1-2.073,2.72,2.852,2.852,0,0,1,2.3,2.906c0,2.04-1.65,3.45-3.894,3.45a3.669,3.669,0,0,1-3.917-3.4q-.012-.159-.009-.318Z" fill="#ccc"/>
                          <path d="M144.427,401.307h-4.522v-7.819h1.156v6.765h3.366V396.5h1.155v3.756h1.939v1.054h-1.939v4.08h-1.155Z" fill="#ccc"/>
                          <path d="M149.441,393.488h6.8v1.054h-5.728v4.641a3.152,3.152,0,0,1,2.77-1.446,3.664,3.664,0,0,1,3.808,3.893,3.961,3.961,0,0,1-7.921,0h1.173a2.8,2.8,0,1,0,2.77-2.856,2.534,2.534,0,0,0-2.447,1.547h-1.225Z" fill="#ccc"/>
                          <path d="M158.655,401.63a4.29,4.29,0,0,1,.663-2.261l3.655-5.881h1.343l-2.923,4.573a1.828,1.828,0,0,1,1.207-.374,3.943,3.943,0,1,1-3.945,3.943Zm6.766,0a2.782,2.782,0,1,0,0,.137C165.423,401.721,165.423,401.676,165.421,401.63Z" fill="#ccc"/>
                          <path d="M174.567,393.488l-5.491,11.9h-1.24l5.065-10.845h-5.49v-1.054Z" fill="#ccc"/>
                          <path d="M175.01,402.123a2.855,2.855,0,0,1,2.21-2.924,2.6,2.6,0,0,1-1.972-2.651c0-1.836,1.394-3.247,3.689-3.247,2.277,0,3.671,1.428,3.671,3.247a2.6,2.6,0,0,1-1.971,2.651,2.868,2.868,0,0,1,2.209,2.924c0,1.9-1.5,3.45-3.909,3.45C176.506,405.573,175.01,404.061,175.01,402.123Zm6.68,0a2.456,2.456,0,0,0-2.511-2.4c-.081,0-.162.008-.242.018-1.751,0-2.771,1.037-2.771,2.38a2.793,2.793,0,0,0,5.524,0Zm-.238-5.524a2.539,2.539,0,1,0-2.171,2.171A2.534,2.534,0,0,0,181.452,396.6Z" fill="#ccc"/>
                        </g>
                      </g>
                    </g>
                  </g>
                </g>
              </g>
              <g id="Phone">
                <g>
                  <path d="M26.163,356.194h3.376a3.25,3.25,0,0,1,0,6.5H27.115V366h-.952Zm5.687,3.25a2.278,2.278,0,0,0-2.172-2.379c-.047,0-.093,0-.139,0H27.115v4.763h2.424a2.277,2.277,0,0,0,2.313-2.242C31.853,359.537,31.852,359.49,31.85,359.444Z" fill="#222"/>
                  <path d="M34.507,356.194h.91v4.946a2.451,2.451,0,0,1,2.354-1.486,2.276,2.276,0,0,1,1.863.771,2.9,2.9,0,0,1,.546,1.933V366h-.91v-3.376c0-1.219-.519-2.157-1.808-2.157a2.146,2.146,0,0,0-2.053,2.235c0,.039,0,.079.008.118V366h-.91Z" fill="#222"/>
                  <path d="M41.814,362.9a3.264,3.264,0,1,1,3.278,3.25h-.028a3.167,3.167,0,0,1-3.25-3.082Q41.813,362.984,41.814,362.9Zm5.618,0a2.354,2.354,0,1,0-2.368,2.409,2.326,2.326,0,0,0,2.369-2.282C47.434,362.985,47.434,362.942,47.432,362.9Z" fill="#222"/>
                  <path d="M50.1,359.8h.91v1.345a2.447,2.447,0,0,1,2.353-1.486,2.276,2.276,0,0,1,1.863.771,2.9,2.9,0,0,1,.546,1.933V366h-.91v-3.376c0-1.219-.518-2.157-1.807-2.157A2.146,2.146,0,0,0,51,362.7c0,.039,0,.079.008.118V366H50.1Z" fill="#222"/>
                  <path d="M58.362,363.1a2.082,2.082,0,0,0,1.9,2.25,2.145,2.145,0,0,0,.289,0,1.769,1.769,0,0,0,1.821-1.134h.924a2.636,2.636,0,0,1-2.745,1.933,3.255,3.255,0,0,1-.042-6.5,2.786,2.786,0,0,1,2.87,2.7c0,.025,0,.051,0,.076a4.456,4.456,0,0,1-.042.673Zm.015-.715h4.1a1.936,1.936,0,0,0-1.854-2.016c-.049,0-.1,0-.146,0a1.97,1.97,0,0,0-2.1,1.837c0,.06-.006.121,0,.181Z" fill="#222"/>
                </g>
              </g>
            </g>
          </g>
        </g>
        <g id="forms_validation_error-text" data-name="forms validation error-text">
          <g id="error-text">
            <rect id="Rectangle-9-_2-4_" data-name="Rectangle-9- 2-4 " x="272.5" y="165.611" width="143" height="16" fill="#fff"/>
            <g id="Error-goes-here">
              <g>
                <path d="M277.935,169.311h1.035v6.3h-1.035Z" fill="#ffa6a6"/>
                <path d="M281.066,169.311h1.089l2.493,4.572v-4.572h.991v6.3H284.55l-2.493-4.572v4.572h-.991Z" fill="#ffa6a6"/>
                <path d="M288.9,175.345a2.847,2.847,0,0,1-1.134-1.17,3.907,3.907,0,0,1,0-3.428,2.834,2.834,0,0,1,1.134-1.17,3.473,3.473,0,0,1,1.746-.419,3.614,3.614,0,0,1,1.5.3,2.669,2.669,0,0,1,1.053.819,2.541,2.541,0,0,1,.5,1.2H292.57a1.719,1.719,0,0,0-.643-1.017,2.346,2.346,0,0,0-2.88.274,2.873,2.873,0,0,0,0,3.465,2.353,2.353,0,0,0,2.88.275,1.722,1.722,0,0,0,.643-1.017h1.13a2.545,2.545,0,0,1-.5,1.2,2.669,2.669,0,0,1-1.053.819,3.614,3.614,0,0,1-1.5.3A3.477,3.477,0,0,1,288.9,175.345Z" fill="#ffa6a6"/>
                <path d="M296.609,175.323a2.975,2.975,0,0,1-1.133-1.2,3.692,3.692,0,0,1,0-3.33,2.975,2.975,0,0,1,1.133-1.2,3.606,3.606,0,0,1,3.456,0,2.971,2.971,0,0,1,1.134,1.2,3.692,3.692,0,0,1,0,3.33,2.971,2.971,0,0,1-1.134,1.2A3.606,3.606,0,0,1,296.609,175.323Zm2.9-.8a2.01,2.01,0,0,0,.751-.859,3.033,3.033,0,0,0,0-2.4,2.01,2.01,0,0,0-.751-.859,2.327,2.327,0,0,0-2.341,0,2.01,2.01,0,0,0-.751.859,3.033,3.033,0,0,0,0,2.4,2.01,2.01,0,0,0,.751.859A2.337,2.337,0,0,0,299.509,174.523Z" fill="#ffa6a6"/>
                <path d="M307.45,172.793a2,2,0,0,1-.976.784l1.242,2.034h-1.18l-1.151-1.89h-1.018v1.89h-1.035v-6.3h2.322a2.2,2.2,0,0,1,1.112.283,2.03,2.03,0,0,1,.769.783,2.288,2.288,0,0,1,.279,1.139A2.248,2.248,0,0,1,307.45,172.793Zm-3.083,0h1.225a1.111,1.111,0,0,0,.85-.364,1.407,1.407,0,0,0,0-1.827,1.111,1.111,0,0,0-.85-.364h-1.225Z" fill="#ffa6a6"/>
                <path d="M313.669,172.793a2,2,0,0,1-.977.784l1.243,2.034h-1.18l-1.151-1.89h-1.018v1.89h-1.035v-6.3h2.322a2.194,2.194,0,0,1,1.111.283,2.026,2.026,0,0,1,.77.783,2.3,2.3,0,0,1,.279,1.139A2.248,2.248,0,0,1,313.669,172.793Zm-3.083,0h1.225a1.111,1.111,0,0,0,.85-.364,1.407,1.407,0,0,0,0-1.827,1.111,1.111,0,0,0-.85-.364h-1.225Z" fill="#ffa6a6"/>
                <path d="M315.77,169.311h3.636v.927h-2.6v1.782h2.6v.927h-2.6v1.737h2.6v.927H315.77Z" fill="#ffa6a6"/>
                <path d="M322.583,175.345a2.847,2.847,0,0,1-1.134-1.17,3.907,3.907,0,0,1,0-3.428,2.834,2.834,0,0,1,1.134-1.17,3.473,3.473,0,0,1,1.746-.419,3.614,3.614,0,0,1,1.5.3,2.669,2.669,0,0,1,1.053.819,2.57,2.57,0,0,1,.5,1.2h-1.134a1.719,1.719,0,0,0-.643-1.017,2.346,2.346,0,0,0-2.88.274,2.873,2.873,0,0,0,0,3.465,2.353,2.353,0,0,0,2.88.275,1.722,1.722,0,0,0,.643-1.017h1.134a2.57,2.57,0,0,1-.5,1.2,2.669,2.669,0,0,1-1.053.819,3.614,3.614,0,0,1-1.5.3A3.478,3.478,0,0,1,322.583,175.345Z" fill="#ffa6a6"/>
                <path d="M330.089,170.283h-1.827v-.972h4.7v.972h-1.836v5.328h-1.035Z" fill="#ffa6a6"/>
                <path d="M337.424,169.311h3.636v.927h-2.6v1.782h2.6v.927h-2.6v1.737h2.6v.927h-3.636Z" fill="#ffa6a6"/>
                <path d="M343.066,169.311h.991l2.016,4.824,2.007-4.824h.99v6.3h-.99v-4.167l-1.62,4.167h-.783l-1.62-4.212v4.212h-.991Z" fill="#ffa6a6"/>
                <path d="M354.416,174.81H352l-.243.8h-1.125l2.124-6.3h.909l2.124,6.3h-1.125Zm-.279-.927-.936-3.123-.936,3.123Z" fill="#ffa6a6"/>
                <path d="M357.341,169.311h1.035v6.3h-1.035Z" fill="#ffa6a6"/>
                <path d="M360.473,169.311h1.035v5.328h2.528v.972h-3.563Z" fill="#ffa6a6"/>
                <path d="M372.064,174.81h-2.42l-.244.8h-1.125l2.124-6.3h.91l2.124,6.3h-1.125Zm-.279-.927-.935-3.123-.937,3.123Z" fill="#ffa6a6"/>
                <path d="M374.989,169.311h2.134a3.259,3.259,0,0,1,1.719.437,2.866,2.866,0,0,1,1.089,1.156,3.469,3.469,0,0,1,0,3.114,2.866,2.866,0,0,1-1.089,1.156,3.259,3.259,0,0,1-1.719.437h-2.134Zm2.043,5.373a2.284,2.284,0,0,0,1.234-.31,1.913,1.913,0,0,0,.733-.815,2.648,2.648,0,0,0,0-2.2,1.913,1.913,0,0,0-.733-.815,2.284,2.284,0,0,0-1.234-.31h-1.008v4.446Z" fill="#ffa6a6"/>
                <path d="M381.991,169.311h2.134a3.259,3.259,0,0,1,1.719.437,2.866,2.866,0,0,1,1.089,1.156,3.469,3.469,0,0,1,0,3.114,2.866,2.866,0,0,1-1.089,1.156,3.259,3.259,0,0,1-1.719.437h-2.134Zm2.043,5.373a2.284,2.284,0,0,0,1.234-.31,1.919,1.919,0,0,0,.733-.815,2.648,2.648,0,0,0,0-2.2,1.919,1.919,0,0,0-.733-.815,2.284,2.284,0,0,0-1.234-.31h-1.008v4.446Z" fill="#ffa6a6"/>
                <path d="M393.111,172.793a2,2,0,0,1-.976.784l1.242,2.034H392.2l-1.151-1.89h-1.018v1.89H389v-6.3h2.322a2.2,2.2,0,0,1,1.112.283,2.03,2.03,0,0,1,.769.783,2.286,2.286,0,0,1,.28,1.139A2.259,2.259,0,0,1,393.111,172.793Zm-3.083,0h1.225a1.113,1.113,0,0,0,.851-.364,1.41,1.41,0,0,0,0-1.827,1.113,1.113,0,0,0-.851-.364h-1.225Z" fill="#ffa6a6"/>
                <path d="M395.212,169.311h3.637v.927h-2.6v1.782h2.6v.927h-2.6v1.737h2.6v.927h-3.637Z" fill="#ffa6a6"/>
                <path d="M400.869,175.188a2.167,2.167,0,0,1-.6-1.638H401.3a1.339,1.339,0,0,0,.333.963,1.414,1.414,0,0,0,1.7.121.916.916,0,0,0,.072-1.228,2.156,2.156,0,0,0-.733-.432l-1.027-.414a1.981,1.981,0,0,1-.9-.652,1.688,1.688,0,0,1-.306-1.022,1.62,1.62,0,0,1,.257-.9,1.679,1.679,0,0,1,.715-.612,2.423,2.423,0,0,1,1.044-.216,2.356,2.356,0,0,1,1.094.243,1.728,1.728,0,0,1,.729.693,2.053,2.053,0,0,1,.256,1.034H403.51a1.1,1.1,0,0,0-.279-.8,1.069,1.069,0,0,0-.8-.284,1.029,1.029,0,0,0-.689.211.71.71,0,0,0-.248.572.743.743,0,0,0,.243.557,2.5,2.5,0,0,0,.8.459l.927.379a1.936,1.936,0,0,1,.891.67,1.82,1.82,0,0,1,.3,1.067,1.743,1.743,0,0,1-.26.945,1.722,1.722,0,0,1-.734.639,2.514,2.514,0,0,1-1.094.225A2.347,2.347,0,0,1,400.869,175.188Z" fill="#ffa6a6"/>
                <path d="M406.584,175.188a2.167,2.167,0,0,1-.6-1.638h1.036a1.339,1.339,0,0,0,.333.963,1.414,1.414,0,0,0,1.7.121.916.916,0,0,0,.072-1.228,2.145,2.145,0,0,0-.734-.432l-1.026-.414a1.981,1.981,0,0,1-.9-.652,1.688,1.688,0,0,1-.306-1.022,1.62,1.62,0,0,1,.257-.9,1.679,1.679,0,0,1,.715-.612,2.423,2.423,0,0,1,1.044-.216,2.349,2.349,0,0,1,1.093.243,1.719,1.719,0,0,1,.73.693,2.053,2.053,0,0,1,.256,1.034h-1.035a1.1,1.1,0,0,0-.279-.8,1.069,1.069,0,0,0-.8-.284,1.029,1.029,0,0,0-.689.211.71.71,0,0,0-.248.572.743.743,0,0,0,.243.557,2.5,2.5,0,0,0,.8.459l.927.379a1.936,1.936,0,0,1,.891.67,1.82,1.82,0,0,1,.3,1.067,1.7,1.7,0,0,1-.994,1.584,2.514,2.514,0,0,1-1.094.225A2.343,2.343,0,0,1,406.584,175.188Z" fill="#ffa6a6"/>
              </g>
            </g>
          </g>
        </g>
        <g id="Group-19">
          <g id="Combined-Shape-Copy">
            <g filter="url(#filter-9)">
              <path id="path-8-2" d="M458.057,364.391l-7.5,7.5a3.422,3.422,0,0,1-4.837,0l-7.494-7.5H191.736a3.42,3.42,0,0,1-3.42-3.42V276.758a3.42,3.42,0,0,1,3.42-3.42H470.124a3.42,3.42,0,0,1,3.42,3.42h0v84.213a3.42,3.42,0,0,1-3.42,3.42Z"/>
            </g>
            <path d="M450.159,371.482l7.661-7.661h12.3a2.85,2.85,0,0,0,2.85-2.85V276.758a2.85,2.85,0,0,0-2.85-2.85H191.736a2.85,2.85,0,0,0-2.85,2.85h0v84.213a2.85,2.85,0,0,0,2.85,2.85H438.467l7.661,7.661A2.851,2.851,0,0,0,450.159,371.482Z" fill="#fff" stroke="#222" stroke-width="1.14"/>
          </g>
          <g id="Why-do-we-ask-for-a-Copy">
            <g>
              <path d="M201.433,286.738h1.694l2.324,7.126,2.2-7.126h1.191l2.2,7.126,2.324-7.126h1.694l-3.388,9.8H210.51l-2.254-6.986-2.269,6.986h-1.161Z" fill="#222"/>
              <path d="M221.467,290.5a2.774,2.774,0,0,1,.6,1.933v4.1h-1.526v-3.4a2.746,2.746,0,0,0-.322-1.526,1.252,1.252,0,0,0-1.106-.462,1.438,1.438,0,0,0-1.148.469,1.986,1.986,0,0,0-.406,1.337v3.584h-1.526v-9.8h1.526v4.186a2.071,2.071,0,0,1,.854-.8,2.75,2.75,0,0,1,1.273-.28A2.291,2.291,0,0,1,221.467,290.5Z" fill="#222"/>
              <path d="M229.923,290.014v6.552a3.085,3.085,0,0,1-.855,2.324,3.143,3.143,0,0,1-2.212.756,3.371,3.371,0,0,1-2.239-.672,2.216,2.216,0,0,1-.728-1.694h1.54a1.213,1.213,0,0,0,.371.833,1.562,1.562,0,0,0,1.029.273,1.469,1.469,0,0,0,1.148-.469,2.154,2.154,0,0,0,.419-1.463v-.826a2.021,2.021,0,0,1-.839.805,2.731,2.731,0,0,1-1.26.273,2.188,2.188,0,0,1-1.785-.749,2.971,2.971,0,0,1-.623-1.967v-3.976h1.526v3.654a2.1,2.1,0,0,0,.321,1.246,1.256,1.256,0,0,0,1.093.448,1.358,1.358,0,0,0,1.169-.546,2.359,2.359,0,0,0,.4-1.428v-3.374Z" fill="#222"/>
              <path d="M241.711,286.738v9.8H240.2v-.882a2.05,2.05,0,0,1-.888.763,2.782,2.782,0,0,1-1.211.287,3.235,3.235,0,0,1-1.744-.448,2.862,2.862,0,0,1-1.091-1.225,4.034,4.034,0,0,1-.371-1.757,3.826,3.826,0,0,1,.391-1.743,3.029,3.029,0,0,1,1.127-1.232,3.218,3.218,0,0,1,1.73-.455,2.6,2.6,0,0,1,1.2.28,2.119,2.119,0,0,1,.853.77v-4.158Zm-1.953,8.022a2.463,2.463,0,0,0,0-2.968,1.773,1.773,0,0,0-1.436-.588,1.755,1.755,0,0,0-1.392.581,2.432,2.432,0,0,0,0,2.982A2,2,0,0,0,239.758,294.76Z" fill="#222"/>
              <path d="M244.791,296.258a3,3,0,0,1-1.2-1.232,3.912,3.912,0,0,1,0-3.5,3.016,3.016,0,0,1,1.2-1.232,3.98,3.98,0,0,1,3.668,0,3.022,3.022,0,0,1,1.2,1.232,3.912,3.912,0,0,1,0,3.5,3,3,0,0,1-1.2,1.232A3.98,3.98,0,0,1,244.791,296.258Zm3.24-1.484a2.447,2.447,0,0,0,0-3,2.011,2.011,0,0,0-2.813,0,2.452,2.452,0,0,0,0,3A2.011,2.011,0,0,0,248.031,294.774Z" fill="#222"/>
              <path d="M254.128,290.014h1.681l1.357,4.312,1.414-4.312h1.652l1.414,4.312L263,290.014h1.681l-2.409,6.524h-1.288L259.4,291.89l-1.582,4.648h-1.288Z" fill="#222"/>
              <path d="M271.32,293.78h-4.843a1.558,1.558,0,0,0,.5,1.183,1.944,1.944,0,0,0,1.316.413,1.969,1.969,0,0,0,.91-.182,1.279,1.279,0,0,0,.546-.56h1.54a2.233,2.233,0,0,1-.986,1.491,3.421,3.421,0,0,1-2.01.581,3.238,3.238,0,0,1-2.436-.924,3.444,3.444,0,0,1-.9-2.506,3.874,3.874,0,0,1,.405-1.813,2.865,2.865,0,0,1,1.149-1.2,3.433,3.433,0,0,1,1.721-.42,3.3,3.3,0,0,1,1.631.392,2.778,2.778,0,0,1,1.1,1.092,3.253,3.253,0,0,1,.391,1.61A7.66,7.66,0,0,1,271.32,293.78Zm-1.456-1.162a1.574,1.574,0,0,0-.44-1.162,1.7,1.7,0,0,0-1.212-.406,1.771,1.771,0,0,0-1.26.434,1.526,1.526,0,0,0-.475,1.134Z" fill="#222"/>
              <path d="M277.306,296.258a2.866,2.866,0,0,1-1.093-1.225,4.033,4.033,0,0,1-.37-1.757,3.826,3.826,0,0,1,.391-1.743,3.022,3.022,0,0,1,1.127-1.232,3.223,3.223,0,0,1,1.729-.455,2.591,2.591,0,0,1,1.2.28,2.122,2.122,0,0,1,.854.77v-.882h1.512v6.524h-1.512v-.882a2.056,2.056,0,0,1-.888.763,2.783,2.783,0,0,1-1.212.287A3.233,3.233,0,0,1,277.306,296.258Zm3.4-1.5a2.463,2.463,0,0,0,0-2.968,2,2,0,0,0-2.828-.007,2.432,2.432,0,0,0,0,2.982,2,2,0,0,0,2.828-.007Z" fill="#222"/>
              <path d="M285.481,296.426a2.377,2.377,0,0,1-.994-.777,1.86,1.86,0,0,1-.356-1.113h1.525a.809.809,0,0,0,.371.686,1.607,1.607,0,0,0,.959.266,1.046,1.046,0,0,0,.687-.21.691.691,0,0,0,.252-.56.634.634,0,0,0-.176-.469,1.51,1.51,0,0,0-.679-.3l-1.3-.35a1.989,1.989,0,0,1-1.058-.672,1.835,1.835,0,0,1-.37-1.162,1.63,1.63,0,0,1,.321-.987,2.109,2.109,0,0,1,.9-.686,3.251,3.251,0,0,1,1.288-.245,2.956,2.956,0,0,1,1.889.546,1.8,1.8,0,0,1,.687,1.484h-1.5a.755.755,0,0,0-.3-.637,1.339,1.339,0,0,0-.833-.231,1.138,1.138,0,0,0-.672.189.572.572,0,0,0-.265.483.6.6,0,0,0,.188.448,1.51,1.51,0,0,0,.623.309l1.3.377a2.139,2.139,0,0,1,1.1.686,1.929,1.929,0,0,1-.287,2.667,2.989,2.989,0,0,1-1.883.539A3.508,3.508,0,0,1,285.481,296.426Z" fill="#222"/>
              <path d="M294.112,293.136l2.828,3.4h-2l-2.408-2.982v2.982h-1.511v-9.8h1.511v6.146l2.479-2.87h1.931Z" fill="#222"/>
              <path d="M304.241,288.208a.906.906,0,0,0-.315.826v.98h1.708v1.274h-1.708v5.25H302.4v-5.25h-1.33v-1.274h1.33v-.952a2.19,2.19,0,0,1,.715-1.89,2.513,2.513,0,0,1,1.5-.518,3.336,3.336,0,0,1,1.023.126v1.288c-.084-.009-.182-.021-.294-.035a2.641,2.641,0,0,0-.308-.021A1.475,1.475,0,0,0,304.241,288.208Z" fill="#222"/>
              <path d="M307.8,296.258a3.01,3.01,0,0,1-1.2-1.232,3.925,3.925,0,0,1,0-3.5,3.022,3.022,0,0,1,1.2-1.232,3.98,3.98,0,0,1,3.668,0,3.022,3.022,0,0,1,1.2,1.232,3.912,3.912,0,0,1,0,3.5,3.01,3.01,0,0,1-1.2,1.232A3.98,3.98,0,0,1,307.8,296.258Zm3.241-1.484a2.452,2.452,0,0,0,0-3,2.013,2.013,0,0,0-2.815,0,2.455,2.455,0,0,0,0,3A2.013,2.013,0,0,0,311.041,294.774Z" fill="#222"/>
              <path d="M314.552,290.014h1.526v1.26a1.677,1.677,0,0,1,.658-1,1.852,1.852,0,0,1,1.078-.343,2.57,2.57,0,0,1,.6.056v1.4a5.228,5.228,0,0,0-.6-.028,1.525,1.525,0,0,0-1.274.6,2.728,2.728,0,0,0-.462,1.7v2.884h-1.526Z" fill="#222"/>
              <path d="M324.149,296.258a2.864,2.864,0,0,1-1.092-1.225,4.033,4.033,0,0,1-.37-1.757,3.8,3.8,0,0,1,.391-1.743,3.022,3.022,0,0,1,1.127-1.232,3.215,3.215,0,0,1,1.729-.455,2.6,2.6,0,0,1,1.2.28,2.128,2.128,0,0,1,.854.77v-.882H329.5v6.524h-1.512v-.882a2.056,2.056,0,0,1-.888.763,2.783,2.783,0,0,1-1.212.287A3.238,3.238,0,0,1,324.149,296.258Zm3.4-1.5a2.463,2.463,0,0,0,0-2.968,2,2,0,0,0-2.828-.007,2.432,2.432,0,0,0,0,2.982,2,2,0,0,0,2.828-.007Z" fill="#222"/>
              <path d="M340.305,290.273a2.855,2.855,0,0,1,1.091,1.2,3.985,3.985,0,0,1,.385,1.8,3.807,3.807,0,0,1-.405,1.778,2.987,2.987,0,0,1-1.135,1.218,3.183,3.183,0,0,1-1.666.434,2.7,2.7,0,0,1-1.218-.287,2.169,2.169,0,0,1-.881-.763v3.823h-1.512v-9.465h1.512v.882a2.151,2.151,0,0,1,.91-.763,2.958,2.958,0,0,1,1.288-.287A3.085,3.085,0,0,1,340.305,290.273Zm-.581,4.494a2.356,2.356,0,0,0,0-2.982,1.774,1.774,0,0,0-1.372-.581,1.826,1.826,0,0,0-1.4.574,2.379,2.379,0,0,0,0,3,1.821,1.821,0,0,0,1.4.574A1.775,1.775,0,0,0,339.724,294.767Z" fill="#222"/>
              <path d="M348.684,290.5a2.774,2.774,0,0,1,.6,1.933v4.1H347.76v-3.4a2.755,2.755,0,0,0-.322-1.526,1.252,1.252,0,0,0-1.106-.462,1.438,1.438,0,0,0-1.148.469,1.985,1.985,0,0,0-.407,1.337v3.584h-1.525v-9.8h1.525v4.186a2.074,2.074,0,0,1,.855-.8,2.75,2.75,0,0,1,1.273-.28A2.292,2.292,0,0,1,348.684,290.5Z" fill="#222"/>
              <path d="M352.3,296.258a3,3,0,0,1-1.2-1.232,3.912,3.912,0,0,1,0-3.5,3,3,0,0,1,1.2-1.232,3.98,3.98,0,0,1,3.668,0,3.022,3.022,0,0,1,1.2,1.232,3.912,3.912,0,0,1,0,3.5,3,3,0,0,1-1.2,1.232A3.98,3.98,0,0,1,352.3,296.258Zm3.24-1.484a2.447,2.447,0,0,0,0-3,2.011,2.011,0,0,0-2.813,0,2.452,2.452,0,0,0,0,3A2.011,2.011,0,0,0,355.54,294.774Z" fill="#222"/>
              <path d="M359.044,290.014h1.525v.91a2.074,2.074,0,0,1,.855-.8,2.75,2.75,0,0,1,1.273-.28,2.291,2.291,0,0,1,1.779.658,2.774,2.774,0,0,1,.6,1.933v4.1H363.55v-3.4a2.747,2.747,0,0,0-.323-1.526,1.252,1.252,0,0,0-1.1-.462,1.438,1.438,0,0,0-1.148.469,1.98,1.98,0,0,0-.407,1.337v3.584h-1.525Z" fill="#222"/>
              <path d="M372.834,293.78h-4.845a1.558,1.558,0,0,0,.5,1.183,1.945,1.945,0,0,0,1.317.413,1.984,1.984,0,0,0,.91-.182,1.279,1.279,0,0,0,.546-.56h1.54a2.23,2.23,0,0,1-.988,1.491,3.412,3.412,0,0,1-2.008.581,3.234,3.234,0,0,1-2.436-.924,3.444,3.444,0,0,1-.9-2.506,3.851,3.851,0,0,1,.406-1.813,2.872,2.872,0,0,1,1.147-1.2,3.443,3.443,0,0,1,1.723-.42,3.323,3.323,0,0,1,1.631.392,2.778,2.778,0,0,1,1.1,1.092,3.229,3.229,0,0,1,.393,1.61C372.876,293.136,372.861,293.416,372.834,293.78Zm-1.456-1.162a1.579,1.579,0,0,0-.441-1.162,1.7,1.7,0,0,0-1.211-.406,1.761,1.761,0,0,0-1.26.434,1.527,1.527,0,0,0-.477,1.134Z" fill="#222"/>
              <path d="M377.846,290.014h1.525v.91a2.074,2.074,0,0,1,.855-.8,2.75,2.75,0,0,1,1.273-.28,2.289,2.289,0,0,1,1.778.658,2.769,2.769,0,0,1,.6,1.933v4.1h-1.526v-3.4a2.747,2.747,0,0,0-.323-1.526,1.25,1.25,0,0,0-1.105-.462,1.441,1.441,0,0,0-1.149.469,1.986,1.986,0,0,0-.406,1.337v3.584h-1.525Z" fill="#222"/>
              <path d="M386.357,296.048a2.622,2.622,0,0,1-.658-1.932v-4.1h1.527v3.724a2.1,2.1,0,0,0,.307,1.246,1.182,1.182,0,0,0,1.023.42,1.463,1.463,0,0,0,1.2-.468,1.917,1.917,0,0,0,.378-1.24v-3.682h1.525v6.524h-1.525v-.91a2.125,2.125,0,0,1-2.017,1.078A2.385,2.385,0,0,1,386.357,296.048Z" fill="#222"/>
              <path d="M393.623,290.014h1.526v.91a1.811,1.811,0,0,1,.714-.777,2.074,2.074,0,0,1,1.107-.3,2.01,2.01,0,0,1,2.057,1.162,1.948,1.948,0,0,1,.785-.833,2.316,2.316,0,0,1,1.217-.329q2.354,0,2.352,2.562v4.13h-1.526V292.7a1.843,1.843,0,0,0-.308-1.176,1.1,1.1,0,0,0-.909-.378,1.255,1.255,0,0,0-1.009.427,2.368,2.368,0,0,0-.363,1.5v3.458h-1.527v-3.85a1.867,1.867,0,0,0-.294-1.168,1.07,1.07,0,0,0-.9-.372,1.285,1.285,0,0,0-1.028.427,2.313,2.313,0,0,0-.372,1.5v3.458h-1.526Z" fill="#222"/>
              <path d="M410.612,290.273a2.85,2.85,0,0,1,1.092,1.2,3.985,3.985,0,0,1,.385,1.8,3.82,3.82,0,0,1-.4,1.778,3,3,0,0,1-1.135,1.218,3.183,3.183,0,0,1-1.666.434,2.7,2.7,0,0,1-1.218-.287,2.171,2.171,0,0,1-.882-.763v.882h-1.512v-9.8h1.512V290.9a2.151,2.151,0,0,1,.91-.763,2.973,2.973,0,0,1,1.288-.287A3.082,3.082,0,0,1,410.612,290.273Zm-.581,4.494a2.356,2.356,0,0,0,0-2.982,1.772,1.772,0,0,0-1.372-.581,1.821,1.821,0,0,0-1.4.574,2.379,2.379,0,0,0,0,3,1.817,1.817,0,0,0,1.4.574A1.775,1.775,0,0,0,410.031,294.767Z" fill="#222"/>
              <path d="M419.425,293.78h-4.844a1.558,1.558,0,0,0,.5,1.183,1.94,1.94,0,0,0,1.315.413,1.986,1.986,0,0,0,.911-.182,1.261,1.261,0,0,0,.545-.56h1.54a2.224,2.224,0,0,1-.986,1.491,3.421,3.421,0,0,1-2.01.581,3.232,3.232,0,0,1-2.435-.924,3.444,3.444,0,0,1-.9-2.506,3.863,3.863,0,0,1,.406-1.813,2.863,2.863,0,0,1,1.148-1.2,3.437,3.437,0,0,1,1.722-.42,3.3,3.3,0,0,1,1.631.392,2.778,2.778,0,0,1,1.1,1.092,3.241,3.241,0,0,1,.392,1.61Q419.468,293.234,419.425,293.78Zm-1.456-1.162a1.573,1.573,0,0,0-.441-1.162,1.7,1.7,0,0,0-1.212-.406,1.769,1.769,0,0,0-1.259.434,1.527,1.527,0,0,0-.476,1.134Z" fill="#222"/>
              <path d="M420.937,290.014h1.526v1.26a1.677,1.677,0,0,1,.658-1,1.836,1.836,0,0,1,1.078-.343,2.57,2.57,0,0,1,.6.056v1.4a5.228,5.228,0,0,0-.6-.028,1.525,1.525,0,0,0-1.274.6,2.728,2.728,0,0,0-.462,1.7v2.884h-1.526Z" fill="#222"/>
              <path d="M427.265,293.262a3.058,3.058,0,0,1,.161-1.106,2.05,2.05,0,0,1,.735-.826l.644-.476a2.281,2.281,0,0,0,.672-.714,1.808,1.808,0,0,0,.21-.9,1.344,1.344,0,0,0-.357-.98,1.262,1.262,0,0,0-.945-.364,1.612,1.612,0,0,0-1.183.434,1.73,1.73,0,0,0-.441,1.288H425.15a2.983,2.983,0,0,1,.883-2.3,3.421,3.421,0,0,1,2.422-.819,2.942,2.942,0,0,1,2.128.742,2.88,2.88,0,0,1,.406,3.361,4.784,4.784,0,0,1-1.093,1.147l-.5.392a1.743,1.743,0,0,0-.483.5,1.212,1.212,0,0,0-.119.574v.2h-1.526Zm-.077,3.038a1.157,1.157,0,0,1-.343-.84,1.171,1.171,0,0,1,1.166-1.176h.01a1.153,1.153,0,0,1,.839.343,1.12,1.12,0,0,1,.351.833,1.2,1.2,0,0,1-1.19,1.19,1.124,1.124,0,0,1-.833-.35Z" fill="#222"/>
            </g>
          </g>
          <g id="We-keep-our-platform-Copy">
            <g>
              <path d="M206.57,305.4l-2.591,8.8h-.518l-3.292-9.806h.658l2.886,8.812,2.605-8.812h.518l2.6,8.812,2.872-8.812h.659l-3.287,9.8h-.5Z" fill="#222"/>
              <path d="M213.638,311.246a2.337,2.337,0,0,0,2.1,2.554,2.294,2.294,0,0,0,.31.01,2.032,2.032,0,0,0,2.045-1.3h.616a2.585,2.585,0,0,1-2.661,1.835,2.906,2.906,0,0,1-3-3.165,2.871,2.871,0,0,1,2.573-3.141,3.058,3.058,0,0,1,.383-.012,2.717,2.717,0,0,1,2.786,2.644v.056a4.061,4.061,0,0,1-.027.517Zm.013-.5H218.2a2.161,2.161,0,0,0-2.091-2.227c-.041,0-.081,0-.122,0a2.225,2.225,0,0,0-2.333,2.113c0,.037,0,.073,0,.11Z" fill="#222"/>
              <path d="M225.692,311.19l3.264,3.012h-.827l-3.18-2.914V314.2h-.588v-9.8h.588v6.7l3.18-2.928h.827Z" fill="#222"/>
              <path d="M230.059,311.246a2.339,2.339,0,0,0,2.1,2.554,2.26,2.26,0,0,0,.308.01,2.035,2.035,0,0,0,2.045-1.3h.616a2.586,2.586,0,0,1-2.661,1.835,2.906,2.906,0,0,1-3-3.165,2.871,2.871,0,0,1,2.571-3.141,3.079,3.079,0,0,1,.384-.012,2.717,2.717,0,0,1,2.787,2.643v.057a3.886,3.886,0,0,1-.028.517Zm.014-.5h4.552a2.161,2.161,0,0,0-2.091-2.227c-.041,0-.081,0-.122,0a2.225,2.225,0,0,0-2.336,2.108c0,.038,0,.077,0,.115Z" fill="#222"/>
              <path d="M237.241,311.246a2.339,2.339,0,0,0,2.1,2.554,2.245,2.245,0,0,0,.307.01,2.032,2.032,0,0,0,2.045-1.3h.617a2.588,2.588,0,0,1-2.662,1.835,2.906,2.906,0,0,1-3-3.165,2.871,2.871,0,0,1,2.573-3.141,3.058,3.058,0,0,1,.383-.012,2.717,2.717,0,0,1,2.787,2.643v.057a3.886,3.886,0,0,1-.028.517Zm.014-.5h4.553a2.161,2.161,0,0,0-2.093-2.227q-.06,0-.12,0a2.226,2.226,0,0,0-2.337,2.109q0,.057,0,.114Z" fill="#222"/>
              <path d="M244.955,309.706a2.74,2.74,0,0,1,2.619-1.682,3.159,3.159,0,0,1,0,6.318,2.74,2.74,0,0,1-2.619-1.681v5.309h-.588v-9.805h.588Zm0,1.471a2.577,2.577,0,1,0,2.606-2.592,2.524,2.524,0,0,0-2.606,2.44C244.954,311.075,244.954,311.126,244.955,311.177Z" fill="#222"/>
              <path d="M255.566,311.19a3.173,3.173,0,1,1,3.194,3.152h-.042a3.081,3.081,0,0,1-3.152-3.008Q255.565,311.262,255.566,311.19Zm5.744,0a2.571,2.571,0,1,0-2.592,2.592,2.52,2.52,0,0,0,2.592-2.446C261.311,311.287,261.311,311.239,261.31,311.19Z" fill="#222"/>
              <path d="M269.094,308.165V314.2h-.6v-1.568a2.544,2.544,0,0,1-2.466,1.708,2.268,2.268,0,0,1-1.806-.728,2.764,2.764,0,0,1-.616-1.933v-3.516h.6v3.361c0,1.289.616,2.27,1.988,2.27a2.413,2.413,0,0,0,2.3-2.521l0-.043v-3.067Z" fill="#222"/>
              <path d="M275.057,308.726a1.849,1.849,0,0,0-.6-.084c-1.61,0-2.311,1.484-2.311,2.829V314.2h-.588v-6.037h.588v1.667a2.431,2.431,0,0,1,2.311-1.766,1.571,1.571,0,0,1,.6.1Z" fill="#222"/>
              <path d="M280.5,309.706a2.74,2.74,0,0,1,2.62-1.682,3.159,3.159,0,0,1,0,6.318,2.74,2.74,0,0,1-2.62-1.681v5.309h-.588v-9.805h.588Zm0,1.471a2.578,2.578,0,1,0,2.605-2.592,2.525,2.525,0,0,0-2.605,2.441C280.5,311.076,280.5,311.127,280.5,311.177Z" fill="#222"/>
              <path d="M288.116,304.4h.588v9.8h-.588Z" fill="#222"/>
              <path d="M296.911,308.165V314.2h-.6v-1.526a2.732,2.732,0,0,1-2.606,1.666,3.159,3.159,0,0,1,0-6.318,2.723,2.723,0,0,1,2.606,1.682v-1.541Zm-.6,3.025a2.571,2.571,0,1,0-2.591,2.592,2.52,2.52,0,0,0,2.589-2.449c0-.048,0-.1,0-.143Z" fill="#222"/>
              <path d="M302.51,314.2a6.562,6.562,0,0,1-1.009.084c-.84,0-1.751-.2-1.751-2.087v-3.5h-1.33v-.532h1.33V305.7h.589v2.466h1.947v.532h-1.947v3.418c0,1.429.588,1.611,1.261,1.611a6.439,6.439,0,0,0,.91-.07Z" fill="#222"/>
              <path d="M306.85,305a1.841,1.841,0,0,0-.813-.14c-.574,0-1.246.182-1.246,1.583v1.723h2.059v.532h-2.059v5.5H304.2v-5.5h-1.44v-.532h1.44v-1.681c0-1.947,1.037-2.172,1.793-2.172a2.157,2.157,0,0,1,.855.155Z" fill="#222"/>
              <path d="M307.323,311.19a3.173,3.173,0,1,1,3.194,3.152h-.041a3.082,3.082,0,0,1-3.153-3.009C307.322,311.285,307.322,311.238,307.323,311.19Zm5.743,0a2.57,2.57,0,1,0-2.59,2.592,2.519,2.519,0,0,0,2.59-2.446C313.067,311.287,313.067,311.239,313.066,311.19Z" fill="#222"/>
              <path d="M319.029,308.726a1.849,1.849,0,0,0-.6-.084c-1.612,0-2.312,1.484-2.312,2.829V314.2h-.588v-6.037h.588v1.667a2.43,2.43,0,0,1,2.312-1.766,1.534,1.534,0,0,1,.6.1Z" fill="#222"/>
              <path d="M328.538,314.2v-3.641c0-1.457-.727-1.976-1.624-1.976-1.261,0-1.9,1.219-1.9,2.563V314.2h-.589v-3.4c0-1.778-.784-2.213-1.639-2.213-1.232,0-1.905,1.219-1.905,2.563v3.05h-.588v-6.037h.588v1.583a2.1,2.1,0,0,1,2.018-1.724,1.85,1.85,0,0,1,2,1.693l0,.058a2.207,2.207,0,0,1,2.116-1.751c1.176,0,2.115.645,2.115,2.382v3.8Z" fill="#222"/>
              <path d="M339.358,312.605c0,1.107-.84,1.737-2.3,1.737-1.387,0-2.549-.63-2.549-2.185h.588c0,1.219.882,1.667,1.975,1.667s1.709-.448,1.709-1.19c0-.925-.938-1.051-2.059-1.289-1.065-.21-2.017-.42-2.017-1.612,0-1.091.9-1.709,2.2-1.709,1.359,0,2.353.715,2.353,2h-.588c0-.98-.715-1.485-1.751-1.485-.981,0-1.639.435-1.639,1.2,0,.826.756.966,1.919,1.2C338.294,311.177,339.358,311.373,339.358,312.605Z" fill="#222"/>
              <path d="M347.087,308.165V314.2h-.6v-1.526a2.727,2.727,0,0,1-2.6,1.666,3.159,3.159,0,0,1,0-6.318,2.719,2.719,0,0,1,2.6,1.682v-1.541Zm-.6,3.025a2.57,2.57,0,1,0-2.59,2.592,2.519,2.519,0,0,0,2.587-2.449c0-.048,0-.1,0-.143Z" fill="#222"/>
              <path d="M352.741,305a1.837,1.837,0,0,0-.812-.14c-.575,0-1.246.182-1.246,1.583v1.723h2.058v.532h-2.058v5.5h-.589v-5.5h-1.443v-.532h1.443v-1.681c0-1.947,1.037-2.172,1.793-2.172a2.152,2.152,0,0,1,.854.155Z" fill="#222"/>
              <path d="M353.873,311.246a2.341,2.341,0,0,0,2.1,2.555,2.4,2.4,0,0,0,.306.009,2.032,2.032,0,0,0,2.045-1.3h.616a2.586,2.586,0,0,1-2.661,1.835,2.906,2.906,0,0,1-3-3.165,2.871,2.871,0,0,1,2.571-3.141,3.079,3.079,0,0,1,.384-.012,2.717,2.717,0,0,1,2.787,2.643v.057a3.886,3.886,0,0,1-.028.517Zm.015-.5h4.551a2.161,2.161,0,0,0-2.091-2.227c-.041,0-.081,0-.121,0a2.225,2.225,0,0,0-2.336,2.108c0,.038,0,.077,0,.115Z" fill="#222"/>
              <path d="M365.186,314.2H364.6v-9.8h.588v5.31a2.74,2.74,0,0,1,2.619-1.682,3.159,3.159,0,0,1,0,6.318,2.749,2.749,0,0,1-2.619-1.666Zm5.154-3.012a2.577,2.577,0,1,0-2.562,2.592h.013a2.509,2.509,0,0,0,2.55-2.467c0-.041,0-.082,0-.123Z" fill="#222"/>
              <path d="M372.7,315.211h.589c.069,1.555.658,2.367,2.213,2.367,1.429,0,2.171-.673,2.171-2.577v-2.367a2.519,2.519,0,0,1-2.438,1.708,2.289,2.289,0,0,1-1.877-.686,2.847,2.847,0,0,1-.574-2.088v-3.4h.589v3.264c0,1.47.462,2.367,2.03,2.367a2.391,2.391,0,0,0,2.274-2.5l0-.061v-3.067h.589V315c0,2.241-.925,3.109-2.774,3.109C373.544,318.11,372.745,317.116,372.7,315.211Z" fill="#222"/>
              <path d="M389.59,308.165V314.2h-.6v-1.568a2.543,2.543,0,0,1-2.465,1.708,2.268,2.268,0,0,1-1.806-.728,2.765,2.765,0,0,1-.617-1.933v-3.516h.6v3.361c0,1.289.616,2.27,1.989,2.27a2.413,2.413,0,0,0,2.3-2.521l0-.043v-3.067Z" fill="#222"/>
              <path d="M396.337,312.605c0,1.107-.84,1.737-2.3,1.737-1.387,0-2.55-.63-2.55-2.185h.589c0,1.219.882,1.667,1.975,1.667s1.709-.448,1.709-1.19c0-.925-.939-1.051-2.059-1.289-1.065-.21-2.017-.42-2.017-1.612,0-1.091.9-1.709,2.2-1.709,1.358,0,2.353.715,2.353,2h-.589c0-.98-.713-1.485-1.751-1.485-.98,0-1.638.435-1.638,1.2,0,.826.757.966,1.919,1.2C395.272,311.177,396.337,311.373,396.337,312.605Z" fill="#222"/>
              <path d="M398.617,305.013a.694.694,0,1,1,.053,1.387.469.469,0,0,1-.053,0,.694.694,0,0,1,0-1.387Zm-.294,3.152h.588V314.2h-.588Z" fill="#222"/>
              <path d="M401.375,308.165h.588v1.568a2.557,2.557,0,0,1,2.465-1.709,2.279,2.279,0,0,1,1.821.729,2.734,2.734,0,0,1,.6,1.934V314.2h-.589v-3.361c0-1.276-.617-2.256-1.989-2.256a2.4,2.4,0,0,0-2.314,2.483c0,.022,0,.045,0,.067V314.2h-.588Z" fill="#222"/>
              <path d="M414.93,314.763c0,2.451-1.219,3.347-3.222,3.347a2.8,2.8,0,0,1-3.054-2.941h.588a2.264,2.264,0,0,0,2.132,2.387,2.328,2.328,0,0,0,.334-.006c1.639,0,2.619-.729,2.619-2.787v-2.1a2.719,2.719,0,0,1-2.605,1.681,3.159,3.159,0,0,1,0-6.318,2.72,2.72,0,0,1,2.605,1.682v-1.541h.6Zm-5.743-3.586a2.57,2.57,0,1,0,2.549-2.592,2.51,2.51,0,0,0-2.55,2.469c0,.041,0,.082,0,.123Z" fill="#222"/>
              <path d="M420.877,315.211h.588c.07,1.555.658,2.367,2.213,2.367,1.428,0,2.172-.673,2.172-2.577v-2.367a2.521,2.521,0,0,1-2.438,1.708,2.289,2.289,0,0,1-1.877-.686,2.843,2.843,0,0,1-.574-2.088v-3.4h.588v3.264c0,1.47.462,2.367,2.031,2.367a2.393,2.393,0,0,0,2.274-2.5l0-.059v-3.067h.588V315c0,2.241-.925,3.109-2.774,3.109C421.717,318.11,420.919,317.116,420.877,315.211Z" fill="#222"/>
              <path d="M428.24,311.19a3.173,3.173,0,1,1,3.194,3.152h-.042a3.081,3.081,0,0,1-3.152-3.008Q428.238,311.262,428.24,311.19Zm5.743,0a2.57,2.57,0,1,0-2.591,2.592,2.519,2.519,0,0,0,2.591-2.445Q433.984,311.264,433.983,311.19Z" fill="#222"/>
              <path d="M441.768,308.165V314.2h-.6v-1.568a2.544,2.544,0,0,1-2.466,1.708,2.268,2.268,0,0,1-1.806-.728,2.754,2.754,0,0,1-.617-1.933v-3.516h.6v3.361c0,1.289.616,2.27,1.988,2.27a2.413,2.413,0,0,0,2.3-2.521l0-.043v-3.067Z" fill="#222"/>
              <path d="M447.73,308.726a1.849,1.849,0,0,0-.6-.084c-1.61,0-2.312,1.484-2.312,2.829V314.2h-.587v-6.037h.587v1.667a2.433,2.433,0,0,1,2.312-1.766,1.534,1.534,0,0,1,.6.1Z" fill="#222"/>
            </g>
            <g>
              <path d="M201.905,325.706a2.741,2.741,0,0,1,2.62-1.682,3.159,3.159,0,0,1,0,6.318,2.74,2.74,0,0,1-2.62-1.681v5.309h-.588v-9.805h.588Zm0,1.471a2.578,2.578,0,1,0,2.606-2.592,2.524,2.524,0,0,0-2.606,2.44C201.9,327.075,201.9,327.126,201.905,327.177Z" fill="#222"/>
              <path d="M209.521,320.4h.588v5.337a2.56,2.56,0,0,1,2.466-1.709,2.279,2.279,0,0,1,1.821.729,2.729,2.729,0,0,1,.6,1.934V330.2h-.588v-3.361c0-1.276-.616-2.256-1.989-2.256a2.4,2.4,0,0,0-2.315,2.482c0,.023,0,.045,0,.068V330.2h-.588Z" fill="#222"/>
              <path d="M216.731,327.19a3.173,3.173,0,1,1,3.194,3.152h-.042a3.081,3.081,0,0,1-3.152-3.008Q216.729,327.262,216.731,327.19Zm5.744,0a2.571,2.571,0,1,0-2.592,2.592,2.52,2.52,0,0,0,2.592-2.446c0-.049,0-.1,0-.146Z" fill="#222"/>
              <path d="M224.936,324.165h.587v1.568a2.56,2.56,0,0,1,2.466-1.709,2.286,2.286,0,0,1,1.822.729,2.734,2.734,0,0,1,.6,1.934V330.2h-.588v-3.361c0-1.276-.616-2.256-1.989-2.256a2.4,2.4,0,0,0-2.315,2.482c0,.023,0,.045,0,.068V330.2h-.587Z" fill="#222"/>
              <path d="M232.8,327.246a2.341,2.341,0,0,0,2.1,2.555,2.4,2.4,0,0,0,.306.009,2.032,2.032,0,0,0,2.045-1.3h.616a2.586,2.586,0,0,1-2.661,1.835,2.906,2.906,0,0,1-3-3.165,2.871,2.871,0,0,1,2.571-3.141,3.079,3.079,0,0,1,.384-.012,2.717,2.717,0,0,1,2.787,2.643v.057a3.886,3.886,0,0,1-.028.517Zm.014-.5h4.552a2.161,2.161,0,0,0-2.091-2.227c-.041,0-.081,0-.122,0a2.225,2.225,0,0,0-2.333,2.111c0,.037,0,.075,0,.112Z" fill="#222"/>
              <path d="M243.527,324.165h.588v1.568a2.56,2.56,0,0,1,2.465-1.709,2.279,2.279,0,0,1,1.821.729,2.729,2.729,0,0,1,.6,1.934V330.2h-.589v-3.361c0-1.276-.616-2.256-1.988-2.256a2.4,2.4,0,0,0-2.315,2.482c0,.023,0,.045,0,.068V330.2h-.588Z" fill="#222"/>
              <path d="M256.662,324.165V330.2h-.6v-1.568a2.544,2.544,0,0,1-2.466,1.708,2.27,2.27,0,0,1-1.807-.728,2.764,2.764,0,0,1-.616-1.933v-3.516h.6v3.361c0,1.289.617,2.27,1.989,2.27a2.413,2.413,0,0,0,2.3-2.521l0-.043v-3.067Z" fill="#222"/>
              <path d="M267.373,330.2v-3.641c0-1.457-.727-1.976-1.624-1.976-1.261,0-1.905,1.219-1.905,2.563V330.2h-.589v-3.4c0-1.778-.784-2.213-1.639-2.213-1.232,0-1.9,1.219-1.9,2.563v3.05h-.588v-6.037h.588v1.583a2.1,2.1,0,0,1,2.018-1.724,1.852,1.852,0,0,1,2,1.695l0,.056a2.207,2.207,0,0,1,2.116-1.751c1.176,0,2.115.645,2.115,2.382v3.8Z" fill="#222"/>
              <path d="M270.9,330.2h-.587v-9.8h.587v5.31a2.741,2.741,0,0,1,2.62-1.682,3.159,3.159,0,0,1,0,6.318,2.751,2.751,0,0,1-2.62-1.666Zm5.155-3.012a2.578,2.578,0,1,0-2.564,2.592h.015a2.509,2.509,0,0,0,2.547-2.47c0-.04,0-.08,0-.12Z" fill="#222"/>
              <path d="M278.568,327.246a2.34,2.34,0,0,0,2.1,2.555,2.417,2.417,0,0,0,.307.009,2.032,2.032,0,0,0,2.044-1.3h.617a2.587,2.587,0,0,1-2.661,1.835,2.906,2.906,0,0,1-3-3.165,2.871,2.871,0,0,1,2.573-3.141,3.058,3.058,0,0,1,.383-.012,2.717,2.717,0,0,1,2.787,2.643v.057a3.717,3.717,0,0,1-.029.517Zm.015-.5h4.552a2.161,2.161,0,0,0-2.091-2.227c-.041,0-.081,0-.122,0a2.225,2.225,0,0,0-2.336,2.108c0,.038,0,.077,0,.115Z" fill="#222"/>
              <path d="M289.2,324.726a1.849,1.849,0,0,0-.6-.084c-1.612,0-2.312,1.484-2.312,2.829V330.2H285.7v-6.037h.588v1.667a2.431,2.431,0,0,1,2.312-1.766,1.534,1.534,0,0,1,.6.1Z" fill="#222"/>
              <path d="M297.19,330.2a6.539,6.539,0,0,1-1.008.084c-.841,0-1.751-.2-1.751-2.087v-3.5H293.1v-.532h1.331V321.7h.588v2.466h1.947v.532h-1.947v3.418c0,1.429.588,1.611,1.26,1.611a6.464,6.464,0,0,0,.911-.07Z" fill="#222"/>
              <path d="M297.734,327.19a3.173,3.173,0,1,1,3.194,3.152h-.042a3.081,3.081,0,0,1-3.152-3.008Q297.733,327.262,297.734,327.19Zm5.744,0a2.571,2.571,0,1,0-2.592,2.592,2.52,2.52,0,0,0,2.592-2.446C303.479,327.287,303.479,327.239,303.478,327.19Z" fill="#222"/>
              <path d="M309.1,324.165l2.4,5.211,2.424-5.211h.643l-2.829,6.037h-.476l-2.8-6.037Z" fill="#222"/>
              <path d="M315.654,327.246a2.339,2.339,0,0,0,2.1,2.554,2.245,2.245,0,0,0,.307.01,2.032,2.032,0,0,0,2.045-1.3h.617a2.586,2.586,0,0,1-2.662,1.835,2.906,2.906,0,0,1-3-3.165,2.871,2.871,0,0,1,2.573-3.141,3.058,3.058,0,0,1,.383-.012,2.717,2.717,0,0,1,2.787,2.643v.057a3.886,3.886,0,0,1-.028.517Zm.014-.5h4.553a2.161,2.161,0,0,0-2.091-2.227c-.041,0-.081,0-.122,0a2.226,2.226,0,0,0-2.337,2.109q0,.057,0,.114Z" fill="#222"/>
              <path d="M326.282,324.726a1.849,1.849,0,0,0-.6-.084c-1.611,0-2.312,1.484-2.312,2.829V330.2h-.588v-6.037h.588v1.667a2.433,2.433,0,0,1,2.312-1.766,1.534,1.534,0,0,1,.6.1Z" fill="#222"/>
              <path d="M327.834,321.013a.694.694,0,1,1-.687.7h0a.693.693,0,0,1,.686-.7Zm-.294,3.152h.588V330.2h-.588Z" fill="#222"/>
              <path d="M333.785,321a1.837,1.837,0,0,0-.812-.14c-.575,0-1.246.182-1.246,1.583v1.723h2.058v.532h-2.058v5.5h-.589v-5.5H329.7v-.532h1.443v-1.681c0-1.947,1.037-2.172,1.793-2.172a2.152,2.152,0,0,1,.854.155Z" fill="#222"/>
              <path d="M335,331.211h.588c.07,1.555.658,2.367,2.213,2.367,1.428,0,2.172-.673,2.172-2.577v-2.367a2.521,2.521,0,0,1-2.438,1.708,2.289,2.289,0,0,1-1.877-.686,2.843,2.843,0,0,1-.574-2.088v-3.4h.588v3.264c0,1.47.462,2.367,2.031,2.367a2.393,2.393,0,0,0,2.274-2.5l0-.059v-3.067h.588V331c0,2.241-.925,3.109-2.774,3.109C335.842,334.11,335.044,333.116,335,331.211Z" fill="#222"/>
              <path d="M346.468,331.211h.588c.07,1.555.658,2.367,2.213,2.367,1.428,0,2.171-.673,2.171-2.577v-2.367a2.52,2.52,0,0,1-2.44,1.708,2.289,2.289,0,0,1-1.877-.686,2.843,2.843,0,0,1-.574-2.088v-3.4h.588v3.264c0,1.47.462,2.367,2.031,2.367a2.393,2.393,0,0,0,2.273-2.506l0-.058v-3.067h.588V331c0,2.241-.924,3.109-2.773,3.109C347.308,334.11,346.51,333.116,346.468,331.211Z" fill="#222"/>
              <path d="M353.831,327.19a3.173,3.173,0,1,1,3.194,3.152h-.042a3.081,3.081,0,0,1-3.152-3.008Q353.829,327.262,353.831,327.19Zm5.743,0a2.57,2.57,0,1,0-2.591,2.592,2.52,2.52,0,0,0,2.591-2.447C359.575,327.287,359.575,327.238,359.574,327.19Z" fill="#222"/>
              <path d="M367.358,324.165V330.2h-.6v-1.568a2.544,2.544,0,0,1-2.466,1.708,2.272,2.272,0,0,1-1.807-.728,2.764,2.764,0,0,1-.616-1.933v-3.516h.6v3.361c0,1.289.616,2.27,1.988,2.27a2.413,2.413,0,0,0,2.3-2.521l0-.043v-3.067Z" fill="#222"/>
              <path d="M373.321,324.726a1.849,1.849,0,0,0-.6-.084c-1.611,0-2.312,1.484-2.312,2.829V330.2h-.588v-6.037h.588v1.667a2.433,2.433,0,0,1,2.312-1.766,1.534,1.534,0,0,1,.6.1Z" fill="#222"/>
              <path d="M383.92,324.165V330.2h-.6v-1.526a2.729,2.729,0,0,1-2.6,1.666,3.159,3.159,0,0,1,0-6.318,2.72,2.72,0,0,1,2.6,1.682v-1.541Zm-.6,3.025a2.57,2.57,0,1,0-2.591,2.592,2.519,2.519,0,0,0,2.589-2.447c0-.048,0-.1,0-.145Z" fill="#222"/>
              <path d="M391.06,326.364a1.968,1.968,0,0,0-2.122-1.8c-.031,0-.061,0-.091.009a2.612,2.612,0,0,0,.028,5.211,2,2,0,0,0,2.213-1.653h.6a2.563,2.563,0,0,1-2.843,2.213,3.163,3.163,0,0,1,0-6.318,2.529,2.529,0,0,1,2.8,2.22c0,.04.008.08.011.12Z" fill="#222"/>
              <path d="M398.256,326.364a1.97,1.97,0,0,0-2.124-1.8c-.03,0-.06,0-.089.009a2.612,2.612,0,0,0,.027,5.211,2,2,0,0,0,2.214-1.653h.6a2.561,2.561,0,0,1-2.843,2.213,3.163,3.163,0,0,1,0-6.318,2.529,2.529,0,0,1,2.8,2.22c0,.04.008.08.011.12Z" fill="#222"/>
              <path d="M400.171,327.19a3.173,3.173,0,1,1,3.194,3.152h-.042a3.081,3.081,0,0,1-3.152-3.008Q400.17,327.262,400.171,327.19Zm5.743,0a2.571,2.571,0,1,0-2.591,2.592,2.52,2.52,0,0,0,2.591-2.447C405.915,327.287,405.915,327.238,405.914,327.19Z" fill="#222"/>
              <path d="M413.7,324.165V330.2h-.6v-1.568a2.545,2.545,0,0,1-2.465,1.708,2.27,2.27,0,0,1-1.807-.728,2.765,2.765,0,0,1-.617-1.933v-3.516h.6v3.361c0,1.289.616,2.27,1.989,2.27a2.413,2.413,0,0,0,2.3-2.521l0-.043v-3.067Z" fill="#222"/>
              <path d="M416.159,324.165h.588v1.568a2.557,2.557,0,0,1,2.466-1.709,2.279,2.279,0,0,1,1.821.729,2.734,2.734,0,0,1,.6,1.934V330.2h-.588v-3.361c0-1.276-.616-2.256-1.989-2.256a2.4,2.4,0,0,0-2.315,2.482c0,.023,0,.045,0,.068V330.2h-.588Z" fill="#222"/>
              <path d="M427.109,330.2a6.539,6.539,0,0,1-1.008.084c-.841,0-1.751-.2-1.751-2.087v-3.5h-1.331v-.532h1.331V321.7h.588v2.466h1.947v.532h-1.947v3.418c0,1.429.588,1.611,1.26,1.611a6.464,6.464,0,0,0,.911-.07Z" fill="#222"/>
              <path d="M437.75,324.165V330.2h-.6v-1.526a2.728,2.728,0,0,1-2.6,1.666,3.159,3.159,0,0,1,0-6.318,2.72,2.72,0,0,1,2.6,1.682v-1.541Zm-.6,3.025a2.57,2.57,0,1,0-2.59,2.592,2.519,2.519,0,0,0,2.587-2.449c0-.048,0-.1,0-.143Z" fill="#222"/>
              <path d="M440.211,324.165h.588v1.568a2.557,2.557,0,0,1,2.466-1.709,2.283,2.283,0,0,1,1.821.729,2.734,2.734,0,0,1,.6,1.934V330.2H445.1v-3.361c0-1.276-.617-2.256-1.99-2.256a2.4,2.4,0,0,0-2.314,2.483c0,.022,0,.045,0,.067V330.2h-.588Z" fill="#222"/>
              <path d="M453.164,328.676a2.729,2.729,0,0,1-2.6,1.666,3.159,3.159,0,0,1,0-6.318,2.72,2.72,0,0,1,2.6,1.682V320.4h.6v9.8h-.6Zm0-1.486a2.571,2.571,0,1,0-2.592,2.592,2.52,2.52,0,0,0,2.592-2.446C453.165,327.287,453.165,327.239,453.164,327.19Z" fill="#222"/>
            </g>
            <g>
              <path d="M204.455,346.2a6.562,6.562,0,0,1-1.009.084c-.84,0-1.751-.2-1.751-2.087v-3.5h-1.33v-.532h1.33V337.7h.589v2.466h1.947v.532h-1.947v3.418c0,1.429.588,1.611,1.261,1.611a6.439,6.439,0,0,0,.91-.07Z" fill="#222"/>
              <path d="M205,343.19a3.173,3.173,0,1,1,3.194,3.152h-.042A3.081,3.081,0,0,1,205,343.334Q205,343.262,205,343.19Zm5.743,0a2.57,2.57,0,1,0-2.591,2.592,2.52,2.52,0,0,0,2.59-2.448q0-.072,0-.144Z" fill="#222"/>
              <path d="M221.479,342.364a1.967,1.967,0,0,0-2.119-1.8l-.093.01a2.612,2.612,0,0,0,.028,5.211,2,2,0,0,0,2.213-1.653h.6a2.563,2.563,0,0,1-2.843,2.213,3.163,3.163,0,0,1,0-6.318,2.529,2.529,0,0,1,2.8,2.22c.005.04.008.08.011.12Z" fill="#222"/>
              <path d="M223.4,343.19a3.173,3.173,0,1,1,3.194,3.152h-.042a3.081,3.081,0,0,1-3.152-3.008Q223.4,343.262,223.4,343.19Zm5.743,0a2.571,2.571,0,1,0-2.591,2.592,2.52,2.52,0,0,0,2.586-2.452c0-.047,0-.093,0-.14Z" fill="#222"/>
              <path d="M231.6,340.165h.588v1.568a2.558,2.558,0,0,1,2.464-1.709,2.286,2.286,0,0,1,1.822.729,2.734,2.734,0,0,1,.6,1.934V346.2h-.589v-3.361c0-1.276-.616-2.256-1.988-2.256a2.4,2.4,0,0,0-2.314,2.483c0,.022,0,.045,0,.067V346.2H231.6Z" fill="#222"/>
              <path d="M242.6,337a1.823,1.823,0,0,0-.812-.14c-.574,0-1.246.182-1.246,1.583v1.723H242.6v.532h-2.058v5.5h-.589v-5.5h-1.442v-.532h1.442v-1.681c0-1.947,1.037-2.172,1.793-2.172a2.152,2.152,0,0,1,.854.155Zm1.7.042a.673.673,0,1,1-.673.673.664.664,0,0,1,.654-.674h.019Zm-.294,3.124h.588V346.2h-.588Z" fill="#222"/>
              <path d="M250.641,340.726a1.849,1.849,0,0,0-.6-.084c-1.611,0-2.311,1.484-2.311,2.829V346.2h-.588v-6.037h.588v1.667a2.428,2.428,0,0,1,2.311-1.766,1.534,1.534,0,0,1,.6.1Z" fill="#222"/>
              <path d="M260.149,346.2v-3.641c0-1.457-.728-1.976-1.625-1.976-1.26,0-1.9,1.219-1.9,2.563V346.2h-.588v-3.4c0-1.778-.784-2.213-1.638-2.213-1.234,0-1.906,1.219-1.906,2.563v3.05H251.9v-6.037h.588v1.583a2.1,2.1,0,0,1,2.017-1.724,1.854,1.854,0,0,1,2,1.7l0,.051a2.2,2.2,0,0,1,2.115-1.751c1.176,0,2.114.645,2.114,2.382v3.8Z" fill="#222"/>
              <path d="M267.271,341.706a2.74,2.74,0,0,1,2.62-1.682,3.159,3.159,0,0,1,0,6.318,2.74,2.74,0,0,1-2.62-1.681v5.309h-.588v-9.805h.588Zm0,1.471a2.578,2.578,0,1,0,2.6-2.592,2.523,2.523,0,0,0-2.6,2.444C267.27,343.078,267.27,343.128,267.271,343.177Z" fill="#222"/>
              <path d="M280.21,340.165V346.2h-.6v-1.568a2.543,2.543,0,0,1-2.465,1.708,2.27,2.27,0,0,1-1.807-.728,2.764,2.764,0,0,1-.616-1.933v-3.516h.6v3.361c0,1.289.617,2.27,1.989,2.27a2.413,2.413,0,0,0,2.3-2.521l0-.043v-3.067Z" fill="#222"/>
              <path d="M286.173,340.726a1.849,1.849,0,0,0-.6-.084c-1.61,0-2.311,1.484-2.311,2.829V346.2h-.588v-6.037h.588v1.667a2.432,2.432,0,0,1,2.311-1.766,1.534,1.534,0,0,1,.6.1Z" fill="#222"/>
              <path d="M292.109,342.364a1.968,1.968,0,0,0-2.122-1.8c-.031,0-.061,0-.091.009a2.612,2.612,0,0,0,.028,5.211,2,2,0,0,0,2.214-1.653h.6a2.561,2.561,0,0,1-2.843,2.213,3.163,3.163,0,0,1,0-6.318,2.53,2.53,0,0,1,2.805,2.221c0,.04.008.079.011.119Z" fill="#222"/>
              <path d="M294.7,336.4h.588v5.337a2.559,2.559,0,0,1,2.465-1.709,2.279,2.279,0,0,1,1.821.729,2.729,2.729,0,0,1,.6,1.934V346.2h-.589v-3.361c0-1.276-.616-2.256-1.988-2.256a2.4,2.4,0,0,0-2.315,2.482c0,.023,0,.045,0,.068V346.2H294.7Z" fill="#222"/>
              <path d="M308.252,340.165V346.2h-.6v-1.526a2.728,2.728,0,0,1-2.6,1.666,3.159,3.159,0,0,1,0-6.318,2.72,2.72,0,0,1,2.6,1.682v-1.541Zm-.6,3.025a2.57,2.57,0,1,0-2.59,2.592,2.519,2.519,0,0,0,2.587-2.449c0-.048,0-.1,0-.143Z" fill="#222"/>
              <path d="M315,344.605c0,1.107-.84,1.737-2.3,1.737-1.387,0-2.55-.63-2.55-2.185h.589c0,1.219.882,1.667,1.975,1.667s1.709-.448,1.709-1.19c0-.925-.939-1.051-2.059-1.289-1.065-.21-2.017-.42-2.017-1.612,0-1.091.9-1.709,2.2-1.709,1.358,0,2.353.715,2.353,2h-.588c0-.98-.714-1.485-1.751-1.485-.981,0-1.639.435-1.639,1.2,0,.826.757.966,1.919,1.2C313.935,343.177,315,343.373,315,344.605Z" fill="#222"/>
              <path d="M317.279,337.013a.694.694,0,0,1,.053,1.387.469.469,0,0,1-.053,0,.694.694,0,0,1,0-1.387Zm-.294,3.152h.588V346.2h-.588Z" fill="#222"/>
              <path d="M320.037,340.165h.588v1.568a2.557,2.557,0,0,1,2.465-1.709,2.279,2.279,0,0,1,1.821.729,2.734,2.734,0,0,1,.6,1.934V346.2h-.589v-3.361c0-1.276-.616-2.256-1.988-2.256a2.4,2.4,0,0,0-2.315,2.482c0,.023,0,.045,0,.068V346.2h-.588Z" fill="#222"/>
              <path d="M333.592,346.763c0,2.451-1.219,3.347-3.222,3.347a2.8,2.8,0,0,1-3.054-2.941h.588a2.264,2.264,0,0,0,2.132,2.387,2.328,2.328,0,0,0,.334-.006c1.639,0,2.619-.729,2.619-2.787v-2.1a2.72,2.72,0,0,1-2.6,1.681,3.159,3.159,0,0,1,0-6.318,2.718,2.718,0,0,1,2.6,1.682v-1.541h.6Zm-5.743-3.586a2.57,2.57,0,1,0,2.549-2.592,2.51,2.51,0,0,0-2.55,2.469C327.847,343.1,327.848,343.136,327.849,343.177Z" fill="#222"/>
              <path d="M345.379,340.165V346.2h-.6v-1.526a2.729,2.729,0,0,1-2.6,1.666,3.159,3.159,0,0,1,0-6.318,2.72,2.72,0,0,1,2.6,1.682v-1.541Zm-.6,3.025a2.57,2.57,0,1,0-2.591,2.592,2.519,2.519,0,0,0,2.589-2.447c0-.048,0-.1,0-.145Z" fill="#222"/>
              <path d="M347.841,340.165h.588v1.568a2.557,2.557,0,0,1,2.465-1.709,2.283,2.283,0,0,1,1.821.729,2.734,2.734,0,0,1,.6,1.934V346.2h-.588v-3.361c0-1.276-.617-2.256-1.989-2.256a2.4,2.4,0,0,0-2.314,2.483c0,.022,0,.045,0,.067V346.2h-.588Z" fill="#222"/>
              <path d="M360.793,344.676a2.728,2.728,0,0,1-2.605,1.666,3.159,3.159,0,0,1,0-6.318,2.72,2.72,0,0,1,2.605,1.682V336.4h.6v9.8h-.6Zm0-1.486a2.571,2.571,0,1,0-2.591,2.592,2.52,2.52,0,0,0,2.591-2.447C360.794,343.287,360.794,343.238,360.793,343.19Z" fill="#222"/>
              <path d="M371.74,344.605c0,1.107-.84,1.737-2.3,1.737-1.386,0-2.549-.63-2.549-2.185h.588c0,1.219.882,1.667,1.975,1.667s1.709-.448,1.709-1.19c0-.925-.938-1.051-2.059-1.289-1.065-.21-2.017-.42-2.017-1.612,0-1.091.9-1.709,2.2-1.709,1.358,0,2.354.715,2.354,2h-.589c0-.98-.714-1.485-1.751-1.485-.981,0-1.639.435-1.639,1.2,0,.826.757.966,1.919,1.2C370.676,343.177,371.74,343.373,371.74,344.605Z" fill="#222"/>
              <path d="M373.782,343.246a2.339,2.339,0,0,0,2.1,2.554,2.245,2.245,0,0,0,.307.01,2.032,2.032,0,0,0,2.045-1.3h.617a2.588,2.588,0,0,1-2.662,1.835,2.906,2.906,0,0,1-3-3.165,2.871,2.871,0,0,1,2.573-3.141,3.058,3.058,0,0,1,.383-.012,2.716,2.716,0,0,1,2.787,2.643v.057a3.886,3.886,0,0,1-.028.517Zm.014-.5h4.553a2.161,2.161,0,0,0-2.093-2.227q-.06,0-.12,0a2.225,2.225,0,0,0-2.333,2.113c0,.037,0,.073,0,.11Z" fill="#222"/>
              <path d="M380.908,336.4h.588v9.8h-.588Z" fill="#222"/>
              <path d="M383.96,336.4h.588v9.8h-.588Z" fill="#222"/>
              <path d="M387.306,337.013a.694.694,0,1,1-.687.7h0A.694.694,0,0,1,387.306,337.013Zm-.294,3.152h.588V346.2h-.588Z" fill="#222"/>
              <path d="M390.063,340.165h.588v1.568a2.56,2.56,0,0,1,2.465-1.709,2.286,2.286,0,0,1,1.822.729,2.734,2.734,0,0,1,.6,1.934V346.2h-.589v-3.361c0-1.276-.616-2.256-1.988-2.256a2.4,2.4,0,0,0-2.315,2.482c0,.023,0,.045,0,.068V346.2h-.588Z" fill="#222"/>
              <path d="M403.618,346.763c0,2.451-1.219,3.347-3.222,3.347a2.8,2.8,0,0,1-3.053-2.941h.588a2.264,2.264,0,0,0,2.132,2.387,2.314,2.314,0,0,0,.333-.006c1.639,0,2.62-.729,2.62-2.787v-2.1a2.721,2.721,0,0,1-2.606,1.681,3.159,3.159,0,0,1,0-6.318,2.723,2.723,0,0,1,2.606,1.682v-1.541h.6Zm-5.743-3.586a2.571,2.571,0,1,0,2.55-2.592,2.511,2.511,0,0,0-2.551,2.47C397.873,343.1,397.874,343.136,397.875,343.177Z" fill="#222"/>
              <path d="M415.406,340.165V346.2h-.6v-1.526a2.732,2.732,0,0,1-2.606,1.666,3.159,3.159,0,0,1,0-6.318,2.723,2.723,0,0,1,2.606,1.682v-1.541Zm-.6,3.025a2.571,2.571,0,1,0-2.591,2.592,2.52,2.52,0,0,0,2.585-2.453c0-.046,0-.093,0-.139Z" fill="#222"/>
              <path d="M422.545,342.364a1.968,1.968,0,0,0-2.122-1.8c-.031,0-.061,0-.091.009a2.612,2.612,0,0,0,.028,5.211,2,2,0,0,0,2.213-1.653h.6a2.564,2.564,0,0,1-2.844,2.213,3.163,3.163,0,0,1,0-6.318,2.529,2.529,0,0,1,2.8,2.22c0,.04.008.08.011.12Z" fill="#222"/>
              <path d="M428.271,346.2a6.562,6.562,0,0,1-1.009.084c-.84,0-1.751-.2-1.751-2.087v-3.5h-1.33v-.532h1.33V337.7h.589v2.466h1.947v.532H426.1v3.418c0,1.429.588,1.611,1.26,1.611a6.464,6.464,0,0,0,.911-.07Z" fill="#222"/>
              <path d="M429.865,337.013a.694.694,0,1,1,.053,1.387.469.469,0,0,1-.053,0,.694.694,0,0,1,0-1.387Zm-.294,3.152h.588V346.2h-.588Z" fill="#222"/>
              <path d="M432.188,340.165l2.4,5.211,2.423-5.211h.644l-2.83,6.037h-.475l-2.8-6.037Z" fill="#222"/>
              <path d="M439.328,337.013a.694.694,0,1,1-.686.7v0a.693.693,0,0,1,.686-.7Zm-.294,3.152h.588V346.2h-.588Z" fill="#222"/>
              <path d="M445.224,346.2a6.562,6.562,0,0,1-1.009.084c-.84,0-1.751-.2-1.751-2.087v-3.5h-1.33v-.532h1.33V337.7h.589v2.466H445v.532h-1.947v3.418c0,1.429.588,1.611,1.26,1.611a6.464,6.464,0,0,0,.911-.07Z" fill="#222"/>
              <path d="M446.426,347.211h.589c.069,1.555.658,2.367,2.213,2.367,1.428,0,2.17-.673,2.17-2.577v-2.367a2.518,2.518,0,0,1-2.437,1.708,2.289,2.289,0,0,1-1.877-.686,2.847,2.847,0,0,1-.574-2.088v-3.4h.589v3.264c0,1.47.462,2.367,2.03,2.367a2.392,2.392,0,0,0,2.273-2.5l0-.06v-3.067h.589V347c0,2.241-.924,3.109-2.773,3.109C447.267,350.11,446.468,349.116,446.426,347.211Z" fill="#222"/>
              <path d="M454.574,344.886a.686.686,0,1,1-.686.686.686.686,0,0,1,.686-.686Z" fill="#222"/>
            </g>
          </g>
        </g>
      </g>
    </g>
  </g>
</svg>
