<svg id="Layer_1" data-name="Layer 1" xmlns="http://www.w3.org/2000/svg" viewBox="0 0 280 225"><title>security-illustrations</title><polyline points="166.529 114.683 221.345 114.856 221.345 101.039 233.324 101.039 233.324 124.076 176.787 124.076" fill="#fff" stroke="#231f20" stroke-linecap="round" stroke-linejoin="round" stroke-width="2.021"/><line x1="158.598" y1="114.658" x2="162.86" y2="114.671" fill="#fff" stroke="#231f20" stroke-linecap="round" stroke-linejoin="round" stroke-width="1.42"/><line x1="174.971" y1="121.721" x2="229.457" y2="121.721" fill="#fff" stroke="#231f20" stroke-linecap="round" stroke-linejoin="round" stroke-width="0.947"/><polyline points="113.88 107.057 113.88 84.799 126.007 84.799 126.007 124.728" fill="#fff" stroke="#231f20" stroke-linecap="round" stroke-linejoin="round" stroke-width="1.894"/><path d="M270.939,200.807a25.9,25.9,0,0,0-26.54-41.595l-1.183.309c0-.109-.01-.407-.016-.516a31.117,31.117,0,0,0-60.772-7.619l-1.3,4.616" fill="none" stroke="#231f20" stroke-linecap="round" stroke-linejoin="round" stroke-width="2.021"/><path d="M122.2,140.034a24.671,24.671,0,0,0-48.2,6.3,16.335,16.335,0,0,0-20.477,8.987A28.479,28.479,0,0,0,24.372,171.34c-.051.107-.1.215-.151.323a24.779,24.779,0,0,0-2.415,8.587c-.066,1.1-.193,2.205-.193,3.332a28.588,28.588,0,0,0,.507,5.369,11.957,11.957,0,0,0-10.96,9.157" fill="none" stroke="#231f20" stroke-linecap="round" stroke-linejoin="round" stroke-width="2.021"/><rect x="76.306" y="110.984" width="134.592" height="41.358" fill="#fff" stroke="#231f20" stroke-linecap="round" stroke-linejoin="round" stroke-width="1.786"/><line x1="196.23" y1="110.984" x2="196.23" y2="152.343" fill="#fff" stroke="#231f20" stroke-linecap="round" stroke-linejoin="round" stroke-width="1.894"/><rect x="76.544" y="158.026" width="134.592" height="41.358" fill="#fff" stroke="#231f20" stroke-linecap="round" stroke-linejoin="round" stroke-width="1.786"/><line x1="196.498" y1="158.026" x2="196.498" y2="199.384" fill="#fff" stroke="#231f20" stroke-linecap="round" stroke-linejoin="round" stroke-width="1.894"/><circle cx="175.019" cy="131.663" r="4.892" fill="#fff100" stroke="#231f20" stroke-linecap="round" stroke-linejoin="round" stroke-width="1.42"/><circle cx="175.019" cy="178.705" r="4.892" fill="#fff100" stroke="#231f20" stroke-linecap="round" stroke-linejoin="round" stroke-width="1.42"/><line x1="160.462" y1="126.771" x2="157.463" y2="136.556" fill="#fff" stroke="#231f20" stroke-linecap="round" stroke-linejoin="round" stroke-width="1.42"/><line x1="153.871" y1="126.771" x2="150.872" y2="136.556" fill="#fff" stroke="#231f20" stroke-linecap="round" stroke-linejoin="round" stroke-width="1.42"/><line x1="147.28" y1="126.771" x2="144.281" y2="136.556" fill="#fff" stroke="#231f20" stroke-linecap="round" stroke-linejoin="round" stroke-width="1.42"/><line x1="140.689" y1="126.771" x2="137.69" y2="136.556" fill="#fff" stroke="#231f20" stroke-linecap="round" stroke-linejoin="round" stroke-width="1.42"/><line x1="134.098" y1="126.771" x2="131.099" y2="136.556" fill="#fff" stroke="#231f20" stroke-linecap="round" stroke-linejoin="round" stroke-width="1.42"/><line x1="127.507" y1="126.771" x2="124.508" y2="136.556" fill="#fff" stroke="#231f20" stroke-linecap="round" stroke-linejoin="round" stroke-width="1.42"/><line x1="120.916" y1="126.771" x2="117.917" y2="136.556" fill="#fff" stroke="#231f20" stroke-linecap="round" stroke-linejoin="round" stroke-width="1.42"/><line x1="114.325" y1="126.771" x2="111.326" y2="136.556" fill="#fff" stroke="#231f20" stroke-linecap="round" stroke-linejoin="round" stroke-width="1.42"/><line x1="107.734" y1="126.771" x2="104.736" y2="136.556" fill="#fff" stroke="#231f20" stroke-linecap="round" stroke-linejoin="round" stroke-width="1.42"/><line x1="101.143" y1="126.771" x2="98.145" y2="136.556" fill="#fff" stroke="#231f20" stroke-linecap="round" stroke-linejoin="round" stroke-width="1.42"/><line x1="160.462" y1="174.252" x2="157.463" y2="184.037" fill="#fff" stroke="#231f20" stroke-linecap="round" stroke-linejoin="round" stroke-width="1.42"/><line x1="153.871" y1="174.252" x2="150.872" y2="184.037" fill="#fff" stroke="#231f20" stroke-linecap="round" stroke-linejoin="round" stroke-width="1.42"/><line x1="147.28" y1="174.252" x2="144.281" y2="184.037" fill="#fff" stroke="#231f20" stroke-linecap="round" stroke-linejoin="round" stroke-width="1.42"/><line x1="140.689" y1="174.252" x2="137.69" y2="184.037" fill="#fff" stroke="#231f20" stroke-linecap="round" stroke-linejoin="round" stroke-width="1.42"/><line x1="134.098" y1="174.252" x2="131.099" y2="184.037" fill="#fff" stroke="#231f20" stroke-linecap="round" stroke-linejoin="round" stroke-width="1.42"/><line x1="127.507" y1="174.252" x2="124.508" y2="184.037" fill="#fff" stroke="#231f20" stroke-linecap="round" stroke-linejoin="round" stroke-width="1.42"/><line x1="120.916" y1="174.252" x2="117.917" y2="184.037" fill="#fff" stroke="#231f20" stroke-linecap="round" stroke-linejoin="round" stroke-width="1.42"/><line x1="114.325" y1="174.252" x2="111.326" y2="184.037" fill="#fff" stroke="#231f20" stroke-linecap="round" stroke-linejoin="round" stroke-width="1.42"/><line x1="107.734" y1="174.252" x2="104.736" y2="184.037" fill="#fff" stroke="#231f20" stroke-linecap="round" stroke-linejoin="round" stroke-width="1.42"/><line x1="101.143" y1="174.252" x2="98.145" y2="184.037" fill="#fff" stroke="#231f20" stroke-linecap="round" stroke-linejoin="round" stroke-width="1.42"/><path d="M83.226,107.51a6.828,6.828,0,0,0-11.061-3.651L50.028,122.615l-3.085-3.642,22.136-18.756a11.606,11.606,0,0,1,18.708,5.853" fill="#fff" stroke="#231f20" stroke-linecap="round" stroke-linejoin="round" stroke-width="1.42"/><path d="M82.838,115.5c2.186,2.453-1.637,4.851-1.637,4.851L61.94,136.674l-3.085-3.641L78.1,116.726s3.116-2.967,4.737-1.223" fill="#fff" stroke="#231f20" stroke-linecap="round" stroke-linejoin="round" stroke-width="1.42"/><rect x="40.64" y="110.873" width="31.012" height="31.012" transform="translate(116.272 1.844) rotate(49.725)" fill="#fff100" stroke="#231f20" stroke-linecap="round" stroke-linejoin="round" stroke-width="1.894"/><circle cx="56.157" cy="126.37" r="10.002" transform="translate(-77.98 159.99) rotate(-80.111)" fill="#fff" stroke="#231f20" stroke-linecap="round" stroke-linejoin="round" stroke-width="1.42"/><path d="M59.3,126.986a2.485,2.485,0,0,1-2.134.536l-3.45,2.923-1.885-2.226,3.37-2.855a2.5,2.5,0,1,1,4.1,1.622Z" fill="#231f20" stroke="#231f20" stroke-linecap="round" stroke-linejoin="round" stroke-width="0.947"/><rect x="91.705" y="33.108" width="44.879" height="60.885" fill="#fff" stroke="#231f20" stroke-linecap="round" stroke-linejoin="round" stroke-width="1.831"/><line x1="132.833" y1="93.997" x2="132.833" y2="33.112" fill="#fff" stroke="#231f20" stroke-linecap="round" stroke-linejoin="round" stroke-width="0.947"/><rect x="94.877" y="36.156" width="34.445" height="45.098" fill="#fff" stroke="#231f20" stroke-linecap="round" stroke-linejoin="round" stroke-width="0.947"/><line x1="123.403" y1="96.404" x2="123.403" y2="110.174" fill="#fff" stroke="#231f20" stroke-linecap="round" stroke-linejoin="round" stroke-width="0.947"/><rect x="94.403" y="84.799" width="17.696" height="3.319" fill="#fff" stroke="#231f20" stroke-linecap="round" stroke-linejoin="round" stroke-width="0.947"/><line x1="108.785" y1="45.684" x2="108.785" y2="71.666" fill="none" stroke="#231f20" stroke-linecap="round" stroke-linejoin="round" stroke-width="0.473"/><rect x="196.145" y="110.984" width="14.991" height="41.358" fill="#231f20"/><rect x="196.145" y="157.956" width="14.991" height="41.358" fill="#231f20"/><rect x="132.85" y="33.112" width="3.735" height="60.885" fill="#231f20"/><path d="M125.5,48.8c-6.4-.524-9.826-3.321-11.234-5.131a1.983,1.983,0,0,0-3.17.084c-1.408,1.81-4.554,4.523-10.952,5.047a1.288,1.288,0,0,0-1.189,1.319A35.839,35.839,0,0,0,111.278,76.08a2.384,2.384,0,0,0,3.088,0,35.843,35.843,0,0,0,12.323-25.964A1.288,1.288,0,0,0,125.5,48.8Z" fill="#fff" stroke="#231f20" stroke-linecap="round" stroke-linejoin="round" stroke-width="0.947"/><path d="M111.973,73.8a32.7,32.7,0,0,1-10.85-22.861c5.977-.574,9.209-3.058,10.85-4.987,1.641,1.929,4.873,4.413,10.85,4.987A32.7,32.7,0,0,1,111.973,73.8Z" fill="#fff100" stroke="#231f20" stroke-linecap="round" stroke-linejoin="round" stroke-width="0.449"/><rect x="166.401" y="67.066" width="93.061" height="33.16" fill="#fff" stroke="#231f20" stroke-linecap="round" stroke-linejoin="round" stroke-width="1.84"/><line x1="253.12" y1="67.066" x2="253.12" y2="100.226" fill="#fff" stroke="#231f20" stroke-linecap="round" stroke-linejoin="round" stroke-width="0.947"/><rect x="252.324" y="67.066" width="7.139" height="33.16" fill="#231f20"/><rect x="173.907" y="75.794" width="65.174" height="15.388" fill="#fff" stroke="#231f20" stroke-linecap="round" stroke-linejoin="round" stroke-width="1.42"/><path d="M183.637,81.423l.86,1.54-1.623.555,1.623.528-.929,1.609-1.291-1.207.361,1.72h-1.776l.361-1.72-1.276,1.221L179,84.032l1.623-.555-1.609-.5.86-1.554,1.36,1.18-.389-1.734h1.8l-.375,1.734Z" fill="#231f20"/><path d="M224.211,81.423l.86,1.54-1.623.555,1.623.528-.929,1.609-1.29-1.207.361,1.72h-1.776l.36-1.72-1.276,1.221-.943-1.637,1.623-.555-1.609-.5.86-1.554,1.359,1.18-.388-1.734h1.8l-.374,1.734Z" fill="#231f20"/><path d="M217.449,81.423l.86,1.54-1.623.555,1.623.528-.929,1.609-1.291-1.207.361,1.72h-1.776l.361-1.72-1.276,1.221-.944-1.637,1.623-.555-1.609-.5.86-1.554,1.36,1.18-.389-1.734h1.8l-.375,1.734Z" fill="#231f20"/><path d="M210.687,81.423l.86,1.54-1.624.555,1.624.528-.93,1.609-1.29-1.207.361,1.72h-1.776l.36-1.72L207,85.669l-.943-1.637,1.623-.555-1.609-.5.86-1.554,1.359,1.18-.388-1.734h1.8l-.374,1.734Z" fill="#231f20"/><path d="M203.924,81.423l.86,1.54-1.623.555,1.623.528-.929,1.609-1.29-1.207.36,1.72h-1.776l.361-1.72-1.276,1.221-.944-1.637,1.624-.555-1.61-.5.861-1.554,1.359,1.18-.388-1.734h1.8l-.374,1.734Z" fill="#231f20"/><path d="M197.162,81.423l.86,1.54-1.623.555,1.623.528-.929,1.609L195.8,84.448l.361,1.72h-1.776l.361-1.72-1.277,1.221-.943-1.637,1.623-.555-1.609-.5.86-1.554,1.36,1.18-.389-1.734h1.8L195.8,82.6Z" fill="#231f20"/><path d="M190.4,81.423l.86,1.54-1.623.555,1.623.528-.929,1.609-1.29-1.207.361,1.72h-1.776l.36-1.72-1.276,1.221-.943-1.637,1.623-.555-1.61-.5.861-1.554L188,82.6l-.388-1.734h1.8L189.04,82.6Z" fill="#231f20"/><line x1="56.876" y1="205.556" x2="247.656" y2="205.556" fill="#fff" stroke="#231f20" stroke-linecap="round" stroke-linejoin="round" stroke-width="3.314"/><line x1="36.675" y1="205.556" x2="49.616" y2="205.556" fill="#fff" stroke="#231f20" stroke-linecap="round" stroke-linejoin="round" stroke-width="3.314"/></svg>