<svg xmlns="http://www.w3.org/2000/svg" viewBox="0 0 285.795 54.5">
  <title>Artboard 15 copy 6</title>
  <g id="grid">
    <g id="Specified">
      <g id="case-small-320-measured-copy">
        <g id="Abcdefghijklmnopqrst" style="isolation: isolate">
          <g style="isolation: isolate">
            <path d="M10.824,16.224,9.7,12.915H2.183L1.057,16.224H0L5.539.138h.827l5.515,16.086ZM5.952,1.654,2.505,11.973H9.376Z"/>
            <path d="M14.774,16.224h-.965V.138h.965V8.847a4.5,4.5,0,0,1,4.3-2.757A5.03,5.03,0,0,1,24.2,11.283a5.025,5.025,0,0,1-5.125,5.17,4.51,4.51,0,0,1-4.3-2.734Zm8.456-4.941a4.117,4.117,0,0,0-4.182-4.274,4.14,4.14,0,0,0-4.274,4.274,4.134,4.134,0,0,0,4.274,4.251A4.112,4.112,0,0,0,23.23,11.283Z"/>
            <path d="M34.649,9.927c-.161-1.517-1.172-2.942-3.63-2.942-2.575,0-3.953,2.046-3.953,4.275,0,2.252,1.332,4.274,4,4.274,2.252,0,3.332-1.172,3.631-2.712h.988c-.3,2.046-1.769,3.631-4.664,3.631-3.218,0-4.918-2.5-4.918-5.193a4.851,4.851,0,0,1,4.918-5.17c3.148,0,4.435,1.907,4.618,3.837Z"/>
            <path d="M47.033,13.719a4.477,4.477,0,0,1-4.274,2.734,5.043,5.043,0,0,1-5.148-5.17A5.048,5.048,0,0,1,42.759,6.09a4.463,4.463,0,0,1,4.274,2.757V.138h.988V16.224h-.988Zm0-2.436a4.217,4.217,0,1,0-8.433,0,4.217,4.217,0,1,0,8.433,0Z"/>
            <path d="M51.856,11.375c.023,2.229,1.241,4.205,3.953,4.205a3.337,3.337,0,0,0,3.355-2.137h1.011a4.241,4.241,0,0,1-4.366,3.01c-3.309,0-4.918-2.435-4.918-5.193,0-2.964,1.747-5.17,4.849-5.17a4.454,4.454,0,0,1,4.573,4.434,6.374,6.374,0,0,1-.046.851Zm.023-.827h7.469a3.545,3.545,0,0,0-3.631-3.654A3.651,3.651,0,0,0,51.879,10.548Z"/>
            <path d="M68.491,1.126A3.015,3.015,0,0,0,67.158.9c-.942,0-2.045.3-2.045,2.6V6.319h3.378v.873H65.113v9.032h-.965V7.192H61.781V6.319h2.367V3.562C64.148.367,65.849,0,67.089,0a3.542,3.542,0,0,1,1.4.253Z"/>
            <path d="M79.428,17.143c0,4.021-2,5.492-5.285,5.492-3.562,0-4.895-2.275-5.01-4.825H70.1c.115,2.067,1.149,3.906,4.045,3.906,2.688,0,4.3-1.2,4.3-4.573V13.7a4.462,4.462,0,0,1-4.273,2.757,5.049,5.049,0,0,1-5.148-5.193,5.043,5.043,0,0,1,5.148-5.17,4.462,4.462,0,0,1,4.273,2.757V6.319h.989ZM70.006,11.26a4.217,4.217,0,1,0,8.433,0,4.217,4.217,0,1,0-8.433,0Z"/>
            <path d="M83.148.138h.965V8.894a4.194,4.194,0,0,1,4.045-2.8,3.741,3.741,0,0,1,2.987,1.194,4.485,4.485,0,0,1,.988,3.172v5.768h-.965V10.708c0-2.091-1.011-3.7-3.263-3.7a3.943,3.943,0,0,0-3.792,4.182v5.033h-.965Z"/>
            <path d="M96.152,1.149A1.138,1.138,0,1,1,95.026,2.3,1.137,1.137,0,0,1,96.152,1.149Zm-.482,5.17h.965v9.905H95.67Zm6.043,13.306c0,1.93-.942,2.918-2.252,2.918a3.411,3.411,0,0,1-1.562-.275v-.92a2.407,2.407,0,0,0,1.309.322c.943,0,1.54-.759,1.54-2.091V6.319h.965Zm-.459-18.476a1.138,1.138,0,0,1,0,2.275A1.113,1.113,0,0,1,100.128,2.3,1.118,1.118,0,0,1,101.254,1.149Z"/>
            <path d="M107.64,11.283,113,16.224h-1.356l-5.217-4.78v4.78h-.965V.138h.965V11.122l5.217-4.8H113Z"/>
            <path d="M115.084.138h.965V16.224h-.965Z"/>
            <path d="M133.329,16.224V10.249c0-2.39-1.2-3.24-2.666-3.24-2.068,0-3.125,2-3.125,4.205v5.01h-.965V10.64c0-2.919-1.287-3.631-2.689-3.631-2.022,0-3.125,2-3.125,4.205v5.01h-.965V6.319h.965v2.6a3.435,3.435,0,0,1,3.309-2.826,3.038,3.038,0,0,1,3.286,2.872,3.614,3.614,0,0,1,3.47-2.872c1.93,0,3.47,1.056,3.47,3.906v6.228Z"/>
            <path d="M137.853,6.319h.964V8.894a4.2,4.2,0,0,1,4.045-2.8,3.741,3.741,0,0,1,2.987,1.194,4.485,4.485,0,0,1,.988,3.172v5.768h-.964V10.708c0-2.091-1.011-3.7-3.264-3.7a3.944,3.944,0,0,0-3.792,4.182v5.033h-.964Z"/>
            <path d="M149.386,11.283a5.2,5.2,0,0,1,10.409,0,5.2,5.2,0,0,1-10.409,0Zm9.421,0a4.216,4.216,0,1,0-8.432,0,4.216,4.216,0,1,0,8.432,0Z"/>
            <path d="M163.516,8.847a4.5,4.5,0,0,1,4.3-2.757,5.023,5.023,0,0,1,5.124,5.17,5.03,5.03,0,0,1-5.124,5.193,4.5,4.5,0,0,1-4.3-2.757v8.709h-.965V6.319h.965Zm0,2.413a4.229,4.229,0,1,0,8.457,0,4.229,4.229,0,1,0-8.457,0Z"/>
            <path d="M184.172,6.319h.965V22.405h-.965V13.7a4.5,4.5,0,0,1-4.3,2.757,5.044,5.044,0,0,1-5.125-5.193,5.038,5.038,0,0,1,5.125-5.17,4.5,4.5,0,0,1,4.3,2.757Zm-8.456,4.941a4.228,4.228,0,1,0,8.456,0,4.228,4.228,0,1,0-8.456,0Z"/>
            <path d="M194.625,7.238a3.121,3.121,0,0,0-.988-.137c-2.642,0-3.791,2.435-3.791,4.641v4.482h-.965V6.319h.965V9.054a3.988,3.988,0,0,1,3.791-2.9,2.536,2.536,0,0,1,.988.161Z"/>
            <path d="M203.2,13.6c0,1.815-1.379,2.849-3.77,2.849-2.274,0-4.181-1.034-4.181-3.585h.964c0,2,1.449,2.736,3.241,2.736,1.815,0,2.8-.736,2.8-1.955,0-1.516-1.54-1.722-3.378-2.113-1.747-.345-3.309-.689-3.309-2.642,0-1.793,1.471-2.8,3.608-2.8,2.229,0,3.861,1.172,3.861,3.286h-.965c0-1.609-1.173-2.437-2.873-2.437-1.609,0-2.689.713-2.689,1.977,0,1.355,1.241,1.586,3.149,1.977C201.45,11.26,203.2,11.582,203.2,13.6Z"/>
            <path d="M210.8,16.224a10.9,10.9,0,0,1-1.655.137c-1.379,0-2.872-.321-2.872-3.423V7.192H204.09V6.319h2.184V2.275h.965V6.319h3.194v.873h-3.194V12.8c0,2.344.965,2.642,2.068,2.642a10.619,10.619,0,0,0,1.494-.115Z"/>
            <path d="M221.37,6.319v9.905h-.988V13.649a4.172,4.172,0,0,1-4.045,2.8,3.721,3.721,0,0,1-2.963-1.194,4.529,4.529,0,0,1-1.012-3.172V6.319h.988v5.516c0,2.113,1.011,3.723,3.263,3.723a3.96,3.96,0,0,0,3.769-4.206V6.319Z"/>
            <path d="M224.4,6.319l3.93,8.549,3.975-8.549h1.057l-4.642,9.905h-.781l-4.6-9.905Z"/>
            <path d="M241.29,7.445l-3.126,8.779h-.758l-3.815-9.905h1.034l3.148,8.5,3.033-8.5h.988l3.011,8.5,3.149-8.5h1.056L245.2,16.224h-.781Z"/>
            <path d="M258.107,16.224h-1.149l-3.08-4.2-3.055,4.205h-1.15L253.3,11.26,249.7,6.319h1.148l3.033,4.183,3.057-4.183h1.149l-3.63,4.941Z"/>
            <path d="M260.357,17.878h.966c.114,2.551,1.08,3.884,3.631,3.884,2.343,0,3.561-1.1,3.561-4.229V13.649a4.132,4.132,0,0,1-4,2.8,3.758,3.758,0,0,1-3.079-1.126c-.689-.735-.942-1.746-.942-3.424V6.319h.965v5.355c0,2.413.758,3.884,3.332,3.884,2.505,0,3.723-2.276,3.723-4.206V6.319h.965V17.533c0,3.677-1.517,5.1-4.55,5.1C261.736,22.635,260.426,21,260.357,17.878Z"/>
            <path d="M280.14,6.319l-6.618,9.008h6.687v.9h-8.457l6.619-8.986h-6.32V6.319Z"/>
          </g>
          <g style="isolation: isolate">
            <path d="M1.241,39.232a5.054,5.054,0,0,1,5.171-5.193,5.051,5.051,0,0,1,5.216,5.193v6.319a5.046,5.046,0,0,1-5.216,5.171,5.049,5.049,0,0,1-5.171-5.171Zm9.376,0a4.1,4.1,0,0,0-4.205-4.251,4.094,4.094,0,0,0-4.16,4.251v6.319a4.088,4.088,0,0,0,4.16,4.229,4.1,4.1,0,0,0,4.205-4.229Z"/>
            <path d="M13.533,37c2.735,0,3.194-.735,3.194-2.666h.965V50.423H16.658V37.876H13.533Z"/>
            <path d="M25.5,42.61c2.16-.781,3.883-1.609,3.883-4.159,0-1.953-1.356-3.4-3.837-3.4a3.859,3.859,0,0,0-4.045,4.09H20.494a4.838,4.838,0,0,1,5.079-5.032c3.056,0,4.825,1.792,4.825,4.412,0,3.033-2.274,4.136-4.412,4.895-3.332,1.241-4.366,2.666-4.366,6.066h8.916v.942H20.517C20.517,45.414,21.988,43.875,25.5,42.61Z"/>
            <path d="M32.855,45.942c0,2.252,1.677,3.769,4.182,3.769,2.528,0,4.136-1.517,4.136-3.585s-1.47-3.539-4.044-3.539H35.842v-.942h1.287c2.39,0,3.769-1.355,3.769-3.286,0-2-1.517-3.309-3.861-3.309-2.459,0-3.883,1.4-3.883,3.47H32.143c0-2.62,1.93-4.412,4.848-4.412s4.918,1.724,4.918,4.251a3.619,3.619,0,0,1-3.125,3.746,3.914,3.914,0,0,1,3.4,4.021c0,2.689-2.115,4.527-5.171,4.527-3.01,0-5.17-1.861-5.17-4.711Z"/>
            <path d="M51.053,44.564H44.8V34.337h1.011v9.285h5.24V38.405h1.01v5.217H54.89v.942H52.063v5.859h-1.01Z"/>
            <path d="M57.3,34.337h8.893v.943H58.243V42.5a4.415,4.415,0,0,1,3.929-2.115,4.9,4.9,0,0,1,5.125,5.1,5.205,5.205,0,0,1-10.41,0H57.9a4.194,4.194,0,1,0,4.16-4.159,3.714,3.714,0,0,0-3.631,2.252H57.3Z"/>
            <path d="M69.155,45.483a5.394,5.394,0,0,1,.828-2.9l5.124-8.25h1.172l-4.251,6.734a3.388,3.388,0,0,1,2.3-.781,5.182,5.182,0,1,1-5.171,5.193Zm9.376,0a4.182,4.182,0,1,0-4.205,4.228A4.1,4.1,0,0,0,78.531,45.483Z"/>
            <path d="M89.743,34.337,82,50.423h-1.08L88.227,35.28H80.344v-.943Z"/>
            <path d="M90.04,46.126a3.926,3.926,0,0,1,3.332-4.021,3.615,3.615,0,0,1-3.056-3.7c0-2.482,1.884-4.3,4.918-4.3,3.01,0,4.917,1.815,4.917,4.3a3.636,3.636,0,0,1-3.056,3.7,3.906,3.906,0,0,1,3.309,4.021c0,2.6-1.976,4.527-5.17,4.527S90.04,48.746,90.04,46.126Zm9.353,0c0-2.022-1.539-3.539-4.159-3.539-2.643,0-4.183,1.494-4.183,3.539,0,2.091,1.609,3.585,4.183,3.585C97.784,49.711,99.393,48.194,99.393,46.126Zm-.253-7.7c0-1.953-1.516-3.378-3.906-3.378-2.367,0-3.884,1.4-3.884,3.378,0,1.907,1.448,3.286,3.884,3.286S99.14,40.335,99.14,38.428Z"/>
            <path d="M112.673,39.278a5.34,5.34,0,0,1-.827,2.9l-5.125,8.25h-1.172L109.8,43.69a3.107,3.107,0,0,1-2.206.781,5.182,5.182,0,1,1,5.079-5.193Zm-9.376,0a4.183,4.183,0,1,0,4.228-4.228A4.11,4.11,0,0,0,103.3,39.278Z"/>
          </g>
        </g>
      </g>
    </g>
  </g>
</svg>
