<svg xmlns="http://www.w3.org/2000/svg" xmlns:xlink="http://www.w3.org/1999/xlink" viewBox="0 0 361 634" enable-background="new 0 0 361 634"><style>.st7{fill-rule:evenodd;clip-rule:evenodd}.st7,.st8{fill:#fff}.st10,.st23{fill:none;stroke:#fff}.st23{stroke-linecap:round;stroke-linejoin:round}</style><g id="Layer_1"><defs><filter id="Adobe_OpacityMaskFilter" filterUnits="userSpaceOnUse" x="115.8" y="349.3" width="127.8" height="7.2"><feColorMatrix values="1 0 0 0 0 0 1 0 0 0 0 0 1 0 0 0 0 0 1 0"/></filter></defs><mask maskUnits="userSpaceOnUse" x="115.8" y="349.3" width="127.8" height="7.2" id="mask1_1_"><path d="M132.7 323.8H227c14 0 25.3 11.3 25.3 25.3v265.7c0 14-11.3 25.3-25.3 25.3h-94.3c-14 0-25.3-11.3-25.3-25.3V349.1c0-13.9 11.3-25.3 25.3-25.3z" fill="#c4c4c4" filter="url(#Adobe_OpacityMaskFilter)" stroke="#464646"/></mask><g mask="url(#mask1_1_)" fill="none" stroke-width="6.881"><path d="M115.8 353.1l38.5-.1" stroke="#198aff"/><path d="M160.1 353l38.5-.1" stroke="#78de7f"/><path d="M205.1 352.9l38.5-.1" stroke="#ff6400"/></g><path class="st7" d="M247 421.6c0-1.9-.9-3.6-2.3-4.7l.4-.6c1.6 1.2 2.6 3.1 2.6 5.2s-1 4-2.5 5.2l-.4-.6c1.3-.9 2.2-2.6 2.2-4.5zm-2.4 0c0-.9-.3-1.6-.8-2.3l.5-.4c.6.7 1 1.7 1 2.7 0 1-.4 2-1 2.7l-.5-.4c.5-.7.8-1.4.8-2.3zm-2 0c0 .8-.7 1.5-1.5 1.5s-1.5-.7-1.5-1.5.7-1.5 1.5-1.5 1.5.7 1.5 1.5zm-5 0c0-.8.3-1.6.8-2.2l-.5-.4c-.6.7-.9 1.7-.9 2.7 0 1 .4 2 1 2.7l.5-.4c-.6-.8-.9-1.5-.9-2.4zm-2.4 0c0-1.9.9-3.6 2.3-4.6l-.4-.6c-1.5 1.2-2.5 3.1-2.5 5.2s1 4 2.5 5.2l.4-.5c-1.4-1.1-2.3-2.8-2.3-4.7z"/><path class="st8" d="M237.3 435.1h2v-.3h-1.6v-3.1h-.4v3.4zm2.6 0h.4v-2.5h-.4v2.5zm.2-3c.1 0 .3-.1.3-.3 0-.1-.1-.3-.3-.3-.1 0-.3.1-.3.3 0 .2.1.3.3.3zm1.6 3h.5l.9-2.5h-.4l-.7 2.1-.7-2.1h-.4l.8 2.5zm2.9.1c.6 0 1-.3 1.1-.8h-.4c-.1.3-.3.4-.7.4-.5 0-.8-.3-.8-.9h1.9v-.1c0-.9-.5-1.2-1.1-1.2-.7 0-1.2.5-1.2 1.3s.5 1.3 1.2 1.3zm-.8-1.6c.1-.4.3-.7.7-.7.4 0 .7.2.7.7h-1.4zm-137.3 1.5h.4v-1.5h1.8v1.5h.4v-3.4h-.4v1.6h-1.8v-1.6h-.4v3.4zm3.5 0h.4v-2.5h-.4v2.5zm.1-3c.1 0 .3-.1.3-.3 0-.1-.1-.3-.3-.3-.1 0-.3.1-.3.3.1.2.2.3.3.3zm2.1 3.9c.7 0 1.2-.4 1.2-1.1v-2.3h-.4v.4c-.1-.2-.4-.4-.8-.4-.7 0-1.2.6-1.2 1.2 0 .7.5 1.2 1.1 1.2.4 0 .7-.2.8-.5v.4c0 .5-.3.8-.8.8-.4 0-.7-.1-.7-.4h-.4c.1.4.4.7 1.2.7zm0-1.3c-.4 0-.8-.3-.8-.9 0-.5.3-.9.8-.9s.8.3.8.9c0 .6-.4.9-.8.9zm2 .4h.4v-1.5c0-.5.3-.7.7-.7.4 0 .6.2.6.6v1.6h.4v-1.5c0-.7-.4-1-.9-1-.4 0-.7.2-.8.4v-1.6h-.4v3.7zm2.8 0h.4v-3.7h-.4v3.7zm1.3 0h.4v-2.5h-.4v2.5zm.2-3c.1 0 .3-.1.3-.3 0-.1-.1-.3-.3-.3-.1 0-.3.1-.3.3 0 .2.1.3.3.3zm2 3.9c.7 0 1.2-.4 1.2-1.1v-2.3h-.4v.4c-.1-.2-.4-.4-.8-.4-.7 0-1.2.6-1.2 1.2 0 .7.5 1.2 1.1 1.2.4 0 .7-.2.8-.5v.4c0 .5-.3.8-.8.8-.4 0-.7-.1-.7-.4h-.4c.1.4.4.7 1.2.7zm0-1.3c-.4 0-.8-.3-.8-.9 0-.5.3-.9.8-.9s.8.3.8.9c0 .6-.4.9-.8.9zm2 .4h.4v-1.5c0-.5.3-.7.7-.7.4 0 .6.2.6.6v1.6h.4v-1.5c0-.7-.4-1-.9-1-.4 0-.7.2-.8.4v-1.6h-.4v3.7zm3.6 0c.2 0 .3 0 .3-.1v-.3c-.1 0-.2.1-.3.1-.2 0-.3-.1-.3-.4v-1.5h.6v-.3h-.6v-.6h-.4v.6h-.4v.3h.4v1.5c0 .5.3.7.7.7zm1.7.1c.6 0 .9-.3.9-.8s-.4-.6-.9-.7c-.5-.1-.6-.2-.6-.4s.2-.4.5-.4.5.1.5.4h.4c-.1-.5-.5-.7-.9-.7s-.8.2-.8.7c0 .4.2.6.9.7.4.1.6.2.6.4 0 .3-.2.4-.5.4-.4 0-.6-.2-.6-.5h-.4c0 .6.3.9.9.9z"/><path d="M116.8 416.5c0-.1.2-.2.3-.2s.3.1.3.2l1.2 3.5h3.7c.2 0 .3.1.3.3 0 .1 0 .3-.1.4l-3 2.1 1.2 3.4c0 .1 0 .3-.1.4-.1.1-.3.1-.4 0l-3-2.1-3 2.1c-.1.1-.3.1-.4 0-.1-.1-.2-.3-.1-.4l1.2-3.4-3-2.1c-.1-.1-.2-.3-.1-.4 0-.1.2-.3.3-.3h3.7l1-3.5z" fill="none" stroke="#fff" stroke-width=".719" stroke-linejoin="round"/><path class="st8" d="M166.1 434.8c-.7 0-1.3-.6-1.3-1.4 0-.8.5-1.4 1.3-1.4s1.2.6 1.2 1.4c0 .8-.5 1.4-1.2 1.4zm0 .4c1 0 1.7-.8 1.7-1.7 0-1-.7-1.7-1.7-1.7s-1.7.8-1.7 1.7c0 .9.7 1.7 1.7 1.7zm2.3-.1h.4v-1.5c0-.5.3-.7.7-.7.4 0 .6.2.6.6v1.6h.4v-1.5c0-.7-.4-1-.9-1-.4 0-.7.2-.8.4v-.4h-.4v2.5zm3.3-.3V432h.5c.9 0 1.3.6 1.3 1.3 0 .8-.4 1.4-1.3 1.4h-.5zm-.4.3h.9c1.2 0 1.7-.8 1.7-1.7 0-1-.6-1.7-1.7-1.7h-.9v3.4zm4.3.1c.6 0 1-.3 1.1-.8h-.4c-.1.3-.3.4-.7.4-.5 0-.8-.3-.8-.9h1.9v-.1c0-.9-.5-1.2-1.1-1.2-.7 0-1.2.5-1.2 1.3s.5 1.3 1.2 1.3zm-.8-1.6c.1-.4.3-.7.7-.7.4 0 .7.2.7.7h-1.4zm2.5 1.5h.4v-1.5c0-.5.3-.7.7-.7.3 0 .5.2.5.6v1.6h.4v-1.5c0-.5.3-.7.7-.7.3 0 .5.2.5.6v1.6h.4v-1.6c0-.7-.4-1-.8-1-.3 0-.7.1-.9.5-.1-.3-.4-.5-.7-.5-.4 0-.6.2-.7.4v-.4h-.4v2.6zm5 .1c.4 0 .6-.1.8-.4v.3h.4v-1.7c0-.7-.4-.9-.9-.9s-.9.2-1 .8h.4c0-.3.2-.5.6-.5.4 0 .5.2.5.6v.2h-.4c-.6 0-1.3.2-1.3.8.1.5.5.8.9.8zm.1-.4c-.4 0-.5-.2-.5-.4 0-.4.4-.5.9-.5h.3v.3c0 .4-.3.6-.7.6zm1.9.3h.4v-1.5c0-.5.3-.7.7-.7.4 0 .6.2.6.6v1.6h.4v-1.5c0-.7-.4-1-.9-1-.4 0-.7.2-.8.4v-.4h-.4v2.5zm3.8.1c.4 0 .7-.2.9-.5v.4h.4v-3.7h-.4v1.6c-.1-.2-.4-.4-.8-.4-.7 0-1.2.5-1.2 1.3s.4 1.3 1.1 1.3zm0-.4c-.4 0-.8-.3-.8-.9 0-.6.3-1 .8-1s.8.3.8.9c.1.7-.3 1-.8 1z"/><path class="st7" d="M176.8 416.4v-1.2l2.3 1.6-2.3 1.6v-1.3c-2.2.3-3.9 2.1-3.9 4.4 0 2.4 2 4.4 4.4 4.4 2.4 0 4.4-2 4.4-4.4 0-1.3-.5-2.4-1.4-3.2l.5-.5c1 .9 1.6 2.3 1.6 3.7 0 2.8-2.3 5.1-5.1 5.1s-5.1-2.3-5.1-5.1c0-2.7 2-4.8 4.6-5.1z"/><path class="st10" d="M91.7 410.5h172.8v28.3H91.7z"/><path class="st8" d="M283.3 259c0-1.9-1.1-3.2-2.9-3.2s-2.9 1.3-2.9 3.2c0 1.9 1.1 3.2 2.9 3.2s2.9-1.3 2.9-3.2zm-1.1 0c0 1.4-.6 2.3-1.8 2.3-1.2 0-1.8-.9-1.8-2.3s.6-2.3 1.8-2.3c1.2 0 1.8 1 1.8 2.3zm5.3-3.1h-1.3v6.2h1.1v-4.8l3.2 4.8h1.1v-6.2h-1.1v4.4l-3-4.4zm13 0h-2.4v6.2h2.4c1.9 0 3.1-1.2 3.1-3.1 0-1.8-1.2-3.1-3.1-3.1zm0 .9c1.2 0 1.9.8 1.9 2.2 0 1.4-.7 2.2-1.9 2.2h-1.3v-4.4h1.3zm10.4 5.3v-.9h-3.3v-1.7h2.9v-.9h-2.9v-1.7h3.3v-.9h-4.4v6.2h4.4zm6.6 0l1.8-4.9v4.9h1.1v-6.2h-1.6l-1.7 4.6-1.7-4.6h-1.6v6.2h1.1v-4.9l1.8 4.9h.8zm10.5 0h1.2l-2.5-6.2h-1.3l-2.5 6.2h1.1l.6-1.5h2.8l.6 1.5zm-2-5.1l1 2.7h-2l1-2.7zm7-1.1h-1.3v6.2h1.1v-4.8l3.2 4.8h1.1v-6.2H336v4.4l-3-4.4zm9.5 0h-2.4v6.2h2.4c1.9 0 3.1-1.2 3.1-3.1 0-1.8-1.2-3.1-3.1-3.1zm0 .9c1.2 0 1.9.8 1.9 2.2 0 1.4-.7 2.2-1.9 2.2h-1.3v-4.4h1.3zm-114.1 5.3h4.3v-.9h-3.2v-5.3h-1.2v6.2zm7.2 0h1.1v-6.2h-1.1v6.2zm6.2 0h1.3l2.4-6.2h-1.2l-1.9 4.9-1.9-4.9h-1.2l2.5 6.2zm10.7 0v-.9h-3.3v-1.7h2.9v-.9h-2.9v-1.7h3.3v-.9H248v6.2h4.5zM72.1 259c0-1.9-1.1-3.2-2.9-3.2-1.8 0-2.9 1.3-2.9 3.2 0 1.9 1.1 3.2 2.9 3.2 1.8 0 2.9-1.3 2.9-3.2zm-1.2 0c0 1.4-.6 2.3-1.8 2.3-1.2 0-1.8-.9-1.8-2.3s.6-2.3 1.8-2.3c1.2 0 1.8 1 1.8 2.3zm5.3-3.1h-1.3v6.2H76v-4.8l3.2 4.8h1.1v-6.2h-1.1v4.4l-3-4.4zm13.1 0h-2.4v6.2h2.4c1.9 0 3.1-1.2 3.1-3.1 0-1.8-1.3-3.1-3.1-3.1zm0 .9c1.2 0 1.9.8 1.9 2.2 0 1.4-.7 2.2-1.9 2.2H88v-4.4h1.3zm10.3 5.3v-.9h-3.3v-1.7h2.9v-.9h-2.9v-1.7h3.3v-.9h-4.4v6.2h4.4zm6.6 0l1.8-4.9v4.9h1.1v-6.2h-1.6l-1.7 4.6-1.7-4.6h-1.6v6.2h1.1v-4.9l1.8 4.9h.8zm10.5 0h1.2l-2.5-6.2h-1.3l-2.5 6.2h1.1l.6-1.5h2.8l.6 1.5zm-2-5.1l1 2.7h-2.1l1.1-2.7zm7.1-1.1h-1.3v6.2h1.1v-4.8l3.2 4.8h1.1v-6.2h-1.1v4.4l-3-4.4zm9.5 0h-2.4v6.2h2.4c1.9 0 3.1-1.2 3.1-3.1 0-1.8-1.2-3.1-3.1-3.1zm0 .9c1.2 0 1.9.8 1.9 2.2 0 1.4-.7 2.2-1.9 2.2H130v-4.4h1.3zm-116.7 5.3H19v-.9h-3.2v-5.3h-1.2v6.2zm7.2 0H23v-6.2h-1.2v6.2zm6.2 0h1.3l2.4-6.2h-1.2l-1.9 4.9-1.9-4.9h-1.2l2.5 6.2zm10.7 0v-.9h-3.3v-1.7h2.9v-.9h-2.9v-1.7h3.3v-.9h-4.4v6.2h4.4z"/><defs><path id="SVGID_1_" d="M111.8.1h127.3V93H111.8z"/></defs><clipPath id="SVGID_2_"><use xlink:href="#SVGID_1_" overflow="visible"/></clipPath><path d="M122.3 1.7H176c5.7 0 10.3 4.6 10.3 10.3v142c0 5.7-4.6 10.3-10.3 10.3h-53.7c-5.7 0-10.3-4.6-10.3-10.3V12c0-5.7 4.6-10.3 10.3-10.3z" clip-path="url(#SVGID_2_)" fill="none" stroke="#fff"/><path d="M174.2 25H228c5.7 0 10.3 4.6 10.3 10.3v142c0 5.7-4.6 10.3-10.3 10.3h-53.7c-5.7 0-10.3-4.6-10.3-10.3v-142c0-5.7 4.6-10.3 10.2-10.3z" clip-path="url(#SVGID_2_)" stroke="#fff"/><path d="M153.2 55.4c0-2.6-1.2-4.9-3.1-6.4l.6-.8c2.1 1.6 3.5 4.2 3.5 7.1 0 2.9-1.4 5.4-3.5 7.1l-.6-.8c1.9-1.4 3.1-3.7 3.1-6.2zm-3.2 0c0-1.2-.4-2.2-1.1-3.1l.7-.6c.8 1 1.3 2.3 1.3 3.7 0 1.4-.5 2.7-1.3 3.7l-.7-.6c.7-.9 1.1-2 1.1-3.1zm-2.7 0c0 1.2-.9 2.1-2.1 2.1-1.2 0-2.1-.9-2.1-2.1 0-1.2.9-2.1 2.1-2.1 1.1 0 2.1.9 2.1 2.1zm-6.9 0c0-1.1.4-2.2 1.1-3l-.7-.6c-.8 1-1.3 2.3-1.3 3.6 0 1.4.5 2.7 1.3 3.7l.7-.6c-.7-.9-1.1-2-1.1-3.1zm-3.3 0c0-2.6 1.2-4.9 3.1-6.3l-.6-.8c-2.1 1.6-3.5 4.2-3.5 7.1 0 2.9 1.3 5.4 3.4 7.1l.6-.8c-1.8-1.5-3-3.8-3-6.3z" opacity=".8" clip-path="url(#SVGID_2_)" fill-rule="evenodd" clip-rule="evenodd" fill="#78de7f" enable-background="new"/><path d="M199.7 69.2v-1.8l3.5 2.5-3.5 2.4v-2c-3.4.4-6.1 3.3-6.1 6.8 0 3.8 3.1 6.9 6.9 6.9 3.8 0 6.9-3.1 6.9-6.9 0-2-.8-3.8-2.2-5l.7-.8c1.5 1.5 2.5 3.5 2.5 5.8 0 4.4-3.6 8-8 8s-8-3.6-8-8c.1-4.1 3.3-7.5 7.3-7.9z" clip-path="url(#SVGID_2_)" fill-rule="evenodd" clip-rule="evenodd" fill="#78de7f"/><defs><path id="SVGID_3_" d="M11 144h127.3v92.9H11z"/></defs><clipPath id="SVGID_4_"><use xlink:href="#SVGID_3_" overflow="visible"/></clipPath><path d="M21.5 145.6h53.7c5.7 0 10.3 4.6 10.3 10.3v142c0 5.7-4.6 10.3-10.3 10.3H21.5c-5.7 0-10.3-4.6-10.3-10.3v-142c.1-5.7 4.7-10.3 10.3-10.3z" clip-path="url(#SVGID_4_)" fill="none" stroke="#fff"/><path d="M73.5 168.9h53.7c5.7 0 10.3 4.6 10.3 10.3v142c0 5.7-4.6 10.3-10.3 10.3H73.5c-5.7 0-10.3-4.6-10.3-10.3v-142c0-5.7 4.6-10.3 10.3-10.3z" clip-path="url(#SVGID_4_)" stroke="#fff"/><path d="M52.5 196.2c0-2.6-1.2-4.9-3.1-6.4l.6-.8c2.1 1.6 3.5 4.2 3.5 7.1 0 2.9-1.4 5.4-3.5 7.1l-.6-.8c1.9-1.3 3.1-3.6 3.1-6.2zm-3.3 0c0-1.2-.4-2.2-1.1-3.1l.7-.6c.8 1 1.3 2.3 1.3 3.7 0 1.4-.5 2.7-1.3 3.7l-.7-.6c.7-.8 1.1-1.9 1.1-3.1zm-2.7 0c0 1.2-.9 2.1-2.1 2.1-1.2 0-2.1-.9-2.1-2.1 0-1.2.9-2.1 2.1-2.1 1.2 0 2.1 1 2.1 2.1zm-6.9 0c0-1.1.4-2.2 1.1-3l-.7-.6c-.8 1-1.3 2.3-1.3 3.6 0 1.4.5 2.7 1.3 3.7l.7-.6c-.7-.9-1.1-1.9-1.1-3.1zm-3.2 0c0-2.6 1.2-4.9 3.1-6.3l-.6-.8c-2.1 1.6-3.5 4.2-3.5 7.1 0 2.9 1.3 5.4 3.4 7.1l.6-.8c-1.8-1.4-3-3.7-3-6.3z" opacity=".8" clip-path="url(#SVGID_4_)" fill-rule="evenodd" clip-rule="evenodd" fill="#198aff" enable-background="new"/><path d="M98.9 213v-1.8l3.5 2.5-3.5 2.4v-2c-3.4.4-6.1 3.3-6.1 6.8 0 3.8 3.1 6.9 6.9 6.9 3.8 0 6.9-3.1 6.9-6.9 0-2-.8-3.8-2.2-5l.7-.8c1.5 1.5 2.5 3.5 2.5 5.8 0 4.4-3.6 8-8 8s-8-3.6-8-8c.2-4.1 3.3-7.5 7.3-7.9z" clip-path="url(#SVGID_4_)" fill-rule="evenodd" clip-rule="evenodd" fill="#198aff"/><defs><path id="SVGID_5_" d="M220.1 144h127.3v92.9H220.1z"/></defs><clipPath id="SVGID_6_"><use xlink:href="#SVGID_5_" overflow="visible"/></clipPath><path d="M230.7 145.6h53.7c5.7 0 10.3 4.6 10.3 10.3v142c0 5.7-4.6 10.3-10.3 10.3h-53.7c-5.7 0-10.3-4.6-10.3-10.3v-142c0-5.7 4.6-10.3 10.3-10.3z" clip-path="url(#SVGID_6_)" fill="none" stroke="#fff"/><path d="M282.6 168.9h53.7c5.7 0 10.3 4.6 10.3 10.3v142c0 5.7-4.6 10.3-10.3 10.3h-53.7c-5.7 0-10.3-4.6-10.3-10.3v-142c0-5.7 4.6-10.3 10.3-10.3z" clip-path="url(#SVGID_6_)" stroke="#fff"/><path d="M261.6 196.2c0-2.6-1.2-4.9-3.1-6.4l.6-.8c2.1 1.6 3.5 4.2 3.5 7.1 0 2.9-1.4 5.4-3.5 7.1l-.6-.8c1.9-1.3 3.1-3.6 3.1-6.2zm-3.3 0c0-1.2-.4-2.2-1.1-3.1l.7-.6c.8 1 1.3 2.3 1.3 3.7 0 1.4-.5 2.7-1.3 3.7l-.7-.6c.7-.8 1.1-1.9 1.1-3.1zm-2.7 0c0 1.2-.9 2.1-2.1 2.1-1.2 0-2.1-.9-2.1-2.1 0-1.2.9-2.1 2.1-2.1 1.2 0 2.1 1 2.1 2.1zm-6.8 0c0-1.1.4-2.2 1.1-3l-.7-.6c-.8 1-1.3 2.3-1.3 3.6 0 1.4.5 2.7 1.3 3.7l.7-.6c-.7-.9-1.1-1.9-1.1-3.1zm-3.3 0c0-2.6 1.2-4.9 3.1-6.3l-.6-.8c-2.1 1.6-3.5 4.2-3.5 7.1 0 2.9 1.3 5.4 3.4 7.1l.6-.8c-1.8-1.4-3-3.7-3-6.3z" opacity=".8" clip-path="url(#SVGID_6_)" fill-rule="evenodd" clip-rule="evenodd" fill="#ff6400" enable-background="new"/><path d="M308.1 213v-1.8l3.5 2.5-3.5 2.4v-2c-3.4.4-6.1 3.3-6.1 6.8 0 3.8 3.1 6.9 6.9 6.9 3.8 0 6.9-3.1 6.9-6.9 0-2-.8-3.8-2.2-5l.7-.8c1.5 1.5 2.5 3.5 2.5 5.8 0 4.4-3.6 8-8 8s-8-3.6-8-8c.1-4.1 3.3-7.5 7.3-7.9z" clip-path="url(#SVGID_6_)" fill-rule="evenodd" clip-rule="evenodd" fill="#ff6400"/><path class="st8" d="M174 114.7c0-1.8-1.1-3.2-2.9-3.2-1.8 0-2.9 1.3-2.9 3.2 0 1.8 1.1 3.2 2.9 3.2 1.8-.1 2.9-1.4 2.9-3.2zm-1.1 0c0 1.4-.6 2.3-1.8 2.3-1.2 0-1.8-.9-1.8-2.3s.6-2.3 1.8-2.3c1.2 0 1.8.9 1.8 2.3zm5.2-3.1h-1.3v6.1h1.1V113l3.1 4.7h1.1v-6.1H181v4.3l-2.9-4.3zm13 0h-2.4v6.1h2.4c1.8 0 3.1-1.2 3.1-3.1-.1-1.8-1.3-3-3.1-3zm0 .9c1.2 0 1.9.8 1.9 2.2 0 1.4-.7 2.2-1.9 2.2h-1.2v-4.3h1.2zm10.2 5.2v-.9H198v-1.7h2.9v-.9H198v-1.7h3.3v-.9h-4.4v6.1h4.4zm6.6 0l1.7-4.8v4.8h1.1v-6.1h-1.6l-1.6 4.6-1.6-4.6h-1.6v6.1h1v-4.8l1.8 4.8h.8zm10.4 0h1.2l-2.5-6.1h-1.3l-2.5 6.1h1.1l.6-1.5h2.8l.6 1.5zm-2-5l1 2.6h-2.1l1.1-2.6zm7-1.1H222v6.1h1.1V113l3.1 4.7h1.1v-6.1h-1.1v4.3l-2.9-4.3zm9.5 0h-2.4v6.1h2.4c1.8 0 3.1-1.2 3.1-3.1-.1-1.8-1.3-3-3.1-3zm0 .9c1.2 0 1.9.8 1.9 2.2 0 1.4-.7 2.2-1.9 2.2h-1.2v-4.3h1.2zm-117 5.2h4.3v-.9h-3.2v-5.2h-1.1v6.1zm7.1 0h1.1v-6.1h-1.1v6.1zm6.1 0h1.3l2.4-6.1h-1.2l-1.9 4.9-1.9-4.9h-1.2l2.5 6.1zm10.7 0v-.9h-3.3v-1.7h2.9v-.9h-2.9v-1.7h3.3v-.9h-4.4v6.1h4.4zM281 611c0-1.9-1.1-3.2-2.9-3.2-1.8 0-3 1.3-3 3.2 0 1.9 1.1 3.2 3 3.2 1.8 0 2.9-1.4 2.9-3.2zm-1.1 0c0 1.4-.6 2.3-1.8 2.3-1.2 0-1.8-.9-1.8-2.3s.6-2.3 1.8-2.3c1.2 0 1.8.9 1.8 2.3zm5.3-3.1h-1.3v6.2h1.1v-4.8l3.2 4.8h1.1v-6.2h-1.1v4.4l-3-4.4zm9.5 0h-2.4v6.2h2.4c1.9 0 3.1-1.2 3.1-3.1 0-1.9-1.2-3.1-3.1-3.1zm0 .9c1.2 0 1.9.8 1.9 2.2s-.7 2.2-1.9 2.2h-1.3v-4.4h1.3zm10.3 5.3v-.9h-3.3v-1.7h2.9v-.9h-2.9v-1.7h3.3v-.9h-4.4v6.2h4.4zm6.6 0l1.8-4.9v4.9h1.1v-6.2h-1.6l-1.7 4.6-1.7-4.6H308v6.2h1.1v-4.9l1.8 4.9h.7zm10.5 0h1.2l-2.5-6.2h-1.3l-2.5 6.2h1.1l.6-1.5h2.8l.6 1.5zm-1.9-5.1l1 2.7h-2.1l1.1-2.7zm7-1.1h-1.3v6.2h1.1v-4.8l3.2 4.8h1.1v-6.2h-1.1v4.4l-3-4.4zm9.5 0h-2.4v6.2h2.4c1.9 0 3.1-1.2 3.1-3.1 0-1.9-1.2-3.1-3.1-3.1zm0 .9c1.2 0 1.9.8 1.9 2.2s-.7 2.2-1.9 2.2h-1.3v-4.4h1.3zm-168.4 21.3h4.3v-.9h-3.2v-5.3h-1.2v6.2zm7.2 0h1.1v-6.2h-1.1v6.2zm6.1 0h1.3l2.4-6.2h-1.2l-1.9 4.9-1.9-4.9h-1.2l2.5 6.2zm10.8 0v-.9H189v-1.7h2.9v-.9H189v-1.7h3.3v-.9h-4.4v6.2h4.5zM17 614.8h1.2v-2.7h3.2v2.7h1.1v-6.2h-1.1v2.6h-3.2v-2.6H17v6.2zm8.6 0h1.2v-6.2h-1.2v6.2zm3.9-3.1c0 1.9 1.2 3.2 2.9 3.2.8 0 1.5-.4 1.8-1l.1.9h.9v-3.1h-2.3v.8H34v.2c0 .8-.6 1.3-1.5 1.3-1.2 0-1.8-.9-1.8-2.3s.7-2.3 1.8-2.3c.8 0 1.3.4 1.4 1.1H35c-.2-1.2-1.1-2-2.6-2-1.6 0-2.9 1.3-2.9 3.2zm8.7 3.1h1.2v-2.7h3.2v2.7h1.1v-6.2h-1.1v2.6h-3.2v-2.6h-1.2v6.2zm8.6 0h4.3v-.9H48v-5.3h-1.2v6.2zm7.2 0h1.2v-6.2H54v6.2zm3.9-3.1c0 1.9 1.2 3.2 2.9 3.2.8 0 1.5-.4 1.8-1l.1.9h.9v-3.1h-2.3v.8h1.2v.2c0 .8-.6 1.3-1.5 1.3-1.2 0-1.8-.9-1.8-2.3s.7-2.3 1.8-2.3c.8 0 1.3.4 1.4 1.1h1.1c-.2-1.2-1.1-2-2.6-2-1.7 0-3 1.3-3 3.2zm8.7 3.1h1.2v-2.7H71v2.7h1.1v-6.2H71v2.6h-3.2v-2.6h-1.2v6.2zm10.4 0h1.1v-5.3h2.2v-.9h-5.6v.9H77v5.3zm5.6-1.9c.1 1.4 1.2 2 2.7 2 1.4 0 2.4-.7 2.4-1.9 0-1-.6-1.5-1.6-1.7l-1.2-.2c-.7-.1-1-.3-1-.8s.5-.9 1.2-.9c.8 0 1.3.3 1.4.9h1.1c-.1-1.2-1-1.8-2.5-1.8-1.3 0-2.3.8-2.3 1.9 0 1.1.7 1.5 1.6 1.7l1.1.2c.7.1 1 .4 1 .8 0 .6-.6 1-1.3 1-.8 0-1.5-.3-1.6-1.1h-1z"/><path class="st10" d="M180 463v36"/><path class="st23" d="M171 491.2l9 7.7 9-7.9"/><path class="st10" d="M118.5 462.8H42V483"/><path class="st23" d="M51 475.3l-9 7.7-9-7.9"/><path class="st10" d="M232.6 462.8H309V483"/><path class="st23" d="M300 475.3l9 7.7 9-7.9"/><path class="st10" d="M180 302V137"/><path d="M189 144.7l-9-7.7-9 7.9" fill="none" stroke="#fff" stroke-width=".613" stroke-linecap="round" stroke-linejoin="round"/><path class="st10" d="M237.6 301.8H314v-20.2"/><path class="st23" d="M305 289.4l9-7.7 9 7.9"/><path class="st10" d="M123.5 302.2H47V282"/><path class="st23" d="M56 289.7l-9-7.7-9 7.9"/><defs><path id="SVGID_7_" d="M97 315h165v71H97z"/></defs><clipPath id="SVGID_8_"><use xlink:href="#SVGID_7_" overflow="visible"/></clipPath><path d="M132.7 323.9H227c13.9 0 25.2 11.3 25.2 25.2v265.7c0 13.9-11.3 25.2-25.2 25.2h-94.3c-13.9 0-25.2-11.3-25.2-25.2V349.1c0-13.9 11.3-25.2 25.2-25.2z" clip-path="url(#SVGID_8_)" fill="none" stroke="#fff"/><defs><path id="SVGID_9_" d="M9.8 500.4h92.7v86.9H9.8z"/></defs><clipPath id="SVGID_10_"><use xlink:href="#SVGID_9_" overflow="visible"/></clipPath><path d="M27.2 504.2h53.7c5.8 0 10.5 4.7 10.5 10.5v142c0 5.8-4.7 10.5-10.5 10.5H27.2c-5.8 0-10.5-4.7-10.5-10.5v-142c0-5.8 4.7-10.5 10.5-10.5z" clip-path="url(#SVGID_10_)" fill="none" stroke="#fff"/><path d="M54.4 549.2c.1-.2.3-.3.5-.3s.4.1.5.3L57 554h5.4c.2 0 .4.1.5.4.1.2 0 .4-.2.6l-4.3 3 1.6 4.8c.1.2 0 .4-.2.6-.2.1-.4.1-.6 0l-4.3-3-4.3 3c-.2.1-.4.1-.6 0-.2-.1-.2-.4-.2-.6l1.6-4.8-4.3-3c-.2-.1-.3-.4-.2-.6.1-.2.3-.4.5-.4h5.4l1.6-4.8z" opacity=".8" clip-path="url(#SVGID_10_)" fill="none" stroke="#78de7f" stroke-width="1.173" stroke-linejoin="round" enable-background="new"/><path d="M35.9 549.2c.1-.2.3-.3.5-.3s.4.1.5.3l1.7 4.8H44c.2 0 .4.1.5.4s0 .4-.2.6l-4.3 3 1.6 4.8c.1.2 0 .4-.2.6-.2.1-.4.1-.6 0l-4.3-3-4.3 3c-.2.1-.4.1-.6 0-.2-.1-.2-.4-.2-.6L33 558l-4.3-3c-.2-.1-.3-.4-.2-.6.1-.2.3-.4.5-.4h5.4l1.5-4.8z" opacity=".8" clip-path="url(#SVGID_10_)" fill="none" stroke="#198aff" stroke-width="1.173" stroke-linejoin="round" enable-background="new"/><path d="M73.3 549.2c.1-.2.3-.3.5-.3s.4.1.5.3l1.6 4.8H81c.2 0 .4.1.5.3.1.2 0 .4-.2.6l-4.1 3 1.6 4.8c.1.2 0 .4-.2.6-.2.1-.4.1-.6 0l-4.1-3-4.1 3c-.2.1-.4.1-.6 0-.2-.1-.3-.4-.2-.6l1.6-4.8-4.1-3c-.2-.1-.3-.4-.2-.6.1-.2.3-.3.5-.3h5.1l1.4-4.8z" opacity=".8" clip-path="url(#SVGID_10_)" fill="none" stroke="#ff6400" stroke-width="1.173" stroke-linejoin="round" enable-background="new"/><defs><path id="SVGID_11_" d="M254.9 489h104.5v97.8H254.9V489z"/></defs><clipPath id="SVGID_12_"><use xlink:href="#SVGID_11_" overflow="visible"/></clipPath><defs><filter id="Adobe_OpacityMaskFilter_1_" filterUnits="userSpaceOnUse" x="270.4" y="503.9" width="75.3" height="163.5"><feColorMatrix values="1 0 0 0 0 0 1 0 0 0 0 0 1 0 0 0 0 0 1 0"/></filter></defs><mask maskUnits="userSpaceOnUse" x="270.4" y="503.9" width="75.3" height="163.5" id="mask15_1_"><path d="M281.1 504.2h53.7c5.8 0 10.5 4.7 10.5 10.5v142c0 5.8-4.7 10.5-10.5 10.5h-53.7c-5.8 0-10.5-4.7-10.5-10.5v-142c.1-5.9 4.7-10.5 10.5-10.5z" clip-path="url(#SVGID_12_)" fill="#c4c4c4" filter="url(#Adobe_OpacityMaskFilter_1_)" stroke="#fff" stroke-width=".553"/></mask><g clip-path="url(#SVGID_12_)" mask="url(#mask15_1_)"><path class="st10" d="M281.1 504.4h53.7c5.7 0 10.3 4.6 10.3 10.3v142c0 5.7-4.6 10.3-10.3 10.3h-53.7c-5.7 0-10.3-4.6-10.3-10.3v-142c.1-5.7 4.6-10.3 10.3-10.3z"/></g><path d="M306.4 547.5v-1.8l3.5 2.5-3.5 2.4v-2c-3.4.4-6.1 3.3-6.1 6.8 0 3.8 3.1 6.9 6.9 6.9 3.8 0 6.9-3.1 6.9-6.9 0-2-.8-3.8-2.2-5l.7-.8c1.5 1.5 2.5 3.5 2.5 5.8 0 4.4-3.6 8-8 8s-8-3.6-8-8c.1-4.1 3.2-7.5 7.3-7.9z" fill-rule="evenodd" clip-rule="evenodd" fill="#b3b3b3"/><defs><path id="SVGID_13_" d="M128 504.6h104.5v97.8H128v-97.8z"/></defs><clipPath id="SVGID_14_"><use xlink:href="#SVGID_13_" overflow="visible"/></clipPath><defs><filter id="Adobe_OpacityMaskFilter_2_" filterUnits="userSpaceOnUse" x="143.4" y="519.5" width="75.3" height="163.5"><feColorMatrix values="1 0 0 0 0 0 1 0 0 0 0 0 1 0 0 0 0 0 1 0"/></filter></defs><mask maskUnits="userSpaceOnUse" x="143.4" y="519.5" width="75.3" height="163.5" id="mask11_1_"><path d="M154.2 520h53.7c5.7 0 10.3 4.6 10.3 10.3v142c0 5.7-4.6 10.3-10.3 10.3h-53.7c-5.7 0-10.3-4.6-10.3-10.3v-142c0-5.7 4.6-10.3 10.3-10.3z" clip-path="url(#SVGID_14_)" fill="#c4c4c4" filter="url(#Adobe_OpacityMaskFilter_2_)" stroke="#fff"/></mask><g clip-path="url(#SVGID_14_)" mask="url(#mask11_1_)"><path class="st10" d="M154.2 520h53.7c5.7 0 10.3 4.6 10.3 10.3v142c0 5.7-4.6 10.3-10.3 10.3h-53.7c-5.7 0-10.3-4.6-10.3-10.3v-142c0-5.7 4.6-10.3 10.3-10.3z"/></g><path d="M189.3 573.1c0-2.6-1.2-4.9-3.1-6.4l.6-.8c2.1 1.6 3.5 4.2 3.5 7.1 0 2.9-1.4 5.4-3.5 7.1l-.6-.8c1.9-1.4 3.1-3.7 3.1-6.2zm-3.2 0c0-1.2-.4-2.2-1.1-3.1l.7-.6c.8 1 1.3 2.3 1.3 3.7 0 1.4-.5 2.7-1.3 3.7l-.7-.6c.7-.9 1.1-2 1.1-3.1zm-2.7 0c0 1.2-.9 2.1-2.1 2.1-1.2 0-2.1-.9-2.1-2.1s.9-2.1 2.1-2.1c1.1 0 2.1.9 2.1 2.1zm-6.9 0c0-1.1.4-2.2 1.1-3l-.7-.6c-.8 1-1.3 2.3-1.3 3.6 0 1.4.5 2.7 1.3 3.7l.7-.6c-.7-.9-1.1-2-1.1-3.1zm-3.3 0c0-2.6 1.2-4.9 3.1-6.3l-.6-.8c-2.1 1.6-3.5 4.2-3.5 7.1 0 2.9 1.3 5.4 3.4 7.1l.6-.7c-1.8-1.6-3-3.9-3-6.4z" fill-rule="evenodd" clip-rule="evenodd" fill="#9f9f9f" enable-background="new"/></g></svg>