<svg width="316" height="182" viewBox="0 0 316 182" fill="none" xmlns="http://www.w3.org/2000/svg">
<g style="mix-blend-mode:multiply" clip-path="url(#clip0)">
<path d="M31.134 172.015C39.5786 172.015 46.4243 165.018 46.4243 156.386C46.4243 147.755 39.5786 140.758 31.134 140.758C22.6894 140.758 15.8438 147.755 15.8438 156.386C15.8438 165.018 22.6894 172.015 31.134 172.015Z" fill="#AFAFAF"/>
<path fill-rule="evenodd" clip-rule="evenodd" d="M31.1343 134.985C19.551 134.985 10.1602 144.567 10.1602 156.386C10.1602 168.206 19.551 177.787 31.1343 177.787C42.7177 177.787 52.1085 168.206 52.1085 156.386C52.1085 144.567 42.7183 134.985 31.1343 134.985ZM31.1343 173.358C27.7632 173.425 24.4483 172.488 21.6122 170.664C18.776 168.841 16.5473 166.214 15.2101 163.118C13.8728 160.023 13.4878 156.6 14.1039 153.285C14.72 149.97 16.3095 146.913 18.6696 144.505C21.0297 142.097 24.0535 140.446 27.3554 139.764C30.6574 139.081 34.0879 139.397 37.2095 140.671C40.3311 141.946 43.0023 144.122 44.8827 146.92C46.763 149.719 47.7672 153.015 47.7672 156.386C47.8116 160.842 46.0842 165.134 42.9651 168.316C39.8459 171.499 35.5904 173.312 31.1343 173.358Z" fill="#AFAFAF"/>
<path d="M11.4002 106.988C11.4151 107.31 11.352 107.631 11.2161 107.923C11.0803 108.215 10.8758 108.47 10.6201 108.667C10.0013 109.098 9.25577 109.311 8.50216 109.271C7.74101 109.308 6.98082 109.18 6.27344 108.897V107.983C6.99118 108.279 7.75925 108.435 8.53573 108.441C9.03753 108.476 9.53743 108.35 9.96225 108.08C10.1182 107.966 10.2434 107.815 10.3271 107.641C10.4107 107.466 10.45 107.274 10.4416 107.081C10.4514 106.838 10.3926 106.598 10.2717 106.387C10.1255 106.177 9.93033 106.006 9.70312 105.888C9.31443 105.682 8.90911 105.508 8.49142 105.37C7.87867 105.188 7.32054 104.857 6.86687 104.406C6.52889 103.999 6.35488 103.48 6.37883 102.952C6.36902 102.663 6.42817 102.377 6.55135 102.116C6.67453 101.855 6.85819 101.628 7.08705 101.452C7.62965 101.059 8.29004 100.862 8.95932 100.895C9.72691 100.886 10.4878 101.038 11.1934 101.341L10.8987 102.166C10.2797 101.895 9.61274 101.751 8.93717 101.742C8.52011 101.718 8.10665 101.832 7.76105 102.066C7.62297 102.17 7.51224 102.306 7.43843 102.462C7.36463 102.618 7.32997 102.79 7.33745 102.962C7.32798 103.203 7.38167 103.443 7.4932 103.657C7.62531 103.863 7.80661 104.034 8.02084 104.153C8.38203 104.355 8.7617 104.522 9.15467 104.651C9.80932 104.84 10.4124 105.176 10.9182 105.632C11.2477 106.005 11.4203 106.491 11.4002 106.988Z" fill="#111111"/>
<path d="M17.106 109.156V105.205C17.1375 104.804 17.0158 104.406 16.7656 104.091C16.624 103.958 16.4561 103.857 16.2728 103.793C16.0895 103.73 15.8949 103.706 15.7016 103.722C15.4424 103.699 15.1813 103.734 14.9374 103.825C14.6935 103.915 14.4729 104.06 14.2919 104.247C13.9517 104.751 13.7953 105.357 13.8488 105.963V109.156H12.9258V100.485H13.8508V103.11C13.854 103.373 13.8392 103.635 13.8065 103.895H13.8622C14.0509 103.596 14.3203 103.355 14.6396 103.202C14.9978 103.028 15.392 102.941 15.7902 102.948C16.3974 102.902 16.9988 103.093 17.4685 103.481C17.6723 103.709 17.8271 103.977 17.9234 104.268C18.0196 104.559 18.0554 104.866 18.0284 105.171V109.156H17.106Z" fill="#111111"/>
<path d="M19.85 101.394C19.8427 101.309 19.8528 101.225 19.8797 101.145C19.9066 101.065 19.9497 100.991 20.0064 100.928C20.1123 100.832 20.2503 100.779 20.3934 100.779C20.5365 100.779 20.6745 100.832 20.7804 100.928C20.8382 100.99 20.8824 101.063 20.9103 101.142C20.9381 101.222 20.949 101.307 20.9422 101.391C20.949 101.475 20.9381 101.56 20.9102 101.64C20.8824 101.721 20.8382 101.794 20.7804 101.856C20.7296 101.906 20.6694 101.945 20.6034 101.971C20.5374 101.997 20.4668 102.01 20.3957 102.009C20.3239 102.011 20.2523 101.999 20.1854 101.972C20.1185 101.946 20.0576 101.907 20.0064 101.856C19.9506 101.793 19.908 101.72 19.8811 101.641C19.8543 101.561 19.8437 101.477 19.85 101.394ZM20.8569 109.156H19.9278V103.047H20.8536L20.8569 109.156Z" fill="#111111"/>
<path d="M26.9953 109.156V105.205C27.0269 104.804 26.9056 104.406 26.6556 104.091C26.5138 103.958 26.3458 103.857 26.1624 103.794C25.979 103.73 25.7843 103.706 25.5909 103.722C25.333 103.7 25.0734 103.735 24.8307 103.825C24.5879 103.914 24.3679 104.057 24.1865 104.241C23.8443 104.742 23.6867 105.347 23.7408 105.951V109.156H22.8164V103.047H23.5689L23.7186 103.883H23.7636C23.957 103.578 24.2335 103.336 24.5604 103.183C24.9171 103.015 25.3074 102.93 25.7017 102.936C26.3036 102.89 26.8996 103.081 27.3631 103.468C27.5668 103.699 27.7212 103.969 27.817 104.261C27.9128 104.554 27.948 104.863 27.9203 105.17V109.154L26.9953 109.156Z" fill="#111111"/>
<path d="M28.8516 103.048H29.8431L31.1803 106.531C31.4017 107.092 31.5843 107.667 31.7267 108.253H31.7711C31.8194 108.064 31.9205 107.74 32.0745 107.281C32.2284 106.822 32.7328 105.411 33.5876 103.048H34.5798L31.9557 110.003C31.7797 110.559 31.4661 111.062 31.044 111.465C30.6834 111.758 30.2295 111.911 29.7652 111.897C29.4839 111.898 29.2036 111.866 28.9294 111.803V111.064C29.1549 111.111 29.3846 111.134 29.6148 111.131C29.928 111.129 30.2315 111.023 30.4777 110.829C30.7238 110.636 30.8987 110.366 30.9749 110.062L31.3146 109.193L28.8516 103.048Z" fill="#111111"/>
<path d="M40.9752 109.267C40.594 109.29 40.2124 109.229 39.8575 109.088C39.5026 108.947 39.1831 108.729 38.9217 108.451C38.4005 107.798 38.1413 106.975 38.1946 106.142C38.1397 105.288 38.4028 104.444 38.9331 103.773C39.2006 103.487 39.5277 103.264 39.8913 103.12C40.2548 102.975 40.6458 102.913 41.0363 102.937C41.3326 102.937 41.6281 102.969 41.9177 103.032C42.1562 103.077 42.3882 103.152 42.6085 103.254L42.3238 104.041C42.1059 103.955 41.8814 103.888 41.6525 103.839C41.4424 103.789 41.2274 103.762 41.0114 103.759C39.7709 103.759 39.1506 104.55 39.1506 106.132C39.1111 106.742 39.2703 107.348 39.6044 107.86C39.7623 108.062 39.9671 108.222 40.201 108.328C40.4349 108.433 40.691 108.48 40.947 108.464C41.4855 108.457 42.0176 108.346 42.5131 108.135V108.954C42.0326 109.179 41.5055 109.286 40.9752 109.267Z" fill="#111111"/>
<path d="M49.2408 106.097C49.2917 106.941 49.0233 107.773 48.4889 108.429C48.2245 108.712 47.9011 108.934 47.5415 109.079C47.1819 109.224 46.795 109.288 46.4079 109.267C45.897 109.276 45.3936 109.143 44.9539 108.883C44.5249 108.62 44.1836 108.236 43.9731 107.779C43.7321 107.252 43.6139 106.676 43.6274 106.097C43.5759 105.255 43.8426 104.424 44.3745 103.77C44.6382 103.488 44.9605 103.267 45.3186 103.124C45.6768 102.98 46.0621 102.916 46.4475 102.937C46.8288 102.92 47.2091 102.987 47.5612 103.135C47.9133 103.282 48.2283 103.506 48.4836 103.789C49.0151 104.437 49.2852 105.26 49.2408 106.097ZM44.588 106.097C44.5468 106.727 44.7117 107.353 45.0579 107.88C45.2322 108.073 45.4448 108.227 45.6821 108.332C45.9194 108.437 46.1761 108.491 46.4358 108.491C46.6954 108.491 46.9521 108.437 47.1894 108.332C47.4267 108.227 47.6393 108.073 47.8136 107.88C48.1618 107.353 48.3269 106.725 48.2835 106.095C48.3268 105.469 48.1616 104.847 47.8136 104.326C47.6469 104.122 47.4338 103.96 47.1921 103.855C46.9504 103.75 46.687 103.704 46.424 103.722C46.1644 103.704 45.9044 103.75 45.6658 103.853C45.4272 103.957 45.2169 104.117 45.0525 104.318C44.7069 104.844 44.5437 105.469 44.588 106.097Z" fill="#111111"/>
<path d="M50.7836 101.394C50.7762 101.309 50.7862 101.225 50.813 101.145C50.8398 101.065 50.8828 100.991 50.9394 100.928C51.0453 100.832 51.1833 100.779 51.3264 100.779C51.4695 100.779 51.6075 100.832 51.7134 100.928C51.7713 100.99 51.8156 101.063 51.8436 101.142C51.8716 101.222 51.8826 101.307 51.8758 101.391C51.8825 101.475 51.8715 101.56 51.8435 101.641C51.8156 101.721 51.7713 101.794 51.7134 101.856C51.6085 101.954 51.4701 102.009 51.3264 102.009C51.1826 102.009 51.0443 101.954 50.9394 101.856C50.8837 101.793 50.8412 101.72 50.8145 101.641C50.7877 101.561 50.7772 101.477 50.7836 101.394ZM51.7866 109.156H50.8615V103.047H51.7866V109.156Z" fill="#111111"/>
<path d="M57.9289 109.156V105.205C57.9602 104.804 57.8389 104.406 57.5892 104.091C57.4473 103.958 57.2793 103.857 57.0959 103.794C56.9125 103.73 56.7179 103.706 56.5245 103.722C56.2667 103.7 56.0072 103.735 55.7646 103.825C55.5219 103.914 55.302 104.057 55.1208 104.241C54.7779 104.742 54.6203 105.347 54.675 105.951V109.156H53.75V103.047H54.5019L54.6522 103.883H54.6972C54.8904 103.578 55.1669 103.335 55.494 103.183C55.8506 103.015 56.2409 102.93 56.6353 102.936C57.237 102.89 57.8328 103.081 58.2961 103.468C58.4998 103.699 58.6544 103.969 58.7502 104.261C58.846 104.554 58.8811 104.863 58.8532 105.17V109.154L57.9289 109.156Z" fill="#111111"/>
<path d="M113.198 103.272C113.219 103.633 113.153 103.994 113.006 104.325C112.859 104.656 112.635 104.947 112.354 105.175C111.646 105.662 110.795 105.896 109.937 105.841H108.978V109.045H108.031V100.898H110.144C112.18 100.898 113.198 101.689 113.198 103.272ZM108.979 105.028H109.832C110.467 105.078 111.102 104.936 111.654 104.62C111.849 104.467 112.002 104.267 112.1 104.039C112.199 103.812 112.239 103.564 112.217 103.317C112.234 103.088 112.194 102.859 112.102 102.649C112.01 102.439 111.868 102.255 111.688 102.113C111.193 101.812 110.616 101.673 110.038 101.718H108.979V105.028Z" fill="#111111"/>
<path d="M120.033 105.985C120.084 106.829 119.815 107.662 119.281 108.317C119.016 108.601 118.693 108.823 118.333 108.968C117.974 109.113 117.587 109.177 117.2 109.156C116.689 109.165 116.185 109.032 115.746 108.772C115.317 108.509 114.975 108.125 114.765 107.668C114.525 107.14 114.407 106.565 114.42 105.985C114.37 105.144 114.638 104.315 115.17 103.661C115.434 103.379 115.756 103.159 116.115 103.015C116.473 102.871 116.858 102.807 117.243 102.828C117.625 102.811 118.005 102.879 118.357 103.026C118.709 103.174 119.024 103.397 119.279 103.681C119.809 104.329 120.078 105.15 120.033 105.985ZM115.381 105.985C115.339 106.615 115.504 107.241 115.85 107.769C116.025 107.961 116.237 108.115 116.474 108.22C116.711 108.325 116.967 108.379 117.227 108.379C117.486 108.379 117.742 108.325 117.979 108.22C118.216 108.115 118.429 107.961 118.603 107.769C118.951 107.241 119.116 106.614 119.073 105.983C119.116 105.358 118.951 104.736 118.603 104.214C118.436 104.01 118.223 103.849 117.981 103.744C117.739 103.638 117.476 103.593 117.213 103.61C116.953 103.593 116.693 103.638 116.455 103.742C116.216 103.846 116.006 104.005 115.842 104.206C115.497 104.733 115.335 105.358 115.381 105.985Z" fill="#111111"/>
<path d="M125.596 107.378C125.608 107.633 125.557 107.887 125.446 108.116C125.335 108.346 125.168 108.544 124.961 108.693C124.43 109.031 123.806 109.193 123.178 109.156C122.524 109.189 121.873 109.057 121.284 108.772V107.913C121.585 108.065 121.901 108.182 122.228 108.264C122.546 108.348 122.872 108.391 123.2 108.393C123.586 108.414 123.97 108.335 124.315 108.161C124.426 108.095 124.52 108.002 124.588 107.891C124.656 107.78 124.695 107.655 124.703 107.525C124.711 107.395 124.687 107.266 124.634 107.147C124.58 107.029 124.499 106.925 124.396 106.846C124.023 106.592 123.616 106.39 123.188 106.247C122.767 106.104 122.362 105.918 121.979 105.693C121.761 105.558 121.577 105.374 121.442 105.156C121.32 104.936 121.259 104.688 121.266 104.437C121.259 104.206 121.311 103.976 121.416 103.77C121.522 103.564 121.678 103.388 121.87 103.258C122.368 102.945 122.95 102.794 123.537 102.826C124.201 102.828 124.857 102.965 125.465 103.229L125.136 103.981C124.611 103.748 124.045 103.619 123.47 103.603C123.127 103.581 122.785 103.652 122.479 103.808C122.376 103.863 122.291 103.945 122.232 104.046C122.172 104.146 122.142 104.26 122.143 104.377C122.139 104.526 122.182 104.673 122.268 104.795C122.377 104.932 122.515 105.044 122.671 105.123C123.017 105.297 123.375 105.447 123.741 105.575C124.281 105.734 124.781 106.006 125.209 106.372C125.337 106.506 125.436 106.664 125.503 106.836C125.569 107.009 125.601 107.193 125.596 107.378Z" fill="#111111"/>
<path d="M127.022 101.282C127.015 101.198 127.025 101.113 127.052 101.033C127.079 100.953 127.122 100.88 127.178 100.817C127.284 100.721 127.422 100.668 127.565 100.668C127.709 100.668 127.847 100.721 127.953 100.817C128.01 100.879 128.055 100.952 128.082 101.031C128.11 101.111 128.121 101.195 128.114 101.279C128.121 101.364 128.11 101.449 128.082 101.529C128.054 101.609 128.01 101.682 127.953 101.745C127.902 101.794 127.842 101.834 127.776 101.86C127.71 101.886 127.639 101.899 127.568 101.898C127.496 101.9 127.425 101.887 127.358 101.861C127.291 101.835 127.23 101.795 127.178 101.745C127.122 101.682 127.08 101.609 127.053 101.529C127.026 101.45 127.016 101.366 127.022 101.282ZM128.029 109.044H127.104V102.936H128.029V109.044Z" fill="#111111"/>
<path d="M131.962 108.393C132.121 108.393 132.279 108.381 132.436 108.356C132.558 108.338 132.679 108.313 132.798 108.281V108.989C132.656 109.049 132.507 109.089 132.355 109.109C132.181 109.138 132.005 109.154 131.829 109.156C130.647 109.156 130.056 108.534 130.056 107.29V103.657H129.184V103.21L130.056 102.826L130.446 101.522H130.983V102.937H132.756V103.657H130.983V107.25C130.963 107.555 131.056 107.857 131.246 108.097C131.336 108.196 131.447 108.274 131.571 108.325C131.695 108.376 131.828 108.399 131.962 108.393Z" fill="#111111"/>
<path d="M133.94 101.282C133.932 101.198 133.942 101.113 133.969 101.033C133.996 100.953 134.04 100.879 134.096 100.817C134.202 100.721 134.34 100.668 134.483 100.668C134.626 100.668 134.764 100.721 134.87 100.817C134.928 100.878 134.972 100.951 135 101.031C135.028 101.111 135.039 101.195 135.032 101.279C135.039 101.364 135.028 101.449 135 101.529C134.972 101.609 134.928 101.683 134.87 101.745C134.82 101.794 134.76 101.833 134.694 101.86C134.628 101.886 134.557 101.899 134.486 101.898C134.414 101.9 134.343 101.887 134.276 101.861C134.209 101.835 134.148 101.795 134.096 101.745C134.04 101.682 133.998 101.609 133.971 101.529C133.944 101.45 133.933 101.366 133.94 101.282ZM134.943 109.044H134.018V102.936H134.943V109.044Z" fill="#111111"/>
<path d="M138.24 109.044L135.922 102.936H136.914L138.229 106.561C138.526 107.407 138.7 107.957 138.753 108.21H138.797C138.905 107.796 139.035 107.388 139.185 106.987C139.402 106.369 139.889 105.019 140.647 102.938H141.639L139.321 109.047L138.24 109.044Z" fill="#111111"/>
<path d="M145.199 109.156C144.805 109.176 144.411 109.114 144.043 108.972C143.675 108.829 143.34 108.611 143.062 108.331C142.511 107.7 142.229 106.877 142.279 106.041C142.233 105.196 142.491 104.362 143.007 103.691C143.244 103.406 143.543 103.18 143.882 103.029C144.22 102.878 144.589 102.807 144.96 102.822C145.299 102.806 145.638 102.865 145.953 102.996C146.267 103.126 146.548 103.325 146.776 103.577C147.242 104.134 147.481 104.845 147.447 105.57V106.154H143.24C143.216 106.747 143.409 107.328 143.783 107.788C143.972 107.979 144.199 108.127 144.449 108.223C144.699 108.319 144.967 108.361 145.235 108.345C145.906 108.342 146.57 108.202 147.186 107.933V108.763C146.887 108.895 146.576 108.996 146.258 109.067C145.909 109.132 145.554 109.162 145.199 109.156ZM144.948 103.601C144.73 103.591 144.512 103.628 144.309 103.711C144.107 103.794 143.925 103.919 143.775 104.079C143.462 104.453 143.281 104.919 143.26 105.406H146.455C146.487 104.926 146.349 104.451 146.065 104.063C145.926 103.906 145.753 103.783 145.56 103.703C145.366 103.623 145.157 103.588 144.948 103.601Z" fill="#111111"/>
<path d="M154.566 109.156C154.172 109.177 153.778 109.114 153.41 108.972C153.041 108.829 152.707 108.611 152.429 108.331C151.878 107.7 151.597 106.877 151.646 106.041C151.6 105.196 151.858 104.362 152.373 103.691C152.61 103.406 152.91 103.18 153.248 103.029C153.587 102.878 153.956 102.808 154.326 102.822C154.666 102.806 155.005 102.865 155.319 102.996C155.633 103.126 155.914 103.325 156.143 103.577C156.608 104.134 156.848 104.845 156.814 105.57V106.154H152.608C152.583 106.747 152.775 107.328 153.15 107.788C153.338 107.979 153.565 108.127 153.816 108.223C154.066 108.319 154.334 108.361 154.602 108.345C155.274 108.342 155.937 108.202 156.553 107.933V108.763C156.254 108.894 155.943 108.996 155.624 109.067C155.276 109.132 154.921 109.162 154.566 109.156ZM154.315 103.601C154.097 103.591 153.879 103.628 153.676 103.711C153.474 103.794 153.292 103.919 153.143 104.079C152.829 104.452 152.647 104.919 152.627 105.406H155.82C155.852 104.926 155.714 104.451 155.43 104.063C155.291 103.906 155.119 103.783 154.926 103.703C154.733 103.623 154.524 103.588 154.315 103.601Z" fill="#111111"/>
<path d="M159.86 105.919L157.736 102.937H158.79L160.401 105.278L162.007 102.937H163.048L160.925 105.919L163.16 109.044H162.113L160.401 106.57L158.674 109.044H157.625L159.86 105.919Z" fill="#111111"/>
<path d="M167.209 109.156C166.835 109.161 166.463 109.085 166.12 108.936C165.789 108.787 165.503 108.554 165.292 108.259H165.225C165.268 108.595 165.291 108.934 165.292 109.273V111.784H164.367V102.937H165.12L165.248 103.773H165.292C165.502 103.463 165.788 103.214 166.123 103.048C166.464 102.895 166.835 102.819 167.209 102.825C167.565 102.806 167.921 102.871 168.247 103.016C168.573 103.16 168.86 103.38 169.084 103.656C169.518 104.358 169.746 105.167 169.744 105.991C169.742 106.816 169.51 107.623 169.073 108.323C168.85 108.598 168.564 108.817 168.241 108.962C167.917 109.106 167.564 109.173 167.209 109.156ZM167.075 103.611C166.825 103.588 166.573 103.623 166.338 103.713C166.103 103.803 165.893 103.945 165.722 104.13C165.402 104.618 165.251 105.197 165.292 105.779V105.985C165.237 106.629 165.387 107.274 165.722 107.827C165.891 108.021 166.104 108.173 166.343 108.27C166.582 108.366 166.841 108.405 167.098 108.382C167.342 108.39 167.584 108.335 167.801 108.223C168.018 108.11 168.203 107.944 168.337 107.741C168.664 107.212 168.821 106.595 168.786 105.974C168.825 105.357 168.668 104.743 168.337 104.221C168.194 104.023 168.003 103.863 167.783 103.757C167.563 103.651 167.32 103.601 167.075 103.611Z" fill="#111111"/>
<path d="M173.941 109.156C173.547 109.176 173.153 109.114 172.785 108.972C172.416 108.829 172.082 108.611 171.804 108.331C171.253 107.7 170.972 106.877 171.021 106.041C170.975 105.196 171.233 104.363 171.748 103.691C171.985 103.406 172.285 103.18 172.624 103.029C172.962 102.878 173.331 102.807 173.702 102.822C174.042 102.806 174.381 102.865 174.695 102.996C175.009 103.127 175.29 103.325 175.518 103.577C175.984 104.134 176.223 104.845 176.19 105.57V106.154H171.983C171.957 106.747 172.151 107.328 172.526 107.788C172.714 107.979 172.941 108.127 173.191 108.223C173.441 108.319 173.709 108.361 173.977 108.345C174.649 108.342 175.312 108.202 175.928 107.933V108.763C175.629 108.895 175.318 108.996 174.999 109.066C174.651 109.132 174.296 109.162 173.941 109.156ZM173.69 103.601C173.472 103.591 173.254 103.628 173.051 103.711C172.849 103.794 172.667 103.919 172.518 104.079C172.204 104.452 172.022 104.919 172.002 105.406H175.195C175.228 104.926 175.089 104.451 174.805 104.063C174.666 103.906 174.494 103.783 174.301 103.703C174.108 103.623 173.899 103.588 173.69 103.601Z" fill="#111111"/>
<path d="M180.552 102.825C180.797 102.823 181.042 102.845 181.283 102.893L181.154 103.75C180.934 103.699 180.708 103.671 180.482 103.667C180.239 103.667 179.999 103.721 179.78 103.826C179.56 103.93 179.367 104.082 179.214 104.271C178.858 104.688 178.67 105.222 178.688 105.77V109.046H177.766V102.937H178.529L178.635 104.069H178.68C178.878 103.703 179.158 103.389 179.499 103.15C179.809 102.937 180.176 102.823 180.552 102.825Z" fill="#111111"/>
<path d="M182.346 101.282C182.339 101.198 182.349 101.113 182.376 101.033C182.402 100.953 182.445 100.88 182.502 100.817C182.608 100.721 182.746 100.668 182.889 100.668C183.032 100.668 183.17 100.721 183.276 100.817C183.334 100.878 183.378 100.951 183.406 101.031C183.434 101.111 183.444 101.195 183.438 101.279C183.444 101.364 183.434 101.449 183.406 101.529C183.378 101.609 183.334 101.683 183.276 101.745C183.171 101.843 183.033 101.898 182.889 101.898C182.745 101.898 182.607 101.843 182.502 101.745C182.446 101.682 182.404 101.609 182.377 101.529C182.35 101.45 182.34 101.366 182.346 101.282ZM183.349 109.044H182.424V102.936H183.349V109.044Z" fill="#111111"/>
<path d="M187.886 109.156C187.492 109.176 187.098 109.114 186.73 108.972C186.361 108.829 186.027 108.611 185.749 108.331C185.198 107.7 184.917 106.877 184.967 106.041C184.92 105.196 185.178 104.362 185.694 103.691C185.931 103.406 186.23 103.18 186.569 103.029C186.907 102.878 187.276 102.807 187.646 102.822C187.986 102.806 188.325 102.865 188.639 102.996C188.954 103.126 189.235 103.325 189.463 103.577C189.929 104.134 190.168 104.845 190.134 105.57V106.154H185.925C185.9 106.747 186.093 107.328 186.468 107.788C186.656 107.979 186.883 108.127 187.133 108.223C187.383 108.319 187.651 108.361 187.919 108.345C188.591 108.342 189.254 108.202 189.87 107.933V108.763C189.571 108.895 189.261 108.996 188.942 109.067C188.594 109.132 188.24 109.162 187.886 109.156ZM187.635 103.601C187.417 103.591 187.199 103.629 186.996 103.711C186.794 103.794 186.611 103.919 186.462 104.079C186.149 104.453 185.968 104.919 185.947 105.406H189.14C189.173 104.926 189.034 104.451 188.749 104.063C188.611 103.906 188.439 103.783 188.246 103.703C188.053 103.623 187.844 103.588 187.635 103.601Z" fill="#111111"/>
<path d="M195.89 109.044V105.094C195.921 104.693 195.8 104.295 195.549 103.979C195.408 103.847 195.24 103.746 195.057 103.682C194.873 103.619 194.679 103.595 194.485 103.612C194.228 103.589 193.968 103.624 193.726 103.713C193.483 103.803 193.263 103.945 193.082 104.13C192.739 104.631 192.581 105.236 192.636 105.84V109.044H191.711V102.936H192.463L192.613 103.771H192.658C192.852 103.467 193.128 103.225 193.454 103.072C193.811 102.904 194.201 102.819 194.596 102.824C195.197 102.779 195.793 102.97 196.256 103.356C196.46 103.587 196.615 103.858 196.71 104.15C196.806 104.443 196.841 104.752 196.814 105.059V109.043L195.89 109.044Z" fill="#111111"/>
<path d="M201.159 109.156C200.778 109.179 200.396 109.117 200.041 108.976C199.686 108.835 199.367 108.618 199.105 108.34C198.584 107.687 198.325 106.864 198.378 106.03C198.323 105.177 198.586 104.333 199.117 103.661C199.384 103.376 199.711 103.153 200.075 103.008C200.438 102.864 200.829 102.801 201.22 102.825C201.516 102.826 201.811 102.858 202.101 102.921C202.34 102.966 202.572 103.041 202.792 103.144L202.51 103.93C202.292 103.845 202.068 103.778 201.839 103.728C201.629 103.679 201.414 103.651 201.198 103.648C199.957 103.648 199.337 104.439 199.337 106.022C199.297 106.631 199.457 107.237 199.791 107.749C199.949 107.951 200.153 108.112 200.387 108.217C200.621 108.322 200.877 108.369 201.133 108.353C201.672 108.347 202.204 108.235 202.699 108.024V108.843C202.218 109.069 201.69 109.176 201.159 109.156Z" fill="#111111"/>
<path d="M206.73 109.156C206.336 109.177 205.942 109.114 205.574 108.972C205.205 108.829 204.871 108.611 204.593 108.331C204.042 107.7 203.761 106.877 203.81 106.041C203.764 105.196 204.022 104.362 204.537 103.691C204.774 103.406 205.074 103.18 205.412 103.029C205.751 102.878 206.12 102.807 206.49 102.822C206.83 102.806 207.169 102.865 207.483 102.996C207.797 103.126 208.078 103.325 208.307 103.577C208.772 104.134 209.012 104.845 208.978 105.57V106.154H204.772C204.747 106.747 204.94 107.328 205.314 107.788C205.502 107.979 205.729 108.127 205.98 108.223C206.23 108.319 206.498 108.361 206.766 108.345C207.438 108.342 208.101 108.202 208.717 107.933V108.763C208.418 108.895 208.107 108.996 207.788 109.066C207.44 109.132 207.085 109.162 206.73 109.156ZM206.479 103.601C206.261 103.591 206.043 103.628 205.84 103.711C205.638 103.794 205.456 103.919 205.307 104.079C204.993 104.452 204.812 104.919 204.791 105.406H207.984C208.017 104.926 207.878 104.451 207.594 104.063C207.456 103.906 207.283 103.783 207.09 103.703C206.897 103.623 206.688 103.588 206.479 103.601Z" fill="#111111"/>
<path fill-rule="evenodd" clip-rule="evenodd" d="M175.822 151.496C175.822 151.517 175.816 151.537 175.814 151.558C175.818 151.677 175.814 151.797 175.801 151.916C175.784 152.004 175.764 152.091 175.738 152.177C175.126 156.807 172.71 161.008 169.015 163.864C167.204 165.261 165.132 166.281 162.921 166.864C160.71 167.447 158.404 167.581 156.14 167.258C153.876 166.935 151.7 166.161 149.741 164.982C147.781 163.804 146.077 162.245 144.73 160.397C142.95 157.986 141.807 155.165 141.408 152.195C141.337 151.949 141.306 151.693 141.314 151.436C141.314 151.42 141.31 151.404 141.309 151.388H141.317C141.331 151.036 141.421 150.692 141.582 150.379C141.742 150.066 141.969 149.792 142.246 149.575C142.494 149.384 142.778 149.244 143.081 149.165C143.383 149.085 143.699 149.067 144.009 149.111C144.319 149.155 144.616 149.261 144.885 149.422C145.153 149.584 145.386 149.797 145.571 150.05C145.861 150.444 146.027 150.916 146.045 151.405H146.058C146.334 153.612 147.174 155.711 148.497 157.499C149.477 158.844 150.717 159.979 152.144 160.837C153.57 161.695 155.154 162.258 156.802 162.493C158.45 162.729 160.128 162.631 161.738 162.207C163.347 161.782 164.855 161.04 166.173 160.023C168.872 157.937 170.634 154.866 171.073 151.484H171.09C171.09 151.405 171.09 151.327 171.098 151.247C171.169 150.65 171.465 150.103 171.925 149.716C172.385 149.329 172.975 149.131 173.575 149.163C174.175 149.195 174.741 149.454 175.157 149.888C175.573 150.322 175.808 150.898 175.816 151.499L175.822 151.496Z" fill="#AFAFAF"/>
<path d="M284.567 134.827C273.173 134.827 263.938 144.328 263.938 156.049C263.938 167.769 273.173 177.269 284.567 177.269C295.96 177.269 305.196 167.768 305.196 156.049C305.208 150.452 303.042 145.07 299.154 141.043C297.263 139.083 294.997 137.523 292.491 136.455C289.985 135.388 287.29 134.834 284.567 134.827ZM293.794 167.879C291.249 169.994 288.054 171.171 284.745 171.21C281.436 171.25 278.214 170.151 275.62 168.097C272.987 165.993 271.114 163.087 270.288 159.82C269.461 156.553 269.725 153.105 271.041 150.002C271.107 149.842 271.216 149.702 271.354 149.596C271.493 149.491 271.657 149.425 271.829 149.403C272.002 149.384 272.176 149.411 272.334 149.482C272.492 149.553 272.629 149.665 272.729 149.806C272.831 149.95 272.895 150.118 272.914 150.293C272.933 150.469 272.907 150.646 272.838 150.808C271.699 153.498 271.47 156.487 272.187 159.319C272.903 162.151 274.527 164.671 276.809 166.495C279.058 168.275 281.852 169.228 284.72 169.194C287.588 169.16 290.358 168.141 292.565 166.307C292.696 166.189 292.858 166.11 293.031 166.078C293.205 166.046 293.384 166.062 293.549 166.126C293.716 166.191 293.863 166.301 293.973 166.443C294.083 166.584 294.153 166.753 294.176 166.931C294.202 167.109 294.179 167.291 294.112 167.458C294.044 167.625 293.934 167.771 293.792 167.881L293.794 167.879Z" fill="#AFAFAF"/>
<path opacity="0.25" fill-rule="evenodd" clip-rule="evenodd" d="M220.63 165.571C220.478 165.571 220.328 165.528 220.198 165.447C220.069 165.365 219.964 165.25 219.897 165.112C219.83 164.975 219.803 164.821 219.818 164.669C219.834 164.517 219.892 164.373 219.986 164.252L224.606 158.285L219.98 152.146C219.912 152.061 219.861 151.962 219.831 151.857C219.802 151.752 219.794 151.642 219.807 151.533C219.821 151.424 219.856 151.32 219.911 151.225C219.966 151.13 220.039 151.048 220.126 150.982C220.214 150.916 220.314 150.868 220.42 150.842C220.526 150.815 220.636 150.81 220.744 150.827C220.853 150.843 220.956 150.882 221.049 150.939C221.142 150.997 221.223 151.072 221.286 151.161L226.288 157.799C226.396 157.943 226.454 158.117 226.453 158.297C226.452 158.476 226.392 158.65 226.282 158.792L221.28 165.253C221.203 165.352 221.105 165.432 220.992 165.488C220.88 165.543 220.756 165.571 220.63 165.571Z" fill="#111111"/>
<path opacity="0.25" fill-rule="evenodd" clip-rule="evenodd" d="M93.6305 165.571C93.4776 165.571 93.3278 165.528 93.1982 165.447C93.0686 165.365 92.9643 165.25 92.8972 165.112C92.8301 164.975 92.8028 164.821 92.8185 164.669C92.8342 164.517 92.8922 164.373 92.986 164.252L97.6059 158.285L92.98 152.146C92.9116 152.061 92.8611 151.962 92.8315 151.857C92.8018 151.752 92.7935 151.642 92.8072 151.533C92.8208 151.424 92.8562 151.32 92.911 151.225C92.9658 151.13 93.0391 151.048 93.1265 150.982C93.2139 150.916 93.3136 150.868 93.4197 150.842C93.5258 150.815 93.6363 150.81 93.7444 150.827C93.8525 150.843 93.9562 150.882 94.0493 150.939C94.1424 150.997 94.223 151.072 94.2863 151.161L99.2882 157.799C99.3963 157.943 99.4542 158.117 99.4531 158.297C99.452 158.476 99.392 158.65 99.2822 158.792L94.2796 165.253C94.2031 165.352 94.1047 165.432 93.9922 165.488C93.8796 165.543 93.7558 165.571 93.6305 165.571Z" fill="#111111"/>
<path fill-rule="evenodd" clip-rule="evenodd" d="M129.25 29.7663C129.25 13.4076 142.511 0.14624 158.87 0.14624C166.726 0.14624 174.26 3.26692 179.815 8.82176C185.369 14.3766 188.49 21.9106 188.49 29.7663C188.49 46.125 175.229 59.3864 158.87 59.3864C142.511 59.3864 129.25 46.125 129.25 29.7663ZM146.02 46.5834C153.755 52.491 164.521 52.3657 172.116 46.2796H172.113C172.526 45.9716 172.737 45.4628 172.665 44.953C172.592 44.4432 172.247 44.0137 171.765 43.8331C171.283 43.6526 170.74 43.7497 170.351 44.0864C163.766 49.3613 154.433 49.4691 147.728 44.3478C141.023 39.2265 138.671 30.1945 142.027 22.4534C142.228 21.9923 142.168 21.4588 141.869 21.054C141.571 20.6492 141.079 20.4346 140.579 20.4909C140.079 20.5473 139.647 20.8661 139.446 21.3273C135.573 30.2565 138.285 40.6758 146.02 46.5834Z" fill="#231F20"/>
<path d="M274.475 110.997L271.873 104.2H271.831C271.88 104.738 271.905 105.378 271.905 106.12V110.997H271.081V103.329H272.424L274.852 109.654H274.894L277.343 103.329H278.676V110.997H277.784V106.057C277.784 105.49 277.809 104.875 277.857 104.21H277.816L275.193 110.997H274.475ZM284.188 110.997L284.015 110.179H283.973C283.686 110.539 283.399 110.784 283.112 110.913C282.829 111.039 282.474 111.102 282.048 111.102C281.478 111.102 281.03 110.955 280.705 110.661C280.384 110.368 280.223 109.95 280.223 109.408C280.223 108.247 281.151 107.639 283.008 107.583L283.983 107.551V107.195C283.983 106.744 283.885 106.411 283.689 106.198C283.497 105.981 283.188 105.873 282.761 105.873C282.282 105.873 281.74 106.02 281.135 106.314L280.868 105.648C281.151 105.494 281.46 105.373 281.796 105.286C282.135 105.198 282.474 105.155 282.814 105.155C283.499 105.155 284.006 105.307 284.334 105.611C284.667 105.915 284.833 106.403 284.833 107.074V110.997H284.188ZM282.221 110.383C282.763 110.383 283.188 110.235 283.495 109.938C283.807 109.64 283.962 109.224 283.962 108.689V108.17L283.092 108.207C282.399 108.231 281.899 108.34 281.592 108.532C281.287 108.721 281.135 109.016 281.135 109.418C281.135 109.733 281.23 109.973 281.419 110.137C281.611 110.301 281.878 110.383 282.221 110.383ZM289.254 105.144C289.509 105.144 289.738 105.165 289.941 105.207L289.82 106.015C289.583 105.962 289.373 105.936 289.191 105.936C288.726 105.936 288.327 106.125 287.995 106.502C287.667 106.88 287.502 107.35 287.502 107.913V110.997H286.632V105.249H287.35L287.45 106.314H287.492C287.705 105.939 287.962 105.651 288.263 105.448C288.563 105.245 288.894 105.144 289.254 105.144ZM291.876 108.055C292.026 107.841 292.255 107.562 292.563 107.216L294.42 105.249H295.453L293.124 107.698L295.616 110.997H294.561L292.532 108.28L291.876 108.847V110.997H291.016V102.836H291.876V107.163C291.876 107.355 291.862 107.653 291.834 108.055H291.876Z" fill="black"/>
<g style="mix-blend-mode:multiply">
<rect y="151.281" width="315.649" height="13.9546" fill="#FEF200"/>
</g>
</g>
<defs>
<clipPath id="clip0">
<rect width="316" height="182" fill="white"/>
</clipPath>
</defs>
</svg>
