<svg id="Layer_1" data-name="Layer 1" xmlns="http://www.w3.org/2000/svg" viewBox="0 0 286.393 208"><path d="M-.451 111.209h79.8v96.52h-79.8z" fill="none"/><path d="M25.12 109.37a2.8 2.8 0 01-1.093 2.352 4.75 4.75 0 01-2.969.844 7.437 7.437 0 01-3.125-.524v-1.281a8.206 8.206 0 001.531.469 8.085 8.085 0 001.641.172 3.316 3.316 0 002-.5 1.655 1.655 0 00.672-1.4 1.8 1.8 0 00-.239-.972 2.211 2.211 0 00-.8-.7 11.028 11.028 0 00-1.7-.726 5.429 5.429 0 01-2.277-1.352 2.979 2.979 0 01-.684-2.039 2.535 2.535 0 01.992-2.1 4.123 4.123 0 012.625-.782 7.735 7.735 0 013.133.625l-.414 1.157a7.081 7.081 0 00-2.75-.594 2.665 2.665 0 00-1.648.453 1.494 1.494 0 00-.594 1.258 1.92 1.92 0 00.219.972 2.039 2.039 0 00.738.7 9.153 9.153 0 001.59.7 6.3 6.3 0 012.473 1.375 2.707 2.707 0 01.679 1.893zm8 3.039v-5.539a2.235 2.235 0 00-.476-1.562 1.94 1.94 0 00-1.492-.516 2.443 2.443 0 00-1.973.735 3.718 3.718 0 00-.621 2.406v4.476h-1.3v-12.156h1.3v3.68a8.088 8.088 0 01-.063 1.1h.078a2.645 2.645 0 011.09-.972 3.521 3.521 0 011.614-.356 3.3 3.3 0 012.355.746 3.143 3.143 0 01.785 2.371v5.586zm3.852-10.882a.86.86 0 01.219-.653.809.809 0 011.086 0 .845.845 0 01.226.649.86.86 0 01-.226.652.762.762 0 01-.539.215.749.749 0 01-.547-.215.874.874 0 01-.219-.648zm1.406 10.882h-1.3v-8.562h1.3zm8.61 0v-5.539a2.236 2.236 0 00-.477-1.562 1.94 1.94 0 00-1.492-.516 2.461 2.461 0 00-1.969.727 3.664 3.664 0 00-.625 2.4v4.492h-1.3v-8.562h1.055l.211 1.172h.062a2.652 2.652 0 011.117-.981 3.639 3.639 0 011.6-.347 3.256 3.256 0 012.328.746 3.173 3.173 0 01.781 2.386v5.586zm2.601-8.562h1.391l1.875 4.883a18.388 18.388 0 01.765 2.414h.063c.067-.266.21-.72.426-1.364s.922-2.621 2.121-5.933h1.39l-3.679 9.75a4.855 4.855 0 01-1.278 2.051 2.721 2.721 0 01-1.793.605 5.2 5.2 0 01-1.172-.133v-1.039a4.494 4.494 0 00.961.094 1.983 1.983 0 001.907-1.5l.476-1.219zm-20.918 27.919a3.654 3.654 0 01-2.879-1.145 4.71 4.71 0 01-1.019-3.238 4.842 4.842 0 011.035-3.32 3.722 3.722 0 012.949-1.172 5.814 5.814 0 011.234.133 4.018 4.018 0 01.969.312l-.4 1.1a6.15 6.15 0 00-.938-.286 4.2 4.2 0 00-.9-.113q-2.608 0-2.61 3.328a3.96 3.96 0 00.637 2.422 2.217 2.217 0 001.887.844 5.739 5.739 0 002.2-.461v1.148a4.676 4.676 0 01-2.165.448zm11.586-4.446a4.718 4.718 0 01-1.055 3.27 3.71 3.71 0 01-2.914 1.176 3.868 3.868 0 01-2.039-.539 3.576 3.576 0 01-1.375-1.547 5.392 5.392 0 01-.484-2.36 4.712 4.712 0 011.047-3.261 3.7 3.7 0 012.906-1.168 3.622 3.622 0 012.855 1.195 4.7 4.7 0 011.059 3.234zm-6.523 0a4.064 4.064 0 00.656 2.5 2.6 2.6 0 003.672.191 2.459 2.459 0 00.191-.191 4.038 4.038 0 00.66-2.5 3.977 3.977 0 00-.66-2.48 2.32 2.32 0 00-1.949-.848 2.287 2.287 0 00-1.922.836 4.023 4.023 0 00-.648 2.492zm8.687-6.593a.86.86 0 01.219-.653.809.809 0 011.086 0 .845.845 0 01.226.649.86.86 0 01-.226.652.754.754 0 01-.539.215.745.745 0 01-.547-.215.874.874 0 01-.219-.648zm1.406 10.883h-1.3v-8.563h1.3zm8.61 0v-5.54a2.231 2.231 0 00-.477-1.562 1.94 1.94 0 00-1.492-.516 2.464 2.464 0 00-1.969.727 3.664 3.664 0 00-.625 2.4v4.493h-1.3v-8.563h1.055l.211 1.172h.06a2.64 2.64 0 011.117-.981 3.639 3.639 0 011.6-.347 3.249 3.249 0 012.328.746 3.172 3.172 0 01.782 2.387v5.586z" fill="#111"/><ellipse cx="39.449" cy="181.662" rx="14.44" ry="14.76" fill="#ccc"/><path d="M39.449 161.451a20.216 20.216 0 000 40.423 20.216 20.216 0 000-40.423zm0 36.239a16.031 16.031 0 1115.705-16.351v.323a15.872 15.872 0 01-15.705 16.028z" fill="#ccc" fill-rule="evenodd"/><path d="M103.3 111.408h79.8v96.52h-79.8z" fill="none"/><path d="M121.1 104.316a3.2 3.2 0 01-1.184 2.668 5.364 5.364 0 01-3.386.933h-1.344v4.492h-1.328v-11.422h2.961q4.281 0 4.281 3.329zm-5.914 2.461h1.195a4.452 4.452 0 002.555-.571 2.1 2.1 0 00.789-1.828 1.972 1.972 0 00-.742-1.687 3.875 3.875 0 00-2.313-.555h-1.484zm15.499 1.343a4.723 4.723 0 01-1.055 3.27 3.716 3.716 0 01-2.914 1.176 3.865 3.865 0 01-2.039-.539 3.565 3.565 0 01-1.375-1.547 5.392 5.392 0 01-.484-2.36 4.717 4.717 0 011.046-3.261 3.7 3.7 0 012.907-1.168 3.622 3.622 0 012.855 1.195 4.7 4.7 0 011.059 3.234zm-6.524 0a4.057 4.057 0 00.657 2.5 2.6 2.6 0 003.672.191 2.459 2.459 0 00.191-.191 4.038 4.038 0 00.66-2.5 3.977 3.977 0 00-.66-2.48 2.32 2.32 0 00-1.949-.848 2.28 2.28 0 00-1.922.836 4.017 4.017 0 00-.649 2.492zm14.321 1.953a2.144 2.144 0 01-.891 1.844 4.179 4.179 0 01-2.5.649 5.441 5.441 0 01-2.656-.539v-1.2a6.509 6.509 0 001.324.493 5.548 5.548 0 001.363.179 3.089 3.089 0 001.563-.324 1.115 1.115 0 00.393-1.527 1.1 1.1 0 00-.28-.317 6.846 6.846 0 00-1.691-.84 9.062 9.062 0 01-1.7-.777 2.359 2.359 0 01-.75-.754 1.961 1.961 0 01-.246-1.008 1.922 1.922 0 01.852-1.652 3.975 3.975 0 012.336-.605 6.831 6.831 0 012.7.562l-.461 1.055a6.176 6.176 0 00-2.336-.531 2.693 2.693 0 00-1.391.289.894.894 0 00-.468.8.96.96 0 00.176.586 1.7 1.7 0 00.566.461 12.733 12.733 0 001.5.633 5.608 5.608 0 012.059 1.117 1.976 1.976 0 01.538 1.406zm2-8.546a.864.864 0 01.218-.653.809.809 0 011.086 0 .844.844 0 01.227.649.856.856 0 01-.227.652.793.793 0 01-1.086 0 .878.878 0 01-.218-.648zm1.406 10.882h-1.3v-8.562h1.3zm5.512-.909a4.108 4.108 0 00.664-.051 4.385 4.385 0 00.507-.105v.992a2.341 2.341 0 01-.621.168 4.687 4.687 0 01-.738.067q-2.484 0-2.484-2.618v-5.093H143.5v-.625l1.227-.539.547-1.829h.75v1.985h2.484v1.008h-2.484v5.04a1.731 1.731 0 00.367 1.187 1.274 1.274 0 001.008.414zm2.777-9.973a.86.86 0 01.219-.653.809.809 0 011.086 0 .845.845 0 01.226.649.86.86 0 01-.226.652.762.762 0 01-.539.215.749.749 0 01-.547-.215.874.874 0 01-.219-.648zm1.406 10.882h-1.3v-8.562h1.3zm4.625 0l-3.25-8.562h1.391l1.844 5.078a23.686 23.686 0 01.734 2.312h.062a17.755 17.755 0 01.543-1.714q.457-1.3 2.051-5.676h1.391l-3.25 8.562zm9.758.157a3.928 3.928 0 01-3-1.157 4.476 4.476 0 01-1.1-3.211 4.97 4.97 0 011.02-3.289 3.392 3.392 0 012.738-1.218 3.227 3.227 0 012.547 1.058 4.056 4.056 0 01.937 2.793v.82h-5.9a3.4 3.4 0 00.762 2.29 2.637 2.637 0 002.035.781 6.9 6.9 0 002.734-.578v1.156a6.843 6.843 0 01-1.3.426 7.277 7.277 0 01-1.473.129zm-.352-7.789a2.116 2.116 0 00-1.644.671 3.107 3.107 0 00-.723 1.86h4.477a2.853 2.853 0 00-.547-1.879 1.924 1.924 0 00-1.563-.652zm-58.48 26.989a3.936 3.936 0 01-3-1.156 4.476 4.476 0 01-1.1-3.211 4.957 4.957 0 011.02-3.289 3.384 3.384 0 012.738-1.219 3.227 3.227 0 012.547 1.058 4.056 4.056 0 01.937 2.793v.821h-5.9a3.392 3.392 0 00.762 2.289 2.637 2.637 0 002.035.781 6.881 6.881 0 002.734-.578v1.156a6.843 6.843 0 01-1.3.426 7.277 7.277 0 01-1.473.129zm-.352-7.789a2.117 2.117 0 00-1.644.672 3.1 3.1 0 00-.723 1.859h4.477a2.853 2.853 0 00-.547-1.879 1.924 1.924 0 00-1.563-.652zm7.774 3.25l-2.977-4.18h1.477l2.258 3.281 2.25-3.281h1.461l-2.977 4.18 3.133 4.383h-1.469l-2.4-3.469-2.422 3.469h-1.469zm10.305 4.539a3.7 3.7 0 01-1.528-.309 2.875 2.875 0 01-1.16-.949h-.094a11.459 11.459 0 01.094 1.422v3.523h-1.3v-12.406h1.055l.18 1.172h.062a3.013 3.013 0 011.164-1.016 3.541 3.541 0 011.524-.312 3.16 3.16 0 012.628 1.164 6.2 6.2 0 01-.015 6.543 3.174 3.174 0 01-2.61 1.168zm-.188-7.774a2.3 2.3 0 00-1.9.727 3.741 3.741 0 00-.6 2.312v.289a4.268 4.268 0 00.6 2.582 2.285 2.285 0 001.929.778 2.006 2.006 0 001.739-.9 4.258 4.258 0 00.629-2.476 4.1 4.1 0 00-.629-2.457 2.066 2.066 0 00-1.768-.855zm9.627 7.774a3.936 3.936 0 01-3-1.156 4.478 4.478 0 01-1.1-3.211 4.957 4.957 0 011.02-3.289 3.384 3.384 0 012.738-1.219 3.227 3.227 0 012.547 1.058 4.057 4.057 0 01.938 2.793v.821h-5.9a3.392 3.392 0 00.762 2.289 2.637 2.637 0 002.035.781 6.881 6.881 0 002.734-.578v1.156a6.843 6.843 0 01-1.3.426 7.293 7.293 0 01-1.474.129zm-.351-7.789a2.116 2.116 0 00-1.645.672 3.1 3.1 0 00-.723 1.859h4.477a2.853 2.853 0 00-.547-1.879 1.923 1.923 0 00-1.564-.652zm9.615-1.086a5.02 5.02 0 011.023.094l-.18 1.2a4.411 4.411 0 00-.937-.118 2.286 2.286 0 00-1.777.844 3.072 3.072 0 00-.739 2.1v4.589h-1.3v-8.563h1.071l.148 1.586h.063a3.74 3.74 0 011.148-1.289 2.584 2.584 0 011.48-.443zm2.515-2.164a.868.868 0 01.219-.653.809.809 0 011.086 0 1.046 1.046 0 010 1.3.793.793 0 01-1.086 0 .882.882 0 01-.219-.647zm1.407 10.883h-1.3v-8.563h1.3zm6.367.156a3.936 3.936 0 01-3-1.156 4.476 4.476 0 01-1.1-3.211 4.957 4.957 0 011.02-3.289 3.384 3.384 0 012.738-1.219 3.227 3.227 0 012.547 1.058 4.056 4.056 0 01.937 2.793v.821h-5.9a3.4 3.4 0 00.761 2.289 2.638 2.638 0 002.036.781 6.881 6.881 0 002.734-.578v1.156a6.843 6.843 0 01-1.3.426 7.277 7.277 0 01-1.473.129zm-.352-7.789a2.117 2.117 0 00-1.644.672 3.1 3.1 0 00-.723 1.859h4.477a2.853 2.853 0 00-.547-1.879 1.928 1.928 0 00-1.564-.652zm11.571 7.633v-5.54a2.236 2.236 0 00-.477-1.562 1.94 1.94 0 00-1.492-.516 2.464 2.464 0 00-1.969.727 3.664 3.664 0 00-.625 2.4v4.493h-1.3v-8.563h1.055l.211 1.172h.062a2.652 2.652 0 011.117-.981 3.639 3.639 0 011.6-.347 3.256 3.256 0 012.328.746 3.175 3.175 0 01.781 2.387v5.586zm7.382.156a3.654 3.654 0 01-2.879-1.145 4.71 4.71 0 01-1.019-3.238 4.854 4.854 0 011.035-3.32 3.722 3.722 0 012.949-1.172 5.831 5.831 0 011.235.133 4.069 4.069 0 01.968.312l-.4 1.1a6.116 6.116 0 00-.938-.286 4.2 4.2 0 00-.9-.113q-2.608 0-2.609 3.328a3.966 3.966 0 00.636 2.422 2.217 2.217 0 001.887.844 5.751 5.751 0 002.195-.461v1.148a4.684 4.684 0 01-2.16.448zm7.813 0a3.936 3.936 0 01-3-1.156 4.476 4.476 0 01-1.1-3.211 4.957 4.957 0 011.02-3.289 3.384 3.384 0 012.738-1.219 3.227 3.227 0 012.547 1.058 4.056 4.056 0 01.937 2.793v.821h-5.9a3.392 3.392 0 00.762 2.289 2.637 2.637 0 002.035.781 6.881 6.881 0 002.734-.578v1.156a6.843 6.843 0 01-1.3.426 7.277 7.277 0 01-1.473.129zm-.352-7.789a2.117 2.117 0 00-1.644.672 3.1 3.1 0 00-.723 1.859h4.477a2.853 2.853 0 00-.547-1.879 1.924 1.924 0 00-1.563-.652z" fill="#111"/><path d="M160.352 175.8c0 .021-.006.041-.008.062a2.488 2.488 0 01-.013.356c-.013.09-.041.173-.062.26a17.6 17.6 0 01-6.685 11.618 17.013 17.013 0 01-23.863-3.075q-.142-.184-.279-.372a17.686 17.686 0 01-3.3-8.153 2.468 2.468 0 01-.093-.755l-.006-.048h.008a2.407 2.407 0 01.925-1.8 2.328 2.328 0 013.265.426l.035.047a2.429 2.429 0 01.472 1.347h.012a12.881 12.881 0 002.425 6.058 12.382 12.382 0 0017.3 2.715c.092-.068.184-.136.274-.206a12.8 12.8 0 004.873-8.488h.017a2.279 2.279 0 012.237-2.32 2.349 2.349 0 01.435.034 2.385 2.385 0 012.025 2.3z" fill="#ccc" fill-rule="evenodd"/><path d="M206.593 111.209h79.8v96.52h-79.8z" fill="none"/><path d="M246.493 161.458c-10.76 0-19.483 8.973-19.483 20.042s8.723 20.041 19.483 20.041 19.482-8.973 19.482-20.041a20.34 20.34 0 00-5.706-14.172 19.21 19.21 0 00-13.776-5.87zm8.714 31.215a13.624 13.624 0 01-17.165.2 14.587 14.587 0 01-4.324-17.088.93.93 0 01.745-.566.911.911 0 01.849.381.971.971 0 01.1.946 12.649 12.649 0 003.75 14.815 11.811 11.811 0 0014.88-.177.9.9 0 01.93-.171.947.947 0 01.592.757.965.965 0 01-.363.9z" fill="#ccc"/><path d="M241.446 106.682a6.284 6.284 0 01-1.387 4.312 4.875 4.875 0 01-3.856 1.571 4.936 4.936 0 01-3.894-1.543 6.34 6.34 0 01-1.371-4.356 6.257 6.257 0 011.375-4.324 4.972 4.972 0 013.906-1.535 4.867 4.867 0 013.844 1.562 6.285 6.285 0 011.383 4.313zm-9.1 0a5.419 5.419 0 00.988 3.519 4.036 4.036 0 005.708.031l.031-.031a6.853 6.853 0 000-7.019 3.458 3.458 0 00-2.855-1.192 3.526 3.526 0 00-2.887 1.2 5.361 5.361 0 00-.987 3.492zm13.514 1.344l-2.977-4.18h1.477l2.257 3.281 2.25-3.281h1.461l-2.976 4.18 3.133 4.382h-1.469l-2.4-3.468-2.421 3.468h-1.469zm4.961-4.18h1.39l1.875 4.883a18.544 18.544 0 01.766 2.414h.062q.1-.4.426-1.364t2.121-5.933h1.391l-3.68 9.75a4.853 4.853 0 01-1.277 2.051 2.72 2.72 0 01-1.793.6 5.2 5.2 0 01-1.172-.133v-1.034a4.494 4.494 0 00.961.094 1.981 1.981 0 001.906-1.5l.477-1.219zm-11.395 27.763v-5.571a2.315 2.315 0 00-.437-1.535 1.7 1.7 0 00-1.36-.512 2.194 2.194 0 00-1.789.7 3.3 3.3 0 00-.578 2.14v4.782h-1.3v-5.571a2.315 2.315 0 00-.437-1.535 1.7 1.7 0 00-1.368-.512 2.119 2.119 0 00-1.785.731 3.947 3.947 0 00-.566 2.394v4.493h-1.3v-8.563h1.055l.211 1.172h.062a2.55 2.55 0 011.035-.977 3.165 3.165 0 011.5-.351 2.543 2.543 0 012.631 1.449h.063a2.735 2.735 0 011.109-1.063 3.456 3.456 0 011.656-.39 2.9 2.9 0 012.176.746 3.332 3.332 0 01.723 2.387v5.586zm9.234 0l-.257-1.219h-.063a3.61 3.61 0 01-1.277 1.09 3.9 3.9 0 01-1.59.285 2.857 2.857 0 01-2-.656 2.4 2.4 0 01-.723-1.868q0-2.594 4.149-2.718l1.453-.047v-.532a2.173 2.173 0 00-.434-1.488 1.784 1.784 0 00-1.387-.48 5.63 5.63 0 00-2.421.656l-.4-.992a6.244 6.244 0 012.9-.735 3.259 3.259 0 012.269.68 2.838 2.838 0 01.738 2.18v5.844zm-2.929-.915a2.634 2.634 0 001.9-.664 2.455 2.455 0 00.691-1.859v-.771l-1.3.054a4.707 4.707 0 00-2.231.481 1.447 1.447 0 00-.683 1.324 1.336 1.336 0 00.425 1.07 1.76 1.76 0 001.2.365zm10.469-7.804a5.024 5.024 0 011.024.094l-.18 1.2a4.411 4.411 0 00-.937-.118 2.287 2.287 0 00-1.778.844 3.071 3.071 0 00-.738 2.1v4.59h-1.3v-8.563h1.071l.148 1.586h.062a3.762 3.762 0 011.149-1.289 2.583 2.583 0 011.479-.448zm3.906 4.336a14.939 14.939 0 011.023-1.25l2.766-2.93h1.539l-3.469 3.648 3.711 4.915h-1.57l-3.024-4.047-.976.843v3.2h-1.282v-12.153h1.282v6.448q0 .429-.063 1.328z" fill="#111"/><path d="M193.526 187.613a.772.772 0 01-.608-1.245l4.359-5.629-4.364-5.791a.772.772 0 011.2-.973l.033.044 4.719 6.262a.773.773 0 01-.006.937l-4.719 6.095a.771.771 0 01-.613.3zm-100.702 0a.772.772 0 01-.608-1.245l4.359-5.629-4.364-5.791a.772.772 0 011.2-.973l.033.044 4.719 6.262a.771.771 0 01-.006.937l-4.719 6.095a.773.773 0 01-.614.3z" fill="#111" fill-rule="evenodd" opacity=".25" style="isolation:isolate"/><path d="M143.2 5.419a33.024 33.024 0 1023.35 9.672 33.024 33.024 0 00-23.35-9.672zm14.771 51.432a23.61 23.61 0 01-36.431-27.815 1.571 1.571 0 112.88 1.257A20.471 20.471 0 00156 54.413a1.569 1.569 0 012.076 2.343.986.986 0 01-.12.093z" fill="#231f20"/></svg>