<svg width="92" height="92" viewBox="0 0 92 92" fill="none" xmlns="http://www.w3.org/2000/svg"><path fill="#fff" d="M0 0h91.3v91.3H0z"/><path d="M52.432 85.213V60.46l-6.621-11.35-6.78 11.509v24.595m.633-24.124h12.297" stroke="#222" stroke-width="2.5" stroke-miterlimit="10" stroke-linecap="round" stroke-linejoin="round"/><path d="M60 78.275h6.15c2.68 0 4.887-2.207 4.887-4.887V19.942c0-2.68-2.207-4.888-4.888-4.888H25.473c-2.68 0-4.887 2.207-4.887 4.888v53.604c0 2.68 2.207 4.887 4.887 4.887h5.991" stroke="#222" stroke-width="2.5" stroke-miterlimit="10" stroke-linecap="round" stroke-linejoin="round"/><path d="M48.178 21.992H30.047v18.13h18.13v-18.13zm4.885 4.256c5.045 0 9.144 4.1 9.144 9.144 0 5.045-4.1 9.144-9.145 9.144" stroke="#222" stroke-width="2.5" stroke-miterlimit="10" stroke-linecap="round" stroke-linejoin="round"/></svg>