<svg width="704" height="249" viewBox="0 0 704 249" fill="none" xmlns="http://www.w3.org/2000/svg"><g style="mix-blend-mode:multiply" clip-path="url(#clip0)"><path d="M100.984 240.912c11.561 0 20.932-9.58 20.932-21.396 0-11.817-9.371-21.396-20.932-21.396-11.561 0-20.933 9.579-20.933 21.396 0 11.816 9.372 21.396 20.933 21.396z" fill="#AFAFAF"/><path fill-rule="evenodd" clip-rule="evenodd" d="M100.984 190.217c-15.858 0-28.715 13.117-28.715 29.299 0 16.181 12.857 29.298 28.715 29.298s28.714-13.117 28.714-29.298c0-16.182-12.855-29.299-28.714-29.299zm0 52.533a23.235 23.235 0 01-21.801-14.018 23.24 23.24 0 1144.572-9.216 23.007 23.007 0 01-22.771 23.234z" fill="#AFAFAF"/><path d="M73.968 146.412a2.735 2.735 0 01-1.068 2.297 4.632 4.632 0 01-2.9.828 7.267 7.267 0 01-3.05-.512v-1.251a8.293 8.293 0 003.096.627 3.226 3.226 0 001.953-.494 1.602 1.602 0 00.657-1.368 1.769 1.769 0 00-.233-.951 2.16 2.16 0 00-.778-.682 10.757 10.757 0 00-1.66-.71 5.292 5.292 0 01-2.223-1.319 2.91 2.91 0 01-.668-1.991 2.481 2.481 0 01.97-2.053 4.027 4.027 0 012.562-.763 7.546 7.546 0 013.059.61l-.404 1.13a6.92 6.92 0 00-2.685-.58 2.588 2.588 0 00-1.61.444 1.46 1.46 0 00-.58 1.226c-.013.33.06.658.213.951.181.282.43.516.722.679a8.957 8.957 0 001.553.683 6.136 6.136 0 012.414 1.342c.451.511.688 1.176.66 1.857zm7.81 2.968v-5.409a2.181 2.181 0 00-.466-1.526 1.903 1.903 0 00-1.457-.504 2.39 2.39 0 00-1.93.718 3.63 3.63 0 00-.607 2.35v4.371h-1.263v-11.871h1.266v3.594a7.89 7.89 0 01-.06 1.075h.076a2.57 2.57 0 011.064-.949 3.45 3.45 0 011.575-.348 3.225 3.225 0 012.298.729 3.071 3.071 0 01.766 2.314v5.456h-1.263zm3.756-10.627a.842.842 0 01.215-.637.787.787 0 011.06 0 .824.824 0 01.22.633.838.838 0 01-.22.637.738.738 0 01-.527.209.727.727 0 01-.533-.209.857.857 0 01-.215-.633zm1.379 10.627h-1.272v-8.364h1.267l.005 8.364zm8.406 0v-5.409a2.18 2.18 0 00-.465-1.526 1.905 1.905 0 00-1.458-.504 2.395 2.395 0 00-1.923.71 3.586 3.586 0 00-.61 2.341v4.388h-1.265v-8.364h1.03l.205 1.144h.061a2.586 2.586 0 011.091-.957 3.53 3.53 0 011.563-.339 3.176 3.176 0 012.274.729 3.096 3.096 0 01.763 2.329v5.456l-1.266.002zm2.541-8.362h1.357l1.831 4.768c.303.768.553 1.555.748 2.357h.06c.066-.259.205-.702.416-1.33.21-.628.901-2.56 2.071-5.795h1.358l-3.592 9.521a4.747 4.747 0 01-1.248 2.002 2.652 2.652 0 01-1.75.592c-.386 0-.77-.044-1.145-.13v-1.011c.309.064.623.095.938.092a1.936 1.936 0 001.862-1.464l.465-1.19-3.372-8.412zm16.597 8.514a3.57 3.57 0 01-2.811-1.118 4.592 4.592 0 01-.996-3.161 4.741 4.741 0 011.011-3.243 3.646 3.646 0 012.88-1.144c.405 0 .81.043 1.206.129.327.063.645.165.946.305l-.39 1.076a5.962 5.962 0 00-.919-.275 4.05 4.05 0 00-.877-.111c-1.699 0-2.548 1.083-2.548 3.249a3.875 3.875 0 00.621 2.366 2.16 2.16 0 001.838.827 5.668 5.668 0 002.145-.45v1.121a4.581 4.581 0 01-2.106.429zm11.311-4.341a4.615 4.615 0 01-1.03 3.193 3.617 3.617 0 01-1.297.89 3.613 3.613 0 01-1.552.258 3.764 3.764 0 01-1.99-.526 3.485 3.485 0 01-1.343-1.511 5.242 5.242 0 01-.473-2.304 4.598 4.598 0 011.023-3.185 3.615 3.615 0 012.838-1.14 3.537 3.537 0 012.787 1.167 4.59 4.59 0 011.037 3.158zm-6.37 0c-.056.863.169 1.72.643 2.442a2.54 2.54 0 001.887.837 2.54 2.54 0 001.886-.837 3.938 3.938 0 00.643-2.444 3.879 3.879 0 00-.643-2.422 2.257 2.257 0 00-1.903-.827 2.23 2.23 0 00-1.877.817 3.927 3.927 0 00-.636 2.434zm8.484-6.438a.849.849 0 01.213-.637.787.787 0 011.06 0 .825.825 0 01.222.633.833.833 0 01-.222.637.773.773 0 01-1.06 0 .864.864 0 01-.213-.633zm1.373 10.627h-1.266v-8.364h1.266v8.364zm8.411-.001v-5.408a2.184 2.184 0 00-.465-1.526 1.89 1.89 0 00-1.457-.504 2.397 2.397 0 00-1.922.71 3.577 3.577 0 00-.61 2.341v4.387h-1.267v-8.363h1.03l.205 1.144h.062a2.58 2.58 0 011.091-.957 3.528 3.528 0 011.562-.339 3.174 3.174 0 012.274.729 3.091 3.091 0 01.763 2.329v5.456l-1.266.001zm139.369-8.056a3.133 3.133 0 01-1.156 2.606 5.24 5.24 0 01-3.309.911h-1.312v4.387h-1.297v-11.154h2.892c2.787 0 4.181 1.084 4.182 3.25zm-5.776 2.404h1.168a4.338 4.338 0 002.494-.557 2.048 2.048 0 00.771-1.785 1.924 1.924 0 00-.725-1.648 3.778 3.778 0 00-2.258-.541h-1.45v4.531zm15.136 1.312a4.617 4.617 0 01-1.029 3.193 3.626 3.626 0 01-2.849 1.147 3.773 3.773 0 01-1.991-.525 3.482 3.482 0 01-1.342-1.511 5.259 5.259 0 01-.473-2.304 4.606 4.606 0 011.028-3.182 3.615 3.615 0 012.838-1.14 3.523 3.523 0 012.787 1.168 4.588 4.588 0 011.031 3.154zm-6.369 0a3.97 3.97 0 00.644 2.442 2.544 2.544 0 003.768 0 3.956 3.956 0 00.643-2.445 3.885 3.885 0 00-.643-2.422 2.271 2.271 0 00-1.904-.827 2.226 2.226 0 00-1.876.816 3.931 3.931 0 00-.632 2.436zm13.981 1.907a2.096 2.096 0 01-.87 1.8 4.083 4.083 0 01-2.441.633 5.304 5.304 0 01-2.593-.525v-1.176c.412.208.846.369 1.293.481.434.114.882.173 1.331.176a3.018 3.018 0 001.525-.318 1.09 1.09 0 00.112-1.8 6.723 6.723 0 00-1.655-.82 8.928 8.928 0 01-1.654-.759 2.245 2.245 0 01-.735-.735c-.167-.3-.251-.64-.241-.983a1.871 1.871 0 01.827-1.614 3.875 3.875 0 012.282-.592c.908.002 1.806.19 2.64.551l-.451 1.031a6.044 6.044 0 00-2.281-.519 2.637 2.637 0 00-1.357.281.87.87 0 00-.46.779.95.95 0 00.171.572c.15.188.338.341.552.45.474.237.964.444 1.465.618a5.48 5.48 0 012.01 1.091 1.922 1.922 0 01.53 1.378zm1.953-8.346a.834.834 0 01.214-.637.795.795 0 011.061 0 .826.826 0 01.22.633.845.845 0 01-.22.637.739.739 0 01-.527.21.73.73 0 01-.534-.21.864.864 0 01-.214-.633zm1.379 10.627h-1.267v-8.363h1.267v8.363zm5.383-.892a4.392 4.392 0 001.144-.153v.969a2.322 2.322 0 01-.607.164c-.238.04-.479.062-.72.064-1.618 0-2.426-.851-2.426-2.554v-4.974h-1.195v-.611l1.195-.527.534-1.785h.735v1.938h2.426v.985h-2.426v4.919c-.028.418.1.831.359 1.16a1.248 1.248 0 00.981.405zm2.707-9.735a.845.845 0 01.214-.637.791.791 0 011.06 0 .818.818 0 01.221.633.826.826 0 01-.221.637.745.745 0 01-.526.21.726.726 0 01-.534-.21.863.863 0 01-.172-.294.865.865 0 01-.042-.339zm1.373 10.627h-1.266v-8.363h1.266v8.363zm4.516 0l-3.173-8.363h1.358l1.8 4.962c.406 1.16.645 1.912.717 2.258h.061a16.94 16.94 0 01.531-1.674c.297-.846.964-2.694 2.002-5.543h1.358l-3.173 8.364-1.481-.004zm9.525.152a3.828 3.828 0 01-2.925-1.129 4.366 4.366 0 01-1.072-3.135 4.837 4.837 0 01.996-3.216 3.288 3.288 0 011.198-.907 3.296 3.296 0 011.475-.284 3.154 3.154 0 012.487 1.034c.638.762.966 1.736.919 2.728v.8h-5.759a3.322 3.322 0 00.743 2.236 2.575 2.575 0 001.987.763 6.746 6.746 0 002.671-.564v1.137a6.76 6.76 0 01-1.27.415c-.478.09-.964.131-1.45.122zm-.343-7.605a2.064 2.064 0 00-1.606.656 3.034 3.034 0 00-.706 1.816h4.374a2.79 2.79 0 00-.534-1.838 1.888 1.888 0 00-1.528-.634zm13.17 7.605a3.831 3.831 0 01-2.927-1.129 4.374 4.374 0 01-1.071-3.135 4.837 4.837 0 01.995-3.216 3.303 3.303 0 012.674-1.191 3.163 3.163 0 012.486 1.034c.638.762.966 1.736.919 2.728v.8h-5.758a3.32 3.32 0 00.742 2.236c.258.262.569.465.912.596.343.132.71.189 1.076.167a6.743 6.743 0 002.671-.564v1.137a6.77 6.77 0 01-1.271.415c-.477.09-.963.131-1.448.122zm-.344-7.605a2.079 2.079 0 00-.875.151 2.082 2.082 0 00-.731.505 3.02 3.02 0 00-.706 1.816h4.371a2.78 2.78 0 00-.534-1.838 1.88 1.88 0 00-1.525-.634zm7.593 3.174l-2.907-4.082h1.443l2.205 3.204 2.199-3.204h1.425l-2.907 4.082 3.06 4.279h-1.434l-2.343-3.388-2.364 3.388h-1.437l3.06-4.279zm10.062 4.431a3.614 3.614 0 01-1.492-.301 2.808 2.808 0 01-1.133-.926h-.092c.06.46.09.924.092 1.388v3.437h-1.266v-12.112h1.03l.176 1.145h.06a2.958 2.958 0 011.137-.992c.467-.21.976-.314 1.488-.305a3.08 3.08 0 012.567 1.138 6.051 6.051 0 01-.016 6.388 3.087 3.087 0 01-2.551 1.14zm-.184-7.59a2.24 2.24 0 00-1.853.71 3.648 3.648 0 00-.588 2.258v.282c-.076.881.13 1.764.588 2.521a2.238 2.238 0 001.884.76 1.96 1.96 0 001.697-.878 4.157 4.157 0 00.614-2.418 4.007 4.007 0 00-.614-2.4 2.016 2.016 0 00-1.728-.835zm9.396 7.59a3.825 3.825 0 01-2.926-1.129 4.37 4.37 0 01-1.072-3.135 4.847 4.847 0 01.996-3.217 3.303 3.303 0 012.674-1.19 3.151 3.151 0 012.487 1.034c.637.762.965 1.736.919 2.728v.8h-5.76c-.034.812.23 1.607.744 2.236a2.566 2.566 0 001.987.763 6.742 6.742 0 002.67-.564v1.137c-.408.18-.834.319-1.271.415a7.1 7.1 0 01-1.448.122zm-.344-7.605a2.065 2.065 0 00-1.605.656 3.013 3.013 0 00-.706 1.816h4.371a2.78 2.78 0 00-.534-1.838 1.876 1.876 0 00-1.526-.634zm9.396-1.061c.335-.004.67.027.999.092l-.176 1.174a4.304 4.304 0 00-.919-.114 2.24 2.24 0 00-1.736.828 3.003 3.003 0 00-.721 2.051v4.486h-1.262v-8.364h1.045l.145 1.55h.061a3.676 3.676 0 011.122-1.259 2.516 2.516 0 011.442-.444zm2.457-2.113a.84.84 0 01.214-.637.79.79 0 011.059 0 .825.825 0 01.222.633.843.843 0 01-.222.637.772.772 0 01-1.059 0 .859.859 0 01-.214-.633zm1.373 10.627h-1.266v-8.363h1.266v8.363zm6.215.152a3.818 3.818 0 01-1.583-.252 3.81 3.81 0 01-1.342-.877 4.362 4.362 0 01-1.072-3.135 4.837 4.837 0 01.995-3.216 3.304 3.304 0 012.674-1.191 3.163 3.163 0 012.487 1.034c.637.762.965 1.736.919 2.728v.8h-5.764a3.317 3.317 0 00.744 2.236 2.575 2.575 0 001.987.763 6.75 6.75 0 002.671-.564v1.137c-.409.18-.834.319-1.271.415a7.07 7.07 0 01-1.445.122zm-.344-7.605a2.082 2.082 0 00-1.605.656 3.02 3.02 0 00-.705 1.816h4.371a2.786 2.786 0 00-.535-1.838 1.876 1.876 0 00-1.526-.634zm11.298 7.453v-5.409a2.17 2.17 0 00-.466-1.525 1.877 1.877 0 00-1.456-.504 2.397 2.397 0 00-1.922.71 3.577 3.577 0 00-.61 2.341v4.387h-1.267v-8.363h1.031l.205 1.144h.061a2.598 2.598 0 011.09-.958 3.56 3.56 0 011.563-.339c.823-.062 1.639.2 2.273.729a3.095 3.095 0 01.763 2.331v5.454l-1.265.002zm7.213.152a3.56 3.56 0 01-2.811-1.117 4.594 4.594 0 01-.996-3.162 4.743 4.743 0 011.011-3.243 3.637 3.637 0 012.88-1.144c.405 0 .809.044 1.205.13.328.062.646.165.947.306l-.386 1.076a5.999 5.999 0 00-.919-.276 4.122 4.122 0 00-.878-.11c-1.698 0-2.547 1.083-2.547 3.249a3.87 3.87 0 00.621 2.365 2.16 2.16 0 001.838.827 5.625 5.625 0 002.144-.45v1.121a4.555 4.555 0 01-2.109.428zm7.627 0a3.831 3.831 0 01-2.927-1.129 4.374 4.374 0 01-1.071-3.135 4.837 4.837 0 01.995-3.216 3.304 3.304 0 012.674-1.191 3.163 3.163 0 012.487 1.034c.637.762.965 1.736.919 2.728v.8h-5.759a3.32 3.32 0 00.742 2.236 2.579 2.579 0 001.988.763 6.743 6.743 0 002.671-.564v1.137a6.77 6.77 0 01-1.271.415c-.477.09-.963.131-1.448.122zm-.344-7.605a2.079 2.079 0 00-.875.151 2.082 2.082 0 00-.731.505 3.018 3.018 0 00-.705 1.816h4.37a2.784 2.784 0 00-.533-1.838 1.879 1.879 0 00-1.526-.634z" fill="#111"/><path fill-rule="evenodd" clip-rule="evenodd" d="M362.769 212.82c0 .029-.007.057-.011.085.006.164 0 .328-.018.491-.022.12-.05.24-.085.357a24.235 24.235 0 01-9.205 16 23.421 23.421 0 01-17.625 4.646 23.423 23.423 0 01-15.621-9.393 24.348 24.348 0 01-4.548-11.228 3.38 3.38 0 01-.129-1.039c0-.022-.006-.044-.007-.067h.011c.019-.481.143-.952.362-1.381a3.21 3.21 0 015.461-.45c.398.539.625 1.186.65 1.855h.018a17.727 17.727 0 003.339 8.343 17.035 17.035 0 0011.37 6.837 17.052 17.052 0 0012.829-3.382 17.647 17.647 0 006.709-11.69h.022c0-.108 0-.214.012-.324a3.237 3.237 0 013.39-2.853 3.245 3.245 0 012.166.992c.569.594.892 1.382.902 2.205l.008-.004z" fill="#AFAFAF"/><path d="M587.746 190.001c-15.598 0-28.242 13.007-28.242 29.052 0 16.046 12.644 29.052 28.242 29.052s28.242-13.007 28.242-29.052a29.48 29.48 0 00-8.272-20.543 27.846 27.846 0 00-19.97-8.509zm12.632 45.248a19.741 19.741 0 01-12.388 4.561 19.741 19.741 0 01-12.493-4.262 21.15 21.15 0 01-7.3-11.332 21.154 21.154 0 011.031-13.44 1.351 1.351 0 011.08-.82 1.321 1.321 0 011.232.551 1.415 1.415 0 01.149 1.372 18.335 18.335 0 005.436 21.475 17.127 17.127 0 0021.57-.256 1.311 1.311 0 011.348-.249 1.37 1.37 0 01.859 1.103 1.401 1.401 0 01-.527 1.3l.003-.003z" fill="#AFAFAF"/><path opacity=".25" fill-rule="evenodd" clip-rule="evenodd" d="M467.925 232.09a1.129 1.129 0 01-1.004-.628 1.124 1.124 0 01.122-1.178l6.324-8.169-6.333-8.404a1.138 1.138 0 01-.236-.84 1.124 1.124 0 01.838-.946 1.113 1.113 0 011.187.438l6.848 9.087a1.123 1.123 0 01-.009 1.359l-6.848 8.845a1.129 1.129 0 01-.889.436zm-239.41 0a1.124 1.124 0 01-1.112-1.235c.022-.208.101-.406.23-.571l6.324-8.169-6.333-8.404a1.138 1.138 0 01-.236-.84 1.106 1.106 0 01.437-.754 1.11 1.11 0 01.846-.213 1.13 1.13 0 01.742.459l6.847 9.087a1.117 1.117 0 01-.008 1.359l-6.849 8.845a1.116 1.116 0 01-.888.436z" fill="#111"/><path fill-rule="evenodd" clip-rule="evenodd" d="M299.012 40.693c0-22.396 18.155-40.55 40.551-40.55a40.549 40.549 0 0140.55 40.55c0 22.396-18.155 40.55-40.55 40.55-22.396 0-40.551-18.154-40.551-40.55zm22.955 23.023c10.589 8.088 25.328 7.916 35.726-.416h-.004a1.928 1.928 0 00-.476-3.35 1.927 1.927 0 00-1.936.348 25.136 25.136 0 01-38.776-29.617 1.929 1.929 0 00-3.535-1.541c-5.302 12.224-1.588 26.488 9.001 34.576z" fill="#231F20"/><path d="M573.928 152.579l-3.561-9.305h-.057c.067.737.1 1.613.1 2.628v6.677h-1.127v-10.497h1.838l3.324 8.659h.058l3.353-8.659h1.824v10.497h-1.221v-6.764c0-.775.034-1.618.101-2.527h-.058l-3.59 9.291h-.984zm13.298 0l-.237-1.12h-.058c-.392.493-.785.828-1.177 1.005-.388.172-.874.258-1.458.258-.78 0-1.393-.201-1.838-.603-.44-.402-.66-.974-.66-1.716 0-1.589 1.271-2.422 3.812-2.498l1.336-.043v-.489c0-.617-.134-1.072-.402-1.364-.264-.297-.687-.445-1.271-.445-.656 0-1.398.201-2.226.603l-.366-.912c.388-.21.811-.375 1.271-.495.464-.12.928-.18 1.393-.18.938 0 1.632.209 2.082.625.454.416.682 1.084.682 2.003v5.371h-.883zm-2.693-.84c.742 0 1.324-.204 1.745-.61.426-.407.639-.977.639-1.709v-.711l-1.192.05c-.948.034-1.632.182-2.053.445-.417.259-.625.663-.625 1.214 0 .43.129.758.388.983.263.225.629.338 1.098.338zm9.629-7.173c.349 0 .663.029.94.086l-.165 1.106a4.056 4.056 0 00-.862-.108c-.636 0-1.182.259-1.637.776-.45.517-.675 1.16-.675 1.931v4.222h-1.191v-7.869h.983l.137 1.457h.057c.292-.512.644-.907 1.056-1.185a2.379 2.379 0 011.357-.416zm3.59 3.985c.205-.292.519-.675.94-1.149l2.542-2.692h1.414l-3.188 3.353 3.411 4.516h-1.443l-2.779-3.719-.897.775v2.944h-1.178v-11.172h1.178v5.923c0 .264-.02.67-.058 1.221h.058z" fill="#000"/><path fill="#FEF200" d="M-5.535 208.891H704v23.419H-5.535z"/></g><defs><clipPath id="clip0"><path fill="#fff" d="M0 0h704v249H0z"/></clipPath></defs></svg>