<svg viewBox="0 0 664 283" xmlns="http://www.w3.org/2000/svg"><path d="M-.196 155.868h184.191V283H-.196z" fill="none"/><ellipse cx="91.899" cy="240.92" fill="#ccc" rx="19" ry="19.421"/><path d="M91.9 214.325c-14.394 0-26.064 11.907-26.064 26.6s11.67 26.594 26.064 26.594 26.064-11.907 26.064-26.594-11.67-26.6-26.064-26.6zm0 47.684a21.094 21.094 0 1120.669-21.089A20.882 20.882 0 0191.9 262.009z" fill="#ccc" fill-rule="evenodd"/><path d="M240.173 155.868h184.191V283H240.173z" fill="none"/><path d="M353.712 234.842c0 .026-.007.051-.01.077a2.893 2.893 0 01-.016.445 3.138 3.138 0 01-.077.325 22 22 0 01-8.356 14.523 21.265 21.265 0 01-30.177-4.309 22.113 22.113 0 01-4.128-10.192 3.082 3.082 0 01-.117-.943l-.007-.06h.01a3.012 3.012 0 011.156-2.256 2.912 2.912 0 014.131.59 3.034 3.034 0 01.589 1.684h.016a16.1 16.1 0 003.031 7.573 15.477 15.477 0 0021.965 3.136 16.013 16.013 0 006.091-10.611h.021c0-.1 0-.2.01-.294a2.942 2.942 0 015.862.312z" fill="#ccc" fill-rule="evenodd"/><path d="M480.005 155.868h184.191V283H480.005z" fill="none"/><path d="M546.526 170.977a6.285 6.285 0 01-1.387 4.312 4.873 4.873 0 01-3.855 1.571 4.94 4.94 0 01-3.895-1.543 6.342 6.342 0 01-1.371-4.356 6.258 6.258 0 011.375-4.324 4.971 4.971 0 013.907-1.537 4.862 4.862 0 013.843 1.562 6.283 6.283 0 011.383 4.315zm-9.1 0a5.419 5.419 0 00.988 3.519 4.037 4.037 0 005.738 0 6.852 6.852 0 000-7.019 3.458 3.458 0 00-2.855-1.192 3.527 3.527 0 00-2.887 1.2 5.366 5.366 0 00-.985 3.492zm13.514 1.343l-2.976-4.179h1.476l2.258 3.281 2.25-3.281h1.461l-2.977 4.179 3.133 4.383H554.1l-2.4-3.468-2.422 3.468h-1.469zm4.96-4.179h1.391l1.875 4.883a18.425 18.425 0 01.765 2.414H560c.067-.266.21-.72.426-1.364s.923-2.621 2.121-5.933h1.39l-3.679 9.75a4.849 4.849 0 01-1.278 2.051 2.72 2.72 0 01-1.793.6 5.186 5.186 0 01-1.171-.133v-1.039a4.48 4.48 0 00.961.094 1.981 1.981 0 001.906-1.5l.476-1.219zm24.493 8.559v-5.57a2.308 2.308 0 00-.437-1.535 1.693 1.693 0 00-1.359-.512 2.2 2.2 0 00-1.79.695 3.308 3.308 0 00-.578 2.141v4.781h-1.3v-5.57a2.308 2.308 0 00-.437-1.535 1.7 1.7 0 00-1.367-.512 2.115 2.115 0 00-1.785.731 3.949 3.949 0 00-.567 2.394v4.492h-1.3v-8.562h1.055l.211 1.172h.062a2.551 2.551 0 011.036-.977 3.166 3.166 0 011.5-.351 2.543 2.543 0 012.625 1.453h.062a2.725 2.725 0 011.11-1.063 3.433 3.433 0 011.656-.39 2.9 2.9 0 012.176.746 3.34 3.34 0 01.722 2.386v5.586zm9.235 0l-.258-1.218h-.063a3.589 3.589 0 01-1.277 1.089 3.878 3.878 0 01-1.59.286 2.86 2.86 0 01-2-.657 2.394 2.394 0 01-.722-1.867q0-2.594 4.148-2.719l1.453-.047v-.531a2.164 2.164 0 00-.434-1.488 1.782 1.782 0 00-1.386-.481 5.644 5.644 0 00-2.422.657l-.4-.992a6.214 6.214 0 012.9-.735 3.262 3.262 0 012.269.68 2.835 2.835 0 01.739 2.18v5.843zm-2.93-.914a2.629 2.629 0 001.9-.664 2.455 2.455 0 00.692-1.859v-.774l-1.3.055a4.718 4.718 0 00-2.231.48 1.45 1.45 0 00-.683 1.325 1.333 1.333 0 00.426 1.07 1.764 1.764 0 001.198.37zm10.469-7.801a5.1 5.1 0 011.023.093l-.179 1.2a4.434 4.434 0 00-.938-.117 2.281 2.281 0 00-1.777.844 3.077 3.077 0 00-.739 2.1v4.595h-1.3v-8.562h1.07l.148 1.586h.063a3.738 3.738 0 011.148-1.289 2.591 2.591 0 011.481-.45zm3.906 4.335a15.55 15.55 0 011.024-1.25l2.765-2.929h1.538l-3.469 3.648 3.711 4.914h-1.57l-3.023-4.047-.977.844v3.2h-1.281v-12.153h1.281v6.445c0 .286-.02.73-.062 1.328z" fill="#111"/><path d="M572.1 214.129c-14.158 0-25.635 11.806-25.635 26.371s11.477 26.37 25.635 26.37 25.635-11.806 25.635-26.37a26.757 26.757 0 00-7.509-18.647 25.273 25.273 0 00-18.126-7.724zm11.467 41.071a17.927 17.927 0 01-22.585.271 19.2 19.2 0 01-5.69-22.486 1.223 1.223 0 01.981-.744 1.205 1.205 0 011.117.5 1.283 1.283 0 01.137 1.246 16.639 16.639 0 004.933 19.492 15.542 15.542 0 0019.579-.232 1.192 1.192 0 011.224-.226 1.246 1.246 0 01.779 1 1.269 1.269 0 01-.477 1.181z" fill="#ccc"/><g fill="#111"><path d="M269.116 165.689a3.2 3.2 0 01-1.184 2.668 5.363 5.363 0 01-3.386.933H263.2v4.492h-1.328v-11.421h2.961q4.283 0 4.283 3.328zm-5.916 2.461h1.2a4.444 4.444 0 002.555-.571 2.1 2.1 0 00.789-1.828 1.969 1.969 0 00-.742-1.687 3.878 3.878 0 00-2.313-.555H263.2zm15.5 1.343a4.725 4.725 0 01-1.055 3.27 3.715 3.715 0 01-2.914 1.176 3.865 3.865 0 01-2.039-.539 3.56 3.56 0 01-1.375-1.547 5.39 5.39 0 01-.484-2.36 4.709 4.709 0 011.047-3.261 3.7 3.7 0 012.906-1.168 3.621 3.621 0 012.855 1.195 4.7 4.7 0 011.059 3.234zm-6.523 0a4.061 4.061 0 00.656 2.5 2.6 2.6 0 003.863 0 4.037 4.037 0 00.66-2.5 3.97 3.97 0 00-.66-2.48 2.317 2.317 0 00-1.949-.848 2.285 2.285 0 00-1.922.836 4.02 4.02 0 00-.646 2.492zm14.323 1.953a2.144 2.144 0 01-.891 1.844 4.182 4.182 0 01-2.5.649 5.439 5.439 0 01-2.656-.539v-1.2a6.453 6.453 0 001.324.493 5.523 5.523 0 001.363.179 3.094 3.094 0 001.563-.324 1.116 1.116 0 00.113-1.844 6.814 6.814 0 00-1.691-.839 9.124 9.124 0 01-1.7-.778 2.319 2.319 0 01-.75-.754 1.966 1.966 0 01-.246-1.008 1.921 1.921 0 01.851-1.652 3.973 3.973 0 012.336-.605 6.832 6.832 0 012.7.562l-.461 1.055a6.182 6.182 0 00-2.336-.531 2.682 2.682 0 00-1.39.289.892.892 0 00-.469.8.968.968 0 00.176.585 1.708 1.708 0 00.566.461 12.7 12.7 0 001.5.633 5.608 5.608 0 012.059 1.117 1.974 1.974 0 01.539 1.407zm2-8.546a.862.862 0 01.219-.653.81.81 0 011.086 0 .847.847 0 01.226.649.859.859 0 01-.226.652.762.762 0 01-.54.215.748.748 0 01-.546-.215.877.877 0 01-.219-.648zm1.406 10.882h-1.3v-8.562h1.3zm5.515-.914a4.225 4.225 0 00.664-.05 4.615 4.615 0 00.508-.106v.992a2.357 2.357 0 01-.621.168 4.714 4.714 0 01-.739.067q-2.484 0-2.484-2.618v-5.093h-1.227v-.628l1.227-.539.547-1.828h.75v1.984h2.484v1.008h-2.484v5.039a1.732 1.732 0 00.367 1.187 1.275 1.275 0 001.008.417zm2.773-9.968a.862.862 0 01.219-.653.81.81 0 011.086 0 .847.847 0 01.226.649.859.859 0 01-.226.652.76.76 0 01-.539.215.749.749 0 01-.547-.215.877.877 0 01-.219-.648zm1.406 10.882h-1.3v-8.562h1.3zm4.625 0l-3.25-8.562h1.391l1.844 5.078a23.878 23.878 0 01.734 2.313h.063a17.2 17.2 0 01.543-1.715q.456-1.3 2.05-5.676h1.391l-3.25 8.562zm9.758.157a3.935 3.935 0 01-3-1.157 4.477 4.477 0 01-1.1-3.211 4.966 4.966 0 011.02-3.289 3.389 3.389 0 012.738-1.218 3.227 3.227 0 012.547 1.058 4.058 4.058 0 01.938 2.793v.821h-5.9a3.405 3.405 0 00.762 2.289 2.636 2.636 0 002.035.781 6.9 6.9 0 002.734-.578v1.156a6.846 6.846 0 01-1.3.426 7.312 7.312 0 01-1.474.129zm-.351-7.789a2.117 2.117 0 00-1.645.671 3.107 3.107 0 00-.723 1.86h4.477a2.853 2.853 0 00-.547-1.879 1.924 1.924 0 00-1.562-.652zm13.484 7.789a3.932 3.932 0 01-3-1.157 4.477 4.477 0 01-1.1-3.211 4.966 4.966 0 011.02-3.289 3.389 3.389 0 012.738-1.218 3.228 3.228 0 012.547 1.058 4.058 4.058 0 01.937 2.793v.821h-5.9a3.4 3.4 0 00.762 2.289 2.636 2.636 0 002.035.781 6.9 6.9 0 002.734-.578v1.156a6.846 6.846 0 01-1.3.426 7.319 7.319 0 01-1.473.129zm-.352-7.789a2.117 2.117 0 00-1.644.671 3.107 3.107 0 00-.723 1.86h4.477a2.853 2.853 0 00-.547-1.879 1.925 1.925 0 00-1.563-.652zm7.774 3.25l-2.977-4.18h1.477l2.262 3.28 2.25-3.281h1.461l-2.977 4.18 3.133 4.382h-1.469l-2.4-3.468-2.422 3.468h-1.469zm10.305 4.539a3.7 3.7 0 01-1.528-.309 2.877 2.877 0 01-1.16-.949h-.094a11.38 11.38 0 01.094 1.422v3.523h-1.3V165.22h1.055l.18 1.172h.062a3.011 3.011 0 011.164-1.016 3.544 3.544 0 011.524-.312 3.164 3.164 0 012.629 1.164 6.2 6.2 0 01-.016 6.543 3.173 3.173 0 01-2.61 1.168zm-.188-7.774a2.3 2.3 0 00-1.9.727 3.738 3.738 0 00-.6 2.312v.289a4.278 4.278 0 00.6 2.582 2.285 2.285 0 001.929.778 2.007 2.007 0 001.739-.9 4.261 4.261 0 00.629-2.476 4.1 4.1 0 00-.629-2.457 2.067 2.067 0 00-1.768-.855zm9.625 7.774a3.932 3.932 0 01-3-1.157 4.477 4.477 0 01-1.1-3.211 4.966 4.966 0 011.02-3.289 3.389 3.389 0 012.738-1.218 3.228 3.228 0 012.547 1.058 4.058 4.058 0 01.938 2.793v.821h-5.9a3.4 3.4 0 00.762 2.289 2.636 2.636 0 002.035.781 6.9 6.9 0 002.734-.578v1.156a6.846 6.846 0 01-1.3.426 7.319 7.319 0 01-1.474.129zm-.351-7.789a2.117 2.117 0 00-1.645.671 3.107 3.107 0 00-.723 1.86h4.477a2.853 2.853 0 00-.547-1.879 1.924 1.924 0 00-1.562-.652zm9.617-1.086a5.111 5.111 0 011.023.093l-.18 1.2a4.368 4.368 0 00-.937-.118 2.284 2.284 0 00-1.777.844 3.074 3.074 0 00-.739 2.1v4.593h-1.3v-8.556h1.071l.148 1.586h.063a3.747 3.747 0 011.148-1.289 2.588 2.588 0 011.48-.453zm2.515-2.164a.866.866 0 01.219-.653.81.81 0 011.086 0 .847.847 0 01.227.649.859.859 0 01-.227.652.758.758 0 01-.539.215.75.75 0 01-.547-.215.881.881 0 01-.219-.648zm1.407 10.882h-1.3v-8.562h1.3zm6.367.157a3.932 3.932 0 01-3-1.157 4.472 4.472 0 01-1.1-3.211 4.966 4.966 0 011.02-3.289 3.386 3.386 0 012.738-1.218 3.228 3.228 0 012.547 1.058 4.058 4.058 0 01.937 2.793v.821h-5.9a3.4 3.4 0 00.762 2.289 2.636 2.636 0 002.035.781 6.9 6.9 0 002.734-.578v1.156a6.854 6.854 0 01-1.3.426 7.3 7.3 0 01-1.473.129zm-.352-7.789a2.117 2.117 0 00-1.644.671 3.1 3.1 0 00-.723 1.86h4.477a2.853 2.853 0 00-.547-1.879 1.926 1.926 0 00-1.563-.652zm11.571 7.632v-5.539a2.237 2.237 0 00-.477-1.562 1.939 1.939 0 00-1.492-.516 2.46 2.46 0 00-1.969.727 3.665 3.665 0 00-.625 2.4v4.492h-1.3v-8.564h1.055l.211 1.172h.062a2.653 2.653 0 011.117-.981 3.643 3.643 0 011.6-.347 3.253 3.253 0 012.328.746 3.173 3.173 0 01.781 2.386v5.586zm7.382.157a3.656 3.656 0 01-2.879-1.145 4.711 4.711 0 01-1.019-3.238 4.851 4.851 0 011.035-3.32 3.726 3.726 0 012.949-1.172 5.893 5.893 0 011.235.132 4.069 4.069 0 01.968.313l-.4 1.1a6.08 6.08 0 00-.938-.286 4.2 4.2 0 00-.9-.113q-2.608 0-2.609 3.328a3.966 3.966 0 00.636 2.422 2.216 2.216 0 001.887.844 5.771 5.771 0 002.2-.461v1.148a4.676 4.676 0 01-2.165.448zm7.813 0a3.932 3.932 0 01-3-1.157 4.472 4.472 0 01-1.1-3.211 4.966 4.966 0 011.02-3.289 3.386 3.386 0 012.738-1.218 3.228 3.228 0 012.547 1.058 4.058 4.058 0 01.937 2.793v.821h-5.9a3.4 3.4 0 00.762 2.289 2.636 2.636 0 002.035.781 6.9 6.9 0 002.734-.578v1.156a6.831 6.831 0 01-1.3.426 7.3 7.3 0 01-1.473.129zm-.352-7.789a2.117 2.117 0 00-1.644.671 3.1 3.1 0 00-.723 1.86h4.477a2.853 2.853 0 00-.547-1.879 1.925 1.925 0 00-1.56-.652zm-336.531 4.732a2.8 2.8 0 01-1.094 2.352 4.743 4.743 0 01-2.968.843 7.449 7.449 0 01-3.125-.523v-1.281a8.159 8.159 0 001.531.468 8.018 8.018 0 001.64.172 3.309 3.309 0 002-.5 1.65 1.65 0 00.672-1.4 1.8 1.8 0 00-.238-.973 2.219 2.219 0 00-.8-.7 10.98 10.98 0 00-1.7-.726 5.427 5.427 0 01-2.277-1.352 2.982 2.982 0 01-.684-2.039 2.538 2.538 0 01.992-2.1 4.126 4.126 0 012.625-.781 7.729 7.729 0 013.133.625l-.414 1.156a7.089 7.089 0 00-2.75-.593 2.664 2.664 0 00-1.649.453 1.493 1.493 0 00-.593 1.258 1.937 1.937 0 00.218.972 2.057 2.057 0 00.739.7 9.206 9.206 0 001.59.7 6.267 6.267 0 012.472 1.375 2.706 2.706 0 01.68 1.894zm8 3.039v-5.539a2.235 2.235 0 00-.477-1.563 1.943 1.943 0 00-1.489-.519 2.445 2.445 0 00-1.972.734 3.719 3.719 0 00-.621 2.406v4.477h-1.3v-12.152h1.3v3.679a7.962 7.962 0 01-.063 1.1h.078a2.651 2.651 0 011.09-.973 3.544 3.544 0 011.613-.355 3.308 3.308 0 012.356.746 3.143 3.143 0 01.785 2.371v5.586zm3.852-10.883a.863.863 0 01.218-.652.81.81 0 011.086 0 .84.84 0 01.227.648.858.858 0 01-.227.653.757.757 0 01-.539.214.749.749 0 01-.547-.214.883.883 0 01-.218-.649zm1.406 10.883h-1.3v-8.562h1.3zm8.609 0v-5.539a2.24 2.24 0 00-.476-1.563 1.947 1.947 0 00-1.493-.515 2.462 2.462 0 00-1.968.726 3.67 3.67 0 00-.625 2.4v4.492h-1.3v-8.562h1.055l.21 1.171h.064a2.65 2.65 0 011.117-.98 3.644 3.644 0 011.6-.348 3.254 3.254 0 012.328.746 3.178 3.178 0 01.781 2.387v5.586zm2.602-8.562h1.39l1.875 4.882a18.52 18.52 0 01.766 2.414h.063c.067-.265.21-.719.425-1.363s.923-2.621 2.121-5.933h1.391l-3.68 9.75a4.854 4.854 0 01-1.277 2.05 2.716 2.716 0 01-1.793.606 5.2 5.2 0 01-1.172-.133v-1.039a4.551 4.551 0 00.961.094 1.98 1.98 0 001.906-1.5l.477-1.219zm17 8.718a3.659 3.659 0 01-2.879-1.144 4.707 4.707 0 01-1.02-3.239 4.848 4.848 0 011.036-3.32 3.726 3.726 0 012.949-1.172 5.819 5.819 0 011.234.133 4.049 4.049 0 01.969.313l-.4 1.1a6.067 6.067 0 00-.937-.285 4.221 4.221 0 00-.9-.113q-2.608 0-2.609 3.328a3.961 3.961 0 00.637 2.422 2.218 2.218 0 001.887.843 5.773 5.773 0 002.195-.46v1.148a4.677 4.677 0 01-2.162.446zm11.586-4.445a4.729 4.729 0 01-1.055 3.27 3.714 3.714 0 01-2.914 1.175 3.853 3.853 0 01-2.039-.539 3.554 3.554 0 01-1.375-1.547 5.389 5.389 0 01-.484-2.359 4.717 4.717 0 011.046-3.262 3.707 3.707 0 012.907-1.168 3.622 3.622 0 012.855 1.2 4.7 4.7 0 011.059 3.23zm-6.524 0a4.06 4.06 0 00.657 2.5 2.605 2.605 0 003.863 0 4.044 4.044 0 00.66-2.5 3.976 3.976 0 00-.66-2.48 2.318 2.318 0 00-1.949-.848 2.281 2.281 0 00-1.922.836 4.015 4.015 0 00-.646 2.492zm8.688-6.594a.86.86 0 01.219-.652.809.809 0 011.085 0 .84.84 0 01.227.648.858.858 0 01-.227.653.757.757 0 01-.539.214.747.747 0 01-.546-.214.879.879 0 01-.219-.649zm1.406 10.883h-1.3v-8.562h1.3zm8.609 0v-5.539a2.24 2.24 0 00-.476-1.563 1.946 1.946 0 00-1.492-.515 2.463 2.463 0 00-1.969.726 3.67 3.67 0 00-.625 2.4v4.492h-1.3v-8.562h1.062l.211 1.171h.062a2.65 2.65 0 011.117-.98 3.644 3.644 0 011.6-.348 3.253 3.253 0 012.328.746 3.174 3.174 0 01.781 2.387v5.586z"/><path d="M448.845 256.2a1.016 1.016 0 01-.8-1.638l5.735-7.407-5.743-7.62a1.015 1.015 0 011.622-1.222l6.21 8.24a1.016 1.016 0 01-.008 1.232l-6.21 8.02a1.015 1.015 0 01-.806.395zm-239.5 0a1.016 1.016 0 01-.8-1.638l5.735-7.407-5.743-7.62a1.015 1.015 0 011.622-1.222l6.21 8.24a1.016 1.016 0 01-.008 1.232l-6.21 8.02a1.015 1.015 0 01-.806.395z" fill-rule="evenodd" opacity=".25"/></g><path d="M287.756 15.635a34.4 34.4 0 1024.323 10.075 34.4 34.4 0 00-24.323-10.075zm15.387 53.575a24.595 24.595 0 01-37.949-28.979 1.636 1.636 0 013 1.309 21.324 21.324 0 0032.9 25.125 1.634 1.634 0 012.166 2.448c-.038.034-.078.066-.12.1zm106.824-29.956a.674.674 0 01.622.941L393.2 81.092a20.633 20.633 0 01-6.7 9.6 16.421 16.421 0 01-9.635 2.778 19.977 19.977 0 01-6.084-.953 13.844 13.844 0 01-4.486-2.289.688.688 0 01-.164-.843l3.539-6.887a.687.687 0 01.93-.282.729.729 0 01.1.066 9.949 9.949 0 002.392 1.308 9.475 9.475 0 003.406.654 6.057 6.057 0 003.814-1.135 9.647 9.647 0 002.636-3.778l.148-.365-16.685-38.776a.677.677 0 01.621-.943h10.315a.687.687 0 01.625.418l10.894 26.318 10.965-26.308a.689.689 0 01.625-.416z" fill="#231f20"/><path d="M352.1 78.369l-8.43-11.787-8.721 11.8a.73.73 0 01-.586.3h-10.618a.728.728 0 01-.579-1.171l14.271-18.686-13.783-18.4a.728.728 0 01.584-1.166h10.989a.726.726 0 01.591.3l8.134 11.2 8.354-11.21a.729.729 0 01.584-.292h10.33a.73.73 0 01.73.727.739.739 0 01-.149.443l-13.765 18.1 14.357 18.983a.729.729 0 01-.58 1.168h-11.127a.721.721 0 01-.586-.309z" fill="#231f20"/></svg>