<svg xmlns="http://www.w3.org/2000/svg" viewBox="0 0 285.795 75.228"><g id="grid"><g id="Specified"><g id="case-small-320-measured-copy"><path id="Buying_-selling-and" data-name="Buying,-selling-and" d="M6.256 5.865a2.722 2.722 0 011.675.91A2.824 2.824 0 018.6 8.721a2.938 2.938 0 01-.969 2.329 3.829 3.829 0 01-2.618.85H1.054V0h3.859a3.9 3.9 0 012.609.816 2.806 2.806 0 01.961 2.261 2.822 2.822 0 01-.6 1.87 2.733 2.733 0 01-1.627.918zM2.193 1.02v4.369h2.89a2.275 2.275 0 001.632-.6 2.1 2.1 0 00.629-1.6 2.008 2.008 0 00-.663-1.6 2.676 2.676 0 00-1.819-.569zM5 10.88a2.6 2.6 0 001.8-.6 2.124 2.124 0 00.663-1.666 2.131 2.131 0 00-.629-1.6 2.2 2.2 0 00-1.6-.612H2.193v4.478zm8.753 1.22a2.947 2.947 0 01-2.2-.841 3.349 3.349 0 01-.824-2.44V4.165h1.088v4.42a2.942 2.942 0 00.536 1.87 2.021 2.021 0 001.691.68 2.346 2.346 0 001.42-.416 2.426 2.426 0 00.833-1.08 3.708 3.708 0 00.263-1.377v-4.1h1.088V11.9h-1.09v-1.751a2.873 2.873 0 01-2.8 1.955zM27.3 4.165v7.99a3.519 3.519 0 01-1.088 2.822 3.649 3.649 0 01-2.448.782 3.938 3.938 0 01-2.6-.782 2.532 2.532 0 01-.867-1.989H21.4a1.824 1.824 0 00.587 1.335 2.568 2.568 0 001.759.5q2.465 0 2.465-2.737v-1.9a2.988 2.988 0 01-2.89 1.9 2.8 2.8 0 01-2.286-.892 3.881 3.881 0 01-.74-2.542V4.165h1.088v4.284a3.243 3.243 0 00.51 1.981 2.088 2.088 0 001.768.671 2.279 2.279 0 001.4-.425 2.638 2.638 0 00.859-1.105 3.649 3.649 0 00.289-1.445V4.165zm2.72 0h1.09V11.9h-1.088zm.546-1.565a.96.96 0 01-.722-.289.983.983 0 01-.281-.714 1 1 0 01.281-.731.96.96 0 01.722-.289.988.988 0 011.02 1.02.97.97 0 01-.289.714.989.989 0 01-.731.289zm3.264 1.565h1.088v1.768A2.762 2.762 0 0135.947 4.5a3.121 3.121 0 011.878-.536 2.777 2.777 0 012.2.841 3.586 3.586 0 01.74 2.44V11.9h-1.087V7.667a3.285 3.285 0 00-.544-2.074 2.006 2.006 0 00-1.666-.68 2.275 2.275 0 00-1.9.825 3.464 3.464 0 00-.655 2.218V11.9H33.83zm16.881 0v7.684a4.8 4.8 0 01-.332 1.844 3.055 3.055 0 01-.977 1.3 4.114 4.114 0 01-2.669.765 5.916 5.916 0 01-1.556-.2 3.324 3.324 0 01-1.215-.586 2.658 2.658 0 01-.765-.893 2.486 2.486 0 01-.289-1.1h1.122a1.771 1.771 0 00.774 1.318 3.2 3.2 0 001.929.518 2.929 2.929 0 002.159-.731 2.955 2.955 0 00.731-2.176v-1.674a2.928 2.928 0 01-1.2 1.369 3.447 3.447 0 01-1.827.5 3.818 3.818 0 01-2.023-.536 3.663 3.663 0 01-1.369-1.461 4.393 4.393 0 01-.484-2.066 4.321 4.321 0 01.5-2.074 3.747 3.747 0 013.392-2.006 3.377 3.377 0 011.836.5 2.95 2.95 0 011.173 1.385v-1.68zm-3.995 6.953a2.947 2.947 0 001.547-.408 2.809 2.809 0 001.054-1.11 3.457 3.457 0 000-3.128 2.82 2.82 0 00-1.046-1.114 2.933 2.933 0 00-1.555-.408 2.837 2.837 0 00-1.5.4 2.776 2.776 0 00-1.037 1.1 3.342 3.342 0 00-.374 1.589 3.312 3.312 0 00.374 1.573 2.79 2.79 0 001.037 1.1 2.845 2.845 0 001.5.406zm7.259 2.788a2.349 2.349 0 01-.493-.051v-.578c.227.023.4.034.51.034a.952.952 0 00.969-.748 1.326 1.326 0 00.085-.51l-.017-.323a.792.792 0 01-.612.238.972.972 0 01-.7-.272.945.945 0 01-.281-.714.989.989 0 01.289-.731 1.011 1.011 0 01.748-.289 1.27 1.27 0 01.994.485 1.977 1.977 0 01.417 1.334 2.253 2.253 0 01-.51 1.547 1.765 1.765 0 01-1.399.578zm11.237-1.8a3.919 3.919 0 01-1.666-.331 2.692 2.692 0 01-1.1-.893 2.121 2.121 0 01-.391-1.241h1.088a1.371 1.371 0 00.57 1.114 2.442 2.442 0 001.555.45 2.106 2.106 0 001.275-.349 1.142 1.142 0 00.476-.977 1.114 1.114 0 00-.289-.8 2.138 2.138 0 00-1.02-.493l-1.62-.409a2.042 2.042 0 01-1.8-2.074 1.844 1.844 0 01.79-1.556 3.912 3.912 0 014.148.018A1.968 1.968 0 0168 6.205h-1.071a1.224 1.224 0 00-.519-1.012 2.283 2.283 0 00-1.368-.365 2.107 2.107 0 00-1.207.323 1.044 1.044 0 00-.476.918q0 .918 1.309 1.241l1.632.442a2.512 2.512 0 011.36.757 1.952 1.952 0 01.459 1.317 1.993 1.993 0 01-.782 1.683 3.427 3.427 0 01-2.125.591zm11.747-4.558c0 .125-.011.368-.034.731h-6.256a2.911 2.911 0 00.731 2.083 2.607 2.607 0 001.989.773 2.834 2.834 0 001.488-.374 2.037 2.037 0 00.875-1.037h1.105a2.8 2.8 0 01-1.19 1.717 3.886 3.886 0 01-2.278.663 3.971 3.971 0 01-2.023-.5 3.365 3.365 0 01-1.335-1.428 4.725 4.725 0 01-.467-2.151 4.669 4.669 0 01.467-2.142 3.4 3.4 0 011.318-1.419 4.133 4.133 0 013.867-.043A3.266 3.266 0 0176.5 5.7a3.715 3.715 0 01.459 1.848zm-1.071-.136a2.626 2.626 0 00-.7-1.861 2.473 2.473 0 00-1.87-.706 2.522 2.522 0 00-1.853.706 2.8 2.8 0 00-.8 1.861zM79 0h1.088v11.9H79zm3.808 0H83.9v11.9h-1.093zm3.808 4.165H87.7V11.9h-1.085zm.543-1.565a.964.964 0 01-.723-.289.986.986 0 01-.28-.714 1.006 1.006 0 01.28-.731.964.964 0 01.723-.289.988.988 0 011.02 1.02.97.97 0 01-.289.714.989.989 0 01-.731.289zm3.264 1.564h1.088v1.769A2.766 2.766 0 0192.539 4.5a3.125 3.125 0 011.879-.536 2.777 2.777 0 012.2.841 3.586 3.586 0 01.74 2.44V11.9h-1.087V7.667a3.285 3.285 0 00-.544-2.074 2.006 2.006 0 00-1.666-.68 2.275 2.275 0 00-1.9.825 3.464 3.464 0 00-.655 2.218V11.9h-1.083zm16.881 0v7.684a4.821 4.821 0 01-.331 1.844 3.057 3.057 0 01-.978 1.3 4.114 4.114 0 01-2.669.765 5.916 5.916 0 01-1.556-.2 3.324 3.324 0 01-1.215-.586 2.658 2.658 0 01-.765-.893 2.486 2.486 0 01-.289-1.1h1.122a1.773 1.773 0 00.773 1.318 3.2 3.2 0 001.93.518 2.929 2.929 0 002.159-.731 2.955 2.955 0 00.731-2.176v-1.673a2.928 2.928 0 01-1.2 1.369 3.447 3.447 0 01-1.827.5 3.818 3.818 0 01-2.023-.536 3.663 3.663 0 01-1.366-1.46 4.4 4.4 0 01-.484-2.066 4.321 4.321 0 01.5-2.074 3.747 3.747 0 013.392-2.006 3.377 3.377 0 011.836.5 2.95 2.95 0 011.173 1.385V4.165zm-4 6.953a2.947 2.947 0 001.547-.408A2.809 2.809 0 00105.91 9.6a3.457 3.457 0 000-3.128 2.824 2.824 0 00-1.045-1.114 2.939 2.939 0 00-1.556-.408 2.837 2.837 0 00-1.5.4 2.776 2.776 0 00-1.037 1.1 3.342 3.342 0 00-.374 1.589 3.312 3.312 0 00.374 1.573 2.79 2.79 0 001.037 1.1 2.845 2.845 0 001.5.406zm14.246.986a3.935 3.935 0 01-2.066-.527 3.5 3.5 0 01-1.342-1.453 4.555 4.555 0 01-.468-2.083 4.5 4.5 0 01.476-2.083 3.6 3.6 0 011.36-1.461 3.891 3.891 0 012.057-.536 3.369 3.369 0 011.853.51 3.013 3.013 0 011.18 1.378V4.165h1.071V11.9H120.6v-1.666a3.059 3.059 0 01-1.2 1.352 3.4 3.4 0 01-1.845.514zm.119-.986a2.957 2.957 0 001.589-.416 2.765 2.765 0 001.029-1.123 3.356 3.356 0 00.357-1.538 3.4 3.4 0 00-.357-1.556 2.76 2.76 0 00-1.029-1.121 2.948 2.948 0 00-1.589-.417 2.717 2.717 0 00-2.108.876 3.161 3.161 0 00-.8 2.218 3.42 3.42 0 00.357 1.581 2.685 2.685 0 001.02 1.1 2.909 2.909 0 001.536.397zm6.715-6.953h1.088v1.769a2.771 2.771 0 011.033-1.433 3.125 3.125 0 011.879-.536 2.779 2.779 0 012.2.841 3.6 3.6 0 01.739 2.44V11.9h-1.088V7.667a3.285 3.285 0 00-.544-2.074 2.006 2.006 0 00-1.666-.68 2.275 2.275 0 00-1.895.825 3.464 3.464 0 00-.655 2.218V11.9h-1.088zM141.27 0v11.9h-1.07v-1.666a3.059 3.059 0 01-1.2 1.352 3.4 3.4 0 01-1.844.518 3.929 3.929 0 01-2.065-.527 3.5 3.5 0 01-1.343-1.453 4.555 4.555 0 01-.468-2.083 4.5 4.5 0 01.476-2.083 3.6 3.6 0 011.36-1.461 3.891 3.891 0 012.057-.536 3.369 3.369 0 011.853.51 3.013 3.013 0 011.174 1.377V0zm-4 11.118a2.957 2.957 0 001.589-.416 2.765 2.765 0 001.029-1.123 3.356 3.356 0 00.357-1.538 3.4 3.4 0 00-.357-1.556 2.76 2.76 0 00-1.029-1.121 2.948 2.948 0 00-1.589-.417 2.717 2.717 0 00-2.108.876 3.161 3.161 0 00-.8 2.218 3.42 3.42 0 00.357 1.581 2.685 2.685 0 001.02 1.1 2.909 2.909 0 001.536.396zm11.05-6.953h1.088V5.9a2.781 2.781 0 01.85-1.377 2.359 2.359 0 011.632-.561 2.713 2.713 0 011.666.493 2.329 2.329 0 01.867 1.445 2.868 2.868 0 014.684-1.156 3.267 3.267 0 01.71 2.256v4.9h-1.071V7.225a2.515 2.515 0 00-.519-1.751 1.835 1.835 0 00-1.419-.561 1.879 1.879 0 00-1.615.8 3.746 3.746 0 00-.578 2.227v3.96h-1.088V7.446q0-2.533-1.938-2.533a1.834 1.834 0 00-1.615.825 3.849 3.849 0 00-.561 2.2V11.9h-1.088zm17.328 7.935a3.935 3.935 0 01-2.066-.527 3.509 3.509 0 01-1.343-1.453 4.568 4.568 0 01-.467-2.083 4.5 4.5 0 01.476-2.083 3.6 3.6 0 011.36-1.461 3.891 3.891 0 012.057-.536 3.369 3.369 0 011.853.51 3.013 3.013 0 011.173 1.377V4.165h1.071V11.9h-1.071v-1.666a3.059 3.059 0 01-1.2 1.352 3.4 3.4 0 01-1.843.514zm.119-.986a2.957 2.957 0 001.589-.416 2.765 2.765 0 001.029-1.123 3.356 3.356 0 00.357-1.538 3.4 3.4 0 00-.357-1.556 2.76 2.76 0 00-1.029-1.121 2.948 2.948 0 00-1.589-.417 2.717 2.717 0 00-2.108.876 3.161 3.161 0 00-.8 2.218 3.42 3.42 0 00.357 1.581 2.685 2.685 0 001.02 1.1 2.909 2.909 0 001.531.4zm6.715-6.953h1.088v1.772A2.762 2.762 0 01174.6 4.5a3.119 3.119 0 011.878-.536 2.781 2.781 0 012.2.841 3.6 3.6 0 01.739 2.44V11.9h-1.087V7.667a3.285 3.285 0 00-.544-2.074 2.006 2.006 0 00-1.666-.68 2.278 2.278 0 00-1.9.825 3.47 3.47 0 00-.654 2.218V11.9h-1.088zm12.767 7.939a3.935 3.935 0 01-2.066-.527 3.5 3.5 0 01-1.342-1.453 4.555 4.555 0 01-.468-2.083 4.5 4.5 0 01.476-2.083 3.6 3.6 0 011.36-1.461 3.891 3.891 0 012.057-.536 3.369 3.369 0 011.853.51 3.013 3.013 0 011.173 1.377V4.165h1.071V11.9h-1.071v-1.666a3.059 3.059 0 01-1.2 1.352 3.4 3.4 0 01-1.843.514zm.119-.986a2.957 2.957 0 001.589-.416 2.765 2.765 0 001.029-1.123 3.356 3.356 0 00.357-1.538 3.4 3.4 0 00-.357-1.556 2.76 2.76 0 00-1.029-1.121 2.948 2.948 0 00-1.589-.417 2.717 2.717 0 00-2.108.876 3.161 3.161 0 00-.8 2.218 3.42 3.42 0 00.357 1.581 2.685 2.685 0 001.02 1.1 2.909 2.909 0 001.531.4zm14.025-6.953v7.684a4.8 4.8 0 01-.332 1.844 3.047 3.047 0 01-.977 1.3 4.114 4.114 0 01-2.669.765 5.9 5.9 0 01-1.555-.2 3.321 3.321 0 01-1.216-.586 2.658 2.658 0 01-.765-.893 2.486 2.486 0 01-.289-1.1h1.122a1.773 1.773 0 00.773 1.318 3.2 3.2 0 001.93.518 2.929 2.929 0 002.159-.731 2.955 2.955 0 00.731-2.176v-1.67a2.928 2.928 0 01-1.2 1.369 3.447 3.447 0 01-1.827.5 3.818 3.818 0 01-2.023-.536 3.654 3.654 0 01-1.368-1.461 4.393 4.393 0 01-.485-2.066 4.31 4.31 0 01.5-2.074 3.744 3.744 0 013.398-2.005 3.377 3.377 0 011.836.5 2.95 2.95 0 011.173 1.385V4.165zm-4 6.953a2.947 2.947 0 001.547-.408A2.809 2.809 0 00198 9.6a3.457 3.457 0 000-3.128 2.82 2.82 0 00-1.046-1.114 2.933 2.933 0 00-1.555-.408 2.837 2.837 0 00-1.5.4 2.776 2.776 0 00-1.037 1.1 3.342 3.342 0 00-.374 1.589 3.312 3.312 0 00.374 1.573 2.79 2.79 0 001.037 1.1 2.845 2.845 0 001.501.406zm6.715-6.953h1.092V11.9h-1.088zm.544-1.564a.962.962 0 01-.723-.289.99.99 0 01-.28-.714 1.011 1.011 0 01.28-.731.962.962 0 01.723-.289.988.988 0 011.02 1.02.97.97 0 01-.289.714.989.989 0 01-.726.292zm3.264 1.564h1.088v1.772a2.771 2.771 0 011.033-1.433 3.127 3.127 0 011.879-.536 2.776 2.776 0 012.2.841 3.591 3.591 0 01.74 2.44V11.9h-1.088V7.667a3.285 3.285 0 00-.544-2.074 2.006 2.006 0 00-1.666-.68 2.275 2.275 0 00-1.9.825 3.464 3.464 0 00-.655 2.218V11.9h-1.088zm16.881 0v7.684a4.8 4.8 0 01-.332 1.844 3.047 3.047 0 01-.977 1.3 4.114 4.114 0 01-2.669.765 5.916 5.916 0 01-1.556-.2 3.324 3.324 0 01-1.215-.586 2.658 2.658 0 01-.765-.893 2.486 2.486 0 01-.289-1.1h1.122a1.771 1.771 0 00.774 1.318 3.2 3.2 0 001.929.518 2.929 2.929 0 002.159-.731 2.955 2.955 0 00.731-2.176v-1.67a2.928 2.928 0 01-1.2 1.369 3.447 3.447 0 01-1.827.5 3.818 3.818 0 01-2.023-.536 3.656 3.656 0 01-1.369-1.461 4.4 4.4 0 01-.484-2.066 4.321 4.321 0 01.5-2.074 3.747 3.747 0 013.392-2.006 3.377 3.377 0 011.836.5 2.95 2.95 0 011.173 1.385v-1.68zm-4 6.953a2.947 2.947 0 001.547-.408 2.809 2.809 0 001.064-1.106 3.457 3.457 0 000-3.128 2.82 2.82 0 00-1.046-1.114 2.933 2.933 0 00-1.555-.408 2.837 2.837 0 00-1.5.4 2.776 2.776 0 00-1.037 1.1 3.342 3.342 0 00-.374 1.589 3.312 3.312 0 00.374 1.573 2.79 2.79 0 001.037 1.1 2.845 2.845 0 001.5.406zM8.279 29v11.9H7.208v-1.666a3.059 3.059 0 01-1.2 1.352 3.4 3.4 0 01-1.844.518 3.935 3.935 0 01-2.064-.527 3.509 3.509 0 01-1.344-1.453 4.568 4.568 0 01-.467-2.083 4.5 4.5 0 01.476-2.083 3.6 3.6 0 011.36-1.458 3.891 3.891 0 012.057-.536 3.369 3.369 0 011.853.51 3.013 3.013 0 011.173 1.377V29zM4.284 40.118a2.957 2.957 0 001.589-.418A2.765 2.765 0 006.9 38.579a3.356 3.356 0 00.357-1.538 3.4 3.4 0 00-.357-1.556 2.76 2.76 0 00-1.029-1.121 2.948 2.948 0 00-1.589-.417 2.717 2.717 0 00-2.108.876 3.161 3.161 0 00-.8 2.218 3.42 3.42 0 00.357 1.581 2.685 2.685 0 001.02 1.1 2.909 2.909 0 001.533.396zM11 33.165h1.088V40.9H11zm.544-1.564a.962.962 0 01-.723-.289.986.986 0 01-.28-.714 1.006 1.006 0 01.28-.731.962.962 0 01.723-.289.988.988 0 011.02 1.02.97.97 0 01-.289.714.989.989 0 01-.732.288zm10.574 1.564v7.684a4.8 4.8 0 01-.332 1.844 3.055 3.055 0 01-.977 1.3 4.114 4.114 0 01-2.669.765 5.916 5.916 0 01-1.556-.2 3.324 3.324 0 01-1.215-.586 2.658 2.658 0 01-.765-.893 2.486 2.486 0 01-.289-1.1h1.122a1.773 1.773 0 00.773 1.318 3.2 3.2 0 001.93.518 2.929 2.929 0 002.159-.731 2.955 2.955 0 00.731-2.176v-1.674a2.928 2.928 0 01-1.2 1.369A3.447 3.447 0 0118 41.1a3.818 3.818 0 01-2.023-.536 3.656 3.656 0 01-1.369-1.461 4.393 4.393 0 01-.484-2.066 4.321 4.321 0 01.5-2.074 3.747 3.747 0 013.392-2.006 3.377 3.377 0 011.836.5 2.95 2.95 0 011.173 1.385v-1.677zm-4 6.953a2.947 2.947 0 001.547-.408 2.809 2.809 0 001.058-1.11 3.457 3.457 0 000-3.128 2.82 2.82 0 00-1.046-1.114 2.933 2.933 0 00-1.555-.408 2.837 2.837 0 00-1.5.4 2.776 2.776 0 00-1.037 1.1 3.529 3.529 0 000 3.162 2.79 2.79 0 001.037 1.105 2.845 2.845 0 001.5.401zm6.715-6.953h1.088V40.9h-1.084zm.544-1.564a.962.962 0 01-.723-.289.986.986 0 01-.28-.714 1.006 1.006 0 01.28-.731.962.962 0 01.723-.289A.988.988 0 0126.4 30.6a.97.97 0 01-.289.714.989.989 0 01-.73.286zM31.62 40a4.123 4.123 0 001.037-.1v.969A4.592 4.592 0 0131.4 41a2.455 2.455 0 01-1.6-.51 2.671 2.671 0 01-.629-2.108V34.1h-1.512v-.935h1.513v-2.584h1.071v2.584h2.142v.935h-2.142v4.063a2.214 2.214 0 00.348 1.471A1.361 1.361 0 0031.62 40zm6.1 1.1a3.935 3.935 0 01-2.066-.527 3.5 3.5 0 01-1.342-1.453 4.555 4.555 0 01-.468-2.083 4.5 4.5 0 01.476-2.083 3.6 3.6 0 011.36-1.461 3.891 3.891 0 012.057-.536 3.369 3.369 0 011.853.51 3.013 3.013 0 011.173 1.377v-1.679h1.071V40.9h-1.068v-1.666a3.059 3.059 0 01-1.2 1.352 3.4 3.4 0 01-1.843.514zm.119-.986a2.957 2.957 0 001.589-.416 2.765 2.765 0 001.029-1.123 3.356 3.356 0 00.357-1.538 3.4 3.4 0 00-.357-1.556 2.76 2.76 0 00-1.029-1.121 2.948 2.948 0 00-1.589-.417 2.717 2.717 0 00-2.108.876 3.161 3.161 0 00-.8 2.218 3.42 3.42 0 00.357 1.581 2.685 2.685 0 001.02 1.1 2.909 2.909 0 001.534.4zM44.557 29h1.088v11.9h-1.088zm11.305 12.1a3.915 3.915 0 01-2.023-.51 3.46 3.46 0 01-1.339-1.433 4.941 4.941 0 010-4.232 3.46 3.46 0 011.343-1.437 3.915 3.915 0 012.023-.51 3.844 3.844 0 012.465.756 2.95 2.95 0 011.105 2.049h-1.109a2.021 2.021 0 00-.791-1.351 2.762 2.762 0 00-1.674-.468 2.555 2.555 0 00-2.014.833 3.772 3.772 0 000 4.488 2.555 2.555 0 002.014.833 2.778 2.778 0 001.666-.467 1.991 1.991 0 00.8-1.318h1.105a2.921 2.921 0 01-1.105 2.015 3.844 3.844 0 01-2.466.752zm8.551 0a2.943 2.943 0 01-2.2-.841 3.345 3.345 0 01-.825-2.44v-4.654h1.088v4.42a2.948 2.948 0 00.535 1.87 2.023 2.023 0 001.692.68 2.341 2.341 0 001.419-.416 2.412 2.412 0 00.833-1.08 3.689 3.689 0 00.264-1.377v-4.1h1.088V40.9h-1.089v-1.751a2.876 2.876 0 01-2.805 1.951zm6.63-7.939h1.088v2.04a2.853 2.853 0 01.943-1.64 2.418 2.418 0 011.556-.553 2.6 2.6 0 01.7.068v1a5.167 5.167 0 00-.731-.051 2.007 2.007 0 00-1.853 1.046 4.808 4.808 0 00-.612 2.473V40.9h-1.091zm6.035 0h1.088v2.04a2.849 2.849 0 01.944-1.64 2.415 2.415 0 011.555-.553 2.6 2.6 0 01.7.068v1a5.167 5.167 0 00-.731-.051 2.007 2.007 0 00-1.853 1.046 4.808 4.808 0 00-.612 2.473V40.9h-1.091zm12.75 3.383c0 .125-.011.368-.034.731h-6.256a2.911 2.911 0 00.731 2.083 2.607 2.607 0 001.989.773 2.828 2.828 0 001.487-.374 2.034 2.034 0 00.876-1.037h1.105a2.8 2.8 0 01-1.19 1.717 3.886 3.886 0 01-2.278.663 3.971 3.971 0 01-2.023-.5 3.365 3.365 0 01-1.335-1.425 4.725 4.725 0 01-.467-2.151 4.669 4.669 0 01.467-2.142 3.4 3.4 0 011.318-1.419 4.135 4.135 0 013.868-.043 3.27 3.27 0 011.283 1.28 3.715 3.715 0 01.459 1.848zm-1.071-.136a2.626 2.626 0 00-.7-1.861 2.473 2.473 0 00-1.87-.706 2.522 2.522 0 00-1.853.706 2.8 2.8 0 00-.8 1.861zm3.111-3.247h1.088v1.768a2.762 2.762 0 011.029-1.429 3.119 3.119 0 011.878-.536 2.776 2.776 0 012.2.841 3.586 3.586 0 01.74 2.44V40.9h-1.087v-4.233a3.285 3.285 0 00-.544-2.074 2.006 2.006 0 00-1.666-.68 2.275 2.275 0 00-1.895.825 3.464 3.464 0 00-.655 2.218V40.9h-1.088zM104.6 41.1a3.915 3.915 0 01-2.023-.51 3.46 3.46 0 01-1.343-1.437 4.941 4.941 0 010-4.232 3.46 3.46 0 011.343-1.437 3.915 3.915 0 012.023-.51 3.844 3.844 0 012.465.756 2.95 2.95 0 011.105 2.049h-1.105a2.025 2.025 0 00-.791-1.351 2.76 2.76 0 00-1.674-.468 2.557 2.557 0 00-2.014.833 3.772 3.772 0 000 4.488 2.557 2.557 0 002.014.833 2.778 2.778 0 001.666-.467 1.991 1.991 0 00.8-1.318h1.105a2.921 2.921 0 01-1.105 2.015 3.844 3.844 0 01-2.466.756zm12.529-7.939v7.99a3.519 3.519 0 01-1.088 2.822 3.649 3.649 0 01-2.448.782 3.938 3.938 0 01-2.6-.782 2.532 2.532 0 01-.867-1.989h1.1a1.827 1.827 0 00.586 1.335 2.573 2.573 0 001.76.5q2.465 0 2.465-2.737v-1.9a2.988 2.988 0 01-2.89 1.9 2.8 2.8 0 01-2.287-.892 3.892 3.892 0 01-.739-2.542v-4.483h1.088v4.284a3.243 3.243 0 00.51 1.981 2.088 2.088 0 001.768.671 2.284 2.284 0 001.4-.425 2.644 2.644 0 00.858-1.105 3.649 3.649 0 00.289-1.445v-3.961zm9.537 7.939a3.919 3.919 0 01-1.666-.327 2.692 2.692 0 01-1.105-.893 2.121 2.121 0 01-.391-1.241h1.088a1.373 1.373 0 00.569 1.114 2.447 2.447 0 001.556.45 2.106 2.106 0 001.275-.349 1.142 1.142 0 00.476-.977 1.114 1.114 0 00-.289-.8 2.138 2.138 0 00-1.02-.493l-1.615-.408a2.042 2.042 0 01-1.8-2.074 1.844 1.844 0 01.79-1.556 3.912 3.912 0 014.148.018 1.968 1.968 0 01.774 1.64h-1.071a1.224 1.224 0 00-.519-1.012 2.283 2.283 0 00-1.368-.365 2.107 2.107 0 00-1.207.323 1.044 1.044 0 00-.476.918q0 .918 1.309 1.241l1.632.442a2.512 2.512 0 011.36.757 1.952 1.952 0 01.459 1.317 1.993 1.993 0 01-.782 1.683 3.427 3.427 0 01-2.126.592zm9.061-8.143a2.777 2.777 0 012.2.841 3.586 3.586 0 01.74 2.44V40.9h-1.088v-4.233a3.285 3.285 0 00-.544-2.074 2.006 2.006 0 00-1.666-.68 2.253 2.253 0 00-1.887.825 3.5 3.5 0 00-.646 2.218V40.9h-1.086V29h1.088v5.933a2.657 2.657 0 011.02-1.436 3.132 3.132 0 011.87-.536zM144.6 41.1a3.965 3.965 0 01-2.091-.544 3.742 3.742 0 01-1.394-1.471 4.538 4.538 0 010-4.114 3.746 3.746 0 011.394-1.47 4.323 4.323 0 014.2 0 3.746 3.746 0 011.394 1.47 4.538 4.538 0 010 4.114 3.742 3.742 0 01-1.394 1.471 4 4 0 01-2.109.544zm0-1a2.893 2.893 0 001.547-.408 2.675 2.675 0 001.011-1.1 3.679 3.679 0 000-3.128 2.675 2.675 0 00-1.011-1.105 2.893 2.893 0 00-1.547-.408 2.852 2.852 0 00-1.539.408 2.681 2.681 0 00-1 1.114 3.49 3.49 0 00-.349 1.572 3.4 3.4 0 00.349 1.547 2.694 2.694 0 001 1.1 2.852 2.852 0 001.539.408zm8.976 1a2.943 2.943 0 01-2.2-.841 3.345 3.345 0 01-.825-2.44v-4.654h1.088v4.42a2.954 2.954 0 00.535 1.87 2.024 2.024 0 001.692.68 2.346 2.346 0 001.42-.416 2.416 2.416 0 00.832-1.08 3.689 3.689 0 00.264-1.377v-4.1h1.088V40.9h-1.088v-1.751a2.876 2.876 0 01-2.805 1.955zm6.63-12.1h1.094v11.9h-1.088zm11.118 0v11.9h-1.071v-1.666a3.059 3.059 0 01-1.2 1.352 3.4 3.4 0 01-1.844.518 3.929 3.929 0 01-2.065-.527 3.5 3.5 0 01-1.343-1.453 4.555 4.555 0 01-.468-2.083 4.5 4.5 0 01.476-2.083 3.6 3.6 0 011.36-1.461 3.891 3.891 0 012.057-.536 3.369 3.369 0 011.853.51 3.013 3.013 0 011.173 1.377V29zm-4 11.118a2.957 2.957 0 001.589-.416 2.765 2.765 0 001.029-1.123 3.356 3.356 0 00.357-1.538 3.4 3.4 0 00-.357-1.556 2.76 2.76 0 00-1.029-1.121 2.948 2.948 0 00-1.589-.417 2.717 2.717 0 00-2.108.876 3.161 3.161 0 00-.8 2.218 3.42 3.42 0 00.357 1.581 2.685 2.685 0 001.02 1.1 2.909 2.909 0 001.538.396zm15.249-7.157a3.725 3.725 0 011.963.518 3.594 3.594 0 011.343 1.446 4.5 4.5 0 01.485 2.116 4.4 4.4 0 01-.493 2.1 3.61 3.61 0 01-1.377 1.445 3.862 3.862 0 01-1.989.518 3.393 3.393 0 01-1.836-.51 3.11 3.11 0 01-1.207-1.36V40.9h-1.088V29h1.088v5.848a2.885 2.885 0 011.215-1.385 3.629 3.629 0 011.903-.502zm-.187 7.157a2.776 2.776 0 002.516-1.5 3.3 3.3 0 00.374-1.581 3.342 3.342 0 00-.374-1.589 2.768 2.768 0 00-2.516-1.5 2.948 2.948 0 00-1.539.4 2.831 2.831 0 00-1.054 1.1 3.278 3.278 0 00-.382 1.589 3.233 3.233 0 00.382 1.581 2.838 2.838 0 001.063 1.1 2.965 2.965 0 001.537.4zm12.733-3.57c0 .125-.011.368-.034.731h-6.256a2.911 2.911 0 00.731 2.083 2.607 2.607 0 001.989.773 2.828 2.828 0 001.487-.374 2.034 2.034 0 00.876-1.037h1.1a2.8 2.8 0 01-1.19 1.717 3.886 3.886 0 01-2.278.663 3.971 3.971 0 01-2.023-.5 3.365 3.365 0 01-1.335-1.428 4.725 4.725 0 01-.467-2.151 4.669 4.669 0 01.467-2.142 3.4 3.4 0 011.318-1.419 4.135 4.135 0 013.868-.043 3.27 3.27 0 011.283 1.275 3.715 3.715 0 01.471 1.852zm-1.071-.136a2.626 2.626 0 00-.7-1.861 2.473 2.473 0 00-1.87-.706 2.522 2.522 0 00-1.853.706 2.8 2.8 0 00-.8 1.861zm14.161.136c0 .125-.011.368-.034.731h-6.256a2.911 2.911 0 00.731 2.083 2.607 2.607 0 001.989.773 2.834 2.834 0 001.488-.374 2.037 2.037 0 00.875-1.037h1.105a2.8 2.8 0 01-1.19 1.717 3.886 3.886 0 01-2.278.663 3.971 3.971 0 01-2.023-.5 3.356 3.356 0 01-1.334-1.428 4.712 4.712 0 01-.468-2.151 4.656 4.656 0 01.468-2.142 3.386 3.386 0 011.317-1.419 4.135 4.135 0 013.868-.043 3.27 3.27 0 011.283 1.275 3.715 3.715 0 01.466 1.852zm-1.071-.136a2.626 2.626 0 00-.7-1.861 2.473 2.473 0 00-1.87-.706 2.522 2.522 0 00-1.853.706 2.8 2.8 0 00-.8 1.861zm6.307 4.692a3.935 3.935 0 01-2.066-.527 3.509 3.509 0 01-1.343-1.453 4.568 4.568 0 01-.467-2.083 4.5 4.5 0 01.476-2.083 3.6 3.6 0 011.36-1.461 3.891 3.891 0 012.057-.536 3.369 3.369 0 011.853.51 3.013 3.013 0 011.173 1.377v-1.683h1.071V40.9H216.5v-1.666a3.059 3.059 0 01-1.2 1.352 3.4 3.4 0 01-1.848.514zm.119-.986a2.957 2.957 0 001.589-.416 2.765 2.765 0 001.029-1.123 3.356 3.356 0 00.357-1.538 3.4 3.4 0 00-.357-1.556 2.76 2.76 0 00-1.029-1.121 2.948 2.948 0 00-1.589-.417 2.717 2.717 0 00-2.108.876 3.161 3.161 0 00-.8 2.218 3.42 3.42 0 00.357 1.581 2.685 2.685 0 001.02 1.1 2.909 2.909 0 001.538.396zm9.2.986a3.919 3.919 0 01-1.666-.331 2.692 2.692 0 01-1.1-.893 2.121 2.121 0 01-.391-1.241h1.088a1.373 1.373 0 00.569 1.114 2.447 2.447 0 001.556.45 2.106 2.106 0 001.275-.349 1.142 1.142 0 00.476-.977 1.114 1.114 0 00-.289-.8 2.138 2.138 0 00-1.02-.493l-1.615-.408a2.042 2.042 0 01-1.8-2.074 1.844 1.844 0 01.79-1.556 3.912 3.912 0 014.148.018 1.968 1.968 0 01.774 1.64h-1.071a1.224 1.224 0 00-.519-1.012 2.283 2.283 0 00-1.368-.365 2.107 2.107 0 00-1.207.323 1.044 1.044 0 00-.476.918q0 .918 1.309 1.241l1.632.442a2.512 2.512 0 011.36.757 1.952 1.952 0 01.459 1.317 1.993 1.993 0 01-.782 1.683 3.427 3.427 0 01-2.128.592zm11.951-7.939v7.99a3.519 3.519 0 01-1.088 2.822 3.649 3.649 0 01-2.448.782 3.938 3.938 0 01-2.6-.782 2.532 2.532 0 01-.867-1.989h1.1a1.827 1.827 0 00.586 1.335 2.573 2.573 0 001.76.5q2.464 0 2.465-2.737v-1.9a2.988 2.988 0 01-2.89 1.9 2.8 2.8 0 01-2.286-.892 3.881 3.881 0 01-.74-2.542v-4.487h1.093v4.284a3.243 3.243 0 00.51 1.981 2.088 2.088 0 001.768.671 2.279 2.279 0 001.4-.425 2.638 2.638 0 00.859-1.105 3.649 3.649 0 00.289-1.445v-3.961zM4.267 58.884a1.65 1.65 0 00-1.062.332 1.656 1.656 0 00-.417 1.334v1.615h2.363v.935H2.788v6.8H1.7v-6.8H0v-.935h1.7V60.6a2.649 2.649 0 01.7-2.133 2.477 2.477 0 011.615-.57 2.732 2.732 0 011.139.2v.952a3.131 3.131 0 00-.887-.165zm5.8 11.22a3.965 3.965 0 01-2.091-.544 3.742 3.742 0 01-1.394-1.471 4.538 4.538 0 010-4.114 3.746 3.746 0 011.394-1.47 3.965 3.965 0 012.091-.544 4 4 0 012.108.544 3.746 3.746 0 011.394 1.47 4.538 4.538 0 010 4.114 3.742 3.742 0 01-1.394 1.471 4 4 0 01-2.111.54zm0-1a2.893 2.893 0 001.547-.408 2.675 2.675 0 001.011-1.105 3.679 3.679 0 000-3.128 2.675 2.675 0 00-1.011-1.1 2.893 2.893 0 00-1.547-.408 2.852 2.852 0 00-1.539.408 2.69 2.69 0 00-1 1.114 3.5 3.5 0 00-.348 1.572 3.414 3.414 0 00.348 1.547 2.7 2.7 0 001 1.105 2.852 2.852 0 001.536.399zm6.033-6.939h1.088v2.04a2.853 2.853 0 01.943-1.64 2.42 2.42 0 011.556-.553 2.6 2.6 0 01.7.068v1a5.167 5.167 0 00-.731-.051 2.007 2.007 0 00-1.856 1.049 4.808 4.808 0 00-.612 2.473V69.9H16.1zm17.085 3.383c0 .125-.011.368-.034.731h-6.257a2.911 2.911 0 00.731 2.083 2.607 2.607 0 001.989.773 2.828 2.828 0 001.487-.374 2.034 2.034 0 00.876-1.037h1.105a2.8 2.8 0 01-1.19 1.717 3.886 3.886 0 01-2.278.663 3.971 3.971 0 01-2.023-.5 3.365 3.365 0 01-1.335-1.428 4.725 4.725 0 01-.467-2.151 4.669 4.669 0 01.467-2.142 3.4 3.4 0 011.318-1.419 4.133 4.133 0 013.867-.043 3.266 3.266 0 011.284 1.279 3.715 3.715 0 01.459 1.848zm-1.071-.136a2.626 2.626 0 00-.7-1.861 2.473 2.473 0 00-1.87-.706 2.522 2.522 0 00-1.853.706 2.8 2.8 0 00-.8 1.861zm1.836-3.247h1.173l2.754 6.273 2.771-6.273h1.172L38.335 69.9h-.9zm16.03 3.383c0 .125-.011.368-.034.731H43.69a2.911 2.911 0 00.731 2.083 2.607 2.607 0 001.989.773 2.828 2.828 0 001.487-.374 2.034 2.034 0 00.876-1.037h1.1a2.8 2.8 0 01-1.19 1.717 3.886 3.886 0 01-2.278.663 3.971 3.971 0 01-2.023-.5 3.365 3.365 0 01-1.335-1.428 4.725 4.725 0 01-.467-2.151 4.669 4.669 0 01.467-2.142 3.4 3.4 0 011.318-1.419 4.135 4.135 0 013.868-.043 3.27 3.27 0 011.288 1.279 3.715 3.715 0 01.459 1.848zm-1.071-.136a2.626 2.626 0 00-.7-1.861 2.473 2.473 0 00-1.87-.706 2.522 2.522 0 00-1.853.706 2.8 2.8 0 00-.8 1.861zm3.111-3.247h1.088v2.04a2.853 2.853 0 01.943-1.64 2.42 2.42 0 011.556-.553 2.6 2.6 0 01.7.068v1a5.167 5.167 0 00-.731-.051 2.007 2.007 0 00-1.853 1.046 4.808 4.808 0 00-.612 2.473V69.9H52.02zm12.954 0v7.99a3.519 3.519 0 01-1.088 2.822 3.649 3.649 0 01-2.448.782 3.938 3.938 0 01-2.6-.782 2.532 2.532 0 01-.867-1.989h1.105a1.827 1.827 0 00.586 1.335 2.573 2.573 0 001.76.5q2.465 0 2.465-2.737v-1.9a2.988 2.988 0 01-2.89 1.9 2.8 2.8 0 01-2.286-.892 3.881 3.881 0 01-.74-2.542v-4.487h1.088v4.284a3.243 3.243 0 00.51 1.981 2.088 2.088 0 001.768.671 2.284 2.284 0 001.4-.425 2.644 2.644 0 00.858-1.105 3.649 3.649 0 00.289-1.445v-3.961zm6.018 7.935a3.965 3.965 0 01-2.092-.54 3.742 3.742 0 01-1.394-1.471 4.538 4.538 0 010-4.114 3.746 3.746 0 011.394-1.47 4.323 4.323 0 014.2 0 3.746 3.746 0 011.394 1.47 4.538 4.538 0 010 4.114A3.742 3.742 0 0173.1 69.56a4 4 0 01-2.108.54zm0-1a2.893 2.893 0 001.547-.408 2.675 2.675 0 001.011-1.105 3.679 3.679 0 000-3.128 2.675 2.675 0 00-1.011-1.1 2.893 2.893 0 00-1.547-.408 2.852 2.852 0 00-1.539.408 2.69 2.69 0 00-1 1.114 3.5 3.5 0 00-.348 1.572 3.414 3.414 0 00.348 1.547 2.7 2.7 0 001 1.105 2.852 2.852 0 001.539.403zm6.035-6.936h1.088v1.768a2.766 2.766 0 011.028-1.432 3.127 3.127 0 011.879-.536 2.781 2.781 0 012.2.841 3.591 3.591 0 01.739 2.44V69.9h-1.086v-4.233a3.285 3.285 0 00-.544-2.074 2.006 2.006 0 00-1.666-.68 2.278 2.278 0 00-1.9.825 3.47 3.47 0 00-.654 2.218V69.9h-1.084zm16.286 3.383c0 .125-.011.368-.034.731h-6.256a2.911 2.911 0 00.731 2.083 2.607 2.607 0 001.989.773 2.828 2.828 0 001.487-.374 2.034 2.034 0 00.876-1.037h1.105a2.8 2.8 0 01-1.19 1.717 3.886 3.886 0 01-2.278.663 3.971 3.971 0 01-2.023-.5 3.365 3.365 0 01-1.335-1.428 4.725 4.725 0 01-.467-2.151 4.669 4.669 0 01.467-2.142 3.4 3.4 0 011.315-1.419 4.135 4.135 0 013.868-.043 3.27 3.27 0 011.286 1.28 3.715 3.715 0 01.459 1.848zm-1.071-.136a2.626 2.626 0 00-.7-1.861 2.473 2.473 0 00-1.87-.706 2.522 2.522 0 00-1.853.706 2.8 2.8 0 00-.8 1.861zM96.39 70a1.045 1.045 0 01-1.037-1.037 1.017 1.017 0 01.306-.748 1 1 0 01.731-.306 1.045 1.045 0 011.054 1.054 1 1 0 01-.306.731 1.017 1.017 0 01-.748.306zm14.28-2.244h-5.27l-.68 2.142h-1.241L107.525 58h1.037l4.046 11.9h-1.241zm-.323-1.037l-2.312-7.174-2.3 7.174zm3.961-4.556h1.092v1.768a2.762 2.762 0 011.029-1.436 3.121 3.121 0 011.878-.536 2.777 2.777 0 012.2.841 3.586 3.586 0 01.74 2.44v4.66h-1.088v-4.233a3.285 3.285 0 00-.544-2.074 2.006 2.006 0 00-1.666-.68 2.278 2.278 0 00-1.9.825 3.47 3.47 0 00-.654 2.218V69.9h-1.088zM131.189 58v11.9h-1.071v-1.666a3.062 3.062 0 01-1.2 1.352 3.4 3.4 0 01-1.845.518 3.935 3.935 0 01-2.066-.527 3.509 3.509 0 01-1.343-1.453 4.568 4.568 0 01-.467-2.083 4.5 4.5 0 01.476-2.083 3.6 3.6 0 011.36-1.461 3.891 3.891 0 012.057-.536 3.369 3.369 0 011.853.51 3.013 3.013 0 011.173 1.377V58zm-3.995 11.118a2.957 2.957 0 001.589-.416 2.765 2.765 0 001.029-1.123 3.356 3.356 0 00.357-1.538 3.4 3.4 0 00-.357-1.556 2.76 2.76 0 00-1.029-1.121 2.948 2.948 0 00-1.589-.417 2.717 2.717 0 00-2.108.876 3.161 3.161 0 00-.8 2.218 3.42 3.42 0 00.357 1.581 2.685 2.685 0 001.02 1.1 2.909 2.909 0 001.531.396zm11.05-6.953h1.088v1.768a2.766 2.766 0 011.028-1.433 3.127 3.127 0 011.879-.536 2.776 2.776 0 012.2.841 3.586 3.586 0 01.74 2.44V69.9h-1.088v-4.233a3.285 3.285 0 00-.544-2.074 2.006 2.006 0 00-1.666-.68 2.275 2.275 0 00-1.9.825 3.464 3.464 0 00-.655 2.218V69.9h-1.088zm12.869 7.935a3.965 3.965 0 01-2.091-.544 3.742 3.742 0 01-1.394-1.471 4.538 4.538 0 010-4.114 3.746 3.746 0 011.394-1.47 4.323 4.323 0 014.2 0 3.746 3.746 0 011.394 1.47 4.538 4.538 0 010 4.114 3.742 3.742 0 01-1.394 1.471 4 4 0 01-2.109.544zm0-1a2.893 2.893 0 001.547-.408 2.675 2.675 0 001.011-1.105 3.679 3.679 0 000-3.128 2.675 2.675 0 00-1.011-1.1 2.893 2.893 0 00-1.547-.408 2.852 2.852 0 00-1.539.408 2.69 2.69 0 00-1 1.114 3.5 3.5 0 00-.348 1.572 3.414 3.414 0 00.348 1.547 2.7 2.7 0 001 1.105 2.852 2.852 0 001.539.403zm4.845-6.936h1.19l2.125 6.188 2.091-6.188h1.173l2.091 6.188 2.142-6.188h1.19l-2.873 7.736h-.952l-2.193-6.392-2.176 6.392h-.935zm17.867 0h1.088V69.9h-1.088zm.544-1.564a.96.96 0 01-.722-.289.983.983 0 01-.281-.714 1 1 0 01.281-.731.96.96 0 01.722-.289.988.988 0 011.02 1.02.97.97 0 01-.289.714.989.989 0 01-.731.289zm6.239 8.4a4.123 4.123 0 001.037-.1v.969a4.592 4.592 0 01-1.258.136 2.455 2.455 0 01-1.6-.51 2.671 2.671 0 01-.629-2.108V63.1h-1.513v-.935h1.513v-2.584h1.071v2.584h2.142v.935h-2.142v4.063a2.207 2.207 0 00.349 1.471 1.357 1.357 0 001.03.366zm7.242-6.834h1.088V69.9h-1.088zm.544-1.564a.962.962 0 01-.723-.289.99.99 0 01-.28-.714 1.011 1.011 0 01.28-.731.962.962 0 01.723-.289.988.988 0 011.02 1.02.97.97 0 01-.289.714.989.989 0 01-.731.287zm5.746 9.5a3.919 3.919 0 01-1.666-.331 2.692 2.692 0 01-1.1-.893 2.121 2.121 0 01-.391-1.241h1.088a1.371 1.371 0 00.57 1.114 2.442 2.442 0 001.555.45 2.106 2.106 0 001.275-.349 1.142 1.142 0 00.476-.977 1.114 1.114 0 00-.289-.8 2.138 2.138 0 00-1.02-.493l-1.615-.408a2.042 2.042 0 01-1.8-2.074 1.842 1.842 0 01.791-1.556 3.318 3.318 0 012.031-.586 3.356 3.356 0 012.117.6 1.97 1.97 0 01.773 1.64h-1.071a1.226 1.226 0 00-.518-1.012 2.288 2.288 0 00-1.369-.365 2.107 2.107 0 00-1.207.323 1.044 1.044 0 00-.476.918q0 .918 1.309 1.241l1.632.442a2.512 2.512 0 011.36.757 1.952 1.952 0 01.459 1.317 1.993 1.993 0 01-.782 1.683 3.427 3.427 0 01-2.132.598zm6.069-.1a1.045 1.045 0 01-1.037-1.037 1.017 1.017 0 01.306-.748 1 1 0 01.731-.306 1.045 1.045 0 011.054 1.054 1 1 0 01-.306.731 1.017 1.017 0 01-.748.304z" fill="#222"/></g></g></g></svg>