<svg width="704" height="222" viewBox="0 0 704 222" fill="none" xmlns="http://www.w3.org/2000/svg"><path d="M50.902 195h1.632l-3.444-8.568h-1.788L43.858 195h1.56l.816-2.1h3.864l.804 2.1zm-2.736-7.032h.036l1.416 3.696h-2.892l1.44-3.696zm8.71 2.736c0-1.944.863-3.156 2.411-3.156 1.224 0 1.788.696 1.956 1.572h1.548c-.3-1.68-1.452-2.832-3.504-2.832-2.4 0-4.032 1.776-4.032 4.416 0 2.664 1.632 4.44 4.032 4.44 2.052 0 3.204-1.164 3.504-2.832h-1.548c-.168.876-.732 1.572-1.956 1.572-1.548 0-2.412-1.224-2.412-3.18zM69.034 195h1.584v-7.308h3.084v-1.26h-7.74v1.26h3.072V195zm8.492 0h1.596v-8.568h-1.596V195zm8.483 0h1.776l3.396-8.568h-1.62l-2.616 6.864h-.024l-2.604-6.864h-1.692L86.01 195zm14.17 0h1.632l-3.444-8.568H96.58L93.135 195h1.56l.817-2.1h3.864l.804 2.1zm-2.737-7.032h.037l1.415 3.696h-2.891l1.44-3.696zm9.633 7.032h1.584v-7.308h3.084v-1.26h-7.74v1.26h3.072V195zm8.492 0h1.596v-8.568h-1.596V195zm13.656-4.284c0-2.568-1.572-4.428-4.092-4.428-2.52 0-4.092 1.86-4.092 4.428 0 2.58 1.572 4.428 4.092 4.428 2.52 0 4.092-1.848 4.092-4.428zm-1.62 0c0 1.908-.84 3.168-2.472 3.168-1.644 0-2.472-1.26-2.472-3.168 0-1.896.828-3.168 2.472-3.168 1.632 0 2.472 1.272 2.472 3.168zm7.339-4.284h-1.86V195h1.524v-6.636h.024l4.404 6.636h1.476v-8.568h-1.512v6.072h-.024l-4.032-6.072zm9.351 5.976c.156 1.884 1.728 2.736 3.768 2.736 1.896 0 3.324-1.032 3.324-2.592 0-1.38-.84-2.076-2.244-2.34l-1.656-.324c-.924-.18-1.368-.408-1.368-1.116 0-.756.648-1.296 1.68-1.296 1.068 0 1.812.468 1.92 1.308h1.5c-.168-1.608-1.392-2.496-3.432-2.496-1.872 0-3.216 1.056-3.216 2.58 0 1.5 1.02 2.1 2.28 2.328l1.572.288c1.032.192 1.404.54 1.404 1.164 0 .864-.792 1.32-1.812 1.32-1.068 0-2.076-.396-2.184-1.56h-1.536zM166.902 195h1.752l2.364-8.568h-1.56l-1.704 6.648h-.024l-1.668-6.648h-1.608l-1.668 6.648h-.024l-1.716-6.648h-1.632l2.364 8.568h1.74l1.68-6.612h.024l1.68 6.612zm7.691 0h1.596v-8.568h-1.596V195zm8.496 0h1.584v-7.308h3.084v-1.26h-7.74v1.26h3.072V195zm8.492 0h1.596v-3.72h4.392V195h1.584v-8.568h-1.584v3.6h-4.392v-3.6h-1.596V195zm18.695-8.568h-1.86V195h1.524v-6.636h.024l4.404 6.636h1.476v-8.568h-1.512v6.072h-.024l-4.032-6.072zM226.395 195h1.632l-3.444-8.568h-1.788L219.351 195h1.56l.816-2.1h3.864l.804 2.1zm-2.736-7.032h.036l1.416 3.696h-2.892l1.44-3.696zm9.633 7.032h1.584v-7.308h3.084v-1.26h-7.74v1.26h3.072V195zm8.492 0h1.596v-8.568h-1.596V195zm8.483 0h1.776l3.396-8.568h-1.62l-2.616 6.864h-.024l-2.604-6.864h-1.692l3.384 8.568zm14.896 0v-1.26h-4.644v-2.4h4.068v-1.26h-4.068v-2.388h4.596v-1.26h-6.156V195h6.204zm-159.789 18h1.584v-7.308h3.084v-1.26h-7.74v1.26h3.072V213zm14.697 0v-1.26h-4.644v-2.4h4.068v-1.26h-4.068v-2.388h4.596v-1.26h-6.156V213h6.204zm5.235-4.296c0-1.944.864-3.156 2.412-3.156 1.224 0 1.788.696 1.956 1.572h1.548c-.3-1.68-1.452-2.832-3.504-2.832-2.4 0-4.032 1.776-4.032 4.416 0 2.664 1.632 4.44 4.032 4.44 2.052 0 3.204-1.164 3.504-2.832h-1.548c-.168.876-.732 1.572-1.956 1.572-1.548 0-2.412-1.224-2.412-3.18zm9.72 4.296h1.596v-3.72h4.392V213h1.584v-8.568h-1.584v3.6h-4.392v-3.6h-1.596V213zm13.776-8.568h-1.86V213h1.524v-6.636h.024l4.404 6.636h1.476v-8.568h-1.512v6.072h-.024l-4.032-6.072zm17.631 4.284c0-2.568-1.572-4.428-4.092-4.428-2.52 0-4.092 1.86-4.092 4.428 0 2.58 1.572 4.428 4.092 4.428 2.52 0 4.092-1.848 4.092-4.428zm-1.62 0c0 1.908-.84 3.168-2.472 3.168-1.644 0-2.472-1.26-2.472-3.168 0-1.896.828-3.168 2.472-3.168 1.632 0 2.472 1.272 2.472 3.168zm5.48 4.284h6.012v-1.26h-4.416v-7.308h-1.596V213zm17.311-4.284c0-2.568-1.572-4.428-4.092-4.428-2.52 0-4.092 1.86-4.092 4.428 0 2.58 1.572 4.428 4.092 4.428 2.52 0 4.092-1.848 4.092-4.428zm-1.62 0c0 1.908-.84 3.168-2.472 3.168-1.644 0-2.472-1.26-2.472-3.168 0-1.896.828-3.168 2.472-3.168 1.632 0 2.472 1.272 2.472 3.168zm5.07-.012c0 2.652 1.62 4.44 4.02 4.44 1.056 0 2.148-.552 2.46-1.368l.108 1.224h1.236v-4.368h-3.24v1.152h1.656v.3c0 1.056-.864 1.8-2.124 1.8-1.596 0-2.496-1.224-2.496-3.18 0-1.944.924-3.156 2.52-3.156 1.152 0 1.8.6 2.004 1.56h1.572c-.336-1.692-1.512-2.82-3.576-2.82-2.448 0-4.14 1.776-4.14 4.416zM206.709 213v-3.516l3.324-5.052h-1.74l-2.316 3.66h-.024l-2.376-3.66h-1.776l3.312 5.052V213h1.596zm194.823-18h1.632l-3.444-8.568h-1.788L394.488 195h1.56l.816-2.1h3.864l.804 2.1zm-2.736-7.032h.036l1.416 3.696h-2.892l1.44-3.696zm9.445 7.032v-3.204h1.92l1.956 3.204h1.74l-2.148-3.444c.972-.312 1.824-1.104 1.824-2.436 0-1.752-1.176-2.688-3.18-2.688h-3.672V195h1.56zm0-4.452v-2.856h1.932c1.188 0 1.788.492 1.788 1.428 0 .936-.6 1.428-1.788 1.428h-1.932zM428.712 195h1.632l-3.444-8.568h-1.788L421.668 195h1.56l.816-2.1h3.864l.804 2.1zm-2.736-7.032h.036l1.416 3.696h-2.892l1.44-3.696zm8.709 2.736c0-1.944.864-3.156 2.412-3.156 1.224 0 1.788.696 1.956 1.572h1.548c-.3-1.68-1.452-2.832-3.504-2.832-2.4 0-4.032 1.776-4.032 4.416 0 2.664 1.632 4.44 4.032 4.44 2.052 0 3.204-1.164 3.504-2.832h-1.548c-.168.876-.732 1.572-1.956 1.572-1.548 0-2.412-1.224-2.412-3.18zm12.16 4.296h1.584v-7.308h3.084v-1.26h-7.74v1.26h3.072V195zm8.492 0h1.596v-8.568h-1.596V195zm8.483 0h1.776l3.396-8.568h-1.62l-2.616 6.864h-.024l-2.604-6.864h-1.692L463.82 195zm14.17 0h1.632l-3.444-8.568h-1.788L470.946 195h1.56l.816-2.1h3.864l.804 2.1zm-2.736-7.032h.036l1.416 3.696h-2.892l1.44-3.696zm9.632 7.032h1.584v-7.308h3.084v-1.26h-7.74v1.26h3.072V195zm8.493 0h1.596v-8.568h-1.596V195zm13.655-4.284c0-2.568-1.572-4.428-4.092-4.428-2.52 0-4.092 1.86-4.092 4.428 0 2.58 1.572 4.428 4.092 4.428 2.52 0 4.092-1.848 4.092-4.428zm-1.62 0c0 1.908-.84 3.168-2.472 3.168-1.644 0-2.472-1.26-2.472-3.168 0-1.896.828-3.168 2.472-3.168 1.632 0 2.472 1.272 2.472 3.168zm7.339-4.284h-1.86V195h1.524v-6.636h.024l4.404 6.636h1.476v-8.568h-1.512v6.072h-.024l-4.032-6.072zm9.352 5.976c.156 1.884 1.728 2.736 3.768 2.736 1.896 0 3.324-1.032 3.324-2.592 0-1.38-.84-2.076-2.244-2.34l-1.656-.324c-.924-.18-1.368-.408-1.368-1.116 0-.756.648-1.296 1.68-1.296 1.068 0 1.812.468 1.92 1.308h1.5c-.168-1.608-1.392-2.496-3.432-2.496-1.872 0-3.216 1.056-3.216 2.58 0 1.5 1.02 2.1 2.28 2.328l1.572.288c1.032.192 1.404.54 1.404 1.164 0 .864-.792 1.32-1.812 1.32-1.068 0-2.076-.396-2.184-1.56h-1.536zM541.748 195c1.98 0 3.132-.828 3.132-2.436 0-.996-.708-1.752-1.644-2.004.696-.204 1.296-1.032 1.296-1.788 0-1.536-1.092-2.34-3.096-2.34h-3.444V195h3.756zm-2.196-4.944v-2.448h1.884c1.044 0 1.56.444 1.56 1.224 0 .744-.504 1.224-1.572 1.224h-1.872zm0 1.14h2.064c1.104 0 1.692.504 1.692 1.308 0 .828-.576 1.32-1.68 1.32h-2.076v-2.628zM554.928 195h1.632l-3.444-8.568h-1.788L547.884 195h1.56l.816-2.1h3.864l.804 2.1zm-2.736-7.032h.036l1.416 3.696h-2.892l1.44-3.696zm7.298 4.44c.156 1.884 1.728 2.736 3.768 2.736 1.896 0 3.324-1.032 3.324-2.592 0-1.38-.84-2.076-2.244-2.34l-1.656-.324c-.924-.18-1.368-.408-1.368-1.116 0-.756.648-1.296 1.68-1.296 1.068 0 1.812.468 1.92 1.308h1.5c-.168-1.608-1.392-2.496-3.432-2.496-1.872 0-3.216 1.056-3.216 2.58 0 1.5 1.02 2.1 2.28 2.328l1.572.288c1.032.192 1.404.54 1.404 1.164 0 .864-.792 1.32-1.812 1.32-1.068 0-2.076-.396-2.184-1.56h-1.536zM576.662 195v-1.26h-4.644v-2.4h4.068v-1.26h-4.068v-2.388h4.596v-1.26h-6.156V195h6.204zm7.382-8.568h-3.3V195h3.3c2.58 0 4.284-1.704 4.284-4.284 0-2.568-1.704-4.284-4.284-4.284zm0 1.26c1.704 0 2.652 1.116 2.652 3.024s-.948 3.024-2.652 3.024h-1.74v-6.048h1.74zM603.315 195h1.632l-3.444-8.568h-1.788L596.271 195h1.56l.816-2.1h3.864l.804 2.1zm-2.736-7.032h.036l1.416 3.696h-2.892l1.44-3.696zm9.445 7.032v-3.204h1.92L613.9 195h1.74l-2.148-3.444c.972-.312 1.824-1.104 1.824-2.436 0-1.752-1.176-2.688-3.18-2.688h-3.672V195h1.56zm0-4.452v-2.856h1.932c1.188 0 1.788.492 1.788 1.428 0 .936-.6 1.428-1.788 1.428h-1.932zm17.064.168c0-2.568-1.572-4.428-4.092-4.428-2.52 0-4.092 1.86-4.092 4.428 0 2.58 1.572 4.428 4.092 4.428 2.52 0 4.092-1.848 4.092-4.428zm-1.62 0c0 1.908-.84 3.168-2.472 3.168-1.644 0-2.472-1.26-2.472-3.168 0-1.896.828-3.168 2.472-3.168 1.632 0 2.472 1.272 2.472 3.168zm12.691.828v-5.112h-1.584v5.1c0 1.5-.696 2.34-2.076 2.34-1.38 0-2.064-.84-2.064-2.34v-5.1h-1.596v5.088c0 2.364 1.356 3.624 3.66 3.624 2.316 0 3.66-1.26 3.66-3.6zm6.095-5.112h-1.86V195h1.524v-6.636h.024l4.404 6.636h1.476v-8.568h-1.512v6.072h-.024l-4.032-6.072zm13.215 0h-3.3V195h3.3c2.58 0 4.284-1.704 4.284-4.284 0-2.568-1.704-4.284-4.284-4.284zm0 1.26c1.704 0 2.652 1.116 2.652 3.024s-.948 3.024-2.652 3.024h-1.74v-6.048h1.74zM481.147 213h1.632l-3.444-8.568h-1.788L474.103 213h1.56l.816-2.1h3.864l.804 2.1zm-2.736-7.032h.036l1.416 3.696h-2.892l1.44-3.696zm9.745-1.536h-1.86V213h1.524v-6.636h.024l4.404 6.636h1.476v-8.568h-1.512v6.072h-.024l-4.032-6.072zM509.194 213h1.632l-3.444-8.568h-1.788L502.15 213h1.56l.816-2.1h3.864l.804 2.1zm-2.736-7.032h.036l1.416 3.696h-2.892l1.44-3.696zm9.633 7.032h1.584v-7.308h3.084v-1.26h-7.74v1.26h3.072V213zm8.492 0h1.596v-3.72h4.392V213h1.584v-8.568h-1.584v3.6h-4.392v-3.6h-1.596V213zm18.12 0v-1.26h-4.644v-2.4h4.068v-1.26h-4.068v-2.388h4.596v-1.26h-6.156V213h6.204zm4.083 0h6.012v-1.26h-4.416v-7.308h-1.596V213zm16.197 0v-1.26h-4.644v-2.4h4.068v-1.26h-4.068v-2.388h4.596v-1.26h-6.156V213h6.204zm6.639 0h1.584v-7.308h3.084v-1.26h-7.74v1.26h3.072V213zm14.697 0v-1.26h-4.644v-2.4h4.068v-1.26h-4.068v-2.388h4.596v-1.26h-6.156V213h6.204zm-82.846-100.436h7.686v2.743h-7.686v7.957h-2.781v-7.957h-7.687v-2.743h7.687v-7.995h2.781v7.995zM231.704 15h2.112V5.256h4.112v-1.68h-10.32v1.68h4.096V15zm19.483 0h2.336l3.152-11.424h-2.08l-2.272 8.864h-.032l-2.224-8.864h-2.144l-2.224 8.864h-.032l-2.288-8.864h-2.176L244.355 15h2.32l2.24-8.816h.032l2.24 8.816zm19.603-5.712c0-3.424-2.096-5.904-5.456-5.904-3.36 0-5.456 2.48-5.456 5.904 0 3.44 2.096 5.904 5.456 5.904 3.36 0 5.456-2.464 5.456-5.904zm-2.16 0c0 2.544-1.12 4.224-3.296 4.224-2.192 0-3.296-1.68-3.296-4.224 0-2.528 1.104-4.224 3.296-4.224 2.176 0 3.296 1.696 3.296 4.224zm13.802-.016c0-2.592 1.152-4.208 3.216-4.208 1.632 0 2.384.928 2.608 2.096h2.064c-.4-2.24-1.936-3.776-4.672-3.776-3.2 0-5.376 2.368-5.376 5.888 0 3.552 2.176 5.92 5.376 5.92 2.736 0 4.272-1.552 4.672-3.776h-2.064c-.224 1.168-.976 2.096-2.608 2.096-2.064 0-3.216-1.632-3.216-4.24zm22.449.016c0-3.424-2.096-5.904-5.456-5.904-3.36 0-5.456 2.48-5.456 5.904 0 3.44 2.096 5.904 5.456 5.904 3.36 0 5.456-2.464 5.456-5.904zm-2.16 0c0 2.544-1.12 4.224-3.296 4.224-2.192 0-3.296-1.68-3.296-4.224 0-2.528 1.104-4.224 3.296-4.224 2.176 0 3.296 1.696 3.296 4.224zm8.986-5.712h-2.48V15h2.032V6.152h.032L317.163 15h1.968V3.576h-2.016v8.096h-.032l-5.376-8.096zm13.956 5.696c0-2.592 1.152-4.208 3.216-4.208 1.632 0 2.384.928 2.608 2.096h2.064c-.4-2.24-1.936-3.776-4.672-3.776-3.2 0-5.376 2.368-5.376 5.888 0 3.552 2.176 5.92 5.376 5.92 2.736 0 4.272-1.552 4.672-3.776h-2.064c-.224 1.168-.976 2.096-2.608 2.096-2.064 0-3.216-1.632-3.216-4.24zM346.096 15v-1.68h-6.192v-3.2h5.424V8.44h-5.424V5.256h6.128v-1.68h-8.208V15h8.272zm9.38-4.208c2.688 0 4.256-1.216 4.256-3.6 0-2.384-1.568-3.616-4.272-3.616h-4.72V15h2.08v-4.208h2.656zm-2.656-1.664V5.256h2.464c1.568 0 2.352.624 2.352 1.936 0 1.296-.784 1.936-2.352 1.936h-2.464zM367.345 15h2.112V5.256h4.112v-1.68h-10.32v1.68h4.096V15zm15.53-3.456c.208 2.512 2.304 3.648 5.024 3.648 2.528 0 4.432-1.376 4.432-3.456 0-1.84-1.12-2.768-2.992-3.12l-2.208-.432c-1.232-.24-1.824-.544-1.824-1.488 0-1.008.864-1.728 2.24-1.728 1.424 0 2.416.624 2.56 1.744h2c-.224-2.144-1.856-3.328-4.576-3.328-2.496 0-4.288 1.408-4.288 3.44 0 2 1.36 2.8 3.04 3.104l2.096.384c1.376.256 1.872.72 1.872 1.552 0 1.152-1.056 1.76-2.416 1.76-1.424 0-2.768-.528-2.912-2.08h-2.048zM399.763 15h2.112V5.256h4.112v-1.68h-10.32v1.68h4.096V15zm12.604 0v-4.272h2.56L417.535 15h2.32l-2.864-4.592c1.296-.416 2.432-1.472 2.432-3.248 0-2.336-1.568-3.584-4.24-3.584h-4.896V15h2.08zm0-5.936V5.256h2.576c1.584 0 2.384.656 2.384 1.904 0 1.248-.8 1.904-2.384 1.904h-2.576zM432.302 15v-1.68h-6.192v-3.2h5.424V8.44h-5.424V5.256h6.128v-1.68h-8.208V15h8.272zm12.916 0h2.176l-4.592-11.424h-2.384L435.826 15h2.08l1.088-2.8h5.152l1.072 2.8zm-3.648-9.376h.048l1.888 4.928h-3.856l1.92-4.928zM458.068 15l3.248-8.976h.032V15h2.032V3.576h-2.912l-3.072 8.592h-.032l-3.072-8.592h-3.008V15h1.952V6.024h.032L456.532 15h1.536zm9.567-3.456c.208 2.512 2.304 3.648 5.024 3.648 2.528 0 4.432-1.376 4.432-3.456 0-1.84-1.12-2.768-2.992-3.12l-2.208-.432c-1.232-.24-1.824-.544-1.824-1.488 0-1.008.864-1.728 2.24-1.728 1.424 0 2.416.624 2.56 1.744h2c-.224-2.144-1.856-3.328-4.576-3.328-2.496 0-4.288 1.408-4.288 3.44 0 2 1.36 2.8 3.04 3.104l2.096.384c1.376.256 1.872.72 1.872 1.552 0 1.152-1.056 1.76-2.416 1.76-1.424 0-2.768-.528-2.912-2.08h-2.048z" fill="#222"/><path d="M352 75.717V152.5" stroke="#000" stroke-width=".648"/><path d="M428.19 87.431h-21.635a3.215 3.215 0 00-3.215 3.215v46.387a3.215 3.215 0 003.215 3.215h21.635a3.215 3.215 0 003.215-3.215V90.646a3.215 3.215 0 00-3.215-3.215z" stroke="#222" stroke-width="1.862" stroke-linecap="round" stroke-linejoin="round"/><path d="M427.608 97.908l-12.165 7.175v18.048l12.289 7.423m-.062-18.434l-12.227-7.038m19.686-7.174l12.152 7.175v18.048l-12.289 7.423m.061-18.434l12.226-7.038m7.323 8.404h5.474m-15.463 19.413l3.873 3.886M445.1 95.611l3.885-3.873m-37.13 44.65l10.762.05" stroke="#222" stroke-width="1.862" stroke-linecap="round" stroke-linejoin="round"/><path d="M573.671 89.604a11.555 11.555 0 012.254 22.89 11.554 11.554 0 01-10.422-19.502 11.568 11.568 0 018.168-3.388zm7.82 30.101a13.805 13.805 0 0113.554 13.766v2.793h-42.302v-2.793a13.774 13.774 0 0113.53-13.766c2.409.636 4.882.998 7.373 1.08a39.48 39.48 0 007.845-1.092v.012zm-7.82-31.963a13.42 13.42 0 00-13.161 16.036 13.414 13.414 0 003.673 6.87 13.414 13.414 0 0020.645-2.033 13.423 13.423 0 00-1.669-16.943 13.42 13.42 0 00-9.488-3.93zm7.596 30.089a38.903 38.903 0 01-7.621 1.092 31.671 31.671 0 01-7.137-1.092 15.64 15.64 0 00-15.628 15.64v2.979a1.677 1.677 0 001.663 1.675h42.7a1.675 1.675 0 001.663-1.675v-2.979c0-4.148-1.647-8.126-4.58-11.06a15.643 15.643 0 00-11.06-4.58z" fill="#222"/><path d="M33.58 113.242l-18.45 12.896m.138-25.517l37.879 26.698-19.878 13.43v-28.773" stroke="#222" stroke-width="1.864" stroke-linecap="round" stroke-linejoin="round"/><path d="M33.27 112.224V86.457l19.877 13.107-19.828 13.89m106.348-9.535l-14.372-14.372a3.02 3.02 0 00-4.27 0l-29.218 29.218a3.02 3.02 0 000 4.27l14.372 14.372a3.02 3.02 0 004.27 0l29.218-29.219a3.018 3.018 0 000-4.269zm-22.251 35.513l3.317 3.975m-3.305-3.975l3.975-3.304m-3.864 3.279a21.12 21.12 0 0024.301-24.238m-27.939-27.804l-3.317-3.963m3.305 3.975l-3.963 3.305m3.862-3.242a21.182 21.182 0 00-24.276 24.226m8.722 12.535l7.181 7.255m91.2-46.676h-.013c-6.566 0-11.889 5.323-11.889 11.89v18.051c0 6.566 5.323 11.889 11.889 11.889h.013c6.566 0 11.889-5.323 11.889-11.889V96.67c0-6.567-5.323-11.89-11.889-11.89z" stroke="#222" stroke-width="1.864" stroke-linecap="round" stroke-linejoin="round"/><path d="M215.123 114.534a18.519 18.519 0 01-11.435 17.113 18.519 18.519 0 01-20.186-4.015 18.523 18.523 0 01-5.426-13.098m18.526 18.611v7.205m11.824.063h-23.655m93.662-55.087a16.05 16.05 0 00-16.038 16.039c0 8.46 14.498 32.91 15.119 33.954a1.077 1.077 0 00.919.524 1.072 1.072 0 00.92-.524c.621-1.044 15.119-25.518 15.119-33.954a16.05 16.05 0 00-16.039-16.039v0z" stroke="#222" stroke-width="1.864" stroke-linecap="round" stroke-linejoin="round"/><path d="M278.409 106.844a6.758 6.758 0 100-13.516 6.759 6.759 0 100 13.516zm6.721 29.109c2.36.397 3.876 1.018 3.876 1.714 0 1.242-4.522 2.187-10.1 2.187-5.578 0-10.113-.982-10.113-2.187 0-.596 1.131-1.143 2.957-1.54" stroke="#222" stroke-width="1.864" stroke-linecap="round" stroke-linejoin="round"/></svg>