<svg width="65" height="66" viewBox="0 0 65 66" fill="none" xmlns="http://www.w3.org/2000/svg"><path d="M54.941 24.252L41.635 10.945a2.795 2.795 0 00-3.953 0L10.63 37.997a2.795 2.795 0 000 3.953l13.306 13.306a2.795 2.795 0 003.953 0l27.052-27.052a2.795 2.795 0 000-3.952zM34.34 57.13l3.071 3.682m-3.059-3.68l3.68-3.06m-3.577 3.036a19.555 19.555 0 0022.499-22.441M31.085 8.924l-3.071-3.67m3.062 3.682l-3.67 3.06m3.577-3.003a19.612 19.612 0 00-22.476 22.43m8.075 11.607l6.648 6.718" stroke="#fff" stroke-width="2" stroke-linecap="round" stroke-linejoin="round"/></svg>