<svg width="1094" height="250" viewBox="0 0 1094 250" fill="none" xmlns="http://www.w3.org/2000/svg"><path d="M71.502 229h1.904l-4.018-9.996h-2.086L63.284 229h1.82l.952-2.45h4.508l.938 2.45zm-3.192-8.204h.042l1.652 4.312H66.63l1.68-4.312zm9.76 3.192c0-2.268 1.009-3.682 2.815-3.682 1.428 0 2.086.812 2.282 1.834h1.806c-.35-1.96-1.694-3.304-4.088-3.304-2.8 0-4.704 2.072-4.704 5.152 0 3.108 1.904 5.18 4.704 5.18 2.394 0 3.738-1.358 4.088-3.304h-1.806c-.196 1.022-.854 1.834-2.282 1.834-1.806 0-2.814-1.428-2.814-3.71zM91.858 229h1.848v-8.526h3.598v-1.47h-9.03v1.47h3.584V229zm9.507 0h1.862v-9.996h-1.862V229zm9.497 0h2.072l3.962-9.996h-1.89l-3.052 8.008h-.028l-3.038-8.008h-1.974l3.948 9.996zm16.131 0h1.904l-4.018-9.996h-2.086L118.774 229h1.82l.952-2.45h4.508l.938 2.45zm-3.192-8.204h.042l1.652 4.312h-3.374l1.68-4.312zM134.638 229h1.848v-8.526h3.598v-1.47h-9.03v1.47h3.584V229zm9.508 0h1.862v-9.996h-1.862V229zm15.531-4.998c0-2.996-1.834-5.166-4.774-5.166s-4.774 2.17-4.774 5.166c0 3.01 1.834 5.166 4.774 5.166s4.774-2.156 4.774-5.166zm-1.89 0c0 2.226-.98 3.696-2.884 3.696-1.918 0-2.884-1.47-2.884-3.696 0-2.212.966-3.696 2.884-3.696 1.904 0 2.884 1.484 2.884 3.696zm8.163-4.998h-2.17V229h1.778v-7.742h.028l5.138 7.742h1.722v-9.996h-1.764v7.084h-.028l-4.704-7.084zm10.51 6.972c.182 2.198 2.016 3.192 4.396 3.192 2.212 0 3.878-1.204 3.878-3.024 0-1.61-.98-2.422-2.618-2.73l-1.932-.378c-1.078-.21-1.596-.476-1.596-1.302 0-.882.756-1.512 1.96-1.512 1.246 0 2.114.546 2.24 1.526h1.75c-.196-1.876-1.624-2.912-4.004-2.912-2.184 0-3.752 1.232-3.752 3.01 0 1.75 1.19 2.45 2.66 2.716l1.834.336c1.204.224 1.638.63 1.638 1.358 0 1.008-.924 1.54-2.114 1.54-1.246 0-2.422-.462-2.548-1.82h-1.792zM202.035 229h2.044l2.758-9.996h-1.82l-1.988 7.756h-.028l-1.946-7.756h-1.876l-1.946 7.756h-.028l-2.002-7.756h-1.904l2.758 9.996h2.03l1.96-7.714h.028l1.96 7.714zm8.574 0h1.862v-9.996h-1.862V229zm9.511 0h1.848v-8.526h3.598v-1.47h-9.03v1.47h3.584V229zm9.507 0h1.862v-4.34h5.124V229h1.848v-9.996h-1.848v4.2h-5.124v-4.2h-1.862V229zm21.011-9.996h-2.17V229h1.778v-7.742h.028l5.138 7.742h1.722v-9.996h-1.764v7.084h-.028l-4.704-7.084zM269.044 229h1.904l-4.018-9.996h-2.086L260.826 229h1.82l.952-2.45h4.508l.938 2.45zm-3.192-8.204h.042l1.652 4.312h-3.374l1.68-4.312zM276.69 229h1.848v-8.526h3.598v-1.47h-9.03v1.47h3.584V229zm9.508 0h1.862v-9.996h-1.862V229zm9.497 0h2.072l3.962-9.996h-1.89l-3.052 8.008h-.028l-3.038-8.008h-1.974l3.948 9.996zm16.978 0v-1.47h-5.418v-2.8h4.746v-1.47h-4.746v-2.786h5.362v-1.47h-7.182V229h7.238zm12.685 0h1.848v-8.526h3.598v-1.47h-9.03v1.47h3.584V229zm16.746 0v-1.47h-5.418v-2.8h4.746v-1.47h-4.746v-2.786h5.362v-1.47h-7.182V229h7.238zm5.707-5.012c0-2.268 1.008-3.682 2.814-3.682 1.428 0 2.086.812 2.282 1.834h1.806c-.35-1.96-1.694-3.304-4.088-3.304-2.8 0-4.704 2.072-4.704 5.152 0 3.108 1.904 5.18 4.704 5.18 2.394 0 3.738-1.358 4.088-3.304h-1.806c-.196 1.022-.854 1.834-2.282 1.834-1.806 0-2.814-1.428-2.814-3.71zM358.752 229h1.862v-4.34h5.124V229h1.848v-9.996h-1.848v4.2h-5.124v-4.2h-1.862V229zm15.671-9.996h-2.17V229h1.778v-7.742h.028l5.138 7.742h1.722v-9.996h-1.764v7.084h-.028l-4.704-7.084zm20.17 4.998c0-2.996-1.834-5.166-4.774-5.166s-4.774 2.17-4.774 5.166c0 3.01 1.834 5.166 4.774 5.166s4.774-2.156 4.774-5.166zm-1.89 0c0 2.226-.98 3.696-2.884 3.696-1.918 0-2.884-1.47-2.884-3.696 0-2.212.966-3.696 2.884-3.696 1.904 0 2.884 1.484 2.884 3.696zm5.993 4.998h7.014v-1.47h-5.152v-8.526h-1.862V229zm19.796-4.998c0-2.996-1.834-5.166-4.774-5.166s-4.774 2.17-4.774 5.166c0 3.01 1.834 5.166 4.774 5.166s4.774-2.156 4.774-5.166zm-1.89 0c0 2.226-.98 3.696-2.884 3.696-1.918 0-2.884-1.47-2.884-3.696 0-2.212.966-3.696 2.884-3.696 1.904 0 2.884 1.484 2.884 3.696zm5.516-.014c0 3.094 1.89 5.18 4.69 5.18 1.232 0 2.506-.644 2.87-1.596l.126 1.428h1.442v-5.096h-3.78v1.344h1.932v.35c0 1.232-1.008 2.1-2.478 2.1-1.862 0-2.912-1.428-2.912-3.71 0-2.268 1.078-3.682 2.94-3.682 1.344 0 2.1.7 2.338 1.82h1.834c-.392-1.974-1.764-3.29-4.172-3.29-2.856 0-4.83 2.072-4.83 5.152zM439.981 229v-4.102l3.878-5.894h-2.03l-2.702 4.27h-.028l-2.772-4.27h-2.072l3.864 5.894V229h1.862zm213.947 0h1.904l-4.018-9.996h-2.086L645.71 229h1.82l.952-2.45h4.508l.938 2.45zm-3.192-8.204h.042l1.652 4.312h-3.374l1.68-4.312zM661.355 229v-3.738h2.24l2.282 3.738h2.03l-2.506-4.018c1.134-.364 2.128-1.288 2.128-2.842 0-2.044-1.372-3.136-3.71-3.136h-4.284V229h1.82zm0-5.194v-3.332h2.254c1.386 0 2.086.574 2.086 1.666s-.7 1.666-2.086 1.666h-2.254zM684.438 229h1.904l-4.018-9.996h-2.086L676.22 229h1.82l.952-2.45h4.508l.938 2.45zm-3.192-8.204h.042l1.652 4.312h-3.374l1.68-4.312zm9.761 3.192c0-2.268 1.008-3.682 2.814-3.682 1.428 0 2.086.812 2.282 1.834h1.806c-.35-1.96-1.694-3.304-4.088-3.304-2.8 0-4.704 2.072-4.704 5.152 0 3.108 1.904 5.18 4.704 5.18 2.394 0 3.738-1.358 4.088-3.304h-1.806c-.196 1.022-.854 1.834-2.282 1.834-1.806 0-2.814-1.428-2.814-3.71zM704.793 229h1.848v-8.526h3.598v-1.47h-9.03v1.47h3.584V229zm9.508 0h1.862v-9.996h-1.862V229zm9.497 0h2.072l3.962-9.996h-1.89l-3.052 8.008h-.028l-3.038-8.008h-1.974l3.948 9.996zm16.131 0h1.904l-4.018-9.996h-2.086L731.711 229h1.82l.952-2.45h4.508l.938 2.45zm-3.192-8.204h.042l1.652 4.312h-3.374l1.68-4.312zM747.575 229h1.848v-8.526h3.598v-1.47h-9.03v1.47h3.584V229zm9.507 0h1.862v-9.996h-1.862V229zm15.531-4.998c0-2.996-1.834-5.166-4.774-5.166s-4.774 2.17-4.774 5.166c0 3.01 1.834 5.166 4.774 5.166s4.774-2.156 4.774-5.166zm-1.89 0c0 2.226-.98 3.696-2.884 3.696-1.918 0-2.884-1.47-2.884-3.696 0-2.212.966-3.696 2.884-3.696 1.904 0 2.884 1.484 2.884 3.696zm8.163-4.998h-2.17V229h1.778v-7.742h.028L783.66 229h1.722v-9.996h-1.764v7.084h-.028l-4.704-7.084zm10.51 6.972c.182 2.198 2.016 3.192 4.396 3.192 2.212 0 3.878-1.204 3.878-3.024 0-1.61-.98-2.422-2.618-2.73l-1.932-.378c-1.078-.21-1.596-.476-1.596-1.302 0-.882.756-1.512 1.96-1.512 1.246 0 2.114.546 2.24 1.526h1.75c-.196-1.876-1.624-2.912-4.004-2.912-2.184 0-3.752 1.232-3.752 3.01 0 1.75 1.19 2.45 2.66 2.716l1.834.336c1.204.224 1.638.63 1.638 1.358 0 1.008-.924 1.54-2.114 1.54-1.246 0-2.422-.462-2.548-1.82h-1.792zM811.513 229c2.31 0 3.654-.966 3.654-2.842 0-1.162-.826-2.044-1.918-2.338.812-.238 1.512-1.204 1.512-2.086 0-1.792-1.274-2.73-3.612-2.73h-4.018V229h4.382zm-2.562-5.768v-2.856h2.198c1.218 0 1.82.518 1.82 1.428 0 .868-.588 1.428-1.834 1.428h-2.184zm0 1.33h2.408c1.288 0 1.974.588 1.974 1.526 0 .966-.672 1.54-1.96 1.54h-2.422v-3.066zM826.49 229h1.904l-4.018-9.996h-2.086L818.272 229h1.82l.952-2.45h4.508l.938 2.45zm-3.192-8.204h.042l1.652 4.312h-3.374l1.68-4.312zm8.114 5.18c.182 2.198 2.016 3.192 4.396 3.192 2.212 0 3.878-1.204 3.878-3.024 0-1.61-.98-2.422-2.618-2.73l-1.932-.378c-1.078-.21-1.596-.476-1.596-1.302 0-.882.756-1.512 1.96-1.512 1.246 0 2.114.546 2.24 1.526h1.75c-.196-1.876-1.624-2.912-4.004-2.912-2.184 0-3.752 1.232-3.752 3.01 0 1.75 1.19 2.45 2.66 2.716l1.834.336c1.204.224 1.638.63 1.638 1.358 0 1.008-.924 1.54-2.114 1.54-1.246 0-2.422-.462-2.548-1.82h-1.792zM851.046 229v-1.47h-5.418v-2.8h4.746v-1.47h-4.746v-2.786h5.362v-1.47h-7.182V229h7.238zm8.213-9.996h-3.85V229h3.85c3.01 0 4.998-1.988 4.998-4.998 0-2.996-1.988-4.998-4.998-4.998zm0 1.47c1.988 0 3.094 1.302 3.094 3.528s-1.106 3.528-3.094 3.528h-2.03v-7.056h2.03zM880.941 229h1.904l-4.018-9.996h-2.086L872.723 229h1.82l.952-2.45h4.508l.938 2.45zm-3.192-8.204h.042l1.652 4.312h-3.374l1.68-4.312zM888.368 229v-3.738h2.24L892.89 229h2.03l-2.506-4.018c1.134-.364 2.128-1.288 2.128-2.842 0-2.044-1.372-3.136-3.71-3.136h-4.284V229h1.82zm0-5.194v-3.332h2.254c1.386 0 2.086.574 2.086 1.666s-.7 1.666-2.086 1.666h-2.254zm19.508.196c0-2.996-1.834-5.166-4.774-5.166s-4.774 2.17-4.774 5.166c0 3.01 1.834 5.166 4.774 5.166s4.774-2.156 4.774-5.166zm-1.89 0c0 2.226-.98 3.696-2.884 3.696-1.918 0-2.884-1.47-2.884-3.696 0-2.212.966-3.696 2.884-3.696 1.904 0 2.884 1.484 2.884 3.696zm14.407.966v-5.964h-1.848v5.95c0 1.75-.812 2.73-2.422 2.73s-2.408-.98-2.408-2.73v-5.95h-1.862v5.936c0 2.758 1.582 4.228 4.27 4.228 2.702 0 4.27-1.47 4.27-4.2zm6.711-5.964h-2.17V229h1.778v-7.742h.028l5.138 7.742h1.722v-9.996h-1.764v7.084h-.028l-4.704-7.084zm15.017 0h-3.85V229h3.85c3.01 0 4.998-1.988 4.998-4.998 0-2.996-1.988-4.998-4.998-4.998zm0 1.47c1.988 0 3.094 1.302 3.094 3.528s-1.106 3.528-3.094 3.528h-2.03v-7.056h2.03zM963.804 229h1.904l-4.018-9.996h-2.086L955.586 229h1.82l.952-2.45h4.508l.938 2.45zm-3.192-8.204h.042l1.652 4.312h-3.374l1.68-4.312zm10.969-1.792h-2.17V229h1.778v-7.742h.028l5.138 7.742h1.722v-9.996h-1.764v7.084h-.028l-4.704-7.084zM995.326 229h1.904l-4.018-9.996h-2.086L987.108 229h1.82l.952-2.45h4.508l.938 2.45zm-3.192-8.204h.042l1.652 4.312h-3.374l1.68-4.312zM1002.97 229h1.85v-8.526h3.6v-1.47h-9.032v1.47h3.582V229zm9.51 0h1.86v-4.34h5.13V229h1.84v-9.996h-1.84v4.2h-5.13v-4.2h-1.86V229zm20.74 0v-1.47h-5.42v-2.8h4.75v-1.47h-4.75v-2.786h5.36v-1.47h-7.18V229h7.24zm4.36 0h7.02v-1.47h-5.16v-8.526h-1.86V229zm18.5 0v-1.47h-5.42v-2.8h4.75v-1.47h-4.75v-2.786h5.36v-1.47h-7.18V229h7.24zm7.34 0h1.85v-8.526h3.6v-1.47h-9.03v1.47h3.58V229zm16.75 0v-1.47h-5.42v-2.8h4.75v-1.47h-4.75v-2.786h5.36v-1.47h-7.18V229h7.24zM789.39 128.189h10.161v3.625H789.39v10.518h-3.676v-10.518h-10.161v-3.625h10.161V117.62h3.676v10.569zM414.292 16h2.376V5.038h4.626v-1.89h-11.61v1.89h4.608V16zm21.619 0h2.628l3.546-12.852h-2.34l-2.556 9.972h-.036l-2.502-9.972h-2.412l-2.502 9.972h-.036l-2.574-9.972h-2.448L428.225 16h2.61l2.52-9.918h.036l2.52 9.918zm21.753-6.426c0-3.852-2.358-6.642-6.138-6.642s-6.138 2.79-6.138 6.642c0 3.87 2.358 6.642 6.138 6.642s6.138-2.772 6.138-6.642zm-2.43 0c0 2.862-1.26 4.752-3.708 4.752-2.466 0-3.708-1.89-3.708-4.752 0-2.844 1.242-4.752 3.708-4.752 2.448 0 3.708 1.908 3.708 4.752zm14.927-.018c0-2.916 1.296-4.734 3.618-4.734 1.836 0 2.682 1.044 2.934 2.358h2.322c-.45-2.52-2.178-4.248-5.256-4.248-3.6 0-6.048 2.664-6.048 6.624 0 3.996 2.448 6.66 6.048 6.66 3.078 0 4.806-1.746 5.256-4.248h-2.322c-.252 1.314-1.098 2.358-2.934 2.358-2.322 0-3.618-1.836-3.618-4.77zm24.955.018c0-3.852-2.358-6.642-6.138-6.642s-6.138 2.79-6.138 6.642c0 3.87 2.358 6.642 6.138 6.642s6.138-2.772 6.138-6.642zm-2.43 0c0 2.862-1.26 4.752-3.708 4.752-2.466 0-3.708-1.89-3.708-4.752 0-2.844 1.242-4.752 3.708-4.752 2.448 0 3.708 1.908 3.708 4.752zm9.81-6.426h-2.79V16h2.286V6.046h.036L508.634 16h2.214V3.148h-2.268v9.108h-.036l-6.048-9.108zm15.4 6.408c0-2.916 1.296-4.734 3.618-4.734 1.836 0 2.682 1.044 2.934 2.358h2.322c-.45-2.52-2.178-4.248-5.256-4.248-3.6 0-6.048 2.664-6.048 6.624 0 3.996 2.448 6.66 6.048 6.66 3.078 0 4.806-1.746 5.256-4.248h-2.322c-.252 1.314-1.098 2.358-2.934 2.358-2.322 0-3.618-1.836-3.618-4.77zM540.583 16v-1.89h-6.966v-3.6h6.102V8.62h-6.102V5.038h6.894v-1.89h-9.234V16h9.306zm10.252-4.734c3.024 0 4.788-1.368 4.788-4.05 0-2.682-1.764-4.068-4.806-4.068h-5.31V16h2.34v-4.734h2.988zm-2.988-1.872V5.038h2.772c1.764 0 2.646.702 2.646 2.178 0 1.458-.882 2.178-2.646 2.178h-2.772zM563.888 16h2.376V5.038h4.626v-1.89h-11.61v1.89h4.608V16zm16.872-3.888c.234 2.826 2.592 4.104 5.652 4.104 2.844 0 4.986-1.548 4.986-3.888 0-2.07-1.26-3.114-3.366-3.51l-2.484-.486c-1.386-.27-2.052-.612-2.052-1.674 0-1.134.972-1.944 2.52-1.944 1.602 0 2.718.702 2.88 1.962h2.25c-.252-2.412-2.088-3.744-5.148-3.744-2.808 0-4.824 1.584-4.824 3.87 0 2.25 1.53 3.15 3.42 3.492l2.358.432c1.548.288 2.106.81 2.106 1.746 0 1.296-1.188 1.98-2.718 1.98-1.602 0-3.114-.594-3.276-2.34h-2.304zM599.459 16h2.376V5.038h4.626v-1.89h-11.61v1.89h4.608V16zm13.878 0v-4.806h2.88L619.151 16h2.61l-3.222-5.166c1.458-.468 2.736-1.656 2.736-3.654 0-2.628-1.764-4.032-4.77-4.032h-5.508V16h2.34zm0-6.678V5.038h2.898c1.782 0 2.682.738 2.682 2.142s-.9 2.142-2.682 2.142h-2.898zM635.465 16v-1.89h-6.966v-3.6h6.102V8.62h-6.102V5.038h6.894v-1.89h-9.234V16h9.306zm14.23 0h2.448l-5.166-12.852h-2.682L639.129 16h2.34l1.224-3.15h5.796l1.206 3.15zm-4.104-10.548h.054l2.124 5.544h-4.338l2.16-5.544zM663.851 16l3.654-10.098h.036V16h2.286V3.148h-3.276l-3.456 9.666h-.036l-3.456-9.666h-3.384V16h2.196V5.902h.036L662.123 16h1.728zm10.463-3.888c.234 2.826 2.592 4.104 5.652 4.104 2.844 0 4.986-1.548 4.986-3.888 0-2.07-1.26-3.114-3.366-3.51l-2.484-.486c-1.386-.27-2.052-.612-2.052-1.674 0-1.134.972-1.944 2.52-1.944 1.602 0 2.718.702 2.88 1.962h2.25c-.252-2.412-2.088-3.744-5.148-3.744-2.808 0-4.824 1.584-4.824 3.87 0 2.25 1.53 3.15 3.42 3.492l2.358.432c1.548.288 2.106.81 2.106 1.746 0 1.296-1.188 1.98-2.718 1.98-1.602 0-3.114-.594-3.276-2.34h-2.304z" fill="#222"/><path d="M547 79v101.5" stroke="#000" stroke-width=".856"/><path d="M692.518 94.486h-28.6a4.25 4.25 0 00-4.25 4.25v61.318a4.25 4.25 0 004.25 4.25h28.6a4.25 4.25 0 004.249-4.25V98.736a4.25 4.25 0 00-4.249-4.25z" stroke="#222" stroke-width="2.461" stroke-linecap="round" stroke-linejoin="round"/><path d="M691.746 108.335l-16.08 9.484v23.858l16.244 9.812m-.082-24.367l-16.162-9.304m26.024-9.483l16.064 9.484v23.858l-16.244 9.812m.08-24.367l16.162-9.304m9.68 11.109h7.236m-20.441 25.663l5.119 5.136m-4.477-54.427l5.136-5.12m-49.081 59.023l14.226.066" stroke="#222" stroke-width="2.461" stroke-linecap="round" stroke-linejoin="round"/><path d="M884.829 97.358a15.276 15.276 0 11-15.276 15.276 15.29 15.29 0 0115.276-15.276zm10.337 39.79a18.252 18.252 0 0112.674 5.441 18.25 18.25 0 015.244 12.756v3.692h-55.92v-3.692a18.216 18.216 0 0117.886-18.197 43.79 43.79 0 009.746 1.428 52.193 52.193 0 0010.37-1.444v.016zm-10.337-42.251a17.737 17.737 0 100 35.473 17.737 17.737 0 000-35.474zm10.042 39.774a51.366 51.366 0 01-10.075 1.443 41.83 41.83 0 01-9.435-1.443 20.674 20.674 0 00-20.658 20.674v3.938a2.215 2.215 0 002.199 2.215h56.445a2.213 2.213 0 002.199-2.215v-3.938a20.676 20.676 0 00-20.675-20.674z" fill="#222"/><path d="M75.39 128.605l-24.388 17.047m.18-33.731l50.072 35.292-26.276 17.753v-38.035" stroke="#222" stroke-width="2.463" stroke-linecap="round" stroke-linejoin="round"/><path d="M74.978 127.259V93.198l26.277 17.326-26.21 18.361m141.814-12.604l-18.998-18.998a3.991 3.991 0 00-5.644 0l-38.623 38.623a3.99 3.99 0 000 5.644l18.998 18.998a3.99 3.99 0 005.644 0l38.623-38.623a3.99 3.99 0 000-5.644zm-29.414 46.944l4.385 5.255m-4.369-5.254l5.255-4.369m-5.107 4.336a27.92 27.92 0 0031.137-18.961 27.926 27.926 0 00.986-13.08m-36.933-36.754l-4.385-5.24m4.37 5.256l-5.239 4.369m5.106-4.286a28.002 28.002 0 00-32.09 32.024m11.529 16.57l9.492 9.591m121.794-61.701h-.017c-8.68 0-15.716 7.037-15.716 15.717v23.862c0 8.68 7.036 15.717 15.716 15.717h.017c8.68 0 15.716-7.037 15.716-15.717v-23.862c0-8.68-7.036-15.717-15.716-15.717z" stroke="#222" stroke-width="2.463" stroke-linecap="round" stroke-linejoin="round"/><path d="M317.844 130.312a24.498 24.498 0 01-7.172 17.315 24.49 24.49 0 01-26.685 5.308 24.49 24.49 0 01-15.116-22.623m24.486 24.602v9.525m15.633.083h-31.269m125.045-72.819a21.217 21.217 0 00-21.202 21.202c0 11.183 19.166 43.503 19.987 44.883a1.41 1.41 0 001.215.693 1.413 1.413 0 001.215-.693c.822-1.38 19.987-33.732 19.987-44.883a21.219 21.219 0 00-21.202-21.202v0z" stroke="#222" stroke-width="2.463" stroke-linecap="round" stroke-linejoin="round"/><path d="M402.735 120.148a8.934 8.934 0 100-17.868 8.934 8.934 0 000 17.868zm8.882 38.478c3.121.526 5.124 1.347 5.124 2.266 0 1.643-5.978 2.891-13.351 2.891-7.374 0-13.369-1.298-13.369-2.891 0-.788 1.495-1.511 3.909-2.036" stroke="#222" stroke-width="2.463" stroke-linecap="round" stroke-linejoin="round"/></svg>