<svg width="723" height="411" viewBox="0 0 723 411" fill="none" xmlns="http://www.w3.org/2000/svg">
<mask id="mask0" mask-type="alpha" maskUnits="userSpaceOnUse" x="231" y="211" width="235" height="98">
<rect x="231.603" y="211.866" width="233.584" height="96.5285" fill="#C4C4C4"/>
</mask>
<g mask="url(#mask0)">
<mask id="mask1" mask-type="alpha" maskUnits="userSpaceOnUse" x="254" y="222" width="199" height="432">
<rect x="255.073" y="223.213" width="196.986" height="429.869" rx="27.5947" fill="#C4C4C4" stroke="#464646" stroke-width="1.25431"/>
</mask>
<g mask="url(#mask1)">
<rect x="255.073" y="223.213" width="196.986" height="429.869" rx="27.5947" stroke="white" stroke-width="1.25431"/>
<path d="M266.476 263.07L318.813 262.918" stroke="#198AFF" stroke-width="7.52583"/>
<path d="M326.65 262.903L378.988 262.758" stroke="#78DE7F" stroke-width="7.52583"/>
<path d="M387.837 262.734L440.175 262.589" stroke="#FF6400" stroke-width="7.52583"/>
</g>
</g>
<path fill-rule="evenodd" clip-rule="evenodd" d="M431.759 349.486C431.759 347.353 430.755 345.457 429.195 344.247L429.671 343.625C431.415 344.977 432.54 347.099 432.54 349.486C432.54 351.854 431.432 353.964 429.709 355.316L429.229 354.697C430.77 353.488 431.759 351.603 431.759 349.486ZM429.103 349.486C429.103 348.523 428.76 347.643 428.191 346.96L428.789 346.455C429.472 347.275 429.883 348.332 429.883 349.486C429.883 350.626 429.481 351.673 428.811 352.489L428.209 351.989C428.768 351.309 429.103 350.437 429.103 349.486ZM426.894 349.487C426.894 350.434 426.13 351.201 425.189 351.201C424.247 351.201 423.484 350.434 423.484 349.487C423.484 348.54 424.247 347.772 425.189 347.772C426.13 347.772 426.894 348.54 426.894 349.487ZM421.275 349.486C421.275 348.543 421.604 347.679 422.154 347.001L421.549 346.505C420.89 347.318 420.494 348.356 420.494 349.486C420.494 350.627 420.897 351.674 421.567 352.49L422.169 351.99C421.61 351.31 421.275 350.438 421.275 349.486ZM418.618 349.487C418.618 347.372 419.607 345.488 421.146 344.278L420.665 343.66C418.945 345.012 417.838 347.12 417.838 349.487C417.838 351.844 418.935 353.943 420.642 355.296L421.126 354.68C419.598 353.469 418.618 351.593 418.618 349.487Z" fill="white"/>
<path d="M420.941 365.148H423.166V364.766H421.408V361.305H420.941V365.148ZM423.796 365.148H424.242V362.337H423.796V365.148ZM424.011 361.751C424.172 361.751 424.306 361.617 424.306 361.455C424.306 361.294 424.172 361.16 424.011 361.16C423.849 361.16 423.715 361.294 423.715 361.455C423.715 361.617 423.849 361.751 424.011 361.751ZM425.859 365.148H426.429L427.439 362.337H426.977L426.154 364.696L425.321 362.337H424.838L425.859 365.148ZM429.097 365.196C429.732 365.196 430.199 364.901 430.296 364.336H429.85C429.791 364.664 429.538 364.825 429.103 364.825C428.528 364.825 428.221 364.471 428.2 363.831H430.317V363.686C430.317 362.681 429.705 362.289 429.054 362.289C428.28 362.289 427.738 362.88 427.738 363.729V363.772C427.738 364.637 428.302 365.196 429.097 365.196ZM428.216 363.471C428.291 362.971 428.597 362.659 429.054 362.659C429.517 362.659 429.818 362.891 429.861 363.471H428.216Z" fill="white"/>
<path d="M274.153 365.146H274.62V363.437H276.641V365.146H277.109V361.304H276.641V363.045H274.62V361.304H274.153V365.146ZM278.057 365.146H278.503V362.335H278.057V365.146ZM278.272 361.75C278.434 361.75 278.568 361.615 278.568 361.454C278.568 361.293 278.434 361.158 278.272 361.158C278.111 361.158 277.977 361.293 277.977 361.454C277.977 361.615 278.111 361.75 278.272 361.75ZM280.54 366.173C281.324 366.173 281.878 365.775 281.883 364.958V362.335H281.437V362.787C281.276 362.513 280.986 362.287 280.518 362.287C279.744 362.287 279.207 362.921 279.207 363.685V363.722C279.207 364.496 279.75 365.055 280.486 365.055C280.895 365.055 281.276 364.797 281.437 364.523V364.931C281.437 365.533 281.088 365.797 280.534 365.797C280.056 365.797 279.787 365.63 279.723 365.308H279.266C279.341 365.781 279.707 366.173 280.54 366.173ZM280.534 364.684C280.061 364.684 279.669 364.319 279.669 363.706V363.663C279.669 363.072 280.002 362.658 280.561 362.658C281.11 362.658 281.453 363.023 281.453 363.652V363.69C281.453 364.319 281.056 364.684 280.534 364.684ZM282.786 365.146H283.232V363.443C283.232 362.937 283.603 362.674 284.017 362.674C284.468 362.674 284.678 362.894 284.678 363.389V365.146H285.124V363.421C285.124 362.604 284.716 362.287 284.135 362.287C283.673 362.287 283.361 362.518 283.232 362.782V360.992H282.786V365.146ZM286.009 365.146H286.461V360.992H286.009V365.146ZM287.384 365.146H287.83V362.335H287.384V365.146ZM287.599 361.75C287.761 361.75 287.895 361.615 287.895 361.454C287.895 361.293 287.761 361.158 287.599 361.158C287.438 361.158 287.304 361.293 287.304 361.454C287.304 361.615 287.438 361.75 287.599 361.75ZM289.867 366.173C290.652 366.173 291.205 365.775 291.211 364.958V362.335H290.764V362.787C290.603 362.513 290.313 362.287 289.845 362.287C289.071 362.287 288.534 362.921 288.534 363.685V363.722C288.534 364.496 289.077 365.055 289.813 365.055C290.222 365.055 290.603 364.797 290.764 364.523V364.931C290.764 365.533 290.415 365.797 289.862 365.797C289.383 365.797 289.114 365.63 289.05 365.308H288.593C288.668 365.781 289.034 366.173 289.867 366.173ZM289.862 364.684C289.389 364.684 288.996 364.319 288.996 363.706V363.663C288.996 363.072 289.329 362.658 289.888 362.658C290.437 362.658 290.781 363.023 290.781 363.652V363.69C290.781 364.319 290.383 364.684 289.862 364.684ZM292.113 365.146H292.559V363.443C292.559 362.937 292.93 362.674 293.344 362.674C293.796 362.674 294.005 362.894 294.005 363.389V365.146H294.451V363.421C294.451 362.604 294.043 362.287 293.462 362.287C293 362.287 292.688 362.518 292.559 362.782V360.992H292.113V365.146ZM296.18 365.184C296.363 365.184 296.47 365.157 296.562 365.125V364.749C296.465 364.786 296.358 364.808 296.218 364.808C295.992 364.808 295.868 364.674 295.868 364.399V362.712H296.524V362.335H295.868V361.696H295.422V362.335H295.019V362.712H295.422V364.442C295.422 364.883 295.67 365.184 296.18 365.184ZM298.107 365.195C298.789 365.195 299.139 364.851 299.139 364.34C299.139 363.744 298.73 363.615 298.15 363.507C297.634 363.416 297.494 363.314 297.494 363.061C297.494 362.819 297.704 362.658 298.026 362.658C298.381 362.658 298.553 362.792 298.617 363.099H299.047C298.972 362.491 298.537 362.287 298.032 362.287C297.591 362.287 297.08 362.556 297.08 363.077C297.08 363.566 297.327 363.771 298.058 363.905C298.494 363.986 298.714 364.082 298.714 364.378C298.714 364.679 298.526 364.824 298.101 364.824C297.65 364.824 297.473 364.614 297.44 364.281H297.005C297.032 364.856 297.435 365.195 298.107 365.195Z" fill="white"/>
<path d="M285.752 343.76C285.807 343.596 285.961 343.485 286.134 343.485C286.308 343.485 286.462 343.596 286.517 343.76L287.811 347.635H292.005C292.18 347.635 292.336 347.748 292.389 347.916C292.442 348.083 292.381 348.266 292.238 348.367L288.854 350.759L290.145 354.624C290.2 354.79 290.143 354.972 290.003 355.076C289.863 355.179 289.672 355.182 289.53 355.081L286.134 352.681L282.739 355.081C282.597 355.182 282.406 355.179 282.266 355.076C282.126 354.972 282.069 354.79 282.124 354.624L283.415 350.759L280.031 348.367C279.888 348.266 279.827 348.083 279.88 347.916C279.933 347.748 280.089 347.635 280.264 347.635H284.458L285.752 343.76Z" stroke="white" stroke-width="0.806215" stroke-linejoin="round"/>
<path d="M341.027 364.81C340.227 364.81 339.608 364.176 339.608 363.246V363.203C339.608 362.289 340.124 361.633 341.017 361.633C341.903 361.633 342.409 362.332 342.409 363.192V363.235C342.409 364.165 341.882 364.81 341.027 364.81ZM341.027 365.197C342.145 365.197 342.892 364.326 342.892 363.24V363.197C342.892 362.117 342.145 361.257 341.017 361.257C339.888 361.257 339.125 362.117 339.125 363.208V363.251C339.125 364.326 339.893 365.197 341.027 365.197ZM343.637 365.148H344.083V363.445C344.083 362.939 344.454 362.676 344.868 362.676C345.319 362.676 345.529 362.896 345.529 363.391V365.148H345.975V363.423C345.975 362.606 345.567 362.289 344.986 362.289C344.524 362.289 344.212 362.52 344.083 362.784V362.337H343.637V365.148ZM347.349 364.767V361.682H347.871C348.929 361.682 349.359 362.305 349.359 363.192V363.235C349.359 364.176 348.865 364.767 347.876 364.767H347.349ZM346.882 365.148H347.887C349.23 365.148 349.843 364.305 349.843 363.24V363.192C349.843 362.122 349.22 361.305 347.897 361.305H346.882V365.148ZM351.742 365.197C352.376 365.197 352.844 364.901 352.941 364.337H352.494C352.435 364.665 352.183 364.826 351.747 364.826C351.172 364.826 350.866 364.471 350.844 363.832H352.962V363.687C352.962 362.681 352.349 362.289 351.699 362.289C350.925 362.289 350.382 362.88 350.382 363.729V363.772C350.382 364.638 350.946 365.197 351.742 365.197ZM350.86 363.472C350.936 362.972 351.242 362.66 351.699 362.66C352.161 362.66 352.462 362.891 352.505 363.472H350.86ZM353.647 365.148H354.093V363.429C354.093 362.923 354.469 362.676 354.834 362.676C355.221 362.676 355.431 362.88 355.431 363.375V365.148H355.877V363.429C355.877 362.923 356.253 362.676 356.619 362.676C357.006 362.676 357.215 362.88 357.215 363.375V365.148H357.661V363.407C357.661 362.59 357.221 362.289 356.716 362.289C356.366 362.289 355.947 362.45 355.753 362.816C355.608 362.44 355.291 362.289 354.931 362.289C354.528 362.289 354.222 362.504 354.093 362.767V362.337H353.647V365.148ZM359.242 365.197C359.656 365.197 359.909 365.057 360.119 364.794V365.148H360.565V363.294C360.565 362.509 360.076 362.289 359.538 362.289C358.995 362.289 358.485 362.526 358.426 363.165H358.872C358.915 362.821 359.13 362.66 359.517 362.66C359.947 362.66 360.119 362.848 360.119 363.294V363.498H359.715C358.995 363.498 358.307 363.719 358.307 364.369C358.307 364.944 358.721 365.197 359.242 365.197ZM359.285 364.842C358.893 364.842 358.753 364.659 358.753 364.369C358.753 363.955 359.167 363.815 359.732 363.815H360.119V364.165C360.119 364.6 359.758 364.842 359.285 364.842ZM361.441 365.148H361.887V363.445C361.887 362.939 362.258 362.676 362.672 362.676C363.123 362.676 363.333 362.896 363.333 363.391V365.148H363.779V363.423C363.779 362.606 363.371 362.289 362.79 362.289C362.328 362.289 362.016 362.52 361.887 362.784V362.337H361.441V365.148ZM365.712 365.197C366.121 365.197 366.513 364.939 366.674 364.665V365.148H367.12V360.994H366.674V362.789C366.513 362.515 366.223 362.289 365.755 362.289C364.981 362.289 364.444 362.896 364.444 363.756V363.799C364.444 364.675 364.976 365.197 365.712 365.197ZM365.76 364.826C365.287 364.826 364.906 364.487 364.906 363.778V363.735C364.906 363.052 365.239 362.66 365.798 362.66C366.346 362.66 366.69 362.999 366.69 363.719V363.762C366.69 364.482 366.282 364.826 365.76 364.826Z" fill="white"/>
<path fill-rule="evenodd" clip-rule="evenodd" d="M353.032 343.659V342.339L355.57 344.132L353.032 345.877V344.436C350.58 344.724 348.678 346.82 348.678 349.363C348.678 352.103 350.886 354.323 353.61 354.323C356.334 354.323 358.542 352.103 358.542 349.363C358.542 347.936 357.943 346.65 356.983 345.744L357.509 345.18C358.617 346.226 359.311 347.713 359.311 349.363C359.311 352.53 356.758 355.097 353.61 355.097C350.461 355.097 347.909 352.53 347.909 349.363C347.909 346.393 350.155 343.95 353.032 343.659Z" fill="white"/>
<rect x="257.284" y="336.767" width="194.447" height="32.325" stroke="white" stroke-width="0.537477"/>
<path d="M73.2765 133.549C73.2765 131.13 71.7957 129.378 69.422 129.378C67.0483 129.378 65.5675 131.13 65.5675 133.549C65.5675 135.979 67.0483 137.72 69.422 137.72C71.7957 137.72 73.2765 135.979 73.2765 133.549ZM71.7505 133.549C71.7505 135.346 70.9592 136.533 69.422 136.533C67.8734 136.533 67.0935 135.346 67.0935 133.549C67.0935 131.763 67.8734 130.565 69.422 130.565C70.9592 130.565 71.7505 131.763 71.7505 133.549ZM78.6642 129.513H76.9122V137.584H78.3477V131.333H78.3703L82.5187 137.584H83.909V129.513H82.4848V135.233H82.4622L78.6642 129.513ZM95.7461 129.513H92.6376V137.584H95.7461C98.1763 137.584 99.7814 135.979 99.7814 133.549C99.7814 131.13 98.1763 129.513 95.7461 129.513ZM95.7461 130.7C97.3511 130.7 98.2441 131.751 98.2441 133.549C98.2441 135.346 97.3511 136.397 95.7461 136.397H94.1071V130.7H95.7461ZM109.264 137.584V136.397H104.889V134.136H108.721V132.95H104.889V130.7H109.219V129.513H103.42V137.584H109.264ZM117.902 137.584L120.197 131.243H120.219V137.584H121.655V129.513H119.598L117.428 135.583H117.405L115.235 129.513H113.11V137.584H114.489V131.243H114.511L116.817 137.584H117.902ZM131.601 137.584H133.139L129.895 129.513H128.21L124.966 137.584H126.436L127.204 135.606H130.844L131.601 137.584ZM129.024 130.96H129.058L130.392 134.442H127.668L129.024 130.96ZM138.204 129.513H136.452V137.584H137.887V131.333H137.91L142.058 137.584H143.448V129.513H142.024V135.233H142.002L138.204 129.513ZM150.652 129.513H147.543V137.584H150.652C153.082 137.584 154.687 135.979 154.687 133.549C154.687 131.13 153.082 129.513 150.652 129.513ZM150.652 130.7C152.257 130.7 153.15 131.751 153.15 133.549C153.15 135.346 152.257 136.397 150.652 136.397H149.013V130.7H150.652Z" fill="white"/>
<path d="M30.4937 347.329H31.9971V343.825H36.1341V347.329H37.6262V339.258H36.1341V342.649H31.9971V339.258H30.4937V347.329ZM41.7176 347.329H43.221V339.258H41.7176V347.329ZM46.8711 343.282C46.8711 345.78 48.3971 347.464 50.6578 347.464C51.6525 347.464 52.6811 346.944 52.975 346.176L53.0767 347.329H54.241V343.214H51.189V344.299H52.7489V344.582C52.7489 345.577 51.9351 346.277 50.7482 346.277C49.2448 346.277 48.3971 345.124 48.3971 343.282C48.3971 341.451 49.2674 340.309 50.7708 340.309C51.8559 340.309 52.4663 340.874 52.6585 341.779H54.1392C53.8227 340.185 52.715 339.122 50.7708 339.122C48.4649 339.122 46.8711 340.795 46.8711 343.282ZM58.1937 347.329H59.6971V343.825H63.8341V347.329H65.3262V339.258H63.8341V342.649H59.6971V339.258H58.1937V347.329ZM69.4177 347.329H75.0807V346.142H70.921V339.258H69.4177V347.329ZM78.8313 347.329H80.3346V339.258H78.8313V347.329ZM83.9848 343.282C83.9848 345.78 85.5107 347.464 87.7714 347.464C88.7661 347.464 89.7947 346.944 90.0886 346.176L90.1903 347.329H91.3546V343.214H88.3027V344.299H89.8625V344.582C89.8625 345.577 89.0487 346.277 87.8618 346.277C86.3585 346.277 85.5107 345.124 85.5107 343.282C85.5107 341.451 86.3811 340.309 87.8844 340.309C88.9696 340.309 89.58 340.874 89.7721 341.779H91.2529C90.9364 340.185 89.8286 339.122 87.8844 339.122C85.5785 339.122 83.9848 340.795 83.9848 343.282ZM95.3073 347.329H96.8107V343.825H100.948V347.329H102.44V339.258H100.948V342.649H96.8107V339.258H95.3073V347.329ZM108.939 347.329H110.431V340.445H113.336V339.258H106.045V340.445H108.939V347.329ZM116.164 344.887C116.311 346.662 117.792 347.464 119.714 347.464C121.499 347.464 122.845 346.492 122.845 345.023C122.845 343.723 122.053 343.067 120.731 342.819L119.171 342.513C118.301 342.344 117.882 342.129 117.882 341.462C117.882 340.75 118.493 340.241 119.465 340.241C120.471 340.241 121.172 340.682 121.273 341.473H122.686C122.528 339.959 121.375 339.122 119.454 339.122C117.69 339.122 116.424 340.117 116.424 341.553C116.424 342.965 117.385 343.531 118.572 343.745L120.053 344.017C121.025 344.198 121.375 344.525 121.375 345.113C121.375 345.927 120.629 346.357 119.668 346.357C118.662 346.357 117.713 345.984 117.611 344.887H116.164Z" fill="white"/>
<g clip-path="url(#clip0)">
<mask id="mask2" mask-type="alpha" maskUnits="userSpaceOnUse" x="258" y="0" width="178" height="109">
<path d="M258.444 0.229736H435.028V108.004H258.444V0.229736Z" fill="#C4C4C4"/>
</mask>
<g mask="url(#mask2)">
<mask id="mask3" mask-type="alpha" maskUnits="userSpaceOnUse" x="276" y="1" width="89" height="191">
<rect x="277.078" y="1.6311" width="86.8034" height="189.426" rx="12.1598" fill="#C4C4C4" stroke="#464646" stroke-width="0.55272"/>
</mask>
<g mask="url(#mask3)">
<rect x="277.078" y="1.6311" width="86.8034" height="189.426" rx="12.1598" stroke="white" stroke-width="0.55272"/>
</g>
<mask id="mask4" mask-type="alpha" maskUnits="userSpaceOnUse" x="336" y="21" width="89" height="204">
<rect x="337.187" y="22.1218" width="86.8762" height="201.627" rx="12.1598" fill="white" stroke="#464646" stroke-width="0.55272"/>
</mask>
<g mask="url(#mask4)">
<rect x="337.479" y="28.6931" width="86.8034" height="189.426" rx="12.1598" fill="#222222" stroke="white" stroke-width="0.55272"/>
</g>
<path opacity="0.8" fill-rule="evenodd" clip-rule="evenodd" d="M328.695 60.7507C328.695 57.7326 327.266 55.0497 325.045 53.3383L325.723 52.4585C328.205 54.371 329.805 57.3734 329.805 60.7507C329.805 64.1016 328.228 67.0868 325.777 68.9996L325.093 68.1238C327.287 66.4127 328.695 63.7453 328.695 60.7507ZM324.918 60.7509C324.918 59.389 324.43 58.1437 323.62 57.1766L324.472 56.4634C325.443 57.623 326.029 59.1186 326.029 60.7509C326.029 62.3646 325.456 63.8456 324.502 65L323.646 64.2927C324.441 63.33 324.918 62.097 324.918 60.7509ZM321.773 60.7505C321.773 62.0904 320.687 63.1763 319.348 63.1763C318.007 63.1763 316.921 62.0904 316.921 60.7505C316.921 59.4105 318.007 58.3238 319.348 58.3238C320.687 58.3238 321.773 59.4105 321.773 60.7505ZM313.776 60.7493C313.776 59.4153 314.245 58.1919 315.027 57.2327L314.166 56.5308C313.228 57.681 312.666 59.1505 312.666 60.7493C312.666 62.3628 313.238 63.8449 314.192 64.9994L315.048 64.292C314.253 63.3294 313.776 62.0955 313.776 60.7493ZM309.997 60.7504C309.997 57.7568 311.404 55.092 313.594 53.3798L312.91 52.5047C310.463 54.4183 308.887 57.4004 308.887 60.7504C308.887 64.0852 310.448 67.0552 312.878 68.9697L313.565 68.0974C311.392 66.3842 309.997 63.7304 309.997 60.7504Z" fill="#78DE7F"/>
<path fill-rule="evenodd" clip-rule="evenodd" d="M379.257 80.287V78.1584L383.374 81.0498L379.257 83.865V81.5411C375.281 82.0059 372.196 85.3858 372.196 89.4863C372.196 93.9045 375.777 97.4861 380.196 97.4861C384.614 97.4861 388.195 93.9045 388.195 89.4863C388.195 87.1844 387.224 85.1104 385.667 83.6501L386.52 82.7408C388.318 84.4269 389.442 86.8258 389.442 89.4863C389.442 94.593 385.302 98.7327 380.196 98.7327C375.089 98.7327 370.949 94.593 370.949 89.4863C370.949 84.6966 374.591 80.7576 379.257 80.287Z" fill="#78DE7F"/>
</g>
</g>
<path d="M349.531 133.549C349.531 131.13 348.051 129.378 345.677 129.378C343.303 129.378 341.822 131.13 341.822 133.549C341.822 135.979 343.303 137.72 345.677 137.72C348.051 137.72 349.531 135.979 349.531 133.549ZM348.005 133.549C348.005 135.346 347.214 136.533 345.677 136.533C344.128 136.533 343.348 135.346 343.348 133.549C343.348 131.763 344.128 130.565 345.677 130.565C347.214 130.565 348.005 131.763 348.005 133.549ZM354.919 129.513H353.167V137.584H354.603V131.333H354.625L358.774 137.584H360.164V129.513H358.74V135.233H358.717L354.919 129.513ZM372.001 129.513H368.893V137.584H372.001C374.431 137.584 376.036 135.979 376.036 133.549C376.036 131.13 374.431 129.513 372.001 129.513ZM372.001 130.7C373.606 130.7 374.499 131.751 374.499 133.549C374.499 135.346 373.606 136.397 372.001 136.397H370.362V130.7H372.001ZM385.519 137.584V136.397H381.144V134.136H384.976V132.95H381.144V130.7H385.474V129.513H379.675V137.584H385.519ZM394.157 137.584L396.452 131.243H396.474V137.584H397.91V129.513H395.853L393.682 135.583H393.66L391.49 129.513H389.365V137.584H390.744V131.243H390.766L393.072 137.584H394.157ZM407.856 137.584H409.394L406.149 129.513H404.465L401.221 137.584H402.691L403.459 135.606H407.099L407.856 137.584ZM405.279 130.96H405.313L406.647 134.442H403.923L405.279 130.96ZM414.459 129.513H412.707V137.584H414.142V131.333H414.165L418.313 137.584H419.703V129.513H418.279V135.233H418.256L414.459 129.513ZM426.906 129.513H423.798V137.584H426.906C429.337 137.584 430.942 135.979 430.942 133.549C430.942 131.13 429.337 129.513 426.906 129.513ZM426.906 130.7C428.512 130.7 429.404 131.751 429.404 133.549C429.404 135.346 428.512 136.397 426.906 136.397H425.267V130.7H426.906Z" fill="white"/>
<path d="M282.573 137.584H288.236V136.397H284.076V129.513H282.573V137.584ZM291.986 137.584H293.49V129.513H291.986V137.584ZM299.977 137.584H301.65L304.849 129.513H303.323L300.859 135.979H300.836L298.383 129.513H296.79L299.977 137.584ZM314.008 137.584V136.397H309.634V134.136H313.466V132.95H309.634V130.7H313.963V129.513H308.164V137.584H314.008Z" fill="white"/>
<path d="M9.14409 137.584H14.8071V136.397H10.6474V129.513H9.14409V137.584ZM18.5577 137.584H20.0611V129.513H18.5577V137.584ZM26.5484 137.584H28.2213L31.4201 129.513H29.8942L27.43 135.979H27.4074L24.9546 129.513H23.3608L26.5484 137.584ZM40.5796 137.584V136.397H36.2052V134.136H40.037V132.95H36.2052V130.7H40.5344V129.513H34.7357V137.584H40.5796Z" fill="white"/>
<path d="M353.783 191.735L353.783 159.403" stroke="white" stroke-width="0.705601"/>
<path d="M285.684 386.536L285.684 394.019L65.3809 394.019L65.3809 368.319" stroke="white" stroke-width="0.705601"/>
<path d="M353.955 386.536L353.955 394.019L564.372 394.019L564.372 368.319" stroke="white" stroke-width="0.705601"/>
<path d="M426.199 402.284L426.199 409.77L662.759 409.77L662.759 368.319" stroke="white" stroke-width="0.705601"/>
<path d="M364.561 167.46L354.198 158.574L343.835 167.694" stroke="white" stroke-width="0.705601" stroke-linecap="round" stroke-linejoin="round"/>
<path d="M291.266 182.202L75.8516 182.202L75.8516 158.574" stroke="white" stroke-width="0.705601"/>
<path d="M86.2158 167.73L75.853 158.844L65.4901 167.964" stroke="white" stroke-width="0.705601" stroke-linecap="round" stroke-linejoin="round"/>
<path d="M75.7441 377.373L65.3813 368.487L55.0184 377.607" stroke="white" stroke-width="0.705601" stroke-linecap="round" stroke-linejoin="round"/>
<path d="M554.009 376.734L564.372 367.848L574.735 376.967" stroke="white" stroke-width="0.705601" stroke-linecap="round" stroke-linejoin="round"/>
<path d="M652.396 376.375L662.759 367.49L673.122 376.609" stroke="white" stroke-width="0.705601" stroke-linecap="round" stroke-linejoin="round"/>
<g clip-path="url(#clip1)">
<mask id="mask5" mask-type="alpha" maskUnits="userSpaceOnUse" x="-18" y="0" width="177" height="109">
<path d="M-17.8096 0.229736H158.774V108.004H-17.8096V0.229736Z" fill="#C4C4C4"/>
</mask>
<g mask="url(#mask5)">
<mask id="mask6" mask-type="alpha" maskUnits="userSpaceOnUse" x="0" y="1" width="88" height="191">
<rect x="0.791009" y="1.6311" width="86.8034" height="189.426" rx="12.1598" fill="#C4C4C4" stroke="#464646" stroke-width="0.55272"/>
</mask>
<g mask="url(#mask6)">
<rect x="0.791009" y="1.63256" width="86.8034" height="189.426" rx="12.1598" stroke="white" stroke-width="0.55272"/>
</g>
<mask id="mask7" mask-type="alpha" maskUnits="userSpaceOnUse" x="60" y="21" width="89" height="204">
<rect x="60.8984" y="22.1218" width="86.8762" height="201.627" rx="12.1598" fill="white" stroke="#464646" stroke-width="0.55272"/>
</mask>
<g mask="url(#mask7)">
<rect x="60.8984" y="26.22" width="86.8034" height="189.426" rx="12.1598" fill="#222222" stroke="white" stroke-width="0.55272"/>
</g>
<path opacity="0.8" fill-rule="evenodd" clip-rule="evenodd" d="M54.0647 62.582C54.0647 59.5639 52.6361 56.881 50.4154 55.1696L51.0934 54.2898C53.5752 56.2023 55.1754 59.2047 55.1754 62.582C55.1754 65.9329 53.5986 68.9181 51.1468 70.8309L50.4636 69.9551C52.6568 68.244 54.0647 65.5766 54.0647 62.582ZM50.287 62.5822C50.287 61.2203 49.7995 59.975 48.9896 59.0079L49.8411 58.2947C50.8123 59.4543 51.3978 60.9499 51.3978 62.5822C51.3978 64.1959 50.8248 65.6769 49.8714 66.8313L49.0149 66.124C49.8101 65.1613 50.287 63.9283 50.287 62.5822ZM47.1435 62.5818C47.1435 63.9217 46.0569 65.0076 44.7176 65.0076C43.3769 65.0076 42.291 63.9217 42.291 62.5818C42.291 61.2418 43.3769 60.1551 44.7176 60.1551C46.0569 60.1551 47.1435 61.2418 47.1435 62.5818ZM39.1474 62.5806C39.1474 61.2466 39.6157 60.0232 40.3977 59.064L39.5368 58.3621C38.599 59.5123 38.0366 60.9818 38.0366 62.5806C38.0366 64.1941 38.6095 65.6762 39.563 66.8307L40.4194 66.1233C39.6244 65.1607 39.1474 63.9268 39.1474 62.5806ZM35.3676 62.5807C35.3676 59.5871 36.7744 56.9223 38.9643 55.2101L38.2801 54.3351C35.8328 56.2486 34.2568 59.2307 34.2568 62.5807C34.2568 65.9156 35.8186 68.8856 38.2477 70.8001L38.9353 69.9277C36.7617 68.2146 35.3676 65.5607 35.3676 62.5807Z" fill="#198AFF"/>
<path fill-rule="evenodd" clip-rule="evenodd" d="M103.799 76.9386V74.8101L107.916 77.7014L103.799 80.5167V78.1927C99.823 78.6575 96.7379 82.0375 96.7379 86.1379C96.7379 90.5561 100.319 94.1377 104.738 94.1377C109.156 94.1377 112.737 90.5561 112.737 86.1379C112.737 83.836 111.766 81.762 110.209 80.3017L111.062 79.3924C112.86 81.0785 113.984 83.4774 113.984 86.1379C113.984 91.2446 109.844 95.3843 104.738 95.3843C99.631 95.3843 95.4912 91.2446 95.4912 86.1379C95.4912 81.3483 99.133 77.4092 103.799 76.9386Z" fill="#198AFF"/>
</g>
</g>
<mask id="mask8" mask-type="alpha" maskUnits="userSpaceOnUse" x="10" y="199" width="124" height="116">
<path d="M11.1633 200.351H132.722V314.02H11.1633V200.351Z" fill="#C4C4C4" stroke="white" stroke-width="0.705601"/>
</mask>
<g mask="url(#mask8)">
<mask id="mask9" mask-type="alpha" maskUnits="userSpaceOnUse" x="29" y="217" width="88" height="191">
<rect x="29.5283" y="218.034" width="86.8034" height="189.426" rx="12.1598" fill="#C4C4C4" stroke="white" stroke-width="0.55272"/>
</mask>
<g mask="url(#mask9)">
<rect x="29.5283" y="218.034" width="86.8034" height="189.426" rx="12.1598" stroke="white" stroke-width="0.55272"/>
</g>
</g>
<path d="M645.549 346.386H651.212V345.199H647.053V338.316H645.549V346.386ZM654.963 346.386H656.466V338.316H654.963V346.386ZM662.954 346.386H664.627L667.825 338.316H666.299L663.835 344.781H663.813L661.36 338.316H659.766L662.954 346.386ZM676.985 346.386V345.199H672.61V342.939H676.442V341.752H672.61V339.502H676.94V338.316H671.141V346.386H676.985Z" fill="white"/>
<mask id="mask10" mask-type="alpha" maskUnits="userSpaceOnUse" x="600" y="199" width="123" height="116">
<path d="M600.589 200.239H722.147V313.908H600.589V200.239Z" fill="#C4C4C4" stroke="white" stroke-width="0.705601"/>
</mask>
<g mask="url(#mask10)">
<mask id="mask11" mask-type="alpha" maskUnits="userSpaceOnUse" x="618" y="217" width="89" height="191">
<rect x="618.955" y="217.921" width="86.8034" height="189.426" rx="12.1598" fill="#C4C4C4" stroke="white" stroke-width="0.55272"/>
</mask>
<g mask="url(#mask11)">
<rect x="618.955" y="217.921" width="86.8034" height="189.426" rx="12.1598" stroke="white" stroke-width="0.55272"/>
</g>
</g>
<path opacity="0.8" fill-rule="evenodd" clip-rule="evenodd" d="M671.954 279.897C671.954 276.879 670.526 274.196 668.305 272.485L668.983 271.605C671.465 273.517 673.065 276.52 673.065 279.897C673.065 283.248 671.488 286.233 669.036 288.146L668.353 287.27C670.546 285.559 671.954 282.892 671.954 279.897ZM668.177 279.897C668.177 278.535 667.689 277.29 666.879 276.323L667.731 275.61C668.702 276.769 669.287 278.265 669.287 279.897C669.287 281.511 668.714 282.992 667.761 284.146L666.905 283.439C667.7 282.476 668.177 281.243 668.177 279.897ZM665.032 279.897C665.032 281.237 663.946 282.323 662.606 282.323C661.266 282.323 660.18 281.237 660.18 279.897C660.18 278.557 661.266 277.47 662.606 277.47C663.946 277.47 665.032 278.557 665.032 279.897ZM657.036 279.896C657.036 278.562 657.504 277.338 658.286 276.379L657.426 275.677C656.488 276.827 655.925 278.297 655.925 279.896C655.925 281.509 656.498 282.991 657.452 284.146L658.308 283.439C657.513 282.476 657.036 281.242 657.036 279.896ZM653.257 279.898C653.257 276.904 654.664 274.24 656.854 272.527L656.17 271.652C653.722 273.566 652.146 276.548 652.146 279.898C652.146 283.233 653.708 286.203 656.137 288.117L656.825 287.245C654.651 285.532 653.257 282.878 653.257 279.898Z" fill="#9F9F9F"/>
<path d="M635.554 133.549C635.554 131.13 634.073 129.378 631.699 129.378C629.326 129.378 627.845 131.13 627.845 133.549C627.845 135.979 629.326 137.72 631.699 137.72C634.073 137.72 635.554 135.979 635.554 133.549ZM634.028 133.549C634.028 135.346 633.237 136.533 631.699 136.533C630.151 136.533 629.371 135.346 629.371 133.549C629.371 131.763 630.151 130.565 631.699 130.565C633.237 130.565 634.028 131.763 634.028 133.549ZM640.942 129.513H639.19V137.584H640.625V131.333H640.648L644.796 137.584H646.186V129.513H644.762V135.233H644.74L640.942 129.513ZM658.023 129.513H654.915V137.584H658.023C660.454 137.584 662.059 135.979 662.059 133.549C662.059 131.13 660.454 129.513 658.023 129.513ZM658.023 130.7C659.628 130.7 660.521 131.751 660.521 133.549C660.521 135.346 659.628 136.397 658.023 136.397H656.384V130.7H658.023ZM671.541 137.584V136.397H667.167V134.136H670.999V132.95H667.167V130.7H671.496V129.513H665.697V137.584H671.541ZM680.18 137.584L682.474 131.243H682.497V137.584H683.932V129.513H681.875L679.705 135.583H679.682L677.512 129.513H675.387V137.584H676.766V131.243H676.789L679.094 137.584H680.18ZM693.879 137.584H695.416L692.172 129.513H690.488L687.244 137.584H688.713L689.482 135.606H693.121L693.879 137.584ZM691.302 130.96H691.335L692.669 134.442H689.945L691.302 130.96ZM700.481 129.513H698.729V137.584H700.165V131.333H700.187L704.335 137.584H705.726V129.513H704.302V135.233H704.279L700.481 129.513ZM712.929 129.513H709.82V137.584H712.929C715.359 137.584 716.964 135.979 716.964 133.549C716.964 131.13 715.359 129.513 712.929 129.513ZM712.929 130.7C714.534 130.7 715.427 131.751 715.427 133.549C715.427 135.346 714.534 136.397 712.929 136.397H711.29V130.7H712.929Z" fill="white"/>
<path d="M566.937 137.584H572.6V136.397H568.44V129.513H566.937V137.584ZM576.351 137.584H577.854V129.513H576.351V137.584ZM584.341 137.584H586.014L589.213 129.513H587.687L585.223 135.979H585.2L582.748 129.513H581.154L584.341 137.584ZM598.373 137.584V136.397H593.998V134.136H597.83V132.95H593.998V130.7H598.327V129.513H592.529V137.584H598.373Z" fill="white"/>
<g clip-path="url(#clip2)">
<mask id="mask12" mask-type="alpha" maskUnits="userSpaceOnUse" x="556" y="1" width="88" height="191">
<rect x="556.5" y="1.6311" width="86.8034" height="189.426" rx="12.1598" fill="#C4C4C4" stroke="#464646" stroke-width="0.55272"/>
</mask>
<g mask="url(#mask12)">
<rect x="556.5" y="1.6311" width="86.8034" height="189.426" rx="12.1598" stroke="white" stroke-width="0.55272"/>
</g>
<mask id="mask13" mask-type="alpha" maskUnits="userSpaceOnUse" x="616" y="21" width="88" height="204">
<rect x="616.606" y="22.1218" width="86.8762" height="201.627" rx="12.1598" fill="white" stroke="#464646" stroke-width="0.55272"/>
</mask>
<g mask="url(#mask13)">
<rect x="616.606" y="26.22" width="86.8034" height="189.426" rx="12.1598" fill="#222222" stroke="white" stroke-width="0.55272"/>
</g>
</g>
<path opacity="0.8" fill-rule="evenodd" clip-rule="evenodd" d="M609.971 60.7507C609.971 57.7326 608.534 55.0497 606.301 53.3383L606.983 52.4585C609.479 54.371 611.088 57.3734 611.088 60.7507C611.088 64.1016 609.502 67.0868 607.037 68.9996L606.35 68.1238C608.555 66.4127 609.971 63.7453 609.971 60.7507ZM606.171 60.7507C606.171 59.3887 605.681 58.1435 604.866 57.1764L605.723 56.4632C606.699 57.6228 607.288 59.1184 607.288 60.7507C607.288 62.3643 606.712 63.8454 605.753 64.9998L604.892 64.2925C605.691 63.3298 606.171 62.0968 606.171 60.7507ZM603.01 60.7502C603.01 62.0902 601.917 63.1761 600.57 63.1761C599.222 63.1761 598.13 62.0902 598.13 60.7502C598.13 59.4102 599.222 58.3236 600.57 58.3236C601.917 58.3236 603.01 59.4102 603.01 60.7502ZM594.97 60.7493C594.97 59.4153 595.441 58.1919 596.227 57.2327L595.361 56.5308C594.418 57.681 593.853 59.1505 593.853 60.7493C593.853 62.3628 594.429 63.8449 595.388 64.9994L596.249 64.292C595.449 63.3294 594.97 62.0955 594.97 60.7493ZM591.17 60.7504C591.17 57.7568 592.584 55.092 594.786 53.3798L594.098 52.5047C591.637 54.4183 590.053 57.4004 590.053 60.7504C590.053 64.0852 591.623 67.0552 594.066 68.9697L594.757 68.0974C592.572 66.3842 591.17 63.7304 591.17 60.7504Z" fill="#FF6400"/>
<path fill-rule="evenodd" clip-rule="evenodd" d="M661.167 80.6929V78.1262L665.284 81.0175L661.167 83.8328V81.947C657.191 82.4118 654.106 85.7917 654.106 89.8922C654.106 94.3103 657.688 97.8919 662.106 97.8919C666.524 97.8919 670.106 94.3103 670.106 89.8922C670.106 87.5903 669.134 85.5163 667.577 84.056L668.43 83.1467C670.228 84.8328 671.352 87.2317 671.352 89.8922C671.352 94.9988 667.212 99.1386 662.106 99.1386C656.999 99.1386 652.859 94.9988 652.859 89.8922C652.859 85.1025 656.501 81.1634 661.167 80.6929Z" fill="#FF6400"/>
<path opacity="0.8" d="M73.376 270.304C73.457 270.066 73.6801 269.907 73.9309 269.907C74.1818 269.907 74.4048 270.066 74.4859 270.304L76.4053 275.923H82.6357C82.8924 275.923 83.1192 276.09 83.1956 276.335C83.272 276.58 83.1803 276.846 82.9692 276.992L77.9542 280.458L79.8658 286.055C79.9476 286.295 79.8665 286.56 79.6646 286.712C79.4627 286.865 79.1856 286.871 78.9773 286.727L73.9309 283.239L68.8845 286.727C68.6763 286.871 68.3992 286.865 68.1973 286.712C67.9954 286.56 67.9143 286.295 67.9961 286.055L69.9076 280.458L64.8927 276.992C64.6816 276.846 64.5899 276.58 64.6663 276.335C64.7427 276.09 64.9695 275.923 65.2261 275.923H71.4566L73.376 270.304Z" stroke="#78DE7F" stroke-width="1.17289" stroke-linejoin="round"/>
<path opacity="0.8" d="M51.8213 270.304C51.9023 270.066 52.1254 269.907 52.3762 269.907C52.6271 269.907 52.8501 270.066 52.9312 270.304L54.8506 275.923H61.0811C61.3377 275.923 61.5645 276.09 61.6409 276.335C61.7173 276.58 61.6256 276.846 61.4145 276.992L56.3995 280.458L58.3111 286.055C58.3929 286.295 58.3118 286.56 58.1099 286.712C57.908 286.865 57.6309 286.871 57.4227 286.727L52.3762 283.239L47.3298 286.727C47.1216 286.871 46.8445 286.865 46.6426 286.712C46.4407 286.56 46.3596 286.295 46.4414 286.055L48.353 280.458L43.338 276.992C43.1269 276.846 43.0352 276.58 43.1116 276.335C43.188 276.09 43.4148 275.923 43.6714 275.923H49.9019L51.8213 270.304Z" stroke="#198AFF" stroke-width="1.17289" stroke-linejoin="round"/>
<path opacity="0.8" d="M95.3434 270.312C95.422 270.07 95.6471 269.907 95.9011 269.907C96.1551 269.907 96.3802 270.07 96.4588 270.312L98.2841 275.923H104.191C104.446 275.923 104.671 276.087 104.749 276.329C104.828 276.57 104.742 276.835 104.536 276.984L99.7573 280.452L101.582 286.063C101.661 286.305 101.575 286.57 101.37 286.719C101.164 286.868 100.886 286.869 100.68 286.719L95.9011 283.251L91.1219 286.719C90.9163 286.869 90.638 286.868 90.4325 286.719C90.2271 286.57 90.1412 286.305 90.2198 286.063L92.0449 280.452L87.2664 276.984C87.0607 276.835 86.9746 276.57 87.053 276.329C87.1315 276.087 87.3567 275.923 87.6108 275.923H93.5181L95.3434 270.312Z" stroke="#FF6400" stroke-width="1.17289" stroke-linejoin="round"/>
<path d="M530.175 343.293C530.175 340.874 528.694 339.122 526.32 339.122C523.947 339.122 522.466 340.874 522.466 343.293C522.466 345.724 523.947 347.464 526.32 347.464C528.694 347.464 530.175 345.724 530.175 343.293ZM528.649 343.293C528.649 345.091 527.858 346.277 526.32 346.277C524.772 346.277 523.992 345.091 523.992 343.293C523.992 341.507 524.772 340.309 526.32 340.309C527.858 340.309 528.649 341.507 528.649 343.293ZM535.563 339.258H533.811V347.329H535.246V341.078H535.269L539.417 347.329H540.807V339.258H539.383V344.978H539.361L535.563 339.258ZM548.011 339.258H544.902V347.329H548.011C550.441 347.329 552.046 345.724 552.046 343.293C552.046 340.874 550.441 339.258 548.011 339.258ZM548.011 340.445C549.616 340.445 550.509 341.496 550.509 343.293C550.509 345.091 549.616 346.142 548.011 346.142H546.372V340.445H548.011ZM561.528 347.329V346.142H557.154V343.881H560.986V342.694H557.154V340.445H561.483V339.258H555.685V347.329H561.528ZM570.167 347.329L572.461 340.987H572.484V347.329H573.919V339.258H571.862L569.692 345.328H569.669L567.499 339.258H565.374V347.329H566.753V340.987H566.776L569.082 347.329H570.167ZM583.866 347.329H585.403L582.159 339.258H580.475L577.231 347.329H578.7L579.469 345.351H583.109L583.866 347.329ZM581.289 340.705H581.323L582.656 344.186H579.932L581.289 340.705ZM590.468 339.258H588.716V347.329H590.152V341.078H590.174L594.323 347.329H595.713V339.258H594.289V344.978H594.266L590.468 339.258ZM602.916 339.258H599.808V347.329H602.916C605.346 347.329 606.951 345.724 606.951 343.293C606.951 340.874 605.346 339.258 602.916 339.258ZM602.916 340.445C604.521 340.445 605.414 341.496 605.414 343.293C605.414 345.091 604.521 346.142 602.916 346.142H601.277V340.445H602.916Z" fill="white"/>
<mask id="mask14" mask-type="alpha" maskUnits="userSpaceOnUse" x="498" y="200" width="123" height="116">
<path d="M498.438 201.18H619.996V314.85H498.438V201.18Z" fill="#C4C4C4" stroke="white" stroke-width="0.705601"/>
</mask>
<g mask="url(#mask14)">
<mask id="mask15" mask-type="alpha" maskUnits="userSpaceOnUse" x="516" y="218" width="88" height="191">
<rect x="516.803" y="218.863" width="86.8034" height="189.426" rx="12.1598" fill="#C4C4C4" stroke="white" stroke-width="0.55272"/>
</mask>
<g mask="url(#mask15)">
<rect x="516.803" y="218.863" width="86.8034" height="189.426" rx="12.1598" stroke="white" stroke-width="0.55272"/>
</g>
</g>
<path fill-rule="evenodd" clip-rule="evenodd" d="M558.303 269.211V267.082L562.42 269.974L558.303 272.789V270.465C554.327 270.93 551.242 274.31 551.242 278.41C551.242 282.828 554.823 286.41 559.242 286.41C563.66 286.41 567.241 282.828 567.241 278.41C567.241 276.108 566.27 274.034 564.713 272.574L565.566 271.665C567.363 273.351 568.488 275.75 568.488 278.41C568.488 283.517 564.348 287.657 559.242 287.657C554.135 287.657 549.995 283.517 549.995 278.41C549.995 273.62 553.637 269.681 558.303 269.211Z" fill="#B3B3B3"/>
<path d="M415.313 182.202L628.872 182.202L628.872 158.574" stroke="white" stroke-width="0.705601"/>
<path d="M618.508 167.73L628.871 158.844L639.234 167.964" stroke="white" stroke-width="0.705601" stroke-linecap="round" stroke-linejoin="round"/>
<defs>
<clipPath id="clip0">
<rect x="276.684" y="0.22998" width="147.567" height="107.774" fill="white"/>
</clipPath>
<clipPath id="clip1">
<rect x="0.428711" y="0.22998" width="147.567" height="107.774" fill="white"/>
</clipPath>
<clipPath id="clip2">
<rect x="556.073" y="0.22998" width="158.345" height="107.774" fill="white"/>
</clipPath>
</defs>
</svg>
