<svg width="361" height="634" fill="none" xmlns="http://www.w3.org/2000/svg"><g clip-path="url(#clip0)"><mask id="a" maskUnits="userSpaceOnUse" x="97" y="315" width="165" height="71"><path fill="#C4C4C4" d="M97 315h165v71H97z"/></mask><g mask="url(#a)"><mask id="b" maskUnits="userSpaceOnUse" x="106" y="323" width="147" height="318"><rect x="107.489" y="323.897" width="144.738" height="316.118" rx="25.23" fill="#C4C4C4" stroke="#464646" stroke-width="1.147"/></mask><g mask="url(#b)"><rect x="107.489" y="323.897" width="144.738" height="316.118" rx="25.23" stroke="#fff" stroke-width="1.147"/><path d="M115.768 353.116l38.515-.111" stroke="#198AFF" stroke-width="6.881"/><path d="M160.052 352.993l38.515-.107" stroke="#78DE7F" stroke-width="6.881"/><path d="M205.078 352.869l38.515-.107" stroke="#FF6400" stroke-width="6.881"/></g></g><path fill-rule="evenodd" clip-rule="evenodd" d="M246.958 421.606a5.892 5.892 0 00-2.286-4.67l.425-.554a6.595 6.595 0 012.557 5.224 6.591 6.591 0 01-2.524 5.197l-.428-.552a5.89 5.89 0 002.256-4.645zm-2.367 0c0-.858-.306-1.643-.813-2.252l.534-.449c.608.73.975 1.673.975 2.701a4.2 4.2 0 01-.957 2.677l-.536-.446a3.501 3.501 0 00.797-2.231zm-1.97 0c0 .844-.681 1.528-1.52 1.528-.84 0-1.52-.684-1.52-1.528s.68-1.529 1.52-1.529c.839 0 1.52.685 1.52 1.529zm-5.008 0c0-.841.293-1.611.783-2.216l-.539-.442a4.207 4.207 0 00-.94 2.658c0 1.016.359 1.95.956 2.677l.537-.445a3.506 3.506 0 01-.797-2.232zm-2.367 0c0-1.886.881-3.565 2.252-4.643l-.428-.552a6.595 6.595 0 00-2.52 5.195 6.59 6.59 0 002.5 5.178l.43-.549a5.893 5.893 0 01-2.234-4.629z" fill="#fff"/><path d="M237.314 435.109h1.983v-.34h-1.566v-3.085h-.417v3.425zm2.545 0h.397v-2.505h-.397v2.505zm.191-3.028a.265.265 0 00.264-.263.266.266 0 00-.264-.264.266.266 0 00-.263.264c0 .144.12.263.263.263zm1.648 3.028h.508l.9-2.505h-.412l-.733 2.103-.742-2.103h-.431l.91 2.505zm2.887.043c.565 0 .982-.263 1.068-.766h-.398c-.052.292-.278.436-.666.436-.512 0-.785-.316-.804-.886h1.887v-.13c0-.896-.546-1.245-1.126-1.245-.69 0-1.173.527-1.173 1.284v.038c0 .771.503 1.269 1.212 1.269zm-.786-1.537c.067-.446.34-.724.747-.724.412 0 .681.206.719.724h-1.466zm-137.329 1.493h.417v-1.523h1.801v1.523h.417v-3.425h-.417v1.552h-1.801v-1.552h-.417v3.425zm3.481 0h.397v-2.505h-.397v2.505zm.191-3.027c.144 0 .264-.12.264-.264a.265.265 0 00-.264-.263.265.265 0 00-.263.263c0 .144.12.264.263.264zm2.022 3.942c.699 0 1.193-.354 1.197-1.082v-2.338h-.397v.402c-.144-.244-.403-.445-.82-.445-.689 0-1.169.565-1.169 1.245v.034c0 .69.484 1.188 1.141 1.188.364 0 .704-.23.848-.474v.364c0 .536-.312.771-.805.771-.427 0-.666-.148-.724-.436h-.407c.067.422.393.771 1.136.771zm-.005-1.327c-.422 0-.772-.325-.772-.872v-.038c0-.527.297-.896.796-.896.488 0 .795.326.795.887v.033c0 .561-.354.886-.819.886zm2.007.412h.398v-1.518c0-.451.33-.685.699-.685.403 0 .589.196.589.637v1.566h.398v-1.537c0-.729-.364-1.011-.881-1.011-.413 0-.69.206-.805.44v-1.595h-.398v3.703zm2.873 0h.402v-3.703h-.402v3.703zm1.226 0h.397v-2.505h-.397v2.505zm.191-3.027c.144 0 .264-.12.264-.264a.265.265 0 00-.264-.263.265.265 0 00-.263.263c0 .144.12.264.263.264zm2.022 3.942c.699 0 1.193-.354 1.197-1.082v-2.338h-.397v.402c-.144-.244-.403-.445-.82-.445-.689 0-1.169.565-1.169 1.245v.034c0 .69.484 1.188 1.141 1.188.364 0 .704-.23.848-.474v.364c0 .536-.312.771-.805.771-.427 0-.666-.148-.724-.436h-.407c.067.422.393.771 1.136.771zm-.005-1.327c-.422 0-.772-.325-.772-.872v-.038c0-.527.297-.896.796-.896.488 0 .795.326.795.887v.033c0 .561-.354.886-.819.886zm2.007.412h.398v-1.518c0-.451.33-.685.699-.685.403 0 .589.196.589.637v1.566h.398v-1.537c0-.729-.364-1.011-.881-1.011-.412 0-.69.206-.805.44v-1.595h-.398v3.703zm3.625.034a.938.938 0 00.34-.053v-.335a.827.827 0 01-.306.053c-.202 0-.312-.12-.312-.365v-1.504h.585v-.335h-.585v-.57h-.397v.57h-.36v.335h.36v1.543c0 .393.22.661.675.661zm1.718.01c.608 0 .919-.307.919-.762 0-.532-.364-.647-.881-.743-.46-.081-.585-.172-.585-.397 0-.216.187-.36.475-.36.316 0 .469.12.527.393h.383c-.067-.541-.455-.723-.906-.723-.392 0-.848.239-.848.704 0 .436.221.618.872.738.388.072.585.158.585.421 0 .269-.168.398-.546.398-.403 0-.561-.187-.59-.484h-.388c.024.513.384.815.983.815z" fill="#fff"/><path d="M116.808 416.502a.36.36 0 01.682 0l1.153 3.453h3.739a.36.36 0 01.207.653l-3.016 2.132 1.151 3.446a.36.36 0 01-.548.407l-3.027-2.14-3.027 2.14a.36.36 0 01-.548-.407l1.151-3.446-3.016-2.132a.36.36 0 01.207-.653h3.739l1.153-3.453z" stroke="#fff" stroke-width=".719" stroke-linejoin="round"/><path d="M166.081 434.808c-.714 0-1.265-.565-1.265-1.394v-.038c0-.815.46-1.399 1.255-1.399.791 0 1.241.622 1.241 1.389v.038c0 .829-.47 1.404-1.231 1.404zm0 .345c.996 0 1.662-.776 1.662-1.744v-.038c0-.963-.666-1.73-1.672-1.73-1.006 0-1.686.767-1.686 1.739v.039c0 .958.685 1.734 1.696 1.734zm2.326-.043h.397v-1.519c0-.45.331-.685.7-.685.402 0 .589.196.589.637v1.567h.398v-1.538c0-.728-.364-1.011-.882-1.011-.412 0-.69.206-.805.441v-.398h-.397v2.506zm3.309-.34v-2.75h.464c.944 0 1.328.555 1.328 1.346v.038c0 .839-.441 1.366-1.323 1.366h-.469zm-.417.34h.896c1.198 0 1.744-.752 1.744-1.701v-.043c0-.953-.556-1.682-1.735-1.682h-.905v3.426zm4.332.043c.566 0 .982-.264 1.069-.767h-.398c-.053.293-.278.436-.666.436-.513 0-.786-.316-.805-.886h1.888v-.129c0-.896-.546-1.246-1.126-1.246-.69 0-1.174.527-1.174 1.284v.038c0 .772.503 1.27 1.212 1.27zm-.785-1.538c.067-.445.34-.723.747-.723.412 0 .68.206.719.723h-1.466zm2.483 1.495h.398v-1.533c0-.451.335-.671.661-.671.345 0 .532.182.532.623v1.581h.397v-1.533c0-.451.336-.671.661-.671.345 0 .532.182.532.623v1.581h.398v-1.552c0-.729-.393-.997-.843-.997-.312 0-.685.144-.858.47-.129-.336-.412-.47-.733-.47-.359 0-.632.192-.747.426v-.383h-.398v2.506zm4.988.043c.369 0 .594-.125.781-.359v.316h.398v-1.653c0-.699-.436-.896-.915-.896-.484 0-.939.211-.992.781h.398c.038-.307.23-.45.575-.45.383 0 .536.167.536.565v.182h-.359c-.642 0-1.255.196-1.255.776 0 .513.368.738.833.738zm.039-.316c-.35 0-.475-.163-.475-.422 0-.369.369-.493.872-.493h.345v.311c0 .388-.321.604-.742.604zm1.921.273h.398v-1.519c0-.45.33-.685.699-.685.402 0 .589.196.589.637v1.567h.398v-1.538c0-.728-.364-1.011-.882-1.011-.412 0-.689.206-.804.441v-.398h-.398v2.506zm3.807.043c.364 0 .714-.23.858-.474v.431h.397v-3.704h-.397v1.601c-.144-.245-.403-.446-.82-.446-.69 0-1.169.541-1.169 1.308v.038c0 .781.475 1.246 1.131 1.246zm.043-.331c-.421 0-.762-.301-.762-.934v-.038c0-.609.297-.958.796-.958.488 0 .795.301.795.943v.039c0 .642-.364.948-.829.948z" fill="#fff"/><path fill-rule="evenodd" clip-rule="evenodd" d="M176.781 416.412v-1.177l2.262 1.598-2.262 1.556v-1.284a4.413 4.413 0 00-3.88 4.391c0 2.442 1.968 4.422 4.396 4.422s4.397-1.98 4.397-4.422a4.422 4.422 0 00-1.39-3.226l.469-.502a5.111 5.111 0 011.606 3.728c0 2.823-2.275 5.111-5.082 5.111-2.806 0-5.081-2.288-5.081-5.111 0-2.647 2.001-4.824 4.565-5.084z" fill="#fff"/><path stroke="#fff" stroke-width=".479" d="M91.435 410.269h173.326v28.814H91.435z"/><path d="M283.331 259.024c0-1.851-1.133-3.192-2.949-3.192-1.816 0-2.949 1.341-2.949 3.192 0 1.859 1.133 3.191 2.949 3.191 1.816 0 2.949-1.332 2.949-3.191zm-1.167 0c0 1.375-.606 2.283-1.782 2.283-1.185 0-1.782-.908-1.782-2.283 0-1.367.597-2.284 1.782-2.284 1.176 0 1.782.917 1.782 2.284zm5.29-3.088h-1.341v6.175h1.098v-4.783h.018l3.174 4.783h1.064v-6.175h-1.09v4.376h-.017l-2.906-4.376zm13.07 0h-2.379v6.175h2.379c1.859 0 3.088-1.228 3.088-3.087 0-1.851-1.229-3.088-3.088-3.088zm0 .908c1.228 0 1.911.804 1.911 2.18 0 1.375-.683 2.179-1.911 2.179h-1.254v-4.359h1.254zm10.343 5.267v-.908h-3.347v-1.73h2.932v-.908h-2.932v-1.721h3.313v-.908h-4.437v6.175h4.471zm6.61 0l1.756-4.852h.017v4.852h1.098v-6.175h-1.574l-1.66 4.644h-.018l-1.66-4.644h-1.626v6.175h1.055v-4.852h.017l1.765 4.852h.83zm10.482 0h1.176l-2.482-6.175h-1.289l-2.482 6.175h1.124l.588-1.513h2.785l.58 1.513zm-1.972-5.068h.026l1.02 2.664h-2.084l1.038-2.664zm7.024-1.107h-1.341v6.175h1.098v-4.783h.018l3.174 4.783h1.064v-6.175h-1.09v4.376h-.017l-2.906-4.376zm9.524 0h-2.378v6.175h2.378c1.86 0 3.088-1.228 3.088-3.087 0-1.851-1.228-3.088-3.088-3.088zm0 .908c1.228 0 1.912.804 1.912 2.18 0 1.375-.684 2.179-1.912 2.179h-1.254v-4.359h1.254z" fill="#fff"/><g clip-path="url(#clip1)"><g clip-path="url(#clip2)"><mask id="c" maskUnits="userSpaceOnUse" x="94" y="0" width="154" height="94"><path d="M94.977.472h152.32v92.966H94.977V.472z" fill="#C4C4C4"/></mask><g mask="url(#c)"><mask id="d" maskUnits="userSpaceOnUse" x="110" y="1" width="77" height="165"><rect x="111.049" y="1.681" width="74.876" height="163.398" rx="10.489" fill="#C4C4C4" stroke="#464646" stroke-width=".477"/></mask><g mask="url(#d)"><rect x="111.049" y="1.681" width="74.876" height="163.398" rx="10.489" stroke="#fff" stroke-width=".477"/></g><rect x="163.151" y="25.025" width="74.876" height="163.398" rx="10.489" fill="#222" stroke="#fff" stroke-width=".477"/><path opacity=".8" fill-rule="evenodd" clip-rule="evenodd" d="M155.573 52.827a8.053 8.053 0 00-3.147-6.394l.584-.759a9.01 9.01 0 013.522 7.153 9.008 9.008 0 01-3.475 7.115l-.59-.755a8.047 8.047 0 003.106-6.36zm-3.258 0a4.78 4.78 0 00-1.119-3.083l.735-.615c.837 1 1.342 2.29 1.342 3.698a5.74 5.74 0 01-1.316 3.665l-.739-.61a4.778 4.778 0 001.097-3.055zm-2.712 0a2.093 2.093 0 11-4.185 0 2.093 2.093 0 014.185 0zm-6.898-.001c0-1.151.404-2.206 1.078-3.034l-.742-.605a5.74 5.74 0 00-1.294 3.639c0 1.392.494 2.67 1.317 3.666l.738-.61a4.78 4.78 0 01-1.097-3.056zm-3.26 0a8.052 8.052 0 013.103-6.358l-.59-.755a9.01 9.01 0 00-3.471 7.113 9.006 9.006 0 003.443 7.09l.593-.753a8.05 8.05 0 01-3.078-6.337z" fill="#78DE7F"/><path fill-rule="evenodd" clip-rule="evenodd" d="M199.19 69.53v-1.837l3.551 2.494-3.551 2.429V70.61a6.901 6.901 0 105.529 1.82l.736-.785a7.976 7.976 0 11-6.265-2.117z" fill="#78DE7F"/></g></g><path d="M174.016 114.676c0-1.836-1.124-3.166-2.927-3.166-1.802 0-2.926 1.33-2.926 3.166 0 1.845 1.124 3.167 2.926 3.167 1.803 0 2.927-1.322 2.927-3.167zm-1.159 0c0 1.365-.601 2.266-1.768 2.266-1.175 0-1.767-.901-1.767-2.266 0-1.355.592-2.265 1.767-2.265 1.167 0 1.768.91 1.768 2.265zm5.249-3.063h-1.33v6.127h1.09v-4.746h.017l3.149 4.746h1.056v-6.127h-1.081v4.342h-.018l-2.883-4.342zm12.968 0h-2.36v6.127h2.36c1.845 0 3.064-1.219 3.064-3.064 0-1.836-1.219-3.063-3.064-3.063zm0 .901c1.219 0 1.897.798 1.897 2.162 0 1.365-.678 2.163-1.897 2.163h-1.244v-4.325h1.244zm10.263 5.226v-.901h-3.321v-1.716h2.909v-.901h-2.909v-1.708h3.287v-.901H196.9v6.127h4.437zm6.558 0l1.742-4.814h.017v4.814h1.09v-6.127h-1.562l-1.647 4.608h-.018l-1.647-4.608h-1.613v6.127h1.046v-4.814h.018l1.75 4.814h.824zm10.4 0h1.167l-2.463-6.127h-1.278l-2.463 6.127h1.116l.583-1.502h2.763l.575 1.502zm-1.956-5.029h.025l1.013 2.643h-2.068l1.03-2.643zm6.969-1.098h-1.331v6.127h1.09v-4.746h.017l3.15 4.746h1.055v-6.127h-1.081v4.342h-.017l-2.883-4.342zm9.45 0h-2.36v6.127h2.36c1.845 0 3.063-1.219 3.063-3.064 0-1.836-1.218-3.063-3.063-3.063zm0 .901c1.218 0 1.896.798 1.896 2.162 0 1.365-.678 2.163-1.896 2.163h-1.244v-4.325h1.244zm-116.962 5.226h4.299v-.901h-3.158v-5.226h-1.141v6.127zm7.146 0h1.142v-6.127h-1.142v6.127zm6.067 0h1.27l2.428-6.127h-1.158l-1.871 4.908h-.017l-1.862-4.908h-1.21l2.42 6.127zm10.652 0v-.901h-3.321v-1.716h2.909v-.901h-2.909v-1.708h3.287v-.901h-4.402v6.127h4.436z" fill="#fff"/></g><path d="M228.435 262.111h4.333v-.908h-3.183v-5.267h-1.15v6.175zm7.203 0h1.15v-6.175h-1.15v6.175zm6.114 0h1.28l2.448-6.175h-1.168l-1.885 4.947h-.018l-1.877-4.947h-1.219l2.439 6.175zm10.736 0v-.908h-3.347v-1.73h2.932v-.908h-2.932v-1.721h3.312v-.908h-4.436v6.175h4.471z" fill="#fff"/><path d="M180 302V137" stroke="#fff" stroke-width=".613"/><path d="M189.019 144.725l-9.01-7.725-9.009 7.928" stroke="#fff" stroke-width=".613" stroke-linecap="round" stroke-linejoin="round"/><path d="M180 463v36" stroke="#fff" stroke-width=".613"/><path d="M170.981 491.203l9.01 7.725L189 491" stroke="#fff" stroke-width=".613" stroke-linecap="round" stroke-linejoin="round"/><path d="M237.559 301.843H314v-20.181" stroke="#fff" stroke-width=".613"/><path d="M305 289.386l9.009-7.724 9.01 7.928" stroke="#fff" stroke-width=".613" stroke-linecap="round" stroke-linejoin="round"/><path d="M118.46 462.819H42.019V483" stroke="#fff" stroke-width=".613"/><path d="M51.019 475.275L42.009 483 33 475.072" stroke="#fff" stroke-width=".613" stroke-linecap="round" stroke-linejoin="round"/><g clip-path="url(#clip3)"><mask id="e" maskUnits="userSpaceOnUse" x="219" y="144" width="77" height="167"><rect x="219.456" y="145.218" width="75.465" height="164.683" rx="10.572" fill="#C4C4C4" stroke="#464646" stroke-width=".481"/></mask><g mask="url(#e)"><rect x="219.456" y="145.218" width="75.465" height="164.683" rx="10.572" stroke="#fff" stroke-width=".481"/></g><mask id="f" maskUnits="userSpaceOnUse" x="271" y="162" width="77" height="177"><rect x="271.712" y="163.033" width="75.528" height="175.29" rx="10.572" fill="#fff" stroke="#464646" stroke-width=".481"/></mask><g mask="url(#f)"><rect x="271.712" y="166.595" width="75.465" height="164.683" rx="10.572" fill="#222" stroke="#fff" stroke-width=".481"/></g><path opacity=".8" fill-rule="evenodd" clip-rule="evenodd" d="M263.242 201.091a8.114 8.114 0 00-3.173-6.444l.59-.765a9.082 9.082 0 013.548 7.209 9.074 9.074 0 01-3.502 7.171l-.594-.761a8.112 8.112 0 003.131-6.41zm-3.285 0a4.819 4.819 0 00-1.128-3.107l.74-.62a5.782 5.782 0 011.354 3.727 5.78 5.78 0 01-1.327 3.694l-.745-.615a4.818 4.818 0 001.106-3.079zm-2.733 0a2.11 2.11 0 11-4.219 0 2.11 2.11 0 014.219 0zm-6.952-.001c0-1.16.407-2.224 1.087-3.058l-.748-.61a5.789 5.789 0 00-1.304 3.668c0 1.402.498 2.691 1.327 3.695l.744-.615a4.821 4.821 0 01-1.106-3.08zm-3.285 0a8.113 8.113 0 013.127-6.407l-.595-.761a9.081 9.081 0 00-3.498 7.168c0 2.9 1.358 5.482 3.47 7.146l.598-.758a8.114 8.114 0 01-3.102-6.388z" fill="#FF6400"/></g><path d="M168.299 630.063h4.333v-.908h-3.183v-5.267h-1.15v6.175zm7.203 0h1.15v-6.175h-1.15v6.175zm6.114 0h1.28l2.448-6.175h-1.168l-1.885 4.947h-.017l-1.877-4.947h-1.22l2.439 6.175zm10.736 0v-.908h-3.347v-1.729h2.932v-.909h-2.932v-1.721h3.313v-.908h-4.437v6.175h4.471z" fill="#fff"/><mask id="g" maskUnits="userSpaceOnUse" x="129" y="504" width="107" height="100"><path d="M129.307 504.307h105.68v98.822h-105.68v-98.822z" fill="#C4C4C4" stroke="#fff" stroke-width=".613"/></mask><g mask="url(#g)"><mask id="h" maskUnits="userSpaceOnUse" x="145" y="519" width="76" height="166"><rect x="145.273" y="519.68" width="75.465" height="164.683" rx="10.572" fill="#C4C4C4" stroke="#fff" stroke-width=".481"/></mask><g mask="url(#h)"><rect x="145.273" y="519.68" width="75.465" height="164.683" rx="10.572" stroke="#fff" stroke-width=".481"/></g></g><path opacity=".8" fill-rule="evenodd" clip-rule="evenodd" d="M191.351 573.561a8.116 8.116 0 00-3.173-6.445l.59-.764a9.08 9.08 0 013.549 7.209 9.075 9.075 0 01-3.503 7.171l-.594-.761a8.112 8.112 0 003.131-6.41zm-3.285 0a4.824 4.824 0 00-1.128-3.108l.741-.62a5.79 5.79 0 011.353 3.728c0 1.402-.498 2.69-1.327 3.694l-.745-.615a4.813 4.813 0 001.106-3.079zm-2.733-.001a2.11 2.11 0 11-4.219 0 2.11 2.11 0 014.219 0zm-6.952-.001a4.82 4.82 0 011.087-3.057l-.749-.61a5.786 5.786 0 00-1.304 3.667c0 1.403.498 2.692 1.327 3.695l.745-.615a4.817 4.817 0 01-1.106-3.08zm-3.285.003a8.117 8.117 0 013.126-6.408l-.594-.761a9.08 9.08 0 00-3.498 7.169 9.082 9.082 0 003.469 7.146l.598-.759a8.113 8.113 0 01-3.101-6.387z" fill="#9F9F9F"/><path d="M72.09 259.023c0-1.85-1.132-3.191-2.948-3.191-1.817 0-2.95 1.341-2.95 3.191 0 1.86 1.133 3.192 2.95 3.192 1.816 0 2.949-1.332 2.949-3.192zm-1.167 0c0 1.376-.605 2.284-1.781 2.284-1.185 0-1.782-.908-1.782-2.284 0-1.366.597-2.283 1.782-2.283 1.176 0 1.781.917 1.781 2.283zm5.29-3.087h-1.34v6.175h1.098v-4.783h.017l3.175 4.783h1.064v-6.175h-1.09v4.376h-.018l-2.906-4.376zm13.07 0h-2.378v6.175h2.379c1.86 0 3.087-1.228 3.087-3.088 0-1.85-1.228-3.087-3.087-3.087zm0 .908c1.229 0 1.912.804 1.912 2.179 0 1.376-.683 2.18-1.911 2.18H88.03v-4.359h1.254zm10.344 5.267v-.908H96.28v-1.73h2.932v-.908H96.28v-1.721h3.312v-.908h-4.436v6.175h4.471zm6.61 0l1.755-4.852h.018v4.852h1.098v-6.175h-1.574l-1.661 4.644h-.017l-1.66-4.644h-1.626v6.175h1.055v-4.852h.017l1.764 4.852h.831zm10.482 0h1.176l-2.482-6.175h-1.289l-2.482 6.175h1.124l.588-1.513h2.785l.58 1.513zm-1.972-5.068h.026l1.02 2.664h-2.084l1.038-2.664zm7.023-1.107h-1.34v6.175h1.098v-4.783h.018l3.174 4.783h1.064v-6.175h-1.09v4.376h-.018l-2.906-4.376zm9.525 0h-2.378v6.175h2.378c1.86 0 3.088-1.228 3.088-3.088 0-1.85-1.228-3.087-3.088-3.087zm0 .908c1.228 0 1.911.804 1.911 2.179 0 1.376-.683 2.18-1.911 2.18h-1.254v-4.359h1.254zm-116.659 5.267h4.333v-.908h-3.183v-5.267h-1.15v6.175zm7.203 0h1.15v-6.175h-1.15v6.175zm6.114 0h1.28l2.448-6.175h-1.168l-1.885 4.947h-.018l-1.876-4.947h-1.22l2.44 6.175zm10.736 0v-.908h-3.347v-1.73h2.932v-.908h-2.932v-1.721h3.313v-.908h-4.437v6.175h4.471z" fill="#fff"/><g clip-path="url(#clip4)"><mask id="i" maskUnits="userSpaceOnUse" x="-6" y="144" width="154" height="94"><path d="M-5.524 144h153.517v93.696H-5.524V144z" fill="#C4C4C4"/></mask><g mask="url(#i)"><mask id="j" maskUnits="userSpaceOnUse" x="10" y="144" width="77" height="167"><rect x="10.648" y="145.218" width="75.465" height="164.683" rx="10.572" fill="#C4C4C4" stroke="#464646" stroke-width=".481"/></mask><g mask="url(#j)"><rect x="10.648" y="145.22" width="75.465" height="164.683" rx="10.572" stroke="#fff" stroke-width=".481"/></g><mask id="k" maskUnits="userSpaceOnUse" x="62" y="162" width="77" height="177"><rect x="62.903" y="163.033" width="75.528" height="175.29" rx="10.572" fill="#fff" stroke="#464646" stroke-width=".481"/></mask><g mask="url(#k)"><rect x="62.903" y="166.595" width="75.465" height="164.683" rx="10.572" fill="#222" stroke="#fff" stroke-width=".481"/></g></g></g><path opacity=".8" fill-rule="evenodd" clip-rule="evenodd" d="M53.242 201.091a8.115 8.115 0 00-3.173-6.444l.59-.765a9.081 9.081 0 013.548 7.209 9.076 9.076 0 01-3.502 7.171l-.594-.761a8.112 8.112 0 003.13-6.41zm-3.285 0a4.818 4.818 0 00-1.128-3.107l.74-.62a5.785 5.785 0 011.354 3.727 5.78 5.78 0 01-1.327 3.694l-.745-.615a4.817 4.817 0 001.106-3.079zm-2.733 0a2.11 2.11 0 11-4.218 0 2.11 2.11 0 014.218 0zm-6.952-.001c0-1.16.407-2.224 1.087-3.058l-.748-.61a5.787 5.787 0 00-1.304 3.668c0 1.402.498 2.691 1.327 3.695l.744-.615a4.82 4.82 0 01-1.106-3.08zm-3.285 0a8.113 8.113 0 013.127-6.407l-.595-.761a9.079 9.079 0 00-3.497 7.168c0 2.9 1.357 5.482 3.47 7.146l.597-.758a8.115 8.115 0 01-3.102-6.388z" fill="#198AFF"/><path fill-rule="evenodd" clip-rule="evenodd" d="M100.479 213.572v-1.851l3.58 2.514-3.58 2.448v-2.021a6.956 6.956 0 00.816 13.863 6.955 6.955 0 006.955-6.955 6.93 6.93 0 00-2.198-5.074l.742-.791a8.039 8.039 0 11-6.315-2.133z" fill="#198AFF"/><path fill-rule="evenodd" clip-rule="evenodd" d="M310.054 213.953v-2.231l3.58 2.513-3.58 2.448v-1.64a6.956 6.956 0 107.772 6.908 6.933 6.933 0 00-2.199-5.074l.742-.791a8.038 8.038 0 11-6.315-2.133z" fill="#FF6400"/><path d="M17.017 614.784h1.15v-2.681h3.166v2.681h1.141v-6.175h-1.141v2.595h-3.166v-2.595h-1.15v6.175zm8.588 0h1.15v-6.175h-1.15v6.175zm3.943-3.096c0 1.911 1.168 3.2 2.898 3.2.76 0 1.548-.398 1.773-.986l.078.882h.89v-3.148h-2.335v.83h1.194v.216c0 .762-.623 1.298-1.531 1.298-1.15 0-1.8-.882-1.8-2.292 0-1.401.667-2.275 1.817-2.275.83 0 1.298.433 1.445 1.125h1.133c-.243-1.22-1.09-2.033-2.578-2.033-1.764 0-2.984 1.28-2.984 3.183zm8.664 3.096h1.15v-2.681h3.166v2.681h1.141v-6.175h-1.141v2.595h-3.166v-2.595h-1.15v6.175zm8.588 0h4.333v-.908H47.95v-5.267H46.8v6.175zm7.203 0h1.15v-6.175h-1.15v6.175zm3.943-3.096c0 1.911 1.168 3.2 2.897 3.2.761 0 1.549-.398 1.773-.986l.078.882h.891v-3.148H61.25v.83h1.194v.216c0 .762-.623 1.298-1.531 1.298-1.15 0-1.8-.882-1.8-2.292 0-1.401.667-2.275 1.817-2.275.83 0 1.297.433 1.444 1.125h1.133c-.242-1.22-1.09-2.033-2.577-2.033-1.764 0-2.984 1.28-2.984 3.183zm8.664 3.096h1.15v-2.681h3.165v2.681h1.142v-6.175h-1.142v2.595H67.76v-2.595h-1.15v6.175zm10.43 0h1.141v-5.267h2.223v-.908h-5.578v.908h2.214v5.267zm5.528-1.868c.113 1.358 1.246 1.972 2.716 1.972 1.367 0 2.396-.744 2.396-1.868 0-.995-.606-1.496-1.617-1.687l-1.194-.233c-.666-.13-.986-.294-.986-.805 0-.544.467-.934 1.21-.934.77 0 1.307.338 1.385.943h1.08c-.12-1.159-1.002-1.799-2.473-1.799-1.349 0-2.318.761-2.318 1.86 0 1.081.736 1.513 1.644 1.677l1.133.208c.743.138 1.012.389 1.012.839 0 .623-.571.951-1.306.951-.77 0-1.497-.285-1.575-1.124h-1.107z" fill="#fff"/><mask id="l" maskUnits="userSpaceOnUse" x="0" y="488" width="107" height="100"><path d="M.307 488.307h105.68v98.822H.307v-98.822z" fill="#C4C4C4" stroke="#fff" stroke-width=".613"/></mask><g mask="url(#l)"><mask id="m" maskUnits="userSpaceOnUse" x="16" y="503" width="76" height="166"><rect x="16.273" y="503.68" width="75.465" height="164.683" rx="10.572" fill="#C4C4C4" stroke="#fff" stroke-width=".481"/></mask><g mask="url(#m)"><rect x="16.273" y="503.68" width="75.465" height="164.683" rx="10.572" stroke="#fff" stroke-width=".481"/></g></g><path opacity=".8" d="M54.394 549.122a.51.51 0 01.965 0l1.669 4.886h5.416a.51.51 0 01.29.929l-4.36 3.014 1.662 4.865a.51.51 0 01-.772.585l-4.387-3.033-4.388 3.033a.51.51 0 01-.772-.585l1.662-4.865-4.36-3.014a.51.51 0 01.29-.929h5.416l1.67-4.886z" stroke="#78DE7F" stroke-width="1.02" stroke-linejoin="round"/><path opacity=".8" d="M35.655 549.122a.51.51 0 01.965 0l1.668 4.886h5.417a.51.51 0 01.29.929l-4.36 3.014 1.662 4.865a.51.51 0 01-.772.585l-4.388-3.033-4.387 3.033a.51.51 0 01-.772-.585l1.661-4.865-4.36-3.014a.51.51 0 01.29-.929h5.417l1.669-4.886z" stroke="#198AFF" stroke-width="1.02" stroke-linejoin="round"/><path opacity=".8" d="M73.491 549.129a.51.51 0 01.97 0l1.587 4.879h5.136a.51.51 0 01.3.922l-4.155 3.015 1.586 4.878a.51.51 0 01-.784.571l-4.155-3.016-4.155 3.016a.51.51 0 01-.784-.571l1.587-4.878-4.155-3.015a.509.509 0 01.3-.922h5.135l1.587-4.879z" stroke="#FF6400" stroke-width="1.02" stroke-linejoin="round"/><path d="M281.046 610.976c0-1.851-1.133-3.192-2.949-3.192-1.817 0-2.95 1.341-2.95 3.192 0 1.859 1.133 3.191 2.95 3.191 1.816 0 2.949-1.332 2.949-3.191zm-1.168 0c0 1.375-.605 2.283-1.781 2.283-1.185 0-1.782-.908-1.782-2.283 0-1.367.597-2.283 1.782-2.283 1.176 0 1.781.916 1.781 2.283zm5.29-3.088h-1.34v6.175h1.098v-4.782h.018l3.174 4.782h1.064v-6.175h-1.09v4.377h-.018l-2.906-4.377zm9.525 0h-2.378v6.175h2.378c1.86 0 3.088-1.228 3.088-3.087 0-1.851-1.228-3.088-3.088-3.088zm0 .908c1.228 0 1.911.805 1.911 2.18s-.683 2.179-1.911 2.179h-1.254v-4.359h1.254zm10.343 5.267v-.908h-3.347v-1.729h2.932v-.909h-2.932v-1.721h3.313v-.908h-4.437v6.175h4.471zm6.61 0l1.756-4.852h.017v4.852h1.098v-6.175h-1.574l-1.66 4.645h-.018l-1.66-4.645h-1.626v6.175h1.055v-4.852h.017l1.765 4.852h.83zm10.482 0h1.176l-2.482-6.175h-1.289l-2.482 6.175h1.124l.589-1.513h2.785l.579 1.513zm-1.972-5.068h.026l1.021 2.664h-2.085l1.038-2.664zm7.024-1.107h-1.341v6.175h1.099v-4.782h.017l3.174 4.782h1.064v-6.175h-1.09v4.377h-.017l-2.906-4.377zm9.524 0h-2.378v6.175h2.378c1.86 0 3.088-1.228 3.088-3.087 0-1.851-1.228-3.088-3.088-3.088zm0 .908c1.229 0 1.912.805 1.912 2.18s-.683 2.179-1.912 2.179h-1.254v-4.359h1.254z" fill="#fff"/><mask id="n" maskUnits="userSpaceOnUse" x="254" y="488" width="107" height="100"><path d="M254.307 488.307h105.68v98.822h-105.68v-98.822z" fill="#C4C4C4" stroke="#fff" stroke-width=".613"/></mask><g mask="url(#n)"><mask id="o" maskUnits="userSpaceOnUse" x="270" y="503" width="76" height="166"><rect x="270.273" y="503.68" width="75.465" height="164.683" rx="10.572" fill="#C4C4C4" stroke="#fff" stroke-width=".481"/></mask><g mask="url(#o)"><rect x="270.273" y="503.68" width="75.465" height="164.683" rx="10.572" stroke="#fff" stroke-width=".481"/></g></g><path fill-rule="evenodd" clip-rule="evenodd" d="M307.352 547.451v-1.85l3.58 2.513-3.58 2.448v-2.021a6.955 6.955 0 105.573 1.834l.742-.791a8.038 8.038 0 11-6.315-2.133z" fill="#B3B3B3"/><path d="M123.46 302.181H47.019V282" stroke="#fff" stroke-width=".613"/><path d="M56.019 289.725L47.009 282 38 289.928" stroke="#fff" stroke-width=".613" stroke-linecap="round" stroke-linejoin="round"/><path d="M232.559 462.819H309V483" stroke="#fff" stroke-width=".613"/><path d="M300 475.275l9.009 7.725 9.01-7.928" stroke="#fff" stroke-width=".613" stroke-linecap="round" stroke-linejoin="round"/></g><defs><clipPath id="clip0"><path fill="#fff" d="M0 .472h360.294v632.565H0z"/></clipPath><clipPath id="clip1"><path fill="#fff" d="M110.709.472h130.29v120.14h-130.29z"/></clipPath><clipPath id="clip2"><path fill="#fff" d="M111 0h130v93H111z"/></clipPath><clipPath id="clip3"><path fill="#fff" d="M219.085 144h137.662v93.696H219.085z"/></clipPath><clipPath id="clip4"><path fill="#fff" d="M10.332 144h128.292v93.696H10.332z"/></clipPath></defs></svg>