<svg width="343" height="456" fill="none" xmlns="http://www.w3.org/2000/svg"><g clip-path="url(#clip0)"><path d="M266.05 408l2.03-5.61h.02V408h1.27v-7.14h-1.82l-1.92 5.37h-.02l-1.92-5.37h-1.88V408h1.22v-5.61h.02l2.04 5.61h.96zm12.119 0h1.36l-2.87-7.14h-1.49l-2.87 7.14h1.3l.68-1.75h3.22l.67 1.75zm-2.28-5.86h.03l1.18 3.08h-2.41l1.2-3.08zm5.908 2.28c0 2.21 1.35 3.7 3.35 3.7.88 0 1.79-.46 2.05-1.14l.09 1.02h1.03v-3.64h-2.7v.96h1.38v.25c0 .88-.72 1.5-1.77 1.5-1.33 0-2.08-1.02-2.08-2.65 0-1.62.77-2.63 2.1-2.63.96 0 1.5.5 1.67 1.3h1.31c-.28-1.41-1.26-2.35-2.98-2.35-2.04 0-3.45 1.48-3.45 3.68zm15.187 3.58h1.36l-2.87-7.14h-1.49l-2.87 7.14h1.3l.68-1.75h3.22l.67 1.75zm-2.28-5.86h.03l1.18 3.08h-2.41l1.2-3.08zm12.001-.28v-1h-5.64v1.05h4.02l-4.15 5.16v.93h5.83v-1.05h-4.19l4.13-5.09zm3.347 6.14h1.33v-7.14h-1.33V408zm6.499-7.14h-1.55V408h1.27v-5.53h.02l3.67 5.53h1.23v-7.14h-1.26v5.06h-.02l-3.36-5.06zm13.433 7.14v-1.05h-3.87v-2h3.39v-1.05h-3.39v-1.99h3.83v-1.05h-5.13V408h5.17z" fill="#464646"/><path d="M14 374h316L14 318v56z" fill="url(#paint0_linear)"/><path d="M330 318H14l316 56v-56z" fill="url(#paint1_linear)"/><path d="M14 427h316" stroke="#000"/><path d="M20.674 420L14 427.026l6.85 7.025m302.476 0l6.674-7.025-6.85-7.026" stroke="#222" stroke-linecap="round" stroke-linejoin="round"/><path stroke="#000" stroke-dasharray="0.44 2.67" d="M0 0h343v75H0z"/><g filter="url(#filter0_d)"><g clip-path="url(#clip1)"><g filter="url(#filter1_d)"><path fill="#fff" d="M14 107h95v216H14z"/></g><path fill="url(#paint2_linear)" d="M14 107h98v74H14z"/><path d="M51.272 128.432h-3.3V137h3.3c2.58 0 4.284-1.704 4.284-4.284 0-2.568-1.704-4.284-4.284-4.284zm0 1.26c1.704 0 2.652 1.116 2.652 3.024s-.948 3.024-2.652 3.024h-1.74v-6.048h1.74zM59.42 137h6.012v-1.26h-4.416v-7.308H59.42V137zm9.994 0h1.596v-3.432h3.876v-1.26H71.01v-2.616h4.32v-1.26h-5.916V137zm-44.775 12.89c.1 1.56 1.4 2.23 2.95 2.23 1.51 0 2.59-.86 2.59-2.08 0-1.13-.7-1.64-1.8-1.86l-1.4-.29c-.87-.17-1.27-.42-1.27-1.13 0-.75.62-1.33 1.66-1.33 1.02 0 1.72.46 1.84 1.26h.83c-.14-1.29-1.15-1.95-2.68-1.95-1.48 0-2.49.88-2.49 2.05 0 1.23.86 1.67 1.82 1.85l1.36.27c.97.18 1.3.57 1.3 1.17 0 .86-.75 1.35-1.77 1.35-1.06 0-2-.39-2.11-1.54h-.83zm14.692-.8v-4.23h-.86v4.28c0 1.52-.77 2.25-2.03 2.25-1.25 0-2.03-.73-2.03-2.25v-4.28h-.86v4.21c0 1.97 1.07 3.05 2.89 3.05 1.84 0 2.89-1.08 2.89-3.03zm6.592 2.91c1.58 0 2.51-.69 2.51-2 0-.84-.55-1.49-1.43-1.71.61-.18 1.11-.86 1.11-1.52 0-1.25-.92-1.91-2.51-1.91h-2.51V152h2.83zm-1.98-3.99v-2.45h1.72c1.06 0 1.58.43 1.58 1.22 0 .78-.53 1.23-1.59 1.23h-1.71zm0 .67h1.92c1.09 0 1.71.5 1.71 1.32 0 .82-.6 1.3-1.69 1.3h-1.94v-2.62zM58.83 152c1.58 0 2.51-.69 2.51-2 0-.84-.55-1.49-1.43-1.71.61-.18 1.11-.86 1.11-1.52 0-1.25-.92-1.91-2.51-1.91H56V152h2.83zm-1.98-3.99v-2.45h1.72c1.06 0 1.58.43 1.58 1.22 0 .78-.53 1.23-1.59 1.23h-1.71zm0 .67h1.92c1.09 0 1.71.5 1.71 1.32 0 .82-.6 1.3-1.69 1.3h-1.94v-2.62zm8.739 3.32v-2.89h1.9l1.85 2.89h.97l-1.96-3.02c.84-.19 1.65-.84 1.65-2 0-1.37-.91-2.12-2.51-2.12h-2.75V152h.85zm0-3.61v-2.81h1.85c1.08 0 1.69.5 1.69 1.4 0 .93-.61 1.41-1.69 1.41h-1.85zM78.732 152h.9l-2.9-7.14h-.97l-2.89 7.14h.86l.79-1.99h3.42l.79 1.99zm-2.51-6.28h.03l1.41 3.58h-2.86l1.42-3.58zm7.57-.86h-1.06V152h.84v-6.09h.02l4.06 6.09h.8v-7.14h-.83v5.7h-.02l-3.81-5.7zm11.058 0h-2.53V152h2.53c2.07 0 3.48-1.42 3.48-3.57 0-2.14-1.41-3.57-3.48-3.57zm0 .72c1.66 0 2.59 1.13 2.59 2.85 0 1.73-.93 2.85-2.59 2.85h-1.68v-5.7h1.68z" fill="#fff"/><path d="M42.14 198.86h-1.55V206h1.27v-5.53h.02l3.67 5.53h1.23v-7.14h-1.26v5.06h-.02l-3.36-5.06zM54.573 206v-1.05h-3.87v-2h3.39v-1.05h-3.39v-1.99h3.83v-1.05h-5.13V206h5.17zm8.002 0h1.46l1.97-7.14h-1.3l-1.42 5.54h-.02l-1.39-5.54h-1.34l-1.39 5.54h-.02l-1.43-5.54h-1.36l1.97 7.14h1.45l1.4-5.51h.02l1.4 5.51zm4.891-2.16c.13 1.57 1.44 2.28 3.14 2.28 1.58 0 2.77-.86 2.77-2.16 0-1.15-.7-1.73-1.87-1.95l-1.38-.27c-.77-.15-1.14-.34-1.14-.93 0-.63.54-1.08 1.4-1.08.89 0 1.51.39 1.6 1.09h1.25c-.14-1.34-1.16-2.08-2.86-2.08-1.56 0-2.68.88-2.68 2.15 0 1.25.85 1.75 1.9 1.94l1.31.24c.86.16 1.17.45 1.17.97 0 .72-.66 1.1-1.51 1.1-.89 0-1.73-.33-1.82-1.3h-1.28zm13.47-5.09c.533 0 .953.137 1.26.41.313.267.47.643.47 1.13 0 .42-.137.777-.41 1.07-.267.293-.607.56-1.02.8l1.93 1.86c.173-.207.313-.443.42-.71.113-.273.206-.567.28-.88h.89c-.107.427-.24.823-.4 1.19-.16.367-.367.687-.62.96l1.46 1.42h-1.19l-.87-.84a4.07 4.07 0 01-1.05.68c-.387.173-.857.26-1.41.26-.687 0-1.234-.17-1.64-.51-.407-.34-.61-.823-.61-1.45 0-.513.136-.923.41-1.23.28-.313.656-.603 1.13-.87a7.705 7.705 0 01-.6-.77 1.704 1.704 0 01-.27-.96c0-.493.163-.877.49-1.15.333-.273.783-.41 1.35-.41zm-.03.72c-.28 0-.51.073-.69.22-.174.147-.26.35-.26.61 0 .24.063.463.19.67.126.2.31.423.55.67.393-.227.673-.44.84-.64.173-.207.26-.443.26-.71a.78.78 0 00-.24-.59c-.16-.153-.377-.23-.65-.23zm-.41 3.12a3.86 3.86 0 00-.85.65c-.2.22-.3.51-.3.87 0 .367.123.66.37.88.246.22.576.33.99.33.426 0 .793-.07 1.1-.21a2.87 2.87 0 00.77-.5l-2.08-2.02zm-44.411 17.83c0-1.62.72-2.63 2.01-2.63 1.02 0 1.49.58 1.63 1.31h1.29c-.25-1.4-1.21-2.36-2.92-2.36-2 0-3.36 1.48-3.36 3.68 0 2.22 1.36 3.7 3.36 3.7 1.71 0 2.67-.97 2.92-2.36h-1.29c-.14.73-.61 1.31-1.63 1.31-1.29 0-2.01-1.02-2.01-2.65zm13.11.7v-4.26h-1.32v4.25c0 1.25-.58 1.95-1.73 1.95s-1.72-.7-1.72-1.95v-4.25h-1.33v4.24c0 1.97 1.13 3.02 3.05 3.02 1.93 0 3.05-1.05 3.05-3zm3.83 2.88v-2.67h1.6l1.63 2.67h1.45l-1.79-2.87c.81-.26 1.52-.92 1.52-2.03 0-1.46-.98-2.24-2.65-2.24h-3.06V224h1.3zm0-3.71v-2.38h1.61c.99 0 1.49.41 1.49 1.19s-.5 1.19-1.49 1.19h-1.61zm8.089 3.71v-2.67h1.6l1.63 2.67h1.45l-1.79-2.87c.81-.26 1.52-.92 1.52-2.03 0-1.46-.98-2.24-2.65-2.24h-3.06V224h1.3zm0-3.71v-2.38h1.61c.99 0 1.49.41 1.49 1.19s-.5 1.19-1.49 1.19h-1.61zm11.96 3.71v-1.05h-3.87v-2h3.39v-1.05h-3.39v-1.99h3.83v-1.05h-5.13V224h5.17zm3.952-7.14h-1.55V224h1.27v-5.53h.02l3.67 5.53h1.23v-7.14h-1.26v5.06h-.02l-3.36-5.06zm9.392 7.14h1.32v-6.09h2.57v-1.05h-6.45v1.05h2.56V224zM44.14 242h1.36l-2.87-7.14h-1.49L38.27 242h1.3l.68-1.75h3.22l.67 1.75zm-2.28-5.86h.03l1.18 3.08h-2.41l1.2-3.08zm5.57 5.86h1.33v-2.86h3.23v-1.05h-3.23v-2.18h3.6v-1.05h-4.93V242zm7.299 0h1.33v-2.86h3.23v-1.05h-3.23v-2.18h3.6v-1.05h-4.93V242zm11.922 0h1.36l-2.87-7.14h-1.49L60.78 242h1.3l.68-1.75h3.22l.67 1.75zm-2.28-5.86h.03l1.18 3.08h-2.41l1.2-3.08zm5.57 5.86h1.33v-7.14h-1.33V242zm5.25 0v-2.67h1.6l1.63 2.67h1.45l-1.79-2.87c.81-.26 1.52-.92 1.52-2.03 0-1.46-.98-2.24-2.65-2.24h-3.06V242h1.3zm0-3.71v-2.38h1.61c.99 0 1.49.41 1.49 1.19s-.5 1.19-1.49 1.19h-1.61zm6.32 1.55c.13 1.57 1.44 2.28 3.14 2.28 1.58 0 2.77-.86 2.77-2.16 0-1.15-.7-1.73-1.87-1.95l-1.38-.27c-.77-.15-1.14-.34-1.14-.93 0-.63.54-1.08 1.4-1.08.89 0 1.51.39 1.6 1.09h1.25c-.14-1.34-1.16-2.08-2.86-2.08-1.56 0-2.68.88-2.68 2.15 0 1.25.85 1.75 1.9 1.94l1.31.24c.86.16 1.17.45 1.17.97 0 .72-.66 1.1-1.51 1.1-.89 0-1.73-.33-1.82-1.3h-1.28zm-61.476 17.42c0-.813.116-1.597.35-2.35a5.97 5.97 0 011.12-2.05h.83a7.004 7.004 0 00-1.06 2.07 7.795 7.795 0 00-.35 2.32c0 .773.116 1.533.35 2.28.24.74.59 1.423 1.05 2.05h-.82a5.711 5.711 0 01-1.12-1.99 7.764 7.764 0 01-.35-2.33zm4.408 2.74h1.33v-7.14h-1.33V260zm5.499-7.14h-1.55V260h1.27v-5.53h.02l3.67 5.53h1.23v-7.14h-1.26v5.06h-.02l-3.36-5.06zm6.792 4.98c.13 1.57 1.44 2.28 3.14 2.28 1.58 0 2.77-.86 2.77-2.16 0-1.15-.7-1.73-1.87-1.95l-1.38-.27c-.77-.15-1.14-.34-1.14-.93 0-.63.54-1.08 1.4-1.08.89 0 1.51.39 1.6 1.09h1.25c-.14-1.34-1.16-2.08-2.86-2.08-1.56 0-2.68.88-2.68 2.15 0 1.25.85 1.75 1.9 1.94l1.31.24c.86.16 1.17.45 1.17.97 0 .72-.66 1.1-1.51 1.1-.89 0-1.73-.33-1.82-1.3h-1.28zM46.79 260h1.32v-6.09h2.57v-1.05h-6.45v1.05h2.56V260zm6.077 0h1.33v-7.14h-1.33V260zm6.079 0h1.32v-6.09h2.57v-1.05h-6.45v1.05h2.56V260zm12.087-2.88v-4.26h-1.32v4.25c0 1.25-.58 1.95-1.73 1.95s-1.72-.7-1.72-1.95v-4.25h-1.33v4.24c0 1.97 1.13 3.02 3.05 3.02 1.93 0 3.05-1.05 3.05-3zm4.659 2.88h1.32v-6.09h2.57v-1.05h-6.45v1.05h2.56V260zm6.077 0h1.33v-7.14h-1.33V260zm10.38-3.57c0-2.14-1.31-3.69-3.41-3.69s-3.41 1.55-3.41 3.69c0 2.15 1.31 3.69 3.41 3.69s3.41-1.54 3.41-3.69zm-1.35 0c0 1.59-.7 2.64-2.06 2.64-1.37 0-2.06-1.05-2.06-2.64 0-1.58.69-2.64 2.06-2.64 1.36 0 2.06 1.06 2.06 2.64zm5.116-3.57h-1.55V260h1.27v-5.53h.02l3.67 5.53h1.23v-7.14h-1.26v5.06h-.02l-3.36-5.06zm9.052 4.4c0 .807-.12 1.583-.36 2.33a5.574 5.574 0 01-1.11 1.99h-.82c.46-.627.807-1.31 1.04-2.05a7.41 7.41 0 00.36-2.28c0-.793-.12-1.567-.36-2.32a6.809 6.809 0 00-1.05-2.07h.83c.507.607.877 1.29 1.11 2.05.24.753.36 1.537.36 2.35z" fill="#222"/></g></g><g filter="url(#filter2_d)"><g clip-path="url(#clip2)"><g filter="url(#filter3_d)"><path fill="#fff" d="M125 107h95v216h-95z"/></g><path fill="#78DE7F" d="M125 107h95v74h-95z"/><path d="M137.37 128.432h-3.3V137h3.3c2.58 0 4.284-1.704 4.284-4.284 0-2.568-1.704-4.284-4.284-4.284zm0 1.26c1.704 0 2.652 1.116 2.652 3.024s-.948 3.024-2.652 3.024h-1.74v-6.048h1.74zm8.147 7.308h6.012v-1.26h-4.416v-7.308h-1.596V137zm9.994 0h1.596v-3.432h3.876v-1.26h-3.876v-2.616h4.32v-1.26h-5.916V137zm16.738-8.568h-1.86V137h1.524v-6.636h.024l4.404 6.636h1.476v-8.568h-1.512v6.072h-.024l-4.032-6.072zm17.631 4.284c0-2.568-1.572-4.428-4.092-4.428-2.52 0-4.092 1.86-4.092 4.428 0 2.58 1.572 4.428 4.092 4.428 2.52 0 4.092-1.848 4.092-4.428zm-1.62 0c0 1.908-.84 3.168-2.472 3.168-1.644 0-2.472-1.26-2.472-3.168 0-1.896.828-3.168 2.472-3.168 1.632 0 2.472 1.272 2.472 3.168zm7.695 4.284h1.776l3.396-8.568h-1.62l-2.616 6.864h-.024l-2.604-6.864h-1.692l3.384 8.568zm14.17 0h1.632l-3.444-8.568h-1.788L203.081 137h1.56l.816-2.1h3.864l.804 2.1zm-2.736-7.032h.036l1.416 3.696h-2.892l1.44-3.696zm-71.75 19.922c.1 1.56 1.4 2.23 2.95 2.23 1.51 0 2.59-.86 2.59-2.08 0-1.13-.7-1.64-1.8-1.86l-1.4-.29c-.87-.17-1.27-.42-1.27-1.13 0-.75.62-1.33 1.66-1.33 1.02 0 1.72.46 1.84 1.26h.83c-.14-1.29-1.15-1.95-2.68-1.95-1.48 0-2.49.88-2.49 2.05 0 1.23.86 1.67 1.82 1.85l1.36.27c.97.18 1.3.57 1.3 1.17 0 .86-.75 1.35-1.77 1.35-1.06 0-2-.39-2.11-1.54h-.83zm14.692-.8v-4.23h-.86v4.28c0 1.52-.77 2.25-2.03 2.25-1.25 0-2.03-.73-2.03-2.25v-4.28h-.86v4.21c0 1.97 1.07 3.05 2.89 3.05 1.84 0 2.89-1.08 2.89-3.03zm6.592 2.91c1.58 0 2.51-.69 2.51-2 0-.84-.55-1.49-1.43-1.71.61-.18 1.11-.86 1.11-1.52 0-1.25-.92-1.91-2.51-1.91h-2.51V152h2.83zm-1.98-3.99v-2.45h1.72c1.06 0 1.58.43 1.58 1.22 0 .78-.53 1.23-1.59 1.23h-1.71zm0 .67h1.92c1.09 0 1.71.5 1.71 1.32 0 .82-.6 1.3-1.69 1.3h-1.94v-2.62zm14.886 3.32c1.58 0 2.51-.69 2.51-2 0-.84-.55-1.49-1.43-1.71.61-.18 1.11-.86 1.11-1.52 0-1.25-.92-1.91-2.51-1.91h-2.51V152h2.83zm-1.98-3.99v-2.45h1.72c1.06 0 1.58.43 1.58 1.22 0 .78-.53 1.23-1.59 1.23h-1.71zm0 .67h1.92c1.09 0 1.71.5 1.71 1.32 0 .82-.6 1.3-1.69 1.3h-1.94v-2.62zm8.739 3.32v-2.89h1.9l1.85 2.89h.97l-1.96-3.02c.84-.19 1.65-.84 1.65-2 0-1.37-.91-2.12-2.51-2.12h-2.75V152h.85zm0-3.61v-2.81h1.85c1.08 0 1.69.5 1.69 1.4 0 .93-.61 1.41-1.69 1.41h-1.85zm13.144 3.61h.9l-2.9-7.14h-.97l-2.89 7.14h.86l.79-1.99h3.42l.79 1.99zm-2.51-6.28h.03l1.41 3.58h-2.86l1.42-3.58zm7.57-.86h-1.06V152h.84v-6.09h.02l4.06 6.09h.8v-7.14h-.83v5.7h-.02l-3.81-5.7zm11.058 0h-2.53V152h2.53c2.07 0 3.48-1.42 3.48-3.57 0-2.14-1.41-3.57-3.48-3.57zm0 .72c1.66 0 2.59 1.13 2.59 2.85 0 1.73-.93 2.85-2.59 2.85h-1.68v-5.7h1.68z" fill="#fff"/><path d="M135.812 206h1.32v-6.09h2.57v-1.05h-6.45v1.05h2.56V206zm11.247 0v-1.05h-3.87v-2h3.39v-1.05h-3.39v-1.99h3.83v-1.05h-5.13V206h5.17zm3.362-3.58c0-1.62.72-2.63 2.01-2.63 1.02 0 1.49.58 1.63 1.31h1.29c-.25-1.4-1.21-2.36-2.92-2.36-2 0-3.36 1.48-3.36 3.68 0 2.22 1.36 3.7 3.36 3.7 1.71 0 2.67-.97 2.92-2.36h-1.29c-.14.73-.61 1.31-1.63 1.31-1.29 0-2.01-1.02-2.01-2.65zm7.101 3.58h1.33v-3.1h3.66v3.1h1.32v-7.14h-1.32v3h-3.66v-3h-1.33V206zm10.48-7.14h-1.55V206h1.27v-5.53h.02l3.67 5.53h1.23v-7.14h-1.26v5.06h-.02l-3.36-5.06zm13.692 3.57c0-2.14-1.31-3.69-3.41-3.69s-3.41 1.55-3.41 3.69c0 2.15 1.31 3.69 3.41 3.69s3.41-1.54 3.41-3.69zm-1.35 0c0 1.59-.7 2.64-2.06 2.64-1.37 0-2.06-1.05-2.06-2.64 0-1.58.69-2.64 2.06-2.64 1.36 0 2.06 1.06 2.06 2.64zm3.567 3.57h5.01v-1.05h-3.68v-6.09h-1.33V206zm13.426-3.57c0-2.14-1.31-3.69-3.41-3.69s-3.41 1.55-3.41 3.69c0 2.15 1.31 3.69 3.41 3.69s3.41-1.54 3.41-3.69zm-1.35 0c0 1.59-.7 2.64-2.06 2.64-1.37 0-2.06-1.05-2.06-2.64 0-1.58.69-2.64 2.06-2.64 1.36 0 2.06 1.06 2.06 2.64zm3.225-.01c0 2.21 1.35 3.7 3.35 3.7.88 0 1.79-.46 2.05-1.14l.09 1.02h1.03v-3.64h-2.7v.96h1.38v.25c0 .88-.72 1.5-1.77 1.5-1.33 0-2.08-1.02-2.08-2.65 0-1.62.77-2.63 2.1-2.63.96 0 1.5.5 1.67 1.3h1.31c-.28-1.41-1.26-2.35-2.98-2.35-2.04 0-3.45 1.48-3.45 3.68zm12.045 3.58v-2.93l2.77-4.21h-1.45l-1.93 3.05h-.02l-1.98-3.05h-1.48l2.76 4.21V206h1.33zm-77.609 18h1.36l-2.87-7.14h-1.49l-2.87 7.14h1.3l.68-1.75h3.22l.67 1.75zm-2.28-5.86h.03l1.18 3.08h-2.41l1.2-3.08zm7.121-1.28h-1.55V224h1.27v-5.53h.02l3.67 5.53h1.23v-7.14h-1.26v5.06h-.02l-3.36-5.06zm10.012 0h-2.75V224h2.75c2.15 0 3.57-1.42 3.57-3.57 0-2.14-1.42-3.57-3.57-3.57zm0 1.05c1.42 0 2.21.93 2.21 2.52 0 1.59-.79 2.52-2.21 2.52h-1.45v-5.04h1.45zm8.889 6.09h5.01v-1.05h-3.68v-6.09h-1.33V224zm7.328 0h1.33v-7.14h-1.33V224zm3.949 0h1.33v-2.86h3.23v-1.05h-3.23v-2.18h3.6v-1.05h-4.93V224zm12.469 0v-1.05h-3.87v-2h3.39v-1.05h-3.39v-1.99h3.83v-1.05h-5.13V224h5.17zm1.913-2.16c.13 1.57 1.44 2.28 3.14 2.28 1.58 0 2.77-.86 2.77-2.16 0-1.15-.7-1.73-1.87-1.95l-1.38-.27c-.77-.15-1.14-.34-1.14-.93 0-.63.54-1.08 1.4-1.08.89 0 1.51.39 1.6 1.09h1.25c-.14-1.34-1.16-2.08-2.86-2.08-1.56 0-2.68.88-2.68 2.15 0 1.25.85 1.75 1.9 1.94l1.31.24c.86.16 1.17.45 1.17.97 0 .72-.66 1.1-1.51 1.1-.89 0-1.73-.33-1.82-1.3h-1.28zm10.055 2.16h1.32v-6.09h2.57v-1.05h-6.45v1.05h2.56V224zm9.457 0v-2.93l2.77-4.21h-1.45l-1.93 3.05h-.02l-1.98-3.05h-1.48l2.76 4.21V224h1.33zm4.681 0h5.01v-1.05h-3.68v-6.09h-1.33V224zm12.498 0v-1.05h-3.87v-2h3.39v-1.05h-3.39v-1.99h3.83v-1.05h-5.13V224h5.17zm-76.318 15.26c0-.813.117-1.597.35-2.35.24-.76.614-1.443 1.12-2.05h.83a7.02 7.02 0 00-1.06 2.07 7.808 7.808 0 00-.35 2.32c0 .773.117 1.533.35 2.28.24.74.59 1.423 1.05 2.05h-.82a5.722 5.722 0 01-1.12-1.99 7.776 7.776 0 01-.35-2.33zm7.789 2.74v-2.93l2.77-4.21h-1.45l-1.93 3.05h-.02l-1.98-3.05h-1.48l2.76 4.21V242h1.33zm10.719-3.57c0-2.14-1.31-3.69-3.41-3.69s-3.41 1.55-3.41 3.69c0 2.15 1.31 3.69 3.41 3.69s3.41-1.54 3.41-3.69zm-1.35 0c0 1.59-.7 2.64-2.06 2.64-1.37 0-2.06-1.05-2.06-2.64 0-1.58.69-2.64 2.06-2.64 1.36 0 2.06 1.06 2.06 2.64zm9.577.69v-4.26h-1.32v4.25c0 1.25-.58 1.95-1.73 1.95s-1.72-.7-1.72-1.95v-4.25h-1.33v4.24c0 1.97 1.13 3.02 3.05 3.02 1.93 0 3.05-1.05 3.05-3zm4.079-4.26h-1.55V242h1.27v-5.53h.02l3.67 5.53h1.23v-7.14h-1.26v5.06h-.02l-3.36-5.06zm6.872 3.56c0 2.21 1.35 3.7 3.35 3.7.88 0 1.79-.46 2.05-1.14l.09 1.02h1.03v-3.64h-2.7v.96h1.38v.25c0 .88-.72 1.5-1.77 1.5-1.33 0-2.08-1.02-2.08-2.65 0-1.62.77-2.63 2.1-2.63.96 0 1.5.5 1.67 1.3h1.31c-.28-1.41-1.26-2.35-2.98-2.35-2.04 0-3.45 1.48-3.45 3.68zm14.187 3.58v-1.05h-3.87v-2h3.39v-1.05h-3.39v-1.99h3.83v-1.05h-5.13V242h5.17zm3.703 0v-2.67h1.6l1.63 2.67h1.45l-1.79-2.87c.81-.26 1.52-.92 1.52-2.03 0-1.46-.98-2.24-2.65-2.24h-3.06V242h1.3zm0-3.71v-2.38h1.61c.99 0 1.49.41 1.49 1.19s-.5 1.19-1.49 1.19h-1.61zM147.845 260h1.36l-2.87-7.14h-1.49l-2.87 7.14h1.3l.68-1.75h3.22l.67 1.75zm-2.28-5.86h.03l1.18 3.08h-2.41l1.2-3.08zm11.347 2.98v-4.26h-1.32v4.25c0 1.25-.58 1.95-1.73 1.95s-1.72-.7-1.72-1.95v-4.25h-1.33v4.24c0 1.97 1.13 3.02 3.05 3.02 1.93 0 3.05-1.05 3.05-3zm5.279-4.26h-2.75V260h2.75c2.15 0 3.57-1.42 3.57-3.57 0-2.14-1.42-3.57-3.57-3.57zm0 1.05c1.42 0 2.21.93 2.21 2.52 0 1.59-.79 2.52-2.21 2.52h-1.45v-5.04h1.45zm5.789 6.09h1.33v-7.14h-1.33V260zm9.119 0v-1.05h-3.87v-2h3.39v-1.05h-3.39v-1.99h3.83v-1.05h-5.13V260h5.17zm3.952-7.14h-1.55V260h1.27v-5.53h.02l3.67 5.53h1.23v-7.14h-1.26v5.06h-.02l-3.36-5.06zm8.223 3.56c0-1.62.72-2.63 2.01-2.63 1.02 0 1.49.58 1.63 1.31h1.29c-.25-1.4-1.21-2.36-2.92-2.36-2 0-3.36 1.48-3.36 3.68 0 2.22 1.36 3.7 3.36 3.7 1.71 0 2.67-.97 2.92-2.36h-1.29c-.14.73-.61 1.31-1.63 1.31-1.29 0-2.01-1.02-2.01-2.65zm12.27 3.58v-1.05h-3.87v-2h3.39v-1.05h-3.39v-1.99h3.83v-1.05h-5.13V260h5.17zm4.193-2.74c0 .807-.12 1.583-.36 2.33a5.604 5.604 0 01-1.11 1.99h-.82c.46-.627.806-1.31 1.04-2.05a7.41 7.41 0 00.36-2.28c0-.793-.12-1.567-.36-2.32a6.854 6.854 0 00-1.05-2.07h.83c.506.607.876 1.29 1.11 2.05.24.753.36 1.537.36 2.35z" fill="#222"/></g></g><g filter="url(#filter4_d)"><g clip-path="url(#clip3)"><g filter="url(#filter5_d)"><path fill="#fff" d="M236 107h95v216h-95z"/></g><path fill="#FF6400" d="M236 107h98v74h-98z"/><path d="M270.813 128.432h-3.3V137h3.3c2.58 0 4.284-1.704 4.284-4.284 0-2.568-1.704-4.284-4.284-4.284zm0 1.26c1.704 0 2.652 1.116 2.652 3.024s-.948 3.024-2.652 3.024h-1.74v-6.048h1.74zm8.146 7.308h6.012v-1.26h-4.416v-7.308h-1.596V137zm9.994 0h1.596v-3.432h3.876v-1.26h-3.876v-2.616h4.32v-1.26h-5.916V137zm-29.722 18h1.92l-3.876-4.848 3.54-3.72h-1.824l-3.96 4.308v-4.308h-1.596V155h1.596v-2.484l1.188-1.248 3.012 3.732zm12.417-3.456v-5.112h-1.584v5.1c0 1.5-.696 2.34-2.076 2.34-1.38 0-2.064-.84-2.064-2.34v-5.1h-1.596v5.088c0 2.364 1.356 3.624 3.66 3.624 2.316 0 3.66-1.26 3.66-3.6zm4.235 3.456h6.012v-1.26h-4.416v-7.308h-1.596V155zm11.179 0h1.584v-7.308h3.084v-1.26h-7.74v1.26h3.072V155zm15.704-3.456v-5.112h-1.584v5.1c0 1.5-.696 2.34-2.076 2.34-1.38 0-2.064-.84-2.064-2.34v-5.1h-1.596v5.088c0 2.364 1.356 3.624 3.66 3.624 2.316 0 3.66-1.26 3.66-3.6zm5.795 3.456v-3.204h1.92l1.956 3.204h1.74l-2.148-3.444c.972-.312 1.824-1.104 1.824-2.436 0-1.752-1.176-2.688-3.18-2.688h-3.672V155h1.56zm0-4.452v-2.856h1.932c1.188 0 1.788.492 1.788 1.428 0 .936-.6 1.428-1.788 1.428h-1.932zm-61.922 17.342c.1 1.56 1.4 2.23 2.95 2.23 1.51 0 2.59-.86 2.59-2.08 0-1.13-.7-1.64-1.8-1.86l-1.4-.29c-.87-.17-1.27-.42-1.27-1.13 0-.75.62-1.33 1.66-1.33 1.02 0 1.72.46 1.84 1.26h.83c-.14-1.29-1.15-1.95-2.68-1.95-1.48 0-2.49.88-2.49 2.05 0 1.23.86 1.67 1.82 1.85l1.36.27c.97.18 1.3.57 1.3 1.17 0 .86-.75 1.35-1.77 1.35-1.06 0-2-.39-2.11-1.54h-.83zm14.692-.8v-4.23h-.86v4.28c0 1.52-.77 2.25-2.03 2.25-1.25 0-2.03-.73-2.03-2.25v-4.28h-.86v4.21c0 1.97 1.07 3.05 2.89 3.05 1.84 0 2.89-1.08 2.89-3.03zm6.592 2.91c1.58 0 2.51-.69 2.51-2 0-.84-.55-1.49-1.43-1.71.61-.18 1.11-.86 1.11-1.52 0-1.25-.92-1.91-2.51-1.91h-2.51V170h2.83zm-1.98-3.99v-2.45h1.72c1.06 0 1.58.43 1.58 1.22 0 .78-.53 1.23-1.59 1.23h-1.71zm0 .67h1.92c1.09 0 1.71.5 1.71 1.32 0 .82-.6 1.3-1.69 1.3h-1.94v-2.62zm14.886 3.32c1.58 0 2.51-.69 2.51-2 0-.84-.55-1.49-1.43-1.71.61-.18 1.11-.86 1.11-1.52 0-1.25-.92-1.91-2.51-1.91h-2.51V170h2.83zm-1.98-3.99v-2.45h1.72c1.06 0 1.58.43 1.58 1.22 0 .78-.53 1.23-1.59 1.23h-1.71zm0 .67h1.92c1.09 0 1.71.5 1.71 1.32 0 .82-.6 1.3-1.69 1.3h-1.94v-2.62zm8.739 3.32v-2.89h1.9l1.85 2.89h.97l-1.96-3.02c.84-.19 1.65-.84 1.65-2 0-1.37-.91-2.12-2.51-2.12h-2.75V170h.85zm0-3.61v-2.81h1.85c1.08 0 1.69.5 1.69 1.4 0 .93-.61 1.41-1.69 1.41h-1.85zm13.144 3.61h.9l-2.9-7.14h-.97l-2.89 7.14h.86l.79-1.99h3.42l.79 1.99zm-2.51-6.28h.03l1.41 3.58h-2.86l1.42-3.58zm7.57-.86h-1.06V170h.84v-6.09h.02l4.06 6.09h.8v-7.14h-.83v5.7h-.02l-3.81-5.7zm11.058 0h-2.53V170h2.53c2.07 0 3.48-1.42 3.48-3.57 0-2.14-1.41-3.57-3.48-3.57zm0 .72c1.66 0 2.59 1.13 2.59 2.85 0 1.73-.93 2.85-2.59 2.85h-1.68v-5.7h1.68z" fill="#fff"/><path d="M244.717 202.42c0-1.62.72-2.63 2.01-2.63 1.02 0 1.49.58 1.63 1.31h1.29c-.25-1.4-1.21-2.36-2.92-2.36-2 0-3.36 1.48-3.36 3.68 0 2.22 1.36 3.7 3.36 3.7 1.71 0 2.67-.97 2.92-2.36h-1.29c-.14.73-.61 1.31-1.63 1.31-1.29 0-2.01-1.02-2.01-2.65zm13.111.7v-4.26h-1.32v4.25c0 1.25-.58 1.95-1.73 1.95s-1.72-.7-1.72-1.95v-4.25h-1.33v4.24c0 1.97 1.13 3.02 3.05 3.02 1.93 0 3.05-1.05 3.05-3zm2.529 2.88h5.01v-1.05h-3.68v-6.09h-1.33V206zm8.315 0h1.32v-6.09h2.57v-1.05h-6.45v1.05h2.56V206zm12.087-2.88v-4.26h-1.32v4.25c0 1.25-.58 1.95-1.73 1.95s-1.72-.7-1.72-1.95v-4.25h-1.33v4.24c0 1.97 1.13 3.02 3.05 3.02 1.93 0 3.05-1.05 3.05-3zm3.83 2.88v-2.67h1.6l1.63 2.67h1.45l-1.79-2.87c.81-.26 1.52-.92 1.52-2.03 0-1.46-.98-2.24-2.65-2.24h-3.06V206h1.3zm0-3.71v-2.38h1.61c.99 0 1.49.41 1.49 1.19s-.5 1.19-1.49 1.19h-1.61zm11.959 3.71v-1.05h-3.87v-2h3.39v-1.05h-3.39v-1.99h3.83v-1.05h-5.13V206h5.17zm10.672 0h1.36l-2.87-7.14h-1.49l-2.87 7.14h1.3l.68-1.75h3.22l.67 1.75zm-2.28-5.86h.03l1.18 3.08h-2.41l1.2-3.08zm7.121-1.28h-1.55V206h1.27v-5.53h.02l3.67 5.53h1.23v-7.14h-1.26v5.06h-.02l-3.36-5.06zm10.013 0h-2.75V206h2.75c2.15 0 3.57-1.42 3.57-3.57 0-2.14-1.42-3.57-3.57-3.57zm0 1.05c1.42 0 2.21.93 2.21 2.52 0 1.59-.79 2.52-2.21 2.52h-1.45v-5.04h1.45zm-62.351 21.93c.13 1.57 1.44 2.28 3.14 2.28 1.58 0 2.77-.86 2.77-2.16 0-1.15-.7-1.73-1.87-1.95l-1.38-.27c-.77-.15-1.14-.34-1.14-.93 0-.63.54-1.08 1.4-1.08.89 0 1.51.39 1.6 1.09h1.25c-.14-1.34-1.16-2.08-2.86-2.08-1.56 0-2.68.88-2.68 2.15 0 1.25.85 1.75 1.9 1.94l1.31.24c.86.16 1.17.45 1.17.97 0 .72-.66 1.1-1.51 1.1-.89 0-1.73-.33-1.82-1.3h-1.28zm14.589-1.41c0-2.14-1.31-3.69-3.41-3.69s-3.41 1.55-3.41 3.69c0 2.15 1.31 3.69 3.41 3.69s3.41-1.54 3.41-3.69zm-1.35 0c0 1.59-.7 2.64-2.06 2.64-1.37 0-2.06-1.05-2.06-2.64 0-1.58.69-2.64 2.06-2.64 1.36 0 2.06 1.06 2.06 2.64zm4.576-.01c0-1.62.72-2.63 2.01-2.63 1.02 0 1.49.58 1.63 1.31h1.29c-.25-1.4-1.21-2.36-2.92-2.36-2 0-3.36 1.48-3.36 3.68 0 2.22 1.36 3.7 3.36 3.7 1.71 0 2.67-.97 2.92-2.36h-1.29c-.14.73-.61 1.31-1.63 1.31-1.29 0-2.01-1.02-2.01-2.65zm7.1 3.58h1.33v-7.14h-1.33V224zm9.119 0v-1.05h-3.87v-2h3.39v-1.05h-3.39v-1.99h3.83v-1.05h-5.13V224h5.17zm4.533 0h1.32v-6.09h2.57v-1.05h-6.45v1.05h2.56V224zm9.457 0v-2.93l2.77-4.21h-1.45l-1.93 3.05h-.02l-1.98-3.05h-1.48l2.76 4.21V224h1.33zm-61.148 15.26c0-.813.117-1.597.35-2.35.24-.76.614-1.443 1.12-2.05h.83a7.02 7.02 0 00-1.06 2.07 7.808 7.808 0 00-.35 2.32c0 .773.117 1.533.35 2.28.24.74.59 1.423 1.05 2.05h-.82a5.722 5.722 0 01-1.12-1.99 7.776 7.776 0 01-.35-2.33zm8.648 2.74l2.03-5.61h.02V242h1.27v-7.14h-1.82l-1.92 5.37h-.02l-1.92-5.37h-1.88V242h1.22v-5.61h.02l2.04 5.61h.96zm5.95 0h1.33v-7.14h-1.33V242zm6.699-7.14h-2.75V242h2.75c2.15 0 3.57-1.42 3.57-3.57 0-2.14-1.42-3.57-3.57-3.57zm0 1.05c1.42 0 2.21.93 2.21 2.52 0 1.59-.79 2.52-2.21 2.52h-1.45v-5.04h1.45zm8.539-1.05h-2.75V242h2.75c2.15 0 3.57-1.42 3.57-3.57 0-2.14-1.42-3.57-3.57-3.57zm0 1.05c1.42 0 2.21.93 2.21 2.52 0 1.59-.79 2.52-2.21 2.52h-1.45v-5.04h1.45zm5.789 6.09h5.01v-1.05h-3.68v-6.09h-1.33V242zm12.498 0v-1.05h-3.87v-2h3.39v-1.05h-3.39v-1.99h3.83v-1.05h-5.13V242h5.17zm10.672 0h1.36l-2.87-7.14h-1.49l-2.87 7.14h1.3l.68-1.75h3.22l.67 1.75zm-2.28-5.86h.03l1.18 3.08h-2.41l1.2-3.08zm4.908 2.28c0 2.21 1.35 3.7 3.35 3.7.88 0 1.79-.46 2.05-1.14l.09 1.02h1.03v-3.64h-2.7v.96h1.38v.25c0 .88-.72 1.5-1.77 1.5-1.33 0-2.08-1.02-2.08-2.65 0-1.62.77-2.63 2.1-2.63.96 0 1.5.5 1.67 1.3h1.31c-.28-1.41-1.26-2.35-2.98-2.35-2.04 0-3.45 1.48-3.45 3.68zm14.187 3.58v-1.05h-3.87v-2h3.39v-1.05h-3.39v-1.99h3.83v-1.05h-5.13V242h5.17zm-63.364 18h1.36l-2.87-7.14h-1.49l-2.87 7.14h1.3l.68-1.75h3.22l.67 1.75zm-2.28-5.86h.03l1.18 3.08h-2.41l1.2-3.08zm11.347 2.98v-4.26h-1.32v4.25c0 1.25-.58 1.95-1.73 1.95s-1.72-.7-1.72-1.95v-4.25h-1.33v4.24c0 1.97 1.13 3.02 3.05 3.02 1.93 0 3.05-1.05 3.05-3zm5.279-4.26h-2.75V260h2.75c2.15 0 3.57-1.42 3.57-3.57 0-2.14-1.42-3.57-3.57-3.57zm0 1.05c1.42 0 2.21.93 2.21 2.52 0 1.59-.79 2.52-2.21 2.52h-1.45v-5.04h1.45zm5.789 6.09h1.33v-7.14h-1.33V260zm9.119 0v-1.05h-3.87v-2h3.39v-1.05h-3.39v-1.99h3.83v-1.05h-5.13V260h5.17zm3.952-7.14h-1.55V260h1.27v-5.53h.02l3.67 5.53h1.23v-7.14h-1.26v5.06h-.02l-3.36-5.06zm8.223 3.56c0-1.62.72-2.63 2.01-2.63 1.02 0 1.49.58 1.63 1.31h1.29c-.25-1.4-1.21-2.36-2.92-2.36-2 0-3.36 1.48-3.36 3.68 0 2.22 1.36 3.7 3.36 3.7 1.71 0 2.67-.97 2.92-2.36h-1.29c-.14.73-.61 1.31-1.63 1.31-1.29 0-2.01-1.02-2.01-2.65zm12.27 3.58v-1.05h-3.87v-2h3.39v-1.05h-3.39v-1.99h3.83v-1.05h-5.13V260h5.17zm4.193-2.74c0 .807-.12 1.583-.36 2.33a5.604 5.604 0 01-1.11 1.99h-.82c.46-.627.806-1.31 1.04-2.05a7.41 7.41 0 00.36-2.28c0-.793-.12-1.567-.36-2.32a6.854 6.854 0 00-1.05-2.07h.83c.506.607.876 1.29 1.11 2.05.24.753.36 1.537.36 2.35z" fill="#222"/></g></g><path d="M16.36 400.86h-1.55V408h1.27v-5.53h.02l3.67 5.53H21v-7.14h-1.26v5.06h-.02l-3.36-5.06zM29.793 408v-1.05h-3.87v-2h3.39v-1.05h-3.39v-1.99h3.83v-1.05h-5.13V408h5.17zm9.002 0h1.46l1.97-7.14h-1.3l-1.42 5.54h-.02l-1.39-5.54h-1.34l-1.39 5.54h-.02l-1.43-5.54h-1.36l1.97 7.14h1.45l1.4-5.51h.02l1.4 5.51zm5.89-2.16c.13 1.57 1.44 2.28 3.14 2.28 1.58 0 2.77-.86 2.77-2.16 0-1.15-.7-1.73-1.87-1.95l-1.38-.27c-.77-.15-1.14-.34-1.14-.93 0-.63.54-1.08 1.4-1.08.89 0 1.51.39 1.6 1.09h1.25c-.14-1.34-1.16-2.08-2.86-2.08-1.56 0-2.68.88-2.68 2.15 0 1.25.85 1.75 1.9 1.94l1.31.24c.86.16 1.17.45 1.17.97 0 .72-.66 1.1-1.51 1.1-.89 0-1.73-.33-1.82-1.3h-1.28z" fill="#464646"/><path d="M68.696 26.708h-4.4v11.424h4.4c3.44 0 5.712-2.272 5.712-5.712 0-3.424-2.272-5.712-5.712-5.712zm0 1.68c2.272 0 3.536 1.488 3.536 4.032s-1.264 4.032-3.536 4.032h-2.32v-8.064h2.32zm18.335 9.744v-1.68h-6.193v-3.2h5.425v-1.68h-5.425v-3.184h6.129v-1.68h-8.209v11.424h8.273zm14.259-4.608v-6.816h-2.112v6.8c0 2-.928 3.12-2.768 3.12-1.84 0-2.752-1.12-2.752-3.12v-6.8H91.53v6.784c0 3.152 1.808 4.832 4.88 4.832 3.088 0 4.88-1.68 4.88-4.8zm8.255 4.608h2.112v-9.744h4.112v-1.68h-10.32v1.68h4.096v9.744zm9.427-3.456c.208 2.512 2.304 3.648 5.024 3.648 2.528 0 4.432-1.376 4.432-3.456 0-1.84-1.12-2.768-2.992-3.12l-2.208-.432c-1.232-.24-1.824-.544-1.824-1.488 0-1.008.864-1.728 2.24-1.728 1.424 0 2.416.624 2.56 1.744h2c-.224-2.144-1.856-3.328-4.576-3.328-2.496 0-4.288 1.408-4.288 3.44 0 2 1.36 2.8 3.04 3.104l2.096.384c1.376.256 1.872.72 1.872 1.552 0 1.152-1.056 1.76-2.416 1.76-1.424 0-2.768-.528-2.912-2.08h-2.048zm15.391-2.272c0-2.592 1.152-4.208 3.216-4.208 1.632 0 2.384.928 2.608 2.096h2.064c-.4-2.24-1.936-3.776-4.672-3.776-3.2 0-5.376 2.368-5.376 5.888 0 3.552 2.176 5.92 5.376 5.92 2.736 0 4.272-1.552 4.672-3.776h-2.064c-.224 1.168-.976 2.096-2.608 2.096-2.064 0-3.216-1.632-3.216-4.24zm12.161 5.728h2.128v-4.96h5.856v4.96h2.112V26.708h-2.112v4.8h-5.856v-4.8h-2.128v11.424zm15.088 0h8.016v-1.68h-5.888v-9.744h-2.128v11.424zm20.797 0h2.176l-4.592-11.424h-2.384l-4.592 11.424h2.08l1.088-2.8h5.152l1.072 2.8zm-3.648-9.376h.048l1.888 4.928h-3.856l1.92-4.928zm12.193-2.048h-2.48v11.424h2.032v-8.848h.032l5.872 8.848h1.968V26.708h-2.016v8.096h-.032l-5.376-8.096zm16.82 0h-4.4v11.424h4.4c3.44 0 5.712-2.272 5.712-5.712 0-3.424-2.272-5.712-5.712-5.712zm0 1.68c2.272 0 3.536 1.488 3.536 4.032s-1.264 4.032-3.536 4.032h-2.32v-8.064h2.32zm10.063 9.744h2.128v-4.576h5.168v-1.68h-5.168v-3.488h5.76v-1.68h-7.888v11.424zm22.094-4.608v-6.816h-2.112v6.8c0 2-.928 3.12-2.768 3.12-1.84 0-2.752-1.12-2.752-3.12v-6.8h-2.128v6.784c0 3.152 1.808 4.832 4.88 4.832 3.088 0 4.88-1.68 4.88-4.8zm7.326-6.816h-2.48v11.424h2.032v-8.848h.032l5.872 8.848h1.968V26.708h-2.016v8.096h-.032l-5.376-8.096zm20.148 11.424h2.56l-5.168-6.464 4.72-4.96h-2.432l-5.28 5.744v-5.744h-2.128v11.424h2.128V34.82l1.584-1.664 4.016 4.976zM130.05 57.699l2.03-5.61h.02v5.61h1.27v-7.14h-1.82l-1.92 5.37h-.02l-1.92-5.37h-1.88v7.14h1.22v-5.61h.02l2.04 5.61h.96zm12.119 0h1.36l-2.87-7.14h-1.49l-2.87 7.14h1.3l.68-1.75h3.22l.67 1.75zm-2.28-5.86h.03l1.18 3.08h-2.41l1.2-3.08zm6.082 3.7c.13 1.57 1.44 2.28 3.14 2.28 1.58 0 2.77-.86 2.77-2.16 0-1.15-.7-1.73-1.87-1.95l-1.38-.27c-.77-.15-1.14-.34-1.14-.93 0-.63.54-1.08 1.4-1.08.89 0 1.51.39 1.6 1.09h1.25c-.14-1.34-1.16-2.08-2.86-2.08-1.56 0-2.68.88-2.68 2.15 0 1.25.85 1.75 1.9 1.94l1.31.24c.86.16 1.17.45 1.17.97 0 .72-.66 1.1-1.51 1.1-.89 0-1.73-.33-1.82-1.3h-1.28zm11.055 2.16h1.32v-6.09h2.57v-1.05h-6.45v1.05h2.56v6.09zm12.247 0v-1.05h-3.87v-2h3.39v-1.05h-3.39v-1.99h3.83v-1.05h-5.13v7.14h5.17zm4.702 0v-2.67h1.6l1.63 2.67h1.45l-1.79-2.87c.81-.26 1.52-.92 1.52-2.03 0-1.46-.98-2.24-2.65-2.24h-3.06v7.14h1.3zm0-3.71v-2.38h1.61c.99 0 1.49.41 1.49 1.19s-.5 1.19-1.49 1.19h-1.61zm15.02 3.71c1.65 0 2.61-.69 2.61-2.03 0-.83-.59-1.46-1.37-1.67.58-.17 1.08-.86 1.08-1.49 0-1.28-.91-1.95-2.58-1.95h-2.87v7.14h3.13zm-1.83-4.12v-2.04h1.57c.87 0 1.3.37 1.3 1.02 0 .62-.42 1.02-1.31 1.02h-1.56zm0 .95h1.72c.92 0 1.41.42 1.41 1.09 0 .69-.48 1.1-1.4 1.1h-1.73v-2.19zm8.963 3.17v-2.67h1.6l1.63 2.67h1.45l-1.79-2.87c.81-.26 1.52-.92 1.52-2.03 0-1.46-.98-2.24-2.65-2.24h-3.06v7.14h1.3zm0-3.71v-2.38h1.61c.99 0 1.49.41 1.49 1.19s-.5 1.19-1.49 1.19h-1.61zm12.959 3.71h1.36l-2.87-7.14h-1.49l-2.87 7.14h1.3l.68-1.75h3.22l.67 1.75zm-2.28-5.86h.03l1.18 3.08h-2.41l1.2-3.08zm8.121-1.28h-1.55v7.14h1.27v-5.53h.02l3.67 5.53h1.23v-7.14h-1.26v5.06h-.02l-3.36-5.06zm11.013 0h-2.75v7.14h2.75c2.15 0 3.57-1.42 3.57-3.57 0-2.14-1.42-3.57-3.57-3.57zm0 1.05c1.42 0 2.21.93 2.21 2.52 0 1.59-.79 2.52-2.21 2.52h-1.45v-5.04h1.45z" fill="#222"/><path d="M103.77 448.42c0-1.62.72-2.63 2.01-2.63 1.02 0 1.49.58 1.63 1.31h1.29c-.25-1.4-1.21-2.36-2.92-2.36-2 0-3.36 1.48-3.36 3.68 0 2.22 1.36 3.7 3.36 3.7 1.71 0 2.67-.97 2.92-2.36h-1.29c-.14.73-.61 1.31-1.63 1.31-1.29 0-2.01-1.02-2.01-2.65zm14.531.01c0-2.14-1.31-3.69-3.41-3.69s-3.41 1.55-3.41 3.69c0 2.15 1.31 3.69 3.41 3.69s3.41-1.54 3.41-3.69zm-1.35 0c0 1.59-.7 2.64-2.06 2.64-1.37 0-2.06-1.05-2.06-2.64 0-1.58.69-2.64 2.06-2.64 1.36 0 2.06 1.06 2.06 2.64zm6.116-3.57h-1.55V452h1.27v-5.53h.02l3.67 5.53h1.23v-7.14h-1.26v5.06h-.02l-3.36-5.06zM133.46 452h1.32v-6.09h2.57v-1.05h-6.45v1.05h2.56V452zm12.247 0v-1.05h-3.87v-2h3.39v-1.05h-3.39v-1.99h3.83v-1.05h-5.13V452h5.17zm4.952-7.14h-1.55V452h1.27v-5.53h.02l3.67 5.53h1.23v-7.14h-1.26v5.06h-.02l-3.36-5.06zm10.392 7.14h1.32v-6.09h2.57v-1.05h-6.45v1.05h2.56V452zm10.707-2.16c.13 1.57 1.44 2.28 3.14 2.28 1.58 0 2.77-.86 2.77-2.16 0-1.15-.7-1.73-1.87-1.95l-1.38-.27c-.77-.15-1.14-.34-1.14-.93 0-.63.54-1.08 1.4-1.08.89 0 1.51.39 1.6 1.09h1.25c-.14-1.34-1.16-2.08-2.86-2.08-1.56 0-2.68.88-2.68 2.15 0 1.25.85 1.75 1.9 1.94l1.31.24c.86.16 1.17.45 1.17.97 0 .72-.66 1.1-1.51 1.1-.89 0-1.73-.33-1.82-1.3h-1.28zm12.1-.47c1.68 0 2.66-.76 2.66-2.25s-.98-2.26-2.67-2.26h-2.95V452h1.3v-2.63h1.66zm-1.66-1.04v-2.42h1.54c.98 0 1.47.39 1.47 1.21 0 .81-.49 1.21-1.47 1.21h-1.54zm12.618 3.67v-1.05h-3.87v-2h3.39v-1.05h-3.39v-1.99h3.83v-1.05h-5.13V452h5.17zm4.362-3.58c0-1.62.72-2.63 2.01-2.63 1.02 0 1.49.58 1.63 1.31h1.29c-.25-1.4-1.21-2.36-2.92-2.36-2 0-3.36 1.48-3.36 3.68 0 2.22 1.36 3.7 3.36 3.7 1.71 0 2.67-.97 2.92-2.36h-1.29c-.14.73-.61 1.31-1.63 1.31-1.29 0-2.01-1.02-2.01-2.65zm10.133 3.58h1.32v-6.09h2.57v-1.05h-6.45v1.05h2.56V452zm8.377 0v-2.67h1.6l1.63 2.67h1.45l-1.79-2.87c.81-.26 1.52-.92 1.52-2.03 0-1.46-.98-2.24-2.65-2.24h-3.06V452h1.3zm0-3.71v-2.38h1.61c.99 0 1.49.41 1.49 1.19s-.5 1.19-1.49 1.19h-1.61zm13.8.83v-4.26h-1.32v4.25c0 1.25-.58 1.95-1.73 1.95s-1.72-.7-1.72-1.95v-4.25h-1.33v4.24c0 1.97 1.13 3.02 3.05 3.02 1.93 0 3.05-1.05 3.05-3zm7.769 2.88l2.03-5.61h.02V452h1.27v-7.14h-1.82l-1.92 5.37h-.02l-1.92-5.37h-1.88V452h1.22v-5.61h.02l2.04 5.61h.96z" fill="#464646"/></g><defs><filter id="filter0_d" x="12.221" y="107" width="98.559" height="182.559" filterUnits="userSpaceOnUse" color-interpolation-filters="sRGB"><feFlood flood-opacity="0" result="BackgroundImageFix"/><feColorMatrix in="SourceAlpha" values="0 0 0 0 0 0 0 0 0 0 0 0 0 0 0 0 0 0 127 0"/><feOffset dy="1.779"/><feGaussianBlur stdDeviation=".89"/><feColorMatrix values="0 0 0 0 0 0 0 0 0 0 0 0 0 0 0 0 0 0 0.13 0"/><feBlend in2="BackgroundImageFix" result="effect1_dropShadow"/><feBlend in="SourceGraphic" in2="effect1_dropShadow" result="shape"/></filter><filter id="filter1_d" x="12.221" y="107" width="98.559" height="219.559" filterUnits="userSpaceOnUse" color-interpolation-filters="sRGB"><feFlood flood-opacity="0" result="BackgroundImageFix"/><feColorMatrix in="SourceAlpha" values="0 0 0 0 0 0 0 0 0 0 0 0 0 0 0 0 0 0 127 0"/><feOffset dy="1.779"/><feGaussianBlur stdDeviation=".89"/><feColorMatrix values="0 0 0 0 0 0 0 0 0 0 0 0 0 0 0 0 0 0 0.13 0"/><feBlend in2="BackgroundImageFix" result="effect1_dropShadow"/><feBlend in="SourceGraphic" in2="effect1_dropShadow" result="shape"/></filter><filter id="filter2_d" x="123.221" y="107" width="98.559" height="182.559" filterUnits="userSpaceOnUse" color-interpolation-filters="sRGB"><feFlood flood-opacity="0" result="BackgroundImageFix"/><feColorMatrix in="SourceAlpha" values="0 0 0 0 0 0 0 0 0 0 0 0 0 0 0 0 0 0 127 0"/><feOffset dy="1.779"/><feGaussianBlur stdDeviation=".89"/><feColorMatrix values="0 0 0 0 0 0 0 0 0 0 0 0 0 0 0 0 0 0 0.13 0"/><feBlend in2="BackgroundImageFix" result="effect1_dropShadow"/><feBlend in="SourceGraphic" in2="effect1_dropShadow" result="shape"/></filter><filter id="filter3_d" x="123.221" y="107" width="98.559" height="219.559" filterUnits="userSpaceOnUse" color-interpolation-filters="sRGB"><feFlood flood-opacity="0" result="BackgroundImageFix"/><feColorMatrix in="SourceAlpha" values="0 0 0 0 0 0 0 0 0 0 0 0 0 0 0 0 0 0 127 0"/><feOffset dy="1.779"/><feGaussianBlur stdDeviation=".89"/><feColorMatrix values="0 0 0 0 0 0 0 0 0 0 0 0 0 0 0 0 0 0 0.13 0"/><feBlend in2="BackgroundImageFix" result="effect1_dropShadow"/><feBlend in="SourceGraphic" in2="effect1_dropShadow" result="shape"/></filter><filter id="filter4_d" x="234.221" y="107" width="98.559" height="182.559" filterUnits="userSpaceOnUse" color-interpolation-filters="sRGB"><feFlood flood-opacity="0" result="BackgroundImageFix"/><feColorMatrix in="SourceAlpha" values="0 0 0 0 0 0 0 0 0 0 0 0 0 0 0 0 0 0 127 0"/><feOffset dy="1.779"/><feGaussianBlur stdDeviation=".89"/><feColorMatrix values="0 0 0 0 0 0 0 0 0 0 0 0 0 0 0 0 0 0 0.13 0"/><feBlend in2="BackgroundImageFix" result="effect1_dropShadow"/><feBlend in="SourceGraphic" in2="effect1_dropShadow" result="shape"/></filter><filter id="filter5_d" x="234.221" y="107" width="98.559" height="219.559" filterUnits="userSpaceOnUse" color-interpolation-filters="sRGB"><feFlood flood-opacity="0" result="BackgroundImageFix"/><feColorMatrix in="SourceAlpha" values="0 0 0 0 0 0 0 0 0 0 0 0 0 0 0 0 0 0 127 0"/><feOffset dy="1.779"/><feGaussianBlur stdDeviation=".89"/><feColorMatrix values="0 0 0 0 0 0 0 0 0 0 0 0 0 0 0 0 0 0 0.13 0"/><feBlend in2="BackgroundImageFix" result="effect1_dropShadow"/><feBlend in="SourceGraphic" in2="effect1_dropShadow" result="shape"/></filter><clipPath id="clip0"><path fill="#fff" d="M0 0h343v456H0z"/></clipPath><clipPath id="clip1"><path fill="#fff" d="M14 107h95v179H14z"/></clipPath><clipPath id="clip2"><path fill="#fff" d="M125 107h95v179h-95z"/></clipPath><clipPath id="clip3"><path fill="#fff" d="M236 107h95v179h-95z"/></clipPath><linearGradient id="paint0_linear" x1="14" y1="362.291" x2="328.295" y2="364.322" gradientUnits="userSpaceOnUse"><stop stop-color="#198AFF"/><stop offset="1" stop-color="#198AFF" stop-opacity="0"/></linearGradient><linearGradient id="paint1_linear" x1="330" y1="318" x2="14" y2="318" gradientUnits="userSpaceOnUse"><stop stop-color="#FF6400"/><stop offset="1" stop-color="red" stop-opacity="0"/></linearGradient><linearGradient id="paint2_linear" x1="62.966" y1="108.273" x2="63.022" y2="181" gradientUnits="userSpaceOnUse"><stop stop-color="#198AFF"/><stop offset="1" stop-color="#198AFF"/></linearGradient></defs></svg>