<svg viewBox="0 0 285.795 54.5" xmlns="http://www.w3.org/2000/svg"><g fill="#222"><path d="m.945 19.156a3.118 3.118 0 0 1 1.225-2.579 5.2 5.2 0 0 1 3.308-.966h1.891v-.473a1.386 1.386 0 0 0 -.537-1.192 2.218 2.218 0 0 0 -1.354-.4 1.821 1.821 0 0 0 -1.869 1.246l-2.256-.515a3.411 3.411 0 0 1 1.386-2.177 4.5 4.5 0 0 1 2.739-.827 4.647 4.647 0 0 1 3.362 1.147 4.491 4.491 0 0 1 1.193 3.38v6.467h-2.192l-.279-1.367a4.1 4.1 0 0 1 -3.33 1.547 3.327 3.327 0 0 1 -2.363-.86 3.151 3.151 0 0 1 -.924-2.431zm6.424-1.225v-.215h-1.783a2.326 2.326 0 0 0 -1.365.344 1.205 1.205 0 0 0 -.483 1.053.961.961 0 0 0 .333.762 1.274 1.274 0 0 0 .87.29 2.562 2.562 0 0 0 1.7-.612 2.009 2.009 0 0 0 .728-1.622z"/><path d="m15.486 21.154v1.117h-2.664v-15.211h2.664v5.371a2.913 2.913 0 0 1 1.1-.816 3.528 3.528 0 0 1 1.525-.344 4.528 4.528 0 0 1 3.663 1.514 6.106 6.106 0 0 1 1.278 4.072 6.1 6.1 0 0 1 -1.278 4.071 4.525 4.525 0 0 1 -3.663 1.515 3.266 3.266 0 0 1 -1.644-.409 2.442 2.442 0 0 1 -.981-.88zm4.769-4.3a3.76 3.76 0 0 0 -.709-2.439 2.226 2.226 0 0 0 -1.8-.87 2.2 2.2 0 0 0 -1.794.87 3.8 3.8 0 0 0 -.7 2.439 3.8 3.8 0 0 0 .7 2.438 2.286 2.286 0 0 0 3.6-.011 3.764 3.764 0 0 0 .703-2.424z"/><path d="m25.451 19.693a6.517 6.517 0 0 1 -.6-2.836 6.517 6.517 0 0 1 .6-2.836 4.682 4.682 0 0 1 1.794-2.009 5.368 5.368 0 0 1 2.889-.741 5.68 5.68 0 0 1 3.062.784 4.62 4.62 0 0 1 1.858 2.31l-2.384.966a3.547 3.547 0 0 0 -1.042-1.331 2.457 2.457 0 0 0 -1.494-.451 2.12 2.12 0 0 0 -1.858.913 4.117 4.117 0 0 0 -.634 2.4 4.113 4.113 0 0 0 .634 2.395 2.118 2.118 0 0 0 1.858.913 2.451 2.451 0 0 0 1.494-.451 3.547 3.547 0 0 0 1.042-1.332l2.384.967a4.624 4.624 0 0 1 -1.858 2.31 5.68 5.68 0 0 1 -3.062.784 5.36 5.36 0 0 1 -2.889-.742 4.685 4.685 0 0 1 -1.794-2.013z"/><path d="m36.726 16.857a6.25 6.25 0 0 1 1.236-4.072 4.251 4.251 0 0 1 3.491-1.514 4.169 4.169 0 0 1 1.686.333 2.894 2.894 0 0 1 1.15.827v-5.371h2.664v15.211h-2.664v-1.117a2.284 2.284 0 0 1 -1.021.891 3.88 3.88 0 0 1 -1.815.4 4.248 4.248 0 0 1 -3.491-1.515 6.248 6.248 0 0 1 -1.236-4.073zm7.8 0a3.8 3.8 0 0 0 -.7-2.439 2.2 2.2 0 0 0 -1.794-.87 2.228 2.228 0 0 0 -1.8.87 3.76 3.76 0 0 0 -.709 2.439 3.764 3.764 0 0 0 .709 2.427 2.287 2.287 0 0 0 3.6.011 3.8 3.8 0 0 0 .693-2.438z"/><path d="m49.9 19.51a6.7 6.7 0 0 1 0-5.307 4.791 4.791 0 0 1 4.651-2.932 4.787 4.787 0 0 1 2.836.8 4.838 4.838 0 0 1 1.676 2.031 6.2 6.2 0 0 1 .537 2.518v1.1h-7.452a2.621 2.621 0 0 0 .72 1.719 2.381 2.381 0 0 0 1.837.73 2.663 2.663 0 0 0 1.514-.408 3.68 3.68 0 0 0 1.107-1.267l2.148.794a4.9 4.9 0 0 1 -4.92 3.159 4.959 4.959 0 0 1 -2.932-.827 4.9 4.9 0 0 1 -1.722-2.11zm6.209-5.382a2.087 2.087 0 0 0 -1.558-.58 2.162 2.162 0 0 0 -1.568.6 2.6 2.6 0 0 0 -.773 1.461h4.662a2.94 2.94 0 0 0 -.76-1.481z"/><path d="m60.7 13.72v-2.277h1.37v-.559a3.8 3.8 0 0 1 1-2.868 3.8 3.8 0 0 1 2.739-.956 4.216 4.216 0 0 1 2.02.43l-.58 2.148a3.353 3.353 0 0 0 -1.289-.3q-1.226 0-1.225 1.354v.752h2.277v2.276h-2.278v8.551h-2.664v-8.551z"/><path d="m67.632 23.259a2.791 2.791 0 0 1 .881-2.148 2.746 2.746 0 0 1 -.2-3.008 2.755 2.755 0 0 1 .978-.945 3.431 3.431 0 0 1 -.752-2.235 3.438 3.438 0 0 1 1.966-3.2 4.465 4.465 0 0 1 2.008-.451 4.4 4.4 0 0 1 2 .472l2.041-1.074 1.046 1.761-1.547.773a3.409 3.409 0 0 1 .43 1.719 3.512 3.512 0 0 1 -.526 1.923 3.36 3.36 0 0 1 -1.44 1.257 4.662 4.662 0 0 1 -2.009.43 5.215 5.215 0 0 1 -1.568-.237.914.914 0 0 0 -.516.817.707.707 0 0 0 .258.59 1.193 1.193 0 0 0 .752.205h2.213a4.3 4.3 0 0 1 2.772.827 2.843 2.843 0 0 1 1.031 2.352 3.182 3.182 0 0 1 -.7 2.106 4.1 4.1 0 0 1 -1.816 1.235 7.128 7.128 0 0 1 -2.406.4 6.182 6.182 0 0 1 -3.528-.928 3 3 0 0 1 -1.368-2.641zm7.155 0a.908.908 0 0 0 -.451-.87 2.728 2.728 0 0 0 -1.29-.247h-1.46a7.644 7.644 0 0 1 -1.247-.086 1.805 1.805 0 0 0 -.236.988 1.266 1.266 0 0 0 .666 1.15 3.424 3.424 0 0 0 1.762.4 3.543 3.543 0 0 0 1.643-.322 1.067 1.067 0 0 0 .613-1.013zm-.8-8.336a1.47 1.47 0 0 0 -.419-1.085 1.559 1.559 0 0 0 -2.127 0 1.47 1.47 0 0 0 -.419 1.085 1.408 1.408 0 0 0 .419 1.053 1.59 1.59 0 0 0 2.127 0 1.408 1.408 0 0 0 .424-1.053z"/><path d="m82.067 7.06v6.123a4.133 4.133 0 0 1 1.433-1.383 3.881 3.881 0 0 1 2.009-.526 3.513 3.513 0 0 1 2.47.827 3.143 3.143 0 0 1 .9 2.438v7.735h-2.666v-6.792a2.238 2.238 0 0 0 -.4-1.461 1.5 1.5 0 0 0 -1.214-.473 1.965 1.965 0 0 0 -1.221.452 3.161 3.161 0 0 0 -.946 1.375 6.378 6.378 0 0 0 -.365 2.321v4.576h-2.667v-15.212z"/><path d="m91.409 8.327a1.719 1.719 0 1 1 2.943 1.225 1.719 1.719 0 0 1 -2.943-1.225zm3.051 3.116v10.828h-2.66v-10.828z"/><path d="m96.842 23.474a3.094 3.094 0 0 0 .623-2.127v-9.9h2.665v9.582a6.052 6.052 0 0 1 -1.107 3.9 5.983 5.983 0 0 1 -3.427 1.9l-.644-2.342a3.723 3.723 0 0 0 1.89-1.013zm.237-15.147a1.719 1.719 0 1 1 2.943 1.225 1.719 1.719 0 0 1 -2.943-1.225z"/><path d="m105.8 7.06v8.64l3.524-4.254h3.287l-4.34 4.984 4.619 5.844h-3.265l-3.825-5.116v5.113h-2.664v-15.211z"/><path d="m117.182 7.06v15.211h-2.664v-15.211z"/><path d="m122.852 11.443v1.74a4.853 4.853 0 0 1 1.364-1.429 3.14 3.14 0 0 1 1.751-.483 3.233 3.233 0 0 1 1.87.558 3.031 3.031 0 0 1 1.163 1.676 4.634 4.634 0 0 1 1.45-1.643 3.247 3.247 0 0 1 1.858-.591 3.153 3.153 0 0 1 2.364.881 3.357 3.357 0 0 1 .859 2.449v7.67h-2.664v-7.219q0-1.5-1.332-1.5a1.928 1.928 0 0 0 -1.687 1.16 6.939 6.939 0 0 0 -.655 3.352v4.211h-2.664v-7.223q0-1.5-1.332-1.5a1.927 1.927 0 0 0 -1.687 1.214 7.619 7.619 0 0 0 -.655 3.534v3.975h-2.664v-10.832z"/><path d="m141.108 11.443v1.74a4.9 4.9 0 0 1 1.482-1.4 3.58 3.58 0 0 1 1.87-.515 3.433 3.433 0 0 1 2.417.838 3.131 3.131 0 0 1 .913 2.427v7.735h-2.664v-6.94a1.879 1.879 0 0 0 -.419-1.353 1.507 1.507 0 0 0 -1.128-.43 1.768 1.768 0 0 0 -1.225.516 3.627 3.627 0 0 0 -.9 1.514 7.293 7.293 0 0 0 -.344 2.374v4.319h-2.664v-10.825z"/><path d="m150.847 19.714a6.141 6.141 0 0 1 -.655-2.857 6.142 6.142 0 0 1 .655-2.857 4.878 4.878 0 0 1 1.9-2 6.3 6.3 0 0 1 5.886 0 4.878 4.878 0 0 1 1.9 2 6.142 6.142 0 0 1 .655 2.858 6.141 6.141 0 0 1 -.655 2.857 4.866 4.866 0 0 1 -1.9 2 6.29 6.29 0 0 1 -5.886 0 4.866 4.866 0 0 1 -1.9-2.001zm7.552-2.857a3.763 3.763 0 0 0 -.73-2.353 2.522 2.522 0 0 0 -3.954 0 3.763 3.763 0 0 0 -.73 2.353 3.76 3.76 0 0 0 .73 2.352 2.522 2.522 0 0 0 3.954 0 3.76 3.76 0 0 0 .731-2.352z"/><path d="m166.258 11.443v1.117a2.433 2.433 0 0 1 .978-.881 3.271 3.271 0 0 1 1.644-.408 4.53 4.53 0 0 1 3.663 1.514 6.111 6.111 0 0 1 1.278 4.072 6.108 6.108 0 0 1 -1.278 4.071 4.528 4.528 0 0 1 -3.663 1.515 3.543 3.543 0 0 1 -1.526-.344 2.94 2.94 0 0 1 -1.1-.816v5.371h-2.664v-15.211zm4.77 5.414a3.76 3.76 0 0 0 -.709-2.439 2.228 2.228 0 0 0 -1.8-.87 2.2 2.2 0 0 0 -1.794.87 3.806 3.806 0 0 0 -.7 2.439 3.8 3.8 0 0 0 .7 2.438 2.287 2.287 0 0 0 3.6-.011 3.764 3.764 0 0 0 .703-2.427z"/><path d="m182.088 22.1a3.542 3.542 0 0 1 -1.525.344 4.527 4.527 0 0 1 -3.663-1.515 6.1 6.1 0 0 1 -1.278-4.071 6.106 6.106 0 0 1 1.278-4.072 4.529 4.529 0 0 1 3.663-1.514 3.276 3.276 0 0 1 1.644.408 2.436 2.436 0 0 1 .977.881v-1.118h2.664v15.211h-2.664v-5.371a2.924 2.924 0 0 1 -1.096.817zm1.333-5.242a3.8 3.8 0 0 0 -.7-2.439 2.2 2.2 0 0 0 -1.794-.87 2.226 2.226 0 0 0 -1.8.87 3.76 3.76 0 0 0 -.709 2.439 3.764 3.764 0 0 0 .709 2.427 2.286 2.286 0 0 0 3.6.011 3.8 3.8 0 0 0 .694-2.439z"/><path d="m191.516 11.443v1.757a4.3 4.3 0 0 1 1.418-1.428 3.4 3.4 0 0 1 1.783-.5 4.516 4.516 0 0 1 1.311.215l-.494 2.47a2.109 2.109 0 0 0 -1.117-.3 2.461 2.461 0 0 0 -2.084 1.149 6.338 6.338 0 0 0 -.817 3.62v3.846h-2.664v-10.829z"/><path d="m196.627 19.521 2.127-1.139a3.046 3.046 0 0 0 .848 1.311 1.926 1.926 0 0 0 1.3.472 1.761 1.761 0 0 0 .967-.247.882.882 0 0 0 .386-.8.94.94 0 0 0 -.461-.806 6.683 6.683 0 0 0 -1.429-.655 4.19 4.19 0 0 1 -.451-.172 5.13 5.13 0 0 1 -1.934-1.246 2.755 2.755 0 0 1 -.687-1.934 2.719 2.719 0 0 1 .451-1.525 3.232 3.232 0 0 1 1.235-1.1 3.782 3.782 0 0 1 1.773-.408 4.322 4.322 0 0 1 2 .462 3.349 3.349 0 0 1 1.4 1.3l-1.59 1.46a2.007 2.007 0 0 0 -1.74-.945 1.227 1.227 0 0 0 -.741.226.7.7 0 0 0 -.312.591.92.92 0 0 0 .451.719 7.787 7.787 0 0 0 1.762.806 4.781 4.781 0 0 1 1.923 1.182 2.643 2.643 0 0 1 .677 1.869 3.345 3.345 0 0 1 -1.01 2.546 3.688 3.688 0 0 1 -2.643.956 4.483 4.483 0 0 1 -2.8-.86 4.051 4.051 0 0 1 -1.502-2.063z"/><path d="m207.172 18.447v-4.727h-1.672v-2.277h1.675v-2.707l2.665-1.676v4.383h2.857v2.277h-2.857v4.68a2.054 2.054 0 0 0 .354 1.364 1.352 1.352 0 0 0 1.064.4 2.208 2.208 0 0 0 1.031-.257l.623 2.148a4.155 4.155 0 0 1 -1.762.387 4.049 4.049 0 0 1 -2.922-1.01 3.951 3.951 0 0 1 -1.056-2.985z"/><path d="m214.325 19.177v-7.734h2.664v6.939a1.882 1.882 0 0 0 .419 1.354 1.5 1.5 0 0 0 1.128.429 1.771 1.771 0 0 0 1.224-.515 3.642 3.642 0 0 0 .9-1.515 7.321 7.321 0 0 0 .343-2.374v-4.318h2.665v10.828h-2.665v-1.74a4.9 4.9 0 0 1 -1.482 1.4 3.566 3.566 0 0 1 -1.869.516 3.436 3.436 0 0 1 -2.417-.838 3.134 3.134 0 0 1 -.91-2.432z"/><path d="m227.921 11.443 2.192 7.541 2.191-7.541h2.686l-3.674 10.828h-2.406l-3.674-10.828z"/><path d="m238.187 11.443 1.934 7.433 1.826-7.433h2.492l1.826 7.433 1.934-7.433h2.685l-3.459 10.828h-2.363l-1.869-7-1.869 7h-2.363l-3.461-10.828z"/><path d="m251.717 11.443h2.793l1.762 2.814 1.762-2.814h2.793l-3.137 5.049 3.588 5.779h-2.793l-2.213-3.524-2.213 3.524h-2.793l3.588-5.779z"/><path d="m261.726 11.443h2.686l2.513 6.789 2.364-6.789h2.664l-5.586 15.211h-2.578l1.869-5.071z"/><path d="m277.535 13.72h-4.335v-2.277h7.648v1.031l-4.64 7.519h4.941v2.278h-8.293v-1.031z"/><path d="m1.074 40.525a9.657 9.657 0 0 1 1.439-5.661 4.729 4.729 0 0 1 4.1-2.031 4.728 4.728 0 0 1 4.1 2.031 9.657 9.657 0 0 1 1.44 5.661 9.659 9.659 0 0 1 -1.44 5.661 4.73 4.73 0 0 1 -4.1 2.03 4.73 4.73 0 0 1 -4.1-2.03 9.659 9.659 0 0 1 -1.439-5.661zm5.543-5.2q-2.878 0-2.879 5.2t2.879 5.2q2.879 0 2.879-5.2t-2.879-5.199z"/><path d="m14.218 38.505v-2.922l4.405-2.578h1.177v15.039h-2.7v-11.258z"/><path d="m27.45 40.031a6.362 6.362 0 0 0 .9-1.44 3.337 3.337 0 0 0 .26-1.291 2.086 2.086 0 0 0 -.473-1.45 2.006 2.006 0 0 0 -2.7-.011 2.508 2.508 0 0 0 -.634 1.461l-2.492-.473a4.025 4.025 0 0 1 .666-2.041 4.271 4.271 0 0 1 1.611-1.428 4.76 4.76 0 0 1 2.235-.527 4.44 4.44 0 0 1 3.3 1.2 4.292 4.292 0 0 1 1.194 3.169 5.813 5.813 0 0 1 -1.289 3.566l-3.674 4.791h5.285v2.492h-9.56v-1.079z"/><path d="m34.213 46.111a4.826 4.826 0 0 1 -.794-2.235l2.6-.343q.538 2.19 2.428 2.191a2.291 2.291 0 0 0 1.719-.688 2.512 2.512 0 0 0 .666-1.826 2.723 2.723 0 0 0 -.656-1.955 2.25 2.25 0 0 0 -1.708-.687 2.81 2.81 0 0 0 -1.31.322l-1.074-1.5 2.835-3.89h-4.791v-2.495h8.615v.946l-3.543 4.791a5.721 5.721 0 0 1 .6-.043 3.341 3.341 0 0 1 2.729 1.235 4.946 4.946 0 0 1 1.01 3.233 5.239 5.239 0 0 1 -.666 2.675 4.519 4.519 0 0 1 -1.817 1.758 5.465 5.465 0 0 1 -2.61.612 5.368 5.368 0 0 1 -2.471-.558 4.623 4.623 0 0 1 -1.762-1.543z"/><path d="m45.317 45.251v-1.375l6.338-10.871h2.836v9.754h1.676v2.492h-1.676v2.793h-2.707v-2.793zm6.467-8.228-3.184 5.736h3.18z"/><path d="m58.386 46.272a4.526 4.526 0 0 1 -.784-2.159l2.557-.473q.408 2.085 2.256 2.084a2.04 2.04 0 0 0 1.665-.688 3.02 3.02 0 0 0 .569-1.976 2.764 2.764 0 0 0 -.612-1.934 2.259 2.259 0 0 0 -1.751-.666 2.978 2.978 0 0 0 -1.418.366 4.512 4.512 0 0 0 -1.246.988l-1.7-.344.838-8.465h7.74v2.495h-5.525l-.344 3.137a4.1 4.1 0 0 1 2.127-.558 4.3 4.3 0 0 1 3.442 1.339 5.387 5.387 0 0 1 1.16 3.642 5.69 5.69 0 0 1 -.612 2.675 4.479 4.479 0 0 1 -1.73 1.826 5.051 5.051 0 0 1 -2.6.655 5.294 5.294 0 0 1 -2.321-.505 4.342 4.342 0 0 1 -1.711-1.439z"/><path d="m69.609 45.821a4.9 4.9 0 0 1 -.462-3.868 6.269 6.269 0 0 1 .526-1.278l4.383-7.842h3.008l-3.264 5.586h.344a4.975 4.975 0 0 1 2.482.623 4.54 4.54 0 0 1 1.74 1.73 5.024 5.024 0 0 1 .634 2.546 4.832 4.832 0 0 1 -.656 2.492 4.735 4.735 0 0 1 -1.8 1.762 5.436 5.436 0 0 1 -5.114.01 4.717 4.717 0 0 1 -1.821-1.761zm6.682-2.5a2.359 2.359 0 0 0 -.656-1.762 2.472 2.472 0 0 0 -3.33 0 2.362 2.362 0 0 0 -.655 1.762 2.334 2.334 0 0 0 .677 1.74 2.374 2.374 0 0 0 3.3 0 2.353 2.353 0 0 0 .664-1.743z"/><path d="m80.412 35.5v-2.495h9.109v1.117l-5.672 13.922h-2.664l5.135-12.544z"/><path d="m91.151 46.025a4.525 4.525 0 0 1 -.666-2.471 4.314 4.314 0 0 1 .515-2.154 3.784 3.784 0 0 1 1.461-1.45 3.675 3.675 0 0 1 -1.032-1.311 3.931 3.931 0 0 1 -.365-1.7 3.986 3.986 0 0 1 .548-2.052 4.045 4.045 0 0 1 1.536-1.493 4.746 4.746 0 0 1 4.469 0 4.045 4.045 0 0 1 1.536 1.493 3.986 3.986 0 0 1 .548 2.052 3.931 3.931 0 0 1 -.365 1.7 3.6 3.6 0 0 1 -1.053 1.311 3.859 3.859 0 0 1 1.471 1.45 4.246 4.246 0 0 1 .527 2.159 4.424 4.424 0 0 1 -2.449 4.093 5.557 5.557 0 0 1 -4.9 0 4.477 4.477 0 0 1 -1.781-1.627zm6.424-2.471a2.068 2.068 0 0 0 -.623-1.59 2.411 2.411 0 0 0 -3.137 0 2.34 2.34 0 0 0 0 3.18 2.411 2.411 0 0 0 3.137 0 2.068 2.068 0 0 0 .623-1.59zm-.387-6.574a1.877 1.877 0 0 0 -.494-1.354 1.925 1.925 0 0 0 -2.621 0 1.877 1.877 0 0 0 -.494 1.354 1.945 1.945 0 0 0 .494 1.386 1.9 1.9 0 0 0 2.621 0 1.945 1.945 0 0 0 .494-1.386z"/><path d="m106.981 42.63a4.968 4.968 0 0 1 -2.481-.623 4.54 4.54 0 0 1 -1.741-1.729 5.036 5.036 0 0 1 -.633-2.546 4.832 4.832 0 0 1 .655-2.492 4.723 4.723 0 0 1 1.8-1.762 5.43 5.43 0 0 1 5.113-.011 4.72 4.72 0 0 1 1.815 1.762 4.9 4.9 0 0 1 .462 3.867 6.167 6.167 0 0 1 -.526 1.278l-4.383 7.842h-3.008l3.266-5.586zm2.492-4.9a2.33 2.33 0 0 0 -.677-1.74 2.373 2.373 0 0 0 -3.3 0 2.65 2.65 0 0 0 -.011 3.5 2.472 2.472 0 0 0 3.33 0 2.355 2.355 0 0 0 .658-1.758z"/></g></svg>