<svg viewBox="0 0 285.795 211.807" xmlns="http://www.w3.org/2000/svg" xmlns:xlink="http://www.w3.org/1999/xlink"><clipPath id="a"><path d="m40.312 6.781a27.008 27.008 0 0 0 -9.421 4.753 19.606 19.606 0 0 0 -5.678 7.585 29.005 29.005 0 0 0 -1.927 11.316q0 4.749.452 10.627.453 5.9 1.023 12 .572 6.115 1.016 12 .462 5.88.459 10.634a31.08 31.08 0 0 1 -1.816 11.651 16.1 16.1 0 0 1 -4.877 6.792 16.6 16.6 0 0 1 -6.924 3.167 39.922 39.922 0 0 1 -7.945.793v10.182a39.338 39.338 0 0 1 7.945.793 16.573 16.573 0 0 1 6.924 3.167 16 16 0 0 1 4.877 6.792 31.05 31.05 0 0 1 1.823 11.65q0 4.758-.459 10.522t-1.023 11.768q-.561 6-1.016 11.657t-.459 10.181a28.976 28.976 0 0 0 1.927 11.315 19.485 19.485 0 0 0 5.678 7.586 27.07 27.07 0 0 0 9.421 4.753 95.808 95.808 0 0 0 13.388 2.826l2.275-9.277q-5.244-1.148-10.444-2.491a24.615 24.615 0 0 1 -6.8-2.715 9.274 9.274 0 0 1 -3.632-4.189 17.417 17.417 0 0 1 -1.134-6.9 197.12 197.12 0 0 1 1.357-21.5 216.418 216.418 0 0 0 1.364-24.212 39.942 39.942 0 0 0 -1.475-11.879 24.353 24.353 0 0 0 -3.75-7.585 16.38 16.38 0 0 0 -5.219-4.524 51.14 51.14 0 0 0 -5.9-2.714 51.355 51.355 0 0 0 5.9-2.721 15.9 15.9 0 0 0 5.219-4.635 26.108 26.108 0 0 0 3.75-7.7 40 40 0 0 0 1.469-11.876 230.785 230.785 0 0 0 -1.364-24.673 212.22 212.22 0 0 1 -1.363-22.17 17.534 17.534 0 0 1 1.134-6.9 9.266 9.266 0 0 1 3.632-4.19 24.556 24.556 0 0 1 6.811-2.714q5.2-1.344 10.444-2.491l-2.274-9.28a95.522 95.522 0 0 0 -13.388 2.826"/></clipPath><g clip-path="url(#a)"><path d="m1.396.677h57.857v203.891h-57.857z" fill="#00f"/></g><g fill="#00f"><path d="m71.983 42.046a8.546 8.546 0 0 0 1.05-1.571 3.137 3.137 0 0 0 .27-1.329 2.207 2.207 0 0 0 -.558-1.588 2.005 2.005 0 0 0 -1.524-.586 1.967 1.967 0 0 0 -1.505.642 3.052 3.052 0 0 0 -.743 1.7l-1.431-.28a3.812 3.812 0 0 1 .567-1.784 3.528 3.528 0 0 1 1.309-1.226 3.75 3.75 0 0 1 1.822-.446 3.63 3.63 0 0 1 2.629.957 3.452 3.452 0 0 1 .994 2.61 4.027 4.027 0 0 1 -.362 1.663 8.141 8.141 0 0 1 -1.069 1.7l-3.716 4.814h5.444v1.412h-7.878v-.594z"/><path d="m81.45 44a2.457 2.457 0 0 1 -.492.056 4.136 4.136 0 0 1 -2.128-.556 3.809 3.809 0 0 1 -1.459-1.514 4.523 4.523 0 0 1 -.519-2.174 4.4 4.4 0 0 1 .529-2.156 3.919 3.919 0 0 1 1.478-1.523 4.369 4.369 0 0 1 4.273 0 3.917 3.917 0 0 1 1.477 1.523 4.415 4.415 0 0 1 .53 2.156 4.28 4.28 0 0 1 -.177 1.189 5.319 5.319 0 0 1 -.493 1.17l-3.827 6.708h-1.654l2.88-5.035a1.335 1.335 0 0 1 -.418.156zm2.128-4.181a2.908 2.908 0 0 0 -.734-2.045 2.538 2.538 0 0 0 -3.7 0 2.9 2.9 0 0 0 -.735 2.045 2.873 2.873 0 0 0 .725 2.063 2.661 2.661 0 0 0 3.726 0 2.9 2.9 0 0 0 .718-2.066z"/><path d="m87.775 45.873v-5.129h-1.575v-1.375h1.579v-2.806l1.542-.984v3.79h2.51v1.375h-2.51v5.241q0 1.524 1.3 1.523a2.105 2.105 0 0 0 1.077-.259l.39 1.3a3.536 3.536 0 0 1 -1.6.334 2.632 2.632 0 0 1 -1.988-.751 3.147 3.147 0 0 1 -.725-2.259z"/><path d="m95.282 35.579v5.668a3.459 3.459 0 0 1 1.338-1.5 3.56 3.56 0 0 1 1.877-.53 2.9 2.9 0 0 1 2.147.772 3.007 3.007 0 0 1 .77 2.22v6.522h-1.523v-6.147a2.177 2.177 0 0 0 -.447-1.477 1.655 1.655 0 0 0 -1.318-.511 2.3 2.3 0 0 0 -1.413.492 3.354 3.354 0 0 0 -1.041 1.44 5.856 5.856 0 0 0 -.39 2.23v3.977h-1.542v-13.156z"/><path d="m107.99 45.539 1.635-.353a2.875 2.875 0 0 0 .688 1.625 1.928 1.928 0 0 0 1.468.568 2.156 2.156 0 0 0 1.608-.614 2.64 2.64 0 0 0 .6-1.913v-9.124h1.6v8.956a4.264 4.264 0 0 1 -1.059 3.141 3.723 3.723 0 0 1 -2.75 1.058 3.635 3.635 0 0 1 -2.629-.938 3.9 3.9 0 0 1 -1.161-2.406z"/><path d="m117.894 46.041a2.626 2.626 0 0 1 1.1-2.276 5.137 5.137 0 0 1 3.039-.791h1.635v-.408a1.874 1.874 0 0 0 -.548-1.5 2.127 2.127 0 0 0 -1.441-.474 1.992 1.992 0 0 0 -2.043 1.523l-1.375-.315a2.8 2.8 0 0 1 1.142-1.877 3.735 3.735 0 0 1 2.276-.706 3.542 3.542 0 0 1 2.547.92 3.412 3.412 0 0 1 .966 2.592v6h-1.208l-.279-1.356a3.233 3.233 0 0 1 -2.917 1.5 3.047 3.047 0 0 1 -2.082-.715 2.678 2.678 0 0 1 -.812-2.117zm5.387.194a3.173 3.173 0 0 0 .391-1.644v-.3h-1.58a3.474 3.474 0 0 0 -1.951.447 1.461 1.461 0 0 0 -.65 1.282 1.425 1.425 0 0 0 .418 1.1 1.631 1.631 0 0 0 1.161.39 2.654 2.654 0 0 0 1.23-.31 2.446 2.446 0 0 0 .981-.965z"/><path d="m129.32 39.369v1.8a3.957 3.957 0 0 1 1.329-1.421 3.232 3.232 0 0 1 1.775-.53 2.841 2.841 0 0 1 2.1.78 2.993 2.993 0 0 1 .78 2.212v6.522h-1.524v-6.185a2.138 2.138 0 0 0 -.437-1.459 1.639 1.639 0 0 0 -1.292-.492 2.153 2.153 0 0 0 -1.384.5 3.334 3.334 0 0 0 -.984 1.44 6.088 6.088 0 0 0 -.363 2.2v3.995h-1.542v-9.362z"/><path d="m138.089 45.891v-6.522h1.543v6.188a2.138 2.138 0 0 0 .436 1.459 1.611 1.611 0 0 0 1.274.492 2.191 2.191 0 0 0 1.393-.5 3.312 3.312 0 0 0 .994-1.45 6.162 6.162 0 0 0 .363-2.211v-3.978h1.523v9.366h-1.523v-1.8a3.966 3.966 0 0 1 -1.329 1.421 3.255 3.255 0 0 1 -1.794.53 2.833 2.833 0 0 1 -2.1-.78 2.992 2.992 0 0 1 -.78-2.215z"/><path d="m147.9 46.041a2.627 2.627 0 0 1 1.1-2.276 5.14 5.14 0 0 1 3.04-.791h1.634v-.408a1.877 1.877 0 0 0 -.547-1.5 2.13 2.13 0 0 0 -1.441-.474 1.993 1.993 0 0 0 -2.044 1.523l-1.374-.315a2.794 2.794 0 0 1 1.141-1.877 3.738 3.738 0 0 1 2.277-.706 3.541 3.541 0 0 1 2.546.92 3.408 3.408 0 0 1 .966 2.592v6h-1.198l-.28-1.356a3.233 3.233 0 0 1 -2.917 1.5 3.047 3.047 0 0 1 -2.081-.715 2.676 2.676 0 0 1 -.822-2.117zm5.389.194a3.183 3.183 0 0 0 .39-1.644v-.3h-1.579a3.468 3.468 0 0 0 -1.95.447 1.46 1.46 0 0 0 -.651 1.282 1.422 1.422 0 0 0 .419 1.1 1.628 1.628 0 0 0 1.16.39 2.648 2.648 0 0 0 1.222-.31 2.455 2.455 0 0 0 .988-.965z"/><path d="m159.307 39.369v1.617a3.381 3.381 0 0 1 1.152-1.31 2.891 2.891 0 0 1 1.6-.455 3.629 3.629 0 0 1 1.32.279l-.316 1.43a2.473 2.473 0 0 0 -1.208-.315 2.107 2.107 0 0 0 -1.83 1.17 6.633 6.633 0 0 0 -.716 3.42v3.53h-1.542v-9.366z"/><path d="m164.492 39.369h1.579l2.583 7.025 2.416-7.025h1.561l-4.7 13.157h-1.506l1.45-4.014z"/><path d="m182.737 42.046a8.615 8.615 0 0 0 1.051-1.571 3.152 3.152 0 0 0 .269-1.329 2.211 2.211 0 0 0 -.557-1.588 2.009 2.009 0 0 0 -1.525-.586 1.967 1.967 0 0 0 -1.5.642 3.044 3.044 0 0 0 -.742 1.7l-1.432-.28a3.813 3.813 0 0 1 .568-1.784 3.513 3.513 0 0 1 1.309-1.226 3.749 3.749 0 0 1 1.821-.446 3.628 3.628 0 0 1 2.629.957 3.453 3.453 0 0 1 1 2.61 4.012 4.012 0 0 1 -.363 1.663 8.133 8.133 0 0 1 -1.068 1.7l-3.717 4.814h5.444v1.412h-7.878v-.594z"/><path d="m187.754 42.232a8.747 8.747 0 0 1 1.179-4.87 4.15 4.15 0 0 1 6.812-.008 8.784 8.784 0 0 1 1.17 4.878 8.785 8.785 0 0 1 -1.17 4.877 4.15 4.15 0 0 1 -6.812-.01 8.739 8.739 0 0 1 -1.179-4.867zm7.619 0a7.92 7.92 0 0 0 -.79-3.837 2.481 2.481 0 0 0 -4.488 0 8 8 0 0 0 -.78 3.837 7.951 7.951 0 0 0 .78 3.828 2.49 2.49 0 0 0 4.488 0 7.873 7.873 0 0 0 .79-3.828z"/><path d="m198.846 39.425v-1.672l3.271-2.025h.539v13.007h-1.542v-10.7z"/><path d="m209.706 44a2.457 2.457 0 0 1 -.492.056 4.136 4.136 0 0 1 -2.128-.549 3.8 3.8 0 0 1 -1.458-1.514 4.513 4.513 0 0 1 -.52-2.174 4.4 4.4 0 0 1 .53-2.156 3.91 3.91 0 0 1 1.477-1.523 4.369 4.369 0 0 1 4.273 0 3.917 3.917 0 0 1 1.477 1.523 4.415 4.415 0 0 1 .53 2.156 4.28 4.28 0 0 1 -.177 1.189 5.364 5.364 0 0 1 -.492 1.17l-3.826 6.705h-1.655l2.88-5.035a1.335 1.335 0 0 1 -.419.152zm2.128-4.181a2.908 2.908 0 0 0 -.734-2.045 2.538 2.538 0 0 0 -3.7 0 2.9 2.9 0 0 0 -.735 2.045 2.873 2.873 0 0 0 .725 2.063 2.661 2.661 0 0 0 3.726 0 2.9 2.9 0 0 0 .718-2.066z"/><path d="m91.59 65.87v6.415h-16.19v7.856h12.982v6.414h-12.982v10.315h16.725v6.414h-23.678v-37.414z"/><path d="m101.1 76.346 5.451 18.76 5.451-18.76h6.682l-9.14 26.938h-5.986l-9.14-26.938z"/><path d="m121.279 96.416a16.677 16.677 0 0 1 0-13.2 12.2 12.2 0 0 1 4.276-5.237 12.334 12.334 0 0 1 7.295-2.058 11.67 11.67 0 0 1 11.224 7.054 15.408 15.408 0 0 1 1.337 6.254v2.727h-18.547a6.526 6.526 0 0 0 1.791 4.275 5.927 5.927 0 0 0 4.57 1.817 6.645 6.645 0 0 0 3.768-1.015 9.2 9.2 0 0 0 2.752-3.154l5.345 1.977a12.183 12.183 0 0 1 -12.24 7.857 11.92 11.92 0 0 1 -11.571-7.3zm15.447-13.389a5.188 5.188 0 0 0 -3.876-1.442 5.39 5.39 0 0 0 -3.9 1.5 6.479 6.479 0 0 0 -1.925 3.635h11.6a7.32 7.32 0 0 0 -1.899-3.693z"/><path d="m157.007 76.346v4.383a10.683 10.683 0 0 1 3.527-3.554 8.458 8.458 0 0 1 4.437-1.256 11.27 11.27 0 0 1 3.259.535l-1.23 6.146a5.241 5.241 0 0 0 -2.778-.748 6.131 6.131 0 0 0 -5.185 2.86q-2.031 2.859-2.031 9v9.568h-6.628v-26.934z"/><path d="m170.316 76.346h6.684l6.253 16.889 5.88-16.889h6.627l-13.9 37.841h-6.413l4.649-12.614z"/><path d="m198.08 96.924a16.317 16.317 0 0 1 0-14.218 12.11 12.11 0 0 1 4.73-4.97 15.663 15.663 0 0 1 14.645 0 12.117 12.117 0 0 1 4.73 4.97 16.317 16.317 0 0 1 0 14.218 12.117 12.117 0 0 1 -4.73 4.97 15.663 15.663 0 0 1 -14.645 0 12.11 12.11 0 0 1 -4.73-4.97zm18.787-7.11a9.354 9.354 0 0 0 -1.818-5.851 6.272 6.272 0 0 0 -9.834 0 10.337 10.337 0 0 0 0 11.7 6.271 6.271 0 0 0 9.834 0 9.354 9.354 0 0 0 1.818-5.849z"/><path d="m235.413 76.346v4.33a12.194 12.194 0 0 1 3.687-3.476 8.862 8.862 0 0 1 4.649-1.283 8.546 8.546 0 0 1 6.015 2.083 7.793 7.793 0 0 1 2.271 6.04v19.241h-6.628v-17.261a4.676 4.676 0 0 0 -1.042-3.367 3.739 3.739 0 0 0 -2.806-1.068 4.407 4.407 0 0 0 -3.047 1.282 9.022 9.022 0 0 0 -2.244 3.767 18.193 18.193 0 0 0 -.855 5.907v10.743h-6.628v-26.938z"/><path d="m258.314 96.416a16.666 16.666 0 0 1 0-13.2 12.2 12.2 0 0 1 4.276-5.237 12.335 12.335 0 0 1 7.3-2.058 11.672 11.672 0 0 1 11.223 7.054 15.424 15.424 0 0 1 1.336 6.254v2.727h-18.549a6.52 6.52 0 0 0 1.79 4.275 5.926 5.926 0 0 0 4.57 1.817 6.641 6.641 0 0 0 3.767-1.015 9.189 9.189 0 0 0 2.752-3.154l5.346 1.977a12.185 12.185 0 0 1 -12.239 7.857 12.328 12.328 0 0 1 -7.3-2.058 12.2 12.2 0 0 1 -4.272-5.239zm15.446-13.389a5.185 5.185 0 0 0 -3.874-1.442 5.394 5.394 0 0 0 -3.9 1.5 6.491 6.491 0 0 0 -1.925 3.635h11.6a7.321 7.321 0 0 0 -1.901-3.693z"/><path d="m66.951 120.869a4.2 4.2 0 1 1 1.229 3.047 4.138 4.138 0 0 1 -1.229-3.047zm7.589 7.75v26.937h-6.628v-26.937z"/><path d="m78.548 148.715 5.291-2.832a7.606 7.606 0 0 0 2.111 3.26 4.788 4.788 0 0 0 3.234 1.175 4.381 4.381 0 0 0 2.405-.614 2.2 2.2 0 0 0 .962-2 2.33 2.33 0 0 0 -1.149-2 16.565 16.565 0 0 0 -3.554-1.631 10.468 10.468 0 0 1 -1.122-.427 12.788 12.788 0 0 1 -4.811-3.1 6.849 6.849 0 0 1 -1.71-4.81 6.775 6.775 0 0 1 1.122-3.8 8.018 8.018 0 0 1 3.074-2.725 9.4 9.4 0 0 1 4.409-1.016 10.736 10.736 0 0 1 4.97 1.15 8.336 8.336 0 0 1 3.474 3.233l-3.954 3.63a4.988 4.988 0 0 0 -4.329-2.351 3.062 3.062 0 0 0 -1.844.561 1.737 1.737 0 0 0 -.776 1.47 2.291 2.291 0 0 0 1.124 1.79 19.4 19.4 0 0 0 4.383 2 11.92 11.92 0 0 1 4.783 2.94 6.571 6.571 0 0 1 1.683 4.649 8.309 8.309 0 0 1 -2.512 6.334 9.166 9.166 0 0 1 -6.573 2.379 11.173 11.173 0 0 1 -6.975-2.138 10.084 10.084 0 0 1 -3.716-5.127z"/><path d="m114.089 147.806a7.757 7.757 0 0 1 3.047-6.413 12.934 12.934 0 0 1 8.231-2.405h4.7v-1.176a3.452 3.452 0 0 0 -1.336-2.966 5.5 5.5 0 0 0 -3.367-.989 4.532 4.532 0 0 0 -4.65 3.1l-5.612-1.284a8.483 8.483 0 0 1 3.448-5.423 11.2 11.2 0 0 1 6.814-2.059q5.4 0 8.364 2.86t2.967 8.418v16.087h-5.452l-.7-3.42a10.19 10.19 0 0 1 -8.284 3.848 8.291 8.291 0 0 1 -5.879-2.138 7.842 7.842 0 0 1 -2.291-6.04zm15.981-3.046v-.535h-4.435a5.79 5.79 0 0 0 -3.394.855 3 3 0 0 0 -1.2 2.619 2.39 2.39 0 0 0 .829 1.9 3.177 3.177 0 0 0 2.164.722 6.37 6.37 0 0 0 4.222-1.523 5 5 0 0 0 1.814-4.038z"/><path d="m154.868 147.86v-19.241h6.632v17.264a4.672 4.672 0 0 0 1.043 3.367 3.739 3.739 0 0 0 2.806 1.068 4.4 4.4 0 0 0 3.046-1.283 9.016 9.016 0 0 0 2.244-3.767 18.187 18.187 0 0 0 .855-5.906v-10.743h6.628v26.937h-6.632v-4.329a12.179 12.179 0 0 1 -3.69 3.473 8.878 8.878 0 0 1 -4.65 1.283 8.544 8.544 0 0 1 -6.013-2.085 7.787 7.787 0 0 1 -2.269-6.038z"/><path d="m182.394 148.715 5.29-2.832a7.6 7.6 0 0 0 2.112 3.26 4.788 4.788 0 0 0 3.234 1.175 4.375 4.375 0 0 0 2.4-.614 2.2 2.2 0 0 0 .963-2 2.329 2.329 0 0 0 -1.15-2 16.541 16.541 0 0 0 -3.554-1.631 10.633 10.633 0 0 1 -1.122-.427 12.791 12.791 0 0 1 -4.81-3.1 6.845 6.845 0 0 1 -1.71-4.81 6.775 6.775 0 0 1 1.122-3.8 8.025 8.025 0 0 1 3.074-2.725 9.4 9.4 0 0 1 4.409-1.016 10.733 10.733 0 0 1 4.97 1.15 8.336 8.336 0 0 1 3.474 3.233l-3.955 3.634a4.99 4.99 0 0 0 -4.33-2.351 3.059 3.059 0 0 0 -1.843.561 1.736 1.736 0 0 0 -.775 1.47 2.288 2.288 0 0 0 1.122 1.79 19.4 19.4 0 0 0 4.383 2 11.906 11.906 0 0 1 4.783 2.94 6.573 6.573 0 0 1 1.685 4.649 8.307 8.307 0 0 1 -2.514 6.334 9.165 9.165 0 0 1 -6.573 2.379 11.17 11.17 0 0 1 -6.974-2.138 10.084 10.084 0 0 1 -3.711-5.131z"/><path d="m206.2 148.689a16.679 16.679 0 0 1 0-13.2 12.2 12.2 0 0 1 4.276-5.236 12.327 12.327 0 0 1 7.295-2.059 11.671 11.671 0 0 1 11.229 7.053 15.4 15.4 0 0 1 1.337 6.253v2.725h-18.549a6.526 6.526 0 0 0 1.791 4.276 5.927 5.927 0 0 0 4.57 1.817 6.645 6.645 0 0 0 3.768-1.015 9.2 9.2 0 0 0 2.752-3.153l5.345 1.977a12.187 12.187 0 0 1 -12.24 7.857 12.334 12.334 0 0 1 -7.295-2.058 12.211 12.211 0 0 1 -4.279-5.237zm15.45-13.389a5.188 5.188 0 0 0 -3.876-1.442 5.39 5.39 0 0 0 -3.9 1.5 6.476 6.476 0 0 0 -1.925 3.635h11.6a7.327 7.327 0 0 0 -1.899-3.693z"/><path d="m241.933 128.619v4.381a10.667 10.667 0 0 1 3.528-3.554 8.441 8.441 0 0 1 4.435-1.257 11.328 11.328 0 0 1 3.261.535l-1.23 6.146a5.235 5.235 0 0 0 -2.779-.748 6.13 6.13 0 0 0 -5.185 2.859q-2.029 2.86-2.03 9.006v9.567h-6.628v-26.935z"/></g></svg>