<svg viewBox="0 0 291.259 115.115" xmlns="http://www.w3.org/2000/svg"><g fill="none" stroke="#00f"><path d="M4.136 50.654S23.47 90.8 58.989 90.8h1.251c35.519 0 54.853-40.142 54.853-40.142v-.212S95.759 10.3 60.24 10.3h-1.251C23.47 10.3 4.136 50.442 4.136 50.442z" stroke-width="8.271"/><circle cx="58.205" cy="50.986" r="19.845" stroke-width="8.58"/><path d="M177.75 53.189S196.826 92.8 231.871 92.8h1.235c35.028.025 54.1-39.606 54.1-39.606V53s-19.072-39.6-54.117-39.6h-1.235C196.809 13.4 177.75 53 177.75 53z" stroke-width="8.098"/><path d="M216.952 40.034a19.53 19.53 0 0027.368 27.855z" stroke-width="8.4"/><path d="M286.883 111.066L181.756 4.049z" stroke-linecap="round" stroke-linejoin="round" stroke-width="8.098"/></g></svg>