<svg id="Layer_1" data-name="Layer 1" xmlns="http://www.w3.org/2000/svg" viewBox="0 0 32 32">
  <title>icon-exp-js</title>
  <g>
    <path d="M7.419,26.368,5.513,4.975H26.487L24.581,26.368l-8.6,2.418Z" fill="#8b8b8b"/>
    <path d="M16.023,26.926l6.93-1.907L24.581,6.7H16.023" fill="#fff" opacity="0.25"/>
    <path d="M12.3,11.951h3.72V9.346h-6.6l.047.7.171,1.907m6.386,9.534h-.046l-2.93-.791L12.861,18.6H10.256l.326,4.14,5.4,1.488h.046Z" fill="#e7e7e7"/>
    <polygon points="15.977 9.346 15.977 10.974 15.977 11.951 19.712 11.951 18.907 20.694 15.977 21.485 15.977 24.229 21.372 22.741 21.418 22.275 22.534 10.044 22.581 9.346 15.977 9.346" fill="#fff"/>
  </g>
</svg>
