<svg xmlns="http://www.w3.org/2000/svg" viewBox="0 0 14.597 150.173">
  <title>Asset 2</title>
  <g id="Layer_2" data-name="Layer 2">
    <g id="Layer_1-2" data-name="Layer 1">
      <path id="Specified" d="M7.4,146.531v-3.4h4.44a9.555,9.555,0,0,1,.378,1.555,10.072,10.072,0,0,1,.109,1.492,3.773,3.773,0,0,1-1.14,2.962,4.742,4.742,0,0,1-3.272,1.022,4.315,4.315,0,0,1-3.234-1.186,4.5,4.5,0,0,1-1.16-3.291,6.35,6.35,0,0,1,.527-2.542l1.453.6a4.322,4.322,0,0,0-.469,1.951,2.412,2.412,0,0,0,.791,1.887,3.071,3.071,0,0,0,2.127.709,3.422,3.422,0,0,0,2.13-.571,1.979,1.979,0,0,0,.735-1.662A5.883,5.883,0,0,0,10.7,144.9H8.913v1.623Zm4.81-13.371v4.934H3.647V133.16H5.135v3.117H7.013v-2.9H8.5v2.9h2.209V133.16Zm0-8.092v1.817H5.158v2.326H3.647v-6.47H5.158v2.326Zm0-12.761H3.647V110.49h8.566Zm0-14.573v2.307l-6.48,3.727v.052q1.716-.111,2.448-.111h4.032v1.623H3.647v-2.291l6.415-3.721v-.041q-1.669.088-2.361.088H3.647V97.734Zm0-14.578v1.817H5.158V87.3H3.647V80.83H5.158v2.326ZM7.918,68.736a4.648,4.648,0,0,1,3.269,1.055,4.57,4.57,0,0,1,0,6.047,4.668,4.668,0,0,1-3.281,1.055A4.6,4.6,0,0,1,4.64,75.835,3.953,3.953,0,0,1,3.513,72.8,3.9,3.9,0,0,1,4.65,69.782,4.657,4.657,0,0,1,7.918,68.736Zm0,6.252a3.568,3.568,0,0,0,2.162-.545,1.906,1.906,0,0,0,.726-1.629q0-2.173-2.888-2.173T5.024,72.8a1.918,1.918,0,0,0,.729,1.638A3.555,3.555,0,0,0,7.918,74.988Zm-4.271-18H9.189a3.194,3.194,0,0,1,1.664.425,2.762,2.762,0,0,1,1.1,1.228,4.39,4.39,0,0,1,.381,1.9,3.632,3.632,0,0,1-.847,2.566,3,3,0,0,1-2.317.915H3.647V62.209H8.89a2.2,2.2,0,0,0,1.453-.4,1.658,1.658,0,0,0,.463-1.319,1.621,1.621,0,0,0-.465-1.292,2.214,2.214,0,0,0-1.462-.4H3.647Zm1.388-8.736a1.849,1.849,0,0,0,.771,1.589,3.579,3.579,0,0,0,2.147.562q2.865,0,2.865-2.15a6.793,6.793,0,0,0-.451-2.186H11.89a6.071,6.071,0,0,1,.44,2.356A3.59,3.59,0,0,1,11.2,51.282a4.8,4.8,0,0,1-3.254.99A5.309,5.309,0,0,1,5.6,51.786a3.509,3.509,0,0,1-1.541-1.4,4.127,4.127,0,0,1-.536-2.136,5.76,5.76,0,0,1,.6-2.508l1.477.586a9.691,9.691,0,0,0-.4.967A2.888,2.888,0,0,0,5.035,48.252Zm7.178-14.027v1.81h-3.7v3.393h3.7v1.813H3.647V39.428H7V36.035H3.647v-1.81ZM0,0V9.521H2.847v4.142L7.6,9.719h7V0Z" fill="#222"/>
    </g>
  </g>
</svg>
