<svg xmlns="http://www.w3.org/2000/svg" viewBox="0 0 14.597 150.173"><g data-name="Layer 2"><path d="M7.4 146.531v-3.4h4.44a9.555 9.555 0 01.378 1.555 10.072 10.072 0 01.109 1.492 3.773 3.773 0 01-1.14 2.962 4.742 4.742 0 01-3.272 1.022 4.315 4.315 0 01-3.234-1.186 4.5 4.5 0 01-1.16-3.291 6.35 6.35 0 01.527-2.542l1.453.6a4.322 4.322 0 00-.469 1.951 2.412 2.412 0 00.791 1.887 3.071 3.071 0 002.127.709 3.422 3.422 0 002.13-.571 1.979 1.979 0 00.735-1.662 5.883 5.883 0 00-.115-1.157H8.913v1.623zm4.81-13.371v4.934H3.647v-4.934h1.488v3.117h1.878v-2.9H8.5v2.9h2.209v-3.117zm0-8.092v1.817H5.158v2.326H3.647v-6.47h1.511v2.326zm0-12.761H3.647v-1.817h8.566zm0-14.573v2.307l-6.48 3.727v.052q1.716-.111 2.448-.111h4.032v1.623H3.647v-2.291l6.415-3.721v-.041q-1.669.088-2.361.088H3.647v-1.633zm0-14.578v1.817H5.158V87.3H3.647v-6.47h1.511v2.326zm-4.292-14.42a4.648 4.648 0 013.269 1.055 4.57 4.57 0 010 6.047 4.668 4.668 0 01-3.281 1.055 4.6 4.6 0 01-3.266-1.058A3.953 3.953 0 013.513 72.8a3.9 3.9 0 011.137-3.018 4.657 4.657 0 013.268-1.046zm0 6.252a3.568 3.568 0 002.162-.545 1.906 1.906 0 00.726-1.629q0-2.173-2.888-2.173T5.024 72.8a1.918 1.918 0 00.729 1.638 3.555 3.555 0 002.165.55zm-4.271-18h5.542a3.194 3.194 0 011.664.425 2.762 2.762 0 011.1 1.228 4.39 4.39 0 01.381 1.9 3.632 3.632 0 01-.847 2.566 3 3 0 01-2.317.915H3.647v-1.813H8.89a2.2 2.2 0 001.453-.4 1.658 1.658 0 00.463-1.319 1.621 1.621 0 00-.465-1.292 2.214 2.214 0 00-1.462-.4H3.647zm1.388-8.736a1.849 1.849 0 00.771 1.589 3.579 3.579 0 002.147.562q2.865 0 2.865-2.15a6.793 6.793 0 00-.451-2.186h1.523a6.071 6.071 0 01.44 2.356 3.59 3.59 0 01-1.13 2.859 4.8 4.8 0 01-3.254.99 5.309 5.309 0 01-2.346-.486 3.509 3.509 0 01-1.541-1.4 4.127 4.127 0 01-.536-2.136 5.76 5.76 0 01.6-2.508l1.477.586a9.691 9.691 0 00-.4.967 2.888 2.888 0 00-.165.957zm7.178-14.027v1.81h-3.7v3.393h3.7v1.813H3.647v-1.813H7v-3.393H3.647v-1.81zM0 0v9.521h2.847v4.142L7.6 9.719h7V0z" fill="#222" data-name="Layer 1"/></g></svg>