<svg id="Layer_1" data-name="Layer 1" xmlns="http://www.w3.org/2000/svg" viewBox="0 0 285.795 54.5">
  <title>sArtboard 1</title>
  <g id="Layer_1-2" data-name="Layer 1-2">
    <path d="M12.021,23.838,7.8,28.238v7.527a.427.427,0,0,1-.424.426H.988a.425.425,0,0,1-.425-.425h0V5.163a.425.425,0,0,1,.425-.425H7.373a.425.425,0,0,1,.425.425h0V19.431L21.6,4.871a.422.422,0,0,1,.308-.133h6.931a.425.425,0,0,1,.311.715l-12.367,13.3L30.034,35.5a.425.425,0,0,1-.333.689H22.288a.421.421,0,0,1-.325-.153Z" fill="#231f20"/>
    <path d="M33.9,34.956a11.864,11.864,0,0,1-4.74-4.427A12.177,12.177,0,0,1,27.448,24.1a12.185,12.185,0,0,1,1.708-6.425,11.843,11.843,0,0,1,4.74-4.427,14.5,14.5,0,0,1,6.853-1.594,14.37,14.37,0,0,1,6.829,1.594A11.9,11.9,0,0,1,52.3,17.679,12.2,12.2,0,0,1,54,24.1,12.2,12.2,0,0,1,52.3,30.529a11.91,11.91,0,0,1-4.719,4.427,14.386,14.386,0,0,1-6.83,1.595A14.5,14.5,0,0,1,33.9,34.956Zm11.28-5.976A6.79,6.79,0,0,0,46.9,24.1a6.791,6.791,0,0,0-1.729-4.875,5.84,5.84,0,0,0-4.427-1.82,5.91,5.91,0,0,0-4.448,1.82A6.729,6.729,0,0,0,34.548,24.1,6.733,6.733,0,0,0,36.3,28.98,5.916,5.916,0,0,0,40.748,30.8,5.849,5.849,0,0,0,45.175,28.98Z" fill="#231f20"/>
    <path d="M94.855,12.587,86.4,35.911a.427.427,0,0,1-.4.28H79.857a.426.426,0,0,1-.4-.28L74.122,21.184,68.609,35.915a.426.426,0,0,1-.4.276H62.063a.426.426,0,0,1-.4-.281L53.254,12.586a.424.424,0,0,1,.256-.544.416.416,0,0,1,.144-.025h5.7a.423.423,0,0,1,.4.285l5.609,16.071L71.193,12.3a.423.423,0,0,1,.4-.28h5.333a.425.425,0,0,1,.4.284l5.651,16.072L88.763,12.3a.424.424,0,0,1,.4-.281h5.3a.425.425,0,0,1,.417.432A.432.432,0,0,1,94.855,12.587Z" fill="#231f20"/>
    <path d="M107.032,12.556a12.277,12.277,0,0,1,4.478-.893.434.434,0,0,1,.441.427v5.58a.425.425,0,0,1-.425.425h-.03q-.8-.056-1.117-.056a6.424,6.424,0,0,0-4.718,1.685,6.8,6.8,0,0,0-1.708,5.055V35.766a.426.426,0,0,1-.425.425h-6.16a.425.425,0,0,1-.425-.425h0V12.438a.425.425,0,0,1,.425-.425h5.845a.425.425,0,0,1,.425.425h0V15.2A7.782,7.782,0,0,1,107.032,12.556Z" fill="#231f20"/>
    <path d="M140.786,12.016a.427.427,0,0,1,.391.592L130.509,37.673A12.638,12.638,0,0,1,126.4,43.56a8.968,8.968,0,0,1-5.547,1.708,14.676,14.676,0,0,1-4.092-.585,8.54,8.54,0,0,1-2.746-1.4.429.429,0,0,1-.106-.53l2.164-4.213a.428.428,0,0,1,.581-.177.331.331,0,0,1,.064.041,6.174,6.174,0,0,0,1.458.794,5.836,5.836,0,0,0,2.09.4,3.72,3.72,0,0,0,2.336-.7,5.926,5.926,0,0,0,1.618-2.315l.09-.224L114.094,12.61a.424.424,0,0,1,.391-.593h6.3a.425.425,0,0,1,.393.262l6.685,16.139,6.722-16.14a.424.424,0,0,1,.392-.261Z" fill="#231f20"/>
    <path id="Fill-1" d="M144.263,35.238l-.01.01a.558.558,0,0,1-.049.06q-.023.02-.045.036a3.818,3.818,0,0,1-6.04-4.552.524.524,0,0,1,.083-.143V30.64h0a.521.521,0,0,1,.83.63h0a2.78,2.78,0,0,0,4.39,3.333h0c.011-.013.021-.028.033-.04a.522.522,0,0,1,.8.669ZM141.457,27.4a5.244,5.244,0,1,0,5.244,5.244,5.244,5.244,0,0,0-5.244-5.244h0Z" fill="#222"/>
  </g>
</svg>
