<svg id="Layer_1" data-name="Layer 1" xmlns="http://www.w3.org/2000/svg" viewBox="0 0 664 283">
  <title>kow-brand-m</title>
  <path d="M-.2,155.868H184V283H-.2Z" fill="none"/>
  <ellipse cx="91.899" cy="240.92" rx="19" ry="19.421" fill="#ccc"/>
  <path d="M91.9,214.325c-14.394,0-26.064,11.907-26.064,26.6s11.67,26.594,26.064,26.594,26.064-11.907,26.064-26.594-11.67-26.6-26.064-26.6Zm0,47.684a21.094,21.094,0,1,1,20.665-21.515v.426A20.882,20.882,0,0,1,91.9,262.009Z" fill="#ccc" fill-rule="evenodd"/>
  <path d="M240.173,155.868H424.364V283H240.173Z" fill="none"/>
  <path d="M353.712,234.842a.648.648,0,0,1-.01.077,2.875,2.875,0,0,1-.016.445,3.265,3.265,0,0,1-.077.325,22,22,0,0,1-8.356,14.523,21.266,21.266,0,0,1-29.827-3.842c-.119-.154-.235-.31-.35-.467a22.118,22.118,0,0,1-4.128-10.192,3.1,3.1,0,0,1-.117-.943l-.007-.06h.01a3.016,3.016,0,0,1,1.156-2.256,2.911,2.911,0,0,1,4.083.527h0c.016.02.032.041.047.062a3.031,3.031,0,0,1,.589,1.684h.016a16.1,16.1,0,0,0,3.031,7.573,15.476,15.476,0,0,0,21.622,3.393h0c.115-.084.229-.169.342-.256a16.012,16.012,0,0,0,6.091-10.611h.021a2.888,2.888,0,0,1,.01-.294,2.942,2.942,0,0,1,5.862.312Z" fill="#ccc" fill-rule="evenodd"/>
  <path d="M480.005,155.868H664.2V283h-184.2Z" fill="none"/>
  <path d="M546.526,170.977a6.284,6.284,0,0,1-1.387,4.312,4.873,4.873,0,0,1-3.855,1.571,4.938,4.938,0,0,1-3.895-1.543,6.34,6.34,0,0,1-1.371-4.356,6.257,6.257,0,0,1,1.375-4.324A4.971,4.971,0,0,1,541.3,165.1a4.865,4.865,0,0,1,3.843,1.562A6.28,6.28,0,0,1,546.526,170.977Zm-9.1,0a5.419,5.419,0,0,0,.988,3.519,4.038,4.038,0,0,0,5.709.029l.029-.029a6.853,6.853,0,0,0,0-7.019,3.458,3.458,0,0,0-2.855-1.192,3.526,3.526,0,0,0-2.887,1.2,5.365,5.365,0,0,0-.985,3.492Z" fill="#111"/>
  <path d="M550.94,172.32l-2.976-4.179h1.476l2.258,3.281,2.25-3.281h1.461l-2.977,4.179,3.133,4.383H554.1l-2.4-3.468-2.422,3.468h-1.469Z" fill="#111"/>
  <path d="M555.9,168.141h1.391l1.875,4.883a18.388,18.388,0,0,1,.765,2.414H560c.067-.266.21-.72.426-1.364s.923-2.621,2.121-5.933h1.39l-3.679,9.75a4.849,4.849,0,0,1-1.278,2.051,2.72,2.72,0,0,1-1.793.6,5.186,5.186,0,0,1-1.171-.133V179.37a4.494,4.494,0,0,0,.961.094,1.981,1.981,0,0,0,1.906-1.5l.476-1.219Z" fill="#111"/>
  <path d="M580.393,176.7v-5.57a2.3,2.3,0,0,0-.437-1.535,1.694,1.694,0,0,0-1.359-.512,2.2,2.2,0,0,0-1.79.695,3.312,3.312,0,0,0-.578,2.141V176.7h-1.3v-5.57a2.3,2.3,0,0,0-.437-1.535,1.7,1.7,0,0,0-1.367-.512,2.113,2.113,0,0,0-1.785.731,3.947,3.947,0,0,0-.567,2.394V176.7h-1.3v-8.562h1.055l.211,1.172h.062a2.558,2.558,0,0,1,1.036-.977,3.168,3.168,0,0,1,1.5-.351,2.544,2.544,0,0,1,2.625,1.453h.062a2.738,2.738,0,0,1,1.11-1.063,3.433,3.433,0,0,1,1.656-.39,2.9,2.9,0,0,1,2.176.746,3.334,3.334,0,0,1,.722,2.386V176.7Z" fill="#111"/>
  <path d="M589.628,176.7l-.258-1.218h-.063a3.589,3.589,0,0,1-1.277,1.089,3.882,3.882,0,0,1-1.59.286,2.863,2.863,0,0,1-2-.657,2.392,2.392,0,0,1-.722-1.867q0-2.593,4.148-2.719l1.453-.047v-.531a2.165,2.165,0,0,0-.434-1.488,1.782,1.782,0,0,0-1.386-.481,5.64,5.64,0,0,0-2.422.657l-.4-.992a6.205,6.205,0,0,1,2.9-.735,3.259,3.259,0,0,1,2.269.68,2.832,2.832,0,0,1,.739,2.18V176.7Zm-2.93-.914a2.629,2.629,0,0,0,1.9-.664,2.456,2.456,0,0,0,.692-1.859v-.774l-1.3.055a4.718,4.718,0,0,0-2.231.48,1.45,1.45,0,0,0-.683,1.325,1.333,1.333,0,0,0,.426,1.07,1.761,1.761,0,0,0,1.2.37Z" fill="#111"/>
  <path d="M597.167,167.985a5.091,5.091,0,0,1,1.023.093l-.179,1.2a4.427,4.427,0,0,0-.938-.117,2.282,2.282,0,0,0-1.777.844,3.077,3.077,0,0,0-.739,2.1V176.7h-1.3v-8.562h1.07l.148,1.586h.063a3.74,3.74,0,0,1,1.148-1.289,2.6,2.6,0,0,1,1.481-.45Z" fill="#111"/>
  <path d="M601.073,172.32a15.493,15.493,0,0,1,1.024-1.25l2.765-2.929H606.4l-3.469,3.648,3.711,4.914h-1.57l-3.023-4.047-.977.844v3.2h-1.281V164.547h1.281v6.445c0,.286-.02.73-.062,1.328Z" fill="#111"/>
  <path d="M572.1,214.129c-14.158,0-25.635,11.806-25.635,26.371s11.477,26.37,25.635,26.37,25.635-11.806,25.635-26.37a26.76,26.76,0,0,0-7.509-18.647,25.27,25.27,0,0,0-18.126-7.724ZM583.567,255.2a17.927,17.927,0,0,1-22.585.271,19.2,19.2,0,0,1-5.69-22.486,1.221,1.221,0,0,1,.981-.744,1.205,1.205,0,0,1,1.117.5,1.284,1.284,0,0,1,.137,1.246,16.639,16.639,0,0,0,4.933,19.492,15.543,15.543,0,0,0,19.579-.232,1.192,1.192,0,0,1,1.224-.226,1.248,1.248,0,0,1,.779,1,1.271,1.271,0,0,1-.477,1.181Z" fill="#ccc"/>
  <g>
    <path d="M269.116,165.689a3.2,3.2,0,0,1-1.184,2.668,5.364,5.364,0,0,1-3.386.933H263.2v4.492h-1.328V162.361h2.961Q269.116,162.361,269.116,165.689ZM263.2,168.15h1.2a4.436,4.436,0,0,0,2.555-.571,2.1,2.1,0,0,0,.789-1.828,1.972,1.972,0,0,0-.742-1.687,3.875,3.875,0,0,0-2.313-.555H263.2Z" fill="#111"/>
    <path d="M278.7,169.493a4.723,4.723,0,0,1-1.055,3.27,3.716,3.716,0,0,1-2.914,1.176,3.868,3.868,0,0,1-2.039-.539,3.565,3.565,0,0,1-1.375-1.547,5.392,5.392,0,0,1-.484-2.36,4.707,4.707,0,0,1,1.047-3.261,3.7,3.7,0,0,1,2.906-1.168,3.622,3.622,0,0,1,2.855,1.195A4.7,4.7,0,0,1,278.7,169.493Zm-6.523,0a4.064,4.064,0,0,0,.656,2.5,2.6,2.6,0,0,0,3.672.191h0a2.459,2.459,0,0,0,.191-.191,4.038,4.038,0,0,0,.66-2.5,3.965,3.965,0,0,0-.66-2.48,2.314,2.314,0,0,0-1.949-.848,2.287,2.287,0,0,0-1.922.836,4.015,4.015,0,0,0-.646,2.492Z" fill="#111"/>
    <path d="M286.5,171.446a2.144,2.144,0,0,1-.891,1.844,4.179,4.179,0,0,1-2.5.649,5.441,5.441,0,0,1-2.656-.539v-1.2a6.45,6.45,0,0,0,1.324.493,5.548,5.548,0,0,0,1.363.179,3.089,3.089,0,0,0,1.563-.324,1.115,1.115,0,0,0,.393-1.527,1.1,1.1,0,0,0-.28-.317,6.808,6.808,0,0,0-1.691-.839,9.066,9.066,0,0,1-1.7-.778,2.319,2.319,0,0,1-.75-.754,1.961,1.961,0,0,1-.246-1.008,1.922,1.922,0,0,1,.851-1.652,3.974,3.974,0,0,1,2.336-.6,6.831,6.831,0,0,1,2.7.562l-.461,1.055a6.176,6.176,0,0,0-2.336-.531,2.689,2.689,0,0,0-1.39.289.892.892,0,0,0-.469.8.97.97,0,0,0,.176.585,1.7,1.7,0,0,0,.566.461,12.733,12.733,0,0,0,1.5.633,5.608,5.608,0,0,1,2.059,1.117A1.976,1.976,0,0,1,286.5,171.446Z" fill="#111"/>
    <path d="M288.5,162.9a.86.86,0,0,1,.219-.653.809.809,0,0,1,1.086,0,.845.845,0,0,1,.226.649.86.86,0,0,1-.226.652.766.766,0,0,1-.54.215.746.746,0,0,1-.546-.215A.874.874,0,0,1,288.5,162.9Zm1.406,10.882h-1.3V165.22h1.3Z" fill="#111"/>
    <path d="M295.421,172.868a4.223,4.223,0,0,0,.664-.05,4.627,4.627,0,0,0,.508-.106v.992a2.341,2.341,0,0,1-.621.168,4.689,4.689,0,0,1-.739.067q-2.484,0-2.484-2.618v-5.093h-1.227V165.6l1.227-.539.547-1.828h.75v1.984h2.484v1.008h-2.484v5.039a1.731,1.731,0,0,0,.367,1.187,1.275,1.275,0,0,0,1.008.417Z" fill="#111"/>
    <path d="M298.194,162.9a.86.86,0,0,1,.219-.653.809.809,0,0,1,1.086,0,.845.845,0,0,1,.226.649.86.86,0,0,1-.226.652.762.762,0,0,1-.539.215.749.749,0,0,1-.547-.215A.874.874,0,0,1,298.194,162.9Zm1.406,10.882h-1.3V165.22h1.3Z" fill="#111"/>
    <path d="M304.225,173.782l-3.25-8.562h1.391l1.844,5.078a23.7,23.7,0,0,1,.734,2.313h.063a17.151,17.151,0,0,1,.543-1.715q.456-1.3,2.05-5.676h1.391l-3.25,8.562Z" fill="#111"/>
    <path d="M313.983,173.939a3.937,3.937,0,0,1-3-1.157,4.476,4.476,0,0,1-1.1-3.211,4.97,4.97,0,0,1,1.02-3.289,3.392,3.392,0,0,1,2.738-1.218,3.227,3.227,0,0,1,2.547,1.058,4.057,4.057,0,0,1,.938,2.793v.821h-5.9a3.4,3.4,0,0,0,.762,2.289,2.637,2.637,0,0,0,2.035.781,6.9,6.9,0,0,0,2.734-.578v1.156a6.843,6.843,0,0,1-1.3.426A7.293,7.293,0,0,1,313.983,173.939Zm-.351-7.789a2.118,2.118,0,0,0-1.645.671,3.107,3.107,0,0,0-.723,1.86h4.477a2.853,2.853,0,0,0-.547-1.879,1.924,1.924,0,0,0-1.562-.652Z" fill="#111"/>
    <path d="M327.116,173.939a3.928,3.928,0,0,1-3-1.157,4.476,4.476,0,0,1-1.1-3.211,4.97,4.97,0,0,1,1.02-3.289,3.392,3.392,0,0,1,2.738-1.218,3.228,3.228,0,0,1,2.547,1.058,4.056,4.056,0,0,1,.937,2.793v.821h-5.9a3.4,3.4,0,0,0,.762,2.289,2.637,2.637,0,0,0,2.035.781,6.9,6.9,0,0,0,2.734-.578v1.156a6.843,6.843,0,0,1-1.3.426,7.277,7.277,0,0,1-1.473.129Zm-.352-7.789a2.116,2.116,0,0,0-1.644.671,3.107,3.107,0,0,0-.723,1.86h4.477a2.853,2.853,0,0,0-.547-1.879,1.924,1.924,0,0,0-1.563-.652Z" fill="#111"/>
    <path d="M334.538,169.4l-2.977-4.18h1.477l2.262,3.28,2.25-3.281h1.461l-2.977,4.18,3.133,4.382H337.7l-2.4-3.468-2.422,3.468h-1.469Z" fill="#111"/>
    <path d="M344.843,173.939a3.7,3.7,0,0,1-1.528-.309,2.875,2.875,0,0,1-1.16-.949h-.094a11.459,11.459,0,0,1,.094,1.422v3.523h-1.3V165.22h1.055l.18,1.172h.062a3.013,3.013,0,0,1,1.164-1.016,3.541,3.541,0,0,1,1.524-.312,3.162,3.162,0,0,1,2.629,1.164,6.2,6.2,0,0,1-.016,6.543A3.174,3.174,0,0,1,344.843,173.939Zm-.188-7.774a2.3,2.3,0,0,0-1.9.727,3.741,3.741,0,0,0-.6,2.312v.289a4.285,4.285,0,0,0,.6,2.582,2.285,2.285,0,0,0,1.929.778,2,2,0,0,0,1.739-.9,4.266,4.266,0,0,0,.629-2.476,4.1,4.1,0,0,0-.629-2.457,2.066,2.066,0,0,0-1.768-.855Z" fill="#111"/>
    <path d="M354.28,173.939a3.928,3.928,0,0,1-3-1.157,4.476,4.476,0,0,1-1.1-3.211,4.97,4.97,0,0,1,1.02-3.289,3.392,3.392,0,0,1,2.738-1.218,3.228,3.228,0,0,1,2.547,1.058,4.057,4.057,0,0,1,.938,2.793v.821h-5.9a3.4,3.4,0,0,0,.762,2.289,2.637,2.637,0,0,0,2.035.781,6.9,6.9,0,0,0,2.734-.578v1.156a6.843,6.843,0,0,1-1.3.426A7.293,7.293,0,0,1,354.28,173.939Zm-.351-7.789a2.118,2.118,0,0,0-1.645.671,3.107,3.107,0,0,0-.723,1.86h4.477a2.853,2.853,0,0,0-.547-1.879,1.924,1.924,0,0,0-1.562-.652Z" fill="#111"/>
    <path d="M363.546,165.064a5.165,5.165,0,0,1,1.023.093l-.18,1.2a4.347,4.347,0,0,0-.937-.118,2.286,2.286,0,0,0-1.777.844,3.072,3.072,0,0,0-.739,2.1v4.593h-1.3V165.22h1.071l.148,1.586h.063a3.74,3.74,0,0,1,1.148-1.289,2.6,2.6,0,0,1,1.48-.453Z" fill="#111"/>
    <path d="M366.061,162.9a.868.868,0,0,1,.219-.653.809.809,0,0,1,1.086,0,1.046,1.046,0,0,1,0,1.3.758.758,0,0,1-.539.215.749.749,0,0,1-.547-.215A.882.882,0,0,1,366.061,162.9Zm1.407,10.882h-1.3V165.22h1.3Z" fill="#111"/>
    <path d="M373.835,173.939a3.928,3.928,0,0,1-3-1.157,4.472,4.472,0,0,1-1.1-3.211,4.97,4.97,0,0,1,1.02-3.289,3.386,3.386,0,0,1,2.738-1.218,3.228,3.228,0,0,1,2.547,1.058,4.056,4.056,0,0,1,.937,2.793v.821h-5.9a3.4,3.4,0,0,0,.762,2.289,2.637,2.637,0,0,0,2.035.781,6.9,6.9,0,0,0,2.734-.578v1.156a6.843,6.843,0,0,1-1.3.426,7.277,7.277,0,0,1-1.473.129Zm-.352-7.789a2.116,2.116,0,0,0-1.644.671,3.1,3.1,0,0,0-.723,1.86h4.477a2.853,2.853,0,0,0-.547-1.879,1.924,1.924,0,0,0-1.563-.652Z" fill="#111"/>
    <path d="M385.054,173.782v-5.539a2.236,2.236,0,0,0-.477-1.562,1.94,1.94,0,0,0-1.492-.516,2.461,2.461,0,0,0-1.969.727,3.664,3.664,0,0,0-.625,2.4v4.492h-1.3V165.22h1.055l.211,1.172h.062a2.652,2.652,0,0,1,1.117-.981,3.639,3.639,0,0,1,1.6-.347,3.256,3.256,0,0,1,2.328.746,3.173,3.173,0,0,1,.781,2.386v5.586Z" fill="#111"/>
    <path d="M392.436,173.939a3.654,3.654,0,0,1-2.879-1.145,4.715,4.715,0,0,1-1.019-3.238,4.854,4.854,0,0,1,1.035-3.32,3.722,3.722,0,0,1,2.949-1.172,5.9,5.9,0,0,1,1.235.132,4.071,4.071,0,0,1,.968.313l-.4,1.1a6.15,6.15,0,0,0-.938-.286,4.2,4.2,0,0,0-.9-.113q-2.609,0-2.609,3.328a3.966,3.966,0,0,0,.636,2.422,2.217,2.217,0,0,0,1.887.844,5.78,5.78,0,0,0,2.2-.461v1.148a4.676,4.676,0,0,1-2.165.448Z" fill="#111"/>
    <path d="M400.249,173.939a3.928,3.928,0,0,1-3-1.157,4.472,4.472,0,0,1-1.1-3.211,4.97,4.97,0,0,1,1.02-3.289,3.386,3.386,0,0,1,2.738-1.218,3.228,3.228,0,0,1,2.547,1.058,4.056,4.056,0,0,1,.937,2.793v.821h-5.9a3.4,3.4,0,0,0,.762,2.289,2.637,2.637,0,0,0,2.035.781,6.9,6.9,0,0,0,2.734-.578v1.156a6.82,6.82,0,0,1-1.3.426,7.277,7.277,0,0,1-1.473.129Zm-.352-7.789a2.116,2.116,0,0,0-1.644.671,3.1,3.1,0,0,0-.723,1.86h4.477a2.853,2.853,0,0,0-.547-1.879,1.926,1.926,0,0,0-1.56-.652Z" fill="#111"/>
    <path d="M63.366,170.882a2.8,2.8,0,0,1-1.094,2.352,4.74,4.74,0,0,1-2.968.843,7.452,7.452,0,0,1-3.125-.523v-1.281a8.129,8.129,0,0,0,1.531.468,8,8,0,0,0,1.64.172,3.308,3.308,0,0,0,2-.5,1.65,1.65,0,0,0,.672-1.4,1.8,1.8,0,0,0-.238-.973,2.219,2.219,0,0,0-.8-.7,11.028,11.028,0,0,0-1.7-.726,5.429,5.429,0,0,1-2.277-1.352,2.979,2.979,0,0,1-.684-2.039,2.539,2.539,0,0,1,.992-2.1,4.126,4.126,0,0,1,2.625-.781,7.735,7.735,0,0,1,3.133.625l-.414,1.156a7.1,7.1,0,0,0-2.75-.593,2.668,2.668,0,0,0-1.649.453,1.492,1.492,0,0,0-.593,1.258,1.944,1.944,0,0,0,.218.972,2.058,2.058,0,0,0,.739.7,9.229,9.229,0,0,0,1.59.7,6.261,6.261,0,0,1,2.472,1.375,2.706,2.706,0,0,1,.68,1.894Z" fill="#111"/>
    <path d="M71.366,173.921v-5.539a2.232,2.232,0,0,0-.477-1.563A1.944,1.944,0,0,0,69.4,166.3a2.447,2.447,0,0,0-1.972.734,3.718,3.718,0,0,0-.621,2.406v4.477h-1.3V161.765h1.3v3.679a8.088,8.088,0,0,1-.063,1.1h.078a2.654,2.654,0,0,1,1.09-.973,3.545,3.545,0,0,1,1.613-.355,3.306,3.306,0,0,1,2.356.746,3.143,3.143,0,0,1,.785,2.371v5.586Z" fill="#111"/>
    <path d="M75.218,163.038a.862.862,0,0,1,.218-.652.809.809,0,0,1,1.086,0,.839.839,0,0,1,.227.648.858.858,0,0,1-.227.653.757.757,0,0,1-.539.214.749.749,0,0,1-.547-.214A.881.881,0,0,1,75.218,163.038Zm1.406,10.883h-1.3v-8.562h1.3Z" fill="#111"/>
    <path d="M85.233,173.921v-5.539a2.238,2.238,0,0,0-.476-1.563,1.947,1.947,0,0,0-1.493-.515,2.462,2.462,0,0,0-1.968.726,3.67,3.67,0,0,0-.625,2.4v4.492h-1.3V165.36h1.055l.21,1.171H80.7a2.643,2.643,0,0,1,1.117-.98,3.64,3.64,0,0,1,1.6-.348,3.256,3.256,0,0,1,2.328.746,3.181,3.181,0,0,1,.781,2.387v5.586Z" fill="#111"/>
    <path d="M87.835,165.359h1.39l1.875,4.882a18.544,18.544,0,0,1,.766,2.414h.063c.067-.265.21-.719.425-1.363s.923-2.621,2.121-5.933h1.391l-3.68,9.75a4.85,4.85,0,0,1-1.277,2.05,2.716,2.716,0,0,1-1.793.606,5.2,5.2,0,0,1-1.172-.133v-1.039a4.559,4.559,0,0,0,.961.094,1.981,1.981,0,0,0,1.906-1.5l.477-1.219Z" fill="#111"/>
    <path d="M104.835,174.077a3.657,3.657,0,0,1-2.879-1.144,4.707,4.707,0,0,1-1.02-3.239,4.848,4.848,0,0,1,1.036-3.32,3.722,3.722,0,0,1,2.949-1.172,5.814,5.814,0,0,1,1.234.133,4.02,4.02,0,0,1,.969.313l-.4,1.1a6.135,6.135,0,0,0-.937-.285,4.2,4.2,0,0,0-.9-.113q-2.609,0-2.609,3.328a3.96,3.96,0,0,0,.637,2.422,2.219,2.219,0,0,0,1.887.843,5.773,5.773,0,0,0,2.195-.46v1.148a4.678,4.678,0,0,1-2.162.446Z" fill="#111"/>
    <path d="M116.421,169.632a4.728,4.728,0,0,1-1.055,3.27,3.719,3.719,0,0,1-2.914,1.175,3.854,3.854,0,0,1-2.039-.539,3.553,3.553,0,0,1-1.375-1.547,5.387,5.387,0,0,1-.484-2.359,4.72,4.72,0,0,1,1.046-3.262,3.708,3.708,0,0,1,2.907-1.168,3.621,3.621,0,0,1,2.855,1.2,4.7,4.7,0,0,1,1.059,3.23Zm-6.524,0a4.057,4.057,0,0,0,.657,2.5,2.6,2.6,0,0,0,3.672.19l.007-.006c.065-.059.126-.12.184-.184a4.038,4.038,0,0,0,.66-2.5,3.977,3.977,0,0,0-.66-2.48,2.32,2.32,0,0,0-1.949-.848,2.28,2.28,0,0,0-1.922.836,4.015,4.015,0,0,0-.646,2.492Z" fill="#111"/>
    <path d="M118.585,163.038a.857.857,0,0,1,.219-.652.81.81,0,0,1,1.085,0,.839.839,0,0,1,.227.648.858.858,0,0,1-.227.653.757.757,0,0,1-.539.214.745.745,0,0,1-.546-.214A.877.877,0,0,1,118.585,163.038Zm1.406,10.883h-1.3v-8.562h1.3Z" fill="#111"/>
    <path d="M128.6,173.921v-5.539a2.238,2.238,0,0,0-.476-1.563,1.943,1.943,0,0,0-1.492-.515,2.463,2.463,0,0,0-1.969.726,3.67,3.67,0,0,0-.625,2.4v4.492h-1.3V165.36H123.8l.211,1.171h.062a2.643,2.643,0,0,1,1.117-.98,3.64,3.64,0,0,1,1.6-.348,3.256,3.256,0,0,1,2.328.746,3.176,3.176,0,0,1,.781,2.387v5.586Z" fill="#111"/>
    <path d="M448.845,256.2a1.016,1.016,0,0,1-.8-1.638l5.735-7.407-5.743-7.62a1.015,1.015,0,0,1,1.622-1.222h0l6.21,8.24a1.016,1.016,0,0,1-.008,1.232l-6.21,8.02A1.015,1.015,0,0,1,448.845,256.2Z" fill="#111" fill-rule="evenodd" opacity="0.25" style="isolation: isolate"/>
    <path d="M209.345,256.2a1.016,1.016,0,0,1-.8-1.638l5.735-7.407-5.743-7.62a1.015,1.015,0,0,1,1.622-1.222l6.21,8.24a1.016,1.016,0,0,1-.008,1.232l-6.21,8.02A1.015,1.015,0,0,1,209.345,256.2Z" fill="#111" fill-rule="evenodd" opacity="0.25" style="isolation: isolate"/>
  </g>
  <path d="M332,15.635a41.28,41.28,0,1,0,29.189,12.09A41.28,41.28,0,0,0,332,15.635Zm18.466,64.29A29.52,29.52,0,0,1,304.927,45.15a1.964,1.964,0,0,1,3.6,1.571h0a25.589,25.589,0,0,0,39.48,30.15,1.961,1.961,0,0,1,2.6,2.938h0c-.046.04-.094.079-.144.12Z" fill="#231f20"/>
</svg>
