<svg width="36" height="36" fill="none" xmlns="http://www.w3.org/2000/svg"><path stroke="#fff" stroke-width="1.038" d="M.519.519h34.962v34.962H.519z"/><path d="M17.851 24.714h1.82l-5.864-14.438h-1.962L6.001 24.714h1.74l1.597-4.024h6.916l1.597 4.024zm-5.076-12.7h.061l2.851 7.24H9.904l2.871-7.24zm17.332 9.707h-1.578c-.424 1.234-1.254 1.901-2.629 1.901-1.941 0-3.175-1.294-3.255-3.64h7.522v-.667c0-2.609-1.355-5.015-4.368-5.015-2.71 0-4.793 2.063-4.793 5.38 0 3.275 2.023 5.277 4.894 5.277 1.982 0 3.741-1.072 4.207-3.236zm-4.308-6.066c1.82 0 2.69 1.355 2.73 3.114h-5.824c.283-2.083 1.497-3.114 3.094-3.114z" fill="#fff"/></svg>