<svg xmlns="http://www.w3.org/2000/svg" viewBox="0 0 285.795 30.581"><path d="M141.894.045a14.122 14.122 0 00-13.918 14.318 13.924 13.924 0 1027.837 0 14.532 14.532 0 00-4.077-10.125 13.723 13.723 0 00-9.842-4.193zm6.226 22.3a9.733 9.733 0 01-12.263.147 10.422 10.422 0 01-3.089-12.209.666.666 0 01.533-.4.655.655 0 01.606.272.7.7 0 01.074.677 9.034 9.034 0 002.679 10.583 8.437 8.437 0 0010.63-.126.649.649 0 01.665-.123.677.677 0 01.423.542.69.69 0 01-.259.641z" fill="#ccc"/><g opacity=".195"><path data-name="+" d="M46.553 19.936v-3.29h-3.228a1.274 1.274 0 01-1.251-1.3 1.289 1.289 0 011.251-1.3h3.228v-3.29a1.309 1.309 0 011.3-1.349 1.323 1.323 0 011.3 1.349v3.29h3.229a1.288 1.288 0 011.25 1.3 1.273 1.273 0 01-1.25 1.3h-3.237v3.29a1.323 1.323 0 01-1.3 1.349 1.309 1.309 0 01-1.292-1.349z"/><path data-name="=" d="M107.552 14.158a1.264 1.264 0 010-2.527h8.363a1.264 1.264 0 010 2.527zm0 5.641a1.246 1.246 0 01-1.232-1.263 1.261 1.261 0 011.232-1.264h8.363a1.261 1.261 0 011.233 1.264 1.246 1.246 0 01-1.233 1.263z"/><path d="M87.707 12.5c0 .014 0 .028-.006.042a1.641 1.641 0 01-.008.242c-.009.061-.028.117-.042.176a11.95 11.95 0 01-4.537 7.885A11.546 11.546 0 0166.729 18.5a12 12 0 01-2.241-5.534 1.651 1.651 0 01-.064-.512v-.032h0a1.631 1.631 0 01.628-1.225 1.579 1.579 0 012.242.32 1.65 1.65 0 01.321.914h.008a8.734 8.734 0 001.646 4.112A8.4 8.4 0 0081.2 18.25a8.7 8.7 0 003.3-5.761h.011a1.426 1.426 0 01.006-.16 1.6 1.6 0 013.183.171z" fill="#231f20" stroke="#fff" stroke-width="1.109"/><ellipse cx="15.123" cy="14.439" rx="14.151" ry="14.439"/><ellipse data-name="Oval-5" cx="15.123" cy="14.439" rx="11.222" ry="11.45" fill="none" stroke="#fff" stroke-width=".629"/></g></svg>