<svg xmlns="http://www.w3.org/2000/svg" viewBox="0 0 487 573"><defs><filter id="a" x="-13" y="-32.1" width="128" height="180.4"><feComposite result="shadowBlurOuter1" operator="out" in="shadowBlurOuter1" in2="SourceAlpha"/></filter></defs><g data-name="Layer 2"><g data-name="Layer 1"><rect x=".5" y=".5" width="486" height="572" rx="4" ry="4" fill="#fff" stroke="#e6e6e6"/><path d="M48.727 524.623h5.129v.93h-1.11a4.558 4.558 0 01-4.927 4.156h-.022a5.238 5.238 0 01-5.374-5.1v-.378a5.308 5.308 0 015.139-5.472h.231a4.191 4.191 0 014.335 2.939h-1.05a3.268 3.268 0 00-3.285-2.009 4.331 4.331 0 00-4.325 4.339v.2a4.287 4.287 0 004.02 4.54c.14.009.28.01.42 0a3.485 3.485 0 003.748-3.2v-.022h-2.94zm6.195 1.545a3.5 3.5 0 113.521 3.479H58.4a3.389 3.389 0 01-3.48-3.3c0-.057 0-.118.002-.179zm6.015 0a2.521 2.521 0 10-2.535 2.579 2.491 2.491 0 002.536-2.445 1.996 1.996 0 00-.001-.134zm7.663 3.314h-.975v-10.5h.975v5.266a2.781 2.781 0 012.58-1.56 3.48 3.48 0 010 6.959 2.806 2.806 0 01-2.58-1.559zm5.04-3.314a2.521 2.521 0 10-2.5 2.579 2.486 2.486 0 002.5-2.466v-.113zm9.271-3.33v6.644h-.975v-1.394a2.809 2.809 0 01-2.58 1.559 3.48 3.48 0 010-6.959 2.784 2.784 0 012.58 1.56v-1.41zm-.975 3.33a2.521 2.521 0 10-2.535 2.579 2.491 2.491 0 002.536-2.445 1.996 1.996 0 00-.001-.134zm8.355-.9a1.863 1.863 0 00-1.993-1.723c-.041 0-.082.007-.122.013a2.606 2.606 0 00.045 5.189 1.9 1.9 0 002.1-1.545h.979a2.849 2.849 0 01-3.135 2.445 3.491 3.491 0 010-6.974 2.784 2.784 0 013.086 2.445c.006.051.011.1.014.155zm5.055.9l3.285 3.314h-1.276l-3.12-3.1v3.1h-.974v-10.5h.974v6.976l3.12-3.12h1.276z" fill="#222"/><g data-name="arrow right black"><path data-name="arrow open" fill="none" stroke="#222" stroke-linecap="round" stroke-linejoin="round" stroke-width="2" d="M32.589 518.091l-6.196 6.753 6.196 7.002"/></g><g data-name="elements button primary arrow"><path d="M343.5 501h95a23.5 23.5 0 0123.5 23.5 23.5 23.5 0 01-23.5 23.5h-95a23.5 23.5 0 01-23.5-23.5 23.5 23.5 0 0123.5-23.5z" fill="#222"/><path d="M377.56 525.722a2.729 2.729 0 01.706 1.963 3.063 3.063 0 01-1.012 2.431 4.083 4.083 0 01-2.779.884h-4.2v-11.9h3.978a4.342 4.342 0 012.806.825 2.758 2.758 0 011.019 2.269 2.494 2.494 0 01-2.261 2.686 2.7 2.7 0 011.743.842zm-5.33-4.9v3.264h1.938a2.167 2.167 0 001.436-.434 1.662 1.662 0 00.064-2.35l-.055-.055a2.2 2.2 0 00-1.445-.425zm3.587 7.99a1.755 1.755 0 00.494-1.326 1.565 1.565 0 00-.511-1.215 1.91 1.91 0 00-1.343-.468h-2.227v3.485h2.21a1.9 1.9 0 001.377-.481zm5.032 1.593a3.178 3.178 0 01-.8-2.346v-4.981h1.851v4.522a2.541 2.541 0 00.374 1.513 1.435 1.435 0 001.242.51 1.766 1.766 0 001.461-.569 2.329 2.329 0 00.459-1.5v-4.471h1.853V531h-1.853v-1.1a2.577 2.577 0 01-2.448 1.309 2.894 2.894 0 01-2.139-.804zm16.065-7.327v7.956a3.751 3.751 0 01-1.037 2.822 3.828 3.828 0 01-2.687.918 4.1 4.1 0 01-2.719-.816 2.7 2.7 0 01-.884-2.057h1.87a1.47 1.47 0 00.45 1.011 1.887 1.887 0 001.249.332 1.781 1.781 0 001.395-.569 2.612 2.612 0 00.51-1.777v-1a2.444 2.444 0 01-1.02.977 3.294 3.294 0 01-1.53.332 2.66 2.66 0 01-2.168-.909 3.613 3.613 0 01-.756-2.389v-4.828h1.852v4.437a2.548 2.548 0 00.392 1.513 1.52 1.52 0 001.325.544 1.647 1.647 0 001.42-.663 2.87 2.87 0 00.485-1.734v-4.1z" fill="#fff"/><g data-name="arrow long white" fill="none" stroke="#fff" stroke-linecap="round" stroke-width="2"><path data-name="arrow open-2" stroke-linejoin="round" d="M428.288 517.828l6.196 6.752-6.196 7.002"/><path d="M415 524.705h18"/></g></g><g data-name="forms validation tick"><circle cx="448.68" cy="315.68" r="13.133" fill="#c1ffbf"/><path d="M442.469 316.246l5.148 5.6c.191-.239 8.641-10.088 8.641-10.088" fill="none" stroke="#fff" stroke-linecap="round" stroke-linejoin="round" stroke-width="2.15"/></g><g data-name="forms dropdown focus-closed"><path d="M29 293.5a3.5 3.5 0 00-3.5 3.5v37a3.5 3.5 0 003.5 3.5h392a3.5 3.5 0 003.5-3.5v-37a3.5 3.5 0 00-3.5-3.5z" fill="#fff" stroke="#222"/><path d="M38.233 310.815h-3.008v-.992h7.138v.992h-3.041v10.212h-1.089zm5.68-.992h1.04v5.65a2.8 2.8 0 012.69-1.7 2.6 2.6 0 012.128.881 3.3 3.3 0 01.625 2.208v4.162h-1.042v-3.854c0-1.393-.591-2.465-2.064-2.465a2.452 2.452 0 00-2.347 2.553c0 .046.006.091.01.136v3.633h-1.04zm9.441 7.891a2.378 2.378 0 002.165 2.572 2.34 2.34 0 00.335 0 2.021 2.021 0 002.08-1.3h1.056a3.009 3.009 0 01-3.136 2.209 3.719 3.719 0 01-.049-7.427 3.181 3.181 0 013.279 3.081v.088a4.949 4.949 0 01-.048.769zm.015-.817h4.69a2.215 2.215 0 00-2.125-2.3h-.163a2.253 2.253 0 00-2.4 2.1c0 .069-.006.138 0 .207zm18.754 2.242v-9.316h1.1v11.2h-1.216l-5.635-9.315v9.315h-1.088v-11.2H66.5zm4.206-1.425a2.378 2.378 0 002.167 2.572 2.468 2.468 0 00.333 0 2.019 2.019 0 002.08-1.3h1.057a3.01 3.01 0 01-3.137 2.209 3.719 3.719 0 01-.049-7.427 3.182 3.182 0 013.28 3.082v.087a4.949 4.949 0 01-.048.769zm.016-.817h4.689a2.215 2.215 0 00-2.125-2.3h-.163a2.252 2.252 0 00-2.4 2.1c0 .069-.006.137 0 .206zm11.505 4.13a7.908 7.908 0 01-1.2.1c-.928 0-2.161-.191-2.161-2.465v-3.825h-1.424v-.9h1.424v-2.625h1.057v2.625H87.6v.9h-2.054v3.617c0 1.521.56 1.713 1.312 1.713a6.476 6.476 0 00.993-.08zm1.487-11.204h1.04v5.65a2.8 2.8 0 012.689-1.7 2.6 2.6 0 012.129.881 3.3 3.3 0 01.624 2.208v4.162h-1.041v-3.854c0-1.393-.591-2.465-2.064-2.465a2.452 2.452 0 00-2.347 2.553c0 .045.006.091.01.136v3.633h-1.04zm9.439 7.891a2.378 2.378 0 002.167 2.572 2.468 2.468 0 00.333 0 2.02 2.02 0 002.081-1.3h1.057a3.01 3.01 0 01-3.138 2.209 3.719 3.719 0 01-.047-7.427 3.184 3.184 0 013.28 3.083v.086a4.949 4.949 0 01-.048.769zm.016-.817h4.69a2.215 2.215 0 00-2.125-2.3h-.164a2.252 2.252 0 00-2.4 2.1c0 .069-.006.137 0 .206zm12.082-1.984a2.018 2.018 0 00-.672-.1c-1.728 0-2.529 1.41-2.529 3.058v3.153h-1.04v-7.09h1.04v1.666a2.663 2.663 0 012.529-1.761 1.694 1.694 0 01.672.111zm1.406-5.09h1.04v11.2h-1.04zm10.52 4.114v7.09h-1.04v-1.488A3 3 0 01119 321.2a3.714 3.714 0 010-7.427 2.972 2.972 0 012.754 1.665v-1.5zm-1.04 3.553a2.69 2.69 0 10-2.7 2.753 2.656 2.656 0 002.7-2.612v-.141zm3.688-3.553h1.04v1.536a2.8 2.8 0 012.69-1.7 2.6 2.6 0 012.129.881 3.307 3.307 0 01.624 2.208v4.162h-1.041v-3.854c0-1.393-.592-2.465-2.065-2.465a2.452 2.452 0 00-2.347 2.553c0 .045.006.091.01.136v3.633h-1.04zm14.771 5.602a3 3 0 01-2.754 1.664 3.714 3.714 0 010-7.427 2.972 2.972 0 012.754 1.665v-5.618h1.04v11.2h-1.04zm0-2.049a2.69 2.69 0 10-2.7 2.753 2.656 2.656 0 002.7-2.612 1.657 1.657 0 000-.141zm8.766 1.633c0 1.36-1.088 2.08-2.736 2.08-1.6 0-2.962-.8-2.962-2.577h1.025c0 1.265.865 1.713 1.985 1.713 1.057 0 1.7-.416 1.7-1.2 0-.929-.976-1.04-2.337-1.425-1.168-.288-2.144-.592-2.144-1.921 0-1.313 1.12-2.017 2.625-2.017a2.447 2.447 0 012.721 2.136c.008.072.014.145.016.217h-1.028c0-.976-.657-1.5-1.729-1.5-.929 0-1.585.432-1.585 1.185 0 .847.784.975 2.145 1.343 1.169.284 2.304.573 2.304 1.966z" fill="#222" data-name="-label-"/><g data-name="arrow down black"><path data-name="arrow open-3" fill="none" stroke="#222" stroke-linecap="round" stroke-linejoin="round" stroke-width="1.44" d="M413.432 314.037l-4.862 4.461-5.042-4.461"/></g></g><path d="M35.268 281.114a4.578 4.578 0 01-4.539 3.1 5.114 5.114 0 01-.182-10.226c2.773 0 4.329 1.541 4.721 3.516h-1a3.455 3.455 0 00-3.614-2.646 4.033 4.033 0 00-4.08 3.985v.244a4.079 4.079 0 003.891 4.259c.122.006.245.006.368 0a3.575 3.575 0 003.375-2.228zm1.185-.214a3.264 3.264 0 113.278 3.25H39.7a3.165 3.165 0 01-3.249-3.079q-.001-.085.002-.171zm5.616 0a2.354 2.354 0 10-2.367 2.409 2.325 2.325 0 002.368-2.281 1.821 1.821 0 00-.001-.128zm8.191-3.1v6.2h-.911v-1.345a2.457 2.457 0 01-2.353 1.5 2.3 2.3 0 01-1.863-.784 2.9 2.9 0 01-.547-1.933V277.8h.925v3.376c0 1.218.5 2.157 1.793 2.157a2.146 2.146 0 002.053-2.235c0-.039 0-.079-.008-.118v-3.18zm2.32 0h.911v1.345a2.447 2.447 0 012.353-1.486 2.276 2.276 0 011.863.771 2.9 2.9 0 01.546 1.933V284h-.91v-3.376c0-1.219-.519-2.157-1.807-2.157a2.146 2.146 0 00-2.053 2.235c0 .039 0 .079.008.118V284h-.911zm11.174 6.2a6.831 6.831 0 01-1.05.084c-.812 0-1.891-.168-1.891-2.157v-3.348h-1.247v-.779h1.247v-2.3h.924v2.3h1.793v.784h-1.793v3.166c0 1.33.491 1.5 1.149 1.5a5.729 5.729 0 00.868-.069zm5.013-5.351a1.755 1.755 0 00-.589-.084c-1.513 0-2.213 1.233-2.213 2.675V284h-.91v-6.2h.91v1.456a2.331 2.331 0 012.213-1.54 1.48 1.48 0 01.589.1zm1.118 6.261h.924c.07 1.345.686 2.046 1.975 2.046 1.261 0 1.975-.56 1.975-2.227v-2.074a2.418 2.418 0 01-2.325 1.5 2.28 2.28 0 01-1.906-.757 2.923 2.923 0 01-.528-2.031V277.8h.925v3.3c0 1.344.406 2.227 1.807 2.227a2.134 2.134 0 002.04-2.226c0-.042 0-.085-.009-.127V277.8h.91v6.934c0 2.128-.994 3.011-2.9 3.011a2.565 2.565 0 01-2.884-2.835z" fill="#222"/><g data-name="forms validation tick-2"><circle cx="448.68" cy="233.68" r="13.133" fill="#c1ffbf"/><path d="M442.469 234.246l5.148 5.6c.191-.239 8.641-10.088 8.641-10.088" fill="none" stroke="#fff" stroke-linecap="round" stroke-linejoin="round" stroke-width="2.15"/></g><g data-name="forms input active-password"><path d="M29 211.5a3.5 3.5 0 00-3.5 3.5v37a3.5 3.5 0 003.5 3.5h392a3.5 3.5 0 003.5-3.5v-37a3.5 3.5 0 00-3.5-3.5z" fill="#fff" stroke="#ccc"/><g fill="#e6e6e6" data-name="icon eye open filled-v-dim"><path d="M401.8 231.388a2.768 2.768 0 102.767 2.769 2.767 2.767 0 00-2.766-2.768z"/><path d="M413.367 233.7c-.161-.282-4.008-6.9-11.175-6.9h-.24c-7.166 0-11.014 6.622-11.175 6.9l-.1.167v.418l.1.167c.161.282 4.007 6.9 11.175 6.9h.24c7.165 0 11.014-6.621 11.175-6.9l.1-.2v-.387zm-11.567 4.677a4.221 4.221 0 114.219-4.223 4.223 4.223 0 01-4.219 4.223z"/></g><path d="M38.381 233.418a2.331 2.331 0 11-2.32 2.342 2.331 2.331 0 012.32-2.342zm11.9 0a2.331 2.331 0 11-2.321 2.341 2.332 2.332 0 012.321-2.341zm11.9 0a2.331 2.331 0 11-2.322 2.341 2.331 2.331 0 012.322-2.341zm11.899 0a2.331 2.331 0 11-2.32 2.342 2.331 2.331 0 012.32-2.342zm11.899 0a2.331 2.331 0 11-2.32 2.342 2.331 2.331 0 012.32-2.342zm11.901 0a2.331 2.331 0 11-2.321 2.341 2.332 2.332 0 012.321-2.341zm11.899 0a2.331 2.331 0 11-2.32 2.342 2.331 2.331 0 012.32-2.342zm11.9 0a2.331 2.331 0 11-2.321 2.341 2.332 2.332 0 012.321-2.341z" fill="#222" data-name="-label- 2"/></g><path d="M26.611 198.96a2.306 2.306 0 002.216 2.391 2.235 2.235 0 00.306-.009c1.358 0 2.268-.715 2.268-1.863 0-1.374-1.148-1.723-2.171-1.99-1.722-.49-3.208-.924-3.208-2.955 0-1.471 1.206-2.55 3.069-2.55a2.848 2.848 0 013.048 2.633 2.656 2.656 0 01.006.309h-.954a1.94 1.94 0 00-2.073-2.072c-1.345 0-2.129.685-2.129 1.68 0 1.317 1.051 1.667 2.186 1.961 1.513.42 3.179.952 3.179 2.886 0 1.82-1.373 2.829-3.291 2.829a3.167 3.167 0 01-3.4-2.919 3.042 3.042 0 01-.008-.331zm7.952.14a2.079 2.079 0 001.895 2.249 2.006 2.006 0 00.29.005 1.768 1.768 0 001.821-1.134h.924a2.636 2.636 0 01-2.745 1.933 3.255 3.255 0 01-.042-6.5 2.785 2.785 0 012.87 2.7v.076a4.456 4.456 0 01-.042.673zm.014-.715h4.1a1.938 1.938 0 00-1.856-2.016h-.144a1.97 1.97 0 00-2.1 1.837c0 .06-.006.121 0 .181zM44.645 202a6.854 6.854 0 01-1.051.084c-.813 0-1.891-.168-1.891-2.157v-3.348h-1.247v-.779H41.7v-2.3h.924v2.3h1.8v.784h-1.797v3.166c0 1.33.49 1.5 1.149 1.5a5.752 5.752 0 00.869-.069zm4.87-9.806h3.376a3.25 3.25 0 010 6.5h-2.424V202h-.952zm5.686 3.25a2.277 2.277 0 00-2.17-2.379h-2.564v4.763h2.424a2.277 2.277 0 002.311-2.242v-.14zm8.107.356v6.2H62.4v-1.3a2.625 2.625 0 01-2.409 1.457 3.25 3.25 0 010-6.5 2.6 2.6 0 012.409 1.457V195.8zm-.908 3.1a2.354 2.354 0 10-2.367 2.409 2.325 2.325 0 002.368-2.281l-.001-.128zm7.669 1.433c0 1.19-.953 1.821-2.395 1.821-1.4 0-2.592-.7-2.592-2.256h.9c0 1.108.756 1.5 1.737 1.5.925 0 1.484-.364 1.484-1.05 0-.812-.854-.91-2.045-1.246-1.022-.252-1.877-.519-1.877-1.681s.981-1.766 2.3-1.766a2.14 2.14 0 012.385 1.863c.008.065.013.131.015.2h-.9c0-.855-.574-1.318-1.512-1.318-.813 0-1.387.379-1.387 1.038 0 .742.686.854 1.877 1.176 1.015.248 2.01.5 2.01 1.719zm6.3 0c0 1.19-.953 1.821-2.395 1.821-1.4 0-2.592-.7-2.592-2.256h.9c0 1.108.757 1.5 1.738 1.5.924 0 1.484-.364 1.484-1.05 0-.812-.854-.91-2.045-1.246-1.022-.252-1.877-.519-1.877-1.681s.981-1.766 2.3-1.766a2.141 2.141 0 012.381 1.871c.007.063.012.126.014.189h-.9c0-.855-.574-1.318-1.513-1.318-.812 0-1.386.379-1.386 1.038 0 .742.686.854 1.877 1.176 1.019.251 2.014.503 2.014 1.722zm5.697-3.516L80.231 202h-.658l-2.395-6.2h.981l1.737 4.818 1.722-4.818h.911l1.709 4.818 1.751-4.818h.981l-2.4 6.2h-.658zm5.304 2.083a3.264 3.264 0 113.278 3.25h-.028a3.166 3.166 0 01-3.25-3.08 2.409 2.409 0 010-.17zm5.617 0a2.354 2.354 0 10-2.367 2.409 2.325 2.325 0 002.368-2.281 1.821 1.821 0 00-.001-.128zm6.383-2.251a1.752 1.752 0 00-.588-.084c-1.512 0-2.213 1.233-2.213 2.675V202h-.911v-6.2h.911v1.456a2.332 2.332 0 012.213-1.54 1.441 1.441 0 01.588.1zm6.077 4.051a2.625 2.625 0 01-2.409 1.457 3.25 3.25 0 110-6.5 2.6 2.6 0 012.409 1.457V192.2h.91v9.8h-.91zm0-1.793a2.354 2.354 0 10-2.367 2.409 2.325 2.325 0 002.368-2.283v-.133z" fill="#222"/><path d="M447.27 151.676c-2.5 2.5-3.895 3.887-3.989 3.988a1.076 1.076 0 001.531 1.513l.044-.048c.063-.069 1.6-1.606 3.936-3.935 2.334 2.329 3.873 3.866 3.936 3.935a1.076 1.076 0 001.575-1.465c-.094-.1-1.485-1.492-3.988-3.988l1.8-1.8 1.785-1.782.372-.37a1.075 1.075 0 10-1.518-1.523l-.372.37-1.785 1.782-1.808 1.8-1.808-1.8-1.785-1.782-.371-.37a1.076 1.076 0 00-1.519 1.523l.372.37c.405.4 1.211 1.21 1.785 1.782zm1.41 13.137a13.133 13.133 0 1113.133-13.133 13.133 13.133 0 01-13.133 13.133z" fill="#ffa6a6" data-name="forms validation cross"/><g data-name="forms input error"><path d="M29 129.5a3.5 3.5 0 00-3.5 3.5v37a3.5 3.5 0 003.5 3.5h392a3.5 3.5 0 003.5-3.5v-37a3.5 3.5 0 00-3.5-3.5z" fill="#fff" stroke="#ffa6a6"/><path d="M42.87 153.577a3.624 3.624 0 01-3.306 3.916 3.559 3.559 0 01-.45.01 3.73 3.73 0 01-3.846-3.612v-.331h1.156a2.656 2.656 0 002.411 2.88c.092.008.183.011.275.01a2.559 2.559 0 002.583-2.873v-8.227h1.177zm1.973-.085a3.961 3.961 0 113.979 3.943h-.036a3.841 3.841 0 01-3.943-3.736q-.003-.099 0-.207zm6.816 0a2.856 2.856 0 10-2.873 2.924 2.822 2.822 0 002.874-2.769 2.698 2.698 0 00-.001-.155zm3.247-8.142h1.106v6a2.971 2.971 0 012.855-1.8 2.759 2.759 0 012.261.935 3.514 3.514 0 01.663 2.346v4.42h-1.1v-4.1c0-1.479-.629-2.617-2.194-2.617a2.6 2.6 0 00-2.492 2.7c0 .051.006.1.011.151v3.859h-1.11zm9.555 4.368h1.1v1.632a2.974 2.974 0 012.857-1.8 2.759 2.759 0 012.261.935 3.508 3.508 0 01.662 2.346v4.42h-1.1v-4.1c0-1.479-.629-2.617-2.192-2.617a2.6 2.6 0 00-2.494 2.7c0 .051.006.1.011.153v3.859h-1.1zm15.282 7.514a3.493 3.493 0 010-6.986 2.857 2.857 0 012.635 1.6V150.4h.935v5.15c0 1.106.493 1.65 1.172 1.65.969 0 1.547-1.072 1.547-4.267 0-3.348-2.192-5.235-5.864-5.235a5.888 5.888 0 00-6.068 5.7v.35c0 3.043 2.159 5.983 6.442 5.983a8.236 8.236 0 003.978-.951l.374.764a8.94 8.94 0 01-4.352 1.071c-4.93 0-7.395-3.382-7.395-6.867a6.781 6.781 0 016.621-6.937h.4c4.267 0 6.816 2.227 6.816 6.119 0 3.638-.833 5.151-2.651 5.151a1.947 1.947 0 01-1.955-1.871v-.578a2.857 2.857 0 01-2.635 1.6zm2.635-3.485a2.554 2.554 0 100 .128 2.731 2.731 0 000-.128zm10.03-8.397a5.953 5.953 0 01.378 11.9q-.189.006-.378 0h-3.484v-11.9zm-2.328 1.05v9.8h2.328a4.9 4.9 0 00.42-9.791q-.21-.009-.42 0zm9.962 7.092a3.961 3.961 0 113.979 3.943h-.036a3.841 3.841 0 01-3.943-3.736q-.003-.099 0-.207zm6.816 0a2.857 2.857 0 10-2.873 2.924 2.822 2.822 0 002.874-2.769 2.698 2.698 0 00-.001-.155zm3.723.238a2.524 2.524 0 002.3 2.73 2.556 2.556 0 00.35.006 2.144 2.144 0 002.21-1.377h1.122a3.2 3.2 0 01-3.332 2.346c-2.532 0-3.756-1.818-3.756-3.96a3.59 3.59 0 013.706-3.927 3.379 3.379 0 013.482 3.272v.094a5.3 5.3 0 01-.051.816zm.017-.867h4.98a2.35 2.35 0 00-2.252-2.446h-.179a2.391 2.391 0 00-2.543 2.229c0 .073-.006.145 0 .218zm8.823 2.43a1.02 1.02 0 11-1 1.04v-.019a1 1 0 01.979-1.021zm7.679-1.682h-2.549l-.51 3.638h-.935l.51-3.638h-1.733v-.884h1.852l.391-2.855H122.4v-.884h1.87l.493-3.638h.935l-.493 3.638h2.55l.492-3.638h.936l-.493 3.638h1.563v.884h-1.7l-.392 2.855h1.581v.884h-1.7l-.511 3.638h-.931zm-2.43-.884h2.55l.39-2.855h-2.55zm13.03-.255a2.11 2.11 0 00-2.257-1.952c-.048 0-.095.008-.143.015a2.953 2.953 0 00.051 5.881 2.157 2.157 0 002.379-1.751h1.1a3.229 3.229 0 01-3.553 2.77 3.957 3.957 0 010-7.9c2.414 0 3.4 1.478 3.519 2.94zm2.6 1.02a3.961 3.961 0 113.979 3.943h-.036a3.841 3.841 0 01-3.943-3.735v-.208zm6.816 0a2.856 2.856 0 10-2.873 2.924 2.821 2.821 0 002.871-2.772v-.152zm13.239 3.757v-4.437c0-1.581-.73-2.277-1.784-2.277-1.326 0-2.091 1.173-2.091 2.889v3.825h-1.122v-4.233c0-1.87-.748-2.481-1.785-2.481-1.308 0-2.107 1.173-2.107 2.889v3.825h-1.106v-7.531h1.106v1.649a2.437 2.437 0 012.362-1.819 2.225 2.225 0 012.448 1.87 2.634 2.634 0 012.533-1.87c1.751 0 2.669 1.054 2.669 2.958v4.743z" fill="#222" data-name="-label- 3"/></g><path d="M27.115 111.063v3.628h4.4v.869h-4.4v3.572h4.4V120h-5.352v-9.806h5.351v.869zM42 120v-3.656c0-1.3-.6-1.877-1.471-1.877-1.092 0-1.722.967-1.722 2.382V120h-.925v-3.488c0-1.54-.616-2.045-1.471-2.045-1.078 0-1.736.967-1.736 2.382V120h-.911v-6.2h.911v1.358a2.007 2.007 0 011.946-1.5 1.836 1.836 0 012.019 1.542 2.17 2.17 0 012.087-1.541c1.443 0 2.2.869 2.2 2.438V120zm9.1-6.2v6.2h-.911v-1.3a2.625 2.625 0 01-2.409 1.457 3.25 3.25 0 010-6.5 2.6 2.6 0 012.409 1.457V113.8zm-.911 3.109a2.354 2.354 0 10-2.367 2.409 2.325 2.325 0 002.368-2.281v-.137zm3.68-6.392a.851.851 0 01.855.845v.009a.835.835 0 01-.843.827h-.012a.819.819 0 01-.827-.811v-.016a.835.835 0 01.816-.854zm-.448 3.278h.91V120h-.91zm3.233-3.601h.911V120h-.911zm12.772 3.606v6.2h-.911v-1.3a2.625 2.625 0 01-2.41 1.457 3.25 3.25 0 010-6.5 2.6 2.6 0 012.41 1.457V113.8zm-.911 3.109a2.354 2.354 0 10-2.368 2.409 2.324 2.324 0 002.369-2.28v-.138zM76.8 118.7a2.625 2.625 0 01-2.409 1.457 3.25 3.25 0 010-6.5 2.6 2.6 0 012.409 1.457V110.2h.911v9.8H76.8zm0-1.793a2.354 2.354 0 10-2.367 2.409 2.325 2.325 0 002.368-2.281v-.135zm8.291 1.793a2.625 2.625 0 01-2.409 1.457 3.25 3.25 0 010-6.5 2.6 2.6 0 012.409 1.457V110.2H86v9.8h-.91zm0-1.793a2.354 2.354 0 10-2.367 2.409 2.325 2.325 0 002.368-2.283v-.133zm6.943-2.258a1.755 1.755 0 00-.589-.084c-1.512 0-2.213 1.233-2.213 2.675V120h-.91v-6.2h.91v1.456a2.332 2.332 0 012.213-1.54 1.446 1.446 0 01.589.1zm1.483 2.451a2.079 2.079 0 001.9 2.249 2.006 2.006 0 00.29 0 1.766 1.766 0 001.82-1.134h.925a2.634 2.634 0 01-2.745 1.933 3.255 3.255 0 01-.043-6.5 2.785 2.785 0 012.871 2.7v.077a4.456 4.456 0 01-.042.673zm.013-.715h4.1a1.938 1.938 0 00-1.856-2.016h-.144a1.971 1.971 0 00-2.1 1.839 1.783 1.783 0 000 .179zm11.3 1.948c0 1.19-.952 1.821-2.4 1.821-1.4 0-2.591-.7-2.591-2.256h.9c0 1.108.756 1.5 1.737 1.5.924 0 1.485-.364 1.485-1.05 0-.812-.855-.91-2.045-1.246-1.022-.252-1.877-.519-1.877-1.681s.981-1.766 2.3-1.766a2.14 2.14 0 012.385 1.865q.012.1.015.2h-.9c0-.855-.574-1.318-1.513-1.318-.812 0-1.386.379-1.386 1.038 0 .742.686.854 1.876 1.176 1.02.246 2.014.498 2.014 1.717zm6.301 0c0 1.19-.953 1.821-2.4 1.821-1.4 0-2.591-.7-2.591-2.256h.9c0 1.108.757 1.5 1.737 1.5.925 0 1.485-.364 1.485-1.05 0-.812-.855-.91-2.045-1.246-1.023-.252-1.877-.519-1.877-1.681s.98-1.766 2.3-1.766a2.14 2.14 0 012.38 1.87c.007.063.012.126.014.19h-.9c0-.855-.574-1.318-1.513-1.318-.812 0-1.387.379-1.387 1.038 0 .742.687.854 1.877 1.176 1.025.251 2.02.503 2.02 1.722z" fill="#222"/><g data-name="forms input active"><path d="M29 47.823a3.5 3.5 0 00-3.5 3.5v37a3.5 3.5 0 003.5 3.5h392a3.5 3.5 0 003.5-3.5v-37a3.5 3.5 0 00-3.5-3.5z" fill="#fff" stroke="#ccc"/><path d="M42.852 72.819a3.625 3.625 0 01-3.306 3.916 4 4 0 01-4.3-3.6v-.331h1.164a2.656 2.656 0 002.411 2.88c.091.008.183.011.275.01a2.559 2.559 0 002.583-2.873v-8.229h1.173zm1.973-.085a3.961 3.961 0 113.975 3.943h-.036a3.841 3.841 0 01-3.943-3.736l.004-.207zm6.816 0a2.856 2.856 0 10-2.873 2.924 2.822 2.822 0 002.874-2.769 2.67 2.67 0 00-.001-.155zm3.247-8.142h1.106v6a2.971 2.971 0 012.855-1.8 2.759 2.759 0 012.261.935 3.514 3.514 0 01.663 2.346v4.42h-1.1v-4.1c0-1.479-.629-2.617-2.194-2.617a2.6 2.6 0 00-2.492 2.7c0 .05.006.1.011.151v3.863h-1.11zm9.555 4.368h1.1v1.632a2.974 2.974 0 012.857-1.8 2.759 2.759 0 012.261.935 3.513 3.513 0 01.662 2.346v4.42h-1.1v-4.1c0-1.479-.629-2.617-2.192-2.617a2.6 2.6 0 00-2.494 2.7c0 .051.006.1.011.153v3.861h-1.1zm17.395-4.368a5.953 5.953 0 01.378 11.9q-.189.006-.378 0h-3.484v-11.9zm-2.328 1.05v9.8h2.328a4.9 4.9 0 10.419-9.791 4.879 4.879 0 00-.419 0zm9.962 7.092a3.961 3.961 0 113.979 3.943h-.036a3.841 3.841 0 01-3.943-3.736q-.003-.103 0-.207zm6.816 0a2.857 2.857 0 10-2.873 2.924 2.822 2.822 0 002.874-2.769 2.67 2.67 0 00-.001-.155zm3.723.238a2.524 2.524 0 002.3 2.73 2.553 2.553 0 00.35.006 2.144 2.144 0 002.21-1.377h1.122a3.2 3.2 0 01-3.332 2.346c-2.532 0-3.756-1.818-3.756-3.96a3.59 3.59 0 013.706-3.927 3.379 3.379 0 013.482 3.272v.094a5.3 5.3 0 01-.051.816zm.017-.867h4.98a2.352 2.352 0 00-2.252-2.447h-.179a2.391 2.391 0 00-2.543 2.229 1.442 1.442 0 000 .218z" fill="#222"/></g><g data-name="forms validation tick-3"><circle cx="448.68" cy="69.68" r="13.133" fill="#c1ffbf"/><path d="M442.469 70.246l5.148 5.6c.191-.239 8.641-10.088 8.641-10.088" fill="none" stroke="#fff" stroke-linecap="round" stroke-linejoin="round" stroke-width="2.15"/></g><path d="M32.145 36.347v-8.153h.965V38h-1.064l-4.931-8.152V38h-.952v-9.806h1.065zM41.4 31.8V38h-.91v-1.3a2.625 2.625 0 01-2.409 1.457 3.25 3.25 0 010-6.5 2.6 2.6 0 012.409 1.457V31.8zm-.91 3.109a2.354 2.354 0 10-2.367 2.409 2.325 2.325 0 002.366-2.284V34.9zM51.955 38v-3.656c0-1.3-.6-1.877-1.471-1.877-1.092 0-1.722.967-1.722 2.382V38h-.925v-3.488c0-1.54-.616-2.045-1.471-2.045-1.079 0-1.737.967-1.737 2.382V38h-.91v-6.2h.91v1.358a2.008 2.008 0 011.947-1.5 1.834 1.834 0 012.017 1.542 2.171 2.171 0 012.088-1.541c1.442 0 2.2.869 2.2 2.438V38zm3.524-2.9a2.082 2.082 0 001.9 2.25 2.113 2.113 0 00.287 0 1.768 1.768 0 001.821-1.134h.924a2.636 2.636 0 01-2.745 1.933 3.255 3.255 0 01-.042-6.5 2.785 2.785 0 012.87 2.7v.076a4.456 4.456 0 01-.042.673zm.014-.715h4.1a1.938 1.938 0 00-1.856-2.016h-.144a1.97 1.97 0 00-2.1 1.837c0 .06-.006.121 0 .181z" fill="#222"/><g data-name="forms validation tick-4"><circle cx="448.173" cy="455.68" r="13.133" fill="#c1ffbf"/><path d="M441.963 456.246l5.148 5.6c.19-.239 8.641-10.088 8.641-10.088" fill="none" stroke="#fff" stroke-linecap="round" stroke-linejoin="round" stroke-width="2.15"/></g><g data-name="forms input active-2"><path d="M137 433.5a3.5 3.5 0 00-3.5 3.5v37a3.5 3.5 0 003.5 3.5h284a3.5 3.5 0 003.5-3.5v-37a3.5 3.5 0 00-3.5-3.5z" fill="#fff" stroke="#ccc"/><path d="M151.6 453.634a4.291 4.291 0 01-.664 2.261l-3.654 5.881h-1.343l2.923-4.572a1.5 1.5 0 01-1.07.374 3.945 3.945 0 113.806-4.08v.136zm-6.766 0a2.8 2.8 0 102.822-2.872 2.776 2.776 0 00-2.821 2.732v.14zm7.941-1.784c2.091 0 2.465-.544 2.465-1.972h1.1v11.9h-1.19V452.8h-2.38zm5.916 6.663a2.857 2.857 0 012.209-2.924 2.6 2.6 0 01-1.971-2.651c0-1.836 1.394-3.248 3.688-3.248s3.672 1.428 3.672 3.248a2.6 2.6 0 01-1.972 2.651 2.868 2.868 0 012.21 2.924c0 1.9-1.5 3.45-3.91 3.45-2.43 0-3.926-1.513-3.926-3.45zm6.68 0a2.456 2.456 0 00-2.511-2.4q-.122 0-.243.018c-1.75 0-2.77 1.037-2.77 2.38a2.793 2.793 0 005.524 0zm-.237-5.525a2.54 2.54 0 10-2.168 2.168 2.534 2.534 0 002.168-2.168zm3.774-3.11h6.8v1.054h-5.728v4.64a3.155 3.155 0 012.771-1.445 3.664 3.664 0 013.808 3.893 3.961 3.961 0 01-7.922 0h1.173a2.8 2.8 0 102.771-2.856 2.535 2.535 0 00-2.448 1.547h-1.224z" fill="#222" data-name="-label- 5"/></g><path d="M26.611 458.016a2.3 2.3 0 002.206 2.39 2.378 2.378 0 00.316-.009c1.358 0 2.268-.714 2.268-1.863 0-1.373-1.148-1.722-2.171-1.989-1.722-.49-3.208-.924-3.208-2.955 0-1.471 1.206-2.55 3.069-2.55a2.847 2.847 0 013.048 2.63 2.69 2.69 0 01.006.311h-.954a1.939 1.939 0 00-1.8-2.072 1.8 1.8 0 00-.275 0c-1.345 0-2.129.686-2.129 1.681 0 1.316 1.051 1.667 2.186 1.961 1.513.42 3.179.952 3.179 2.886 0 1.82-1.373 2.829-3.291 2.829a3.167 3.167 0 01-3.4-2.921 3.006 3.006 0 01-.008-.329zm16.58 3.04h-.952v-7.578l-3.179 7.578h-.76l-3.18-7.578v7.578h-.952v-9.806h.932l3.586 8.363 3.586-8.363h.928zm2.768-3.04a2.3 2.3 0 002.2 2.393 2.413 2.413 0 00.318-.009c1.359 0 2.269-.714 2.269-1.863 0-1.373-1.148-1.722-2.171-1.989-1.723-.49-3.208-.924-3.208-2.955 0-1.471 1.2-2.55 3.068-2.55a2.846 2.846 0 013.048 2.628 2.725 2.725 0 01.006.313h-.953a1.941 1.941 0 00-1.8-2.072 2.072 2.072 0 00-.273 0c-1.345 0-2.129.686-2.129 1.681 0 1.316 1.051 1.667 2.185 1.961 1.513.42 3.18.952 3.18 2.886 0 1.82-1.373 2.829-3.292 2.829a3.168 3.168 0 01-3.393-2.924 3.218 3.218 0 01-.007-.326zm15.696-.897a1.74 1.74 0 00-1.859-1.612c-.039 0-.078.007-.116.012a2.212 2.212 0 00-2.2 2.229c0 .065 0 .13.01.195a2.189 2.189 0 001.944 2.411 2.233 2.233 0 00.283.012 1.78 1.78 0 001.962-1.442h.91a2.662 2.662 0 01-2.928 2.283 3.261 3.261 0 010-6.514 2.6 2.6 0 012.887 2.277c.006.049.01.1.013.146zm2.139.841a3.264 3.264 0 113.278 3.25h-.028a3.166 3.166 0 01-3.25-3.08 2.409 2.409 0 010-.17zm5.617 0a2.354 2.354 0 10-2.367 2.409 2.326 2.326 0 002.368-2.283 1.755 1.755 0 00-.001-.126zm7.728 1.793a2.625 2.625 0 01-2.41 1.457 3.25 3.25 0 110-6.5 2.6 2.6 0 012.41 1.457v-4.917h.911v9.806h-.911zm0-1.793a2.354 2.354 0 10-2.368 2.409 2.324 2.324 0 002.369-2.28v-.129zm3.623.196a2.082 2.082 0 001.9 2.25 1.951 1.951 0 00.286 0 1.768 1.768 0 001.822-1.135h.923a2.633 2.633 0 01-2.745 1.934 3.255 3.255 0 01-.042-6.5 2.784 2.784 0 012.87 2.7v.077a4.456 4.456 0 01-.042.673zm.014-.715h4.1a1.937 1.937 0 00-1.857-2.015h-.143a1.97 1.97 0 00-2.1 1.837v.178z" fill="#222"/><g data-name="icon help fill-clicked"><circle cx="448.68" cy="398.68" r="12.996" fill="#222" stroke="#222" stroke-width="1.3"/><path d="M447.866 401.044a4.037 4.037 0 01.209-1.438 2.673 2.673 0 01.955-1.073l.838-.618a2.954 2.954 0 00.873-.928 2.372 2.372 0 00.273-1.165 1.739 1.739 0 00-.464-1.273 1.642 1.642 0 00-1.229-.473 2.1 2.1 0 00-1.537.564 2.253 2.253 0 00-.573 1.673h-2.093a3.887 3.887 0 011.147-2.993 4.446 4.446 0 013.148-1.063 3.821 3.821 0 012.766.964 3.74 3.74 0 01.527 4.366 6.2 6.2 0 01-1.42 1.492l-.654.51a2.228 2.228 0 00-.628.655 1.585 1.585 0 00-.155.745v.255h-1.983zm-.1 3.948a1.5 1.5 0 01-.447-1.092 1.524 1.524 0 011.52-1.528h.009a1.5 1.5 0 011.091.446 1.459 1.459 0 01.456 1.082 1.554 1.554 0 01-1.547 1.547 1.452 1.452 0 01-1.081-.455z" fill="#fff"/></g><g data-name="elements button secondary"><path d="M354.654 376.005a22.978 22.978 0 10-.027 45.956h46.7a22.978 22.978 0 000-45.956z" fill="none" stroke="#222"/><path d="M360.715 403.338a4.1 4.1 0 01-1.131-3.094h1.955a2.529 2.529 0 00.63 1.818 2.671 2.671 0 003.221.229 1.733 1.733 0 00.136-2.32 4.064 4.064 0 00-1.385-.817l-1.939-.781a3.726 3.726 0 01-1.7-1.232 3.176 3.176 0 01-.578-1.93 3.048 3.048 0 01.484-1.7 3.171 3.171 0 011.352-1.157 4.6 4.6 0 011.971-.408 4.453 4.453 0 012.066.459 3.268 3.268 0 011.377 1.309 3.872 3.872 0 01.484 1.955H365.7a2.089 2.089 0 00-.526-1.522 2.031 2.031 0 00-1.514-.535 1.928 1.928 0 00-1.3.4 1.343 1.343 0 00-.468 1.078 1.416 1.416 0 00.459 1.054 4.827 4.827 0 001.513.868l1.751.713a3.67 3.67 0 011.684 1.267 3.439 3.439 0 01.56 2.014 3.27 3.27 0 01-.493 1.785 3.235 3.235 0 01-1.381 1.209 4.755 4.755 0 01-2.065.426 4.438 4.438 0 01-3.205-1.088zm16.141-2.551h-5.881a1.9 1.9 0 00.611 1.438 2.831 2.831 0 002.7.279 1.54 1.54 0 00.663-.68h1.87a2.71 2.71 0 01-1.2 1.811 4.162 4.162 0 01-2.439.7 3.924 3.924 0 01-2.958-1.121 4.181 4.181 0 01-1.088-3.043 4.7 4.7 0 01.492-2.2 3.479 3.479 0 011.394-1.455 4.168 4.168 0 012.091-.51 4.035 4.035 0 011.981.476 3.391 3.391 0 011.335 1.326 3.959 3.959 0 01.475 1.956c.005.242-.011.582-.046 1.023zm-1.768-1.41a1.909 1.909 0 00-.535-1.412 2.051 2.051 0 00-1.471-.492 2.144 2.144 0 00-1.53.527 1.853 1.853 0 00-.577 1.377zm3.603-3.162h1.854v1.1a2.526 2.526 0 011.037-.968 3.342 3.342 0 011.547-.34 2.785 2.785 0 012.159.8 3.37 3.37 0 01.731 2.345v4.983h-1.853V400a3.339 3.339 0 00-.392-1.854 1.517 1.517 0 00-1.342-.56 1.743 1.743 0 00-1.394.568 2.411 2.411 0 00-.493 1.625v4.352h-1.854zM396 392.236v11.9h-1.836v-1.073a2.5 2.5 0 01-1.08.928 3.335 3.335 0 01-1.471.348 3.949 3.949 0 01-2.116-.543 3.478 3.478 0 01-1.326-1.488 4.9 4.9 0 01-.45-2.133 4.635 4.635 0 01.475-2.117 3.708 3.708 0 011.369-1.5 3.924 3.924 0 012.1-.552 3.157 3.157 0 011.462.34 2.6 2.6 0 011.037.935v-5.049zm-2.372 9.741a2.994 2.994 0 000-3.6 2.433 2.433 0 00-3.434-.008 2.953 2.953 0 000 3.621 2.431 2.431 0 003.434-.009z" fill="#222"/></g><g data-name="elements input text empty-copy-7"><g data-name="forms input empty-phone-number"><g data-name="elements input dropdown default-copy"><rect x="25" y="375" width="88" height="47" rx="4" ry="4" fill="#f5f5f5"/><path d="M54.284 403.891v-2.839H51.5v-1h2.788V397.2h1.1v2.856h2.8v1h-2.8v2.839zm7.123-2.039a2.6 2.6 0 002.539 2.66 2.676 2.676 0 00.283-.009 2.428 2.428 0 002.672-2.157c.007-.068.012-.137.013-.206 0-1.394-.9-2.413-2.685-2.413h-.9v-1.038h.9c1.649 0 2.464-.9 2.464-2.192 0-1.326-.985-2.125-2.464-2.125a2.244 2.244 0 00-2.517 1.933 2.281 2.281 0 00-.016.413H60.54a3.349 3.349 0 013.271-3.427 3.4 3.4 0 01.35.01c2.124 0 3.689 1.275 3.689 3.2a2.641 2.641 0 01-2.075 2.72 2.85 2.85 0 012.295 2.906c0 2.04-1.648 3.45-3.892 3.45a3.668 3.668 0 01-3.918-3.4 3.42 3.42 0 01-.009-.32zm8.16-6.392c2.091 0 2.465-.544 2.465-1.972h1.105v11.9h-1.19v-8.975h-2.38zm9.945 6.17a4.29 4.29 0 01.663-2.261l3.654-5.881h1.344l-2.924 4.573a1.828 1.828 0 011.207-.374 3.943 3.943 0 11-3.944 3.943zm6.765 0a2.8 2.8 0 10-2.821 2.873 2.777 2.777 0 002.822-2.731 2.241 2.241 0 00-.001-.142z" fill="#222" data-name="-label- 6"/></g><rect x="106.5" y="375.5" width="213" height="46" rx="4" ry="4" fill="#fff" stroke="#ccc"/><path d="M115.544 395.46c2.091 0 2.465-.544 2.465-1.972h1.105v11.9h-1.19v-8.975h-2.38zm9.299 4.062c1.411-.594 2.7-1.207 2.7-2.94a2.165 2.165 0 00-2.448-2.21 2.481 2.481 0 00-2.621 2.333 2.6 2.6 0 000 .318h-1.155a3.59 3.59 0 013.451-3.725 3.261 3.261 0 01.328 0c2.192 0 3.6 1.275 3.6 3.366 0 2.227-1.937 3.195-3.246 3.739-2.21 1.037-2.822 1.87-2.822 3.927h6.119v1.054h-7.428c.003-3.737 1.193-4.842 3.522-5.862zm6.257 2.33a2.6 2.6 0 002.539 2.66 2.676 2.676 0 00.283-.009 2.429 2.429 0 002.672-2.159c.007-.068.012-.136.013-.2 0-1.394-.9-2.413-2.685-2.413h-.9v-1.038h.9c1.648 0 2.465-.9 2.465-2.192 0-1.326-.987-2.125-2.465-2.125a2.244 2.244 0 00-2.517 1.933 2.281 2.281 0 00-.016.413h-1.156a3.348 3.348 0 013.269-3.427 3.183 3.183 0 01.352.01c2.125 0 3.688 1.275 3.688 3.2a2.64 2.64 0 01-2.073 2.72 2.852 2.852 0 012.3 2.906c0 2.04-1.65 3.45-3.894 3.45a3.669 3.669 0 01-3.917-3.4q-.012-.159-.009-.318zm13.327-.545h-4.522v-7.819h1.156v6.765h3.366V396.5h1.155v3.756h1.939v1.054h-1.939v4.08h-1.155zm5.014-7.819h6.8v1.054h-5.728v4.641a3.152 3.152 0 012.77-1.446 3.664 3.664 0 013.808 3.893 3.961 3.961 0 01-7.921 0h1.173a2.8 2.8 0 102.77-2.856 2.534 2.534 0 00-2.447 1.547h-1.225zm9.214 8.142a4.29 4.29 0 01.663-2.261l3.655-5.881h1.343l-2.923 4.573a1.828 1.828 0 011.207-.374 3.943 3.943 0 11-3.945 3.943zm6.766 0a2.782 2.782 0 100 .137 1.565 1.565 0 000-.137zm9.146-8.142l-5.491 11.9h-1.24l5.065-10.845h-5.49v-1.054zm.443 8.635a2.855 2.855 0 012.21-2.924 2.6 2.6 0 01-1.972-2.651c0-1.836 1.394-3.247 3.689-3.247 2.277 0 3.671 1.428 3.671 3.247a2.6 2.6 0 01-1.971 2.651 2.868 2.868 0 012.209 2.924c0 1.9-1.5 3.45-3.909 3.45-2.431 0-3.927-1.512-3.927-3.45zm6.68 0a2.456 2.456 0 00-2.511-2.4c-.081 0-.162.008-.242.018-1.751 0-2.771 1.037-2.771 2.38a2.793 2.793 0 005.524 0zm-.238-5.524a2.539 2.539 0 10-2.171 2.171 2.534 2.534 0 002.171-2.17z" fill="#ccc" data-name="-label- 7"/></g></g><path d="M26.163 356.194h3.376a3.25 3.25 0 010 6.5h-2.424V366h-.952zm5.687 3.25a2.278 2.278 0 00-2.172-2.379h-2.563v4.763h2.424a2.277 2.277 0 002.313-2.242 2.21 2.21 0 00-.002-.142zm2.657-3.25h.91v4.946a2.451 2.451 0 012.354-1.486 2.276 2.276 0 011.863.771 2.9 2.9 0 01.546 1.933V366h-.91v-3.376c0-1.219-.519-2.157-1.808-2.157a2.146 2.146 0 00-2.053 2.235c0 .039 0 .079.008.118V366h-.91zm7.307 6.706a3.264 3.264 0 113.278 3.25h-.028a3.167 3.167 0 01-3.25-3.082v-.168zm5.618 0a2.354 2.354 0 10-2.368 2.409 2.326 2.326 0 002.369-2.282 1.793 1.793 0 00-.001-.127zm2.668-3.1h.91v1.345a2.447 2.447 0 012.353-1.486 2.276 2.276 0 011.863.771 2.9 2.9 0 01.546 1.933V366h-.91v-3.376c0-1.219-.518-2.157-1.807-2.157A2.146 2.146 0 0051 362.7c0 .039 0 .079.008.118V366H50.1zm8.262 3.3a2.082 2.082 0 001.9 2.25 2.145 2.145 0 00.289 0 1.769 1.769 0 001.821-1.134h.924a2.636 2.636 0 01-2.745 1.933 3.255 3.255 0 01-.042-6.5 2.786 2.786 0 012.87 2.7v.076a4.456 4.456 0 01-.042.673zm.015-.715h4.1a1.936 1.936 0 00-1.854-2.016h-.146a1.97 1.97 0 00-2.1 1.837c0 .06-.006.121 0 .181z" fill="#222"/><g data-name="forms validation error-text"><path data-name="Rectangle-9- 2-4" fill="#fff" d="M272.5 165.611h143v16h-143z"/><path d="M277.935 169.311h1.035v6.3h-1.035zm3.131 0h1.089l2.493 4.572v-4.572h.991v6.3h-1.089l-2.493-4.572v4.572h-.991zm7.834 6.034a2.847 2.847 0 01-1.134-1.17 3.907 3.907 0 010-3.428 2.834 2.834 0 011.134-1.17 3.473 3.473 0 011.746-.419 3.614 3.614 0 011.5.3 2.669 2.669 0 011.053.819 2.541 2.541 0 01.5 1.2h-1.129a1.719 1.719 0 00-.643-1.017 2.346 2.346 0 00-2.88.274 2.873 2.873 0 000 3.465 2.353 2.353 0 002.88.275 1.722 1.722 0 00.643-1.017h1.13a2.545 2.545 0 01-.5 1.2 2.669 2.669 0 01-1.053.819 3.614 3.614 0 01-1.5.3 3.477 3.477 0 01-1.747-.431zm7.709-.022a2.975 2.975 0 01-1.133-1.2 3.692 3.692 0 010-3.33 2.975 2.975 0 011.133-1.2 3.606 3.606 0 013.456 0 2.971 2.971 0 011.134 1.2 3.692 3.692 0 010 3.33 2.971 2.971 0 01-1.134 1.2 3.606 3.606 0 01-3.456 0zm2.9-.8a2.01 2.01 0 00.751-.859 3.033 3.033 0 000-2.4 2.01 2.01 0 00-.751-.859 2.327 2.327 0 00-2.341 0 2.01 2.01 0 00-.751.859 3.033 3.033 0 000 2.4 2.01 2.01 0 00.751.859 2.337 2.337 0 002.341 0zm7.941-1.73a2 2 0 01-.976.784l1.242 2.034h-1.18l-1.151-1.89h-1.018v1.89h-1.035v-6.3h2.322a2.2 2.2 0 011.112.283 2.03 2.03 0 01.769.783 2.288 2.288 0 01.279 1.139 2.248 2.248 0 01-.364 1.277zm-3.083 0h1.225a1.111 1.111 0 00.85-.364 1.407 1.407 0 000-1.827 1.111 1.111 0 00-.85-.364h-1.225zm9.302 0a2 2 0 01-.977.784l1.243 2.034h-1.18l-1.151-1.89h-1.018v1.89h-1.035v-6.3h2.322a2.194 2.194 0 011.111.283 2.026 2.026 0 01.77.783 2.3 2.3 0 01.279 1.139 2.248 2.248 0 01-.364 1.277zm-3.083 0h1.225a1.111 1.111 0 00.85-.364 1.407 1.407 0 000-1.827 1.111 1.111 0 00-.85-.364h-1.225zm5.184-3.482h3.636v.927h-2.6v1.782h2.6v.927h-2.6v1.737h2.6v.927h-3.636zm6.813 6.034a2.847 2.847 0 01-1.134-1.17 3.907 3.907 0 010-3.428 2.834 2.834 0 011.134-1.17 3.473 3.473 0 011.746-.419 3.614 3.614 0 011.5.3 2.669 2.669 0 011.053.819 2.57 2.57 0 01.5 1.2h-1.134a1.719 1.719 0 00-.643-1.017 2.346 2.346 0 00-2.88.274 2.873 2.873 0 000 3.465 2.353 2.353 0 002.88.275 1.722 1.722 0 00.643-1.017h1.134a2.57 2.57 0 01-.5 1.2 2.669 2.669 0 01-1.053.819 3.614 3.614 0 01-1.5.3 3.478 3.478 0 01-1.746-.431zm7.506-5.062h-1.827v-.972h4.7v.972h-1.836v5.328h-1.035zm7.335-.972h3.636v.927h-2.6v1.782h2.6v.927h-2.6v1.737h2.6v.927h-3.636zm5.642 0h.991l2.016 4.824 2.007-4.824h.99v6.3h-.99v-4.167l-1.62 4.167h-.783l-1.62-4.212v4.212h-.991zm11.35 5.499H352l-.243.8h-1.125l2.124-6.3h.909l2.124 6.3h-1.125zm-.279-.927l-.936-3.123-.936 3.123zm3.204-4.572h1.035v6.3h-1.035zm3.132 0h1.035v5.328h2.528v.972h-3.563zm11.591 5.499h-2.42l-.244.8h-1.125l2.124-6.3h.91l2.124 6.3h-1.125zm-.279-.927l-.935-3.123-.937 3.123zm3.204-4.572h2.134a3.259 3.259 0 011.719.437 2.866 2.866 0 011.089 1.156 3.469 3.469 0 010 3.114 2.866 2.866 0 01-1.089 1.156 3.259 3.259 0 01-1.719.437h-2.134zm2.043 5.373a2.284 2.284 0 001.234-.31 1.913 1.913 0 00.733-.815 2.648 2.648 0 000-2.2 1.913 1.913 0 00-.733-.815 2.284 2.284 0 00-1.234-.31h-1.008v4.446zm4.959-5.373h2.134a3.259 3.259 0 011.719.437 2.866 2.866 0 011.089 1.156 3.469 3.469 0 010 3.114 2.866 2.866 0 01-1.089 1.156 3.259 3.259 0 01-1.719.437h-2.134zm2.043 5.373a2.284 2.284 0 001.234-.31 1.919 1.919 0 00.733-.815 2.648 2.648 0 000-2.2 1.919 1.919 0 00-.733-.815 2.284 2.284 0 00-1.234-.31h-1.008v4.446zm9.077-1.891a2 2 0 01-.976.784l1.242 2.034H392.2l-1.151-1.89h-1.018v1.89H389v-6.3h2.322a2.2 2.2 0 011.112.283 2.03 2.03 0 01.769.783 2.286 2.286 0 01.28 1.139 2.259 2.259 0 01-.372 1.277zm-3.083 0h1.225a1.113 1.113 0 00.851-.364 1.41 1.41 0 000-1.827 1.113 1.113 0 00-.851-.364h-1.225zm5.184-3.482h3.637v.927h-2.6v1.782h2.6v.927h-2.6v1.737h2.6v.927h-3.637zm5.657 5.877a2.167 2.167 0 01-.6-1.638h1.031a1.339 1.339 0 00.333.963 1.414 1.414 0 001.7.121.916.916 0 00.072-1.228 2.156 2.156 0 00-.733-.432l-1.027-.414a1.981 1.981 0 01-.9-.652 1.688 1.688 0 01-.306-1.022 1.62 1.62 0 01.257-.9 1.679 1.679 0 01.715-.612 2.423 2.423 0 011.044-.216 2.356 2.356 0 011.094.243 1.728 1.728 0 01.729.693 2.053 2.053 0 01.256 1.034h-1.024a1.1 1.1 0 00-.279-.8 1.069 1.069 0 00-.8-.284 1.029 1.029 0 00-.689.211.71.71 0 00-.248.572.743.743 0 00.243.557 2.5 2.5 0 00.8.459l.927.379a1.936 1.936 0 01.891.67 1.82 1.82 0 01.3 1.067 1.743 1.743 0 01-.26.945 1.722 1.722 0 01-.734.639 2.514 2.514 0 01-1.094.225 2.347 2.347 0 01-1.698-.58zm5.715 0a2.167 2.167 0 01-.6-1.638h1.036a1.339 1.339 0 00.333.963 1.414 1.414 0 001.7.121.916.916 0 00.072-1.228 2.145 2.145 0 00-.734-.432l-1.026-.414a1.981 1.981 0 01-.9-.652 1.688 1.688 0 01-.306-1.022 1.62 1.62 0 01.257-.9 1.679 1.679 0 01.715-.612 2.423 2.423 0 011.044-.216 2.349 2.349 0 011.093.243 1.719 1.719 0 01.73.693 2.053 2.053 0 01.256 1.034h-1.035a1.1 1.1 0 00-.279-.8 1.069 1.069 0 00-.8-.284 1.029 1.029 0 00-.689.211.71.71 0 00-.248.572.743.743 0 00.243.557 2.5 2.5 0 00.8.459l.927.379a1.936 1.936 0 01.891.67 1.82 1.82 0 01.3 1.067 1.7 1.7 0 01-.994 1.584 2.514 2.514 0 01-1.094.225 2.343 2.343 0 01-1.692-.58z" fill="#ffa6a6"/></g><g filter="url(#a)"><path d="M458.057 364.391l-7.5 7.5a3.422 3.422 0 01-4.837 0l-7.494-7.5h-246.49a3.42 3.42 0 01-3.42-3.42v-84.213a3.42 3.42 0 013.42-3.42h278.388a3.42 3.42 0 013.42 3.42v84.213a3.42 3.42 0 01-3.42 3.42z"/></g><path d="M450.159 371.482l7.661-7.661h12.3a2.85 2.85 0 002.85-2.85v-84.213a2.85 2.85 0 00-2.85-2.85H191.736a2.85 2.85 0 00-2.85 2.85h0v84.213a2.85 2.85 0 002.85 2.85h246.731l7.661 7.661a2.851 2.851 0 004.031 0z" fill="#fff" stroke="#222" stroke-width="1.14"/><path d="M201.433 286.738h1.694l2.324 7.126 2.2-7.126h1.191l2.2 7.126 2.324-7.126h1.694l-3.388 9.8h-1.162l-2.254-6.986-2.269 6.986h-1.161zm20.034 3.762a2.774 2.774 0 01.6 1.933v4.1h-1.526v-3.4a2.746 2.746 0 00-.322-1.526 1.252 1.252 0 00-1.106-.462 1.438 1.438 0 00-1.148.469 1.986 1.986 0 00-.406 1.337v3.584h-1.526v-9.8h1.526v4.186a2.071 2.071 0 01.854-.8 2.75 2.75 0 011.273-.28 2.291 2.291 0 011.781.659zm8.456-.486v6.552a3.085 3.085 0 01-.855 2.324 3.143 3.143 0 01-2.212.756 3.371 3.371 0 01-2.239-.672 2.216 2.216 0 01-.728-1.694h1.54a1.213 1.213 0 00.371.833 1.562 1.562 0 001.029.273 1.469 1.469 0 001.148-.469 2.154 2.154 0 00.419-1.463v-.826a2.021 2.021 0 01-.839.805 2.731 2.731 0 01-1.26.273 2.188 2.188 0 01-1.785-.749 2.971 2.971 0 01-.623-1.967v-3.976h1.526v3.654a2.1 2.1 0 00.321 1.246 1.256 1.256 0 001.093.448 1.358 1.358 0 001.169-.546 2.359 2.359 0 00.4-1.428v-3.374zm11.788-3.276v9.8H240.2v-.882a2.05 2.05 0 01-.888.763 2.782 2.782 0 01-1.211.287 3.235 3.235 0 01-1.744-.448 2.862 2.862 0 01-1.091-1.225 4.034 4.034 0 01-.371-1.757 3.826 3.826 0 01.391-1.743 3.029 3.029 0 011.127-1.232 3.218 3.218 0 011.73-.455 2.6 2.6 0 011.2.28 2.119 2.119 0 01.853.77v-4.158zm-1.953 8.022a2.463 2.463 0 000-2.968 1.773 1.773 0 00-1.436-.588 1.755 1.755 0 00-1.392.581 2.432 2.432 0 000 2.982 2 2 0 002.828-.007zm5.033 1.498a3 3 0 01-1.2-1.232 3.912 3.912 0 010-3.5 3.016 3.016 0 011.2-1.232 3.98 3.98 0 013.668 0 3.022 3.022 0 011.2 1.232 3.912 3.912 0 010 3.5 3 3 0 01-1.2 1.232 3.98 3.98 0 01-3.668 0zm3.24-1.484a2.447 2.447 0 000-3 2.011 2.011 0 00-2.813 0 2.452 2.452 0 000 3 2.011 2.011 0 002.813 0zm6.097-4.76h1.681l1.357 4.312 1.414-4.312h1.652l1.414 4.312 1.354-4.312h1.681l-2.409 6.524h-1.288l-1.584-4.648-1.582 4.648h-1.288zm17.192 3.766h-4.843a1.558 1.558 0 00.5 1.183 1.944 1.944 0 001.316.413 1.969 1.969 0 00.91-.182 1.279 1.279 0 00.546-.56h1.54a2.233 2.233 0 01-.986 1.491 3.421 3.421 0 01-2.01.581 3.238 3.238 0 01-2.436-.924 3.444 3.444 0 01-.9-2.506 3.874 3.874 0 01.405-1.813 2.865 2.865 0 011.149-1.2 3.433 3.433 0 011.721-.42 3.3 3.3 0 011.631.392 2.778 2.778 0 011.1 1.092 3.253 3.253 0 01.391 1.61 7.66 7.66 0 01-.034.843zm-1.456-1.162a1.574 1.574 0 00-.44-1.162 1.7 1.7 0 00-1.212-.406 1.771 1.771 0 00-1.26.434 1.526 1.526 0 00-.475 1.134zm7.442 3.64a2.866 2.866 0 01-1.093-1.225 4.033 4.033 0 01-.37-1.757 3.826 3.826 0 01.391-1.743 3.022 3.022 0 011.127-1.232 3.223 3.223 0 011.729-.455 2.591 2.591 0 011.2.28 2.122 2.122 0 01.854.77v-.882h1.512v6.524h-1.512v-.882a2.056 2.056 0 01-.888.763 2.783 2.783 0 01-1.212.287 3.233 3.233 0 01-1.738-.448zm3.4-1.5a2.463 2.463 0 000-2.968 2 2 0 00-2.828-.007 2.432 2.432 0 000 2.982 2 2 0 002.828-.007zm4.775 1.668a2.377 2.377 0 01-.994-.777 1.86 1.86 0 01-.356-1.113h1.525a.809.809 0 00.371.686 1.607 1.607 0 00.959.266 1.046 1.046 0 00.687-.21.691.691 0 00.252-.56.634.634 0 00-.176-.469 1.51 1.51 0 00-.679-.3l-1.3-.35a1.989 1.989 0 01-1.058-.672 1.835 1.835 0 01-.37-1.162 1.63 1.63 0 01.321-.987 2.109 2.109 0 01.9-.686 3.251 3.251 0 011.288-.245 2.956 2.956 0 011.889.546 1.8 1.8 0 01.687 1.484h-1.5a.755.755 0 00-.3-.637 1.339 1.339 0 00-.833-.231 1.138 1.138 0 00-.672.189.572.572 0 00-.265.483.6.6 0 00.188.448 1.51 1.51 0 00.623.309l1.3.377a2.139 2.139 0 011.1.686 1.929 1.929 0 01-.287 2.667 2.989 2.989 0 01-1.883.539 3.508 3.508 0 01-1.417-.281zm8.631-3.29l2.828 3.4h-2l-2.408-2.982v2.982h-1.511v-9.8h1.511v6.146l2.479-2.87h1.931zm10.129-4.928a.906.906 0 00-.315.826v.98h1.708v1.274h-1.708v5.25H302.4v-5.25h-1.33v-1.274h1.33v-.952a2.19 2.19 0 01.715-1.89 2.513 2.513 0 011.5-.518 3.336 3.336 0 011.023.126v1.288a17.565 17.565 0 01-.294-.035 2.641 2.641 0 00-.308-.021 1.475 1.475 0 00-.795.196zm3.559 8.05a3.01 3.01 0 01-1.2-1.232 3.925 3.925 0 010-3.5 3.022 3.022 0 011.2-1.232 3.98 3.98 0 013.668 0 3.022 3.022 0 011.2 1.232 3.912 3.912 0 010 3.5 3.01 3.01 0 01-1.2 1.232 3.98 3.98 0 01-3.668 0zm3.241-1.484a2.452 2.452 0 000-3 2.013 2.013 0 00-2.815 0 2.455 2.455 0 000 3 2.013 2.013 0 002.815 0zm3.511-4.76h1.526v1.26a1.677 1.677 0 01.658-1 1.852 1.852 0 011.078-.343 2.57 2.57 0 01.6.056v1.4a5.228 5.228 0 00-.6-.028 1.525 1.525 0 00-1.274.6 2.728 2.728 0 00-.462 1.7v2.884h-1.526zm9.597 6.244a2.864 2.864 0 01-1.092-1.225 4.033 4.033 0 01-.37-1.757 3.8 3.8 0 01.391-1.743 3.022 3.022 0 011.127-1.232 3.215 3.215 0 011.729-.455 2.6 2.6 0 011.2.28 2.128 2.128 0 01.854.77v-.882h1.512v6.524h-1.512v-.882a2.056 2.056 0 01-.888.763 2.783 2.783 0 01-1.212.287 3.238 3.238 0 01-1.739-.448zm3.4-1.5a2.463 2.463 0 000-2.968 2 2 0 00-2.828-.007 2.432 2.432 0 000 2.982 2 2 0 002.828-.007zm12.756-4.485a2.855 2.855 0 011.091 1.2 3.985 3.985 0 01.385 1.8 3.807 3.807 0 01-.405 1.778 2.987 2.987 0 01-1.135 1.218 3.183 3.183 0 01-1.666.434 2.7 2.7 0 01-1.218-.287 2.169 2.169 0 01-.881-.763v3.823h-1.512v-9.465h1.512v.882a2.151 2.151 0 01.91-.763 2.958 2.958 0 011.288-.287 3.085 3.085 0 011.631.43zm-.581 4.494a2.356 2.356 0 000-2.982 1.774 1.774 0 00-1.372-.581 1.826 1.826 0 00-1.4.574 2.379 2.379 0 000 3 1.821 1.821 0 001.4.574 1.775 1.775 0 001.372-.585zm8.96-4.267a2.774 2.774 0 01.6 1.933v4.1h-1.524v-3.4a2.755 2.755 0 00-.322-1.526 1.252 1.252 0 00-1.106-.462 1.438 1.438 0 00-1.148.469 1.985 1.985 0 00-.407 1.337v3.584h-1.525v-9.8h1.525v4.186a2.074 2.074 0 01.855-.8 2.75 2.75 0 011.273-.28 2.292 2.292 0 011.779.659zm3.616 5.758a3 3 0 01-1.2-1.232 3.912 3.912 0 010-3.5 3 3 0 011.2-1.232 3.98 3.98 0 013.668 0 3.022 3.022 0 011.2 1.232 3.912 3.912 0 010 3.5 3 3 0 01-1.2 1.232 3.98 3.98 0 01-3.668 0zm3.24-1.484a2.447 2.447 0 000-3 2.011 2.011 0 00-2.813 0 2.452 2.452 0 000 3 2.011 2.011 0 002.813 0zm3.504-4.76h1.525v.91a2.074 2.074 0 01.855-.8 2.75 2.75 0 011.273-.28 2.291 2.291 0 011.779.658 2.774 2.774 0 01.6 1.933v4.1h-1.526v-3.4a2.747 2.747 0 00-.323-1.526 1.252 1.252 0 00-1.1-.462 1.438 1.438 0 00-1.148.469 1.98 1.98 0 00-.407 1.337v3.584h-1.525zm13.79 3.766h-4.845a1.558 1.558 0 00.5 1.183 1.945 1.945 0 001.317.413 1.984 1.984 0 00.91-.182 1.279 1.279 0 00.546-.56h1.54a2.23 2.23 0 01-.988 1.491 3.412 3.412 0 01-2.008.581 3.234 3.234 0 01-2.436-.924 3.444 3.444 0 01-.9-2.506 3.851 3.851 0 01.406-1.813 2.872 2.872 0 011.147-1.2 3.443 3.443 0 011.723-.42 3.323 3.323 0 011.631.392 2.778 2.778 0 011.1 1.092 3.229 3.229 0 01.393 1.61c.006.199-.009.479-.036.843zm-1.456-1.162a1.579 1.579 0 00-.441-1.162 1.7 1.7 0 00-1.211-.406 1.761 1.761 0 00-1.26.434 1.527 1.527 0 00-.477 1.134zm6.468-2.604h1.525v.91a2.074 2.074 0 01.855-.8 2.75 2.75 0 011.273-.28 2.289 2.289 0 011.778.658 2.769 2.769 0 01.6 1.933v4.1h-1.526v-3.4a2.747 2.747 0 00-.323-1.526 1.25 1.25 0 00-1.105-.462 1.441 1.441 0 00-1.149.469 1.986 1.986 0 00-.406 1.337v3.584h-1.525zm8.511 6.034a2.622 2.622 0 01-.658-1.932v-4.1h1.527v3.724a2.1 2.1 0 00.307 1.246 1.182 1.182 0 001.023.42 1.463 1.463 0 001.2-.468 1.917 1.917 0 00.378-1.24v-3.682h1.525v6.524h-1.525v-.91a2.125 2.125 0 01-2.017 1.078 2.385 2.385 0 01-1.76-.66zm7.266-6.034h1.526v.91a1.811 1.811 0 01.714-.777 2.074 2.074 0 011.107-.3 2.01 2.01 0 012.057 1.162 1.948 1.948 0 01.785-.833 2.316 2.316 0 011.217-.329q2.354 0 2.352 2.562v4.13h-1.526V292.7a1.843 1.843 0 00-.308-1.176 1.1 1.1 0 00-.909-.378 1.255 1.255 0 00-1.009.427 2.368 2.368 0 00-.363 1.5v3.458h-1.527v-3.85a1.867 1.867 0 00-.294-1.168 1.07 1.07 0 00-.9-.372 1.285 1.285 0 00-1.028.427 2.313 2.313 0 00-.372 1.5v3.458h-1.526zm16.989.259a2.85 2.85 0 011.092 1.2 3.985 3.985 0 01.385 1.8 3.82 3.82 0 01-.4 1.778 3 3 0 01-1.135 1.218 3.183 3.183 0 01-1.666.434 2.7 2.7 0 01-1.218-.287 2.171 2.171 0 01-.882-.763v.882h-1.512v-9.8h1.512v4.165a2.151 2.151 0 01.91-.763 2.973 2.973 0 011.288-.287 3.082 3.082 0 011.626.423zm-.581 4.494a2.356 2.356 0 000-2.982 1.772 1.772 0 00-1.372-.581 1.821 1.821 0 00-1.4.574 2.379 2.379 0 000 3 1.817 1.817 0 001.4.574 1.775 1.775 0 001.372-.585zm9.394-.987h-4.844a1.558 1.558 0 00.5 1.183 1.94 1.94 0 001.315.413 1.986 1.986 0 00.911-.182 1.261 1.261 0 00.545-.56h1.54a2.224 2.224 0 01-.986 1.491 3.421 3.421 0 01-2.01.581 3.232 3.232 0 01-2.435-.924 3.444 3.444 0 01-.9-2.506 3.863 3.863 0 01.406-1.813 2.863 2.863 0 011.148-1.2 3.437 3.437 0 011.722-.42 3.3 3.3 0 011.631.392 2.778 2.778 0 011.1 1.092 3.241 3.241 0 01.392 1.61q.008.297-.035.843zm-1.456-1.162a1.573 1.573 0 00-.441-1.162 1.7 1.7 0 00-1.212-.406 1.769 1.769 0 00-1.259.434 1.527 1.527 0 00-.476 1.134zm2.968-2.604h1.526v1.26a1.677 1.677 0 01.658-1 1.836 1.836 0 011.078-.343 2.57 2.57 0 01.6.056v1.4a5.228 5.228 0 00-.6-.028 1.525 1.525 0 00-1.274.6 2.728 2.728 0 00-.462 1.7v2.884h-1.526zm6.328 3.248a3.058 3.058 0 01.161-1.106 2.05 2.05 0 01.735-.826l.644-.476a2.281 2.281 0 00.672-.714 1.808 1.808 0 00.21-.9 1.344 1.344 0 00-.357-.98 1.262 1.262 0 00-.945-.364 1.612 1.612 0 00-1.183.434 1.73 1.73 0 00-.441 1.288h-1.611a2.983 2.983 0 01.883-2.3 3.421 3.421 0 012.422-.819 2.942 2.942 0 012.128.742 2.88 2.88 0 01.406 3.361 4.784 4.784 0 01-1.093 1.147l-.5.392a1.743 1.743 0 00-.483.5 1.212 1.212 0 00-.119.574v.2h-1.526zm-.077 3.038a1.157 1.157 0 01-.343-.84 1.171 1.171 0 011.166-1.176h.01a1.153 1.153 0 01.839.343 1.12 1.12 0 01.351.833 1.2 1.2 0 01-1.19 1.19 1.124 1.124 0 01-.833-.35zm-220.618 9.1l-2.591 8.8h-.518l-3.292-9.806h.658l2.886 8.812 2.605-8.812h.518l2.6 8.812 2.872-8.812h.659l-3.287 9.8h-.5zm7.068 5.846a2.337 2.337 0 002.1 2.554 2.294 2.294 0 00.31.01 2.032 2.032 0 002.045-1.3h.616a2.585 2.585 0 01-2.661 1.835 2.906 2.906 0 01-3-3.165 2.871 2.871 0 012.573-3.141 3.058 3.058 0 01.383-.012 2.717 2.717 0 012.786 2.644v.056a4.061 4.061 0 01-.027.517zm.013-.5h4.549a2.161 2.161 0 00-2.091-2.227h-.122a2.225 2.225 0 00-2.333 2.113v.11zm12.041.444l3.264 3.012h-.827l-3.18-2.914v2.912h-.588v-9.8h.588v6.7l3.18-2.928h.827zm4.367.056a2.339 2.339 0 002.1 2.554 2.26 2.26 0 00.308.01 2.035 2.035 0 002.045-1.3h.616a2.586 2.586 0 01-2.661 1.835 2.906 2.906 0 01-3-3.165 2.871 2.871 0 012.571-3.141 3.079 3.079 0 01.384-.012 2.717 2.717 0 012.787 2.643v.057a3.886 3.886 0 01-.028.517zm.014-.5h4.552a2.161 2.161 0 00-2.091-2.227h-.122a2.225 2.225 0 00-2.336 2.108v.115zm7.168.5a2.339 2.339 0 002.1 2.554 2.245 2.245 0 00.307.01 2.032 2.032 0 002.045-1.3h.617a2.588 2.588 0 01-2.662 1.835 2.906 2.906 0 01-3-3.165 2.871 2.871 0 012.573-3.141 3.058 3.058 0 01.383-.012 2.717 2.717 0 012.787 2.643v.057a3.886 3.886 0 01-.028.517zm.014-.5h4.553a2.161 2.161 0 00-2.093-2.227h-.12a2.226 2.226 0 00-2.337 2.109v.114zm7.7-1.04a2.74 2.74 0 012.619-1.682 3.159 3.159 0 010 6.318 2.74 2.74 0 01-2.619-1.681v5.309h-.588v-9.805h.588zm0 1.471a2.577 2.577 0 102.606-2.592 2.524 2.524 0 00-2.606 2.44 3.85 3.85 0 000 .152zm10.611.013a3.173 3.173 0 113.194 3.152h-.042a3.081 3.081 0 01-3.152-3.008v-.144zm5.744 0a2.571 2.571 0 10-2.592 2.592 2.52 2.52 0 002.592-2.446 3.553 3.553 0 000-.146zm7.784-3.025v6.035h-.6v-1.568a2.544 2.544 0 01-2.466 1.708 2.268 2.268 0 01-1.806-.728 2.764 2.764 0 01-.616-1.933v-3.516h.6v3.361c0 1.289.616 2.27 1.988 2.27a2.413 2.413 0 002.3-2.521v-3.11zm5.963.561a1.849 1.849 0 00-.6-.084c-1.61 0-2.311 1.484-2.311 2.829v2.729h-.588v-6.037h.588v1.667a2.431 2.431 0 012.311-1.766 1.571 1.571 0 01.6.1zm5.443.98a2.74 2.74 0 012.62-1.682 3.159 3.159 0 010 6.318 2.74 2.74 0 01-2.62-1.681v5.309h-.588v-9.805h.588zm0 1.471a2.578 2.578 0 102.605-2.592 2.525 2.525 0 00-2.605 2.441v.151zm7.616-6.777h.588v9.8h-.588zm8.795 3.765v6.035h-.6v-1.526a2.732 2.732 0 01-2.606 1.666 3.159 3.159 0 010-6.318 2.723 2.723 0 012.606 1.682v-1.541zm-.6 3.025a2.571 2.571 0 10-2.591 2.592 2.52 2.52 0 002.589-2.449v-.143zm6.199 3.01a6.562 6.562 0 01-1.009.084c-.84 0-1.751-.2-1.751-2.087v-3.5h-1.33v-.532h1.33V305.7h.589v2.466h1.947v.532h-1.947v3.418c0 1.429.588 1.611 1.261 1.611a6.439 6.439 0 00.91-.07zm4.34-9.2a1.841 1.841 0 00-.813-.14c-.574 0-1.246.182-1.246 1.583v1.723h2.059v.532h-2.059v5.5h-.591v-5.5h-1.44v-.532h1.44v-1.681c0-1.947 1.037-2.172 1.793-2.172a2.157 2.157 0 01.855.155zm.473 6.19a3.173 3.173 0 113.194 3.152h-.041a3.082 3.082 0 01-3.153-3.009 3.409 3.409 0 010-.143zm5.743 0a2.57 2.57 0 10-2.59 2.592 2.519 2.519 0 002.59-2.446 3.553 3.553 0 000-.146zm5.963-2.464a1.849 1.849 0 00-.6-.084c-1.612 0-2.312 1.484-2.312 2.829v2.729h-.588v-6.037h.588v1.667a2.43 2.43 0 012.312-1.766 1.534 1.534 0 01.6.1zm9.509 5.474v-3.641c0-1.457-.727-1.976-1.624-1.976-1.261 0-1.9 1.219-1.9 2.563v3.054h-.589v-3.4c0-1.778-.784-2.213-1.639-2.213-1.232 0-1.905 1.219-1.905 2.563v3.05h-.588v-6.037h.588v1.583a2.1 2.1 0 012.018-1.724 1.85 1.85 0 012 1.693v.058a2.207 2.207 0 012.116-1.751c1.176 0 2.115.645 2.115 2.382v3.8zm10.82-1.595c0 1.107-.84 1.737-2.3 1.737-1.387 0-2.549-.63-2.549-2.185h.588c0 1.219.882 1.667 1.975 1.667s1.709-.448 1.709-1.19c0-.925-.938-1.051-2.059-1.289-1.065-.21-2.017-.42-2.017-1.612 0-1.091.9-1.709 2.2-1.709 1.359 0 2.353.715 2.353 2h-.588c0-.98-.715-1.485-1.751-1.485-.981 0-1.639.435-1.639 1.2 0 .826.756.966 1.919 1.2 1.095.238 2.159.434 2.159 1.666zm7.729-4.44v6.035h-.6v-1.526a2.727 2.727 0 01-2.6 1.666 3.159 3.159 0 010-6.318 2.719 2.719 0 012.6 1.682v-1.541zm-.6 3.025a2.57 2.57 0 10-2.59 2.592 2.519 2.519 0 002.587-2.449v-.143zm6.254-6.19a1.837 1.837 0 00-.812-.14c-.575 0-1.246.182-1.246 1.583v1.723h2.058v.532h-2.058v5.5h-.589v-5.5h-1.443v-.532h1.443v-1.681c0-1.947 1.037-2.172 1.793-2.172a2.152 2.152 0 01.854.155zm1.132 6.246a2.341 2.341 0 002.1 2.555 2.4 2.4 0 00.306.009 2.032 2.032 0 002.045-1.3h.616a2.586 2.586 0 01-2.661 1.835 2.906 2.906 0 01-3-3.165 2.871 2.871 0 012.571-3.141 3.079 3.079 0 01.384-.012 2.717 2.717 0 012.787 2.643v.057a3.886 3.886 0 01-.028.517zm.015-.5h4.551a2.161 2.161 0 00-2.091-2.227h-.121a2.225 2.225 0 00-2.336 2.108v.115zm11.298 3.454h-.586v-9.8h.588v5.31a2.74 2.74 0 012.619-1.682 3.159 3.159 0 010 6.318 2.749 2.749 0 01-2.619-1.666zm5.154-3.012a2.577 2.577 0 10-2.562 2.592h.013a2.509 2.509 0 002.55-2.467v-.123zm2.36 4.023h.589c.069 1.555.658 2.367 2.213 2.367 1.429 0 2.171-.673 2.171-2.577v-2.367a2.519 2.519 0 01-2.438 1.708 2.289 2.289 0 01-1.877-.686 2.847 2.847 0 01-.574-2.088v-3.4h.589v3.264c0 1.47.462 2.367 2.03 2.367a2.391 2.391 0 002.274-2.5v-3.128h.589V315c0 2.241-.925 3.109-2.774 3.109-1.948.001-2.747-.993-2.792-2.898zm16.89-7.046v6.035h-.6v-1.568a2.543 2.543 0 01-2.465 1.708 2.268 2.268 0 01-1.806-.728 2.765 2.765 0 01-.617-1.933v-3.516h.6v3.361c0 1.289.616 2.27 1.989 2.27a2.413 2.413 0 002.3-2.521v-3.11zm6.747 4.44c0 1.107-.84 1.737-2.3 1.737-1.387 0-2.55-.63-2.55-2.185h.589c0 1.219.882 1.667 1.975 1.667s1.709-.448 1.709-1.19c0-.925-.939-1.051-2.059-1.289-1.065-.21-2.017-.42-2.017-1.612 0-1.091.9-1.709 2.2-1.709 1.358 0 2.353.715 2.353 2h-.589c0-.98-.713-1.485-1.751-1.485-.98 0-1.638.435-1.638 1.2 0 .826.757.966 1.919 1.2 1.094.238 2.159.434 2.159 1.666zm2.28-7.592a.694.694 0 11.053 1.387.469.469 0 01-.053 0 .694.694 0 010-1.387zm-.294 3.152h.588v6.035h-.588zm3.052 0h.588v1.568a2.557 2.557 0 012.465-1.709 2.279 2.279 0 011.821.729 2.734 2.734 0 01.6 1.934v3.513h-.589v-3.361c0-1.276-.617-2.256-1.989-2.256a2.4 2.4 0 00-2.314 2.483v3.134h-.588zm13.555 6.598c0 2.451-1.219 3.347-3.222 3.347a2.8 2.8 0 01-3.054-2.941h.588a2.264 2.264 0 002.132 2.387 2.328 2.328 0 00.334-.006c1.639 0 2.619-.729 2.619-2.787v-2.1a2.719 2.719 0 01-2.605 1.681 3.159 3.159 0 010-6.318 2.72 2.72 0 012.605 1.682v-1.541h.6zm-5.743-3.586a2.57 2.57 0 102.549-2.592 2.51 2.51 0 00-2.55 2.469v.123zm11.69 4.034h.588c.07 1.555.658 2.367 2.213 2.367 1.428 0 2.172-.673 2.172-2.577v-2.367a2.521 2.521 0 01-2.438 1.708 2.289 2.289 0 01-1.877-.686 2.843 2.843 0 01-.574-2.088v-3.4h.588v3.264c0 1.47.462 2.367 2.031 2.367a2.393 2.393 0 002.274-2.5v-3.126h.588V315c0 2.241-.925 3.109-2.774 3.109-1.951.001-2.749-.993-2.791-2.898zm7.363-4.021a3.173 3.173 0 113.194 3.152h-.042a3.081 3.081 0 01-3.152-3.008q-.002-.072 0-.144zm5.743 0a2.57 2.57 0 10-2.591 2.592 2.519 2.519 0 002.591-2.445v-.147zm7.785-3.025v6.035h-.6v-1.568a2.544 2.544 0 01-2.466 1.708 2.268 2.268 0 01-1.806-.728 2.754 2.754 0 01-.617-1.933v-3.516h.6v3.361c0 1.289.616 2.27 1.988 2.27a2.413 2.413 0 002.3-2.521v-3.11zm5.962.561a1.849 1.849 0 00-.6-.084c-1.61 0-2.312 1.484-2.312 2.829v2.729h-.587v-6.037h.587v1.667a2.433 2.433 0 012.312-1.766 1.534 1.534 0 01.6.1zm-245.825 16.98a2.741 2.741 0 012.62-1.682 3.159 3.159 0 010 6.318 2.74 2.74 0 01-2.62-1.681v5.309h-.588v-9.805h.588zm0 1.471a2.578 2.578 0 102.606-2.592 2.524 2.524 0 00-2.606 2.44.772.772 0 000 .152zm7.616-6.777h.588v5.337a2.56 2.56 0 012.466-1.709 2.279 2.279 0 011.821.729 2.729 2.729 0 01.6 1.934v3.509h-.588v-3.361c0-1.276-.616-2.256-1.989-2.256a2.4 2.4 0 00-2.315 2.482v3.135h-.588zm7.21 6.79a3.173 3.173 0 113.194 3.152h-.042a3.081 3.081 0 01-3.152-3.008q-.002-.072 0-.144zm5.744 0a2.571 2.571 0 10-2.592 2.592 2.52 2.52 0 002.592-2.446v-.146zm2.461-3.025h.587v1.568a2.56 2.56 0 012.466-1.709 2.286 2.286 0 011.822.729 2.734 2.734 0 01.6 1.934v3.513h-.588v-3.361c0-1.276-.616-2.256-1.989-2.256a2.4 2.4 0 00-2.315 2.482v3.135h-.587zm7.864 3.081a2.341 2.341 0 002.1 2.555 2.4 2.4 0 00.306.009 2.032 2.032 0 002.045-1.3h.616a2.586 2.586 0 01-2.661 1.835 2.906 2.906 0 01-3-3.165 2.871 2.871 0 012.571-3.141 3.079 3.079 0 01.384-.012 2.717 2.717 0 012.787 2.643v.057a3.886 3.886 0 01-.028.517zm.014-.5h4.552a2.161 2.161 0 00-2.091-2.227h-.122a2.225 2.225 0 00-2.333 2.111v.112zm10.713-2.581h.588v1.568a2.56 2.56 0 012.465-1.709 2.279 2.279 0 011.821.729 2.729 2.729 0 01.6 1.934v3.513h-.589v-3.361c0-1.276-.616-2.256-1.988-2.256a2.4 2.4 0 00-2.315 2.482v3.135h-.588zm13.135 0v6.035h-.6v-1.568a2.544 2.544 0 01-2.466 1.708 2.27 2.27 0 01-1.807-.728 2.764 2.764 0 01-.616-1.933v-3.516h.6v3.361c0 1.289.617 2.27 1.989 2.27a2.413 2.413 0 002.3-2.521v-3.11zm10.711 6.035v-3.641c0-1.457-.727-1.976-1.624-1.976-1.261 0-1.905 1.219-1.905 2.563v3.054h-.589v-3.4c0-1.778-.784-2.213-1.639-2.213-1.232 0-1.9 1.219-1.9 2.563v3.05h-.588v-6.037h.588v1.583a2.1 2.1 0 012.018-1.724 1.852 1.852 0 012 1.695v.056a2.207 2.207 0 012.116-1.751c1.176 0 2.115.645 2.115 2.382v3.8zm3.527 0h-.587v-9.8h.587v5.31a2.741 2.741 0 012.62-1.682 3.159 3.159 0 010 6.318 2.751 2.751 0 01-2.62-1.666zm5.155-3.012a2.578 2.578 0 10-2.564 2.592h.015a2.509 2.509 0 002.547-2.47v-.12zm2.513.058a2.34 2.34 0 002.1 2.555 2.417 2.417 0 00.307.009 2.032 2.032 0 002.044-1.3h.617a2.587 2.587 0 01-2.661 1.835 2.906 2.906 0 01-3-3.165 2.871 2.871 0 012.573-3.141 3.058 3.058 0 01.383-.012 2.717 2.717 0 012.787 2.643v.057a3.717 3.717 0 01-.029.517zm.015-.5h4.552a2.161 2.161 0 00-2.091-2.227h-.122a2.225 2.225 0 00-2.336 2.108v.115zm10.617-2.02a1.849 1.849 0 00-.6-.084c-1.612 0-2.312 1.484-2.312 2.829v2.729h-.588v-6.037h.588v1.667a2.431 2.431 0 012.312-1.766 1.534 1.534 0 01.6.1zm7.99 5.474a6.539 6.539 0 01-1.008.084c-.841 0-1.751-.2-1.751-2.087v-3.5H293.1v-.532h1.331V321.7h.588v2.466h1.947v.532h-1.947v3.418c0 1.429.588 1.611 1.26 1.611a6.464 6.464 0 00.911-.07zm.544-3.01a3.173 3.173 0 113.194 3.152h-.042a3.081 3.081 0 01-3.152-3.008v-.144zm5.744 0a2.571 2.571 0 10-2.592 2.592 2.52 2.52 0 002.592-2.446 3.553 3.553 0 000-.146zm5.622-3.025l2.4 5.211 2.424-5.211h.643l-2.829 6.037h-.476l-2.8-6.037zm6.554 3.081a2.339 2.339 0 002.1 2.554 2.245 2.245 0 00.307.01 2.032 2.032 0 002.045-1.3h.617a2.586 2.586 0 01-2.662 1.835 2.906 2.906 0 01-3-3.165 2.871 2.871 0 012.573-3.141 3.058 3.058 0 01.383-.012 2.717 2.717 0 012.787 2.643v.057a3.886 3.886 0 01-.028.517zm.014-.5h4.553a2.161 2.161 0 00-2.091-2.227h-.122a2.226 2.226 0 00-2.337 2.109v.114zm10.614-2.02a1.849 1.849 0 00-.6-.084c-1.611 0-2.312 1.484-2.312 2.829v2.729h-.588v-6.037h.588v1.667a2.433 2.433 0 012.312-1.766 1.534 1.534 0 01.6.1zm1.552-3.713a.694.694 0 11-.687.7.693.693 0 01.686-.7zm-.294 3.152h.588v6.035h-.588zm6.245-3.165a1.837 1.837 0 00-.812-.14c-.575 0-1.246.182-1.246 1.583v1.723h2.058v.532h-2.058v5.5h-.589v-5.5H329.7v-.532h1.443v-1.681c0-1.947 1.037-2.172 1.793-2.172a2.152 2.152 0 01.854.155zM335 331.211h.588c.07 1.555.658 2.367 2.213 2.367 1.428 0 2.172-.673 2.172-2.577v-2.367a2.521 2.521 0 01-2.438 1.708 2.289 2.289 0 01-1.877-.686 2.843 2.843 0 01-.574-2.088v-3.4h.588v3.264c0 1.47.462 2.367 2.031 2.367a2.393 2.393 0 002.274-2.5v-3.126h.588V331c0 2.241-.925 3.109-2.774 3.109-1.949.001-2.747-.993-2.791-2.898zm11.468 0h.588c.07 1.555.658 2.367 2.213 2.367 1.428 0 2.171-.673 2.171-2.577v-2.367a2.52 2.52 0 01-2.44 1.708 2.289 2.289 0 01-1.877-.686 2.843 2.843 0 01-.574-2.088v-3.4h.588v3.264c0 1.47.462 2.367 2.031 2.367a2.393 2.393 0 002.273-2.506v-3.125h.588V331c0 2.241-.924 3.109-2.773 3.109-1.948.001-2.746-.993-2.788-2.898zm7.363-4.021a3.173 3.173 0 113.194 3.152h-.042a3.081 3.081 0 01-3.152-3.008q-.002-.072 0-.144zm5.743 0a2.57 2.57 0 10-2.591 2.592 2.52 2.52 0 002.591-2.447 3.505 3.505 0 000-.145zm7.784-3.025v6.035h-.6v-1.568a2.544 2.544 0 01-2.466 1.708 2.272 2.272 0 01-1.807-.728 2.764 2.764 0 01-.616-1.933v-3.516h.6v3.361c0 1.289.616 2.27 1.988 2.27a2.413 2.413 0 002.3-2.521v-3.11zm5.963.561a1.849 1.849 0 00-.6-.084c-1.611 0-2.312 1.484-2.312 2.829v2.729h-.588v-6.037h.588v1.667a2.433 2.433 0 012.312-1.766 1.534 1.534 0 01.6.1zm10.599-.561v6.035h-.6v-1.526a2.729 2.729 0 01-2.6 1.666 3.159 3.159 0 010-6.318 2.72 2.72 0 012.6 1.682v-1.541zm-.6 3.025a2.57 2.57 0 10-2.591 2.592 2.519 2.519 0 002.589-2.447v-.145zm7.74-.826a1.968 1.968 0 00-2.122-1.8c-.031 0-.061 0-.091.009a2.612 2.612 0 00.028 5.211 2 2 0 002.213-1.653h.6a2.563 2.563 0 01-2.843 2.213 3.163 3.163 0 010-6.318 2.529 2.529 0 012.8 2.22c0 .04.008.08.011.12zm7.196 0a1.97 1.97 0 00-2.124-1.8c-.03 0-.06 0-.089.009a2.612 2.612 0 00.027 5.211 2 2 0 002.214-1.653h.6a2.561 2.561 0 01-2.843 2.213 3.163 3.163 0 010-6.318 2.529 2.529 0 012.8 2.22c0 .04.008.08.011.12zm1.915.826a3.173 3.173 0 113.194 3.152h-.042a3.081 3.081 0 01-3.152-3.008v-.144zm5.743 0a2.571 2.571 0 10-2.591 2.592 2.52 2.52 0 002.591-2.447 3.505 3.505 0 000-.145zm7.786-3.025v6.035h-.6v-1.568a2.545 2.545 0 01-2.465 1.708 2.27 2.27 0 01-1.807-.728 2.765 2.765 0 01-.617-1.933v-3.516h.6v3.361c0 1.289.616 2.27 1.989 2.27a2.413 2.413 0 002.3-2.521v-3.11zm2.459 0h.588v1.568a2.557 2.557 0 012.466-1.709 2.279 2.279 0 011.821.729 2.734 2.734 0 01.6 1.934v3.513h-.588v-3.361c0-1.276-.616-2.256-1.989-2.256a2.4 2.4 0 00-2.315 2.482v3.135h-.588zm10.95 6.035a6.539 6.539 0 01-1.008.084c-.841 0-1.751-.2-1.751-2.087v-3.5h-1.331v-.532h1.331V321.7h.588v2.466h1.947v.532h-1.947v3.418c0 1.429.588 1.611 1.26 1.611a6.464 6.464 0 00.911-.07zm10.641-6.035v6.035h-.6v-1.526a2.728 2.728 0 01-2.6 1.666 3.159 3.159 0 010-6.318 2.72 2.72 0 012.6 1.682v-1.541zm-.6 3.025a2.57 2.57 0 10-2.59 2.592 2.519 2.519 0 002.587-2.449v-.143zm3.061-3.025h.588v1.568a2.557 2.557 0 012.466-1.709 2.283 2.283 0 011.821.729 2.734 2.734 0 01.6 1.934v3.513h-.586v-3.361c0-1.276-.617-2.256-1.99-2.256a2.4 2.4 0 00-2.314 2.483v3.134h-.588zm12.953 4.511a2.729 2.729 0 01-2.6 1.666 3.159 3.159 0 010-6.318 2.72 2.72 0 012.6 1.682V320.4h.6v9.8h-.6zm0-1.486a2.571 2.571 0 10-2.592 2.592 2.52 2.52 0 002.592-2.446 3.553 3.553 0 000-.146zM204.455 346.2a6.562 6.562 0 01-1.009.084c-.84 0-1.751-.2-1.751-2.087v-3.5h-1.33v-.532h1.33V337.7h.589v2.466h1.947v.532h-1.947v3.418c0 1.429.588 1.611 1.261 1.611a6.439 6.439 0 00.91-.07zm.545-3.01a3.173 3.173 0 113.194 3.152h-.042a3.081 3.081 0 01-3.152-3.008v-.144zm5.743 0a2.57 2.57 0 10-2.591 2.592 2.52 2.52 0 002.59-2.448v-.144zm10.736-.826a1.967 1.967 0 00-2.119-1.8l-.093.01a2.612 2.612 0 00.028 5.211 2 2 0 002.213-1.653h.6a2.563 2.563 0 01-2.843 2.213 3.163 3.163 0 010-6.318 2.529 2.529 0 012.8 2.22c.005.04.008.08.011.12zm1.921.826a3.173 3.173 0 113.194 3.152h-.042a3.081 3.081 0 01-3.152-3.008v-.144zm5.743 0a2.571 2.571 0 10-2.591 2.592 2.52 2.52 0 002.586-2.452v-.14zm2.457-3.025h.588v1.568a2.558 2.558 0 012.464-1.709 2.286 2.286 0 011.822.729 2.734 2.734 0 01.6 1.934v3.513h-.589v-3.361c0-1.276-.616-2.256-1.988-2.256a2.4 2.4 0 00-2.314 2.483v3.134h-.583zm11-3.165a1.823 1.823 0 00-.812-.14c-.574 0-1.246.182-1.246 1.583v1.723h2.058v.532h-2.058v5.5h-.589v-5.5h-1.442v-.532h1.442v-1.681c0-1.947 1.037-2.172 1.793-2.172a2.152 2.152 0 01.854.155zm1.7.042a.673.673 0 11-.673.673.664.664 0 01.654-.674h.019zm-.294 3.124h.588v6.034h-.588zm6.635.56a1.849 1.849 0 00-.6-.084c-1.611 0-2.311 1.484-2.311 2.829v2.729h-.588v-6.037h.588v1.667a2.428 2.428 0 012.311-1.766 1.534 1.534 0 01.6.1zm9.508 5.474v-3.641c0-1.457-.728-1.976-1.625-1.976-1.26 0-1.9 1.219-1.9 2.563v3.054h-.588v-3.4c0-1.778-.784-2.213-1.638-2.213-1.234 0-1.906 1.219-1.906 2.563v3.05h-.592v-6.037h.588v1.583a2.1 2.1 0 012.017-1.724 1.854 1.854 0 012 1.7v.051a2.2 2.2 0 012.115-1.751c1.176 0 2.114.645 2.114 2.382v3.8zm7.122-4.494a2.74 2.74 0 012.62-1.682 3.159 3.159 0 010 6.318 2.74 2.74 0 01-2.62-1.681v5.309h-.588v-9.805h.588zm0 1.471a2.578 2.578 0 102.6-2.592 2.523 2.523 0 00-2.6 2.444 3.651 3.651 0 000 .148zm12.939-3.012v6.035h-.6v-1.568a2.543 2.543 0 01-2.465 1.708 2.27 2.27 0 01-1.807-.728 2.764 2.764 0 01-.616-1.933v-3.516h.6v3.361c0 1.289.617 2.27 1.989 2.27a2.413 2.413 0 002.3-2.521v-3.11zm5.963.561a1.849 1.849 0 00-.6-.084c-1.61 0-2.311 1.484-2.311 2.829v2.729h-.588v-6.037h.588v1.667a2.432 2.432 0 012.311-1.766 1.534 1.534 0 01.6.1zm5.936 1.638a1.968 1.968 0 00-2.122-1.8c-.031 0-.061 0-.091.009a2.612 2.612 0 00.028 5.211 2 2 0 002.214-1.653h.6a2.561 2.561 0 01-2.843 2.213 3.163 3.163 0 010-6.318 2.53 2.53 0 012.805 2.221c0 .04.008.079.011.119zm2.591-5.964h.588v5.337a2.559 2.559 0 012.465-1.709 2.279 2.279 0 011.821.729 2.729 2.729 0 01.6 1.934v3.509h-.589v-3.361c0-1.276-.616-2.256-1.988-2.256a2.4 2.4 0 00-2.315 2.482v3.135h-.582zm13.552 3.765v6.035h-.6v-1.526a2.728 2.728 0 01-2.6 1.666 3.159 3.159 0 010-6.318 2.72 2.72 0 012.6 1.682v-1.541zm-.6 3.025a2.57 2.57 0 10-2.59 2.592 2.519 2.519 0 002.587-2.449v-.143zm7.348 1.415c0 1.107-.84 1.737-2.3 1.737-1.387 0-2.55-.63-2.55-2.185h.589c0 1.219.882 1.667 1.975 1.667s1.709-.448 1.709-1.19c0-.925-.939-1.051-2.059-1.289-1.065-.21-2.017-.42-2.017-1.612 0-1.091.9-1.709 2.2-1.709 1.358 0 2.353.715 2.353 2h-.588c0-.98-.714-1.485-1.751-1.485-.981 0-1.639.435-1.639 1.2 0 .826.757.966 1.919 1.2 1.094.238 2.159.434 2.159 1.666zm2.279-7.592a.694.694 0 01.053 1.387.469.469 0 01-.053 0 .694.694 0 010-1.387zm-.294 3.152h.588v6.035h-.588zm3.052 0h.588v1.568a2.557 2.557 0 012.465-1.709 2.279 2.279 0 011.821.729 2.734 2.734 0 01.6 1.934v3.513h-.589v-3.361c0-1.276-.616-2.256-1.988-2.256a2.4 2.4 0 00-2.315 2.482v3.135h-.588zm13.555 6.598c0 2.451-1.219 3.347-3.222 3.347a2.8 2.8 0 01-3.054-2.941h.588a2.264 2.264 0 002.132 2.387 2.328 2.328 0 00.334-.006c1.639 0 2.619-.729 2.619-2.787v-2.1a2.72 2.72 0 01-2.6 1.681 3.159 3.159 0 010-6.318 2.718 2.718 0 012.6 1.682v-1.541h.6zm-5.743-3.586a2.57 2.57 0 102.549-2.592 2.51 2.51 0 00-2.55 2.469c-.001.046 0 .082.001.123zm17.53-3.012v6.035h-.6v-1.526a2.729 2.729 0 01-2.6 1.666 3.159 3.159 0 010-6.318 2.72 2.72 0 012.6 1.682v-1.541zm-.6 3.025a2.57 2.57 0 10-2.591 2.592 2.519 2.519 0 002.589-2.447v-.145zm3.062-3.025h.588v1.568a2.557 2.557 0 012.465-1.709 2.283 2.283 0 011.821.729 2.734 2.734 0 01.6 1.934v3.513h-.588v-3.361c0-1.276-.617-2.256-1.989-2.256a2.4 2.4 0 00-2.314 2.483v3.134h-.588zm12.952 4.511a2.728 2.728 0 01-2.605 1.666 3.159 3.159 0 010-6.318 2.72 2.72 0 012.605 1.682V336.4h.6v9.8h-.6zm0-1.486a2.571 2.571 0 10-2.591 2.592 2.52 2.52 0 002.591-2.447 3.505 3.505 0 000-.145zm10.947 1.415c0 1.107-.84 1.737-2.3 1.737-1.386 0-2.549-.63-2.549-2.185h.588c0 1.219.882 1.667 1.975 1.667s1.709-.448 1.709-1.19c0-.925-.938-1.051-2.059-1.289-1.065-.21-2.017-.42-2.017-1.612 0-1.091.9-1.709 2.2-1.709 1.358 0 2.354.715 2.354 2h-.589c0-.98-.714-1.485-1.751-1.485-.981 0-1.639.435-1.639 1.2 0 .826.757.966 1.919 1.2 1.095.238 2.159.434 2.159 1.666zm2.042-1.359a2.339 2.339 0 002.1 2.554 2.245 2.245 0 00.307.01 2.032 2.032 0 002.045-1.3h.617a2.588 2.588 0 01-2.662 1.835 2.906 2.906 0 01-3-3.165 2.871 2.871 0 012.573-3.141 3.058 3.058 0 01.383-.012 2.716 2.716 0 012.787 2.643v.057a3.886 3.886 0 01-.028.517zm.014-.5h4.553a2.161 2.161 0 00-2.093-2.227h-.12a2.225 2.225 0 00-2.333 2.113v.11zm7.112-6.346h.588v9.8h-.588zm3.052 0h.588v9.8h-.588zm3.346.613a.694.694 0 11-.687.7.694.694 0 01.687-.7zm-.294 3.152h.588v6.035h-.588zm3.051 0h.588v1.568a2.56 2.56 0 012.465-1.709 2.286 2.286 0 011.822.729 2.734 2.734 0 01.6 1.934v3.513h-.589v-3.361c0-1.276-.616-2.256-1.988-2.256a2.4 2.4 0 00-2.315 2.482v3.135h-.588zm13.555 6.598c0 2.451-1.219 3.347-3.222 3.347a2.8 2.8 0 01-3.053-2.941h.588a2.264 2.264 0 002.132 2.387 2.314 2.314 0 00.333-.006c1.639 0 2.62-.729 2.62-2.787v-2.1a2.721 2.721 0 01-2.606 1.681 3.159 3.159 0 010-6.318 2.723 2.723 0 012.606 1.682v-1.541h.6zm-5.743-3.586a2.571 2.571 0 102.55-2.592 2.511 2.511 0 00-2.551 2.47c-.001.045 0 .081.001.122zm17.531-3.012v6.035h-.6v-1.526a2.732 2.732 0 01-2.606 1.666 3.159 3.159 0 010-6.318 2.723 2.723 0 012.606 1.682v-1.541zm-.6 3.025a2.571 2.571 0 10-2.591 2.592 2.52 2.52 0 002.585-2.453v-.139zm7.739-.826a1.968 1.968 0 00-2.122-1.8c-.031 0-.061 0-.091.009a2.612 2.612 0 00.028 5.211 2 2 0 002.213-1.653h.6a2.564 2.564 0 01-2.844 2.213 3.163 3.163 0 010-6.318 2.529 2.529 0 012.8 2.22c0 .04.008.08.011.12zm5.726 3.836a6.562 6.562 0 01-1.009.084c-.84 0-1.751-.2-1.751-2.087v-3.5h-1.33v-.532h1.33V337.7h.589v2.466h1.947v.532H426.1v3.418c0 1.429.588 1.611 1.26 1.611a6.464 6.464 0 00.911-.07zm1.594-9.187a.694.694 0 11.053 1.387.469.469 0 01-.053 0 .694.694 0 010-1.387zm-.294 3.152h.588v6.035h-.588zm2.617 0l2.4 5.211 2.423-5.211h.644l-2.83 6.037h-.475l-2.8-6.037zm7.14-3.152a.694.694 0 11-.686.7.693.693 0 01.686-.7zm-.294 3.152h.588v6.035h-.588zm6.19 6.035a6.562 6.562 0 01-1.009.084c-.84 0-1.751-.2-1.751-2.087v-3.5h-1.33v-.532h1.33V337.7h.589v2.466H445v.532h-1.947v3.418c0 1.429.588 1.611 1.26 1.611a6.464 6.464 0 00.911-.07zm1.202 1.011h.589c.069 1.555.658 2.367 2.213 2.367 1.428 0 2.17-.673 2.17-2.577v-2.367a2.518 2.518 0 01-2.437 1.708 2.289 2.289 0 01-1.877-.686 2.847 2.847 0 01-.574-2.088v-3.4h.589v3.264c0 1.47.462 2.367 2.03 2.367a2.392 2.392 0 002.273-2.5v-3.127h.589V347c0 2.241-.924 3.109-2.773 3.109-1.951.001-2.75-.993-2.792-2.898zm8.148-2.325a.686.686 0 11-.686.686.686.686 0 01.686-.686z" fill="#222"/></g></g></svg>