<svg xmlns="http://www.w3.org/2000/svg" viewBox="0 0 285.795 54.5">
  <title>Artboard 15</title>
  <g id="grid">
    <g id="Specified">
      <g id="case-small-320-measured-copy">
        <g id="Group-11">
          <path id="Abcdefghijklmnopqrst" d="M12.265,16.221H10.611l-.988-2.872H2.638l-.987,2.872H0L5.533.138H6.728Zm-3.124-4.3L6.131,2.642l-3.01,9.282Zm6.362,2.16v2.137H14.01V.138H15.5V8.2a4.266,4.266,0,0,1,3.952-2.389,5.175,5.175,0,0,1,5.261,5.33,5.188,5.188,0,0,1-5.261,5.33A4.3,4.3,0,0,1,15.5,14.084ZM19.386,15.1a3.8,3.8,0,0,0,3.837-3.952,3.862,3.862,0,1,0-7.72,0A3.809,3.809,0,0,0,19.386,15.1Zm16.931-5.33H34.824c-.161-1.425-1.057-2.62-3.24-2.62C29.218,7.145,28,9.052,28,11.12c0,2.114,1.172,3.975,3.653,3.975a2.918,2.918,0,0,0,3.217-2.367h1.493c-.321,2.091-1.838,3.745-4.8,3.745-3.308,0-5.077-2.573-5.077-5.353,0-2.757,1.769-5.33,5.077-5.33C34.824,5.79,36.157,7.789,36.317,9.765Zm11.05,6.456V14.084a4.3,4.3,0,0,1-3.952,2.389,5.188,5.188,0,0,1-5.261-5.33,5.175,5.175,0,0,1,5.261-5.33A4.266,4.266,0,0,1,47.367,8.2V.138H48.86V16.221ZM43.484,15.1a3.808,3.808,0,0,0,3.883-3.952,3.862,3.862,0,1,0-7.72,0A3.8,3.8,0,0,0,43.484,15.1Zm13-8.11a3.233,3.233,0,0,0-3.447,3.308h6.732A3.179,3.179,0,0,0,56.487,6.985Zm4.687,4.48H53.017c.069,1.976,1.08,3.7,3.584,3.7A2.9,2.9,0,0,0,59.588,13.3h1.517a4.322,4.322,0,0,1-4.5,3.17c-3.423,0-5.077-2.458-5.077-5.353,0-3.033,1.815-5.307,5.009-5.307a4.567,4.567,0,0,1,4.709,4.549A7.243,7.243,0,0,1,61.174,11.465ZM69.581.276V1.562a3.176,3.176,0,0,0-1.241-.206c-.9,0-1.93.183-1.93,2.274V6.043h3.171V7.329H66.41v8.892H64.917V7.329H62.6V6.043h2.321V3.768c0-3.492,2-3.768,3.239-3.768A3.1,3.1,0,0,1,69.581.276Zm5.88,6.892a3.8,3.8,0,0,0-3.837,3.952,3.862,3.862,0,1,0,7.72,0A3.808,3.808,0,0,0,75.461,7.168Zm5.376-1.125V17c0,3.883-2.044,5.353-5.445,5.353-3.538,0-5.009-2.228-5.146-4.687h1.516A3.306,3.306,0,0,0,75.392,21c2.459,0,3.952-1.08,3.952-4V14.061a4.285,4.285,0,0,1-3.952,2.412,5.194,5.194,0,0,1-5.261-5.353,5.169,5.169,0,0,1,5.261-5.307A4.266,4.266,0,0,1,79.344,8.2V6.043Zm3.468,10.178V.138H85.8v8.11a4.017,4.017,0,0,1,3.86-2.435,3.728,3.728,0,0,1,3.056,1.263,4.751,4.751,0,0,1,.9,3.171v5.974H92.117V10.684c0-2-.85-3.539-2.964-3.539-2.252,0-3.355,1.976-3.355,3.86v5.216Zm12.612,0V6.043H98.41V16.221ZM96.3,2.068a1.369,1.369,0,0,1,1.355-1.4,1.394,1.394,0,0,1,1.4,1.4,1.369,1.369,0,0,1-1.4,1.355A1.343,1.343,0,0,1,96.3,2.068Zm7.4,3.975V19.322c0,2.091-1.011,2.987-2.252,2.987a4.237,4.237,0,0,1-1.7-.275v-1.31a2.666,2.666,0,0,0,1.149.253c.827,0,1.309-.6,1.309-1.746V6.043Zm-2.114-3.975a1.369,1.369,0,0,1,1.356-1.4,1.393,1.393,0,0,1,1.4,1.4,1.368,1.368,0,0,1-1.4,1.355A1.343,1.343,0,0,1,101.581,2.068Zm13.853,3.975-5.032,5.1,5.032,5.078h-1.953L108.7,11.465v4.756h-1.494V.138H108.7V10.821l4.779-4.778Zm1.928,10.178V.138h1.493V16.221Zm20.033,0h-1.516v-6c0-2.137-.988-3.079-2.413-3.079-1.792,0-2.826,1.586-2.826,3.906v5.17h-1.516V10.5c0-2.527-1.011-3.355-2.413-3.355-1.769,0-2.849,1.586-2.849,3.906v5.17h-1.493V6.043h1.493V8.271a3.294,3.294,0,0,1,3.194-2.458,3.007,3.007,0,0,1,3.308,2.527,3.562,3.562,0,0,1,3.424-2.527c2.366,0,3.607,1.424,3.607,4Zm3.33,0V6.043h1.493v2.2a4.016,4.016,0,0,1,3.86-2.435,3.729,3.729,0,0,1,3.056,1.263,4.751,4.751,0,0,1,.9,3.171v5.974h-1.494V10.684c0-2-.85-3.539-2.963-3.539-2.252,0-3.355,1.976-3.355,3.86v5.216Zm17.023.252a5.2,5.2,0,0,1-5.33-5.33,5.353,5.353,0,0,1,10.706,0A5.216,5.216,0,0,1,157.748,16.473Zm0-1.378a3.809,3.809,0,0,0,3.883-3.952,3.862,3.862,0,1,0-7.72,0A3.8,3.8,0,0,0,157.748,15.1Zm9.464-9.052V8.2a4.266,4.266,0,0,1,3.952-2.389,5.169,5.169,0,0,1,5.261,5.307,5.194,5.194,0,0,1-5.261,5.353,4.285,4.285,0,0,1-3.952-2.412v8.064h-1.493V6.043ZM171.1,7.168a3.809,3.809,0,0,0-3.883,3.952,3.862,3.862,0,1,0,7.72,0A3.8,3.8,0,0,0,171.1,7.168ZM187.36,8.2V6.043h1.494V22.125H187.36V14.061a4.285,4.285,0,0,1-3.952,2.412,5.194,5.194,0,0,1-5.261-5.353,5.17,5.17,0,0,1,5.261-5.307A4.266,4.266,0,0,1,187.36,8.2Zm-3.883-1.034a3.8,3.8,0,0,0-3.837,3.952,3.862,3.862,0,1,0,7.72,0A3.808,3.808,0,0,0,183.477,7.168Zm14.979-1.1V7.444a2.886,2.886,0,0,0-.965-.138c-2.482,0-3.63,2.022-3.63,4.389v4.526h-1.494V6.043h1.494V8.432a3.823,3.823,0,0,1,3.63-2.527A2.426,2.426,0,0,1,198.456,6.066Zm5.466,4.6c1.677.413,3.309.827,3.309,2.826,0,1.953-1.563,2.986-3.929,2.986-2.3,0-4.251-1.148-4.251-3.7h1.471c0,1.815,1.24,2.459,2.849,2.459,1.516,0,2.435-.6,2.435-1.723,0-1.333-1.4-1.494-3.354-2.045-1.677-.414-3.079-.85-3.079-2.757,0-1.884,1.608-2.9,3.768-2.9,2.229,0,3.929,1.286,3.929,3.377H205.6c0-1.4-.942-2.159-2.481-2.159-1.333,0-2.275.62-2.275,1.7C200.843,9.948,201.969,10.132,203.922,10.661Zm11.027,4.2v1.356a11.349,11.349,0,0,1-1.723.138c-1.333,0-3.1-.276-3.1-3.539V7.329h-2.045V6.043h2.045V2.275h1.516V6.043h2.941V7.329H211.64v5.193c0,2.182.8,2.458,1.884,2.458A9.409,9.409,0,0,0,214.949,14.865Zm9.395-8.822h1.494V16.221h-1.494V14.015a4.032,4.032,0,0,1-3.86,2.458,3.775,3.775,0,0,1-3.056-1.286,4.747,4.747,0,0,1-.9-3.171V6.043h1.517V11.58c0,2,.827,3.538,2.941,3.538,2.251,0,3.354-1.976,3.354-3.86Zm3.261,0h1.631l3.584,8.064,3.631-8.064h1.631l-4.733,10.178h-1.08Zm21.572,10.178-3.032-8.5-3.01,8.5h-1.08L238.126,6.043h1.608l2.849,7.9,2.826-7.9H246.9l2.8,7.9,2.872-7.9h1.608l-3.929,10.178Zm10.751-5.1,3.584,5.1h-1.746l-2.711-3.952-2.711,3.952H254.6l3.584-5.1-3.561-5.077h1.746l2.688,3.905,2.688-3.9h1.724ZM270.2,22.355c-3.079,0-4.664-1.562-4.733-4.641h1.516c.115,2.206,1.126,3.355,3.24,3.355,2.068,0,3.239-.919,3.239-3.654v-3.4a3.967,3.967,0,0,1-3.814,2.458,3.74,3.74,0,0,1-3.124-1.24,4.782,4.782,0,0,1-.873-3.332V6.043h1.516v5.422c0,2.205.666,3.653,2.964,3.653,2.251,0,3.331-1.976,3.331-3.86V6.043h1.494V17.415C274.953,20.908,273.321,22.355,270.2,22.355Zm7.121-16.312h8.454l-6.088,8.822H285.8v1.356h-8.707L283.176,7.4h-5.858ZM1.145,45.389v-6a5.179,5.179,0,0,1,5.33-5.33,5.2,5.2,0,0,1,5.377,5.33v6A5.2,5.2,0,0,1,6.475,50.7,5.173,5.173,0,0,1,1.145,45.389Zm9.121,0v-6a3.722,3.722,0,0,0-3.791-3.905,3.718,3.718,0,0,0-3.768,3.905v6a3.712,3.712,0,0,0,3.768,3.883A3.717,3.717,0,0,0,10.266,45.389Zm3.307-7.1V37c2.826,0,3.332-.735,3.332-2.665H18.4V50.421H16.79V38.29Zm7.512,12.131c0-5.055,1.608-6.548,4.755-7.927,1.907-.8,3.654-1.631,3.654-3.975,0-1.815-1.241-2.986-3.309-2.986a3.352,3.352,0,0,0-3.538,3.584H21.085a4.855,4.855,0,0,1,5.1-5.032c2.964,0,4.871,1.723,4.871,4.549,0,3.01-2.619,4.32-4.388,5.055-2.987,1.4-3.814,2.527-3.814,5.307h8.271v1.425Zm11.348-4.779h1.562a3.513,3.513,0,0,0,3.814,3.584c2.229,0,3.63-1.4,3.63-3.194,0-1.884-1.217-3.262-3.63-3.262H36.591v-1.4h1.218c2.229,0,3.332-1.217,3.332-2.963,0-1.793-1.333-2.872-3.332-2.872-2.252,0-3.423,1.286-3.423,3.17H32.823c0-2.734,1.976-4.618,4.894-4.618,2.872,0,4.986,1.723,4.986,4.32a3.568,3.568,0,0,1-2.8,3.676A3.854,3.854,0,0,1,43,46.009c0,2.757-2.229,4.664-5.262,4.664C34.776,50.673,32.433,48.744,32.433,45.642Zm19.275,4.779V44.907H45.6V34.338h1.562v9.144h4.55V38.405H53.27v5.077h2.619v1.425H53.27v5.514Zm6.477-6.847V34.338h9.19v1.424H59.633v6.273a4.264,4.264,0,0,1,3.745-1.953,4.947,4.947,0,0,1,5.146,5.261,5.354,5.354,0,0,1-10.707,0H59.4a3.78,3.78,0,1,0,3.745-3.86,3.426,3.426,0,0,0-3.309,2.091Zm17.483,7.1a5.2,5.2,0,0,1-5.33-5.33,5.8,5.8,0,0,1,.9-3.056l4.939-7.949h1.815l-3.951,6.18a2.474,2.474,0,0,1,1.631-.505,5.33,5.33,0,1,1,0,10.66Zm0-1.447A3.9,3.9,0,1,0,71.9,45.343,3.736,3.736,0,0,0,75.668,49.226Zm6.2-14.888h9.672L84.121,50.421H82.444l6.847-14.659H81.87ZM97.147,50.673c-3.286,0-5.308-2.044-5.308-4.664a3.858,3.858,0,0,1,2.987-3.951,3.515,3.515,0,0,1-2.665-3.585c0-2.481,1.884-4.388,4.986-4.388,3.078,0,4.962,1.93,4.962,4.388a3.515,3.515,0,0,1-2.665,3.585,3.875,3.875,0,0,1,2.987,3.951C102.431,48.583,100.409,50.673,97.147,50.673Zm0-9.167c2.136,0,3.4-1.286,3.4-2.964,0-1.7-1.31-3.009-3.4-3.009s-3.4,1.286-3.4,3.009C93.746,40.22,95.01,41.506,97.147,41.506Zm0,7.72c2.3,0,3.722-1.4,3.722-3.217,0-1.792-1.379-3.216-3.722-3.216-2.367,0-3.745,1.4-3.745,3.216C93.4,47.847,94.849,49.226,97.147,49.226ZM109.69,34.085a5.205,5.205,0,0,1,5.33,5.33,5.807,5.807,0,0,1-.9,3.056l-4.94,7.95h-1.815l3.952-6.181a2.024,2.024,0,0,1-1.448.506,5.333,5.333,0,1,1-.183-10.661Zm0,1.448a3.9,3.9,0,1,0,3.768,3.882A3.735,3.735,0,0,0,109.69,35.533Z"/>
        </g>
      </g>
    </g>
  </g>
</svg>
