<svg xmlns="http://www.w3.org/2000/svg" viewBox="0 0 285.795 30.581">
  <title>oxy-asset-concept</title>
  <g id="grid">
    <g id="Specified">
      <g id="case-small-320-measured-copy">
        <g id="Group-4">
          <path id="Shape" d="M141.894.045a14.122,14.122,0,0,0-13.918,14.318,13.924,13.924,0,1,0,27.837,0,14.532,14.532,0,0,0-4.077-10.125A13.723,13.723,0,0,0,141.894.045Zm6.226,22.3a9.733,9.733,0,0,1-12.263.147,10.422,10.422,0,0,1-3.089-12.209.666.666,0,0,1,.533-.4.655.655,0,0,1,.606.272.7.7,0,0,1,.074.677,9.034,9.034,0,0,0,2.679,10.583,8.437,8.437,0,0,0,10.63-.126.649.649,0,0,1,.665-.123.677.677,0,0,1,.423.542.69.69,0,0,1-.259.641Z" fill="#ccc"/>
          <g id="Group" opacity="0.195">
            <path id="_" data-name="+" d="M46.553,19.936v-3.29H43.325a1.274,1.274,0,0,1-1.251-1.3,1.289,1.289,0,0,1,1.251-1.3h3.228v-3.29a1.309,1.309,0,0,1,1.3-1.349,1.323,1.323,0,0,1,1.3,1.349v3.29h3.229a1.288,1.288,0,0,1,1.25,1.3,1.273,1.273,0,0,1-1.25,1.3H49.145v3.29a1.323,1.323,0,0,1-1.3,1.349A1.309,1.309,0,0,1,46.553,19.936Z"/>
            <path id="_2" data-name="=" d="M107.552,14.158a1.264,1.264,0,0,1,0-2.527h8.363a1.264,1.264,0,0,1,0,2.527Zm0,5.641a1.246,1.246,0,0,1-1.232-1.263,1.261,1.261,0,0,1,1.232-1.264h8.363a1.261,1.261,0,0,1,1.233,1.264,1.246,1.246,0,0,1-1.233,1.263Z"/>
            <path id="Fill-1" d="M87.707,12.5c0,.014,0,.028-.006.042a1.641,1.641,0,0,1-.008.242c-.009.061-.028.117-.042.176a11.95,11.95,0,0,1-4.537,7.885A11.546,11.546,0,0,1,66.729,18.5a12,12,0,0,1-2.241-5.534,1.651,1.651,0,0,1-.064-.512l0-.032h0a1.631,1.631,0,0,1,.628-1.225,1.579,1.579,0,0,1,2.242.32,1.65,1.65,0,0,1,.321.914h.008a8.734,8.734,0,0,0,1.646,4.112A8.4,8.4,0,0,0,81.2,18.25,8.7,8.7,0,0,0,84.5,12.489h.011a1.426,1.426,0,0,1,.006-.16A1.6,1.6,0,0,1,87.7,12.5Z" fill="#231f20" stroke="#fff" stroke-width="1.109"/>
            <ellipse id="Oval-5" cx="15.123" cy="14.439" rx="14.151" ry="14.439"/>
            <ellipse id="Oval-5-2" data-name="Oval-5" cx="15.123" cy="14.439" rx="11.222" ry="11.45" fill="none" stroke="#fff" stroke-width="0.629"/>
          </g>
        </g>
      </g>
    </g>
  </g>
</svg>
