<svg id="Layer_1" data-name="Layer 1" xmlns="http://www.w3.org/2000/svg" viewBox="0 0 280 225"><title>security-illustrations</title><line x1="56.876" y1="205.556" x2="247.656" y2="205.556" fill="#fff" stroke="#231f20" stroke-linecap="round" stroke-linejoin="round" stroke-width="3.314"/><line x1="36.675" y1="205.556" x2="49.616" y2="205.556" fill="#fff" stroke="#231f20" stroke-linecap="round" stroke-linejoin="round" stroke-width="3.314"/><path d="M179.555,102.97h58.926a0,0,0,0,1,0,0v72.4a0,0,0,0,1,0,0h-59.2a0,0,0,0,1,0,0V103.247A.276.276,0,0,1,179.555,102.97Z" fill="none"/><path d="M238.481,176h-59.2a.627.627,0,0,1-.626-.627V103.162a.819.819,0,0,1,.818-.818h59.011a.626.626,0,0,1,.626.626v72.4A.627.627,0,0,1,238.481,176ZM179.9,174.744h57.951V103.6H179.9Z" fill="#231f20"/><rect x="180.844" y="104.787" width="36.628" height="66.43" fill="#fff"/><path d="M217.471,171.53H180.844a.313.313,0,0,1-.313-.313v-66.43a.313.313,0,0,1,.313-.313h36.627a.313.313,0,0,1,.313.313v66.43A.313.313,0,0,1,217.471,171.53Zm-36.314-.626h36V105.1h-36Z" fill="#231f20"/><path d="M209.045,139.172a10.669,10.669,0,1,1-1.271-10.181" fill="#fff"/><path d="M199.127,146.373a11.136,11.136,0,1,1,9.027-17.657.469.469,0,1,1-.76.55A10.2,10.2,0,1,0,208.608,139a.47.47,0,1,1,.873.347A11.082,11.082,0,0,1,199.127,146.373Z" fill="#231f20"/><path d="M205.172,140.471a10.707,10.707,0,0,1-2.975,3.358" fill="#fff"/><path d="M202.2,144.142a.313.313,0,0,1-.186-.565,10.47,10.47,0,0,0,2.887-3.259.313.313,0,0,1,.546.307,11.106,11.106,0,0,1-3.062,3.456A.306.306,0,0,1,202.2,144.142Z" fill="#231f20"/><path d="M205.219,130.088a10.621,10.621,0,0,1,1.323,5.149,10.738,10.738,0,0,1-.164,1.876" fill="#fff"/><path d="M206.378,137.426a.262.262,0,0,1-.055,0,.312.312,0,0,1-.253-.363,10.4,10.4,0,0,0-1.125-6.818.313.313,0,1,1,.548-.3,11.024,11.024,0,0,1,1.193,7.231A.314.314,0,0,1,206.378,137.426Z" fill="#231f20"/><path d="M198.571,125.107h-2.556a.313.313,0,0,1-.313-.313v-6.138a.313.313,0,0,1,.313-.313h2.556a.313.313,0,0,1,.313.313v6.138A.313.313,0,0,1,198.571,125.107Zm-2.243-.626h1.93V118.97h-1.93Z" fill="#231f20"/><path d="M199.615,120.059h-4.539l-.811-11.881a2.113,2.113,0,0,1,2.109-2.258h1.855a2.114,2.114,0,0,1,2.11,2.243Z" fill="#fff"/><path d="M199.615,120.529h-4.539a.47.47,0,0,1-.469-.437L193.8,108.21a2.584,2.584,0,0,1,2.578-2.76h1.855a2.583,2.583,0,0,1,2.579,2.741l-.724,11.9A.47.47,0,0,1,199.615,120.529Zm-4.1-.939h3.658l.7-11.456a1.646,1.646,0,0,0-1.642-1.745h-1.855a1.645,1.645,0,0,0-1.641,1.757Z" fill="#231f20"/><rect x="185.766" y="141.541" width="2.557" height="6.138" transform="translate(217.049 379.125) rotate(-135)" fill="#fff"/><path d="M185.778,148a.311.311,0,0,1-.221-.091l-1.808-1.808a.313.313,0,0,1,0-.443l4.34-4.34a.314.314,0,0,1,.443,0l1.807,1.808a.312.312,0,0,1,0,.443l-4.34,4.34A.311.311,0,0,1,185.778,148Zm-1.365-2.121,1.365,1.365,3.9-3.9-1.365-1.365Z" fill="#231f20"/><path d="M184.224,144.147l3.21,3.209-7.828,8.975a2.113,2.113,0,0,1-3.088.105l-1.312-1.311a2.114,2.114,0,0,1,.094-3.078Z" fill="#fff"/><path d="M178.014,157.525a2.593,2.593,0,0,1-1.828-.756l-1.312-1.312a2.583,2.583,0,0,1,.115-3.762l8.924-7.9a.469.469,0,0,1,.643.019l3.21,3.21a.47.47,0,0,1,.022.641l-7.828,8.975a2.593,2.593,0,0,1-1.859.884Zm6.191-12.734-8.594,7.607a1.645,1.645,0,0,0-.073,2.4l1.312,1.312a1.645,1.645,0,0,0,2.4-.083l7.54-8.644Z" fill="#231f20"/><rect x="205.782" y="141.536" width="2.557" height="6.138" transform="translate(455.725 100.441) rotate(135)" fill="#fff"/><path d="M208.327,147.991a.311.311,0,0,1-.221-.091l-4.341-4.34a.315.315,0,0,1,0-.443l1.808-1.808a.323.323,0,0,1,.443,0l4.34,4.34a.314.314,0,0,1,0,.443l-1.808,1.808A.311.311,0,0,1,208.327,147.991Zm-3.9-4.653,3.9,3.9,1.365-1.365-3.9-3.9Z" fill="#231f20"/><path d="M206.6,147.424l3.21-3.21,8.974,7.828a2.115,2.115,0,0,1,.106,3.089l-1.312,1.311a2.114,2.114,0,0,1-3.078-.093Z" fill="#fff"/><path d="M216.083,157.531H216a2.563,2.563,0,0,1-1.857-.87l-7.9-8.924a.471.471,0,0,1,.02-.644l3.21-3.21a.47.47,0,0,1,.64-.022l8.975,7.828a2.585,2.585,0,0,1,.129,3.775l-1.312,1.311A2.557,2.557,0,0,1,216.083,157.531Zm-8.842-10.087,7.607,8.594a1.646,1.646,0,0,0,2.395.072l1.312-1.311a1.645,1.645,0,0,0-.082-2.4l-8.644-7.539Z" fill="#231f20"/><path d="M199.909,145.115a10.668,10.668,0,1,1,1.931-18.722" fill="#fff"/><path d="M195.876,146.373A11.136,11.136,0,1,1,202.1,126a.47.47,0,0,1-.526.778,10.2,10.2,0,1,0-1.846,17.9.47.47,0,0,1,.355.87A11.076,11.076,0,0,1,195.876,146.373Z" fill="#231f20"/><rect x="219.976" y="102.501" width="17.879" height="72.244" fill="#231f20"/><polygon points="151.338 92.295 161.018 120.84 187.439 111.881 193.166 109.821 180.01 70.87 158.072 78.309 147.843 81.815 151.338 92.295" fill="#fff" stroke="#212221" stroke-linecap="round" stroke-linejoin="round" stroke-width="1.803"/><path d="M181.963,76.629l-1.018,2.84a6.026,6.026,0,0,1-3.714,3.666l-19.793,6.8a6.028,6.028,0,0,1-5.163-.595l-2.286-1.436" fill="#fff" stroke="#212221" stroke-linecap="round" stroke-linejoin="round" stroke-width="1.803"/><circle cx="168.861" cy="89.859" r="1.087" transform="translate(-20.228 118.74) rotate(-36.704)" fill="#fff" stroke="#212221" stroke-linecap="round" stroke-linejoin="round" stroke-width="1.046"/><circle cx="166.027" cy="81.998" r="2.316" transform="translate(-16.091 115.488) rotate(-36.704)" fill="#fff" stroke="#212221" stroke-linecap="round" stroke-linejoin="round" stroke-width="1.803"/><line x1="168.309" y1="88.483" x2="166.953" y2="84.585" fill="#fff" stroke="#212221" stroke-linecap="round" stroke-linejoin="round" stroke-width="1.803"/><path d="M168.364,82.09a2.809,2.809,0,0,0,2.446.688" fill="#fff" stroke="#212221" stroke-linecap="round" stroke-linejoin="round" stroke-width="1.803"/><line x1="172.955" y1="179.012" x2="194.338" y2="179.012" fill="#fff" stroke="#231f20" stroke-linecap="round" stroke-linejoin="round" stroke-width="0.75"/><line x1="153.993" y1="182.048" x2="201.329" y2="182.048" fill="#fff" stroke="#231f20" stroke-linecap="round" stroke-linejoin="round" stroke-width="1.002"/><circle cx="177.058" cy="48.509" r="9.148" fill="#fff100" stroke="#212221" stroke-linecap="round" stroke-linejoin="round" stroke-width="0.511"/><circle cx="174.161" cy="47.812" r="9.148" fill="#fff100" stroke="#212221" stroke-linecap="round" stroke-linejoin="round" stroke-width="0.511"/><path d="M177.794,47.953a1.723,1.723,0,0,0,1.268-1.678c.109-1.322-.934-1.958-2.329-2.333l.319-1.8-1.093-.194-.314,1.752c-.289-.05-.586-.1-.88-.145l.317-1.768-1.1-.195-.319,1.8c-.24-.037-.475-.077-.7-.116v0L171.452,43l-.209,1.171s.8.126.8.142a.571.571,0,0,1,.544.593l-.882,4.939a.394.394,0,0,1-.477.289c.014.015-.8-.142-.8-.142l-.453,1.27,1.43.257c.264.046.523.1.782.148l-.326,1.818,1.1.2.319-1.8c.3.057.592.112.877.162l-.323,1.8,1.1.2.327-1.818c1.863.224,3.236-.01,3.707-1.711A1.9,1.9,0,0,0,177.794,47.953Zm-3.633-.777.383-2.16c.61.111,2.559.262,2.331,1.531C176.657,47.768,174.772,47.283,174.161,47.176Zm-.621,3.467.424-2.379c.734.131,3.065.333,2.814,1.73C176.541,51.338,174.269,50.773,173.54,50.643Z" fill="#fff100" stroke="#231f20" stroke-linecap="round" stroke-linejoin="round" stroke-width="0.511"/><circle cx="148.207" cy="130.013" r="12.023" fill="#fff100" stroke="#212221" stroke-linecap="round" stroke-linejoin="round" stroke-width="1.002"/><circle cx="145.444" cy="129.49" r="12.023" fill="#fff100" stroke="#212221" stroke-linecap="round" stroke-linejoin="round" stroke-width="1.002"/><path d="M149.174,129.282a2.265,2.265,0,0,0,1.666-2.206c.144-1.737-1.228-2.573-3.061-3.065l.419-2.369-1.436-.254-.413,2.3c-.379-.066-.771-.129-1.157-.191l.417-2.324-1.441-.255-.42,2.368c-.316-.049-.625-.1-.923-.152v-.006l-1.988-.359-.274,1.539s1.049.165,1.045.187a.752.752,0,0,1,.716.779l-1.16,6.491a.517.517,0,0,1-.627.38c.019.021-1.045-.186-1.045-.186l-.6,1.668,1.88.339c.347.06.687.13,1.027.194l-.429,2.389,1.441.261.419-2.368c.395.074.779.147,1.153.212l-.424,2.362,1.442.256.429-2.389c2.448.3,4.254-.014,4.872-2.249A2.5,2.5,0,0,0,149.174,129.282Zm-4.776-1.02.5-2.84c.8.146,3.363.344,3.064,2.013C147.679,129.039,145.2,128.4,144.4,128.262Zm-.816,4.556.557-3.127c.965.171,4.029.437,3.7,2.273C147.526,133.731,144.541,132.988,143.582,132.818Z" fill="#fff100" stroke="#231f20" stroke-linecap="round" stroke-linejoin="round" stroke-width="0.501"/><path d="M164.632,66.281l-10.2,45L103.622,99.77l2.783-12.285,11.164-49.263,34.585,7.836s-6.082,15.381-.517,16.579S164.632,66.281,164.632,66.281Z" fill="#fff" stroke="#212221" stroke-linecap="round" stroke-linejoin="round" stroke-width="2.003"/><polyline points="152.154 46.058 152.768 46.878 164.632 66.281" fill="#fff" stroke="#212221" stroke-linecap="round" stroke-linejoin="round" stroke-width="2.003"/><path d="M164.632,66.281s-7.43-2.446-13-3.644.517-16.579.517-16.579Z" fill="#fff" stroke="#212221" stroke-linecap="round" stroke-linejoin="round" stroke-width="2.003"/><polygon points="132.231 162.819 31.282 162.819 31.49 86.798 132.231 86.798 132.231 162.819" fill="#fff" stroke="#231f20" stroke-linecap="round" stroke-linejoin="round" stroke-width="2.003"/><line x1="77.378" y1="128.944" x2="78.981" y2="134.279" fill="#fff" stroke="#231f20" stroke-linecap="round" stroke-linejoin="round" stroke-width="1.503"/><line x1="67.589" y1="109.486" x2="72.762" y2="126.702" fill="#fff" stroke="#231f20" stroke-linecap="round" stroke-linejoin="round" stroke-width="1.503"/><polyline points="31.282 158.136 31.282 165.666 66.267 213.086 166.475 210.659 167.753 206.123 132.355 158.874" fill="#fff" stroke="#231f20" stroke-linecap="round" stroke-linejoin="round" stroke-width="2.003"/><line x1="68.717" y1="207.144" x2="167.47" y2="205.581" fill="#fff" stroke="#231f20" stroke-linecap="round" stroke-linejoin="round" stroke-width="1.002"/><line x1="66.179" y1="205.163" x2="31.282" y2="158.136" fill="#fff" stroke="#231f20" stroke-linecap="round" stroke-linejoin="round" stroke-width="1.002"/><polygon points="92.202 188.066 120.473 188.066 129.429 200.259 100.318 200.355 92.202 188.066" fill="#fff" stroke="#231f20" stroke-linecap="round" stroke-linejoin="round" stroke-width="1.002"/><polygon points="42.255 163.09 129.489 163.09 145.01 184.579 59.656 185.842 42.255 163.09" fill="#fff" stroke="#231f20" stroke-linecap="round" stroke-linejoin="round" stroke-width="1.002"/><line x1="129.049" y1="158.874" x2="51.447" y2="158.874" fill="#fff" stroke="#231f20" stroke-linecap="round" stroke-linejoin="round" stroke-width="1.002"/><line x1="32.445" y1="158.874" x2="39.155" y2="158.874" fill="#fff" stroke="#231f20" stroke-linecap="round" stroke-linejoin="round" stroke-width="1.002"/><polygon points="66.267 213.086 68.236 207.144 167.753 206.123 166.475 210.659 66.267 213.086" fill="#231f20"/><polygon points="136.521 96.619 119.685 139.581 79.919 123.998 75.551 109.406 94.203 61.813 127.22 74.752 142.613 80.842 136.521 96.619" fill="#fff100" stroke="#212221" stroke-linecap="round" stroke-linejoin="round" stroke-width="2.003"/><path d="M90.806,70.48l1.259,4.107a9.9,9.9,0,0,0,5.814,6.3L127.03,92.449a9.971,9.971,0,0,0,8.579-.587l3.288-1.856" fill="none" stroke="#212221" stroke-linecap="round" stroke-linejoin="round" stroke-width="2.003"/><circle cx="109.898" cy="91.645" r="1.65" transform="translate(-32.181 74.615) rotate(-32.99)" fill="#fff" stroke="#212221" stroke-linecap="round" stroke-linejoin="round" stroke-width="1.152"/><circle cx="114.764" cy="80.432" r="3.35" transform="translate(-25.291 75.456) rotate(-32.99)" fill="#fff" stroke="#212221" stroke-linecap="round" stroke-linejoin="round" stroke-width="2.003"/><line x1="110.733" y1="89.785" x2="113.192" y2="83.716" fill="none" stroke="#212221" stroke-linecap="round" stroke-linejoin="round" stroke-width="2.003"/><path d="M111.492,79.751a4.3,4.3,0,0,1-3.789.877" fill="none" stroke="#212221" stroke-linecap="round" stroke-linejoin="round" stroke-width="2.003"/></svg>