<svg data-name="Layer 1" xmlns="http://www.w3.org/2000/svg" viewBox="0 0 280 225"><path fill="#fff" stroke="#231f20" stroke-linecap="round" stroke-linejoin="round" stroke-width="2.021" d="M166.529 114.683l54.816.173v-13.817h11.979v23.037h-56.537"/><path fill="#fff" stroke="#231f20" stroke-linecap="round" stroke-linejoin="round" stroke-width="1.42" d="M158.598 114.658l4.262.013"/><path fill="#fff" stroke="#231f20" stroke-linecap="round" stroke-linejoin="round" stroke-width=".947" d="M174.971 121.721h54.486"/><path fill="#fff" stroke="#231f20" stroke-linecap="round" stroke-linejoin="round" stroke-width="1.894" d="M113.88 107.057V84.799h12.127v39.929"/><path d="M270.939 200.807a25.9 25.9 0 00-26.54-41.595l-1.183.309c0-.109-.01-.407-.016-.516a31.117 31.117 0 00-60.772-7.619l-1.3 4.616M122.2 140.034a24.671 24.671 0 00-48.2 6.3 16.335 16.335 0 00-20.477 8.987 28.479 28.479 0 00-29.151 16.019l-.151.323a24.779 24.779 0 00-2.415 8.587c-.066 1.1-.193 2.205-.193 3.332a28.588 28.588 0 00.507 5.369 11.957 11.957 0 00-10.96 9.157" fill="none" stroke="#231f20" stroke-linecap="round" stroke-linejoin="round" stroke-width="2.021"/><path fill="#fff" stroke="#231f20" stroke-linecap="round" stroke-linejoin="round" stroke-width="1.786" d="M76.306 110.984h134.592v41.358H76.306z"/><path fill="#fff" stroke="#231f20" stroke-linecap="round" stroke-linejoin="round" stroke-width="1.894" d="M196.23 110.984v41.359"/><path fill="#fff" stroke="#231f20" stroke-linecap="round" stroke-linejoin="round" stroke-width="1.786" d="M76.544 158.026h134.592v41.358H76.544z"/><path fill="#fff" stroke="#231f20" stroke-linecap="round" stroke-linejoin="round" stroke-width="1.894" d="M196.498 158.026v41.358"/><circle cx="175.019" cy="131.663" r="4.892" fill="#fff100" stroke="#231f20" stroke-linecap="round" stroke-linejoin="round" stroke-width="1.42"/><circle cx="175.019" cy="178.705" r="4.892" fill="#fff100" stroke="#231f20" stroke-linecap="round" stroke-linejoin="round" stroke-width="1.42"/><path fill="#fff" stroke="#231f20" stroke-linecap="round" stroke-linejoin="round" stroke-width="1.42" d="M160.462 126.771l-2.999 9.785m-3.592-9.785l-2.999 9.785m-3.592-9.785l-2.999 9.785m-3.592-9.785l-2.999 9.785m-3.592-9.785l-2.999 9.785m-3.592-9.785l-2.999 9.785m-3.592-9.785l-2.999 9.785m-3.592-9.785l-2.999 9.785m-3.592-9.785l-2.998 9.785m-3.593-9.785l-2.998 9.785m62.317 37.696l-2.999 9.785m-3.592-9.785l-2.999 9.785m-3.592-9.785l-2.999 9.785m-3.592-9.785l-2.999 9.785m-3.592-9.785l-2.999 9.785m-3.592-9.785l-2.999 9.785m-3.592-9.785l-2.999 9.785m-3.592-9.785l-2.999 9.785m-3.592-9.785l-2.998 9.785m-3.593-9.785l-2.998 9.785M83.226 107.51a6.828 6.828 0 00-11.061-3.651l-22.137 18.756-3.085-3.642 22.136-18.756a11.606 11.606 0 0118.708 5.853m-4.949 9.43c2.186 2.453-1.637 4.851-1.637 4.851L61.94 136.674l-3.085-3.641L78.1 116.726s3.116-2.967 4.737-1.223"/><path fill="#fff100" stroke="#231f20" stroke-linecap="round" stroke-linejoin="round" stroke-width="1.894" d="M57.953 104.525l20.048 23.66-23.66 20.048-20.048-23.66z"/><circle cx="56.157" cy="126.37" r="10.002" transform="rotate(-80.111 56.157 126.37)" fill="#fff" stroke="#231f20" stroke-linecap="round" stroke-linejoin="round" stroke-width="1.42"/><path d="M59.3 126.986a2.485 2.485 0 01-2.134.536l-3.45 2.923-1.885-2.226 3.37-2.855a2.5 2.5 0 114.1 1.622z" fill="#231f20" stroke="#231f20" stroke-linecap="round" stroke-linejoin="round" stroke-width=".947"/><path fill="#fff" stroke="#231f20" stroke-linecap="round" stroke-linejoin="round" stroke-width="1.831" d="M91.705 33.108h44.879v60.885H91.705z"/><path fill="#fff" stroke="#231f20" stroke-linecap="round" stroke-linejoin="round" stroke-width=".947" d="M132.833 93.997V33.112m-37.956 3.044h34.445v45.098H94.877zm28.526 60.248v13.77m-29-25.375h17.696v3.319H94.403z"/><path fill="none" stroke="#231f20" stroke-linecap="round" stroke-linejoin="round" stroke-width=".473" d="M108.785 45.684v25.982"/><path fill="#231f20" d="M196.145 110.984h14.991v41.358h-14.991zm0 46.972h14.991v41.358h-14.991zM132.85 33.112h3.735v60.885h-3.735z"/><path d="M125.5 48.8c-6.4-.524-9.826-3.321-11.234-5.131a1.983 1.983 0 00-3.17.084c-1.408 1.81-4.554 4.523-10.952 5.047a1.288 1.288 0 00-1.189 1.319 35.839 35.839 0 0012.323 25.961 2.384 2.384 0 003.088 0 35.843 35.843 0 0012.323-25.964A1.288 1.288 0 00125.5 48.8z" fill="#fff" stroke="#231f20" stroke-linecap="round" stroke-linejoin="round" stroke-width=".947"/><path d="M111.973 73.8a32.7 32.7 0 01-10.85-22.861c5.977-.574 9.209-3.058 10.85-4.987 1.641 1.929 4.873 4.413 10.85 4.987a32.7 32.7 0 01-10.85 22.861z" fill="#fff100" stroke="#231f20" stroke-linecap="round" stroke-linejoin="round" stroke-width=".449"/><path fill="#fff" stroke="#231f20" stroke-linecap="round" stroke-linejoin="round" stroke-width="1.84" d="M166.401 67.066h93.061v33.16h-93.061z"/><path fill="#fff" stroke="#231f20" stroke-linecap="round" stroke-linejoin="round" stroke-width=".947" d="M253.12 67.066v33.16"/><path fill="#231f20" d="M252.324 67.066h7.139v33.16h-7.139z"/><path fill="#fff" stroke="#231f20" stroke-linecap="round" stroke-linejoin="round" stroke-width="1.42" d="M173.907 75.794h65.174v15.388h-65.174z"/><path d="M183.637 81.423l.86 1.54-1.623.555 1.623.528-.929 1.609-1.291-1.207.361 1.72h-1.776l.361-1.72-1.276 1.221-.947-1.637 1.623-.555-1.609-.5.86-1.554 1.36 1.18-.389-1.734h1.8l-.375 1.734zm40.574 0l.86 1.54-1.623.555 1.623.528-.929 1.609-1.29-1.207.361 1.72h-1.776l.36-1.72-1.276 1.221-.943-1.637 1.623-.555-1.609-.5.86-1.554 1.359 1.18-.388-1.734h1.8l-.374 1.734zm-6.762 0l.86 1.54-1.623.555 1.623.528-.929 1.609-1.291-1.207.361 1.72h-1.776l.361-1.72-1.276 1.221-.944-1.637 1.623-.555-1.609-.5.86-1.554 1.36 1.18-.389-1.734h1.8l-.375 1.734zm-6.762 0l.86 1.54-1.624.555 1.624.528-.93 1.609-1.29-1.207.361 1.72h-1.776l.36-1.72L207 85.669l-.943-1.637 1.623-.555-1.609-.5.86-1.554 1.359 1.18-.388-1.734h1.8l-.374 1.734zm-6.763 0l.86 1.54-1.623.555 1.623.528-.929 1.609-1.29-1.207.36 1.72h-1.776l.361-1.72-1.276 1.221-.944-1.637 1.624-.555-1.61-.5.861-1.554 1.359 1.18-.388-1.734h1.8l-.374 1.734zm-6.762 0l.86 1.54-1.623.555 1.623.528-.929 1.609-1.293-1.207.361 1.72h-1.776l.361-1.72-1.277 1.221-.943-1.637 1.623-.555-1.609-.5.86-1.554 1.36 1.18-.389-1.734h1.8L195.8 82.6zm-6.762 0l.86 1.54-1.623.555 1.623.528-.929 1.609-1.29-1.207.361 1.72h-1.776l.36-1.72-1.276 1.221-.943-1.637 1.623-.555-1.61-.5.861-1.554L188 82.6l-.388-1.734h1.8l-.372 1.734z" fill="#231f20"/><path fill="#fff" stroke="#231f20" stroke-linecap="round" stroke-linejoin="round" stroke-width="3.314" d="M56.876 205.556h190.78m-210.981 0h12.941"/></svg>