<svg id="Layer_1" data-name="Layer 1" xmlns="http://www.w3.org/2000/svg" viewBox="0 0 280 225"><title>security-illustrations</title><polygon points="207.893 199.302 79.057 199.302 79.057 123.966 79.057 116.652 207.893 116.652 207.893 199.302" fill="#fff" stroke="#212221" stroke-linecap="round" stroke-linejoin="round" stroke-width="1.167"/><line x1="207.398" y1="125.219" x2="79.552" y2="125.219" fill="#fff" stroke="#212221" stroke-linecap="round" stroke-linejoin="round" stroke-width="0.778"/><circle cx="88.834" cy="121.2" r="1.773" fill="#fff" stroke="#212221" stroke-linecap="round" stroke-linejoin="round" stroke-width="0.778"/><circle cx="94.032" cy="121.2" r="1.773" fill="#fff" stroke="#212221" stroke-linecap="round" stroke-linejoin="round" stroke-width="0.778"/><circle cx="83.637" cy="121.2" r="1.773" fill="#fff" stroke="#212221" stroke-linecap="round" stroke-linejoin="round" stroke-width="0.778"/><rect x="92.259" y="131.003" width="29.921" height="1.885" fill="#212221"/><rect x="92.259" y="136.202" width="18.622" height="1.885" fill="#212221"/><circle cx="206.544" cy="124.333" r="3.529" fill="#fff" stroke="#231f20" stroke-linecap="round" stroke-linejoin="round" stroke-width="1.167"/><polyline points="158.982 69.242 158.982 101.352 147.156 101.352 136.485 112.036 136.568 101.352 110.657 101.352 110.657 53.027 118.859 53.027" fill="#fff" stroke="#231f20" stroke-linecap="round" stroke-linejoin="round" stroke-width="1.76"/><rect x="124.989" y="33.596" width="33.079" height="53.54" rx="1.998" ry="1.998" transform="translate(19.347 -33.154) rotate(14.331)" fill="#231f20"/><rect x="122.159" y="32.889" width="33.079" height="53.54" rx="1.998" ry="1.998" transform="translate(19.083 -32.475) rotate(14.331)" fill="#fff" stroke="#231f20" stroke-linecap="round" stroke-linejoin="round" stroke-width="1.32"/><rect x="113.409" y="45.055" width="50.578" height="29.207" rx="1.517" ry="1.517" transform="translate(230.832 -59.956) rotate(104.331)" fill="#fff" stroke="#231f20" stroke-linecap="round" stroke-linejoin="round" stroke-width="0.88"/><circle cx="134.046" cy="77.869" r="3.114" fill="#fff" stroke="#231f20" stroke-linecap="round" stroke-linejoin="round" stroke-width="0.88"/><path d="M132.989,56.243a.681.681,0,0,1,.563.908c-.132.51-.5.632-1.024.5l-4.253-1.1a.867.867,0,0,1-.712-1.08c.208-.8,1.154-1.516,2.8-2.045,1.835-.59,2.432-.653,2.669-1.572a1.16,1.16,0,0,0-.894-1.453,1.418,1.418,0,0,0-1.774.823c-.222.39-.425.568-.879.45a.735.735,0,0,1-.631-.974c.358-1.384,1.992-2.086,3.659-1.655,1.815.47,2.584,1.94,2.314,2.983-.391,1.509-1.235,1.919-2.613,2.289-1.47.394-2.373.656-2.632,1.049Z" fill="#231f20"/><path d="M138.049,57.141,135.2,56.4a.823.823,0,0,1-.659-1.006,1.019,1.019,0,0,1,.388-.613l4.653-3.575a.879.879,0,0,1,.819-.127.765.765,0,0,1,.639,1.037l-1.071,4.139.567.147A.668.668,0,0,1,140.2,57.7l-.567-.147-.3,1.168a.82.82,0,0,1-1.588-.411Zm1.095-4.23-.023-.006-2.949,2.371,2.211.572Z" fill="#231f20"/><path d="M145.592,52.607a.637.637,0,0,1,1.184.428,1.2,1.2,0,0,1-.188.351l-4.558,6.431a.637.637,0,0,1-1.184-.427,1.155,1.155,0,0,1,.189-.351Z" fill="#231f20"/><path d="M152.371,54.338a.724.724,0,0,1,.571,1.019c-.235.907-2.191.752-4.672,5.567-.321.631-.539.817-1.072.679a.761.761,0,0,1-.6-1.076,12.333,12.333,0,0,1,4.443-5.01l-3.663-.948a.674.674,0,0,1-.541-.9.681.681,0,0,1,.933-.521Z" fill="#231f20"/><polyline points="71.133 158.108 71.133 170.395 24.421 170.813 24.421 131.266" fill="#fff" stroke="#231f20" stroke-linecap="round" stroke-linejoin="round" stroke-width="1.76"/><polyline points="34.42 104.457 71.133 104.457 71.133 125.878 81.93 125.182 71.133 139.837 71.133 142.57" fill="#fff" stroke="#231f20" stroke-linecap="round" stroke-linejoin="round" stroke-width="1.76"/><polygon points="44.618 133.765 47.352 129.898 79.204 152.408 84.278 153.435 86.782 157.763 84.049 161.631 79.099 160.521 76.13 156.034 44.618 133.765" fill="#fff" stroke="#231f20" stroke-linecap="round" stroke-linejoin="round" stroke-width="1.32"/><rect x="34.808" y="127.328" width="17.691" height="5.711" rx="2.856" ry="2.856" transform="matrix(-0.577, 0.817, -0.817, -0.577, 175.161, 169.666)" fill="#fff" stroke="#231f20" stroke-linecap="round" stroke-linejoin="round" stroke-width="1.32"/><path d="M13.336,108.758h0a6.2,6.2,0,0,1,8.64-1.484L41.258,120.9l1.43,5.7-2.734,3.868-5.509.8L14.821,117.4A6.2,6.2,0,0,1,13.336,108.758Z" fill="#231f20" stroke="#231f20" stroke-linecap="round" stroke-linejoin="round" stroke-width="1.32"/><line x1="37.77" y1="122.699" x2="20.876" y2="110.761" fill="#231f20" stroke="#fff" stroke-linecap="round" stroke-linejoin="round" stroke-width="0.88"/><line x1="34.634" y1="127.136" x2="17.741" y2="115.197" fill="#231f20" stroke="#fff" stroke-linecap="round" stroke-linejoin="round" stroke-width="0.88"/><line x1="203.015" y1="156.016" x2="203.015" y2="198.117" fill="#fff" stroke="#212221" stroke-linecap="round" stroke-linejoin="round" stroke-width="0.778"/><polygon points="92.779 189.255 103.37 179.606 109.677 185.352 123.485 172.772 128.034 176.916 142.41 161.092 150.84 171.481 155.253 163.789 166.382 175.964 180.588 151.812 180.588 189.512 92.779 189.255" fill="#fff100"/><polyline points="92.779 189.255 103.37 179.606 109.677 185.352 123.485 172.772 128.034 176.916 142.41 161.092 150.84 171.481 155.253 163.789 166.382 175.964 179.814 152.094" fill="none" stroke="#212221" stroke-linecap="round" stroke-linejoin="round" stroke-width="1.637"/><polyline points="92.779 143.801 92.779 189.919 180.405 189.919" fill="none" stroke="#212221" stroke-linecap="round" stroke-linejoin="round" stroke-width="1.637"/><rect x="203.015" y="156.016" width="5.374" height="42.766" fill="#231f20"/><polyline points="254.585 138.605 254.585 157.951 200.858 157.951 200.858 150.559 186.831 150.322 200.858 138.951 200.858 60.063 254.585 60.063 254.585 71.681" fill="#fff" stroke="#231f20" stroke-linecap="round" stroke-linejoin="round" stroke-width="1.76"/><circle cx="259.949" cy="112.798" r="5.03" fill="#231f20"/><path d="M259.948,106.4v10.547a21.66,21.66,0,1,1-43.319,0V106.4a21.66,21.66,0,1,1,43.319,0Z" fill="#fff" stroke="#231f20" stroke-linecap="round" stroke-linejoin="round" stroke-width="1.32"/><path d="M238.147,92.738l10.25,19.731a1.322,1.322,0,0,1-1.173,1.93h-7.73a1.322,1.322,0,0,0-1.321,1.347l.115,5.853h9.722s.616,7.174-9.722,7.174-10.339-7.314-10.339-7.314l10.339.14" fill="#fff" stroke="#231f20" stroke-linecap="round" stroke-linejoin="round" stroke-width="1.32"/><circle cx="232.503" cy="105.38" r="1.389" fill="#231f20"/><circle cx="249.399" cy="105.38" r="1.389" fill="#231f20"/><path d="M216.626,110.347c0-13.925-7.473-36.149,21.662-34.32,15.683.984,22.754-1.84,22.754-1.84S277.32,95.015,232.5,87.139c-7.948-1.4-16.158,9.283-15.877,23.208" fill="#fff100" stroke="#231f20" stroke-linecap="round" stroke-linejoin="round" stroke-width="1.32"/><path d="M259.948,106.4A21.623,21.623,0,0,0,251.3,89.079S267.9,83.005,259.948,106.4Z" fill="#231f20"/><circle cx="223.684" cy="139.748" r="8.428" fill="#fff" stroke="#231f20" stroke-linecap="round" stroke-linejoin="round" stroke-width="1.32"/><polygon points="223.684 134.211 225.346 137.58 229.064 138.12 226.374 140.742 227.009 144.445 223.684 142.697 220.358 144.445 220.993 140.742 218.303 138.12 222.021 137.58 223.684 134.211" fill="#fff" stroke="#212221" stroke-linecap="round" stroke-linejoin="round" stroke-width="0.578"/><line x1="56.876" y1="205.556" x2="247.656" y2="205.556" fill="#fff" stroke="#231f20" stroke-linecap="round" stroke-linejoin="round" stroke-width="3.314"/><line x1="36.675" y1="205.556" x2="49.616" y2="205.556" fill="#fff" stroke="#231f20" stroke-linecap="round" stroke-linejoin="round" stroke-width="3.314"/></svg>