<svg xmlns="http://www.w3.org/2000/svg" viewBox="0 0 285.795 54.5">
  <title>Artboard 15 copy 4</title>
  <g id="grid">
    <g id="Specified">
      <g id="case-small-320-measured-copy">
        <g id="logo-primary">
          <g id="C1-logo-primary">
            <path id="Shape" d="M109.217,34.71a5.58,5.58,0,0,1-2.1,1.218,8.278,8.278,0,0,1-2.635.419,6.234,6.234,0,0,1-4.648-1.659,6.306,6.306,0,0,1-1.638-4.627V14.966H94.621v-1.9H98.2V8.016h2.214v5.046h7.348v1.9h-7.348V29.84a4.884,4.884,0,0,0,1.084,3.428,4.157,4.157,0,0,0,3.209,1.173,5.137,5.137,0,0,0,3.586-1.285Z" fill="#231f20"/>
            <path id="Shape-2" data-name="Shape" d="M119.49,14.235a10.5,10.5,0,0,1,5.489-1.35v2.169l-.531-.043a7.676,7.676,0,0,0-6.02,2.412,9.672,9.672,0,0,0-2.17,6.706V36.17h-2.213V13.062h2.122v5.046A8,8,0,0,1,119.49,14.235Z" fill="#231f20"/>
            <path id="Shape-3" data-name="Shape" d="M144.325,15.076q2.3,2.19,2.3,6.442V36.17H144.5V32.054a7.678,7.678,0,0,1-3.231,3.164,10.715,10.715,0,0,1-5.092,1.129,9.378,9.378,0,0,1-6.087-1.814,5.856,5.856,0,0,1-2.235-4.781,5.9,5.9,0,0,1,2.058-4.671q2.06-1.793,6.569-1.792h7.924v-1.86a6.512,6.512,0,0,0-1.747-4.914,7.1,7.1,0,0,0-5.115-1.682,12.368,12.368,0,0,0-4.405.8,11.072,11.072,0,0,0-3.563,2.126l-1.106-1.593a12.294,12.294,0,0,1,4.161-2.414,15.091,15.091,0,0,1,5.091-.863Q142.022,12.885,144.325,15.076Zm-2.944,18.129a8.073,8.073,0,0,0,3.032-3.852V25.015h-7.88q-3.41,0-4.935,1.238a4.149,4.149,0,0,0-1.523,3.408,4.269,4.269,0,0,0,1.683,3.566,7.567,7.567,0,0,0,4.735,1.3A8.687,8.687,0,0,0,141.381,33.205Z" fill="#231f20"/>
            <path id="Shape-4" data-name="Shape" d="M174.118,3.323V36.168h-2.169V30.726a9.928,9.928,0,0,1-3.852,4.161,10.859,10.859,0,0,1-5.622,1.46,11.473,11.473,0,0,1-5.847-1.5,10.776,10.776,0,0,1-4.094-4.161,12.224,12.224,0,0,1-1.483-6.065,12.348,12.348,0,0,1,1.483-6.089,10.581,10.581,0,0,1,4.094-4.161,11.63,11.63,0,0,1,5.843-1.483,10.657,10.657,0,0,1,5.556,1.461,10.39,10.39,0,0,1,3.873,4.073V3.323Zm-6.75,29.792a8.9,8.9,0,0,0,3.319-3.453,10.269,10.269,0,0,0,1.217-5.045,10.292,10.292,0,0,0-1.217-5.046,8.9,8.9,0,0,0-3.319-3.453,9.755,9.755,0,0,0-9.521,0,8.9,8.9,0,0,0-3.32,3.453,10.292,10.292,0,0,0-1.217,5.046,10.291,10.291,0,0,0,1.217,5.045,8.879,8.879,0,0,0,3.32,3.453A9.749,9.749,0,0,0,167.368,33.115Z" fill="#231f20"/>
            <path id="Shape-5" data-name="Shape" d="M200.1,25.148H180.227a9.653,9.653,0,0,0,1.372,4.8,8.773,8.773,0,0,0,3.474,3.254,10.459,10.459,0,0,0,4.938,1.151,10.576,10.576,0,0,0,4.183-.819,8.153,8.153,0,0,0,3.209-2.412l1.283,1.46a9.872,9.872,0,0,1-3.784,2.79,13.2,13.2,0,0,1-11.09-.532,10.919,10.919,0,0,1-4.227-4.161,11.948,11.948,0,0,1-1.523-6.065,12.56,12.56,0,0,1,1.439-6.043,10.616,10.616,0,0,1,3.962-4.189,11.451,11.451,0,0,1,11.311-.022,10.562,10.562,0,0,1,3.933,4.144,12.449,12.449,0,0,1,1.439,6.021Zm-15.362-9.23a8.283,8.283,0,0,0-3.122,3.054,9.976,9.976,0,0,0-1.35,4.45h17.708a9.28,9.28,0,0,0-1.327-4.428,8.6,8.6,0,0,0-7.527-4.161A8.834,8.834,0,0,0,184.742,15.918Z" fill="#231f20"/>
            <g id="_Group_" data-name=" Group ">
              <path id="Shape-6" data-name="Shape" d="M21.194,0A20.033,20.033,0,1,0,35.359,5.867,20.032,20.032,0,0,0,21.194,0Zm8.961,31.2a14.323,14.323,0,0,1-22.1-16.876.953.953,0,0,1,1.746.762A12.418,12.418,0,0,0,28.961,29.718.952.952,0,1,1,30.153,31.2Z" fill="#231f20"/>
              <path id="Shape-7" data-name="Shape" d="M92.366,13.755a.393.393,0,0,1,.362.548L82.6,38.12a12.01,12.01,0,0,1-3.9,5.59,9.564,9.564,0,0,1-5.611,1.618,11.638,11.638,0,0,1-3.543-.555,8.074,8.074,0,0,1-2.613-1.333.4.4,0,0,1-.095-.491l2.061-4.011a.4.4,0,0,1,.6-.126,5.788,5.788,0,0,0,1.393.762,5.526,5.526,0,0,0,1.984.381,3.529,3.529,0,0,0,2.221-.661,5.624,5.624,0,0,0,1.535-2.2l.086-.213L67,14.3a.394.394,0,0,1,.362-.549h6.007a.4.4,0,0,1,.364.243l6.344,15.327L86.463,14a.4.4,0,0,1,.364-.242Z" fill="#231f20"/>
              <path id="Shape-8" data-name="Shape" d="M58.664,36.534,53.755,29.67l-5.079,6.869a.425.425,0,0,1-.341.172H42.153a.424.424,0,0,1-.337-.682l8.311-10.882L42.1,14.433a.424.424,0,0,1,.34-.679h6.4a.425.425,0,0,1,.344.175l4.737,6.524,4.865-6.528a.424.424,0,0,1,.34-.17h6.016a.424.424,0,0,1,.338.681l-8.016,10.54,8.361,11.055a.424.424,0,0,1-.338.68H59.007A.421.421,0,0,1,58.664,36.534Z" fill="#231f20"/>
            </g>
          </g>
        </g>
      </g>
    </g>
  </g>
</svg>
