<svg xmlns="http://www.w3.org/2000/svg" viewBox="0 0 285.795 75.228">
  <title>oxy-asset-type-body</title>
  <g id="grid">
    <g id="Specified">
      <g id="case-small-320-measured-copy">
        <path id="Buying_-selling-and" data-name="Buying,-selling-and" d="M6.256,5.865a2.722,2.722,0,0,1,1.675.91A2.824,2.824,0,0,1,8.6,8.721a2.938,2.938,0,0,1-.969,2.329,3.829,3.829,0,0,1-2.618.85H1.054V0H4.913A3.9,3.9,0,0,1,7.522.816a2.806,2.806,0,0,1,.961,2.261,2.822,2.822,0,0,1-.6,1.87A2.733,2.733,0,0,1,6.256,5.865ZM2.193,1.02V5.389h2.89a2.275,2.275,0,0,0,1.632-.6,2.1,2.1,0,0,0,.629-1.6,2.008,2.008,0,0,0-.663-1.6A2.676,2.676,0,0,0,4.862,1.02ZM5,10.88a2.6,2.6,0,0,0,1.8-.6,2.124,2.124,0,0,0,.663-1.666,2.131,2.131,0,0,0-.629-1.6,2.2,2.2,0,0,0-1.6-.612H2.193V10.88ZM13.753,12.1a2.947,2.947,0,0,1-2.2-.841,3.349,3.349,0,0,1-.824-2.44V4.165h1.088v4.42a2.942,2.942,0,0,0,.536,1.87,2.021,2.021,0,0,0,1.691.68,2.346,2.346,0,0,0,1.42-.416,2.426,2.426,0,0,0,.833-1.08,3.708,3.708,0,0,0,.263-1.377v-4.1h1.088V11.9H16.558V10.149a2.873,2.873,0,0,1-2.8,1.955ZM27.3,4.165v7.99a3.519,3.519,0,0,1-1.088,2.822,3.649,3.649,0,0,1-2.448.782,3.938,3.938,0,0,1-2.6-.782,2.532,2.532,0,0,1-.867-1.989H21.4a1.824,1.824,0,0,0,.587,1.335,2.568,2.568,0,0,0,1.759.5q2.465,0,2.465-2.737v-1.9a2.988,2.988,0,0,1-2.89,1.9,2.8,2.8,0,0,1-2.286-.892,3.881,3.881,0,0,1-.74-2.542V4.165h1.088V8.449a3.243,3.243,0,0,0,.51,1.981,2.088,2.088,0,0,0,1.768.671,2.279,2.279,0,0,0,1.4-.425,2.638,2.638,0,0,0,.859-1.105,3.649,3.649,0,0,0,.289-1.445V4.165Zm2.72,0H31.11V11.9H30.022ZM30.566,2.6a.96.96,0,0,1-.722-.289.983.983,0,0,1-.281-.714,1,1,0,0,1,.281-.731.96.96,0,0,1,.722-.289.988.988,0,0,1,1.02,1.02.97.97,0,0,1-.289.714A.989.989,0,0,1,30.566,2.6ZM33.83,4.165h1.088V5.933A2.762,2.762,0,0,1,35.947,4.5a3.121,3.121,0,0,1,1.878-.536,2.777,2.777,0,0,1,2.2.841,3.586,3.586,0,0,1,.74,2.44V11.9H39.678V7.667a3.285,3.285,0,0,0-.544-2.074,2.006,2.006,0,0,0-1.666-.68,2.275,2.275,0,0,0-1.9.825,3.464,3.464,0,0,0-.655,2.218V11.9H33.83Zm16.881,0v7.684a4.8,4.8,0,0,1-.332,1.844,3.055,3.055,0,0,1-.977,1.3,4.114,4.114,0,0,1-2.669.765,5.916,5.916,0,0,1-1.556-.2,3.324,3.324,0,0,1-1.215-.586,2.658,2.658,0,0,1-.765-.893,2.486,2.486,0,0,1-.289-1.1H44.03a1.771,1.771,0,0,0,.774,1.318,3.2,3.2,0,0,0,1.929.518,2.929,2.929,0,0,0,2.159-.731,2.955,2.955,0,0,0,.731-2.176V10.234a2.928,2.928,0,0,1-1.2,1.369,3.447,3.447,0,0,1-1.827.5,3.818,3.818,0,0,1-2.023-.536,3.663,3.663,0,0,1-1.369-1.461,4.393,4.393,0,0,1-.484-2.066,4.321,4.321,0,0,1,.5-2.074,3.747,3.747,0,0,1,3.392-2.006,3.377,3.377,0,0,1,1.836.5,2.95,2.95,0,0,1,1.173,1.385V4.165Zm-3.995,6.953a2.947,2.947,0,0,0,1.547-.408A2.809,2.809,0,0,0,49.317,9.6a3.457,3.457,0,0,0,0-3.128,2.82,2.82,0,0,0-1.046-1.114,2.933,2.933,0,0,0-1.555-.408,2.837,2.837,0,0,0-1.5.4,2.776,2.776,0,0,0-1.037,1.1,3.342,3.342,0,0,0-.374,1.589,3.312,3.312,0,0,0,.374,1.573,2.79,2.79,0,0,0,1.037,1.1A2.845,2.845,0,0,0,46.716,11.118Zm7.259,2.788a2.349,2.349,0,0,1-.493-.051v-.578c.227.023.4.034.51.034a.952.952,0,0,0,.969-.748,1.326,1.326,0,0,0,.085-.51l-.017-.323a.792.792,0,0,1-.612.238.972.972,0,0,1-.7-.272.945.945,0,0,1-.281-.714.989.989,0,0,1,.289-.731,1.011,1.011,0,0,1,.748-.289,1.27,1.27,0,0,1,.994.485,1.977,1.977,0,0,1,.417,1.334,2.253,2.253,0,0,1-.51,1.547A1.765,1.765,0,0,1,53.975,13.906Zm11.237-1.8a3.919,3.919,0,0,1-1.666-.331,2.692,2.692,0,0,1-1.1-.893,2.121,2.121,0,0,1-.391-1.241h1.088a1.371,1.371,0,0,0,.57,1.114,2.442,2.442,0,0,0,1.555.45,2.106,2.106,0,0,0,1.275-.349,1.142,1.142,0,0,0,.476-.977,1.114,1.114,0,0,0-.289-.8,2.138,2.138,0,0,0-1.02-.493L64.09,8.177a2.042,2.042,0,0,1-1.8-2.074,1.844,1.844,0,0,1,.79-1.556,3.912,3.912,0,0,1,4.148.018A1.968,1.968,0,0,1,68,6.205H66.929a1.224,1.224,0,0,0-.519-1.012,2.283,2.283,0,0,0-1.368-.365,2.107,2.107,0,0,0-1.207.323,1.044,1.044,0,0,0-.476.918q0,.918,1.309,1.241l1.632.442a2.512,2.512,0,0,1,1.36.757,1.952,1.952,0,0,1,.459,1.317,1.993,1.993,0,0,1-.782,1.683A3.427,3.427,0,0,1,65.212,12.1ZM76.959,7.548c0,.125-.011.368-.034.731H70.669a2.911,2.911,0,0,0,.731,2.083,2.607,2.607,0,0,0,1.989.773,2.834,2.834,0,0,0,1.488-.374,2.037,2.037,0,0,0,.875-1.037h1.105a2.8,2.8,0,0,1-1.19,1.717,3.886,3.886,0,0,1-2.278.663,3.971,3.971,0,0,1-2.023-.5,3.365,3.365,0,0,1-1.335-1.428,4.725,4.725,0,0,1-.467-2.151,4.669,4.669,0,0,1,.467-2.142,3.4,3.4,0,0,1,1.318-1.419,4.133,4.133,0,0,1,3.867-.043A3.266,3.266,0,0,1,76.5,5.7,3.715,3.715,0,0,1,76.959,7.548Zm-1.071-.136a2.626,2.626,0,0,0-.7-1.861,2.473,2.473,0,0,0-1.87-.706,2.522,2.522,0,0,0-1.853.706,2.8,2.8,0,0,0-.8,1.861ZM79,0h1.088V11.9H79Zm3.808,0H83.9V11.9H82.807Zm3.808,4.165H87.7V11.9H86.615ZM87.159,2.6a.964.964,0,0,1-.723-.289.986.986,0,0,1-.28-.714,1.006,1.006,0,0,1,.28-.731.964.964,0,0,1,.723-.289.988.988,0,0,1,1.02,1.02.97.97,0,0,1-.289.714A.989.989,0,0,1,87.159,2.6Zm3.264,1.564h1.088V5.933A2.766,2.766,0,0,1,92.539,4.5a3.125,3.125,0,0,1,1.879-.536,2.777,2.777,0,0,1,2.2.841,3.586,3.586,0,0,1,.74,2.44V11.9H96.271V7.667a3.285,3.285,0,0,0-.544-2.074,2.006,2.006,0,0,0-1.666-.68,2.275,2.275,0,0,0-1.9.825,3.464,3.464,0,0,0-.655,2.218V11.9H90.423Zm16.881,0v7.684a4.821,4.821,0,0,1-.331,1.844,3.057,3.057,0,0,1-.978,1.3,4.114,4.114,0,0,1-2.669.765,5.916,5.916,0,0,1-1.556-.2,3.324,3.324,0,0,1-1.215-.586,2.658,2.658,0,0,1-.765-.893,2.486,2.486,0,0,1-.289-1.1h1.122a1.773,1.773,0,0,0,.773,1.318,3.2,3.2,0,0,0,1.93.518,2.929,2.929,0,0,0,2.159-.731,2.955,2.955,0,0,0,.731-2.176V10.234a2.928,2.928,0,0,1-1.2,1.369,3.447,3.447,0,0,1-1.827.5,3.818,3.818,0,0,1-2.023-.536A3.663,3.663,0,0,1,99.8,10.107a4.4,4.4,0,0,1-.484-2.066,4.321,4.321,0,0,1,.5-2.074,3.747,3.747,0,0,1,3.392-2.006,3.377,3.377,0,0,1,1.836.5,2.95,2.95,0,0,1,1.173,1.385V4.165Zm-4,6.953a2.947,2.947,0,0,0,1.547-.408A2.809,2.809,0,0,0,105.91,9.6a3.457,3.457,0,0,0,0-3.128,2.824,2.824,0,0,0-1.045-1.114,2.939,2.939,0,0,0-1.556-.408,2.837,2.837,0,0,0-1.5.4,2.776,2.776,0,0,0-1.037,1.1,3.342,3.342,0,0,0-.374,1.589,3.312,3.312,0,0,0,.374,1.573,2.79,2.79,0,0,0,1.037,1.1A2.845,2.845,0,0,0,103.309,11.118Zm14.246.986a3.935,3.935,0,0,1-2.066-.527,3.5,3.5,0,0,1-1.342-1.453,4.555,4.555,0,0,1-.468-2.083,4.5,4.5,0,0,1,.476-2.083,3.6,3.6,0,0,1,1.36-1.461,3.891,3.891,0,0,1,2.057-.536,3.369,3.369,0,0,1,1.853.51A3.013,3.013,0,0,1,120.6,5.848V4.165h1.071V11.9H120.6V10.234a3.059,3.059,0,0,1-1.2,1.352A3.4,3.4,0,0,1,117.555,12.1Zm.119-.986a2.957,2.957,0,0,0,1.589-.416,2.765,2.765,0,0,0,1.029-1.123,3.356,3.356,0,0,0,.357-1.538,3.4,3.4,0,0,0-.357-1.556,2.76,2.76,0,0,0-1.029-1.121,2.948,2.948,0,0,0-1.589-.417,2.717,2.717,0,0,0-2.108.876,3.161,3.161,0,0,0-.8,2.218,3.42,3.42,0,0,0,.357,1.581,2.685,2.685,0,0,0,1.02,1.1A2.909,2.909,0,0,0,117.674,11.118Zm6.715-6.953h1.088V5.933A2.771,2.771,0,0,1,126.505,4.5a3.125,3.125,0,0,1,1.879-.536,2.779,2.779,0,0,1,2.2.841,3.6,3.6,0,0,1,.739,2.44V11.9h-1.088V7.667a3.285,3.285,0,0,0-.544-2.074,2.006,2.006,0,0,0-1.666-.68,2.275,2.275,0,0,0-1.895.825,3.464,3.464,0,0,0-.655,2.218V11.9h-1.088ZM141.27,0V11.9H140.2V10.234a3.059,3.059,0,0,1-1.2,1.352,3.4,3.4,0,0,1-1.844.518,3.929,3.929,0,0,1-2.065-.527,3.5,3.5,0,0,1-1.343-1.453,4.555,4.555,0,0,1-.468-2.083,4.5,4.5,0,0,1,.476-2.083,3.6,3.6,0,0,1,1.36-1.461,3.891,3.891,0,0,1,2.057-.536,3.369,3.369,0,0,1,1.853.51A3.013,3.013,0,0,1,140.2,5.848V0Zm-4,11.118a2.957,2.957,0,0,0,1.589-.416,2.765,2.765,0,0,0,1.029-1.123,3.356,3.356,0,0,0,.357-1.538,3.4,3.4,0,0,0-.357-1.556,2.76,2.76,0,0,0-1.029-1.121,2.948,2.948,0,0,0-1.589-.417,2.717,2.717,0,0,0-2.108.876,3.161,3.161,0,0,0-.8,2.218,3.42,3.42,0,0,0,.357,1.581,2.685,2.685,0,0,0,1.02,1.1A2.909,2.909,0,0,0,137.275,11.118Zm11.05-6.953h1.088V5.9a2.781,2.781,0,0,1,.85-1.377,2.359,2.359,0,0,1,1.632-.561,2.713,2.713,0,0,1,1.666.493,2.329,2.329,0,0,1,.867,1.445,2.868,2.868,0,0,1,4.684-1.156A3.267,3.267,0,0,1,159.817,7v4.9h-1.071V7.225a2.515,2.515,0,0,0-.519-1.751,1.835,1.835,0,0,0-1.419-.561,1.879,1.879,0,0,0-1.615.8,3.746,3.746,0,0,0-.578,2.227V11.9h-1.088V7.446q0-2.533-1.938-2.533a1.834,1.834,0,0,0-1.615.825,3.849,3.849,0,0,0-.561,2.2V11.9h-1.088ZM165.648,12.1a3.935,3.935,0,0,1-2.066-.527,3.509,3.509,0,0,1-1.343-1.453,4.568,4.568,0,0,1-.467-2.083,4.5,4.5,0,0,1,.476-2.083,3.6,3.6,0,0,1,1.36-1.461,3.891,3.891,0,0,1,2.057-.536,3.369,3.369,0,0,1,1.853.51,3.013,3.013,0,0,1,1.173,1.377V4.165h1.071V11.9h-1.071V10.234a3.059,3.059,0,0,1-1.2,1.352A3.4,3.4,0,0,1,165.648,12.1Zm.119-.986a2.957,2.957,0,0,0,1.589-.416,2.765,2.765,0,0,0,1.029-1.123,3.356,3.356,0,0,0,.357-1.538,3.4,3.4,0,0,0-.357-1.556,2.76,2.76,0,0,0-1.029-1.121,2.948,2.948,0,0,0-1.589-.417,2.717,2.717,0,0,0-2.108.876,3.161,3.161,0,0,0-.8,2.218,3.42,3.42,0,0,0,.357,1.581,2.685,2.685,0,0,0,1.02,1.1A2.909,2.909,0,0,0,165.767,11.118Zm6.715-6.953h1.088V5.933A2.762,2.762,0,0,1,174.6,4.5a3.119,3.119,0,0,1,1.878-.536,2.781,2.781,0,0,1,2.2.841,3.6,3.6,0,0,1,.739,2.44V11.9H178.33V7.667a3.285,3.285,0,0,0-.544-2.074,2.006,2.006,0,0,0-1.666-.68,2.278,2.278,0,0,0-1.9.825,3.47,3.47,0,0,0-.654,2.218V11.9h-1.088ZM185.249,12.1a3.935,3.935,0,0,1-2.066-.527,3.5,3.5,0,0,1-1.342-1.453,4.555,4.555,0,0,1-.468-2.083,4.5,4.5,0,0,1,.476-2.083,3.6,3.6,0,0,1,1.36-1.461,3.891,3.891,0,0,1,2.057-.536,3.369,3.369,0,0,1,1.853.51,3.013,3.013,0,0,1,1.173,1.377V4.165h1.071V11.9h-1.071V10.234a3.059,3.059,0,0,1-1.2,1.352A3.4,3.4,0,0,1,185.249,12.1Zm.119-.986a2.957,2.957,0,0,0,1.589-.416,2.765,2.765,0,0,0,1.029-1.123,3.356,3.356,0,0,0,.357-1.538,3.4,3.4,0,0,0-.357-1.556,2.76,2.76,0,0,0-1.029-1.121,2.948,2.948,0,0,0-1.589-.417,2.717,2.717,0,0,0-2.108.876,3.161,3.161,0,0,0-.8,2.218,3.42,3.42,0,0,0,.357,1.581,2.685,2.685,0,0,0,1.02,1.1A2.909,2.909,0,0,0,185.368,11.118Zm14.025-6.953v7.684a4.8,4.8,0,0,1-.332,1.844,3.047,3.047,0,0,1-.977,1.3,4.114,4.114,0,0,1-2.669.765,5.9,5.9,0,0,1-1.555-.2,3.321,3.321,0,0,1-1.216-.586,2.658,2.658,0,0,1-.765-.893,2.486,2.486,0,0,1-.289-1.1h1.122a1.773,1.773,0,0,0,.773,1.318,3.2,3.2,0,0,0,1.93.518,2.929,2.929,0,0,0,2.159-.731,2.955,2.955,0,0,0,.731-2.176V10.234a2.928,2.928,0,0,1-1.2,1.369,3.447,3.447,0,0,1-1.827.5,3.818,3.818,0,0,1-2.023-.536,3.654,3.654,0,0,1-1.368-1.461,4.393,4.393,0,0,1-.485-2.066,4.31,4.31,0,0,1,.5-2.074A3.744,3.744,0,0,1,195.3,3.961a3.377,3.377,0,0,1,1.836.5,2.95,2.95,0,0,1,1.173,1.385V4.165Zm-4,6.953a2.947,2.947,0,0,0,1.547-.408A2.809,2.809,0,0,0,198,9.6a3.457,3.457,0,0,0,0-3.128,2.82,2.82,0,0,0-1.046-1.114,2.933,2.933,0,0,0-1.555-.408,2.837,2.837,0,0,0-1.5.4,2.776,2.776,0,0,0-1.037,1.1,3.342,3.342,0,0,0-.374,1.589,3.312,3.312,0,0,0,.374,1.573,2.79,2.79,0,0,0,1.037,1.1A2.845,2.845,0,0,0,195.4,11.118Zm6.715-6.953H203.2V11.9h-1.088Zm.544-1.564a.962.962,0,0,1-.723-.289.99.99,0,0,1-.28-.714,1.011,1.011,0,0,1,.28-.731.962.962,0,0,1,.723-.289.988.988,0,0,1,1.02,1.02.97.97,0,0,1-.289.714A.989.989,0,0,1,202.657,2.6Zm3.264,1.564h1.088V5.933A2.771,2.771,0,0,1,208.037,4.5a3.127,3.127,0,0,1,1.879-.536,2.776,2.776,0,0,1,2.2.841,3.591,3.591,0,0,1,.74,2.44V11.9h-1.088V7.667a3.285,3.285,0,0,0-.544-2.074,2.006,2.006,0,0,0-1.666-.68,2.275,2.275,0,0,0-1.9.825,3.464,3.464,0,0,0-.655,2.218V11.9h-1.088Zm16.881,0v7.684a4.8,4.8,0,0,1-.332,1.844,3.047,3.047,0,0,1-.977,1.3,4.114,4.114,0,0,1-2.669.765,5.916,5.916,0,0,1-1.556-.2,3.324,3.324,0,0,1-1.215-.586,2.658,2.658,0,0,1-.765-.893,2.486,2.486,0,0,1-.289-1.1h1.122a1.771,1.771,0,0,0,.774,1.318,3.2,3.2,0,0,0,1.929.518,2.929,2.929,0,0,0,2.159-.731,2.955,2.955,0,0,0,.731-2.176V10.234a2.928,2.928,0,0,1-1.2,1.369,3.447,3.447,0,0,1-1.827.5,3.818,3.818,0,0,1-2.023-.536,3.656,3.656,0,0,1-1.369-1.461,4.4,4.4,0,0,1-.484-2.066,4.321,4.321,0,0,1,.5-2.074,3.747,3.747,0,0,1,3.392-2.006,3.377,3.377,0,0,1,1.836.5,2.95,2.95,0,0,1,1.173,1.385V4.165Zm-4,6.953a2.947,2.947,0,0,0,1.547-.408A2.809,2.809,0,0,0,221.408,9.6a3.457,3.457,0,0,0,0-3.128,2.82,2.82,0,0,0-1.046-1.114,2.933,2.933,0,0,0-1.555-.408,2.837,2.837,0,0,0-1.5.4,2.776,2.776,0,0,0-1.037,1.1,3.342,3.342,0,0,0-.374,1.589,3.312,3.312,0,0,0,.374,1.573,2.79,2.79,0,0,0,1.037,1.1A2.845,2.845,0,0,0,218.807,11.118ZM8.279,29V40.9H7.208V39.234a3.059,3.059,0,0,1-1.2,1.352,3.4,3.4,0,0,1-1.844.518A3.935,3.935,0,0,1,2.1,40.577,3.509,3.509,0,0,1,.756,39.124a4.568,4.568,0,0,1-.467-2.083,4.5,4.5,0,0,1,.476-2.083A3.6,3.6,0,0,1,2.125,33.5a3.891,3.891,0,0,1,2.057-.536,3.369,3.369,0,0,1,1.853.51,3.013,3.013,0,0,1,1.173,1.377V29ZM4.284,40.118A2.957,2.957,0,0,0,5.873,39.7,2.765,2.765,0,0,0,6.9,38.579a3.356,3.356,0,0,0,.357-1.538A3.4,3.4,0,0,0,6.9,35.485a2.76,2.76,0,0,0-1.029-1.121,2.948,2.948,0,0,0-1.589-.417,2.717,2.717,0,0,0-2.108.876,3.161,3.161,0,0,0-.8,2.218,3.42,3.42,0,0,0,.357,1.581,2.685,2.685,0,0,0,1.02,1.1A2.909,2.909,0,0,0,4.284,40.118ZM11,33.165h1.088V40.9H11Zm.544-1.564a.962.962,0,0,1-.723-.289.986.986,0,0,1-.28-.714,1.006,1.006,0,0,1,.28-.731.962.962,0,0,1,.723-.289.988.988,0,0,1,1.02,1.02.97.97,0,0,1-.289.714A.989.989,0,0,1,11.543,31.6Zm10.574,1.564v7.684a4.8,4.8,0,0,1-.332,1.844,3.055,3.055,0,0,1-.977,1.3,4.114,4.114,0,0,1-2.669.765,5.916,5.916,0,0,1-1.556-.2,3.324,3.324,0,0,1-1.215-.586,2.658,2.658,0,0,1-.765-.893,2.486,2.486,0,0,1-.289-1.1h1.122a1.773,1.773,0,0,0,.773,1.318,3.2,3.2,0,0,0,1.93.518,2.929,2.929,0,0,0,2.159-.731,2.955,2.955,0,0,0,.731-2.176V39.234a2.928,2.928,0,0,1-1.2,1.369A3.447,3.447,0,0,1,18,41.1a3.818,3.818,0,0,1-2.023-.536,3.656,3.656,0,0,1-1.369-1.461,4.393,4.393,0,0,1-.484-2.066,4.321,4.321,0,0,1,.5-2.074,3.747,3.747,0,0,1,3.392-2.006,3.377,3.377,0,0,1,1.836.5,2.95,2.95,0,0,1,1.173,1.385V33.165Zm-4,6.953a2.947,2.947,0,0,0,1.547-.408A2.809,2.809,0,0,0,20.723,38.6a3.457,3.457,0,0,0,0-3.128,2.82,2.82,0,0,0-1.046-1.114,2.933,2.933,0,0,0-1.555-.408,2.837,2.837,0,0,0-1.5.4,2.776,2.776,0,0,0-1.037,1.1,3.529,3.529,0,0,0,0,3.162,2.79,2.79,0,0,0,1.037,1.105A2.845,2.845,0,0,0,18.122,40.118Zm6.715-6.953h1.088V40.9H24.837Zm.544-1.564a.962.962,0,0,1-.723-.289.986.986,0,0,1-.28-.714,1.006,1.006,0,0,1,.28-.731.962.962,0,0,1,.723-.289A.988.988,0,0,1,26.4,30.6a.97.97,0,0,1-.289.714A.989.989,0,0,1,25.381,31.6ZM31.62,40a4.123,4.123,0,0,0,1.037-.1v.969A4.592,4.592,0,0,1,31.4,41a2.455,2.455,0,0,1-1.6-.51,2.671,2.671,0,0,1-.629-2.108V34.1H27.659v-.935h1.513V30.581h1.071v2.584h2.142V34.1H30.243v4.063a2.214,2.214,0,0,0,.348,1.471A1.361,1.361,0,0,0,31.62,40Zm6.1,1.1a3.935,3.935,0,0,1-2.066-.527,3.5,3.5,0,0,1-1.342-1.453,4.555,4.555,0,0,1-.468-2.083,4.5,4.5,0,0,1,.476-2.083,3.6,3.6,0,0,1,1.36-1.461,3.891,3.891,0,0,1,2.057-.536,3.369,3.369,0,0,1,1.853.51,3.013,3.013,0,0,1,1.173,1.377V33.165h1.071V40.9H40.766V39.234a3.059,3.059,0,0,1-1.2,1.352A3.4,3.4,0,0,1,37.723,41.1Zm.119-.986a2.957,2.957,0,0,0,1.589-.416,2.765,2.765,0,0,0,1.029-1.123,3.356,3.356,0,0,0,.357-1.538,3.4,3.4,0,0,0-.357-1.556,2.76,2.76,0,0,0-1.029-1.121,2.948,2.948,0,0,0-1.589-.417,2.717,2.717,0,0,0-2.108.876,3.161,3.161,0,0,0-.8,2.218,3.42,3.42,0,0,0,.357,1.581,2.685,2.685,0,0,0,1.02,1.1A2.909,2.909,0,0,0,37.842,40.118ZM44.557,29h1.088V40.9H44.557ZM55.862,41.1a3.915,3.915,0,0,1-2.023-.51A3.46,3.46,0,0,1,52.5,39.157a4.941,4.941,0,0,1,0-4.232,3.46,3.46,0,0,1,1.343-1.437,3.915,3.915,0,0,1,2.023-.51,3.844,3.844,0,0,1,2.465.756,2.95,2.95,0,0,1,1.105,2.049H58.327a2.021,2.021,0,0,0-.791-1.351,2.762,2.762,0,0,0-1.674-.468,2.555,2.555,0,0,0-2.014.833,3.772,3.772,0,0,0,0,4.488,2.555,2.555,0,0,0,2.014.833,2.778,2.778,0,0,0,1.666-.467,1.991,1.991,0,0,0,.8-1.318h1.105a2.921,2.921,0,0,1-1.105,2.015A3.844,3.844,0,0,1,55.862,41.1Zm8.551,0a2.943,2.943,0,0,1-2.2-.841,3.345,3.345,0,0,1-.825-2.44V33.165h1.088v4.42a2.948,2.948,0,0,0,.535,1.87,2.023,2.023,0,0,0,1.692.68,2.341,2.341,0,0,0,1.419-.416,2.412,2.412,0,0,0,.833-1.08,3.689,3.689,0,0,0,.264-1.377v-4.1h1.088V40.9H67.218V39.149A2.876,2.876,0,0,1,64.413,41.1Zm6.63-7.939h1.088v2.04a2.853,2.853,0,0,1,.943-1.64,2.418,2.418,0,0,1,1.556-.553,2.6,2.6,0,0,1,.7.068v1a5.167,5.167,0,0,0-.731-.051,2.007,2.007,0,0,0-1.853,1.046,4.808,4.808,0,0,0-.612,2.473V40.9H71.043Zm6.035,0h1.088v2.04a2.849,2.849,0,0,1,.944-1.64,2.415,2.415,0,0,1,1.555-.553,2.6,2.6,0,0,1,.7.068v1a5.167,5.167,0,0,0-.731-.051,2.007,2.007,0,0,0-1.853,1.046,4.808,4.808,0,0,0-.612,2.473V40.9H77.078Zm12.75,3.383c0,.125-.011.368-.034.731H83.538a2.911,2.911,0,0,0,.731,2.083,2.607,2.607,0,0,0,1.989.773,2.828,2.828,0,0,0,1.487-.374,2.034,2.034,0,0,0,.876-1.037h1.105a2.8,2.8,0,0,1-1.19,1.717,3.886,3.886,0,0,1-2.278.663,3.971,3.971,0,0,1-2.023-.5A3.365,3.365,0,0,1,82.9,39.175a4.725,4.725,0,0,1-.467-2.151,4.669,4.669,0,0,1,.467-2.142,3.4,3.4,0,0,1,1.318-1.419,4.135,4.135,0,0,1,3.868-.043A3.27,3.27,0,0,1,89.369,34.7,3.715,3.715,0,0,1,89.828,36.548Zm-1.071-.136a2.626,2.626,0,0,0-.7-1.861,2.473,2.473,0,0,0-1.87-.706,2.522,2.522,0,0,0-1.853.706,2.8,2.8,0,0,0-.8,1.861Zm3.111-3.247h1.088v1.768A2.762,2.762,0,0,1,93.985,33.5a3.119,3.119,0,0,1,1.878-.536,2.776,2.776,0,0,1,2.2.841,3.586,3.586,0,0,1,.74,2.44V40.9H97.716V36.667a3.285,3.285,0,0,0-.544-2.074,2.006,2.006,0,0,0-1.666-.68,2.275,2.275,0,0,0-1.895.825,3.464,3.464,0,0,0-.655,2.218V40.9H91.868ZM104.6,41.1a3.915,3.915,0,0,1-2.023-.51,3.46,3.46,0,0,1-1.343-1.437,4.941,4.941,0,0,1,0-4.232,3.46,3.46,0,0,1,1.343-1.437,3.915,3.915,0,0,1,2.023-.51,3.844,3.844,0,0,1,2.465.756,2.95,2.95,0,0,1,1.105,2.049h-1.105a2.025,2.025,0,0,0-.791-1.351,2.76,2.76,0,0,0-1.674-.468,2.557,2.557,0,0,0-2.014.833,3.772,3.772,0,0,0,0,4.488,2.557,2.557,0,0,0,2.014.833,2.778,2.778,0,0,0,1.666-.467,1.991,1.991,0,0,0,.8-1.318h1.105a2.921,2.921,0,0,1-1.105,2.015A3.844,3.844,0,0,1,104.6,41.1Zm12.529-7.939v7.99a3.519,3.519,0,0,1-1.088,2.822,3.649,3.649,0,0,1-2.448.782,3.938,3.938,0,0,1-2.6-.782,2.532,2.532,0,0,1-.867-1.989h1.1a1.827,1.827,0,0,0,.586,1.335,2.573,2.573,0,0,0,1.76.5q2.465,0,2.465-2.737v-1.9a2.988,2.988,0,0,1-2.89,1.9,2.8,2.8,0,0,1-2.287-.892,3.892,3.892,0,0,1-.739-2.542V33.165h1.088v4.284a3.243,3.243,0,0,0,.51,1.981,2.088,2.088,0,0,0,1.768.671,2.284,2.284,0,0,0,1.4-.425,2.644,2.644,0,0,0,.858-1.105,3.649,3.649,0,0,0,.289-1.445V33.165Zm9.537,7.939A3.919,3.919,0,0,1,125,40.773a2.692,2.692,0,0,1-1.105-.893,2.121,2.121,0,0,1-.391-1.241h1.088a1.373,1.373,0,0,0,.569,1.114,2.447,2.447,0,0,0,1.556.45,2.106,2.106,0,0,0,1.275-.349,1.142,1.142,0,0,0,.476-.977,1.114,1.114,0,0,0-.289-.8,2.138,2.138,0,0,0-1.02-.493l-1.615-.408a2.042,2.042,0,0,1-1.8-2.074,1.844,1.844,0,0,1,.79-1.556,3.912,3.912,0,0,1,4.148.018,1.968,1.968,0,0,1,.774,1.64h-1.071a1.224,1.224,0,0,0-.519-1.012,2.283,2.283,0,0,0-1.368-.365,2.107,2.107,0,0,0-1.207.323,1.044,1.044,0,0,0-.476.918q0,.918,1.309,1.241l1.632.442a2.512,2.512,0,0,1,1.36.757,1.952,1.952,0,0,1,.459,1.317,1.993,1.993,0,0,1-.782,1.683A3.427,3.427,0,0,1,126.667,41.1Zm9.061-8.143a2.777,2.777,0,0,1,2.2.841,3.586,3.586,0,0,1,.74,2.44V40.9h-1.088V36.667a3.285,3.285,0,0,0-.544-2.074,2.006,2.006,0,0,0-1.666-.68,2.253,2.253,0,0,0-1.887.825,3.5,3.5,0,0,0-.646,2.218V40.9H131.75V29h1.088v5.933a2.657,2.657,0,0,1,1.02-1.436A3.132,3.132,0,0,1,135.728,32.961ZM144.6,41.1a3.965,3.965,0,0,1-2.091-.544,3.742,3.742,0,0,1-1.394-1.471,4.538,4.538,0,0,1,0-4.114,3.746,3.746,0,0,1,1.394-1.47,4.323,4.323,0,0,1,4.2,0,3.746,3.746,0,0,1,1.394,1.47,4.538,4.538,0,0,1,0,4.114,3.742,3.742,0,0,1-1.394,1.471A4,4,0,0,1,144.6,41.1Zm0-1a2.893,2.893,0,0,0,1.547-.408,2.675,2.675,0,0,0,1.011-1.1,3.679,3.679,0,0,0,0-3.128,2.675,2.675,0,0,0-1.011-1.105,2.893,2.893,0,0,0-1.547-.408,2.852,2.852,0,0,0-1.539.408,2.681,2.681,0,0,0-1,1.114,3.49,3.49,0,0,0-.349,1.572,3.4,3.4,0,0,0,.349,1.547,2.694,2.694,0,0,0,1,1.1A2.852,2.852,0,0,0,144.6,40.1Zm8.976,1a2.943,2.943,0,0,1-2.2-.841,3.345,3.345,0,0,1-.825-2.44V33.165h1.088v4.42a2.954,2.954,0,0,0,.535,1.87,2.024,2.024,0,0,0,1.692.68,2.346,2.346,0,0,0,1.42-.416,2.416,2.416,0,0,0,.832-1.08,3.689,3.689,0,0,0,.264-1.377v-4.1h1.088V40.9h-1.088V39.149a2.876,2.876,0,0,1-2.805,1.955Zm6.63-12.1H161.3V40.9h-1.088Zm11.118,0V40.9h-1.071V39.234a3.059,3.059,0,0,1-1.2,1.352,3.4,3.4,0,0,1-1.844.518,3.929,3.929,0,0,1-2.065-.527,3.5,3.5,0,0,1-1.343-1.453,4.555,4.555,0,0,1-.468-2.083,4.5,4.5,0,0,1,.476-2.083,3.6,3.6,0,0,1,1.36-1.461,3.891,3.891,0,0,1,2.057-.536,3.369,3.369,0,0,1,1.853.51,3.013,3.013,0,0,1,1.173,1.377V29Zm-4,11.118a2.957,2.957,0,0,0,1.589-.416,2.765,2.765,0,0,0,1.029-1.123,3.356,3.356,0,0,0,.357-1.538,3.4,3.4,0,0,0-.357-1.556,2.76,2.76,0,0,0-1.029-1.121,2.948,2.948,0,0,0-1.589-.417,2.717,2.717,0,0,0-2.108.876,3.161,3.161,0,0,0-.8,2.218,3.42,3.42,0,0,0,.357,1.581,2.685,2.685,0,0,0,1.02,1.1A2.909,2.909,0,0,0,167.331,40.118Zm15.249-7.157a3.725,3.725,0,0,1,1.963.518,3.594,3.594,0,0,1,1.343,1.446,4.5,4.5,0,0,1,.485,2.116,4.4,4.4,0,0,1-.493,2.1,3.61,3.61,0,0,1-1.377,1.445,3.862,3.862,0,0,1-1.989.518,3.393,3.393,0,0,1-1.836-.51,3.11,3.11,0,0,1-1.207-1.36V40.9h-1.088V29h1.088v5.848a2.885,2.885,0,0,1,1.215-1.385A3.629,3.629,0,0,1,182.58,32.961Zm-.187,7.157a2.776,2.776,0,0,0,2.516-1.5,3.3,3.3,0,0,0,.374-1.581,3.342,3.342,0,0,0-.374-1.589,2.768,2.768,0,0,0-2.516-1.5,2.948,2.948,0,0,0-1.539.4,2.831,2.831,0,0,0-1.054,1.1,3.278,3.278,0,0,0-.382,1.589,3.233,3.233,0,0,0,.382,1.581,2.838,2.838,0,0,0,1.063,1.1A2.965,2.965,0,0,0,182.393,40.118Zm12.733-3.57c0,.125-.011.368-.034.731h-6.256a2.911,2.911,0,0,0,.731,2.083,2.607,2.607,0,0,0,1.989.773,2.828,2.828,0,0,0,1.487-.374,2.034,2.034,0,0,0,.876-1.037h1.1a2.8,2.8,0,0,1-1.19,1.717,3.886,3.886,0,0,1-2.278.663,3.971,3.971,0,0,1-2.023-.5,3.365,3.365,0,0,1-1.335-1.428,4.725,4.725,0,0,1-.467-2.151,4.669,4.669,0,0,1,.467-2.142,3.4,3.4,0,0,1,1.318-1.419,4.135,4.135,0,0,1,3.868-.043,3.27,3.27,0,0,1,1.283,1.275A3.715,3.715,0,0,1,195.126,36.548Zm-1.071-.136a2.626,2.626,0,0,0-.7-1.861,2.473,2.473,0,0,0-1.87-.706,2.522,2.522,0,0,0-1.853.706,2.8,2.8,0,0,0-.8,1.861Zm14.161.136c0,.125-.011.368-.034.731h-6.256a2.911,2.911,0,0,0,.731,2.083,2.607,2.607,0,0,0,1.989.773,2.834,2.834,0,0,0,1.488-.374,2.037,2.037,0,0,0,.875-1.037h1.105a2.8,2.8,0,0,1-1.19,1.717,3.886,3.886,0,0,1-2.278.663,3.971,3.971,0,0,1-2.023-.5,3.356,3.356,0,0,1-1.334-1.428,4.712,4.712,0,0,1-.468-2.151,4.656,4.656,0,0,1,.468-2.142,3.386,3.386,0,0,1,1.317-1.419,4.135,4.135,0,0,1,3.868-.043,3.27,3.27,0,0,1,1.283,1.275A3.715,3.715,0,0,1,208.216,36.548Zm-1.071-.136a2.626,2.626,0,0,0-.7-1.861,2.473,2.473,0,0,0-1.87-.706,2.522,2.522,0,0,0-1.853.706,2.8,2.8,0,0,0-.8,1.861Zm6.307,4.692a3.935,3.935,0,0,1-2.066-.527,3.509,3.509,0,0,1-1.343-1.453,4.568,4.568,0,0,1-.467-2.083,4.5,4.5,0,0,1,.476-2.083,3.6,3.6,0,0,1,1.36-1.461,3.891,3.891,0,0,1,2.057-.536,3.369,3.369,0,0,1,1.853.51,3.013,3.013,0,0,1,1.173,1.377V33.165h1.071V40.9H216.5V39.234a3.059,3.059,0,0,1-1.2,1.352A3.4,3.4,0,0,1,213.452,41.1Zm.119-.986a2.957,2.957,0,0,0,1.589-.416,2.765,2.765,0,0,0,1.029-1.123,3.356,3.356,0,0,0,.357-1.538,3.4,3.4,0,0,0-.357-1.556,2.76,2.76,0,0,0-1.029-1.121,2.948,2.948,0,0,0-1.589-.417,2.717,2.717,0,0,0-2.108.876,3.161,3.161,0,0,0-.8,2.218,3.42,3.42,0,0,0,.357,1.581,2.685,2.685,0,0,0,1.02,1.1A2.909,2.909,0,0,0,213.571,40.118Zm9.2.986a3.919,3.919,0,0,1-1.666-.331,2.692,2.692,0,0,1-1.1-.893,2.121,2.121,0,0,1-.391-1.241h1.088a1.373,1.373,0,0,0,.569,1.114,2.447,2.447,0,0,0,1.556.45,2.106,2.106,0,0,0,1.275-.349,1.142,1.142,0,0,0,.476-.977,1.114,1.114,0,0,0-.289-.8,2.138,2.138,0,0,0-1.02-.493l-1.615-.408a2.042,2.042,0,0,1-1.8-2.074,1.844,1.844,0,0,1,.79-1.556,3.912,3.912,0,0,1,4.148.018,1.968,1.968,0,0,1,.774,1.64h-1.071a1.224,1.224,0,0,0-.519-1.012,2.283,2.283,0,0,0-1.368-.365,2.107,2.107,0,0,0-1.207.323,1.044,1.044,0,0,0-.476.918q0,.918,1.309,1.241l1.632.442a2.512,2.512,0,0,1,1.36.757,1.952,1.952,0,0,1,.459,1.317,1.993,1.993,0,0,1-.782,1.683A3.427,3.427,0,0,1,222.768,41.1Zm11.951-7.939v7.99a3.519,3.519,0,0,1-1.088,2.822,3.649,3.649,0,0,1-2.448.782,3.938,3.938,0,0,1-2.6-.782,2.532,2.532,0,0,1-.867-1.989h1.1a1.827,1.827,0,0,0,.586,1.335,2.573,2.573,0,0,0,1.76.5q2.464,0,2.465-2.737v-1.9a2.988,2.988,0,0,1-2.89,1.9,2.8,2.8,0,0,1-2.286-.892,3.881,3.881,0,0,1-.74-2.542V33.165H228.8v4.284a3.243,3.243,0,0,0,.51,1.981,2.088,2.088,0,0,0,1.768.671,2.279,2.279,0,0,0,1.4-.425,2.638,2.638,0,0,0,.859-1.105,3.649,3.649,0,0,0,.289-1.445V33.165ZM4.267,58.884a1.65,1.65,0,0,0-1.062.332,1.656,1.656,0,0,0-.417,1.334v1.615H5.151V63.1H2.788v6.8H1.7V63.1H0v-.935H1.7V60.6a2.649,2.649,0,0,1,.7-2.133,2.477,2.477,0,0,1,1.615-.57,2.732,2.732,0,0,1,1.139.2v.952A3.131,3.131,0,0,0,4.267,58.884Zm5.8,11.22a3.965,3.965,0,0,1-2.091-.544,3.742,3.742,0,0,1-1.394-1.471,4.538,4.538,0,0,1,0-4.114,3.746,3.746,0,0,1,1.394-1.47,3.965,3.965,0,0,1,2.091-.544,4,4,0,0,1,2.108.544,3.746,3.746,0,0,1,1.394,1.47,4.538,4.538,0,0,1,0,4.114,3.742,3.742,0,0,1-1.394,1.471A4,4,0,0,1,10.064,70.1Zm0-1a2.893,2.893,0,0,0,1.547-.408,2.675,2.675,0,0,0,1.011-1.105,3.679,3.679,0,0,0,0-3.128,2.675,2.675,0,0,0-1.011-1.1,2.893,2.893,0,0,0-1.547-.408,2.852,2.852,0,0,0-1.539.408,2.69,2.69,0,0,0-1,1.114,3.5,3.5,0,0,0-.348,1.572,3.414,3.414,0,0,0,.348,1.547,2.7,2.7,0,0,0,1,1.105A2.852,2.852,0,0,0,10.064,69.1ZM16.1,62.165h1.088v2.04a2.853,2.853,0,0,1,.943-1.64,2.42,2.42,0,0,1,1.556-.553,2.6,2.6,0,0,1,.7.068v1a5.167,5.167,0,0,0-.731-.051A2.007,2.007,0,0,0,17.8,64.078a4.808,4.808,0,0,0-.612,2.473V69.9H16.1Zm17.085,3.383c0,.125-.011.368-.034.731H26.894a2.911,2.911,0,0,0,.731,2.083,2.607,2.607,0,0,0,1.989.773,2.828,2.828,0,0,0,1.487-.374,2.034,2.034,0,0,0,.876-1.037h1.105a2.8,2.8,0,0,1-1.19,1.717,3.886,3.886,0,0,1-2.278.663,3.971,3.971,0,0,1-2.023-.5,3.365,3.365,0,0,1-1.335-1.428,4.725,4.725,0,0,1-.467-2.151,4.669,4.669,0,0,1,.467-2.142,3.4,3.4,0,0,1,1.318-1.419,4.133,4.133,0,0,1,3.867-.043A3.266,3.266,0,0,1,32.725,63.7,3.715,3.715,0,0,1,33.184,65.548Zm-1.071-.136a2.626,2.626,0,0,0-.7-1.861,2.473,2.473,0,0,0-1.87-.706,2.522,2.522,0,0,0-1.853.706,2.8,2.8,0,0,0-.8,1.861Zm1.836-3.247h1.173l2.754,6.273,2.771-6.273H41.82L38.335,69.9h-.9ZM49.98,65.548c0,.125-.011.368-.034.731H43.69a2.911,2.911,0,0,0,.731,2.083,2.607,2.607,0,0,0,1.989.773,2.828,2.828,0,0,0,1.487-.374,2.034,2.034,0,0,0,.876-1.037h1.1a2.8,2.8,0,0,1-1.19,1.717,3.886,3.886,0,0,1-2.278.663,3.971,3.971,0,0,1-2.023-.5,3.365,3.365,0,0,1-1.335-1.428,4.725,4.725,0,0,1-.467-2.151,4.669,4.669,0,0,1,.467-2.142,3.4,3.4,0,0,1,1.318-1.419,4.135,4.135,0,0,1,3.868-.043A3.27,3.27,0,0,1,49.521,63.7,3.715,3.715,0,0,1,49.98,65.548Zm-1.071-.136a2.626,2.626,0,0,0-.7-1.861,2.473,2.473,0,0,0-1.87-.706,2.522,2.522,0,0,0-1.853.706,2.8,2.8,0,0,0-.8,1.861Zm3.111-3.247h1.088v2.04a2.853,2.853,0,0,1,.943-1.64,2.42,2.42,0,0,1,1.556-.553,2.6,2.6,0,0,1,.7.068v1a5.167,5.167,0,0,0-.731-.051,2.007,2.007,0,0,0-1.853,1.046,4.808,4.808,0,0,0-.612,2.473V69.9H52.02Zm12.954,0v7.99a3.519,3.519,0,0,1-1.088,2.822,3.649,3.649,0,0,1-2.448.782,3.938,3.938,0,0,1-2.6-.782,2.532,2.532,0,0,1-.867-1.989h1.105a1.827,1.827,0,0,0,.586,1.335,2.573,2.573,0,0,0,1.76.5q2.465,0,2.465-2.737v-1.9a2.988,2.988,0,0,1-2.89,1.9,2.8,2.8,0,0,1-2.286-.892,3.881,3.881,0,0,1-.74-2.542V62.165h1.088v4.284a3.243,3.243,0,0,0,.51,1.981,2.088,2.088,0,0,0,1.768.671,2.284,2.284,0,0,0,1.4-.425,2.644,2.644,0,0,0,.858-1.105,3.649,3.649,0,0,0,.289-1.445V62.165ZM70.992,70.1A3.965,3.965,0,0,1,68.9,69.56a3.742,3.742,0,0,1-1.394-1.471,4.538,4.538,0,0,1,0-4.114,3.746,3.746,0,0,1,1.394-1.47,4.323,4.323,0,0,1,4.2,0,3.746,3.746,0,0,1,1.394,1.47,4.538,4.538,0,0,1,0,4.114A3.742,3.742,0,0,1,73.1,69.56,4,4,0,0,1,70.992,70.1Zm0-1a2.893,2.893,0,0,0,1.547-.408,2.675,2.675,0,0,0,1.011-1.105,3.679,3.679,0,0,0,0-3.128,2.675,2.675,0,0,0-1.011-1.1,2.893,2.893,0,0,0-1.547-.408,2.852,2.852,0,0,0-1.539.408,2.69,2.69,0,0,0-1,1.114,3.5,3.5,0,0,0-.348,1.572,3.414,3.414,0,0,0,.348,1.547,2.7,2.7,0,0,0,1,1.105A2.852,2.852,0,0,0,70.992,69.1Zm6.035-6.936h1.088v1.768A2.766,2.766,0,0,1,79.143,62.5a3.127,3.127,0,0,1,1.879-.536,2.781,2.781,0,0,1,2.2.841,3.591,3.591,0,0,1,.739,2.44V69.9H82.875V65.667a3.285,3.285,0,0,0-.544-2.074,2.006,2.006,0,0,0-1.666-.68,2.278,2.278,0,0,0-1.9.825,3.47,3.47,0,0,0-.654,2.218V69.9H77.027Zm16.286,3.383c0,.125-.011.368-.034.731H87.023a2.911,2.911,0,0,0,.731,2.083,2.607,2.607,0,0,0,1.989.773,2.828,2.828,0,0,0,1.487-.374,2.034,2.034,0,0,0,.876-1.037h1.105a2.8,2.8,0,0,1-1.19,1.717,3.886,3.886,0,0,1-2.278.663,3.971,3.971,0,0,1-2.023-.5,3.365,3.365,0,0,1-1.335-1.428,4.725,4.725,0,0,1-.467-2.151,4.669,4.669,0,0,1,.467-2.142A3.4,3.4,0,0,1,87.7,62.463a4.135,4.135,0,0,1,3.868-.043A3.27,3.27,0,0,1,92.854,63.7,3.715,3.715,0,0,1,93.313,65.548Zm-1.071-.136a2.626,2.626,0,0,0-.7-1.861,2.473,2.473,0,0,0-1.87-.706,2.522,2.522,0,0,0-1.853.706,2.8,2.8,0,0,0-.8,1.861ZM96.39,70a1.045,1.045,0,0,1-1.037-1.037,1.017,1.017,0,0,1,.306-.748,1,1,0,0,1,.731-.306,1.045,1.045,0,0,1,1.054,1.054,1,1,0,0,1-.306.731A1.017,1.017,0,0,1,96.39,70Zm14.28-2.244H105.4l-.68,2.142h-1.241L107.525,58h1.037l4.046,11.9h-1.241Zm-.323-1.037-2.312-7.174-2.3,7.174Zm3.961-4.556H115.4v1.768a2.762,2.762,0,0,1,1.029-1.436,3.121,3.121,0,0,1,1.878-.536,2.777,2.777,0,0,1,2.2.841,3.586,3.586,0,0,1,.74,2.44V69.9h-1.088V65.667a3.285,3.285,0,0,0-.544-2.074,2.006,2.006,0,0,0-1.666-.68,2.278,2.278,0,0,0-1.9.825,3.47,3.47,0,0,0-.654,2.218V69.9h-1.088ZM131.189,58V69.9h-1.071V68.234a3.062,3.062,0,0,1-1.2,1.352,3.4,3.4,0,0,1-1.845.518,3.935,3.935,0,0,1-2.066-.527,3.509,3.509,0,0,1-1.343-1.453,4.568,4.568,0,0,1-.467-2.083,4.5,4.5,0,0,1,.476-2.083,3.6,3.6,0,0,1,1.36-1.461,3.891,3.891,0,0,1,2.057-.536,3.369,3.369,0,0,1,1.853.51,3.013,3.013,0,0,1,1.173,1.377V58Zm-3.995,11.118a2.957,2.957,0,0,0,1.589-.416,2.765,2.765,0,0,0,1.029-1.123,3.356,3.356,0,0,0,.357-1.538,3.4,3.4,0,0,0-.357-1.556,2.76,2.76,0,0,0-1.029-1.121,2.948,2.948,0,0,0-1.589-.417,2.717,2.717,0,0,0-2.108.876,3.161,3.161,0,0,0-.8,2.218,3.42,3.42,0,0,0,.357,1.581,2.685,2.685,0,0,0,1.02,1.1A2.909,2.909,0,0,0,127.194,69.118Zm11.05-6.953h1.088v1.768A2.766,2.766,0,0,1,140.36,62.5a3.127,3.127,0,0,1,1.879-.536,2.776,2.776,0,0,1,2.2.841,3.586,3.586,0,0,1,.74,2.44V69.9h-1.088V65.667a3.285,3.285,0,0,0-.544-2.074,2.006,2.006,0,0,0-1.666-.68,2.275,2.275,0,0,0-1.9.825,3.464,3.464,0,0,0-.655,2.218V69.9h-1.088ZM151.113,70.1a3.965,3.965,0,0,1-2.091-.544,3.742,3.742,0,0,1-1.394-1.471,4.538,4.538,0,0,1,0-4.114,3.746,3.746,0,0,1,1.394-1.47,4.323,4.323,0,0,1,4.2,0,3.746,3.746,0,0,1,1.394,1.47,4.538,4.538,0,0,1,0,4.114,3.742,3.742,0,0,1-1.394,1.471A4,4,0,0,1,151.113,70.1Zm0-1a2.893,2.893,0,0,0,1.547-.408,2.675,2.675,0,0,0,1.011-1.105,3.679,3.679,0,0,0,0-3.128,2.675,2.675,0,0,0-1.011-1.1,2.893,2.893,0,0,0-1.547-.408,2.852,2.852,0,0,0-1.539.408,2.69,2.69,0,0,0-1,1.114,3.5,3.5,0,0,0-.348,1.572,3.414,3.414,0,0,0,.348,1.547,2.7,2.7,0,0,0,1,1.105A2.852,2.852,0,0,0,151.113,69.1Zm4.845-6.936h1.19l2.125,6.188,2.091-6.188h1.173l2.091,6.188,2.142-6.188h1.19L165.087,69.9h-.952l-2.193-6.392L159.766,69.9h-.935Zm17.867,0h1.088V69.9h-1.088Zm.544-1.564a.96.96,0,0,1-.722-.289.983.983,0,0,1-.281-.714,1,1,0,0,1,.281-.731.96.96,0,0,1,.722-.289.988.988,0,0,1,1.02,1.02.97.97,0,0,1-.289.714A.989.989,0,0,1,174.369,60.6Zm6.239,8.4a4.123,4.123,0,0,0,1.037-.1v.969a4.592,4.592,0,0,1-1.258.136,2.455,2.455,0,0,1-1.6-.51,2.671,2.671,0,0,1-.629-2.108V63.1h-1.513v-.935h1.513V59.581h1.071v2.584h2.142V63.1h-2.142v4.063a2.207,2.207,0,0,0,.349,1.471A1.357,1.357,0,0,0,180.608,69Zm7.242-6.834h1.088V69.9H187.85Zm.544-1.564a.962.962,0,0,1-.723-.289.99.99,0,0,1-.28-.714,1.011,1.011,0,0,1,.28-.731.962.962,0,0,1,.723-.289.988.988,0,0,1,1.02,1.02.97.97,0,0,1-.289.714A.989.989,0,0,1,188.394,60.6Zm5.746,9.5a3.919,3.919,0,0,1-1.666-.331,2.692,2.692,0,0,1-1.1-.893,2.121,2.121,0,0,1-.391-1.241h1.088a1.371,1.371,0,0,0,.57,1.114,2.442,2.442,0,0,0,1.555.45,2.106,2.106,0,0,0,1.275-.349,1.142,1.142,0,0,0,.476-.977,1.114,1.114,0,0,0-.289-.8,2.138,2.138,0,0,0-1.02-.493l-1.615-.408a2.042,2.042,0,0,1-1.8-2.074,1.842,1.842,0,0,1,.791-1.556,3.318,3.318,0,0,1,2.031-.586,3.356,3.356,0,0,1,2.117.6,1.97,1.97,0,0,1,.773,1.64h-1.071a1.226,1.226,0,0,0-.518-1.012,2.288,2.288,0,0,0-1.369-.365,2.107,2.107,0,0,0-1.207.323,1.044,1.044,0,0,0-.476.918q0,.918,1.309,1.241l1.632.442a2.512,2.512,0,0,1,1.36.757,1.952,1.952,0,0,1,.459,1.317,1.993,1.993,0,0,1-.782,1.683A3.427,3.427,0,0,1,194.14,70.1Zm6.069-.1a1.045,1.045,0,0,1-1.037-1.037,1.017,1.017,0,0,1,.306-.748,1,1,0,0,1,.731-.306,1.045,1.045,0,0,1,1.054,1.054,1,1,0,0,1-.306.731A1.017,1.017,0,0,1,200.209,70Z" fill="#222"/>
      </g>
    </g>
  </g>
</svg>
