<svg data-name="Layer 1" xmlns="http://www.w3.org/2000/svg" viewBox="0 0 280 225"><path fill="#fff" stroke="#212221" stroke-linecap="round" stroke-linejoin="round" stroke-width="1.167" d="M207.893 199.302H79.057v-82.65h128.836v82.65z"/><path fill="#fff" stroke="#212221" stroke-linecap="round" stroke-linejoin="round" stroke-width=".778" d="M207.398 125.219H79.552"/><circle cx="88.834" cy="121.2" r="1.773" fill="#fff" stroke="#212221" stroke-linecap="round" stroke-linejoin="round" stroke-width=".778"/><circle cx="94.032" cy="121.2" r="1.773" fill="#fff" stroke="#212221" stroke-linecap="round" stroke-linejoin="round" stroke-width=".778"/><circle cx="83.637" cy="121.2" r="1.773" fill="#fff" stroke="#212221" stroke-linecap="round" stroke-linejoin="round" stroke-width=".778"/><path fill="#212221" d="M92.259 131.003h29.921v1.885H92.259zm0 5.199h18.622v1.885H92.259z"/><circle cx="206.544" cy="124.333" r="3.529" fill="#fff" stroke="#231f20" stroke-linecap="round" stroke-linejoin="round" stroke-width="1.167"/><path fill="#fff" stroke="#231f20" stroke-linecap="round" stroke-linejoin="round" stroke-width="1.76" d="M158.982 69.242v32.11h-11.826l-10.671 10.684.083-10.684h-25.911V53.027h8.202"/><rect x="124.989" y="33.596" width="33.079" height="53.54" rx="1.998" ry="1.998" transform="rotate(14.331 141.532 60.37)" fill="#231f20"/><rect x="122.159" y="32.889" width="33.079" height="53.54" rx="1.998" ry="1.998" transform="rotate(14.331 138.7 59.659)" fill="#fff" stroke="#231f20" stroke-linecap="round" stroke-linejoin="round" stroke-width="1.32"/><rect x="113.409" y="45.055" width="50.578" height="29.207" rx="1.517" ry="1.517" transform="rotate(104.331 138.698 59.66)" fill="#fff" stroke="#231f20" stroke-linecap="round" stroke-linejoin="round" stroke-width=".88"/><circle cx="134.046" cy="77.869" r="3.114" fill="#fff" stroke="#231f20" stroke-linecap="round" stroke-linejoin="round" stroke-width=".88"/><path d="M132.989 56.243a.681.681 0 01.563.908c-.132.51-.5.632-1.024.5l-4.253-1.1a.867.867 0 01-.712-1.08c.208-.8 1.154-1.516 2.8-2.045 1.835-.59 2.432-.653 2.669-1.572a1.16 1.16 0 00-.894-1.453 1.418 1.418 0 00-1.774.823c-.222.39-.425.568-.879.45a.735.735 0 01-.631-.974c.358-1.384 1.992-2.086 3.659-1.655 1.815.47 2.584 1.94 2.314 2.983-.391 1.509-1.235 1.919-2.613 2.289-1.47.394-2.373.656-2.632 1.049zm5.06.898L135.2 56.4a.823.823 0 01-.659-1.006 1.019 1.019 0 01.388-.613l4.653-3.575a.879.879 0 01.819-.127.765.765 0 01.639 1.037l-1.071 4.139.567.147a.668.668 0 01-.336 1.298l-.567-.147-.3 1.168a.82.82 0 01-1.588-.411zm1.095-4.23l-.023-.006-2.949 2.371 2.211.572zm6.448-.304a.637.637 0 011.184.428 1.2 1.2 0 01-.188.351l-4.558 6.431a.637.637 0 01-1.184-.427 1.155 1.155 0 01.189-.351zm6.779 1.731a.724.724 0 01.571 1.019c-.235.907-2.191.752-4.672 5.567-.321.631-.539.817-1.072.679a.761.761 0 01-.6-1.076 12.333 12.333 0 014.443-5.01l-3.663-.948a.674.674 0 01-.541-.9.681.681 0 01.933-.521z" fill="#231f20"/><path fill="#fff" stroke="#231f20" stroke-linecap="round" stroke-linejoin="round" stroke-width="1.76" d="M71.133 158.108v12.287l-46.712.418v-39.547m9.999-26.809h36.713v21.421l10.797-.696-10.797 14.655v2.733"/><path fill="#fff" stroke="#231f20" stroke-linecap="round" stroke-linejoin="round" stroke-width="1.32" d="M44.618 133.765l2.734-3.867 31.852 22.51 5.074 1.027 2.504 4.328-2.733 3.868-4.95-1.11-2.969-4.487-31.512-22.269z"/><rect x="34.808" y="127.328" width="17.691" height="5.711" rx="2.856" ry="2.856" transform="rotate(125.24 43.625 130.189)" fill="#fff" stroke="#231f20" stroke-linecap="round" stroke-linejoin="round" stroke-width="1.32"/><path d="M13.336 108.758h0a6.2 6.2 0 018.64-1.484L41.258 120.9l1.43 5.7-2.734 3.868-5.509.8L14.821 117.4a6.2 6.2 0 01-1.485-8.642z" fill="#231f20" stroke="#231f20" stroke-linecap="round" stroke-linejoin="round" stroke-width="1.32"/><path fill="#231f20" stroke="#fff" stroke-linecap="round" stroke-linejoin="round" stroke-width=".88" d="M37.77 122.699l-16.894-11.938m13.758 16.375l-16.893-11.939"/><path fill="#fff" stroke="#212221" stroke-linecap="round" stroke-linejoin="round" stroke-width=".778" d="M203.015 156.016v42.101"/><path fill="#fff100" d="M92.779 189.255l10.591-9.649 6.307 5.746 13.808-12.58 4.549 4.144 14.376-15.824 8.43 10.389 4.413-7.692 11.129 12.175 14.206-24.152v37.7l-87.809-.257z"/><path fill="none" stroke="#212221" stroke-linecap="round" stroke-linejoin="round" stroke-width="1.637" d="M92.779 189.255l10.591-9.649 6.307 5.746 13.808-12.58 4.549 4.144 14.376-15.824 8.43 10.389 4.413-7.692 11.129 12.175 13.432-23.87"/><path fill="none" stroke="#212221" stroke-linecap="round" stroke-linejoin="round" stroke-width="1.637" d="M92.779 143.801v46.118h87.626"/><path fill="#231f20" d="M203.015 156.016h5.374v42.766h-5.374z"/><path fill="#fff" stroke="#231f20" stroke-linecap="round" stroke-linejoin="round" stroke-width="1.76" d="M254.585 138.605v19.346h-53.727v-7.392l-14.027-.237 14.027-11.371V60.063h53.727v11.618"/><circle cx="259.949" cy="112.798" r="5.03" fill="#231f20"/><path d="M259.948 106.4v10.547a21.66 21.66 0 11-43.319 0V106.4a21.66 21.66 0 1143.319 0z" fill="#fff" stroke="#231f20" stroke-linecap="round" stroke-linejoin="round" stroke-width="1.32"/><path d="M238.147 92.738l10.25 19.731a1.322 1.322 0 01-1.173 1.93h-7.73a1.322 1.322 0 00-1.321 1.347l.115 5.853h9.722s.616 7.174-9.722 7.174-10.339-7.314-10.339-7.314l10.339.14" fill="#fff" stroke="#231f20" stroke-linecap="round" stroke-linejoin="round" stroke-width="1.32"/><circle cx="232.503" cy="105.38" r="1.389" fill="#231f20"/><circle cx="249.399" cy="105.38" r="1.389" fill="#231f20"/><path d="M216.626 110.347c0-13.925-7.473-36.149 21.662-34.32 15.683.984 22.754-1.84 22.754-1.84S277.32 95.015 232.5 87.139c-7.948-1.4-16.158 9.283-15.877 23.208" fill="#fff100" stroke="#231f20" stroke-linecap="round" stroke-linejoin="round" stroke-width="1.32"/><path d="M259.948 106.4a21.623 21.623 0 00-8.648-17.321s16.6-6.074 8.648 17.321z" fill="#231f20"/><circle cx="223.684" cy="139.748" r="8.428" fill="#fff" stroke="#231f20" stroke-linecap="round" stroke-linejoin="round" stroke-width="1.32"/><path fill="#fff" stroke="#212221" stroke-linecap="round" stroke-linejoin="round" stroke-width=".578" d="M223.684 134.211l1.662 3.369 3.718.54-2.69 2.622.635 3.703-3.325-1.748-3.326 1.748.635-3.703-2.69-2.622 3.718-.54 1.663-3.369z"/><path fill="#fff" stroke="#231f20" stroke-linecap="round" stroke-linejoin="round" stroke-width="3.314" d="M56.876 205.556h190.78m-210.981 0h12.941"/></svg>