<svg xmlns="http://www.w3.org/2000/svg" viewBox="0 0 285.795 54.5">
  <title>Artboard 15 copy 3</title>
  <g id="grid">
    <g>
      <path id="Rectangle-2" d="M6.48,23.712H215.434a6.683,6.683,0,0,1,6.683,6.683h0a6.683,6.683,0,0,1-6.683,6.682H6.48A6.682,6.682,0,0,1-.2,30.4h0A6.682,6.682,0,0,1,6.48,23.712Z" fill="#fef200"/>
      <g id="Specified">
        <g id="case-small-320-measured-copy">
          <g id="Group-3">
            <path id="Simplified" d="M17.99,32.587q-5.178,0-8.169-2.767A9.832,9.832,0,0,1,6.83,22.231H9.821a7.315,7.315,0,0,0,2.21,5.6,8.35,8.35,0,0,0,5.959,2.076,7.906,7.906,0,0,0,5.245-1.563,5.408,5.408,0,0,0,1.853-4.374A5.394,5.394,0,0,0,23.771,20.2a8.378,8.378,0,0,0-4.085-2.21l-5.267-1.607q-6.651-1.83-6.652-8.125A7.649,7.649,0,0,1,8.995,3.973a8.2,8.2,0,0,1,3.437-2.924A11.686,11.686,0,0,1,17.5,0a10.123,10.123,0,0,1,7.232,2.522,8.963,8.963,0,0,1,2.678,6.852H24.418A6.545,6.545,0,0,0,22.566,4.4,7.18,7.18,0,0,0,17.41,2.634a7.269,7.269,0,0,0-4.821,1.495A4.9,4.9,0,0,0,10.8,8.08a5.194,5.194,0,0,0,1.406,3.772,9.753,9.753,0,0,0,4.4,2.3L21.7,15.669a8.942,8.942,0,0,1,4.754,2.968,8.3,8.3,0,0,1,1.63,5.29,7.91,7.91,0,0,1-2.723,6.317A10.915,10.915,0,0,1,17.99,32.587ZM33.3,11.606h2.857V31.918H33.3ZM34.727,7.5a2.527,2.527,0,0,1-1.9-.759,2.588,2.588,0,0,1-.737-1.875,2.645,2.645,0,0,1,.737-1.92,2.527,2.527,0,0,1,1.9-.759,2.6,2.6,0,0,1,2.679,2.679,2.547,2.547,0,0,1-.759,1.875A2.6,2.6,0,0,1,34.727,7.5Zm8.211,4.106H45.8V16.16a7.3,7.3,0,0,1,2.232-3.616,6.2,6.2,0,0,1,4.285-1.473,7.132,7.132,0,0,1,4.375,1.294,6.114,6.114,0,0,1,2.277,3.8,7.027,7.027,0,0,1,6.874-5.089,6.931,6.931,0,0,1,5.424,2.053,8.577,8.577,0,0,1,1.853,5.937V31.918H70.3V19.642a6.609,6.609,0,0,0-1.361-4.6,4.826,4.826,0,0,0-3.728-1.473,4.933,4.933,0,0,0-4.24,2.1,9.825,9.825,0,0,0-1.518,5.847v10.4H56.6v-11.7q0-6.651-5.089-6.651a4.816,4.816,0,0,0-4.241,2.165,10.113,10.113,0,0,0-1.473,5.78v10.4H42.938ZM90.7,11.071a9.783,9.783,0,0,1,5.156,1.361,9.441,9.441,0,0,1,3.526,3.8,11.8,11.8,0,0,1,1.273,5.557,11.552,11.552,0,0,1-1.3,5.513,9.451,9.451,0,0,1-3.616,3.795,10.133,10.133,0,0,1-5.223,1.361A8.909,8.909,0,0,1,85.7,31.114a8.164,8.164,0,0,1-3.169-3.571V41.515H79.674V11.606h2.857v4.42a7.581,7.581,0,0,1,3.192-3.638A9.533,9.533,0,0,1,90.7,11.071Zm-.491,18.793a7.294,7.294,0,0,0,6.607-3.928,8.649,8.649,0,0,0,.982-4.152,8.785,8.785,0,0,0-.982-4.174,7.261,7.261,0,0,0-6.607-3.95,7.751,7.751,0,0,0-4.04,1.049,7.418,7.418,0,0,0-2.768,2.9,8.625,8.625,0,0,0-1,4.174,8.492,8.492,0,0,0,1,4.152,7.417,7.417,0,0,0,2.79,2.879A7.788,7.788,0,0,0,90.209,29.864ZM105.651.67h2.857V31.918h-2.857Zm9.64,10.936h2.857V31.918h-2.857ZM116.719,7.5a2.528,2.528,0,0,1-1.9-.759,2.587,2.587,0,0,1-.736-1.875,2.644,2.644,0,0,1,.736-1.92,2.528,2.528,0,0,1,1.9-.759A2.6,2.6,0,0,1,119.4,4.866a2.547,2.547,0,0,1-.759,1.875A2.6,2.6,0,0,1,116.719,7.5ZM133.59,2.991a4.343,4.343,0,0,0-2.79.87q-1.094.871-1.093,3.5v4.24h6.205v2.456h-6.205V31.918H126.85V14.062h-4.464V11.606h4.464V7.5q0-4.107,1.83-5.6A6.506,6.506,0,0,1,132.921.4a7.178,7.178,0,0,1,2.991.535v2.5A8.212,8.212,0,0,0,133.59,2.991Zm6.562,8.615h2.857V31.918h-2.857ZM141.581,7.5a2.527,2.527,0,0,1-1.9-.759,2.588,2.588,0,0,1-.737-1.875,2.645,2.645,0,0,1,.737-1.92,2.527,2.527,0,0,1,1.9-.759,2.6,2.6,0,0,1,2.678,2.679,2.547,2.547,0,0,1-.759,1.875A2.6,2.6,0,0,1,141.581,7.5Zm25.844,12.99q0,.491-.09,1.919H150.908a7.639,7.639,0,0,0,1.919,5.469,6.843,6.843,0,0,0,5.223,2.031,7.433,7.433,0,0,0,3.906-.982,5.348,5.348,0,0,0,2.3-2.723h2.9a7.342,7.342,0,0,1-3.125,4.508,10.2,10.2,0,0,1-5.982,1.741,10.419,10.419,0,0,1-5.312-1.317,8.8,8.8,0,0,1-3.5-3.749,12.371,12.371,0,0,1-1.228-5.647,12.23,12.23,0,0,1,1.228-5.625,8.916,8.916,0,0,1,3.459-3.727,10.861,10.861,0,0,1,10.156-.112,8.584,8.584,0,0,1,3.37,3.348A9.745,9.745,0,0,1,167.425,20.49Zm-2.813-.357a6.9,6.9,0,0,0-1.83-4.888,6.5,6.5,0,0,0-4.91-1.853,6.627,6.627,0,0,0-4.866,1.853,7.366,7.366,0,0,0-2.1,4.888ZM191.393.67V31.918h-2.812V27.543a8.034,8.034,0,0,1-3.147,3.549,8.916,8.916,0,0,1-4.844,1.361,10.308,10.308,0,0,1-5.423-1.384,9.193,9.193,0,0,1-3.527-3.816,11.974,11.974,0,0,1-1.227-5.469,11.794,11.794,0,0,1,1.249-5.468,9.45,9.45,0,0,1,3.572-3.839,10.212,10.212,0,0,1,5.4-1.406A8.846,8.846,0,0,1,185.5,12.41a7.922,7.922,0,0,1,3.08,3.616V.67ZM180.9,29.864a7.752,7.752,0,0,0,4.174-1.094,7.265,7.265,0,0,0,2.7-2.946,8.829,8.829,0,0,0,.937-4.04,8.925,8.925,0,0,0-.937-4.084,7.265,7.265,0,0,0-2.7-2.946A7.752,7.752,0,0,0,180.9,13.66a7.133,7.133,0,0,0-5.535,2.3,8.306,8.306,0,0,0-2.1,5.825,8.975,8.975,0,0,0,.937,4.152,7.043,7.043,0,0,0,2.678,2.879A7.636,7.636,0,0,0,180.9,29.864Z" fill="#222"/>
            <g id="effects_highlight_logo" data-name="effects/highlight/logo">
              <g id="Group-7">
                <g id="logo_smile" data-name="logo/smile">
                  <path id="Fill-1" d="M218.912,33.7l-.012.012a.625.625,0,0,1-.062.076.617.617,0,0,1-.057.047,4.865,4.865,0,0,1-7.7-5.8.651.651,0,0,1,.1-.183l.006-.012,0,0a.664.664,0,0,1,1.058.8l0,0a3.544,3.544,0,0,0,5.595,4.248l0,0c.014-.017.026-.035.041-.05a.666.666,0,0,1,1.016.853Zm-3.576-9.986a6.683,6.683,0,1,0,6.683,6.683A6.683,6.683,0,0,0,215.336,23.712Z" fill="#222"/>
                </g>
              </g>
            </g>
          </g>
        </g>
      </g>
    </g>
  </g>
</svg>
